<svg xmlns="http://www.w3.org/2000/svg" width="600" height="600"><path fill="#7A6964" d="M318 110c2-2 5 0 7-1 12 2 25 3 34 9 12 5 22 10 29 17 6-1 10-2 15-1 5 3 9 5 10 9 13 18-6 31-1 46 2 5 1 7 3 9 5 2 10 0 14 3-5 2-9 0-13 0 0 15-8 26-15 33 10 8 17 20 23 30-7-7-14-17-25-23-4 0-9 2-7 7 8 41 36 71 41 111 5-2 12-1 16-4 9 1 15 1 20 4 10 6 13 13 19 20 5 15 1 27-1 39-3 16-8 29-17 39-4-1 2-7 2-7-17 16-41 26-58 33-40-2-86-9-130-3-9-3-15-4-21-6-8-10-13-17-19-21 4 7 12 13 17 21-62-10-58-10-89-11-38-27-25-12-54-38-5-11-8-20-10-29-1-19 0-34 8-47 6-13 15-24 25-31 14-9 28-14 43-14 5 1 6 3 7 5-14 12-27 27-35 40-5 9-3 19-4 27 6 17 15 28 27 39 20 5 33 13 55 16-4-17-2-35-3-51 0-20-13-31-19-46 0-12-2-20-3-28 18-28 35-53 40-72 1-14-8-22-11-31-3-2-5 0-8-1 8-1 8-6 8-12-7-2-12-5-20-3 7-2 15-4 20 0 12-15 4-30 2-44 14-29 49-21 76-35"/><path fill="#EEE6CE" d="M340 302c-4 2-11 0-12 6-8-7-15-2-17-2 0 3 5 4 7 7-18-25-19 11-21 14 6 0 10 7 15 9 9 11-1 8 10 22 1-7-4-17-2-19 10 13 2 24 11 33 2-3 1-8 2-11 1 8 4 16-1 19 3 0 5-2 7-3-1 4-4 7-5 10-5-6-3-13-9-17 1 4-1 8 0 14 2 1 2-5 7 2 2 3 4 5 6 7 5-4 8-9 11-13 0 4-2 8-4 13 0 3 3 4 3 5 11-8 4-26 15-31 2-12-13 9-13-12 3 1 4 10 8 6 4-7 4-14 3-21 3 5 5 9 4 15 2-4 2-9 1-14 9 3 3 19 6 20 4-8 2-16-5-22 3-1 5 1 7 3-4-4 5-7 3-17-4-9-15 9-15-1-3 2-4 8-9 12 0-5 3-9 3-14-2 2-3 3-5 4 0-4 3-7 2-10-2-4-6-9-9-14h-2"/><path fill="#91746B" d="M281 384c-11 3-28 10-26 31 3-1 6 6 7 9 6-4 8 10 9 2 0-3-4-7-4-11 9 8 15 18 23 23-6-4 0-9 2-5 9 6 20 10 21 11 12-4 28 14 48 11-26-23-31-47-47-62-18-5-25-7-28-10"/><path fill="#BBA697" d="M319 121c2 1 4 1 5 2-5 0-5 6-10 4-1 8-1 14 0 14-1 3-2 2-4 1 11 25 7 11 20 33-9-2-5-11-11-10-2 6 4 16-4 19 8 6 28 2 37 1 2 2 4 1 6 3-4 0 5-21-5-16 10-7 7-18 14-25-4-2-10 1-13 1 4-5 10-8 14-7-7-5 5-3-1-7-13-3-29-17-45-12"/><path fill="#3B2B30" d="M114 387c1 10 4 21 5 26 3 0 5 13 13 16 7 16 26 9 41 29l-7-4h-2l3 1h2c8 4 17 6 25 8-2-2-5-2-8-4 16 1 16-8 43-1-5-3-4-4-10-7 4-1 7 1 11 2-1-4-5-5-7-7 11 5 7-2 14-2-6-8-31-7-57-22 5 7 14 7 19 16-9-4-16-4-20-12 0 7-13-2-1 10-11-2-18-4-23-8 1 2 3 5-1 6-8-4-13-8-18-13 1 2 2 3 1 6-7-5-6-14-12-18 3 7 5 14 9 20-16-17-8-24-21-39"/><path fill="#584142" d="M331 414c5 6 9 12 13 18 0-1-2-1-1-2 5 8 7-4 14 4 10 3 13 11 24 15-5-1-8 14-19 6 4 3 8 12 6 14-8 0-13-5-20-4-11 5 12 9 0 10 22 0 29 4 51 8 8-1 13-7 20-7 5-4 9-6 12-8 4-2 7-4 8-6 1-10-4 1-6 3-3-1-2-3-3-4 4 7-5 11-9 12-3-2-6-5 0-6-9 2-20 8-25 3 11 2 22-13 31-21-10 1-20 3-28 9 2-7 9-9 15-11-5-2 0-6-3-7-8-1-13 8-23 6-31-12-45-21-54-30"/><path fill="#75858B" d="M163 323c-10 6-19 7-25 20-3-7-5-1-12-2 15-20 9 5 20-16-7 2-12 7-16 9-13 11-3 18-14 33-2 11 3 17 6 24 7 3 8 10 11 5 4 0 6-6 9-3 5 9 11 18 18 26-5-32-11-19-14-61 4-9 10-20 16-31-12 11-19 34-23 38 4-19 12-30 21-41"/><path fill="#534146" d="M283 437c1 10 5 21 12 27-32-38-37-13-13 6 3 3 7 5 12 6 13 2 23 1 34 0-7-3-15-3-23-4-4-7 5 1 3-5 11 5 23 5 34 4-6-2-11-6-16-8 4 0 4-2 9-4 3 3 4 5 7 6-2-9 7-2 10-5 0-7-19 1-21-11 1 1-2 3 0 3-9 0-10-2-14 1-14-7-14-10-16-15-3 4 5 7 2 12-8-4-14-7-18-12"/><path fill="#8E6F65" d="M405 320c-3 5 2 4 4 13 1 5 2 8 4 11 2 4 2 1 6-1 2 18-5 22-5 30-3-3-8-11-11-18-2-1-1 1-2 2-4-5-13-16-5-20-10 15-3 9-6 28-6 4-3 8-7 13 1-3 5-1 4 3-7 2-13 5-17 8 2 4 5 5 2 9 7-5 11-4 11 0 3-11 0-2-5-6 4-2 5-5 7-6 10 2 13 9 20 5-4 4-2 11-8 11-6-4-13-6-16 1-2 0-2 3-1 6 0-1 1-4 3-5 4 0 3 1 2 2 1-2 4-4 6-5 0 3 3 6 1 8 0-3 1-6 4-6 2 19-7 8-5 17 8 1 10-9 11-16 5 3 7 7 4 10 0-2 2-2 4-3 1 2 4 3 4 5-1-7-6-13-4-22 5-16 10-25 11-43 2-6-2-17 2-19-9-11-4-6-10-7-2 3-2 5-2 7-1-4-2-7-4-10"/><path fill="#A3887C" d="M242 286c-11 4-11 17-14 23 5 3 13 4 19 7-1-1-2-2-1-5 2-4 5 0 6 2 0 2-4 6-6 14-1-1-4 2-5-1 7 5 7 12 14 16 1 1 12-1 18-1 6-4 3-7-1-7 3-2 5-3 7-2-8-4-16-6-19-12 2-13-18-8-17-24 6 1 12 7 17-2-1 10 10 17 16 23 4 0 5 0 7 1-1-9-6-9-2-19-6-3-10-8-14-10-7-1-9 2-14 1 0-3 3-2 4-5-4 0-6 8-14 0"/><path fill="#DCCFB7" d="M376 288c-1 6 0 18-4 24-7-4-5-6-2-15-8 5-10-5-9-2 0 7-2 15-3 21-2-3-1-5 0-7-6 2-8-2-16-10 5 4 8 12 12 16 3 5-3 7-2 9 2 1 5-6 6-1-2 4 0 6-6 12 10-17 11-4 16-12 6-3 12 1 10 5-1 4 0 7-2 8-4 1-7-2-8-4 2 3 5 5 8 7 1 8-5 1-6 0-1 2-4 8-2 17-4-4-3-10-6-14 1 5 1 11-2 15 0-1 2-1 1-3 1 6 3 8 5 8-8-1-12 45-20 42-7-8-4-10-13-15 1-4 3-7 5-9-2-1-3 2-5 3l-1-2v-1l1-2c1-4 1-9 1-14-1 5-1 8 0 14-5-4-6-7-7-9 1 2 4 6 3 12l2 2v1l1 2c-6-3-4-3-7 0-1 4-1 3 2 9 9 7 17 14 26 20 3-15 7-28 17-38-4 2-5 8-9 7 3-7 7-13 10-19l2-1-1 2c-3 3-6 8-9 11-1-6 3-10 2-12 5-7 5-15 4-20 9-4 2 12 6 7 7-6 9-15 8-23-13-27 9-12-10-44"/><path fill="#452E2E" d="M211 299c10 41 0 28 13 56 3 2 4 3 7 4-10-7-1-6-8-16 6 7 13 11 13 17 8 1 11 6 25 10-1-3-5-5-5-8 9 8 17 17 27 17 1-5 6 2 9-1 0-3-2-5-3-7 9 10 19 11 29 15-3 0-6-11-15-16 14 10 12 6 15 3 1-4-2-12-5-15-1 3 1 13-4 10-8-2-12-9-17-12 2 6 11 9 9 17-9-3-15-10-22-14 1 2 8 6 3 12-11-6-14-8-16-7-5-6-14-11-16-19-8 1-14-7-21-10-4-16-17-18-16-31"/><path fill="#705956" d="M365 256c-13 20-13-3-25 14-4-7-13-1-18-5-12 10 3 1-1 9-14-12-13-4-27-9-1 5 2 7 4 11-3-1-5-3-7-5-5 2-2 4-3 8-2-3-3-4-4-6-2 4-3 7-2 12s2-1 4-2c2 4 10 3 12 7 0-3-3-5 0-8 12 4 18 13 28 16-8-5-10-7-15-11-1-4 2-5 2-6 8-2 14 0 22 10 0-6 3-10 4-15 6-1 6 3 9 4 2-6 5 1 8-5 2 3 4 3 3 6 3-4 20-8 7-9 1-6 1-10 0-13"/><path fill="#816A65" d="M361 265c-5 4-7 12-13 15-4-1-4-5-8-3-2 6-4 9-3 15-10-10-17-12-22-12-2 3-4 3-3 5 4 7 9 7 16 13-17-14-34-10-42-14-4-7 10 12-1 14 2-1 16 1 15-6 2 3 7 6 5 9 14-7 5 4 21-2 17-1 32-5 45-11 2-15-1-15-11-5-4-8-3-13 2-18"/><path fill="#472E2F" d="M251 401c-4 8-7 24-14 23 8 2 6 22 8 21 0-9-4-19 1-28 2 20 0 34 11 48 5 5 8 8 12 9 13 3 24 3 34 4-8 0-15-3-22-5-25-30-1-6-18-33 5 0 24 20 28 22-3-3-6-10-8-17 0-5-2-6-2-8 21 19 20 1 38 16-11-6-28-17-24-10-9-5-13-10-18-14 3 3 5 8 6 13-4 1-7-1-10-2-10-7-10-10-15-19 0 3 3 6 1 9-4-8-7-13-6-20-1 9 1 14-1 23-2-6-7-2-5-14 0-1 1-12 4-16"/><path fill="#8D6F65" d="M475 376c3 16 3 15-1 30-9 3-1-10-9 3 2-8 4-13 3-19 0 3 0 5-1 8-3-7-2-12-4-15-3 8-5 13-11 21-5-2-2-5-3-8h1l-2-1c-1-2-5 2-5 3-2-1-1-2-2-5 0 2-1 3 0 6l-4 8c4-3 7-8 10-11-1 8-7 13-4 22-1 6 0 13 5 15 5 1 4-3 7-4 1 3 5 5 4 8 6-23 16-5 17-32 2 6 1 9 2 13 1-8 5-14 4-22 0-8-4-12-6-17"/><path fill="#412A2C" d="M256 234c-1 11-3 17-6 25-5-3-7 6-11 13 2 5 20 12 32 13-1-3 3 0 3-2 2 6 1 5 6 12 2-1-3-6-1-14 3 7-1-14 6-10v2l1-1-1-3c-6-4-5-15-10-22 6 11 4 12 1 14 1-7-11-3-10-14-10 0 1 3-3 7-7-6-6-11-7-18"/><path fill="#A28A80" d="M284 391c1-1 3 0 4-1 8 2 11 5 14 10 0-1-4-8 1-7 5 7 13 10 12 17 2 7-6 11-13 11-14-10-16-2-30-16-4 0-9 4-7 9 1-21 17-7 14-24"/><path fill="#2B181A" d="M246 419c-3 8 0 17 1 25-2-1-5 4-7 3 2-8-1-7-12-10-3 7 12-1 10 7-6 0-6 6-15-1 2 4 7 7 8 11-4-2-8-2-11-4 5 4 8 3 10 7-22-5-32 3-41 2 1 0 4 2 6 3-3 1-8 0-9 2 14 2 13 2 15-4 6 3 6 5 3 6 8 0 32 1 56 7-4-7-13-12-14-19 21 21 27 30 1-2 0-10-1-19-2-32"/><path fill="#F4ECD8" d="M311 196c-10 0-17 9-26 8-11 13 3 10-2 19 2 0 5-2 8-5 5 9 12 4 15 11 4-4-5-2-5-8 11 6 19-4 29 1-3-6-13 0-14-9 0-18 16-13-6-17"/><path fill="#A48C82" d="M270 133c9 7-18 25-16 42 8-4 20-7 26-11 4-6-1-10 1-15 4 6 10 9 14 12l3 1v-2c1-1 0-3 1-4-1 1 0 4-1 6-6-5-12-6-15-11-2-8 12-6 10-3-2-3-10-4-7-9 9 3 6-6 17 3 7 6 9 11 5 16-1-3-6-8-11-8 3-1 7 4 9 9 12-20-20-26-31-27"/><path fill="#775952" d="M463 364c3 2 2 6 3 10-8 1-6 14-17 13v3h-3c5-8 1-2-3-7 3 3 1 10-5 6-4-7-4-11-4-16-5 7 3 16 4 20 1 6 1 10-2 14-2-10-2-19-5-18-7 16 1 35 4 40 7 3 15 7 19 9 4 1 7 1 6-1-4 0 0-5-5-7-2 1-2 5-6 6-5-2-4-6-7-8 0-8-1-11 0-19 3-14 12-13 7-19 6 1 2 7 10-1 0-1 1-4 2-8 6 21 5 8 9 11-1-6-1-14 1-22 2 1 4 5 6 7-3-4-6-14-12-13"/><path fill="#8E6F64" d="M244 295c-4 13 17 17 14 23 6 8 14 9 22 12-2 3-4 2-5 3 4 0 4 6 0 8-3-1-6 2-8 0-1 7 2-3 7 4-3 2-5-1-8 2-3-11-11 6-18-11 3 5 6 7 8 12 14 15 18-1 33 13-4-3-5-6-5-10 4-2 9 3 10-3-3-3-10-6-14-5 3-8 10-3 16-3-3-7-38-19-49-46"/><path fill="#573F3F" d="M431 377c-2 14-8 26-6 41 7-8-5 16 11 12-3 2-1 6-3 7 6 4 12 5 15 6-6 9 0 16-7 23 8-5 13-8 16-16 4-7 5-12 6-18 6-2 2 6 2 9 3-5 5-10 7-15 1 11-5 18-8 26 7 0 9-17 12-12-1-3-1-5-1-8 0-16-10 8-8-7-2 3 0 4-3 5-2 6-3 12-8 9-8 0-23-13-21-9-6-9-9-22-7-35 0-5 2-8 5-9 1 9 3 14 2 21 4-4 1-10 3-15 1-7-12-8-5-16"/><path fill="#D9C9B6" d="M353 184c-12 12-52-7-30 14 10-5 26 0 34-1 11 1 13 19 21 11 2 5 5 6 3 8-2-1-5 1-7 4 3 0 6-3 7 1-14 6-27 3-41 3 0 1 1 3 0 6 15 2 21 2 31-1-1-3 4-7 8-8 4 1 4-6 8-3-1-1-2-1-3 0 7-3 2-3-4-10-13-4-5-2-22-13l-1 1-1 1v2l-2-2c1-4 5-9-1-11"/><path fill="#9D8378" d="M406 324c-3 1-2 4-4 5-13-14-2 21-11 13 6 9 9 8 9 20 0-4 0-9 3-10 2 10 9 14 9 22 2-9 10-18 5-34-2 3 2 5-1 6-8-5-6-14-11-20"/><path fill="#5C5F67" d="M117 361c-2 7-2 14-3 20 6 10 5 19 11 26 8 6 10 12 18 15 7-8 12 2 16-4-6-6-12-15-16-24-3-1-5 0-8 5-3 4-9-5-13-5-7-9-8-21-5-30"/><path fill="#A18B82" d="M366 131c5 0 2 4 3 5-2 5-7 7-15 10 4-7 16-1 23-4 2 4-2 5-4 6 5-1 9-1 9 4-1 9-15 8-10 13 7-19 11 11 11-7 6 8-1 15 4 21 5 2 7 6 11 7 0-18-1-26-8-38-10-1-10-13-22-17"/><path fill="#93D4DC" d="M173 309c-8 1-16 3-23 7-13 6-19 20-23 24 4-3 6 1 9 2 10-16 22-14 32-25 7 1 2 6 1 7 4-6 24-17 5-15"/><path fill="#5D4341" d="M291 255c-15 2 1 13-5 23 1-4 1-6 4-7 4 2 7 5 9 7-1-4-9-8-7-14 14 6 16-3 28 11 2-10-2 4-4-6-1-4 3-1 4-3 7 2 16-4 19 1 13-9 16 2 30-12-25 1-55 15-76-1"/><path fill="#261515" d="M429 359c1 2-2 10-3 3 10 0-12 41-7 51 0 6-3 16-9 18l-1 3h-3c4-11-1 3-3 2 2-7-1-13 2-17-2 2-2 5-3 9-5 4-9 12-11 7-1 9 4-3 10 0 0 5-3 6-4 7-15 3-26-8-37-11 9 5 18 11 28 13 10 1 16-3 18-9h3v-1l2-1c2 1-2 4-3 5 7-3 11 1 18-4 6 8 0 10 3 12 4-1 6-5 11-3-11 7 14 0-5 12-10 5-21 10-30 15 16-6 26-11 36-15-6 16-25 26-38 28 25-6 25-8 51-18-4-6 3-5-15 5 2-5 3-9 5-12-6-5-4-8 2-10-3-2-2-5-5-4-4-2-6-2-9-2-1-3 1-8-4-9-14 9-9-5-12 0 2-6 4-10 5-14-2-13 8-36 10-52 15-10 6-5-2-5"/><path fill="#7A5A53" d="M346 425c1 2 5 5 7 6-5 1-3-2-4 4-4-8-10-1-7-9-2 6 6 6 1 9 7 10 15 14 20 19-27 0-43-11-59-12 19 15 25 4 36 13 9 0 16 3 22 1 38-3-3-16-13-31"/><path fill="#4C474E" d="M121 400c2 8 3 19 10 29-2-7-5-14-8-20 8 4 8 12 13 17 2-2-2-3 0-4 7 5 12 7 16 10 6 0 0-3 2-4 8 4 14 6 20 8 0-4-2-5-4-6 5 1 5-4 9-1-7-11-16-14-18-22-9-1 3 8 3 13-11 1-17-5-21 3-9-4-11-10-18-14-2-4-3-6-4-7"/><path fill="#F4EEDB" d="M349 197c-1 1 11 9 6 17-28 11-2 8 11 10 26-1-4-6 18-8-12 1-21-24-32-17"/><path fill="#8F7167" d="M393 273c-8 0-8 10-15 12 3 10 7 0 15 4 2 8 4 16 6 22-4 8-5-5-7-1 0 5-1 6-4 8 4 7 5 11 7 15 0-20 8 8 6-19 7 3 10 11 12 4-3-6-6-12-8-18 3 5 1 8 2 11-3-3-8-1-9-7s-5-10-3-15c3 0 8 7 8 6-5-8-9-15-9-23"/><path fill="#261618" d="M231 356c3 13 19 21 29 26 4 8-8 9-9 20 8-9 10-12 16-17 12-5 28-4 36-4-5-2-10-9-16-13 4 2 5 6 8 9-6 3-9 3-11-1 0 2 2 2 2 4-4 0-8 0-13 2-9-4-9-5-15-8 4-1 8-3 10-1-3-3-7-6-9-11-1 3 1 5 2 7-3 1-6 1-8 1-17-16-8-7-20-9"/><path fill="#805549" d="M278 166c0 3-3 0-4 2 2-2 4 2 5 3-2 7-6 3-6 6-6-2-8 6-12 1 2-3 7-6 9-8-12 3-14 11-23 18 3 2 10 9 15 7 11 6-6-10 19-10 4 5 0 10 4 13 4-6-13-17-2-32"/><path fill="#422D2F" d="M235 366c4 12-2 15 10 22-1 9-3 14-6 19-1-4-1-9-2-14 1 8-2 17 1 24 0-7 3-13 7-19 8-4 11-6 19-13-2-2-15-7-27-17"/><path fill="#432F32" d="M352 457c5 9-13-1-8 9-4-2-7-3-8-5-8 0-3 2-10 2 6 3 12 5 18 8-17 6-35-6-38-1 32 7 14 4 46 6-2-1-6-3-6-12 12 1 29 12 17-7-3 1-6 0-9 1"/><path fill="#7D5349" d="M383 167c-4 4 2 9 0 12-1 7 2 12 2 14 0 0 2 0 4-1-1 3-3 3-3 6 4 1 5 6 8 7 5 2 6 6 12 6-2-1-1-4-2-6-2 2-6 3-8 2-1-5 2-5 6-4-2-3-3-5-5-6 8 1 6 6 7-2-2 0-2-2-1-7-6 1-15-7-19-6-1-5-1-9-1-13"/><path fill="#977E76" d="M308 401c4 1 5 3 3 6-3 2-3 4-6 3-16-4-19-6-34-5 10 10 19 10 30 14 15 0 16-10 10-17"/><path fill="#836C68" d="M459 363c0 3-3 0-4 2-5 8-7 11-1 16-7-5-14 0-17-4-4 4 1 6 1 12 12-10 6 2 18-5 4-9 14-11 5-22"/><path fill="#2E1A1C" d="M260 232c1 9 6 8 2 13-6-23-6 5 2 10 0-3-2-4-3-6 2-6 3 1 5-2 9 21 11 4 19 22-2-4-4-11-5-17 2-6 3 2 4-4-2-2-5-2-8-4 5 0 11 1 15 4-10-4-19-9-29-14"/><path fill="#422A2C" d="M387 249c-1 9-10 3-15 10-2 9 1 16 4 18 6 0 10-10 13-18 2-1-3-5 1-9"/><path fill="#271616" d="M408 221c-7 9-15 16-17 21-7 5-12 6-16 9 1-6-28 9-29 4-15 2-36 2-53-6 5 5 9 6 14 8 17 1 23 0 35 1 10-2 18-2 24-5l2 1v2l2 1v2c-3 8 7 16 4 22-1-6-5-15-4-22 10-4 14-9 20-9 0-2 1-3-1-5 8-9 13-13 18-22"/><path fill="#876B63" d="M231 296c-23 9-5 11-4 34 3 2 10 0 17 6-7-13-8-4-18-27 6 2-1-8 5-13"/><path fill="#886F6A" d="M379 225c4 7-2 9-5 14-12 6-11 6-14 10-6 2-8 1-13 1 1-3 5-4 9-3-15 4-48-6-47 2 31-2 3 7 48 2 9-3 17-6 24-12-2-1-4 2-7 2 4-8 14-9 7-13"/><path fill="#9D867D" d="M303 122c-23 10 6 12 10 21-1-4 1-6-2-12 5-5 8-8 15-7-6-5-15 0-22-2"/><path fill="#775952" d="M222 317c2 6 4 13 11 18 17 6 28 24 48 35 2-6-10-12-2-16-4 13-16-4-17-2-9-4-10-11-16-17h-1 2c-4 9-22-15-16-5-8-11 1-7-9-11"/><path fill="#553B36" d="M329 197c-7 7-5 6 7 12 6 4 11-1 17-3-2-5-7-6-12-8-4 0-6 0-9-1"/><path fill="#9C837A" d="M287 390c-24 16 1 7 11 16 9 1-4-9 9-8-7-4-5 4-17-7l-1 1h-1"/><path fill="#261514" d="M260 129c-3 3-7 1-10 4-7 25 3 30-6 30 2-3 6 5 9-2 3-6-7 2-5-20 5 4 4-4 8-3 5 1 9 4 9 8 1-1 3-1 3-2-6-9 1-11-7-14"/><path fill="#735854" d="M426 354c-7-5-6 28-16 37-1 11 4 17 4 23-1-6 2-15-1-20 6-17 13-23 13-41"/><path fill="#77574E" d="M286 338c-15 7 7 2 9 9-2 7-8 4-13 3 5 3 2 8 9 11-5-1-7-3-10-4 5 2 10 9 16 12 3-3-12-7-8-15 9 2 12 7 16 12 0-7 2-7 3-10-6-7-18-13-23-16"/><path fill="#E0CEB5" d="M289 220c-5 5 14 6 15 10 5 0 7-1 8 0 10 1 16-3 19-4-8-8-19 2-27-4 1 4 8 2 3 8-5-7-12-2-14-11"/><path fill="#B39F92" d="M294 139h-2c-2 1-8 1-4 5-6 1-5 6-2 10 6 2 8 4 10 6 5-12-9-9-8-14 8 1-8-5 5-5 0 13 6 1 15 9-8-1 0 5-1 8 6-6 0-10-5-15-3-3-5-3-7-4"/><path fill="#876F69" d="M321 373c1 6 3 13 0 18 1 2 2 3 4 5 8 8 13 18 22 23 10 12 10 3 14 5-3-1 2-4 1-6-4 1-3-3-4-5-1 1 2 4-1 7-11-9-23-13-31-23-6-7-2-18-5-22"/><path fill="#B59E93" d="M373 149c-2 1-4 2-5 4-3 4-2 8-3 11 8 0 7-6 8-9 5 5 3 1 9 2-6 3-9 5-9 10 2-1 6-2 9-3l-1-3 1-1h-1v-3c1-4 1-10-7-8"/><path fill="#261312" d="M380 376c-5 7-12 9-16 17-1 3-3 3-3 4 1 4 6 7-2 14 3-2 7 0 9-1 3 3 1 4 2 6 3 11 6 17-1 14 7 0 11 7 15 1 2 4 2 6 3 9-1-8 0-18 1-28-3 6-1 15-7 19-8-2-7-9-11-13 1-12 5-9 9-20-2 3-4 7-7 9-9 4-4-8-9-8 1-11 11-13 16-21"/><path fill="#2A1614" d="M322 200c-8 13-1 15 6 16 2-3 14 3 17-4-11 4-13-12-24-3-3-6 5-4 7-6-1-3-2 1-5-1"/><path fill="#0A0303" d="M291 166c12 12-12 5 2 18 4 2 10-2 11 3 3-9-6-14-9-20"/><path fill="#9C7D71" d="M384 288c-2 10 9 24 14 28 2-3-5-18-6-27-4-1-5 3-7 0"/><path fill="#A17F6F" d="M388 386c-16 8 0 3-2 8l2 1v1l-3 1c-1 1-4 1-4 4 1-2 3-4 4-4 5 4 7 1 11 6 3-7 6 0 7-11-4 3-8-2-14-5"/><path fill="#2A1716" d="M404 141c-3 1-10 2-10 8 3 2-1 3 1 6 1-4 3-5 3-9 5 2 9 4 7 9 0-3 0-7 4-5 3 21-10 21 5 14-3 8-7 10-8 12 6 2 8-9 9-15 0 3-1 6-2 9-1-7 0-11-1-17-2-5-2-11-6-13"/><path fill="#442E2F" d="M431 380c-11 16-4 36-15 51 9 4 9-2 18 4-11 2-6-23-9-16-2-14 0-26 5-37"/><path fill="#8E746C" d="M292 120c-35 16 11 10 7 18-5-4 5-8-9-7 3-5 9-5 11-8-3-1-7-3-9-1"/><path fill="#7A889C" d="M437 364c-11 3 1 17 7 13 8-1 7-11 13-14-4 2-9 4-13 7-2-4-13 1-9-6"/><path fill="#0B0303" d="M374 174c-3 4-11 9-10 15 4 2 8 8 12 2 7-11-10-2-2-13 6-1 7 4 6 7 0-3 1-9-4-11"/><path fill="#9ACCD9" d="M449 359c-6 2-22 8-4 10 5-4 12-8 19-8 7 1 9 4 12 6-4-5-11-7-18-8-4 0-6-1-7 0"/><path fill="#1E171C" d="M111 401c0 6 4 12 6 17 6 11 15 13 22 24 2-5 4 3 5 3 5 9 33 11 30 17 5 0 9 3 11-1-14-4-28-7-38-16-27-28-27-29-34-39"/><path fill="#DED2BA" d="M290 302c3 1 8 1 10 3 0 6-1 9-3 11-6 0-6-13-9-10 6 10-2 9 1 20 2 3 5 2 6 3-4-4 9-13 5-21l1-2-1-3c-4 1-5-1-9 0"/><path fill="#C3A693" d="M333 222c-1 9-8 8-14 10-13 1-27-10-34-7 2 4 17 7 26 11 7-1 10-2 15-3 2-1 4-4 7-8"/><path fill="#725652" d="M282 153c0 9 15 7 19 18-2 1 6-8 11-2 1-3 0-7 1-10-3 7-13-5-14 4-8-4-14-3-16-8"/><path fill="#553D3F" d="M251 394c-10 6-13 20-14 30 8-1 9-20 15-28"/><path fill="#A7CFD4" d="M341 119c10 13 33 6 44 20-15-16-26-11-41-20"/><path fill="#BEA896" d="M383 345c-5 5-4 16-13 22-5-4 5-4-6-3 5 3 0 6 0 11 1-1 3-5 4-3-2 6-5 8-6 11 3 3 5-6 7-2-3 4-4 5-5 7 1-2 2-3 4-4 0-10 13-21 15-37"/><path fill="#BAA093" d="M227 309c4 8 11 13 18 19-1-3-1-11 4-7-6-6-13-8-20-10"/><path fill="#7B594F" d="M268 415c0 4 4 8 5 12-2 1-2 2-11-2 3 10 11 11 17 14-7-13-1-13-8-21"/><path fill="#F2E8D6" d="M272 197c0 4-5 2-6 3 2 4-4 8 11 8 0-7 7-5 10-8-5 0-9-2-13-3"/><path fill="#93D3DC" d="M190 422c1 5 1 5 10 8 13 2 24 4 34 7-24-5-30-14-41-13"/><path fill="#B1988A" d="M244 286c3 5 16 3 16 6-9-1 0 7-6 6s-14-5-13-10"/><path fill="#8D6F66" d="M267 228c-5 11 13 7 21 15 6 3 10 6 16 5-3-7-3-6-11-12l5 5c-7-1-7-4-7 3-4-5-16-8-21-15"/><path fill="#442B2B" d="M283 249c-6 2 0 6-1 10 1-4 4-5 7-4 18 1 9 7 19 4 15 1 21 3 35-1-22 1-41 3-58-10"/><path fill="#5E403C" d="M404 406c-1 6-2 11-6 16-7 3-11 3-9-3 0 6-2 11 4 13 2 0 5-1 6-4 0-8 6-13 4-21"/><path fill="#95D9DF" d="M157 395c0 12 15 22 26 34-6-12-17-22-26-33"/><path fill="#775752" d="M484 399c-3 8-4 12-6 18-3 1 0-3-2-5 3-4 0-5 1-1-1 11-3 18 0 27 1-16 8-20 6-38"/><path fill="#CFF2F5" d="M324 117c11 2 23 1 45 10-10-8-22-9-33-12-4 0-6-1-7 0"/><path fill="#9E8175" d="M396 288c-1 9 3 20 10 23-1-7-2-17-8-20"/><path fill="#C0A696" d="M386 220c-12 2-13 14-26 12-7 0-24 2-22-9 1 4-3 8 3 8 7 1 12 5 20 4 12-6 19-10 24-15"/><path fill="#472D2C" d="M443 440c-3 18-7-2-13 7-3 5-15 13-24 21 11-7 19-9 27-20 8 2 6 3 11-3 3 4-5 9-1 9 2-5 8-13 0-11"/><path fill="#C5AE9C" d="M267 209c-1 2-6-1-4 3 8 6 1 3 7 9-4-4 23-13-4-12"/><path fill="#2A1513" d="M297 344c7 4 14 11 20 17 7 17-5 8 2 18-9-7-17-13-23-19 6 9 18 16 23 26-7-4-14 4-19-4 9 9 8 4 16 5 0-8 6-12 3-22-8-15-9-14-21-20"/><path fill="#6F5A58" d="M358 408c-5 7 5 7 6 10-2 11-8 2-5 10 3 2 5 1 9 3 0-4-4-10 0-14-5-4-10 0-10-7"/><path fill="#EDE4CC" d="m357 297-9 3c0 5 3 8 5 11 3-1 6-5 4-14"/><path fill="#262624" d="M416 214c11 2 21 8 30 16-9-4-18-10-28-13"/><path fill="#A8887B" d="M333 225c1 4-7 6-4 9-10 0-20 4-26 0 3 3 8 5 13 6 1-4 10-3 14-5 5-2 3-6 4-8"/><path fill="#B69D8F" d="M245 287c-8 3 3 10 6 10 4 2 6-2 7-2 2-6-10-1-11-7"/><path fill="#553837" d="M253 401c-6 9-7 29-2 30 2-20 1-15 3-26"/><path fill="#61433E" d="M471 364c0 11 1 30-4 40 6-9 2-23 6-33 3 3 9 16 10 19 2 0-1-2 1-3 1-11-8-16-12-22"/><path fill="#3D2C2F" d="M463 449c-8 5-17 17-23 17 8-2 25-8 23-16"/><path fill="#271313" d="M289 165c0-4-5 23-6 20 3 9 13 3 13 6 2 0 4-1 5-4 0-4-6 8-15 0 1-25 2 6 7-24 11 7 13 25 15 23-1-9-9-12-14-21"/><path fill="#9D695B" d="M277 186c-4 2-11 1-12 7 3-6 21 1 14 5 0-9 7-9-1-12"/><path fill="#564548" d="M241 384c-4 6-2 15-3 22 3-6 8-14 4-20"/><path fill="#91736A" d="M246 282c-9 3 13 11 18 4-3-3-16-3-16-4"/><path fill="#E0D7BF" d="M329 311c8 12 12 7 19 11-4-3-3 6-9 3-4-4-8-6-9-10"/><path fill="#997D72" d="M474 375c-1 11 0 21-5 30 10 3 4-13 8-15-3-3-1-8-3-12"/><path fill="#84645B" d="M349 433c6-1 11 5 14 9-5 4-10-2-12-6"/><path fill="#61413D" d="M391 402c-7 5-5 19-13 21 3-9-10-3 1-20-9 11-6 18-2 23 8-1 10-20 14-20"/><path fill="#5E413F" d="M312 150c3 6 2 15 1 19-7-5-5 1-11 1 3-1 4 0 3 3-9-7-4-5-13-9 4 2 8 6 11 10h2l1 1 2 2 1 1c2-3 3-11 7-7-3-6 0-13-2-19"/><path fill="#45414F" d="M142 439c7 8 17 13 27 16-6-7-16-10-24-15"/><path fill="#523635" d="M408 444c7 1-8 8-6 7-7-1-1-4-13-1 8-6 12-1 17-4"/><path fill="#482E2C" d="M413 436c-6 3-12 5-2 2-1 8 4 5 4 7 8-7 16-7 14-4-5-3-12-1-14-3"/><path fill="#785B54" d="M411 313c3 4 4 7 1 8-5-1-5-4-9-5 0 4-2 6-1 10-9-15-10-8-1 2 1-3 2-6 4-8 5 3 6 7 5 12v-8c6 2 6-4 11 5-2-6-6-12-7-13"/><path fill="#E2D9C1" d="M316 312c9 14 22 12 20 13-8 2-14-3-18-8"/><path fill="#745853" d="M370 165c-17 10 6 14 10 2-3-1-11 9-11 0"/><path fill="#2A1412" d="M292 233c5 7 11 3 15 9 13-1 22 0 28-5 3 1 3 2 4 5 10-5 18 9 26-2-3 2-6 4-9 4-8-6-16-3-20-10-9 7-18 7-26 8-7-4-11-3-15-8"/><path fill="#402F32" d="M370 433c-4 1 11 5 14 8h3l2 1 1-1c4 1 7 0 9-2-2-6-9 4-13 1-5 2-5-4-9-2 3-2 5-4 7-5-5 6-9-2-12 2"/><path fill="#BCA497" d="M308 190c-5 5-18 5-17 10 4-6 26-3 21-9"/><path fill="#856459" d="M292 334c-1 3 1 8 11 8 2-6 0-7-4-8-3-1-4-1-5-1"/><path fill="#DFD3BB" d="M311 330c22 26 1 19 12 34 4-10 0-23-9-31"/><path fill="#ECE3CA" d="M290 303c2 4 3 9 5 13 4-3 4-8 4-11-4 0-5-2-8-1"/><path fill="#A4857A" d="M337 226c-1 3 1 5 0 8 3-1 10 2 16 6 10-8 18 3 21-11-1 2-10 10-19 7-8-3-16-1-19-8"/><path fill="#84645B" d="M446 394c6 1-6 11-7 15-2-6 2-9 4-14"/><path fill="#583D3D" d="M387 260c4 15-13 12-10 24h-2l1-1c5-2 11-17 15-12 0-3-1-8-1-9"/><path fill="#F4EEE2" d="M383 208c-2 2 7 11 11 7-5-7-1-8-9-7"/><path fill="#72514A" d="M380 402c-3 7-10 14-2 20 8-3 13-33 4-3-9-6-2-11-4-15"/><path fill="#886A64" d="M252 201c-1 5-6 5 7 9-8 0-9-1-10 5h3l1 2h2c2 2 5 1 8 2-3 0-5-2-9-1 5-1 6-7 8-2 0-11-11-5-9-17"/><path fill="#A48579" d="M273 226c-9 4 20 17 19 17 2-9-16-6-18-16"/><path fill="#C0A494" d="M276 224c-1 3-2 7 3 8 4-1 9 6 15 7-6-4-7-10-17-13"/><path fill="#E5DBC2" d="M330 388c4 2 9 10 13 14-10-5-8-4-14-12"/><path fill="#826D64" d="M329 202c4-1 10-1 12 1-3 5-9 6-11 1"/><path fill="#614240" d="M412 419c-2 0-6 9-7 1 1 4-1 6 1 9 4 2 5 2 9-9"/><path fill="#916456" d="M276 167c-7 5-5 2-15 11 9 3 8-7 14-3 2-2 4-5 0-7"/><path fill="#7E848F" d="M236 278c-4 8-16 12-17 24h-2l3 1c5-14 17-20 17-16 3-3 1-7 0-8"/><path fill="#D1C3B1" d="M321 157c6 2 11 0 16 3-6 4-11 1-15-1"/><path fill="#A3897C" d="M382 357c-12 10-3 17-19 32 13-11 14-17 19-30"/><path fill="#2A2926" d="M408 228c7 0 14 5 18 8-6 0-11-4-17-5"/><path fill="#120608" d="M255 371c15 11 18 10 25 9-8-1-13-9-21-7"/><path fill="#5C4140" d="M423 373c-2 3-4 13-8 18 2 8-1 15 1 21-2-16 3-21 8-39"/><path fill="#7EABB4" d="M143 326c7-1 0 7-3 8-1-3-3 0-5-2 2-4 4-5 7-5"/><path fill="#9B8078" d="M307 392c4 0 9 6 11 8-5 3-8-4-11-5"/><path fill="#160B09" d="m325 208 1 1c3 0 2 3 3 5-4-3-15 3-7-5"/><path fill="#7A6360" d="M360 264c5 0-3 11-6 14 1-2-1-8 5-12"/><path fill="#916556" d="M273 180c7 2-7 9-10 4 2-2 4-4 8-3"/><path fill="#614139" d="M302 332c1 4 3 0 4 10-34-3-7-2 7 6-3-8-4-8-9-15"/><path fill="#634F4F" d="M411 469c10-1-1 11-6 5 2-3 4-3 4-5"/><path fill="#755954" d="M389 348c-5 7 1 10-6 24 7-3 9-25 6-21"/><path fill="#EBDFC8" d="M372 292c-3 2-7 2-10 3 5 4 2 3 7-1 2 5 2 8 0 11-5-4-2-3-6-4 1 2 3 4 4 7 4-4 5-9 4-15"/><path fill="#70524E" d="M257 298c1 8 7 15 19 21-6-5-13-11-17-20"/><path fill="#5C413C" d="M277 355c1 3 15 13 21 17 4-7-6-10-8-16-3 6 9 8 11 14-10-2-15-10-21-14"/><path fill="#5C3F3C" d="M433 447c1 10-12 10-16 15 4-4 28-9 18-14"/><path fill="#88685F" d="M350 434c3 4 7 10 13 10-3-6-7-8-11-10"/><path fill="#513533" d="M227 336c6-1 5 4 11 5-5 1-4 1-3 5-6-2-5-6-6-8"/><path fill="#E2EEEF" d="M252 164c-4 7-7 13-8 21 2-8 9-10 9-20"/><path fill="#231918" d="M242 183c-1 6-3 8-2 15 2 12 12 22 13 31 8-2-13-17-12-29-1-8 1-12 1-16"/><path fill="#21171A" d="M481 426c0 18-22 32-22 32 13-12 10 0 14-10 5-6 7-13 9-19"/><path fill="#482A26" d="M289 342c9 1 18 5 25 14 0-4-1-4-3-9-8-1-14-5-21-5"/><path fill="#ACDEE1" d="M393 262c3 6 5 21 8 26-1-7-3-18-7-25"/><path fill="#60646A" d="M152 349c-3 4-5 9-7 13 8 0 4-9 9-13"/><path fill="#41302E" d="M400 134c-16 7-8 1 2 2-5 3-13 6-8 12 0-5 7-8 9-7 6-1 5-4 9 2-5-4-7-7-8-6l-3-1 1-1-1 1"/><path fill="#D4C5B1" d="M349 160c3-1 9 1 4 6-4 1-6-1-5-3"/><path fill="#765C57" d="M389 269c-3 5-8 10-12 14 8-1 7-11 15-10 4 1 4 3 3 6 1-3-2-9-1-9l-2 3-1-1"/><path fill="#D2C3AF" d="M338 161c5-4 11 6 5 8-1-2-1-4-4-5"/><path fill="#D1F0F2" d="M403 180c2 6 2 14 6 19 0-6-2-13-4-19"/><path fill="#DFEBED" d="M253 233c-3 10-6 19-12 27 7-3 8-17 13-16-2-1-2-6-1-9"/><path fill="#7B6460" d="M328 276c3-2 8 5 6 8-5-2-4-2-7-6"/><path fill="#B18473" d="M381 200c-9 3 6 7 7 6-1-3-3-5-5-6"/><path fill="#785750" d="M287 430c5 13 0 6 12 11 2-6-6-7-10-9"/><path fill="#60413B" d="M297 346c6 5 11 7 15 16-4 2-5 0-6-2 0 3 3 5 1 7-7-4-8-9-12-11v-1 2l9 9c4 4 6-1 6 1 0-2 2-2 1-4 0-3 1-6 3-4l-15-12"/><path fill="#4A3538" d="M267 471c6-1 11 2 17 3-6 1-11 1-15-1"/><path fill="#553B3B" d="M259 284c9 1 15 7 22 13 1-1-9-8-5-12-5 1-10 3-15-2"/><path fill="#4F4247" d="M113 373c2 12-4 4-1 20-2-5 2-4 2-4 1 3 3 6 4 8 1-8-5-13-5-21"/><path fill="#472F2D" d="M367 176c-9 2-4 6-8 14 3 0 7-13 9-12"/><path fill="#5E433F" d="M268 315c1 8 9 7 15 10 1-1-8-7-12-7"/><path fill="#AED6D8" d="M324 112c-1 8-15 1-20 4 6 4 12-3 19 1-35 5 25 3 0 2 2-3 3-4-1-5"/><path fill="#232422" d="M438 249c6 1 8 9 11 13-4-3-7-7-10-10"/><path fill="#DDCDBA" d="M303 197c-17 6-12-1-28 10 9-6 18-4 28-11"/><path fill="#CFEEF1" d="M299 118c-28 1 14 1 21 1-6-3-13 2-19-3"/><path fill="#3E2E31" d="M427 471c-6 3-16 13-23 4 3 10 10 2 16 4 6 1 0-6 7-6"/></svg>