<svg xmlns="http://www.w3.org/2000/svg" width="600" height="600"><path fill="#6592A8" d="M317 145c9-1 19 1 26 3 14 9 19 14 32 28 27-2 54-3 77 5 30 8 63 51 62 65 3 16 4 34-1 44-1 3 27 21 25 33 0 10-14 12-12 11-27 4-22-2-33 0-2 2-3 6-5 7 0-4-8 6-11 5 3-1 6-2 8-6-1 6-4 8-8 9 2 8 7 16 7 25 1 7 3 20 0 21-11-2-21-5-29-8-12-9-22-16-40-33-11 10-25 15-37 22-31 14-71 26-96 37-10 1-15 23-29 31-7 4-11-5-9-9-24 10-25 11-48 21-4-3-6-4-7-6 6-12 10-22 14-32 6-9 14-11 21-13-26-10-13-20-34-26-5-15-12-32-16-44-10 3-19 8-33 8-31 3-51-10-79-7 0-9 3-10 7-13 17-13 38-21 58-30-2-27-25-37-31-64 24 15 49 20 72 31 14-12 5-33 14-45 12 10 13 13 19 24 4 10 7 20 8 29 2 21-4 32-9 43 9 11 13 21 27 27 20-17 27-61 43-81 16-28 12-18 39-46-2-2-6 10-9 5 9-6 13-19 19-33 2-13-6-20-10-30-2-6 1-4 3-7h4"/><path fill="#275485" d="M298 235c-33 33-39 78-67 114-8-9-5 5-16 4-7-1-10-5-13-8-17-18-16-43-32-59 0 5 1 8 3 16-4-4-9-6-13-6-6 0-12 1-14 2-2 9 3 14 2 21-2 2-3 5-4 5-25 11-49 2-73 1-3 3-5 5-6 7 15-9 47 8 79 5 12-2 25-4 31-11 6 21 15 34 24 56 5-2 15 6 10 10l-2-1h2c6 2 12 4 21 3 8-1 13-4 18-9 4-11 11-31 19-53 10-17 22-29 34-40 5 2-1 4-1 6 12 2 22 9 27 20 5 7 6 17 2 23-6 14-17 24-27 30-13 10-38 15-38 13 9 2 19-2 29-6 3-3 5-3 7-4 9-6 15-12 21-19 5-4 6-8 8-12 1-3 3-4 2-6 2-8 1-15-1-20 4 3 4 9 6 14 2 2 7 0 8-4-1-9-5-13-7-20 7 2 12 6 17 7 15 5 21-7 31-8 49 41 17 15 2 1-9-3-13 3-18 6-9 1-15 1-20-3-13-7-13-21-26-26-12-3-19 7-28 9-9-9-9-20-8-32 1-10 6-17 9-25"/><path fill="#7E8D99" d="M338 307c1 7 10 13 6 21-15 11-17 35-37 43-15 10-29 18-45 19-6-4-4-8-5-11-3 3-9 6-17 14-10 3-20 4-28 1 7 4 14 8 21 11 2 3-8 11-21 12-5 15-13 19-16 31 11-2 23-8 35-13 7-3 15-6 18-14-2 4-2 18 1 20 10-10 19-17 22-26-3 1-7 3-8-1 20-7 37-15 56-20 26-11 60-22 87-41-8 1-16-2-24-3 92 9 100-11-4-3-3-7-12-11-20-17-9-8-15-14-21-22"/><path fill="#3370A0" d="M303 228c-14 14-27 33-4 4-5 12-10 19-11 27-1 13-1 24 5 32 11-1 18-11 28-8 17 6 17 27 34 28 14 6 19-8 30-6 8 4 6 4 9 7l1 2v2l2 1h-1c15 11 25 14 39 20-14-5-27-14-40-22-3-8-1-15 2-18-2 0-5 4-7 3 2-8 8-8 12-7 8 6 2 5 12 10 29 4 38 13 72 24 9 2 25 5 28-1-28-1-58-19-86-29-4-4 3-8 6-7-10-6-20-6-29-11-7-4-6 14-17 14-5 3-12 3-15 1-7-2-9-7-11-10-2-8-2-14-1-19-1 1 0 3-1 5-13-7-31-12-43-17-10-6-16-16-15-23"/><path fill="#91DBE0" d="M400 179c-6 2-13-1-18 2-5 10-25 6-34 12-12 9-15 22-8 35 6 5 20 8 29 6 1 4-3 6-4 8 7-4 17-3 23 0 7 1 2-6 7-5 25 10 53 12 82 13l2-2h1l2 1h1c7-2 10-7 13-12 2-8-3-13-4-19-3-2-9-12-17-15 9 7 16 16 18 26s-2 17-10 19c-10 2-20 0-28-3-15-4-28-8-40-16-6-5-9-10-11-14-2-10 2-16 8-21 8-6 17-6 26-5 11 0 18 4 26 7-12-7-26-11-39-16-10 0-16-3-24-1"/><path fill="#D5F1F0" d="M424 190c-15-1-26 19-15 31 6 8 13 11 20 15 16 5 29 11 43 12 8-1 15-1 19-6 3-10 0-18-3-23-8-11-15-21-21-22-14-5-27-9-42-7"/><path fill="#4B8CA6" d="M503 240c-1 4 1 12-2 15-4 7-9 10-14 11-31-1-64-4-89-8 1 7 3 13 2 20 12 3 24 6 35 10-3 3-8 3-10 8 22-7 47-6 70-5 13-1 29 24 12 1 1-17 3-34-3-49"/><path fill="#3A8ABC" d="M298 301c-5 6-11 11-14 18 5 2 10 6 12 10 5-1 10-3 14 0 8 4 11 11 8 16-2 5-5 8-8 9-8 1-14 0-16-6-7 5-17 4-24 3-10 8-8 22-9 33 5-4 28-2 44-17 11-8 19-17 24-27 3-9-5-15-8-21-7-9-14-15-22-18"/><path fill="#7DC6CA" d="M458 292c-61-1 14 18 24 25 17 5 31 7 45 5-1-14-16-19-22-28-17-3-33-3-49-2"/><path fill="#ADB6BB" d="M340 353c5-2 10 1 14 3 28 10 5 25-9 26-18 8-36 14-54 17 13-19 30-33 46-45"/><path fill="#7CC7D0" d="M107 238c2 16 22 31 28 49 11 3 25 1 33 3 1-3-2-4-2-7 4-5 8-2 10-1 2-9-7-15-13-19-20-9-39-11-53-24"/><path fill="#407ABC" d="M326 201c-15 18-27 15-46 46-24 31-26 71-55 99 27-24 32-58 52-85 7-13 15-23 24-33 0 6 4 12 7 18 12 11 22 8 31 15-3-10-12-21-25-29 0-14 6-22 13-29"/><path fill="#533C4E" d="M400 303c-11 6 1 14 6 16 11-1 19 0 28 3 12 4 21 11 29 20 8 0 17 2 20-6-12-13-32-19-49-26-12-3-22-5-32-7"/><path fill="#55A7BC" d="M335 197c-11 7-27 25-15 40 9 9 21 0 24 12 14 8 22-5 36-6 8 3 14 9 17 14 27 5 60 7 87 8 5 0 6-1 7-2 6-2 9-6 10-10 1-5-1-9 1-12-1-7-3-12-7-17 4 8 8 16 6 27-2 8-8 13-14 14-38-6-75-16-107-22-11-4-15 8-22 3-15-4-29-11-35-24-3-11 4-19 11-24"/><path fill="#82CBD0" d="M496 227c5 6 1 12-4 16-4 4-8 8-13 6-30 1-63-2-83-11-5-2 1 5-6 4 28 3 58 18 88 22 22 3 27-21 19-34"/><path fill="#A1E2E7" d="M282 319c-18 19-20 42 14 25-2 8 7 10 12 8 7-2 9-6 10-10-1-5-3-7-4-10-7-4-14-2-17 1-3-7-9-13-16-11"/><path fill="#3D8EBA" d="M109 308c-58 18-18 17 16 20 8-3 20-3 23-11-9-4-29 0-42-9"/><path fill="#E3F7F6" d="M443 198c5-1 12-1 16 2 13 6 24 17 26 28-5 7-7 0-11 2-6-7-16-14-23-20-8-4-11 3-17 4-13-5 1-17 7-15"/><path fill="#DDE1E1" d="M381 309c-5 2-8 7-13 7-24-4-28-5-7 13 17 1 39 2 56 5-11-7-23-13-29-25-4-1-5-1-6-1"/><path fill="#C0C6CA" d="M340 354c-9 7-18 13-27 21 16 1 29 1 45 0 19-9-7-22-15-20"/><path fill="#E4F7F6" d="M444 199c-5-1-21 7-12 13 8 0 11-7 16-3 16 8 24 21 34 22 0-14-11-25-20-30-6-2-11-3-16-2"/><path fill="#76D7DF" d="M346 193c-8 2-14 6-19 13-3 5-6 10-3 13 2 10 9 15 16 18 8 5 15 8 22 10 1-5 4-8 8-10-7-1-16-1-22-5s-10-5-13-11c1-13 0-19 11-28"/><path fill="#CED3D4" d="M356 326c10 8 22 13 34 16 16 4 33 5 48 3-5-7-12-9-18-11-20-2-43-3-61-6"/><path fill="#53A9C6" d="M133 283c2 4 3 8 4 11-22 10-37 11-57 26 8-4 15-8 22-12 15 6 28 5 40 4 1-6-2-12 4-17 48 3 3-9-13-7"/><path fill="#4A8CA1" d="M337 153c0 14 3 27-1 39 12-3 20-5 29-9-5-13-16-23-28-28"/><path fill="#A5AEB4" d="M338 355c-16 12-33 25-47 40 19-1 36-6 52-13 7-2 10-4 15-5 12-3 11-14 1-18 10 4 11 15 0 17-17 1-30 1-46 0 7-8 16-14 24-21"/><path fill="#82CBD2" d="M197 244c-2 1-1 5-5 6-5 1-8-1-10-4-8 6-5 11-11 15 6 8 15 12 19 21 5-5 7-10 8-16 1-9 1-15-1-21"/><path fill="#2E537B" d="M457 355c-40-4-32 7-9 21 2 4 13 10 28 15-6-6-13-8-17-15-5-7-6-14-5-22"/><path fill="#387390" d="M320 151c4 14 8 31 6 46 6-2 8 0 9-3 5-12 1-22 2-37-4-5-9-4-13-6"/><path fill="#57ABC9" d="M171 282c11 17 19 35 31 52 7 7 12 13 19 14 4-1 1-3 3-4-7-4-13-9-19-14-9-12-12-24-18-35-5-6-14-8-15-12"/><path fill="#DD9069" d="M410 321c14 10 32 18 50 21-5-9-14-14-22-18-9-4-17-4-25-3"/><path fill="#658496" d="M198 243c6 20-4 38-5 53 2 4 2 9 5 12 2-6 5-13 6-21 2-17-2-29-5-42"/><path fill="#A8DEE1" d="M183 220c-5 7 0 21-5 28 1-1 4-2 4-3 1 3 5 5 8 5 5-2 5-5 6-7-4-9-7-16-11-21"/><path fill="#252F3F" d="M376 258c-4 5-4 8-5 15 7 3 5 12 15 8 5-7 3-8 2-11 0-5-5-10-9-12"/><path fill="#408BAD" d="M343 247c5 4-2 8 0 11-7-4 0-1-5 2l-1-2v2c3-1 4 0 5 1 5 2 15 5 16 7 2-7 3-14 9-19-6 6-14 1-22 0"/><path fill="#4B8DAE" d="M463 366c-5 1 3 7-4 8 7 8 14 13 21 17-5-7-5-15-8-24-3 0-5-1-6 0"/><path fill="#326D95" d="M181 300c6 12 8 25 14 37 4 4 7 8 11 10 5 3 11 7 16 3-9-1-14-9-21-14-8-12-13-23-19-34"/><path fill="#2E5E82" d="M312 153v1c8 13 11 17 13 26-5 18-13 29-16 34 7-7 13-13 15-14 2-17 0-41-7-50"/><path fill="#F4FAF3" d="M427 180c20 5 39 12 55 25 14 14 22 28 26 44 1-10-5-19-9-26-7-11-13-17-21-23-15-12-31-18-48-21"/><path fill="#B8E7E8" d="M184 230c6-3 9 5 10 8 1 5 0 7-2 9-4 2-7 1-8-1-1-6 0-9-1-14"/><path fill="#7AA5B8" d="M229 417c2-2 6 0 8-1 6 3 8 6 7 11-3 4-7 2-10 1-3-4-7-5-5-9"/><path fill="#2D699C" d="M300 300c14 6 23 20 30 31 0-7-2-13-7-19-7-6-13-11-21-11"/><path fill="#BCE8EA" d="M185 230c-1 5-1 9 0 13s4 5 5 4c6-5 2-14-2-17"/><path fill="#A1DBDF" d="M469 351c-2 1-5 0-6 2-3 4-3 9 1 11 6 1 7-3 8-4 0-5-1-7-2-9"/><path fill="#92D4D9" d="M129 253c7 1 15 4 22 9-9 3-16-2-23-6"/><path fill="#74828D" d="M377 250c-8 2-14 9-14 17 5-3 5-9 10-14 6-3 12-1 14 2 5 6 8 10 9 15-2 9 2 17-7 21 7-4 10-12 7-18l1-2v-1l-1-3c-2-8-9-16-18-17"/><path fill="#74ACC6" d="M216 371c5-3 13 1 14 6-6 5-13 1-14-3"/><path fill="#B3E9EC" d="M278 328c3-2 7 1 8 3 0 4-3 5-3 7-4 1-7 0-8-2 0-4 1-5 1-7"/><path fill="#48728E" d="M183 275c-2 5-6 3-3 9 1 3 7 3 9 6 2-5-2-9-4-13"/><path fill="#65A1B5" d="M473 362c-6 6-10 3-1 3 4 9 2 17 7 20 5 1 2-11-5-21"/><path fill="#FEFEFE" d="M514 288c-2 14 24 19 22 36 0 7-10 8-10 9-17 0-28 2-30-1h-5v-2l1 3h2c9 3 20 1 30 2 6-3 9-3 11-7 6-17-15-26-21-38"/><path fill="#4089B1" d="M457 353c-4 7 1 19 3 22 2-6 0-12-1-21"/><path fill="#97D7DB" d="M129 254c3 5 13 8 19 11-4-7-10-8-15-11"/><path fill="#FEFEFE" d="M504 226c5 6 8 16 9 24 1 12 1 23 0 36 3-12 3-25 1-35s-4-18-9-24"/><path fill="#E6F8F8" d="M344 155c12 6 19 20 30 26-7-10-17-20-27-26"/><path fill="#274F71" d="M391 268c1 2-3 16-7 17 5 0 8-1 9-5 0-4 2-8 0-11"/><path fill="#B6EAEC" d="M280 329c-3 1-4 2-5 5 1 3 4 4 5 4 6-4 6-8 1-10"/><path fill="#346496" d="M465 317c8 0 16 5 24 6-8 2-16-4-23-4"/><path fill="#4E849C" d="M530 321c-10 7-25 1-35 1 8 0 27 10 37 0"/><path fill="#A5DFE6" d="M334 243c-2 5 1 11 6 12 2-6-2-9-6-11"/><path fill="#224769" d="M376 245c-10 3-16 13 5 1 8 4 14 12 16 18-3-10-7-14-14-18-5 0-1-3-7 0"/><path fill="#5D8CA0" d="M243 395c4-2 9 1 11 3-3 4-8 2-10 0"/><path fill="#E2F7F6" d="M444 211c3-2 8 2 9 4-5 3-9 2-10-2"/><path fill="#6984D2" d="M229 411c-5 1-11 1-15 3-7 5-9 14-12 21 4-6 6-13 9-19 7-3 13-3 18-5"/><path fill="#535455" d="M299 216c6 1-5 9-7 12-4-3 6-5 4-10"/><path fill="#7D8387" d="M377 260c3-2 8 1 8 4-4 3-7 1-8-1"/><path fill="#192E43" d="M376 245c-5 1-10 5-12 9-2 9-4 18-1 25-3-6 0-12 0-19 1-3 3-3 3-5 4-3 6-5 8-6 9-1 14 3 18 9 6 7 6 13 7 22 0-8-1-15-5-20l1-2h-2c-2-2 2-2-1-4-3-5-7-7-10-9 3 2 7 4 9 8l2 2h-3c-2-3-5-4-7-6-4-1-5-1-6 0-5 2-8 2-10 4 0-5 5-8 10-9"/></svg>