<svg xmlns="http://www.w3.org/2000/svg" width="600" height="600"><path fill="#83827A" d="M244 109c6-1 13 0 18-1 27 5 50 15 71 28 19 17 21 34 31 51 5-2 10-8 16-8 0 11-6 18-6 27-2 7 5 9 5 12 7 8 17 12 29 10 11-6 20-16 23-26-7-10-16-15-23-21 10-6 23-4 33-3 11-22 1-43-5-60 24 13 33 22 47 38 8 0 17 2 22 8 5 5 7 10 8 14 0 15-2 28-2 41 9 5 20 7 28 12-9 8-25 9-36 15-11 22-41 34-50 48 6 15 23 20 33 27-12 4-23 1-31 4-12 4-21 9-28 17 3 8 12 14 16 21 10 5 12-2 17-6 4 4 5 7 7 10 10 1 16-2 24 0 6-2 4-7 7-9 5 0 8 3 11 4 11-1 18-10 28-9-1 13-5 23-13 30-11 9-22 11-33 16 8 11 17 22 21 34 4 14 6 27 5 39-11 2-14-6-22-9-2-5-4-9-6-13-7 4-7 9-15 8-1-2 4-8 0-13-8-14-27-18-40-25-7 2-12 5-17 7-1-8-5-12-4-18-6 1-8 6-6 12 9 9 21 10 32 16-5 6-16 5-17 8-11 0-20 3-28-2 10 0-18-9-23-11-5-9-14-15-18-23-2 2-5 4-7 1-1-6-4-13-7-18-7 14-14 27-21 39 0 10 8 7 9 16-2 9-21-3-26 10-10 9-24 20-30 30-5 2-13 5-15 1 3-18 1-34 7-49 3-5-2-7-4-8-11-3-16 2-25 0-3 8 12 9 4 17-13 1-23-3-36-1-20 8-37 21-58 22-7-5-2-9-1-12 7-12 12-19 23-33 0-8-4-12-4-19 6-2 14-1 19-2 20-19 30-26 47-38 2-4 4-7 5-11-29-1-50-18-77-19-21 6-29 17-43 23-4-11 2-21 7-30-14-4-27-13-36-25-48-62-5-35 33-14 14-3 25 1 38-1-1-6-8-14-3-19 10 5 17 8 24 10 13 2 24-1 34 0 1 3 2 7 1 10 4 1 8-1 11 1-7-14-15-27-22-41-12-18-44-18-57-43 8-7 22 2 34-2 0-16 4-30 5-45 3-17 6-32 12-46 10 22 22 41 41 58 6-5 18-16 30-22-1 17-9 28-10 43 11 11 27 25 31 25 1 1 0-1 1-2 8 2 14 4 20 6-1-7-2-12-5-17-13-6-24-9-36-11 7-9 18-12 27-16-6-16-11-29-22-40-3-6-16-17-26-24"/><path fill="#F5AA5A" d="M360 188c-3 8-6 16-11 23 5-5 6-10 8-16 2 6 9 18 13 26-19-1-36 6-54 4-10-1-18-3-25-5 5 7 10 13 15 19-4 4-8 7-12 7-22-10-26-7-14 14 2-2 4-3 7-5 2 1 2 8 4 9 0 3-3 5-2 5-1 2-6 9-7 12-2 10-2 20-1 27-1-7-1-17 1-24 1-6 3-10 7-12 5-6 10-11 15-13 8-2 14-3 21-2 12 2 21 6 29 14 7 10 7 20 6 31 3-6 11-3 16-5 3 3 2 5 3 7-4 3-4 3-1 2 0-6 2-10 0-13-6-3-10 6-14-2 2-4 6 1 9-4 5 1 8 4 9 6 0 7 2 12-3 14 8-10 11-19 16-32 6-7 11-9 17-10 12 1 19 9 23 17 7 10 10 22 6 32 12 8 32 4 43 7-18-7-26-14-40-27-11-17-16-34-29-48 2-6 3-12 5-18-13 3-9 2-23 5-7-4-12-8-18-9-5-10-15-22-18-35"/><path fill="#5E6B7E" d="M313 272c-5 2-13 3-17 11-6 8-4 18-5 27 3 9 6 14 12 17 7 6 14 4 20 5 9-2 14-6 18-12 5-7 7-13 7-20-2-11-6-18-12-24-7-5-14-5-21-4"/><path fill="#E46C2A" d="M384 297c2 9-7 13-12 16-10-7 10-5 5-13-6-2-8 0-15-1-2 12-5 22-13 30-9 8-18 12-30 10 3 1 5 1 6 0 0 7 20 22 18 36 2-8-8-21-8-27 19-3 32 4 44-1 11 3 20 13 24 20 4-4-10-11-13-18 11-5 9 12 18 4 0-2 5-8 9-13-4 2-9 5-14 4 9-5 16-8 23-11 10-9 51-14 13-17-1 6-11 14-12 16-7 2-8 7-18 5 2 1-15-5-16-13-6-8-6-17-5-26"/><path fill="#2C4C6F" d="M245 359c-13 11-33 20-43 30 2-4 2-4-1-1-19 18-15 24-37 49-6 4 3-8 4-10-12 17-12 15-21 34 8 3 14-3 23-7l2-1-2 1c-5 3-9 5-14 7 5-4 8-9 13-11 3-14 16-26 25-38 10-8 17-19 29-16 1-5-1-8 0-9 5 0 8-6 12-7 7 3 9 6 12 12-6 16-20 0-23 6 4 7-8 9-2 16 15-6 30-19 46-24-12 10-25 17-37 25 30-16 66-29 10-56"/><path fill="#657889" d="M313 275c7-2 14 1 19 4 8 5 12 12 13 20 3 8 0 12-3 17-4 8-10 12-16 14-8 0-15 2-20-1-7-5-12-11-13-17-1-10 0-17 3-24 4-7 10-10 15-12"/><path fill="#404767" d="M388 356c-43 9 16 28 25 47 25 17 51 20 72 38 10 8-4 2 4 6 4 8 14 15 19 22-6-7-14-14-17-20 2-2 3 1 6 2 2 4 8 12 13 15-3-4-9-10-11-13 0-6 4-2 7-1 5 1 1 9 3 6-2-7-4-14-11-18-22-17-30-15-44-23-4-4 2-7 2-9-3 0-8 6-11 3-14-14-30-17-42-30 4-5 2 0 9-6-3-5-1-8-1-10-3 2-3 1-6 6-6-6-9-11-15-15"/><path fill="#559D9B" d="M249 111c21 22 46 27 67 44-1 7-6 17-3 27 7 3 21 2 25-8 1 8-3 12-6 14 7-1 2 22 10 15-5-11-2-22-2-35-4-11-15-8-20-12 10-2 3-11 17-12-6-6-13-9-19-13-5 3-6 7-5 13-9-4-21-4-23-14 6-8 14-5 20-3-18-9-37-14-58-16"/><path fill="#AAD1AE" d="M300 361c4 23-10 3-13 27-6 12-9 24-11 36 6-1 11-4 16-8 9-9 13-18 15-27 8 3 3 9 1 13-4 9-9 15-15 20 16-3 28-17 38-29-3 2-13-1-17-6-9-7-6-21-11-26"/><path fill="#488D9A" d="M66 267c6 11 20 36 41 53 9 1 6-22 23-17 8 2-1 19 9 22-8-8-3-17-3-25 4-3 4 2 6 4 5-5 17-5 22-4-16-1-39-8-62-13-14-5-24-14-35-20"/><path fill="#833342" d="M224 301c8 4 16 7 24 11-1 7-8 10-12 7 2 1 4 5 3 7 13 12 11-16 23-3 3 5 5 9 5 13-5 8-14 8-17 2 2 3 5 3 7 7 3 9-8 5-8 9 5 13 15 23 27 25 5-11 8-24 13-33-4 3-7 8-11 11 0-13 2-22 3-32-20-6-37-15-54-24"/><path fill="#354166" d="M364 377c7 8 10 17 14 26-20-8-15-13-27-18-9-3-7 15 2 18-2-2-7-8-9-12 15 16 25 32 45 41 13 8 33 6 43 6-19-9-26-11-39-24-12-9-14-23-21-34-4-1-5-2-6-3"/><path fill="#E16D3E" d="M273 244c1 1-3 1-1 2 1 8-2 14-5 8 1 6 4 3 4 6 1-3 0-8 1-12 3 4 3 8 5 11-5 10-7 18-15 23 1-1 3-1 5-2 3 9 2 17 2 21-12 1 1 7-13 7-11-2-20-6-30-7 17 8 34 16 52 21 5 4 3 9 2 12 2-3 7 9 14 8 5 0 7-1 6-3-8-9-22-14-19-23 0-10-4-23 0-32 2-9 7-14 9-18-4 2 1-9-3-8 1-4 3-3 4-6-3 3-7 6-11 9-4-6-5-11-7-16"/><path fill="#668C8D" d="M439 121c3 11 6 7 10 22 2 12 2 24-1 34-13 3-23 1-38 2 7 3 16 11 23 16 7 8 18 10 16 18 10-16 14-35 16-56-5 6-13-14-14-14-4-7-3-12-12-21"/><path fill="#F4B05D" d="m364 223 1 1c9-2 11 5 19 4 8 4 13 11 11 19-1 6-6 4-8 3-4-3-4-7-8-8-7 1-13-6-11-12 5 0 5 0 1-1-5 3-8 8-6 12l1 1c-2-2-1-4-2-5-1 7 18 7 7 9 8-3 10 5 8-4 5 2 6 5 6 6-4 9-12 8-17 7-18-15-1-6-16-15 1 2 7 5 5 8-4-3-6-2-7-5-3-15-9-20 14-19"/><path fill="#F0EECE" d="M313 257c-32 14-20 30-27 27 7-3 14-9 20-12 10-4 21-4 27 1 7 6 12 11 14 16 2 8 3 15 1 20 2-11 5 6 10-7 0 8-4 16-6 20 4-7 6-12 7-17 0-4 0-6-1-9 2-12-3-19-9-26-11-9-22-13-35-11"/><path fill="#2F1C45" d="M374 351c-15 2-23 16-29 28-3-2-4-3-3-6-8 21-18 42-28 61 8-15 16-30 22-46 6 6 10 11 11 18l1 2 1-2c11 6 26 30 37 27-16-1-26-27-37-26-1-9-10-16-2-22 17 2 9 7 29 19-3-11-7-19-13-27 5 0 8 2 11 4 6 10 7 20 14 27 5 1 8 3 10 1l1-2v-2l1 3-1 1c-5 1-11 1-12-5 1-5-1-12 7-7 6 6 12 3 20 10 2 6 1 12 3 16-1-3-1-8-2-13 6 1 10 4 15 6-4 3-6 6-9 7 3-2 5-3 9-4-12-11-44-29-60-50-8 1-14 1-20 3 6-9 13-18 22-21h4"/><path fill="#E3F3DA" d="M215 157c-4 0-7 3-5 8 20 15 15 37 31 54 3-7 11-16 18-17-16-15-29-30-42-45"/><path fill="#4A586A" d="M297 344c0 3-3 0-4 2-10 33-20 67 8 7 5 7 11 8 12 14 1 7 1 10-2 15 5-8 15 0 19-7 4 2 5 3 5 5 3-3 3-6 5-9-3-7-6-12-9-18-3-2-5-3-8-2-5 5-6 10-8 15-7-5-5-17-12-20l-2-2h-1v1"/><path fill="#B0C8AC" d="M465 165c-5 18 11 25 7 46-3 4-5 7-9 5-3-2-4-4-5-6 3 3 7 2 9-1-3-6-10-6-10-8-1 5-6 8-4 14 1 5 7 4 9 7 2 12-1 12 0 21 9 4 7-13 15-7-1 6-5 10 3 13 5-2 6-6 8-10 3 10-8 12-5 20 13-4 0-21 14-28-3-4-6-6-8-3-1 5 0 11-3 15-2-7-6-12-3-21 0 4-2 6-3 8-2 2-3 1-6 2 1-11 3-19 2-28-3-14-5-27-10-39"/><path fill="#5D7384" d="M213 241c16 9-5 5 5 9-6 3-9-1-12 2 6 11 10 20 16 29 5 4 6 12 11 9-6-9-5-26-19-29 4-2 7-1 11-2 4 8 6 16 11 21 2 5 5 11 9 5 7-8-9-19-5-27-8-2-6-11-12-14-4-2-3-2-4 4-4-4-5-4-8-5"/><path fill="#83AD97" d="M531 358c-9 3-35 14-64 13 6 4 6 12 13 13 23-7 19 7 43-6 4-12 6-14 11-20"/><path fill="#3E959B" d="M196 118c-3 11-6 22-7 33 3 8-3 23 4 22 7 0 10-2 14-2 3-4-1-6 1-10 1-4 4-6 6-6-8-11-13-23-18-36"/><path fill="#607484" d="M226 296c-4 2-9 0-13 1 2 0 1 2 4 2-6 4-10 4-15 3-7 6 4 9-11 11 6-2 11-1 16-2 5 2 9 2 11 4 3 4 5 6 7 8-9 2-13-9-24-7 3-1 5 0 6 1-2 3 0 7 0 14-2 5-6 5-8 3 16 9 76 9 25-9-1-4-3-6-5-8-2-8 6-1 8 0-1-5-10-7-12-12 2-8 18-5 13-9"/><path fill="#F4AC5D" d="M202 184c-4 4-7 3-11 9-2 4-2 10 0 12 5 9 11 8 20 9 6-7 12-7 10-21-2-6-10-9-16-8"/><path fill="#2B556F" d="M281 396c-9 5-11 12-13 29 2 19-4 42-4 62 15-5 26-30 40-37-12 9-23 25-37 35 7-12 15-22 26-29-3-8-17-3-17-15-8 3-1 16-8 12-1-19 9-37 12-57"/><path fill="#4D7782" d="M327 398c-5 10-15 18-24 22-12 7-19 1-29 6-4 9-5 20-5 26 1-14 9-4 12-22 7-1 11-1 12 3 7 6 3 14 1 17 15-8 25-31 32-49"/><path fill="#3E4B70" d="M197 313c-2 1-5 0-5 3-6 4-6 9-7 14-5 1-9-1-10-3-12 7 43 16 58 22 3-2 14-2 21 0 1-7-4-6-5-11-17 6-40 1-56-4-5-8 0-16 6-19 12-2 17 8 25 10-4-6-8-12-15-11-5-2-7-1-10-1"/><path fill="#221243" d="M313 285c-8 2-9 11-8 18 2 7 4 11 6 15 4 3 7 1 9 2 12-5 11-18 7-25-1 2-3 3-7 2-6-3-2-6 1-8-2-4-4-4-6-5"/><path fill="#414F6F" d="M226 236c-3 7 19 21 20 43 4 6 0 8-4 9-9-8-13-17-16-27-5-1-8 0-10-2 2 3 4 3 7 4 10 15 13 32 7 31 8-8 13 2 22-6 6-5 10-10 9-17-18-6-25-24-33-38"/><path fill="#F1EECB" d="M410 268c-1 1-2 0-3 1-6 2-10 6-11 9-8 14-8 30-3 42-1-11 3-19 5-29 3-6 7-11 12-14 9-2 14 1 18 6 7 7 7 15 8 23 4-8-3-14-2-20-4-11-12-19-23-18"/><path fill="#77AFA1" d="M413 180c14-1 27 0 41 1 4 1 6 5 5 7-3 8-9 8-11 16-12-10-21-19-33-22"/><path fill="#AB9591" d="M284 289c-4 8-1 18 0 26 3 8 9 15 16 18 9 6 18 6 28 5 7-1 11-3 16-6-1-5-4-5-4-8-4 5-9 7-14 9-10 1-17 1-22-4-19-8-12-35-16-38"/><path fill="#F69A43" d="M204 185c6-2 12 2 15 6 2 10 0 17-8 21-8 1-14 0-17-5 1-4 4-3 5-5 4-9-7-5-5-8 4-5 6-7 9-8"/><path fill="#8BAFA0" d="M445 375c14 17 5 19 27 40 8 11 20-2 26 3-6-7-10-15-18-21-2 4-7 7-11 3-9-7-15-16-24-23"/><path fill="#456F84" d="M275 134c5 3 18 35 26 42 5 13 5 25 8 32 7-10 0-29-5-42-5-10-9-17-13-24-4-3-8-5-11-8"/><path fill="#54959B" d="M440 122c7 6 9 12 9 21 5-2 11 21 17 13-3 7 5 15 7 20-4-8 8-11 7-16-14-15-22-29-38-37"/><path fill="#5D9791" d="M417 362c-3 6 6 13 1 21 12 10 20-5 36 5-3-7-11-13-17-17-7-4-13-7-18-8"/><path fill="#F89B50" d="M267 281c-13 8-24 17-39 19 11 1 22 7 34 7 6-2 9-11 4-25"/><path fill="#79AB9E" d="M212 171c-14 5-30-3-19 20 2-4 4-6 7-7 9-1 15-1 19 5 7 9 0 18 0 24 7-3 7-9 7-13 1-8 0-9-2-14-6-5-8-11-13-14"/><path fill="#EBB065" d="M153 301c-7 9-12 11-7 16 11 11 13 11 19 6 3-3 8-5 4-13-4-6-11-8-14-8"/><path fill="#351E42" d="m254 343 1 1c1 1 3 3 0 5-13 0-25 1-35-1 5 2 10 2 15 3-1 6-3 10-4 15-24 14-47 38-63 57-2 9-15 21-20 34-1 3-4 5-4 6 4 2 6 1 7 0-3 3-8-1-3-5 10-19 22-35 35-51 19-23 41-34 62-48 9 8 18 20 31 22-1 13-14 15-21 21 5-1 15-9 19-3 4-16 8-32 15-47 8-9 8-9-1-3-5 11-7 21-10 31-12-2-21-9-25-18-15-13 11-9 3-19"/><path fill="#EDD0A3" d="M265 400c-11 2-20 8-28 18-7 1-11-4-15-2 6 2 9 7 11 10 8-1 13-3 18-5 12-2 10-13 12-19"/><path fill="#628382" d="M240 226c-5 3-18 2-15 13 1 1-3-8 3-6 6 0 26 10 42 10 0-8-8-12-14-15-7 0-10-1-14-2"/><path fill="#A0C2AB" d="M458 400c2 5 2 11-4 14 13 7 25 10 36 15 4-4 12 7 12 0 2 4 6 5 6 9-2-6-4-12-8-17-7-9-15 5-23-2-9-4-14-12-17-19"/><path fill="#3F5171" d="M145 206c5 6 11 11 16 17 17 2 27 18 59 25-13-9-21-21-25-33-1 12 0 16 5 24-17-14-36-19-54-31"/><path fill="#8A9E95" d="M468 249c-3 1-4 3-5 6-5 3-9 3-11 4 5 5-6 3 5 2-4 5-7 7-10 9-1 6 2 12 3 21 5-6 11-13 18-18 2-4-5-9-6-17 4-3 3-8 8-8"/><path fill="#4BBAB3" d="M143 204c66 41-25-15 57 29-10-13-9-20-13-23-16-1-28-2-39-5"/><path fill="#E0F0D9" d="M411 358c21 2 46 28 62 44 1-14-11-19-17-26-14-9-27-15-39-21"/><path fill="#AAD5B4" d="M260 198c-30 35-5 1-14 25 9 1 14 7 20 8 8 1 10-6 14-8-1-4-4-6-6-9-7-1-17 4-24 6-1-8 3-13 9-16"/><path fill="#CE8C68" d="M270 399c-1 2-5-1-6 1-2 8-1 14-4 19-9 4-16 6-22 8-8-12-23-6-31-15 21 12 9 9 27 17 10-1 21-5 30-1 3-10 5-19 7-29"/><path fill="#7CAF9D" d="M313 186c-1 9 1 19 3 27 9 3 15 0 22 0 0-4 1-6-1-8-20-3-13-17-21-15"/><path fill="#F68A2E" d="M205 187c-2 1-5 1-6 4 11 7-7 15-1 17 8 3 13 1 18-3 4-9 1-21-10-18"/><path fill="#61758C" d="M295 297c-2 6-2 15 2 22 5 6 9 9 14 10 7 2 12-1 14-1 7-4 4-8 0-10 1 5-9 4-14 1-9-6-10-15-16-20"/><path fill="#F17B1E" d="M365 225c-25-4-22 7-13 23 0-5-3-8-1-13s6-7 9-9c-2 5-8 9-5 16 7 7 15 12 22 8-3-4-13-2-15-10-1-9 8-12 13-12-3-4-6-4-10-3"/><path fill="#EBA352" d="M153 303c5-2 10 1 13 4 4 7 4 11-1 15-7 4-14 2-17-3-8-14 9-7 4-14"/><path fill="#B74F3C" d="M281 311c-1 2 2 6 1 10 3 7 13 11 19 17 1 2-2 5-6 4 3 2 7 0 9 2 7 6 6 12 9 17 3-3 5-9 10-12 7-1 10 3 12 6-1-7-16-8-11-15-10 0-21-1-29-8-7-7-12-13-14-19"/><path fill="#D4F3E5" d="M332 145c-13 12 16 17 10 31 6-3 9 7 12 3-2-9-6-18-11-27-4-4-6-6-8-6"/><path fill="#72273D" d="M377 349c-6 1-12 3-17 7-7 7-11 14-15 21-2-4-3-7-4-10 1 3 2 6 2 9 8-9 32-6 41-26 24 24 25 23 0-2l-1 1h-1v1l-2-1h-1"/><path fill="#F9A04E" d="M336 348c-1 5 9 16 9 24 5-8 13-17 22-21-8-4-19-2-27-3"/><path fill="#F6DF90" d="M376 229c-20 4 10 16 15 22 5-7 3-14 0-17-6-4-9-6-13-6"/><path fill="#DE7C45" d="M358 196c-4 14-13 18-22 28 10-3 22-4 31-2-3-9-8-20-9-24"/><path fill="#90DACE" d="M342 171c-2 11-3 21 2 33 5-1 13-9 14-17-2-8-10-8-14-10-2-1-3-3-2-4"/><path fill="#B6B187" d="M322 162c4-2 10 2 12 5 2 8 0 14-6 16-6 1-12-1-10-8-2-6-1-10 3-12"/><path fill="#80AB93" d="M281 219c5 5-6 7-7 12-6 1-7 1-11 0 3 3 8 4 9 8 13 9 37-7 8-18"/><path fill="#71D2CE" d="M124 304c-7 2-12 9-8 15 6 3 13 3 19 5-4-6-3-14-1-19-4-2-6-2-9-2"/><path fill="#959C97" d="M482 163c-8 2-9 11-7 18 3 8 8 15 15 19-2 3-4 2-5 3-6-4-9-7-11-11 2 6 4 13 3 21 2-3 7-4 5-10 10-1 18 1 24-2 2 3 2 5 1 6 0-6 1-12 3-17-4 2-7 6-12 5-5 0-9 0-11-3-6-4-10-7-10-11-1-9 0-16 5-19"/><path fill="#8AA695" d="M456 202c-5 7-8 18-13 23l-1-3v2c4 3 5 9 1 13 6-1 10-2 14-4 4 5-1 7-2 10 1-2 2-3 5-2-1 1 2 4-1 4 4 1 4-1 7 0-3 0-5-2-4-5 0-8 0-8-1-18-4-2-7-2-8-6-3-6 0-9 2-12"/><path fill="#251745" d="M413 286c-5 2-7 8-8 12 0 7-2 13 2 16 6 0 8-4 10-6 6-11-5-17-1-23"/><path fill="#AD9592" d="M398 301c0 11-6 24 5 31 7 3 14 3 18 0 6-3 9-6 11-8 4-4-1-5 0-7-3 4-7 8-12 10-5 0-9 2-12 0-10-7-12-15-10-25"/><path fill="#91CEBE" d="M291 141c9 13 17 26 20 42-2-8 0-18 5-23-7-7-14-18-22-19"/><path fill="#EAC996" d="M439 207c-2 5-4 10-4 16-3 4-6 0-7-1 6 7-8 16 4 18 6 1 12-2 12-6-2-10-7-17-5-26"/><path fill="#91B49F" d="M464 173c0 9-4 17-7 26 24 9-6 14 8 16 9-4 6-10 7-15-1-13-9-17-9-25"/><path fill="#587084" d="M187 200c-4 9 7 12 5 21-1-2-1-6 0-8 8 5 6 16 13 14 7 3 7-1 5-5 6-1 3 3 5 3 6-4 7-9 10-13-8-1-11 4-19 6-9-2-18-7-18-15"/><path fill="#4E788C" d="M235 381c-5 0-7 10-10 6 0 4-1 8-1 9 4-6 8 6 15 2 13-5 3-14-2-16"/><path fill="#8ED5C2" d="M323 286c3 6 6 5 8 13 0 6 2 11 0 15 3-1 5-2 7-2 2 5-2 9-3 12 6-6 6-10 7-14 1-5 1-9-1-12-4-17-12 1-16-10"/><path fill="#F78A2B" d="M508 170c-11 7-14-3-22 9-1 3 4 6 6 7 16 4 22-11 13-14"/><path fill="#45496D" d="M224 300c-19 2 1 11 4 16 7 1 13 3 16 0-5-6-13-9-20-14"/><path fill="#E3E0C1" d="M508 207c-15-2-16 10-21 7 1 6 5 9 7 14 6-9 2 4 7-2 2 7-3 11-2 11l-1 1 1-1c2-2 2-6 4-8 1-9 3-15 4-21"/><path fill="#5F667E" d="M223 428c-7 4-13 9-20 13 4-3 53 8 22-14h1-1v1"/><path fill="#EEC57C" d="M442 387c-6 1-5 6-6 11 3 5 5 8 11 6 4-4 7-6 5-12-2-4-5-6-8-6"/><path fill="#D6CDAF" d="M506 202c-6 3-14 1-20 2-1 3-1 6 0 9-2 11-5 21 0 28 4-5-2-15 6-16-3-3-5-7-6-10 3 0 10-9 22-11"/><path fill="#3A4D67" d="M458 375c3 2 20 21 27 21 15-1 24-9 30-11-9 1-26 4-39 2-7-3-11-7-16-11"/><path fill="#225273" d="M125 326c-1 6-10 10-3 10 6-3 12-10 19-7-11 8-20 16-26 25v2l3-4c8-15 60-16 8-26"/><path fill="#3DAAAD" d="M262 154c-6 6-14 11-19 18 7 3 9 10 6 15 5-11 11-21 14-33"/><path fill="#F2D99B" d="M483 163c-10 8-4 20-1 23 4 0 2 7 9 8 6 1 11 2 15-3l4-4c-4 3-8 3-13 2-6 0-9-3-12-5-1-11 1-4-5-14 3-6 8-5 10-3 2 4 1 7 0 9 1-2 2-5 1-8-2-4-6-1-8-3"/><path fill="#B8EFF6" d="M297 126c-13 9 7 14 12 15 1-4 2-7 6-9-7-4-11-6-16-6"/><path fill="#DCEFDC" d="M311 277c2 2 20 20 28 11 5 11 6 20 3 26 3-8 2-19-2-25-5-7-10-10-14-12-5-1-8-1-10 0"/><path fill="#666A82" d="M371 367c3 11 25 24 36 32 4 4 6 3 7 6 31 17 61 26 85 51-8-9-17-16-27-22-19-12-39-17-56-29-15-12-29-24-42-37"/><path fill="#5D787F" d="M472 239c-1 6-7 7-11 8-2-3 1-7-4-5 3 1-5 12-13 17 8-2 18-1 22-11 7 0 12 5 14 9 3-8-11-11-6-16"/><path fill="#659D99" d="M171 296c3 6 10 12 18 14 7-2 5-4 10-7-9-2-16-5-26-7"/><path fill="#ADC0A8" d="M467 249c-1 2-2 4-4 5 2 9 6 13 6 16 3-1 6-6 10-8-1-7-5-12-9-13"/><path fill="#5E6F75" d="M353 201c-1 5-6 6-7 9-3-1-4-5-5-6-2 4 1 6-2 9-8 1-14 4-21 4 0 7 9 7 14 5 9-5 16-11 20-19"/><path fill="#529599" d="M300 179c-3 1-7 1-10 3 4-1 8-1 11-3-2 6-6 8-9 12-6 0-10-1-14-2 2-3 6-3 9-5-5 2-11 3-16 6 7 1 13 0 18 2-8 1 34 22 10-13l4 1"/><path fill="#769998" d="M201 317c-7 1-9 8-10 13 6 3 10 4 14 5 1-6 1-15 0-17l-1-2h-1v1"/><path fill="#E5C08E" d="M438 243c-6 1-14-1-20 2 5 7 9 11 12 16-4-10 15-17 11-19"/><path fill="#F3D9BE" d="M327 245c3-2 7 0 10-1 5 1 8 4 8 6-4 7-10 5-14 6-7-1-10-7-5-9"/><path fill="#87A4A1" d="M429 294c-3 11-5-5-8 10 0 5-4 4-3 12 7 4 11-5 13-8 0-11 2-10-2-11"/><path fill="#2E315C" d="M371 408c7-6 13 5 12 6 2 6-7 6-2 12-6-3-11-6-14-9 3-4 2 1 7 0 3-6-5-3-3-7"/><path fill="#75ABA1" d="M162 296c4 1 0 3 2 5-10-1-16-1 0 0 2 3 4 5 6 7 0-3-2-3-3-6 1-2 2 1 4 1 12 6 4 23 10 26 3-5 4-12 8-15 3-1 10-4 9-5-3 4-12 3-14 1-7-3-1-3-7-2-4-7-4-10-7-11 1 2 4 5 8 8-4 1-4-1-5 0-4-5-7-5-9-7"/><path fill="#B4A192" d="M257 255c-23-2-5 10 6 13 3-8 4-7-1-13-1-2-3-1-4-2"/><path fill="#E7CFA6" d="M179 282c-7 8 11 7 14 8 9-4 13 0 15-6-10-2-18-2-27-2"/><path fill="#B08F7C" d="M252 322s5 17 6 20c7-2 8-5 7-9-2-6-3-12-8-13"/><path fill="#556B78" d="M411 358c0 9-3 3 0 19-4 3-5 1-8 3 3 2 4 5 7 6 3 2 3 4 5 4-2 0-2-2-4-3 6-4 10-7 6-15-5-10 1-8-6-13"/><path fill="#E69A59" d="M459 234c-13 8-18 6-29 9 4 0 8-2 13-1-1 6-14 6-8 15 8-6 17-12 24-20"/><path fill="#C9EBCB" d="M261 204c-6 2-11 8-13 13 7-4 37 1 13-12"/><path fill="#AA9E76" d="M321 360c3-2 8 2 9 4 1 6 0 11-5 11-4 0-6-2-7-4-2-5-2-8 2-9"/><path fill="#78AA99" d="M413 383c-3 9 16 11 20 17-2-1-2-3-1-6 1-5 4-7 7-8-7 4-13-2-22-2"/><path fill="#EA9F61" d="M228 234c30 15 23 12 42 21-1-3 2-7 1-9-14-4-27-5-38-10"/><path fill="#8CABA2" d="M488 429c1 3 13 8 16 15 7 7 8 13 10 19-1-11-5-28-7-27-7-10-10-1-19-7"/><path fill="#7FA89C" d="M224 216c-1 4-4 7-6 11-8-13-3 12-16 0 5 6 9 13 14 15 3-3-5-9-3-14l3-1 1 2c2 3 4 7 5 11-1-2 0-4-1-5 4-5 7-8 12-7-5-4-7-3-11-1 2-4-3-7 2-9"/><path fill="#537187" d="M200 408c-2 4-5 5-8 7 6-3 3 12 8 14-10 8-14 11-17 12-1 1 1 1 3 2 12-7 20-15 28-22-3-2-5 6-9 3-5-5-5-9-6-13"/><path fill="#47A3A9" d="M309 437c-4 4-7 10-12 14-7-3 3-8-2-13 2 7-4 12-10 10 8-2 7 1 8 6-9 9-18 19-26 29 16-14 32-30 45-46"/><path fill="#221E41" d="M63 266c5 10 10 20 17 30 4 4 5 7 9 9 5 5 9 11 13 13 8 4 14 5 20 8-1 4-2 7-4 10 3-3 4-7 7-11 32 7 61 13 90 24-35-14-72-23-111-29-9-7-17-15-22-22-8-11-14-21-17-31"/><path fill="#E4D7AA" d="M415 267c10 1 16 10 19 16 10 17-3 24 0 38 8-7 9-20 5-29-4-11-11-22-22-24"/><path fill="#678285" d="M451 369c7 5 15 11 21 16 5 2 10 1 14 2-11 2-13-10-19-15 3-1 6-2 10-1-9 0-16-2-23-2"/><path fill="#89D0B8" d="M419 181c9 4 16 11 24 17-3-6-9-8-13-13 10 1 16 5 23 8-1-3 2-5 2-7-12-2-22-5-34-5"/><path fill="#E9A150" d="M153 303c4 8-6 4-7 10 7-6 5 11 20-1 1 3 1 4 1 5-2 3-2 5-3 5-4 1-5 0-5 2-6-1-8-3-10-6l-1-1 1 1c2 3 4 5 8 4 3 2 3 0 4 0 4 0 4-2 5-3 3-4 2-7 1-10-4-4-7-5-10-6"/><path fill="#A3C6BB" d="M415 280c0 3-3 0-4 2-8 7-11 16-9 24 2-16 1-12 7-20 6-5 9 1 13 2-2 5-1 9-1 13-1-3 3-3 3-5 1 9 5-9 7 2 0-8-7-16-14-17"/><path fill="#77A8A6" d="M194 414c-5 9-8 12-11 20 13 4 8-9 14-4-2-5-1-10-2-14"/><path fill="#4F7B83" d="M340 372c-1 3-1 6-3 9-4-1-4-3-5-4-5 2-8 3-13 2 4-1 8 2 7 2 4 7-4 5 0 6-14 1-8-12-14-3 0-6 0-6-1-3 4 8 12 11 18 9 8-3 8-11 12-15"/><path fill="#E9B971" d="M286 432c-1 1-4 1-5 3-1 6 2 10 4 11 4-1 6-3 8-3 2-7-1-10-5-12"/><path fill="#1F2752" d="M202 434c-15 11-30 20-47 28 17-7 47-19 53-29"/><path fill="#4F7789" d="M336 175c-2 14-19 7-23 6 2 7 6 10 9 9 8-1 15-6 17-12"/><path fill="#944E48" d="M428 210c4 3-8 18-14 17 2 0 4-1 6-1 0 8-2 13-5 18 9 11 15 20 20 30-5-10-8-19-18-27 14-10 5-25 13-34"/><path fill="#4F8B9A" d="M186 423c-3 5-7 10-10 15-1 3 5 4 3 7-9 5-15 10-23 14 21-6 31-19 27-20 16-7 20-15 3-1-6-6-2-12 3-12"/><path fill="#6D7A81" d="M457 261c-13 4-5 4-17 9-5 8 4 14 6 20 5 3-2-15 0-19 4-3 6-6 10-8"/><path fill="#81CFC3" d="M336 189c-24 2-15 10 0 15 0-6-2-10-1-15"/><path fill="#37496E" d="M212 423c-7 9-24 20-37 28 39-33 26 5 48-32"/><path fill="#9E4343" d="M273 250c-2 12-11 13-11 37 6-9 9-17 12-26 0-4 0-8-1-10"/><path fill="#F1AA5B" d="M488 161c-8 4 1 3 4 5 1 6 0 10-3 11 2-1 4-4 4-6 3 3 10 2 12-1 0-3-2-7-5-8-4-2-8 0-10-1"/><path fill="#D6D8B3" d="m352 304-1 2c-2 8-13 17-4 24-7-8 20-21 7-25-4 2-4 1-4 0"/><path fill="#F1AF56" d="M445 387c1-1 7 2 7 5-1 6-4 10-8 9-5-1-6-4-7-5 5-2 11-2 8-7"/><path fill="#72AE9E" d="M451 185c8-3 5 7 2 9-6-3-10-5-13-7-8 3 6 8 4 11-7-3-10-7-14-10 4 2 7 7 11 10l4 4c3-8 21-11 8-19"/><path fill="#EA8B35" d="M156 307c-5 5 9 4 4 10-10-4-15-11-8 5 6 1 10 0 14-2-7-11 2-7-9-12"/><path fill="#60647D" d="M151 272c2 8 4 5 8 16 6 0 11-1 14-1-14-4-17-13-18-15"/><path fill="#2D2F5B" d="M373 408c-4 5 4 2 1 9-2 1-6 1-6-2 3 5 8 8 11 11-4-6 4-7 5-10-2-6-5-10-10-8"/><path fill="#6F9A90" d="M232 229c6-2 10 1 15-1 8 2 12 6 16 9-9-5-24-4-34-6"/><path fill="#8BD3C6" d="M309 279c-3 2-9 5-10 10 3 7 3 15 6 22-3-6-3-15-1-21 4-6 10-9 14-6-2-3-4-4-7-5"/><path fill="#467D93" d="m119 294 1-1c5-1 8 1 13 0 3 9-20 14-13 2"/><path fill="#D5F0DC" d="M188 290c-7 4-18 0-26 2 5 4 20-1 33 9-2-4-6-4-7-8 10-1 9-1 1-3"/><path fill="#F3A35F" d="M282 333c-2 7-2 14-4 22 5-5 9-9 15-11-5-3-9-6-12-9"/><path fill="#B59F8F" d="M403 402c-1 3-1 6-3 9-4 1-6 1-9 0 5 4 9 7 14 10-5-5 2-11 4-13-2-4-4-4-4-6"/><path fill="#8EAEA0" d="M206 403c-2 4-7 6-5 11 0 5 2 8 6 9 3-1 4-2 5-3-3-2-5-5-6-8 5 3 8 6 13 4 2 2-14-1-12-12"/><path fill="#C86844" d="M307 346c4-1 10 2 13 1-1 6-4 10-6 14-3-4-3-9-5-13"/><path fill="#363260" d="M388 396c2 1-2 6 2 12 4 1 6 1 7 0 3-2 5-2 2-7s-6-3-8-5"/><path fill="#F6EFE3" d="M333 246c-9-2-10 10 0 7 4 0 8 1 9-2-1-5-5-4-8-5"/><path fill="#596B7F" d="M454 396c1 4-3 8-6 10-9 0-13-3-18-7 5 3 7 9 13 11 8-1 21-6 9 4l2 2v-3c5-2 5-11 1-15"/><path fill="#41A4AE" d="M136 330c-7 0-11 9-16 8 3 2-7 6-5 14 6-10 21-18 24-23"/><path fill="#4D768F" d="M136 299c1 9-5 18 4 25-1-3-4-7-2-10 4 6 7 11 13 13-4-3-9-6-8-12-1-6 0-10 4-12-3-1-2 2-3 3-3-3-6-5-6-7"/><path fill="#CED9B9" d="M498 225c-1 9-10 13-8 25 6-4 5-7 9-10 4-11 2-14-2-12"/><path fill="#351C37" d="M505 230c-3 7-6 14-11 21-16 13-31 27-44 42-7-6-11-13-15-20 5 7 8 16 14 24 13-20 37-33 49-50 15-8 22-9 3-3 1-5 2-9 3-13"/><path fill="#E9AE60" d="M286 432c4-2 9 3 7 7-2 5-4 6-8 5-3-2-4-4-5-5 2-7 10 3 8-5"/><path fill="#A0C2AE" d="M479 396c2 2 14 9 8 13-5 3-6-1-8-3-4-6 2-6-1-7"/><path fill="#1D2249" d="M267 427c-2 14-4 40-6 59 2-17 6-38 8-57"/><path fill="#616785" d="M345 391c2 2 2 5 4 7-3 0 0 6 0 7 3 0-1-3 0-5 8 8 16 18 24 25 11 8 21 14 32 14-11-2-20-7-29-13-14-10-20-23-29-33"/><path fill="#516E8A" d="M401 307c-1 5 2 12 7 14 9 1 15-1 20-6-7 9-13-4-20 1-7-13-2-4-8-7"/><path fill="#91BFAE" d="M209 401c-2 2-2 6 0 10 3 3 5 5 7 5-1-6-1-10 1-14-2-2-4-1-5-2"/><path fill="#495171" d="M186 174c4 18-8 6-1 33-6 1-10 1-14 1 4 0 9 0 13-1 4-11 8-19 3-30"/><path fill="#789D92" d="M308 389c-2 13-11 25-23 32 7 4 12-4 17-8 17-21-9-1 10-27"/><path fill="#55647E" d="M291 348c-7 17-12 35-17 53 14-4 4-29 17-50"/><path fill="#372140" d="M413 279c-8 3-14 12-14 20 1-7 5-15 12-19 5 0 9-2 11 0 6 6 11 11 11 17 1 10-3 18-9 23-5 3-8 3-11 4-7-1-9-5-12-8 3 6 8 11 16 9 6-1 10-5 11-9 5-6 5-11 6-16-1-8-4-13-8-17s-8-5-12-4"/><path fill="#2F5770" d="M247 163c-2 4-4 8-9 9-1 6 6 9 9 14-3-1-5-3-8-6l24 24c-17-10-9-17-19-31-1-2 1-5 4-7"/><path fill="#77AB9A" d="M229 203c-1 3-1 7-3 10 4 2 5 7 9 10-4 0 1-5 3-3-3-7-7-11-9-15"/><path fill="#A4C7B1" d="M474 390c4 10 0 14 12 21 5-9-8-14-11-18"/><path fill="#444B65" d="M415 346c-7 12-7 24-2 7 9 2 13 6 19 8-2-2 1-3 1-4-5-2-11-4-17-8"/><path fill="#484F6B" d="M274 192c12 3 20 6 29 11 5 1 5 7 6 6 1 3 1 13 9 14-2-7-5-13-6-19-2-2-3 1-3 2-2-1-2-3-3-3-11-5-20-8-29-11"/><path fill="#DFB66F" d="M323 362c-3 1-6 2-4 6 0 4 3 4 4 5 6 0 6-4 5-6-2-3-1-6-4-5"/><path fill="#76DBCC" d="M301 181c-8 2-16 4-23 7 4 2 8 1 11 3 5-5 9-6 11-10"/><path fill="#558596" d="M235 385c0-2 1-1 3-1 1 4 6 1 6 5-4 6-20 3-11-5"/><path fill="#3A183B" d="M434 334c-32 10 6 24 10 34-7-1-8-17-20-19 1-6 2-11 7-13"/><path fill="#272B4F" d="M485 446c10 7 18 17 27 25h3v-2c1-6-1-9 0-15-2 6 2 11 0 16-4-14-9-11-7-17-6 2-5-6-10-2 2 6 12 11 14 16-10-7-17-14-24-20"/><path fill="#6F7980" d="M472 175c1 8 2 16 6 22 3 5 7 5 11 4-9-6-14-15-17-24"/><path fill="#5D6978" d="M507 230c-13 22 16-4 25 6-3-6-16-1-23-5"/><path fill="#5B758A" d="M176 314c-1 11-5 6-9 12-5 3-10 3-13 2 19-4 31 9 21-12"/><path fill="#62627F" d="M166 405c2 15 5 17 13 3-4-1-8-1-12-1"/><path fill="#ABD7B8" d="M226 213c-3 5-3 9-2 12 0-2 6 0 10 2-2-4-5-9-7-12"/><path fill="#4C627F" d="M196 226c-18 0-12 6 3 13-2-6-5-8-5-13"/><path fill="#525068" d="M442 201c0 6-2 14 1 20 3-3 5-6 5-11s-5-1-6-7"/><path fill="#DF7B47" d="M233 238c2 3 7 6 13 12 5 1 8-1 11-2-8-2-15-6-22-9"/><path fill="#E1CDA9" d="M306 260c-6 2-12 7-17 12l-1 2-2 1c-4 7-5 14-4 23-1-4 0-6 1-8 4-2 5 0 7 1-1-9-8-2-5-11 4 1 4 3 8 4-1-5-5-6-4-10 6-7 11-13 18-15"/><path fill="#F79A4B" d="M393 349c-4 0 8 11 11 14 1-5 2-6 3-8-7 3-7-3-11-7"/><path fill="#486881" d="M190 141c-3 15-6 28-6 45 1 1 2-6 2-11 1 6 6 11 4 16-2-16-3-34-1-48"/><path fill="#E98D47" d="M450 241c5 4-11 11-14 16-2-10 8-9 11-13"/><path fill="#467A91" d="M120 293c-4 14 13 7 13 2-3-1-7-1-11-2"/><path fill="#DCC19C" d="M220 315c8 13 23 14 33 23-2-1-3-3-4-5 3-4 9-3 3-7-1 3-4 6-9 4-9-2-14-10-20-14"/><path fill="#4C4D63" d="M455 245c-6 4-11 8-16 12 8 2 15-8 17-12"/><path fill="#4F6A85" d="M268 391c-14 6-27 13-39 23 12-7 25-14 38-22"/><path fill="#F38A46" d="M312 239c5 0 7 6 11 3 1 4-1 6-1 8 2-9-10 1-10-9"/><path fill="#4C4E6B" d="M432 262c-1 4 4 9 5 12 1-6 5-6 11-8-5 0-10-1-13-3"/><path fill="#F8DC96" d="M365 288c0 12 10-3 13 6 3 12-3 14-5 17-4-2-4 3-2 2 8-4 13-10 10-18-3-7-9-7-13-4"/><path fill="#65213E" d="M236 352c14-4 6 9-1 9-1-2 1-4 1-6"/><path fill="#E1AA5B" d="M322 362c3-1 7 3 5 6-2 2-3 4-5 3-4-3-4-5-1-8"/><path fill="#649A97" d="M192 294c2 5 14 6 20 5-4-1-8-7-18-4"/><path fill="#2E5671" d="m247 111 2 2c10 8 26 22 30 29-2-14-21-20-30-30 2-1 4-1 5-2-1 1-3 1-6 0"/><path fill="#691F31" d="M369 351c9 0-14 9-15 17 2-8 6-13 13-16"/><path fill="#F5EBD6" d="M484 167c-2 2-3 10 3 8 4-1 4-4 3-6-1-3-2-2-3-2"/><path fill="#5A908D" d="M318 379c-6 5 4 8 7 9 1-4 1-5 2-6-4-1-6-2-7-1"/><path fill="#2F1D3B" d="M535 359c-2 9-7 17-15 24-11 8-22 11-32 15-4 0-5-3-7-3 11 10 19 21 25 33-3-10-10-19-18-28 10-6 21-9 30-15l3-1 2-1c6-7 10-14 12-22"/><path fill="#78AE98" d="M307 361c-1 7 1 12 3 17 2-4 4-10-1-15"/><path fill="#2C1C3F" d="M194 120c-5 16-9 32-12 49 0 13-3 25-1 35-12 3-22 1-32 0 10 2 22 3 34 2-4-11 0-23 0-34 1-19 6-35 10-50"/><path fill="#55D0C9" d="M261 155c2 3-9 12-12 17 1-5 5-10 9-15"/><path fill="#485C74" d="M219 248c1 0 9 4 6 8-5 1-7 0-9-1-1-5 2-2 2-4"/><path fill="#698D92" d="M225 255c15-1-5 10-9 3 1-3 4-1 8-2"/><path fill="#78A8A6" d="M335 312c2 3-4 2-4 4s1 4 2 5c-3 4-5 7-9 7 10-1 15-9 14-15"/><path fill="#2D1C3C" d="M202 248c8 14 15 28 24 41-3 5-8 3-11 2 6 2 12 3 16 6-10-14-21-32-28-48"/><path fill="#578A9A" d="M236 384c-13 3 2 12 5 5 0-1-3-3-3-5"/><path fill="#BCA792" d="m400 411 2-1c-1 3 1 5 2 7-4-1-19-6-6-6"/><path fill="#DD844D" d="M433 204c-1 10-7 14-2 16 3-6 4-11 4-16"/><path fill="#BDA893" d="M246 256c3 5 14 5 17 10-5-3-13-2-16-7"/><path fill="#DFC6A1" d="M239 246c4 7 7 14 14 17 16 4-8-2-8-8 11 1 3-6 16-6 3 1 5 4 4 5-4-1-6-4-8-1 2-2 4 0 7 1 1 3 1 4 1 5 2-4 0-8-2-9-10 1-17 6-23-3"/><path fill="#60A09D" d="M166 302c6 4 8 13 5 20 1-9 9-6 5-10-1-6-5-7-7-9"/><path fill="#E79E61" d="M435 201c1 4 1 11-2 19-3 3-1-2-6 1 3 1 3 4 6 3 2-6 3-17 7-19-1-5-2-1-4-3"/><path fill="#E9933F" d="M154 306c5-2 8 5 9 5-3 2-6 3-9-3"/><path fill="#88C3B4" d="M513 225c1 8 12 5 20 7-6-2-12-5-18-7"/><path fill="#BCE3C3" d="M225 214c4-1 5 9 11 11-7 1-9-5-12-8"/><path fill="#697B7E" d="M376 184c-3 3-7 4-9 8 0 5 1 7 3 10-3-5 2-11 4-16"/><path fill="#514F6A" d="M500 359c-2 3-4 10-10 8 7-1 25-1 11-7"/><path fill="#556988" d="M187 404c-8 11-18 21-23 33 8-10 14-21 22-31"/><path fill="#F49E5A" d="M432 331c-9 4-18 9-27 13 9-3 19-5 27-13"/><path fill="#5F6881" d="M317 435c-2 2-4 4-5 7 3 3 9 2 11 4-3-4-6-6-7-9"/><path fill="#D1653E" d="M309 346c1 2 2 3 2 5 6-3 7 6 8-1-1-2-5-2-9-3"/><path fill="#87BFB7" d="M467 150c3-2 8 1 8 4-5 4-7 1-8-2"/><path fill="#767E86" d="M375 373c5-1 9 8 14 9-5 0-9-3-13-6"/><path fill="#C1E3BF" d="M314 393c5-2 9 2 14 2-5 5-9 2-11 0"/><path fill="#C0785E" d="M475 441c3 3 4 10 3 13 8-5 3-4 4-7-1-3-3-3-5-6"/><path fill="#82B3A1" d="M301 361c-6 6-10 13-13 21 10-12 10-8 15-25"/><path fill="#F28E25" d="M446 388c6 7-7 7-6 9 5 2 7 1 9 0 0-4 1-6 0-7"/><path fill="#DBC5A2" d="M397 302c-4 4 0 28-7 13 3 8 6 13 10 16-8-7-3-18-3-27"/><path fill="#7BB1A7" d="M509 223c0 2-2 3-1 6 5 2 8 2 15 3-13 3-9-11-11-8"/><path fill="#70253F" d="M239 353c-3 1-2 5-4 8 3-2 14-8 5-9"/><path fill="#E78740" d="M453 240c-4 8-16 7-18 14 10-6 12-5 18-13"/><path fill="#E7D7A2" d="M323 165c-1 1-6 3-4 7 1 4 3 6 5 7l2 2 2-1c3 0 3-4 5-6v-3l-2-3-1-1h-1c2 1 3 2 2 5 1 5-2 8-5 8-13-12 2-10-1-16"/><path fill="#F8ECB8" d="M375 229c3-2 7 0 8 1-3 5-8 4-9 0"/><path fill="#83BAB3" d="M184 428c3-1 8-1 9 2-4 2-8 4-9 1"/><path fill="#C69F7C" d="M253 331c-8 0 0 11 2 9 0-4-2-6 0-9"/><path fill="#EC9034" d="M321 171c0 6 6 8 8 4 1-2-4-5-5-3"/></svg>