<svg xmlns="http://www.w3.org/2000/svg" width="600" height="600"><path fill="#3A6079" d="M345 120c12-1 24-1 34 2 41 10 71 43 94 75 6 12 10 21 13 31 3 11 0 19 0 29 9 11 20 22 23 34 2 14-3 3-1 9-18-7-39-3-54 1 2 20 1 42-8 58-6 14-12 24-20 32-8 9-17 15-23 20-3 6-2 12-1 16-4 6-7 0-7 5-1 8 1 13 4 18 9 5 19-3 28 2 10 3 18 8 20 14-40 1-49 7-83 11-13 2-25-5-38-3-3-2-5-3-7-4-1-10 8-9 11-12-2-7-2-13-6-17-6-4-14-2-19-4 1-10-3-18-4-26-7-7-14-12-19-19-9 1-16 3-23 4 2-6 6-8 9-12-11 5-20 13-30 21-4-7 6-14 9-19-22 22-66 50-71 65 4-18 13-35 23-52 10-13 22-25 34-33-21 9-10-3-48 19-4-3 5-8 6-9-14 9-26 16-42 22-4 2-5 1-4-2 16-15 6-10 14-22-4 5-9 11-14 15-13 5-24 8-36 9-2-15 8-23 16-29-3 1-8 1-12 0 2-7 7-11 11-14-10-1-19-1-27-5-6-4-10-7-10-11 15-14 33-16 50-18 3-12-21-13-30-31-4-6-6-9-7-14 6-1 11 0 15 3-8-6-13-11-20-20-2-4-4-9 0-12 22 7 41 22 56 35 12 6-15-12-15-21 19 3 34 11 50 19-3-5-9-8-9-13 8 1 14 3 19 7-24-23-24-21-54-50 7-2 8 0 10 0 34 22 32 28 75 56-5-5-16-10-16-18 22 10 41 21 57 38 15-4 29-8 39-17-5-21-11-42-5-63 2-10 7-17 11-25 8-11 14-17 23-23-14-5-29-5-45-4-11 1-19 4-27 6-3-3 0-4 0-6 15-13 31-20 48-24 18-5 37-6 52-2-6-3-12-5-19-6-20-2-36 1-51 6 6-12 20-17 33-20 8 0 11-2 17-1"/><path fill="#07132E" d="M161 310c-2 1-4 1-6 2 5 4 15 3 24 6 3 1 5 1 7 2 6 5 2 8-2 10-40-4-57-8-4 5 3 4-25 2-33 7 4-2 11-2 17-1-14 10 2 11-7 18 6-7 16-9 24-11 5-1 8 0 8 3-7 7-14 8-21 12 19-9 16 0 35-10 4 4-1 17-3 14-2 6-5 10-11 12 11-4 23-9 34-15 10 1-5 6 1 5 19-4-3-12 39-26-19 20-31 24-56 48-9 11-22 35-28 52 50-54 69-46 85-73 13-6 17-11 21-8-5 12-12 21-22 29 19 0 34-10 51-16 5 1 2 6 7 4 5 1 8-1 11-3 14-6 28-16 34-28l1-2-1 1c-11 21-36 27-42 31 2-5-8-1-4-6-11 1-22 12-35 12-5-1-6-4-7-5 7-11 10-17 14-22l3-1v1c-4 4-4 4 0 0 6-4 9-7 14-5 7 0 4 7 9 9 5 0 16-2 12 1 3-6-6-1-10-1-2-6-1-9 0-13 0 0-7 1-25 7 11-7-11-5 0-15-12 8-30 4-40 16 8-11 16-9 19-22-8 3-20 2-29 3-1-3 2-2 3-4-3 2-10 3-11 0 3-5 7-5 9-8-5 3-15 1-14 8-10 0-18-1-24-4-4-2-11-2-8-6 14-4 14-8 21-9-20-1-21 2-41 6-7-4-13-7-18-10"/><path fill="#454D5E" d="M374 332c-5 8-6 18-14 25-20 17-23 24-33 29 5 6 21-2 23 0-8 5-12 7-17 7-7-5-13-4-16-10-14 3-24 7-35 6 6 8 17 19 23 20-4 7 4 17 1 26l1 2v-3c9 3 12-2 30-4 1-5-8-13-4-26 2 4 1 8 3 11 13 4 28 4 40 1 10-7 26-10 33-14 12-7 29-27 24-22-6 0-3-3-3-6-9 8-18 2-27 8-4-2-6-5-9-2 9-9 18-18 22-29-6 11-18 24-33 31-12 8-25 10-37 12-5-3 0-4 0-5 14 0 24-9 36-11-10 4-5-16-15-6 1-13 3-25 8-40"/><path fill="#3EE8F4" d="M358 124c10 19 40 34 59 59-4 0-12-3-18-4 10 6 20 11 30 18-13-8-30-12-46-11 3 1 6 4 10 4-3 3-4 5-7 4 11 4 23 3 32 8 12 4 20 12 28 18 10-1 12-4 14-12 5 0 7 5 9 4-7-21-21-38-37-55-8-5-13-8-18-11-8 3 3 11 1 14-16-12-25-30-43-33 3-5 5-1 7-3-4-1-9-2-15-1"/><path fill="#08214D" d="M322 217c-1 3-4 5-3 9-6 3-8 1-10-1-3 10-4 20-2 28 2 9 4 17 7 22 0 5 0 7 1 11-11 14-28 17-39 31-2-2 0-6 0-6-2 0-4 0-6 1 13 1-9 4 4 3-1 9-13 1-4 7 0-2 4-4 5-4 17-6 10 8 11 5 2-5 4-6 3-10 7-10 13-11 17-11 2-1 4-2 6-1-13 4-18 9-21 15 8-7 21-8 29-16 9 10 34-9 60-1-14-8-27-6-44-4-11-4-17-9-20-19-2-5-5-8-5-11 3-1 3 1 4 3-1-5 5-6 2-8 15 5 20 8 30 14 3-4-4-23-1-33-4 0-4-14-11-8 0-6 4-16-3-7-3-6-10-5-11-7"/><path fill="#2E2A3C" d="M429 385c-13 13-34 28-43 31-16 3-31 5-45 2-9 0-7-8-8-12-1 9 3 16 5 24-5 2-9 1-13 4s-9 1-12 0c3 1 10 2 10 0 1 5 4 2 7 5 1 7 2 16 3 20-3 5-7 4-9 8-3-5 2-5 6-7-2 0-4 2-6 2-3 2-7 4-2 8 12-1 28 1 39 6 5-4 9-2 12-3-3 1-7-1-10 1-1-6-5-6-9-4 1-3 3-7 5-5 9 4 21 10 37 7-17 2-15-7-46-15-6-3-12-10-15-21-1-3 2-5 3-4 0-6-2-9-3-12 11 1 20-1 28 0 2 4 3 7 2 12 5 3 16-5 19 6 1 3 1 8 3 10 0 6-18 10-16 10 25 6 68 14 67 5 5 0-12-4-10-8-12 1-21 2-31-3-10-14-3-20-10-25 13-22 21-18 42-42"/><path fill="#0D2B52" d="M335 305c-6 0-6 8 2 8-10 1-17 3-24 4-7 4-5 5-12 11 4-7-7-1-9-3-11 4-18 10-22 17 11-1 21-3 27-10 1 2-1 5-2 7 4-9 8 0 8-9 5 6 5 7 6 11 5 1 10 6 21 4-4 1-6-1-8-4-3-6-1-14 1-13 7-10 10-9 18-10 11 1 14 13 23 6 6-11-15-7-9-16 18 9 5 6 15 12 0 12 0 18-5 26 5-6 16-29-4-36l-2-1-1 1v-1h-4c-1-4-10 4-18-3"/><path fill="#DAF3EA" d="M402 305c0 7-5 12-3 19 9 6 11 15 22 10-1 9-6 12-7 16 3-4 5-8 7-13l2-1 1-1c1 3 0 4-1 5 3-1 5-5 7-6 4 2 7 2 8 5 3-3 2-6 3-8 1 4 1 8 0 12 5-2 8-3 8-9-7-9-12-19-21-24-7-8-16-1-23-5"/><path d="M338 421c3 13-2 19 11 35 11 2 23-1 33-4 0-7 1-12-2-16-5-1-10-2-14-2-4-3-2-7-3-10-8-2-17 0-23-4"/><path fill="#112448" d="M160 342c-4 5-8 10-4 18-3 2-4 3-7 2 3 1 5 0 6-1 5 1 6 2 9-1-5 8-3 12-3 16 8 1 15-7 21-5-80 54 36-16 59-22-2-7-6-3-10-3-11 7-20 14-29 21 12-10-8-2 1-12-20 9-16 0-34 9 6-7 18-8 19-14-13 1-24 2-31 11 6-9-6-11 8-20"/><path fill="#464F66" d="M348 248c-1 11 2 21 7 29 6 6 23 16 21 12 6 3 1 6 2 9 11 3 20 6 29 3-4 1-6-1-11-2 2-4 5-4 7-4-2-1-5-2-8-3-4-11-18-23-17-29-8 3-17-3-24-6-6 0-5-5-6-7"/><path fill="#E6F4F1" d="M398 201c-8 1-5 4 1 3 2 4-3 12-5 13 10-2 17 0 25 0 2 0 15 5 17 12 8 9 10 21 8 32 0-8 10-4 12-11 2 2 4 2 3 3-4-14-10-28-23-39-9-7-16-11-25-13-6-1-8 0-11 0"/><path fill="#02173B" d="M318 260c3 3-3 3-1 8-7-7 2 15 5 18 15 15 34 1 47 9-9-6-17-16-21-26 1 1 3 4 0 6-12-5-16-11-27-14"/><path fill="#B7E2D2" d="M400 305c-14 3-15 18-22 27 10 0 4 6 6 13 15 1 15 3 27 4 1 7-3 10-7 13 10-9 13-19 16-23-11 2-13-10-21-13-3-9 3-19 3-22"/><path fill="#3AABD1" d="M98 248c-11 10 17 27 27 36 7 6 37 15 32 3-9-2-40-33-56-36"/><path fill="#2CB0E2" d="M464 210c-23 13-16 15-3 35 9 3 8-2 18 2-8-11 2-26-8-36 0 6-5 0-7-2"/><path fill="#245D93" d="M137 261c3 7 10 12 14 17 3 2 4 4 6 5 8 3 12 6 18 7-17 9-18-3-21 8 2 5 8 9 12 12 7 4 12 7 17 7-4-5-10-5-15-9 0-10 8-5 11-3-3-2-7-3-11-5 14 4 15 3 23 4-2-7-9-9-15-12-3-1-5-3-3-4 21 10 8-3 35 14-9-13-20-21-31-24 9 5-7-1 0 7-5-2-8-4-9-8-7 3 1 9-10 5-7-5-19-14-20-21"/><path fill="#259" d="M344 181c1 1 4 2 3 5-13 14-26 13-35 24 5 10 12-8 21-4 5 9 14 11 17 19 5-6 8-13 15-17-9 1-11-6-17-5-3-3 0-11 1-12-2 0-4 4-7 2 19-12 33-10 1-12"/><path fill="#5F7185" d="M406 219c-6 1-12 1-17 4-11 7-14 17-18 26-13 3-10-5-17-7-1-8-3-15 1-20-5 10-10 22-5 31 10 6 23 12 29 9-1-9 1-19 6-28 7-6 12-11 18-13 15-3 21 1 3-3"/><path fill="#B5D5CE" d="M390 200c-8 1-15 2-21 6-1 4-4 7-5 9 6 3 4 9 6 12 3 3 4 6 8 4 9-9 19-14 30-14-4 0-10 2-14 2 1-4 6-11 3-13-1-1-5 1-5-3 14-5 14-3-2-4"/><path fill="#81B5AA" d="M383 321c-2 3-4 7-6 11-5 14 1 21-1 27 0-1 2-1 2-2 1 3 0 6 1 10 9 1 15-3 18-1 7-3 14-9 14-15-10-4-17-3-27-5-3-5-1-9 0-11-2 3-5 0-7-1 2-5 5-8 6-11"/><path fill="#0E3763" d="M301 355c-10 5-16 14-20 23 2 5 7 3 10 4 32-13 48-18 9-29"/><path fill="#0C1F3E" d="M240 369c3 4 7 5 5 15-4 5-9 9-13 13-6 8-19 2-20-2-2-9 16-16 19-23 3 0 5-1 6 0"/><path fill="#102550" d="M142 324c2 4 3 6 6 8-9 3-15 3-22 4 7-1 13-1 20-2 5-2 5 3 1 1-15 1-23 7-35 4 0 1 0 6-3 6-6 1-10-3-10-8-6-1-8 1-8 2 2 6 5 9 9 10 10 2 19 1 26 2 21-17 83-12 11-24"/><path fill="#0D1F3F" d="M240 370c-2 4-7 1-9 2-9 12-22 17-29 29 3-4 3-4 8-10 3 3 8 13 16 8-1 2-2 3-3 4 12-7 29-25 18-32"/><path fill="#3EAAE7" d="M346 120c-68 13-7 14 25 20-5-4-10-6-13-10 1-7 5-10 11-8-9 0-18-1-27-1"/><path fill="#295D88" d="M347 142c-11 1-23 0-32 4-19 5-35 11-49 23 14-3 30-4 46-3-4-1-9 1-13-1 1-13 16-9 19-17 20-1 69-5 30-6"/><path fill="#90AEB0" d="M367 208c-7 4-13 10-12 17-4 13 1 19 7 22 2 1 4 1 6 1 5-5 6-10 9-15 2-3 5-4 5-6 0 2-3 3-3 4-6 3-6-1-9-1 1-14-12-11-3-21"/><path fill="#133670" d="M327 206c-14 16-10-10-22 23 4-9 7 1 12-4 0-4 3-6 4-8 4 3-1 2 2 4 5-11 4 11 12 1 2 3 1 7 0 9 8-3 9 11 11 8 2-5 3-9 4-13-4-8-12-10-17-17-2-2-3 1-4-2"/><path fill="#3686B5" d="M333 147c-4 1-9 0-12 2-41 30 27 10 42 22-6-4-18-6-30-8-4-3-8-5-2-9 26 7 27 1 50 9-12-8-33-7-47-11 0-1-8-4-2-5 5 0 8-1 12 0-4-1-6 0-9 0"/><path fill="#18376A" d="M155 342c-5 2-14 3-18 7-8 4-15 9-19 17 13 4 24-4 41-2-4-2-7 0-11-1 2-2 4-1 6-2-6-9 6-18 4-20"/><path fill="#39ABD5" d="M326 157c19 10 67 20 88 26-3-3-32-14-47-21-13-3-23-6-33-8"/><path fill="#2578C0" d="M369 183c-4 1-21 4-28 10 3 1 5-3 7-1-2 6-2 7-1 10 9-2 7 5 17 5 2-1 5-1 7-4-4 2-2-3-3-5 17-3 20-11 0-6-2-4-1-7 9-9-3-1-5-1-8-1"/><path fill="#15274C" d="M158 363c-21 16-24 11-48 29 12 2 23-2 33-5 9-7 14-15 16-21"/><path fill="#0C0406" d="M415 239c-8 2-20 3-16 16 2 10 5-5 10 3 3 7-6 2-3 5 9 4 17 3 21-4 4-2 1-5 3-6-4 3-10 1-12-3-4-4-2-7-1-9"/><path fill="#6BEEF6" d="M192 254c-36-1 10 20 15 26 6-1 13 3 19 3-10-12-23-18-35-27"/><path fill="#1E3F6F" d="M165 273c3 5 7 10 13 13 3 3 5 4 7 5-4 1-7-1-11-2 7 3 16 9 18 11 4 11-7 0-10 6-5-2-4-3-11-3-8 8 18 9 12 15 14 5 14-12 24-10-2 0-4-2-5-5 4 1 8 5 9 2-9-7-22-9-32-17-5-6-10-9-12-14"/><path fill="#DCF9FB" d="M381 127c12 6 19 20 32 30-4-4-6-9-8-13 1-5 2-2 3-2 15 7 26 15 36 27 10 11 16 21 23 31 7 14 14 27 17 41 0-15-6-27-12-39-7-12-16-21-24-31-11-13-21-21-33-29-11-7-20-13-31-15"/><path fill="#5C747C" d="M432 277c-7 5-14 6-21 9-9 1-15 1-20-3 5 7 1 9 14 11-4 2-5 2-9 4 6 2 8 3 13 2-3 2-5 2-8 2 6 1 13 1 18 2-2-2-8 2-9-3 24-4 34-11 6-12 6-6 10-7 14-10"/><path fill="#B9DAD1" d="M457 250c-3 7-12 6-13 10 1 7-20 19-9 24 4 0 8-2 12-1 1-6 0-12 1-16 7 0 10 1 14 0 3-3-5-6-3-15"/><path fill="#8BBBAF" d="M418 350c0 7-6 11-17 23 10-1 23 0 33-5 0 1 1 4 0 6 12-23 10-26-9-12-3-5-4-9-7-10"/><path fill="#0F2856" d="M122 285c-13 3 19 21 25 28 7 3 3-5 15-4-21-17-14-11-40-23"/><path fill="#0D3863" d="M306 332c-18 5-10 22 14 12 3 6-1 11 0 14 11 0 20-6 28-12-7-5-19 4-28-1h-5c1-2-11-3-9-13"/><path fill="#102445" d="M282 362c-7 3-15 6-21 12-9 9-15 18-22 25 10-9 22-14 34-20 6-5 12-14 11-18"/><path fill="#04112B" d="M304 303h-3c-1 1-2 2-4 2-6 21-23 24 5 17-2 3 1 5-2 5 4-5 9-10 13-14 21-2-11 3 25 0-6 0-8-2-9-4 4-7 9-5 14-5-15-2-23 0-28 7-7-6 5-9 9-9-11 4-23 9-32 14-2-3 3-5 4-8 5-5 9-7 13-7h-1v1"/><path fill="#454665" d="M477 258c-3 8 0 16-2 23-1 2-3 3-5 2 8 4 20 9 22 9 0-6-2-12-7-17-1-6 1-9 1-13-2-2-5 0-8-5"/><path fill="#0D1026" d="M456 277c-42 39-1 12 29 13-24-15-5 5-33-12"/><path fill="#193674" d="M163 317c-3 0-14 10 2 13 9 0 17 2 22-3-2-8-15-9-21-9"/><path fill="#3DB0C9" d="M189 277c0 4 5 6 8 9 8-1 10 4 17 3 3 5 1 0 0 9 7 0 16 0 19-6-14-8-28-8-42-14"/><path fill="#2C5691" d="M255 311c-29 6 6 2-36 11 23 1 73-5 32-12"/><path fill="#0E1833" d="M340 171c-5 3-21 20-6 5 7 8 50-5 67 9-17-9-37-14-58-15"/><path fill="#155686" d="M336 320c-6 1-11 6-11 11-3 4-1 9 4 10 12 1 13 1 18-6-4 1-10-5-7-10-2 3-6 3-9-1 0-4 2-1 2-4"/><path fill="#627389" d="M487 265c-7 8 12 24 4 28 7 2 6 3 14 6 0-16-10-24-17-34"/><path fill="#0C3E70" d="M368 297c-34 3-29 7-2 11 9 0 15-4 23-5-6-1-12-5-23-6"/><path fill="#192C4C" d="M242 302c-8-2-15 5-21 8-9-7-13 0-20-8 2 3 4 4 7 5-4 1-6 1-9 3 5 3 8 6 14 4 19-5 59-11 31-13"/><path fill="#010619" d="M199 323v1c6 8 21 9 31 11-5 3-10 7-16 10 2-9-19-11-20-19"/><path fill="#2C294A" d="M476 254c-2 3-1 6-2 9-3-2-6-3-6-4 1 3-2 8-3 11-9 0-12 1-13-2 5 10 18 16 22 15-1-12 3-32 7-25"/><path fill="#62DEF1" d="M147 223c2 10 15 19 21 24 4-3 7-8 4-10-8-6-15-11-22-13"/><path fill="#153666" d="M108 279c-8 1 5 16 13 19 9 8 19 11 26 17-12-5-15-20-29-22-3-8 4-2-1-8 12 12 8 6 22 13-26-12-6-13-32-18"/><path fill="#297CB1" d="M139 262c5 7 12 14 19 19 7-1 0 5 7 1-9-6 6 0 0-8 5 3 7 8 13 10-8-7 7-2-5-8-2-1-3-2-6-1l1-2h-1l-1 1c-7-6-16-8-25-11"/><path fill="#5D7F82" d="M374 338c-5 13-4 22-6 31 10-6 4 12 15 7 3-1 8-4 10-7-3-3-9-1-14 0 1-17-7-6-5-30"/><path fill="#0E234F" d="M216 320c-19-1-16 12 8 12 11 3 6-8 18-6-7 0-16 2-22-2l6-6c-3 2-8 1-11 2"/><path fill="#155987" d="M362 315c6 3 6 9 5 16-6 5-11 16-20 20-4 8 6 11-3 15 7-1 19-17 23-31-1 1 0-1-1-2 2-3 3-13-1-16"/><path fill="#0B4168" d="M384 244c-2 4-3 9-2 15 8 7 5 8 8 14 7 7 10 4 13 6 9 2 16 2 22-1 3-2 0-6 2-7-1 3-4 3-6 5-12 0-20 2-25-5-9-8-12-16-13-26"/><path fill="#2A2F44" d="M343 373c-23 14-35-4-58 18 14-1 29-14 40-3 5-6 11-6 15-14"/><path fill="#2CACDF" d="M378 183c-20 6-5 8 7 6-4 8-17 5-16 12 12-1 22-4 35-2-7 1-11-4-17-4 0-2 3-1 4-4-3 0-5-4-9-4 1-2 3-1 5-2-4 0-5-2-9-1"/><path fill="#5F7C7F" d="M436 367c-14 12-37 2-40 9 12 6 19 2 34-1 0 2-3 8 3 6-6 3-1-5 1-13"/><path fill="#3E2B36" d="M405 229c-9 0-24 28-8 8 2 6-1 11 1 16-2-8 3-14 9-18 9-3 16 0 23 2-6-8-14-9-23-8"/><path fill="#2D528F" d="M143 365c-4 2-8 0-10 2-10 9-9 5-19 17 8-3 42-16 33-20"/><path fill="#0E1E3D" d="M238 341c18 9-16 18-22 16 4-5 10-8 15-12l2-1 2 1 1-1"/><path fill="#3BA2D1" d="M331 148c4 8 31 5 42 10-5-4-10-8-16-9-9-2-16-1-22-2"/><path fill="#9E5B33" d="M428 260c-5 8-17 10-24 4 2 4-3 5-6 6 7 5 14 5 20 3 7 0 16-11 10-10"/><path fill="#4DAEC6" d="M212 266c12 7 17 22 33 21-7-12-20-15-30-22"/><path fill="#3276C4" d="M132 324c-12 2-23 4-30 11 24-8 30 8 37-13"/><path fill="#010517" d="M203 321c-21 11 14 10 9 22 8-2 12-6 17-7-10-2-21-4-30-9l-1-3 1-1h2"/><path fill="#114774" d="M347 352c-8 6-16 10-23 22 4-1 12-3 22-10 1-2-3-7 1-13"/><path fill="#8C4B31" d="M395 240c-7 5-6 17-3 24 5 2 4-2 7-3-5-7-1-18-2-21"/><path fill="#2686C7" d="M456 240c3 5 4 12 6 13 13 15 10-12 20 2 1-3 0-5 1-6-4 0-8-1-9-5-3 2-3 4-5 4 0-10-8 5-12-7"/><path fill="#155D8B" d="M389 304c-11 3-23 7-33 2 5 2 10 4 15 8 6 2 27-4 21-11"/><path fill="#4281B9" d="M340 183c-8 8-21 13-27 25 6-6 36-18 31-27"/><path fill="#474B59" d="M445 304c-6 1-12 2-19 1 13 13 20 21 21-2"/><path fill="#88B1A9" d="M434 274c-4 6-9 9-15 11 5 8 7 6 16 4 1 4-3 5-4 7 6-3 10-8 14-12-3-2-10 5-12-1-5-4-2-4-1-6"/><path fill="#20345A" d="M278 319c-7 1-15 7-17 10 7 2 38-9 19-11"/><path fill="#2C3245" d="M410 361c-17 11-18 10-30 21-7-1-23 8-36 8 11 0 23 1 38-8 10-6 19-11 25-19"/><path fill="#123F69" d="M366 321c2 6-2 4-5 6-5 0-6-1-9-4 2 10-2 13 6 20 1-9 11-10 8-19"/><path fill="#1D3E67" d="M356 144c2 3 20 14 22 12 1-9-4-8-7-10-4-3-10 0-14-2"/><path fill="#F8F8F7" d="M424 239c-4 1-5 5-4 9 2 3 4 4 7 3 4-1 5-5 4-7-1-5-4-6-5-6"/><path fill="#0F2141" d="M258 346c-11 3-20 9-29 17 11-3 22-6 29-16"/><path fill="#3893B1" d="M209 282c7 4 19 1 25 8-3 9-12 8-17 9 0 2-3 5-1 7 4 4 9-14 20-6 2-7 1-10-5-12-7-5-14-5-21-6"/><path fill="#37BAC8" d="M421 157c9 7 17 9 16 17-4 2-5-1-6 3-4-7-5-12-8-17"/><path fill="#132A4C" d="M370 143c18 13-2 17 31 29-8-11-17-21-31-28"/><path fill="#2B2C3B" d="M424 299c-16 8 18 6 23 3-6-3-15-3-20-1"/><path fill="#2F364F" d="M355 278c5 7 11 14 19 17 5 1 3-2 5-3-7-8-14 0-23-13"/><path fill="#46D4DD" d="M431 336c-2 3-4 3-5 5-2 5 0 6 2 7 5 2 7-3 9-5-1-4-2-6-4-7"/><path fill="#345D7E" d="M235 287c7 4 2 7 2 12 6-5 15-4 20 0-4-9-12-11-20-11"/><path fill="#233A66" d="M261 320c-8 1-10 4-21 12 9 1 24-10 25-12"/><path fill="#1F86AB" d="M376 313c-1 1-2 0-3 1 2 5 2 10 3 16 3-8 16-18 1-16"/><path fill="#556572" d="M305 410c2 0 5 7 7 9 1 7 1 11-2 14-3-7-3-14-6-20"/><path fill="#49DEEA" d="M198 286c3 6 9 11 15 13 0-4 3-6 2-7-7-2-11-4-16-5"/><path fill="#D6F3F6" d="M175 239c0 4-4 5-4 8 7 5 10 6 16 7-9-7-10-8-7-12"/><path fill="#ADD7C6" d="M453 318c1 8-1 15-4 22-11 3-12 13-20 18 10-10 14 0 19-13-3-3 3-1 0-3 1-5 7-14 5-21"/><path fill="#3A394F" d="M336 445c4 0 7 14 6 15-1 3-15-10-5-13"/><path fill="#01030D" d="M265 324c-8 3-14 9-20 12 8-2 19 1 28-3 28-17 4-2-10 1-4 1-7 0-8-2 3-5 6-5 7-8"/><path fill="#596D84" d="M286 390c5 3 14 8 17 13-7 1-13-4-16-10"/><path fill="#3782B2" d="M150 284c4 2 8 6 6 9 3-6 9 10 18-2-7-4-15-3-22-5"/><path fill="#223B5D" d="M245 296c1 3-2 2-3 3-6 4-11-2-15 2-2 2-3 4-2 6 2-5 11-6 16-6 15-1 31 3 4-5"/><path fill="#2B5C92" d="M106 287c8 11 21 23 38 27-15-8-24-15-35-24"/><path fill="#193365" d="M99 337c1 2 1 7 6 7 3-4 10-9 20-4-9-4-14-1-24-4"/><path fill="#72EEF4" d="M178 266c1 10 11 11 19 12-4-5-13-9-17-11"/><path fill="#302C44" d="M412 457c2-1 5 0 6-1 3 4 10 3 10 8-16-1-1-4-19-5"/><path fill="#1C3A69" d="M355 180c-13 2 37 1 43 5-11-3-24-6-39-5"/><path fill="#1F91B7" d="M345 324c-8 1-4 12 3 9 0-3 3-8-2-9"/><path fill="#2A6DC9" d="M142 315c-14-2-1 6 6 9 2-6 0-6 2-9-2 0-5 0-7 1"/><path fill="#3386BC" d="M318 127c-9 2-17 7-24 11 7-2 43-5 15-3-1-6 5-7 7-8"/><path fill="#181426" d="M322 469c7 7 23 3 33 7-9-3-18-7-30-5"/><path fill="#14396B" d="M315 286c-9 6-23 9-24 17 1 2 3-2 7 0 2-8 7-13 17-15"/><path fill="#3893B5" d="M116 267c8 2 16 9 23 14-7-1-13-7-21-11"/><path fill="#040410" d="M453 274c-3 10-14 20-24 24 8-4 19-11 24-19 13 8 28 10-1-5"/><path fill="#214D9B" d="M152 316c-4 1 0 3-4 7 2 3 6 5 10 5-1 0-3-3-4-3 14-4-5-7 10-9-4 1-6-1-9-1"/><path fill="#5AA6D4" d="M335 183c-5 4-8 2-10 5-2 1-1 7-10 15 6-9 19-15 23-20"/><path fill="#01030D" d="M295 336c-13 12-30 5-41 19 10-13 32-6 41-16"/><path fill="#1E3E66" d="M271 304c-4 4-9 7-15 7 6 1 24 7 10 8 16-16 0-5 3-13"/><path fill="#19121A" d="M411 235c-4 1-9 3-10 8 10-4 28-6 13-9"/><path fill="#2B2C32" d="M234 457c10-1 20 0 29-1-9 2-17 3-27 2"/><path fill="#124778" d="M335 318c-9 12 8 6 13 4-3 0-7-5-13-2"/><path fill="#5C6E79" d="M305 408c1 8 4 16 4 24 6-7 1-16-4-21"/><path fill="#112D5B" d="M122 287c5 1 11 7 18 8-6 3-12-2-18-5"/><path fill="#3D3C52" d="M338 446c-5 3-3 14 1 15 3-3-1-11-1-14"/><path fill="#4F221C" d="M434 248c-4 4-2 11-9 14 5-5 4 1 6 3 2-6 4-9 3-15"/><path fill="#647777" d="M447 306c1 4-3 9-5 14 1 4 4 5 4 6-2-6 3-10 1-19"/><path fill="#175C84" d="M388 237c-6 7-3 13-1 22-5-7 5-18 1-21"/><path fill="#165381" d="M352 333c1 7-14 10-4 12 3 0 6-3 9-5-2 2-8-2-4-5"/><path fill="#1A1622" d="M386 462c0 6 22 5 34 6-9-2-28-2-30-7"/><path fill="#0D1931" d="M392 160c2 10 5 9 16 16l-15-15"/><path fill="#43515C" d="M398 412c-2 5-7 6-9 8l-2 2v1l1 2v2c0 1 3 2 3 4 4-1-3-1-2-5 4-4 9-10 10-12"/><path fill="#77EBF1" d="M458 192c4-1 6 6 7 9-5-1-5-4-7-7"/><path fill="#010511" d="M292 347c1 2 5 2 7 3-22 22 7-7 18 0-7-2-15-1-23-2"/><path fill="#15305B" d="M144 358c16-2-1 6-6 3 2-1 3-3 5-3"/></svg>