<svg xmlns="http://www.w3.org/2000/svg" width="600" height="600"><path fill="#65767C" d="M252 112c7 3 11 2 16 3 9 4 14 12 19 17 15-3 29-6 44-4 10 4 20 6 28 11 3-7 10-11 15-14 9-4 20-7 29-8 10 4 18 26 20 29s1 8 0 12c-6 7-13 9-19 12 12 15 25 25 32 39-3 13 11 35 3 49-1 7 0 12-2 16-16 7-17 33-34 40 20 17 39 31 52 52 3 8 1 16-3 22-7 7-16 6-23 8 11 3 22 9 30 16 4 6 10 8 8 14 1 9 1 18-5 24-5 9-12 16-20 19-34 8-57 2-88 4-12 5-27 1-35 9-22 1-29 3-46 0-7-1-11-4-15-7-15 9-30 5-47 7-11 3-16-10-19-10-8-6-20-22-26-35-6-21-7-29-8-42 2-23 8-46 18-67 11-25 25-45 38-66 1-9-8-9-5-17-3 2-3 4-6 3-1-16 7-26 8-40 7-11 17-20 26-28-3-5-10-6-12-12-2-11 0-17 1-29 6-14 15-21 28-22"/><path fill="#F5F7F7" d="M305 128c31 6-37 0-12 16 4 1 12 6 17 10-1 8-4 17-3 24-2 6-7 5-9 7 4-2 8 0 9-1 3 2 3 6 5 6-6 11-21 8-22 20-3 5-6 23-7 26 1 3 5 2 2-6 3 7 9 11 9 15 0-7 3-4 10-6 6 0 1 5 9 3-1 2-2 5-4 5l2-1 1-1h2l1-2c12-11 16-14 25-23 4 0 15-8 23-6 7 1 10 7 12 10-1 9 2 19 0 27 7-2 17-7 26-3-6-3-15-4-19 0 5-7 13-8 19-5-1-7-1-16-2-24 11-6 22-14 33-11-15-24-5-9-29-37 5 7-40-28-48-32-9-5-17-7-22-9-9-2-15-2-21-2"/><path fill="#0D101D" d="M236 360c0 4-4 6-5 15 7 5 7 12 10 16-4 0-6-1-8-4 1 2 3 4 5 6-20 8-25 11-37 21-8 10-7 11-14 18-5 7 2 36-6 28 16 8 8 14 29 20 21 4 37-6 51-6 2 5 6 4 9 7 17 1 25 5 31-1-12 1-9-13-13-8-8-5-8-11-10-16 1 5-4 2-7 4-9-5-11-10-21-8-3-7-4-11-4-16 1 6 0 12-3 15-4 0-7 0-10-3 0 2 0 4-3 6 0-5-16-8-24-13-3 10-5-3-10 4 2-9 3-11 8-18l-6 9c4-8 4-14 3-21 5-3 8-8 12-10 15-1 36 3 65 10 20-1 19-5 39-5-4-1-5-5-9-3 2-8 7-12 1-15 2 7-2 14-10 15-17 1-30-3-45-5 1-1-11-7-8-10 12-18 1-11 5-21-7-3-1-8-13-8"/><path fill="#262E3A" d="M224 292c-4 3-13 6-13 14-22-19-24 10-32 20 5 12 3 15 15 26 4 0 9-1 11-1-2-6-4-11-6-16 10 2 2-25 12-27-2 19 2 35 7 55 7 9 5 18 21 29-2-5-2-12-8-15 0-7 1-11 3-14-1-2-2 8-5 10-6-9-15-25-8-26 16 0 11 17 26 16-1 6 8 9 1 13 7 0 9-8 14-12-3-3-6-8-14-7 8 0-12-10 2-12-7 1-8-3-17-9-3-4-5-7-6-10 0-4 2-3 3-4 6 6 9 12 12 16l1 2v-2c-8-12-7-17-14-23-4 2 3 1 1 5-2-2-4-2-5-3-3-1 2-6 5-8-3 0-5 6-7 4 8-14 9-7 19-14 5 1 9 2 12 3-2 1-5 2-6 4 2-4 12-2 12-2-4-6-23-13-34-10"/><path fill="#CDD4D4" d="M291 144c-5 9 8 20 4 31-9 12-12 11-22 25-3 15-13 9-14 39 12 17 11 0 25 20 8-7 8-3 19-7-1 4-8 3-12 7 2 1 4-1 7 1 13-2 7-13 17-18-9 6-5-5-14-1 2-5 4-7 6-9-2 2-8 7-7 6-8 2 0 4-5 9-2-6-8-9-8-16-1 3 1 4 1 6-2-3-4 7-6 1 3-13 5-28 10-32 3-7 14-7 20-16-5 0-4-9 1-11-10 11-6 3-13 14-4-5 13-23 8-37-4-6-12-11-18-10"/><path fill="#252C36" d="M356 216c-4 1-7 3-11 5-15 11-28 20-36 35-5 5-7 12-4 16 6 9 15 9 19 11 12-3 18-4 32-11 0-2-7-2-16 0-7-11-13-11-23-14 7-3 16 3 24-1 5-9 10-6 12-12-1 1-6-6 0-7 10 7-4 6 14 5 1-1 4-5 3-5-7 1-11-4-16-1-4 1-4 3-7 2 7-7 15-3 23-4 3-10 2-13-6-19-4-1-5-1-6 0"/><path fill="#5B676E" d="M212 218c-2 4-12 35 0 18 3 5 1 13 8 30 2-4 1-7 2-10 8 10 6 9 21 19 2-4-1-6 0-11 2 7 12-2 14 7 20 13 48 26 74 42 29 11 34-4 58 5 6-1 11-2 17-10-7 5-22-1-25 6-8-3-13-5-21-9-4-5-11 3-16 1-22-10-32-12-52-15-20-20-32-24-42-36-1 1-3 1-3 2-9-21-14-10-20-25-5 10-4 0-7 4-1-14-6-11-8-18h3"/><path fill="#9FABAC" d="M284 186c-10 10-19 12-31 21-23 1-17 4-24 20 3 2 7 3 8 9 3-1 3-3 6-2-2 20 14 10 14 27 6-3 39 23 56 23-3-2-7-4-10-9-2-5-3-12-1-14-12 3-9-9-15-1-6-5-7-6-14-9 0-4 1-7 2-9-1 4-3 7-4 10-6-6-11-7-11-14 1-17 1-10 3-24 2-4 2 0 3 0 3-5 7-16 15-25"/><path fill="#305966" d="M285 427c-2 4-5 7-6 11 0 4 2 4 2 6-3 9 1 17 3 24 7 3 11 0 15-3 1 4-8 6-8 8 12 4 20 9 24 7 9-5 14-12 17-17 5-8 6-14 8-20 0 1-1 2-3 3-14-3-16-7-19-7-10 8-20 5-24 12 1 0 8 0 5 4-5-2-7-5-11-6 0 2-1 4 0 6-4-4-1-12-7-10 4-2 6-4 9-14-1-4-2-4-3-1"/><path fill="#404C54" d="M243 299c-15 9-14 0-20 19 9 3 4 0 5-6 8 10 13 24 21 33-2 3 6 13-2 10 14-2 4 8 16 5-3 4-2 5-3 7 11-10 18-13 26-13-6-4-12 0-18 7-5-3-7-7-9-8-4-6 1-11 7-9-4-1-8 3-9-3 1-5-9-18 0-22 8-4 10-2 13 2-1 2-1 0-3 0 3 7-3 17 5 19 7 4 13 6 23 7-15-19-2-13-36-43 1 0-6 0-9 2 0-2-1-6 4-3-3-2-7-2-9-3"/><path fill="#758186" d="M183 358c-5 5-12 8-13 11 0 0 5-1 6 5-4 4-1 6-5 13 1-2 2-3 4-4-1 3 0 7-2 12 5-1 4 1 12-4-2 6-6 5-9 9 3 2-1 11 0 14 7-1 10-1 10 5 18-5 12-13 30-18-12-11-18-23-22-36 0 3 1 6 2 8-6-6-3-12-10-15"/><path fill="#2B313B" d="M213 404c-7 1-4 12-12 7 2 25-10 29 5 33 6 0 25 5 23 6 4 1 0 0 2-2 7 3 10 3 15 2-2-2 1-8-1-14-1 2-1 4-2 6-6 0-2-3-2-4 2-3 4-8 6-11 6-6 3 2 7-10-4 4-7 8-10 3 1 2 4 3 4 4-4 5-7 12-8 8-12-5-1-12-12-16 3 1 8-6 10-2-1 1 0-3-2-4 28-2 17 8 34 3-25-5-43-9-59-8"/><path fill="#384853" d="M237 409c3 6 4 6 0 9-2-1 0-2 0-3-14 0-1 7 4 7-3 4-5 3-8 4-3 2 10 5 8 15 2 1 3-6 5-8 2 4 2 8 2 11 6 5 2-9 11-7 1 0 6 4 5 12 5 0 8 0 11 1 1-12 2-10 4-19 3 2 6-14 17-16-1 1-13 1-17 4-24-6-16-6-41-10"/><path fill="#0D0C17" d="M264 129c-6 3-12 1-14 7-7 3-4 9-6 12 0 3-4 10 3 13 3 0 4 9 11 7 6 2 11 0 16-2 5-4 5-8 6-11-2-6 2-13-3-18-2-7-13-5-14-8"/><path fill="#A5ACA7" d="M366 353c-5 2-12 1-9 8 7 8 12 10 19 12 8 18-6 12 1 30-5 4-9 3-10 3-2 5 0 8-2 10-2-2-8 1-6-6-2 6-4 3-1 8-4-1-10-4-11 0-1-2-3-2-2-5-6 5-15 1-15 3 7 2-1 3 11 7 6 3 3-2 2-6 3 7 6 13 10 19 7-3 4-9 5-14 4-1-2 6 5 4 1-5 4-10 2-18 3 7 7 6 11 8 3 2 5-1 8-2 2-4-2-6 0-9 4-1 4 1 5 1-3-15-2-22-7-39-2-10-9-13-14-14"/><path fill="#C7D0CD" d="M333 354c-4 2-5 6-8 9 5 7 12 14 9 21 0-3 16-4 22-14 0 18 6 13 10 37 3-3 5-1 8-4-6-19 10-11 0-29-10-4-21-11-21-17-7-4-14-1-18-4"/><path fill="#48494E" d="M306 318c-2 0-3 1-4 2 2 19-2 7 2 29-14-12-9-11-2 1 4 4 0-6 10 5 3-6-4-12-5-16 1-4 2-6 4-8-1 6 13 1 19 3 0-1-2-2-1-5 4 14 11-4 14 10 1-2 3-4 4-5 7 5 14 5 19 15 8-11 11 3 15-1-1-13-9-12-12-16-17-6-33-11-46-13-6-2-9 2-6 4-6 0-8-2-9-5"/><path fill="#5F696F" d="M177 334c-16 29-11 36-18 60 2 3 0-2 8-5-13 18 7-3-4 16 8-2 5 2 11-4-3 7-3 9 2 13 1 4 1 7 0 10 4-1 9-3 12 0 3-2 4-3 6-4-12 3-7-10-19-2-4-7 9-24 2-17 2-4 5-9 7-8-4 3-8 1-10 2 4-15-7-12 5-22-5-6-10-1-12-2 8-7 15-13 19-14 8 5 6 10 8 16-1-3 0-6-1-9 4 8 6 14 11 22 0 4-1-1-4 1 8 1 10 8 16 12 2-2 4 1 4-2-12-16-33-44-43-63"/><path fill="#236176" d="M443 408c0 7 3 12 5 19-6 2-10 4-13 7-4-2-7-1-8-4 3 2 7 5 4 9-6-2-11-3-17-2 0-3-1-6 2-7-2 1-2 4-4 6-1 14 0 26 9 33 9 3 16 0 22-3 8-4 14-14 17-16l1-2 1 1v-2c3-14-2 3-4-12-4 5 0 14 1 12-5 3-7 11-11 13-6 1-9 0-12-1-2-6-2-11 0-13 4-9 14-9 16-9 1-5 0-6-2-6-4-1-8 1-11 4 1-6 5-5 8-7 3 0 3-2 4-2-5-1-8-16-7-18"/><path fill="#12141B" d="M384 421c2 15-11 24-19 33-3 5-14 14-22 15 0 0 14 2 20 1 4-2-1-4-1-5 7-4 9-16 19-20-6 12 8 9 7 19 7 2 11 0 18-2-6 5-7 6-14 8 21-2 41 14 14-23-3 6-7-2-14-5-2-13-5-12-7-18"/><path fill="#626669" d="M313 330c-14 10 1 14 1 21-2 0-1 6 2 6-3-1-3-3 0-4 5-3 7-3 10 1 0 5-10 5-6 8 6-1 9-7 11-12 11 4 25 5 35 1l2-1h2l1 2h1c6 0 13 13 13 14 2-6-7-14-9-20-4-1-5 0-7 5-11-12-18-15-21-16-2 1-3 3-4 4-3-1-2-3-3-4-8 0-9-1-16 0-1-2-10 1-11-3"/><path fill="#7A8489" d="M236 182c-2 5-18 17-19 22 8-3-5 14-4 13 1 5 8 9 5 18 5 2 6 1 9-4 7 15 13 4 20 27 3-11 4 3 7-1-2-10-13-5-11-22-3-1-3 2-5 2 1-9-12-3-5-13-2 1-4 6-5 4 4-12 6-16 10-19 14-2 17-3 24-9-9 4-14 3-30 6 3-4 6-15 9-13 1-5-1-10-2-12"/><path fill="#322F36" d="M294 305c-3 4-12 0-11 9-7-4 16 32 23 36-10-16-1-16-7-23 2-6 3-8 6-10 17-1 56 7 71 19 0-5-4-9-5-13-26-6-60-9-75-16"/><path fill="#7D8689" d="M270 260c-20 10 10 11 19 29 23 4 33 6 53 17 6-1 8-1 13-4 1-5-17-5-27-19-8 5-12-2-17 2-2-3-1-2 1-2-3-2-4-3-6-4 2 1 3 2 6 1-4 4-5 4-5 5-10-5-18-13-26-9-5-6-11-11-12-15"/><path fill="#4B525A" d="M244 265c-2 4 4 8 1 12 5 3 9 8 12 12 5-3 5-2 3-8 10 19 23 9 38 26 10 1 16 6 28 8-26-17-64-43-81-48"/><path fill="#10141D" d="M400 317c-7 3-18 6-28 5 5 11 10 21 14 31 5 12 10 47 5 47 0-1 5 0 7-3 10-1 16-2 24-1-1-6-6-1-10-11 0 1-1 3-3 4-6-3-10-5-11-9-4-8-3-17 0-22-2 2-2-2-4-1 3-6 5-5 9-8-4 2-8 4-11 5v3h-1l-2-3c3-3-1-6-3-16 7-7 11-16 14-20"/><path fill="#F8F9F9" d="M388 250c-5 1-10 3-14 7-35 35 20 5 44 12-3-6-8-11-13-17-6-4-11-2-15-3"/><path fill="#484D54" d="M180 334c10 25 28 44 36 60 6 5 15-1 20-2-13-10-19-26-28-40-5 0-9 1-14 2-4-8-13-8-10-18"/><path fill="#46B5C9" d="m263 368-1 1c2 8 10-1 6 7-3 1-5-2-8-4-24 18 4 18 16 23 8 1 7-3 6-7 3 1 5 4 4 4 5 1 14 6 20 2 0-3 2-15-1-15-15-2-11 12-24 2-8 0-5-4-13-10-1-3 3-3 1-4s-5 3-7 1"/><path fill="#A1ADAD" d="M345 280c-33 3 7 17 16 21 9-1 17 3 25 3 6-2 14-2 16-7-15-4-43-5-57-16"/><path fill="#262A37" d="M280 144c0 4 1 12 0 13h3v2c-4 0-4 4-7 8-7 2-12 4-16 2-15-12-31-8-33-12-1 1 1 2-1 4 2 6 1 10 8 11 6 3 17 6 14 7 8 0 8 0 3 1 3-5 16-1 22-6 3-4 14-3 13-12 3 6 0 9-4 12 3 5 4 4 6 3 9-14-4-16 1-30-2 5-5 6-6 10-1-6-2-9-1-12"/><path fill="#6A6F75" d="M240 180c8 6-26 35 20 20 2-3 14-5 19-13-12-5-20-8-37-7"/><path fill="#13131E" d="M216 262c-8 13-18 28-27 43 1-2 3-4 4-7 7 7 16 1 16 9 1-7 8-12 14-15 38 5 10-3-7-7-2-6 4-8-2-8 1-3 5-4 10-3-2-3-5-1-7-2 0-4 4-7 1-9"/><path fill="#71E5EC" d="M287 358c-1 2-5-1-6 1 0 4-2 6 0 8-5-1-5-3-8-4-6 0-13 8-4 1-1 8 5 12 10 20 14 5 11-5 24-7-1-7-6-14-11-19h-3"/><path fill="#404A52" d="M166 396c-6 1-4 8-7 16 3-2 9-8 11-6-9 2-5 14-9 19 10 3 5 16 16 23 10-1 5-18 20-32-3 3-5 6-8 8-4-2-9 0-11 1 0-11-11-15-6-20-2 3-6-3-8 1 1-5 1-6 1-10"/><path fill="#13111B" d="M228 266c5 10 13 13 8 17 9 7 17 9 24 16 10 11 25 28 36 40-7-7-10-16-17-23 7-1 2-12 10-9-28-14-43-25-58-38"/><path fill="#68EBEF" d="M308 415c-7 1-12 4-16 9 6 0 4 6 6 8-2 1-3 0-4-1-4 5-5 8-8 12 0 3-1 0-2 1 0 2 2-1 2 1 14 2 14-8 31-10-2-8-2-16-7-21"/><path fill="#C9D2D2" d="M371 266c-58 20 14 26 29 29-8-1-16-11-19-15-1-5 5-7 8-8-9 5-19 3-26 2 0-3 1-3 4-6"/><path fill="#0D0D19" d="M398 137c-16 0-23 8-3 1 0 7-2 13-4 17 3 6 10 10 8 14 9-4 19-7 23-14 1-7 2-5-1-7 3 1 0 13-6 8-3-5-7-15-12-18l-3-1h-1v1"/><path fill="#72E6EB" d="M300 352c-6 10 9 21 9 33 4 6 11-4 9 7 4-4 8 0 11-4-1-3-4-5-9-9-5-8-2-9 2-13-6-7-12-13-19-13"/><path fill="#CAD2D2" d="M406 176c17 13 13 20 24 31-6-1-12 4-19 5 5 3 6 8 9 13 3 11 7 17 7 25 1-5 8-9 1-17 4 2 7-1 7-5-4-7 0-8-2-11 2-4 3-5 4-2-5-12-16-25-29-37"/><path fill="#2D2E32" d="M381 436c-12 14-9-6-23 20-4-2-7-2-9-2-3-2-1-5-1-5-12 6-12 13-17 21-15 8 5 0-16 12 5-7 27-7 35-9-8-1-10 1-21-1 19-2 26-9 38-14-1-1 2-5 3-6-2 1-7 11-8 6 6-11 14-13 17-20"/><path fill="#44BBC8" d="M414 349c-14 0-13 24-10 22 9 6 27 11 29 3 3-3-1-5 4-8-8-4-19-3-20-2-7-3-5-8-8-5-3-5 2-7 3-10"/><path fill="#5B4237" d="M322 446c8-4 15 7 7 14-5 6-10 12-17 9-3-5-3-11-1-14 4-5 6-8 10-9"/><path fill="#F4F6F6" d="M356 370c1 9-18 6-18 18l-1 2 1-3c4 3-5 9-2 12 3 5 6 3 7 0 5 3 7 3 4 7 4-6 8-11 9-17 1-8-1-12 0-18"/><path fill="#8AF4F3" d="M438 411c-9 1-17 9-21 17 6 1 12 2 16 5 5-4 8-5 12-6 0-7-2-13-5-17"/><path fill="#272F39" d="M400 317c-2 7-7 13-11 20 0 8 0 11 2 18 3 0 5 1 6 3 5-4 8-7 13-10-9 1-1-6-8-5 2-9-9-9 1-25"/><path fill="#05030B" d="M225 266c-3 2-16 3 0 7-5 2-9 1-9 4 5 1-1 2 1 5 14 5 32 10 47 22-22-16-16-17-26-16-2-10 2-7-4-10 4 1 4-5 8 0-4-5-9 0-16-12"/><path fill="#758891" d="M267 119c6 4-25 2-27 4 0 4-13 15-11 18-1-2 5 0 7-3 7 1-2 6 1 5 4-8 9-8 11-12 13-10 32 1 30-5-1 13 11 6 7 18 6-16-8-7-4-15-11-15-5 8-12-11"/><path fill="#2B3440" d="M404 216c-1 6-4 15 0 21 1-1-3-2-1-3 3 5 9 5 4 8 4 0 8-1 12 2 0-13 5-2-4-22-2-4-1-7-9-5"/><path fill="#546B6F" d="M406 400c-5 1-3 7-7 10 9-1 13-3 22-4-9 2-38 17-14 12-3 3-2 5 1 9 4-2 2-7 11-14 8-6 16-6 24-9-9-7-23 5-35 1-3-2-3-3-3-4"/><path fill="#6CE8EC" d="M416 344c-2 4-11 11-4 15 12 4 12 6 22 5-4-5-6-16-16-19"/><path fill="#CFD6D3" d="M337 388c0 5-9 14-17 19 5 2 10 6 14 9 8-3 14-8 14-14-4-8-8 7-13-1-2-5 2-9 3-13"/><path fill="#04040B" d="M383 444c-10 3-12 16-19 18-1 3 0 4 1 5 5-2 8-2 10-5 5 0 2 2 2 4 4 0 9 3 14 0-9-4 2-8-12-12 2-4 0-6 2-9"/><path fill="#474849" d="M338 422c4 9 5 21 2 30 5 3 3-1 4-3 1 8 11 1 12 5 18-7-5-13 8-13 2 4 8-2 3 7 4-7-1-10 4-16 0 4-4 4-3 8-6 0 0-3-4-1-3 0-5-2-6-3 2 8-9 7-10 5-7 4-6-9-9-17"/><path fill="#596C70" d="M402 321c-3 13 4 17 11 21 6-1 8-5 14-3-8-13-19-10-23-14"/><path fill="#7AEDEF" d="M315 416c3 5 5 11 7 16 4 2 8 1 10 3 3-5 2-10 2-12-6-3-8-8-17-7"/><path fill="#02010A" d="M395 139c-33 4-11 20 3 27-2-5-7-5-7-10 1-5 3-11 1-15"/><path fill="#728B97" d="M387 121c-41 20 2 14 25 10-3-8-24 0-30-1-7-2 0-5 1-5"/><path fill="#243340" d="M256 437c-19 21 30 17 18 20 3-5 5-10 6-13-3 2-4 10-14 6-6-5-1-12-8-12"/><path fill="#3A4F57" d="M429 397c-7 1-15 2-23 1-3 1-5 0-6 1-6 2-5 7-7 9 3 3 1 7 5 5 2-4 3-12 7-13 1 1 1 2 2 4 7 1 36-2 24-6"/><path fill="#161A25" d="M223 342c-4 2 2 9-5 7 2 8 6 14 11 23 2-6 3-10 5-14-2-6-7-9-11-15"/><path fill="#232D35" d="M425 415c-11 9-14 12-16 26-13 0-12-7-16-7-4-7 3-14-4-12-5 7 3 6 2 18 9 3 11 13 17 7 1-9 7-22 15-30"/><path fill="#6C635E" d="M367 410c2 19-15 22-2 33-7 5 10-16 10-6 1-4 5-10 6-14-4 4-5 13-9 3-2-2-2-8-5-13"/><path fill="#26596F" d="M416 377c-1-1 7 1-2 11 5 3 9 4 15 3 6-4 4-9 6-14-2-1-9 9-17-1"/><path fill="#7BEEEF" d="M444 410c3 4 4 9 5 14 5 0 10 4 14 4 0-3 4-5-4-13-5-3-8-5-12-6"/><path fill="#CCD0CB" d="M357 396c2 8-12 7-11 22 3-5 7-2 10-2-3-2 2-2 0-7 5 4 2 6 8 6 1-8-3-19-5-20"/><path fill="#4BBACA" d="M444 354c-6 7 3 11-7 18 5 5 12 0 14 6 6 0 3-7 2-9-1-9-9-9-7-13"/><path fill="#030308" d="M418 276c-7 1-16 0-29 2-3 0-2 2-3 3 1-4 12 1 14 0 4 3 8 3 9 6 5-6 15-3 11-12"/><path fill="#A8B2B2" d="M435 226c2 2 0 4-1 6-2-2-4 1-5-2 9 13-5 17-1 32 6-3 5-9 9-12-2-10 6-12-1-24"/><path fill="#3D6674" d="M263 345c-7 0-7 7 3 14 6-6 13-7 17-11-5-1-10-5-20-2"/><path fill="#0F111C" d="M213 308c-12 2-2 32-14 27 8 16 17 28 24 41-9-25-10-15-14-37 0-29 4 11 0-36"/><path fill="#793D20" d="M450 443c-4 0-8 5-12 4 0 2-1 5 0 8 4 4 8 2 10 1 4-4 11-11 3-14"/><path fill="#6DE7EC" d="M426 341c4 9 10 17 12 27 4-6 1-8 5-14-6-6-9-13-16-13"/><path fill="#151624" d="M288 162c-1 10-11 9-12 12-9 5-19 3-25 4 27-5 12 10 34 5 11-10 9-26 1-1-8-8 3-12 1-17"/><path fill="#2D6174" d="M402 357c-5 3-6 10-6 16 2 8 7 13 12 14 6-3 4-7 4-8-13 3-7-16-11-9-1-6 1-11 1-13"/><path fill="#286C87" d="M436 368c2 9 4 15-3 24 11 0 19-5 19-12-3-4-3-4-13-3-2-3-3-5-2-8"/><path fill="#76361B" d="M322 451c-1 1-5 6-6 2-3 4-7 8-4 11 4 2 7 2 10 0 4-4 11-15 2-14"/><path fill="#19506E" d="M249 387c-3 8 1 10 9 13 35 13-8-11 25 0-8-1-20-9-17-2-4-2-7-2-8-4 5-1 6 2 4-3-2-1-5-1-12-2"/><path fill="#3E4D5F" d="M245 138c-5 1-4 10-12 11-1-6-7 9-5-4-1 6 0 10 1 13 1-2 7 4 13 0-4-7 1-12 1-18"/><path fill="#0A0811" d="M273 136c3 5 8 4 6 10-4 1-3 4-4 6-6-12-10-1-11-11 5-6 9 6 8-2"/><path fill="#030308" d="M339 260c-8 1-4 9 2 10 10-6 12 1 18-5-7 1-13-2-18-5"/><path fill="#88A7B4" d="M393 120c-7 3-7 2-14 8 28 0 31-4 16-9"/><path fill="#8FA2A5" d="M265 321c-6 4-10-3-10 8 3 3 6 5 9 6 2-5 4-9 3-12h1-1"/><path fill="#69868A" d="M371 316c-35-1 7 12 28-1-19 8-12-2-29 1"/><path fill="#13171F" d="M373 231c-5 12-18-1-25 8l-1 2 1-2c7-8 23 1 24-2-5 13-15 27-13 28 5-4 6-7 13-11 1-7 3-12 2-16-1-3-1-4-1-5"/><path fill="#2C323D" d="M419 240c11 15-10 19 3 31 2-3 3-7 4-12-3-1-4-12-5-16"/><path fill="#3DA0B6" d="M462 425c3 3-1 3 3 6-7-1-9-3-12 0 2 1 0 5-1 6 11-11 7 15 11 0 1 6-1 8-2 10 2-2 2-4 3-7 3-5 3-11 0-13"/><path fill="#4AB7C4" d="M322 366c-12 10 9 20 8 12 0 1 0-7-7-10"/><path fill="#506778" d="M366 133c-2 4 0 11 3 13 9-9 17-11 28-13-13-3-26 13-30 1"/><path fill="#161920" d="M353 246c-1 3-4 4-5 6-5 4-7 6-9 7-12-1-12-1-21-2 5 3 11 3 16 5-1-1 1-2 2-1 3-2 7-2 8-1-4-2 1-4 2-6 6 1 19 7 7-6"/><path fill="#35A4B2" d="M339 430c0 5-4 6-2 8-5 0-15-3-14 1 5 3 10 3 13 7 3-5 4-9 3-14"/><path fill="#868178" d="M370 415c2 12 0 13 7 14-1-4 1-6 5-8-4-5-6-2-10-6"/><path fill="#37414A" d="M227 323c3 12 13 15 17 22-4-8-8-17-14-22"/><path fill="#4F6069" d="M262 281c2 6-6 7 3 11l1 1v-1l1-2c7 11 25 13 27 14-13-13-12-3-28-15-1-2-3-3-4-5"/><path fill="#07050E" d="M275 138c-5 9-13-7-9 9 8-1 6 8 11-1 1-3-1-5-2-8"/><path fill="#181A20" d="M403 234c1 11 3 13 7 21 1-4 1-9 4-11-3-1-3 1-6 0 1-5-1-5-4-9"/><path fill="#2D333D" d="M184 442c-1 11-6-2-6 9-11-15 3 9 5 10 2-5-2-11 2-17"/><path fill="#5C636A" d="M434 262c-7 11-8 3-13 12 3-1 2 1 2 4 7 0 10-7 12-13"/><path fill="#476670" d="M258 335c-5 1 2 4 0 8 6-2 12 0 12-5-3 0-6-3-9-3"/><path fill="#5F6464" d="M347 428c-6 10-6-6-4 13 2 0 5-1 7 0-2-2 5-6-3-11"/><path fill="#22566E" d="M288 392c-2 5 3 3 5 3-6 4-11 1-2 4-19 6 4 9 9 6 1-1-10-1-11-3 6-5 12-2 16-5-1-5-1 3-10 0-2-2-4-3-6-4"/><path fill="#030408" d="M372 237c1 14-19 4-17 13 6 8 4-10 9 2 0-5 9-6 8-13"/><path fill="#8AA3AC" d="M253 116c7 7 25 10 23 7-11-10-8-3-20-8"/><path fill="#183C52" d="M306 395c8 7-18 3-15 6 4 1 8 3 13 2 3-2 5-4 4-8"/><path fill="#0F131A" d="M422 280c-2 5-7 7-12 10 0-9-14-9-14-7 11 2 3 6 8 11h3v-2l2 1 1-3c5-2 9-3 11-9"/><path fill="#7B878D" d="M436 250c2 10-11 9-9 19 3-3 4-5 7-7 5 7-6 11 0 12 3-4 1-11 4-22"/><path fill="#799192" d="M403 422c-4 4-4 2-7 5 2 4 4 6 2 8 8-6 11-9 4-12"/><path fill="#9CA8A9" d="M421 287c-2 3-11 4-15 9 3 1 4 3 11 1h2-2c-1-4 5-5 2-8"/><path fill="#839091" d="M402 299c-13 10-26 3-41 3 4 6 10 2 15 5 10-1 16-3 24-6"/><path fill="#414F54" d="M410 415c-6 6-11 6-16 3 0 4-1 8-2 15 11 4-3-4 4-8 6-2 9-5 13-9"/><path fill="#235364" d="M335 388c-24 10-1 5-24 15 9 1 15-3 21-13"/><path fill="#425054" d="M417 415c-4 10-14 16-17 23 2-1 5 2 6 2 1-9 4-15 9-23"/><path fill="#768284" d="M321 352c-4 0-6 1-7 5-1 5 16 1 9-5"/><path fill="#252A36" d="M411 142c-3 4 6 18 6 14 10-5-7-3 4-7-7 1-2-4-11-5"/><path fill="#546776" d="m231 136-2 2c0 6-2 4 0 11 2-7 3 5 9-4-4-4 2-7-11-5"/><path fill="#38444F" d="M255 416c4 7-10 10-5 10-5 0-2-2-5-3 4-1 6-4 8-5"/><path fill="#474C4D" d="M382 418c-1 26-12 12-9 24 5-4 11-12 10-21"/><path fill="#78F0F1" d="M417 431c-3 5 12 7 11 4-2-3-6-5-9-5"/><path fill="#5B6267" d="M259 310c3-2 6 0 7 1-4 4-12 9-8 0"/><path fill="#486A77" d="M281 347c9-1-5 8 7 5h1v1l-2 1c-1 3-4 0-6 3 6 2 9-6 15-3 3-6-4 0-7-3 1-3 3-3 4-1-3-6-7 0-10-4"/><path fill="#495157" d="M400 305c-8 3-17 6-27 4 11 2 29-3 33 0 5-6 1 1-5-4"/><path fill="#39434F" d="M419 234c-3 4 2 1 0 15 2 4-1 7 0 8 1-3 3-4 3-6 4-5 1 9 4 2-3-11-4-14-6-20"/><path fill="#15151A" d="M377 465c-17 9 9 7 12 3-4 2-10-2-15-1"/><path fill="#3F4852" d="M409 135c2 22 11-6 10 12 0-3 0-6-1-9-3-1-5 0-6-1"/><path fill="#3E4F55" d="M404 334c-3 12 6 6 0 15 1-2 5-2 7-3-2 0 2-8-8-9"/><path fill="#20485E" d="M281 454c8-2 3 8 6 11-8-5 0-11-6-7"/><path fill="#808A8D" d="M408 296c-11 6 4 12 6 2-2-2-6 3-7 0"/><path fill="#5F656A" d="M267 128c13 1 17 20 18 16-6-9 8-2-1-7-5-2-5-5-14-10"/><path fill="#6E7F81" d="M402 320c4 6 7 9 14 8-4-2-8-7-12-7"/><path fill="#394954" d="M405 270c-6 2-7 1-13 3 7 4 22-6 16-3"/><path fill="#080913" d="M197 474c5 0 11 3 16 1-5 2-11 3-14 2"/></svg>