<svg xmlns="http://www.w3.org/2000/svg" width="600" height="600"><path fill="#6B7674" d="M335 103c9-1 19-1 27 1 9 2 15 4 20 9 29 34 71 43 99 75 12 15 97 80 41 65-41-20-77-48-115-66-15-5-28-12-43-9 8 5 15 9 23 12 9 8 13 17 16 27 15 46 18 91 34 134-5 13-7 22-15 29-8 9-16 12-27 10-10 10-21 18-32 24-9 3-6-2-6-7-11 15-15 33-31 41-3 3-5 5-6 4-1-7-1-12-2-17-5 8-3 18-4 27 8 9 17 10 26 12 21 1 36-1 53 2 7 3 11 5 13 10-19 1-37 0-54 1-3 5-7 0-4 7-21-3-39-6-59-5 1 2-2 4-1 6-13-7-25-11-33-21 8-7 2-17 4-27-4 2-6 5-9 7-5 1-3-4-4-6-6 0-12 2-17 3-9 3-15 11-22 15-4 2-5-1-6-2-11 13-19 9-29 17-2-8 0-14 0-21-4 2-8 7-12 7 2-11 6-19 7-28-18 4-33 13-49 18-1-6 5-8 6-11-12-3-23-8-31-18-16-19-29-38-37-58 0-7 5-6 6-3-3-11-8-21-9-31-2-15-2-29 0-41 12-9 13-42 30-53-3 25-22 48-16 80 6-1 5 9 8 12 9 2 0-8 10-13 3 12 6 22 12 30 7 11 16 20 25 26 14 9 28 15 43 16 17-3 21-19 30-28-10-4-19-8-27-16 10-8 0-12 1-20 21-3 40 0 57 1 20-17 40-35 61-52 13-9 24-17 37-21 7-1 12-4 17-2 2 11 4 18 5 26 6-2 11-6 17-10 5-5 9-12 10-18-4-13-8-23-14-33-20-9-38-18-55-28-8-7-8-15-9-23-4-1-6 3-7 6-1 10 0 18 1 24-11-2-13-11-15-18-3 1-3 6-6 8-1-17 2-27 4-35 19-15 30-28 41-44 7-3 12-4 17-5l1-2h1l2 1"/><path fill="#E9F5E8" d="M330 257c-8 2-16 5-23 10-14 7-22 14-32 23-5 4-7 5-9 8 2-3 4-4 6-7 3 3-4 7-6 10 8 1 17-4 24-10-3 5-7 8-11 11 3 5 8 4 13 5-7 2-11 1-14-1-11 6-20 12-27 21 10 7 25 9 36 4-5 6-12 6-19 6 3 5 2 12 6 16 11 2 20 0 28-5-3-3-8-2-11-6-4-3-2-6-3-8 1-3 0-4 1-5 1 5 2 9 7 12s7 2 12 1c16-4 18-15 29-25 1-4-1-7-4-6-10 1-15 8-25 6-10 0-6-15-12-10 1-3 3-3 5-4-1 4 2 9 4 10 14 4 20-5 30-6 2-6 2-11 2-16-11-1-20 8-28 1 9 3 18-5 26-5 2-8 1-14 0-19-3-2-5 0-7 1 1-7-6-13 4-12"/><path fill="#312631" d="M379 364c-19 16-39 26-61 33-10 3-7-2-10-5 4-4 9-6 12-8-5 0-10 1-14-1-13 18-17 31-30 47-2 9-7 19-2 19 17-6 29-14 45-24-3 7 4 11 1 24 21-31 41-44 55-86"/><path fill="#0A112E" d="M199 364c-2 3-6 5-6 8 3 4 14-1 12 6-9 8-17 13-26 16-1-4 2-5 2-7l3 1-3-1c-1 2-2 3-3 5-9 11-9 18-13 27 0-1-13 11-15 7 9 5 15 4 20-2 6-6 7-12 10-18 8-5 15-8 21-12 0 7-2 13-3 20 8-2 14-7 21-10 5 1-1 5 2 7 79-37 29-37-24-47"/><path fill="#17273D" d="M58 368c5 16 17 32 22 39 8 1 11 10 16 14 3-1 2-4 5-5-10-12-18-22-25-32 22 19 45 27 70 43-5 3-11 4-17 5-9-1-15-5-20-9-3 4-4 8-3 13 7 5 15 5 23 7-3 5-6 7-10 11 17-4 29-13 48-26-4 4-17 3-18-1 12-3 14-7 17-11-8 0-17 0-25-2 12-1 20-7 28-9 2-3 4-8 6-12 7-2 24-7 29-16-5-3-9-1-12-4 0 11-31 27-25 22-8 8-17 13-27 14-27-5-47-22-67-34 1 5 7 15 11 22 4 6-4 9-4 5-8-10-20-21-20-34"/><path fill="#553934" d="M349 321c1 6 2 12 1 19-16 4-6 25-20 30-21 15-40-3-59 9 5 6 12-5 23 2-1 6-4 9-6 13 3 2 2 5 4 7 2-4 9-10 12-18 6 1 12 0 17 1-4 2-7 5-11 6-4 4 4 5 2 8 20-6 38-14 56-26 23-24 27-19 0-8-1-10-1-16-2-22-5-1-7 7-11 2-3-12 0-20-6-20"/><path fill="#0F132D" d="M416 330c-10 22-29 21-41 39-8 12-13 24-19 36 4-1 2 4 3 6 17-7 33-19 46-34 9-14 14-28 12-44"/><path fill="#CAD4C0" d="M189 329c-7 0-30 0-13 9 4 6-13 4-1 13 4 2 7 1 9 4 5-1 8-5 6-10-5-2-11-1-15-5 7 0 13 2 19 1-4 15 13 5 5 18 11-3 11-4 11-11 1 4 2 7 4 9 0 0-2-1-1-4 8 2 12 4 18 2 5 0 9 5 15 10 2-4-1-7 2-10 1 3 2 5 4 7 1-7 12-4 21-7-3-6-4-12-5-16-6 3-24 1-30 5-7-6-30-5-38-13 5-1 14 0 22 1-10-1-20-3-30-3"/><path fill="#3BB6C5" d="M322 161c-6 14-15 4-16 27 5-3 12 5 16-1 3 4 1 8 3 11 16 6 37 17 40 28 7 7 9 13 7 22 4 1 7-3 8 0 4 11 6 20 2 29 5-15-1-30-3-44 7-3 12-2 16-5-1-3-1-5-2-7-4-3-11-7-15-6-2-4 0-6 1-8-2-5-5-8-9-7-17-10-44-12-40-10 2-1-18-16-9-28"/><path fill="#A9F4F2" d="M333 112c-6 1-12 1-17 2-12 17-34 31-44 43 6 4-5 14-2 23 19-5 21-33 42-44 8-6 18-8 25-4 4-7 4-13 7-18 17 11 34 10 52 24-2-2-4-3-5-5 36 20 7-8-7-11-20 4-15-7-39-7-4-2-7-4-10-4"/><path fill="#204556" d="M66 331c2 7 5 17 8 22 7 9 16 23 29 30-7-1-14-6-19-13l3 6c0 3-2 3-3 4-22-17-35-55-15-5-3-2-5-6-7-7-1 12 11 23 16 34 5 2 7 1 6-4-4-8-11-16-13-24 12 6 27 18 40 23 16 5 29 1 46 2-3 7-10 8-17 9 10-1 19-6 27-12-7-2-45-12-57-14-24-11-36-47-42-49"/><path fill="#E6F9F3" d="M337 104c-2 1-4 0-5 1-7 2-12 3-16 6-9 7-9 7-2 1 11 0 22-3 30 1-2 5-3 12-4 18 5 12 13 22 23 24 13 2 23-1 33-2-7-4-14-1-20-3-17-10-9-31-29-34 23 4 24 4 46 7 2 3 7 6 9 10-3-4-6-7-8-11-10-8-19-15-29-16-10-3-18-2-26-3"/><path fill="#1D4562" d="M343 142c-5 6-19 9-20 21-2 8-2 14 2 18 17 6 33 10 48 18 17 13 27 29 33 45 2 9 2 17-1 23-6 15-15 6-22 16-6 5-7 12-4 17 11-6 15-16 22-23 2-4 2-6 3-8 3-8 12-13 7-21-5-20-11-38-21-55-10-6-3 3-13 0 5 0 7 2 12 1 2 4-1 4-2 5-17-3-36-12-41-15-3-6-6-9-12-11-2-6-2-11 0-13 5-6 10-5 16-5-2-5-6-8-8-11"/><path fill="#29788E" d="M394 223c3 3 3 6-1 6-4 3-8 2-11 3 0 14 6 30 3 44-3-5 0-19-6-27-9 0-3 14-10 17 0 11 11 18 9 22 4-16 23-8 25-18 4-7 4-16 2-23-2-9-6-15-9-22"/><path fill="#F5EA94" d="M410 159c39 27 19 20 50 42 8 1-13-11-15-15 26 15 33 25 54 32 8 4 6 11 9 13-1-6-10-22-6-23-4-4-11-9-16-14-10-6-15-13-25-9-8-8-16-14-17-18 14 8-23-1-27-7"/><path fill="#B15623" d="M374 157c-3 9 86 54 112 74 22 12 39 21 58 25-25-13-48-33-72-50 7 6 23 17 33 26-22-13-40-27-59-39-6-2-12 0-9 4-23-12-42-24-63-34 5-2 8-3 11-4"/><path fill="#49393B" d="M259 387c-12 8-24 17-36 25-6-1-4-4-3-6-7 3-13 6-20 9-3 3 0 7-1 8 16-7 32-13 49-22-20 23-41 42-60 60 4 4 10 3 16-4 20-14 26-31 43-37 5-12 8-22 12-31"/><path fill="#0D0D24" d="M322 426c-30 3-16 28-22 45 2 0 3 5 7 5 14-3 29 11 28-1 7 3 8 6 11 7 14-1 33 7 40-5-19-4-44 4-63-6-5 0-6-4-9-5-2-16-2-28 5-39"/><path fill="#84857B" d="m259 394-1 2c-9 16-12 34-10 54 8 3 19-22 27-36-3-1-5-1-10-2 1-4 1-8 3-11 5 3 7-3 12-3-3 8 6-4 2 5 11-14-13-9-19-11"/><path fill="#BCBAA0" d="M196 340c-6 2-3 14-10 14-6-1-12 0-15-7 0-3 2-5 4-6-2 1-5 3-6 4 8 10 14 12 21 16 8 3 10 1 5-4 4 2 6 2 6 4 21 1 23 7 48 13 7-2-3-6 1-10 4 3 8 5 12 7 6 3 13 5 18 2-1-7-7-11-7-18-12 3-19 2-26 10-4-1-6-5-10-6-10-2-18-2-25-5-4-4 3-11 8-12-14 1-4 16-17 17-8-6 3-9-9-8-1-5-1-7 0-10"/><path fill="#408387" d="M65 291c-3 0-4 1-5 5-10 3-6 40-2 50 6 12 15 30 28 33-9-15-17-29-20-44 2-8 3 5 5-4 1-10-5-1-6-6-1-13 0-24 1-34"/><path fill="#0B122B" d="M76 381c7 11 15 22 24 33-1 3-1 6-2 8-7-8-13-10-20-16 7 9 13 18 21 27 8 6 4-8 8-10 7 3 13 7 20 8 8-1 13-2 19-4-5 5-10 12-17 16 6-4 10-8 15-12l1-2 1-1h2-3c-24-18-45-21-68-45"/><path fill="#665C5A" d="M198 415c-2 9-8 18-11 27-7 1-13-2-17-4-3 10-5 16-8 25 4-2 8-4 12-7 0 9-2 15-3 22 11-9 20-3 29-18-6 10-9 1-13 2 6-7 14-15 22-21-4 0-8 4-10 4 20-36 13-27-4 3-4-4-5-3-7-4 3-10 8-28 11-18-2-2-2-7-1-10"/><path fill="#1B3B53" d="M325 132c-5 2-5 1-7 4 3 4-11 6-25 24-3 4 9 12 7 27-2-18 44-51 30-56"/><path fill="#4E3C3C" d="M415 305c-3 10 8 33 2 50-3 14-12 23-20 33 6 1 12 0 16-4 10-7 16-14 17-22-8-8-2-42-14-54"/><path fill="#CDD7C0" d="M412 262c-7 25-34 44-49 65 17-10 33-12 43-28 5-9 6-22 7-35"/><path fill="#ED9136" d="M380 160c-6 7 42 24 52 36 0-4 8-5 11-6-13-9-26-20-40-27-7-3-12-2-16-4"/><path d="M297 441c-7 5-13 10-23 16-1 4-1 8-1 11 10 7 19 10 30 8-2-2-4-3-7-2 8-9 4-23 3-33"/><path fill="#675450" d="M271 380c-7 3-13 6-12 13 8-3 17-1 26 1-5 16-14 29-22 42 17-8 23-23 30-37l1-2 2-2-1 3-2 1c-2 8-4-3-4-4 14-17-8-16-16-15"/><path fill="#212637" d="M269 455c-12 7-8 8-6 17 11 4 3 16 16 16 0 1 0-4 2-4l3 1h1v2h1c20 1 36-2 51 6 0-3-5-5 0-8 3 3 5 1 8 2-2-1-5-4-6-5 5 0 6 2 8 3-3-1-6-9-13-7-8 3-27-1-39 1-4 2-6 2-7 6 8 1 13 1 19 1-7 2-14 2-20 2-2-3-4-3-4-5-1-3-9-5-11-7-5-7-3-13-4-18"/><path fill="#39777E" d="M84 323c-4 4-3 9-1 12-10-9-2 13-9 5 3 4 5 9 8 14 8 10 16 18 25 23 8 5 13 11 18 6-6-6-19-13-25-24-9-11-13-22-15-34"/><path fill="#FAF7D4" d="M419 144c0 2 2-1 2 1-31-4 4 15 22 21-2 4-14-2-20-3 23 6 42 23 65 29-19-16-42-34-65-45l-1-1-1-1"/><path fill="#AEB198" d="M339 353c-12-4-21 11-31 2-8 5-11 11-12 16 6 4 11 5 17 4 6-3 12-9 18-9h2-3c1-3 9-6 8-13"/><path fill="#2C2331" d="M246 420c-16 10-26 23-44 44 10-3 15-9 20-14 9-2 17-4 23-6 2-9 0-15 2-22"/><path fill="#B0B299" d="M405 300c-8 16-23 17-36 25-5 5-2 10-2 13 11 3 16-8 25-10 7-7 10-16 15-24"/><path fill="#CCDAC5" d="M337 332c-5 9-13 16-24 19-3 1-9-3-4-4-9 8-19 10-30 11 4 7 10 11 15 14 2-7 6-13 12-17 11 8 20-7 30-3 3-7 3-13 3-18"/><path fill="#78584C" d="M406 310c-8 15-15 30-30 42-6 3-8-1-9-4 2 3 1 7 3 10 7 6 15-2 20-8 9-12 27-38 18-41"/><path fill="#122244" d="M344 144c1 3 5 7 8 10-13 1-24 5-16 21 7-4 14-4 20-6 11 1 16 7 27 4-9-4-18-9-28-13l-2-2-1-1 2-1c3-1-8-6-8-10"/><path fill="#0F1732" d="M343 155c-13 7 1 0 7 0 12 7 23 12 34 16-4 2-2 6-8 3-11-1-22-4-32-1-4 5 1 10 6 10 7 0 12 4 18 3 4-1-6-2-7-7 4-5 10-2 14-4 14 2 25 7 36 11-17-13-36-20-53-29-4-1-5-1-6-1-3 0-5 0-8-1"/><path fill="#7D7F77" d="M193 415c-4 1-9 0-11 4-4 8-10 14-11 22 7-6 8 4 14 0 4-10 13-19 10-27"/><path fill="#8D7B6D" d="M413 259c1 14 0 27-4 38-3 11-8 19-12 27 5-22 16-6 17-22 9 9 9 36 18 29-4-11-9-23-15-35-2-13 1-26-2-36"/><path fill="#F0B445" d="M499 207c5 7 6 17 12 25 11 10 21 16 33 21-14-14-28-31-43-45"/><path fill="#121327" d="M274 432c-12 5-16 13-13 27 0 2 5-4 7-4 2 7 0 14 3 19 6 4 13 6 14 12h2l2 1 1-1c6 1 11 1 16 1h-15c-5-3-1-8 1-8-7-2-14-4-20-8-3-14-2-27 1-37"/><path fill="#82837B" d="M232 412c-6 3-11 4-17 6-6 10-11 18-16 26 13-4 32-26 37-33"/><path fill="#1A223A" d="M413 311c-5 16-15 31-26 45 11-1 23-19 31-26-2-4-3-10-5-16"/><path fill="#232F44" d="M347 299c2 8 2 17 4 25 5-2 9-4 14-7-2-11-1-24-14-11-4-2-1-5-4-6"/><path fill="#0E223E" d="m214 379 1-1c8-2 13 3 20 5-9 5-42 18-23-5"/><path fill="#4FBDC2" d="M370 274c0 6-7 9-10 14 4 2 5 9 6 14 7-4 11-11 12-18-4 3-5-6-7-8"/><path fill="#918874" d="M396 329c-10-1-17 13-28 12 0 4 0 8 2 11 12-2 19-15 24-22"/><path fill="#207D97" d="M338 132c-5 9-21 23-26 35-4 10-12 22-11 19 4 0 5-13 11-17 9-2 19-29 30-25-1-4-1-10-4-11"/><path fill="#808079" d="M211 418c-4 1-14 12-15 6-3 5-5 12-7 19 1 3 3-2 6 1 6-8 11-16 16-24"/><path fill="#EAA247" d="M394 154c45 22 71 52 108 77-23-23-55-42-92-71 0-3-4-5-7-6"/><path fill="#A28263" d="M347 290c-13-1-5 30-11 41 11 0 5-16 10-17 2-8-1-15 0-24"/><path fill="#775949" d="M350 315c-10-3-1 10-11 14 0 7 0 14 1 20-1-5 7-5 9-7 1-11-1-19-1-27"/><path fill="#724A39" d="M363 320c-3 2-6 4-8 5-1 6-1 14 1 20 4-3 8-5 11-4-2-6-3-14-4-20"/><path fill="#B7D9CC" d="M297 153c-10 6-7 22-21 22 1 12 4 17 9 22-2-14 3-32 9-42"/><path fill="#0F2541" d="M216 376c-24 22 8 13 17 8-5-2-10-6-17-5"/><path fill="#453433" d="M339 420c-9 8-11 20-17 29 5-5 8-6 15-12 3-7 11-14 4-16"/><path fill="#523E3E" d="M202 396c-7 3-12 6-19 9-2 5-4 8-5 12 6-3 13-7 20-8 0-4 2-8 3-12"/><path fill="#26374D" d="M351 287c-8 5-3 10-1 15 5 2 6-2 10-4 9 6-3 10 6 10-2-5-2-12-5-17-5 0-6-4-8-4"/><path fill="#E1F1E2" d="M335 332c-9 4-18 9-27 15 6 7 12-1 18-2 4-5 9-12 11-14"/><path fill="#31696F" d="M112 397c7 3 15 8 23 9 9 0 17 0 22-5-16-3-29 2-44-4"/><path fill="#C3AC87" d="M337 264c2 7-1 16 1 23-2-1-4 2-7 1 2 1 5 0 7 1 1 7 1 11 1 16-5-19 9-10 5-21-1-8-1-14-6-19"/><path fill="#347F8A" d="M377 292c-2 4-7 7-10 12 0 3-1 7 1 8 4-2 25-19 12-11-2-4-3-6-4-7"/><path fill="#D5E0CB" d="M254 321c-1 2-3 4-4 6 4 6-12 4-7 8 0 7 48 2 2-6 5-4 6-5 7-6"/><path fill="#94A194" d="M281 398c-4 1-8 6-10 4-3 3-5 6-6 9 5 1 7 1 10-1 2-3 10-10 6-10"/><path fill="#E3EEE1" d="M199 330c9 7 31 8 37 11 7-1 13-1 21-1-32 1-29-10-57-9"/><path fill="#6A5850" d="M429 332c-5-3-4 30 3 25 1-7 1-16-2-24"/><path fill="#BDECE3" d="M270 299c-1 2-2 3-4 2-4 5-10 7-13 11 8 2 35-18 17-10"/><path fill="#EEF4ED" d="M412 259c-10 23-29 45-49 62 22-17 40-38 50-61"/><path fill="#68B1B1" d="M73 263c-8 6-8 18-12 26 10-2 6-17 13-24"/><path fill="#423236" d="M169 428c-7 5-15 9-21 15 4-1 11-2 18-5 1-4 2-7 4-9"/><path fill="#144355" d="M363 125c2 4 1 8 3 13 6 2 5-4 13-4 8 2 8 11 14 9-2-5-7-8-12-9-6-1-11-4-15-7"/><path fill="#8ABDB9" d="M267 310c-4 2-7 6-9 6-5 2-7 0-8-2-8 5-14 10-20 15 7-11 17 1 26-12-2 5 9-6 12-7"/><path fill="#9AF7F1" d="M366 270c-5 3-10 8-7 16 4-4 14-10 8-16"/><path fill="#EDF8F5" d="M362 123c7 7 17 9 26 12 6 6 7 11 10 16 0-7-3-12-7-17-10-5-19-6-27-11"/><path fill="#59DBE9" d="M391 134c4 2 5 6 8 9 15 7-8-2 6-4 4 3 8 7 2 7 6 1 9 0 13 0-9-5-14-8-27-12"/><path fill="#258492" d="M367 138c0 4 5 7 7 11 8 1 15-1 20-2 0-7-20 8-25-10"/><path fill="#6EA7A7" d="M257 316c-8 15-20 3-26 16 9 0 17-6 25-12"/><path fill="#172540" d="M353 185c8 4 19 8 29 7-3-8-15-3-25-6"/><path fill="#C3F6F0" d="M333 257c-7 1-5 1-4 8 5 0 8-3 10-1 1-3-1-3 1-5-4-2-5-2-6-2"/><path fill="#F8F6D7" d="M478 207c8 8 17 15 27 21-3-13-18-10-25-20"/><path fill="#D7E2CB" d="M337 317c-3 7-10 10-12 15 5-1 8-3 12-4 0-4 0-7 1-9"/><path fill="#A6DCD7" d="M83 245c-8 10-9 10-15 21 10-5 14-12 15-18"/><path fill="#153B50" d="M168 406c-8 4-15 8-24 8 6 1 13 1 19-1 6-1 2-4 4-5"/><path fill="#CADBC5" d="M356 277c-3 5-13 6-9 11 2-3 7-3 10 0 0-4 1-6 1-9"/><path fill="#295A72" d="M391 208c5 2 10 11 9 16-4-2-7-9-9-13"/><path fill="#21829A" d="M308 188c1 4 11 6 15 9v-8c-4 3-9 1-12-1"/><path fill="#9A8B70" d="M301 350c-7 5-16 6-27 5 1 7 6 11 8 16-4 3-6 5-9 4 4 1 7 0 9-1 2-8-2-11-6-17 10-1 17-2 23-6"/><path fill="#9A9884" d="M337 361c-7 5-15 10-23 13 9 0 16-3 22-12"/><path fill="#665956" d="M196 410c-7 3-12 4-17 9-4 5-6 10-7 16 1-6 6-9 8-14 4-9 16-4 17-10"/><path fill="#1A405E" d="M302 188c11 7 22 12 32 18-6-8-20-11-29-17"/><path fill="#B5D7CE" d="M280 287c-16 13-29 23-43 36 3-3 8-6 12-9 1 2 4 3 6 2 0 0-3-1-3-4 10-9 18-15 25-24"/><path fill="#306289" d="M335 202c2 10 21 12 24 15-7-6-15-9-23-13"/><path fill="#151728" d="M262 468c-2 1-4 2-5 4 5 3 7 9 11 11 6-10-8-3-7-14"/><path fill="#655854" d="M246 403c-10 3-19 11-29 14 9-3 13-7 19-6-6 8-12 16-19 23 9-11 20-21 29-31"/><path fill="#77F2F4" d="M381 207c-9 9 2 6 7 10-1-3-3-6-5-9"/><path fill="#F9F6DB" d="M392 159c20 3 34 19 50 28-15-11-29-24-47-28"/><path fill="#142A43" d="M320 134c-11 5-20 14-26 24 7-14 26-17 22-23"/><path fill="#72E8ED" d="M364 224c2 7 4 12 8 22 3-9-3-15-6-22"/><path fill="#3BBFD3" d="M365 192c7 1 15 8 23 6-8-2-15-4-22-6"/></svg>