<svg xmlns="http://www.w3.org/2000/svg" width="600" height="600"><path fill="#6F5745" d="M365 117c6-1 13 0 19-1 19 2 34 4 48 10 12 8 20 20 25 30 7 14 11 26 13 38 9 0 17-1 24-5 13-5 18-10 27-17 11 6 10 19 9 30-2 8-8 11-11 16 4 1 9 2 13 3 3 2 3 5 2 5-10 6-19 8-27 10-30 7-64 0-92 4-4 13-6 23-8 33 8 16 22 29 30 43 1 13 2 22 4 32-2 5-4 9-6 9-5-5-5-11-8-15-1 7-1 16-7 19-6-10-5-19-12-26-7 9-3 23-12 31-12 17-27 34-43 45-3 7 1 14 1 19 9 10 19 12 28 17 1 10-6 13-5 15-11 3-42 7-53 1-8-11-4-17-15-28 0-4 2-7 4-4 2 8 6 15 10 21-3-7-9-12-11-19 3-5 3 1 4 1 0-1 0-3-1-5 1-1 2-3 4-2l2-1-3 1c-1-1-7 1-6 0-17-1 7 6-25 7 2-3-38 3-54-3 4 12 0-5 9 11 6 5 15 0 21 4-1 11-2 17-9 23-24 1-37 3-72-5-4-13-15-29-19-45 0-2 12 5 10 8-3-8 4-11-1-20-5-6-8-9-11-14-4 17-10 32-13 49-10-1-20-1-29-4 3-16 8-30 11-44-13 12-21 25-29 39-9-6-13-12-20-17 1-5 3-8 5-11-2-7-4-13-8-19-1-3 1-5 1-7-4 2-8 11-13 10-2-9-4-17-2-24 27-18 51-35 78-44-4-9-8-12-6-24 4-8 11-8 16-12-4 0-7 3-12 2-2-3-5-5-2-7 10-15 24-22 38-28-3 0-9-5-6-9 22-5 41-22 68-15 14-16 31-29 44-41 13-15 21-31 30-46 7-7 13-12 20-15 11-5 20-9 31-9"/><path fill="#3A3437" d="M419 235c-5 0-10 1-13 5-8 5-12 11-16 16-14-6 1-5-23-10-5 4-8 9-10 14 0-2 2-2 5-3 6 3 10 6 14 9 7 20 9 44 16 54-7 14-13 24-19 33-3 9-6 1-10 4-7 15-21 24-32 40-9 7-17 11-25 14-10 3-17 3-26 2-7-9-9-18-10-28 9-2 16-3 21-10-5 4-13 4-20 3 0 2-1 4-2 6-11-1-17-6-26-8-8 15-14 32-25 45 25 8 52 12 79 8 14-2 26-6 37-12 11-5 20-10 28-17 13-13 19-20 26-29 18-34 5-76 13-111 7-20 12-10 17-26"/><path fill="#2C1D1E" d="M202 285c12 12 19 27 33 36-7 4-23 8-35 9 9-2 21 1 27 0 3 5-2 3-3 6-8 3-16 0-22 1-7-2-10-5-12-9 7-7 21-12 24-18-22 4-15 6-32 7-9-4-11-5-15-11-32 0-24 6 3 4 4 5 8 8 12 10-13 5-32-2-39-2 5 5 12 7 18 11-3 4-4 8-5 11 14-1 4 14 16 8 0 6 1 8 2 10-1-5 3-2 5-4 9-2 9 6 12 9 6-2 12-4 11-8 5 1 6 3 9 2-1 5-3 8-4 11 2-3 4-6 5-10 8-2 15-1 20-3-6 18-13 36-28 46-9 3-17-1-24-1-5-8 0-14 1-19-1 2-4 1-6 3-2 5 0 15-5 15 6 4 4 12 7 22-1-5-1-11-3-15 1-8 3-5 6-4 9 9 29 14 37 34-1-4-3-10-1-14 6 9-3 19 3 22 10 5 24 10 39 11 3-10-20-3-25-14-3-5-9-6-5-12 18 1 39 5 57 3-22 1-42-3-61-7-9 0-6-9-3-9-7 0-15-3-17-6 9-16 23-34 32-53 4 4 6 1 8 0-2 17-11 36-21 55 8-12 13-25 19-37 9 1 15 6 21 8 10-1 4-10 14-5-8-4-19-6-21-16-1-13 9-20 13-30 3-4 7-2 9-3h-7c-6-9 6-8-1-11 0 5-27 3-28 1-8-2-24-16-39-33"/><path fill="#D4C7A0" d="M311 267c-5 2-9 8-14 10-3 0-3-2-5-2 10 17-6 40-3 53-9 5-10 20-13 27 4 1 10-4 16 4-1-5-11-8-6-14 17 10 26-2 24 8 3-15 9-6 7-14s-7-9-12-11c10-4 18-8 26-12 0 3-4 7-8 9 28 3 22 15 22 11 5-17 11-16 5-30-3 0-6-1-9-2 8-14 23-27 8-31-4 6-9 9-12 8-3-4-3-8-3-12-9 4-13 16-23 18-1-6 0-12-1-19"/><path fill="#B67644" d="M334 167c-3 1-7 0-10 2-24 8-37 37-60 47-6 5-10 3-12 2-6 4-9 6-13 9 10 8 10 2 20 3 15-1 7-19 17-20 0 5 13 3 6 9 1-2 3-2 5-3-2 9-4 17-4 25 4 2 1 4 3 4 9-6 10-16 20-22-1 13 2 32 11 36 7-7 9-18 13-27-3-4-7 1-12-3 1-10-3-17 5-25 5-9 8-11 18-17 33 28-3-11 3-18-3 1-7-1-8-2"/><path fill="#8C5639" d="M413 124c5 3 8 7 10 12-12-10-25 11-37-1 5 4 11 9 14 14 4 9 4 16 3 24-1 9-6 13-10 19-5 7-24 5-21 8-5 3-9-1-12-3l-3-2-1-1-2-2c-2-7-4-14-5-19 1-11 2-23 10-30 7-7 13-7 20-9-10 0-19 2-25 10-7 9-9 17-8 27 1 9 3 15 7 21l2 1 1 1 2 2-1 2c-5-2-9-9-14-11-11 7-14 9-19 16-8 9-4 16-4 24 4 5 8-2 12 2-4 12-7 20-11 29-4-1-9 3-9-1 2 7 2 17 0 24 9-15 14-33 19-50 1-4 3-6 5-9 3 15 2 36 4 45 9-17 11-28 16-46 10-4 12-12 18-19 13-3 22-6 30-12 5 3 7 2 9 5-2-3-5-6-8-9 2-2 2 0 3 0 0-7 4-17 3-27 5-7 7-10 12-15 6 1 6 6 9 8-1-4-3-8-6-11 2-2 5-1 8-5-3-10-3-6-8-2-6-4-8-7-11-10"/><path fill="#776A5A" d="M377 274c-2 5 3 23-3 37-2 11-10 20-13 26-7 4-11 14-18 12 0-3 1-4 2-5-3 5-7 10-11 15-1-3 0-6 1-9-1 2-1 4-2 6-6-2-8-1-11 0-3-4-2-5-1-6-10 13-22 14-32 32-7 1-12 2-16 4-1 6 1 9 0 14 14 0 26-2 35-4 17-20 37-12 51-40 8-16 21-25 24-43 1-17-8-31-6-37"/><path fill="#663F30" d="M434 130c1 2 2 4 1 7-4 1-7 5-8 1 2 5 5 10 7 14-4-1-6-6-9-8-6 6-9 8-11 13-2 12-4 22-6 28-1 0-3 1-4-2 3 4 7 6 9 11-2-1-4 0-7-2-9 5-19 8-30 10-7 8-9 16-17 18-4 9-6 17-9 24 3-6 4-14 7-22 16-7 31-11 47-12 19-7 32-23 50-26 0-16-6-31-11-43-2-4-7-8-8-10"/><path fill="#DBAB64" d="M359 121c-2 1-4 0-5 1-9 2-17 7-29 13-10 0-21 33-36 48-12 14-25 24-36 34 4 4 11-1 16-5 16-12 30-24 40-39 13-4 22-9 33-5 3 0 2 3 3 4-1-10 0-20 6-28 10-10 21-15 33-15 10-14-14-6-23-9"/><path fill="#2A1D1E" d="M143 329c-11 6-22 10-32 17 0 3-1 6 0 7-13 11-26 18-32 31 5 7 7 12 10 17-1-4-6-8-5-12 11-14 24-24 35-34-5 13-10 25-12 36-6 8-16 14-22 18 12-5 34-28 54-33 7 9 10 26 14 31-1 7-2 15-5 21 3-6 4-14 7-20 0-8 3-11 4-18-4-8-9-14-10-22 5 8 10 18 17 26l2 2-2-4c-11-6-20-39-20-37-3-8-4-15-2-26"/><path fill="#3F3231" d="M139 376c-22 8-47 32-55 37 7 2 10 19 18 14 7-14 20-29 34-42-6 18-10 39-14 51 9 2 14 4 22 6 10-32 13-28-5-66"/><path fill="#221A1B" d="M347 412c-15 7-17 11-28 13-4 3-5 5 0 11-10-8 2 13 2 12-2 4 3 5-1 13 2 0 4 3 7 2 13 5 31-2 47 0-12-1-22-6-35-6 0-3 2-4 5-3-1 2 29 2 35 4-19-11-6 1-24-11 7-1 12 3 19 3-7-5-15-8-22-13 1-4 4-2 4 0-9-3-2-14-9-24"/><path fill="#ADABA5" d="M374 138c-6 1-12 4-15 10-5 7-6 13-5 20 1 5 3 9 5 12 8 5 15 5 20 2l-1 3 2-1c4-2 9-5 11-10 5-8 5-15 4-23-4-9-11-13-19-14"/><path fill="#52413B" d="M174 354c2 39-5-5 0 27 12-4 20-12 29-16-6 6-13 11-19 16-16 19 13 25 23 16 12-12 18-26 25-38-7-1-12 0-17 1-6 7-9 14-13 20-1-5 5-15 7-19-7-2-13 3-19 3-2-8-8-3-14-6"/><path fill="#2E1F1F" d="M405 213c-5 1-10 1-15 2-17 1-19 4-32 9-4 13-10 33-14 42 13 1 14-15 23-20 18 2 11 6 22 9 7-7 12-17 23-19 3-2 4-2 6-1 0 3-2 3-4 4 9-6 27 0 4-4-9-2-17-4-24-7-11-5-3-12-6-11 30 8 0-9 30 6-5-5-9-6-12-8"/><path fill="#584E46" d="M367 267c-2 1-4 1-3 4 4 6 9 8 13 9 7 7 4 22 7 31-3 20-16 29-22 45-16 28-36 21-52 40-12 3-24 5-35 6 0 3 1 6 3 10 17 1 28-1 40-7 19-14 35-33 43-46 5-7 9 1 10-4 7-11 13-21 18-31-9-13-1-48-19-58"/><path fill="#AB9E81" d="M357 263c-3 2-5 5-7 8 8 1 2 10 7 6-4 10-8 17-13 25 2 1 4 3 8 2 4 17-1 15 2 32 9 1-1-10 1-14 3 3 4 8 6 11 9-10 14-23 15-38 1-6 0-9 1-12-12-3-15-14-18-19"/><path fill="#3B3131" d="M279 263c5 7 3 18 4 27-3 14-7 25-13 35 2 5 7 3 9 4-2 1-5 1-7 2-6 8-12 15-15 22-2 10 3 18 10 20 5-27 24-51 24-75 2-9 1-15 0-19-2-8-5-12-11-14"/><path fill="#CC7427" d="M511 183c-10 8-17 9-24 12-8 4-27 3-38 1-12 3-21 7-29 12 4 6 19 4 24 10 9 1 15-1 21-2 12-3 21-8 29-14 2-6-4-1-6 0 7-7 16-11 23-17"/><path fill="#CD9A59" d="M214 231c-14-2-14 13-10 21 5 8 8 17 15 23 9 4 18-7 28 0 8 0 15-1 19-5-5 3-11 4-17 5-9-2-15-6-19-12-6-6-4-12-4-18 1-6 5-11 9-14-5-2-13 0-19-1"/><path fill="#CB9958" d="M186 254c-17 3-31 11-44 23 15 0 31 0 47-1 0 10-14 8-20 15 15 1 46-1 20-9 4 0 5-2 7 0-4-10-7-19-9-27"/><path fill="#563D33" d="M272 255c-4 8-11 13-19 14 5 4 5 3 19-5 2 9 3 17-1 24-5 5-9 9-13 11-10 8-23 8-22 14 4 3 9 6 15 6 8 0 15 0 20-3 2-5 2-7 3-10-6-1-11-2-15-5 5-3 14 6 17-1 2-10 3-19 2-28-1-6-3-10-5-15"/><path fill="#D7C49D" d="M201 233c-6 10-12 7-9 20 2-3 5-4 8-6-1 4-2 7-4 8 0 4 0 8 2 10-4 1-3-2-4-4 1 5 3 9 5 13 1-4 6-7 10-9-1 6-7 8-8 11 6 12 14 22 23 28-1-2-2-3-3-4 6-3 12 4 11 3-4-7-10-3-12-4 2-5 4-10 8-11 9 3 15 6 22 9-14-7-28-17-39-29l-1-2-1-1-1-3c-4-3-5-8-6-13-2-5-2-11-1-16"/><path fill="#BE844B" d="M270 267c-6 1 1 6-12 8-16-4-27 1-37 0 13 9 21 12 35 25 11-8 19-20 15-31"/><path fill="#624035" d="M272 241c-11 5 12 23 17 30 2-1-1-2 2-4 5 2 6 6 8 7 1-2 8-5 10-10 4 4 4 10 2 13 3-17-2-16-6-31-7-5-11 7-17 8-8-8-6-4-11-13-2-2-2 0-4 0"/><path fill="#4F3E39" d="M236 360c-8 17-21 33-31 49 4 2 13 6 16 4 8-15 13-28 19-40 1-6 3-10-2-11"/><path fill="#794A34" d="M178 410c0 11 6 20 8 31 7 1 12-1 18 0-6 3-11 5-17 7 6-2 13-4 20-5 1-3 6-8 0-15-6-11-18-11-27-18"/><path fill="#DDC9A0" d="M238 233c-5 2-10 19-3 26-5-2-5-2-2 1 7 5 14 7 23 6 6-1 9-4 11-8 6-6-3-10-4-13 1 2 3 6 1 10-7 1-5 7-17 5-6-4-4-8-5-12 0-5 3-2 3-3 2 2 1 8 7 6 3-2 4-3 3-5-3-7-5 1-8-1 3-3 6-4 7-5-5-3-9-7-15-7"/><path fill="#1A1922" d="M403 279c-1 4-2 8-1 14 2 6 6 10 9 15-2 3-5-5-7-6-2 15 3 12 0 33 4-2 3-4 5-5l1 3 1 1c0 3 6 9 6 14 0-5-4-10-6-14 4-5 4-10 6-14 12 4 7 12 7 19 0-1 2-1 2-3 2 5 5 7 5 10-1-3-3-5-3-7 1-6 4-5 7-6 2 5 3 10 4 14 0-8-5-15-2-22-1 1 0 4-1 6-13-17-29-34-34-50"/><path fill="#5D2518" d="M524 175c-14 17-32 33-51 41-14 4-26 5-38 6-11-1-18-4-24-9 11-10 25-15 39-18-10 0-18 3-26 7-6 4-11 6-15 9l2 3 1 1c4 2 8 5 12 6 4-2 6 2 9 0 27 1 38-1 42 0 16-4 26-11 35-20 8-10 11-20 14-24"/><path fill="#B37748" d="M362 118c7 3 16 1 24 2-2 1-1 6-1 8-9 3-16 4-22 8 22 1 60-1 63-5-11-4-7-5-33-12l-4 2c-9-4-18-2-25-3"/><path fill="#3F312F" d="M122 355c-12 10-25 20-35 33-4 4 3 11 5 17 17-14 18-33 28-48"/><path fill="#AF7446" d="M142 325c-25 9-48 23-70 39-5 1-7 6-3 12 23-20 49-37 75-50"/><path fill="#433F3F" d="M380 147c6-2 12 5 13 9 0 9 3 17-5 20-9 2-13-6-15-11-1-9 0-15 6-17"/><path fill="#804E34" d="M206 446c-37 10-3 20 14 20 3-7-4 3-26-11 24 2 42 9 61 12-14-6-30-5-41-20-4 1-6 1-9 0"/><path fill="#B9A684" d="M230 289c-4 0-8 4-9 8 3-1 9 0 11 5-4-3-13-3-6 3-25-22-10-6 3 5 9-4 18-5 25-10-6-3-11-4-23-12"/><path fill="#BE874F" d="M199 279c-12 6 0 2-9 9 2 2 9 0 10-1 1 9-5 11-11 11 2 1 3 2 5 2-8-3-15 4-24 6 6 3 12 5 16 4 13-7 35 3 15-22-5-1-5-4-3-7"/><path fill="#AB9F81" d="M276 353c0 2-5 12-4 21 19-5 19-5 21-2 4-7 3-11 4-14-2 7-3-3-2 6 0-7-15-10-17-8"/><path fill="#633B2B" d="M177 405c-1 14 4 29 9 41-1 7-5 10-6 14 17 6 36 7 50 10-4 0-31-6-42-11 0-4 3-8 6-11-2-3-8 7-8 0 7-3 12-5 16-7-5-1-10 4-16 2-2-13-11-24-7-35 12 7 23 11 29 21 6 7-1 12 0 13-3 2-8 3-12 4 4 1 8-1 12 1 5-1 5 1 8 0 6 7 12 11 19 13-7-5-4-8-19-12-3 0-3-2-6-1-2-4 2-3 3-4-4-1-1-8-3-13v-1l-1-1-2-2c-7-11-21-10-28-21"/><path fill="#796C5D" d="M146 342c0 7 4 13 7 19 12 19 6 10 19 18-1-5 0-11-1-17-12 1-19-18-24-19"/><path fill="#9A8E75" d="M148 324c-2 5-2 13-1 18 6 6 14 21 25 20-1-2-1-4-1-7-5 0-7-1-10-2-2-3-1-5 0-7l-6-3c1-6 1-10 4-13-3-3-7-3-9-6"/><path fill="#1B1518" d="M381 149c-7 2-5 5-5 15 2 4 0 10 11 10 12-8-8-10 5-16-3-6-6-10-9-9"/><path fill="#2C1B1B" d="M334 228c-7 19-9 34-20 53 5-11 18-21 21-25 1 5 1 11 1 17 1-15 0-30 0-45"/><path fill="#5C2F1D" d="M532 224c-29 7-63 6-93 5 13 3 22 3 37 6 21 0 40-4 57-11"/><path fill="#E7C37A" d="M349 125c4 0 4 6 0 9-14 1-21 13-31 16 1-12 10-7 11-17 5 0 11-5 18-6"/><path fill="#414949" d="M154 474c34 2 66 6 101 4-33 2-67 3-98-2"/><path fill="#232C44" d="M418 321c-2 3-2 8-5 11 6 11 4 20 6 25 6-9 3-20 6-29-1-4-4-5-4-7"/><path fill="#67A7BC" d="M406 252c-16 35 4 79-15 114 9-7 8-16 10-24 2-31-5-62 7-87"/><path fill="#5D3C2F" d="M108 348c-13 9-29 19-37 34 12-9 23-16 37-27 1-2 0-4 1-5"/><path fill="#343539" d="M403 278c4 17 21 38 33 54-4-9-16-28-18-36-2-7-10-4-15-18"/><path fill="#B6A989" d="M331 316c-6 5-38 16-15 9 0 5 7 6 6 11 12 1 19-1 29 0-12-3-16-6-26-8-1-5 4-6 5-11"/><path fill="#41302F" d="M388 217c-2 0 1 6 3 10 9 3 15 4 21 6h4l-1 1-3-1c-3-2-7-2-10-4 19-2 33 3 49 3-16-5-59-9-62-16"/><path fill="#36140F" d="M520 185c-2 19-38 34-27 37 16 0 2-4 22-12-3-5 6-14 5-22"/><path fill="#C89153" d="M152 289c-4 2-8 3-10 6s-2 5 0 7c3 1 8 2 11 0 0-3 17-10 0-14"/><path fill="#9C8F75" d="M324 340c-1 4-2 9-4 13 5 1 7 0 11 2 8-11 12-20-7-15"/><path fill="#B9804A" d="M218 313c-10 3-19 11-26 14 9 0 34 0 29-13"/><path fill="#E8C47C" d="M351 123c-13 3-26 8-35 18 5-4 8-6 12-9l3 2-2 1c-1 9-7 3-11 12 10-3 18-12 29-12 4-4 4-6 3-8-10 1-15 8-19 7 8-7 14-9 21-12"/><path fill="#392F31" d="M146 350c4 18 12 33 25 47 2-2 2-7 1-10-13-11-22-22-25-36"/><path fill="#596964" d="M142 453c13 5-24 5-28 9 8 7 19 7 29 11-13-1-25-2-34-8 8-9 19-9 29-11"/><path fill="#B9814E" d="M145 312c-8 4 21 10 31 8-2-3-4-4-5-7-8-1-16 0-23-1"/><path fill="#A34C23" d="M423 206c-23 5-2 14 9 14 13 1 23-1 32-3-5 2-11 3-18 2-8-5-16-5-25-7-1-3-4-5 1-6"/><path fill="#C1732E" d="M504 222c-19 5-39 7-61 5 17 5 112-3 64-6"/><path fill="#452D28" d="M200 419c12 3 11 18 13 24 0 2-2 1-3 2 6 2 25 7 20 12 6 0 12 3 20 1-5-5-18-4-33-14-1-4 0-6-2-13-6-5-6-12-13-13"/><path fill="#60A1BA" d="M409 230c16 7 35 7 53 6-17-3-34-5-50-7"/><path fill="#442A25" d="M213 299c1 1 5 4 3 7-11 1-17 5-26 5-7 4-14-1-21-3 5 5 11 8 18 7 9-2 15-5 22-7 4 1 5 2 7 4-2-2-4-4 0-6 5 3 9 7 10 10-1 9-10 9-15 12 39-1 11-15 4-27"/><path fill="#241A1A" d="M398 152c4 3-1 14 3 22-1 0-14 22-25 19-11 1-14-1-20-8-5-8-5-15-4-24 0 8-2 18 3 23l1 2 1 1c3 4 7 8 11 9 11 1 18-1 24-6 4-5 6-10 8-14l1-1v-3c1-7 0-13-2-18"/><path fill="#945D3F" d="M270 222c-2 11-18 8-21 11 7 3 12 7 17 11 3-3 1-16 4-20"/><path fill="#392728" d="M198 329c-15 5 25 12 28 3-4-1-15-2-24-1"/><path fill="#3C2C2A" d="m192 340 1 1c5 1 9 4 11 7-2 4-11 0-10 4-9 1-10-6-6-9"/><path fill="#3C2C29" d="M158 333c1-1 3 0 4-1 8 4 9 8 17 8-7 2-25 6-22-4"/><path fill="#4C3A35" d="M246 310c11 0 10 6 18 3 0 3-1 6-5 4-7 3-24 0-15-6"/><path fill="#4F261F" d="M523 181c-6 5 1 13-11 31 10-6 11-14 14-20l1 3v-2c1-5-1-9-2-13"/><path fill="#432823" d="M302 229c-6 8-9 20-19 23 4 5 13-7 21-9-2-4 0-13 0-14"/><path fill="#B9814B" d="M158 289c12 8-10 10-4 13-24 6-4-5-16 0 21 3 49 3 22-12"/><path fill="#433530" d="M441 140c5 6 9 13 11 20 0 10 8 21 2 26 3-1 5 1 7 4 0-13-7-29-10-39-7-1-3-10-8-9"/><path fill="#3B3738" d="M399 167c-1 9-8 18-17 21-6 2-10 2-15 1-5-2-9-4-11-8l-1-1v2c2 4 6 8 10 10 7 2 9 2 13 0 7-3 12-5 16-9 3-6 4-10 5-14"/><path fill="#CF914C" d="M275 212c-1 5-7 17-3 19 4-4 7-9 10-14-2-2-5-3-4-6"/><path fill="#43322F" d="M191 339c-12 14 4 11 12 10-1-4-5-5-10-7"/><path fill="#271819" d="M451 188c-7 5-10 5-28 13 16-9 30-9 40-4 6-4 5-7 3 0-5-3-2-6-7-9h-3v1"/><path fill="#D19F5E" d="M177 241c-10 4 8 8 11 9 1-3 1-5 1-8-4-1-6 0-9 0"/><path fill="#43322E" d="M160 334c-10 9 9 7 16 9-6-1-6-7-11-9h-3"/><path fill="#4B3935" d="M247 310c-15 7 15 11 17 4-9 5-6-5-16-2"/><path fill="#807361" d="M366 269c4-1 14 2 13 8-6 2-10-2-14-5"/><path fill="#4C2D27" d="M283 225c-7 6-10 11-13 18 1-3 4-1 6-5 3 4 4 7 5 9 2-7-1-17 2-20"/><path fill="#232E45" d="M435 334c-2 2-5-1-5 3 1 6 3 10 4 15 4-6 3-9 1-18"/><path fill="#444745" d="M296 479c9-1 18-1 27 0-10 2-20 3-29 2"/><path fill="#E6C178" d="M338 143c10-4 6 11 0 11-5-3-4-6-2-9"/><path fill="#6C6D69" d="M398 166c-2 9-11 18-20 21-11 1-21-6-25-13 4 7 8 11 11 13 5 2 9 2 12 1h3l2-1c8-2 15-11 17-19"/><path fill="#7F553C" d="M255 243c2 1 2 7 0 8-4 3-6 2-9 1 0 1 1 4 3 5 7 1 6 0 8-2 4-5 3-11-1-12"/><path fill="#3F2926" d="M176 401c1 2-2 5 0 8 1-2 0-4 1-6 6 9 14 10 21 13-4-7-13-8-19-14"/><path fill="#281A17" d="M176 424c-4 4 6 13 5 26-3 3-3-5-5-6 1 5 8 10 2 15 2-4 8-7 6-12-3-9-6-20-7-23"/><path fill="#673E2F" d="M351 164c-3 10 1 16 4 28 6 5 10 9 17 8 14-4-14 0-16-13-6-7-6-14-5-22"/><path fill="#532218" d="M465 220c-6 4-20 4-31 3 11 5 60-1 32-2"/><path fill="#161617" d="M332 461c11-2 21 2 32 0-11 3-20 2-29 1"/><path fill="#948670" d="M349 339c-12 12 2 11 8 1-3-1-5-1-8-1"/><path fill="#574D46" d="M319 346c-1 10-11 8-17 15 9 1 17-6 18-15"/><path fill="#1C1212" d="M254 335c10 4-14 6-20 4 6-2 12-1 17-3"/><path fill="#E7C57C" d="M340 144c-3 2-6 5-4 8 5 1 9-7 6-9"/><path fill="#584D45" d="M153 363c3 9 13 16 19 24 1-11-14-12-18-22"/><path fill="#643929" d="M219 459c10 7 21 10 35 8-12-2-23-3-33-8"/><path fill="#EFE1C2" d="M199 249c-1 2-7 1-7 6 2 7 5 11 6 16 1 3 3 4 3 5 0-4 6-5 8-8-4 0-6 3-9 5-4-7-5-12-7-16 4-4 6-5 7-8"/><path fill="#191E23" d="M399 360c-12 14-26 33-45 47 16-10 30-28 44-45"/><path fill="#313238" d="M338 455c12 2 28 7 34 3-7-4-20 0-29-4"/><path fill="#413331" d="M354 264c-7 0-15 7-12 10 5 1 7-4 9-9"/><path fill="#452E27" d="M187 292c-6 1-17 2-21 4 0-1 45-2 24-4"/><path fill="#E5993A" d="M516 179c-7 9-17 16-27 21 10-1 19-10 26-18"/><path fill="#C48E51" d="M191 285c4-1 6 0 8 2-4 4-15 1-10-1"/><path fill="#7B6E5E" d="M354 263c2 0 9 8 20 3-3-2-7-4-12-4h-3"/><path fill="#855637" d="M191 244c-1 8-3 17 2 24 1 5 2 7 3 9 5 11 11 19 17 27-7-8-11-17-16-25-1-11-9-21-6-34"/><path fill="#100909" d="M269 250c9 11 13 23 11 39-3 18-7 33-19 46 11-13 16-28 19-45v-3h1l1-3c-1-12-3-23-11-32"/><path fill="#593528" d="M215 307c-2 7 6 3 8 12 0 2-2 4-3 5l-2 1 2-1c2-1 5-2 6-6-2-4-5-8-8-10"/><path fill="#5D5147" d="M327 263c-3 6-6 12-10 18 5-4 13-12 12-18"/><path fill="#807461" d="M289 351c-3 2 7 6 4 12 1-7 8-2-3-9 7 1 12 0 17 0-4-6-5 1-16-3"/><path fill="#F1E3C5" d="M237 234c-5 1-7 6-8 10 0 7 1 11 3 15-3-7-2-17 2-24"/><path fill="#291613" d="M184 295c-6 0-10 2-15 3 15-1 25 2 20-5"/><path fill="#100B0C" d="M147 361c4 16 13 31 26 42-11-11-20-25-25-40"/><path fill="#9F9179" d="M366 271c3 2 6 6 9 7 3-6-3-7-6-8"/></svg>