<svg xmlns="http://www.w3.org/2000/svg" width="600" height="600"><path fill="#435B68" d="M284 108c4-1 10 0 14-1 14 3 23 10 29 19 12 18 14 37 18 55 14 1 30 3 44 4 19 3 35 7 49 14 16 7 28 13 40 24 6 7 12 14 15 21 7 11 11 21 13 32 1 18 7 36 1 52-4 14-19 18-24 27-12 8-21 14-31 19 9 21 17 41 18 63 3 1 2 0 3-2 2 4 5 7 1 8 7-3 6 5 13 1 4-13-11-11-2-21 11 10 20 31 24 34 9-14 19 3 26-15 6 2-6 8 2 5 8-5 4-6 7-11 7 0 12-2 17-2-6 13-6 28-20 27 9 2 21-4 26 2-7 6-13 4-18 6 2-1 4-1 6-1 3 5-1 2-1 4-18 2-31 4-47 6 30 0 59 1 89 1-168 6-412 5-538 3 3-4 9-3 13-4 9 0-8-4 3-7-10 2-21-2-31 0-3-9 24-15 35-21 5-7 6-14 3-20-4-8-11-13-16-17-9 8-11 16-19 20-6-14 1-31-8-42-34-9-50-23-2-33 10-1 22-2 33 0 11 1 19 5 26 9 6 5 10 12 13 17 5-18 10-36 19-57 11-24 22-44 39-62 18-19 31-32 50-43 21-16 44-19 64-32 9-17 12-33 12-50-3-12-4-22-13-27 1-5 3-2 3-5"/><path fill="#060909" d="M411 390c-7 2-15 3-23 4 0 4-5 9-6 11-5-3-9-2-9-6-14 1-25 0-36 3-6 3-3 12-12 10-3 1-5 2-6 1-2-6 3-7 3-10-6 0-11-1-15-1-4 19-14 34-25 47 3-1 4-4 8-5 2 3-3 8 1 8 11-7-2 1 2-8 13-9 15 2 25-12 3 7-5 9-1 13-9 1-11 7-14 12 9-1 13 6 22-1 6-14 27-23 26-36 6 2 11 2 14 4 10-8 16-15 23-20 4-1 7 1 7 2-8 5-8 15-16 10-1 7-3 12-5 16-6 6-13-3-17 9-2 9 2 15 7 15 8 3 21-1 32-8 11-2 3-14 10-14 6 4 1 9 3 15 6 3 19 4 29 4 37-19-20-39-24-62"/><path fill="#426578" d="M318 191c-19 6-24 12-44 13-10 17-118 59-46 37 6 2 12 3 20 0-1 1 2 5 0 6-1-6 6-9 11-11 10-4 19-5 27-7 20 0 23 1 44 0 0 4-1 5-4 6 23 11 38 9 66 12 4 6 5 10 7 13-5-3-6-4-11-1 5 5 4 14 9 16 3-5 3-9 1-12 5 5 14 7 16 12 1 0 0-3 3-2 5 5 9 7 15 10 8-2 16 2 23 5 9 2 9-5 14-7 9 3 2 7 2 11 3 0 0-4 7-7 8 6 15-3 22-2 0-5-1-10-2-16-11 3-14-4-18-4-7-6-13-12-18-17-3 1-4-3-5-1-1 6 1 7 2 10-7-12-24-9-32-15-9 6-15 1-17 7-3-2-1-2-2-5-37-11-96-15-119-22-10-5-4-9-3-11 12-7 21-14 31-18"/><path fill="#1F2738" d="M274 266c-4 2-7 4-9 8-3-3 2-4 2-6l2-1-2-1c-23 24-42 7-60 26-11 5-2-9-10-6-15 10-29 12-35 21-6 2 1-6-3-3-11 8-18 18-24 27-1-3 1-6 3-10l2-1-2 1c-6 14-9 20-15 36 3-6 6-16 12-12 6-3-4-6 2-11 6-3 4 7 8 3 5-2 10-3 12-6 4 2 1 4 0 6 0-1 3-3 3-4 4 5 7 2 10 4 1 9-5 16-7 24 7-10 17-19 27-23 12-2 18 3 25 6l-6-3c8-10 9-23 14-31 9-1 26-7 40-8v8c7-7 13-14 19-21 31-11 26-23-2-22-2-2-3-2-4-1"/><path fill="#5F6B72" d="M309 323c-30 97 60 52 109 61 20-7 35-14 48-23 3-5-11-4-20-10 10 3 19 4 29 3 3-2 5-2 5-5-11 0-36-4-40-1-9-3-13-6-23-11 4 3 9 6 14 9-15-1-30 5-44 2-3 5-13-1-12 7-23-8-44 2-61-11-2 3-5 4-5 6-3-7 2-10-4-19"/><path fill="#DCE3D2" d="M318 276c-10 0-19 4-27 9-9 7-35 32-15 32-2 4 1 7-2 11 10 0 19 0 27 6 0-4-2-6 0-10 4 4 6 7 8 11 2-6 0-12 3-16 32 11 71 12 104 23-12-9-27-15-41-16-2-6 11-1 1-4-7-3-15-7-20-3 14-9-9-4 14-15-5 2-9 3-12 5-6-6 1-4 4-6-4-1-2 2-9 1-2-3 0-3 2-4-11-4-18-18-28-23-4 0-6-1-7 0"/><path fill="#28374B" d="M285 235c-8 1-20 2-26 10 5 3 8 1 12 0 1 3-1 3-2 4 10 3 22 6 32 6l-2 2h2c1 1 2 2 4 2-15-4-27 6-34-2-13 7-26 11-35 14-31-9-17-7-38-15-16 9-28 17-40 28-15 24-27 47-35 71 6-20 21-39 34-53 5 2 0 5 5 6 6-11 21-13 34-23 11-2 0 12 10 3 20-14 39-1 68-25 25 0 28 14 52 11-4-9-16-13-25-17 6-1 12 2 17 5-10-7-25-9-33-16 13-2 19-3 28-4 11 3 20 6 28 7 1 3-3 6 2 7 42 6 46 4 0-1-3-7 13-9 10-10-32-2-34-10-62-8l-2-3h-1v2"/><path fill="#11172A" d="M251 376c-7 7-14 16-15 26-2 23 11 44 12 67 9 0 16-7 24-13 11-17 30-40 28-48-5 0 3-6 0-11-4-2-9 2-10-3-10 5-9 20-20 17 3-2 6-6 4-13-8 4-7-7-12-5 2-2-1-4-1-9-2 6-5 1-5 1 2-4-6 2-3-7"/><path fill="#131624" d="M319 256c9 8 21 24 29 38 13 7 28 3 41 5 19 18 39 30 61 39 11 6 20 8 30 10 9-4 16-7 20-13-2-6 3-11-2-14-11 6-26 4-37 1-18-6-33-12-46-23-6-2-1 6-7 3-19-13-12-25-24-29 0 9 8 16 13 24-3 5-4 1-7 3-5-2-10-2-13-4-14-6-28-15-38-24 7-8 14-3 19-3 14 13 3 4 21 18 8-4 5-8 4-14-14 7 1-8-12-3 2-2 4-3 6-2l2 1-4-1c-17 2-34-12-55-8"/><path fill="#10172B" d="M133 344c-4 1-2 4-4 5-11 16-13 35-21 52-10-5 3-4-5-12-3-5-6-7-9-2-4 14-10 24-14 35 8 9 5 23 3 30 1-2-30 13-34 12 18 1 28 3 38-8 0-2 9-12 4-11 8-4 18-14 21-26-1-9-7-7-10-14 6-4 15 5 15 7 11-14 19-20 30-28 7-9 4-16 2-23-2-3-5 3-8-1-3-11-2-5-5-15"/><path fill="#1A253A" d="M284 332c-21 10-21 11-42 25 6-4 12-8 17-11 6-2 10-3 9 2-7 10-17 16-24 24-5 11-7 13-8 22 4-5 8-13 14-18 4 2 4 5 3 8 5 0 5 5 9-2 2 8 1 10-5 12 10-8 9 6 16 4 2 2 4 3 2 5 4 2 9-5 15-9 2 3 7 2 7 0 4 11 6 14-1 21 7-5 4-10 7-17 0-12 3-33-4-42 4-5-6-14 5-16-9-11-10-2-19-8"/><path fill="#60919B" d="M340 183c-27 5 8 3 35 7 8 2 15 2 19 8-20 8-48 5-69 15-1-4 16 7 15 12 26 0 23 8 48 4 17 3 18-11 33-9 12-2 17 8 25 9 19 9 16-1 34 1-3 0-5-3-8-5-2 0-1 4-4 4-21-7-32-29-53-32-15-3-24-6-37-8-13-4-30 2-37-6"/><path fill="#1B2339" d="M39 359c-61 13-12 20 1 31 8 9 3 28 6 42 9-9 8-13 15-18 0-5-5-8-8-11 10 3 17 9 21 17-3-3 2-7 2-10 0 3 2 6 1 8 1-11 9-19 8-31-4-4-7-8-10-10 5-4 3-6 7-8 5-1 9 5 10 4-7-8-14-9-21-11-12-2-25-1-35-1"/><path fill="#607078" d="M267 329c-7 7-11 12-17 13-12 2-20 4-31 4-11 13-28 20-42 28-4 4-5 7-3 10-4-3-6-6-13-3 3 1-1 4 2 5 23 9 49-5 70 5-6-14-15-8-20-18 19-14 42-25 54-42"/><path fill="#354D60" d="M302 229c-4 2-9 0-13 1-11 2-20 3-28 6-7 2-11 7-12 12-2-2-1-3-2-6-14 2-30 0-43 7-13 6-21 15-31 21 8-5 15-10 22-14 29 9 5 5 44 13 10 0 25-14 39-11-13-9-32-1-47 0 13-6 25-8 39-6 4-10-14 1-24-1v-1h1l2-2c13 2 13-14 28-12 5-1 10-3 12-2 0 2-2 4-4 7 2-3 5-3 6-7 17-3 100 25 39-1 1-1 1 3-1 3-6-3 1-2 0-4-9-2-23 0-25-2"/><path fill="#0E1111" d="M222 404c-24-3-48-3-12 14-7 4-3 7-5 12 4 7 3-7 8-3-10 8 9 14 4 23 6 1 13 11 23 4 4-13-10-32-5-50-6-1-10-2-13-3"/><path fill="#527C8B" d="M333 213c-43 1-35 18 7 14 18 2 35 9 51 13 36 5-7-7 46-2-1 2 2-1 3 3-5 0-9-2-13-1-9-1-12 3-14 3 5 1 8-4 12-4 5 3 26 6 25 7 11 0 1-12 12-10-16-3-21-9-37-16-15 2-36 17-50 9-22-1-2-2-38-5 8-3-8-5-7-9"/><path fill="#27374E" d="M401 269c1 4 0 7 1 11 25 9 15 19 30 29 16 8 25 11 35 13 12-1 26 4 31-5 1 3 5 5 3 9 6-6 0-12-1-17-4-2-5-4-7-6 2 4-16-1-15 4-2-4-3-8-8-8-3-2-6 3-10 3-8-1-16-4-23-5-13-9-27-13-35-26"/><path fill="#202836" d="M315 243c-44 0-18 9 5 17-7 2-14-4-21-4 8 3 17 6 25 12 4 10 16 13 21 24-12-17-14-27-25-33 18-2 27 4 48 8 11 0 2-1 8-3 5 5 7 9 10 22l2 1-2-1c1-4-2-9-2-13 9 5 10 5 14 22 12 8 19 0 33 15-5-4-8-8-13-11-3-10 14 7 10 0-10-6-16-13-24-17-2 0-3 1-3 3-10-7-6-19-17-22-14-3-27-4-40-5-4-1-6-5-2-6l-27-9"/><path fill="#334D64" d="M399 262c1 3 2 7 1 12-9-3-7-1 0 6v-5c0-3 0-4 1-5 5 8 13 12 20 16 11 10 31 12 39 16 1-1 4-3 7-5 5 0 11 4 9 10 0-6 20-1 15-3 9 1 12 7 13 16-4-11 2-28-5-37-11 10-19-2-28 9 0-3 1-6 3-8-9-6-8 8-17 4-9-2-17-6-23-4-17-12-21-6-33-21"/><path fill="#22486D" d="M332 459c-1 6-14 9-13 13-5 1-9 1-13 1 3 1 7-1 9 1-11 1-20 1-27 3 0-5 5-3 8-4-14 1-18-3-23-5-4 2-11 3-18 4 12 3 6 0 28 4-50 1-91 1-134-1 35 10 84 2 251 6 30-13 114 1 35-14 20 10-47 4-45 6 1 2 4 1 7 0-3 3-5 6-10 4-25 2-39-2-60-1 3-5 12-3 16-9 6-1 14 3 21 4-6-2-13-4-19-6 1-5-12 2-12-3"/><path fill="#171929" d="M259 301c-13 9-29 4-31 11-3 0-2-3-3-3-4 9-8 21-15 30 6 4 13 6 18 4 6-1 7-6 8-10 2 2 0 4 0 6 13-5 20-16 26-26 1-11 3-10-5-10"/><path fill="#E9EEE7" d="M344 190c-13 1-25 4-35 9-9-1-11 18-8 6 2 9 5 6 6 11 26-9 55-15 86-14-15-12-31-13-47-13"/><path fill="#778588" d="M191 339c-1 3-4 2-6 3-11 7-20 16-25 25-3 6 0 8 1 11 5-4 78-26 44-38-6-1-9-1-11 0"/><path fill="#040505" d="M171 405c-15 4-25 11-36 21 1 2 5-1 8 2 7 4 3 12 10 15-1-6-7-14-5-20 6 4 7 8 14 11 18 7 11 2 22 5 5-1-1-5 0-8 3-7 7-2 9-4-8-10-20-11-20-23"/><path fill="#808D8A" d="M332 335c-5 0-14 7-18 2-6 3-8 19-2 7 8 7 22 3 26 5 37 3 59-3 92-3-3-2-7-2-9-6-1 1 1 2 2 4-30-5-59-1-89-11"/><path fill="#29364C" d="M292 109c-21 3 8 13 1 31 5-5 5 5 7 4-3 5 7 12-2 15 9 0 7-4 21-6-6-1-3-18-8-18 9-8-3-14-1-19-5-4-11-6-17-6"/><path fill="#29394D" d="M314 157h-2c-8 3-11 9-16 15 1-2 3-4 5-5-5 5 6 9 7 15-9 4-22 9-29 12 15 2 27-2 41-5h-15c8-3 23-8 27-9 9-6-3-13-10-23-1-1-3-2-4-1"/><path fill="#A4AFA4" d="M313 318c-3 6 1 15-4 20 9 2 21-4 31-5 29 10 55 4 81 12-22-8-75-15-106-28"/><path fill="#18335A" d="M181 454c3 3 6 6 11 8-9 0-15-2-21-5 1 5 7 5 10 9-37-5 12 10 22 10 28 1 52 0 75 2-6-5-13-1-21-4-6-4 5-3 6-4-16 1-16 4-33 1 4-3-6-5-21-13 1 3 5 4 8 7-11 2-22-9-35-9"/><path fill="#4E7788" d="M470 229c-15 18-11 11 10 33 5-1 6 7 17 3-4-11-8-21-15-31-4-2-6-5-8-5"/><path fill="#334B5F" d="M311 116c0 4 3 7 4 13-2 3-4 5-5 7 8-5 3 16 10 15-6 3-12 4-14 8 4-3 10-5 17-4 1 9 13 10 12 18-4 5-5 7-8 9-8 3-15 4-21 6 5 0 11-1 16 0-16 8-35 3-45 15 15 0 27-11 42-13h3v-2l2 1v-1c-3-2-7 0-10-1 4-2 8-2 12-3h2l1-1c0-3 3-5 4-8 6 3 2 6 0 7 1-1 3-1 5-2-11-19-3-48-26-65"/><path fill="#75CCD0" d="M489 433c2 2 3 5 2 8-1 5-6 4-6 8-6 2-6-1-6-2-7-1-6-5-8-8-27 18-26 26 8 7-1 11-8 8-8 10 5 0 7-3 10-4 17 0 16 7 24 11 16 2 27-6 37-6 10-24 10-1 18-23-5-1-11 10-10 4-8 8-16 12-23 21-10-4-14-1-22 3-5-11-5-19-14-28"/><path fill="#EDF0E3" d="M352 298c-1 1 7 0 0 5 6 2 9-3 11-1-2 3-9 2-6 5 7-2 14-4 20-6-3 3-5 9 2 10 34 22 39 15 75 34-25-11-46-28-67-44-12-1-24 1-33-3"/><path fill="#111628" d="M264 345c-16 9-33 19-49 28 12 2 7 5 18 4 3 5 3 9 3 14 0-9 3-8 6-18 7-11 25-18 25-28"/><path fill="#5CB5BC" d="M161 389c0 3 4 6 6 9-16-3-54 44-19 9 7-4 18-5 23-6 5 5 4 10 9 13 4 3 8 3 9 8 4 0-3-4 3-5-1 15 8 15 11 21-3-7-3-13-2-22-19-10-10-10-26-18 19-6 39 0 60-3-21-1-42-3-63 1-4-2-7-4-10-5"/><path fill="#161D30" d="M158 330c-4 9-19 5-16 12-2 6 17 12 14 23 9-5 9-16 14-21 0-8-10-7-11-12"/><path fill="#20293C" d="M294 139c-2 8-2 26-2 31-6 15-7 16-13 22 9 0 18-7 28-10 0-3-3-7-7-10 4-5-4-7 5-14-4 0-5 3-7 4 1-3 2-6 3-6-2-9-1-10-5-15"/><path fill="#69D7D9" d="M427 382c-39 11-80 13-122 14 7 4 11 4 16 4 6 5-8 9 2 13 9-1 6-10 12-13 15 0 29-9 43-1 6-2 7 2 4-6 18-3 33-6 46-12"/><path fill="#0E162B" d="M448 376c-33 8-6 12 6 34 4 11 8 21 12 31-6-24-10-42-19-63"/><path fill="#EFF4F2" d="M345 185c26 1 51 3 74 10 20 5 30 27 47 33 4-3 1-6 1-7 8 4 14 10 19 15-4-7-11-13-19-18-11-9-22-14-33-19-28-10-56-15-87-13"/><path fill="#1B385A" d="M451 474c-89 13-186 3-282 9 92-2 243 4 307-8"/><path fill="#D3DED1" d="M265 206c-17 7-35 14-50 26 19-3 40-13 54-26"/><path fill="#5DB0BA" d="M480 454c8-1 9 13 15 10-1 3-2 4-3 5 2 1 4 0 6 1l1-1h1l2 1-1 1c-4 1-8 3-14 2 33 0 36 1 68-3-4-1-8 2-12-1 7-1 0-2 4-5 7 1 7 1 2 2-21 4-29 2-50 4 0-5 14-5 15-7-6 0-7 1-13 0 4-9-8-2-7-7-3-1-6-1-9-2"/><path fill="#122542" d="M113 419c-2 6-8 16-10 18-2-4-10 10-10 5 4 3-7 13-4 18 10 0-2-5 12-4-4-5-6-5-9-6 7-2 13 0 17-5 4-10 6-18 4-25"/><path fill="#A4D8D1" d="M272 199c-22 9-47 21-69 37-21 17-38 32-50 49 15-17 40-40 50-47 17-11 42-29 65-33 4-2 0-5 5-6"/><path fill="#143358" d="M419 387c4 6 33 30 43 54-2-13-7-23-16-31-9-9-14-21-23-22"/><path fill="#417B94" d="M453 445c-12 11-28 17-31 19-8 0-8 3-15 3 2-4 4-4 6-7-11 2-10 6-9 8-28 2-34 8-49 6 26 2 38-4 67-8h2l-1 1v-2c6 0 13-3 19 1 0-5 3-3-9-3 13-5 21-15 23-16"/><path fill="#F2F3E9" d="M355 313c14 5 23 13 57 23-11-9-24-14-35-20-5-2-9-2-11-4"/><path fill="#808888" d="M262 317c-6 10-13 20-25 25 6 4 11 0 16-2 7-3 30-20 9-11-2-4 0-6-2-9"/><path fill="#24476D" d="M167 450c9 13-9 6-6 14-7-1-15-1-19-6 5 5 9 7 20 8 2 6-21 1-9 4 11-1 19 3 28 1-4-2-10-1-16-2 2-9 11-3 15-3-3-3-9-4-10-10 27 15 15-5 5-3"/><path fill="#67D5D8" d="M183 395c-20 9 26 1 29 7 7-7 20 2 23-5-18 0-33-1-49-2"/><path fill="#DEE7DD" d="M303 201c-4 3-14 6-18 12 8 10 31 0 18 1 3-2-4-7-2-12"/><path fill="#194B73" d="M416 384c12 28 22 23 49 62-15-25-36-51-47-56"/><path fill="#13243E" d="M148 385c-12 4-26 26-34 27 4 3 7-2 9 3 5-14 24-15 25-30"/><path fill="#4B98A8" d="M138 428c-4 2 5 7 1 11 7 4 2 4 12 16-5 3-5-3-7-6 3 4-3 4-4 5-6-1-7-6-10-8 2 2 4 5 6 8l1 2h1l3-1c4 0 18 4 21-3 1 0 5-1 4-2-7 4-12-6-12 3-2-9-10-17-13-26"/><path fill="#437D94" d="M194 434c13 18-5 3 2 14-14-10-19 1 0 1 8-5 28 13 32 12-16-6-19-23-32-21"/><path fill="#112341" d="M426 383c-4 6 31 29 33 45-2-8-3-18-10-24-4-4-18-17-16-18 1-2-1-1-2-2"/><path fill="#71D3D7" d="M317 436c-8 11-20 6-25 21-6 1-5-4-7-5-3 0-4 4-9 4 0-2 1-4 3-5-2 2-3 3-4 5 5 14 18-4 24 0 5-7 16-8 17-20"/><path fill="#437994" d="M346 447c-9 15 2 11 8 18 11 0 18 3 27 5-5-2-10-3-16-5-8-5-3-10-11-12-3 1-1 5-2 7-5-5-4-6-5-10"/><path fill="#406275" d="M351 247c4 1-3 10 33 9-2-1-2-2-2-3-6-6-17-3-25-6"/><path fill="#557D89" d="M426 382c-61 7-73 0-120 6 41-1 79 1 119-6"/><path fill="#55949F" d="M398 387c-33 1-59 2-92 3 33 2 76 0 99-4"/><path fill="#5FB2BD" d="M455 451c-5 3-11 7-10 10 13-5 3 5 7 5 10-4 18-7 27-11-7-2 1 0-8 4 4-4-6-3 3-8-10 0-16 9-26 9 2-2 2-4 5-8"/><path fill="#9FE4E5" d="M406 435c-4 3 1 9-6 12-7 7-16 8-18 10 8-6 16-4 25-6 3 3 2 5-3 6 0 3 6-4 5 2 7 4 12-17 1-8-4-7 0-11-3-15"/><path fill="#9FC4BE" d="M225 233c-8 3-12-1-20 6-8 5-15 10-18 19 12-10 24-19 38-25"/><path fill="#3C647B" d="M155 373c-5 10-7 21-11 32-7 7-13 13-17 18 5-4 11-11 16-16 5-7 9-9 13-11-5-7-5-16 0-22"/><path fill="#254C72" d="M300 465c-22 9 13 9 21 1-7-3-14 2-21-2"/><path fill="#AAB3A9" d="M270 307c-5 7-10 13-8 21 3-1 5-2 8-3 6-1 0 2 0 3 2 4 1 0 6 2 1-11 1-9-11-20"/><path fill="#829DA0" d="M530 356c9 3-2 15-6 18-5-7 3-12 4-17"/><path fill="#5E9C9B" d="M333 425c4-3 10 2 8 7-3 3-5 7-7 8-4-5-3-7-4-11l2-1v-1"/><path fill="#4D95A4" d="M202 417c-1 12-2 9 3 20-3 4-10-13-15-2 1 5 2 6 1 13 9-2-1-1 3-6 4 0 3 2 4 3 3-2-3-5-2-7 7 9 8-3 12 6-6-7-4-15-6-25"/><path fill="#437895" d="M299 457c-7 6-19 10-25 3-1 3-5 0-6 2 2 2 5 1 7 2-8 3-12 1-16 4 9-3 36 2 42-8"/><path fill="#1E2536" d="M359 287c11 7 23 11 36 12-2-3-1-6-2-9-8 1-23 4-31-2"/><path fill="#151A2E" d="M82 367c0 4-3 7-6 9 4 4 6 6 9 8 1-3 3-6 4-9 0-5-4-5-5-6"/><path fill="#6A9393" d="M505 374c4-3 10 2 8 6-4 6-7 9-10 8-1-9 3-1 1-12"/><path fill="#6DCFD3" d="M394 453c-7 4-14 6-22 7 10 2 4 7 13 3 5-2 21-12 11-9"/><path fill="#346182" d="M474 464c-9 13-17-5-25 8 22-2 22 4 23 5 25 2 26-2 4 0 0-5 5-5 7-6h-11c1-1 1-3 3-5"/><path fill="#ECF5F2" d="M253 206c-16 6-30 13-43 23-17 11-30 23-41 37 10-12 22-23 35-31 16-13 32-22 49-29"/><path fill="#3E7B96" d="M359 425c-17 16-25 34-32 35 0 1 10-5 13-7 11-12 9-12 19-30"/><path fill="#9DDCDF" d="M554 437c3-2 6 0 1 8-2-3-1-9-13 14 5-1 6 1 8-1 3-13 16-26 8-22"/><path fill="#59B2B9" d="M366 391c-20 2-42 1-61 2 20 3 84-3 67-3"/><path fill="#376282" d="M86 466c11 2 27 6 14 8 21-6 38 2 52-4-19 0-39 2-65-6"/><path fill="#15315B" d="M347 466c-36 14-4 7 20 6-12-1-18-5-26-4"/><path fill="#244970" d="M181 451c40 9-1 7 38 16-26-16 10 0-15-14-4 3-10-3-18-2"/><path fill="#5DB5BA" d="M385 411c-10 8-22 14-29 20-1 7-4 12-2 19-1-4 2-11 5-17 23-26 5 6 26-23"/><path fill="#5091A6" d="M483 454c-19 5-15 14-3 5 3 2 0 2 4 3-1 5-4 4-6 5h-1v2c14-12 9 5 12-2-1-5-1-13-9-10"/><path fill="#1D3045" d="M273 345c5 7 18 2 25 7-4-3-9 1-13-1-1 6-3 9-3 12 0-8-1-11-7-15"/><path fill="#163554" d="M146 394c-10 11-19 11-20 22 5-9 17-10 19-20"/><path fill="#7F9B9D" d="M220 443c6-3 10 6 13 9-5 0-14 1-14-7"/><path fill="#457E96" d="M480 460c-7 2-3 9-7 10 4 1 7 0 11 0 6-6-7-4-2-11"/><path fill="#98E0E2" d="M131 428c-2 4 0 5-5 6 4 10 5 8 11 8-3 7-5 0-1 8 4 1 3-4 2-5 3-9-13-14-5-17"/><path fill="#112137" d="M456 339c9-1 18 3 28 1-8 4-19 4-25 0"/><path fill="#326083" d="M347 441c-1 11-11 14-14 20 8 1 12 2 19 6-3-9-5-4-10-6-1-9 4-12 5-17"/><path fill="#2A3A4C" d="M346 269c5 4 7 14 15 17 3 1 3 3 4 2 8 3 15 2 20 3-7-3-10 0-18-1-7-7-9-14-17-17 1-3 2-3 3-3-2 0-2-2-5-1"/><path fill="#335F81" d="M181 448c-19 2-16 0 19 11 2-1 2 1 3 3 2-2-2-5-5-10-1 1-2-2-4-2 3 2 7 5 6 8-22-5-8-10-23-12"/><path fill="#61B7BF" d="M159 432c-16 8 8 0-5 11 9 3 8 7 8 7 3-7-2-13-3-16"/><path fill="#437591" d="M145 472c-18 1 26 3 32 2-9-2-20-3-28-2"/><path fill="#638182" d="M497 412c3 1 0 14-2 17-1-4-5-5-5-8 4-5 5-3 6-7"/><path fill="#246089" d="M427 403c8 16 19 23 33 37-15-14-22-28-32-35"/><path fill="#6AC8CB" d="M375 420c-5 3-6 4-10 8-1 4 3 3 3 7 16-15-6-4 7-14"/><path fill="#EBEDE0" d="M298 312c0-1 3 1 5 1 0 3 0 7-4 8-5-4-16-8-2-6"/><path d="M86 472c-6 3-12-3-6 6 9-4 19 0 27-2-7-1-14 0-20-3"/><path fill="#6E8B8D" d="M506 398c8 2-9 13-6 11-5-3 0-10 3-10"/><path fill="#183354" d="M114 425c3 11-8 23-11 28 5 2 11 4 14 1-5 5-8-3-11 2 2-10 11-19 12-28"/><path fill="#254A6C" d="M116 440c-25 22 18 13 11 14-1-1-10 1-12-7-4-2-1-3-1-6"/><path fill="#828A87" d="M416 335c6 1 29 18 27 10-7-3-17-9-26-9"/><path fill="#55AEB8" d="M402 454c-9 4-8 9-21 11 5 1 40-7 23-4-3-3-5-5 1-6"/><path fill="#346483" d="M122 433c-8 7-2 1 0 8-8 2-6-1-9 6 12 9 6-2 15 5-4-12-5-3-7-17"/><path fill="#386685" d="M429 460c-1 3-19 5-7 4-4 4-8 5-12 5 20 1 53-5 9-3 3-4 7-4 9-6"/><path fill="#1D2433" d="M347 267c-14 6 3 13 8 16-2-5-11-11-8-16"/><path fill="#316280" d="M121 457c5 4 13 14 26 8-9 0-19-7-25-7"/><path fill="#5599A3" d="M157 370c0 5-4 9-3 12 11 8 0 15 11 16l-3 3 3-1c0-6-11-18-6-27"/><path fill="#67D6DE" d="M167 403c-8 0-14 4-21 7-7 5-11 10-16 14 16-12 18-14 39-22"/><path fill="#407C93" d="M122 416c-2 4-3 11-5 24 0 7 0-9 3-6 4 6 2 12 6 8-5-10-2-13-3-26"/><path fill="#183558" d="M101 455c-10 10-23 7 8 11h18c-6 3-13-3-17 1-2-3-14-5-11-11"/><path fill="#B0A6A2" d="M371 311c16 5 43 25 58 26-18-6-37-17-56-27"/><path fill="#9ADBDC" d="M507 375c-4 3 1 12-5 11 4 3 16-8 7-10"/><path fill="#DEE5D7" d="M418 331c8 6 21 10 31 13-10-4-18-10-29-13"/><path fill="#334D61" d="M355 255c13 2 29 1 38 13-3-2-3-5-5-8-11-5-21-4-31-5"/><path fill="#5BACB9" d="M137 440c4 2 0 7 5 10-11 2-12-3-14-8-4 4 1 7 3 10-1-7 6 4 10 1 2-6-3-13 0-13"/><path fill="#9FE2E3" d="M289 445c-4 5-12 8-17 13 7-4 10-5 13-7 2 1 2 5 4 5 10-12 6-13 4-2-6-3-6-6-3-8"/><path fill="#81C6C6" d="m190 249-35 35c10-14 27-19 35-33"/><path fill="#576E7D" d="M92 374c-1 4-4 7-3 12 3 0 5-2 6-4 0-3-1-4-2-5"/><path fill="#507B89" d="M158 380c2 3 2 7 7 11 3 1 4 2 5 3 11-5 28 0 32-5-10 1-26 4-35 2-3 0-7-6-7-10"/><path fill="#9CE1E2" d="M541 442c-10 18-26 5-21 14 0 1 2 2 5 1 9-3 7-10 16-11"/><path fill="#4F7684" d="M285 204c6 2-10 6-12 9 1-4 3-10 10-7"/><path fill="#4B9BAB" d="M423 454c-8 2-9 7-13 10 6 0 30-9 6-6"/><path fill="#1C4D6D" d="M145 402c-8 4-17 16-20 19 6-5 15-11 19-18"/><path fill="#3C6163" d="M584 462c12-2 2 10-5 4 1-2 2-3 3-4"/><path fill="#3E7F94" d="M475 475c16 0 22 5 38 0-12 1-23-2-34 0"/><path fill="#427996" d="M464 463c-12 2 4 9 8 1-1 0-3-3-6-1"/><path fill="#668A8A" d="M323 448c3-2 5 1 7-1 0 8-11 12-7 3"/><path fill="#17385A" d="M170 478c-85 1 32 2 47 1-14 0-33 1-50-1"/><path fill="#284B6A" d="M442 479c-55 6 2 2 19 2-10 1-30-2-19-3"/><path fill="#2D4258" d="M458 317c5 0 12 3 18 3-6 2-11 1-16-1"/><path fill="#527786" d="M209 388c-1 5 18 2 24 4-7-1-14-4-20-3"/><path fill="#AADCE0" d="M528 358c-2 4-4 10-7 12 4-3 11-9 10-9"/><path fill="#445F75" d="M88 383c-2 9-2 19-7 26 6-6 7-14 10-22-1 2-5 0-3-3"/><path fill="#4C97A7" d="M349 441c3 10-5 13 4 21-3-2-1-5-2-7 6-6 6 7 6-2-5 0-5-9-6-10"/><path fill="#365061" d="M352 271c0-1 11 18 21 19-17 0-6-17-16-18"/><path fill="#18375F" d="M429 469c-10 4-19 3-29 3 9 2 58-2 31-3"/><path fill="#366383" d="M209 446c5 5 1 9-1 8 5 2 9 8 12 7-8-4-2-11-10-12"/><path fill="#5F7876" d="M527 388c1 6 5 1 4 10-3-2-9-3-6-7"/><path fill="#EFF0E4" d="M300 313c-8 6-13-1-1 8 3-1 2-5 2-7h1-1"/><path fill="#21446B" d="M247 467c-26 2-11 4 0 9-3-3-1-7-1-9-2 2-4-2-6 0"/><path fill="#1F2E45" d="M161 291c4-1-2 8-4 10-2-3-1-7 2-7"/><path fill="#25486B" d="M101 456c-4 7 10 7 12 7-1-3-8 0-4-6-5-3-4 5-8 2"/><path fill="#75CACC" d="M390 405c-6 3-8 7-15 12 5-5 13 0 17-13"/><path fill="#547A7C" d="M516 431c5-5 7 3 4 5-4 1-5-2-5-3"/><path fill="#222F46" d="M476 313c11 0 1 9-5 4 2 0 2-4 3-2"/><path fill="#3A7D96" d="M157 397c-12 4-21 21-31 28 7-7 20-23 32-26"/><path fill="#264E70" d="M124 461c1 3 4 3 6 5-19 3 11 6 15 0-6 3-14 2-20-4"/><path fill="#75CBCE" d="M452 439c-4 7-9 7-10 12 4-5 19-12 14-10"/><path fill="#97B0B7" d="M108 482c-42 1 13 1 19 1-5-2-11-1-20-1"/><path fill="#67C8CC" d="M510 465c-16 6 4 4 8 2-2-2-5-1-7-3"/><path fill="#131726" d="M304 341c-9 2-2 8-2 13 3-2 1-7 2-11"/><path fill="#526F6E" d="M312 421c10-4 7 8 1 6-2-1 0-2-1-4"/></svg>