<svg xmlns="http://www.w3.org/2000/svg" width="600" height="600"><path fill="#657D96" d="M219 115c12-2 9 5 18 3 26 10 46 23 67 39 27 22 46 44 69 70 11-13 6-32 7-47 16 20 25 41 32 63 8 6 16 9 22 14-6 0-20-10-23-12 13 8 25 18 28 15 13 10 23 19 30 28 6 2 9 1 13 2-1 17 6 27 7 42-1 8 1 17-3 23 4 5 8 9 12 13-5 3-10 4-15 3-4 6-5 12-10 15-4-2 0-6-7-1-6 7-12 13-19 19 0 6 3 8 3 11-6 2-13 4-15 2 1 0 0 2 1 3 20 14 46 9 66 12 54 25 41 23 75 41-10 6-21 5-31 7-31-2-58-8-85-15-4-12-13-15-22-19-11-5-21-8-30-11-12 15 3 34-8 49-7-20-16-38-29-54-13-1-22-4-34-3-21 6-37 23-59 27-13 4-25 8-38 8 10-21 48-38 53-47-26-8-11-9-21-12 0 0-8 6-11 15-2-6-2-11-2-16-10 8-20 16-29 21-3-10 0-19 1-28-15-1-28-2-40 1-7 1-11 4-15 7 4-11 13-21 22-26 3-6 2-13 2-17-4-9-8 3-18 10-1-6-1-10-1-14-3-2-5-3-6-2-3 3-3 9-6 12-4-4-5-7-7-11-4 6-3 13-7 18-5-5-3-12-8-16-2 3-4 7-6 11-5-2-3-10-6-11-12 27-15 29-28 46-17 15-32 26-50 31 8-10 17-27 29-47 3-9 8-18 5-26-6-18-37-31-50-59-37-38-16-56 28-27 1 0 3 3 2 7 0-2 2-3 2-4 7-1 11 2 16 4 20 14 32 31 45 49 4-5 5-11 4-17 7 0 7 6 9 9 6-4 7-12 11-17 3 3 6 3 8 5l-2 2h-2l3 1v-3c2-8 4-15 8-23 4 5 4 10 6 14 10-5 5-20 12-28 2 3 10 16 12 10 2-8 0-17 4-24 7 5 15 7 22 10 1-9 4-15 7-22 6-7 8 4 13 5 6-5 9-10 12-15 4-8 3-16 5-23 0-16-5-31-12-44-7-15-20-38-34-52"/><path fill="#82C2DC" d="M388 283c8 3 18 22 21 21 2 20-20 31-23 48 11 7 31 2 43 9-8-6-19-14-30-15-4-5 1-6 3-4 13 3 28 12 34 20 14-4 31 5 49 1-36-21-16-26-41-43 4-5 12-6 18-5 3-11 14-8 15-19-2-3-10 6-16 5-15-3-29 0-42 0-11-6-22-6-28-18"/><path fill="#2E477B" d="M239 290c-5 3-4 9-5 14-20 5-36 11-53 16-5 2-7-2-6-3-18 6-26 12-36 17-8 1-7-5-12-6-2 2-6 2-7 4-10 0-17-1-23-3 16 14 33 6 29 13 33-6 59-13 90-22 8 0 9 5 11 8 1 10 1 17 3 24-1-7-2-15 2-20 3-7 6-13 11-15 13 12 8 29 17 40-2-7-2-16 0-23 1-6 4-9 7-11 13 14 9 34 25 43-5-21 2-12-9-16 8-7 7-9 12-15 3 3 11 0 9 4 13-24-13-57-7-6-9-21 2-25-9-35-5 4-8 7-7 34-4-12-6-27-1-28-2 1-3 2-5 1-2-4-1-5-3-8 1 8 2 16-5 21-2-4 5-10 2-20-19 1-13 2-30 5-3-7-3-8-1-11"/><path fill="#A2DFE7" d="M352 235c2 4 0 10-2 12 11 25 35 29 49 44 8 3 13 6 18 9 19-5 38 5 54-3-16-11-34-34-53-44-3 2 0 8 4 11-4-3-4 5-6 4-13-6-21-16-34-22-10-5-22-15-30-8"/><path fill="#D2D2D1" d="M297 338c-5 0-6 16-3 23 2 10 9 13 12 21 16 5 41 20 61 24 17 5 34 3 49-1-7-2-16-2-24-5 4-3 9 0 16-2-11-4-24-4-32-11-12-3-18-10-24-15-5 3-12 7-15 3-8-9-8-13-16-22-5-5-6 5-10 7-10-9-8-15-14-21"/><path fill="#6DAAC5" d="M226 119c15 10 32 18 45 34 24 30 38 48 53 75 17 1 8 9 23 6-5 7-10 9-16 12-3 5 1 9 0 12 3-7 9-4 17-10-3 2-6 4-11 3 1-7 10-8 11-14v-2h-1c-1-4-2-7-7-11 6 2 8 7 11 8 1 1 9-2 21 3-4-3-15-11-22-17-13-13-18-20-22-28-9-12-22-22-34-32-22-17-43-30-67-37"/><path fill="#756F86" d="M312 386c-89 20 34 37 35 36 27 1 47-1 65-5 9-1 17-7 30-16-20 1-43 16-70 9-13 0-23-3-33-5-12-6-24-10-32-18"/><path fill="#223064" d="M93 330c3 2 6 4 8 7-7 0-10 9-14 8 3 2 6 6 8 11 5 21-10 37-11 46-10 13-6 10-21 25 24-9 32-17 43-27 11-16 17-25 22-35 0-3 3-6 2-8-8-1-12 8-17 12 4-6 4-14 11-17 69-23 45-21-7-7-8-4-15-9-21-14"/><path fill="#4B7FA9" d="M24 263c11 27 18 35 35 58 1-5 6-5 4-14 6 4 11 4 12 7-4-5 8-2 7-5 11-2 20-3 27-2l1 3v-3c0-3-16-19-27-23-7-6-9 1-10 5-1-5-5-7-4-9-14-8-28-13-43-16"/><path fill="#406B94" d="M226 121c15 14 19 24 26 35 4 9 14 27 18 45-1-14-11-26-10-39 18 17 22 40 32 58 3 7 6 11 13 12 7-19-17-38-12-48-6-11-19-25-28-35-12-13-25-19-37-27"/><path fill="#2B4176" d="M259 163c7 18 14 35 11 55 1 13-7 25-8 31-5-2-3 5-6 5 7-4 40-17 61-22-1-1-5 3-9 0 1-3 1-5 0-8-2-4 1-6 2-8 5 0 0 8 4 4-8-17-16-26-22-39-3 10 15 25 16 41 0 5 1 8-2 9-5 1-9 0-10-3-14-21-18-46-34-63"/><path fill="#1F2D5B" d="M298 414c-15 20-38 26-54 43 20 1 30-5 42-10 19-6 65-33 6-30"/><path fill="#72708A" d="M159 338c-50 19-42 22 7 10 5 3-7 5 1 8 1-1 1-3 0-6 13 0 14-1 23 2-2 2-4 1-5 2 0 3 1 5 0 9 3-4 10-7 6-10 9 0 13 3 20 6-2 2-4 1-5 2 0 5-2 9-1 14 1-1 5-3 8-8 5-4-2-4-1-6 6 2 11 4 15 8 11 2 19-2 25-2 0-8-15-7-20-12-23-6-51-14-78-13"/><path fill="#3D6697" d="M109 305c-6 4-32 5-33 7 1 2 3 3 5 6l1 2 1 1h-3c-2-5-8-8-15-14 1 10-5 10-5 14 3 3 6 8 9 10 4-2 7-3 12-10l1 1-2 2 3-1v-2l-1-1 1-2c7 7 10 8 12 10 32 9 44-3 11-24"/><path fill="#3F6997" d="M265 256c-17 8-33 18-49 27-16 14-41 28-71 47 9-5 18-11 28-15 4 2 2 5 6 5 19-6 35-12 52-17 4-2 1-7 3-9-11 0-25 8-33 7 17-24 98-51 55-40"/><path fill="#3F6792" d="M338 307c-6 2-8 6-12 10-19-8-10-9-10 12-7 5-7 3-10 12-4-3-1-3-5-3 4 6 4 13 8 19 3-3 8-10 12-8 10 5 8 19 21 25 4-2 4-5 7-5-6-3-9-4-15-12 3-1 5-2 6-1-8-2-11-12-14-19-3-23 12-11 10-29"/><path fill="#B0B4C0" d="M215 327c-52-2-23 17 15 27-6-11-4-22-8-28-9-4-9 6-13-2"/><path fill="#849CBD" d="M260 369c-5 3-10 1-15 3 3 1 6 0 10 1-2 4-7 1-9 5-22-1-3-6-27-2-3 0-8 2-11 5 12 7 27 2 42 4 19 2 50-11 9-18"/><path fill="#2D4678" d="M401 317c-1 2 1 5-1 7-6-7-5-4-9 0 0 6-1 12-4 18-5 7-9 12-15 14-13 2-21-2-28-9-9-8-10-17-9-28-1 7-4-3-7 3-2 6-2 12 0 16 1 16 17 15 21 24 4 2 8 1 10 3 5-5 18-4 23-13 6-13 14-23 21-33"/><path fill="#4E80AA" d="M259 265c-20 9-39 21-56 35 9-3 20-5 29-7 3-2 5-4 7-5-3 6 7 5 9 6 9-8 5-22 12-30"/><path fill="#87C0D9" d="M352 248c-7 0-5 4-14 2 7 2-15 8-12 19 0-4 17 4 19 10 2-3 4-7 9-10 23 3 20 5 4-6 2-4-3-8-4-14"/><path fill="#6BA6CB" d="M385 352c-51 23 73 10 92 13-12 4-32-10-45 0-13-11-32-3-44-13"/><path fill="#6CA2C4" d="M327 270c-7 5-3 14-6 22 6 4 11 4 18 10 4-6 8-17 5-22-5-6-9-9-16-10"/><path fill="#66A5C1" d="M321 241c-13 4-29 8-44 15-2 14 9 0-1 19 4 4 14-3 12 3 14-13-4-18 9-27 5 3 3 4 2 10 10-8 10-7 16-13-2 7-3 10-7 18 2-2 5-6 7 0 7-22 3-6 6-27"/><path fill="#B9BBC4" d="M244 321c-5 1-7 7-8 10-4 4-4 11-3 19 1 6 10 6 14 7 9 0 4-5 6-8-2-12-5-16-8-27"/><path fill="#4982A4" d="M317 256c-1 3-2 7-1 11-3-7-7 1-9-1-3 5-6 3-10 9-5 7-6 14-6 21 0-4 2-6 3-8 0 10 2 2 7 5 2-5 3-3 4-9 7 2 2 7 4 10 2 0 3-7 5-2 0-16 4-30 3-31"/><path fill="#C3D1D8" d="M505 439h2c2 2 5 2 7 3-62 0 36 21 37 26-44-24-1-9-45-30"/><path fill="#4D81A6" d="M319 292c-2 10-5 7-6 17 6 9 3 1 11 8 5-5 9-9 14-12-6-8-13-9-17-12"/><path fill="#2B447B" d="M75 316c3 1 4 4 6 5-3 7-10 9-11 12 7 6 17 12 19 12 0 0 3-3 2-4 7-3 8-2 12-1-8-10-11-10-20-18-2-3-4-3-6-4"/><path fill="#1D2857" d="M235 393c-1 8-3 15-3 23 7-4 47-27 3-22"/><path fill="#F2F1EC" d="M351 369c-10 9-5 6-1 2 9 5 14 12 25 15 9 7 23 8 33 11 13 1 23 0 32-4-12 0-25 2-36-1-20-5-37-11-52-21"/><path fill="#2B4077" d="M278 361c-22 8 4 5 6 15-3 8-10 9-15 10 11 1 23-9 33-4-3-6-9-14-16-17-4 0-6-3-7-3"/><path fill="#C1C0C5" d="M306 377c0 7 3 12 13 16 15 9 30 14 45 16-18-8-43-20-58-30"/><path fill="#ABBFCA" d="M489 432c-27 12 4 16 23 12-4-4-6-5-19-11"/><path fill="#2D487F" d="M320 236c-12 3-23 6-33 10-13 5-24 8-27 15 18-10 50-17 65-25"/><path fill="#E2956E" d="M351 315c-3 8-2 18 2 24 5 6 8 10 12 12 6 1 8 1 10-2 22-34 1 4 10-23-1 5-2 8-4 12-5 5-8 8-13 8-14-5-11-20-17-29"/><path fill="#69A7C3" d="M401 229c-8 6-1 8 3 23-7-5-15-7-18-12 5 10 13 16 28 27-4-13-8-26-14-37"/><path fill="#F7F7EE" d="M357 294c-3 1-5 2-8 3-6 8-8 17-6 26 7 2 4-8 8-11 2 1 1 3 2 4 5-6 5-10-1-10 0-8 18-14 6-12"/><path fill="#1E2852" d="M390 435c2-3 1 8-9 2 9 13 16 25 20 39-3-14 0-31-9-41"/><path fill="#4D82AA" d="M384 207c-2 11 1 19 2 28 7 7 12 11 15 15-2-13-14-26-17-41"/><path fill="#7DBDD1" d="M318 176c17 17 10 20 26 35 7 7 18 16 27 22-18-17-33-37-52-54"/><path fill="#D7D8D9" d="M402 379c-1 2-2 5-3 7 10 2 17 3 24 4-3-5 3-6 3-7-8-3-15-3-22-4"/><path fill="#9092A7" d="M186 332c-57 12 13 7 28 19-11-4-22-10-32-18"/><path fill="#82C5D7" d="M385 193c-4 14 6 30 12 42 8-7-8-27-11-40"/><path fill="#A2DAE5" d="M358 270c1 1 11 14 20 21 7 0 11 7 14 6 4-4 2-7 1-8-5-1-5 3-8 1-8-8-17-16-24-20"/><path fill="#5488AE" d="M276 273c3 7-5 11-1 21 2-1 4 2 7 0 3-5 5-12 5-18-2 0-9 1-10-2"/><path fill="#BFBEC3" d="M266 337c-11 12 3 22 5 25l-4 2 2-1c2-6 11-2 9-8-3-10-8-14-15-14"/><path fill="#7E90A9" d="M454 445c6 4 13 4 20 6-3 4-13 3-9 6 9 1 19 1 29 1 5-5-23-14-38-11"/><path fill="#406893" d="M273 284c-1 3-1 5-2 7l-1 2v1l1 2h-3c0-4 2-6 0-9 1 1 0 3 1 5-4-4-9 1-11-3-4 3-2 2-4 6 1 9 10 0 14 4v-1h1l1-1c0 5 0-2 1-3 3 3 3 6 4 9 9-5 13-9-1-8 0-4 0-7-2-8"/><path fill="#474660" d="M400 425c-5 1-9 2-15 1-4 2-2 5-1 6-5 0-2-3-5-4-9-1-5 0-3 5-4-3-5-4-6-5-5 0-10-2-15-1 5-1 9 1 14 0l4 4c3 5 6 6 7 8-1-7 13 1 11-11 5 5 5 10 8 7 0-7 5-9 3-10"/><path fill="#4E82A5" d="M274 255c-1 16-17 19-17 36 0-4 7-1 10-1 1-19 8-13 9-23 0-2-3-5-1-9"/><path fill="#5284AE" d="M479 303c-3 5-3 10-4 15-3-2-1-3-2-6 1 6-3 9-7 12-4 0-6-3-4-6 0 4-1 9-7 7 2 6 9 7 8 10 3-1 9-2 11-9 3-12 3-16 5-20"/><path fill="#D6D5D6" d="M374 374c-1 10 17 10 23 12 0-5 1-6 2-7-9-2-15-5-22-5"/><path fill="#181C35" d="M378 305c4 7-5 0-6 8 0 8-8 1-6 10-4 14 20 7 8 19-1-1 6-8 7-12-7-3-8-4-8-16 1-4 7-3 8-8"/><path fill="#DFF6F7" d="M426 258c14 11 30 23 40 39 4-1 6-2 9-3-16-9-29-29-47-35"/><path fill="#77587C" d="M424 372c4 3 14 8 42 6-4-1 0-2-2-4-13-2-28-1-41-2"/><path fill="#364678" d="M204 378c-30 19-10 13 12 11 16 1 30-3 45-3-15 0-31 0-45 4-7 0-14-6-14-9"/><path fill="#918E9F" d="M253 351c2 3 1 7-4 5-6 2-10-1-14-1 7 3 15 5 20 10 13 4 21-11 6-5-4-2-5-5-6-9"/><path fill="#4F4357" d="M297 388c-9 3-17 4-26 5-1 3-1 5-2 6 12 1 22-5 29-11"/><path fill="#908B99" d="M453 391c-16 8-34 10-52 10 17 7 22 0 37 0 5 1 9-5 15-10"/><path fill="#C3D4DC" d="M480 459c-7 18 27-3 40 3-9-5-23-1-35-3"/><path fill="#ABC0CE" d="M524 463c-14-2-25 0-36 4 7 2 59 0 39-4"/><path fill="#9B8A94" d="M340 321c-4 7 0 8 0 16 5 7 8 11 15 14-10-11-1-15-16-29"/><path fill="#CBD7DC" d="M446 433c5 4 16 6 24 8 5-7 14-6 19-9-9 5-28 1-38-1"/><path fill="#CBCACD" d="M266 326c-4 6-5 14-4 22-2-7 2-8 4-8 7 5 8 2 12 15-2-10-5-20-10-28"/><path fill="#D5F9F7" d="M363 271c10 1 16 21 27 18-7-11-16-16-26-18"/><path fill="#6EA7C5" d="M464 315c-5 2-14-1-19 2 4 5 26 27 7 9 11 0 8-9 11-9"/><path fill="#E4F2F3" d="M239 123c20 8 39 20 57 33 25 20 47 44 67 67-19-24-41-47-65-65-19-16-38-26-58-34"/><path fill="#758EA7" d="M211 263c-5 4 1 18-2 20 4-2 8-1 10-5 1-6-6-8-8-13"/><path fill="#DBDCDD" d="M429 382c-8 12 15 7 20 5-1-6-13-2-18-4"/><path fill="#624263" d="M377 370c20 3 35 7 55 6-18-5-36-4-53-7"/><path fill="#A6D6E2" d="M310 256c-12 6-19 18-21 30 4-11 16-18 20-29"/><path fill="#7ABCD3" d="M338 238c-12 1-19 5-25 12 1 2 2-4 4-4-1 4-2 6-3 8 1-2 3-4 3-6h3v1c-1 3-4 5-5 8 9-13 14-9 25-20"/><path fill="#33447C" d="M357 323c1 5 1 11 5 16 3 2 5 3 8 2-2-3-10-18-11-16"/><path fill="#25356C" d="M310 214c-2 5-1 10 0 17 10 7 1-3 11 2-5-11-7-9-11-17"/><path fill="#5386A9" d="M352 275c-1 2-3 4-3 6 9 0 17 3 22 7 11 8 14 19 20 25 4-5-1-9 4-12-4 5-4 1-6 3-8-16-28-22-39-25"/><path fill="#F1F1EE" d="M377 311c-4 5-3 12 1 15 4-4 5-11 2-14"/><path fill="#426A97" d="M241 286c-5 7-7 5-2 5l-1 2 1 2-1 1h-3c1 2 0 4 1 6 0-2-1-4 0-5 1 1 1 2 2 4 5 1 8 0 12-1 1-7-5-3-11-7-1-3-2-5 1-5"/><path fill="#8AC7DA" d="M356 270c-4 3-4 6-2 9 5 0 8 2 11 3-2-4-2-9-8-10"/><path fill="#548AB0" d="M325 228c0 7 8 11 14 8-3 4 0 5-1 7 3-2 5-5 7-8-14 2-4-4-18-6"/><path fill="#BEB2AE" d="M358 291c-11 2-17 12-19 21 0 6-2 8-2 11 3-9 9 12 14 12 1-17-11 1-11-23 2-9 12-21 18-20"/><path fill="#355381" d="M311 307c1 9-3 17-2 26 2-6 8-3 5-11 1-6-3-9-3-13"/><path fill="#222C55" d="M373 306c-1 7-10 7-9 15-2 4-1 6 0 7 1 7 5 6 9 7 0 6-3 9-7 7h-1 1c4 1 8 0 9-4 1-5-7-3-11-7-2-14 14-21 13-25"/><path fill="#ECEFF0" d="M444 428c-26-1-9 3 3 7 6 1 10 3 14 5-4-2-8-4-12-5-4-5 5-5 7-3-4-2-8-3-12-5"/><path fill="#3C6793" d="M383 217c0 5-4 9-7 13l6 6c3-6 1-12 0-17"/><path fill="#407398" d="M294 287c-1 9-4 9-3 18 5-4 7-8 9-12-4-2-2 2-3 3-2-4-4-4-2-6"/><path fill="#293250" d="M350 284c0 11-15 18 10 2 4 0 6 2 8 3-4-4-9-5-15-4"/><path fill="#794641" d="M369 292c-3 6 9 2 12 13 2 10 8 23 0 35 5-13 9-13 4-28-1-2-1-3-2-6-3-5-6-10-9-11"/><path fill="#6AA2BE" d="M394 289c3 2 4 6 3 9-5 3-10 0-13 1 0 1 2 3 3 4 5-2 3 2 8-3 0 3-2 3-1 6 0-6 5-2 7-7 0-4-4-6-5-8"/><path fill="#C6DCE1" d="M240 250c1 4 0 11 2 14 3-2 7-2 7-3-11-9 2-7-8-9"/><path fill="#1B1C2A" d="M423 417c-7 2-11 5-17 5-7 0 0 4-4 11 1 2 6-3 5 2 2-4-7-1-2-13 4 1 11 7 7 9 1-4-3-10 8-9 18 1 15 4 2-5"/><path fill="#B5DFE8" d="M322 263c-7 6-2 15-4 25 3-8 3-19 5-24"/><path fill="#6CA8C4" d="M476 294c7 5-6 13-10 17 1 1 4-4 7-1 3 9-3 3 1 7 0-7 5-13 5-23"/><path fill="#E9EEF0" d="M464 460c-2 5 10 3 13 6-5-2 2-4 3-6-4 0-9 0-14-1"/><path fill="#63718D" d="M440 434c-17 1-3 9 6 8-4-3 1-5-6-6v-1h-1v1"/><path fill="#426C94" d="M316 289c-3 8-4-2-7 7-2-2-2-3-2-4 0 5-2 7-7 13 1 2 4-1 4 1 4-7 7-9 11-15"/><path fill="#A5D7E1" d="M471 311c-5 1-8 6-8 10 6 1 8-5 9-8"/><path fill="#D2F6F4" d="M443 282c4-2 9 0 9 5-3 5-8 0-9-2"/><path fill="#EAF6F7" d="M383 186c12 26 23 52 32 79-8-27-17-53-31-77"/><path fill="#548AAD" d="M402 299c1 0-4 5-4 4-1 8 7 6 10 8-1-3-2-7-5-11"/><path fill="#ADE1E8" d="M348 234c2 8-7 10-9 14 3 2 6 1 8-2 4-2 2-7 3-9"/><path fill="#DF9769" d="M368 295c-5 0-12 5-12 8 2 6 10-8 15-7"/><path fill="#505D7F" d="M445 438c0 6 15 8 21 6-6 0-12-3-17-6"/><path fill="#808DA6" d="M426 433c-28-3 13 10 6 1 1-2-3-1-6-2"/><path fill="#9FDCE8" d="M456 334c1 10 12 11 16 17-10-6-5-12-13-17"/><path fill="#283D6E" d="M233 303c1 5 5 16 1 21 1-5-2-11-2-17"/><path fill="#F1F3F3" d="M540 455c10 7 18 16 29 18-8-6-17-11-26-17"/><path fill="#213564" d="M373 366c22 3 42 3 62 4-20-3-40-3-59-4"/><path fill="#748CA2" d="M238 252c-2 5-3 10-4 15 3 1 6 1 6 0-1-6-2-9-1-13"/><path fill="#CB7E5A" d="M483 328c0 2-2 18-4 23 6-6 4-16 4-21"/><path fill="#82727D" d="M349 339c-1 4 3 8 6 11 1 4 5 2 8 4-8-12-1 0-13-14"/><path fill="#DDDFE0" d="M431 384c4-1 11-1 14 0-6 3-10 3-16 2"/><path fill="#1D1622" d="M474 336c2 5 0 10 1 14 3-3 5-5 4-8 0-4-4-1-4-5"/><path fill="#1D1F2C" d="M221 391c-49 3-11 0 11 1 1 10 0 20-2 29h2l1-1c7-6 13-9 16-12-4 4-10 7-15 11-3-8-1-18 0-25 9-1 15-1 22-1 4 5 3 6-3 11 3-2 4-4 6-5 2 4 4 6 3 9 1-3-1-5 0-8 0-3-3-5-3-7h-25l-2-2c-5 1-9-1-14 0"/><path fill="#3B6895" d="M397 302c3 6 4 13 6 19 2-3 4-6 3-11-5 6-6-3-8-5"/><path fill="#272F52" d="M405 424c0 2-1 4-1 8 5-4 9 0 8-6 5 3 9 2 12 4-3-2-7-2-10-4 0 2-4 2-7-3"/><path fill="#29487E" d="M474 330c-1 3-4 5-6 8-1 2 4 5 4 8-1-5 3-9 1-15"/><path fill="#A2B5CD" d="M240 373c-9 9 11 2 14 1-4-1-8-1-12-1"/><path fill="#6B6E85" d="M556 472c-5 1-10 1-14 3 4 1 29 0 16-2"/><path fill="#293F6D" d="M287 310c3 2-3 11 1 16-4-4-4-9-2-13"/><path fill="#A7DFE5" d="M426 273c3 0 0 7-1 9-4-3-2-3-6-4 2-2 5 0 7-3"/><path fill="#667693" d="M484 450c24 4-6 7 21 7-7-3-8-4-15-6"/><path fill="#EAEFEF" d="m211 264 11 11c3 1 4-2 6-1-6-2-10-6-14-8"/><path fill="#89C2D5" d="M395 290c2 3-1 7-3 8-5-2-7-5-11-4 1 5 5 4 9 4 6 1 7-2 6-6"/><path fill="#637DA5" d="M293 382c-7 1-1 5-14 6 6 0 27-3 17-7"/><path fill="#B0AEBA" d="M428 381c5 3 15 0 21 3-5-3-11-4-19-3"/></svg>