<svg xmlns="http://www.w3.org/2000/svg" width="600" height="600"><path fill="#81929F" d="M173 130c1-1 4 2 5-1 4 4 3 23 4 30-4 20-14 38-24 50 16 23 14 25 32 40 6 0 10-1 16-4 15-11 26-24 45-33 10-4 31-10 42-12 19-4 39 0 57-2 25 1 39 6 56 9 16 3 39 13 52 22 3 1 16 15 25 23 16 20 17 28 26 50 0 21 7 14 2 41 22 4 42-1 64 2 5 2 12 1 10 7-17 9-36 21-56 25-11 1-19 4-27 2-6 9-7 5-15 11 6 4 3 23 3 22-10 12-21 14-25 17-4 4-70 9-67 8-10 2 0 14-6 22-2 5-4 7-7 9-15-2-30-20-35-24-9 4-30 8-54 5-11 9-19 19-31 20-4-3-5-4-6-6 0-7 2-17-1-22-19-4-36-12-52-25-14-8-41-38-41-46-11-4-17-3-22-7 5-7 12-4 14-10-20-48-21-84-33-134-33-16-166-39-71-59 25 3 39 6 60 6 4-2 2-5 3-8 12-4 31-14 55-27"/><path fill="#5A7B92" d="M254 228c-95 29 48 62 61 87 10 4 13 7 12 11 5 3-4 5-2 6-9-2-16-4-24-4-2-1-1 5-5 5 5 0 20-6 30 6 6 3 7 6 9 8-3 4-14-1-8 2 39 0 69 15 102 20 21 2 34-2 52-4 7-1 13-3 16-7-9-7 0-24 2-34 0 2-1 4-2 6-13 3-22 8-32 11-11 1-20 1-28-3 1 5 10 8 10 13-11-4-12-13-16-19 0 1-1 3 0 5-18-1-32-6-45-15-34-32-67-47-96-73-14-6-25-14-36-20"/><path fill="#334261" d="M143 248c-2 7-2 14-1 22 1 9 12 9 14 17 9 17 5 38 17 52 4 3 5 1 8 1 5-6 3-15 10-19 9 1 12 8 15 13 7-4 16-14 20-14 16 5 53 4 62 10 10 2 5-2 4-5 8-1 13 0 17 2-24-24-50-42-76-59-10-5-21-5-27-11-10 4-20 7-30 8-8-7-25-3-32-16"/><path fill="#DBE9E7" d="M333 207c-42 6 13-2 21 2 4 3 7 4 8 6-3 8-4 8-7 15 16 16 25 35 44 48 16-6 42-10 58-18 12 1 16 6 26 11 8 6 13 14 16 21 4 13 7 24 8 36 2-13-3-23-5-35-7-14-12-27-21-38 1 3 3 6 4 9-13-14-30-22-43-31-15-10-30-14-44-18-22-6-43-8-66-7"/><path fill="#E2E7E5" d="M308 357c-9 7-20 9-29 17-5 8-11 14-14 20 4 25-11 93 31 37 3-10 15-22 12-38 13 5 27 4 37-1 31 11 64 17 94 24 16 1 29 1 39-6-9 4-20 4-32 3-33-8-69-17-96-29-16-4-27-20-39-28"/><path fill="#BDD5D7" d="M333 210c-9-3-80 11-40 6 11 6 24 17 38 20 37 20 59 54 92 67 14 4 21 5 31-2 10-9 19-15 25-22 4 3 11 5 15 5-2-4-6-8-8-13-12-2-15-11-26-8-17 5-44 10-58 18-23-11-24-32-44-40-13-14 12-20-1-30-7-3-13-3-20-2"/><path fill="#86888C" d="M308 352c2 4-10 2-15 9-9 2-13-4-18-5-17 1-31 2-45 5-4 6-5 13-11 17-8-1-13 4-19 0-5-5-11-9-11-14-4 2-10 1-14 2 8 12 16 26 30 35 18 14 35 26 56 30 1-3 2-5 2-8-7 1-16-6-23-8-3-4-7-6-5-9 8-3 8-6 15-4 4 2 10-1 12 5-2-9-3-18-4-26 5 1 3 9 6 13 2-9 8-17 17-23 7-11 38-17 31-20"/><path fill="#9CB7C4" d="M170 134c-3 5-3 3-8 6-8 15-13 29-17 43-2-4 0-9 1-13-7-2-13 2-17 3 1 4 2 9 3 14-5-8-7-18-10-25 2 11 5 20 7 30-17-6-20-6-50-24-18 7-37 9-52 10 27 6 58 8 87 16 13 10 4 12 21 14 3 12 4 22 13 28 44 27 23-3 4-28-1-7 3-11 8-14-2 0-3 1-4 2-3-3-1-7-2-9 8-8 8-17 12-24 4-4 7-4 6 0 3-9 6-18 5-28 0 7-14 4-7-1"/><path fill="#7FA2B0" d="M273 222c-41 2 4 18 15 23 32 29 64 44 96 77 15 8 29 13 45 14 1-6-2-10-4-15-5-11-9-19-15-25 4 6 8 15 14 23-10-3-17-3-24-7-31-17-59-48-79-68-15-8-32-14-47-22"/><path fill="#2C3A5A" d="M498 338c-3 9-1 8 2 13 0 6-4 9-6 12-15 3-27 8-40 8-44 1-78-18-119-18-11-2-17-10-26-11-17 5-34 10-52 12-32 3-62 4-91 8 52-6 94-3 142-15 35 15 64 12 91 32 27 3 51 9 76 11 8-4 16-9 21-17 5-11 8-23 2-32"/><path fill="#99B9C2" d="M288 217c-8 0-39 8-12 3 15 10 31 15 42 23 23 19 43 44 68 59 14 12 23 11 37 17-6-8-10-17-15-25-27-13-48-43-76-54-16-6-27-17-39-23l-1-1h-1v2"/><path fill="#6F6E74" d="M486 411c-11 7-23 8-35 10-47-2-94-3-137-8-6 6-7 15-12 20 18 9 41 4 59 4 13-2 25-4 37-5-14 0-11 1-22 2-3-7 7-3-5-6 29 5 47 2 74 0 18-2 27-6 39-15"/><path fill="#9CBCC4" d="M480 280c-10 7-19 21-34 26-7 1-18 4-25 0 2 4 5 9 7 14 8 1 14 4 19 3 9-2 18-3 26-7 8 3 16-3 22 1 2-17 5-36-16-36"/><path fill="#ECF5F4" d="M323 202c-19 0-35 6-52 9-70 32-34 19 15 0 26-2 53-7 82-3 26 5 50 10 72 22 16 11 34 20 44 36-6-18-23-29-39-40-25-12-50-18-76-22-16-2-30-4-45-2"/><path fill="#7FA2B1" d="M500 315c-15 3-31 0-53 11-5-1-12-5-17-5 2 6 4 11 7 16 10 3 18 4 26 5 12-5 21-10 32-12 3-6 4-10 3-16"/><path fill="#9BB8C5" d="M251 328c-6 1-8 5-8 10-20 3-39 11-51 19 26-1 51-8 76-11 5-5 9-10 14-12 39 10-16-12-28-6"/><path fill="#644B5B" d="M321 359c2 4 7 9 12 10 30 12 41 18 63 24-1-2-3-1-4-3 6 5 19 0 25 6 11 0 43-5 61 0 0 2 0 4-2 4 3-2 3-1 3-4l1 1-2-4c-34-3-71-14-101-12-20-8-37-13-55-20"/><path fill="#455F7B" d="M212 249c-15 15 30 14 36 29 22 17 44 28 62 48-3 1-6 0-8-1-4 0-5-1-8 0 2 3 2 5 2 6 4 2 0-5 3-5 11-1 22 8 28 4 0-3 1-9-5-12-29-18-76-44-110-66"/><path fill="#80A1B0" d="M240 325c-31 8-58 27-88 36 15 1 28-4 42-4-8-1 10-5 15-10 12-5 22-7 31-10 3-6 3-6 10-10 20 1 18-3 0 0-3-1-6-1-9-2"/><path fill="#41343F" d="M305 348c-54 10-2 3 6 2 5 8 12 14 18 19 10 8 18 12 27 16l3 1-3-1c-13-6-26-12-36-26 21 9 37 13 55 21 16 2 17-2 33 1-27-14-61-21-92-29-6-2-9-4-14-3"/><path fill="#AFB5B8" d="M310 396c1 2 5 4 4 9 38 9 78 15 118 12-22-2-41-9-60-14-18 2-32 7-49 0-5-1-8-3-12-5"/><path fill="#454A50" d="M348 311c9-3 15 6 17 12-3 8 1 19-8 21-8 0-15-3-18-9-1-7 0-11 1-15 5 2 5-8 14-5-3 0-7-2-8 2-2-3-1-4 0-5"/><path fill="#EAF4F1" d="M398 244c4-1 6 1 9-1 12 1 20 6 26 11-10 5-12 16-22 13-9-3-20-10-15-22"/><path fill="#92959A" d="M144 277c-1 14 7 31 11 45 5 11 11 19 14 28 4 1 5-1 7-2 3-6-14-12-11-24-4-14-7-27-10-34-2-6-5-9-10-11"/><path fill="#6185A0" d="M509 348c-1 21 52 4 68 3-19-5-43-2-63-5"/><path fill="#EBF4F2" d="M399 244c-9 12 4 19 12 22 10 1 12-7 20-11-5-6-13-10-21-10-5-2-7 2-9 0"/><path fill="#BCD0D6" d="M54 183c23 12 43 19 69 23-2-7-8-11-14-11-17-8-37-5-53-12"/><path fill="#7A6175" d="M393 390c2 1 5 4 2 6 4-2 2 3 6-3 5 3 2 4 2 5 6-5 4 7 5-2 6 8 18 1 21 7 7-2 24 4 23-2 2 0 6 2 7 4 5-8 15 0 17-3-3-1 2-3 2-4-24-7-39 0-59-2-6 0-10-4-16-2 0-4-8 2-8-5"/><path fill="#C7CECE" d="M309 395c-1 5 3-2 13 9 19 5 32 0 47-4 25 8 46 15 69 17-22-4-44-11-66-15-10-3-20-1-24-8-13 5-26 5-38 0"/><path fill="#879FB3" d="M46 164c-60 24 16 9 33 5-9-5-21-4-34-3"/><path fill="#A6B7BC" d="M165 360c61 68-8 1 34 46 16 14 39 26 63 31-18-8-40-18-57-35-13-11-25-22-32-34"/><path fill="#797A80" d="M245 403c-22 5 2 15 16 20 4-7-2-14 0-19-7 1-13-4-17 0"/><path fill="#89A1B4" d="M154 146c-10 2-19 9-27 16 1 4 1 8-1 10 4 0 9-2 15-5 5 0 5 2 6 5-3-1 4-19 7-25"/><path fill="#2A2220" d="M347 319c-6 3-8 8-6 15 4 9 10 9 16 7 7-3 6-9 4-13-8-22-1 15-17-12"/><path fill="#879FB2" d="M119 163c0 7 5 13 5 21-3-5-5-8-7-12-47-6 12 28 3 13 6-3 3-12 1-21"/><path fill="#384965" d="M31 180c18 6 35 15 57 24 20 4 28 7 36 11 4 0 6 20 16 26-5-10-8-21-13-31-13-3-25-5-36-7-19-8-40-20-60-23"/><path fill="#87898E" d="M316 395c-32 61-44 78 1 7-2 8-4 8-5 9 12 2 23 4 36 3 37 4 78 7 113 5-35-2-76 2-111-5-14-2-24-4-34-8-2-2-4-3-3-5"/><path fill="#7B9BAB" d="M309 332c-9-2-4 9-12 2 4 2 3 6-1 7-16 5-31 7-46 9 15-2 31-2 44-9 5 0 6-3 8-4 30 21 44 6 5-7"/><path fill="#839FB0" d="M131 207c3 7 4 16 7 23 6 9 13 14 20 20 9 5 17-2 25 0-12-4-25-5-34-13-12-7-12-18-16-28"/><path fill="#5D5A60" d="M384 437c-18 2-16 0-27 5 3 7 4 6 5 9 3-8 33-1 25-13l-1-2h-1v1"/><path fill="#868C90" d="M297 436c8 16 44 3 60 3-16 1-38 3-54-5"/><path fill="#DAE1DE" d="M192 322c-5 5-8 14-4 20 6-2 11-4 16-7-3-5-5-10-9-12"/><path fill="#607B92" d="M130 211c7 12 6 30 19 38 7 5 14 6 20 9 8-4 14-2 20-3-9-9-19 2-30-2-8-8-16-13-20-22-4-7-5-13-8-18"/><path fill="#B7CDD4" d="M169 160c-2 7-13 22-14 34 10-9 16-22 17-33"/><path fill="#475C77" d="M140 241c4 3 0 6 2 11-1-2-1-3 0-4 9 14 25 9 35 15 2 1 17-9 27-13-21 3-11 5-34 8-11-3-21-6-28-15"/><path fill="#A5B3B9" d="M132 235c5 20 7 45 12 62 7 19 12 39 21 56-17-36-26-75-30-116"/><path fill="#D7DEDB" d="M219 362c-6 0-12 2-18 2 3 4 6 9 12 10 3 0 16-13 8-13"/><path fill="#9DBBC8" d="M577 352c-9 3-16 8-25 9-15 1-26 0-38-2-2 3-4 4-3 6 27-14 15 10 24 0 20-1 31-6 41-13"/><path fill="#688BA1" d="M229 321c-8 1-13 9-19 13 7-5 50-11 20-14"/><path fill="#2F3E5C" d="M512 353c-24 32 3 24 26 17-9 3-19 1-28 0-4-5 0-10-2-15"/><path fill="#6D8EA1" d="M335 338c13 6 18 7 20 10-4 5-8 2-12 0-5-2-6-4-7-7"/><path fill="#6E6E73" d="M388 445c-9 0-16 4-24 5 5 3 16 0 22 3 3-3 2-5 3-6"/><path fill="#ACB1B4" d="M227 361c-3 5-6 11-11 15-11-8-26-5-24-12 2 6 4 10 8 11 7 0 12 4 16 2 8-3 8-10 11-14"/><path fill="#85898E" d="M369 452c-6 5 17 11 18 7-1-8-10-5-15-7"/><path fill="#BBD1D6" d="M284 335c-5 2-10 5-13 10 12 1 28-11 15-11"/><path fill="#B5CAD1" d="M162 361c40 54 9 13 34 37-10-9-19-22-27-32"/><path fill="#273051" d="M298 352c-7 2-14 2-20 4 4 1 6 5 11 3 4 0 13-4 11-8"/><path fill="#DDE9E9" d="M238 232c-13 1-22 9-32 18 10-2 20-11 30-17"/><path fill="#789CB2" d="M572 354c-21 3-35 5-60 5 13 1 25 2 38 1 9-1 15-4 22-7"/><path fill="#C1D3D8" d="M143 296c5 22 10 35 18 58-5-18-12-37-17-57"/><path fill="#465E7A" d="M290 346c-22 6-47 5-69 10 24-1 48-4 71-10"/><path fill="#B0CAD2" d="M516 362c-13 8 15 5 20 3-4-2-11-2-18-1"/><path fill="#7496A7" d="M336 340c2 8 12 11 18 10-4-2-10-6-15-9"/><path fill="#C6CDCC" d="M293 435c-7 14-25 19-30 24 12-5 23-10 29-22"/><path fill="#B0B5B6" d="M289 442c-6 10-16 13-24 20 10 1 17-11 23-17"/><path fill="#7A5C6E" d="M331 369c16 14 23 8 42 20-10-10-26-9-40-19"/><path fill="#FBFBFB" d="M169 379c8 10 19 24 29 30l2 3 1 1c13 10 23 14 35 22-11-7-23-13-36-24s-25-25-29-31"/><path fill="#C2C9CA" d="M224 360c2 5-6 14-9 14-11 1-13-15-23-8 8 4 12 2 21 10 7-4 10-10 13-15"/><path fill="#B9D5E2" d="M505 320c4 16-1 31-2 47 4-15 7-30 2-45"/><path fill="#DCEBEA" d="M296 212c-18 3-38 8-55 18 18-8 44-17 61-19"/><path fill="#475E74" d="M225 358c-25 3-50 7-77 3 21 4 70-1 84-4"/><path fill="#486177" d="M350 309c-14 21-11 8 4 3 6 5 10 10 11 15-1-5-4-12-9-15l-3-1h-1v1"/></svg>