<svg xmlns="http://www.w3.org/2000/svg" width="600" height="600"><path fill="#989289" d="M492 102c0 29-2 61-9 87-12 26-35 37-52 53 6 10 16 19 20 29 9 14 3 32 10 45 1 10-1 17-4 23-9 9-17 15-26 20 3 4 8 9 8 15 1 8-8-5-7 2 7 8 16 12 23 14-4 6-11 6-19 5 4 11 8 21 15 30-11 1-20-1-27-7-8 7-7 16-14 21-6-1-1-8-3-12-2 7-11 11-15 17-1 9 1 13 5 17 9 5 20 5 25 15 6 6 1 8 0 12-14 0-31 4-43-1-13-10-18-21-25-32-4 2-7 4-10 6 6 4 11 5 14 10 5 5 3 10 1 13-10 2-13 13-26 8-31-3-66-7-96-3-10-6-24-4-30-8-17 3-36 1-52 2-19-8-35-14-48-27-4-6 2-5 4-4 20 5 35 12 52 16 13 2 22 0 30-7-1-4-1-6-2-7-13-3-25-4-34-11-11-7-21-17-25-28 16 4 32 21 52 28 6-2 4-14 7-21-15-1-25-5-35-12-7-6-11-11-16-18-4-17-2-28-11-54 9 5 13 10 17 17 4-7 0-17 5-21 13 17 10 37 21 52 5 9 11 16 20 13-2-4-6-6-7-9 0-4 2 0 5-2-12-18-7-40-19-56-11-22-29-36-33-60-3-10-4-18-3-28 7 7 10 15 17 24 1-2 2-5 0-7-6-19-20-33-28-47 17-2 30 12 42 15 22 19 33 41 43 65 3-13-3-24-7-36 6 1 12 4 17 8 1-14 4-25 9-36 10 34 24 60 40 87 6 4 12 5 18 7 9 0-4-8-3-12 12 5 27 1 37-5 1-6-6-7-9-12 6 1 17 2 23-2 5-12 9-22 13-33-51-26-112-39-161-72-26-20-43-44-58-69 23 3 15-13 38-7 28 3 54 11 79 18 23 9 45 14 65 24 15 12 28 21 40 33-3-14 13-25 2-38 7 2 11 7 13 10 1 26 22 39 24 61 2-3 6-8 8-12 0-9 2-18-1-24 4-2 3 2 6 3 4 7 2 14 3 19-2 8-6 13-8 18-1 5 1 8 3 9 14-17 17-40 29-56 6-17 1-35 13-48 3-5 7-9 9-12 7 0 5 8 7 11 10-9 19-19 30-23"/><path fill="#3B4A56" d="M129 120c16 24 32 48 55 67 16 10 31 17 47 24 13 6 25 10 36 15-1-2-23-9-34-14-12-6-41-39-53-58 47 12 97 26 141 37-16-17-49-24-65-39-11-4-44-9-64-22-7 2-42-6-60-9"/><path fill="#A48068" d="M182 155c14 18 29 39 48 52 4 3-8-8-6-8 2-6 8-9 11-9 14 6 22 16 35 20 0 3 4 9 8 12-2 1-3 2-4 3l-3-1h-2l3 1 2-1c22 5 38 13 69 18-21-19-38-43-66-58-31-12-62-19-92-29"/><path fill="#89AFBB" d="M491 105c-13 4-24 15-33 25-2-5-2-9-4-14-7 6-13 14-16 20-7 11-1 22-5 33 0-3 3-8 6-6-10 12-20 36-26 52 4 6 6-1 9-5 2 4-2 7-1 10 9 4 6 12 14 11 21-29 21-31 36-59-8-3 0-10 1-14-7-2-9 4-14 4-1-7 1-11 3-15 3-10 14-10 18-7 7-11 9-19 12-34"/><path fill="#A4D1D5" d="M146 113c2 0 2 2 3 4-39 2 32 10 35 13 4-1-6-3-2-6 23 13 55 24 70 23 14 12 52 23 93 60 0-7-8-14-12-20 10 15 24 22 31 24-5-9-11-19-19-28-16-6-21-21-56-37-24-6-53-22-104-30-12-2-24-5-37-3"/><path fill="#756760" d="M335 304c-4 12 2 12 5 25l2 2 1 1v2c6 5 12 9 19 12 20 10 42 16 64 12-4 5-14 2-11 11-2-3-3-4-4-6-9 0-15-2-22-2-3 3-1 6 0 7-17-15-37-18-51-39 14 13 26 35 41 48 4 5 2 9 1 12 2-2 3-4 4-7 11 4 11 14 12 24 2-6 7-2 9-7 7 16-2 25 5 35-5-16 3-20 7-32-1 8 7 11 12 17-4-3-9-8-9-13 2-8 4-13 9-17 4 4 6 8 8 13-2-4-2-7-4-9 6 1 13 3 18 1-21-10-2-7-23-21 6-2 9 3 11 3-2-8-6-13-11-15 11-6 18-15 26-20 6-12 7-22 3-29 2 8-1 26-11 31-9-7-7 11-16 7s-19 1-25-6c-6 3-10 8-17 8-21 0-25-19-44-19-6-9-10-17-9-27"/><path fill="#DFE3DA" d="M324 336c-2 3 11 3 2 7-11 4-20 10-33 19-8 2-11-3-7-3-11 8-21 17-31 23 4-1 9-2 13-4 0 5-7 4-10 7 10 1 37-3 30 5 14-3 23-5 27-15-3 9-8 18-6 30 2-9 0-9 4-18 1 6 8 9 7 14 7-11 3 10 10-11 0 7-1 10-2 13 4-3 4-7 6-11-1 8 7-5 7 4 4-1 8-9 12-5 3-8 1-16 2-22-3 0-5 2-6 1 15-11 1-10-7-8-3 2-4 4-5 7-2-8 5-12 9-18-2-2-5 0-8 1 2-6 6-5 8-7-6-7-12-11-20-9"/><path fill="#CDAD8B" d="M377 247c0 6 7 11 2 17-9 17-22-2-30 14-6 2-7 6-10 9-2 6-4 11-4 17 12 13 30 8 41 19 10-1 4-10 18-8-12 0-15-17-23-18 6-5-4-7-4-10 21-12 47 5 53-2-11-26-23-7-41-40"/><path fill="#F4FBF6" d="M422 226c-4 3-9 5-12 10-5-3-10-1-13-4-8 2-30-3-19 14 13 9 28 17 38 28 7 8 10 15 13 22 6-4 17 3 20-5-1-13-3-26-13-37-7-9-16-14-24-16 2-7 6-9 11-12"/><path fill="#9B7E66" d="M294 405c-21 1-19 17-11 31 8 16 15 30 24 44 7 2 8 9 14 11 3-4 1-9-1-13 8 2 8 9 14 12 3-6 0-10-3-14 8 5 13 6 16 13 2-6 2-9 0-13-8-8-18-6-23-15-5-8-6-16-8-24-3 2-4 10-8 5-8-11-2-24-5-35 0 0-3 2-3 3-5 1-5-3-6-4"/><path fill="#978D82" d="M152 337c-2 9-3 17 1 26-39-60-4 29-17 22 11 13 16 22 25 26 11 10 19 4 28 8 6-9 10-16 19-23-7 6-16-6-22-7 3 5 6 9 9 13-5 2-9 1-13-1-9-10-13-14-17-22-2-14-7-29-12-41"/><path fill="#56423B" d="M273 366c-11 4-20 18-32 19 7 1 12 5 15 11 6 7 4 14 5 20-3 9-6 14-10 20-11 13-24 16-34 24 4 5 8 2 11 2 7-4 28-17 31-31 1 8-2 15-5 22 10 8 17 9 26 8 0-16-4-29-10-42 10 15 17 33 25 50-7-18-19-35-20-57 6-6 13-6 17-10 4 2 3 5 6 6 2 0 2-3 5-4 4 2 1 7 4 9-10-19 17-41-11-18-5-3-10-1-13-2-7 7-12 14-12 22-3 0-1-5-2-8 0 2 2 6 0 8-7-6-8-12-11-17 5-3 8-2 11-1 3 3 1 4 2 7 0-5 2-8 3-10-8-4-16-4-23-10 8-5 14-11 20-17"/><path fill="#EEF7EE" d="M138 216c7 14 12 17 32 48 3 11-16-6-1 24-2-8 2-8 4-4 5 7 6 13 9 19 4 2 6-1 5-3 1-21-13-33-16-51 6 9 15 15 18 23 4 12 6 23 6 35 5 2 5 0 8 0 4-9 1-18-1-25-6-15-14-26-20-36-12-6-18-17-47-32"/><path fill="#AAA094" d="M141 279c6 22 24 36 34 56l1 2h1v3c6 13 2 38 18 51 3 3 5 6 8 6 12-8 22-14 34-14 3 12-30-45-37-34 0 4 8 13 9 24-2 6-11 4-14 1-7-15-10-21-16-34 8 0 1-14 2-21-7-5 0 1-5 6-9-18-23-31-35-43"/><path fill="#B78E71" d="M213 395c-5 4-10 8-10 15 7 13 14 18 24 25 1-1 2-4 5-3 4 10-10 7-4 18 9-4 15-8 21-14 7-10 11-19 9-32-9 7-20-6-29 4-5-8-14-7-16-12"/><path fill="#B79375" d="M420 281c0 2 3 5 2 6-5 0-11 0-17 1 4 4 10 8 11 14 0 7 2 13-3 15-3-5-10-4-18-3-15 0-7 7-17 9-18-10-38-8-43-15 2 14 8 21 18 22 22 0 44-5 66 5 4-2 7-3 9-4 0-8 0-11-7-10 2-4 3-6 5-7 2-12 0-22-5-31"/><path fill="#362929" d="M328 411c-6 4-10 9-13 14 2-2 7-5 7 1-2 12-4 24 3 34 4 6 9 7 14 8-5-3 11-9 12-15 11 12 17 27 30 34-3-4-7-8-9-12 7-6 9-13 15-17 4-1 5 2 8 3-4-4-5-10-4-15-4 3-7 6-11 8-3-7-2-12-1-18-6 5-10 11-15 15-2 1 1 3 1 4-12-4-22-10-30-19-5-9-6-17-8-24"/><path fill="#E1E5DB" d="M231 254c-1 7-8 11-9 16v1l1 1v2l3 6c-1 5-8 6-10 1 2 5-1 11-3 6 6 7 5-4 10 11-11-6 6 24 14 24-5 1-11-1-16-4-3 9 2 15 6 21 0-5-3-9-5-12 8 7 15 15 22 22 20-8 23-10 45-13-11-1-19-5-29-5-5-5 2-6 3-7-30-10-19-17-35-17 0-6-4-7-4-8 4 0 6 2 8 3 0-9-2-15-5-20-1-5-4-6-4-8 3-6 4-12 8-15 2 3 3 8 5 10 2-11-2-4-4-10"/><path fill="#816455" d="M262 176c33 12 56 43 81 61-3 9-17 1-23 5 20 8 8-2 28 2 1-5-3-5-4-7 7-2 10-3 10-6-5-9-16-23-29-34 7 3 7 3 3-1-12-3-44-14-63-19"/><path fill="#534039" d="M388 457c-9 10-23 20-4 30 18 6 36-3 37-1 2-8 0-13-5-14-9-6-24-8-24-14"/><path fill="#332628" d="M271 404c-1 8 0 14 2 20 7 12 7 24 9 35-5 6-10 1-14 3-6-2-10-5-14-6 3-11 5-19 7-28-4 14-19 28-30 32 12 1 23-1 34 2 5 3 10 6 11 10 2 7-2 11-1 14 11 1 21 2 29 1-13-19-19-41-30-60-3-8-4-14-3-21"/><path fill="#9B7F68" d="M337 320c2 3 4 7 6 10 15 1 24 14 32 18 12 4 20 2 27-3-2-5-6-6-9-9 1-1 2-3 4-2 14-4-1 7 13 8 8 1 13 0 18-3 2-3 0-5 0-7-22 1-51-6-74 0-7-2-14-4-15-11"/><path fill="#9C7E65" d="M233 385c-7 1-14 4-20 7l-2 1 1 2-1 1h-1c-11 8-12 13-18 30 4 14 17 22 26 29 5-1 8-3 12-4-3 1-5-4-4-6 3-8 7-4 5-12-3-1-3 2-4 3-10-8-18-12-26-25 0-8 7-12 11-17 7-6 14-8 21-9"/><path fill="#CCCAC1" d="M371 374c1 9 1 17-2 24-2-8-7-2-14-10-1 7-9 1-13 9-1-8-8 2-6-5-3 9-4 21 0 28 12-8 32-7 42-25-6-3 5-7-5-20"/><path fill="#C1B9AD" d="M236 250c1 7 2 13 4 21-8 2-6-9-9-5-3 3-3 7-3 10 3 13 7 22 14 31-5 0-9-3-13-6 19 12 17 10 35 16-4-13-11-30-20-37-6-12-4-19-8-28"/><path fill="#BDB7AB" d="M213 336c-3 7-9-1-7 11-13-1 21 6 27 37-2-11-9-20-10-31 4 8 8 16 13 23 5 2 8 3 10 5 7-2 11-5 15-8-23-12-27-16-47-35"/><path fill="#997B63" d="M237 463c-27 3-11 8 0 20 4 1 7 1 8-1 0-4 0-7-2-10 5 5 7 11 15 12 7 1 6-8 4-11 7-2 12 6 11 9 3-11-4-17-12-18-9-2-17-1-24-1"/><path fill="#28242A" d="M384 284c-25-2-5 14-1 24 17 10 18-1 31 5 0-11-4-15-8-21-2 4-10-5-14-4-1 2-2 5-5 5-3-2-3-6-2-7 5-2 9-2 11 1-3-3-7-3-11-4"/><path fill="#7F6756" d="M192 428c-7 18 10 28 9 45 18 1 31 8 42 15 4-2 3-3 4-4-3 1-6 1-9 0-8-6-12-13-19-14 2-5 5-5 8-7-3 2-12 3-11-3l2-1 1-2c2-2 5-2 7-4-2 1-4 3-6 4-10-8-22-15-28-27"/><path fill="#A4A29D" d="M108 452c3 9 12 14 20 17 14 8 30 13 46 13-14-5-3-7-15-14-18-4-33-12-49-16"/><path fill="#644E44" d="M325 198c11 9 22 20 28 33 0 4-1 4-6 6-1 1 3 3 3 6-24-2-17 6-54-8 20 7 37 13 52 20 0 10-5 17-8 24 7-5 13-8 19-13 4-4 3-9 4-12-3-9-5-15-8-21s-6-9-7-13c-7-8-13-16-20-21"/><path fill="#AF8B6E" d="M234 191c-18 3-5 17 7 19 13 6 25 10 36 13-5-15-26-19-39-32h-3l-1 1v-1"/><path fill="#D2B18D" d="M230 387c-18 3-19 12-2 18 10-7 20 4 29-1-2-9-7-16-14-17-6 0-9-1-12 0"/><path fill="#EEF6F2" d="M356 154c7 11-6 10-2 30 9 8 18 17 25 25 4-2-15-47-20-51"/><path fill="#E1E5DA" d="M189 290c-2 8 2 6-1 13-4 0-6 2-7 0 3 6 3 14 5 21 15 32 0-15 16 20-1-12 4-15 2-22 5-5 6 1 7 2-3-7-5-15-5-23 1 2-1 4 0 7-4 0-7 2-10 0-4-5-2-11-3-15 1 9 1 18 1 28-6-9-3-20-6-28"/><path fill="#E2E7DF" d="M450 294c-10 4-28-3-19 20 11 0 9 12 26 10 0-12-9-15-7-30"/><path fill="#EDF4EC" d="M135 245c0 11 3 21 6 32 9 3 16 23 26 24-8-19-20-37-29-54"/><path fill="#344250" d="M492 114c-17 46-8 47-20 89 6-3 10-14 11-20 5-23 7-42 8-65"/><path fill="#BAB5AB" d="M381 389c-4 2-1 16-17 18 4-2 7 0 9-5-2 10 11 15 5 27 6-8 13-14 15-22-11-10 7-11-9-18"/><path fill="#9EC8CD" d="M485 130c-1 3-3 6-4 9-6-1-16-1-19 5-2 7-4 11-4 15 5 1 7-4 11-4 6 7-6 13 5 14-7 14-14 23-20 33 8-10 14-21 20-31 5-14 7-27 11-39"/><path fill="#968F8B" d="M430 389c-4 3-6 8-9 12 1 5 0 8 3 10 7 9 15 12 24 14-5-3-4-14-19-36"/><path fill="#EDF6EE" d="M223 300c6 5 15 12 23 15 2 6 11 8 16 7 3 5-3 3-4 6 16 3 30 11 43 2-16-8-36-8-52-16-10-2-17-8-24-12"/><path fill="#C0BBB0" d="M352 412c-4 4-10 0-16 11 9 8 12 19 23 30 0-6-5-10-6-16-1-10-1-18 7-22-3 1-4 2-5-2"/><path fill="#CFCDC2" d="M207 319c-2 8-3 13-5 21-10-4-10-21-7 1-4-7-7-13-11-18 0 10 2 19 3 29v-4c10 12 9-1 14 6-2-5-5-11-6-13 4 0 6 2 8 4 0-10 9-5 10-9 27 30-7-12-3-13"/><path fill="#9F9A94" d="M401 408c-3-1-4 6-6 1-2 17-9 28-15 40 10-5 16-16 23-25 8-10-2-10-1-16"/><path fill="#968D85" d="M135 414c4 11 9 22 21 27 6 4 11 6 15 8 12 1-4 0 0-5 3-3 4-1 6-1 18 4-2 10 11 8 1-7-2-5-9-8-27-8-27-17-41-27"/><path fill="#7C6C61" d="M216 333c8 14 22 25 38 32 4 3 7 4 10 5 7-5 11-3 14-8-12 0-22-3-33-6-10-8-20-15-28-21"/><path fill="#C6B9A9" d="M311 295c5 4 9 7 14 9-3 1-4 5-6 5 3 0 5-1 8-2-5 7-9 10-11 16-7-2-16 4-23 1 6 4 11 5 23 5 3-2 7-4 12-3-2-1-3-1-4 0 13-9 0-16 9-19-3 1-5 1-6-1 19-7-9-5-13-11"/><path fill="#BCB7AB" d="M189 349c-3 8 2 15 5 23 4 4 9 4 11 4 5-9-5-21-6-24-5-1 1 2-2 3-4-2-5-4-6-6"/><path fill="#E2E7DC" d="M290 338c-3 1-6 1-8 2-11 3-20 7-27 12 10-2 17-4 22 4 36-13-2-15 11-17"/><path fill="#83AFB9" d="M354 208c-2 2 17 33 18 50 3-15-3-29-7-44-2-2-3-4-7-7"/><path fill="#E7F0E7" d="M321 337c-1 2-2 3-4 3-12 4-23 10-32 19 9 0 45-16 40-21"/><path fill="#7D6F66" d="M193 460c-7 9-16 11-28 9 8 3 16 3 23 5 0 3-3 5-5 7 21 5 18-4 12-20"/><path fill="#E0E3DA" d="M361 186c0 6 6 11 12 17-3-4-8-7-10-10 10 1 17 7 18 15-3 2-6 1-6-2 3 12 10 23 16 23 1 0-3-3-1-6 2 0 2 6 5 4 2-7 7-13 7-20 1-8 2-13-1-17-4 1 6 9 1 14s-8 10-12 18c-4-5-3-12-7-16-5-5-12-15-21-18"/><path fill="#D1CFC4" d="M311 389c8 15-6 11-2 44 9-9 6-27 15-27-2-7-7-1-10-19"/><path fill="#C4BAAC" d="M307 331c-5 2-11 2-15 5-1 2 5 4 5 10-7 7-13 10-19 11-9 2-18 1-25-2 8 3 17 5 28 4 5-15 63-25 27-27"/><path fill="#EEF6ED" d="M202 258c4 9 11 17 12 30 2-3 0-5 1-8 3 6 10 4 10 0-3-11-11-19-21-21"/><path fill="#97C0C8" d="M451 122c6 0 1 17 2 25-3 14-6 24-12 33-1-5 3-11-4-13 0-15 10-1 9-11 5-10 5-21 4-32"/><path fill="#EEF6ED" d="M228 232c-4 11-8 22-6 34 6-2 6-8 9-11 2 2 2 5 3 7 1-11-1-20-5-28"/><path fill="#ACA49A" d="M373 404c-9 5 2 3-10 16 6 2 13-3 10 6-1 7-7 13-7 21 5-5 11-11 15-17 0-7-5-17-10-23"/><path fill="#C3BBAE" d="M126 215c7 11 16 23 24 35 5 6 10-1 14 10-6-18-22-31-36-44"/><path fill="#513E39" d="M343 465c-17 2 12 6 7 21 4 1 5-1 8 0 3-6 3-13-3-16-5-3-9-5-10-5"/><path fill="#7C6358" d="M478 166c-3 11-10 20-15 30 2 4 0 7 6 8-3 7-8 10-10 15 3-6 10-8 14-15-2-8 5-26 5-37"/><path fill="#9D9087" d="M371 407c-3 3-6 9-11 14 0 10 1 18 1 26 4-2 7-13 12-18 0-4 0-6-1-8-1 0-7 7-9 0 1-6 5-9 7-13"/><path fill="#938A83" d="M387 383c-5 4-7 5-8 7 3-6 9-4 12 1s4 12 3 18c2 4 4-3 8-2-1 6 7 6 5 10-7 14-16 26-25 33 1-11 9-21 10-34-7 10-13 21-12 35 11-9 23-19 27-31 0-8 2-14-1-19-4 5-8-1-9 6-4-8-1-20-10-21"/><path fill="#7F6658" d="M357 233c3 9 7 17 7 27-2 6-6 8-8 10 4-6 8-3 11 2 7-5 11-10 11-15-1-6-1 5-6 4-5-11-7-16-15-25"/><path fill="#60514C" d="M334 315c1 6 3 13 7 18 15 17 33 21 47 33-4 0 0-3-1-4 9-2 15 0 23-1 1 3 4 5 4 6-2-8 8-5 12-8-20 4-41-1-58-8-10-6-18-10-25-16-5-7-6-13-9-18"/><path fill="#5D4840" d="M189 440c1 14 12 26 12 41 4-1-2-3 0-4 12 9 27 4 40 11-10-7-23-12-38-12-1-14-10-22-13-33"/><path fill="#CFCBC0" d="M360 201c4 5 11 9 12 16 3 6 5 12 1 17 2-1 4-5 5-7 6 2 12 5 18 4-7 10-17-24-33-29"/><path fill="#D2CABB" d="M323 309c-8 1-4 8-30 10-4 3-8-11-10-7 5 3 5 7 7 10 9 4 16-1 21 0 7-3 9-10 17-13"/><path fill="#948E89" d="M419 402c-9 12-11 22-10 38 2-3 5-8 6-12 3-9 4-17 2-24"/><path fill="#B3A294" d="M211 283c3 18-3 21 0 31 1 5 3 15 11 22-9-40 0-28-13-47"/><path fill="#6B8998" d="M428 223c-4 6-8 7-10 9-2 8 5 7 7 11 4-4 7-7 9-11-2-2-2 1-7-3-2-2 0-2 0-3"/><path fill="#D0CDC0" d="M267 340c-14 9-30 15 2 17 2-1 5 0 9-1 4-2 8-2 10-5 1 2 0 3-1 4l3-3c5 1 3-3 7-9-11-5 3 0-6 8-5 2-8 4-11 4-9-6-15-3-26-1 4-8 18-9 12-13"/><path fill="#CDD0C9" d="M360 363c-4 5-7 16-3 23 4-4 7-7 9-11 0-4-5-6-7-9"/><path fill="#9F7764" d="M463 197c-3 3-6 7-8 11-3 5 3 7 3 9-7 10-23 18-23 17 8-2 15-9 22-14 4-5 5-7 8-9 5-8-3-7-2-13"/><path fill="#9EC7CD" d="M451 122c1 13 1 25-4 35-7 4-10 5-13 12 2 2 3-9 6 0 4 3 0 7 1 10 10-15 12-39 12-56"/><path fill="#EFF6F2" d="m431 314-2 2c1 4-1 9 1 13 3-1 5-2 8-1-2-7 6-16-6-16"/><path fill="#533E39" d="M306 416c-1 8-1 15 2 21 4 9 5-1 7-2 2 3 4 5 4 7 0-5 5-11 1-18-7 2-7 5-10 12-3-3-4-10-5-17"/><path fill="#B68670" d="M453 211c-6 7-12 15-16 23 6-4 12-9 19-14 1-3-3-6-4-8"/><path fill="#948C83" d="M163 469c6 7 0 6 14 11 5 3 7-3 12-4-8-2-17-3-25-6"/><path fill="#BEB5AA" d="M352 179c-3 8 3 13 8 20 6 7 8 4 14 7-6-9-19-15-23-25"/><path fill="#775E4D" d="M259 397c1 3 4 11 8 17 1-7 2-11 4-15-5-1-7-3-11-2"/><path fill="#A0968C" d="M161 402c7 3 15 9 24 10-2 4-3 5-6 4-7-2-12-7-16-12"/><path fill="#574945" d="M399 333c-5 4 8 15 14 13 17 5 24 1 32-6 0 1-1 0-2-2-8 2-5 4-8 10-10 0-5-6 0-4-9-1-13 1-21 1-7 0-16-5-13-12"/><path fill="#806858" d="M242 470c4 7 6 8 8 14 3 1 5 3 8 2l2 1h1l2-1 1-1v-1l1-2c-1-2-1-3-1-4 3 3 3 5 2 6 3 3 7 2 8 0l1-2-2 2c0-7-5-11-12-12 3 2 4 6 3 10v2h-2l1 2-2 1h-1l-2-2c-8-1-11-8-14-13"/><path fill="#A5A29B" d="M448 329c-3 6-11 1-16 11 9-13 21 9 18-11"/><path fill="#E3E6DC" d="M152 252c2 13 10 17 11 21 0-2-1-5 0-8 4 1 5 4 6 7-1-3-1-7-2-10-1 4-8-8-14-6"/><path fill="#D3CFC2" d="M232 259c-4 3-5 9-8 12 5 10 11 28 7 32 7 2 3 4 10 3-7-8-11-17-13-27-4-14 4-14 4-18"/><path fill="#7D6E66" d="M332 400c-3 6-10 6-10 13 3-1 4-4 6-5 1 11 3 18 7 25-5-9-3-20-3-31"/><path fill="#927664" d="M325 196c17 13 30 31 38 49-1-10-8-18-13-26-8-9-15-17-23-22"/><path fill="#BFB4A9" d="M183 265c5 15 8 30 9 46-1-7 1-12 0-20-2-9-4-17-8-24"/><path fill="#BFB8AC" d="M168 295c2 6 5 11 7 16-1 10-6 1-7 0 2 4 6 8 8 12 0-7 1-7 4-5-3-6-5-16-11-20"/><path fill="#E3E5D8" d="M285 312c2 2 5 6 8 5 10 0 18-3 26-4-11-2-23 5-33 1"/><path fill="#CFCEC5" d="M332 354c3 3-8 12-7 18-3-1-4-3-3-6 3-1 4-8 8-9"/><path fill="#5E4B44" d="M298 472c3 5 5 10 9 14 4 5 8 7 13 7-7-4-15-15-21-18"/><path fill="#6C5548" d="M333 247c8 0 18 3 24 9-7-3-15-4-21-8"/><path fill="#77685F" d="M257 386c6 3 18 5 20 7-4 14-5 0-5 15 1-6 5-10 9-14 8-3 14 2 18-3-10 1-28 2-40-4"/><path fill="#463536" d="M382 303c6-1 12 5 19 5-7 3-13 3-16-3"/><path fill="#E0E4DA" d="M171 250c4 12 11 22 16 33-5-10-5-23-15-31"/><path fill="#D4D5CA" d="M279 387c-38-3 10 7 9 0-3 0-6-2-11-1"/><path fill="#A59B91" d="M162 403c6 6 13 14 22 12-8-4-14-7-20-11"/><path fill="#9E9991" d="M171 443c-1 6 8 6 13 7-1-6-6-6-10-8"/><path fill="#796252" d="M278 426c4 17 15 30 20 45 3 4 2 4 5 4 5 8 11 11 15 17-3-7-9-10-14-14-10-18-20-33-25-51"/><path fill="#17151B" d="M375 285c3-2 7 0 10-1-3 5-11 1-8 9-3-3-10-6-3-8"/><path fill="#9A8C83" d="M338 428c-4 11 9 16 15 21-5-5-9-12-15-18"/><path fill="#D4D2C6" d="M418 225c-5 1-11 2-13 7 5 5 14-10 16-7"/><path fill="#B9B9B2" d="M357 352c-6 8 4 2 2 8-4 3-5 4-6 5l3-3c4 4 8 8 13 10-1-5-9-12-12-17"/><path fill="#CBCFC8" d="M354 354c-4 2-8 1-10 5 15-1 16 5 10-5"/><path fill="#C6A286" d="M448 266c0 7 7 23 4 35 2-11 3-24-3-32"/><path fill="#645954" d="M402 371c3 1 5 9 4 14-5-3-5-7-4-12"/><path fill="#806859" d="M317 472c6 6 6 14 10 18 3 2 5 2 6 1h3l-3 1c-5-6-8-13-14-17"/><path fill="#7D6456" d="M329 473c8 6 9 14 16 20 0-8-8-13-14-18"/><path fill="#C0B5A7" d="M218 302c5 8-2 9-2 16 1-9 6 3 10-1-2-4-5-8-7-13"/><path fill="#30363F" d="M393 291c5 0 10 2 13 5-3 1-8 2-12-3"/><path fill="#E5EDE4" d="M360 185c3 2 8 6 13 8-5 1-11 0-13-5"/><path fill="#A08D80" d="M184 319c-1 6-3 12 0 17-4 3-7 2-10-2 1 15 4-6 13 23-2-8-3-14-3-19v-17"/><path fill="#38292A" d="M357 421c-5 6-2 16 1 22 0-7-1-14-2-20"/><path fill="#F8F8F6" d="M365 211c3 6 6 13 8 19 0-6 1-13-6-18"/><path fill="#AD9F92" d="M159 275c6 20 13 18 14 28 0-7-9-16-11-26"/><path fill="#E2E6DB" d="M156 293c5 5 8 11 12 17 5-3 2-5 2-8-6-1-10-1-12-7"/><path fill="#5F514E" d="M419 410c1 4 0 7 1 11 5-7 12 4 18 3-5-3-13-6-17-12"/><path fill="#F0F6F0" d="M400 192c-1 5-2 12-2 17 5-5 5-11 1-15"/><path fill="#DCBF9E" d="M407 271c4-2 7 5 10 6-3 3-11-4-8-4"/><path fill="#E5CBA9" d="M393 258c-4 1 5 9 11 10-4-7-5-5-10-8"/></svg>