<svg xmlns="http://www.w3.org/2000/svg" width="600" height="600"><path fill="#9D7958" d="M394 100c1-1 3 0 4-1-6 34-22 65-30 97 14 2 27 4 38 11 4-6 6-12 9-17 27-22 55-37 83-51 44-5-11 44-14 60-22 11-40 17-57 25 14 20 19 45 25 67 2 17-1 29-8 40-4 5-8 6-11 7-17 2-29-1-41-6-1 7-4 13-5 20-6 6-12 1-16 3 1 22 5 40 6 59-6 10-16 17-22 23-1 7-1 11-1 16 4 15 11 34 22 39-20 2-36 6-52-2-1-10-8-38-3-56-9-14-18-23-25-36-2-7 2-10 2-14-4 2-6 5-10 6-2 10-2 19-4 27-1 8-5 11-9 14-1 12 0 21 1 31 14 20 16 30 21 35-12 3-24-1-36 1-7-2-11-5-15-10-10-15-10-31-14-46-13-16-29-27-34-45-3 0-5 0-8-1-5 11-13 22-19 32-4 25 6 45 13 62-15 2-25 0-35 0-4-20-3-41-1-59-7-17-13-31-18-46-13 6-24 12-30 27-6 17-5 38 1 52-6 2-10-2-15-5-3-6-6-10-7-15-1-13 0-22 4-30 12-29 37-48 49-76 4-21 12-39 17-58-3-11 2-25 4-40 8-13 17-21 30-29 0-14-16-21-22-28 10-2 18-4 26-3 11 0 17 9 26 11 9-6 16-1 22-5-2-5-8-7-6-12 8-3 15-1 21-2 15 2 26 5 35 12 12 7 18 12 27 20 9 1 15 2 21 4-3 5-11-1-18 2 8 0 15 1 20 1 1-8-2-13-5-19-1-7 2-12 5-17 10-19 21-37 34-52 12-14 23-19 24-20"/><path fill="#F0EECE" d="M244 197c-10 7-14 17-18 27-5 16-6 31-6 46-6 5-13 6-20 5-7-2-5-8-5-12-8 2-1 12-1 16 3-5 8 1 14-1 0 4-2 8-4 11 3-3 5-7 7-9 8 1 14 2 19 3 7-3 11-7 16-10 3 1 3 3 6 2 0-3 0-6 4-7-2-1-4 2-5 2 6-8 10-16 18-21 10-8 20-13 28-18-1 4 1 1 3 4-7 3-12 1-15 6 8 2 12 1 17-5 10 1 2 3-1 4 4 1 7 0 11 1 25-19 29-36-7-30-10 0-18 5-27 9-6-15-23-15-32-24"/><path fill="#F7F4D6" d="M366 202c-2 3-2 7-3 11 11 6 24 9 32 18 5 11 9 20 7 31-7-10-10-18-16-26-5-7-10-9-15-6 10 9 18 18 24 29 9 16 16 32 24 47 4 6 9 9 13 12 6 1 10 0 13-1 7-10 4-21 2-30-4-22-17-40-23-59-7-10-16-18-25-22-11-4-21-5-32-4"/><path fill="#886E4A" d="M323 241c-18 9-27 37-31 44 0 37 6 71-6 94 22-13 25-14 40-27 4-3 2-6 3-8-7 3-12 9-18 10 11-9 20-17 30-23-3-32-19-58-19-89"/><path fill="#422E22" d="M363 318c-8 7-12 6-23 24-9-1-10 9-11-2l-1 3 1-3c2 3-1 8 2 10l-19 19c-7 11-10 28-10 34 3 4 13 17 20 26 4 22-2 45 10 61 4 0 13 4 14 0l1-2 1-1c1 2-1 3-1 4 6 2 10 2 15 2 0-4-6-7-4-10 5 3 5 10 11 8-5-6-5-10-8-13l-1-1 1 1c2 2 0 2 0 5-2-1-2-4-2-2-5 1-3-4-6-1-2 3-2 2-4 8l-1-2-1 2-2-1c-4-3 0-6-5-7-10-3 3-46-10-53 1-23 4-33 6-49 2-5 5-10 8-17 5-1 3 4 2 5 2-6-1-13 4-20 7 1 15 4 20 5l1 2-1-3c3-8 2-19 5-26-4 0-8-3-13-5"/><path fill="#DF753B" d="M257 271c-6 1 2 1 0 6-5 3-9-1-11 0-7 6-13 9-20 12-5 9-6 18-9 26-10-5-4-19-10-23-5 7-7 13-8 20 12 6 20 16 27 28 1-4-1-9 4-9 6 5 9 10 11 15 6 2 12 2 15 0 1-13 1-27 3-37 1-3 7-5 7 1 4 9 3 16 2 24 5 0 5-5 6-8-2-15-5-51-4-53-3-3-8 0-11-1"/><path fill="#714426" d="M199 306c-4 5-1 9-5 12-6-1-1-7-8-5-12 1-21 5-30 9-1-2-3-4-4-6 1 2 3 4 3 6 4 10 7 21 10 32 1 12-3 20-1 30 2-6 9-4 10-2 1 4 6 16 7 23 3-4 6-8 7-13-7-23-8-45-18-64 9 12 18 26 31 37 0-7 1-12 3-17 5 5 20 5 24 2-3-9 3-4-1-15 1 3 1 5 0 6-4-5-7-10-13-14 0 1 1 4 0 6 4-16-19-14-17-24"/><path fill="#754629" d="M218 370c3 7 5 15 4 24-2 2-5 5-5 1 2 6-4 10-2 16 4 14 15 21 24 28 4 15 0 31 6 44 4 6 7 11 14 9 1-5 3-10 8-13 5 1 7 5 9 7 2-2 2-7 7-7-9-13-15-26-15-40 0 1-2 3-3 3 1-6 5-9 7-12 3-2 5-4 7-5-2 0-4 5-5 3-4-5 4-6 1-9-4-2-16 7-18-4-5 3-15 8-19 15-5-2-17-9-23-19 8-4 14-7 20-11-6-11-12-19-16-28"/><path fill="#69432D" d="M345 361c-10 18-12 40-13 62 14 19-4 46 14 62 2-2 3-4 4-7 5-1 9 4 9 3-6-19-9-27-8-43 7-8 14-13 20-19 2-18 0-34-3-49-1 13-6 26-14 37-6 9-12 16-20 18 4-18 4-36 12-51 1-5-1-8 0-12"/><path fill="#A3572C" d="m360 251 1 1c1 4 3 11 5 17-2-6-2-12-6-16 9 7 19 10 22 20 6 10 9 20 12 29-16-8-32-13-40-25-14 5-23 1-11 24 8 9 19 14 30 19 15 8 28 12 42 16-18-13-37-24-58-32-1 1 1 2 0 4-4-3-5-11 1-11 19 12 40 22 57 36 9 4 17 1 23 0-5-7-10 3-16-1-9-7-17-13-25-20-3-10 7-10 8-10-18-13-19-43-43-50"/><path fill="#70634E" d="M511 139c-15 5-21 12-33 21-9 9-29 23-26 31 5 0 11 4 16 9 4 0 8 6 12-2 2-8 37-50 36-60"/><path fill="#F2EECC" d="M222 191c-4 1-7 2-11 4-17 16-33 20-48 35-17 12-1 32-11 40 2 0 4 0 6-1 4 5 6 9 8 13 9-1 13-2 16-5-5-8-10-18-12-28 0-7 1-10 3-14 7-17 19-10 24-20 0 3-3 6-4 10 2 3 5 4 7 5 2-14 24-35 27-41"/><path fill="#8B6F4C" d="M358 147c-7 14-15 27-21 41 5 14 12 36 14 41 10-18 15-46 24-64l1-2h-1v2c-5 7-14-2-20-3-1-2-2-8 3-13"/><path fill="#F3F4D9" d="M232 176c11 15 22 25 38 30 18-1-2 2 41-2-15-10-25-18-37-23-14-5-26-5-40-4"/><path fill="#E8A462" d="M363 228c-6 3-11 8-10 15-2 13-1 23 2 32 11 13 24 20 37 27-2-16-23-19-28-35-4-6-4-12-6-16 5-1 9 1 13 4 17 13 20 32 30 44-3-15-7-28-16-39-9-10-17-15-23-18-2-5-4-8-1-13"/><path fill="#DE753B" d="M156 272c-3 14-7 34-1 48 11-4 21-9 32-9 3-8 6-15 9-21-6 3-12 6-17 10-3-6 2-8 8-14-7-2-11 2-18 0-6-3-7-8-11-11"/><path fill="#E69B57" d="M239 357c1 6 6 10 4 17-3-1 1-7-4-5 3 4-1 10-1 14-18-17-27-19-2 13 5 5 16 10 23 16-4-6 9-2 11-9 2 3 6 3 6 5-10-16-20-31-29-46-3-1-5-4-6-4"/><path fill="#726651" d="M398 103c-15 7-28 28-32 34-5 12-16 17-11 24 7 3 16 8 19 4 8-18 19-45 25-60"/><path fill="#E6A05D" d="M282 244c-3 1-6 2-9 4-9 7-16 15-15 24-3 5-1 4-3 1 3 8 8-10 14 4 2-8 2-17 6-24-4 13-3 29 0 43 3 1 7 1 10 4-4-17 16-54 1-58"/><path fill="#6C432B" d="M169 389c2 3 1 8 2 11-10 0-15-1-22-4-5 0-7 3-9 6 3 9 7 17 11 26 0 15-3 27 0 39 0-12 3-23 7-34 9-9 12-20 19-29-2-7-1-14-5-16"/><path fill="#E6A360" d="M213 212c-7 10-12 22-14 35 0 7 0 12-1 16 0-5 8-1 10-1 2-7 2-14 4-21 0 11 0 21 2 29 4 2 3-36 12-51-3-5-7-4-11-6"/><path fill="#D7703C" d="M132 353c-9 17-38 33-46 63-6 12-6 28 1 37-2-11 0-23 3-33 26-31 2-12 40-46 2-6-1-14 1-21"/><path fill="#866C4B" d="M142 312c-6 26-14 59-4 87 5-1 7-5 10-6 7 5 14 6 20 7 2-4 1-7 0-10-7-1-10-4-17-6 1 2 2 4 3 5-6-3-11-9-11-12-4-10-5-45 0-63"/><path fill="#E8A45F" d="M337 234c-2 4-6 7-7 11 3 12 5 22 7 32 4 4 10 1 14 1-2-12-1-26-5-37-1-5-5-5-6-7"/><path fill="#BF602F" d="M239 398c-23 8-27 22 0 31 2-5 13-12 18-13 1 3 7 5 12 3-12-4-21-14-32-21"/><path fill="#E5CF9C" d="M154 330c1 13-6 12-7 19-2 0-2-1-3-4-1 9-2 18 0 27 3 12 15 13 23 16 3-9-1-2-4-1-2-14 4-26-2-38-1 9-1 18-4 26 6-29-2-26-3-41"/><path fill="#271310" d="M369 359c-2 11-9 21-16 30-3-5-4-11-5-16-8 14-9 32-12 49 13-5 19-16 24-27s6-26 9-34"/><path fill="#2A1511" d="M173 331c8 20 10 42 17 62 3 4 9-3 11 3 0-9 1-18 0-28-12-12-19-22-27-35"/><path fill="#E59E5C" d="M185 223c-5 8-12 14-13 23 1 5 2 7 3 10 7 0 14 2 18 2 3-7 4-16 7-24-4 1-10-5-12-1-2-4 2-6 0-10"/><path fill="#E3C48E" d="M262 308c-2 9-2 23-1 34-3 9-10 8-15 7 0 6 4 9 8 11 9 1 17 0 19-6 0-9 2-14 2-20-3 1-6 6-9 3 0-10 2-21-2-28"/><path fill="#8E6F49" d="M205 347c-3 20 4 37 2 59 5 5 6 9 8 11 0-15 1-28-2-44 3 6 3 15 5 23 6-4 1-11 3-16-3-12-11-22-15-32"/><path fill="#AA5F30" d="m338 212-1 2c-5 9-10 18-11 28-1 12-1 21 3 28 7-8-6-21 3-31 5-6 8-7 13-3 4 5 4 10 6 14-1-6 0-12 3-17 11-10 36-11 6-17 0 7-1 14-8 16-3-6-4-9-6-13 0 5 5 7 3 12-2-6-6-3-8-1-3-8-2-13-1-18"/><path fill="#846648" d="M452 184c-10 12-19 25-28 37 31-10 64-23 25-29 1-5 4-1 1-6"/><path fill="#EAD8A6" d="M194 279c-4 1-5 7-16 18 5-4 12-7 16-10 6 4-6 20 1 22 5-10 9-20 9-22h3c8 2 5 17 8 25 2-7 4-14 7-20 3-5 6-6 9-8-5-2-11-2-17-3-5 0-4 3-5 4l-2 2-3-1c1-2 4-3 4-6-5 0-9-1-14-2"/><path fill="#605545" d="M350 347c-5 12 1 27 2 40 9-9 13-21 17-33-5-4-11-5-16-7"/><path fill="#29130F" d="M249 360c8 16 18 31 28 46 1-9 4-19 2-29-2 3-4 10-8 4-3-7-4-13-5-19-5 1-10 2-15-1"/><path fill="#F4F5DB" d="M169 183c8 7 20 13 20 23 8-2 14-8 20-12-6-4-10-8-15-10-10-1-17-1-24-1"/><path fill="#D5703A" d="M456 166c-13 7-26 16-38 26-3 7-6 11-8 15 4 5 7 8 10 12 0-8 9-24 6-20 8-8 2-8 29-33"/><path fill="#D36D3A" d="M160 433c-6 14-9 28-9 44 2-1 10-3 11 5 2-3 7-5 7-7-5-14-7-27-9-39"/><path fill="#E9AA68" d="M468 163c-7-1-16 6-25 16-7 8-11 16-14 24-3-4-4-5-1-7-3 5-4 12-3 20 13-19 26-37 42-52"/><path fill="#625442" d="M331 282c6 34 9 35 11 47 7-5 13-7 18-11-7-5-14-10-20-17-5-6-2-12-8-15"/><path fill="#EFE5BB" d="M151 287c-8 20-9 43-8 67-1-14 9 0 10-25 3 7 3 12 3 18-1-6 1-6 3-2-1-11-6-20-9-30 0 4 0 11-3 14 0-15 2-28 4-40"/><path fill="#6D624D" d="M374 326c3 8-6 22 1 26 8-1 11-10 12-8-3-5 2-10 3-12-5-2-9-4-14-6"/><path fill="#78492B" d="M289 281c-3 20-4 47-4 69 1 3 5 5 7 7 0-38-7-56-2-75"/><path fill="#EBC086" d="M236 192c-3 0-6 5-8 4-7 4-11 10-15 15 4 2 9 2 13 4 1-9 21-20 12-23"/><path fill="#B29469" d="M368 229c-1 3-6 5-4 9 14 6 26 19 32 32-2-11-8-22-26-39"/><path fill="#94734C" d="M304 243c-2 1-4 0-5 1-7 10-9 26-10 39 1-13 22-36 19-42"/><path fill="#E07F43" d="M274 299c3 15 6 30 10 45 1-13 1-27 0-41-1-6-5-3-7-5"/><path fill="#977952" d="M393 256c7 16 4 26 14 43 5 7 10 13 17 16-15-18-19-39-31-58"/><path fill="#EBDDAD" d="M211 356c4 5 4 11 26 23 2-11 3-12 0-16 0-3-3-2-5-3-3 4-2 7-9 5-5-2-4-10-11-9"/><path fill="#29110E" d="M368 259c0 6-1 12 4 17s10 8 15 12c-2-11-8-21-18-27"/><path fill="#3B251E" d="M337 474c1 5 6 9 9 13v3l1 2h-3c-3 1-8 0-12 0-8-15-9-15-1 1 15 2 23 0 38 1 3-9-10 7-9-18 1 11-13-5-12 13-4-6-9-9-10-14"/><path fill="#311A14" d="M408 304c4 9 7 18 13 26 8-2 19-2 23-1 2-5 3-6 3-8-4 1-8 3-13 2-8-5-15-8-21-13 4 5 23 12 16 14-13-6-14-8-20-18"/><path fill="#6E4127" d="M94 414c-4 12-3 27-7 35 1 10 6 11 11 14-8-15-3-33-3-49"/><path fill="#2D1A13" d="M331 350c-15 14-28 25-44 35-1 1-2 3-1 5 5-3 9-8 15-11-3 7-3 12-2 18 0 4 3 5 3 7 7 10 13 17 19 25-5-8-12-15-17-24-2-5-3-8-2-14 3-17 14-30 28-39"/><path fill="#2D1913" d="M182 405c-18 35-6-5-18 25-2 7 0 12 0 17 1-7-3-16 2-20-3 8 5 19-2 25 4 3 0 4 2 6 3 13 4 21 12 28-5 3-10 2-14 2-1-4 0-6 2-9-2 6-5 3-3 8-4 3-7 2-10 3-1-4-5 0-3-2 5 1 9 2 12 2 7 0 14 0 20-2-18-46 1 17-17-30 3-7 5 4 5 6-2-9-1-21-3-32 4-9 9-15 13-21"/><path fill="#4E352B" d="M268 479c-5 7-5 7-7 13-2 4-4 1-7 3 7 2 14 1 23 2 1-5 1-18 0-6-4-5-3-7-10-10"/><path fill="#EEE6BD" d="M230 334c-1 8 0 18-1 26 3-4 4-1 8 0-1-1-3-3-2-6 6 0 6 0 10 4-5-9-8-16-14-22"/><path fill="#E18143" d="M176 257c0 5 9 20 12 22 0-9-3-16 6-20-6 1-10-2-14-2"/><path fill="#452E26" d="M351 479c6 0 11 8 13 13-7 2-12 2-17 1 1-5 2-8 3-12"/><path fill="#95764F" d="M297 206c-7 0-19 2-24 3 4 3 4 6 6 9 7-8 40-10 22-13"/><path fill="#BB9876" d="M240 232c2-1 5 5 6 7 1 7 0 11-4 13-6-5-6-12-4-18"/><path fill="#4F332A" d="M171 476c-5 7-8 5-7 11-1-5-6-4-6-9-5 4-5 4-6 9 1 3 6 1 9 2 16 1 17-4 8-11"/><path fill="#675540" d="M278 331c-2 18-1 7 1 18-1 9-11 11-11 15 5 1 7 0 10-1 4-3 3-6 4-9-2-7-2-13-4-19"/><path fill="#DA7B43" d="M283 366c-4 12-2 32-3 46 2-14 5-28 4-45"/><path fill="#E48747" d="M271 402c-1 9-14 7-13 9 6 9 35 5 11-7"/><path fill="#E89251" d="M399 303c-1 2-1 6-1 7 10 11 15 9 20 19-7-8-7-21-16-26"/><path fill="#E18245" d="M200 261c-1 4-1 6-2 9 5 3 8 2 12 3 0-3 1-5 0-8-3-3-6-4-9-3"/><path fill="#E5CA96" d="M280 363c-3 5-5 4-10 5 0 5 1 9 3 12 4-4 6-9 7-14"/><path fill="#E5B277" d="M387 226c-9 4 10 15 11 26 1-7-2-8-2-13-3-5-5-8-7-11"/><path fill="#E9BE8F" d="M498 143c-12 6-24 11-35 19 2 1 3 0 5 1-4 5-7 9-11 11 4-2 6-6 10-8 11-10 21-17 31-23"/><path fill="#3E261C" d="M179 398c-1 13-10 18-11 28l-2 3h-2l1 2v1c-1 6 1 10 0 16 3-7-2-14 2-19 9-6 6-13 14-20-2-3-1-7-2-10"/><path fill="#2B1711" d="M233 435c4 22 9 22 5 32 4-5 2-14 3-21-1-7-6-7-7-9"/><path fill="#5D3E30" d="M282 482c-3 3-5 8-1 13h7c-3-8-1-6-5-11"/><path fill="#DEC699" d="M203 370c2 12-5 28 3 35 0-11-1-23-2-34"/><path fill="#3E2822" d="M407 303c4 2 6 11 10 14 1 4 2 5 5 6 4 0-5 0-4-5 5 3 9 5 12 5-5-4-12-7-21-20"/><path fill="#EEE4B7" d="M209 350c6 7 5 16 16 18 3-3-4-6-15-17"/><path fill="#83694C" d="M218 352c-4 3 6 6 7 9 1-3 1-5 1-8-2 0-4-1-5 0"/><path fill="#F2ECD5" d="M326 231c-9 7-16 17-22 26 4-11 18-14 22-24"/><path fill="#E59256" d="M133 344c-6 11-13 21-22 30 11-10 22-21 21-27"/><path fill="#D1B783" d="M151 359c3 4-1 20 6 17-9 1-5-8-7-13"/><path fill="#724327" d="M332 267c1 4-1 5-3 6 2 5 3 10 5 14 0-6-2-13-1-19"/><path fill="#653F2D" d="M347 330c-5 4-11 6-15 11 6 3 9-7 13-9"/><path fill="#925029" d="M272 417c2-1 6-1 4 3-2 3-4 5-4 8 8-4 12-15 1-11"/><path fill="#E2DFBD" d="M324 217c16-1-5 4-9 6 2-4 5-4 8-5"/><path fill="#EDE3B5" d="M212 356c7 0 7 8 10 7-2 4-9-3-8-4"/></svg>