<svg xmlns="http://www.w3.org/2000/svg" width="600" height="600"><path fill="#806757" d="m389 117 2-2c4 2-3 12-3 16 12-13 39-18 12 5 18-3 37-2 47 7-10 2-10 2-8 8 5 5 12 13 14 21-4 2-8 1-13-1 15 30 27 57 36 87-4 21-3 35-6 54-10 13-24 20-37 24 6 11 14 19 18 29 2 8 2 15-2 19-3 5-8 2-10 6 1 11 3 23 3 35-1 9-1 17-5 22 9 3 21 10 25 19-4 6-10 5-13 7-26-1-49-10-73-5-9 1-15 4-17 11-11 6-24 1-28 3-9-3-16-4-22-8-3-15-14-23-24-31-11-5-18 2-29 1-14-17-31-17-48-26-9-11-17-20-22-31-12-22-10-47-18-68-7-7-15-7-24-6-8 2-14 3-20 6-3-1-2-4-3-5 4-14 10-23 18-31l-9 3c1-6 2-10 6-12 8-10 18-16 29-17-2-2-10-1-8-6 14-3 27-1 37 3-1-3-5-5-7-9 5-2 9-1 13 0 15 2 27 16 34 16 6 3 11 8 13 14 17 23 6 57 20 79 3 9 8 15 14 20 6-19 15-36 24-53-10-7-16-17-25-24-6-8-7-15-8-22-1-13-1-23 2-32 5-15 9-27 16-38-8-6-22-16-26-29-2-8-3-14-3-20 3-15 7-26 14-37 21 11 36 16 59 41 6-4 12-3 17-6 16-28 18-6 36-38"/><path fill="#272D3A" d="M341 202c-8 1-17 7-19 15-2 15-1 26 8 36 7 7 14 10 21 14 13 5 27 3 38 3 5-7 4-15 2-23-2-11-7-19-12-27-14-11-12-11-26-17-5 0-7-2-11-1"/><path fill="#FCFBEA" d="M330 273c-41 24 12 32 18 35 7 4 17 6 27 2 1 2 0 4-1 6 7 3 15 4 23 3-2-7-8-13-4-22 7 5 13 3 21 3 6 1 9-2 13-4-5-9-14-9-14-15-7-2-11-5-17-5-8 1-16 7-26 5-16 3-28-2-40-6"/><path fill="#482520" d="M306 333c-13 20-16 43-21 69-1 13 0 24 4 33 7 11 14 13 22 20 13-3 31-5 42 3 5-5 0-12-3-16-14 3-36-12-39-5-10-3-13-11-16-15-6-10-6-19-5-29 1-14 5-26 10-37 7 14 19 23 30 29-4-5-16-7-17-17 15 7 27 14 43 13 12 1 21-3 30 1 6-3 4-7 5-9-3 2-5 3-8 4-18-4-37-4-51-11-5-1-8-3-11-5-3-7-5-12-4-18 3-7 9 0 13-1-8-2-17-5-22-8"/><path fill="#D88E49" d="M302 364c-4 7-5 13-6 22-1 10 0 19 2 26 6 10 14 15 21 20 8 0 16-4 23-4-6-12-12-24-13-39-10-6-19-15-25-23"/><path fill="#F7EDC7" d="M336 390c-9 11 8 32 15 48 1-5 5 0 4-10 5 4 3 13 9 11 2-4 4-8 8-10 10-10 19-2 23-13-6-4-12-14-21-16-6-4-14-1-20-4-2 4-3 8-4 11-4-5-3-9-4-12-3-2-4-3-6-4"/><path fill="#DC9654" d="M390 177c0 6 7 8 10 13-25-17-19-11 0 3-2 8-12 10-15 4 17 21 19 25 24 45 11 1 23 1 31-4 2-11 3-16 4-23-3-3-9-4-12-5-3 2-4 8-7 6-12-12-20-30-33-36"/><path fill="#462520" d="M277 186c4 11 14 10 22 15-9 21-13 28-17 47-1 8-2 18 0 24 6 13 9 24 20 32 4 6 9 8 14 9-1-5-3-9-4-13-5-4-12-5-17-9-5-7-10-12-11-18 1-5 1-8 3-10 29-1 5-4 21-5-2-13 0-24-10-32 1-12 5-19 8-27-11 0-20-3-28-10"/><path fill="#090718" d="M265 168c-2 3 2 12 5 17 8 10 16 15 23 16-8 14-14 28-18 43-2 16-3 28 1 38 5 18 18 27 30 37-11 21-17 36-22 56-8-4-13-10-16-15-5-12-9-21-11-34 1 11 5 21 7 31l2 2 1 1c3 7 8 14 15 18-2 15-5 26-4 40 0 8 3 14 6 19-3 1-5 2-6 1 9-1 14 14 24 17 4 7 3 13 7 16 7 6 16 8 23 11 1-4-1-9-2-12 1 3 2 5 0 8-7 0-12 0-17-4-6-6-5-12-7-17-5-8-11-7-17-17-4-8-7-15-8-22-1-12 0-22 2-30 5-23 13-43 24-61 17-1 33 9 49 12-2-6 5-2 8-2-31-8-40-19-49-16-16-11-28-20-33-32-9-13-7-31-5-44 4-17 11-29 19-42-5-5-13-5-18-11-8-8-11-15-13-23"/><path fill="#DAD1B2" d="M211 253c7 4 14 10 20 15-3 8-11-6-17-6 3 4 8 7 11 12-1 5-3 0-5 0 2 1 3 4 5 6-7-2 0 6-4 14-11-5-20-13-27-21-1-9 7-1 10-5-4-1-8-4-12-7-9 3-17-1-27 1-11 3-16 5-22 9 6-3 14-5 21-7 1 3 7 7 1 9 5 4 10 6 15 9 2-2 2-6 6-4 7 7 13 12 16 20 31 24 22-2 31-24l-2-2v-1h1l-1-3c-7-8-10-9-17-14"/><path fill="#7D7069" d="M370 387c-6 3-30 0-21 8 14 0 21-9 36 2-6 4 9 13 16 15 15 2 20-10 28-6-7 9-6 31-19 42-5-3 2-9 4-13-6 11-35 19-27 22-9-2-13 5-17 1-12 0-7-17-13-11 1 2 7 9 1 15 24 0 47-2 63-10-4-3 2-7 7-12-2 3-12 12-8 3 5-10 9-19 10-29 4 1 2 5 3 8-2-4 2-17-3-13-3-5 3-12 0-18-5 8-8 18-20 18-9 0-16-4-22-9 1-3-3-4-3-5-3-4-3-6-4-8-4-1-6-1-9-1"/><path fill="#422524" d="M147 295c-10-1-14 4-16 15 7-7 18-3 26-6 0-1-1-2 0-5 8-3 11 9 15 6 8 25 8 35 15 55 1 0 1-4 4-3 3-5 3-10 6-21-5-7-8-20-15-29-4-6-8-9-12-11-8-3-15-3-21-1"/><path fill="#9A8A7A" d="M317 303c3 8 3 6 6 10 20 7 29 18 51 20 16 2 32 2 46 0 7-2 10-3 15-4 3-1 6-1 9-3-3 0-5 3-7 4 0-3 2-5 4-6-6-3-11 0-19-1-9-5-20-6-25-16 2 6 11 9 12 13-21 3-36 3-52 4-25-12-29-13-38-18"/><path fill="#301B21" d="M273 374c-5 2-7 6-10 10-4-1-6-2-8-3 2 5 15 16 19 17 2 9-2 16-4 24-5 5-14 11-20 5 2-1-20-10-16-3-5-2-3-6-4-8 0 3 1 6-1 8 13 2 17 13 26 19 14-1 20-5 26-6-1-5-4-11-4-17-1-16 2-27 4-39-3-5-3-5 0-2-3 1-4-2-7-3"/><path fill="#D99351" d="M322 345c-3 2 7 8-1 8 6 4 9 9 14 10 16 4 31 5 46 8 8 4 7-11 14-3-6-7-3-10-5-12-4 4-8 8 1 7-6 5-8 1-11 2 1-5 2-9 4-12-19 6-40-7-60-8"/><path fill="#E8AD6F" d="M354 157c-1 6-5 2-8 4 4-1 6 3 8 1 5 5 7 8 7 12-7 1-2-4-6-5-6 2-11-1-16 2-4-4 2-7 4-8-11-3-17 15-11 17 8-2 19 0 27 4 10 4 17 8 24 13 5 6 9 9 11 14-2-5-6-9-9-12 5-2 8 5 14-6 2-4-8-8-11-17 2 6-5 4-5 7-9-5-19-14-26-20l-2-1-2-1 1-1"/><path fill="#F3EAC9" d="M335 181c-35 19 2 7 17 14-1 6-5 1-10 3 12-2 22 6 31 11 17 10 21 28 35 37-2-12-8-17-10-23-10-5-17-19-22-26-13-8-18-12-28-13-6 1-9-3-12 0"/><path fill="#E1D3A9" d="M373 397c8 4 17 14 25 17-10 12-28 10-36 30l-3-6v-2l1 3 1 1c1 0 2 3 4 3 2-7 9 3 6-8 4 1 4 5 5 6 11-10 23 7 32-10 5-3 7-8 9-15-7 0-13 0-17-3-12-2-16-14-25-16"/><path fill="#456266" d="m332 212 1 2c-2 6-2 15 1 21 3 9 8 16 15 19 10 5 18 7 29 6 5-1 8-5 11-7 2 2 2 4 1 5-3 7-9 10-15 10-13 0-22-2-31-7-6-6-13-10-17-15-6-10-7-25 2-31"/><path fill="#22212F" d="M460 223c-9 8-12 20-14 37 2 5 1 11 4 13 9 5-9-7-1-14 2 3 3 6 7 8 4 4 8 5 11 1 3 7-13 9-5 7s10-9 10-14c-2-13-5-22-11-30 5 3 8 8 10 13v4l1-1-2-3c1-7-7-15-10-19"/><path fill="#573027" d="M427 344c-18 5 1 5 5 9-4 1-11 1-15 4 8 3-6 6-6 8 4 4 7 1 10 1-1 5-4 4-6 6 15 7 5 6 29 11 2-9 3-17-1-22-5-6-7-11-10-15-3-2-4-1-5-1"/><path fill="#70422E" d="M157 276c-8 4-14 11-18 19 10-3 26-5 36 2 12 12 17 24 21 37 2 0 1-4 5-5-2 9 3 6 1 15 4-2-2-6 0-14-3-6-4-11-6-15-4-9-8-15-14-20 6 1 11 5 17 10-9-9-19-15-31-16-1-4 3-6 5-6-1-3-4-3-6-4 1 2-11 2-15 7-5-3 5-12 11-9 0 0-3-1-4 0"/><path fill="#78482F" d="M253 382c-1 2-5 4-7 6 1 3 3 5 5 8-4 2-6-2-9-4-12 14 17 21 26 24 3-6 4-10 5-13-8-8-15-13-19-19"/><path fill="#432523" d="M256 380c-7 3 11 15 16 20 1 6 0 10-1 13-13 3-24-4-35-11-5 6-6 12-4 21 14-5 16 7 24 6 7-2 11-3 12-5 1-4 3-6 4-8 0-8 4-12 2-18-5-1-17-10-19-16"/><path fill="#8F8172" d="M431 402c-6 6-12 6-19 11 2-1 10-3 10 3-5 7-7 12-12 17-9 9-17 13-24 18 0-5 2-7 3-10-13 6-15 1-21 3-2 1-2 2-1 4-6-3-8-7-10-10 3 4-4 3-3 4 11 1 0 11 14 13 1 4 5 4 8 2 1 2-1 6-2 4 21-12 11-5 38-26 6-1-5 10-5 14 2-4 12-21 14-31 3 7 11-19 10-11"/><path fill="#786C67" d="M462 294c0 5-4 10-9 13-11 8-22 4-29 12-8-8-17-7-25-10 7 7 15 8 22 12 8 1 13 2 18 2 1 3-4 7-14 10h-4l3 1 1-2c12-2 14-5 22-7 7-4 12-11 17-18 3-4 1-9-1-13"/><path fill="#EBB275" d="M390 144c-3 1-6 3-8 5 3 0 8-3 12-1-39 14 52 12 29 5 6-5-10-5-13-8-5 2-12-1-18-1"/><path fill="#989797" d="M347 209c9-2 16 4 23 8 8 7 15 14 13 23-3 3-7 3-8 0-10-10-19-19-27-28"/><path fill="#81472A" d="M442 235c1 7-1 12-1 17-12-2-28 7-32 3 0 5 2 12 0 18h-2l2 1c9-2 19-8 30-4 5-15 4-5 3-35"/><path fill="#796D67" d="M245 356c-9 3 4 17 6 23 5-3 8 2 9 3 5-4 8-8 12-9-5-6-7-11-9-14-5-3-10-3-16-2"/><path fill="#2B1822" d="M312 324c-14 14-23 43-5 5 7 7 19 10 28 14 8-2 16 2 22 1 0-2 0-4-1-7 20 3 39 2 58 2-16-3-45 0-50-5h-5l3 1 1-1c5 2 2 5-5 2-1 2-2 4-1 6-14-6-30-11-42-16"/><path fill="#958678" d="M231 266c12 13-12 33 1 49 0-16 14-3 16-24-3-7-6-15-7-17-1 7-6-4-8-6"/><path fill="#46211C" d="M431 189c-4 20-30 2-4 25-1-3 1-6-1-8 8 1 14 4 20 6 1-1 3-2 4-4-1-8-6-15-11-17-5 0-6-1-7-2"/><path fill="#EDE7C5" d="M174 254c10 2 20 7 29 13-2 8-9-2-8 4 7 10 15 17 25 22-4-20 11-4 1-17-14-12-30-20-45-21"/><path fill="#0E0512" d="M339 343c18 3 33 13 50 8 11 7 6 12 9 17-7 10-3 3-10 16-15-5-30 3-45-2-17-6-38-15-8 3 13 3 31 0 44-1l3 2 1 1v1c3 7 7 11 13 15 3 3 5 3 7 4 5 1 8 1 9-1 4-1 6-1 6-3 8-5 8-14 11-19 6 8 9 15 11 22-5-13-3-20-3-21-9-5-3-4-16-4-4-4 2-5 3-4-4 0-8 0-10-5s4 0 6-4c-4 0-8 2-9-2 13-5-8-12 20-14-13-2-19 3-21 9v6c1 1 2 2 2 4 4 7 8 11 14 13 2 10-4 18-11 22-8 1-13 1-18-2-7-5-11-10-14-15 7-2 11-10 16-15 1-10 0-16-8-21h-1l-2-3c-17 6-29-8-46-6"/><path fill="#79422C" d="M423 157c0 2 2 2 4 3 5 6 9 11 7 15-12-10-24-13-37-15-15-1 11 4 12 9-8-1-15-2-22-3-5 0-8 0-10 1 10 10 20 11 33 14-5-3-18-7-26-13 21 3 35 4 49 14-1-3-8-7-8-10 7 4 12 11 16 11-2-7-6-14-12-21 28 13 20 2-6-4"/><path fill="#B1A08A" d="M314 299c5 5 2 6 7 13-1 0 0-5 6-2 16 7 13 7 27 12 19 0 34 1 54-1-4-5-8-8-11-12 3 3 7 7 10 9-7 4-14 3-20 4-34-6-41-14-70-22"/><path fill="#776A63" d="M225 385c-6 7-17 9-21 19 1 7 9 12 12 18 5-2 11 3 12-1 1-6 1-9 2-13-1 1 0 2 0 4-3-3-15-10-16-15-1-6 6-6 9-11"/><path fill="#E0D3AE" d="M367 206c10 6 21 22 26 37 1 7 7 14 1 25 0 3-1 4-3 5 4 0 9 1 13 2 0-1-11 1-9-6 0-10 7-9 12-12 1-7-2-9-1-14-15-8-19-27-36-35"/><path fill="#D38E52" d="M304 264c-1 1 7 0 6 5-9-5-17-5-13 10 5 4 11 2 16 4 4-5 8-8 14-10-7-3-12-8-19-9"/><path fill="#B27041" d="M300 152c7 6 14 12 18 20 0 5 2 8 0 10-8 3-13 8-20 8 1 0 4-1 6 0-11 5-19-2-25-6-13-18-13-18-1 1l2 1 1 1 1 1c8 6 17 6 28 5 3 3 0 6 1 7 2-6 8-12 13-17-1-5 2-10 1-15-7-9-15-9-23-14"/><path fill="#090517" d="M441 430c-2 8-8 15-15 21-6 4-13 9-19 10-7 0-31 5-47 4-5-2-5-3-2-4-10-4-22-8-32-5 8 0 17 0 24 4 6 4 10 9 10 14-1-7 7-6 13-7 20-4 35 1 51 3l-18-6c9-5 19-9 28-13 24 7 18 3 0-2 5-5 5-12 6-18"/><path fill="#B16D3D" d="M439 240c-9 4-21 4-31 4 2 3 1 8 3 11 8-1 19-4 28-2 1-6 3-9 2-14"/><path fill="#74452E" d="M213 304c0 4 3 9-1 13-3-3-7-6-9-9 9 7 11 18 13 28 3-4 12-3 12-8-1-7-3-11-2-13-4-5-8-8-11-10"/><path fill="#C1B397" d="M239 360c-4 1-7 5-10 7 4 8 8 15 14 21 2-3 6-3 8-6-6-8-9-15-11-22"/><path fill="#E5B279" d="M280 126c2 4 5 8 6 13 18 18 3-8 21 18 2-6 9-6 8-10-8-8-22-12-32-21"/><path fill="#B36F3E" d="M294 263c-6 1-9 11-4 13 5 10 13 17 20 20 1-4 3-6 3-9-6-5-15-4-18-12-3-9 5-10 10-12-4-1-6 0-9 0"/><path fill="#A66B59" d="M277 148c-1 7-1 17 2 22 4 7 8 9 14 10 2-13-8-20-14-29"/><path fill="#383F52" d="M296 206c-6 10-12 20-16 31-3 14-5 27-2 39 7 17 5 11 12 24 8 7 15 13 22 17-5-3-9-6-14-10 0-2-15-27-18-35-1-9-4-15-1-20 6-16 7-31 17-43"/><path fill="#7B6D65" d="M191 359c-2 6-5 10-6 16 3 7 6 12 8 16 5-4 4-10 2-15 3 0 7-1 10 0-2-2-2-5 1-6-3-3-10-1-13-10"/><path fill="#E1D3AD" d="M324 185c-36 46 23 1 32 14-14-10-28-3-37-7"/><path fill="#766761" d="M356 342c14 9 26 3 41 13-4-2-2-8 3-8 5-1 9-1 13 0 2 4 1 7-1 9 1-1 2-4 3-4 0-5-2-9-5-8-20 1-33-2-51-2"/><path fill="#F5E7CC" d="M451 280c4 4 4 10 3 15-21-4-40 12-58 4 4 0 5 4 9 4 16 3 29-7 42 1 13-2 12-17 5-22"/><path fill="#B16D3D" d="M301 360c-5 10-7 22-8 33-1 10 0 17 4 23s8 9 11 14c5-3 8 2 11 2 10 6 19 7 29 7-3-4-4-8-8-10-6 2-13 3-18 5-10-7-19-11-23-19-7-18-5-35 0-47 3-6 6-4 6-1-1-2-1-4-3-4"/><path fill="#7B462E" d="M267 162c-1 12 6 20 15 28 8 7 16 8 25 7-3 10-7 17-7 26-1 7 3 8 5 10-1-18 6-28 5-36-10-2-20-2-28-8-9-8-14-16-15-25"/><path fill="#C6B28E" d="M329 203c-3 3-13 9-17 3-4 3-5 24-3 36 7 7 13 15 20 19-8-6-15-13-16-22 2-21 7-22 13-35"/><path fill="#C06436" d="M403 376c-6 6-17 22 1 19 1-1-6-4-3-9 3 8 11 1 14 5 4 0 4-2 5-3 3 4-3 6-3 9 3 0 6 0 6-2 3-2-5-17-19-15"/><path fill="#3D2122" d="M246 302c-2 11-9 9-11 19-5-2-5-5-8-6l2-2h-3c-2-4-5-5-7-6 3 3 5 1 7 6 1 5 2 12 3 17 2-2 13-3 18-2 1-2-2-18 0-25"/><path fill="#786D68" d="M233 332c-9-1-1 7 1 0 3 8 3 12 4 16 5-3 12-3 19-2-1-13-3-4-6-11-6-2-12-2-16-4"/><path fill="#0B0A18" d="M148 277c-12 6-23 24-24 38 6 1 11-4 20-4 12-3 18 2 24 4 10 25 7 43 17 66 6 15 14 27 25 37-7-9-16-22-23-33-11-26-8-55-20-77-6 4-33-1-42 10 0-12 4-20 10-28 6-5 9-10 15-12"/><path fill="#B57141" d="M319 341c-1 6 0 12 2 17 5 4 9 6 13 8 16 6 32 4 47 7 9 3 8-11 15-2-6-9-6 2-13 3-18-6-34-6-48-11-6-3-10-5-14-8 7-3-3-7 0-11 20 3 36 8 53 11-17-7-36-8-53-14"/><path fill="#8E381A" d="M398 384c-16 4-9 13 2 18 7-3 9 4 15 1 4-2 6-4 7-7l2-1-3 5c-3-10-18-10-22-3-11-7-3-7-4-12"/><path fill="#B9AC92" d="M222 377c-9 5 13 8-2 15 4 3 5 9 9 11 4-5 7-8 9-12-6-4-8-11-15-12"/><path fill="#86B8AD" d="M326 230c2 10 8 21 18 28 7 3 12 6 18 7 10 1 17 1 21-5-4 5-21 3-29-1-14-5-21-18-25-29"/><path fill="#0B0514" d="M412 179c3 4 9 8 11 13-18-9-30-17-10 5-1-4-3-4-2-7 5 2 9 5 13 6 0-5-1-8-3-12 7 2 13 4 18 6 12 9 19 18 21 29 0-8-7-22-15-29-11-4-20-9-30-11"/><path fill="#D28E54" d="M315 146c4 9-8 5-9 8 7 4 13 7 19 13 2 6-1 11 0 15 11-2-4-11 11-18-10 2-13-15-20-15"/><path fill="#F4ECCD" d="M320 220c-3 5-7 9-5 17 2 11 8 18 16 24 5 4 8 6 11 8 7 2 10 5 15 5 33-4 23 7 44 0-23-5-35 5-56-4-2-6 2 0 4-2-8-3-12-9-15-5-2-6-7-10-12-19-3-8-3-15-4-22"/><path fill="#7B452A" d="M300 357c-4 11-8 22-9 34s-1 21 3 29c5 6 7 13 14 15 13-3 27 6 41 5-9 2-29-4-39-11-5-3-9-7-13-11-5-8-6-15-5-23 1-13 3-25 8-35 6 5 8 10 13 13-6-4-8-9-11-15"/><path fill="#AD7147" d="M181 295c18 10 20 33 24 47 7-7 0-11 0-15 5 2 6 13 11 8-5 8-11-21-18-26 8 4 13 11 15 19-2-4-2-8-4-12-9-9-17-16-26-21"/><path fill="#0B0918" d="M472 277c-2 6-10 10-15 5 4 4 11 1 12 8 2 11 0 19-7 25-14 14-31 19-48 23 3 7 6 0 14 0 9 11 21 20 23 32-1-13-13-22-20-34 14-4 27-11 35-23 10-11-1-26 7-33"/><path fill="#2E171F" d="M287 439c20 9 18 27 33 39 2-5-10-10-6-18 10 0 10-8 19-5 11-4 18 7 25 4 3-3-9 1-17-6-4 0-5 0-6 1-8 0-14 0-18 3-12-5-20-10-27-17"/><path fill="#0F0610" d="M276 119c-6 10-10 22-12 33 2-10 7-18 10-29 5 7 1 13 2 19 1-2 0-9 3-8 6 17 23 28 28 42-1 10-8 10-14 9-7-2-10-6-14-9 6 6 13 13 23 11 10-3 10-10 7-14-7-13-17-17-24-31-2-3-3-4-4-5-3-7-9-20-1-17"/><path fill="#8BAFC5" d="M431 387c-2 16 6 21 2 36-3 0-1-4-2-6-2 8-4 16-8 24 9-2 12-14 14-22 2-13-2-21-5-30"/><path fill="#C1B49A" d="M227 334c-3 1-6 1-7 4 2 5 4 10 3 17 5-2 9-4 12-6 1-17-4-8-7-15"/><path fill="#AB6C43" d="M402 129c-10 7-19 12-26 22-1-6 5-12 5-17-16 26-11 6-26 25 5 2 8 1 10 0 4-3 6-4 9-6 14-9 15-15 29-24"/><path fill="#2A1723" d="M436 453c-45 8-21 17 9 17-8-2-13-2-19-7 1-8 8-9 14-8 15 9 9-1 17 9-1-2-3-4-4-6-3-3-7-1-11-3-4-1-12 1-11-2"/><path fill="#7A797C" d="M457 232c4-1 6 6 7 8 1 8 0 13-3 17-10-5-5-16-5-22"/><path fill="#D2D1C9" d="M353 213c2 2 16 15 26 27 1-10-10-16-5-18-5 0-12-11-21-10"/><path fill="#968676" d="M406 346c-22 5 0 14 2 20-2-6 4-10 6-16-3-3-6-2-7-3"/><path fill="#3F2121" d="M433 456c-9 1-7 9 1 10 4-2 14-5 16-4-2-4-4-5-7-6-4 0-6 0-9-1"/><path fill="#542528" d="M279 136c0 2-1 4-2 7 7 10 18 19 23 30 1 4 0 6 1 8-6 2-9 3-12 1 3 2 8 1 11 2 5-3 7-6 4-8-6-15-20-25-25-38"/><path fill="#4A2A25" d="M199 377c1 7 5 12 7 19 6-3 10-7 14-9 0 1-4-1-6 2 3-6 1-9 5-11-4 2-4 5-6 7-5-3-5-10-12-7"/><path fill="#854E32" d="M420 358c5-3 8 3 11 5 5 3 6 7 3 9-4 4-7 2-8 1-2-7-6-8-7-13"/><path fill="#5A2C22" d="M385 168c9 5 20 9 29 15-1-2-3-4-4-5 7 2 12-2 18 2-13-6-27-10-40-12"/><path fill="#77402A" d="M287 144c7 9 18 16 24 27 5 5 4 12-2 14 2-2 5-1 6-4 4-7 0-12-3-17-8-9-16-15-24-19"/><path fill="#EAE3C5" d="M193 247c12 8 26 16 38 25-8-11-8-12-1-7-14-8-23-16-35-17"/><path fill="#311F25" d="M249 297c-5 11-15 10-14 19-5-1-7-3-9-5 3 3 5 6 6 9 4-10 9-10 15-12-3 8 4 18 0 18-4 2-11 3-16 4 7-2 16-1 22 2-6-5-2-23-5-32"/><path fill="#6E412F" d="M220 361c-5 2 3 7 1 12-4-2-6-4-7-7-7 4-1 11-10 11 5-1 4 5 8 7 1-3 5-7 7-9l3-1 1-1 1-2c-2-5-2-5-5-9"/><path fill="#8F8174" d="M198 347c0 4-4 7-5 10 0 12 8 5 9 12 4-1 5-2 7-2-15-12-3-21-10-18"/><path fill="#F4EBCC" d="M448 217c-1 3-6 26-2 29 2-8 4-15 10-22-2-4-4-5-6-6"/><path fill="#CD874A" d="M330 462c-12 3 7 5 7 13 3-5-3-13 5-9 4 3 5 7 8 11-1-6 0-9-6-14-6 0-9-2-13-1"/><path fill="#FAF4E0" d="M446 280c0 7-4 12-10 15 5 2 11-2 17 0 1-5 1-13-4-15"/><path fill="#E6AF6D" d="m358 354 2-1c6 3 12 8 18 12-8-10-41-2-23-11"/><path fill="#321C22" d="M196 377c3 5 3 12-2 16 2 6 5 8 7 11 1-3 4-5 6-7-4-6-7-12-9-19"/><path fill="#908273" d="M224 386c-2 5-10 5-11 10 6 9 13 11 16 14 0-2 1-4 2-6-5-2-8-8-11-10 0-4 2-6 3-6"/><path fill="#CF8F58" d="M386 145c-6 4-14 8-19 14-5 4-13 3-13 0 10 6 13 15 23 18-8-4-7-9-14-12 9-4 52-8 6-8 9-5 16-6 22-9-3 0-6 2-9 3-1-4 1-3 2-6"/><path fill="#0A0719" d="M442 280c5 10-24 5-21 4 3 7 8 9 11 11 7-4 12-7 12-13"/><path fill="#774039" d="M278 144c-2 0-1 1-1 3-2 5-1 11-2 15 1-4 0-10 1-14 8 9 17 15 19 24 0 4 1 6 0 8-7 0-11-1-14-4 5 5 12 8 18 4 0-15-14-24-20-36"/><path fill="#B4A68F" d="M199 344c1 6 4 17 10 21-3-9 7-10 2-15-5-9-5 0-7 2-4-2-5-4-4-7"/><path fill="#935836" d="M421 358c-4 5 5 7 4 13 3 2 6 4 8 1 3-7-5-11-9-14"/><path fill="#C1B08F" d="M412 429c-2 7-8 4-11 11-17 1-29-3-32 1-4 8-6 1-8 0 1 2 2 4 4 5 0-1 0-2 1-3 7-2 10 3 23-3 1 4-2 6-4 8 6 0 10-4 14-6 6-2 9-7 12-10"/><path fill="#776963" d="M323 316c9 8 19 14 30 15 7 0 11 1 15 2 17 3 36 3 51 2-16 1-34 1-49-2-20-3-27-12-45-16"/><path fill="#404355" d="M296 353c-7 12-10 26-13 39 0 16-2 31 4 42-3-9-4-20-3-31 3-17 6-33 11-48"/><path fill="#EAE2BE" d="M216 339c-2 1-4 1-4 3 1 6 2 12 5 17 6-3 2-14 1-19"/><path fill="#10090E" d="M391 114c-26 41-22 12-40 43-7 1-12 1-16 4-11-11-19-18-30-25 12 6 21 21 31 26 7-3 9-3 14-4 4-6 10-10 12-17 4 1 4 4 3 6 9-9 19-29 27-28"/><path fill="#DFCCB2" d="M453 280c2 3 4 7 5 10 1 6-2 9-3 12-12 4-24-4-35 4 9-3 21 3 29 0 7-2 10-8 10-14 0-5-2-7-5-9"/><path fill="#3A3E4E" d="M160 301c6 4 8 9 12 13 4 16 7 30 10 43-2-16-5-33-9-48-3 1-7-6-11-8"/><path fill="#F8F2DB" d="M364 189c12 6 24 26 34 35-5-14-19-27-32-35"/><path fill="#B37244" d="M366 163c-1 2 7 12 14 15-8-10 2-8-5-10 5-2 10-2 14-3-6-1-13-2-19-3"/><path fill="#4C4149" d="M356 339c18 6 42 1 59 5-4 0 3 0-1-3-19-1-37 0-54-3"/><path fill="#2E151F" d="M422 184c2 4 4 8 4 12-12-9-20-2-9 4 7 0 10-6 14-12 10 0 14 8 20 12-6-5-10-11-18-11-4-2-7-3-9-4"/><path fill="#78665A" d="M310 249c3 7 10 13 17 18 10 6 22 7 26 12 6 2 14 0 21-3-17 3-30-3-44-9-8-6-13-12-18-16"/><path fill="#BCAE96" d="M162 266c-3 1-5 1-7 2-9 1-14 4-18 10 4-2 7-6 11-7 8 0 13 2 17 4-1-2 5-9-2-10"/><path fill="#BAAA92" d="M180 279c29 14-3 7 32 31 0-4-9-10-1-11-13 3-15-15-26-21"/><path fill="#7B472F" d="m293 263-2-1c-9 4-6 15-2 20 6 10 14 12 21 16 5-1 1-4 3-7 0 2 0 4-1 5-12-2-22-14-25-22 1-5 0-9 4-10 4-4 8-2 11-3h-7"/><path fill="#C4B18F" d="M408 257c-1 3-6 2-8 4-3 3-4 7-5 10 4 3 7 3 10 2-3 1-5 0-7-1 6-6 10-7 9-14"/><path fill="#110910" d="M431 149c6 6 15 12 19 19-4 5-11-3-17-3 4 5 8 11 10 18-1-4-2-8-4-11 5-2 11 4 13-1-5-11-12-17-19-21"/><path fill="#A2643D" d="M422 360c4-2 10 5 12 9-7 7-10-3-12-6"/><path fill="#3F2323" d="M244 348c-1 2-13 4-17 8 4-2 6-5 9-5 5 7-3 9-5 12 1-14 48-9 12-15"/><path fill="#281B26" d="M288 291c2 7 11 12 13 19 8 2 12 11 24 9-5-5-10-12-11-18-1 5 6 10 3 14-10-1-22-13-27-21"/><path fill="#301E27" d="M436 430c-2 6-18 19-11 19 8-2 12-10 10-16"/><path fill="#CE8E59" d="M269 161c-2 6 5 16 9 21 7 6 17 13 26 8-6 3-13-2-17-3-8-7-19-13-15-25"/><path fill="#4A4655" d="M150 279c-13 8-20 22-25 34 5-11 17-23 22-32"/><path fill="#704330" d="M235 353c-3 1-6 3-9 4 1 3 0 7 1 9 1-6 13-7 9-13"/><path fill="#2F1E25" d="M199 335c0 2-2 3-1 6-3 8-5 14-10 18-2-1-6-8-7-16 0 6 3 11 1 17-2-8-3-13-5-18 2 5 3 10 4 15 0 7 3 9 3 13 4-9 11-18 13-28 3-2 5 1 4 2 2-4-4-3-2-8"/><path fill="#9B8871" d="M309 245c4 8 11 11 16 19 6 4 13 4 18 7-12-5-23-15-31-25"/><path fill="#591E14" d="M401 372c-4 6-9 15-17 15l2 3v1l1 2c2 3 5 5 7 8 7 3 12 5 18 4-6-2-18-2-25-13 6-4 12-11 13-19"/><path fill="#B06F42" d="M331 460c-15 0-10 9-3 15-4-2-2-6-1-9 6 5 7 11 13 12-4-3-8-7-10-12-6 2-8-2-4-4 8-2 19-2 23 5-1-2 0-3-4-6-5-1-11 0-13-1"/><path fill="#C58651" d="M198 308c7 8 10 18 14 27 1-9-4-19-11-25"/><path fill="#9E8D7B" d="M206 258c3 7 8 13 16 15-4-6-8-10-13-14"/><path fill="#271422" d="M426 339c-6 2-8 2-10 5-3 3 22 0 13-5"/><path fill="#8E7F6F" d="M369 392c-19 4 18 4 14 7-2-1-7-7-12-8"/><path fill="#EAB479" d="M374 160c2 2 20 5 28 6-7-4-15-5-23-7"/><path fill="#AF6F42" d="M423 361c2 3 3 11 8 11 2-7-4-9-6-11"/><path fill="#374660" d="M251 292c-2 9-1 29 2 37-1-11 0-25-2-35"/><path fill="#0E0A12" d="M187 245c2 4 9 5 8 10-28-6-3 0 9 6-4-7-11-10-15-15"/><path fill="#A96E48" d="M271 140c-2 6-5 13-5 20 7-3 2-11 5-18"/><path fill="#EDBB79" d="M360 354c-25 8 5-1 16 13-10-12-10-5-16-12l3 1-2-1-1 1"/><path fill="#0E070F" d="M424 136c3 3 12 2 16 6-3 1-9 3-10 2-16 1 2 2 8 5-1-2-3-2-5-3 3-3 10-2 11-4-8-5-12-4-17-6"/><path fill="#D38F56" d="M423 269c-21 18 6-7 18 8-4-7-9-7-15-6"/><path fill="#514549" d="M331 384c9 8 18 5 29 3-9 1-18 0-27-2"/><path fill="#E8A663" d="M384 354c-1 3-3 6-4 9 3 1 6 4 9 0-9-3 3-8-2-8"/><path fill="#F6E9CF" d="M392 302c3 6 2 17 10 18-2-6-8-11-9-17"/><path fill="#0D0815" d="M451 457c1 4 7 8 5 13-10-8-7 7-27-1 6 5 12 3 18 3 3-1 4-2 7-1 9 1 6-14 5-3-3-3-5-6-6-9"/><path fill="#FAE9C0" d="M350 164c-3 1-7 1-9 4 5 2 21-2 11-5"/><path fill="#0E0B12" d="M150 262c0 5-5 2-9 7-5 4-9 9-10 15 9 1-3-13 26-22"/><path fill="#F6D29E" d="M424 139c-9 5-21 2-33 4 13 5 31-4 38-3"/><path fill="#AC6B40" d="M425 160c9 9-7 2 3 7-24-9-2 0 5 7 2-5-3-9-5-11"/><path fill="#A66C45" d="M156 277c-2 3-5 5-6 7 3-3 26-7 8-7"/><path fill="#BC7E4E" d="M203 324c3 1 3 9 6 12-7-2-6-3-7-10"/><path fill="#47231E" d="M317 459c-8 6 6 16 9 19-3-7-15-14-5-19"/><path fill="#879FB4" d="M243 273c1 9 6 16 5 25 1-2 3-4 3-6-2-8-4-13-8-16"/><path fill="#4E3129" d="M168 286c9 3 33 16 43 31 2-8-1-18 6-11-9-9-3 5-5 8-13-14-29-23-43-28"/><path fill="#311D25" d="M258 347c-3 2-7 0-10 1 5 2 11-3 11 6-7-1-16-1-20 2 7-7 30 7 19-8"/><path fill="#0C0C19" d="M238 264c12 13 16 30 18 47 0-8-1-17-3-23s-7-15-12-23"/><path fill="#796D68" d="M451 203c1 4-1 7-2 10 2 4 5 4 6 7 1-7-3-10-4-14"/><path fill="#140B0D" d="M405 122c-7 3-13 7-18 12-4-2 3-5 1-9-2 5-4 10-7 15 9-7 16-15 26-18"/><path fill="#DDD3B2" d="M208 342c7 9 4 12 4 19 7-3-2-11-1-17"/><path fill="#9E8D79" d="M187 282c-6 6 3 5 10 11-3-5-6-8-8-11"/><path fill="#393C4E" d="M154 306c-8 1-16 1-22 5 5-6 40-1 24-5"/><path fill="#D0C5A8" d="M225 383c4-1 9 4 10 7-4 1-6-2-9-4"/><path fill="#D47238" d="M404 380c3-1 6 4 6 6-4 1-8 2-7-5"/><path fill="#4F2724" d="M274 127c-3 10-1 25-1 38-3-13 3-25 3-37"/><path fill="#7F492F" d="M326 459c-15 2-4 11 0 15-1-4-10-7-6-12 9-5 15-2 24-2-6-2-12-1-17-2"/><path fill="#5E7A7C" d="M449 263c1 2 1 5 2 8 5 2 9 4 12 2-5-1-9-4-12-9"/><path fill="#96A9B6" d="M422 420c-3 8-6 16-11 23 7-6 9-13 11-20"/><path fill="#31151A" d="M308 242c-1 6 2 10 2 16-4 1-6 1-10 0 6 3 12 4 18 7-9-7-9-14-10-20"/></svg>