<svg xmlns="http://www.w3.org/2000/svg" width="600" height="600"><path fill="#5F5B59" d="M373 119c2-1 4 0 5-1 17 6 31 15 45 22 0-7-6-16 2-22 18 17 37 34 48 51 9-4 19 31 20 45 9 12 15 24 19 36 3 13 3 25 0 35-1 7-5 12-9 15-5-5-6-10-9-14-8 0-13-2-19-1-1 7 7 11 4 21-1 16-14 30-17 47-18 18-37 35-59 44 1 14 8 21 16 30 14 16 33 4 47 16 5 7 13 11 11 19-37 7-62-9-98-7-1-4 0-9 3-12 6-6 14-4 19-5-7-13-16-26-27-31-18 7-39 0-52 11 2 11 5 18 10 25 10 7 22 3 31 6 3 4 7 4 8 6 4 6 8 15 5 17-11 0-18-4-26-5 0 4 1 6 0 10-1 3-3 2-4 3-11-4-19-8-26-15-16 1-30 1-43-1 3-12 17-14 27-19 3-4-1-7 1-11-4-10-9-16-16-22-13-7-27-10-38-18-8 13-16 28-29 40-6-6-1-17-1-25-5 7-14 14-21 18-5-5 0-10-1-15-10 7-19 15-28 20-2-9 1-15 5-21 8-15 16-28 25-39-14 14-28 23-43 31-1-6 1-11 3-16-13 9-29 13-47 13 17-22 41-35 59-58-15 2-30 3-43-3-19-6-34-13-47-26 32-8 64 1 97-3 8 2 8-5 11-8-13-8-26-16-38-27 3-5 12-1 18-2-15-16-27-34-34-54-7-11-4-23-1-32 30 26 50 60 82 85-16-16-29-31-35-51-4-9-7-16-8-24-1-10 0-17 3-23 23 25 35 53 59 77 12-11 24-23 36-32-1-8-4-14-5-21 13 1 24 1 34 2 7-2-6-5-3-9 15-6 23-6 32-13-6-6-11-11-16-18 9-4 20-2 28-2-8-6-13-18-16-27 34 13 27-4 52 7-2-5-4-10-5-14"/><path fill="#1F1E2A" d="M263 290c-1 2-4 7-6 11l-1-1h2l1 2-1 1 5 5c-10 5-19 6-27 8 0-4 2-6 4-9-33 13-14 3-19 12-9-2-12-4-15-4 1-4 2 0 5-2-5 1-7-2-11-4-1-5-1-7-1-10-6 9-11 18-15 28-3-6 4-16 1-16-7 5-10 13-8 23-6 4-12 5-18 4 8 1 20-2 16 2-8 12-14 18-25 28 7-5 14-8 22-12 2 3 3 7 3 10 4 3 5 5 8 2-15 13-24 19-33 20 8-1-2 6 14-4-2 6-4 12-6 17 18-10 36-23 50-38-15 23-31 43-38 65 11-4 21-12 30-20 1 6 0 12-1 18 9-7 18-14 24-21 0 9-3 18-4 29 14-13 22-27 28-41-5-7-10-14-15-19-3-8-4-14-5-19 17-8 30-20 45-28 7-3 6 1 7 4 11-10 54-43 15-17-15 0 1 3-19 1 3-6-12 2-14-12-2-6 1-9 2-13"/><path fill="#EEEDDA" d="M328 249c5 12-5 14 0 32 3 3 7 1 9 2-8 4-10 13-10 21 2 5 7 7 10 8 7-1 12-3 16-5-7 8-14 16-18 24 8 6 18 4 25 5 12-3 20-10 25-18 2 5-3 6-3 10s3 4 5 5l-3 1h-2l3 1 2-1c4-6 5-10 6-17 8-4 15-9 23-10 6-13 8-27 4-38-12 3-25 2-36 0-20-5-36-14-52-22"/><path fill="#2E303E" d="M324 303c-2 5 8 12 2 16-12 8-11-11-23-5-9 4-15 11-23 16-2-5-4-3-9-1 5-5 10-8 15-10-23-6-23 0-43 0-17 9-32 20-47 29 6 9 12 8 18 7 13-3 23-7 33-13-4 5-11 8-17 11 0 13 2 23 12 27 14-6 14-15 21-25 13-2 31-5 41-16 0 6-4 9-5 13-2 7-5 10-9 13 2 0 2-2 4-1-2 12 3 1 3 7-9 5-16 11-22 6 26 9 2 0 19 2 5 0 3-4 4-5 2-8 0-14 0-19 11-18 42-33 25-50"/><path fill="#1C1820" d="M326 295c-1 4-2 9 0 13 2 5 3 6 6 7-8 7-6 15-10 20 4 2 4 6 5 6-9 6 3 7-14 20 20 16-7-2 15 14 7 2 11-6 16-10 3 4 4 5 6 7-3 7-14 12-11 18 7 2 11 4 17 3 5-3 9-5 12-9 1 7 3 9 9 7-2 4-2 6-4 6 4 3 6 2 11 3 16-9 27-11 37-13 11-10 25-19 32-28-10-2-26 11-41 17-13 0-31-1-45-10-8-3-12-7-16-12 3-8 4-12 10-15-9 0-19 2-27-5-1-8 5-12 8-18-5 0-10-2-15-5-3-6-4-11-1-14"/><path fill="#1D1A1F" d="M406 161c-16 4-25 1-13 14 0 1 15 12 23 19-4 9 15 14 20 31 2 8 2 14 1 20-3 8-9 13-13 17 3 14 10 26 5 41 4-2 5-6 9-8 5 3 4 5 7 11 0-11 12-16 19-21-5-2-14 4-25-6 3-7 14-3 10-10-3-5-5 4-17-8 15 9 19-12 40-3-3-1-5-3-6-4 1-1 7-7 13-7l1-1v-2c-1-4 1-6 0-10 4 0 6 1 9 3-3-2-5-4-8-5 0-7 5-22 9-17 1-6-2-9-1-13-2-7-3-13-6-17l6 15c-4-4-6-7-8-12 2 7 6 12 6 19-6 13-9 24-7 37-12 7-24 11-36 13 3-4 8-4 13-7-4 0-7-4-6-7 7 1 14 0 20 0-6-1-12 0-16-3-10-19-23-40-26-55-7-8-12-13-17-18-4-3-6-4-8-5"/><path fill="#4E444A" d="M264 355c-7 10-6 17-18 26-24-18 5 12 7 11 11 6 16 10 24 11 16 3 14-5 36 0 8-4 6-5 11-8 9 2 22 4 34 5 2 1 4 1 4 3-6 0-7 2-11 1 0 5 4 3 5 4 15-1 20-4 34-9-6 3-16 3-22 1 4-5 2-6 0-12-4 2-7 5-11 7-8 0-13-1-18-4 6-15 10-18 3-21h5l-3-2c-2 5-6 9-11 10-6 0-9-4-14-7 2 3 11 5 5 9-10 2-16 3-24-1-2-3-1-5-1-8-1 2-1 5 0 8-8 3-15 3-20 1-9-5-6-16-6-22-2 1-5-1-6-2"/><path fill="#486C7D" d="M138 189c-2 15 4 18 6 36 4-3 6 5 11 7-2 4-6-3-8-4 1 5 0 7 2 12 14 21 32 37 50 47 8-4 11-11 18-13-28-23-56-62-78-85"/><path fill="#77675D" d="M427 295c-4 14-5 31-13 44-33 9-29 11-51 24 4 5 24 9 28 5 12-6 19-7 23-5 2-13 26-19 30-36 6-11-5-44-13-21-5-3-3-7-4-9"/><path fill="#564544" d="M463 288c-8 4-15 8-16 18 1 5 0 11 1 16-2 11-8 5-7 18-5 4-9 5-14 4 5 7-24 17-10 17-7-3-27 14-31 8 16 9 16-2 24 7 24-15 32-17 50-22 5-10 1-15 9-27 2-4-2 4-4 6-8-14 5-28-3-44"/><path fill="#CC7751" d="M316 158c7 11 20 22 32 25-2 3-5 6-6 8-1 8 0 13 2 18 9-14 11 2 13-15 7 1-2 3 3 6 13-5 23-6 37-6 0-3 3-4 1-6-4-7-10-10-16-13-24-9-41-15-63-17"/><path fill="#262D3E" d="m266 315 3-1c43 3-36 32-45 41-14 2-22 4-27-5 13-11 27-22 41-30 9-2 15-4 21-5 3 4 0 5-1 7 1-2 5-4 5-7"/><path fill="#6B9897" d="M275 202c4 4 9 7 15 7-2 3-4 3-7 2 5 7 4 14 6 14 5 3 7 4 10 5 2-3 2-9 5-10 0 5 0 9-1 13 1 1 4 1 6 3-2 2-4 1-5 0-2 15 14 17 11 28 1-2 3-1 5 1-3 6-10 14-17 15-5 0-9-2-12-1 7-8 15-11 22-13-12-2-22-5-33-6-10 2 7 9-1 14 3-3 7-1 9-2 3 4 1 5 2 8 4 0 12 2 16 5 9 0 12-3 17-10 1 1 1 2 2 4-2-4 2-11-2-15 8-3-2-19 10-18-12-13-28-22-35-37-12-7-14-1-21-5"/><path fill="#4C2722" d="M307 419c-2 2-4 2-5 5 5 6 5 13 5 18-7 7-17 9-22 13-5 7-1 9 0 1 3 2 0 5 1 6 23 1 16 0 31-1 11 10 18 11 23 10-2 1-6-7 0-7 6 4 13-1 26 4-1-5-11-7-6-14-2 3-2 7-3 9-5-9-5 2-9-4-2-5-1-8 1-9-3 0-3 2-2 5-5 0-5-4-4-4-3 2-3-6-15 0 3-3 5-5 8-4-6 2-7-4-7 1l-2 1-2-2c-1-2 1-4 5-4-4 0 1-4-5-3-6-2-9-1-12 1-4-7 8-7 11-6-1-13-8-11-13-15l-1-1h-1"/><path fill="#404D5C" d="M325 186c-3 1-5 3-7 3 4 1-3 8-7 6l6 3c-11 0-23-11-7 1-4 1-6 3-9 2-3 5 2 13 7 18 11 8 17 21 28 27 0-4-3-7-2-12 4-2 8-2 11-2-8-12-11-28-10-44-2-3-6-1-8-2"/><path fill="#F0F0E3" d="M384 196c-18 3-33 10-27 32 10 4 9 19 19 23-9-7-13-17-11-30 2-6 1-11 6-14-3 4 21-10 28 0 9 5 14 9 17 17 3 6 1 12 2 17-2 7-5 10-9 13 6-5 8-10 14-12 5 0 0 2 0 3 2 1 4 1 6-2 4-6 6-14 1-20-4-10-9-17-17-21-9-6-18-7-28-6"/><path fill="#3D586B" d="M190 210c-7 10 9 28 13 41 6 6 14 21 21 18 5-7 9-11 11-16-7-10-15-19-23-29 0 10-9-5-6 3-7-4-11-13-14-16"/><path fill="#2B3A46" d="M267 266c-2 1-4 0-5 1 1 0 3-1 4 0-4 6-7 10-11 12-5 0-5-2-8 0-1-4 1-4 1-6 0 2-2 2-1 4-13 6-6 6-15 25 9 2 16-1 21-2 6-1 6-6 9-8 1 3-2 5-1 10 2 4 4 5 6 7 13 3 23 4 34 1-7 3-3-14-11-11-13 9-13-4-26-1-2-2-2-5 0-6 15 1 24-1 36-2-18-5-19 4-43-4-2-7 5-12 8-16l2-2 1-1"/><path fill="#4D4F3E" d="M479 185c-4 6-13 14-10 28-5 2-12 0-21-1 5 7 3 15 7 21 6-1 3 1 2-4 6 3 16-1 18 8 6-6 3-19 9-26 1-11-2-18-5-25"/><path fill="#487182" d="M138 312c3 6-2 11 0 15-27 7 21 11 29 9 4-6 5-10 7-13-2 0-5-2-7-1 2-4 5-4 7-5-11-4-23-5-35-4"/><path fill="#763928" d="M231 269c-8 3-16 7-23 13-5 9-8 18-7 26 8-1 13-3 18-5l7-14c-2-3-6-1-8-3 6-1 14-3 10 3-3 11-10 20-21 21 6 3 12 4 17 2 7-2 11-4 16-6-6-1-10-10-15-7 1-4 2-6 3-8 2-3 1-4 2-5-2-8-7-6-9-7 1-7 6-9 10-10"/><path fill="#3B201F" d="M410 420c-5 3-11 6 1 2 0 4-4 7-9 9 5-3 8-2 12-3-2 4-5 4-7 8 3-3 6-4 9-5-3 4-9 5-7 9 6-3 1 10 13 18 12 7 11-16 23-3-1-3-7-8-15-10 6-4 13 1 17 1 8 5-2 13 5 11 9 2 3-7 13-8-6 0-17-13-43-13-4-6-7-7-9-12l-2-1v-1"/><path fill="#66999F" d="M86 310c5 11 32 18 47 23 5-7 4-12 5-20 2-1 4-1 5-2-19 1-33-3-53-1"/><path fill="#9E493C" d="M481 235c1 4 0 7 1 11-5 2-8 5-11 6 0 4 3 5 2 9-39-2-1 4 16 16-5-3 5-4 4-4 5 5 7 21 15 13 2-4 2-11 1-16-6-6-9 1-13 0-4-13-15-20-15-32"/><path fill="#27171C" d="M392 402c-36 1 11 18 10 35-3 4-2 20-8 13 6 7 20-3 25 9-8-6-3-16-9-15 3-2 2-7 7-6-4-1-7 5-10 3-1-5 6-7 9-8-3 0-6 1-8 3 1-4 3-6 5-6-17 2 10-11-12-4 3-4 5-5 6-6-5-6-5-12-6-18-3 1-6-1-8 0"/><path fill="#EFEFDD" d="M386 136c9 10 16 23 29 30 4 2 12-2 18-3 1-4 0-6 1-8-6-7-12-12-20-15-4 3-7 4-12 5-7 1-11-2-13-8"/><path fill="#2E323D" d="M372 141c1 3-2 2-1 5 4 4 8 7 13 10-40 0-35 8 8 18-3-3 2-2-8-8 2-7 13-2 18-4-6-9-14-13-19-20h-2l2 1c-2 3-2-1 0 4-6-1-7-3-9-4"/><path fill="#948677" d="M424 273c4 20-1 39-9 55-12 13-30 10-37 11 1 13-16 3-20 16 1 3-2 4 2 6 16-5 29-20 53-21 9-16 8-34 14-47 3-5 1-11-2-17"/><path fill="#2C3447" d="M174 357c-8 2-15 8-21 9-3 2-9 4-7 9 9 0 3 3 13 8-12 7-20 10-34 14 14 0 25-6 31-9 7-3 72-51 22-15-4-3-6-9-4-15"/><path fill="#22222C" d="M309 338c-8 5-15 11-24 14-7 1-17 6-20 0 1 6 7 3 9 2 1 7-4 18 2 23 5 0 14-1 20-4-1 1-2-5-2-10 4-8 5-17 13-23"/><path fill="#375159" d="M326 282c-2 16-18 9-25 23-1-6 4-16 6-17h-3l2 1c-13 3-28 6-42 3-1 7 11 1 15 8 3-2 11-4 13-2 3 4 7 7 6 11 9-4 16-9 24-14-5 6-12 11-17 18 6-1 10 1 12 7 10-1 12-6 6-13 0 2 0 3 1 5h-8c-3-10 11-14 10-28"/><path fill="#6C7659" d="M471 171c-2 3-1 7 0 10-6-7-7 3-10 3-8 5 0 17-8 14 0 6-4 8 2 12-4 4-14-7-7 0 8 3 11 2 18 3-2-15 8-20 11-28-1-5-2-10-5-13"/><path fill="#75665F" d="M365 247c-10 2 15 20 24 17 13 2 27 1 28 0 3-3 12-5 14-12-11-2-21 3-32 9-17-3-23-8-33-14"/><path fill="#2D343E" d="M277 220c-1 2-3-1-4 1-3 3-6 4-7 7 11 10 0 7 10 17 1 8-4 12-8 15-6 5-13 2-18 4-2-9-1-15 3-19l2-1-2 1c-13 3-21 14-29 26 9-10 16-2 14-12 6 3 10 0 10 5-2 5-6 9-8 13 3-3 5-8 8-12 20 2 36-13 55-2-8-2-15-4-22-5-4-4-4-7-6-9-1-8-1-14 2-19 27 5 18 0 0-9"/><path fill="#211923" d="M281 405c12 4 19 14 24 24-1-3-5-5-2-8 9-8 12 5 18 0-2-9 10-10 16-14-14-1-39-1-53-1"/><path fill="#2C2B35" d="M163 260c3 6 11 10 13 14-2-2-17 3-20 0 12 14 32 19 40 26l-3 3 2-1c1-4 5-7 7-10-14-6-26-19-37-30"/><path fill="#4C7282" d="M179 176c1 13 9 20 14 32-5-1-7-11-13-16 2 8 5 24 8 27 1-3 0-6 1-10 7 2 9 13 16 17-1-7 6 5 7-2-7-10-19-31-31-46"/><path fill="#451F1E" d="M462 266c-15-3-10 3-14 13 17 3 29 4 41 3-5-7-11-9-20-14-4-3-10 1-10-3"/><path fill="#3B3631" d="M431 192c6 10 15 31 25 45 5 4 10 5 15 6-12 9-17-7-20 4 10 6 12 3 25 0 4-4 2-9 3-12-3-1-4 1-3 2-16-3-13-3-21-6-4-17-15-29-22-38"/><path fill="#CE7B61" d="M501 239c3 11-8 3-11 9-15-11 6 14 4 19 6 4 8-5 13 1 3 2 4 4 4 6-1-11-3-23-8-33"/><path fill="#72655D" d="M302 356c3 2-5 11-2 23 8 3 14 2 23 0 1-6-12-12-9-21-4 3-9 4-12-1"/><path fill="#33475A" d="M147 373c-1 2-3-1-4 1-9 8-16 11-26 23 21-1 55-19 25-22"/><path fill="#3C323C" d="M324 394c-1 14-34 6-35 11 18 1 50-3 56 6 24-10 0-12-21-14"/><path fill="#D0CFB2" d="M377 119c4 11 12 18 16 24l-1 1 1-1c9 3 8 0 14 0-1-3 4-2 2-6-14-10-17-11-31-17"/><path fill="#94887A" d="M336 233c-3 6 4 12 5 15 7 6 17 9 25 13-8-5-11-15-14-23-5-1-9-6-13-4"/><path fill="#4F6D72" d="M262 237c-7 5-5 10-10 13 4 6 9 7 13 11 7-4 10-10 8-14 0-10-10-4-12-8"/><path fill="#CECCAA" d="M433 152c5 3 2 8-1 13-31 6-4 6 6 11 4 0 6-10 13-5-5-6-11-12-17-17"/><path fill="#90472F" d="M240 267c-7 2-16 3-19 11 4-1 9 4 9 5 0 7-3 11-5 14 3 2 4 0 5 2 6-11 9-27 14-33"/><path fill="#3A5059" d="M271 263c-1 2-3 4-4 6-6-2-12-3-16-4-6 6-10 10-12 15 3 0 12-7 14 0 2-2 4-3 7-5 0 2-3 5-3 9 8 4 18 6 24 5 10-3 6 6 6-11 1 4-7 8-5 8-9 2-22-5-23-3 0-5 4-9 6-13 2-3 3-4 4-5"/><path fill="#AFA598" d="M424 278c1 16-6 29-13 41-7 11-19 11-24 19 11 1 20-5 28-11 6-16 10-30 9-47"/><path fill="#89916D" d="M426 179c12 9 11 26 28 32-2-3-3-4-4-5 0-13 9-5 5-17 0 2-9 2-11 1-7-2-12-6-17-9"/><path fill="#3E555F" d="M266 226c-8 8-15 13-20 20 2 0 4 0 6-3-2 7-3 13-3 18 6 2 11 2 15 1-4-3-9-7-11-10 4-6-1-4 5-13 3 0 11-1 16 4-10-6 2-6-9-15"/><path fill="#679899" d="M287 231c1 4-1 8 2 12 2 0 3-1 6 0-4 4-8 7-12 9 3 1 11 11 25 8-3-4-9-6-11-11l-1-3 1-1h-1l-1-3c0-2 2-4 1-7-2-2-5-2-7-3"/><path fill="#52787E" d="M272 198c0 7 4 15 6 22 4 1 6 3 7 4 1-4 0-8-2-12 1-4 3-1 5-2-5 0-9-3-13-7 9 5 6-1 18 2 4 0 6 2 7 5 4 10 11 14 18 19-8-4-13-10-16-18-4-3-3-6 0-7-9-5-18-4-27-5"/><path fill="#090402" d="M386 212c-1 4 14-2 16 6 6 5 5 12 4 16-3 9-10 12-17 10-9-4-10-12-11-19-3 5-1 7-1 13 3 9 12 11 19 10 7-2 10-4 12-8v-14c-2-9-11-15-18-15"/><path fill="#D2CAB4" d="M423 288c0 6-2 11-5 17-10 3-20 13-23 13-5 10 2 3-3 13 7-2 11-4 16-7 5-6 5-13 10-17 2-7 4-12 5-17"/><path fill="#3E2519" d="M385 208c-1 2 0 5-2 6 9 9 11 5 17 14-1 5-4 8-6 9-8 1-10-7-14-7 2 9 8 15 15 13 5-1 8-5 9-8-2-2-3-3-4-5l-1-2v-1h1v-2c3-1 4 0 5 2 0-6-4-9-7-10-5-2-9-2-13-2-2-2 1-3 1-4"/><path fill="#663329" d="M319 449c2-1 4 0 5-1-3 2 18 5 18 14-6-1-1 2-7 5-4-4-13-11-19-15"/><path fill="#B3B28C" d="M427 172c-10 4 9 13 15 17 3-3 9 5 10-2-2-5-10-8-8-12-2 10-14-3-15-3"/><path fill="#AEB38C" d="M454 147c-1 8-10-1-9 6 6-1 9 12 13 18-3 5-6-3-9-4 7 8-5 5 2 11 10 0 7-5 12-10-1-2-1-6-3-8 7 7 7 12 8 3 0-6-17-7-13-14"/><path fill="#547E81" d="M279 230c-3 5-4 11-2 16 0 8 5 11 10 11-4-4 2-6-6-4l7-7c-1-6-4-12 0-15-2 2-4 0-7 1"/><path fill="#E7AF8F" d="M489 218c-8 5 5 4 6 14-2 1-4 2-6 1 2 3 4 5 4 7-5 0-6-3-9-4-2 6-2 11 4 12 7-3 14-6 15-8-3-6-7-14-13-21"/><path fill="#30323C" d="M335 179c-7 4-12 8 0 7-1 16 3 28 7 40 6 8-2-2 2-4 3 3 5 7 8 9-2-3-4-6-6-10-4-9-7-16-8-23 0-7 3-10 7-12-3-3-5-4-8-5"/><path fill="#42545D" d="M330 134c5 8 8 18 14 22 10 2 24 2 29 0-10-2-21-8-21 2-5-5-9-4-9-8 4-6 8-3 12-2-9-3-16-8-24-13"/><path fill="#AC5639" d="M363 193c-9 5-13 16-20 16 2 5 5 11 8 17 1-15 13-25 7-31"/><path fill="#4C7677" d="M324 275c-7 13-21 10-23 29 3-7 15-12 18-12 6-3 8-11 4-15"/><path fill="#4B251E" d="M255 302c-5 0-11 5-15 2-2 5-11 9-18 10 19-14 19 13 42-12"/><path fill="#9BBCA8" d="M314 265c-4 5-15 5-18 10 3 7 7 4 12 2 4-7 21-7 7-14"/><path fill="#643329" d="M330 442c-10 14 20 4 12 11 3-3 5-4 7-5 0 4-2 5-1 9 4 5 5-3 8 6 1-5 2-8 3-12 2-2 3-2 5-1-1 1-4-3-5-1-4 0-3-1-8 0-8-4-33 1-16-4"/><path fill="#99C6C4" d="M298 234c-1 5-3 10 1 15 6 5 9 15 17 12-8-5-13-25-17-24"/><path fill="#536C64" d="M265 277c-17 4 8 10 20 8-10-4-12-9-22-7"/><path fill="#9F4E2E" d="M378 208c2 0 2 3 3 7-2 5-7 8-9 5-2 7-5 13-2 18 2 10 11 16 19 18-1-4-13-7-17-14 0-6-1-11 0-17 2-5 6-4 8-7v-1h2v-3c-1-1 1-5-1-6"/><path fill="#8D9471" d="M467 165c2 3 0 6 2 10-3-2-4-4-5-6-4 5-3 10-11 9-1 4 2 6 3 8 2-8 8 1 6-7 5-1 6 1 7 3-7-7 8-12 1-15"/><path fill="#83715D" d="M377 330c-10 6-21 10-24 23 8-4 16-13 22-20 7 3 7 3 1-2"/><path fill="#7A3630" d="M496 274c-23-3 8 12 6 24 3-5 6-6 6-7-3-5-5 3-8-4-2-5-4-9-5-12"/><path fill="#6C352B" d="M320 449c-6 8 5 10 12 5-2 2-2 4-5 3-2 3 7 2 1 8v-1l1-1h2l1-1c4 11-1-1 10-1-2 0-6-1-10 1 1-3 3-4 7-3-5-5-10-6-14-8l-1-2h-1v1"/><path fill="#A3B4A3" d="M335 137c25 10 16 11 35 11-6-5-10-8-13-9-8-5-9 8-19-2"/><path fill="#381F20" d="M392 441h-1c-4 16-3-2-5 13 2-2 4 0 7-1 5-6 15-6 3-13"/><path fill="#756558" d="M465 312c-2 6-6 13-2 20 3-5 9-6 10-12-1-5-1-4-8 1-2-4-1-6 0-7"/><path fill="#506B75" d="M322 186c-9 2-15 2-22 5 6 9 5 2 15 4 9-6-5-6 10-10"/><path fill="#CDD0A7" d="M447 152c-9-4 0 13 9 21-1-8-6-14-9-22"/><path fill="#442C29" d="M396 181c8 6 11 18 24 21-4-12-16-13-22-20"/><path fill="#B6AB8E" d="M472 292c-1 2-5-1-6 1 1 6 1 10 0 15 6-2 12-18 6-15"/><path fill="#040201" d="M392 222c1 6-8 9-5 12 6 2 8 1 9-2 2-4 1-8-1-9"/><path fill="#23110D" d="M386 209c-1 4 11-1 13 5 10 8 12 11 16 21 0-9-4-16-11-21-6-4-10-6-15-6"/><path fill="#537A73" d="M288 278c1 4 0 6-1 8 6 3 12 1 17 1-5-5-11-7-16-6"/><path fill="#E8AC84" d="M364 178c4-2 9 0 12 2-4 4-25 6-14-1"/><path fill="#232631" d="M195 408c1 5-16 16-22 20 4-8 12-11 18-17"/><path fill="#656860" d="M431 128c1 4 5 12 12 15 2 3 5 2 6 3-9-6-14-21-17-16"/><path fill="#F9F9F1" d="M385 218c-4 0-5 9-2 12 7-2 10-9 4-12"/><path fill="#374A50" d="M423 124c-2 7 4 4 4 18 3 1 6 0 7 3-4-13-7-13-9-21"/><path fill="#50676C" d="M350 146c-9 2-5 9 2 10 5-1-1-3 3-5 5 0 8 3 11 3-10-6-13-4-17-8"/><path fill="#0B080B" d="M451 272c-28 9 11 16 13 10-4 1-10-1-15-3s0-3-1-5"/><path fill="#42373E" d="M320 384c7-2-1 4-2 5 2 2 5 1 6 2-2 4-6 6-9 4-5-5 1-8 3-10"/><path fill="#363133" d="M324 337c-6 2-9 8-9 13 2 1 6-5 9-6 5-2 2-4 0-6"/><path fill="#2E383C" d="m423 129 3 12-1 3-1-1v1c6 4 11 9 16 12-1-6-2-11-6-15 0 1 1 2 3 3-4-2-8 0-10-1-1-6-3-9-4-12"/><path fill="#2F1819" d="M431 444c9 2 15 8 19 14 3-4 0-8-2-12-4 3-7-2-10-1"/><path fill="#594B49" d="M366 452v2c-3-1-3 1-6 0 1 7 8 15 13 18 2-4 2-4 3-1-2-8-10-10-14-14 2-3 3-1 4 1-1-2-4-4 0-5"/><path fill="#627968" d="M271 266c-20 17 4 7 13 15-6-4-14-8-17-12"/><path fill="#B0A68C" d="M377 333c-2 9-12 10-22 22 2 4 3 1 0 1 14-13 22-10 25-22"/><path fill="#6D3826" d="M410 228c1 8 0 15-7 19-16 6-3 3-13 9-4 0-8 0-11-3 4 2 7 4 10 5 7 1 10 0 14-1-11 3 0-4-5-4 11 0 11-22 17-13-1-6-5 0-3-10"/><path fill="#9A8C75" d="M474 300c-5 12-11 5-9 19 6-4 7-8 9-17"/><path fill="#A1CDCB" d="M298 238c3 7 6 10 8 15-7-1-10-8-9-11"/><path fill="#3D4C53" d="M360 133c0 6 6 8 9 12 1-6 10 1 13-2-7-5-15 0-20-9"/><path fill="#7F8B7A" d="M376 122c0 1 5 12 5 16 4 2 7 12 13 9-10-15-14-11-16-23"/><path fill="#35333E" d="M128 334c11 8 21 5 40 7-14-2-27-3-40-6"/><path fill="#CBC5B1" d="M377 319c6-1-5 7-7 8-5 0-9 0-11-2 5 0 11 2 15-4"/><path fill="#466A6E" d="M323 298c-11 5 0 6-8 11 3 2 5 2 6 2 2-4 1-9 1-13"/><path fill="#2B1A1C" d="M461 449c-9 16 2 4 13 11-7-10-10-8-15-8"/><path fill="#514C54" d="M100 323c12 8 28 14 40 17-14-5-21-9-39-17"/><path fill="#EDB68F" d="M367 178c-17 6 2 5 8 4-2-2-4-4-8-3"/><path fill="#75938F" d="M336 133c-4 1 4 5 12 8 0-7-4-6-11-7"/><path fill="#F4E7D5" d="M487 221c-4 4 1 13 6 11 1-4-2-6-4-8"/><path fill="#8E8273" d="M315 342c-4 4-8 9-11 15 8-2 3-2 8-4 0-2 2-6 2-9"/><path fill="#F5EEE1" d="M489 218c9 8 13 18 18 27 3 10 5 17 5 25-1-10-2-20-6-29-5-9-8-16-15-21"/><path fill="#212026" d="M344 220c-1 6 2 14 10 17 2-6-9-7-9-16"/><path fill="#5B2D26" d="M316 445c2-3 5-1 6 0-1 5-13 7-8 0"/><path fill="#562B25" d="M317 441c3-2 7 0 9-1-2-1-23 12-10 1"/><path fill="#5F312A" d="M319 442c-3 0-5 1-6 3 1 3 0 4 3 3 1-4 8-7 7-6"/><path fill="#575537" d="M202 439c4-2 9 0 12-1-9 2 2 9-11 3"/><path fill="#928676" d="M358 239c1 6 4 9 10 8 0-7-5-4-8-7"/><path fill="#F4E3A4" d="M374 209c-3 0-4 3-5 5 3 1 4 3 6 2 4-2 2-5 1-6"/><path fill="#A15032" d="M413 237c-1 7-6 11-8 13-10 3 0 2-7 7 9-3 5-2 12-6-2-1-3 2-4 2 5-4 13-14 7-13"/><path fill="#83977C" d="M273 264c-3 1-2 3-5 4 2 4 6 4 7 7 9-6-3-5-3-9"/><path fill="#512C26" d="M427 445c4 0 9 3 14 4-7 1-13 0-12-2"/><path fill="#D68F4A" d="M376 206c8 23-16-2-7 14 2-7 1 4 9-2 3-3 2-8 0-9"/><path fill="#3C3239" d="M323 384c-3 2-9 3-10 7 3 3 7 5 9 3 3-3-5-2-5-3 2-5 5-5 7-7"/><path fill="#3A5668" d="M179 312c-5 1-11 0-15 1 3 0 7-2 10 0 2 6-5 6-6 7 1 1 3 0 5 1-2 13 4-5 7-8"/><path fill="#544544" d="M320 331c-6 7-11 16-19 22-5 5 1 7-2 10 5-1 3-14 21-31"/><path fill="#282C37" d="M198 406c-8 9-20 14-27 21v-1l1 1c9-3 13-8 25-19"/><path fill="#262532" d="M260 333c6 1-8 8-11 10 3-5 6-7 9-9"/><path fill="#393038" d="M410 389c-6 3-13 6-19 9 8-3 16-4 21-8"/><path fill="#AAD3D1" d="M300 235c-1 5-3 7-1 11 4 7 8 11 12 14-7-11-13-11-11-24"/><path fill="#574844" d="M373 261c7 8 34 8 47 2-13 4-30 5-43 0"/><path fill="#4D6F7E" d="M192 233c0 6 2 9 9 17-3-6-7-16-8-17"/></svg>