<svg xmlns="http://www.w3.org/2000/svg" width="600" height="600"><path fill="#5A6940" d="M405 118c1-1 3 0 4-1 22 7 37 25 54 33 8 2 12-3 20-1 16 12 43 15 43 41-8 21 6 36 2 55-8 12-15 18-24 27-25 16-54 20-76 38-6 3-7 7-9 11-2 7 0 10-1 16 9-1 16 2 22 4-3 7-11 11-17 9 3 4 7 7 10 11 2 7-2 10 0 16 0-13-17-10-19-20-6 13-20 18-29 30 4 16 5 31 9 44 15 11 32-5 45 5 8 6 14 12 13 20-6-2-20 10-35-3-5 6-11 5-12 9-5 0-7-4-11-4-13-3-22 1-31-2 3-16-7-33-11-48-1-14-1-25 7-33-12 6-23 10-31 17 7 7 12 14 12 24-3 9-10 16-14 21 3 13 18 0 23 9 5 7 4 12 7 15 3 11-6 8-2 15-8-3-16-1-22-3-1 3 0 7-2 8-14-2-15-10-23-13-12 0-23-1-30 5-3-18 14-27 7-46-5 1-8 4-9 9-2-2 0-3 0-4-5 0-10 1-15 1-4 6-8 12-11 16-3 10 15 13 16 25-23 3-41 8-61 1-4-14-3-28 1-43-9-8-13-16-16-25-25-4-49-7-68-21-9-6-17-12-23-19-9-11-13-21-17-32-5-14-9-27-11-41-1-21-2-41 6-54 7-10 32-17 32-25 13-1 26-6 43 0 7-7-9-9-8-15 6 0 9 4 12 6-2-9-12-14-17-22 5-4 12-4 15 0-16-8-28-25-46-28 5-7 12-2 16-4-5-6-10-6-14-13 15 6 33 12 43 17 7 8 10 15 11 23 0 8 2 16-1 22 2-7 6-13 4-21 5-3 4 2 6 2 2 5 4 9 2 13-7 5-10 8-13 12 11-4 21-11 32-17 10-1 16 0 21 3-8 6-15 12-21 17-13 3-26-4-36 4 14 8 32 27 35 32 1 4-1 3-2 4 3 1 4 5 7 6 3 12-4 9 2 18-1 6-7 18-14 19-9 8-19 8-29 7-5-1-7-3-10-5-5-7-2-14 2-17 4-2 7-4 9-1-2 2-6 6-1 9 6 1 8-3 10-6 1-8-1-13-5-18-5-4-9-7-14-8-6-4-12-2-17-3-8 3-13 6-16 11-1 21 2 36 8 55 7 7 19 20 34 26 13 4 23-4 35-4-3-2-6 2-10 0 7-7 13-11 19-15-3 0-7 0-11 2 3-7 8-9 14-12-3-2-7 0-10-2 8-7 14-12 21-15-3 1-8 1-12 0 12-8 19-13 27-18-4-1-6 2-9 3-2-4 0-5 1-7 8-5 15-8 22-10-2-1-10 0-8-5 10-2 17-2 25 0-5-3-11-4-17-5 11-9 16-6 13-14 7-1 11-1 14-1-2-1-9-2-7-6 9-3 16 1 20 4-3-4-7-5-11-7 9-3 17 0 25 3-3-1-5-4-7-5 5-3 8-2 11 1-4-4-10-3-11-9 9-1 15 2 22 3-3-8-12-10-18-14 14 2 26 4 38 8-5-23-19-42-30-62 4-8 8-13 10-20 16-2 30-3 42-6 9 5 16 9 23 13 11-2 6-12 8-17 7-2 13-3 18-6"/><path fill="#231F1B" d="M333 217c5 15 9 33 18 51 8 20 25 31 29 49 1 10-8 13-15 23-3-2-3-5-4-8-1 9-8 16-14 22-17 16-24 7-32 19 3 24 7 38 7 64 7-6 11-11 12-18 1-16-11-30-7-33 4-8 11-13 15-20 3 2 4-5 9 0-3-1-1-7 1-7 13-2 18-17 28-18 4-6 1-6-3-10 6-4 11 7 12 12 0-4-5-9-3-14 10-8 19-5 28-7 14-21 37-25 55-37-6-2 6-5-1-8 13-1 12-4 24-3 1-4-3-4-2-8 16-13 12-11-3-4-1-3-8 2-9-1-14 14-8 7-16 15-34-7-44 7-92-2-9 0-15-10-20-17-10-12-10-27-17-39"/><path fill="#348859" d="M321 254c-2 6-9 11-13 5 0 5 0 11-2 14-4 9-8 16-14 21-12 0-17-8-21-14-10 14-22 14-28 31 2 9 0 28-4 28 8 3 1-8 8-10 10-1 9 10 18 8 3-2 8-1 6-8 11 4 16 3 18-1 5 5-1 2 1 5 9-4 12 5 16 5 7-5 12-10 17-15-5 3-7-3-12 4-9-17-26-2-33-18 2-7 13-6 5-12 6 3 11 0 16 2 6-3 9-7 14-9 5 0 0 5 2 8 4 6 10 5 14 7-3 4 8 2 4 10 4 0 6-5 9-3v3l-3 1c-2 2-5 3-8 5 3-2 6-2 9-4 4 4 13 7 20 9 0-6 0-15 4-16-10-8-18-2-24 2 13-24 7-6 14-15 6-27-11-14-26-17-9-7-8-17-6-24"/><path fill="#8A462A" d="M398 169c-10-1-29 14-27 29 0 11 0 19 7 24 7 10 14 14 22 15 13 4 29-5 35-8 1-5 10-20 5-32 0 3-3-11-6-12-8-13-18-14-24-15-4 1-9-1-12 0"/><path fill="#954B2D" d="M394 172c5-1 12-1 16 1 10 3 16 8 22 13 0 9 2 16 8 25-3 9-5 15-10 20-10 7-21 5-31 5-10-1-16-8-21-14-1-11-10-12-6-27 2-12 12-21 20-22"/><path fill="#22533A" d="M292 327c-1 4-7 2-9 5-5 0-12 5-11-3 2 6-2 7-5 9-7-2-11 1-11-6 0 4-3 6-6 7-4-1-6-4-6-6-1 3 2 6-1 10-3-1-5-3-4-6 1 3 1 0 1-1-7 7-14 8-20 12-8-3-11-8-13-13-9 8-14 20-24 22 14-8-6 16 11-2-1 7-4 9-4 13 4-2 7-8 11-5 4 9-1 18-3 22 11 9 19-6 30 1 10 4 17 10 22 18-6-12-23-16-20-25 5 1 6-6 9 0 2-3 0-4 4-7 7-4 77-32 52-38-9-2-4-4-3-4"/><path fill="#633A1B" d="M110 268c-4 19-4 43 3 60 3 7 5 15 7 18 9 7 19 20 24 17-1 4 3 6 1 9 0 6-4 10-7 7-8-5-7-6-14-10-4-3-6 9-11 0-4-3-7-6-10-9-1-3 2-4 2-6-2 1-6 0-6-3-5 5-10-2-8 5 18 23 26 27 42 36 10 5 35-6 49-1 3-1 2-5 3-7 1 8 4 14 5 20 2 6 3 17 8 15 0-6-8-14-5-22 0-5 4-7 6-8-8-4 7-14 1-21-3 0-6 6-8 11-6-5 1-22-3-16-12 8-5 12-17 19-5-9-5-12-5-16-1-4-4 1-4-1 8-6 18-7 25-13 16-10 10-15 8-19 5-1 6-3 8-2 1 1 0 3-1 5v-1l1-1h2l2-1c1 2 0 5 3 6-1-6 5-11 6-17-12 10 0-8-12 10-3-10-6-6-23 5 5 1 9 0 12-1 0 2-2 3-3 5 1 0 4 1 5 3-35 0-30 22-56 15-9-5-18-12-21-23-3-29-7-35-10-64"/><path fill="#8FD27D" d="M428 160c12 12 1 8 17 23-1-2-3-3-2-5 7 17 25 16 35 27 3 4 3 7 2 10 0 14-17 10-17 20 0-5-7-4-11-1 3 2 4 2 7 0-21 9-17 8-41 12 24 3 55 0 82 0-4-4-14 1-19-1 4-4 1-10 6-9-4-6-8-11-6-18 4 2 8 12 17 14 6 1 11 2 15-1-1-9-2-13-6-19-4-5-13-4-11-9-2-10 19-5 13-10-10-9-18-15-27-20-6 3-13 3-20 2-13-3-23-9-32-13"/><path fill="#9EB482" d="M349 132c-11 3-23 3-34 4-3 4-6 12-11 15 4 4 7 8 11 10 6-2 9-6 12-8-2 3-5 8-8 10 6 5 15 6 22 9 36-1 47-5 21-36-5-3-4-1-11-3"/><path fill="#312118" d="M400 348c-9 8-19 12-29 18-1 12-8 23-7 33 4 12 2 16 8 27-7 1-4 5-9 7 3 7 0 14-4 19 13 6 21 2 34 4 4 2 7 3 8 6 6-7-16-5-11-18 7-4-11-2-1-13-1 2-3 3-6 2 1-10 0-25-6-29 5-8 7-28 21-33 1-10-1-16 2-23"/><path fill="#6C7032" d="M89 241c-8 5 2 5-4 12-2-1-5-1-1-7-10 5-8 12-11 15 2 6 2 12 2 21-4-2-5-4-4-10-1 25 3 46 13 69 2 5 3 8 5 12 7-4 10 5 8-5 10 5 27 18 36 26 1-2 1-5 6-6 4 1 5 5 4 7 2-4 1-7 0-11-7 0-21-15-31-21-8-1-16-2-16 4-2-5-14-9-14-21 5-7 1-27 6-34 3-10 7-15 14-23-5-1-8-3-12-6 3-12-8-10 1-22"/><path fill="#6A7749" d="M130 224c-27-2-24 10-18 29-3-8 10-7 3-15 14 5 23 5 39 12-3-2-3-7 1-8 4-3 8 0 11 1 4 22-6 19 2 40 2-3 3-5 4-12 10 3 0 13 8 5 3-6 3-15 1-22-2-10-7-18-14-21-9-7-18-9-28-10-4 1-6-2-9 0"/><path fill="#46AC71" d="M314 290c-5 2-9 7-13 9-7 0-12 1-14 0 6 5-8 4-6 8 5 16 22 2 28 18 9-11 15-3 20-8-1 12-24 27-24 42 2-6 17 2 21-8 4-5 7-9 11-12-4-7-6-10-3-16 4-2 7-5 10-3-10-5-11-12-30-20-1-5 0-8 1-11"/><path fill="#2B8369" d="M321 169c5 9 10 1 16 8 5 11-8 19-5 19-2 4-3-2-6 1 5 11 9 20 13 28 4-1-3-6 4-7 4 2 4 5 5 6-1 3-2 6-4 9 8 1 13 6 21 2-2-7-1 1-7-3-1-5 2-7 4-6 3 5 10 2 11 9-7-11-6-31-9-39-4-8-4-5-16-6 0-10 9-13 15-17-12 2-28 1-39-2"/><path fill="#3F512F" d="M127 237c1 3 0 4-2 5-5 3-7 0-8-3 1 8-10 13-10 23-8 3-13 1-15-2-1 7 7 5 12 8-8 10-13 16-15 25-6 7-1 25-7 30 0 12 11 19 12 20 0-3 8 0 11-3 7 0 10 4 13 6-2-14-14-20-26-37 12-30 11-20 21-47 5-7 12-11 18-12 11-1 18 3 24 6-7-12-25-8-28-16"/><path fill="#AF522B" d="M295 210c9 4 16 9 22 18-6-2 1 4-5 5-4-5-10-7-14-9 6 3 11 8 10 13-6-2-10-6-14-8 2 7 5 2 8 10-7 2-13-4-20-5 0 2 4 3 7 5-7-3-14-1-20-1 5 1 15 0 14 8-8-2-14-5-24-5 2 8 13 0 20 11-1 5-24-2-30-1 5 3 0 4 10 7-11 10-29 9-41 22 6-2 12-2 16-2-8 2-18 12-30 16 8-3 17-2 24 2 6-5 2-6 0-11 7-1 16-7 22-2-3-5-6-7-9-8 12-3 19-4 25-8 2-6-6-3-7-7 6 1 12-1 16 1 9-3 9-14 15-15 5-2 8-1 10 0 3-4 15-4 21-11 2-4 5-7-1-12 4 4 8 0 12 3-10-20-13 3-35-19"/><path fill="#57381F" d="M284 365c-3 3-7 3-12 10-8-5 3-3-9-7 2 3-3 8-5 7 6 17 7 36 16 53 5-15 0-27 0-44 4 22 14 41 15 60-13 13 0 9-15 28 4-7 13-4 18-8-3-4 4-10-1-20 3-7 5-24-1-31 6-2 3 3 9 0-6-16-10-22-22-27 0-8 2-15 6-20"/><path fill="#25806A" d="M339 337c-5 5-9 15-17 18-9 5-18-2-16 5-6-4 0-6 1-8-6 7-13 14-18 22-2 6 0 6 1 10 3 1 8 0 9 3-6 16 8 28 10 39 6-5 10-13 8-22-1-13-9-20-9-31 11-15 29-15 38-27 4-6-5-4-6-9"/><path fill="#54A997" d="M407 119c-10 10-28-1-21 21 12 1 10 0 19 3 1 4-4 5-6 8 1 1 3 2 5 3 22-2 33-7 44-11-8-6-12-8-16-4 0-3 1-4 2-7-2 0-4-1-7 0 4-5-5-10-10-12-5 0-6-2-8-2"/><path fill="#1B5734" d="M513 251c-33 4-50 7-82 13 2 4-1 10-5 9-5 0-8-2-9-5-8 4-22-1-33 3-8-3-7-10-3-12-4 4-13 0-28 2 5 7 11 13 17 14 21-2 26 0 42 4 12 2 14-7 24-9 0 3-3 3-6 5 15 1 24 1 35-2-10-2 14-4 12-14 15 3 24-5 38-9"/><path fill="#231F23" d="M262 365c-7 3-10 5-18 7-5 3-1 5-3 8-4-5-6 1-12-3-1 11 19 16 24 30 4 7 6 12 5 19-5 12-16 16-21 25-4 0-5 3-6 3-6 1-15-3-14 1 4-2 7-2 12-1 7 1 2 8 9 5 11-2 12-18 20-27 6-1 10-1 15-2-9-16-10-37-17-55 1-5 5-7 7-10"/><path fill="#583832" d="M399 323c-3 7-16 3-11 14-4-3-6-6-7-9-5 6 7 6-1 13-9 2-15 17-27 17-4 3-2 7 0 8-9-4-5 4-10 2-6 8-22 18-13 22 6-7 21-12 25-21 14-5 25-7 37-17h2-2c-3-1 0-3-3-4 9-4 35-28 12-24"/><path fill="#A9C039" d="M119 145c-2 0 11 8 5 9-5-2-13-1-14 0 14 4 27 19 41 25-3 4-8 2-12 4 6 9 15 15 18 20 0 3 1 5 0 6-5-4-8-8-12-9 1 6 15 8 7 16 4-3 10-14 9-20 1-12 2-20-3-28-2-6-5-9-7-13-7 4-20-12-29-9"/><path fill="#36CC80" d="M452 190c1 1 5 6 8 11-4 5-5-1-4 6-3-4-2-6-2-9 2 9-10 20-5 24-7 8-13 13-20 16-8 5-15 7-24 6 13 7 26-9 38 1-1-1-6-3-4-4 6-3 11-3 14-1 12-7 11-14 23-16 14-22-19-29-21-31"/><path fill="#B35D25" d="M132 215c-15 4-48 16 10 5 8 3 18 6 27 12 2 3 6 5 7 7 3 6 6 9 6 12 3 15-1 26 2 37-6 6-10 8-14 9 1-10 7-16 6-25-2 8-11 11-9 14-9 6-15 6-20 3 3 7 6 7 8 10 7 1 12 1 18 1 11-6 10-7 16-11 7-8 1-22 6-30-1-7-7-8-11-9 3-3 5-2 7-1 1-2-2-5-5-2 1-4 3-3 4-4-4-2-8-2-13-1 12-4 1-2 4-7-12-6-31-21-52-19"/><path fill="#1F5143" d="M337 235c-8 2-14 8-22 10 3 3 5 5 6 7 6-3 13-5 19-1 4 17 9 23 18 35-7 28-7 0-17 25 6-4 13-10 21-3-2 5-2 22 2 29 11-8 15-11 15-20-9-22-37-50-40-82"/><path fill="#09131B" d="M377 279c1-2 5 3 8-1 31 4 29 6 46 12-16 4-28 1-43-5 4 12 12 22 18 30-4 0-2 4-4 5-10 0-13-13-19-12-1-6-28-29-5-25"/><path fill="#B34222" d="M404 175c-1 1-2 0-3 1 8 4 12 8 22 16-7 9-11-3-17 1 7 11 7 20 4 26-9 2-17-5-18-12-12-1 0 7-12 7 3 7 7 13 13 15 13-1 15-3 28-8 4-6 5-11 7-15-17-1 5-10-12-5 5-6 11-5 14-10-1-4-2-6-6-8-6-1-8-1-11-1 9-4 0-9-8-7"/><path fill="#B65710" d="M116 299c-6 15 8 15 2 37 5 7 8 15 16 18 6 5 15 6 20 6 8-10 5 6 13-13 11 1 19-4 26-3-3-1-4-4-8-4-3 6-21 5-25 7-6-4-4 5-10-3-2 1-1 3-2 4-3-10-17-14-15-17-1 0-2 2-3 4-4-12-12-18-14-39"/><path fill="#762628" d="M417 175c3 4-3 4-4 6 3 0 5 0 10-1 4 3 8 7 6 9 0 8-8 7-11 10 16-2-5 6 13 5-4 6-5 12-9 17-3 3-16 6-20 9-5 1-9 0-13-2-5-5-8-8-10-12 11-2 1-10 14-12-8 2-19 5-18 0 3 9-1 9 2 19 6 2 12 12 20 11 12 1 23 3 31-3 6-6 9-11 10-17-11-17 2-32-21-37"/><path fill="#20513C" d="M210 409c-19 7-1 22 11 21 1 11-3 14-3 21 7 1 13 3 16-1 12-10 13-20 24-21 0-7-1-10-2-13 0 3 2 8-3 10-5 3-10 2-14 4-6-3-14-1-13-4 3-6-19-5-16-16"/><path fill="#348858" d="M219 385c-14 1-2 19-10 28 6 9 20 6 14 12 11 3 21 5 32 0 2-10-1-16-5-22-1 6 3 11-1 14-11-1-19-1-28-5-1-8 2-13 5-18 8-3 14 1 19 4-6-6-14-12-23-13"/><path fill="#669A08" d="M299 254c-9 9-19 11-25 20 0 10 5 17 13 18 10-1 14-11 18-17 4-9-1-15-5-19"/><path fill="#E1C30E" d="M348 236c-12 10 7 13 5 21 13 1 28 2 38-6-5-7-16-7-25-8 11-2 18 0 26 2-4-7-11-8-18-8-10-1-19 4-24-1"/><path fill="#8C8001" d="M229 307c-11 8-11 16-15 25 0 7-6 12 4 14 8-3 18-4 22-13-9-9 7-14-11-27"/><path fill="#07111A" d="M379 282c-20-3-2 15 6 24 5 2 7 13 15 11 2 2 2-3 6-1-7-10-16-19-21-28 17 2 30 5 47 2-19-7-16-6-50-9 1 1-3-1-4-2"/><path fill="#A8E8D4" d="M383 140c0 3-3 2-5 3 9 5 16 9 23 11-10 5-19 8-25 17-11 11-13 36-5 7 7-5 10-13 19-14 10-4 17-4 25-3 9 4 14 3 18 8 2-3-1-3-2-6 3 1 5 1 7 2-3-1-1-4 0-5 4-3 7-4 10-4-5-3-11-6-17-7-8 9-15 7-25 6-4-1-6-3-8-4 2-2 5-6 9-6-8-3-14-4-22-3"/><path fill="#5D4516" d="M212 437c-16-2-6 25-12 35 6 2 6-7 8-6 6 4 8-1 11 11l3 1v1l2 1c6-3 11-9 19-11 4 8 17 4 21 3-3-3-4-8-9-10-3-2 4 3 5 5-4 4-7 4-11 5-3-2-4-3-5-4-3-5-6-9-11-7-8-5-2 14-12 16-3-5-5-10-5-13-4-1-5 0-6 1h-2l-1-3c12-1 10-14 13-22-3-4-4-3-6-2"/><path fill="#6E7246" d="M330 317c-4 5-11-2-16 6-3 3 10-4 10 1-17 20-38 24-54 37-3 1-4 2-5 3-3 5-9 6-7 10 4-2 6-4 5-8 6 5 3 8 7 7 6-6 10-6 13-8 0 5-4 11-5 17 1 4 3 7 5 6 0-9 15-28 6-26 5-11 20-27 33-36 4-5 7-7 11-9"/><path fill="#2C4D3C" d="M295 400c4 9 10 19 10 30-11 14 0 13-13 33 4-1 5-5 6-8 7 2 9 7 14 8 13-11-4 0 2-11 10 1 11 4 17 3 4-2 13-3 4-5 7-2 11 4 16 2-2-2-3-4-4-7-12-2-20 2-21 1-4 1 5 5-2 7-6-5-14-5-17-10-2-8 5-17 9-24-2 2-3 6-6 7-3-7-9-15-12-24"/><path fill="#772515" d="M279 259c-13-2-10 14-36 15 3 2 5 4 7 6-7 1-13 3-19 6 4 3 2 7 0 10-9-2-16-4-23-1 3 2 14-3 12 3-6 4-11 9-19 11 8-3 7 4 15 0-12 10-10 7-29 14 12-1 18-5 28-7l35-35c10-9 25-16 30-23"/><path fill="#80A527" d="M254 300c1-1 3 0 4-1 7 2 10 8 9 11 4 2 7 2 11 3-13 3-5 3-25 15-9-7-10-24-1-27"/><path fill="#6C9E14" d="M332 251c-5 1-11 3-9 10-2 9 0 17 8 19 5-1 10-2 12-7 1-10 0-21-10-23"/><path fill="#C1983F" d="M121 212c-1 7-8 1-11 3 0 3 2 2 4 3-3 1-6 2-9 2-6 6-15 9-20 22-2-5-2-8 4-8-1-3-4 0-6 0-6 9-7 7-9 16 5 1 9-9 15-11 1 6 0 13 7 16 4-1 8-2 11-4s4-4 3-8c-9-4-9 4-15 8 2-7 6-11 10-13-4-3 3-9-2-12 5-3 4-8 13-5 6-2 21-8 7-8"/><path fill="#1F9863" d="M392 253c-1 3-22 6-10 17 22-1 34-4 47 3-16-7-20-18-31-19l-3-2h-1v1"/><path fill="#E4A645" d="M399 175c-7 0-11 5-14 11 3 2-4 7-3 10s0 6 3 5c7-1 2-7 8-8-2 8 0 16 3 21-3-6-7-20 2-22 5-2 6 3 10 5-2-1-3-3-4-5 8-4 12 7 18 2-11-11-20-17-22-20"/><path fill="#2F3948" d="M418 320c-10 5-8 20-22 29 2 0 3-3 4-3-3 10 1 17-2 24-3 9-12 9-14 16-2 14-2 25 1 36-5-16 4-17-2-34 9-9 14-14 20-19 3-21 21-29 12-47"/><path fill="#5D351E" d="M524 247c-11 5-21 9-30 17-6 5 6 9-4 12-11-2-10 1-19 0 6 6-7 7 1 8-5 3-7 5-10 6 13-5 28-9 40-19 9-7 15-14 21-23"/><path fill="#28C3C6" d="M447 157c-21 4 2 15 9 15 12 8 22-4 29 1-8-5-17-8-25-15-6 0-9-1-12 0"/><path fill="#481E16" d="M186 384c-1 3 0 6-2 8-19-5-32 7-53-1 15 4 67 28 55-4"/><path fill="#3A2A19" d="M275 385c0 17 4 29 4 42 0 1 7-4 7 2 2 14-2 18-5 25 3-5 7-5 9-11 3 5 3 8 5 12 1-7 12-19 8-32 0-14-9-4-11-12 8 7-1 19 5 26-3 2-4 5-5 5l-2 1h-1v1l-2-3c-1-2 0-6-1-11-3-16-10-28-11-43"/><path fill="#2B554C" d="M272 272c-17 6-21 14-40 33 2 6 7 8 9 14-3-7 5-14 6-19 9-4 16-15 23-21 1 0 2 1 3 2-2-2 0-6-1-9"/><path fill="#C1E06D" d="M419 338c-1 5-2 10-5 14 2 16 17 6 17 27-2-7 4-11 2-17-4-6-8-7-12-10 8-1 14-4 20-9-11-2-10-6-20-4"/><path fill="#56B78D" d="M504 197c-5 1-10 3-7 8 4 1 7 3 10 5 5 8 6 12 7 19 6-6 4-13 9-15-5-6-6-11-9-17-5 0-6 0-9-1"/><path fill="#A7C244" d="M194 192c-13 10-25 11-33 17 11-3 23 2 35-3 7-6 27-16-3-13"/><path fill="#5AAA8E" d="M478 150c-31 3-7 4 4 19 7 0 8-4 14-2-4-11-5-12-11-16-4-1-6-2-7-1"/><path fill="#593320" d="M368 377c-6 1-8 9-10 15 3 13-4 28 3 39 6 0 2-6 10-3-6-13-4-17-8-27-2-9 4-16 5-23"/><path fill="#9CB67F" d="M497 207c4 1-3 4 4 2 2 8 5 15 5 21-19-2-6-5-20-9-2-7 3-12 8-14"/><path fill="#607434" d="M319 407c2 14-15 28-11 34 13 1-1 7 18 10 0-6-8-24-7-43"/><path fill="#73AB29" d="M342 321c-3 2-3 7-6 10 3 8 11 7 15 11 6-3 9-8 8-14-7-1-9-4-14-7"/><path fill="#383328" d="M105 279c-3 12-9 21-12 28 7 10 15 15 19 28-5-17-9-35-7-53"/><path fill="#847914" d="M201 389c-2 1-7 2-7 7 0 6 0 13 4 17 8 1 9-6 12-9-10-4 8-12-8-15"/><path fill="#B5BD09" d="M255 302c-8 2-5 10-6 16 2 6 6 6 9 5 7-2 7-8 8-11-1-8-5-10-9-11"/><path fill="#5F893E" d="M519 226c-4 5-9 9-15 9 2-1 14-3 6 2-8 4-15 3-21-1-3 1-6 2-4 4 4 7 24-3 31 5 10-4 6-14 5-20"/><path fill="#744225" d="M342 453c-7 0-11 6-7 12 3 6 12 7 13 4 1 2 3 4 2 7-5-20 14-4-1-21-5-5-1 3-6-1"/><path fill="#99B07D" d="M498 208c-6 0-14 5-12 10 7 5 10 16 18 13 2-6-6-16 3-16-6 5-6-5-8-5"/><path fill="#565C27" d="M202 341c1 1 4-1 6 0 2 6-2 5-3 8 3-2 8-2 11-1 3 6 0 9-3 11-4 2-11-1-9-5 1 6-5 6-8 5 3-5 2-11 4-16"/><path fill="#528851" d="M322 171c1 5 1 12-2 15 3 11 5 10 12 11-3-2 10-11 3-21-11-1-6-5-13-1"/><path fill="#637C52" d="M490 155c4 3 6 7 8 10-8 0-10 7-17 3 8 8 18 14 24 17-3-6-1-12-7-20 5 2 7 7 9 12 0-6 6-6 9-8-3-1-21-1-23-15"/><path fill="#3DA28F" d="M375 145c-2 1-1 5-4 3 7 3 0 11 10 15-4 4-5 6-7 7-8 0-11-7-14-10 2 3 5 5 6 9-2 5-9 7-16 14 7-5 12-10 19-12 4 3-2 7-2 12 2-9 8-11 11-18 5-3 8-3 7-5 31-3-3-11-8-15"/><path fill="#667048" d="M327 238c-9 4-23 8-29 14-5 3-28 20-18 8l2-1 2-2-1 3-2 1c-8 4-6 5-8 13 7-10 16-11 24-20 5 1 4 3 7 4-4-2-6-6 0-7 10-5-2 13 11 9 6-4 5-12-1-13 6-4 10-6 14-8"/><path fill="#1E513B" d="M452 198c-2 6-11 4-11 27-4 6-9 3-11 8-12 9-32 5-41 2 8 7 18 5 26 8 4-2 12-4 18-9 8-7 13-14 16-21s3-12 2-18"/><path fill="#0E0103" d="M397 194c-3 4-2 12-1 16 3 5 6 10 9 10 5-4 3-9 4-12-3-7-6-11-9-13"/><path fill="#9BBB1F" d="M228 394c-8 9 3 11 7 15 6-2 10-2 13-2-1-6-7-10-12-12-4-1-5-1-6-1"/><path fill="#1F4E44" d="M350 343c-1 3-4 5-7 7-3-1-4-2-5-3 1 2 2 3 3 4-5 5-9 7-12 10-6 4-7-1-8-4 4 10-9 7-10 15-3 9 2 10 3 18-1-5-3-10-2-16 12-14 12-5 29-16 4-4 13-9 11-15"/><path fill="#200D14" d="M273 435c-1 5 5 9 7 15-2 7-6 8-11 7-5-6 0-13 2-18"/><path fill="#62AB7E" d="M425 434c-4 4-11 0-18 6 6 1 11 5 19 6 3-2 1-5 1-8 2 2 21-1-2-5"/><path fill="#351D1A" d="M407 448c-5 0-1 7-1 11 3-1 6-2 9-4 10-1 16 4 25 3-12 3-20-14-32-10"/><path fill="#82B39A" d="M370 172c-7 2-17 7-21 14 6 1 10 1 13 1 4-5 6-10 9-14"/><path fill="#752416" d="M329 217c1 3 3 6 4 9-7-1-9 0-12-4 3 4 6 8 2 11-3 2-9 9-12 9 8-2 16-5 24-8 1-6 1-10-4-16"/><path fill="#31351F" d="M307 157c-3 6 3 17 13 23 1-5-3-10-2-15-4-3-7-5-9-7"/><path fill="#30201E" d="M301 455c-12 18-22 11 6 11 9 1 6 11 16 10-10-5-12-15-20-19"/><path fill="#748B51" d="M309 273c3-2 8 0 9 2 0 6-1 9-3 12-5 1-8-2-9-4-1-5 1-6 2-8"/><path fill="#4C8D43" d="M407 256c-1 4 14 3 23 4 23-2 23-2 49-4-25 3-53 0-71 0"/><path fill="#3A361F" d="M195 347c-7 11-19 16-31 17 5 6 4 4 20 7 0-7 4-15 9-22"/><path fill="#814428" d="M179 278c-7 5-4 10-10 16 5 1 9 0 11-4 3-4 3-10 1-12"/><path fill="#628445" d="M427 176c9 3 10 18 17 18 4 10-8 3 2 13 1-8 3-14 3-18-2-4-5-7-6-10 1 4 4 8 3 13-2-5-4-9-6-13-2 2 1 5 1 7-5-3-9-8-11-8"/><path fill="#A74A24" d="M219 296c-9 4-12 7-21 11-7 8 7 3 8 4-6 6-10 9-13 10 19-5 7-3 20-10-5 2-3-2-11-2 6-5 18-9 18-12"/><path fill="#230D14" d="M276 431c-2 3-2 7-4 10-1 4-8 9-4 15 6 1 9 0 10-5 0-3-1-10-5-9 0-4 1-6 2-9"/><path fill="#8AB559" d="M327 323c-8 5-14 12-21 18-5 3 7-2 1 7-5 6-8 16-15 11 2 0 1 5-1 9 6-7 11-13 16-18 3-14 17-17 21-28"/><path fill="#885026" d="M341 453c7 0 7 8 10 14-4-2-5-4-7-6 3 2-6 9-8 4-3-5 8-9 6-9"/><path fill="#7D3218" d="M303 240c6 11-7 5-13 5 1 6-11 3-6 13 5-6 25-10 22-15"/><path fill="#706648" d="M491 217c5-2 13 5 14 10-8 4-13-2-15-7"/><path fill="#B26C23" d="M380 187c-2 5-4 9-3 16 2 6 7 0 10 1 7-1 3-8 6-10-3 2-3 11-10 9-6-6 0-10 1-15 0-2-1-1-2-1"/><path fill="#6D5167" d="M365 367c-12 1-12 11-24 15 6-4 12-5 17-8-2 8-7 13-1 22 9-12-1-24 7-29"/><path fill="#BB6B21" d="M157 247c-5 3 0 6 3 8 5 2 8 1 9-3-2-3-6-6-10-5"/><path fill="#66351D" d="M395 441c-4 2-3 5-5 9 3 5 7 5 10 6 3-5-3-10-4-15"/><path fill="#75802A" d="M72 285c4 1 4 9 11 10-2 4-4 6-6 6-5 2-6-9-5-13"/><path fill="#683030" d="M502 169c5 7 7 21 15 23 2-18-9-11-14-20"/><path fill="#71694E" d="M252 281c-15 14-33 29-42 46 11-20 28-25 41-45"/><path fill="#312523" d="M326 454c0 6 5 10 5 16 7 2 12 4 17 4-3 2-19-9-18-20"/><path fill="#451007" d="M214 317c-5 3-11 2-14 6 12 1-10 10 5 5-3 4-6 4-8 6 2 2 4 4 4 6 10-9-4 2 4-10 4-5 7-9 9-13"/><path fill="#48A06D" d="M327 289c8 1 14 1 18 6-3 3-7 0-11 5-3-4 4-6-6-9"/><path fill="#3B4836" d="M392 433c-8 0-5 8-4 12 3-3 5-6 10-5 8 11 19 2 26 12-7-11-32-10-34-19"/><path fill="#6B3B1D" d="M320 457c-4 2-5 5-6 8v2h1v3c5 6 11 6 14 10-1-4-1-8-5-10 2 2-5 6-8 1 0-8 5-10 9-13 1-2-3 1-3-2"/><path fill="#197648" d="m446 265 1-2c14 2-2 15-7 8-1-4 2-5 3-6"/><path fill="#7A951F" d="M490 229c-10 0 0 9 5 8 8 2 12-1 17-1-7 1-15-2-20-6"/><path fill="#744E3E" d="M387 347c9 7-11 12-15 15 6-7 8-8 13-12"/><path fill="#A8C241" d="M168 181c1 7-5 17-5 22 2-5 9-5 8-8 1-6 3-12 0-13"/><path fill="#46A06D" d="M242 410c-4 1-6 4-10 4 5 1 23 8 17-4-3-1-4 0-5 0"/><path fill="#9F5E23" d="M323 459c-2 5-6 4-6 10 4 5 7 1 5-1 5 3 8 5 8 8 1-9-8-16-3-15"/><path fill="#888645" d="M309 275c-4 3-3 11 4 12 3-3 4-4 4-6-2-4-4-6-7-7"/><path fill="#F5DFAC" d="M397 180c3-2 6 2 8 3-3 7-8 7-11 5-1-3 0-4 1-7"/><path fill="#58A885" d="M406 161c-4 1-8 0-11 2l-2 1h-2c-7 4-13 8-18 15 3 1 6-4 0 2 15-16 9-7 16-17 27 3 48 8 19-5"/><path fill="#686737" d="M208 349c-6 3-9 2-11 10 0-12 24 2 14-13"/><path fill="#391A1C" d="M503 173c5 10 8 21 17 29 3-4 4-8 3-13-2 3-3 1-7 5-6-7-9-13-12-19"/><path fill="#8DB21A" d="M224 402c-1 3-5 7 0 10 5 0 8 1 10-1-8-4-5-9-8-9"/><path fill="#9E8C5C" d="M175 253c7-1 7 7 4 11-3 0-6 0-8-2 2-7 6-2 2-7"/><path fill="#5C6050" d="M384 404c2 7 7 17 2 26 3 0 3 2 6 1-3-9-2-19-5-27"/><path fill="#2E927F" d="M448 143c-5 3-3 0-7 7 7 5 23-2 8-7"/><path fill="#318878" d="M463 154c-8 7 12 10 16 15-2-5-10-11-15-14"/><path fill="#3E2C1C" d="M214 460c-2 1-11 4-4 4-5 5-3 8-6 12l-2-1 2 1c4-1 10 0 13 0 2-8-7-2-7-10-1-4 2-5 3-6"/><path fill="#4A3757" d="M376 363c-5 3-10 3-15 6 3 3-1 6 0 9 9 0 6-11 12-14"/><path fill="#84744F" d="M213 430c-21 8 9 7 8 5-3-5-6-4-7-5"/><path fill="#381D19" d="M244 469c-6 3-10 4-14 9 8-2 37-1 13-7"/><path fill="#96B44B" d="M305 342c-3 11-6 5-10 16 5 0 15-12 12-15"/><path fill="#4D2613" d="M454 284c3-1 7-1 10 0-2 8-27 3-11 0"/><path fill="#32452E" d="M222 455c-6 0-6 7-11 7 5-1 11-3 15-5 3 3 2 5 3 6 8-5 1-10-6-8"/><path fill="#D79A33" d="M290 224c8-5 23 12 23 8 9-5-12-9-20-11"/><path fill="#BF6A22" d="M107 252c-6 6-13 5-16 1 2 6 5 8 7 8 6 0 10-4 10-7"/><path fill="#607644" d="M243 458c2 5-3 12 9 13-3-4-3-9-1-10-4-1-5-2-7-1"/><path fill="#6B8322" d="M291 386c-3 3 2 10 3 14 3-5 6-13-1-14"/><path fill="#3DAB73" d="M373 227c-13 7-5 9 8 9-4-1-6-7-9-8"/><path fill="#2B5A41" d="M325 199c5 8 7 18 13 26 1 6 3 10 4 13 5-5-2-7 7-13-2 5-8 3-10 3-5-11-8-19-12-28"/><path fill="#758027" d="M72 286c1 4 0 16 3 13 4 1 5 0 7-1-3-5-9-6-7-11"/><path fill="#1A7E4E" d="M446 265c-1 2-6 1-7 4 6 7 18-2 10-5"/><path fill="#646461" d="M418 339c-1 9-14 15-12 27 5-8 9-16 12-25"/><path fill="#F9EDCE" d="M399 181c-4 0-3 5-6 6 5 5 17-4 7-7"/><path fill="#985B29" d="M343 455c-1 4-12 7-5 11 6-2 4-3 4-6 4 2 6 4 7 6-1-7-5-6-4-10"/><path fill="#C09551" d="M258 248c-17 4 10 2 16 6-1-6-4-4-7-5-2-1-5-1-7 0"/><path fill="#19694E" d="M363 312c6 2 2 12 4 16-5-4-5-8-4-13"/><path fill="#B6A376" d="M107 356c2 4 8 9 11 13 4-7-5-10-8-13"/><path fill="#373122" d="M196 420c3 4 9 13 14 9-3-2-8-7-11-10"/><path fill="#3B835E" d="M523 214c-2 5-3 5-4 9 4 2 4 8 6 5 2-5-1-8-1-12"/><path fill="#1D2A3D" d="M415 325c3 1 2 15-5 10 0-2 1-5 3-8"/><path fill="#D09642" d="M251 260c-4 2-10-1-14 1 7 6 21 1 17-1"/><path fill="#662C2D" d="M441 439c7 6-6 9 1 14 8 1 1-11 6-7-1-2-2-5-4-5"/><path fill="#156750" d="M364 262c2-1 4 0 5-1 2 3 4 4 3 6-4-5-12 5-10-4"/><path fill="#A46C2B" d="M104 356c-1 7 9 11 12 15-1-4-6-9-10-13"/><path fill="#613D28" d="M430 442c1 4 4 4 5 8-5 6-8-3-9 1 4 5 10 4 14 5-3-5-7-8-9-12"/><path fill="#915323" d="M177 372c-2 5-9-1-9 4 6 7 8 2 11-1"/><path fill="#646426" d="M203 362c-6 1-15 6-13 16 4-2 5-14 11-14"/><path fill="#987129" d="M224 461c-1 13-3 5-4 4-2 6 0 9 1 11 7-6 6-10 3-10"/><path fill="#675261" d="M407 333c-3 8-14 13-16 17 8-3 13-9 16-14"/><path fill="#A36927" d="M136 372c-8 5 3 7 5 7 2-5-1-7-3-6"/><path fill="#53A56F" d="M328 290c5 2 10 6 3 8 6-2 10-3 13-1-3-9-11-2-13-8"/><path fill="#D29D4D" d="M275 232c4 0 15 2 23 8-4-8-14-7-20-10"/><path fill="#6D6E48" d="M430 440c-5 13-14 7 3 12 2-6-6-7-4-11 5 3 7 4 8 7-1-3-4-6-5-5v-2h-2"/><path fill="#78503F" d="M388 349c-8 6-9 7-16 12 5-4 15-5 17-10"/><path fill="#68D975" d="M455 231c2-1 4 0 5-1 1 9-15 6-6 1"/><path fill="#A55B1E" d="M112 267c-1 7-3 16-3 20 4-5 3-11 3-19"/><path fill="#5B431F" d="M157 253c-1 2 2 12 10 8 2-2 1-4 2-5-3 2-9 3-11-2"/><path fill="#65794E" d="M345 263c-1 4 1 10-4 13 2 3 1 7 6 5 1-10-3-3-2-17"/><path fill="#A1BE3E" d="M482 216c-2 5 0 10 2 13 10 1-2-6 0-11"/><path fill="#288B69" d="m451 193-1 2c-1 4 1 9-1 13 2-4 1-10 2-14 1 6 3 8 5 10 4-4-3-11-2-11"/><path fill="#366048" d="M310 249c-3 1-6 2-8 4 1 3 2 5 4 6 4-1-1-5 3-9"/><path fill="#3A8D71" d="M366 139c2 3 4 6 6 8 2-1 3-3 6-2-2-2-7-4-9-6"/><path fill="#22B070" d="M398 259c3-2 10-1 8 5-2-2-6 3-7-3"/><path fill="#CFD3CA" d="M395 174c-5 1-10 2-14 6 5 4 11-9 17-6"/><path fill="#BCE3CF" d="M413 252c10 2 21 3 34 2-11 0-20-3-32-1"/><path fill="#7A5F4F" d="M380 185c-3 4-7 3-6 10-2 7-2 9 2 10l2 2-2-2c-3-6-2-19 7-20"/><path fill="#2C9D7E" d="M300 359c10 2 2 7-4 7 0-3 2-3 2-5"/><path fill="#3D6036" d="M526 228c-5 2-1 8-3 10 6 0 4-4 5-7"/><path fill="#7C7957" d="M342 219c-1 2-2 8 1 9 4-3 4-7 1-8"/><path fill="#D59E53" d="M267 234c-9 5 7 3 11 2-1-1-6-2-9-3"/><path fill="#C86114" d="M98 227c-4 7-11 7-16 13 7-6 20-11 20-13"/><path fill="#552B17" d="M456 285c-2 2-6-1-8 1 5 4 24 0 9-2"/></svg>