<svg xmlns="http://www.w3.org/2000/svg" width="600" height="600"><path fill="#9C5540" d="M247 102c3-2 7 0 10-1 9 2 22-1 23 6-15 4-28 7-40 13-5 3 0 9-4 12-9 3-17 4-25 7-2 20-31 14-33 33 9 10 22-3 33 9 19-16 43-13 57-33 9 1 2 8 2 11-9 27-41 29-45 47-20-3-28 15-44 14-14 11-17 26-23 39-7 3-16 3-21 2 1 11 9 17 16 27 12 7 22 14 33 17-3-4-9-7-13-9 0-14 4-24 8-35 12-11 17-25 28-33 13-11 26-19 40-24 18-8 36-11 54-13 17-2 29 1 42 3 17 3 31 9 44 17 12 17 30 19 39 33 3 9 2 18-3 23 10-7 15-16 22-22-4-1-8-3-11-4-5-14-2-29-2-39-2-6-5-9-7-11-9-1-14 11-23 3-3-11-7-16-14-23 0-8 3-14 0-20 2-4 6-5 7-6 1 5 1 10 3 14 2 6 5 8 9 8 5-5 12-13 23-10 5 4 5 10 7 14 5 1 9-1 11-1 5-4 3-9 4-12-4-8-10-7-15-9-2-8 4-11 7-14-8-12-19-17-29-18 4-7 13-5 19-7 11 1 16 9 24 10 10 9 16 18 21 28 10 22 14 43 17 66-2 17-4 31-10 44-6 6-13 7-16 15l-8-4c-10 13-25 23-39 31-2 11-4 20-13 24 14-7 25-23 41-33 9-1-2 8-2 9 5 1 7 4 11 5 1-5-4-12-1-18 13 1 22 7 32 11 5-4 11-2 15-3 17 7 29 19 40 31 7 10 11 19 14 28 7 1 13 4 12 11-3 20-5 40-15 56-5 5-8 10-14 8 3-12 6-23 7-35-7 13-14 27-24 40-5 6-11 11-17 12-5 0-7-2-6-6 10-15 20-30 21-47-11 1-18-13-26-19-12-16-27-31-32-49-11 9-22 18-34 23 3 10 21 0 30 12 15 15 18 36 28 49-8 17-22 33-37 45-11 9-20 19-34 16 15-17 36-40 43-64-4-3-9-2-12-7-10-10-21-15-27-26-21 4-43-10-59-13 9 9-9 18-3 24-7 15-16 28-24 39-4 3-9 1-10-2 6-15 15-32 16-43-10 7-18 12-28 12-13 2-20-6-29-12-16-4-30 7-45 8-6 0-3-6-8-4-9 12-15 24-25 34 11 30 29 53 49 76-1 5-7 2-11 4-10-4-15-11-23-12-13-15-32-32-43-50 1-21 5-37 9-58-12 1-23 4-35 5-12 3-18-1-25-5 3 5 2 12-3 14-9 10-19 20-30 24-2 12-2 25 2 37 3 15 7 27 14 37 0 6-6 5-8 4-13-11-21-23-27-35-6-16-11-29-12-43 4-11 12-6 15-14 1-13 8-21 14-30 4-4 7-8 11-9 4-2 5 3 7 3 6-6 12-11 12-19-14-2-27-3-39-7-6 0-9-3-9-7-12 19-22 46-24 71-3 7-8 7-11 10 1 21 8 38 17 55 2 6-4 8-7 6-8-8-13-15-17-23-5-11-8-21-11-30 0-35-5-76 15-101 5-7 11-6 17-6 9-5 8-14 14-17 13 3 27 3 38 6 9 3 16 6 22 11 1-6 8-9 12-4-18-3-35-13-49-24-15-13-7-23-24-33-1-11 9-13 10-20 3-8 2-14 0-21 2-5 5-3 7-2 6-13 13-24 21-32 8-15 28-14 26-28 22-8 37-27 58-32 18-8 35-14 53-15"/><path fill="#2B0814" d="M382 295c-6 8-14 14-22 16-17 4-27-7-43-9-23 11-47 15-69 22 2 8 2 12 4 16 6 7 14 6 20 10 3 3 3 5 4 6-4 3-6 1-8 0 3 3 6 3 9 5 1-13-3-29 2-41 4-3 6 0 8 0 4 8 5 13 7 19 0 16 5 30-6 38 9-2 15-3 19-5 12 12 33-1 39 1 5-4 7-8 12-13 4 3 7 5 6 10 2-7-6-13-1-14-6 5-12 9-18 11-14 2-25 2-35 5-6 0-11-1-15-1 1-7 1-10 1-15 19-5 37-19 46-20 11 1 22-3 26 7h3l-2-1c-4-3-1-7 0-11 3 2 1 3 2 6-2-3 1-4 2-5 3 2 3 7 8 7 34-11 42-39 0-43"/><path fill="#F6CB9A" d="M126 161c-19 21-36 29-20 42 9 0 32-2 47-4 2 1 2 4 1 7 12-5 17-18 16-8 3-13-1-20-7-29-11 3-22-5-34-7"/><path fill="#FBD196" d="M277 197c-8 1-12 2-19 4-19 7-36 17-50 30-10 6-10 15-19 20 15-15 33-25 50-35 9 0 9 3 16-5 3 2 2 5 3 6-4-1-14 7-17 2-6 6-12 10-6 15 10-4 21-11 29-8-5 5-19 9-10 13 31-20 99-34 13-42"/><path fill="#581B1D" d="M195 269c-7 2-8 3-11 8 3-5 12-2 15-1 4 10 2 21 10 24-2 5-4 7-6 8-20-1-44-2-59-5h-1v-1h1l-3-1c-4-1-7-4-11-6 4 1 7 8 11 5-43-7 28 14 37 16 5 11 12 19 23 21-9 1-10 10-13 8 5 2 10 7 15 9 9-6 19-3 26-2 0-3 0-6 4-7-8 4-13-5-16-11 0 2 2 4-1 6-1 4-2-1-3-1-2-8-3-13-4-18 7-5 12-8 9-15-13-9-12-24-17-36l-3-1h-1v1"/><path fill="#822925" d="M59 318c1 5 6 8 7 16-6-5-11-5-20-5-3 4-5 8-7 11-10 19-3 56-10 71 21-5-6-3 22-14 4-22 13-46 18-60-1-9-7-13-9-17"/><path fill="#FB854F" d="M381 244c-4 4-5 9-8 14 4 7-1 2 6 5-2 4-2 6-3 7-25-4-54 19-65 13-5 4-7 7-7 15 16-2 28 6 40 2 10 1 17-1 24-5 8-6 9-13 5-19 6-1 5-8 10-4-1-4-3-5-4-7 3 1 5 3 7 5 3 2 4 8 6 6-1-4-1-7-2-10 1 3 1 6 3 7-3 1-4-1-6-2-3-10 1-17-7-26"/><path fill="#9E4024" d="m231 223-15 9s9-8 12-4c-7 6-12 16-15 18-8 1-10-8-12-3-6 8 17 0 14 12-9 10-20 9-29 15-4-2 0-5 0-9-7 10-10 21-12 32 10 7 20 11 33 10-1-8-8-4-11-4 5-7 6-11 3-20-5-3-11-4-15 1-1-2-2-4-1-5l2-1 1-1 1-3c3-2 8-4 12-2 8 8 6 4 8 15 1-5 1-10 2-15 9 1 20 1 25-3 5-7 0-15 4-20 42-32-8-6-20 4-2-9 5-13 9-19 7-6 4-2 2-5"/><path fill="#FB7F49" d="M268 151c-15 18-43 18-61 32 0 5 8 4 12 2-1 4-3 6-5 6-15 4-11-12-18-14-7 4-6 2-13 3-2 7 2 10 8 10-8 4 3 8-1 13-5 1-7-1-8-4 2 4 0 9 1 12 6 5 13-8 20-7 8-3 13-1 17 1 6-5-3-4 2-10 8-11 20-8 26-19 9-7 17-14 20-22"/><path fill="#945346" d="M135 260c-4 12-12 5-14 10-40-8-45 8-7 25-3-6 0-7 4-7 9 4 16 9 24 12 13 4 26 4 37 6-11-5-15-7-28-18-8-9-16-15-18-26"/><path fill="#F1632D" d="M245 107c-17 2-22 9-28 9-24 10-40 21-55 35-7 5-13 5-19 7 7 2 15 5 22 9 7-6 10-12 17-17 8 1 15-4 22-5-1-2-3-10 3-11 26-10 20-3 22-3 4-14 3-9 4-16 35-8 54-8 6-6"/><path fill="#FC8C53" d="M338 215c3 5-3 8-4 21-10 6-17 10-24 16 14 7 30-7 46 1 22-4 21-29 1-32-6-4-9-6-17-7"/><path fill="#FA8557" d="m247 238-2 1c-12 7 0 20-10 28-9 3-17 3-23 2-2 7-4 13-4 18s22 17 33 20c1-5 3-9 5-14 0-6-6-8-4-14-3-10 0-24 3-28 3-7 7-10 11-11 12 2 21 1 28 9-4-9-13-12-22-12l-2 2h-1l-2 1c-3 1-7 1-9 5-2-3 1-4 1-7"/><path fill="#BB755B" d="M154 208c-9 8-17 17-27 23-5 2-6-4-10-5 7 12 19 26 22 32 6-1 13 5 18-1-7 4 3-18 7-25 2-5 4-6 8-5l2-1 1-1v-3c-2-1-1-2-1-3 1 2-2 4-1 5-4 3-7 2-7 6-4 4-7 7-10 4 8 2 4-15 14-12-7-3-13-7-15-14"/><path fill="#812824" d="M155 348c-2 2-5 6-8 8 8 12-5 10 1 22-12 3 33-1 42-5 6-3 7-7 6-11 1 3 1 7-3 8-2-6-3-11-5-15-12-4-20-5-30-8"/><path fill="#6A323C" d="M510 306c-11 12 35 43 36 56 9 1 12 1 15 0 4 2 6 3 7 6-13-10-16-31-32-49-8-6-13-8-17-12"/><path fill="#591616" d="M289 267c-2 8-9 16-16 19-13 2-23-1-27-8 2 5 8 9 13 10 13 3 23-8 29-12-3 10-9 13-14 16-9 2-18 3-24 0-4 5-7 10-7 16 14 2 26-2 37-5 21-4 33-24 9-35"/><path fill="#FAA66C" d="M339 259c-4 1-10 0-13 2-14 3-16 17-20 26 9-9 26-1 40-15 17 2 49-3 18-14-8 0-16 1-23 1"/><path fill="#96523F" d="M90 205c3 6 1 8-5 5-2 5 2 17-1 23-3 9-14 7-11 17 12 1 40 16 46 1 0-3 4-5 1-11l-1-1 1 2c-8 0-4 10-8 12-6-13-15-24-17-31-2-5-6-6-10-9 20 14-2-13 19 6-6-8-10-8-11-12"/><path fill="#6B3A40" d="M451 250c-6 10-18 13-24 20 0 11-1 18-3 26 11-4 24-11 34-22 7-4 0-7-1-11 30 17 1-4-5-11"/><path fill="#E9AF8A" d="M107 180c-6 7-10 15-15 22 10 7 30 17 33 31 11-10 28-21 29-31-13 1-37 1-45 1-9-1-9-7-9-7 1-2 0-9 6-14"/><path fill="#974A40" d="M91 306c1 2-18 12-6 26 6 2 13 2 20 3 6-2 8-6 13-7 0-4-3-7-2-8 5 1 7 6 11 4 1-3 3-5 2-9-16-10-19-6-38-8"/><path fill="#CB875F" d="M483 188c-8 3-21 11-29 16-2-5 1-9 2-14-7 8-7 15-5 24 5 1 8 8 11 13-5 6-9 12-15 13 8 0 13-9 15-11 9-7 17-9 25-12 0-12-2-20-4-29"/><path fill="#FBAB70" d="M327 211c5 2-2 3-3 2-11 5-6 12-10 20-13 5-12-12-9-10 1 12-16 8-15 17 5 8 10 9 19 12 7-7 14-11 23-15 1-14 8-18 5-22 24 3-1-4-8-3"/><path fill="#65343E" d="M385 348c-7 4-2 15-2 17 11-1 12 3 20 3 19 4 12-7 37-6-7-10-11-7-16-13-14-1-27 1-37-2"/><path fill="#54161E" d="M441 356c-3 1-1 6-6 8-10 0-13-7-16 6 2-1 5-2 10-1-6 7 11 14 13 20-2-3-9-8-10-12 18 7 26 25 35 27l3 1-3 1c-2 1-3 4-3 5 2 8 5 15 11 16h3l-2-1c-7-4-6-12-10-17 11 0 22-1 21 4-4-15-10-4-18-6 3-4 8-3 10-5-4 0-8-2-10-6-5-6 1-10 5-11 0-4-5-9-5-14-5-8-13-9-20-12 6 3 11 7 14 13s5 12-2 15c-9-8-19-14-28-18 4-4 8-10 8-12"/><path fill="#8E9E9A" d="M481 179c3 11 7 23 8 35-8 7-17 7-23 13 8-3 17-11 25-6-8 14-12 27-17 39-5-4-9-9-12-13 0 6 4 13 10 16 3-6 6 5 12-2 7-13 11-28 11-42 1-13-1-25-4-36-3 0-5-5-7-3"/><path fill="#53646A" d="M252 251c-6 4-12 12-7 18 0 6 4 11 10 14 6 2 11 3 15 1 7-2 11-5 13-9 4-9 0-15-3-19 0 4-3 13-9 15-12-6-12-12-19-19"/><path fill="#D6411D" d="M395 155c2 6 1 14 10 21-6 0-13-7-11-14-2 1-1 3-2 4 13 11 7 18 16 28 10-3 8-11 19-11 8 0 13 4 17 10 3-2 4-4 6-5-4-7-18-12-17-24-12 1-8 13-19 15 5-13-21-7-17-23"/><path fill="#853430" d="M443 309c-6 5-12 10-18 14-1 5-1 7-1 9 1-1 3-2 2-5 1 9 13 6 17 14l-2 1v-1c23-10 36-31 2-31"/><path fill="#A9321E" d="M506 324c8 10 15 21 21 31 1 8-10 11-12 13 1 3 6 6 2 9-53-52-38-33 2 13-4-10 12-9 17-7-6-19 3-17-10-39-3-7-10-17-19-19"/><path fill="#96533F" d="M447 203c0 3-12 3-10 0 1 13-5 29 3 37 10 3 6-3 23-11-5-7-8-13-15-14 5-3 2-9 0-10"/><path fill="#F97840" d="M426 113c-18 2 17 3 18 10 10 7 14 13 17 19 4 9 4 17 3 26v4c5 0 8-3 11 0-1-4-6-2-9-3 3-5 11 2 12-5-4-17-11-30-21-42-9-6-20-7-28-9"/><path fill="#782620" d="M103 219c5 8 13 11 15 16 7 9 5 12 3 17-8-6-2 13-21 7-9-2-17-4-26-6 4 3 6 8 11 9 7 2 13 3 20 2-8 5-17-1-19 5 9-2 18 1 27-1 42-9 12-18-6-49"/><path fill="#FACF96" d="M225 107c-13 3-27 7-40 14-17 9-26 15-39 27 5-5 12 0 16-1 19-20 55-31 68-41"/><path fill="#4B1921" d="M417 312c-2 7-24 19-34 26-10-1-7-8-14-5-2 4-1 7 2 12-3 6-5 7-8 10 2 2 5 6 7 4-3-4 0-6-2-8 11 8 5 6 14 11-1-6-3-11 2-14 13 1 26-1 37 0 5 0 8 4 6 6 3-2 0-5 2-7-2-2-8-3-13-7-3-6-2-7 1-10-3 1-8 6-8 5-1 3 0 7 2 11-10 1-18 2-27-1 16-13 29-19 35-32"/><path fill="#FA8955" d="M108 364c-9 8-16 18-20 29 5-1 6 5 11 3 8-6 15-12 21-18 16 13-5-14-11-13"/><path fill="#862320" d="M92 430c-2 3-4 6-7 8 2 13 5 23 7 34 5 10 10 19 19 19-11-21-13-35-17-60"/><path fill="#E45D2F" d="M381 265c0 2 5 4 3 6-5-1-4 3-9 4 3 7 1 15-6 19-7 10-28 5-24 11-2-5-8-2-13-3 4 2 8 2 10 5 3 2 18 3 23-1 12-3 15-15 25-17 0-9-3-17-5-16 1-4-2-5-3-6"/><path fill="#54181B" d="m283 349-2 1c-2 4-5 7-3 13-2-3-5-3-6-4 1 0 2 3 4 3l1 3v1l-3-1c-2-6-5 3-6-8 1 6 3 12 2 16-11 4-19 6-28 7-9-7-2-6-9-22 1 10 5 21-4 27 2-1 3-5 5-6 6 2 8 7 15 4 11-6 22-6 27-9s8 3 10-1c-2 3-7-3-7-1l-1-1v-3c4-1 9 4 14 3 1-8 6-23-5-24"/><path fill="#4D3D4D" d="M264 244c-10 1-19 8-22 18 2-7 8-9 8-11 5 0 4 4 5 7-3-1 0-8 5-8 6 8-1 9 2 14 2 4 4 6 6 6 10-2 10-12 9-17 6 6 9 10 9 15-2 9-8 14-13 17-6 1-6 1-2 0 6-2 11-6 13-11 5-5 4-12 3-16-2-8-12-15-21-14"/><path fill="#57161D" d="M535 346c3 7 6 13 7 19 6 1 6 5 11 3 3 25 0 47-7 59 6-3 9-6 11-8 4-10 7-18 8-26-5 0 0-19-9-20-3-5 1-6 1-8-2-1-3 0-4 1-8-6-12-12-17-18"/><path fill="#5C1C24" d="M463 416c-11 21-22 36-42 53 14-1 24-9 34-17-1 1-3 0-4 1 6-8 9-15 13-22 3-6 0-9-1-12"/><path fill="#672B30" d="m250 356-3 1c-7 3-6 12-6 21 10 0 18-2 26-5 5-13-6-16-13-17"/><path fill="#FA8856" d="M211 353c-1 1-2 0-3 1-3 3-2 6-5 6 6-3 2 1 13-4-6 10-3 13-4 21-3 4-7 12-10 8-3-8-3-14 0-20-4 7-9 15-9 24 6 4 11 1 15 4 1-16 42-45 2-40"/><path fill="#FBAC72" d="M312 194c-72-2 5 16 25 11 2-5-16-11-13-13-4 1-10 1-15 1"/><path fill="#4F171F" d="M362 359c-8 6-11 10-17 17 9 6-5 10 3 20-1-3 0-5 0-8 2 1 5-5 6-2 2 10-18 21-21 35 14-11 21-25 25-33-6-6 14-20 2-28"/><path fill="#A5431B" d="M421 276c0 9-5 7-2 18-13-3-20-8-29-15 3 5 3 6 6 9-13 2 1 3-8 6 17 12 17 2 30 19 5-11 5-23 3-34"/><path fill="#915646" d="M350 337c-3 1-8 3-10 1-12 8-31 13-39 20 5 3 7 3 12 5-2-5 0-11 6-12 14-1 27-7 42-6 5 6-2 9-5 12-10-1-17 13-30 8 6 2 9 2 15 1 11-1 4-4 13-7 13-5 14-19 2-22-2-1-3 0-4 0"/><path fill="#C87D3F" d="M141 308c2 7 3 14 11 16 11 1 20 3 30 2-1-3-2-6-4-8-13-3-25-7-35-8"/><path fill="#E75D30" d="M362 207c7 8 11 15 13 28 2 4 8 1 13 4-1 6-8 1-6 7 10 12-4 22 12 30l-3 2 3-2c-12-7 1-28-4-37-2-2-1-3-1-5-6-7-10-10-13-21-4-4-8-5-11-7"/><path fill="#4C6C6E" d="M417 242c4 4 0 9 1 16-16-2-8-14-20-4-1 3 4 10 9 13 8 3 17 1 19-4 3-12 1-17-7-22"/><path fill="#924327" d="M363 349c-12 8-27 0-38 2-6 1-12 3-12 7 7 2 13 6 20 7 10-8 14-5 29-13"/><path fill="#E9653D" d="M499 323c1 12-10 8-4 15 4 7 9 14 16 23 3-1 2-1 6-3-2-13-9-25-17-35"/><path fill="#F8834A" d="M324 192c14 14 26 18 45 26 3-3-11-5-6-12 8 0 12 7 18 7-8-4-16-12-28-14-9-3-18-6-28-6"/><path fill="#B94401" d="M300 293c-16 13-36 17-56 21 2 1 3 4 5 5 17-5 58-13 57-18-5-2-5-4-6-7"/><path fill="#581A1A" d="M247 319c-18-7 2 21-5 27 13 6 21 7 31 11-1-11-15-7-20-16-2-7-8-14-3-18-1-2-2-3-4-3"/><path fill="#6B3742" d="M448 358c-2 5-9 7-12 11 8 5 18 10 25 17 7-3 3-9 1-12-3-9-12-15-14-15"/><path fill="#8C2E22" d="M199 244c-14 13-14 15-14 25-1 0 14-6 24-9 14-15-9-9-10-14"/><path fill="#5D1717" d="M139 310c-5 3 7 16 4 28 12 4 35 7 51 15 10 18-10 28-2 45-3-14 4-26 9-36-4 1-5-12-13-13-12-3-27-6-29-13-3-13-21-12-18-28"/><path fill="#D14116" d="M189 144c-9 7-16 15-22 24 7 6 8 15 11 24 2 9-1 17 0 24 5 1 8 0 13 1 2-10-6 5-9-4 1-6-2-10-1-15s6-4 8-5c-13-6-5-18-18-22 11-22 57-30 10-19 2-4 4-5 5-7"/><path fill="#832A29" d="M201 450c-2 11 32 35 45 42-5-6-13-16-18-23-2 8-14-15-21-15"/><path fill="#E09A69" d="M464 176c0 3-3 0-4 2-4 14-3 13-7 22 9 0 15-7 22-10 8-20 2-2-7-16"/><path fill="#7D2D29" d="m131 315-3 9c-6 3-8-2-11-4 0 3 2 4 2 5-9 5-7 12-12 12 1 0 8-2 6 2-4 0-6 0-9-1 3 0 4 2 6 2 24 5 13-3 26-2h5c1-19-4-20-2 1-7 0-4-7-7-5-2-7-4-16 2-16"/><path fill="#602A36" d="M213 430c-11 3-1 8 2 21 10 11 21 32 31 34-11-25-21-27-33-52"/><path fill="#FB7F55" d="M289 253c0 7 1 17 13 23 6-3 9-8 13-13-9-2-16-7-24-10"/><path fill="#310A12" d="M210 320c2 7 2 14 5 21 1-2 2-5 0-7 6 8 2 3 8 8 9 4 19 2 26 8-8-10-23-17-37-29"/><path fill="#611C22" d="M526 405c-4 14-13 26-20 37 8 0 12 0 17-6 3-9 12-31 1-27"/><path fill="#6E3D45" d="M467 408c4 5 2 13 9 17 0 6-8 5-9 0-9 17-13 27-22 36 19-15 13-15 32-34 4-1 3-5 6-6-8-13 2-10-16-12"/><path fill="#7B2A18" d="M214 297c10 7 4 21-2 24 3-5 8-2 17-2 4 3 8 5 10 8 0-3-2-5-2-9 8 0 8 0 15 3-11-4-22-17-35-22"/><path fill="#BA7859" d="M80 209c13 2 17 18 20 16 0 10 9 19 10 27-1-9 13-11 5-16-13-21-24-21-31-26"/><path fill="#6C1413" d="M479 328c7 5 12 11 16 16-4 3 0 6 1 11-1 2-12-8-8-5 9 10 16 22 26 27 0-12-9-21-16-31-7-6-11-12-16-16"/><path fill="#4E4651" d="M409 237c-5 2-12 6-12 14v3c1 6 4 13 11 15 4 0 4 0 1 1-7-4-11-10-12-16 1-6 5-1 8-5 1 6 6 11 12 8-3-9 4-10 0-14 4-4 6 0 8 3 0-4-9-8-13-9"/><path fill="#A76C59" d="M486 224c-5 1-10 3-13 7-14 8-6 13-12 14 2 0 4 0 6-1 2 4-4 7 1 6 0-7 8-2 5-9 3 3 5 2 6 4 2-7 7-16 9-22"/><path fill="#D15506" d="M288 224c-7 3-18 1-21 12 10-2 17 14 21 14-4-7-1-18 1-25"/><path fill="#7C211F" d="M121 379c-7 7-14 13-22 19 1 3 1 6 0 9 9-6 16-11 26-20 0-3-1-4-1-6"/><path fill="#601814" d="M390 259c2 9 4 15 9 23 6 5 12 5 18 9 0-6-1-10-2-14-6-1-10-1-14-3-6-4-9-9-10-14"/><path fill="#762020" d="M41 421c-1 2-3 4-4 6 2 12 6 23 10 34-4-3-7-7-10-11v-2 2c5 7 12 19 20 21-7-14-15-37-16-47"/><path fill="#64312B" d="M409 329c-9 3-19 10-24 14 9 4 16 3 24 2-5-12 1-11 1-13"/><path fill="#F97E4D" d="M163 202c-16 4 0 18 9 18 0-7 2-11 1-18-3 2-6-1-8-1"/><path fill="#D25329" d="M388 219c-17 1-2 8 2 15-2 2-1 7-4 8 2-5 4-2 5-1 2 6 1 11 2 12 0-4-2-9 1-12 2-6 5-9 8-10-5-5-8-10-12-12"/><path fill="#974426" d="M215 318c0 7 19 17 26 21 0-8-4-14-11-19-5 3-9-3-11-1"/><path fill="#642F32" d="M310 373c-5 2-10 3-15 5 0 5 6 3 13 10 18-1 15-11 2-14"/><path fill="#79150E" d="M476 327c-4 6 0 12 6 17v3-3c4 2 3 6 13 11 3-10-6-15-8-21-4 0-6-6-9-6"/><path fill="#C2472A" d="M501 324c7 8 12 17 16 26 6 11-4 10-5 11 2 6 3 7 5 4 4-5 11-1 8-8-6-12-12-24-21-33"/><path fill="#FBA36C" d="M206 358c-2 5-10 19-3 27 7-4 10-9 8-15 3-5-2-10-5-11"/><path fill="#6C3E44" d="M548 392c-3 5-11 11-15 18-3 9-5 16-9 24 10-13 19-25 25-41"/><path fill="#F87F49" d="M485 309c-10 3-13 9-15 16 8-13 42 0 15-18"/><path fill="#FA804B" d="m190 400-1 1c-5 6 0 12 0 17 11-2 19-22 2-18"/><path fill="#CB411B" d="M230 361c-9 9-14 20-19 31-7 4-19-3-19 3 7 1 13 5 19 1 6-12 16-21 18-33"/><path fill="#F77A46" d="M74 410c-3 1-3 4-4 6 2 7 2 11 8 16 4-4-2-15 9-14-5-1-7-7-11-8"/><path fill="#EC5628" d="M440 121c6 2 6 8 13 15 1 6-3 8-6 11 5-1 8 4 12 5 1 5 2 8 1 12 2-2 1-6 2-8 1 5 2 9 2 12-1-4 0-6 0-9-1-7-2-11-4-14-4-11-10-19-19-23"/><path fill="#AC3A2B" d="M73 433c3 13 9 26 16 38-1-11-3-21-6-30-3-2-6-4-8-7"/><path fill="#E76236" d="M270 149c-2 9-10 20-20 27-8 11-17 8-27 18-6 8 6 5-1 11-6-1-11-3-17-1-9 0-16 12-20 10 7 6 20-14 35-8 8-5 2-7 3-9 13-10 26-13 34-27 7-5 11-12 14-18"/><path fill="#9C5E46" d="M457 122c15 13 19 33 25 49-2-9 2-20-5-26-5-10-11-16-18-22"/><path fill="#822423" d="M230 370c-7 8-11 17-17 25 0 6 1 9 0 13 4-13 18-23 17-37"/><path fill="#541015" d="M521 381c-4 13 8 5 11 12 9 4 7-4 16-5-4 0-15-3-23-6"/><path fill="#5A1616" d="M483 222c-15 1-23 17-36 20 1 0 3-1 4 0-6 11-13 16-15 20 6-6 11-6 14-12 6 4 7 8 14 11-4-5-12-10-13-15 6 1 7 5 10 9-2-5-6-7-7-12 7-10 33-23 34-21"/><path fill="#64110D" d="M208 398c2 2-2 3-3 2 4 11-3 19 1 25-6-1-10-1-15 0-4-7-6-13-5-20-1 9 1 15 2 21 8-6 14 3 18 5-1-19 10-18 2-33"/><path fill="#EC6219" d="M338 252c-7 1-13 2-19 4 9 7 59-3 18-5"/><path fill="#A05136" d="M226 228c-7 3-15 6-23 13 4 2 6 5 8 5 5-5 10-13 17-17"/><path fill="#F77547" d="M492 321c-5 12-23-5 1 18l6 6-5-5c-4-7 6-11 3-17v-1l-1 1v-1"/><path fill="#631612" d="M78 310c-1 1 3 13-4 17-22-14-12-12-2 13 1-5-7-10-2-13l3 2 2-1c10 12 33 12 50 14-36-2 1-6-43-7-2-8-2-16-4-23"/><path fill="#71362F" d="M185 329c-5 2-13 0-18 1 14-3 8 10 16 4 0 6 6 10 7 9 15-7 7-3-5-13"/><path fill="#EF986F" d="M232 229c-7 4-11 10-16 16 9 3 12-6 19-9-2-2-2-4-3-6"/><path fill="#A8321C" d="M186 424c-1 2-1 4-2 6 8 10 9 14 11 14 4-5-2-5-6-7 4 0 7-7 13-6-2-4-5-4-7-5-3 1-6 2-7 4-3 0-2-2-3-3"/><path fill="#9B392F" d="M28 419c4 15 8 30 19 42-8-14-8-29-19-39"/><path fill="#8F2313" d="M454 184c-2 4-2 9-7 12-6-6-11-12-20-11 8 2 6 10 10 15 3 0 6-1 8-2 5-1 7-8 9-12"/><path fill="#5A110E" d="M130 350c2 0 10 6 5 13-3 4-6 6-9 8-4 0-5-3-7-3 2 2 4 4 7 6 3-2 7-3 9-6 2 5 6 9 5 12 1-9-1-15-2-22-1-6-2-8-6-8"/><path fill="#A72609" d="M447 149c1 1 5 1 6 4 6 8-1 17 1 22 6 2 9-5 15-2-17 2-3-22-20-24"/><path fill="#7E2516" d="M376 237c3 8-10 15-15 19 3 0 5 2 8 1-1-9 26-20 9-17"/><path fill="#792F27" d="M182 335c-6 2-9 6-14 7 11 2 28 8 14-8"/><path fill="#853E2B" d="M353 346c-6 1-13 0-19 3 7 5 39 1 21-5"/><path fill="#99320E" d="M323 208c-2 3-10 2-12 5-11 5-14 6-20 15-4 3-3 8-5 11 3-8 18-21 23-23 13-11 53-4 11-8"/><path fill="#F5D3B1" d="M83 300c-5 12-3 21 7 1 8 3 15 2 21 4-7-5-18-3-26-5"/><path fill="#6C2E33" d="M427 375c14 14 24 21 30 26-2-13-19-16-27-26"/><path fill="#5A202A" d="M224 449c7 15 21 27 19 35 4 6 7 12 15 9-13-12-23-27-33-41"/><path fill="#D54A1F" d="M165 148c-8 5-26 1-29 8 4 1 18-1 28-6"/><path fill="#82969C" d="M514 299c5 10 21 14 28 26 10 10 13 19 16 30l2 1 1 2c2 0 4 0 5-1 0-1-4-1-5 0-5-14-8-23-20-36-10-10-18-15-25-20"/><path fill="#702A2B" d="M117 288c3 2 6 3 9 5-29-7-4 11 16 9-12-4-9-5-23-13"/><path fill="#672F39" d="M348 386c1 4 0 7 1 11-5-2-2-5-5-7-2 8-7 17-9 25 4-5 8-11 11-18 3-1 7-14 6-9"/><path fill="#C63C18" d="M135 355c-1 11-16 0-16 9 3 4 5 6 6 5 6-4 10-6 10-12"/><path fill="#A06452" d="M474 241c2 8-5 3-4 10-7-2 2-9-7-5 3 5 7 8 9 13 2-5 10-19 4-15"/><path fill="#D89F73" d="M148 171c-2 6 11-1 10 9-3 3-5 2-6 3-2-4-8-5-6-9"/><path fill="#F9C68B" d="M324 213c-4 1-8 2-11 4-10 5-17 11-21 19 5-7 17-14 37-25"/><path fill="#6C6C74" d="M503 296c-10 18-7 5 6 3 2 4 4 1 4 3-4 3-9 5-13 8 6-4 22-3 16-7 24 14 8 9 27 23-4-6-13-18-25-23-3-2-5-3-6-4-4-1-5-2-8-1"/><path fill="#7A1F19" d="M73 304c3 5 2 4 5 11-5 3-10-1-12 5 4 11 11 3 11 7-2-3 0-8 0-10 0-6 0-9-3-12"/><path fill="#A02F21" d="M32 359c-2 15-5 35-3 49-2-17 4-39 5-49"/><path fill="#874944" d="M341 373c-6 6-17 7-25 4 3 2 6 1 9 2-2 6-6 6-8 9 18-4 15-7 26-13"/><path fill="#FBF9E6" d="M309 223c-3 1-4 2-5 5 2 3 4 4 5 5 5-2 6-3 7-5-1-5-4-5-5-6"/><path fill="#9E3206" d="M302 294c-6 12 10 3 6 11-26 7-31 9-56 14 18-2 37-8 54-13 18-4-6-3-5-9"/><path fill="#693030" d="M302 360c-4 11 9 2 7 10 5-1 11-2 16-3-8-6-14-2-24-4"/><path fill="#F5C49D" d="M141 342c3 4 1 10 2 15 2-4 8-6 10-10-3-1-7-3-10-4"/><path fill="#A53819" d="M243 273c-1 7 1 15 9 18 7 4 24 1 30-6l2-2-1 1c-6 6-12 4-18 7-8-2-13-4-18-8 3 1 1 2 3 4-12-8-2-7-8-12"/><path fill="#98614E" d="M245 349c-1 1-3 0-4 1 1 6-4 8-2 14-4-4 19-8 8-15"/><path fill="#925F46" d="M146 160c12 4 22 9 26 19 5 9 3 30 2 41 1-12 6-24 0-36v-2l-1-3c-1-2-3-5-5-7-7-7-13-9-20-11"/><path fill="#6B3A43" d="M509 301c-6 2-11 0-13 5 3 5 19-4 16-4"/><path fill="#521E27" d="M302 355c-9 2-3 8-6 14 5 2 9 2 14 2-1-2-15-8-8-16"/><path fill="#FCF7CA" d="M134 160c-29 4 15 0 19 9-5-7-11-8-18-9"/><path fill="#A54C36" d="M422 324c-6 6-5 15-1 3 3 3-1 7 1 8 0 5-7 3-4 4 9-6 15 0 23 2-2-7-17-4-11-11-1 0-4 4-5 5-1-3-1-7-2-10"/><path fill="#6B5F68" d="M447 354c-12 16-16 17 2 3 6 6 16 2 21 9-5-8-15-10-23-12"/><path fill="#F77F4A" d="M37 328c-14 30 8-6-9 37 5-14 9-23 14-32-2-2-3-1-3-2"/><path d="M545 370c3 5-1 14 5 18 0-5 2-15-2-18"/><path fill="#EB6A36" d="M473 295c-3 1-5 3-5 6 3 2 6 2 8 4 2-4 3-6 2-9-2-2-3-2-4-2"/><path fill="#A04122" d="M288 245c2 12 25 11 28 19-2-1 1-1 2-2-9-4-19-8-28-14"/><path fill="#8D241B" d="M529 348c10 17 3 21 8 37 2-4 1 1 5-1-4-7-5-24-12-33"/><path fill="#727178" d="M564 366c1 12 4 24 0 38 3-9 5-18 6-27 0-13-2 9-4-10"/><path fill="#66100C" d="M50 404c-8 2-19 9-24 5 3 6 7 3 10 5 3-4 8-7 14-9"/><path fill="#F66535" d="M203 403c-4 5 0 15-13 16 3 0 5 0 7 2 6-6 8-11 8-16"/><path fill="#9D412E" d="M135 318c3 8-6 7-3 13 4 1 1 7 5 7-1-9 2-13 0-17"/><path fill="#F4CDA5" d="M93 205c8 10 22 14 29 25-6-12-15-18-27-23"/><path fill="#5B9C96" d="M277 274c5-1-4 8-6 7-5 2-8 1-8-2 5 2 4-4 12-3"/><path fill="#5F0D0A" d="M86 397c3 4 9 7 7 11-2 6-8 6-11 5 4 3 8 4 13 3-2-5 3-17-7-19"/><path fill="#F9AA6C" d="M425 159c-1 2-3-1-4 1 6 6-2 11-6 10 0 1 29-12 12-12"/><path fill="#C67349" d="M373 205c4 2 8 3 9 7 0 3-3 1-6 2 14 0 22 11 31 18-16-19-15-13-31-27"/><path fill="#AE9B98" d="M167 228c-3 7-8 15-12 27 8-5 8-21 15-28"/><path fill="#EC835D" d="m203 432 3 3c-17-6-7 8 0 7 1-5 0-8-1-10"/><path fill="#9E3522" d="M139 358c4 5 0 18 6 21 0-8 1-16-6-19"/><path fill="#F9D29E" d="M447 135c-2 2-5 4-7 7-1 5 1 7 3 6-1-5 6-7 7-11"/><path fill="#A83A1D" d="M392 255c2 4 1 7 5 15 7 4 15 5 19 4-4 1-10-1-14-4-5-6-8-10-8-15"/><path fill="#7B2726" d="M555 368c2 5 11 13 8 24 2-6 1-12 0-17 0-5-2-6-5-5"/><path fill="#FAA85E" d="M258 241c-2 1-5 0-6 3-5 3-7 6-8 8l1 3 1-2c0-9 30-11 14-13"/><path fill="#3B060B" d="M452 245c2 7 13 19 21 22-7-5-13-13-19-20"/><path fill="#BA6F4F" d="M156 224c1-2 6 4 4 8-12 3-1-10-7-2l-2-3 1-1h2"/><path fill="#6D3B40" d="M474 386c-3 4-6 9 2 11 4-3 0-8-2-10"/><path fill="#A12D1B" d="M53 322c-14 12 10 1 10 13l1 2v-3c-3-3-5-8-9-10"/><path fill="#86270B" d="M323 208c-8 1 13-3 16 1 1 2 19 5 27 15-3-5-9-9-15-13-5-1-7-3-9-3-7 0-12 0-17-1"/><path fill="#803632" d="M428 337c-4 2 9-1 2 5-16-10-5 9 8 1-2-3-6-4-8-6"/><path fill="#DA4C1F" d="M263 105c-6 1-13 0-17 2 6 3 44-3 18-2"/><path fill="#8F3427" d="M181 364c7-3 4 10-2 7-2-3-2-5 1-6"/><path fill="#EB6135" d="M36 338c-8 12-9 24-7 39 1-14 0-27 7-38"/><path fill="#7A3128" d="M155 327c2 3-1 6 2 8 2 2 4-3 5 2-1-2-3-4-2-7 4 3 7 5 11 2-4 1-6-3-10-2-2 1-4 1-5-1"/><path fill="#F0AC72" d="M150 147c-4 2-13 2-16 4 4-2 35-1 19-5"/><path fill="#41121D" d="M378 340c11-1-3 9-5 7 0-4 1-5 4-4"/><path fill="#82170E" d="M205 412c-2 9-7 11-15 10 5 1 10 1 13 4 9-17-2 2 1-12"/><path fill="#DEB171" d="M190 154c-4 2-8 4-12 7-4 5-4 9-2 12 0-9 16-20 16-19"/><path fill="#E76A32" d="M284 335c-2 0-1 4-6 3 3 1-1 2 1 5 3-3 17-5 6-9"/><path fill="#818B92" d="M461 362c8 3 10 16 15 18-4-7-4-16-12-17"/><path fill="#A63E28" d="M182 350c11 0 8 15 11 19 3-11 0-8-2-16-2-1-3-4-7-2"/><path fill="#6E5F6B" d="M463 412c1 7 3 17 13 17-5 7-10 10-14 13 8-3 14-11 17-16-2 4-4 4-8 0-5-4-6-8-8-12"/><path fill="#F2CFAF" d="M458 290c-16 21-17 10-22 21 6-2 14-8 19-18"/><path fill="#A73C06" d="M217 298c9 6 21 11 29 20 2-6-15-13-27-19"/><path fill="#F17C48" d="M28 416c-1 4 6 8 6 11-3-3 3-7-1-11-2-1-3-1-4-1"/><path fill="#872622" d="M91 417c-3 1-1 1-3 4 2-1 6 1 4 5 5-2 5-12 1-8"/><path fill="#9A4121" d="M282 344c-1 0-3 4-5 2 1 2 1 4 0 5 3-6 25-6 6-8"/><path fill="#CF4E29" d="M207 440c2 3-6 5-4 6 5 0 4 4 4 5 3-3 7-6 1-11"/><path fill="#D56541" d="M172 222c-8-2-8 10-16 12 7 1 13-11 17-11"/><path fill="#5B170C" d="M288 243c9 10 24 13 36 17-12-5-24-8-34-16"/><path fill="#FAD39D" d="M423 159c-4 1-8 4-8 9 13 2 1-8 7-9"/><path fill="#A33625" d="M448 305c7 1 17 7 18 16-2-4-1-9-6-11-2-5-5-6-8-6"/><path fill="#FBAA76" d="M185 195c-5 3-1 8 2 7 3-3 2-6 0-7"/><path fill="#716468" d="M473 387c-6 1-6 8-2 10 5 5 10 1 12 1 0-7-13 8-13-11"/><path fill="#F49262" d="M86 402c-14 0 1 9 3 4-1 2 0-4-1-4"/><path fill="#D9491D" d="M202 180c1 4-2 7 3 8 5 3 9 1 12-1-4 3-13 1-13-5"/><path fill="#88332A" d="M111 335c6-2 13 2 18 0-6 2-12 3-16 2"/><path fill="#DF5926" d="M231 346c-1 6 5 6 4 12 2-4 1-8 3-10-3-2-4-2-5-2"/><path fill="#9D3527" d="M49 399c-4 3-10 4-14 7 5 0 15-2 15-6"/><path fill="#E85527" d="M395 158c-2 4 0 14 6 17-5 2-10-10-10-8 3 7 8 10 11 13v-1l-1-1h2c1-4-12-10-6-17"/><path fill="#F8A362" d="M401 234c-5 4-6 7-5 11 0-4 15-11 7-10"/><path fill="#AE351A" d="M496 309c7 12-16-5 14 15-6-7-9-11-13-14"/></svg>