<svg xmlns="http://www.w3.org/2000/svg" width="600" height="600"><path fill="#6C6D6A" d="M369 101c8 16 22-7 24 11 10 1 10 5 19 5 10 6 15 12 21 20 9 17 11 26 12 45 7 2 16 14 21 15 8 8 9 25 14 29 0 3 1 6 0 8-20 3-41-4-57 3 6 21 14 43 15 63-2 20-16 40-18 61-5 13-17 12-29 17 0 13-5 24-10 34-7 8-7-4-10-1-6 11-15 16-20 24 1 7 0 12 4 15 15 12 39 13 63 15 3 4 5 5 4 8-5 0-7-4-12-2 5 3 7 6 10 9-18-1-31 1-48-4 3 6 3 12-1 16-11-9-26-11-40-21-6 3-10 5-14 6 1 2 4 6 5 8-14-1-33 0-47-4-1 1 4 8 4 13-23-2-35-5-51-17-12 3-19 4-26 10-7-7 1-13-2-13 6-5 9-9 12-14 4-7 2-14 1-20-5-2-9 0-14-1-7 6-11 9-17 12-5 1-8-3-9-6-8 8-10 13-13 19-5-6-3-14-4-20 4-14 12-19 18-28-15 5-27 2-40 8-7 1-12 1-15-3 13-10 12-6 23-17-5-3-8-8-10-7-3-6-5-11-1-15 11-12 22-19 32-27 4-8 9-15 14-22-4-1-22 5-27 16-4-1-5-2-4-4 4-6 8-10 13-13 7-5 18-3 24-3 7-15 14-20 16-37 27-28 54-53 88-73 5-4-1-34 3-48 0-12 21-23 17-34 13-8 29-23 44-22-3-1 3-4 0-8 4 2 17 3 16-1"/><path fill="#F9FBF9" d="M357 251c-6 1-12 1-18 2-5 4-9 5-12 7 4 1 8 0 12-1-9 5-16 11-23 19 6-1 12-5 17-10 6 0 3 2 1 3-5 4-10 7-15 10-9 7-3 7-8 15 10 3 12-8 20-11 2 4-1 5-2 7 5 0 10-2 13-4-4 7-9 8-15 10 2 1 5 0 8-1 3 9-3 6-9 7 3 4 3 8 8 8 18 9 23-1 37-2 9-4 15-8 22-12 5-9 6-16 13-21-7-24-34-22-38-26-7-1-8-1-9 0"/><path fill="#294552" d="M271 292c-12 6-28 18-39 30-19 23 12 2-17 28 14-7 21-14 36-28-7 12-16 19-24 25-4 3-7 8-11 6 1-15 7-25 13-35l3 1-3-1c-5 4-10 7-15 10-5 9-7 17-8 26-3 2-6 2-7 1-1-8-2-13 0-18-6 3-10 3-14 4-3 6 3 11 6 12-6 1-9-5-10-8 0 5-5 8-8 12 0 1 3 2 4 8 3-4-2-5 6-10 0 6-3 8-1 10-6 3-12-1-12-5-5 3-9 6-13 10 15 3 7 8 26 5-8 4-13 6-18 7 3-5-12-1-11-10-7 4-10 9-15 10-3 4-5 1-6 3 0 4-1 6 0 8 11 7 36 5 42 0 6-4 7 5 8 1 2-4-5-1-6 0 2-4 5-5 7-7-2 2-5 3-8 4-10 5-20 8-29 5-7-1-12-8-10-13 3 2 2 7 7 9 2 1 10-1 13-4-6 6 2 1 0 7 28-14 36-13 57-27 10-13 19-6 53-56-3-6-3-14 4-20"/><path fill="#4B4D56" d="M416 337c-7 23-23 15-32 34-14 11-25 9-37 17-4-2-7 2-9-1 9-7 7-5 4-7-20 13-30 10-41 14-9-9-20-1-27-6-6 0-6-4-5-8-2 7-1 13-2 19 0-18-6 8-8-21 0 9-1 17 1 23 3 8 0-4 5-1 1 6-2 10-3 13 4 2 10 3 21 4 2 7-7 2 0 8 22-5 43-9 61-17l2-1h2l-1 1-5 1c8-11 31-19 43-32s22-24 30-36"/><path fill="#627175" d="M263 361c-11 13-23 23-35 33l-1 1-1 1c-8 11-2 7-1 18 0 16 9-6 5-5-5-6 2 2-4 7 2-15 0-14-1-19 8 5 11 1 15 1 2 0 5-4 6-6 3 5-2 26 6 26 12-9 3-25 6-38 3 5 4 10 5 15 1-12 5 3 3-16 5 3 1 8 6 8 16 0 26 6 35 6 14-7 16 2 40-17-5-6 0-6-7 0 0-4 2-6 2-8-2 1-2 3-3 5-1-6-8-2-8-5-20 3-40-2-52 7-6-6-9-9-15-4-2-3-5-5-3-8"/><path d="M240 429c-9 6-5 17 2 22 22 9 46 7 65 12 11-1 20-5 22-14 1-5 0-6-2-7-6 0-9 5-13 5-6-4-4-8-5-11-4 3-9 4-15 3-4-1-9-4-7-8-15-4-32 1-46-2"/><path fill="#D7E4DC" d="M405 278c-1 1-1 4-3 5 0 10-4 19-10 25 0-3 2-7 4-11-14 12-36 17-45 19-16 3-21-6-29-12 4-2 5-14 10-18-8 15-24 7-24 12 3-1 3 5 7 0-9 16-5 21-13 28 5-1 11-4 15-8-10 16 8 0 0 13 6-3 16-3 26-8 4 2 6 6 10 7 3-5 5-8 7-11 1 3-2 8-1 11 13 0 22-12 30-9 9-7 13-14 15-24 8 5 0 16 6 8 2-11 2-20-3-27"/><path fill="#B7C9C2" d="M405 297c-2 10-7 17-16 25-2-2-3 1-6-2-11 11-10 5-21 15-7-6-11-3-18-11-8 4-25 6-28 7-3 2-7 7-13 10 4-1 6-1 6 4-3 6-7 9-9 13 14-27 18-6 25-23 0 6-4 13-7 20 5-3 8-7 10-12 5 2 1 4 0 7 9 0 15-4 21 1 22-13 30-14 35-16 3 0 0 2-1 5 3-2 3-6 5-9 3 4 1 6 2 10 3 4 4-7 8-1 3-7 3-14 6-19 2-1 1 1 2 2 3-17 1 9 5-9 3 4 3 6 2 7 7-3 6-25-1-8-5-8-4-3-5-14"/><path fill="#252833" d="M243 356c-18 17-38 30-59 41-46 3-32 22-64 24 14 5 30-6 43-11 3 6 6 3 11 2 3 4 1 6 0 7 3-2 7-4 11-2 6 3 11 4 11 10-2 10-6 18-15 21 15-6 25-22 35-24 6-2-1 3 5 3 0 0-6-20 0-26-1 0-7 2-4 15-4-4-6-7-7-11 0 3 0 7-3 8-1-9-2-14-3-20 17-8 27-23 37-34"/><path fill="#242330" d="M384 388c-8 9-27 18-46 29-20 6-45 9-57 11 6-3 9 3 10 8 11-2 14 0 17-3 6 0 4 5 5 7 2-4 12 2 10-3 16-1 15 2 8 4 9-5 15-10 22-13-1-7 12-13 12-17 7-3 10-2 10-2 5-7 8-16 9-22"/><path fill="#2F4955" d="M286 222c-6 5-9 9-12 18 5-3 9 7 34-2-5 9-9 10-12 20-5-4 3-7-5-5-5-3-7 1-9 2-3-2 1-3 2-5-5 3-12 8-13 6 0 6 4-2 9-1-8 5-1 2-6 10 2 0 4-2 7-3-2 6 17 7 24 15 4-3 8-4 10-7-4 0-9 2-13 0 5-4 11-2 16-9 1-4-1-11 0-11 2-4 5-4 10-7-12-10-21-5-33-17-2 8-8 0-7 2-2-1-3-3-2-4"/><path fill="#F9FCF9" d="M356 142c-6 1-11 2-15 5-42 37-1 10 20 5 15 20 18 9 27 38 4 2 5-1 7-2 2-2 0-5 2-7 1-10-1-19-9-25-5-6-12-10-18-13-5 2-9-2-12-1"/><path fill="#798D8D" d="M404 326c-1 5-3 10-5 14-6 4-4-2-10 8-5-2-1-8-1-12 0 4-4 14-9 19 6-9-4-7 2-15-22 8-7 6-45 25-12 2-29-1-30-1-7-1-4-3-3-5-4 3-7 7-12 7-5-5-3-7-1-9 3-5 5-5 7-5-1 4-3 6-4 8 1-3 5-2 7-4-1 1-3-1-2-2 3-6 1-7 0-10-10 2-9 11-12 18-4 0-15 4-19-3-2 3-5 4-6 6 3 6 13-2 15 9 15-9 31-4 51-8 6 0 9 4 10 5 1-1 4-2 4-4 3 3 0 4-1 6 3-1 3-5 6-6 1 2-4 8 0 9 8-6 12-12 16-17 1 4-8 12-4 12 23-19 30-15 39-27l4-2 1-1 2-1 1-1 2-2c1 2 0 4 1 5 6-15 17-11-1-10 0 0 1 3-2 4v3l-1 1-3-1c0-4 1-8 2-12"/><path fill="#101821" d="M321 269c-7 1-10 8-15 11-3-6-9-7-12-8 3 2 9 2 10 8-6 0-11-5-19-3-12 1-22 6-29 13-1-1-5-1-4-4-5 8-20 9-31 22-9 8-7 19-12 21 19-9 35-25 51-38-10 13-23 20-31 33-3 3-4 5-5 6-4 8-7 14-7 20 10-3 18-9 24-17-6 7-13 13-21 18-2-8 0-13 3-19 14-20 35-35 53-45-2 0-6 4-10 2 8-6 13-4 17-5-4 7-8 13-11 20 3-8 8-14 13-20 4-1 6 2 7 2-2 14-11 31-21 37 13-13 21-22 33-34 2-7-7 5-7-2 8-4 15-12 21-17"/><path fill="#49535C" d="M293 303c-16 24-40 46-56 70-10 11-8 16-13 24 15-14 36-29 48-49 10-14 24-32 21-42"/><path fill="#662F27" d="M350 430c-9 8 3 5-18 11 1 7 2 13-2 17-8 6-15 12-23 13 8 8 17 1 24 0 11 4 19 8 28 11-6-2-6-7-8-11 4-4 3-7 8-4 4 3 6 4 8 7-2-1-3-7-7-7 26-1-7-6-10-15-2-29 0 11 1-27"/><path fill="#395966" d="M282 232c-1 4-2 6 0 11-6-4-4-4-7-9-8 4-13 9-21 15 11-4 3 14 20 3l-1 5h-1l-3 1c-7 2-20 3-21 0-3 4-15 10-11 16 18 9 23-13 48-5-12-6-5-5-14-11l1-1h1l1-2c9-4 6 1 10-6 4 4 16 0 11 8 16-22 8-18-12-11 2-7-2-9-2-12"/><path fill="#94AFAB" d="M376 178c0 8 2 15 6 21-4 2-3 21-17 19-21-1-26-8-39-16-6 0-9-3-6 4-5-2-7-5-8-8 0 2 2 3 1 6 8 10 22 12 29 22 5 3 10 5 16 4 6-3-1-4-3-5 7 0 11 1 15 2 5-7 8-14 14-21 7-2 12-3 18-2-3-1-7 1-9-1 16-11 7-36 7-6-4-2-7-2-9-1-13 0-11-21-13-16"/><path fill="#ED762B" d="M418 170c-1 2-3 16-3 23-1-1 2-4 2-2 11 5 12 15 18 17-1-6-3-11-9-15 0-6 3-4 4-4 8 6 11 20 17 27 8 4 15 7 21 5 1-8-7-14-12-21-14-9-27-20-37-30"/><path fill="#C2EEF3" d="M387 112c-2 2-1 4 1 6-10 1-17 1-24-2-1 4 7 4 10 6-6 2-10 0-14-3 1 3 7 2 4 5-11-8 5 7-12-1 4-3 1-3 0-2 4 2 7 4 9 6-19 4-22-5-26-2-27 6 4 11-19 18 14 3 33-13 50-9-1-1-4-1-6-3 5-3 7-1 11-2-2 1-5-3-1-3 10 3 15 7 19 6 0-1-2-1-1-2 4 2 8-2 10-3-2-2-5-4-8-6 10-1 13 7 14 13 3-4 0-4-2-6 21-10-5-3-14-16"/><path fill="#602010" d="M392 204c-21 12-11 19 7 13 7 7 0 18 9 19 14 1 22-7 36-4-16-3-55-21-53-18 30 0 66 14 83 16-19-12-42-14-64-20-12-1-20 1-27 5 0-8 7-10 13-9-1-1-2-1-3 0"/><path fill="#5C6F74" d="M417 255c-44-10 15 34 7 54 5-13 7-37-1-48-2-5-4-5-6-8"/><path fill="#5C696F" d="M418 330c-6 4-5 10-8 12-5 1-2-6-3-4-17 18-42 26-69 50 21-7 25-5 44-18 6-12 19-15 22-16 8-8 12-16 13-21"/><path fill="#0D131D" d="M300 176c-2 5-5 11-7 13-4-16-4 15-3 18-6 4 2 6-6 14l-1-3 2-2-1 3 1 3c4-14 7-4 11-6 11 3 18 10 25 19 8 2 12 4 17 3-14-4-25-31-31-34-1-7-3-13 3-18-5 4-4 10-7 14-2-3-2-9-6-6 0-7 1-11 4-17"/><path fill="#682719" d="M226 437c-2 3-5 3-9 2 0 24 1 2 4 21-26 13 7 8 19 3 11 3 21 10 27 14-7-6-14-8-21-12 20-7 44 4 49 1-22-4-32-4-44-6-7-1-19-14-21-23"/><path fill="#F8FCF8" d="M321 181c-17 4 5 18 10 22 14 0 19-5 34 0-13-4-21-14-30-21-6 0-9-1-12 0"/><path fill="#45707A" d="M235 267c-1 2-3-1-4 1-4 6-12 9-14 15 6 2 9 8 10 13 6-3 5-4 10-5-13 17 19-19 35-21-6-5-10 3-17 6 6-8-12 4-17 0 0-11-2-3-7-7"/><path fill="#97ACA7" d="M296 312c-4 3 4 6-5 9-1 11-23 27-22 41 10 2 11-2 16-1l2-1 2-2-1 3-3 1c2-4 5-8 1-11 7-2 8-8 11-9 6 7 3 10-3 12 4 0 7 1 15-6-3 1 2-11-7-4 7-5-8-10 2-12-9 4-7 12-13 16-3-14 6-25-1-22 7-11 11-4 13-7-2 2-11-2-6-7"/><path fill="#EB7938" d="M267 465c-24 0-9 3 2 12 15 1 24 5 39 4-1-12-19-10-26-15-6-2-11-1-16-1"/><path fill="#1C2934" d="M290 214c-2 5-5 7-3 14 3-4 4 5 6-4 17 13 18 10 34 15 5 4-5 7-5 9 5-1 10-5 17-5-2 9-5 0-11 7 12 1 22-3 38-3-9 1-16-3-25-3 0-3 3-2 4-3 1-5-2 1-4-6 3 8-11 4-17 1-10-8-17-16-27-19 0 4-7 0-7-3"/><path fill="#141218" d="M479 223c-3 2 0 5-1 9-10-1-32 2-47 0-5 2-7 2-9 3-6 3-3 0-7 6-6-2-15 3-14-5-10 4-13 4-23 8-20 1-20-2-34-5 1-1 2 2 4 2-3 1-5 2-6 1 17 7 46 4 55 10 9-3 12-3 19-11 7 3 8 8 13 19-3-8-7-16-8-24 18-8 38 0 55-4 6-2 1-5 2-7"/><path fill="#9AB0AD" d="M362 346c-4 2-7 5-10 6-10-3-21-3-24-4l-2 1 5-2c-8 10-16 4-22 16 7 3 19 0 28 0 11-4 26-10 28-18"/><path fill="#789393" d="M319 212c9 14 24 19 37 25 8-1 16 0 21-2s9-5 8-8c-3-1-10-4-8-10 0 5-7 5-4 10-7 0-11-1-15-3 0 2 6 2 4 5-4 3-7 2-10 2-13-3-19-16-32-19"/><path fill="#E87A3E" d="M244 468c-43-2-4 15 21 21 2-8-3-5-1-9-2-5-6-2-9-1-2-4 1-3 3-4-3-3-5-6-8-7-5-1-7-1-10-2"/><path fill="#ECB77A" d="M425 258c6 12 6 27 5 43 0 11-5 18-6 27-5 7-18 32-30 42-11 12-20 21-29 26 15-6 25-19 36-29 12-12 19-24 25-35 6-13 8-26 8-39s-4-23-7-34"/><path fill="#596D73" d="M316 209c2 6 5 11 9 15 14 9 16 9 29 15l2 1h4c3 1 11 3 24 0 7-2 15-6 14-11 1-8-5-9-11-8-4-1-5 4-6 2 1 2 4-1 5 2 2 5-3 7-4 10-10 3-20 3-26 3-14-8-30-12-39-27"/><path fill="#1F2F3B" d="M262 325c-7 17-41 37-43 40-32 17-26 19-45 28 4-2 14-4 12 0 20-12 41-25 49-34 11-10 22-22 26-32"/><path fill="#BF4A15" d="M414 180c1 4 0 7 1 11-1 5-2 8-5 12 1 5 2-3 5-1-27 7-49 13-4 5 12 4 24 9 37 11-9-12-16-7-33-30-1 0-1-3 0-5"/><path fill="#3A3D48" d="M267 338c-22 13-36 40-61 55 0 6-1 3 2 5-4 4 0 5-2 7 0-2 0-3 1-4 6 5 9 2 10 3 0-8 2-7 4-11 2 3 2 5 1 7 6-11 4-16 13-27s18-24 30-34"/><path fill="#B6CCC6" d="M373 201c-13 8-20 2-36 8 6 3 16 10 26 10 10-2 21-13 11-18"/><path fill="#F5CF91" d="M420 167c-2 3-3 5-4 8 1-2 1-5 3-5 16 18 38 26 50 45 4 9-1 8-5 7 4 3 8 4 12 7-1-9-5-18-10-26-14-17-35-22-42-37"/><path fill="#111920" d="M212 315c-9 9-17 13-24 18-4-5 0-9 2-15-2 2-5 7-6 10-4 4-6 1-8 1-2 6-1-3 2 3-10 13-14 28-29 33 13-7 21-14 31-22 3 2 2 6 7 8-3-2-5-5-5-8 7-6 12-6 16-9 3 3 1 4 2 8 2-11 3-17 10-25"/><path fill="#1A161D" d="M220 403c-1 8 0 15 1 22-4-5-10 6-18 5-1 8-12 13-19 18-10 1-10-5-4 5l2-2 2-2c8-5 17-16 25-12 8 0 6 7 8 11-1-3 0-5-2-9 7 1 12-5 14-2 4 2 4 6 6 10 1 3 3 3 3 4 8 5 14 5 20 7-8-3-16-2-22-9-4-8-6-14 0-18-5 0-1 0-5 4-5-2 2-10-6-6 6-5 5-2 7-8 3-5 5-9 6-13-2 4-4 9-5 12-3 2-5 6-9 5-4-6-6-14-3-20"/><path fill="#292933" d="M248 395c-6 12-13 7-12 25-4 5-8 6-12 8 2-1 4-1 5-2 2 4 0 7 1 10 8-8 7-8 10-21 4 3 2 7 1 8 59 8 14-1 7-4-3-4-4-16-1-22"/><path fill="#2E4955" d="M286 286c-9 4-12 24-17 23 6 5-3 9-3 11 10 0 9-9 18-12-4-5 14-21 4-23"/><path fill="#9DB2AE" d="M415 288c-2 4-3 9-2 15 0-2-1-4 0-5 1 6 2 11 6 8 0 8-3 14-5 16-1-1-1-3-2-6-5 15-5-9-4 12-3-3-4-5-3-8-2 2-2 5 1 6-5 1-2 1-4 13 7-11 23-9 22-23 0-27-6-6-10-25"/><path fill="#E97637" d="M383 465c-40 3 10 14 20 12-1-1-1-5 0-6-6-1-12-5-20-6"/><path fill="#467881" d="M410 139c-5 6-5 5-9 11 5 6 8 5 13 10-2-10 9-7 6-18-2-5-6 0-11-1"/><path fill="#BBCAC2" d="M310 287c-5 4-9 8-13 15 4 0 5-4 8-5-5 8-9 13-9 21 2 0 6-1 8-2-1 5-6 7-4 11 0 0 9-6 4-8 4-4 6-3 7-6-3 1-3-9-5-3 0-5 2-7 4-9 1-3-2 1-3 0l-1-1v-2c15-13-9 1 4-10"/><path fill="#2E4954" d="M201 302c-5 9-13 17-14 28 9-5 16-8 25-16-4 4-8 6-13 8-4-1-1-7 0-5 3 1 4 1 5-2 0 2-3 3-3 5-2-6 6-10 1-17"/><path fill="#3C3E49" d="M264 412c-16 17-1 11 14 13-2-3 5-4 6-6-11-2-17-2-20-5"/><path fill="#07080F" d="M358 167c-1 3-3 7-3 10 1 5 4 7 6 6 7 1 8-6 6-9-1-5-4-7-6-7"/><path fill="#BC4B16" d="M388 214c34 1 23 13 65 14-23-3-35-15-55-15"/><path fill="#3A5C66" d="m305 153-2 1c-1 3-3 6-5 8 8 1 2 10 11 5-9 12 8-2-3 10 25-32 20-17 1-13 1-6-1-5-2-10"/><path fill="#1C2D39" d="M400 152c1 5 7 11 12 17 0 3 0 7-2 5s-3-4-4-6c2 3 3 6 2 11-6-12-4-10-8-6 5 19 1-7 10 17 1-8 2-13 3-19 2-4 5-5 6-7 5-3 9 1 11 3 0-2 0-5 1-7-3 7-5-2-10 2-5 1-6 4-7 5-5-4-10-8-13-14"/><path fill="#E6F8FB" d="M353 117c-10 2-14 6-14 11 4-1 14-3 19-1-1-3-8-1-6-7 15 6 15 4 2-5"/><path fill="#080911" d="M357 169c3-1 9-1 9 3 2 4 0 6-1 8-3 3-5 3-6 1-3-4-2-7-2-10"/><path fill="#84412D" d="M423 215c13 2 27 5 39 10-12 0-25-3-37-8"/><path fill="#9B8E5E" d="M281 272c-10 3-19 12-28 13 9-1 15-8 28-9 23 2 20-1 0-5"/><path fill="#AE765D" d="M397 365c-14 19-35 29-52 42 10-3 19-9 28-14l2-1-4 1c3-8 19-15 24-26"/><path fill="#1C2831" d="M184 329c3 1 2 7 0 9 1-10-9 11-15 13 2-7 7-13 12-20"/><path fill="#14151C" d="M396 160c6 13 13 29 9 45 15-10 3-28 12-38-6 5-3 15-5 23-8-9-10-20-15-29"/><path fill="#4B7880" d="m310 147-2-1c-5 12 0 24 11 6l1 5v2h2l1-2c3-1 5-2 6-5-1 3-3 4-6 5-2-2 0-2 0-4l-1 1v2l-3-1c-3-2-2-8-10-7"/><path fill="#DCC984" d="M172 432c-5 5 3 5-5 11-4 1-4-3-7-1-3 3-2 10-1 15 3-9 17-14 15-23"/><path fill="#F7E1B0" d="M423 170c9 6 19 15 29 20-11-1-19-9-28-16"/><path fill="#42434E" d="M298 411c22-1-3 9-11 8 2-5 8-7 12-7"/><path fill="#365561" d="M289 285c3 10-12 24-15 29 3-8 8-17 13-25"/><path fill="#D5E6DF" d="M363 198c4 9-25 1-30 6 9 2 42 2 33-5"/><path fill="#42444F" d="M344 401c0 5-22 12-31 12 9-5 17-6 26-10"/><path fill="#2B434D" d="M319 161c-6 12-12 17-13 11-4 8-5 12-8 17 11-5 21-26 21-25"/><path fill="#434D55" d="M183 419c-4 2 3 7 5 16-2 5-5 9-8 11 6-2 12-8 12-15-2-5-6-8-8-13"/><path fill="#1C1317" d="M378 391c-16 11-33 21-50 27-25 3-45 11-69 10 33 1 29-2 69-9 2 0 2-2 5-1 17-7 30-17 43-26"/><path fill="#383F49" d="M180 416c-1 2-2 3-4 2 9 2 8 0 17 10 0 9-6 17-15 19 10-3 16-10 16-19 0-6-6-12-11-10"/><path fill="#85DBE1" d="M402 126c-17 8-18-2-3 16-6-4 8-7 2-15"/><path fill="#192934" d="M242 295c0 8-18 15-23 25 4-8 12-16 20-22"/><path fill="#B5CAC7" d="M393 256c10 10 17 22 20 35-1-2 0-3 1-5 0 7 3 11 3 15 1-8-2-6 0-13-4-6-6-10-8-15-6-8-9-12-15-17"/><path fill="#090A13" d="M359 170c-2 2-2 7 0 9 2 4 3 1 4 1 3-2 4-5 3-8-1-2-2-3-6-2"/><path fill="#83928E" d="M297 319c-3 2-5 4-6 6 1 1 2 0 4-1-8 10-2 13 0 16 2-3 7-9 10-9-4 0-5 2-10-1-1-3 1-3 0-5 5-3 8-6 2-4"/><path fill="#CFC886" d="M214 288c-4 1-8 1-12 3 7 5 20 10 14-2"/><path fill="#251311" d="M361 161c11 6 13 25 11 31-4 4-9 4-14 3 5 1 10 1 14 0l3 1v1l1-1-1-1-3-4c5-4 4 2 2-23-5-7-4-3-11-5"/><path fill="#7E938F" d="M172 421c5 4 5 4 9 5 2 6-2 14-4 18 4-5 10-6 9-13-3-5-6-9-11-10"/><path fill="#111113" d="M241 253c-14 10-22 21-34 35 10-6 25-27 36-35"/><path fill="#9BB1AE" d="M390 331c-7 9-4 0-5 10-4-2-9 2-5-4-4-2-5 2-9 2-5 4 0 8-8 13 4-4 8-5 12-8 5-3 6-1 4 2 5-5 8-10 11-12"/><path fill="#D96B2E" d="M417 216c11 5 23 8 34 11-3 2-8 3-13 1-31-12-30-11 0 2 8 3 17 0 27 1-4-3-8-3-12-4-12-3-22-6-32-10"/><path fill="#F7E3B1" d="M452 194c7 1 16 8 17 16-6-6-11-8-17-14"/><path fill="#52A1A9" d="M357 137c-8 0 24 1 29 9-6-5 1-9-3-10-1 9-16-2-22 0"/><path fill="#F1EBBA" d="M168 426c-4 5-6 10-8 16 13 4 14-17 7-11"/><path fill="#395D67" d="M422 132c6 4 4 15 3 18-5-4-5 2-9 5 3 1-1 5-1 5-3 0-5-6-6-1 1 1 1 3 2 5 4 1 10-11 14-6-3-2 0-3 1-5 2-8 0-19-3-20"/><path fill="#9CAD9F" d="M171 423c9 3 0 12 6 18 3-2 4-11 4-13-3-1-4-5-7-5"/><path fill="#AA4624" d="M235 465c-5 2-15 5-18 4-2 4-3 0-6 10 16-9 8-8 24-13 22 2 23-1 1-1"/><path fill="#94E0E7" d="M412 121c-13 11-5 7 8 11-3-5-4-11-8-8"/><path fill="#5F9FA7" d="M151 367c-5 5-13 8-18 17 5-6 17-7 20-16"/><path fill="#314550" d="M304 164c-4 5-8-2-9 6 1 2-1 7-1 10 6-5 13-10 8-14"/><path fill="#131219" d="M347 176c0 5 3 12 9 14 5 0 5 0 2 1-3-1-4-4-6-4 7 1 12-1 15-5l1-2v-2l1 3-1 2c-3 2-5 2-8 1-4-8-9-5-13-6"/><path fill="#6E8183" d="M227 395c-3 7 3 7-2 19 1-9 8-4 8-10-1-6-4-4-4-9"/><path fill="#EAF8FA" d="M355 112c10 5 21 6 30 6-6-2-16-4-28-7"/><path fill="#1E2E39" d="M317 170c-5 7-17 25-18 19 0 6 2 3 3 9 3-10 12-18 14-27"/><path fill="#4B4F57" d="M417 248c-18 4-20 9 2 4 3 4 6 8 7 14-3-7-3-17-10-17"/><path fill="#395864" d="M221 305c-4 3-11 9-15 6-3 2-5 5-6 7 0 6 14-7 21-12"/><path fill="#837751" d="M200 292c1 4 4 9 7 12 7-1 11-3 15-5-6 3-15 0-21-5"/><path fill="#111117" d="M197 388c-2 2-19 10-28 15-12 0-24 2-33-6 3 2 8 6 10 6-5 4-8 7-13 10 7-10 41-13 33-8 14-5 23-12 33-16"/><path fill="#25404C" d="M398 149c-5-1 9 13 2 18 4-7 6 5 10 5-3-9-12-18-10-22"/><path fill="#2B4752" d="M426 139c-1 9-1 8 1 13-6 8-13 11-15 14-3 3 13-13 17-3-2-25 0-19-4-18"/><path fill="#7D9899" d="M403 189c1 7-6 9-9 13 4 1 8-1 10 1 1-4 0-8 1-11"/><path fill="#E2773F" d="M355 469c9-2-6 7 9 13 1-4-1-6-1-7-1-4-3-7-6-7"/><path fill="#312E36" d="M415 352c1 10-10 12-15 19 3 4 6-1 7 0 5-6 6-11 8-17"/><path fill="#D5E5DD" d="M377 166c-4 15 7-2 4 21 6 1 11 6 16 5-1-7 4-4 2-9-3 0-1 4-2 6-4 1-5 4-7 0-10-6-7-15-13-21"/><path fill="#40424D" d="M301 412c-2 2-11 1-15 5 7 1 29-5 16-5"/><path fill="#232E35" d="M274 290c-3 1-5 1-7 3 1 3 0-3 3-1-1 3-3 5-4 7 1 5 0 6-1 7 4-3 7 5 4 8l2 3v1l1 2v3l2-1v2c-3 0-2 3-3 5 6-7 12-16 19-22-6 6-10 9-15 14l-1 1-2-1c3-5 7-9 10-13-4 4-7 8-10 12 1-7 6-10 8-14-3 3-7 7-9 11-2-6 0-9 1-11-3 2-7-1-5-5 1-4 2-6 3-8"/><path fill="#7B9B9C" d="M336 168c-6 4-14 5-16 10 4 2 7-1 13 0-2 0-4 0-7-1 4-2 11-4 9-7"/><path fill="#5D979F" d="M168 356c-3 3-14 5-13 12 6-4 11-7 14-12"/><path fill="#D9E8E0" d="M319 181c-2 1-5 0-5 3-4 5 0 8 0 12 5 2 8 2 11 5-5-4-21-19-4-20"/><path fill="#E16B31" d="M212 469c-3 0-5 2-6 5 1 2 2 3 1 5 3-6 10-7 7-10"/><path fill="#A8472C" d="M348 436c-2 5 1 9 2 13 2 4 3 5 5 7 6 4 11 5 16 7-2 3-6 4-9 2 7 2 14 1 18-1-9 0-16-6-24-8-6-6-8-11-7-18"/><path fill="#B7CCC4" d="M401 184c0 4-4 2-2 9-4 4-14-6-17-6 4 6 9 9 16 7 1-4 4-3 2-9"/><path fill="#8DDFE4" d="M371 127c-7 5 9 5 17 10 1-6-10-5-16-10"/><path fill="#642214" d="M345 170c-1 2-2 5-4 7 2 6 3 10 8 13 5 4 10 5 16 4 5 2 7-1 8-1 1-3-1-5 0-8-5 2-8 6-13 6 4 0 10-1 10-6 2 4 0 9-3 9-8 1-14 0-17-5-4-4-7-6-8-10 0-4 2-5 1-8"/><path fill="#D7E0DB" d="M380 262c5-1 11 1 17 1-6 2-11 3-15 1"/><path fill="#211413" d="M340 436c-3 2-7 3-11 2 6 4 2 10 2 14v3l-2 1c-4 2-7 5-12 10-10 6-17 4-25 0 7 4 15 6 21 12-1-1-4-4-7-5 4-5 7-4 10-6 6-4 10-10 13-10l2-2 1-3c-1-4 2-8 0-12 5-6 23-2 9-4"/><path fill="#2F4954" d="M261 302c5 1 0 7-3 13-4-4 1-7 1-10"/><path fill="#1A2632" d="M307 168c-5 9-15 10-17 19 19-28 1 19 16-20"/><path fill="#18222A" d="M285 281c5-2 9 1 11 5-1-3-15-2-13-4"/><path fill="#070508" d="M401 232c-9 7-11 10 0 3 2 3-1 5-1 6 0-1 2-2 4-4 1 3 9 3 7 3 2 0 1 1 0 2 3-2 4-5 8-5-5 1-13 2-16-2"/><path fill="#525E66" d="M367 368c6 1-8 10-11 10 2-4 5-6 8-8"/><path fill="#4A5259" d="M235 399c-1 8-3 21-10 24 8-3 12-14 11-22"/><path fill="#16171E" d="M164 411c-12 5-22 11-37 12 17-2 23-5 40-11"/><path fill="#96DCE0" d="M349 137c-13-1-15 9-26 12 11-4 18-10 28-12"/><path fill="#F3F5F4" d="M432 138c0 10 2 19 6 26-1-8-2-16-6-23"/><path fill="#6BC2C8" d="M388 134c1-1 7 7 8 10-1 0-1-5 2-3 4 3 4 1 5-1s0-4 1-6c-8 6-3 2-4 8-5-3-6-6-10-7"/><path fill="#F4F8F5" d="M354 157c-6 2-15 5-15 14 4-8 14-13 18-15"/></svg>