<svg xmlns="http://www.w3.org/2000/svg" width="600" height="600"><path fill="#979794" d="M412 107c39-8 57 26 72 50 12 6 24 13 31 22 8 7 9 15 13 23-16 1-30-11-50-11-10-1-21-4-26 5-7 12-4 28-1 38 3 18 20 27 24 42 4 9 5 16 4 25-10 23-14 38-32 61-14 13-25 28-37 41-3 8-6 11-9 17-3-14-9 15-11 0-4 6-8 9-10 11 1 13 12 17 18 21 24 5 48 9 68 17-20 5-29 8-50 12-9-3-21-3-32-4-13 6-23 8-40 9-1 2 2 3 2 6-18-5-42 1-59-9-4-2-6-3-7-5 4-16 10-23 8-36-13-25-11-16-18-34-41-19-63-22-99-39-6-7-10-9-12-17-9-7-38-29-53-44 5-2 9 0 15 2 2-4 6-3 4-7 15 10 29 14 43 19-14-5-28-10-41-18-13-7-23-16-33-24-6-8-11-12-14-18-2-7 4-4 2-7-7-14-9-18-13-31 13 8 25 17 35 26 5-3-5-10-4-16-2-5 2-5 2-4 15 15 31 34 47 44 6 1 7-3 10-4 1 1 3 1 2 2 1-1-1-1-1-3-6-7-5-15-8-13-3-8-5-15-3-22 11 6 23 18 28 23 11 0-4-8 2-12 13 11 25 17 35 25 9 5 16 0 21 3 19-10 36-24 54-31 20-12 41 3 58-10 6-4 8-8 8-13 2-27-4-44 0-65 4-12 9-19 16-26 10-14 22-19 37-20l1-2h1l2 1"/><path fill="#DFEAE4" d="M375 137c-3 12-20 29-16 47-1-3 0-7 2-6 0 3 4 5 2 8 4 1 0-1 5-3-6 27 13 29 7 44 4 6 8-1 13 0-4 4-7 8-11 8-5 0-7-3-8-5 2 7-6 5-8 10-6 8-1 9 2 14-6-2-7 4-10 6-1 9 2 17 0 25-1 10-5 18-10 25 11 4 20 22 31 26-5 2-12 1-16 7 25-1 51-1 68-3 4-3 6-6 8-13-5 2-12 5-17 0-5-4-11-9-7-14 2-7 7-3 9-4 8 5 13 8 19 11 0-3 1-5 0-8-1 4-8 2-9 1-7-2-6-6-10-6-8-11-12-34-17-38 3-12 2-11 9-19 5 2 23-1 30 5-10-19-27-32-43-44-5-7-10-11-8-19 3-6 7-9 11-11 13-4 23-3 33-2-12-6-33-6-48-2 9-9 24-3 31-11-7-4-15-2-20-8-10-12-14-9-22-21"/><path fill="#7D7A81" d="M155 321c-15 7 19 23 24 28 7 0 13 1 16-1 8 6 13 15 21 14-11 0 7 14-8 13-13-3-26-3-34-14 16 12 1 8 8 11 23 10 43 15 64 20 4-3-7-4-6-8 23 11 5 13 31 20 0-6 3-11 6-16l1-3 1-1h4c-2 4-6 9-6 14 8 3 3 12 8 12 1 4 0 7 1 11 4-2 6-5 8-9 3 3 1 4 1 6 6 0 6-1 10-4 0 4 2 5 6 5 5-1 6-1 8-2 1-4-8 0-11-2 23-4 58 0 83-11-5 7-15 8-24 10-1 4 1 6 0 9 9-14 7 8 15-5 3 2 2 4 3 5 8-6 9-6 18-13-5-2-1-8 0-9-14-3-26-1-46-1 1-4 14-1 6-5-4 3-13 6-20 5-2-2-1-3-1-5-3 2-7 2-10 4-9-3-12-5-18-6-6 7-12 12-22 13-6-2-10-9-6-16-2 1-2 3-3 5 1-9 2-14 6-20-5 4-4 4-6 9l-3-1-1 1v2l-3 1c-4 0-8-3-13-3-6-11-17-12-11-18-15-14-48-16-68-35-8-4-17-6-25-10"/><path fill="#8E9395" d="M313 338c-12 8-15 9-28 14-58 5-56-3-20 31 3 0 7 3 11 3 6-5 8-9 13-11-3 6-4 11-7 17 2 0 2-2 3-4-2 9 1 15 7 17 9-1 15-5 21-13 9 0 13 4 20 6 10-1 13-8 18-14 0 4-2 7-3 10 6 6 14-4 18 2 12-1 14-5 23-10-7 2-15 4-22 7-6 0-1-3-1-4-4-2-6 1-10 1 1-7 8-12 12-18-13-4-13-8-32-10-11-4-11-22-21-21"/><path fill="#DEDED7" d="M416 109c-7 1-13 2-19 4-11 0-40 32-18 13 0 5-3 8-4 13 8 7 23 22 46 29 20 4 22-3 29-2 1-2-2-4-3-7 5 3 9 4 12 7-1-13 6-6 3-18 7 2 10 6 15 7-7-11-12-25-23-34-8-7-14-9-21-11-7 0-11-2-16-1"/><path d="M349 415c-6 2-14-2-18 3-12 3-22 6-32 15-1 10 3 20 12 23 17 10 34 8 53 13 17-17 2-56-7-49-2-5-4-5-7-6"/><path fill="#EAF2EA" d="M415 250c-6 2-11 10-11 12 3 13 8 32 19 48 6 2 10 6 16 0 0 14-7 26-16 35 12-11 18-25 20-40 0 5 4 3 5 8 10-6 17-7 18-13 3 4 2 8 1 11 2-6 1-13 2-19-7-15-16-26-27-35-10-8-18-2-26-7"/><path fill="#89A6A5" d="M292 255c-5 10-17 16-26 20-2 5 1 7 2 9-5-1-7-3-8-6-16 2-24 12-3 13 3-1 6-3 9-5l1-2 1 2 2-1h1c-2 4 0 8 4 10 4 1 4-1 7 0-2 3-4 4-3 7 7 1 13 5 21 3 1 2-4 3-2 4 10 1 20 10 32 5 10-5 8-16 14-22-5-9-14-5-23-9-11-7-9-12-14-19-9-3-12-6-15-6"/><path fill="#A4ACAB" d="M419 180c-11 0-23 2-28 12 23 32 52 57 75 90-2-10-6-22-15-23-5-27-10-43-16-57-9 0-5-14-18-15 6-4 19 0 13-5-2-3-7 0-10-2"/><path fill="#484C58" d="M215 299c-7 3-15 5-24 8 3 2 6 3 10 4-71-19-49 6 8 19-6 3-18-2-19 2 16 13 43 13 45 18 18 3 33 2 45-2 15-4 26-9 36-18-6-4-22 9-42 8 5 2 10 3 15 4-27-8-58 3-80-12-1-3-14-7-15-13 9 7 22 14 36 17-2-8-10-18-21-17 0-8 7-15 9-18"/><path fill="#B9C9C3" d="M426 347c-9 11-36 21-55 26-6 5-10 9-15 13 5 2 8-1 12-1 1 3-1 4-2 6 11-2 18-5 26-7 0 3-5 3-6 6v3l1-2c9-3 25-5 39-25 0 6-7 11-9 17h-2l-2 1c37-16 30-31 13-36"/><path fill="#B8C8C2" d="M336 319c-11 9-19 27-1 36 6 1 9-1 13-1-1 4-8 6-6 8 22 1 39-2 54-11-12 2-23-3-37-6-5-5 2-6 3-7-6-4-14-1-17-5-7-4-7-9-8-13"/><path fill="#D17555" d="M297 450c-11 18-9 26 12 35 9 3 21 1 31 3-12-7-24-18-41-27 14 5 29 9 39 20 12 5 17-1 23-2-19-10-44-16-63-24-1-4 11 1 3-2"/><path fill="#AC9C95" d="M391 127c13 1 26 5 35 15 4-7-15-14-9-15 12 9 20 19 23 29-12-1-28 13-41 2-5-3-9-7-9-11 4 3 6 7 10 8 6 3 10 4 15 5-4-2-9-1-13-3 4-1 8-2 10 0-10-8-13-20-19-28"/><path fill="#52525F" d="M114 267c6 7 13 15 21 20-8-1-16-5-23-9 20 7 28 26 45 37 5 4 11 5 16 7-12-4-23-11-31-21 11 0 26 5 38 5-17-24-44-23-64-38"/><path fill="#EFB481" d="M464 151c2 3 2 7 2 9-4 1-3 14-11 9 26 5 24 4 35 9 4 0 22 11 34 23-4-9-9-17-16-25-15-11-29-16-41-24"/><path fill="#A9C8C3" d="M315 242c-11 3-7 14-3 20 8 10 17 10 26 13 5 5 5 11 6 16 5-20-11-27-16-42 0-4 4-4 5-3-5-4-11-4-16-5"/><path fill="#DDE7E0" d="M467 300c-1 7-8 7-17 14-5 0-2-4-4-4 0 11-5 24-8 32 6 5 8 0 10-2 2 4 4 5 4 7 5-3 4-19 12-18 2-12 3-19 4-27"/><path fill="#617077" d="M237 318c-29-4-11 3-6 17 12 0 22 2 33 1 2-3-2-7 1-8-11-3-18-9-29-12"/><path fill="#98B7B4" d="M310 243c-9 3-29 7-22 14-1 6-5 7-7 9 3-2 7-6 10-9 3 2 10 3 14 5 7 4 6 13 15 18s15 4 21 7c1-3 0-7-2-10-10-4-20-4-26-13-5-6-6-10-7-15 1-5 5-4 5-7"/><path fill="#7D9497" d="M276 302c-19 5-5 11 4 12 7-2 11-5 16-7 0 2-2 4-4 5-4 3-8 3-9 6 3 1 5 4 9 4-4 0-5-6-3-8 3 7 14 9 20 10 14-2 22-4 23-10-1 3-10 3-15 2-11-4-24-7-17-11-11 1-15-1-19-2 0 2 2 4 5 5-6 1-9-2-11-5"/><path fill="#606C73" d="M88 265c8 11 19 23 35 32 2 2 18 14 32 18-9-9-19-14-24-25-15-8-29-18-41-24"/><path fill="#C9D7D1" d="M360 215c-2 6-3 13-8 19-9 9-10 2-17 7 9 6 13 16 15 21 2-2 6-10 10-8-2 1 0-4-4-6 2-8 6-12 10-14 4-8-2-9-6-18"/><path fill="#8AA9A9" d="M153 241c3 9 4 20 11 27 16 6 30 11 44 14-20-10-37-27-53-40"/><path fill="#CCDAD3" d="M342 311c-8 6-3 11 0 21 15 2 22 6 30 5-7-6-17-16-23-24-4-3-4 1-6-2"/><path fill="#7E787F" d="M123 321c12 11 26 21 38 30 6-2 10 3 12 0-8-7-18-15-24-21-9-3-17-5-24-9"/><path fill="#F8FAF8" d="M306 240c-5 0-9 2-13 4-19 8-34 18-49 28 19-7 36-20 54-28 9-3 17-4 26-3 9 3 16 9 19 16-4 11 5 20 1 32 7 0 7-22 3-30-6-10-14-15-22-18h-2l-2-1h-13"/><path fill="#8D4338" d="M289 423c-5 2-5 5-2 9 2 4 2 8 4 10-1 5 0 6 1 7-2 12-10 19-11 28 8 7 16 7 24 9-3-6-11-6-15-13 0-8 0-14 5-19 2-3 5-5 7-2-14 2 6-12-12-8 2-3 5-4 8-3 0-7-9-1-3-9-2 1-4 2-7 1 0-4 1-7 2-9"/><path fill="#708387" d="M282 318c-16 4-11 16 4 14 15-1 27-7 40-9-10 4-22 1-29 0-5 0-11-2-14-4"/><path fill="#CCD9D3" d="M425 339c-17 8-39-1-61 9 13 0 24 6 37 1 2 2-5 5-4 7 24-14 13-4 21-7 5-5 7-6 5-9"/><path fill="#D67D5A" d="M383 455c-3 5-4 11-4 18 12 4 24 2 34 7-8-3-20-21-28-24"/><path fill="#D0D9D2" d="M412 309c-4 6-2 12 4 16 6 6 14 3 18 1 1-9-13-15-20-17"/><path fill="#898C90" d="M436 181c-13 8-20 3-2 16 0 1 2-1 6 0-9 11 6 2-2 18 4 2 6-23 16-28-6-1-28-2-16-6"/><path fill="#DE8B63" d="M380 444c5 1 2 5-1 6 13 8 32 17 37 25 7 4 14-1 17-2-12-7-34-15-51-28"/><path fill="#708286" d="M238 293c-35 8-8 25 13 18-4 0-5-1-6-3-2-4-1-7 0-9-3-1-7 1-9-4"/><path fill="#C46C51" d="M452 169c-1 5-22 0 1 7-5 2-14-1-10 1 15-1 28 1 39 5 15 4 27 9 38 15-7-6-14-10-21-14-15-7-29-10-44-11 0-3 2-3 4-4-2 1-3 1-7 0"/><path fill="#5D6670" d="M175 274c4 4 4 9 11 13-33-15-25 4 2 13 5 2 10 0 14-1-5-8-19-10-25-24"/><path fill="#7D4337" d="M380 424c-1 2-4 6-7 8 0 6 3 11 1 14 2 2 3-2 4-1-5 6-5 14-8 19-1 7 5 7 7 9 2-8 2-15 6-21 1-5 1 0-4 1 7-5-2-10 3-10-2 1-4 1-6 2 7-5 0-7 3-20"/><path fill="#A4B1B1" d="M170 353c11 4 10 15 38 21-3-2-4-3-6-3 2-1 7-1 8-3-16-6-20-9-34-16"/><path fill="#989FA0" d="M388 358c0 6-31 2-32 9 6 5 9 4 12 3 21-3 38-11 21-11"/><path fill="#A4ADAB" d="M360 188c-4 6 2 15-1 23 6 9 9 20 17 23 4-2 5-3 7-3-3 0-7 3-10 1-4-23-6-39-16-39"/><path fill="#C5D4CF" d="M189 258c-2 5 17 18 25 23 6 1 8-2 11-3-7-3-21-11-34-20"/><path fill="#EFF2EF" d="M73 226c4 14 11 26 21 38-5-8-11-15-14-23 12 9 23 19 40 26-16-14-32-24-45-38"/><path fill="#545564" d="M178 275c4 4 5 11 10 13 11 3 17-1 24-2-11-5-22-6-33-10"/><path fill="#E0EBE4" d="M81 241c3 9 3 9 10 17 5 4 11 12 19 13-7-16-17-17-28-30"/><path fill="#CD7959" d="M460 180c1 13 30 5 62 22-10-7-20-11-30-15-13-3-24-7-35-7"/><path fill="#CBD9D2" d="M448 341c-2 5-8 5-10 2-4 3-5 6-7 9 4 4 12 6 18 3 4-5 2-8 0-14"/><path fill="#706C75" d="M322 413c-17 2 7 7-29 5 1-1 3-2 3-4-3-1-2 9-5 15 0 4 43-15 38-17"/><path fill="#A0A7A8" d="M123 258c6 6 9 11 10 17 9 5 18 7 25 10-9-8-28-19-32-26"/><path fill="#1E090C" d="M352 273c0 14-4 26-12 37-15 15-28 28-44 35-17 8-35 8-54 7-17-2-32-8-43-13 11 6 24 12 42 14 21 1 40 0 55-8 18-7 31-20 42-34 2-3 4-3 4-5 7-10 10-20 9-32"/><path fill="#8B898E" d="M422 385c-10 4-19 9-28 13 1 0 5 1 9 2 0 5-3 7 1 8 2-9 11-14 17-23"/><path fill="#BAC6C2" d="M113 312c9 9 22 12 33 15-3-2-1-5 3-6-13-2-23-5-33-9"/><path fill="#BCC1BA" d="M378 129c-13 7-18 21-21 26 4 1 5-1 7-2 2 2 0 2-1 3 8-7 8-17 14-24"/><path fill="#879FA1" d="M265 264c-12 6-29 12-39 19l9 3c10-10 21-15 31-22"/><path fill="#7E9597" d="M259 292c-24 18 9 14 12 6-1 5-9-4-13-2"/><path fill="#C4DCD5" d="M332 245c-6 4 4 20 10 23 1-5 2-8-3-14-3-3-3-7-7-6"/><path fill="#71858A" d="M265 305c-17 16 5 18 14 9-5 1-12-4-15-6"/><path fill="#6C6871" d="M280 386c-10 24-3 23-2 35 2-1 4-4 6-7-3-3-1-11-6-13-2-6-1-8 0-11"/><path fill="#D5DED6" d="M454 315c8-6 12 5 4 9-4 1-6-1-8-2-1-5 0-8 3-8"/><path fill="#646B72" d="M217 289c-7 3-13 5-17 5 8 5 35 0 18-5"/><path fill="#F3F4F1" d="M103 234c4 11 12 22 23 30-5-11-6-12-23-30"/><path fill="#9F4F3F" d="M448 178c-8 7 0 5 8 7 4 2-1 4-2 5 18-1 1-3 16-4-5-2-10-4-15-5l9-3c-4 1-10 2-14 0"/><path fill="#97908E" d="M397 131c3 7 7 13 11 19 0-4-1-8 1-11-5-3-7-6-10-7"/><path fill="#D1DAD3" d="M456 315c-5-1-8 6-2 8 4 1 6-2 7-3 2-6-1-6-4-5"/><path fill="#8D8B8F" d="M406 387c-9 6-19 8-29 11 9 2 32-11 33-11"/><path fill="#E6F0E7" d="M397 246c3 2 7 8 1 12-4-5-4-3-5-9l1-1 1 1"/><path fill="#6A7C81" d="M255 313c-29 3 1 8 9 14 4-5-8 0-9-6-3-3-3-6-2-8"/><path fill="#979E9F" d="M326 330c-15 13-24 10-4 11 4 11 9 17 18 20-6-4-14-10-17-18 1-4-1-10 1-11"/><path fill="#8D8E93" d="M167 355c3 3 15 15 24 15-17-5-5-12-21-14"/><path fill="#E7F1E9" d="M387 263c4 2 9 9 15 11-7 2-13-4-15-8"/><path fill="#B3C1C0" d="M195 351c-23-2 4 6 9 8-2-3-4-5-7-8"/><path fill="#D1DCD7" d="M368 237c6-3 5 10 3 11-5-2-5-6-3-8"/><path fill="#82989A" d="M244 284c-5 5-5 5-5 10 7 3 10-2 14-1-2-5-11-2-12-6"/><path fill="#C4D3CC" d="M277 257c-2 4-10 10-11 15 7 0 22-20 11-9-3-2-2-3 0-4"/><path fill="#657378" d="M217 307c-1 8 7 6 22 7-7 0-12-3-17-7"/><path fill="#726A71" d="M232 361c0-2 1-1 3-1-1 2-4 2-6 4 2 2 5 3 8 4-5 3-19-4-7-8"/><path fill="#F5F4F3" d="M464 260c6 12 9 24 12 37 1-14-5-24-11-35"/><path fill="#99979A" d="M441 324c0 8-15 19-9 22 6-5 7-13 10-19"/><path fill="#D28863" d="M433 463c-9 7 10 7 18 6-7-4-14-1-17-6"/><path fill="#859D9F" d="M267 290c-3 1-5 2-8 3 5 2 16 11 7-3"/><path fill="#B2C5C0" d="m283 254-2 1c-11 4-9 7-17 13 6 1 9-11 16-13 3 6-7 16-9 16 11-19 17-4 15-15"/><path fill="#C27157" d="M353 469c7 6 15 9 25 8-9-1-15-7-23-8"/><path fill="#738489" d="M173 273c6 6-1 7-2 6 5 4 9 7 13 9-5-5-8-10-9-14"/><path fill="#7E9598" d="M226 283c-12 2 4 8 7 5 0-2-5-3-6-4"/><path fill="#F6F5F4" d="M126 307c-9 4 14 5 17 9-5-3-9-6-15-8"/><path fill="#220B0C" d="M455 352c-28 29-28 23-42 47 12-15 26-30 39-43"/><path fill="#E79F79" d="M414 458c15 9 15 3 28 7-8-2-16-6-25-6"/><path fill="#7D9193" d="M162 267c5 4 5 10 11 12 1-8-3-6-9-11"/></svg>