<svg xmlns="http://www.w3.org/2000/svg" width="600" height="600"><path fill="#5D6E87" d="M440 109c9-1 18 0 26-1 37 1 36 37 55 55-1 4 0 6-1 7-6-3-12-3-19-2-3 6-8 9-11 13 8 28 15 48 18 75 2 13 4 23 5 34-4-2-4 6-9 3-1 7 1 10 2 14-18 24-34 49-54 64-22 14-45 19-66 29-7 6-13 12-17 18 3 16 15 27 25 35s18 3 27 0c4 12 21 3 22 18-8-6-13 3-22 0 0 2 0 5-1 7-24-12-54-9-77-14 2-5 13-9 20-7-4-8-14-5-19-6 11-13 25 3 29 1-10-12-18-28-28-33-2-6-3-9-5-12-5-1-7-3-12-2-11 1-16 17-24 17 4 12 8 23 14 34 6 10 16 10 23 14 11 5 19-1 28 3 4 3 5 5 4 9-8-6-22 5-36 0-2 4 3 7-2 8-8-6-19-6-26-12-15 0-30-4-41-2 4-6 12-12 22-12-1-5-5-2-8-1-2-5 2-5 2-6 6-3 12-5 16 0-6-27-26-42-30-65-20-2-36-3-53-2-2-2 1-3 1-5-3-2-10-1-14-3-32 25-68 32-97 57 0-10 18-9 21-20-9 3-17 5-25 8 14-12 25-23 40-30-10 4-19 9-29 12-6 0-1-4-1-5-12 4-23 8-34 11 22-15 44-27 66-39-18-1-42 3-64 2 36-17 72-24 105-38-22 1-44 2-67 1-4 0-10-4-8-7 37-12 74-20 107-36-9-4-19-7-29-11 22 0 41 2 60 4-4-1-7-2-11-3 10-3 9-13 17-9-4-1-8-3-10-5 5-4 8-7 12-7-8-7-13-10-18-14 10 0 19 3 28 6 8-4 13-8 19-11-8-7-15-13-23-17 10-3 20 1 30 1 5-3 8-5 11-6-6-6-14-8-19-13 23-3 47 2 66-5 10-10 16-23 28-27 14-15 3-30 15-42 6-10 16-15 21-22 8-4 16-3 24-8"/><path fill="#5C7192" d="M438 123c1 4 8 6 7 10-11 1-25 2-35 8 0 11 18 20 19 38-11 7-20-2-28-3-2 3 2 7-3 8-6-4-6-10-10-13-3 2-14 12-8 19-7 7-13 5-19 7 10-1 4 7 18-5 3 5 7 8 11 10 0-3 0-7-1-10 8 2 12 3 20 4 2-6 8-4 6-11 18 1 22 24 39 20-2 0-2-2-4-3 7-7 15-10 21-16-9-2-28 2-40-1 1-10 7-19 15-27-4-4-8 1-12-1-3-5-1-10-6-14 5-1 8-6 12-5 4 3 0 13 8 14 4 1 5 3 7 4-4-3-9-6-10-11 4 4 7 6 11 8 15 0 6-4-1-3-13-8-2-17-16-24"/><path fill="#181E3B" d="M242 302c9 3 21 2 25 8-12 7-21 11-29 16-5-6-8-11-9-16 2 4-2 7-2 8-21 3 2 6 8 7 24 1 57 20 73 23 14 2 28 5 42 3 3-9-3-7-6-10-3 1-4 6-6 4-5-4-9-3-13-7 0 1-1 4 0 5-10 0-18-2-26-4-2-15-6-16-12-22 1-3 4-2 6-2-9-6-12-3-20-7-3-2-2-4 1-5-10 4-20 0-30-1"/><path fill="#0D1025" d="M418 336c-25 19-52 31-81 39-23 6-46 6-68 8-21-1-38-5-54-8-5 3-4 2-9 3-16 10-33 18-46 25 7-2 13-5 20-6 10-6 17-11 24-16 5 3 12 1 16 3 1 2-2 2-3 5 20-1 35 0 54 3 11-4 23-7 34-5-1 3-3 4-5 5l-1 2 2-3c23 1 51-21 66-22 18-11 35-18 50-32"/><path fill="#4E6389" d="M378 183c-4 4 3 8 1 12-56 9 12 14 39 29 12 17 27 30 26 47 2-9 4-15 6-22-8-4-11-5-16-9 8-5 6-4 12-7-8-3-14-6-22-8 2-3 7-3 11-4-12-11-21-5-28-20 0-6 9-1 13-3-1-2-2-5-3-8-2 7-9-1-7 6-9-1-13-1-20-3 0 4 3 6 3 9-11-2-15-10-16-18"/><path fill="#44537C" d="M356 373c-11 5-20 13-32 15-18 5-31 9-49 10 1 8 5 13 8 19 1-2 3-3 4-5 7 10 12 2 15 8 11-3 16-13 26-22 9-4 14-6 20-9 2-7 14-15 10-17"/><path fill="#34456C" d="M201 337c-8 4-2-1 5 3-4 6-15 9-1 6-17 2-26 6-39 7-3 1 7 2 12 4-20 8-20 6 3 4-4 2-8 5-12 5 4-1 9-1 13-2 16 5 30 9 46 12 8-1 7-7 12-14-5-5-12 0-16-3-6-3 0-2 0-3-14-1-27 2-40 3 11-4 25-6 39-8-8-3-13-16-21-12"/><path fill="#46567C" d="M257 257c0 4 9-1 10 7-1-1-3 6-6 3-11-5-1-7-10-7 3 3 6 4 8 6-5 2 3 8 1 11-7 2-11 7-16 8 2 3 4 5 7 7-28-5-24 4-47-1 17 5 30 8 59 12 37-4 14-20 1-33 4 0 7 4 13 2-8 1-2-6 1-8-8 0-11-6-20-7"/><path fill="#1B2340" d="M405 326c-5 2-12 1-19 3-9 8-15 20-26 21-15 6-31 7-46 9 0 4 3 1 5 2-1 2-2 3-3 4 4 5 8 7 11 10l-2 1-3 1h3l2-1c11-2 22-5 33-10 7-8 13-16 19-24 9-5 17-10 24-15"/><path fill="#D4E9E4" d="M418 232c-5-1-37 11-16 12-1 7-1 14 0 21 0-5 11 2 15-3 2-5 2-9 2-13 5 4 10 10 16 7 4 10 1 18 0 26 4 1 5-2 8-2 0-8-2-16-5-23-4-11-9-18-17-24"/><path fill="#7C8DA8" d="M475 271c-3 3-9 4-12 7-5 15-11 28-18 40 6-1 9-3 11-7 4 5 9 4 12 14 8-6 11-13 14-18-4-3-16-3-15-8 15 0 4-14 14-13v4l1-2c-6-10-1-12-6-15"/><path fill="#DEF4EB" d="M383 213c-6 6-17 8-13 17-6-5-6-5-16-4-9 7 2 10 11 12h21c2-4 2-7 2-9 11 0 19 6 29 0-10-8-21-12-33-16"/><path fill="#505C82" d="M172 379c-25 14-40 29-65 45 10-8 120-43 69-46"/><path fill="#5C7394" d="M286 213c7 5 13 5 20 12-6 3-9 8-13 8-52-16-6 16 0 13 0-2 10-13 6-11 7-3 12-10 20-5 4-6 9-11 16-16-16 0-31-2-46-2"/><path fill="#8BA1B7" d="M448 331c-3 0-6 2-8 3-6 10-12 19-17 28 5-1 9-4 14-4-1 3-2 7-5 10 2-1 5 2 5-2 6-9 43-40 12-35"/><path fill="#506188" d="M173 317c-21 7-40 11-61 19 7 3 10 5 15 4 17-6 30-12 44-18 3 4 5 9 5 11-5 4-8 5-14 6 9 0 17-1 25-2 10-8-11-17-12-21"/><path fill="#446489" d="M259 358c-2 5-6 7-15 3 9 0-1 4 3 3-15 4-11 11 7 0 11 7 22 11 31 17 9-1 14-3 20-3 5-5 7-8 9-13-3 0-2-4-3-6-15 2-15 8-43 9-5-2-12-5-5-10"/><path fill="#38496D" d="M266 334c3 0-22 11-40 13 13 4 26 6 37 10 5-1 8-7 12-10 18 0 14-4-5-12"/><path fill="#B7D5D3" d="M307 290c-25 3-3 17 5 24 10-4 18-10 26-15-9-3-18-7-27-9h-3"/><path fill="#42628C" d="M438 139c-3 1-4 3-7 4 2 4 3 9 1 14 5 1 10-5 16 0-10 12-13 16-19 27 9-3 17-3 24-7l2-1 2-2-1 3-3-1c1-6 6 0 5-10-2-2-6-4-10-6 4-3 9-2 13-3-7-2-7 0-15-4-7-5-1-14-6-15"/><path fill="#606D91" d="M409 326c-10 6-19 12-29 16-5 8-11 15-16 21 14-5 28-11 41-19 1-7 13-17 6-19"/><path fill="#8798B1" d="M387 321c-9 4-21 5-34 6-3 11 1 11-2 23 8-1 11-2 17-4 7-12 14-16 22-25"/><path fill="#0D0F25" d="M171 374c-28 12-56 24-83 37 8-2 15-6 23-8 3 3 2 5 1 7 23-9 51-26 64-38"/><path fill="#515E84" d="M408 347c-4 2-8 5-11 8 1 1 4 9-2 11-6 7-18 19-30 24 7-3 13-4 20-8 0 4-3 7-4 11 3-2 26-14 34-27-7-1 1-4-14-1 3-8 5-12 7-17"/><path fill="#222D50" d="M372 304c-10 5-14 14-21 22-3-6-3-12-5-18-8 4-14 8-19 12 7 4 15 9 18 9 12-11 43-6 27-24"/><path fill="#6E7D9B" d="M427 332c-6 4-11 12-18 14-2 7-3 12-5 17 6-2 13 0 18-4 2-2 7-12 10-17-2-4-3-7-4-10"/><path fill="#7899B4" d="M470 187c-1 4-7 5-8 8 3 5 3 9 5 11 2-1 4-3 4-5 4 4 5 7 6 11-4 2-5 4-7 4 0 8-3 13 4 17 6-5 10-10 15-16-6 2-5-7-10-6-8-8 4-25-9-20"/><path fill="#A0CFD6" d="M420 114c-5 7-11 14-22 19-6 7-4 12-6 16 3 0 4-3 6-3-3 3-4 9-6 8 5 1 13-2 19-6-1-4-3-6-4-7 5-2 7-6 11-6-3 0-5 1-8 1 3-3 7-4 11-6-2-3-3-4-4-5 5-2 2-7 3-8"/><path fill="#272F56" d="M308 443c-12 7 5 8-4 15-10-1-12-6-21 2 7-4 14 7 22 3-23 8-9 1-26 11 10-4 14 1 29-1 3 8 10 3 13 6-2-2 8-2 1-13 0 1 1 5 0 7-13-5-9-8-17-5l-1-1 1-1 1-2c3-2 5-2 9-3-2 1-4 0-5 1-6-6 0-9 4-7-2-6-4-8-6-11"/><path fill="#9BB2C0" d="M177 315c7 5 14 12 21 18 6 0 10-1 16 0 1-3 4-5 4-6-12-8-26-9-38-13"/><path fill="#8494AE" d="M228 301c2 8 7 15 9 22 7-3 15-6 22-10-5-10-20-7-28-13"/><path fill="#8AADC1" d="M479 244c-1 7 0 15 7 18-4 2-5 7-7 7 1 6 2 13 5 17 7-9 6-21 9-29-5-6-9-10-13-11"/><path fill="#263253" d="M204 334c31 22 6 17 24 26 3-2 4-2 5-2 1-3-7-4-8-11 14-4 27-7 40-11-19-2-42 6-56 1"/><path fill="#80AAB8" d="M294 250c3 4-1 13 3 16 12-3 21-6 29-10-8-7-22-7-29-5"/><path fill="#4F5F85" d="M467 257c-18 1-21 7-7 18 10-1 16-6 22-11-7-3-7-5-15-7"/><path fill="#9FBAC5" d="M325 266c-6 6-16 0-22 1l-2 1h2c-1 4-2 8-1 13 5 3 9-3 14-4 5 1 6 4 9 4 3-5 11-14 0-14"/><path fill="#E6F5EE" d="M475 111c-27 10-33 5-1 16-5-1-6-2-7-3 3-1 10 4 11-4 7-2 16 12 18 7-5-10-13-14-21-16"/><path fill="#688FA8" d="M496 131c1 8-9 6-12 8-1-2-5-2-6-4 1 8 3 18-1 16 3-1 16 5 23 0 0-8-1-13-3-18"/><path fill="#172044" d="M473 149c-6 5-3 4 4 4-5 4-8 4-6 9 6-2 10-6 16-4 0 8-4 12-7 17-4 1-6 3-8 4 0 4 0 6 1 10 4-4 6 5 10 6 3-10 4 0 1-17-2 4-4-2-3-2 4-4 15-7 12-15-10-5-15-5-19-12"/><path fill="#566D90" d="M173 323c-14 5-28 12-42 17 12-5 48 7 43-15"/><path fill="#E2F4ED" d="M452 234c-36 7 21 19 27 26-6-9-16-18-26-25"/><path fill="#192041" d="M289 417c-2 10 5 18 14 39-1 4-4 2-4 0 1 2 2 3 4 2-1-12 4-16-1-34-1-9-12 3-11-8"/><path fill="#5E6F91" d="M458 211c-6 4-1 13-7 19 6 5 14 9 23 8-12-9-10-21-12-28"/><path fill="#9BB9C6" d="M256 366c-43 13 8 16 22 13-7-4-15-8-23-12"/><path fill="#181F3E" d="M348 405c-2 8-4 4-1 14-1-1 0-3-1-4 11 18 19 19 28 37 10-5-4-6 3-11-4-7-6-11-9-14-6-1 1 6 0 8-5-2-6-8-11-6 0-7 11-5 10-11-9-1-5-6-19-5 4-1-4-4 1-8"/><path fill="#7BA7B7" d="M359 241c-25-5-3 14 6 14 6 1 7-4 10-5-1-9-10-7-15-11"/><path fill="#445177" d="M220 300c-7 4-15 5-21 8 7 6 11 8 21 12 11-1-13-8-16-11 7 0 15 4 23 5 2-5 3-13-6-14"/><path fill="#3C527B" d="M300 323c0 5-3 8-2 13 8 4 16 5 23 7 2-6-3-11-3-10 1-3 2-4 3-5-6-1-13-1-18-4"/><path fill="#242E54" d="M371 370c-2 0-3 1-4 2-3 2 1 0 2 1-19 8-7 6-24 21 9 8 69-36 26-18l-1-4v-1h1"/><path fill="#80A2B9" d="M503 246c-7 7-7 17-10 25 3 2 6 2 8 1 1 6 1 8 2 10 1-3 3-6 4-10-1-10 0-18-4-25"/><path fill="#87A7BA" d="M389 160c-2 8 3 8 7 15 12-2 21 11 30 2-6-6-14-9-21-14-1 1 0 6-5 6-5-1-7-4-9-7"/><path fill="#252E54" d="M377 441c-1 5 4 7-4 15h-1l-1-2-1 1-1-1c-18-11-8 3-1-1 4 10-9 2-2 11-3-6 6-6 7-1-1 4-4 4-5 3 5-2 14 2 16-3 4 4 9 3 13 5 1-9-2-4-5-11-6 7-4-2-8 4-1-6 3-6 4-6-3-1-4 3-6 0-9-7 7-10-4-12"/><path fill="#8494AF" d="M294 296c-44 14 19 15 14 21-3-5-8-13-15-18"/><path fill="#85ACC1" d="M416 187c2 4 6 8 8 12l-2 2h-3c-1-2-20-4-7 5 4 0 5-3 8-4 1 4-1 2-2 8 8-1 10-3 16-4 1-5-3-16-12-17-3-2-4-2-5-2"/><path fill="#8494AF" d="M221 324c-15 24 29 5 39 10-11-4-24-5-36-10"/><path fill="#8495AE" d="M278 345c-28 25 11 15 20 6-6-2-13-3-19-4"/><path fill="#44577F" d="M311 351c-3 2-7-1-10 1-12 6-23 10-34 13 15 3 29-3 42-3-7-1-6-3-10-8 20 2 30 3 14-4"/><path fill="#CCEDE7" d="M340 252c-33 23 16 12 22 7-5 3-14-3-21-6"/><path fill="#212B4E" d="M387 277c2 4-6 2-7 3-3 4-8 4-9 6 8 6 13 6 18 9 1-9 16-18-1-17"/><path fill="#80ABB9" d="M359 208c-3 10-11 19 6 15 4-3 9-6 14-10-6-4-12-4-18-5"/><path fill="#0F132B" d="M286 315c3 4 5 8 11 15 0-4 3-9 3-11 12 10 24 7 36 9-10-7-20-11-34-10-7-2-10-2-13-3"/><path fill="#4A5C84" d="M362 291c-7 7-6 6-12 13-4 4 0 11 0 15 5 2 7-5 10-7 1-8 3-13 4-19"/><path fill="#8394AE" d="M421 292c-5 10-7 21-12 31 6-4 13-7 19-12-1-7-3-12-7-17"/><path fill="#CFEEE7" d="M387 257c-4 6-9 12-13 18 8 2 15 0 21-2 1-8-4-11-8-16"/><path fill="#171D38" d="M317 278c-6 9-19 6-30 2-3 0-1 11-5 5 5 6 9 9 6 12l-2 1 2-1c11-8 25-12 32-16"/><path fill="#B9E4E2" d="M287 249c-6 2-12 7-18 9 9 4 16 5 23 7 0-7 5-17-4-16"/><path fill="#0E1027" d="M165 364c-16 7-38 5-53 10 20 0 33 0 51-2-1-1 3-4 2-6"/><path fill="#B0C9CF" d="M411 244c10 0 1 12 8 16-6 2-12 4-15 1-2-5-1-10 1-14 2-3 3-2 5-2"/><path fill="#313C66" d="M132 360c-15 6-30 10-45 16 2 1 62-8 52-14"/><path fill="#C5EAE5" d="M337 215c-29 14 2 22 13 9-5-3-10-5-13-8"/><path fill="#8197B1" d="M316 285c-17 5 20 8 24 13 4-4 9-5 12-8-13-1-23-2-33-5"/><path fill="#E5F5ED" d="M480 337c-8 7-18 16-28 23 0 5-1 8-2 12 13-11 25-22 34-36"/><path fill="#AAD0D4" d="M376 293c0 3-1 6-2 9 3 5 4 17 9 13 8 1-4-16 11-11-7-6-11-8-17-10"/><path fill="#222C4F" d="M461 276c-5 1-10 1-14 2-1 8 0 14-2 16 4 2 7 1 10 0 4-10 5-13 8-19"/><path fill="#7383A1" d="M422 262c-6 7-24 9-22 16 4 4 8 7 12 5 4-8 8-12 10-20"/><path fill="#232B51" d="M384 384c-10 5-14 7-23 10 6 7-2 9 0 12 6-1 12-2 18-5-1 3-2 5-5 7 5-3 7-8 10-10-2-6-6-2-13-2 8-5 9-4 12-11"/><path fill="#212D4F" d="M499 280c-9 7-22 15-28 20 9 5 15-1 21-4 6-5 5-10 7-14"/><path fill="#8493AD" d="M333 270c-3 3-4 19-12 10 8 7 16 3 22 3 8-15 3-12-8-12"/><path fill="#81A9BF" d="M461 194c-1 3-4 3-6 4 9 12 11 19 10 29 4-4 3-7 2-10 4-3 10-2 8-6 0-5-1-7-2-9-3 2-4 8-6 6-3-5-3-9-5-12"/><path fill="#3E4D73" d="M191 340c-9 5-17 4-24 13 7-1 58-10 26-14"/><path fill="#C6E7E3" d="M442 110c-7 1-13 7-19 6-5 1 1 5-4 4 8-1 51 1 23-9"/><path fill="#49587F" d="M394 355c-7 8-17 7-22 16 5 3 19-6 17 1 2-7 12-5 7-16"/><path fill="#A0B6C3" d="M326 330c-15 0 8 11 12 13 4-3 4-6 6-9-5-4-11-5-17-4"/><path fill="#354169" d="M423 457c-1 1-2 0-3 1-5 2-3 2-5 5-1-5-7 0-9-2-6 4-8-4-10-1 7-1 0 5 3 7 1-1 3-3 4-5 8 3-1 1 1 6 5 0 6-7 15 0 3-7-4-5-1-8 5 0 3 4 4 7 7 3 3-1 3-4 11 10 21-1 1-2v1l-1 1-3-1c3-4 2-2 0-4"/><path fill="#5E6F92" d="M485 191c0 13-12-6-7 15 6 1 6 10 12 8 4-6-2-13-4-20"/><path fill="#C8E6E2" d="M479 120c-1 8-9 5-12 2 0 1 1 2 2 3-5-3-11-1-13-4 8 5 17 11 24 13 1-3 2-5 2-8 16 16 13-2-2-5"/><path fill="#91C3CD" d="M350 208c-3 4-10 3-14 6 5 5 10 7 15 10 1-4 12-18 1-14"/><path fill="#0D0F26" d="M358 394c-10 4-18 2-25 10 2 1 5 0 8 0 2 6 4 10 4 14-5-13 11-11 11-22"/><path fill="#38456A" d="M402 311c-3 2-8 0-11 1 1 2 2 3 4 5-5 4-6 7-8 10 7-1 13-2 20-3-2-5-4-8-5-12"/><path fill="#6D7C99" d="M418 124c-1 2 4 0 4 5-1 3-2 4-4 4 8 0 19 1 25 0-2-5-4-7-6-9-7 2-13 0-18 1"/><path fill="#7F91AA" d="M410 153c-34 1 7 12 8 15-5-3 3-15-7-16"/><path fill="#252F51" d="M353 268c-8 4-1 21-15 17 6 0 12 5 18 2-2-7 5-16 0-19"/><path fill="#323E68" d="M380 400c-20 15-18-1-33 9 7 6 14 3 20 4 7-3 9-11 14-10"/><path fill="#2B365D" d="M180 364c-29 6 6 16 17 5-2 1-7-4-14-3"/><path fill="#323F69" d="M191 372c-32 4 2 10 19 4-6-4-12-5-20-4"/><path fill="#6D7B99" d="M437 358c-13 8-16 1-22 12 3 8 6 3 12 4 1-7 5-11 8-13"/><path fill="#8798AF" d="M438 368c0 3-5 1-6 3-3 5-7 8-10 12 7-1 14-3 20-7 8-18-7 3-6-6"/><path fill="#192244" d="M453 218c-7 5-16 5-24 6 6 3 11 6 17 7 7-4 6-10 8-13"/><path fill="#364167" d="M293 388c-7 0-15 6-20 5 7 6 20 0 25 1 5-5 7-7-4-6"/><path fill="#607393" d="M438 206c-6 1-10 4-15 5 10 9 22 16 16-6"/><path fill="#8392AB" d="M406 293c-19 3-16 11 1 7-2 6-2 9-3 12 2 1 3 4 4 4 2-4 4-6 5-10-2-3-4-2-5-5-2-3-3-5-2-7"/><path fill="#8595AF" d="M337 301c-6 4-14 9-19 15 1 0 3 3 4 3 8-5 33-16 9-11 1-3 3-4 5-5"/><path fill="#D0EAE2" d="M436 308c-8 6-16 10-24 14 6 0 11 4 16 0 4-5 7-10 7-14"/><path fill="#9FB9C3" d="M441 285c1 7-13 18-10 25 1-2 4-2 6-4-1 6-3 11-5 15 4-7 12-23 10-33"/><path fill="#B2D3D5" d="M435 269c-1 6-6 10-4 14-4-3-3-5-6-7-4 4-7 10-11 10 6 4 15 3 21-1-3-5 0-9 0-13"/><path fill="#96BCC7" d="M393 141c-7 11 3 12-6 16 6 5 7 10 11 11 5 0 6-3 6-4-4-5-7-6-11-6 8-1-7-6 5-10-2 0-4 2-5 3 3-4-4-3 1-8"/><path fill="#3F608B" d="M482 161c-7 4-15 7-22 11 7 0-6 7-4 11 13 0 15-19 29-22"/><path fill="#D2EEE7" d="M385 254c-7 3-17 3-22 12 8-4 0 5 13 0 5-4 6-9 8-11"/><path fill="#5B688A" d="M496 296c-5 1-9 6-13 8 0 7-6 16-10 19 8-10 11-5 16-15 3-2 0 6 1 4 1-4 4-9 4-14"/><path fill="#8CAEC0" d="M463 314c-5 4-8 5-12 6 3 11 32 8 9-4"/><path fill="#7F8DA8" d="M453 297c-3 2-9-1-9 4-3 11-6 7-4 18 5-6 9-14 13-21"/><path fill="#2B345B" d="M167 354c-7 17-40 5-30 4 1 5 5 5 8 6 1 3-14 6-6 4 13-2 51-10 27-13"/><path fill="#C8E9E3" d="M388 232c3 3 1 6 2 9 1 6 0 9-1 13 4-2 11-3 12-9-4 0-6-1-8-2 1-6 4-4 5-7-3 1-7-7-8-3"/><path fill="#242E50" d="M281 273c-19-1 2 19 3 13-2-4 2-7 0-9 0-4-2-1-3-4"/><path fill="#1D2546" d="M442 318c-6 9-4 6-9 12-4 2-5-1-6-2 3-5 6-4 7-6-2 1-4 2-5 3v1l-2 2c2 3 3 7 6 11 12-16 21-24 7-15"/><path fill="#303B66" d="M402 380c-4 8-15 9-20 17 7-2 14-4 20-7 0-3 0-6 1-8"/><path fill="#47557D" d="M426 377c-5 5-14 3-21 6-2 1-1 4-2 5 6 0 11-2 16-3 2-3 4-5 6-6"/><path fill="#99BCCA" d="M484 223c-3 5-8 9-10 13 3 4 7 1 8 3 2-6 7-11 4-14"/><path fill="#507296" d="M455 255c-1 3-4 2-6 3v2l-1 1v2c-2 3-3 6-2 10 4 3 9 1 12 2-3-1-3-6-10-13 3-3 17-5 10-4"/><path fill="#0B0B1A" d="M450 129c2 4-2 7 0 11 2-3 0-9 6-7 3 5-1 4 1 7 11 6 0 1 10-1 4 7 3 5 0 9 7-2 6 3 16 8-10-4-11-14-16-21-5 0-6-3-10-3-3 1-4-1-6 0"/><path fill="#1C2243" d="M355 386c-13 9-13 14 2 7 0 5-1 8-3 10 10 0 7-1 9-6-1-2-1-4-6-2-1-4-2-5-3-6"/><path fill="#454F78" d="M135 384c-15 7-28 15-42 22 13-7 43-17 48-23"/><path fill="#A2B7C2" d="M508 272c-5 8-6 17-9 25 3-3 7-4 8-6 2-6 2-11 2-16"/><path fill="#6F7D9C" d="M466 341c-9 1-11 10-17 17 5 0 11-6 15-9-4-4 4-6 2-8"/><path fill="#263256" d="M485 323c-5 7-11 2-17 5-1 2-4 7-4 7 7 0 14-5 19-10"/><path fill="#5C84A6" d="M484 163c-9 3-13 10-17 18 8-4 16-10 18-19"/><path fill="#AEC8CE" d="M421 251c-1 3-2 6-1 10 3-3 12 5 16 6-3-6-9-10-13-16"/><path fill="#DEF4EB" d="M358 290c-4 2-17 6-14 11 7 2 12-8 16-12"/><path fill="#99B2C1" d="M396 283c-3 2 16 7 26 8-11-4-7-5-22-8"/><path fill="#212C4F" d="M317 366c-16 15 0 13 9 8-4-2-6-3-8-5"/><path fill="#DFF3E9" d="M496 218c-3 7-3 15-4 23 4-4 6-8 8-12-1-5-2-7-3-10"/><path fill="#90A0B5" d="M228 350c4 3 6 5 10 8 9 1 15-1 21-1-9-1-19-5-29-6"/><path fill="#B9D8D8" d="M407 247c-2 5-3 7-4 13 5 2 10 2 13 0 1-10-11 0-9-11"/><path fill="#CBE7E4" d="M301 269c-5 2-9 5-13 8 4 1 7 3 11 4 1-5 2-7 2-10"/><path fill="#697B99" d="M426 291c-9 0 0 7 2 13 7-3 2-9 5-9-1-3-3-4-6-3"/><path fill="#6B88A4" d="M374 185c-6 1-8 7-11 10 4 0 8-1 12-2 2-3-1-6 0-9"/><path fill="#25325C" d="M473 153c-2 4-5 5-8 6-4 4-3 8-5 12 5-3 10-6 15-8-1 0-2 1-5 0-3-7 4-7 6-9"/><path fill="#E3F5ED" d="M446 109c0 3-1 7 5 5 6-1 12-2 17-4-6-1-14 0-20-1"/><path fill="#626F90" d="M422 358c-2 4-6 5-9 5 2 4-8 2 4 3l-2 3-1 1-2 1c-2 3-5 6-7 9 12-6 13 1 19-5-5 3-5 3-11-4l1-1 1-1 1-2c1-3 3-5 5-7"/><path fill="#405C8A" d="M241 253c12 6 14 10 23 13-6-8-12-9-19-13"/><path fill="#B5D4D7" d="M453 120c6 17 17 6 21 20-1-11-16-15-19-18"/><path fill="#E3F4ED" d="M331 236c-15 14 3 6 10 4-3-2-6-3-9-4"/><path fill="#BAE3E1" d="M325 238c-3 3-13-1-14 7 9 1 13-1 16-8"/><path fill="#A3BBC6" d="M422 261c2 0 2 3-1 6 5 2 12 4 12 6 0-2 1-2 1-4-1-5-7-5-11-7"/><path fill="#1C2240" d="M409 293c-4 5 0 9 5 11 2-4 2-7 4-9-3-2-5-2-8-2"/><path fill="#7886A4" d="M198 310c-18 1-3 7 9 8-3-1-4-7-8-7"/><path fill="#ACD8DA" d="M255 269c-15 2-5 11 4 8 1-4-4-5-2-8"/><path fill="#446593" d="M502 149c-6 6-16 10 5 9 4 2 12 7 11 8-1-5-6-10-11-7-5-3-5-6-6-9"/><path fill="#4B709A" d="M502 147c-2 13 10 9 16 14-5-4-7-10-15-13"/><path fill="#556287" d="M502 300c-7 4-8 13-11 20 3-7 12-11 13-18"/><path fill="#8FA9BD" d="M373 274c-7 7-6 3-9 13 4 3 6-4 11-5-1-2-4-4-4-5"/><path fill="#586587" d="M489 307c-3 13-8 7-15 14 3-1 6 5 14-1 1-5 3-7 1-13"/><path fill="#7FABB9" d="M313 240c-4 2-10-1-13 2 0 1-1 3 0 5 7 2 9-1 11-6"/><path fill="#818FA9" d="M438 121c6 2 12 8 19 7-4-7-10-9-18-7"/><path fill="#111528" d="M151 407c-7 4-17 6-23 12 8-1 17-5 21-12"/><path fill="#516083" d="M283 262c-17 13 3 10 9 5-3 1-6-1-9-2"/><path fill="#4E5B82" d="M196 287c16 10 28 0 31 11 0-10-15-7-23-10"/><path fill="#D7B9A9" d="M451 139c1 3 2 5 5 7 4 4 8 2 10-1-2 3-9-2-12-6"/><path fill="#282E55" d="M163 351c-6 2-13 3-20 5 7 0 17 2 22-4"/><path fill="#8598B0" d="M344 242c-6 1-12 4-16 4 3 0 4 3 10 4 2-3 5-4 6-6"/><path fill="#262E52" d="M162 374c-3 3-14-2-18 4 6 7 25-6 22-5"/><path fill="#6B7A9A" d="M406 285c-4 4-13 2-12 8 0 2 12 0 13-5"/><path fill="#99AFBE" d="M487 325c-6 4-12 10-20 14 13 0 17-9 20-13"/><path fill="#7C90A8" d="M477 239c-15 0-9 0-2 9 3-2 3-5 1-7 6 0 10 0 13 2-3-5-6-1-11-4"/><path fill="#1D2344" d="M318 248c-3 1 17 8 18 5-5-3-9-7-17-5"/><path fill="#E7F5EE" d="M503 242c-4 1-7 2-10 4 0 3 0 5-1 6 5-2 8-5 10-9"/><path fill="#D0E8E5" d="M401 256c-4 19 2 17 14 8-5 3-14-3-13 1-1-1-1-3-2-6"/><path fill="#EEF1F1" d="M505 306c-7 8-14 16-19 25 8-9 14-15 19-23"/><path fill="#C9E9E3" d="M353 226c-3 2-6 2-8 6-2 3 0 5 0 7 8-6 3-7 7-11"/><path fill="#547196" d="M345 393c-8 2-15 5-20 11 7-2 13-6 20-10"/><path fill="#CEC0B2" d="M495 175c-8 2-9 11-6 19 12 10 3 22 13 31-6-11-6-23-14-34 0-7 2-12 5-15"/><path fill="#2E3965" d="M360 460c-6 8 9 8 12 3-8 0-5 4-10-5"/><path fill="#87A3B9" d="M398 252c-3 1-7 2-10 4 2 6 5 3 9 3 0-3 2-4 1-7"/><path fill="#CCEBE8" d="M497 124c-2 8 5 14 5 19 0-6 1-12-4-16"/><path fill="#88ADC1" d="M418 155c-2 8 1 14 8 18-2-6-5-11-7-16"/><path fill="#CBE8E4" d="M421 270c-2 5-5 9-7 14 6-2 6-7 9-10-1 1-2-1-1-2"/><path fill="#7586A1" d="M460 238c2 2 12 10 17 16 2-5-14-15-13-16"/><path fill="#20294B" d="M435 318c3 5-12 9-5 12 4 1 4-4 7-4 3-3-1-3 0-7"/><path fill="#10142E" d="M165 356c-8 2-16 1-24 4 8-1 17 5 21-4"/><path fill="#BADAD9" d="M359 269c3 3 0 6 0 10 4 0 6-1 8-3-1-3-5-4-7-5"/><path fill="#35406B" d="M144 379c-5 3-11 5-17 7 5-6 32 0 19-8"/><path fill="#BAE0DD" d="M353 228c4-1 9 1 13 3-5 6-7 0-10-1"/><path fill="#282E57" d="M357 458c-4 7-7-2-15 6 6-1 9-4 14 1 1-5 8-8 1-6"/><path fill="#7B97AF" d="M320 233c-3 1-6 1-8 3 2 5 21-2 9-3"/><path fill="#91A7BC" d="M501 232c-3 3-4 7-6 10 3 2 4-3 7-1 0-4-1-6 0-9"/><path fill="#8DB4C8" d="M447 208c-1 18-9-7-5 13 3-3 6-3 9-4-2-1 0-5-4-6"/><path fill="#7198AB" d="M485 129c-3 13-1 9 9 6-3-1-5-3-8-4"/><path fill="#749CB3" d="M389 168c3 4 4 10 8 14 4-8-5-8-7-15"/><path fill="#8295AD" d="M493 227c-7 3-3 1-6 8 2 1 2 4 3 6 2-4 0-9 2-13"/><path fill="#43567D" d="M191 330c1 2 2 3-1 6 4 1 6 1 8 1 0-4-2-6-5-5"/><path fill="#4F6186" d="M300 354c3 6 12 2 17 2-4-6-14 2-15-2"/></svg>