<svg xmlns="http://www.w3.org/2000/svg" width="600" height="600"><path fill="#6F342E" d="M339 115h1c10 8 18 18 29 22 1-4-6-17 2-20 25 23 56 36 72 67 3 7 4 13 3 21 11 9 18 18 23 28-8 2-17 0-24-1 2 3 6 3 9 4-11 4-20 7-27 12-7 16-4 34 0 47-6 16-13 33-16 49-16 17-23 34-39 50-4-4-7-5-8-9-2 4-9 14-13 9-4 5-4 9-3 14 0 12 4 23 11 31 6 3 12 4 17 8 10 2 17-1 23-1 7 8 19 11 18 23-6 0-3-5-6-6-4 2-10 2-15 1 0 4 2 8 1 11-3-4-3-7-5-9-13 1-26-2-36-7 4 1 11 11 12 20-4-1-4-5-7-7-2 1-4 3-4 5-9 2-12-2-17-3-2 4-2 6-2 8-15-9-11-5-25-14-15-1-18 4-28-1-2 3-3 5-3 7-3-3-3-9-1-12 7-10 18-6 26-12-9-15-20-29-27-34-3-7 1-11 1-16-5-3-5-1-8-6-16 18-29 34-47 57-2-18 11-37 16-48-2 1-5 4-7 6 14-19 17-45 32-59-12 8-20 13-27 19-3 10-8 18-12 25 7-9 15-19 22-29-11 18-23 33-30 51 1 4 8-5 12-7h3l-1 1c-13 14-25 23-38 33-7 3-11-1-15-1 4-18 38-46 32-50 15-17 31-29 45-41-2-7-2-14-1-18-8 6-20 4-21 14 3-2 5-9 9-8-16 22-40 52-40 67-17 5-37 22-54 27-7 0-11-3-16-4 16-20 39-37 52-49 14-10 27-18 40-25-26-10-55 8-83 0-6-9-13-14-15-21 25 1 46-3 68-4-23-12-47-25-67-43-1-9 2-14 5-19 6-4 10-6 13-9 18 13 37 27 55 37-6-16-15-30-18-47 2-8 10-10 15-12 6 18 17 31 25 46 10 6 20 12 30 16-5-12 21-22 13-37 19-1 31-17 48-17 22-13 15-25 33-37 3-7-9-14-12-21-9-10-19-14-29-19 8-7 18-3 26-3-10-8-16-22-32-21 1-6 7-4 10-5 1-4-3-5-1-9 10 4 20 6 30 9-1-8-4-15-4-22"/><path fill="#2C232C" d="M367 327c-1 6-17 12-20 6-8 9-15 15-21 22-13 11-19-1-26 13 7-10 8-10 9-23 0-3-5 2-8 0-20 20-38 35-55 54-8 18-13 23-22 49 21-23 32-41 48-56 5 2 4 3 11 6 4-4-2-7 4-11 5-4 9-8 13-11 4 9 1 21 4 24 0 1 7 1 13-1-1-1-3 2-5 0 8-13 7-26 13-36 4-4 7-8 10-10 2 5 3 10 2 16 10-6 21-19 28-18 1-9 2-18 5-22"/><path fill="#491013" d="M290 276c-4 1-6 6-9 9 2-1 5-7 7-6 1 6 0 9-2 12-3 3-8 1-8-1-4 8-11-3-15 9-9 11-18 28-13 37 6-1 5-8 9-12 1 7-2 14 0 22 4 4 6 3 8 2 7-2 11-6 13-10 2 4 1 7 1 11 12-5 23-5 33-11-1 6-5 10-7 15 4 5 6 7 10 4 9-3 15-11 19-16 4-4-4-7 3-16-1-8-6 6-10-2 2-7-1-14 2-19-4 1-10 3-13 0 2 6 14 12 5 20-3 7-9 7-13 6-7 2-7-7-10-4-4-1-3-17-12-23-2-5 4-8 3-13-6-1 1-8-1-12"/><path fill="#47424B" d="M390 337c-26 23-27 6-51 34-3-6-2-13-4-17-3 2-5 5-8 7-8 12-5 27-13 37 19 0 27-10 34-13 3 3 4 7 5 8 3-3 7-7 11-10 0 2 5 7 8 7 11-10 15-23 20-35 0-6-3-10-4-15"/><path fill="#CE2A1A" d="M378 252c-41-1-14 17 7 10 0 9-10 9-10 14-6 3-12 3-17 2 2 3-4 4 0 9 8 5 14 9 21 4-2 4-5 5-7 9v2h-1v2c-1 2-1 3 0 7-1 4 1 5 1 7 6 2 8-2 9-7-3 2-9 4-9 0-2-4-2-6 1-10 4-3 11-9 15-12 9 3 2 13 3 19 3 7 9-7 12-2 2 5-6 11-2 12l-1 2 1-1c4-9 13-12 13-20 0-26-5-5-3-34-9 13-2-6-11 6 1-5 0-9-1-13-2-3-3-5-6-4-7-1-12-2-16-4"/><path fill="#3A1925" d="M196 332c-15 10-46 3-64 4 7 5 2 6 14 17 32 3 46-4 66-4 9 0 10 3 17 3 12-7 3-17-25-19-3 1-7-1-9-2"/><path d="M320 398c-11 10-22-3-17 19 5 12 13 27 26 34 1-3 4-6 7-7 6 0 9 2 12 3-6-18-12-29-23-47-1-2-2-2-3-1"/><path fill="#474253" d="M213 382c-21 10-40 29-63 31-6 6-8 9-14 13 5 3 8 6 12 7 25-11 40-21 54-34 4-6 7-11 10-17"/><path fill="#3B2522" d="M294 417c-4 4-3 6-1 10 11 8 10 15 19 24-6 1-16 5-27 8-4 7-4 1-1 5 5 4 13 1 26-1 12 7 12 10 24 12 1-4 0-2 0-9 2 8 23 7 17 11 6-8 8-1 6-11-20-7-25-4-34-12-19-22-25-23-26-40"/><path fill="#F47C42" d="M382 127c-3 16 17 13 19 33-11-6-17-12-22-13 3 12 13 29 26 37 4-5 12 1 21 0 3 2 4 3 6 5-1-11-6-19-12-22 1 5 2 10 5 14-8-7-20-21-17-26-5-8-14-15-27-25"/><path fill="#330D15" d="M252 315c-5 17-15 26-20 37-7 0-11-1-15-3 4 2 8 3 13 4 10-6 5-10 15-18h2v2c4 1 9-3 10-6 0 5 1 9 0 12 1 4 2 5 4 6h-1 1l2 1h2l2 1-1 1c-12 14-18 30-22 47 4-11 93-78 38-46-1-6-2-11-2-15-3 6-9 11-16 12-2-3-6-2-6-4 0-6-1-10 1-13s-1-7 1-8c-3 5-5 12-12 12-3-3 1-15 3-19"/><path fill="#611513" d="M300 282c-6 7-10 12-13 20 12 2 8 20 12 20 6 4 10 10 17 7 6-4 9-8 10-12-10-8-9-18-10-28-6 0-6 13-14 14-4-6-4-14-2-19"/><path fill="#E3452E" d="M344 160c1 11 17 17 19 22 15 0 27 4 40 3 8 2 10 8 10 12 5 0 2 0 1-4 8 6 15-4 19-1 1-5-4-1-7-7-12 1-15-5-22-1-5-3-8-5-10-9-16-4-29-9-46-13"/><path fill="#5E1415" d="M156 286c1 7 2 11 4 17 11 11 25 17 39 23 9 1 20 4 26 2-24-10-55-30-68-40"/><path fill="#F24021" d="M144 261c-13 23 51 46 66 57-2-12-23-14-32-26-8-12-14-22-27-28"/><path fill="#686D66" d="M386 316c-3 2-4 4-10 6-6 8-8 19-9 28 9-1 16-6 20-13 2 5 4 9 6 14 11-15 24-51 0-13-1-12-12-13-5-21"/><path fill="#2C121B" d="M300 378c-4 2-8 5-11 8-4 8-5 16-9 23 3 10 11 14 15 21-1-6-1-1-6-9 4-3 4-7 8-5-2 1 0 8 2 9-1-29 7-19 2-48"/><path fill="#474658" d="M219 409c-5 6-14 6-18 5-8 9-14 14-21 25 8 4 14 6 19-1 9-5 13-11 19-14-4-4 0-9 1-12"/><path fill="#C53124" d="M371 207c-5 3-12 7-15 12 10 0 11-10 18-11 5 8 12 6 13 14-7 3-15 4-20 8-1-4-7 3-9-2-3 4-3 8-5 11 12-3 24 3 34-1 25-8-9-24-11-32"/><path fill="#201211" d="M397 193c-9 0-14 13-8 20s15 9 22 6c6-7 3-15-1-19-5-5-8-6-12-7"/><path fill="#97271D" d="M199 238c-2 3-7 3-10 6-3 6 1 10 0 12 4 13 13 27 19 41 3 3 7 6 11 8l6-6c-2-4-11-7-14-13-7-10-11-18-16-26 4-6 4-11 5-15 2-1 3 0 2 2 0-2 0-5-2-7"/><path fill="#EA4024" d="M203 251c1 2-3 6-6 8 5 10 9 19 14 27 4 4 7 6 10 8 3-1 6-3 10-4-11-6-17-25-27-39"/><path fill="#460E16" d="M348 169c2 5-11 3-16 11 1 0 19 18 20 25 4-3 6-8 17-14-10-5-18-6-26-10 5-1 11-1 19 2-5-1-7-7-14-13"/><path fill="#401720" d="M220 363c-23 11-39 27-55 40 14-1 32-18 47-25 8-6 7-14 9-16"/><path fill="#A8A487" d="M335 283c-2 4-6 7-8 10 1-2 3 5 2 5-1-2 4-3 5-4-1 10-3 18-4 27 6-5 14-12 20-17 5-11 3-22-6-8-6-4-2-12-7-13"/><path fill="#2A1318" d="M349 385c-5 6-14 9-19 15 8 17 15 32 21 47-1 2-2 3-5 2 3-1 10 1 6 0 3-3-4-14 5-7-9-10-12-27-14-32 1-8 2-17 8-23"/><path fill="#916855" d="M443 208c3 13-21-1-25 15 9 1 19 3 28 6 24 2 8-11 0-18"/><path fill="#EE403D" d="M341 117c-5 12 12 18 2 19 5 9 9 15 15 19 7-1 12-2 15-6 4 2 5 4 6 6-3-8 2-8-9-15-10-5 2 5 0 7-8-4-14-6-20-9 2-5 7 2 11 2-25-20 11 6-22-22"/><path fill="#4D1216" d="M136 272c-1 4-3 7-4 12 10 10 21 18 32 24-5 0-7-11-9-19-6-7-12-10-17-16"/><path fill="#391D27" d="M238 368c-2 4-6 6-8 10-11 17-18 24-30 36 5-1 14 1 19-6 5-10 11-19 16-29-2 1-4 4-5 0 2-5 8-7 7-8"/><path fill="#E4412A" d="M370 208c-23 9-16 20-3 21 5-4 12-5 18-7 0-8-6-5-8-12-9-1-11 10-20 9 2-5 6-7 11-10"/><path fill="#A7281E" d="M399 226c0 7-7 8-10 12-12 5-31-1-38 6 34-2 25-2 58-6 4-7 2-15-8-11"/><path fill="#4C181C" d="M182 286c3 4 9 13 18 16 15 7 28 13 41 18 6-5 11-10 14-16v-3l-2-2 3 3-1 2c-8 2-12 7-14 14-21-10-40-20-58-31"/><path fill="#F44337" d="M372 123c-3 6-2 12 1 16 8 6 14 10 22 16-3-10-15-20-20-32"/><path fill="#4E1519" d="M226 324c1 10-18 4-24 4 10 5 20 10 33 9 17-9 1-9-8-11"/><path fill="#D3391E" d="M327 262c-2 9-7 1-11 5 5 5 3-2 6 0-4 6-6 15-1 20 11 1 12-9 16-11-3-2-8-2-10-7-4-4-2-5 1-6"/><path fill="#45090B" d="M341 234c-25 9-10 15 8 11 4 2 4 7 7 8 8 0 14-3 20-5-7 1-13 4-20 1-4-8-7-12-14-13"/><path fill="#6C1D1D" d="M222 297c2 1 4 1 4 3-17 6 4 12 14 17 1-12 16-10 14-16 0 0-6 3-8 7-9-4-15-7-22-10"/><path fill="#624038" d="M418 224c-4 6-1 16 5 19 7-2 12-3 20-8-5-4-21-3-24-9"/><path fill="#440D12" d="M384 194c-15 8-34 13-46 29 16 0 24-24 42-20 2-3 1-6 2-8"/><path fill="#FAF4AF" d="M369 118c-1 3-1 7 0 10 0-3 0-10 4-7 23 19 30 25 49 43 9 6 15 16 21 25-5-13-12-21-19-31-20-12-34-27-52-39"/><path fill="#992D32" d="M374 150c-4 16-19 2-26 9 21 3 38 21 29-9"/><path fill="#2E0A10" d="M340 188c3 6 13 13 10 18 9 0 11-1 32-12 2 3-2 6 0 10-1-5 1-9 6-12 5-1 8-2 12-1 5 2 10 5 14 13 4 5 8 10 2 14 1-2 4-3 4-5 0-1-3-5-3-8-5-7-10-13-16-14-5-1-8-2-11-1-10 2-13 2-21 0-3 4-14 10-17 16 1-5-9-11-10-16"/><path fill="#F76C31" d="M346 257c3 7 1 11 12 15 12 4 15-5 15-7-9 1-16-6-23-8"/><path fill="#3D2421" d="M350 436c0 6 6 8 2 11-8 9-11-10-7 11 5-1 8-5 15-3 3 3 5 0 5 2 7 3 12 5 17 6-5-2-11-6-14-7-4-2-7-9 0-7-5-4-13-9-17-9"/><path fill="#E53836" d="M320 145c2 5 6 11 12 15 7 1 15-9 19-3-7-7-19-8-28-11"/><path fill="#2F080B" d="M341 225c-4 9-12 13-20 21 6-3 10-11 17-11s9 3 14 4c5-12 9-18-11-14"/><path fill="#515454" d="M354 320h-1c-1 4-2 8-1 14 18-6 22-15 4-16"/><path fill="#656A64" d="M356 299c5 3-1 12-2 18 6-1 14 3 14 6 2-5-8-14-1-20-3-4-6-4-8-5"/><path fill="#9B1C13" d="M327 250c-13 1-22 8-35 6-4 1-6 3-8 4v4c-1 1 8 5 1 8 8 10 9-10 17-6-7-2-12 3-16-4 0-3 2-5 4-5 20-11 102 6 35-9"/><path fill="#F9EC75" d="M424 251c-5 3-8 7-7 13-2 17 0 31 3 45-1-25 1-32 1-57"/><path fill="#A12118" d="M394 246c-29 2-21 5 2 6 5 3 4 8 6 11 0-2 2-4 2-6 1-5-1-7-2-9-4-1-7-1-8-3"/><path fill="#EA351D" d="M385 292c-4 0-7 7-16 15l2-4-2 1c3 7 2 6 5 8 1-3 6 2 7-3 3-6 4-12 7-18"/><path fill="#F25028" d="M383 263c-13 3-5 0-13 10-9 4-21-7-21-2 6 3 13 9 22 6 3-5 12-7 13-13"/><path fill="#DFCA96" d="M341 265c-14 3-17 1 1 5-1 6-2 9-2 13 4 1 7 1 10-3-1-4-4-9-5-13l-3-2h-1v1"/><path fill="#C83523" d="M223 281c3 4 4 8 7 7-3 4-6 5-7 7 6 3 9 6 13 7 4-1 7-4 9-3-4-5-8-6-13-9-3-3-7-4-8-6"/><path fill="#3F212D" d="M221 371c-27 27-61 33-66 39 20-4 50-23 66-37"/><path fill="#CB3622" d="M425 184c3 2 5 5 6 8-4 4-13 7-16 0 4 7-2 7 5 15 15-17 31-5 5-21"/><path fill="#A62618" d="M391 302c-9 14 9 6 3 27 8-7 10-13 14-17-1 3-6 4-6 6-5-2 3-9-1-12-1 3-6 4-10 4-1-2-2-4-1-6"/><path fill="#9D2222" d="M334 162c11 9-18 7-23 5 9 4 12 7 19 11 9-12 18-11 6-14"/><path fill="#D32E1B" d="M292 256c-17 12 10 6 13 11 3 3 4-10 0-4 1-4 2-5 4-5-5-2-22 5-16-1"/><path fill="#3D2927" d="M397 196c1-1 3 0 4-1 5 2 8 5 8 7-6 2-24 4-13-6"/><path fill="#E53E3B" d="M317 135c-1 3 0 7 3 7 7 0 14 4 20 5-3-10-17-7-20-11"/><path fill="#92241D" d="M171 283c13 21 44 24 58 42-12-20-43-19-56-41"/><path fill="#6E2020" d="M223 314c4 0 11 13 5 11 4 1 9 2 14 3 1-3 3-4 3-5-8-3-14-6-20-9"/><path fill="#671313" d="M285 263c-18 12-9 12-21 26 6-3 8-10 17-16 9 1-3 4 5 3-7-3 6-8-3-11"/><path fill="#251514" d="M337 445c-12 14 2-4 4 14 15-3 28 2 34 5-4-2-13-8-22-11 3 0 0 6-9 4 3-6-14-12 0-10l-4-1h-1"/><path fill="#5A3E30" d="M364 450c0 2 2 3 1 6 6-2 14 8 22 8-10-4-6-13-21-15"/><path fill="#6D120F" d="M334 248c-37 4 10-2 19 6 0-2-1-6-2-7-7-2-14 0-17 0"/><path fill="#310708" d="M413 240c-13 0-24 3-4 0-2 9 0 15 0 22 3-5 4-11 10-13 1 1-7 2-7-8"/><path fill="#4B2D25" d="M393 207c2 13 8-7 14 5-5 6-17 6-16-2"/><path fill="#DEC282" d="M413 313c-6 13-9 28-18 40 16-13 15-37 22-37"/><path fill="#751612" d="M298 267c-2 2-2 5-6 6-1 11 11-3 10 5 1-3 3-5 5-7-3-2-4-6-8-4"/><path fill="#88CFD8" d="M339 225c-12 12-26 24-43 27 6-2 11-2 18-1 2-7 19-12 23-24"/><path fill="#E94622" d="M323 253c-6 3-11 2-11 5-8 0-15-2-19 1 3-1 10-2 16-1-5 3-5 2 0 7 1-1 2-7 8-9 55 12 12 3 5-1"/><path fill="#D23723" d="M431 201c-4 1-4 3-3 7 4 1 12 1 12 1-1-1-2-4-3-6-2-2-4-1-5-2"/><path fill="#354359" d="M189 332c-20 2-31 1-24 5 4 0 31 0 26-6"/><path fill="#6A1D1D" d="M170 277c4 11 18 20 28 26-13-8-14-17-27-24"/><path fill="#5D605F" d="M387 342c2 5 5 18 1 23-1-7-2-13-4-19"/><path fill="#6B212B" d="M380 157c1 4-5 3 1 12 4 2 5 1 9 4-3-4-5-10-9-14"/><path fill="#737065" d="M281 277c-5 6-8 5-9 12 1 9 14-12 12-12"/><path fill="#20141D" d="M248 362c-60 50 2 0-34 36 11-16 25-17 25-28"/><path fill="#3F232A" d="M415 224c3 13-5 16 1 25 3-3 5-3 7-4-4-4-10-10-7-19"/><path fill="#CC3230" d="M349 154c-1 2-9 5-11 6-6 3-9-2-11-4 0 2 7 6 11 9 6-1 12-12 14-10"/><path fill="#766E62" d="M303 282c-4 5-1 10-2 15 7-4 7-9 3-13"/><path fill="#A02A20" d="M248 298c-5 1-7 6-12 5 3 2 6 2 9 3 3-3 11-6 4-8"/><path fill="#961F29" d="M337 139c5 9 8 11 16 13-5-5-7-13-15-11"/><path fill="#493C3D" d="M358 290c-2 4-2 9-3 13 5-2-1 0 1-5 6-1 9 1 11 5 2-7 0-5-7-11"/><path fill="#641312" d="M288 280c-4 3-7 6-9 10 8 3 9-3 9-9"/><path fill="#F8E049" d="M319 258c-3 2-6 4-7 8 3-8 26-3 7-9"/><path fill="#F2EFC5" d="M441 205c8 9 21 16 25 28-4-12-11-21-22-27"/><path fill="#C73929" d="M367 183c3 9 20 1 22 6-5-5-13-5-19-5"/><path fill="#CB2913" d="M329 254c1 2 5 5 2 6 6-6 12 2 17-5-5 0-11 1-16-1"/><path fill="#E8E28A" d="M300 419c6 12 17 31 28 34-13-7-20-24-27-33"/><path fill="#701612" d="M391 244c-21 4 22-4 13 10 3-7 2-8 1-10-5-1-9-1-13-1"/><path fill="#9A1A12" d="M389 289c-1 4-3 9-1 12 3 0 5-4 4-12"/><path fill="#481312" d="M310 286c1 12-12 12-11 14 8 2 14-11 12-12"/><path fill="#CC3521" d="M210 310c2 7 1 10 16 12-6-5-11-7-16-10"/><path fill="#5F463C" d="M353 283c-3 2-6 5-10 5-2 2 0 3 0 4 4-2 9-5 9-7"/><path fill="#491914" d="M407 344c-6 4-7 9-10 15 7-1 7-12 10-15"/><path fill="#F0D67A" d="M421 159c-4 7 13 14 11 23 0-9-2-10-10-22"/><path fill="#F8F0B1" d="M414 317c-2 10-2 20-11 27 5-2 6-6 8-10 2-5 6-10 3-15"/><path fill="#300404" d="M384 244c-10 2-20 3-29 4 11 3 22-4 32-4"/><path fill="#63151E" d="M344 166c-2 1-7 9-15 13-1 1 23-10 17-10"/><path fill="#251519" d="M352 319c-3 7-7 14-12 21 3-6 10-9 9-5 2-6 0-11 3-14"/><path fill="#F57C43" d="M393 187c2 0 14 2 18 7-4-6-8-8-15-7"/><path fill="#C387A4" d="M385 215c4 6 11 9 18 10-6-3-10-4-15-10"/></svg>