<svg xmlns="http://www.w3.org/2000/svg" width="600" height="600"><path fill="#5B756D" d="M466 122c2-2 5 0 7-1 18 25 56 29 52 66-2 9-4 15-11 20 0 8 4 14 4 21-8 7-6 10-9 19-32 24-69 29-100 48 4 43 32 75 32 120 17 8 35 6 49 12 14-1 24 1 37 0 6 3 11 8 13 12-15 4-27-2-41 1 2 5 11 11 6 16-15-4-25-12-41-9-24-2-35 6-52 4-9-8 2-11-11-13 5-10 20-5 17-17-13-8-17-15-26-29-11-15-8-34-15-49-4 3-6 4-9 5 7 8 11 18 11 27-19 19-5 0-19 20-8 3-15 4-21 6 9 8 20 4 29 1 8 0 10 9 12 9-2 8-9 6-16 7 2 3 2 9 0 10-19 2-34-7-48 4-7-4-5-11-7-14-15-3-26 5-38-1-5-4 0-7 2-9 9-6 22 1 23-11 2-3 3-5 4-7-3-3-7-3-9-5-16-1-30 6-44 5-2 15-4 27 4 38 4 4 6 9 11 9 14 8 34 0 45 12 5 1 7 6 9 8 2 5-2 5-3 6-17 1-34 2-48 1 0 3 0 6-3 8-4 3-7 3-9 4-15-6-21-18-36-18-19-4-35 3-52-1-5-3-2-6-1-8 17-12 40-7 53-23-2-15-10-25-15-36-7-2-12-3-17-4-16 9-24 30-44 31 4 3 9 2 13 4 7 7 19 11 17 20-12 7-22 0-32 0-10 3-15 11-24 10-13 2-6-12-13-14-15-7-29 4-40-3 2-6 7-11 10-14 9 0 15 5 21-2 7-4 4-10 7-14-13-8-26-14-35-23-6-3-7-6-6-11 3-5 6-7 11-6 7 4 2 13 9 16 4 5 8 6 14 5 3-11 8-21 14-29 0-14-2-26-7-36-7-6-20-6-21-17 3-4 4-6 7-7 7-2 12-2 16 1 7 14 10 28 19 38 2-17 8-33 11-50 4-15-11-25-2-37 4-2 9-2 11 0 6 3 6 6 7 9-4 18-11 33-6 53 6-25 28-47 29-68 6-6 12-6 15-3 19-15 32-29 41-46 17-15 37-17 50-29 23-4 46-11 66-11 4-6 8-11 13-15 8-5 13-9 20-11 11-3 18 0 26 1 14 2 19 16 29 18 9-6 13-14 21-17 5-2 8-6 12-6"/><path fill="#223758" d="m404 295-3 3c-4-6-7 31-23 42 10 19 8 45 25 62 3 5 6 8 8 10-2-5 9-7 4-12 6 0 7 3 8 5-1 6-2 11-6 12 3 1 6 3 9 5-3 4-6 13-15 15 5 1 9 0 12 7 3-2 6-4 9-5 18-1 32 2 46 5-6-2-8-8-15-8 2-3 4-5 6-5 22 3 23 8 50 5-1 4-6-2-8-5 9-5 4 8 8-2-30 2-69-7-73-8-17-18-19-71-35-83 0-15-6-27-7-42"/><path fill="#A87945" d="M385 145c-10 2-19 5-26 13-6 5-9 10-9 16-1 11 0 20 4 26 5 9 13 14 21 16 10 1 18 1 24-3 8-6 13-13 15-20 1-12 1-19-3-29-5-12-15-17-25-19"/><path fill="#69685D" d="M506 244c-19-5-41 17-63 15-30 2-58 5-85 2 10 2 1 13 20 15-7 4-8 9-11 13 1 6 0 11 0 14 6 4 11 1 16 2 30-18 60-29 89-40 14-7 21-6 32-22"/><path fill="#EBF3E0" d="M299 257c1 5 19 21 9 34-4 15-19 19-24 30 10 8 19 20 30 21 17-8 32-19 43-32-9-14-26-21-34-33 0-8-7-13-10-19-5-3-8 1-9-2"/><path fill="#BB9352" d="M372 149c9-2 17 1 23 6 6 2 11 8 12 12-1 8 2 15 2 26-8 11-12 14-23 18-11 1-17-4-23-8-6-7-10-11-10-17-1-10-1-18 3-24 5-6 9-10 15-12"/><path fill="#5D863B" d="M339 156c-19 4-38 7-57 10 2 3-6 7-1 11-7 8-14 9-20 14-9 1-18 3-25 7-7 18-25 24-37 35 6 0 12 3 13 10-11 7-15 15-21 24 9-3 14 6 19-6 4-23 30-27 36-48 12 1 17-7 24-11 8-5 16 0 21-2 6-4 3-9-1-10 5-8 12-7 17-7 0-4-1-5-3-4 5-6 15-12 12-17 9-3 21-2 26-6"/><path fill="#BE9855" d="M372 147c-4 6-8 5-14 14-5 7-5 15-4 23 0 8 4 12 6 17 9 5 15 10 24 9 11-2 18-9 22-16 2-12-1-19-1-24 0-7-4-12-8-13-7-9-22-7-28-7"/><path fill="#4A8B82" d="M218 293c-8 5-12 14-18 20-11 16-4 41-7 46 4 11 8 25 15 31 10 1 7-6 9-10 5-1 8-3 9 0 1-15 5-30-3-42 2-5 8-4 6-10-3-9-10-15-22-11 4-3 7-3 11-5-10-2 5-8 0-17"/><path fill="#365049" d="M431 154c0 3 6 6 1 9 10-1 10 4 21 6-12 3-13 18-16 26-7-3-14 9-29 20-7 4-10 6-16 5-12 0-20-1-28-5 2 1 9 7 4 7-23-13-19-9-1 2 9 2 19 2 30 1 16-5 34-12 56-14 8-2 7-15 16-13 8 8 13 13 20 22 3 10-4 12-6 17-3 4-6 5-9 5 13 1 23-6 34-11-1-8-1-2-3-5-1 4-5 6-9 6-4-7-14-31-20-41 0-7 3 1 5 2-1 0-1-6-1-6 4 2 7 4 8 7-2-3-4-5-6-7-22-10-29-27-51-29"/><path fill="#C0A860" d="M373 150c4 1 7-1 12 0 1 9 14 8 13 17-2 6 1 10 2 15-6 6-4 18-14 20-9-7-20-5-28-7-4-13-4-22-2-30 5-7 10-13 15-15"/><path fill="#1D2C4D" d="M338 367c-16 8-27 8-50 16 0 1 9-1 12 2 5 4 5 8 3 11-15 10-23 18-34 19 60 3-32 2 42-4 4 8 7 2 13 10 9 0 18 4 28 4-5-7-17-9-26-13 0-3 3-2 4-3-5-3-3-8-8-10 7-1 14-1 21-3 4-1 6-2 7-3 31-20 10-10-7 2-3-6-6-15-1-28"/><path fill="#BEAA62" d="M375 151c-9 1-16 9-19 16-2 9 0 18 3 25 8 4 18 3 25 11 12-5 9-15 14-21 0-5-3-9 0-13-1-10-12-9-13-17-3-3-6-1-8-1"/><path fill="#468B83" d="M347 153c-1 14-9 16-7 30-4-1-2-6-8-3-4 7-12 9-17 14 5-2 10 0 14-4 6 7-1 10-2 14-7 4-13 4-16 10-7-5 0-5 0-8 3-6 7-6 10-8-7-1-23 15-41 15 2 5 4 1 6 3l-1 2-1 1v2l-1-1 1-1h2v-3c7-4 13-7 18-10-4 8-15 8-19 27 2 2 5-7 7-1 3 7 1 11 0 15-6 2-13 6-23 5 0-3 4-5 2-8-8 3-11 9-13 15 3 0 3-4 6-5l1-2h1l2 1h1c7-3 22 5 15 5 12 0 21-8 21-2 0-12-4-22 3-31 10-9 21-10 30-17 0-8 4-10 1-16 4 4 4 9 7 13-6-16 5-20 0-52"/><path fill="#151E37" d="M461 271c-19 7-37 15-56 23l-2 1h-1v3c-12 8-9 23-17 33-8 8-16 15-25 21-24 11-46 24-71 28-6 1-10 3-13 4 7-2 12-3 18 1-3-2-6-2-8-3 36-13 28-3 52-16 7 8-3 20 5 23 0 3-3 8-6 4 2 4 5-1 5 1-4 5-12 5-20 4 7 5 2 6 10 10-2 3-4 2-5 3 6 4 15 4 20 9 2-3 5-3 6-4-2 0-6 2-9 0 8-1 14-1 20-1-4-1-8-3-5-6 4-2 11-4 12-3-9 0-15 2-22 2-5-2-11-1-13-7 11-3 12-6 18-7 2-4 6 0 6-4 4-3 11-6 16-15 2-5 2-7-1-9 1 2 4 4 2 7-6 6-11 11-16 15-6 5-10 7-15 8 3-11 20-10 25-24 3-7-1-14-5-18 6-3 7 7 9 8-4-6-4-13-10-12 4-4 8-6 12-9 8 16 6 32 15 46 6 19 20 27 33 37-7-8-23-15-27-28-13-17-12-38-19-55 1-4 3-6 5-9 8-13 8-27 20-36 19-10 38-17 56-26"/><path fill="#68BA9B" d="M283 258c-5 1-10 2-15 4-2 0 6 0 7 4s0 7-1 10c-9 9-20 8-27 16-5-3 3-6 3-10-6-2-3 8-9 9-4-5 4-7-3-7 6-4 7-4 8-8 1-5-2-7-5-3-9 5-17 12-22 20 6 10-10 18 0 17-4 5-8 5-10 5 5 1 9-1 13-3 1-7 3-14 8-17 3-2 4-2 6-1-1 4-6 11-4 12 13 0 20-8 29-16 7 10 22-11 31-2 2-9 15-18 4-30-2 3-9 2-11 0"/><path fill="#9BB4A1" d="M308 254c10 7 22 17 34 22 9 8 7 22 18 29-4 5 3 4 4 6-2 14-19 14-26 23-17 6-30 15-45 19 19 2 33-15 50-16-3 5 9 10 10 15 10-2 19-11 27-18 6-8 7-12 10-20-2 1-1 3-2 4-7-10-20-3-26-13-7-11-11-23-10-30-16-4-29-9-40-20"/><path fill="#346565" d="M415 136c8 5 4 9 4 15 3-1 0-4 2-5 5 4 8 7 10 9 2-1-3-2-2-4 6 1 11 1 16 3 24 8 57 54 55 40 1-2-6-6-13-16 5 3 3-10 8-13 1-12-2-20-6-28-6 6-11 10-21 13-13 2-27-6-40-1-7-5-6-8-10-11"/><path fill="#67C5A5" d="M437 218c-11 2-20 8-30 9 3 2-10 6-7 15 18 2 38-2 57 0 16-15 4-26-19-24"/><path fill="#C9DABB" d="M293 310c-14 6-21 25-32 34-1 7 1 12 1 18 12-3 76-26 51-20-12-3-16-11-24-13-3-3-6-6-5-10 3-4 5-6 8-7"/><path fill="#C2E4C2" d="M342 208c-8 9-21 8-31 15-13 16 4 28 14 33-6-6 10-1 13-2-7-4-16-2-24-5 2-10 3-5-2-9 3-5 6-5 8-7 21-1 37 14 58 10 3-4-8-1-4-7 5 1 5 2 7 5 10-5 8-6 17-11-9-1-19-1-28-4-7-3-12-4-15-9 3 5 8 7 12 9 6 2 9 2 13 3-16 7-22 0-33 3-11-12 7-15-5-23"/><path fill="#F3F5E0" d="M328 235c-35 17 21 18 31 23 23 1 41-1 59-3-9 0 9-7 18-7-21 0-42 1-64 0-16-1-29-8-42-11"/><path fill="#404558" d="M282 314c-16-3-28 4-39 11 3 20 5 40 3 62 16 0 30-5 43-9-11 4-19-3-28 2-3-6-5-10-4-16 2-10-4-24 4-34 8-8 14-14 22-18"/><path fill="#3A6567" d="M307 288c-4 2-4 10-7 11-14-5-28 3-42-1-13 9-27 12-31 12-3 10-4 1-9 6 10 1 7 10 13 14-1 6-6 5-7 6 8 14 4 29 3 42-11-8-7 15-18 14 3 7 4 9 6 15 0-4 1-5-3-10 8 2 6-6 12-4-3 3 1 7 6 12 8-7-2-11 5-15-13-22 5-50-8-76 22-8 52-8 72-12 5-4 9-7 9-12"/><path fill="#548B7E" d="M145 336c-9 0-13 9-20 13 0 14-14 22-5 42 4 3 3-6 9-6 7-13 4-25 13-33 5 9 9 8 13 18-2 17-17 8-15 17 4-3 8-7 15-3 3-10 4-19 3-26-3-10-6-17-11-21"/><path fill="#253844" d="M188 289c-7 4-18 6-25 5-1 7-5 13-7 17-13 11-28 19-32 29 10-8 20-7 30-13 4-5 10-5 4-11 14 4 13 22 23 26 1-7-10-5-6-15 4-5 5-1 7 1 6-5 8-9 10-14-2 2-10 3-9 8-5-4-14-7-10-15 20-1 5-16 15-16"/><path fill="#8B8F78" d="M307 243c-2 5 2 7 1 11 13 9 27 16 43 18 0 10 6 21 8 32 9 8 16 5 26 9 3-5-3-6 3-9-7 2-15 4-22 1 0-5 1-10 0-13 3-6 4-13 11-13-21-4-9-15-20-16 15-1 30-2 44-1-25 2-49-4-71-3-7-2-12-1-17-4-3-4-2-8-6-9"/><path fill="#4A5F42" d="M196 236c-5-1-9 7-12 4-1 7-9 12-15 14 7-1-4 5 6-1-8 16-20 23-21 35 2 1 0-7 4-9 4-4 7-1 6 2-6 8-9 19-16 15 14-2 17-21 29-28 10 1 16 3 26 1 3-4 8-6 11-10-3 4-6 6-9 10-5-3-10-1-14 0 6-9 7-20 19-22 3-10-5-13-13-11"/><path fill="#819089" d="M345 336c-28 15-54 19-63 26-11-1-15 9-22 2 0-3 0-5-1-8 1 3 1 5 0 6 0 6 5 5 6 7 19-6 25-2 43-11 10-3 14 6 20 6 24-5 28-13 13-27"/><path fill="#887C5F" d="M381 158c13-3 13 13 15 20-4 8-4 18-12 23-8-9-12-19-12-31 2-6 4-9 8-11"/><path fill="#3D696A" d="M164 320c2 4-6 5-2 10-7 0-11 1-14 2-9 2-14 8-19 12 4-3 7-6 11-7 8-2 10 2 13 6 9 11 7 33 1 43 8-17 10-35 11-49 4 2 8 9 11 14 5 4 8 4 11 2 2-5 1-10 1-14l-1-1h-1v1l-3-3-1-1-1-3c-1-2 1-4 3-3-2-1-6 1-7-3-3 10 3 9 7 10 0 4-2 7-4 6-8-7-11-14-14-21"/><path fill="#293F41" d="M427 155c0 4 3 7 2 12-8 1-11-12-14-4 5 26 7-12 15 21-6 9-10-5-11 4 0 5-1 10-4 15-8 9-15 13-23 17 19 0 34-29 42-26 8-24 29-25-4-33 3 0 5 1 4 3-3-3-4-5-5-8"/><path fill="#202F39" d="M177 267c-6 9-16 17-17 26-4 3-8 6-11 4-1-2 0-4 1-6 0 3-2 4-3 6 4-2 9 7 2 12-1 2-3 2-5 3-1-4 1-6 2-8-2 2-4 6-4 9-1-6-1-16-3-22 0 10 1 21 1 29-1 7-7 6-8 10 2-3 10-6 8-7v-2l1-1c4 0 0 3 2 5 4 0 7 3 11 1 3-3 4-4 3-7-4-1-7 0-9 1 8-6 11-14 12-23 7-3 27-6 36-13l3-1-2 1c-7 4-15 5-24 4 1-14 31-15 4-21"/><path fill="#54B5A5" d="M291 213c-12 19-34 27-53 48 7-8 10 3 16-1 3-8 14-12 10-19 4-5 7-2 9-5-1 4-3 7-1 12 17-9-5 12 20-2 0-3 2-7-1-12-1-3-8 2-5-5 2-9 5-9 9-15"/><path fill="#478785" d="M221 256h-2c1 11-12 7-13 16-1 7 2-3 7-3 2 4-2 5 0 9-4 0-10 12-16 13 10-4 10 5 16-2 8-12 53-29 24-29-3 3-6 5-9 4-7-1-5-6-5-8"/><path fill="#263B4B" d="M241 314c-6 2-18-2-9 8 2 3 5 2 4 5-1 10 6 25-2 27 3 10 2 10 8 10-4 12-6 17-3 28-5 7-4 17-13 18 10 10 15 25 27 26-10-6-7-12-13-17 0-19 2-35 2-51-1-8-3-24 1-18-2-10-2-16-5-22-1-3-3-4-4-5 8 0 14-4 20-8-4 0-8 0-11-2"/><path fill="#294045" d="M468 184c16 8 22 39 31 46 5 0 4-8 9-4 2 10-12 10-17 14 6 1 11-1 16-4 2-3 4-5 6-6-3-9-1-15-6-21-3-3-4-8-6-9 1 6 4 13 3 19-6-8-8-16-14-23-14-15-2 7-21-14"/><path fill="#CAD3B6" d="M310 254c14 21 25 38 50 53-11 12-22 23-34 29 12-2 21-11 32-15 1-4 3-7 5-9l-2-2h-1v1l1-3c-8-6-13-22-18-30-13-7-23-15-34-22"/><path fill="#616A76" d="M309 358c-18 9-29 8-38 11-6 0-10 0-12-3 2 6 12 6 16 11 17-1 58-7 43-17-5-1-6-1-7-2"/><path fill="#52917D" d="M305 266c-14 12 1 13-11 23-11-9-23 11-31 3-15 6-8 5-17 12 6 0 9-9 17-6 12 3 25-6 35 1 8-12 17-12 6-32"/><path fill="#96D9B3" d="M265 262c-4 1-7 2-11 3-12 4-4 16-15 21 9 5 1 0 12-7-1 6-4 9-7 12 10-7 19-7 27-12 11-9 1-18-8-16"/><path fill="#2C514E" d="M327 180c-17 12-13 18-28 22-7-3-15 1-23-2-12 3-16 16-28 13 13 4 11-4 23-7 5-1 9 0 10 4-5 7-12 8-20 7-5 8-5 15-17 18-6-4-5-3-7-7-5 9-15 12-17 16 7-8 12-3 17-3 4 2 6 5 3 7 4-3-2-8 4-10 11-13 26-14 36-25 10-4 18-7 28-10 7-10 9-17 20-19"/><path fill="#704039" d="M500 151c0 12 11 20 10 31 2 5-6 14 0 23 3-11 8-21 13-25-2-8-4-12-6-17-6-2-9-11-16-11"/><path fill="#283747" d="M167 339c3 15-3 30-8 44-9 3-11 14-22 11-7 3-5-6-9-6-5 4-4 9-2 13 14 8 4-7 26-6 4-4 5-7 7-10 6-9 8-19 11-26 7 4 4 9 4 16-4 9-7 19-13 25 5 0 10-19 13-12-5-7 11-15 6-20-2-6-9-21-11-27"/><path fill="#D4DBBE" d="M435 246c-7 8-26 14-73 13 31 3 60-1 87-4 41-6-2-12-16-8"/><path fill="#24364B" d="M119 398c-6 7 8 0 2 9-15 0-6 1-19-2 1 1 2 2 1 5 8 9 19 7 27 13 0 10-9-1-13 0 7 7 1 6 9 20 2-3 4-7 8-9 4 0 7 1 9 4-3 1-6-3-9 0-4 4-7 6-9 10 5-5 12-10 20-8v1l-1-1 1-1c-3-6-8-10-12-15 4-1 14 7 14 0-10 3-20-11-32-12-5-5 2-5 4-4h3v-3c1-2 0-5-3-5"/><path fill="#202A3C" d="M171 359c-4 9-8 20-13 30-11 11-18 6-24 13 9 0 21 3 27-4 6-8 9-14 12-21-1-8 3-12-1-17"/><path fill="#558E78" d="M468 203c-4 1-2 3-4 4 3 3 6 7 5 13-9-3-20-8-29-3 9-1 17 2 25 5-6 8 9 11-5 20 5 0 8-1 11-2 4-6 17-9 16-19-1 2-2 4-6 6-5 2-2-3-4-3 1 1-1 8-8 3 6-4 2-9 11-13-4-2-6-8-10-12"/><path fill="#468884" d="M227 424c8 2 7 9 15 12-8 0-13 7-18 9 6-5 11 3 17 1 3-3-5-5 2-6 16 10 34 13 50 16 0-5 0-9-4-9-13-2-15-1-27-2-17-3-23-14-33-21"/><path fill="#58ADA3" d="M225 425c-4 4-10 9-10 14-12-3-15 6-25 4 16 5 71-3 36-18"/><path fill="#66AC92" d="M464 126c-5 2-10 4-14 7 6 0 1 7 9 3-2 6-7 4-9 6 8 5 12 9 21 1 2-4 3-7 4-10 2-1 5-2 5 1 0-10-8-9-15-8"/><path fill="#5FA497" d="M142 346c-7 20-5 18-12 39 0-2 1-3 3-4 3 5 10-1 13 0 5-2 5-6 7-10-2-9-10-13-11-22"/><path fill="#366268" d="M212 269c-12 9-4 22-25 21 1 11-9 18-5 27 7-1-7-1 1-9 4-4 8 4 6 5 8-17 11-5 23-23-6 3-8 3-16 3 12-17 29-22 16-21"/><path fill="#E1F4DC" d="M341 204c1 3 4 7 6 11-5 2-4 10-3 16 14-2 19 3 34 1-6-3-13-6-19-9-8-6-12-16-17-18"/><path fill="#458F89" d="M271 223c-2 1-5 0-6 3-11 11-23 14-25 31 6-14 55-36 33-31"/><path fill="#162236" d="M272 442c8 3 19 0 27 4 6 5 17 7 15 14-11 4-22 3-30 1-20-8-21-5-33-13 3 3 7 7 9 11 1 7 1 13-6 11-15-3-24-21-41-19-18-3-33 7-49 2 5-5 2-4 1-3 19 10 39-6 58 4 13 4 16 18 28 20 5 0 8-1 10-2 4-4 1-8 0-10v-2l-2-1 1-1 1-1c7 3 14 3 20 5 21 8 53-4 18-17-1-1-4-2-7-1-7-1-13-1-18-1"/><path fill="#558978" d="M477 125c5 2 3 8 5 6-2 5-3 0-6 2 0 2-3 7-3 10-13 13-17-2-21 0-3-4 4-2 6-4-5-1-8-4-8-6l-14 14c12-2 25 5 32 2 9-6 28-12 11-23"/><path fill="#223E41" d="M337 160c-10 11-5 9-8 13-9 5-8 2-15 3 0-7 5-11 9-12-7-1-8 11-16 12 3 9 1 10 3 23 5-20 29-19 30-40"/><path fill="#93CDA8" d="M380 130c-16 8 6 10 18 13 10 3 14 0 13-3l2-2-4 3c1-15-2 3-18-11 0 0-2 0-5-1"/><path fill="#2F4C5A" d="M221 394c-13 6-2 13 0 28 0-8 6 2 8-3 3 5 8 4 9 8-5-4-7-10-13-14 4-5 8-7 9-12-1 2-2 5-5 4-4-4-7-8-4-11h-2"/><path fill="#3C6666" d="M88 298c-4 1-7 5-5 9 11 4 19 6 25 15-1-7-2-12-4-17-4-3-9-3-15-6"/><path fill="#3C6565" d="M141 250c-16 2 2 2-9 6 1 7 3 12 5 18 5 3 5-1 7-4 0-9 1-17-2-20"/><path fill="#90998E" d="M138 284c-2 4-3 8-6 11-4 16 0 23 4 29 5-8 2-26 1-37"/><path fill="#366564" d="M266 224c-10 2-14 13-24 15 2 10-6 16-10 22-3 2-5 1-6 2-3-4-1-7-2-8 2-7 6-10 8-15-2 0-5 0-8 3-4 10-9 20-19 26 6-6 13-6 15-16 5 2 3 5 4 7 2 3 4 4 7 3 7-7 11-15 15-23 9-3 16-11 19-17"/><path fill="#2E4B54" d="M103 412c-5 9-24 16 9 4 0 7-3 9-4 11 4 3 8 1 11 2 0 4 5 8 4 12-4-7 0-13-6-16 6-2 9 2 12 3-5-11-18-7-24-16"/><path fill="#48877E" d="M429 151c10 12 31 10 41 25 13 10 24 19 30 31-3-14-18-24-29-33-17-10-25-19-39-23"/><path fill="#354F48" d="M393 143c19 10 20 20 35 23-5-16 6-7-5-19-1 4-5 6-5 9-8-5-15-10-23-11"/><path fill="#180503" d="M388 177c-3 0-7 3-10 1-1 8 2 14 4 20 4-6 10-13 8-21"/><path fill="#2E4C58" d="M230 317c6 29-3 56 7 66 4-26-6-21 0-56-3-2-7-5-7-8"/><path fill="#325155" d="M294 305c-25 1-46 5-68 10 22 1 41-7 63-6-2 2 15-10 5-5"/><path fill="#59B39D" d="M329 191c-5 4-11 1-15 5-1 2 6 0 8 0-7 3-14 12-13 16 5-6 11-5 16-8 4-5 9-8 5-13"/><path fill="#405567" d="M119 388c-7 14-10 11 4 12 3 7-3 11-6 8 6 4 14 6 23 5 0-3-3-4-9-4 3-3 5-4 9-4-4-1-10 1-13-2-4-8-4-11-10-12"/><path fill="#90D6B5" d="M404 228c-4 1-10 0-14 1 3 0 6-1 10 0-5 5-10 2-8 9-9 3-13 2-18-2 4 12 18 8 27 7-6 2-1-6 0-8 0-5 12-8 4-7"/><path fill="#446C5C" d="M467 199c-8 0-5 11-13 11 6 2 9 3 12 3 1-2-3-3-4-6 1-1 7-9 11-3 3 9 12 11 15 17-2 11-11 14-13 17 1 3 3 1 5 1 2-7 11-8 8-16l1-1-1-3c-8-7-12-14-19-21"/><path fill="#356263" d="M242 439c6 15-19 2-28 10 6-7 22 10 25 10 1-9 9-14 7-17"/><path fill="#414860" d="M181 366c1 7 0 13-4 18 2-3 5-3 7-5-3 5 9 3 13 5 1 0-3-8-3-12-5-3-10-2-12-3"/><path fill="#314562" d="M405 391c4 5-5 3-2 8 5 3 4 9 9 9-2 4 3 7 5 8 5-5 7-10 3-13-6-5-1 5-7 5 2-8-7-11-5-17"/><path fill="#1A2234" d="M180 374c-9 13-14 32-32 39-12 5-24 1-33-3 11 3 18 11 28 13 6-1 10-2 13 1-6-3-12-3-18-6 4-2 6-3 9-4 11-9 57-48 26-25 3-6 5-10 7-13"/><path fill="#1E2B3A" d="M112 372c-1 5-7 5-8 5-1 11 5-2 10 4 4 14-15 13-9 15 2 10 9 11 14 10 3-6-7 1-9-7-2-5 3-3 4-5 2-8 3-16-3-19"/><path fill="#527038" d="M128 341c-6 1-8 5-12 10-6 8-13 14-11 23 11-5 7-27 25-33"/><path fill="#A3E8C0" d="M270 266c8-4 5 7 3 9-4 6-9 5-12 7-1-7 5-11 7-16"/><path fill="#1B3355" d="M441 439c-45 20 15 2 28 7-8-3-20-3-29-4"/><path fill="#788676" d="M198 238c11-6 13 4 3 8-4 2-8 2-11 1-1-5 2-8 4-9"/><path fill="#396A69" d="M107 419c-8 3-16 6-24 5h-4c-1 2-2 4-4 5 4 2 9 1 13 2-4 0-7-1-7-6 10-2 19 1 21 6 6-3 12-11 7-12"/><path fill="#31312D" d="M412 161c4 7 1 9 4 11 1 9-1 17-1 22 3-6 1-13 2-19 3 1 2 6 2 11 3-4 8 4 10-10-3-12-12-3-15-13"/><path fill="#356877" d="M470 431c-4 2-10 4-2 5 5 6 13 7 18 11 10-6-6 1 8-9-7-7-13 4-25-1 4-3 3-5 9-6-2 0-4 0-7-1"/><path fill="#24303D" d="M149 319c8-6 14 5 4 8-5 0-7 0-11 1-2-7 3-8 6-9"/><path fill="#16213B" d="M306 413c-43 6-26 2 4 2 6 3-2 11 4 14l2 1h2c3-1 5-4 8-6 14 1 22 4 34 5l1-1 2 1 1-1v-3c1-2-1-6-2-7 2 4 4 7 0 10-14-3-25-4-36-7-3 4-6 7-9 8-12-2 4-14-8-15-3 1-4-3-5-1"/><path fill="#9DB7AB" d="M292 446c2 4 2 2 7 4-2 4-2 7-1 9 6 2 10 1 14 0-6-7-13-14-18-11"/><path fill="#63A693" d="M203 328c2-1 7-1 9 0 0 7 9 9 4 15-3 0-5-2-7 1 2-10-3-10-7-13"/><path fill="#263949" d="M494 146c6 12-1 31 4 40 0 2 1 3 3 2 2-15-2-28-6-40"/><path fill="#73B498" d="M381 129h-4v1h-3c-10 5-21 11-26 22 11-8 17-19 31-21 26 6 40 1 1-4"/><path fill="#304361" d="M406 389c4 8 5 7 7 18-7 0-7-5-11-8 0-5 5-4 3-5"/><path fill="#9DAB8F" d="M196 274c-5 4-12 1-17 8 1 4 25-1 20-9"/><path fill="#3F4A60" d="M159 402c-13 4-18 0-26 6 3-3 4 6 9 5 14-2 2-8 22-10"/><path fill="#A5B4A2" d="M76 384c-5 5 14 11 19 14 1-4-2-6-2-9-6 0-10-2-14-5"/><path fill="#A7B3A3" d="M106 324c4 6 6 16 7 23 2-3 4-5 7-7-5-6-7-14-11-17"/><path fill="#9EBDAD" d="M150 429c-4 2 2 7 4 10 5 3 8 4 10 3-4-5-6-9-12-13"/><path fill="#ABEBC3" d="M271 266c-5 3-9 10-13 15 3-1 7-2 10-3 4-3 7-9 6-12"/><path fill="#3B6567" d="M65 365c-1 3-6 5-3 7 6 4 4 11 10 12 5 0 3-2 4-3-5-1-13-10-8-15"/><path fill="#272028" d="M492 139c1 2 2 5 4 7 8 16 5 35 8 50-2-21 2-32-7-47 9-2 15 5 19 10 6 9 7 18 8 26 2-4 0-9-1-13-3-16-19-24-30-30"/><path fill="#38646B" d="M224 418c-12 22-17 19 5 4 11 1 8 14 17 14 8 4 15 8 23 9-9-4-11-6-21-8-7-6-11-12-17-15-3-1-5 1-7-2"/><path fill="#AAB59A" d="M281 318c-6 10-23 11-22 25 7-6 15-16 21-23"/><path fill="#AADFBB" d="M373 133c-25 20-3 6 20 8-14-4-24 1-16-8"/><path fill="#131D34" d="M436 437c-31 19-20 14 2 2 14 2 30 4 42 8-14-4-28-8-45-7"/><path fill="#1B0304" d="M503 167c3 8 0 19 2 28 5-8 4-19 0-26"/><path fill="#D4EFEB" d="M262 187c-6 4-13-1-21 1-9 6-18 10-18 21 3-7 7-12 14-16 9-3 18-1 25-6"/><path fill="#484F67" d="M259 356c-3 5-2 13 0 22 11-3 14 1 25 1-10 1-15-7-23-8-4-5-2-10-3-13"/><path fill="#2A4D57" d="M183 302c-2 3-5 4-9 3-4 10 5 12 7 16 1-4 6-4 7-6-2 1-4 4-6 4-4-6 0-10 0-14"/><path fill="#243F40" d="M258 214c-3 2-9-1-11 2-6 7-8 14-14 20 5-5 7-11 12-14 6-4 11-4 13 0-1-2 4-5 1-8"/><path fill="#65A994" d="M204 329c-2 3 7 7 8 7-2 5-2 5-5 8 0 1 0 5 1 5-4-11 8-4 9-9-7-4-3-13-11-11"/><path fill="#192231" d="M280 311c-5 1-11 0-15 1-12 3-19 13-31 10 5 3 5 8 7 12 4 19 5 36 3 53 2-16 1-33-2-50 0-6-2-8-3-10 9-5 16-11 23-14 8 1 36-3 19-2"/><path fill="#2F5750" d="M309 178c2 11-14 2-14 12-1 3 1 3 1 5 3-4 7-4 11-7-8-3 9-6 1-8"/><path fill="#60B599" d="M343 185c5 11 3 21 11 29 1-11-9-17-10-27"/><path fill="#346B6D" d="M280 213c-2 1-4 7-11 9 3-1 6 2 6 5 6-3 7-6 9-9-2 1-9-1-3-5"/><path fill="#598F7B" d="M415 137c-1 3-1 11-7 12 2 0 3 3 4 3 7-1 4-6 7-8 1-3-2-4-2-6"/><path fill="#3F5641" d="M99 382c-5 5-3 6-2 13 2 4 2 4 1 1 4-4 6 6 5 4 4 7 5 6 11 8-4 0-6-3-8-6-7-7 1-15-6-20"/><path fill="#517760" d="M449 212c-13 3 16 1 17 9 1-5 0-6-2-7-5-1-8-3-13-2"/><path fill="#417A7D" d="M192 321c-3 2-5 8-9 9-2 4 0 5 2 6 6 0 4-9 6-13"/><path fill="#375336" d="M343 156c-5 6-18 4-25 7-1 5-7 11-13 13 13-16 27-6 36-19"/><path fill="#3C5445" d="M135 335c-4 1-6 4-9 6 3 3-17 17-13 30 6-3 1-13 6-19 6-6 21-17 19-17"/><path fill="#68675B" d="M520 430c-2 12 9 7 13 5-3-3-6-5-11-4"/><path fill="#1B2535" d="M62 431c11 10 31-3 45 5-10-7-29-1-42-4"/><path fill="#324953" d="M147 384c-3 5-7 5-10 10 7 2 24-11 13-9"/><path fill="#657164" d="M184 237c-6 12-14 1-15 15 6-2 14-6 14-13"/><path fill="#376265" d="M137 427c5 5 8 11 15 14-5-7-4-15-13-14"/><path fill="#A1BCAD" d="M251 453c2 6 0 13 4 17 6-3 0-13-1-17"/><path fill="#CADDC6" d="M235 243c-4 3-8 6-8 11 5-1 13-9 10-12"/><path fill="#9BB0A2" d="M259 347c1 6 1 13 3 18 10-3 18 0 27-7-8 0-17 3-24 8-6-5-4-12-6-17"/><path fill="#2B5156" d="M496 164c0 6-6 7-4 13-2 5-3-1-4 1 2 2 3 4 6 6 2 4 5 7 6 6-2 0-3-2-4-4 5-1-6-14 0-19"/><path fill="#3F4D6A" d="M366 408c-11 2 6 9 10 5 0-5-3-6-9-6"/><path fill="#223547" d="M246 444c14 11 18 8 38 17-11-7-24-11-33-15"/><path fill="#A9DFB8" d="M255 269c9-2 5 12-3 9-4-3 3-4 3-6"/><path fill="#496733" d="M160 277c-4 8-5 16-9 17 5-3 11-10 13-16"/><path fill="#6F9667" d="M122 350c-1 5-5 9-5 14 6-1 8-10 8-13"/><path fill="#829977" d="M266 175c-6 2-15 4-19 9 2 4 10-5 20-8"/><path fill="#DBEFD4" d="M323 219c9-2 6 9 0 9 1-3-5-5-1-7"/><path fill="#292626" d="M510 236c-23 11-52 6-78 8 25-2 53 5 76-6 2 3 1 4 0 5 3-2 0-7 3-8"/><path fill="#B8D3C5" d="M248 449c1 6-2 16 3 21-4-10 4-20-1-20"/><path fill="#182336" d="M135 434c-5 4-9 8-12 13-7 4-14 2-16-2 4 5 9 6 13 4 7-4 9-11 14-13 17 6 15 5 1-3"/><path fill="#476434" d="M230 216c6 2-1 11-5 10-2-4 2-5 3-9"/><path fill="#3E4A40" d="M283 164c-4 1-8 2-12 4-17 7 9 6-20 18 15 1 8-5 20-11 3 3-5 7-1 6 8-5-1-7 0-10 6-6 14-6 14-7"/><path fill="#1B2434" d="M494 428c9 1 20 0 31 1 6 1 8 5 12 7-14 5-24 0-40 2h-1l-1-2-1 1c5 4 10 10 11 16 0-5-5-11-9-14 15-2 28 3 42 1l1-1v-1l-3-1c-2-4-4-6-8-8h-1l-3-1c-9 1-19 1-28 1"/><path fill="#3C6A6D" d="M264 254c-9 9 13-1 21 3-6-2-12-5-18-3"/><path fill="#7D564D" d="M522 183c-4 1-7 12-10 20 8-16 10-6 10-19"/><path fill="#414D6C" d="M353 418c-4 6 3 10 7 8-1-4-1-9-6-7"/><path fill="#AEB69A" d="M324 253c2 9 21 2 31 6-10-2-19-5-30-5"/><path fill="#326261" d="M451 163c6 6 14 15 26 18-8-7-16-12-24-17"/><path fill="#88C39F" d="M272 282c7-2 7 9 0 8-4-2-1-4-2-6"/><path fill="#253B59" d="M200 452c-4 1 26 1 31 9-5-8-16-9-26-10"/><path fill="#213757" d="M260 458c0 1 3 3 3 4 8 1 17 2 26 1-9 0-18-2-26-5"/><path fill="#3D676A" d="M186 444c-21 16 14 2 23 4-7 0-20 2-26-1"/><path fill="#546E56" d="M288 162c-5 4-14 4-17 9 12 2 10-10 22-7"/><path fill="#314B55" d="M166 342c-2 13-2 29-8 42 6-13 9-26 9-40"/><path fill="#DCE4C7" d="M338 307c3-2 7 3 9-1-2 3-1 5-2 7-5 0-7-2-8-4"/><path fill="#407C75" d="M81 426c1 6 12 3 16 3-3-9-10 2-13-3"/><path fill="#7F9980" d="M254 221c-3 3-12 11-14 8 7 1 14 0 16-7"/><path fill="#8B8C78" d="M460 255c-18 3-36 5-54 6 19 2 52-4 59-7"/><path fill="#5EA48D" d="M466 209c4-2 10 1 8 7-7 5-1-3-7-4"/><path fill="#829D80" d="M279 209c-5 3-12 6-19 5 8 3 15 2 20-4"/><path fill="#162438" d="M244 403c-3 9 3 17 2 24 4 5 9 10 14 12-3-2-6-7-10-9-4-10-7-16-6-24"/><path fill="#7A8A78" d="M204 239c-3 2-14 4-13 5 5 3 11 1 14-3"/><path fill="#A2AA9C" d="M130 312c-3 9 1 13-3 19 1-3 8-3 6-9 0-5-5-1-3-8"/><path fill="#6A6D62" d="M284 313c-8 5-19 11-25 19 7-9 18-9 23-18"/><path fill="#72B392" d="M364 146c-5 3-13 9-17 12 5 2 10-7 16-10"/><path fill="#3B7481" d="M478 432c-5 0-3 3-9 4 11 5 20-2 8-4"/><path fill="#7A8F89" d="m152 428 15 12c-5-4-5-14-14-11"/><path fill="#A6B3A0" d="M108 382c-3 3-5 8-2 11-2-3 8-5 3-12"/><path fill="#8FD0AB" d="M363 138c-2 7-9 9-13 15 26-12 8-7 17-14"/><path fill="#B9D3C7" d="M113 433c-2 4-5 12 0 15 4-5 0-9-2-13"/><path fill="#9FBEAC" d="M246 447c-7 7 2 15 2 21-2-6-1-14-1-19"/><path fill="#AAC8B8" d="M154 433c3-1 8 4 7 8-4 0-5-3-6-6"/><path fill="#2F505A" d="M204 299c-2 6-7 1-11 7-5 6 4 7-2 13 5-6 1-12 12-16"/><path fill="#3B626A" d="M278 455c8-1 8 9 18 5-1-7-11-2-15-6"/><path fill="#9CB6A8" d="M76 422c-1 4-6 6-8 8 4 6 10-5 10-8"/><path fill="#305B58" d="M300 186c5-1 0 7-4 6-5-2 0-5 2-6"/><path fill="#314F55" d="M160 316c0 2 1 3 2 4-4 5-7 10-14 10 13-1 23-12 15-11"/><path fill="#517F7F" d="M224 383c4-1 2 6 0 7-4 1-5 0-5-2 2-2 2-4 4-3"/><path fill="#30251D" d="M389 166c5 15-16 2-12 12 1-2 8 1 11-3-1-4 5 2 2-7"/><path fill="#B5DAD8" d="M238 191c-15 18-13 14-22 23 13 2 9-16 20-19"/><path fill="#385558" d="M89 298c7 1 13 6 15 7-2-6-6-8-13-7"/><path fill="#4B635E" d="M426 215c-3 2-9 7-12 7 4-1 22-6 15-8"/><path fill="#7D9689" d="M243 452c-1 3-3 6-3 9 3 5 6 5 7 8-2-5-3-10-5-15"/></svg>