<svg xmlns="http://www.w3.org/2000/svg" width="600" height="600"><path fill="#3F6E8E" d="m190 110 2-2c5 1 9 4 13 7 20 10 35 28 48 42 26 32 44 67 62 98 5-26 15-47 24-69 6-2 10-2 13-3-2-3-5-5-6-9 7-15 10-31 21-42 10 43 18 86 19 130 32-36 64-69 99-105 15-6 29-12 43-15 13-2 24-3 33 2 4 5 8 6 6 12-6 15-18 27-29 38-40 31-76 60-116 86 27-14 55-25 85-32h19c9 4 17 6 21 15-13 12-15 28-27 41-9 8-18 15-26 21-20 18-49 15-68 29 7 7 9 15 10 21 2 10-5 14-7 21 8 5 18 6 25 13 4 9 8 16 9 23 0 4 2 9-2 9-8-3-13-8-17-12-6 3-10 4-13 8 1 1 2 3 1 7 21 7 17 29 41 29-12 4-24 3-35 4 0-8-9-13-11-20-20 3-18-21-30-21-1-5 5-7 0-9-9-6-17 1-26-2 3 13 18 15 25 19 0 11 0 18 1 28 8 3 15 11 25 13-14 5-27 2-41 1-7-10-4-21-5-29-3-3-5 1-7-1 1-6-3-12 2-11-7-11-25-7-24-24-8-2-18 4-21 8 6 9 11 13 19 15-2 9 3 16 5 21-1 7-8 6-13 7-6-8-4-18-17-18-2-8 4-13-1-17-6-4-8-5-15-5 3-3 3-1 6-2-3-5-2-5 2-13h-19c-3 2-2 5-3 7 4 14 20 9 20 23-10 9-13 22-21 31 0 5 0 7 1 9-4 4-9 2-12 1-7-1-11-5-12-9 4-13 12-19 19-28-4-7 0-14-4-20-7-1-12-5-15-10-1-6 0-9 2-11-14-3-18 11-30 10-7 7-6 10-9 18-7 4-14 2-19 5-7 9-4 20-9 28-7 1-10-1-15 0-3-3-7-3-8-7-5-13 13-16 6-26 15-8 24-8 38-15-2-14 9-23-3-34-4-3-10-2-15-3-9-2-9 5-13 8-8 3-15 2-22 3-9 6-5 17-14 21-19 15-38 28-61 32 4-16 15-28 26-36 12-7 24-8 35-10 3-5 6-9 7-13 10 0 15-2 23-1 2-5 4-8 6-11 12-1 20 0 28 1 2-4 3-5 4-7-40-11-81-11-116-27-22-14-40-34-53-53-7-13-14-25-23-34-1-9 6-10 8-15 11-8 22-9 32-12 18 0 32 5 46 10 23 8 44 17 63 27 29 16 60 34 79 49-33-32-76-54-113-82-13-15-27-31-36-47-3-22-46-52-9-66 14 1 25-5 35 5 27 15 51 32 76 50 25 20 45 40 63 59 1-3 1-5 1-8-14-14-30-29-43-43-11-26-31-50-44-74"/><path fill="#0C1F47" d="M140 268c-1 10 6 19 9 27-4 11-24 3-14 9-35-9-3 26 0 36 10 5 20 8 25 18 13 3 25 5 37 7 0-8-6-18 0-26 17-3 30 0 46 2-5-5-11-9-16-13-22-8-42-13-62-19 32 4 58 18 89 21 9 5 17 10 23 17 0 8-3 8 4 10-4-1 3-5 5-2 7 10 0 8 2 11-7 4-11 7-15 11-17 0-30-2-43-5-3 3-1 6-2 8 9 1 15 3 21 3-20 1-36-2-53-3 9 6 22 3 33 7 2 7 5 12 2 16 1 8 1 14 1 20 2-5 6-7 12-5 3-17-7-5-11-12 1-6 2-12 8-10 7 5 9 12 6 19 3-3 11-4 8-10 6 0 10 1 15 2 0 5-4 9-2 13 7 9 19 4 18 19 5-2 7-3 10-4-7-3-7-13-14-8-4-10-8-16-12-21 9 0 16 2 20 7 8 1 16 2 24 2 2 5 4 9 7 12-3 5-5 6-8 3v-1 1c2 4 5 0 7 2 4-9 13-9 19-15-5-3-10-7-15-11 1-4 5-3 6-5-6-6-9-13-9-21 2 0 2 2 3 4-3-3-1-10 3-10 11 4 18 9 26 13 7 0 10-3 14-5 1-10-23-17-13-24-10-5-10 12-21 0 4 0 3-4 8-3 7-2 12 1 17 3 7 7 12 12 12 19 1 9 0 16-4 21s-9 7-13 8c7 0 14-5 16-13 4-8 3-17-1-23-4-8-9-16-16-17-11-1-18 1-25 6-8 8-11 15-9 25-2-4-6 0-9-1-7-9-6-20-7-29 0 2-1 4 0 8-3-6-15-7-7-16-4 2-4 13-7 10 2-9 7-16 4-20h3l-2-1c-26-9 2-2-31-11-20-15-41-30-62-42-12-3-22 2-29 8-11-8-20-13-29-20"/><path fill="#091F45" d="M475 272c-9 4-17 9-24 14-7-4-9-10-16-11-18 7-31 21-47 33 7 2 13 7 18 12 14-6 24-10 35-15-8 7-20 11-31 16 0 6 15 7 11 17 8 2 15 1 20 2 10-3 17-4 24-8 14-27 32-45-4-36 1-12 9-16 12-23"/><path fill="#D5D7DC" d="M354 185c-6 1-10 0-13 5-7 10-9 21-15 34-4 7-4 15-6 35 3 3 3 19 10 16 3 1 4 2 6 3 3-6 7-13 14-16 6-2 11-2 15 0-6-25 4-46 4-70-4-6-9-6-13-6"/><path fill="#124682" d="M478 191c-26 26-36 35-55 53 5-16 23-37 30-51-21 22-43 47-61 67-6 7-7 8-8 16 13-5 21-20 33-29-11 14-24 26-34 39 0 3-4 4-2 5 9 0 12-5 18-4-5 5-16 12-24 20 19-15 42-21 59-37-6-20 26-19 20-37-3-2-11 0-18 3 12-14 29-27 39-43"/><path fill="#0E3955" d="M46 261c7 16-5 3 27 27 14 4 27 7 40 9 2 3 1 4 3 5-5 0-7-2-9-2-5 9-5 17-7 25 14 9 26 14 38 20-10-13-17-26-23-40 22 3 11-6 33-6-34-17-68-30-104-38"/><path fill="#114885" d="M201 172c21 24 33 42 49 62-6 2-17-1-25 1 13 12 27 24 39 38 7 3 9 4 17 4 1-2-3-6-5-8 9 8 17 18 20 28 2-9 1-16-1-22-9-9-17-5-23-21-3-10-1-11-3-19-18-21-43-44-66-61"/><path fill="#0F315B" d="M216 340c-21-9-25 12-15 26 23 4 46 9 69 11-5-14-18-33-31-35-6-1-14-3-23-4"/><path fill="#31A0D5" d="M541 144c-13 1-24 3-35 8-13 27-22 31-43 59 9-1 18-3 26-6 14-15 27-29 43-41 17-11 48-19 7-21"/><path fill="#0C2A5C" d="M180 221c-4 14 1 18 0 26 12 13 15 13 27 23 2 2 0 1 0 4 10-2 12 5 31 3-5-4 4-4 7-7-4-3-10-7-14-11 1-3 3-4 4-5 13 0 19 15 28 17-20-19-30-26-44-39 3 1-5 7-4 14-13-7-23-16-33-24"/><path fill="#3A70A5" d="M59 235c-63 30 68 34 82 60 2-9-3-13-3-25-19-6-38-8-55-15-11-5-20-10-21-17"/><path fill="#B7BBC6" d="M107 172c-4 15 25 44 34 55 6-9 21-16 24-26-7-11-22-19-32-25-8-3-13-2-21-2"/><path fill="#43BCC1" d="M117 124c-2 9 5 14 10 18 34 23 66 42 97 64-15-20-31-43-57-56-16-9-30-23-48-26"/><path fill="#3DB2B8" d="M72 233c-19 3 9 21 16 20 37 10 75 12 105 29-30-20-61-33-93-44-10-3-18-4-26-5"/><path fill="#0D3C79" d="M141 157c5 9-2 11 3 16 0 4 11 12 17 16 14 11 23 8 51 30 0-6 4-11 6-15-24-14-53-36-78-46"/><path fill="#3D6FA3" d="M108 125c-37 3-10 29-4 47 8-3 20-2 28 0-6-14-22-37-17-48-4 1-6 0-7 1"/><path fill="#62CBE3" d="M339 338c-8 12 17 7 21 14 9 4 15 10 19 17 4 4 6 7 5 12-1 8-4 13-7 18 11 3 21 3 30 0 0-15 5-26 12-36-9 2-19 1-32 2-10-4-18-7-24-14-9-3-16-6-21-11"/><path fill="#54D0D3" d="M513 204c-17 2-33 7-50 10-6 9-5 19-6 27 7 0 13-3 20-4 8-7 51-30 41-35"/><path fill="#60D7DC" d="M499 154c-7 3-17 7-23 14-14 19-26 38-39 55 16-6 30-25 46-38 8-12 16-20 19-31"/><path fill="#0E3951" d="M470 278c-2 5-7 8-7 13 9 4 16 4 24 3-8 13-14 24-20 36-6 7-12 7-18 9-9 2-18 2-26 1 8 2 16 1 24 0 2-2 3-1 5-1 14-6 28-14 42-20 3-8 3-16 1-22 0-9-6-1-7-4 29-4-8-11-14-15"/><path fill="#207080" d="M170 197c2 7 5 14 7 19-6-1-12-6-19-5 13 2 12 11 19 16 0-3 0-4 1-8 12 7 23 18 35 25 2-9 7-16-1-17-9-15-26-23-40-29"/><path fill="#646E84" d="M70 291c-28 9 19 26 27 34 3-10 6-19 8-28-12-2-22-5-32-6"/><path fill="#4180B2" d="M530 253c-4 4-5 7-12 10-14 8-30 5-44 10 15 4 25 18 40 10 6 0 10 3 14 4-2-2-8-3-12-4 6-20 48-16 14-31"/><path fill="#88C9E4" d="M366 134c-8 11-14 28-16 34-2 5 7 9 10 11 6 1 6 4 13 2 5-11 0-23 0-35-1-5-2-8-5-9"/><path fill="#54A6D4" d="M529 169c-12 8-25 22-39 35 13-6 31 0 43-6 3-4 5-5 6-7-2-10-4-16-9-21"/><path fill="#1C325C" d="M226 387c13 13-8 21 0 36-5 5-12 3-17 8-3 5 6-1 9 1-8 2-8 10-15 13-8 1-15 0-17-7 0 3 1 4 3 5-4 6-9 9-10 15 0 5 2 6 4 7 6 3 12 2 16 3 3-7 5-17 6-23 6-6 14-5 19-8 7-5 0-13 10-12-5-9 0-26-6-35"/><path fill="#E9F7FB" d="M319 244c-3 11-5 16 0 30 6 9 10 16 15 24 2 6 15 2 7 8l12-3c6-9 25-24 24-39-18 3-26 32-39 35-4-6-3-12-2-17-5-4-11-5-14-9-3-11-5-20-4-28"/><path fill="#112867" d="M235 287c-1 1 0 3-1 5 11 14 27 24 39 34 7 5 14 6 21 7 1 9-3 12-5 25 1-3 1-6 3-8-2 7 9 4 9 10 2-7-2-9-7-12 1-4 3-8 5-12-21-17-41-36-63-48"/><path fill="#96D6F2" d="M402 326c-10 6-26 4-38 2 8 7 16 16 22 23 25 15 21-23 18-23"/><path fill="#1E3A85" d="M238 278c-1 3-3 6-3 9 25 14 45 32 64 47-8-4-2-14-6-20-18-12-36-23-53-35"/><path fill="#185A6C" d="M160 212c-8 4-9 13-13 19l-1-2v3c9 7 35 12 33 25 0-9-1-18-2-27-7-8-4-11-16-18"/><path fill="#1B66A5" d="M244 153c32 43 33 61 71 116-2-20-16-35-24-53-16-24-28-43-45-63"/><path fill="#F1F7F8" d="M363 185c2 2 4 3 7 5 0 26-10 47-2 71 3-3 7-3 10-5-5-23 3-59-11-73"/><path fill="#3C97C0" d="M410 405c-12 6-27 8-41 3-6 6-17 8-25 9 13 6 29 6 43 4 11 0 27-8 26-15"/><path fill="#266093" d="M238 255c-14 3 6 11 9 15l1 2-2 2c-3-1-9-1-8 4 20 13 40 24 55 36-11-16-28-28-44-41l-1-1 2-2c2 4 7 1 11 4-4-5-9-10-14-14-3-3-5-5-7-6"/><path fill="#5D677E" d="M513 286c-6 1-12 2-17 4 1 9 4 18 1 27 10-4 47-30 17-32"/><path fill="#5BD5DA" d="M563 152c-12 1-28 11-33 17 2-2 10 9 11 19 11-11 21-22 25-35"/><path fill="#3BB0B6" d="M516 250c-12 1-22 5-33 7-5 5-12 8-13 14 13-5 71-8 50-24"/><path fill="#08385C" d="M319 341c-6 8-8 18-6 29-4-5-4-11-3-17-4-3-4-1-6-3 0 11-1 22 3 31 4 3 8-2 9 3-2-10 6-17 5-23 5-12 22-20-2-19"/><path fill="#236A97" d="M125 413c-12 8-23 21-31 33 5 0 28-5 37-15-8-7-1-8-5-15"/><path fill="#196090" d="M371 360c0 9 3 19 1 28-1 7-3 10-6 14-4 6-14 4-13 7-8 0-16-9-24-3 9 6 15 9 24 8 9-2 14-6 19-12 7-8 9-16 11-24-3-7-7-12-10-16"/><path fill="#45BFC3" d="M251 273c15 10 30 24 43 38 8-7-5-23-9-28-8-5-22-6-32-10"/><path fill="#45BEC2" d="M219 205c-3 6-9 14-4 22 9 7 20 3 29 5-7-10-15-24-24-25"/><path fill="#0B3169" d="M115 131c6 15 13 28 21 43 10 6 18 12 27 18l-18-15c-8-8 2-12-5-20 20 7 55 32 78 46-30-20-62-39-90-58-4-8-13-7-11-13"/><path fill="#68D2E1" d="M222 128c12 32 35 59 54 87-10-19-21-38-29-56-10-14-14-19-25-28"/><path fill="#2878A2" d="M158 405c-10 1-24 6-31 8 4 5-3 12 7 17 8-4 15-9 23-15 1-4 3-6 1-8"/><path fill="#175A91" d="M269 236c2 5-1 20 6 23 3 12 12 3 17 14 5-1-1-6 1-9 11 8 26 28 30 51-4-12-6-24-13-35-12-16-26-30-38-45"/><path fill="#1D697D" d="M100 329c0 5 2 11 8 14 13 7 25 12 38 14-9-16-30-17-43-28"/><path fill="#8ADFF1" d="M345 335c-8 9 29 20 39 28l4 1h16c6 0 8-2 12-1 4-5 6-6 9-11 1-5-1-9-4-12 2 12-16 12-15 22-7 2-11 2-15 2-12-10-32-17-44-28"/><path fill="#FBF5FB" d="M300 272c1 11 1 19 8 24-3 8-10 9-11 13 4 9-1 23 4 21 5-9 10-20 12-25-3-9-4-15-12-31"/><path fill="#1E325F" d="M431 446c-17 7 10 15 7 27 10 1 18 2 26 2-8-3-17-4-24-7 1-4 8 0 9-4 0-7-4-9-7-12-4-4-7-4-10-5"/><path fill="#3AA4D2" d="M249 179c3 5 5 11 9 15-55-31 21 29 21 35l2 3v-2c-5-17-20-33-30-49"/><path fill="#5994C3" d="M192 112c9 13 17 27 26 41 3 1 10-1 8 3-4-14-13-25-17-37-3-1-9-5-15-7"/><path fill="#7FCCE4" d="M355 262c-3 1-7 0-8 4-8 7-7 8-9 18 2 0 4 1 8 1 4-7 32-26 10-23"/><path fill="#63C7DE" d="M348 172c-1 4 5 6 7 11 8 0 16-3 20 1 2 28 7 58 5 83-1 9-3 20-5 29 3-1 7-18 8-27 1-33-4-59-7-87-6 2-13 0-14-2-6 0-9-6-13-7"/><path fill="#18345F" d="M288 367c4 13 13 28 26 38-5 4-10 7-15 8-1-4 4-4 6-7-20-1 4-5-15-6 3-1 4-7 3-9-1-8-7-14-6-21"/><path fill="#1E355E" d="M295 437c-3 1-6 0-9 2 0 4-1 7 0 9 5-2 12-3 14 0-7 11-13 20-17 29 11 0 13-22 22-27 2-18-8-4-7-15"/><path fill="#0C3758" d="M184 283c-12 8-15 9 0 0 7 1 12 5 18 8 19 12 37 22 52 38-10 0-21-1-30-3 16 11 26 20 45 23-4-7-11-13-14-17-4-7-8-10-11-14-14-11-28-18-40-26-7-4-13-7-18-9"/><path fill="#1D305D" d="M386 444c-17 0-15 7-6 14-1-2-2-3-3-4 5-2 9-1 12-1v5c-4 8-12 10-11 24 5 2 13 3 19 2-2-2-5-5-10-6 0-8 1-15 2-20 7-1 1-3 7-6-5 0-7-4-9-8"/><path fill="#D3D6DC" d="M220 155c-1 8 10 18 12 25 5 6 8-1 13-1-2-5-6-10-8-16-6-3-9-7-14-6"/><path fill="#072254" d="M181 245c-1 5 0 9 1 14 18 10 32 21 51 33 1-8 2-13 3-18 0 2-1 3-1 5-17-3-18-4-26-5-9-7-19-17-30-24"/><path fill="#247781" d="M137 266c10 4 22 15 32 21 6-2 9-4 12-6-11-8-26-12-40-15"/><path fill="#26A6C9" d="M335 305c2 3 3 6 7 8-4 4-7 7-8 10 2 5 4 7 7 8 12 0 22-4 30-8l1-2-2 1c-8 2-11 2-20 0-9-3-1-11-6-9 0-4 2-4 3-5-4-2-7 3-11-1"/><path fill="#13234C" d="M287 447c2 11-20 20-18 33 1-4 9-12 14-5 1-9 29-34 3-26"/><path fill="#2C8E9D" d="M476 240c-14 3-15 3-29 9-7 5-14 13-11 19 14-9 27-19 41-28"/><path fill="#3083AD" d="M427 398c-4 11 7 14 11 23 9 9 18 19 22 13-2-7-3-15-8-21-2-5-5-5-7-6 2 1 4 2 5 4-6 0-6 14-11 8-5-7-14-10-12-19"/><path fill="#041939" d="M328 318c-7 5-11 11-14 18-4 11-5 23-2 33 0-7-1-14 2-19 2-7 5-12 8-16 5-2 7-2 9-1-6-8 14-19-2-14"/><path fill="#112C6A" d="M404 282c-7 8-18 9-22 11-2 4-6 8-5 13 4 0 6 1 8 2 39-25 24-23-6-4 5-8 16-14 23-20"/><path fill="#3FDBEB" d="M374 308c-3 5 5 9 7 12 10 2 16 0 22 0-6-7-16-11-26-12"/><path fill="#4BB0D0" d="M376 400c-14 15 25 10 32 5-4-6-21 1-31-4"/><path fill="#C2AE6E" d="M325 385c-3 6 5 13 9 16 7 4 14 4 19 3-1-1-10-5-5-11-9 0-15-1-21-5"/><path fill="#E2E0E4" d="M423 414c-27 15 2 17 10 19 0-1 2 0 3-3-9-3-6-10-11-15"/><path fill="#1F335E" d="M323 431c-4 4 3 11-1 19 17-1 7 18 24 18 0-6 0-10-3-14-7 4-12-3-15-3-5-13 0-6 2-10-3-4-3-7-6-8"/><path fill="#A6AABA" d="M62 302c9 12 23 26 38 35-1-2 0-6-1-9-13-9-25-15-36-24"/><path fill="#3391B8" d="M428 399c-3 9 6 12 9 19 6 6 7-7 13-6-4-7-12-9-21-12"/><path fill="#0D3D50" d="M451 270c-18 3-13 5-2 15 6-3 11-6 15-9-3-5-8-3-12-6"/><path fill="#27467A" d="M219 431c-10 8-24-4-33 7 4 7 10 7 14 6 8-4 13-11 17-10"/><path fill="#40B4BB" d="M537 266c-7 3-14 9-19 16 3 2 8 2 12 3-2-7 22-21 9-20"/><path fill="#B1AEBA" d="M317 306c-5 10-11 16-15 25 6-4 13-6 20-9 0-6-1-15-4-15"/><path fill="#294678" d="M411 432c1 3-4 9 1 15 3 3 8 4 9 5 3-3 12-6 9-12-1-3-2 6-8 4-5-2-6-8-3-10-2-1-4-1-7-1"/><path fill="#1E4571" d="M38 263c4 9 28 26 32 29-10-12-19-27-31-30"/><path fill="#D06ECD" d="M434 371c0 3 2 5 1 9-5-5-19-7-21-1 6 7 10 11 17 9 3-5 8-10 3-15"/><path fill="#3B4868" d="M470 402c3-2 7 0 8 1 4 6 4 12 3 16-6-4-10-6-15-8 0-4 1-6 2-8"/><path fill="#C77AC1" d="M325 376c-2 4 0 9 3 11 7 4 13 5 19 4 1 6 0 11 7 11-3-1-7-4-5-9 2-3 4-3 5-4-7-3-13-7-20-11 2 3-1 9-4 9-4-3-5-6-4-9"/><path fill="#6480C8" d="M254 345c5 11 23 14 22 25 4 0 6-2 8-3-12-15-14-15-28-21"/><path fill="#1B3058" d="M271 406c7 4 8 23 17 18 3 5 5 8 8 10-3-2-5-5-7-8-1-6 2-10-1-13-5-5-10-6-14-8"/><path fill="#DDDDCA" d="M368 383c-5 5-11 7-17 9-5 8 6 7 4 11 2-2 6-5 9-9 1-4 6-5 4-11"/><path d="M419 404c-4 4-9 11-14 15 4 7 4 1 8 3 3-7 8-9 14-10-2-5-3-7-6-7"/><path fill="#65D1E6" d="M295 244c6 12 28 47 44 62-17-21-28-41-42-61"/><path fill="#F4FDF8" d="M278 231c-1 2 1 6-1 8 12 11 21 24 34 38-11-14-20-30-32-45"/><path fill="#135695" d="M461 211c-8 8-20 17-25 25 9-2 14-7 19-6 1-8 4-12 6-17"/><path fill="#0F4F7C" d="M341 349c-4 1-9 1-13 4-12 17-5 8 7 0 6-2 11-1 16-2 10 4 16 12 19 19 0-1 0-2 1-3-3-11-14-16-22-18-4-1-5-1-6 0"/><path fill="#CEB675" d="M414 381c-1 5-1 13 0 17 6-1 13-2 16-6-5-1-10-5-14-8"/><path fill="#D8EFF8" d="M356 331c-8 6 16 16 22 18-5-7-11-14-18-17"/><path fill="#112047" d="M350 421c-2 7 4 11 9 13 8-2 10 8 15 10 4 0 7 0 11-1-6 0-11-9-17-11-4 0-5 2-8 2-7-3-7-11-8-12"/><path fill="#2EC3DB" d="M353 311c-8 0-9 9-1 11 9 2 12 0 19-1l1-2-1 1c-9-4-11-2-17-9"/><path fill="#C5EBF7" d="M350 333c-4 9 25 18 33 24-6-11-21-11-31-23"/><path fill="#182C53" d="M237 397c-1 3-6 7-1 11 2-2 4 4 4-3 8 4 2 15 7 10 1-4 1-10-1-13-3-4-5-6-8-5"/><path fill="#274576" d="M332 440c-6 8-6-3-3 12 4 2 9 3 12 0 1-2 4-4 2-7 0 5-9 2-9-5"/><path fill="#315F91" d="M46 274c2 5 7 14 10 19 5 2 7-1 9-2-6-6-11-11-17-16"/><path fill="#0B2C61" d="M375 278c-6 9-12 15-17 24 6 3 7-4 13-7 2-5 3-10 4-15"/><path fill="#227A89" d="M494 319c-10 8-24 9-33 19 18-4 25-9 32-17"/><path fill="#132B58" d="M292 385c4 6 3 11-1 13 12 5 3 8 19 7-16-26 1 9-19-21"/><path fill="#C6EBF7" d="M413 329c0 3 5 6 3 9-2 8-10 8-8 16 4-2 10-5 12-10 0-7-3-9-5-13"/><path fill="#1E6777" d="M151 237c8 8 18 13 27 19-2-9-14-15-25-18"/><path fill="#174C7B" d="M462 336c-11 5-25 7-36 6-1 3 3 3 3 5 12-3 22-6 33-9"/><path fill="#486AB8" d="M253 346c8 7 16 23 20 30 1-7 3-10 0-12-8-5-15-13-19-19"/><path fill="#16244E" d="M379 454c1 6-2 14 0 22-3-10 21-21 1-24"/><path fill="#182D56" d="M354 422c-2 4 2 8 4 10 5 1 6-2 8-3 6-6-6-5-9-6"/><path fill="#B8E6FA" d="M385 325c-37 3 4 7 14 2-5-1-9-3-15-2"/><path fill="#1F6D7A" d="M477 259c-8 3-16 5-23 9 5 1 11 0 11 7 1-7 8-11 11-16"/><path fill="#6EBAE3" d="M384 351c4 2 5 6 7 9 5 1 8 0 12 1 0-4 2-5 1-7-6 1-13 1-17-3"/><path fill="#426BAA" d="M390 463c-1 4-2 8-1 13 5 1 9 4 12 1-9 1-4-10-8-14"/><path fill="#2F1839" d="M424 359c-5 4-7 10-10 15 5 1 9 1 14 1-1-5-7-8-5-14"/><path fill="#DBEFF8" d="M407 327c2 6 2 11 1 18 7 0 7-7 7-8-2-5-3-8-6-9"/><path fill="#203865" d="M404 421c-2 1 0 4-4 5 7 6 6 12 9 21 0-10 3-18-5-25"/><path fill="#152A60" d="M473 403c-10 5 1 9 4 12 5-3 0-6 1-8l-1-2-1-2-1 1"/><path fill="#1D6289" d="M169 392c-1 1-2 0-3 1-12 22-6 8 4 0 7 0 11 2 18 1-3-5-12-1-17-3"/><path fill="#126B94" d="M315 328c-2 3-8 7-7 10-3 3-5 0-7 0-3 3-3 7 2 8 1-2 1-5 3-8 6 6 11-10 6-7"/><path fill="#37D7E8" d="M359 309c-9 4 6 8 10 9 2-2 1-4 0-6-4-2-6-1-7-2"/><path fill="#3EB0B4" d="M168 200c-2 2-2 5-4 7 3 4 7 4 9 8 0-5-2-10-4-14"/><path fill="#0C4F76" d="M326 336c-14 4 2 7 6 7 3-6-1-7-4-6"/><path fill="#192F5A" d="M314 418c-1 2-3 4-3 6 4 8 4 6 7 9 1-3 2-9-3-13"/><path fill="#315389" d="M421 433c2 3-5 1-2 6 0 4 4 6 7 4 3-5 0-8-4-8"/><path fill="#1A3F6B" d="M41 265c7 1 13 8 17 12-5-2-10-5-16-9"/><path fill="#1C3C87" d="M277 474c-1 3-1 8 0 11 3 2 4 3 6 3-1-6-4-14-3-13"/><path fill="#71C3DF" d="M350 283c-3 3-4 3-12 2-1 3 0 5-1 9 6-1 8-6 11-9"/><path fill="#082657" d="M275 353c3-2 3 6 11 12 2-4 5 1-1-8-1-4-5 1-6-5"/><path fill="#0A3265" d="M439 228c-19 18-34 31-41 40-7 4-8 8-14 6 1 2-1 8-1 10 9-7 4-11 13-14 14-15 27-27 41-39"/><path d="M244 181c-13 3 2 6 6 10 0-5-3-6-4-9"/><path fill="#0F1C37" d="M412 378c0 6-5 22 2 26-5-3 0-17-2-24"/><path fill="#E1C8E6" d="M327 377c-1 3-1 9 4 9 4-5 1-9-3-9"/><path fill="#44BCCF" d="M374 291c2 4-9 13-2 14 7-8 4-10 2-12"/><path fill="#7D7981" d="M423 420c7-3 4 7 6 7-4 0-5 0-6 1 0-7 2 0-1-6"/><path fill="#1B3B6A" d="M115 298c2 1 8 1 12 3-5 3-9 3-13 0"/><path fill="#294475" d="M388 443c-1 4 4 8 7 8 4-3-1-7-4-8"/><path fill="#6E5E89" d="M357 361c-6 2 4 7 6 9-4-9 5-2-4-10"/><path fill="#162964" d="M278 474c-7 0-4 6-8 9 2 2 5 2 7 4-6-6 2-17 4-13"/><path fill="#46B9C6" d="M445 223c-10 0-12 5-21 17 7-5 12-12 19-16"/><path fill="#283D73" d="M392 478c2 1 4 4 6 5 0 3-2 2-3 3 6 0 13-2 18 1-6-3-13-6-20-8"/><path fill="#0F325F" d="M142 346c14 25-6-14 19 15-6-7-10-14-16-15"/><path fill="#13547B" d="M192 381c-2 4-2 8-5 11 1 4 8-6 7-9"/><path fill="#45B3B8" d="M262 337c6 3 9 14 14 14-3-6-7-10-11-13"/><path fill="#0B4F73" d="M306 341c0 1-4 11 2 9 2-4 4-9-2-7"/></svg>