<svg xmlns="http://www.w3.org/2000/svg" width="600" height="600"><path fill="#7D7766" d="m358 118 2-2c13 21 35 44 49 61-3-4-3-8-4-11 5-1 9 2 12 5-1-3-3-5-3-8 4-3 5-2 6 0 1-8 1-15-2-21 14 8 24 19 30 31 3-3 6-7 10-9-2 6-1 10-3 14 45-45 63-57 33 24-4 8-8 21-11 29-1 3 0 4 0 6 6 1 3-6 8-4 5 14-8 16-7 24 4 0 8-1 11-4-2 7-5 13-9 19 6 8 13 4 19 6-1 5 8-1 5 7-6 13-15 14-25 20-6-6-14 4-18-4 1 8 1 8 7 5 0 4-2 6-3 7 4 9 11-8 13 0-16 14-17 33-30 47-9-12-10-29-18-43-5 8-11 13-19 18-2-2 2-7-4-10-3 9-7 17-11 25 0 10 0 17-3 23 11 23 18 43 33 61 7 0 13 8 19-1 8 4 15 1 18 8 7 10-7 14-4 24-20 2-40 4-58 1 0-13-4-25-4-37-9-15-21-25-30-37 0-9 5-14 4-21-1-6-6-7-4-13-7 1-12 2-18 1-7 5-12 10-17 14-4 0-4-2-2-3-4 11-9 22-11 33-2 15-3 28 3 38 5-2 10 6 14 2 6 4 8 6 10 10 4 9 0 17-4 22-21 2-39 1-57 2-5-7-2-12-3-17-3-2-8 0-11-2 2-19-11-27-16-40-1-16 16-17 17-29-1-11 0-21-4-28-16 7-22 22-38 30-15 2-27 6-39 11-4 9-6 17-5 27 3 11 15 7 17 20 6 9-2 10-2 15-16-3-32 1-47 1-2-6-4-10-3-15 13-19 14-42 19-63 11-6 24-3 30-14 7-5 8-13 10-21-14 5-28 6-44 5-12-1-22-3-30-9-10-13-22-17-35-29-4-5 2-7 3-3-8-12-12-24-11-38 0-17 6-30 15-41 0 10 3 19 3 27 1-1 0-8 4-5 10 18 25 22 40 36 10 5 19 13 29 15-1-3-4-6-5-10 10 4 18 10 27 13 10 1 11 0 19-1-27-3-12-13-37-11 0-5 4-7 5-10-8 2-18 3-26 0 1-4 4-5 7-6-11-3-21-13-27-23 4-3 12 6 19 5-2-6-8-9-10-16 5-1 10 2 17 1-6-8-14-12-17-21 0-10-12-30-4-45 1 4 4 6 4 9-2-13 3-25 7-35 5-11 11-19 19-25 3-2 5-5 7-3-5 11-8 20-8 29 8-6 17-14 27-16-4 11-9 20-11 30-1 9-3 15-2 23 2 4 2-10 5-13 3 6 2 13 4 18 3-8 2-20 10-28 1 5 2 9 2 12 2-8 5-15 10-22 6-6 11-9 16-11 7 4-6 13-5 20 8-4 16-7 24-10 3 5-8 9-5 16 18-6 38-9 57-7-8 9-17 13-23 19-13 19-23 24-26 39 0 3 2 7 4 8 4-12 12-23 21-28 1 8 2 16 1 23 2 7 0-5 4-3 3 12 7 21 12 30 6-2 15-7 12-10-6-5-9-9-16-12 2-7 7-9 12-11-2-4-7-3-10-5 12-10 23-10 27-17-1-5-1-12-2-17 10 4 21 4 30 8-1-10-4-18-3-28-2-18-1-34 0-50"/><path fill="#4D3C40" d="M395 336c-5 4-21 22-26 19 3 4 11 20 8 22 12-6 4 0 8-16 0 9 8 13 1 18-2 3-3 5-5 6-5 0-8-4-9-3 5 28 18 26 25 42 2 11 8 21 6 30 1-3 1-3 5-9-1-6 14 5 17-5-15-22-16-34-35-64 0-7 7-18-4-20 5-9 15-19 11-18"/><path fill="#D7A662" d="M301 273c2 2-25 0-49 11l-4 4c4 0 6-2 9-1 2 7 2 13 3 19-6 4-10 8-14 14-9-8-2-23-3-26-8 5-15 18-22 26 0-5 3 21 0 30 3-6 4 5 12-5 5 1 8-2 9 4l-1 2 2-3c-4 0-3-9 4-8-3-3-6-5-3-9 5-6 5 2 7 3-3-5-3-9-2-16 11-10 11-8 16-10-1 0-4 0-4-2 13 7 12-1 20 10 2-4-1-8 1-11 5-8 7 3 11-1-6 1-7-7-9-10-1-5 1-8 3-9-4 3-7 8-13 7-5 2-8 1-11 2-6-4 1-6 1-8 9-9 18-9 27-9-5 9 7 3 8 13l1-1 1 1c3 2 6 3 10 2-4 0-7-1-9-2 1-4 5-5 6-9-3-1-6-1-9-2 3-6 8-6 9-8"/><path fill="#4B3F47" d="M291 359c-6 1-4 9-11 10 3 15-2 27-6 39-4 5-6-6-3-7-2 3-6 5-9 9 5 16 18 36 13 45 4 1 7 1 10 2 4-5 4-7 5-11 1-5-3-4-6-4 4-4 8-1 9-1-6-5-13-12-15-19 0-7-2-12 2-14 5-6 9-9 13-13 0-12-1-25 0-35"/><path fill="#D7D2B0" d="M136 285c7 5 13 12 17 20-4 2-6 8 0 10-8-1-13-8-22-3 4 7 10 10 14 14 16 5 27 5 39 3-4 3-11 6-16 5 4 2 9 2 13 1 8-4 11-6 16-8 0-5 0-9-1-13-7-5-8-6-14-12 4 4 6 8 9 12-14-1-19-4-26-10-2 4 6 9 4 13-11-7-12-19-33-33"/><path fill="#5F6165" d="M203 314c-1 2-2 5-4 2 0 4 1 7 0 11-5 6-12 5-16 9-46-3-17 4-47 1-3 7 11 2 15 7 34-2 28 6 56 3 4-2-8 1-11-2 4-3 9-3 13-4 7-13 15-28-7-24"/><path fill="#9B6F4C" d="M321 377c-5 1-8 6-11 10-4-1-4-5-6-7-2 0-2 6-5 4 6 12 2 23 3 36-2 10-6 17-8 25 6-3 10 0 12 5 3-3 9-2 5-7 4 1 3 4 6 3-1-6-6-12-5-19-1-18 4-35 7-48"/><path fill="#D7D4B4" d="M165 169c-4 6-2 14-1 18s3 7 4 11c2-6 0-10 4-15-2 9 2 18-2 21-5-6-6-5-10-13 1 4-1 5 0 9-5 0-4-3-5-4-2 7-2 13 1 17 0 3 1-3 2-4 2 7 1 12 2 16-1-10 4-12 5-17 4 0 7 5 10 8-4-5 3-7 1-10l12 24c-4-21 0-13 1-38-3-1-3-3-4 3-3-9-10-11-7-22-5 6-3 13-8 11-2-4-3-9-5-13"/><path fill="#6A4F43" d="M362 179c4 15 13 33 12 39 0-3 3 1 23 24-5-7-4-8-5-14 4-2 8 2 11 4-6 1 1-13 3-8-3-9-6 4-11-8-2 4-2 7-3 11 2-15-14-34-16-44-2-2-10 1-12-2"/><path fill="#B4DCB5" d="M114 264c-1 5-3 12 0 17 4 3 4 13 11 17 13 17 12 0 22 10 6-7 1-4 1-8-9-15-25-23-32-36"/><path fill="#6C7B7B" d="M191 259c-26 6-17 2-11 22-3 1-5 0-6 1 4 1 11-1 14-3h3v2c-5 0-9 5-13 7 6 0 11-3 17-4 2 3 1 9-4 12 4 1 16-1 17 4 2-1-2-1 0-4 4 0 6-1 9-1-2-2 0-6 3-8-16-2-18-13-29-8h-1l2-3c-6-2 0-4-1-18"/><path fill="#412F2E" d="M361 130c1 14-1 25 1 37-1-4 3-1 5-3 5 6 16 11 21 13 10 16 1 32 4 41 1-7 4-13 4-20 1 13 7 3 9 14-9-32-29-57-41-78"/><path fill="#6D6F6E" d="M289 214c-7 2-3 2-11 9 2-1 3-4 6-5 1 7 3 11 4 15-6-4-9 3-13-1-2 3-2 7-3 10 8 10 13 21 20 29 13-1-1-7 12-9-6-9-8-17-11-24 0 6 3 10-2 12 1-9-2-7-3-15-2-7-2-14 0-19"/><path fill="#D8D1B1" d="M257 234c4 5 2 7 13 16-1 5-7 1-5 2-26-6-39-25-17 10 9 2 20 9 27 9 2 1-2-5 4-1 3-11-6-16-6-21-7-6-9-12-15-13"/><path fill="#52403E" d="M337 303c-4 1-7 6-11 8 3 0 5 4 15 1 3 9 0 16 1 21-5 14-10 15-20 28 7-10 24-16 35-25-1 9 3 7 2 13 3-2 2 7 8-2 0-6 0-14-3-7 11-10-6-6 3-15-11-2-4 1-26 5-3-13 13-29-3-26"/><path fill="#C79155" d="M294 284c8 4 3 10 6 16-2 5-5 2-7 4-4-3-6-2-9-1 3-2 5-1 7 1-2-1 3 12-1 16-5-8-13-3-18-12-1 7-8-6-10-1 6 6 31 23 36 21 5-11 9-28 14-33-7-1-13-3-15-10"/><path fill="#C48E57" d="M211 371c-16 11-22 18-35 16-2 4-2 11-1 15 1-4 1-8 6-10 0 3 0 7-2 10 11-7 26-10 35-18-2-3-1-8-3-11"/><path fill="#B3DCB7" d="M290 176c-6 1-11 1-16 3-8 3-16 4-19 11 7-3 4 5 9 3 1 5-4 9-2 12 5-14 54-33 31-29"/><path fill="#707573" d="M261 192c-12 20-6 17-9 34 1 2 2 3 3 4-2 2-6 1-5 3-5-5 3-3-2-5-2 4-2 9-4 14 4 6 8 1 13 4 0-2-4-4-5-8 8-4 13-20 17-26 1-7 2-7 1-9 2 4-7 3-12 8-5-12 4-1 4-14 0-2-1-2-2-2"/><path fill="#533E3B" d="M363 166c-2 4-1 8 0 13 5 3 12 1 13 2 4 13 11 17 13 26 4-11 1-21-3-30-12-12-11-4-20-11"/><path fill="#DBD5B2" d="M335 192c6 7 13 7 18 17-7 0-16 2-21 4 7 4 15 8 29 15-3-4-6-8-7-13 6 1 11 2 16 4-1-8-5-12-8-15-4-6-22-7-25-11"/><path d="M294 399c-3 4-10 6-12 11-2 12 2 20 11 24 4-10 8-23 2-35"/><path fill="#3C4549" d="M387 309c-2 4 5 4 2 9-6-3-6-4-5-8-6 3-8 6-10 9-5 33 5-3 1 26 6 14 35-53 17-22-3-3-2-8-3-12"/><path fill="#B5DDB8" d="M338 272h-3c-7 10-13 16-17 26 9-7 18-8 28-11 9-7 2-16-6-15"/><path fill="#976D4C" d="M265 328c-3 2-6 4-7 8-10 13-7 26-14 36 6 0 11-10 16-16 4-9 12-28 8-29"/><path fill="#5A5A5D" d="M392 278c4 3 2 2 5 4-14 0-26 6-35 8 9 1 19-1 27-6-8 9-7 15-13 23 8-6 17-2 17-6 6 2 0 5 2 9 7 0 25-19-3-10 6-4-1-3-2-5 0-3 7-7 8-7-2-4 0-8-2-9"/><path fill="#B0B097" d="M236 166c-1 3-4 6-5 9 0 8-3 15-4 21l3-6c1 1 3 2 3 3 4-5 7-9 13-12-8 6-8 15-9 24 3-5 7-8 12-10 1-7 2-11 3-16-1 3-3 0-4 2 24-23-12-4-13 1-4-4-1-9 0-14"/><path fill="#DCAB64" d="M425 215c0 3-3 0-4 2-12 8-8 9-2-1 3 6 3 13-3 13 13 5 28 11 39 28-1-2-2-3-3-6 3-5 6 0 6 2-1 0 0-5-2-7 3-3 4-1 5-1-8-4-28-14-29-12-12-9 0-9 1-14l-4-2h-1v1"/><path fill="#5D6366" d="M218 269c-2 2-6 6-8 5 3 1 6 5 7 7 8 4 14 6 20 7-20 1-18 7-29 9 4 7 11 7 17 8-3-3-8 1-10-5 8 0 17 2 15 2 6-9 20-18 21-21-3-1-7 6-10 6-2-4-16-3-21-6 0-2-4-2-4-4 3 0 5 1 8 0-2-4-3-5-5-7"/><path fill="#CB9357" d="M336 315c-6 3-7 10-15 5-1 7-5 16 0 23 8 4 6-4 9-10 6 0 4 7 7 5-3-11 2-21 2-23"/><path fill="#F2F5DC" d="M410 230c0 4 3 8 4 12 15 3 27 10 36 20-1-9-7-14-11-20-10-5-19-3-26-12"/><path fill="#6B5045" d="M273 324c2 3-2 6 0 9 4 1 5 3 7 3-16 4 7 3 11 5-1 0-2-1-3-2 1-3 4-2 1-6 6 6 11 7 16 7 9-4 5-7 8-14l1 2v2l1-1-2-2c-5 1-7 6-25 2-5-1-8-2-13-3"/><path fill="#CB9457" d="M260 310c-4 2-7 4-10 6-2 12 2 18 2 27 2-9 13-18 20-17-3-15-4 7-12-17"/><path fill="#B3DDB5" d="M106 245c-4 7-9 14-7 24 2 19 4 14 11 21 1-15-5-28-3-45"/><path fill="#D8D1B0" d="M465 190c-6 6-3 11-12 16-3 6-3 11-1 15 9 1 10 0 13-6 5-9 3-15-2-24"/><path fill="#5F5C5E" d="M355 216c3 6 8 12 13 18-7 3-10 0-18 1 0 10 9 0 17 12 7-6 7-8 11-11-3-6-3-10-4-14-5-2-8-3-10-4-5 4 3 5 1 8-5-2-6-6-8-9"/><path fill="#3E4849" d="m352 288-2 2c-2 1-4 3-6 3 3 1 5-1 5-3 2 4 8 4 4 10-1 4 12 1 10 11-7 1-14 6-15 15 13-3 12-16 21-12-4-4 5-9 5-16-5-1-10-2-15-4-4-1-8-1-7-5"/><path fill="#82B0AC" d="M98 264c-1 7-3 14-2 23 3 13 8 28 14 31-1 4-6-1-4 1 10 5 26 12 40 18 13 5-16-8 17-1-8-2-15-3-22-2-9-6-16-11-22-17 0 3 3 4 4 6-6 0-8-1-11-2-12-16-9-36-15-55"/><path fill="#D9D6B6" d="M247 203c-14 20-4-8-16 22-2-7-6-3-5-9 4 18-7 16-7 36 17-25 16-25 30-50"/><path fill="#CA9458" d="M245 340c-7 9-19 7-23 9-9 5-1 9-6 18 1-5 3-8 4-11 2 3 1 8 2 10 4-3 3-6 4-9 4-8 11-6 16-10-3 5 1 12-3 16 3 0 5 0 7-1 5-9 8-20-2-22"/><path fill="#956D4D" d="M405 182c0 1-2 6-4 12 4 4 9 29 7 27 7-3 6-8 11-9-2-11-8-20-13-29"/><path fill="#412F2E" d="M500 148c-7 13-11 25-23 36-1 15 11 1 7 18 8-6 13-41 16-52"/><path fill="#B4DDB7" d="M183 137c-10 10-18 22-21 37 0-3 1-4 2-5 3 3 5 6 7 9 10-13 6-28 12-39"/><path fill="#6B7777" d="M198 225c-1 3-3 5-4 8-6 2-8-3-12-4 1 2 2 6 0 9 0-6-6 6-10-1 8 9-3 9 11 17 8 1 4-5 8-12 4-1 3 2 4 3v2-3c2-3 1-14 4-18"/><path fill="#D3C9A7" d="M325 254c-8 3-14 11-24 11 8 5 15 3 20-4-3 7-4 13-7 18 7-3 12-8 18-13 3-13-6-9-7-12"/><path fill="#D9D1AE" d="M377 262c-7 2-12 2-17 4 8 0 15 1 21 4-8 6-12 6-17 11 3 3 16-2 10 4 20-9 19-11 8-23"/><path fill="#B3DDB5" d="M421 144c4 12 6 26 13 37 6-4 7-8 6-14-7-9-11-15-18-21"/><path fill="#6E6F6D" d="M253 266c3 7-9 9-6 14-16 0-4-10-24-5 2 0 3 3 7 4-5 2-8 1-12 2 7 2 21 1 22 5 4-10 33-3 23-19-9 0-5 4-5 6-2-1-6-3-4-5"/><path fill="#956B4B" d="M331 333c-2 4-2 8-4 11-11-2-10-4-16-7l-1 3 1-1c3 1 3 5 0 6 2 0 4-5 6-3-3 4-5 9-7 6 5 1-2 12-3 15 3 0 4 1 5 3 4-6 39-40 17-23-2-3 2-4 3-8"/><path fill="#57535A" d="M162 437c-1 3-6 6-5 10-3 4-4 11 1 16 3-1 6 1 10 0-1-4 2-5 2-8-2-2-2-18-8-10 1-3 0-7 1-9"/><path fill="#D4CCAA" d="M409 170c12 8 7 29 21 32-1-7 2-10 6-11-11-14-13-3-26-24"/><path fill="#4D3F42" d="M171 407c-2 8-3 11-5 18 1 5 7 5 8 10 9-4 7-14 9-21-3-2-5 5-7 8-2-4-5-7-3-13"/><path fill="#735F5E" d="M433 442c-4 3-5 0-6 7 5 4 10 9 8 14 7-2 14-6 11-13-2 0-6-7-11-7"/><path fill="#EEEBCF" d="M430 276c10 1 16 10 24 14 3-2 4-3 6-4 3 7 12 4 17 5 1-4 3-6 4-9-6-6-10 2-26 2-9-1-16-6-23-8"/><path fill="#747672" d="M110 306c7 12-8 1 7 16 9 3-6-5 0-7 8 6 15 11 21 16 19 1 22 3 39 0-9 0-18 1-25-1-10-1-12-10-19-11 0 2 2 4 3 5-9-10-17-8-25-16"/><path fill="#798E84" d="M306 176c-8 3-17 6-24 12-12 12-11 13-13 16-2 13-2-3 4 4-4 5-7 7-9 10 2-3 5-5 7-8 6-5 9-8 12-12 0-1-6 3-5-2 11-8 25-16 31-21"/><path fill="#514952" d="M194 442c2 3 4 6 5 9-2 5-3 6-4 9-3-4 0-5 1-9-2 5-2 0-4-1-10 4-8 3-13 9-7-1-2-5-5-5-5 5-4 6-5 10 5-12 10 6 25-4 6 7 12-9-1-16"/><path fill="#414A4E" d="M410 299c-1 6-3-3-6 7 3-4 10 0 13-2-3 3-4 8-7 9 2-3 5-3 6-6-2 6-2 9-1 15-1 8 4 2 5 3 3-7 5 0 5-15-5-6-9-11-15-11"/><path fill="#57413D" d="M275 333c-19 17 13 7 25 17 3-3 4-5 5-7-6-2-10-4-13-9-5 8-4 1 1 6-9 1-12 0-19 1-1-6 3-3 5-5-1-1-4 0-6-1"/><path fill="#B5DCB7" d="M167 208c-5 6 0 10-1 16 4 4 4 13 10 14 4-3 5-4 5-6-5-9-10-16-14-21"/><path fill="#6C5C5B" d="M412 446c-4 3-11 8-5 15 5 3 9 2 15 3-3-7-5-14-8-19"/><path fill="#2E242E" d="M285 349c-3 1-7 2-8 3 3 2 9-1 9 1-9 7-8 0-12 8 1 7 1 5 2 17 0-2 7-16 11-17 5-7 5-2 7 0 8-12-2-4-8-11"/><path fill="#221218" d="M405 275c0 1-5 3-3 4l2 2 1 1c7 3 10 10 17 14-4-4-11-8-11-12 2-5 3 1 5 2 4 3 1 5 3 5 0-1 2-1 2-3 1 9 6 8 13 17-4-4-8-9-5-13 6-3 9 1 7 7 0-4 1-8 3-11-5-5-10-5-14-6-6-3-2 2-8 6 0-4-6-9-13-7 1-6 8-4 11-5-2 0-5 1-7-1"/><path fill="#769291" d="M151 262c1 8 10 11 12 16 6 5 9 4 14 2 0-1 1-5 0-7-10-7-27-3-22-9"/><path fill="#B3DAB8" d="M205 202c6-1-1 16-4 23 2-2 3-4 4-10 2 7-1 12 4 17 8-3 8-9 7-14-2-10-13-4-8-17"/><path fill="#B7DAB3" d="M227 263c-18 9 12 10 17 12 1-7-2-10-7-10-4-2-6-2-9-2"/><path fill="#B4DDB7" d="M200 152c-8 4-14 8-19 15-4 5-3 13 0 16 6-9 9-20 17-29"/><path fill="#D8D1AF" d="M450 196c-1 1 1 4 0 7-3-1-5-4-3-6-2 2-4 3-5 1 1 5-3 7 0 10-6-2-6-6-6-10-4 5-3 16 0 23 0 5 11-8 16-24"/><path fill="#ECE9CA" d="M395 231c2 4 7 5 9 7-2 5-6 5-10 6 1 2 2 3 3 4-7 4-11-1-18 1 18-1 24 11 21 9 3-1 2-3 1-5 9-4 2-12 11-12-2-4-4-6-3-9-4 4-9-1-11 0"/><path fill="#C99459" d="M413 245c4 5-6 2-6 8-3 5 3 4 2 8-2 5-6 5-9 7 8-3 11 8 20 5-7-4-2-15 1-10-10-4-7-9-11-9 5-11 1 3 5-5l1 1-2-1 1-1"/><path fill="#8F9185" d="M333 233c-30 9-16 11 6 8-5 6-10 8-14 11 4 0 7 1 10 2-1 4-4 7 0 8 5-4-1-2 0-6 2-3-2-9 3-13l1-1 1-1h2l-2-3c-2-1-5 3-10 1-3-4 4-3 4-3-1-2-4-1-5-3"/><path fill="#5E5B5D" d="M350 264c-1 3-4 2-6 3 4 1 7 3 10 4-3 5-6 0-9 0 7 3 10 2 10 11-4 0-16 14-24 11 8 1 18-1 23-10 22-10 8-8-1-18l1-1h-1v1"/><path fill="#D8D4B5" d="M201 234c0 6 0 14 2 16 4 4 5 2 5-3 3 7 6 13 9 16 2 0 3-1 6 0-3-8-15-19-21-27"/><path fill="#241C22" d="M269 344c-5 5 2 1 8 3-7 2-4 6-12 11 10 1 12-1 20-4 1-3-4 2-7-1-5-2 0-2-1-2 17-7 15 11 22 1 0 7-5 10-3 12-2 12-1 20 0 29-4 7-6 5-9 9 4-3 6-4 8-7 6-20-2-5 0-30 2-4 3-7 6-11-9-7-22-9-32-8"/><path fill="#809789" d="M205 148c-10 7-14 21-19 31 2 2 4 13 5 24 0-6 0-13 2-19-1 1-5 7-6 2 8-13 10-26 17-35"/><path fill="#817263" d="M324 300c-5 6-9 1-8 2-5 9-5 17-7 23 5 1 14-12 15-24"/><path fill="#B1AF92" d="M454 172c-10 6-4 17-10 26 4-4 4-1 4 5 3-4 0-6 1-7 9 8-11 19-5 21 9-7 2 5 9-15 0-8-2-19-1-28"/><path fill="#DDAC64" d="M448 272c-21 2 9 14 17 7-3-6-14-6-18-8"/><path fill="#B7DBB7" d="M241 158c-5 3-13 6-15 14-5 6-7 13-8 18 7-9 15-20 22-30"/><path fill="#42232E" d="M430 292c-5-1 5 19 6 10 3 5 1 13 6 12-1-5 8-7 4-12-3-3-2-4-5-3 0 1-1 3-2 5-5-5-1-13-8-13"/><path fill="#B7B597" d="M114 284c-4 7 6 16 9 28-2-5 8 5 10-2-4-2-14-16-18-26"/><path fill="#705040" d="M224 369c-1 1-2 5-9 6 0 4 4 6 1 9-6 7-17 10-26 13 12-4 24-6 35-9 0-2-1-3-4-2 2-5 8-1 7-4-4-1-6 2-7 2-1-6 1-10 3-13"/><path fill="#71615E" d="M290 458c-4 2-5 9-2 13 3 2 6 2 9 3 0-5 2-10 0-13-2-2-3-1-4-1"/><path fill="#E0B26A" d="M358 123c9 13 30 39 39 59-3-3 1-9 2-8-30-35 3 1-42-54"/><path fill="#281519" d="M444 291c4 3-6 6-5 11 2 1 0-5 3-5 1 3 5 3 5 5-1 7-5 10-6 14l-1 2-3-2c1-2 1-5 0-11 0 4 0 9-4 4 2 3 3 5 4 8 6-2 6-7 10-9-1 7 3 15-1 18-7-4-9-7-3 2l-2 1-1-1-2-2c-1-2-4-3-4-5 3 6 4 12 6 18-2-3-1-7-3-10 7 4 14 7 20 4 10-2-12 4-14-4v-1h4c10 3 20-1 18-1-2-5-9 5-17 0-3-11 3-15 3-19 0 0-2-2-3-7 6 3 2 1 6-4-5-3-8-1-8-4"/><path fill="#6E4C3B" d="M337 327c1 2-1 6 1 9-9 24-18 12-24 31-2-3-5-3-6-2l-1-2v-1l1-2c2-6 3-14 7-16-5 4-4 9-9 16l1 2v1l1 2c1 1 5 7 10 7 2-18 19-24 20-33l3-3v-3c-3 6-4-2-3-4"/><path fill="#BBAF90" d="M400 281c6 9-2 8-3 12 8 2 18 0 25 9-5-8-12-15-19-19"/><path fill="#411D2A" d="M448 300c6 8 1 11 0 16 4 3 6 5 8 5 6-9-4-19-6-19"/><path fill="#563E3C" d="M396 197c1 6-1 11-2 16 5 8 7 10 12 7 1-17-8-9-9-20"/><path fill="#D4CFAF" d="M104 286c0 7 5 12 7 18 4 4 7 7 11 6-6-7-7-17-16-22"/><path fill="#9F7348" d="M223 323c4-1 10-2 12 1 0 5-1 8-2 11-4-5-11-3-10-10"/><path fill="#5C575A" d="M350 292c-5 3-15 4-21 7-2 4-3 7-4 9 4-14 32-5 27-16"/><path fill="#8C9083" d="M257 194c-6 9-11 17-15 26 4 9 0 21-3 22 16-27 0-16 18-48"/><path fill="#D8D4B7" d="M317 450c-15 2 8 12 2 15 3 4 3 0 6 0 6-3-1-9-5-12-1 0-2-2-4-1"/><path fill="#5E5E60" d="M346 240c-6 2-11 7-7 14 3-5 12-4 18-3-6-2-5-8-12-10"/><path fill="#D8D4B6" d="M300 448c-9 1 1 6 0 25 4-4 6-6 7-11-3-9-5-10-7-15"/><path fill="#CB9658" d="M470 243c-4 3-11 2-11 1-1 26-6-6-6 13 6 2 8-2 11-2 2-5 3-8 5-11"/><path fill="#D7CEAC" d="M371 248c-7 3-18 7-29 5 8 4 41 7 29-6"/><path fill="#A8774A" d="M253 288c-10 5-6 6-9 14l6-3c6 2 0 13 5 8 6-3 3-9 1-13-2 0-4 0-6 2-1-4 2-4 2-5"/><path fill="#605959" d="M448 289c4 5 4 3 11 9 4 2 18 4 26 0-1-6-23 1-37-9"/><path fill="#D7D3B3" d="M227 178c0 11-11 12-10 20 4-1 6 2 10 1-1-8 1-13 2-18"/><path fill="#84B7B9" d="M209 346c-10 7-26 1-36 3 4 4 15 1 15 6 10-3 18-4 24-8"/><path fill="#B2AC90" d="M333 190c1 6 1 11 4 15 5 0 9 1 14 3-4-8-12-9-16-16"/><path fill="#576265" d="M190 246c-3 7 4 28 0 31 5-1 10-3 14-3-2-7-5-2-9-6-1-8-5-12-5-22"/><path fill="#666464" d="M340 257c0 11-13 10-21 24 6-12 40-17 25-22"/><path fill="#BCDEB7" d="M475 174c-3 6-8 9-8 13-2 5-1 9 1 10 5-5 7-14 6-21"/><path fill="#484942" d="M234 361c-6 3-6-2-8 11 0 2-2 4-3 6 9 3-2 5 4 10 4-1 7-3 9-5-4 2-8-4-10-4 4-9 1-7 11-13 3-7-3 0-4-4"/><path fill="#CC975A" d="M306 370c0 6-6 7-5 12l2-4c4 3 4 5 6 10 4-4 4-10 10-11-5 2-8-2-10-6"/><path fill="#D5D0B1" d="M196 249c0 9 11 19 17 23-4-9-9-16-15-21"/><path fill="#DCD6B2" d="M378 249c-3 8 18 9 24 7-5-3-13-5-21-6"/><path fill="#3F3138" d="M380 385c10-3 7 10 7 15-5-3-7-8-8-12"/><path fill="#3A2C33" d="M390 383c-3 7-4 3-9 3 0 7 1 10 4 14-3-24 11 5 6-15"/><path fill="#816F65" d="M329 455c5 3 0 11-3 15 2 0 3-1 4-4 6 2-2 7 1 6 6-7 7-1 6-11-1-4-4-5-5-6"/><path fill="#451C28" d="M444 333c4 5 2 12 9 12 3-6 3-7 4-9-3 0-7 0-11-2"/><path fill="#725F5F" d="M444 439c2 7 6 12 9 17 3-8 6-4 5-9-6-12-3 6-11-8"/><path fill="#D9A966" d="M483 161c-2 4-6 6-8 10 0 1 2 3 3 4 4 0 14-14 6-12"/><path fill="#5B5458" d="M175 437c2 8 9 18 0 25 8-10 6-7 13-12-2-6-8-4-11-12"/><path fill="#422F31" d="M385 362c2 20-12 12-12 18 7 5 9 1 11 0 2-3 3-9 1-14"/><path fill="#A9A890" d="M241 223c-2 2-3 11-9 8 0 2 1 4 0 8v-4c1 4 8 2 8 7 6-22 2-3 0-17"/><path fill="#E7E4C9" d="M226 207c-5 8-8 21-3 31 3-4 7-28 2-28"/><path fill="#B03933" d="M441 332c-2 9 5 15 5 23 2-3 3-5 4-8-6-3-4-10-8-13"/><path fill="#263539" d="M329 359h-3c-1 2-2 5-1 8 3 0 3 0 0 1 1-3 2-4 4-5 2 3 4 5 2 7 2-1 21-17-3-9"/><path fill="#D1C9A7" d="M324 227c-5 3-10 3-14 6 7-5 34 5 20-7h-4v1"/><path fill="#6C5245" d="M309 285c-13 6 2 5 7 7 3-2 4-4 5-6-4 0-8-1-11 0"/><path fill="#664B43" d="M467 181c-4 1-7 2-11 1v16c3-6 6-11 10-17"/><path fill="#AFCFAA" d="M358 307c-4 1-6 2-9 4-4 4-4 7-3 12 0-10 17-10 14-16"/><path fill="#7A736F" d="M481 201c-6 3-16 22-9 23 3-2 4-14 10-21"/><path fill="#C28D56" d="M311 339c-5 7-6 14-11 19 4-4 1 4 3 4 3-7 6-14 10-21"/><path fill="#46271E" d="M484 245c-12 8-10 16-19 22 6 4 7 3 9-1 2-7-1-16 8-18"/><path fill="#80928A" d="M198 192c-2 11 3 19-1 32 3-6 6-14 7-14-4-5-4-12-7-16"/><path fill="#AED9BB" d="M162 255c5 0 8 5 12 7 6 0 8-3 11-4-5-1-13-3-20-2"/><path fill="#997150" d="M173 391c1 9-1 20 3 28 4-5 1-16 7-19-5 7-7-3-7 3-2-3-3-7-2-10"/><path fill="#8A8C82" d="M104 298c2 9 4 12 6 17-1-5 4-2-2-10 10 8 23 14 25 14-9-13-11 0-22-13-2-7-5-1-7-6"/><path fill="#3D3138" d="M286 382c7 0 4 12 1 14-3-5-3-8-2-13"/><path fill="#B7AF92" d="M409 171c4 8 4 19 10 26 2-4-3-17-7-24"/><path fill="#B8D9B5" d="M349 225c-11 5 4 10 9 7 0-4-3-5-8-6"/><path fill="#DAD2B6" d="M422 450c-4 3 1 10 3 13 9-5-1-12-1-11"/><path fill="#BC8C59" d="M359 127c-1 12-1 24-2 36 3 17 8 39 13 45-4-11-8-22-10-34-2-14-3-48 4-45"/><path fill="#C08D56" d="M396 171c3 12 0 13 6 25-3-5 4-11 1-13-2-8-4-9-7-9"/><path fill="#C69256" d="M418 217c0 5-8 5-1 7-10-2-2-3-9-1 0 2-2 4-5 5 4-4 8-1 16 1 0-6 5-10 1-11"/><path fill="#62866B" d="M251 301c-7 2-9 8-7 15 5-4 7-8 7-13"/><path fill="#9D714C" d="M271 316c5 6-2 8 5 8 8 3 14 8 19 1-6 4-15-4-21-6"/><path fill="#7F786E" d="M450 220c-1 4-1 12 3 13 1 7 5-2 6 6 21-16-12-3 8-17-10 0-6 2-13 8-4 0-3-5-4-9"/><path fill="#E5E4C7" d="M256 194c-9 4-12 10-19 14l-1 3-2 2c0 3-5 7-3 11 4 1-4-5 6-14 3 6 4-8 11-7-6 13-10 16-12 26 4-7 8-15 12-23 2-7 2-6 6-9"/><path fill="#58413C" d="M470 234c-5 1-9 3-9 7 6 4 7-4 11-1 2-2 0-3 0-5"/><path fill="#ABB29B" d="M205 224c-5 1-1 5-4 8 2 8 9 9 10 15 0-9-7-13-6-22"/><path fill="#CFC6A5" d="M327 215c-5 1-10 2-15 4 5-3 7 4 11 4 2-3 7-6 6-8"/><path fill="#D6A361" d="M302 358c-8 5 5 8-1 19 1-4 5-1 3-6 8 1 6 3 12 5-8-7-13-14-15-16"/><path fill="#718F90" d="M197 290c4 1 12 1 17 3-7 3-13 2-18 0"/><path fill="#72615D" d="M311 456c4 3 0 5 4 8-4 0-4 4-9 9 8 2 5-6 13-3-1-5-3-9-5-12"/><path fill="#735A4B" d="M379 227c2 11 10 11 8 19 2-2 6-5 3-7-4-5-6-7-10-9"/><path fill="#86ACA7" d="m165 226 6 15c-23-28-11-1 8 12-10-11-3-11-13-27"/><path fill="#646969" d="M278 236c6 7 7 9 9 21-3-8-8-11-10-17"/><path fill="#372C32" d="M410 282c5 10 16 17 22 29-3-16-15-17-18-27"/><path fill="#423238" d="M390 383c4 0 4 8 4 11-5-1-8-6-7-10"/><path fill="#D1C6A7" d="M183 434c-11 4 7 11 9 13 0-6-7-7-7-11"/><path fill="#918D7B" d="M444 172c0 4-3 8-4 12-1-2-9-1-10-7 2 4 4 7 7 7-1 5 3 8 1 12 3-8 7-13 7-23"/><path fill="#767D78" d="M319 234c-4 1-9 0-11 3 1 3 3 2 4 3 1-4 27-4 8-7"/><path fill="#97876F" d="M243 367c-8 5-10 2-14 9 9 2 8-2 12-6"/><path fill="#392E33" d="M401 313c3 5-5 20-6 24 4 1 7-12 9-14 2-6-4-5-2-10"/><path fill="#4A4A3F" d="M268 480c6-1 15-1 21 0-8 2-14 2-20 2"/><path fill="#89AFAB" d="M333 241c-6 1-12 3-17 4 5 6 13 1 18-2"/><path fill="#BA8B58" d="M449 271c2-1 23 10 22 4-7-3-9-2-19-6"/><path fill="#9C7450" d="M453 263c11 21 16 2 21 15-2-9-11-6-10-12l-2-1h-1v1"/><path fill="#504B51" d="M377 237c-1 4-12 9 8 9-3-4-4-7-6-8l-1-2 1 2-1 1"/><path fill="#DBD6B5" d="M209 233c-3 5 3 8 4 11 3-3 1-6 3-8-2 0-3-2-5-1"/><path fill="#F3F0DA" d="M483 239c-8 3-15 9-14 18 2-7 10-11 14-16"/><path fill="#63757A" d="M115 326c9 3 20 15 23 11-3 1-11-10-20-11"/><path fill="#9A8C7A" d="M164 439c1 0 6 15 9 14 1-15-3 1-5-17"/><path fill="#291815" d="M372 146c1 3 4 9 7 13 7 15 14 28 15 43 0-15-7-28-13-41 6-2 20 38 12 18-6-13-13-22-20-31"/><path fill="#62826D" d="M237 352c-4 1-11 4-5 9 3-4 7 3 7-11"/><path fill="#435354" d="M283 221c-4 2-5 6-7 9 5 1 3-2 4-3 2 3 3 5 5 7 1-5-1-8-3-12"/><path fill="#745643" d="M432 223c-8 4 8 12 12 12 0 0-9-6-9-10"/><path fill="#A4AF93" d="M423 157c5 8-2 22 10 26-2-3-6-13-9-25"/><path fill="#6D9778" d="M286 279c-1 8-6-2-14 4-3 11 21-3 18-4"/><path fill="#3A2E35" d="M452 457c-3 3-4 8-4 9 12 0 13-10 5-8"/><path fill="#D8D6BA" d="M325 447c-1 11 11-1 16 16-1-9-10-16-13-16"/><path fill="#5E3125" d="M472 257c8-1 1 12-1 12-3-4 1-6 1-9"/><path fill="#88887F" d="M234 236c-3 4-3 15-2 19 1 5 0-3 1-4 3 2 5 5 7 8-3-7-7-15-6-22"/><path fill="#8D9080" d="M193 209c-7 9 1 3-1 24-13-17-22-27-9-3 3-2 4 3 6 3h4l-1-1c1-7 2-17-1-23"/><path fill="#9E744F" d="M501 138c-1 9-15 14-8 21 3-6 5-13 9-19"/><path fill="#8F9080" d="M217 245c-12-1 9 16 9 11 3-2 1-4 1-7-2 1-2 4-5 4-4-1-7-4-7-7"/><path fill="#7CA5AB" d="M127 339c5 4 13 10 23 12 4 0-13-3-16-7 11 1 20 6 32 4-14 1-25-7-38-8"/><path fill="#8AAAAC" d="M386 258c5 4 12 8 19 6-5-3-11-4-18-5"/><path fill="#918878" d="M470 206c-2 12-11 24-13 25 10-10 16-20 15-25"/><path fill="#372B33" d="M287 382c-3 3-2 8-1 12 3-2 4-5 3-10"/><path fill="#668E71" d="M277 280c0 6-10 2-12 10 15 0 7-7 15-9"/><path fill="#251411" d="M423 249c5 1 11 2 15 6 2 5 2 15-2 12 4 1 6 1 7 0 3 2 6 2 8 1 2-3 2-5 3-7-1 3-5 8-8 5-4-3-6-5-7-9v-1l-1-1-2-2c-3-3-8-3-11-4"/><path fill="#8DAA9E" d="M212 181c-3 5-5 11-6 17 1-2 2-5 3-8 4 4 0 12 4 11 2-3-4-19 0-19"/><path fill="#7E8D8B" d="M195 256c2 6 10 15 12 16-3-5-6-10-10-15"/><path fill="#797A70" d="M476 181c1 10-5 17-6 25 8-7 4-10 7-23"/><path fill="#73523D" d="M418 205c1 2 0 5 3 6-6 2-4 7-11 9 30-13 15-6 10-10"/><path fill="#968977" d="M420 195c-3 6 1 9 9 11 1-6-8-2-8-10"/><path fill="#8C8D80" d="M217 201c2 2 2 6 4 8 1-2 3-4 4-6-2-2-3-3-6-2"/><path fill="#ACA48A" d="M310 219c2 5 10 7 15 6-3 1-8-8-12-4"/><path fill="#AF9F87" d="M164 433c5 8 7 16 10 11-1-3-4-11-6-10"/><path fill="#686361" d="M336 221c-13 5-1 7 8 4-2-2-5-4-7-5"/><path fill="#8F694C" d="M311 291c4 3-4 13-4 18-1-2 11-12 7-18"/><path fill="#30252E" d="m269 348-1 1c-3 2-3 6-5 9 0-4 18-12 9-10"/><path fill="#B5AE95" d="M258 239c3 4 3 12 9 13-1-5-4-8-8-12"/><path fill="#2E2525" d="M360 350c-3 2-7 4-10 6 5 0 13 2 10-5"/><path fill="#84B0B6" d="M357 348c-7 7-16 7-25 9 10 1 19-1 25-8"/><path fill="#CCC2A2" d="M167 323c5 0 10 4 15 3-4 2-9 1-13-1"/><path fill="#D29D59" d="M438 236c2-2 10 3 7 6-3 0-5-2-7-4"/><path fill="#D5A161" d="M410 243c3 4-4 8-6 10 1 3 4 4 4 5-4-2 0-5-1-8 4 7 4 5 10 9-4-3-4-12-7-8 1-5 5-2 1-7"/><path fill="#87AFAE" d="M185 282c-6 2-11 6-16 8 10 5 38-10 4 1 3-4 7-5 9-8"/><path fill="#C4BB9A" d="M423 190c2-1 7 4 5 7-5 1-5-3-6-4"/><path fill="#D5D6B6" d="M230 260c-2 3 20 3 20 13-5-10-10-9-19-13"/></svg>