<svg xmlns="http://www.w3.org/2000/svg" width="600" height="600"><path fill="#7D7871" d="m357 149 2-2c21 6 53 8 69 7 15 2 31 5 45 12 3-2 10-10 13-6 9 4 12 11 15 17-5 0-10-3-15-5 14 6 29 13 37 28 10 22 19 48 11 33 19 19 44 36 16 53-11 5-3 4-12 10-10 0-14 1-20 0-15-3-26-9-37-15 5 3 11 6 17 8-22 0-40 5-58 1-5 5-12 14-18 19 3-2 5-6 9-8-10 12-9 28-8 44 2 20 8 39 13 54 6 11 20 5 28 11 9 6 18 12 23 18-10-8-9 10-26 3 0 3 0 4 2 6-19-2-44-5-65-7-5-7-3-13-5-18-10-7-21-15-29-25-12-13-12-31-16-44 16-4 33-11 48-21-15 10-32 15-49 20 1-11 4-21 11-29-9 11-14 24-17 38-3 21-4 43 4 60-2 2-4 1-5 2 10-2 17 3 26 5 11 6 18 12 25 19-7-6-29 9-31 1-6 1-2 0-4-2-3 5-12 0-6 8-8-3-11-6-15-8 4 3-3 5-5 4-11 1-20 1-28-2-10-8-4-22-12-28-8-10-17-20-23-31-7-10-10-20-14-29 3 8 5 16 9 23-9-1-15-1-23 0 3 0 8-2 9 1-13 5-22 10-33 12 8-7 19-23 21-29-6 10-13 19-22 26-14 12-27 19-41 25-5 1-8 0-10 2 2-1 5-1 8-2 0 2-2 3-3 5-4 1-7 3-9 1h7c8 0 14 2 19 4 10 8 16 12 22 21-7-1-19 1-30-1 0 4 9 11 3 12-5-5-10-7-14-10-10-1-11 2-12 8-1-4-5-4-5-6-12-5-31 3-38-10-11-23 1-46-4-68 0 7 1 15 1 23-11 1-19-1-26-2-14-2-24-6-34-13-9-8-14-14-15-24-2-6 3-13 1-24 6-5 3 6 10 1 2-19-2-21 6-42 4-1 3 4 4 4 3-5 3-10 5-12 15 11 19 26 31 36 16-25 21-41 36-65 13-18 27-30 44-41 22-12 45-19 68-23 34-7 52-3 86-1-5-2-9-5-13-8 17 3 31 1 27-5l-10-10c10-1 21 2 31 1 6 1 8-1 11 1-7-6 1 1-9 0 1-6-2-7-3-10"/><path fill="#F4F4E8" d="M373 152c1 5 7 4 12 8-102-3 2 10 36 6-11 3-25 0-36 5-9 9-13 18-11 30 2 6 6 10 11 10-7 3-14 3-19 8 14-1 26 3 33 11 7-2-2-8-1-15 4-1 9-3 12-6 1-5 2-11 4-15 4-7 4-15 12-15 26 9 45 24 72 29 13 11 21 24 28 35-3-7 7-1 5-6-6-13-18-30-28-44-12-12-21-21-33-27-30-12-64-7-94-13"/><path fill="#1C171B" d="M434 295c-5 9-13 16-20 20-19 5-34 23-64 27 2 17 4 21 6 28 6 13 20 29 35 37-4-4-6-9-7-14 8 0 11 1 18 5 1-5-4-10-3-15 9 5 11 12 17 16-1-8-3-13-2-22 8 4 10 9 14 14 2-12-10-40-6-69 2-12 7-15 10-25"/><path fill="#201A1E" d="M208 364c-1 2-3 5-5 7-10-3-20 10-31 12-11-2-28-12-36-14-9-4-16 2-24 0-1 11 0 24-3 34 3 9 10 13 11 19-3 6 0 10 0 14 5 6 20 0 26 4-1-1 1-5-2-6-2 5-13 1-18 0-3-7-10-5-7-10 15 1 13-8 22-10-3 0-7 2-10 0 18-6 35-6 47-16 12-8 18-16 24-24 3-4 4-6 5-8"/><path fill="#434142" d="M158 322c4 9-5 6-4 10-2-1-4-4-5-4-26 1-44 9-11 37 13-4 27-3 36-4 10 1 12 1 22 6 0-6 0-1-5-4 10-4 9-1 16-2 6-13 7-21 9-35-7 0-7 5-20 12-3-6 2-3-1-7-8-6-12-2-16-6 5 0-1 9-2 15-1-5-1-9-2-13-6 5-14-2-16-3"/><path fill="#E1E1D3" d="M411 209c-3 4-8 5-12 6 4 12 3 11 1 14 26 13-2 7 17 15-9 0-19 1-21-7-48-1 28 16 39 29 8 3 2 3 2 4 5 2 4 4 7 7 4-2 11 1 15-2-3-2-3-5-6-7 23-2 33 10 45 7-18-9-22-38-46-38-1 6 2 11 0 17-10-20-37-20-40-43"/><path fill="#434142" d="M327 322c-21 3-59 2-71 3-6 9-1 18 1 27 4 7 14 6 25 7 5 2 5-2 13 1-3-4-5-6-7-9 12 5 15 4 20 6 6 0 10 1 17-2-2-11 13-34 7-34"/><path fill="#F5F5E7" d="M222 188c-17 4-32 8-47 17-5 9-11 17-15 25-5 14 3 10 1 19 19 2 37-7 52-9-2-17-1-36 8-52"/><path fill="#847369" d="M380 278c-1 3-2 3 1 9-8 8-16 17-22 26s-9 17-12 25c24-6 45-16 62-24 8-2 37-30 20-18-1-2 1-3 3-4-3-2-7-1-10-3-9 2-16 5-23 8 4-5 10-7 17-9-12-5-24-10-36-8"/><path fill="#E4E4D7" d="M322 238c-1 4-33 11-32 7-2 11 0 20 0 27 3 9 7 14 11 20 10 4 19 2 27 3-1-3-8 0-10-4 15-2 25-4 39-9-7-2-14-9-17-15-9-14-10-19-15-29"/><path fill="#98998D" d="M305 190c-30 3-60 3-87 13-2 7-4 23-3 33 18-5 38-2 56-8 2-9 9-5 13-9l-1-2-1 2c-5-4-12-9-13-16 4-5 33-8 40-14"/><path fill="#5F5D58" d="M158 272c-5 8-21 1-25 4-12 2-11-4-16-2-2 3-2 2-5 6-3 11-1 22 0 29 13 5 23-1 40-9 39 8 41-1 23-30-6 3-10 6-14 10-2-2-6-3-3-7"/><path fill="#F2F2E4" d="M331 181c-9 3-21 2-29 0 3 6 10 6 14 9-15 8-29 10-43 12 12 7 26 7 39 6-14 15-18 13-28 14-12 13 0 5-9 23 6-3 10-4 13-6-2 10 3 3 5 7 7-5 14 2 24-7 2 5 4-9 11 2-4-9-4-19-5-29 1-13 6-24 10-32"/><path fill="#4F4D4B" d="M152 299c-16 21-54-2-33 36 16-1 30-10 36-6 1-12 10-9 9-23 2 8-1 19-4 22 3-3 12 1 14-1 3 1 1 2 2 4 1-2 1-4 0-7 7 0 6 4 3 4 7-1 4-4 16 1 2-11-1-22-6-26-13-2-21-3-35-2"/><path fill="#E3E3D5" d="M211 240c-16 6-32 10-49 10-2 10-2 17-1 25 5-4 10-13 15-23 2 15 7 27 12 41 11 3 4-7 10-9 3 5 8 7 13 9l2 2-6-5c31 7 2-26 4-47"/><path fill="#383638" d="M255 349c3 12 8 22 15 32-3-3-3-8-4-13 10 9 19 20 29 28 4 4 5-1 4-6 8 3 12 7 16 10 2-6 12-24 11-49 2 7-9 7-12 7-13-1-11-2-26-6 4 4 6 1 7 6-10 4-12 2-32 1-1-3-8-2-8-7"/><path fill="#9B9C90" d="M387 168c-31 7-34 6-54 20-5 11-7 17-6 33 21-1 14-3 43-12 7-6-2-6 1-15-4 2-6 1-9 0 13-7 14-20 23-25"/><path fill="#D1CDBF" d="M197 286c-1 5-2 5-8 9 4 4 3 11 8 12 1 9 2 18 1 26 9-5 15-12 18-22 3 12 2 24 0 32 5 3 10-6 14-4 7-10 4-24 8-35-6-5-8-12-13-14-4 0-8-1-10 0-7 1 1 5-3 7-6-6-17-4-13-10"/><path fill="#2A2225" d="M107 303c2 19-12 40-16 51-10 3-18 9-27 4 4 5 4 7 9 10 12 4 18-1 32 4 1-9 1-17-3-23 5 5 8 12 7 16 0 13 1 27-1 36 3-10 2-22 3-33 16-2 25-4 40 7-9-5-19-11-26-21-10-16-13-33-18-49"/><path fill="#514F4D" d="M254 287c1 7 7 7 10 5-4 11-11 23-8 32 15-4 50 4 61-7-2-2-8-1-13-3-8-7-9-16-11-22-12-4-25-2-38-3"/><path fill="#695E58" d="M415 378c2 15 4 10 3 24-8-5-9-8-16-15 0 5 2 8 2 13-31-20-8 6-6 26 7 4 16 5 26 4-4-12 6-15 3-16 8 0 2-7 11-8-9-16-20-16-20-25"/><path fill="#D2CFC1" d="M358 282c-7 5-17 6-27 8-8 3-3 2 0 4-14 3-27 1-35-2 2 7 3 14 7 18 7 2 16 5 24 2-4 5-7 7-10 9l-2 1 2-1c9-2 17-4 24-7 8-11 19-23 21-32"/><path fill="#5F5E58" d="M270 256c-12-2-26 8-15 33 14 0 27-1 36 2-3-4-8-8-10-13 7 5 9 5 15 11-8-7-8-21-11-31-6-2-12 0-16-2"/><path fill="#DEDECF" d="M62 285c3 11-1 16 4 26-18-29-20-6-17 17 12-5 30 2 43-4 0-6 2-10 4-13-2 3-5 3-7 5-2-10-18-19-24-29"/><path fill="#95857A" d="M380 264c-1 5 22 3 26 9-3 2-8 0-12 2 15 5 30 11 41 12 18 0 35 4 50-2-4-1-8-5-12-7 2-6 7-2 10-2-3-1-5-3-7-3-20-4-8 8-29 7-12 2-14-13-20-14-20 2-24 1-44-3"/><path fill="#1E181C" d="M378 289c-5 4-11 8-16 13-9 5-20 13-22 17-15 22-12 55-20 80-3 3 0 6 4 7 0-9-2-20 2-26 6 7 10 14 14 20-4-20-2-43 4-61 4-15 12-25 20-36 4 0 7-10 13-12"/><path fill="#6B6A61" d="M274 233c-19 2-37 9-57 9-4 5 1 12 0 16 11 2 21 3 32-1 3-2 4-5 5-9 3 4 0 6 1 10-3-1 6-1 9-1 4-5 13-24 10-22"/><path fill="#5E5D57" d="M366 246c-10 3-18 4-31 3 3 11 8 21 16 28l3 1-3-3c5-2 59-20 13-29"/><path fill="#D3D1C2" d="M91 325c-13 6-30-2-41 5 1 7 5 14 12 17-1-5 13 7 19 7 14-5 11-18 11-28"/><path fill="#E1D4B0" d="M272 181c-16 1-31 3-44 5-6 5-9 10-9 15 15-14 105-5 74-21-10 1-15 3-19 0"/><path fill="#94867A" d="M36 329c2 18 2 19 0 26 6 12 18 19 24 21-5 0-3-8-8-12 5 0 10 3 15 4-1-4-4-8-7-11 5 0 13 2 19-1-9-1-23-6-31-18 1 1 0 3 1 4-4-5-10-8-11-11"/><path fill="#696861" d="M137 250c-6 19-18 3-20 27 10 1 25-5 37-2 8-24-6-21-17-22"/><path fill="#3B383A" d="M125 351c2 5 5 9 10 12 8 6 15 11 23 13 9 2 15-1 19 0 13-7 19-9 31-13-27 2-34-3-73 1-3-3-7-7-9-11"/><path fill="#615F59" d="M246 259c-9 3-17 2-28 2 1 8 8 25 16 34 8-4 8-27 16-36"/><path fill="#837369" d="M237 341c-7 8-17 18-28 22-2 12-19 22-11 28 7-2 15-10 25-20l-1 4 2-3c7-14-2-3 15-31"/><path fill="#D7D6C8" d="M528 269c4 4-3 3-1 5-10-2-29 3-37 2-4-2-10-3-12-6 3 5 7 4 10 8 8 5 17 10 26 12 13 3 25-10 15-19"/><path fill="#221B1F" d="M103 349c4 6 4 15 3 24-29-7-29 0-49-6 2 7 4 5 8 11 34 14 53 10 38-31"/><path fill="#605F5A" d="M451 213c-3 6 1 12-1 20 10 3 16 5 27 14 0-6-1-12 1-17 0 5-4 0-6 0-10-7-14-16-21-15"/><path fill="#2F2729" d="M248 272c4 18-8 21-8 29 3 1 0-3 2-5 4 15 7 28 10 36-1-12 3-23 8-34-6-5-11-15-11-24"/><path fill="#1E1618" d="M484 247c-1 3-2 5-1 10s6 9 11 12c11 8 20-1 30 2-1 0-3-1-4 0 5-7-9-9-8-18 2 5-2 12-9 12-17-5-11-22-18-16"/><path fill="#95978C" d="M303 393c-2 11 7 15 13 19-3 3-7 1-8 5-3 8 0 15 7 16 1-7 3-13 10-17-2-9-12-16-21-21"/><path fill="#A09284" d="M392 248c1 4 10 6 14 6-46 23 2 4 31 15-12-6-23-12-39-20h-3"/><path fill="#6C6A63" d="M370 232c-1 3-8 6-12 8-13 1-21 1-30-4 1 2 4 13 5 13 13-1 22 0 31-4-1-5 19-9 7-13"/><path fill="#898A80" d="M374 207c-18 8-29 16-45 13-3 2-2 4-3 5 11 10 24 4 36 3-4 0-8-2-11-4 7-10 24-11 26-15"/><path fill="#6A6962" d="M423 189c16 5-4 4-6 9 7-4 15-5 22-1 7 5 10 11 11 17 7-6 12 13 25 17 4-4-1-9 4-10-1 1-3 0-5 1 1 3 3 4 2 7-2-3-5-4-4-8-8-5-2 5-8 1-9-10-8-19-15-29-9 0-15-3-20-2"/><path fill="#AC9A8E" d="M546 253c-3 4-9 4-8 17 8 3 17 1 23-3-2-7-9-10-12-13l-1-1h-1"/><path fill="#7A7971" d="M325 224c3 5 1 12 9 14 11 2 26 3 34-6-8-6-18 1-28 0-6-2-12-1-14-7"/><path fill="#6A5E58" d="M327 381c-4 8 0 24-4 28 5 7 12 0 15 3 3-13-10-21-9-29"/><path fill="#6C5C54" d="M250 352c-10 5-14 8-20 19 9-2 19-2 28-1-2-7-5-11-7-19"/><path fill="#1A1619" d="M269 373c6 21 11 20 23 37 0-2-3-6-2-8 5 5 11 7 14 9 0-8-24-23-32-36"/><path fill="#83877E" d="M462 200c10 9-6 5-2 13 8 4 13 8 20 3-11-11 12 0 1-12-4 0-11-3-16-4"/><path fill="#675B55" d="M291 404c4 9 7 18 8 29 6 4 11 6 16 6-3-4-11-8-11-15-1-7 3-12 8-12-16-17 4 15-21-8"/><path fill="#838479" d="M165 217c-8 2-16 10-19 14-5 9-5 8 0 13 2 0 4 3 7 1 1-12 6-21 11-26"/><path fill="#85746A" d="M243 324c-3 0-2 7-6 5 3 7 3 16 0 25 2-11 12 1 11-12 3 2 4 4 5 6-2-7-4-21-8-23"/><path fill="#3A3232" d="M488 224c-12 3-9 12-9 25-1-17 14-4 5-14 4-2 6-4 9-3 13 6 22 12 27 23-3-9-10-17-17-24-7-4-10-4-14-6"/><path fill="#D7D3C0" d="M272 201c0 13 20 18 24 19 3-3 8-6 13-10-13 1-26 0-37-6"/><path fill="#312625" d="M431 196c-2 7 0 14 4 18 3 4 8 1 11 0 1 5-2 7-1 11 1-3 0-7 2-9 0-6-2-8-3-12-6-4-7-6-11-6"/><path fill="#3D3331" d="M448 215c-1 3-1 7-3 10-2-3 0-5-1-9-8 0-13 8-23 0 5 5 10 7 15 9-3 3 1 8 2 10 9 2 7-9 10-19"/><path fill="#71655D" d="M108 404c-2 10-2 23 8 31 2-5 2-10 1-15-3-6-7-10-9-14"/><path fill="#6B6B65" d="M511 225c-20-1 7 23 16 23-3-2-11-18-17-23"/><path fill="#E5D9B4" d="M175 205c-13 7-25 17-36 29-12 12-19 27-22 34 7-13 18-25 27-38 10-12 23-14 30-25"/><path fill="#C1BCAF" d="M235 338c-7 6-7-3-13 7-3-2-8-3-6-5-1 6-3 13-5 19 11-3 14-11 23-20"/><path fill="#1B1211" d="M487 233c-1 4 1 5 0 9 0-4 1-6 4-7 4-3 6 2 7 0-2 4 4 9-4 12-2 6 2 7 2 11 2-3 3-1 12-15-2-5-6-5-7-7-4-2-6-3-9-2l-2-1h-1v1"/><path fill="#77776E" d="M274 232c-21 0-42 2-60 8 20 1 39-4 57-8"/><path fill="#8A796E" d="M378 285c-5 1-9 5-13 4-7 7-12 13-16 20 10-6 23-19 29-22"/><path fill="#E8E8DB" d="M533 239c-16-2-1 9 3 16 4-1 5-2 7-3-4-6-7-9-9-14"/><path fill="#BEB7A7" d="M360 220c-4-1 44 16 45 16-5-4-18-9-19-13-8-3-28 1-22-5"/><path fill="#605F5B" d="M517 245c7 8 3 16 12 19 0-3 4-3 5-6-6-4-9-16-15-10"/><path fill="#696761" d="M283 243c-3 4-11 6-13 12 3 2 10 0 15 1 0-3 1-12 0-13"/><path fill="#7A7A71" d="M145 231c-10 11-1 17-19 22 8-8 14 2 14-4 3 2 2 3 1 4 5-2 9 1 12-1 1-3 1-5 1-8-5 5-10 1-12-3-5-3 7-10 3-7"/><path fill="#9B8C7E" d="M99 308c-5 9-4 21-5 32 4-5 6-10 6-13 3-9 2-16-2-17"/><path fill="#2B2224" d="M380 263c-30 29 6 7 15 10-4-3-11-2-17-4-3-3 0 0 0-2"/><path fill="#292224" d="M135 417c0 12-30 2-9 15 5 3 12 3 17 3-1-9-10 0-16-8 4-5 9-8 14-5-3-2-5-1-6-2"/><path fill="#282327" d="M205 364c-2 3-5 3-7 5-7-1-11 8-19 7-8 0-17 4-24-1 3 6 13 4 15 7 10-3 19-9 26-12 4-2 9 2 4 4l-1 2 2-2c3-3 1-3 5-9"/><path fill="#5F5C56" d="M425 196c-5 0-8 5-7 10 4 5 9 3 11 8-2-6-4-12-1-17v-1l-1 1"/><path fill="#312822" d="M426 423c-1 3-1 6 1 7 12 3 18 3 26 4-4-5-3-2-6-2l-1-3 1-1h2l-1-1-1 1v2l-2 1-1 2v-1h-2c-11-10 11 0-1-6-5 1-10-1-13-2"/><path fill="#8F7E74" d="M382 278h-3c-5 1-11 5-17 4 2 3-1 8-3 12 3-6 18-11 20-8 3-5 1-1 0-8 12-1 29 6 3-3"/><path fill="#83867E" d="M497 214c-20 1-11 9 9 8-4-5-7-8-10-9"/><path fill="#575551" d="M370 266c-2 8-11 3-18 9 5 6 4 3 12 4 2-4 7-8 7-12"/><path fill="#787A73" d="M459 213c2 3 3 7 6 8 13-8 37 10 44 5-16-4-33-7-48-10"/><path fill="#2B2426" d="M508 241c3 14 11 20 14 28 0 0 1 0 3 1-6-3-5-25-17-26"/><path fill="#393131" d="M249 265c-5 10-7 21-9 33 8-3 7-24 10-34"/><path fill="#A09285" d="M109 288c-5 7-11 18-10 23 6-1 4 8 2 14 3-12 6-23 7-35"/><path fill="#48403E" d="M139 419c12 2 12 12 25 14 1-4-14-5-8-12-4-2-10-1-14-3"/><path fill="#BCB298" d="M424 182c-3 8 5 4 26 9-8-7-16-9-26-8"/><path fill="#472E2D" d="M534 270c2 10 4 10 11 15-3 1-8-2-2 2 5 2 8-1 11-6 0-4-8 0-11-1-5-2-9-4-9-7"/><path fill="#332B27" d="M171 429c-2 3 11 9 16 8 0-2-1-5-2-7-5-2-11 0-12 0"/><path fill="#E1DDCA" d="M342 163c-5 13 13-1 12 10 9-5 5-3 23-6-12 1-25-2-34-3"/><path fill="#98978C" d="M494 184c10 4 18 17 19 19-3-4 0-6 5-6-7-4-14-10-22-13"/><path fill="#382F2F" d="M357 225c9 2 18 11 27 9-5-4-15-8-24-9"/><path fill="#87766C" d="M535 281c-3 6-7 11-15 10 8 1 32 0 15-8"/><path fill="#E3D4B1" d="M482 171c10 8 20 14 31 20-8-9-19-14-29-19"/><path fill="#3D3331" d="M419 220c2 6 8 11 14 13 0-7-7-8-12-11"/><path fill="#898B81" d="M515 198c-6 3 2 6 2 12-1-14 8 4 4-10 0-3-2-2-5-2"/><path fill="#696660" d="M175 261c-4 2-3 6-7 12 4-2 7 1 8-1 1-3-1-6 0-10"/><path fill="#2D2422" d="M331 427c-2 8-6 9-14 10 6 4 12 2 16 1-8-8 4-8 1-10"/><path fill="#F5F5ED" d="M385 237c17-4 12 9 30 7-11-7-13-8-28-7"/><path fill="#E7E1D0" d="M361 149c4 8 14 9 22 11-10-2-10-9-21-9"/><path fill="#1B1617" d="M227 372c-3 5-7 10-12 12 3-4 37-11 9-10"/><path fill="#2D2425" d="M486 238c-6 4-9 9-5 17-1-17 13 2 4-16"/><path fill="#383232" d="M147 415c5 3 8 7 22 3-7-1-12-3-20-2"/><path fill="#EFEFE5" d="M308 255c4-2 10 5 8 9-5 0-6-4-8-6"/><path fill="#56524D" d="M418 208c2 4 6 11 16 9-5-3-9-6-14-7"/><path fill="#786A61" d="M194 388c-6 5-12 13-20 15 3-3 23-7 22-15"/><path fill="#2E2623" d="M152 428c2 4 3 7 4 10 8 6 5-6 9-2-3-1-8-3-11-6"/><path fill="#DDD8C5" d="M343 168c4 8 19 2 22 2-6 1-11-2-20-2"/><path fill="#C1B9A7" d="M60 287c-4 8-1 17 3 20-4-5 0-13-2-18"/><path fill="#E0DED1" d="M537 261c-5 2-9 6-10 12 3 1 4-3 5 2 0-5 2-9 4-12"/><path fill="#241E23" d="M131 371c3 0 6 7 11 8-6 2-9-1-12-6"/><path fill="#928277" d="m239 305-3 30c-2 8-7 12-10 17 3-2 5-10 8-8-3-3 4-3 2-7-1-12 6-22 4-31"/><path fill="#534C47" d="M168 420c7 2 13 8 19 7-3-4-9-7-18-7"/><path fill="#BFB8AB" d="M226 322c7-2 4 6 6 9-4 0-7-4-6-6"/><path fill="#C7C5BA" d="M466 259c5-2 11 1 16 2-6 1-9 0-15 0"/><path fill="#2B2626" d="M354 365c2 6 4 13 8 19 8 12 22 20 29 26-9-6-18-16-26-25-5-7-8-13-10-19"/><path fill="#B6AC9D" d="M451 236c-16-1 4 11-2 15 0-4 3-10 0-13"/><path fill="#584F49" d="M442 407c-19 4-2 5 14 7-5 0-13-2-14-7"/><path fill="#A09D90" d="M343 416c-3 3 9 6 12 7-3-4-5-7-9-7"/><path fill="#3D3837" d="M136 422c-3 1-6 1-9 3 3 6 7 3 9 5-6-4 0-8 2-8"/><path fill="#E3E2D3" d="M464 187c5-1 9 5 14 4-5 6-8 0-11-2"/><path fill="#787871" d="M523 201c1 10-8-1 0 18 1-5 4-11 0-16"/><path fill="#9A9A8A" d="M429 414c5 4 11 5 17 9-3-7-10-9-15-8"/><path fill="#3C3330" d="M166 420c4 15 15 4 21 12 4-4-15-3-19-11"/><path fill="#403631" d="M333 431c1 6 10 6 13 11 1 0-9-13-10-10"/><path fill="#C0BEB3" d="M57 313c4 0 8 7 13 8-4 0-9-2-12-5"/></svg>