<svg xmlns="http://www.w3.org/2000/svg" width="600" height="600"><path fill="#3F6569" d="m329 106 2-2c13 3 25 9 36 17 14 12 23 25 32 38-5-14-13-27-24-37 5-3 11 1 15 4 20 16 32 38 42 57-6-22-21-41-30-61 3-5 10 2 14 5 20 20 28 41 35 64 7 19 12 37 10 58 27 20 69 31 86 55-40-4-72-9-105-11-7 5-11 8-15 13-5 5-9 9-10 14-1 16 4 28 0 42-2 12-5 22-11 31-5 7-12 12-16 18-17 8-41 24-63 28 3 11 10 14 16 20 17-6 20 5 30 5 3 3 4 5 5 6-7 4-11 9-16 9-21 11-36-7-52-6-4-2-9-5-11-8 1-5 2-6 3-8 6-2 8 3 11 3 1-6 0-10-1-14-9 1-16 3-23 4-5-3-1-6-1-8-8 2-18 0-27 1-7 0-10 4-12 6-4 5-3 9-1 12 8 9 21 5 26 18 7 1 11-4 15-2 4 4 7 9 1 11-7 1-15 5-22 6-17-7-33-10-50-8-5-3-6-8-3-11 4-5 8-1 13-3 3-2 4-3 3-6-3-13-11-13-16-16-3-11 5-17 2-23-6-5-11-8-12-15-5-1-11 1-13-2-9 2-16 7-24 8-5-6-15-15-12-24-4 9-9 17-15 23-10 11-17 18-28 22-7 2-8-3-7-6-8 4-13 8-22 7-6-1-6-8-3-10-7 1-15-1-18-9-2-5-1-8 0-11-4 1-5 4-9 4-1-20 21-27 14-38 15-9 28-13 39-19-2 1-6 0-4-4 6-8 12-11 19-15 12-8 23-12 34-16-11-4-21-8-31-16-2-3-5-4-3-7h17c-12-6-24-12-32-24 3-4 10-6 14-3-8-8-19-16-21-26 17 0 29 9 43 13-12-10-23-19-33-28-8-11-14-21-16-31 18 8 29 24 44 37 9 6 17 9 24 15 1-2 0-4 1-6-12-9-27-23-39-37-9-13-15-26-15-42 29 20 52 55 84 76 0-4-5-9-1-12 16 13 28 25 45 29 15 9 27 7 41 4-7-9-34-27-41-45-3-7-9-12-7-18 14 10 25 19 38 25-11-6-18-17-25-26-10-14-18-28-23-43 17 7 26 21 40 33-9-13-18-25-23-39-4-7-8-17-4-23 16 11 21 24 31 36l-3-9c4-3 6-1 9-2 23 9 41 22 61 33-16-18-37-27-55-41-5-6-9-11-11-16-1-4-1-7 2-7 15-2 27 0 37 5 20 7 36 22 51 35-3-4-6-8-9-11 5-1 9 1 12 3-11-16-22-30-30-46"/><path fill="#182635" d="M288 302c0 1-4 12-13 13-7-2 4-8-9-7 7 4-5 7-9 9-18-4-31 9-49 6-11 1-21 2-30-2 9 2 16 7 26 5 16 0 28-5 40-9 4 1 5 3 6 3-5 4 4 4-4 8 9-5 15-14 24-17 0 4-2 7-4 10 2-2 5-2 7-4h4v2c-4 6-9 12-16 16-23 10-41 16-64 24-7 0-11-1-14-2-3-5-3-6-2-8 4-2 35-5 54-13-9 2-17 5-28 3-5-5 3-8 6-9-32 16-74 10-108 25 6 0 8-1 17-2-5 2-9 6-13 6 14-4 28-7 43-8 1 5-9 3-13 7 10-1 23 1 38-7 3 0-5 9 0 6-5 7-11 11-18 13-13 1-23-1-33-2 1 4 5 3 9 5-21 3-46 0-65 7 11-2 38-3 56 0-22 10-46 14-67 26 20-3 45-6 65-12-1 6-7 7-11 11-5 8 1 3 3 5-6 7-8 13-12 18 4-6 7-11 13-15 5-5-3-4 9-13 6 0 1 8 1 9 3-2 5-5 8-7-1 3-3 7-2 8 3-4 2-10 8-12-2 6-1 13-2 17 4-2 14-16 13-22 4 1 9-1 7 7 8-2 16-4 22-8-4 9-23 11-21 15 14-6 20-11 30-18-5 7-21 17-24 19 22-9 37-24 54-31-32 22-7 14-45 35 21-5 34-24 51-32 9-10 5-26 21-30 43-35 2 8 51-31-4 13-6 25-18 32-3 3-4 4-6 4-2-6-4-10-2-12-4 7-10 12-17 18-7 5-12 11-19 12 18-4 33-22 29-13-2 8-8 18-17 27-12 14-26 20-41 23 3 11 12 8 13 19 3-7 4-13 9-18 11 1 17-14 29-16 6-6 9 3 15-3-2 5-6 9-9 13 6 5 12 4 18 3-2 7-14 15-12 15 6-7 12-12 18-16 19-7 33-20 50-28-11 8 5 4-11 13 3-2 6-2 7-5-4 8-4 6 1 7-2 4 0 5-1 7 2-1 3 0 4-1 4-2 8-2 11-4-2 5-6 6-10 9 2 1 9-6 9-2-10 8-22 14-29 20-4 2-7 4-11 3 6-9 13-16 21-23-32 16-49 25-66 36 25-7 35-1 63-15-5 7-15 10-23 14 7 2 18-3 28-8 4-4 5-11 13-14 7-4 3 2 1 3 9-1 7-6 16-8 12-37 11-30-24-10-2-1-3-2-2-5 3-9 7-16 12-22-12 6-24 11-38 11 0-8 4-14 8-18-1-1-3-1-6-2 1-6 5-9 8-13-3-9-6-13 0-28-5 11-14 30-27 43-4-8 1-12 4-23 10-18 1 11 8-5-1-2-2-11 0-17-1 7-3 13-9 17-3-9 2-18 4-27-3 1-1 8-9 10-5 5-11 7-15 7-1-6 1-8 2-10 8-15 14-3 12-16"/><path fill="#0E2F4C" d="M279 192c19 17 33 33 34 34-2 3-7 4-14 3 5 1 7 3 12 2-2 4-5 4-6 7 14-9 6 4 15-7 8 1 1 4 1 6 2 0 3-1 5-1-16 9-22 23-31 33 4-5 8 10 21 15-4-3-5-6-7-10 11-1 16 0 24-7 1 7-5 10-9 12 3 2 5 0 8-2 1 3-3 5-4 7 11-4 15 8 22 5 8 6 1 23 9 25 2-25 4-23 8-36 1-5 5-5 9-7-3-1-8-1-7-4 6-4 4-3 10-9h3l1-1c3 1 7 1 11 2-5-5-3-11-6-12 5 1 6-12 13-11-12 5-22 2-28 6-10 1 13 13 3 14-10 15-12 6-21 8-5-4 0-8 3-11-6 2-10-1-15 1 2-5 6-6 9-8-1 0-2 2-4 1 2-3 4-6 7-5-13 5-6-5-11-2 2-6 6-8 10-10-2-4-9-4-13-3-1-5 9-13 3-10 2-3 4-6 6-7-1 5-2 8-3 11 4-6 9-13 16-17-26 3-31 18-37 16-46-36-1 8-45-27"/><path fill="#53CECE" d="M399 179c4 4 2 9 3 14-3 2-3 0-6 1 6 1 12 3 17 6-12 0-24 0-33 2-29 7-13 15 0 15 4 5-1 2-1 4 2 0 4 2 7 1-3 4-6 3-9 4 11 3 21 0 31-2 8 4 12 1 16 7 2-3-2-4 1-6 4 4 6 6 7 9-1-1-1-4 0-7 5 1 6 6 8 8-1-11-1-17 1-19-12-18-27-25-39-36"/><path fill="#18475B" d="M252 150c1 21 30 44 34 56-12-11-27-29-40-45 15 27 19 29 29 46-5 0-12-3-18-5 27 14 21 15 43 25-12-1-23-7-34-13-9-6-16-12-23-18 10 16 20 25 37 34 8 6 15 8 22 11 5 0 7-2 10-3-16 4 6-7-14-7v-3h1l2 1 1-2c5 3 9 0 13 0-5-4-13-13-37-33 10 1 19 13 29 17-9-11-19-24-25-37l-1-1 1 1c0 4 4 6 4 9-30-48-7 8-35-33"/><path fill="#D2E5CA" d="M363 324c0 1-3 6-4 1-16 8-35 21-46 38 10-6 16-5 22-10-1 7-5 14-6 23 13-10 22-16 33-28 1 5-3 10-1 16 7 1 7-4 12-8-1 8-2 14-3 20 4-7 6-16 10-23 4-4 2 3 4 4 0-9-10-48-11-15-3-4-2-10-3-14-1 1-1 4-4 4-3-3-4-4-4-6"/><path fill="#88E5D1" d="M271 123c-9 4 27 11 32 19 10 11 14 22 21 31 7 8 14 19 21 19-3-24-4-23-4-40-15-11-20-11-40-23-8-3-17-4-25-6"/><path fill="#5D6F56" d="M428 281c-14 11-29 15-46 21 4-2 9-2 13-4-7 4-6 10-8 15 2-3 4-7 7-9 1 9-4 15-3 20 2 6 8 10 5 23-10 18-15 41-34 63 8 2 1-5 8-6 0 8-2 11-6 13 12-11 19-24 29-36-5 3-7 10-13 12 8-13 13-20 15-23 4-10 3-21 5-30 2 4 5 10 7 15-7-17-2-39-2-50 4-12 13-19 25-23"/><path fill="#593C34" d="M405 234c-15 9-21 14-7 29 6 4 12 4 17 6 11-4 25-7 34-19-7 3-11 10-19 11 1-6-5-8-4-17-4-2-7-7-11-9-4 0-6 0-9-1"/><path fill="#8AE6D2" d="M346 114c6 9 14 15 18 22 5 12 6 21 9 30 5 3-2-11-1-17 4 3 7 8 9 11 2 10 2 20 3 29 5 1 2-8 2-11 6 5 4 17 15 15-2-13-13-37-8-40-11-14-25-27-33-31-1 1 1 2 0 4-4-5-6-10-13-10"/><path fill="#919976" d="m369 277-1-1c8 0-3 5 4 3-3 4-5 5-6 8-4 12-1 17-3 27 2-2 3-6 6-10 5 1-1 3 1 6 3-1 5-3 7-4 1 10 8 31 10 25 2 16-6 23-1 34 6-8 5-5 9-17 3-14-2-16-4-21-2-9 3-15 4-21-4 1-5 6-7 8 3-7-3-10 7-14-5 0-11 4-14 4 37-15 66-34 6-3 2-5-6-11-9-7-4 0-2-12-7-12 5-3-3-3 3-6-1 2-3 2-4 0"/><path fill="#124A66" d="M349 210c-8 14-13 20 8 16-7 7-10 9-13 14 9-5-3 6 8 0-3 8 0 9-9 12 6 0 10 1 17-1-4 4-9 9-7 11 13-1 13 8 26-6-2 8-16 11-9 11 2 3 15-8 16-8-2 0-3-2-5 0-2-3-5-2-5-3 0-3 1-2 3-2-3-4-6-5-10-8 2-4 7-1 1-6 11 5 6-6 17-1 8 0 15-9 24-6-9-1-16 3-22 4-9-1-16-2-23-3-4-1 3-10-8-7 2-3 3-4 5-4-5 1-8 0-12 0 3-3-4-4 1-8-3 2-2 4-5 5 1-3 2-5 3-7"/><path fill="#131A30" d="M425 269c14 4 62 10 84 21-19-6-27-4-44-3-10-9-22-7-32-10-2 1 0 1-1 2-4-1-5-4-6-5-2 0 5 4 4 8-26 14-2-2 8 9-2-1-5-1-5-4 37 6 73 8 107 13-33-13-67-24-103-31h-3"/><path fill="#39504E" d="m312 369 2-1c-3 7-10 14-8 15 34-4 0 16-10 18-11 4-21 8-31 6 13-18 30-24 44-37"/><path fill="#254C54" d="M257 403c-4 1-8 2-11 5-7 5-6 12-11 16-4 0 1-2 1-4-4 2-6-6-8 0s3-2 4 1c-6 7-8 12-8 19 1-3 5-3 6-5-1 11 13 2 5 15 8-8 9-13 33-34-3-3-7-2-10-4 1-5 6-11 1-9"/><path fill="#1E3640" d="M264 393c-17 4-26 22-34 16-8 19-8 18-12 38 5-4 3-12 8-19 12-4 11-14 23-24 14-7 5 5 12-3-2 4 0 8-4 9 8 1 1 6 10 2 5 5-5 9-3 12 5-2 2 6 4 2-4 7-11 11-16 10-7 2-8 6-9 10-5-4-1-4-1-6-4 3-3 7-6 10-1-6 3-8-3-7-1 3-1 9 2 10 6-11 12 4 13-16 3 3 2 4 2 6 26-8 54-29 19-13-7-7 12-15 14-20-7 0-12 2-18-2 0-4 2-8 8-14-3 0-6 3-9 1"/><path fill="#754834" d="M402 236c9-3 18 3 21 12 2 9-2 16-9 18-9 1-19-3-21-12-1-8 3-13 7-17"/><path fill="#15485A" d="M331 269c-6 10-32-2-14 15-12-6-6-5-7 0 2 2 6 3 9 5 3 12 2 26 3 33 1-3 5-7 7-11-2 0-2 4-4 4-2-5-1-8 1-11-1-1-3 0-5-1 7-5 12-4 17-6 7-1 9 0 13 0 0 8 5 12-1 19 5 3 5-5 10 2-10-4-3-18-8-28-7 1-8-2-16-5-1-1-1-4 1-4-2 2-5 2-7 4-2-4 3-5 3-9-3 2-5 6-10 5 3-5 9-6 12-11"/><path fill="#37858C" d="M378 123c20 19 25 44 44 64-15-14-17-15-28-31 3 6 4 13 6 20 12 11 23 19 36 26-3 4 5 9 7 15 1-21-16-20-18-42-2 3-1 5 0 8-7-7-14-13-21-23-3-11 2-3 1-12-7-9-18-22-24-25"/><path fill="#17374D" d="M233 346c21 0-8 22-15 26-9 5-16 8-23 10 2-15 19-22 28-30 4-3 7-4 9-5"/><path fill="#0F1E3B" d="M322 232c-5 3-9 8-14 10-25-8 4 6-24-2l8 4c-3 1-7 2-9 0 0 3 4 3 6 6-5 1-11 5-17 1 17 12 15 15 25 18-3 0 5-6 7-14 3-6 30-20 17-16-1-4 2-5 3-7"/><path fill="#415042" d="M430 288c-6 1-13 1-15 4-2 4-8 8-11 14 2 12-3 34 5 50 4-13-1-28 3-37 4-14 14-21 24-26-2-2-3-3-4-6"/><path fill="#1B3241" d="M126 400c-8 12-9 8-22 16-5 3-10 6-15 8-1 4 4 3-3 10 8-6 11-10 16-17 0 5-3 10-5 15 8-2 8-9 12-14 1 3 1 9-2 9 0 7 4 11 8 7 7-3 11-8 17-11 6-30-9 0-16 9 3-9 7-15 11-22-4-1 5-8 0-8"/><path fill="#D2E7CF" d="M385 267c-15 10-1 8 7 22 8-2 13 1 18-4 3-4 7-6 7-9-4-3-4-8-20-8-4-2-8-2-12-2"/><path fill="#1F6478" d="M434 181c1 13 9 18 11 41-2 3-5 20-8 19-2-4-10-4-14-8-5-1-6-2-8-3-18-7-14 6-34 5-7-9-10-9-11-14-5 1-10-1-16 0 10-5-1-7 7-13 6-6 12-7 17-8-4 1-9 2-14 4l-1 2-2 1c-3 3-8 6-10 10 4 3-3 8 2 5 4 2 7-2 11 0-2 2-3 3-5 3 6-2 4 1 7 2-3 1 1 3-3 4 2 2 13 4 22 6 10-3 24-9 36-2 6 3 16 6 13 16 4-11 11-16 14-16 1-5-1-8-1-11 12 23-7-48-11-39"/><path fill="#8E3922" d="M228 452c2 5 7 11 7 18-30 2-19 21 9 14-5 0-9 1-11-1 4-6 7-2 11-1-3-5-5-16-7-18 1-3 2-4 1-6 6 6 8 13 13 18 8 6 16 4 22 8 2 6-2 6-4 5 1 0 6 2 4-2 7 1 13 3 17-1-5 2-10 1-14 0-23-15 15 5-14-14-17-1-17-23-32-17"/><path fill="#2A6375" d="M351 176c-1 3 3 6 5 8-1 4-4-2-7-3 3 10-1 16 1 19-14-2-5 13-24 12 20-1 17-10 38-13-1-1-2-3-3-5 32 3 23-3 5-17 2 4 5 7 8 11-10 0-14-7-21-10"/><path fill="#1E4656" d="M263 360c-11 8-20 15-29 26-3-3 3-6 5-10-4 2-7-5-4-5-29 36-24 18-39 33 16 2 9-3 37-13 3-4 19-18 28-29"/><path fill="#113149" d="M240 217c7 16 22 28 36 38-2-1-3-2-4-3 8 0 11-2 14-3-3-1-3-3-5-4 23 5-5-9 19-2-2-4-26-12-34-14 4 5 9 13 14 17-17-6-30-18-39-27"/><path fill="#4E675C" d="M335 381c-11 9-31 17-46 36 14-1 27-8 39-16 4-6-2-3-4-2 1-3 3-5 5-5-3-1-3 3-5 3 13-11 0-8 12-16"/><path fill="#1A3847" d="M265 356c-2 4-15 21-30 33-9 6-16 9-23 15 10-11 21-18 30-29-10 11-21 19-31 27-6 4-17 8-17 5 12-2 28 0 40-9 13-11 34-34 33-42"/><path fill="#D58435" d="M239 459c-3 6 3 16 7 21-33-2 18 12 19 8 0 3 10-5 25-1-16-10-20-2-31-7-12-5-15-13-18-19"/><path fill="#152F48" d="M151 274c8 3 11 9 17 13-4 6-12-2-17-2 14 3 11 8 14 9-29-6 12 8-15 6 10 5 25 9 23 12-5 2-10-1-17 0 6 1 11 4 16 5-4 3-8 2-12 1 6 3 11 5 19 7-4 4-9 3-12 5 8-3 20 0 9-3 22-2 6 8 21 2-7 8-18 9-26 12 17-3 37-11 50-14-11-1-19 3-43-4-1-4 0-8 3-9-5-3-10-6-15-10 3-1 1-6 2-7 1-5-5-6 3-7l-1-1-1-3c-4-3-9-8-15-11"/><path fill="#4EA3A0" d="M349 121c6 17 20 40 19 49 4 11 10 8 13 11 0-12 0-24-9-31 0 5 10 23 2 22-5-12-6-21-9-30-4-9-10-15-15-20"/><path fill="#1B3444" d="M126 395c-11 2-22 6-33 7 4 1 9 0 13-2-8 8-17 15-26 20-8-1-1-5 0-6-2 2-5 5-8 7-4-5-2-10 0-15-2-1-2-3-4-1 1 4-4 7-2 12 3 5 4 12 13 8 11-2 27-16 46-29"/><path fill="#7E3423" d="M313 444c1 5 5 9 3 16-4 6-7 1-10-1-3 5-3 7 0 9 15-1 23 15 39 11-9-1-12-4-17-5-2-1-6-11 2-12-7 0-3-20-17-14"/><path fill="#B2C4A4" d="M415 271c-5 4 11 3-5 15-5 5-10 2-15 4-6 0-8-6-10-10-2 1-5-2-8-1 1-2 1-4 2-4-7 0 0-5-8 0 4 4 1 12 7 18 4-4 9 2 14 1 9 0 45-13 26-22"/><path fill="#4D9794" d="M301 170c6 4 11 13 16 16-7 0-13-1-20-9 0 4 6 9 0 9-22-21-4 5 3 13 3 2 7 3 8-1-3-6-7-6-9-9 10 4 14 4 25 11-1-9-5-11-4-14-6-6-10-11-17-14"/><path fill="#B8C19E" d="M371 305c-6 5-8 13-10 21 2-8 5 15 10-2 1 8 1 12 1 17 1-5 0-13 4-16 3 11 8 18 8 27 4-6 2-15 1-22-8 0-5-28-17-21"/><path fill="#1C323B" d="M288 346c-5 14-25 38-30 46 39-55-29 27 18-39 1 5 7 1 9-4"/><path fill="#295E6E" d="M163 332c-11 8-33 8-46 15 43-1 101-20 43-15"/><path fill="#264B57" d="M105 402c-10 2-19-1-30 4-3 8-9 8-5 11-8 2-5-9-5 2 3-1 0 5 4 5-3-1-1-3 0-4 1 1 4 2 4 4 0-5 22-10 33-23"/><path fill="#4C6960" d="M308 385c-13 8-27 13-42 19 10 2 17 1 23-2 9-2 46-20 21-15"/><path fill="#3B8388" d="M297 185c3 5 8 6 11 11-1 7-5 7-7 5 7 7 14 12 22 16 0-9 14-5 18-13-5-2-4 5-11 4-9-10-22-12-31-21"/><path fill="#6FE3E0" d="M393 206c5-2 10 1 14 1 10 4 19 9 23 16-20-15-54-3-41-17"/><path fill="#449998" d="M405 123c8 18 17 27 20 37 2 4 7 3 11 7 0-8-7-16-11-24-15-25-13 0-19-21"/><path fill="#3B4B46" d="M348 397c-5 3-15 6-17 3-8 9-16 16-21 25 29-14 32-19 34-25"/><path fill="#66BDB4" d="M188 278c-1 8 8 9 13 11 12 1 26 5 34 0-96-12 54-1-58-11"/><path fill="#162E47" d="M186 348c-6 3-13 6-20 9-48 6 7-11-31-2 6 2-7 2-8 4 14-2 23 10 44-2-1 6-8 7-9 8-10 4-20 2-27 3 8 0 14 2 22 1 25-7 15-20 33-21"/><path fill="#3BA0A6" d="M103 251c11 11 13 14 28 23-2-2-5-5-5-9 7 2 11 4 15 6-6-4-10-6-15-9 7 1 12 5 17 5-7-14-43-19-12-7-11-3-18-5-26-8"/><path fill="#7C3624" d="M327 449c8 3 7 12 12 17 4 4-5 4-6-1 5 7 11 3 11 9 11 5 25 2 30-2-16-2 2 0-25 2 4-9 11 0 15-7-2-8-12-4-19-5-7-4-11-7-15-12"/><path fill="#1B495D" d="M134 237c17 5 7 13 15 19-5 1-9-8-15-10 1 2 17 13 7 10 15 11 7 2 31 13 5 6-3 0-4 3 4 6 8 7 12 9-5-3 3-2 3-6-2 1-2-6-7-6-4-3-8-1-13-5-10-6-8-10-10-15-6-4-9-7-16-11"/><path fill="#1D6074" d="M139 280c-1 6-1 6 5 7-31-11-30-1-1 10 2 1 5 1 8 2-7-3 0-9-5-9 9 3 2 1 12 2 3-4-12-6-17-10"/><path fill="#1A3942" d="M310 284c4 4 4 11 7 15 6 27-6 44 3 51 6-5 11-10 16-14-2 1-5 3-8 5 0-4-5-2-6-6-1-16-1-28-5-44-1-3-4-3-5-6"/><path fill="#266572" d="M129 193c2 7 2 16 4 24 7 6 11 12 16 16 0-15-12-26-19-38"/><path fill="#174960" d="M448 224c0 3 2 6 1 11-5-1-9 8-16 19-1-5 3-5-1-11-6-5-10-5-11-10 3 6 5 6 8 7 5 6 0 12 1 14 4-3 9 1 4 2 5 1 9-6 11-9 3 6 9-3 12 4-6-7-3-17-8-25"/><path fill="#344A4C" d="M310 372c-14 11-29 16-42 29 12-4 24-7 35-14-3-2 2-9 6-14"/><path fill="#377D88" d="M341 153c6 9 18 17 25 27-1-2-8 0-3 4 4 2 5 6 9 4-2-2-2-5-4-7l-1-1 1-1 1-1c5 4 7 7 14 11-9-7-15-16-18-27-6-2-9-3-12-5 4 6 10 12 16 18-11-7-16-15-26-21"/><path fill="#1F4A5E" d="M265 305c-24 9-28 3-42 10 1 0 1-2 4-1-4 2-5 2-1 7 11-9 47-1 38-17"/><path fill="#ACC7AA" d="M383 349c-16 28-2 23-19 51 14-9 15-32 21-37 1-3-4-5-4-11"/><path fill="#1B465B" d="M271 312c-6 2-11 7-17 11-1 8 0 11-5 18 9-4 16-10 22-17 8-11-8 1-11 2 3-5 7-9 9-13"/><path fill="#1F373F" d="M284 352c-2 2-6 8-11 5-7 11-21 30-15 30 4-4 20-23 26-34"/><path fill="#38483D" d="M371 407c-26 20-22 0-36 19 16-10-1 12 22-4 5-3 10-7 12-13"/><path fill="#2F6671" d="M267 126c2 8 7 14 13 21 7 4 13 10 18 9-13-14-21-29-28-27"/><path fill="#88A985" d="M397 383c0-8-14 12-30 34 12-6 20-16 27-26 2-1 7-8 6-12"/><path fill="#1D3540" d="M220 378c-20 6-36 25-43 34 5-6 18-11 26-19 4 2-2 5 4 0h3l-1 1c-1 2-3 4-4 6 24-23 28-25 0-5-2-2 4-4 1-3l-2 1-1-3c6-3 11-7 17-11"/><path fill="#206171" d="M117 218c1 6 2 13 3 19 14 15 8 4 26 16-11-8-16-25-28-32"/><path fill="#374D4B" d="M308 397c-6 5-13 7-20 10-10 8-17 18-16 22 5-7 14-7 23-10-2 2-9 0-7-2 7-9 13-13 19-18"/><path fill="#79E6E2" d="M393 207c-19 7 10 7 24 10 6 3 9 4 11 8-3-9-11-13-18-16-6-2-10-1-13-3"/><path fill="#1E4958" d="M272 339c-21 16-16 4-34 33 13-8 26-18 33-31"/><path fill="#4FA29C" d="M197 261c-1 6 20 16 32 16-5 0-7-5-7-9-7-3-12-6-22-7"/><path fill="#6DBFAF" d="M271 158c-5 2 1 6 14 15 5 6 7 9 14 12-2-2-2-6-4-8 9 7 14 8 20 9-5-3-8-14-17-15-5-1-1 4-3 5-6-4-7-8-10-11-3-4 4 5 2 8-8-7-11-6-16-15"/><path fill="#193547" d="M155 248c-7 15 22 17 28 26 13 0 18 1 39 4-11-4-20-7-28-14-3 4 2 4 6 8-5 2-10 1-14 1-11-2-25-18-30-23"/><path fill="#A9C6A8" d="M329 364c-10 0-17 9-20 18 5 1 10 1 14-1 1-7 3-13 6-16"/><path fill="#2D6373" d="m94 380-18 3c-5 5-13 14-13 16 12-8 40-15 32-20"/><path fill="#195F76" d="M363 239h2c3 2 3 6 7 8-20 9-29-5-13-8"/><path fill="#1C333E" d="M209 359c-9 13-25 16-37 26 9-12 19-19 32-23"/><path fill="#2D6E6A" d="M356 317c-1 7-5 9-11 10-3-8-15 1-21-2 5 0-1 3 1 6 8-1 10 8 19-2 6-3 16-5 15-12"/><path fill="#1A4358" d="M237 347c-13 13-29 12-41 29 2-6 18-10 25-17 0 7-23 20-20 19 11-11 35-18 39-31"/><path fill="#65BBAC" d="M268 268c-23 4 4-2 9 5-5 2-13 1-20 2 14 1 36 0 41 4 5 2 4 3 7 4-2-4-6-8-10-11-12-8-19 0-26-3"/><path fill="#67BAAE" d="M333 108c18 24 17 38 35 55-11-14-12-28-20-40-3-4-7-9-14-12"/><path fill="#1B3A48" d="M296 321c-19 16-11 15-20 30 13-6 17-18 17-27"/><path fill="#184759" d="M222 156c6 6 1 6 7 10-3 0 0 6 1 7 1 2-2-2-2-4 3 1 5 8 7 7-2-2-6-9-9-14 11 8 18 18 26 28-4-2-9-6-13-11 2 3 3 7 7 10 7 9 15 11 23 14-6-3-12-6-16-12 29 20-19-22-23-28l-4-4-1 1v-1"/><path fill="#6DC6B6" d="M149 206c-7 12-4 3 4 19 9 14 4-8 17 10-3-8-15-17-20-28"/><path fill="#16374F" d="M234 351c-12 11-34 19-40 29 9-6 25-4 40-22-7 3-15 10-22 14 9-11 11-13 23-19"/><path fill="#3BAAA7" d="M344 306c-3 1-4 3-8 2-16 16-4 2 5 0-12 12-12 11-16 14 18 2 31-12 14-11l1-2 1-1h2"/><path fill="#B3CBAF" d="M350 373c-6 6-10 14-13 22 5 0 6-3 14-9 0 2 1 5-2 6 13-17 19-20-1-7 0-5 2-7 1-11"/><path fill="#162547" d="M428 277c1-6 40 12 53 9-9-4-32-11-50-11"/><path fill="#4FA5A4" d="M343 157c-1 3 3 11 0 11 8 3 15 15 23 11-8-6-15-14-22-21"/><path fill="#CD6629" d="M401 239c-6 3-8 10-6 17 4 3 9 5 20 7-5-1-8-2-10-6 2-14-2-7-4-18"/><path fill="#4DA1A7" d="M180 315c-3 6 5 7 10 6 12 3 18 0 25-3-26-1-5-4-34-1"/><path fill="#374134" d="M323 426c-15 8-19 7-31 18 15-5 19 0 34-4 21-11-3-5-25 2 6-8 18-11 25-16"/><path fill="#203A3E" d="M307 311c5 1 6 17-1 14 0 2-2 1-2-1 2-9-7-2-3-11-1 9-4 17-6 24 5-3 7-8 8-13 1 6 2 17 5 12 9-20 9-28 2-25"/><path fill="#0C0714" d="M410 246c-1 3-6 4-4 8 1 6 6 4 8 4 5-3 5-7 4-9-2-4-5-3-6-4"/><path fill="#3CA4AA" d="M107 209c0 5 3 13 3 19 3 3 5 5 8 6-2-8 0-19-10-24"/><path fill="#1F6772" d="M331 293c-3 1-6 2-8 6l-1 2v1c2 1 4 0 6 1-3 4-3 7-5 9-1-3 9-11 18-13 3 3 12 7 8 12 0 5-2 8-6 10 2-1 5-1 6-4 0-3 2-3 2-5 5-5-3-4 1-13-10-5-19 1-29 2 1-2 3-6 5-7"/><path fill="#509E99" d="M283 132c2 10 13 19 21 27 2-4-13-23-18-25"/><path fill="#529C98" d="M194 241c7 11 19 22 32 24-6-4-19-15-29-25"/><path fill="#46728A" d="M449 257c-28 12-2 7 6 11 10 2 27 7 39 10-12-4-24-10-37-11-4-1-10-3-10-8"/><path fill="#337F86" d="M428 162c3 23 13 15 17 39 4-1-6-19-5-30-4-7-3-1-10-6"/><path fill="#C97232" d="M329 463c-3 1-5 6 0 10 4 3 13 3 18 6 1-11-13-6-16-15"/><path fill="#4FA19C" d="M160 224c2 5-1 9 5 13 10 5 11 16 17 11-8-12-5-15-21-18"/><path fill="#409494" d="M407 149c-6 3-4 6-2 9 4 8 9 13 13 18-2-8-5-17-10-25"/><path fill="#1D485B" d="M287 312c-2 0-2 2-3 2-4 5-7 9-6 12 10 3 26-22 7-7-1-3 3-3 1-6"/><path fill="#23606F" d="M112 173c0 7 7 22 13 31-2-6-2-14-4-20-4-6-5-7-7-11"/><path fill="#C8DDC1" d="M359 363c-2 0-3 1-4 2-12 15 2 17-6 21 9-5 32-33 8-6 1-6 3-8 5-11-2-1-4-3-4-4"/><path fill="#431A1B" d="M323 442c-10-2-9 12-1 3 3 8 8 21 16 23-4-10-9-18-15-25"/><path fill="#2D8487" d="M340 301h-3c-2 1-5 3-8 4 3-1 6-2 8-3 0 4-4 6-3 7 2-3 6 0 8-4 2 3 0 4-1 6 6-6 1 7 8 1-7 12-13 10-14 14 6-8 8 7 14-2 3 1 5-2 6-2-3 1-1-5-5 1-1-2 0-4 1-6-5 5-2 4-6 7-3-5 4-7 3-9l3-2v-1h-2c2-6-4-7-8-12"/><path fill="#214A5E" d="M172 358c-8 3-16 6-24 6-13 3-6-7-11-4-2 2-4 7-8 7 9 0 20 0 31-1 6-3 8-5 9-7"/><path fill="#1A465B" d="M230 339c0 6-19 5-34 8 8 5 11-1 25 2 5 0 6-6 11-8"/><path fill="#226675" d="M239 134c4 13 14 25 19 38 2 4 7 8 16 18-20-15-18-39-33-55"/><path fill="#205F71" d="M234 174c-1 4 7 11 11 22-19-24 1 8 8 15 5 4 5 4 2 1-6-6-10-12-14-17 5 6 13 3 14 10 1-7 15 2 20 2-6-3-13-4-20-8-11-7-15-15-20-24"/><path fill="#1E485C" d="M241 321h-2c-11 4-24 5-35 8 13-3 23-2 35-9-29 16 12 2-18 16 5 0 13-1 17-5 1 3-4 7-1 5 6-9 4-11 6-16"/><path fill="#378089" d="M252 327c-6 2-10 7-13 11 1 0 3 3 2 4 3 1 5 1 7 0 7-8 0-9 4-13"/><path fill="#172E3E" d="M188 385c-8 3-16 5-22 9-5 4-4 6-9 10 6-1 10-4 15-4-1 4-6 6-9 7 37-20 27-17 4-8-5 2-7-2-4-4 9-4 19-6 25-9"/><path fill="#2B4647" d="M261 425h-3c-4 1-6 8-10 9-3 10 28-6 15-9"/><path fill="#192951" d="M437 268c31 5 61 15 91 25-29-11-57-22-89-25"/><path fill="#204957" d="M277 332c0 1-3 3-3 4-1 8 0 14 0 16 2-11 15-16 6-21"/><path fill="#2C6071" d="M132 360c-7 7-21 1-25 6 25 2-15 5 17 3 3-3 13-4 11-9"/><path fill="#132740" d="M200 339c11 6-22 8-29 9 7-6 17-4 26-7"/><path fill="#377A83" d="M171 297c2 7 8 8 12 10 6 3 13 1 18 1-15-1 12-3-22-7 8-1 11-2 15-2-9-3-2 1-12 1-9 3-9-4-7-3"/><path fill="#19324A" d="M103 371c-31 3 16 4 28 2-7-3-16-3-27-2"/><path fill="#3A7F88" d="M223 298c9-1-3 5 10 4-22 3-2 5-21 13 33-7 28-12 16-18"/><path fill="#91D8C4" d="M290 279c1 8 4 7 22 19-3-7-10-10-6-13-7-5-11-5-15-6"/><path fill="#12304D" d="M402 234c5-1 17-1 20 7 4 7 8 14 8 18 7 0 12-6 17-9-2-10-6 10-12 7-7-1-1-9-11-20-5-1-11-5-19-3"/><path fill="#317C86" d="M196 348c-34 8 6 12 12 5-15 2-24 3-9-4"/><path fill="#39A0A5" d="M123 271c-8 4-13 9-7 13 2-3 3-8 7-10 2 3 0 4-1 6 4 2 7 4 10 5-3-2 2-9-7-10"/><path fill="#184660" d="M149 273c2 4 7 8 3 12-1 2 11 4 16 4-9-9-7-10-19-15"/><path fill="#B1CCAC" d="M361 350c-9 9-14 14-23 20 8-8 3 10 13-5 7-2 7-15 11-13"/><path fill="#12374B" d="M227 162c9 18 28 32 45 41-4-4-6-9-8-14 1 3 2 5 4 9-18-6-27-22-39-34"/><path fill="#1A475D" d="M235 132c3 14 11 27 22 37-7-11-14-23-20-35"/><path fill="#C26532" d="M368 465c-5 6-11 7-18 4 9 4 24 7 23-4"/><path fill="#ADBFBD" d="M454 252c-17 6-4 5 0 0 7 12 3 5 11 7-6-2 3 9-4 7 5 2 20 3 20 5-10-7-5-9-27-17"/><path fill="#7EA083" d="M367 370c-2 7-13 10-10 19 3-2 7-6 10-8 2-5 0-6 0-8"/><path fill="#3B9EA1" d="M447 186c-3 17 5 29 9 49-2-17-5-28-9-48"/><path fill="#3B7E82" d="M304 144c4 8 8 17 13 25-19-23-38-25 0 2 1 0 1 2 2 2-2-9-8-19-13-27"/><path fill="#3C7E80" d="M257 287c-7 0-14 1-19 6 10-2-4 3 9 3 5-6 15-8 14-9"/><path fill="#586E53" d="M412 325c-1 12 0 39-4 42 8 4 2-9 6-16-1-7 1-15-2-24"/><path fill="#244B57" d="M104 416c-5 8-8 10-17 19 0-3 2-6 3-9-3 4-2-3-7 4 1 2 0 5 2 6 8-9 9-1 9 0 4-8 6-13 10-17"/><path fill="#3DACB3" d="M123 184c3 11 2 25 8 31-3-10 1-21-7-30"/><path fill="#2F616A" d="M188 276c22 4 45 6 60 6-13-2-37-4-58-6"/><path fill="#317A8B" d="M232 131c3 17 13 33 19 43-3-17-5-11-19-44"/><path fill="#82E3D8" d="M111 169c11 8 17 25 27 29-7-10-16-19-24-29"/><path fill="#29636F" d="M153 228c1 2 1 5 2 8 8 7 10 9 19 11-7-4-14-11-18-17"/><path fill="#214A62" d="M131 355c-13 3-13 7-39 12 15-2 36-5 45-14"/><path fill="#4B9B9E" d="M216 296c-10 12 9 8 15 7-9-1-4-5-14-6"/><path fill="#36413B" d="M402 339c-4 9-1 20-6 28 5-4 7-9 8-15 0-4-3-7-3-11"/><path fill="#1D3746" d="M185 249c5 2 11 9 8 10 9 0 15 1 21 3-19-19-7-1-28-12"/><path fill="#78E7D1" d="M321 185c4 6 1 18 9 20-4-6 1-17-6-20"/><path fill="#54A499" d="M244 269c28 2-26 5 35 5 1 0-7-2-8-3 1-2 3-2 5-3-1 1-5-1-6 1-6 0-12 3-16 0"/><path fill="#1B647B" d="M353 242c2 5-5 9 19 6-3-8-16 0-17-7"/><path fill="#377984" d="M247 351c-6 5-14 9-13 18 3-6 12-10 13-16"/><path fill="#2A616F" d="M255 346c-2 1-5 1-6 4 0 8-11 13-14 20 10-7 15-20 24-25"/><path fill="#2C656B" d="M283 285c-6 1-1 6-4 7h1l2 1c2 3 0 2 5 0 1 3 1 7 0 8 4-2 5-4 9-4 2 5 2 10 0 14 1-5 2-9 6-11-3 2-5 1-6-2 0-9-10-5-15-6 3-4-4-4 0-7"/><path fill="#C0E8DF" d="M332 107c30 25 8-1 45 27-14-14-29-21-44-26"/><path fill="#C8D4D0" d="M452 254c5 1 8 6 13 7-2 1 1 4-1 4 17 1 19 11 36 12-11-7-22-11-33-15-8-5-7-5-13-8"/><path fill="#206479" d="M136 270c8 6 9 13 13 12 7-1 1-5-3-10 3 0 7 1 11 2-2-3-8-1-11-4 1 7-6 3-7 2"/><path fill="#2B808F" d="M127 265c3 9 8 13 18 16-9-9-5-9-16-14"/><path fill="#55A899" d="M280 277c9 1-4 4-10 8 10 2 32-8 16-8"/><path fill="#296070" d="M244 302c-5 10-19 1-2 10 7-3 14-5 22-8-22 5-17 3-20-2"/><path fill="#214A5F" d="M112 380c-2 1-4 1-5 2-16 4-30 10-42 18 2-7 9-11 14-15-8 5-16 11-20 19 22-10 15-10 47-22 10-3 28 1 6-3"/><path fill="#50A79A" d="M299 271c2 16 2-1 15 32-5-11-28-12-27-15-2-4 1 2-3 2 15-5 14 14 25 11h2l1-3c1-8-6-17-14-26"/><path fill="#235050" d="M322 326c-2 13 5 11 6 13 2-2 4 1 4-2 5-3 8-1 11-5-3 1-6 2-9 4-3-6-16-1-8-11"/><path fill="#83DAC8" d="m265 155 16 16c4 3 5 6 7 7-5-4 0-10-7-17-11-4 3 8 2 10-7-5-12-10-15-15"/><path fill="#237C91" d="M404 225c-52 18 0-3 18 6-4 0-11-7-20-4"/><path fill="#132134" d="M234 294c10 10 21 7 35 7l4-4c-4 3-8 4-13 4-10-2-17-3-23-7"/><path fill="#65724A" d="M342 423c-1 4-10 8-4 1-4 4-5 7-7 9 16-1 13-2 11-8"/><path fill="#296070" d="M237 322c-5 2-17 13-25 15 2 3 6 1 9 0 29-15-4-1 17-16"/><path fill="#3B4731" d="M287 436c-9 0-14 2-30 4 11 3 60-6 33-5"/><path fill="#2A5F71" d="M231 311c-8 1-15 4-23 5 17-4 4 7 9 6 11-8 3-8 15-12"/><path fill="#16354A" d="M244 318c-1 3-7 10 1 9l-9 6c9-5-1 8 11-5 0-4 6-8-3-10"/><path fill="#B2CCAE" d="M375 354c-7 11-13 12-18 24 3-3 5-5 7-8 4-2 5 2 4 3 3-5 1-6 6-17"/><path fill="#22232D" d="M229 441c-4 1-7 1-8 7l3-3c-2 6 7 4 10 10-3-2-3-9-1-12-3 0-6 5-6-1"/><path fill="#387F89" d="M230 325c-13 6-20 6-23 13 8 2 13-10 25-12"/><path fill="#2F8288" d="M148 331c-10 6-16 3-25 10 12-7 59-8 17-8"/><path fill="#215E70" d="M135 307c9 7 8 8 30 10-24-4-5-5-27-10"/><path fill="#286373" d="M167 327c-19 3-18 0-33 9 22-5 16-1 34-10"/><path fill="#1E6476" d="M97 202c4 10 8 19 11 21-2-6-1-15-10-19"/><path fill="#174B61" d="M160 289c-4 6-10 2-13 3 1-1 1 6 5 5-2 3-4 1-6 1 3 4 10 0 15 1-2 0-4-2-6-3-1-6 10-2 7-6"/><path fill="#13273A" d="M182 385c12 2-11 7-14 8 3-3 8-5 12-6"/><path fill="#1F495B" d="M278 292c4 0 2 5-1 3l1 1 2 2-2 1c-3 11 1 10 0 15 1-2 5-3 7-6-8 0-2-9-5-9 1-5 9-6 0-5"/><path fill="#122338" d="M169 301c-6 5 4 6 9 10 7 2 12-1 19 0-11 0-21-1-28-8"/><path fill="#6DC4B2" d="M289 282c-9 9 16 7 20 18 1-6 4-2-2-13-1 3 7 8-2 8-15-5-10-10-16-12"/><path fill="#377D82" d="M266 291c-5 1-9 2-14 4 16 5 10-3 17-5"/><path fill="#195C70" d="M252 220c13 17 16 19 25 25-9-6-16-23-23-24"/><path fill="#4DA3A7" d="M214 310c-5 1-11 1-16 3 4 2 20 3 18-4"/><path fill="#14273E" d="M203 335c2 4-14 7-19 8 5-4 10-5 15-7"/><path fill="#91DED5" d="M411 126c10 10 18 20 23 32 9 16 14 31 20 46-4-10-11-31-18-44-2-4-2-6-3-8-6-10-12-18-20-24"/><path fill="#143249" d="M235 347c-8 2-14 8-20 12 7 0 15-9 22-12"/><path fill="#33A6AF" d="M365 212c-21 10 24 8 13 9-12-3-8-5-15-9"/><path fill="#1F4961" d="M362 194c1 2 2 4 4 5-20 7 5 5 12-5-4 1-8 7-15 1"/><path fill="#244856" d="M177 243c13 7 12 20 13 22 1-5 7-1 4-3-1-6-8-13-14-17"/><path fill="#354A38" d="M309 335c-5 9-11 15-16 24l-2-1v-2l1 3 1-2c5 3 11-12 16-19"/><path fill="#479EA2" d="M175 290c3 12 13 9 11 1 0 1-3 0-6-1"/><path fill="#182B39" d="M152 382c3 4-11 12-14 17 2-5 7-10 11-15"/><path fill="#111C2E" d="M110 408c-9 7-17 14-27 17 9-5 21-6 26-15"/><path fill="#234950" d="M300 303c-3 1-1 5-3 7 5 9 5 3 10 11 0-9-5-7-6-17"/><path fill="#2C5E6D" d="M109 380c-1 1-2 0-3 1h-5l3 1 4-2c-3 6-29 11-29 16 5-10 63-16 27-15"/><path fill="#9EC4A3" d="M409 377c-5 5-6 6-18 28 8-9 17-19 17-28"/><path fill="#69C8BB" d="M333 198c-6 13 6 3 13 2-4-2-8 0-12-1"/><path fill="#6DBAAC" d="M263 279c-8 5 10 3 13 4-1-5-7-3-10-4"/><path fill="#2D818A" d="M144 302c-1 2 7 9 14 6-2-2-7-4-10-6"/><path fill="#133351" d="M384 192c2 1 6 1 8 3-43 9-11 2 11 2-6-2-12-3-18-4"/><path fill="#203637" d="M302 337c-6 5-6 13-10 20 7-16 17-14 7-16"/><path fill="#25626D" d="M159 273c9 12 8 10 23 14-5-3-11-6-20-12"/><path fill="#5FBEC1" d="M101 249c6 4 17 7 24 10-32-10 24-5-26-10"/><path fill="#276777" d="M194 349c1 2 5-1 6 1-11 4-14 7-1 2 6-3 12 6 20-3-9 1-15 2-22 0"/><path fill="#2A6270" d="M277 297c-4 2-7 7-8 9 11-1 7-5 9-8"/><path fill="#1B3442" d="M259 283c2 1 4 4 8 4-3 2-4 3-6 4 10-8 16 7 16 4 3-8-8-7-17-11"/><path fill="#35463D" d="M402 366c-5 5-8 8-12 16 3-3 4-5 6-7 2 2 0 2 1 5 1-7 4-6 7-6 3-6 0-1-3-6"/><path fill="#85A98C" d="M344 366c-5 6-9 9-15 13 6-2 15-3 13-10"/><path fill="#2A8492" d="M140 261c1 2 3 3 4 5-2 2-5 0-6 1 6 2 10 4 15 4-4-2-7-9-10-10"/><path fill="#3B9FA2" d="M142 302c-5 0-8 3-11 6 12-4 21 3 10-7"/><path fill="#6CC8BA" d="M204 296c1 0 7 11 10 3 2-4-4-3-7-4"/><path fill="#12202A" d="M236 271c6 5 17 4 22 9 3-1 7-2 12-3-10-1-22 0-32-5"/><path fill="#3D7F82" d="M179 248c-4 4 2 8 3 12 3 1 3 2 4-1-12-4 5-7-7-10"/><path fill="#8AD2C2" d="M334 110c2 9 11 20 17 29-6-8-7-19-15-27"/><path fill="#30A6AF" d="M372 226c5 0 9 2 12 6 4-2 7-2 9-3-7-1-13-2-19-3"/><path fill="#D6E8CC" d="M412 376c-5 12-14 22-24 31 11-8 20-20 23-30"/><path fill="#89DACB" d="M167 250c-3 1 2 8 4 10 3 4 0-3 0-4 3 1 6 7 9 5-3-2-5-4-7-6-4-2-4-4-5-3"/><path fill="#224D5A" d="M292 296c-9 7 5-2-2 11 14-3-1-11 2-11"/><path fill="#134960" d="M238 210c1 2 6 8 9 11 2-6-2-7-7-10"/><path fill="#26454C" d="M186 400c-5 3-15 8-18 11 6-4 7-2 17-8"/><path fill="#182B35" d="M285 361c4 1-5 9-6 12-1-3 3-7 3-10"/></svg>