<svg xmlns="http://www.w3.org/2000/svg" width="600" height="600"><path fill="#464F55" d="m355 102 2-1c14 5 29 13 43 20 10 8 18 16 26 25-1-5-6-10-6-14 14 12 19 23 26 35 4 11 5 20 9 28-1 4 1 5 0 7h-3 1l2 1c9 9 31 23 43 34 11 11 18 22 21 34 0 4-1 5-1 7-40-20-71-29-103-44h-3 2c9 5 18 7 28 11-11 0-18-1-25 0-12 1-22 2-30 6 4 15 18 25 25 37-1 5-4 2-5 1 12 20 12 45 22 65-6 2-10-4-12-6-2 11-2 21 0 31-5 0-7-6-9-10-3 6-5 14-9 19-1-2-2-4-1-6-10 16-25 30-38 42-8 10-17 3-23 11-2 4 0 6-1 10 3 4 4 6 7 7 20 8 43 5 65 9 5 1 9 5 11 4 4 3 3 5 4 6-19 3-10-1-32 0 3 0 5-1 7 0 0 3-2 2-3 3 0 2 4 3 2 5-19-5-45-2-65-7-14-4-26-4-32-8 3-7 10-5 14-7-2-5 2-10-6-15-13 2-25 6-39 4 1 7 1 12 7 17 13 5 23 9 37 8 10 3 18 11 25 13-2 2 1 5 2 7-11-3-25-2-25-6 2 1-1 7 3 8 0 4-2 3-3 4-5-3-13-6-25-8l-2-1v-1h1l-1-1c0 3-4 2-5 3-12-2-20-7-30-7-18-6-17-8-32-14 0-3 3-4 6-3 7-2 13 2 18 0 1-14-8-17-6-26-3-4-3-6-7-5-5-1-11 3-15 1-4 0 1 1-1 4-3 2-6 0-8 1-4-6 5-3-1-5-7-1-11-1-17 3-4 1-5 2-6 3-1 5 2 3 6 4-3 2 0 4-3 4 9 2 11-4 18-6 4-1 5 1 8 0 1 5-2 7-3 8 0-2 3 1 3-2l3 2h-2l1 2 1-1c5-2 10-5 14-4-9 2-29 21-43 18-27-1-47-8-73-10-8-4-16-10-21-16 10-5 24 2 38-4 0-1-6-4-9-7-4-2-2-4 0-3 8 0 16 1 22 3-5-4-12-5-17-10-7-3-11-7-15-12 4-2 6 2 9 2-4-3-8-9-11-11-6-8-10-15-13-21-1-6-5-9-1-13 10 11 24 21 35 28-5-7-11-13-14-22-3-8-8-13-8-20 10 7 22 14 30 26 1-3-2-4-3-6 2-4 3-2 5-4-1-3-2-5-3-7 9 5 12 11 19 15-1 0 1-4 0-6 7-2 8 7 11 4-4-3-7-6-11-8-5-5-8-8-10-12 4 3 10 3 13 5 7-1 11-3 17 1-12-4-25-7-36-13-12-5-22-12-30-20-3-4-8-7-6-10 12 5 21 10 31 11-11-6-22-11-33-16 5-5 10-1 16-3-10-6-19-15-26-23-12-11-5-17-13-25-1-6-3-12-1-16 11 7 18 14 29 17-1-3-3-6-2-9 7 5 12 10 18 12-9-8-17-17-29-22 5-3 10 3 16 3-2-3-6-7-10-11-4-7-6-13-8-19-2-5 1-3 2-2-2-5-1-10-1-15 1-5-1-9 3-10 14 14 28 28 43 42-2-12-13-16-17-26-6-11-11-19-11-29 4-3 5-1 7-1-5-9-11-15-10-24-4-15 0-30 0-44 7 15 13 26 21 38 12 22 27 42 40 62 1-6 3-11 2-17 1-3 2-7 4-5 5 17 11 31 20 43-1-6 0-13 2-20 8-4 9-15 15-21 8 23 10 45 13 66 5 8 11 15 16 18 13 5 23 10 35 11s21 1 29-3c3-7 1-12 0-16-5-14-12-25-13-38-1-10-1-17-1-24 2-11 5-18 8-27-6 3-8 9-12 12-3-2-1-2-2-5 5-12 12-19 20-26 7-8 16-10 24-15 0-1-1 0-1-1 5-4 9-4 13-5-4 1-9 1-14 0-14 3-26 9-37 16 7-10 13-13 19-16 12-3 17-6 29-7-11-3-23 0-32 2 8-7 15-8 26-11 5 0 9-1 12 1 1-4-5-2-5-5 16 1 27 6 40 9-7-7-15-13-25-17"/><path fill="#12101B" d="M148 207c-4 2-1 5-5 9-8-10 0 8-10-1 4 4 5 8 6 11-2 2-3 0-5-1 2 0 5 5 6 4 4 2 3 5 8 7v3h-2l1 2-2 2c-5-3-9-10-15-12 4 5 6 8 9 11-4 2-2 10-8 5 1 6 4 9 7 11-4 5-7 3-9 2-1 9 12 12 13 20-13-2-20-18-33-17-3 0 3 1-1 2-17-9-34-15-14 8-2 3-4-2-6-2 2 6 5 10 8 14 11 12 25 15 36 23 9 4 15 7 22 10-11-1-21-5-31-11 1 5-12 0-18 0l-1 2 1 1h2c7 7-1-5 16 1 1 4-2 0-4 2 12 5 27 5 39 10-12 1-27-3-39-7 7 2 14 7 22 8l1 1 1 1 2 2h-2c-4 1-8 1-11-1 11 7 24 8 37 10 0 4-5 3-7 1 9 5 18 6 27 9l1 1v2l2 1-2 1c0 2-6 2-5 1 11 2 16 2 23 2-1 3-2 2-2 4 6 0 12-3 18-3 5 3 1 3 1 4 1 1 2-1 4 0 3 5 1 7 3 10-11 8-20 5-26 7 3 3 7-2 10-1 0 4-1 3-4 4 3 1 11 1 15-3 10-3 15-8 22-12l1-1v1l1 2-1 1c-10 7-24 12-33 21 3 6 2 0 8 5h-5l3 1 2-1c4 2 7-4 11-3 2 2-1 4-1 5 3 2 4 3 5 4v1h-1v2l-2-1-4-4v-3h1v-1c-4 7-10 9-16 12-4-4-7-6-9-10-7 1-8-2-11-4-5 2-7 4-9 5 0-4-3-6-7-6l1-1h1-1c-2-1-6 1-8-1 9 0 15-1 19-4 4 5 4 4 11 5l-2 2h1c6 0 6-2 11-3-3-3-6-6-9-8l-1-2h1l2 1-1-1h-1v1l-3 1c-7-9 1 1-12-5h-1l1-2c-10-4-8-13-13-18 0-2 2 5-4 3-9 2-14-1-20-3 3 4 7 7 11 9 9 5 17 7 25 8-6 1-13 1-19-1-5 5 6 2 3 7-2 4-4 3-1 8-14-7-21-17-30-24-1 0-3-4-2-1 3 2 1 5 6 7-3 1-5 0-6-1-1 3 4 9-1 8-7-8-15-15-22-20 7 6 14 14 21 21 1 4 0 5-2 6-9-11-18-14-19-18 5 14 16 24 26 36-1 2-3-1-4-1 7 5 15 8 23 12 0 7-7 9-11 11 10-1 16-13 21-19-3 9-7 15-13 19-4 4-8 5-12 4 3 2 0 3-1 4-6 3-13 3-17 1 7 3 7 4 15 3-10 6-7 7-12 13-2-2-4 3-6-1-4 1-2 2 1 3-6 1-8 2-11 2 6 1 14 1 21 2-9 1-17 3-22 0 8 1 15 2 19 2h5c-1 3 1 3 3 4 7 2 12 1 17 0 4 6 10 5 14 6 9 1 15-1 20-1 15-3 10-7 19-9 2-2 1-3 0-4 0 1-3-2-4 0 0-3 4-3 3-7-3 0-3-2-6-1-8 2-10 8-18 7-1-2 0-3 0-5-3 0-6 0-5-4 2-1 3-4 5-4 8-5 12-5 20-5-2 3 3 0 2 2-1 1-4 3-4 3 4 1 6 1 7 0 4-2-2-3 3-4 7 2 13-6 20 0 0-6 3-2 4-6 5 6 2 14 5 18 3 5-1-2 1-3 4 4 5 8 4 13-1-2-3-2-4-4 3 2 0 9 4 7 1 4-1 6-2 8 1 6-4 3-4 5-7 2-11-3-19-4 9 7 15 8 26 12 12 1 20 6 30 6 11 4 9-11 21-7 6 3 17 15 13 17 0-4-1-7-3-9 2-1-1-7 3-9-3 0 0 2-3 2-18-5-21-5-40-11 7 5 13 7 21 8-1 5-4 8-6 8-13-2-20-5-30-8-6-18-3-34-4-38 3-1 4 0 6 2 0 7 3 14 5 19v4l2 1v2c2-4 4-1 6 0-2-4-4-5-7-4-1-9-3-12-3-20-4-3-6-6-7-8l-2-3v-1h3c2 0 2 2 3 4 4-4 0-9 2-10-1-4 0-5 3-6 3 2 5 7 8 4 0 5-3 7-6 10 0 4 0 9-1 15v-2h1l1-2c7 1 11 0 16 1-1-4-12 3-16-2 25-3 37-4 41-3 10 5 12 11 12 17 2-2 0-3 1-5 1 0 3-1 4 0 5 2 7 5 9 7 11 4 25 6 37 6-2 4-4 6-6 8-4-3-11 3-19-1-6-4-19-2-24-8-4-2 3-5-1-4-1 4-8 5-8 6h-3v1-1c-4 3-1 0 2 1v2h-1 1l2-2c10 1 19 6 31 6 8 0 12 2 19 1h3c1-3 2-5 5-6 5-3 8 1 10 0-9-5-21-3-30-10-9-2-9 0-14 0-4-5-5-11-8-18 5 0 4-9 9-7-5 0-9 3-14 3 3-3 4-5 7-6-3 2-6 2-8 4-8 1-13-1-17 0-2-6-8 2-9-4-6 2-11-2-15 2l-3-2v-1h2-2c-1-1-3 0-5-1 2-5-4-5-4-9 6-2 8-2 10-2-1-4-1-4-5-4v-3l1-2c0-2 3-2 4-3 0-3-1-2-4 3-3-1-7 0-7-3 8-2 8-9 14-12 3 2 4-2 6 0 5-5 10-4 13-9 3-4 5-8 7-10l-1 1-1-2c2-7 2-17 0-24-1 5-3 12-9 15-4-2-4 4-5 4-3-1-4-2-3-5-1 5-3 9-5 12-4 5-8 6-11 7-5-2-2-4-2-6h-1l1 2-1 1h-3c-1 0-3-4-2-4 3-3 5-4 8-3 1-1-3-1-1-3-5-3-3-1-7-5-4 0-5-3-9 3-1-4 0-1-6-1 2-6 7-11 5-14-3-2-4 2-6-1 0 5 3 1 3 3-5 3-2 5-5 8-5 2-7 5-10 5-5-2-7-5-8-8 7-7 12-10 19-9-2-1-4-2-3-5-5 4-11 6-17 8-10-5-18-1-26 0-11-4-11-14-16-15 4-5 12-7 19-10 2 5 4 9 7 13 13 3 32 2 37 0-15-2-16-3-36-2-1-6-3-8-5-15-13-2-27-6-36-8-4 5 1 5 3 6 5 3 11 6 17 7 2 3-5 5-10 5 2 3 1 4 0 5-3 3-4-1-6 1-1-5-2-7-5-7 4-3 8-2 10-4-5 0-12-3-17-5-10-6-18-13-24-21-7-7-10-13-13-19 16 12 33 25 49 27 2-1-1-5 2-7-5-2-4 3-11-2-10-5-21-10-27-17 2-6 1-12 3-16 3-3 5-3 7-3-3-2-6-5-7-9 3-3-2-5 4-18 7 4 11 10 15 12-4 3-6-3-10-5-4 4-1 8 0 11 7 13 19 23 26 32 9 5 9 7 14 9-3-1-5-7-5-5-1-5-2-9-1-14 4-5 7 2 10 1-6-3 3-5-9-9-2-2-8-10-13-8-9-9-12-17-23-29 1-2 3-1 4-2-3 0-6-3-8-6-3-7-3-12-2-18"/><path fill="#574A4A" d="M316 333c0 13-6 18-2 36 4-6 10-3 14-6 7 3 3 10 5 11-9 12-21 29-29 34-2 5-2 11 5 9 4-3 7-7 11-9 2 1 0 4 2 4 9-3 13-8 19-10l1-2h2l1 2-2 1c-1 4-5 7-7 10 5 1 9-3 13-6 1 1 2 2 1 3 2-1 5-1 6-4 2 1 2 2 2 3 6-5 7-8 13-7 0 3-14 16-9 13 10-9 17-16 23-23 6-6 5-11 8-15 6-8 5 5 7-3 6-9 6-19 9-27 3-3 3 0 2 1 0-3 1-8-1-11-2 5-2 11-5 17-4-3-8 7-8-1-5 3-6 7-8 10-2-5-3-8-2-11-2 3-2 9-8 10-3 1-4 3-6 2 0-3 2-4 1-6-4 6-8 4-12 7-5 0-6-3-8-4-2-3 1-5 1-6-2 2-3 4-6 5 2-3 1-6 2-8-2 3-5 6-8 8 0-3-5-4-7-6-4-1-5 2-6 3-3 1-4-1-3-2-6-1-7 1-10 2-4-8 3-15-1-22"/><path fill="#F4F6F2" d="M373 276c-1 3-4 2-5 4-10 15-24 11-31 33 5 7 11 3 11 11 7-3 9 2 14-3 1 1 2 3 1 5 3-3 2-5 5-6 2 1 1 3 2 5 3-1 4 2 6 3 4-1 4-3 5-4 2 1 1 3 2 5 2-4 3-8 4-12 2 6 4 8 3 13 3-5 5-10 9-13 2-7-2-12 0-17-2-7-6-10-7-16-5-5-9-7-13-6l-2-1h-1"/><path fill="#F8F9F7" d="M329 166c-6 4-25 9-16 21 4 4 4 10 10 12 7 4 12 7 18 8 14 6 30 3 41 9-5-7-11-10-17-15l-1-3h2l1 2-2-1c-1-3-3-5-4-8-3-5-2-10-3-13-1-5-4-6-5-7-8-4-14-6-21-6"/><path fill="#7B6F6B" d="M404 302c3 11 4 20 2 30-2 6-5 9-8 11-4 3-7 5-9 4-2-9 1-13-1-22-3 2-2 6-5 7-3 3-2-1-3-2-2 6-8 12-14 17-5 1-4-6-2-8-4 4-6 9-9 14-3-2-1-3-2-5-2 0-3 2-5 1 2-4-4-4 0-7-4 0-7 4-10 7-1-3 0-4 1-6-8-2-11-5-16-5 1-2-5-1-3-4-2 7-3 14-5 20 5 2 6-2 10 0 4 0 1 3 3 3 4-3 4-6 7-6 2 4 8 5 8 8l6-6c3 3 2 4 1 6 2-1 2-3 3-5 2 3-2 6 3 7 8 3 13 0 18-2 3 1-2 4 0 5 5-1 6-4 9-4 1-5 3-7 3-9 1 3 1 7 1 10 4-3 5-6 9-7 3 5 3-4 8 0 2-8 4-13 6-18 4 7 2 16 3 24v-30c-4-11-6-20-7-28"/><path fill="#83DEE0" d="M358 126c-3 2-15 2-19 3 7 1 14 0 20 2 26 4 18 8 39 13 4 3 5 5 8 7-3 3-8-2-13-3 4 2-2 2-2 3 4 4 8 6 9 9-8-5-16-5-22-9-5-1-1 1-3 2-3 1-5 1-7 0-3-3 3-4 0-6 7 2 10-4 14-1-4-6-11-3-14-10-11 0-21-2-28 1 6 0 13-1 18 1-7 5-15 4-22 7-8 10 17 4 23 10 5 4 9 1 11 7 5 1 10-1 13 1 4 3 7 5 9 8-1-2 1-3-1-5 5-1 7-2 11-2l4 4c5-3 1-9 1-14l-2-3-1-1 1-1c3 2 5 5 7 8 4-1 7 5 11 3-7-10-19-17-28-24-16-8-8 0-37-11"/><path fill="#F3A348" d="M439 192c16 17 34 32 51 45-4 2-6 1-7 2l-3-2-1-1-1-2c0-4 6 2 4-1-15-9-27-18-37-30-7-3-12-3-17-4-2-3 0-3 0-5-2 6-11 11-10 16-4 5 29 16 38 23 5 1 6 4 8 4l2 1-2-2c-2 0-3-1-4-2-1-3 0-4 1-4 9 3 14 9 20 8l2 2 1 1c8 4 15 10 23 14 4 7 7 12 10 17-3-5-5-10-9-15-5-7-15-15-14-20-17-14-37-26-52-43"/><path fill="#293A4A" d="M233 315c-5 0-8 3-12 3-5-1-6 0-7 1-25-5-15 6-2 0h1l1 2-1 1c1-3 4-2 5-4 13-3 17 1 21 3-8 0 1 13-9 11-4 0-12-2-14 2 3 1 3 3 4 3 15-2 25-1 34 2 0 2-1 3 2 6 4 1 5-1 7-1-1 4-4 6-3 9 5-1 9-2 11-6-3 6 2 4-1 11 10 0 11-9 21-8 0-2 2-2 1-4 7 3 11 0 15-2 1-3-1-5-2-6-3 3-4-3-5 0-2-2-4-2-3-3-4-1-5 3-8 1-4-8-17 4-17-6-7 2-11 5-15 5l-3-1-1 1v-1l-1-3c1-3 6-2 5-5-3-1-5-1-8-1-2-2-6-3-6-6-3 2-5-2-9-3"/><path fill="#22222F" d="M99 369c-1 7-1 8 6 19 7 9 13 18 21 22-4 1-9-3-13-3 8 7 15 12 23 16 7 5 13 4 20 2 7-3 11-9 13-13 5-9-9 13-16 13 0-6 8-4 11-12-20-5-20-15-35-19-5-8-23-14-29-26"/><path fill="#0B0F21" d="M305 175c-4 2-5 5-6 8-4 7-5 13-6 20 0 20 15 46 19 70-3 5-5 9-8 9-9 1-16 4-23 2 1 1 3 0 4 1 13-1 22-3 31-6 12-5 9-13 14-18 8-2 16 1 20 0-5-11-20-6-28-21 0 2 2 4-1 6-7-4-10-18-12-12-6-9-8-16-8-24-2 0 1 2-2 2-1-5 0-8 1-11h-1l-1 1-2-3c0-8 5-15 8-22"/><path fill="#392D32" d="M329 363c-3 5-5 7-10 8-2-1 0-2 0-3-3 0-5 4-7 2 1 3 7-2 5 5s-7 11-9 16c1 2 1 0 2 0-1 3 2 5-1 5-4 4-4 1-6-1-3 3-6 4-6 5 2 2 4-1 4 1-5 9-9 1-13 6-2 3 3 2 1 6-2 2-3 1-4-1h-2v1l1 2c2 1 3-1 4-1 4 2 5-1 6-1 0 5-3 4-4 7 0 3 5-1 8 0-2 2-5 4-5 7 7 2 11 3 18 1-1 2-3 0-2-1 3-4 9-1 12-7 3 6 10-1 11 4 6-4 12-6 15-10 6-5 10-3 10-2 4-2 7-5 8-3 14-11-1-8-5 2-3-2-3-3-3-4-2 3-5 3-7 4-2-2 0-2-1-4-4 4-8 8-12 9 0-6 6-11 6-15-8 4-12 9-18 11-5 1-5-2-4-3-7 3-8 11-16 9-5-2-3-6-4-9 11-7 23-25 33-35 0 2-2-1-3 1 1-5 3-8-2-9"/><path fill="#22222F" d="M119 322c4 2 10 8 15 11-2 1 1 4-1 4l-2-1 1 1c14 6 28 12 43 15 12 6 10 15 15 18 6 4 10 6 13 8 9 3 12-2 17 1 1 1-6-1-5-3 8-2 10-2 15-4-1-5 1-7-2-11-2-1-3 1-5 0 2-1 2-3 3-3-7-1-13 1-18 2 2 0 3 3 4 4-6-4-8 6-14 1-4 0-4-3-5-4 8-1 11-1 14-5-7 0-14 1-23-1 2-3 4-2 6-3-2-1 1-4-1-3-11-5-20-5-29-9l2-2v-2l2 1h-1c-7 0-21-4-31-9-2-2 2-2 3-1 4 1 6 1 7 0-1 1-4 1-4-2 2 0 0 2-1 2-8-1-12-1-17-5"/><path fill="#292028" d="M308 362c-2 3 1 5 2 7-2 5-2 3 1 4-3 5-4 7-5 10-5 7-11 6-15 10-1-3-5 4-6-1-12 12-19 18-1 11-4 3-5 5-6 7 0 2 4 2 4 7-3-1-7 1-10 2 1 4 7 3 3 8 9-2 5 3 8 4-1-2 2-6 4-7 6 1 3 5 1 5 15 0 20 6 34 4 7-1 15-6 29-10 20-11-5 2 14-13-11 7-8-2-17 4-4 5-9 7-13 10-5-4-11 3-13-2-3 1-7 5-11 3-3 3 0 1 1 3-8 3-13 2-17 1-3-4-1-7 3-8-3 1-7 1-9 3-1-6 3-7 6-8-2 0-4 0-5-2 0-4-4-3-5-7 10 1 17-8 23-10 3-1 0-3 2-4-1 1-3 1-4-1 4-7 10-12 11-19-3 1-4-3-6-1-2-4-3-5-2-8"/><path fill="#1B222F" d="M260 335c-2 5-10 3-13 7-3 0-3 2-5 1h-9c-3 0 0 3-4 3 1 3 3 3 3 5 1-1 3-1 4-2-2 1-4 1-5-2v-1l1-1 2-1c2-1 4-1 6-1l2 1v1l1 2c0-3 2 0 2-3 4 1 1 5 6 3-6 5-12 4-17 10-2 4 0 6 1 9 6-1 9-2 12-5s2-4 6-5c0 1-3-2-3-3 3-1 4-3 7-3 1 2 1 3 2 5-4 2-3 7-5 8 0 1 1 1 3 2-1 3-4 3-5 2 7 1 10-9 14-4 2 3 6 5 9 5-2 3 2 3 1 5-4 2-6-2-8 0 1-1-2-4 0-5-3 3-7 4-9 8 3-2 4 1 7 1 1-1-3-2-1-3 4 0 2 3 5 4-4 2-7 4-11 3 5 3 4-1 8-1l1 1v-2l2 1 1-3v-1h2l1-1 1 2-1 1h1c7 1 1 1 8-2 0-2 7-6 5-12 5-2 2 3 4 3 2-1 3-6 6-3 7-4 7-11 10-16-3-2-9 3-13-1-3 1-2 2-2 4-12-1-13 8-22 8-2-2-2-3-2-4l1-2v-1h2l2-2c0-2 1-3 2-4 4 0 4 3 3 3 4-1 4-5 9-6h-2v1l-2-1c-1-2-4-3-2-4-1 2-3 4-4 5-2 4-5 4-5 5-3 0-7 6-10 4-3 0-5 0-4-1 1-4 2-5 3-6-1 0-2 1-5 0-2-2-4-2-3-3 2-4 4-5 6-7"/><path fill="#52B4C3" d="M156 219c2 6 6 13 10 15-1 2-2 4-3 4 3 3 5 7 7 11 0-4-5-8-5-11 14 10 27 15 39 23 12 5 20 10 26 9-3-1 4-1 0-4 2-1 3-2 4 0-8-9-16-15-23-21-1 3-2 2-5 1 4 6 10 9 10 12-12-8-21-15-29-25-5 1-7-2-10-3 2 2 4 1 5 4 0 2-1 3-2 4-9-4-15-16-22-17"/><path fill="#75D2D9" d="M153 202c0 3-1 10-2 17 0 5 4 10 10 12-2-4-6-8-6-12 9 2 16 13 23 17 6 0 2-6 8-3 10 10 20 17 29 25-2-3-6-7-8-9 0-5 5-1 3-6-19-14-35-32-55-40"/><path fill="#521D1E" d="M394 211c19 9 36 15 51 21-2 2-7 1-14-2-13-5-26-10-38-14 3 5 6 7 9 14 8 0 12 1 24 5 27 13 54 20 80 32 1 3 6 4 6 6-2-2-3-4-5-5-9-7-7-6-13-10-19-9-27-15-45-23 2-2 3 0 4 0 11 5 20 9 28 14-5-4-11-7-18-10-24-13-46-18-69-28"/><path fill="#407E96" d="M112 133c-1 5-1 11-1 17 5 10 8 19 14 26-2 4-4-1-6-1-5 4 1 6 0 8 5 4 10-4 16 3 2-3 0-4 0-5 5-1 9 5 12 9s4 0 6 2l1-1v-1h1c2 1 3 3 4 5 0-3-2-4-3-5v-2h-4c2-5-13-18-22-32h-2l-1 2v-1l-2-2c-2-3-2-7-4-11 1 4 2 7 4 11 1 3 2 4 1 5-7-9-8-21-14-26"/><path fill="#36576D" d="M343 270c-10 1-11 11-16 16-6-1-9-2-14-1 1 5-9-3-11 2 11 8 8 11 20 16 2-4 4-7 8-7 2 1 0 2 1 4 4-2 7-4 9-7 5 0-2 2 1 3 3 0 5-2 6-4h2l1 1c-2-1-1-2-1-3l-2 2h-1l-1-3c1-5 8-10 12-14h4v2c-1 2-3 4-4 6 1-2 3-4 4-6-1-8-10-4-14-4-3-2-3-3-3-4"/><path fill="#448594" d="M159 235c12 4 10 19 20 25 1 3 4 2 5 3 4 2-3-1-3-2 2-2 4-2 6 0 0-3-4-4-2-5 7 4 11 6 16 9-2 3-2 1-4 1 3 4 12 6 8 10 4 2 7 2 10 3-1-2-1-3 0-4 8 0 28 9 28 4 4 0-2-2 2-4-3-3-6-7-10-8h-1l-1-2-1 1h-1c4 2-2 3 0 4-6 0-7-3-5 2-22-11-56-27-64-39"/><path fill="#A4A59D" d="M316 169c-10 3-13 14-14 21-1 10 3 16 8 20 3-2 6 7 7 0 2 3 5 4 5 6 5-2 8 10 12 1 8 3 13 7 17 7 17 3 29 2 46 3-2-3-5-5-7-8 0 1 1 2 2 3-6 2-9-1-12-3-9 4-18-2-25 0-11-5-21-6-29-10 0 5-3-3-4 0-4-7-15-7-18-20 0-9 6-15 9-20"/><path fill="#0D0913" d="M273 390c4 2-6 11-9 13-6 4-11 3-16 3 3 1 5 1 6 0-2 3-5 6-8 6-10 3-18 6-28 5-7 1-1-1-3-3-9 2-21 1-29 3 12-4 9-5 16-5 7-3 13-2 28-11 14 6 5-1 25 4 7-2 12-8 16-12"/><path fill="#A8A098" d="M328 309c-2 9-5 17-8 25 4 4 11 4 17 6 2 4 2 6 1 8 3-3 6-7 8-6 0 3 4 2 4 6 1 0 2-1 4-1 0 3 1 4 0 5 3-5 6-10 9-14 2 3-2 9 3 8 3-2 5-4 7-7-1 1-3 5-5 3 0-6-3-10 0-14-3-4-4 0-5 0-3-2-1-2-2-4-8 5-8 10-18 15-2-4 1-5 1-8-7-2-9-1-17-1 0-8 2-13 5-18-1 4-1-1-2-1"/><path fill="#CAD0C9" d="M326 166c-5 1-10 2-13 6-8 7-12 17-4 25 8 5 7 5 11 10 3-2 6 5 5 0 9 5 19 6 27 11 10-2 19 4 26 1 5 1 8 4 12 4-2-3-2-6-4-8-13-3-30-2-43-5-10-4-17-7-24-12-4-8-9-12-10-20 7-6 12-10 18-13"/><path fill="#CE5324" d="M430 191c-5 5-10 13-16 16-38 5 33 18 39 26 8 3 8 4 8 1 18 13 40 24 54 40-1-7-5-11-8-17-9-5-15-12-23-15s-14-6-20-10c-4-1-4 2-6 2-16-7-31-14-46-20 9-1 8-19 21-23"/><path fill="#4C4B55" d="m395 224 6 6c-12-5-21 1-30-2 2 1 3 0 4 2-5 4-9 4-14 7 11 9 9-8 20 3-6 4-13 3-20 4 4 2 4 5 6 10 5 2 8-2 12-2 2-3 5-7 8-8 28-2 19-2 1-12 6 0 10 2 14 0-1-1-2-4-5-5"/><path fill="#1F3954" d="M111 213c-7 3-1 5 2 7-2 3-2 1-4 1 3 2 2 6 2 9-3 1-4-4-6 1 1 4 2 6 5 7 10 0 18 7 25 4-2-7-11-11-13-17 9 3 15 10 22 15-3-10-11-13-20-24l3 3c-6 1-11-1-15-4"/><path fill="#2A5B7B" d="M134 171c1 3 2 5 4 7-5 1 0 2 0 8-6-1-9-3-10-7 0 2 1 3 3 5l-2 1-1-1c0 3-5 0-6 2-12-26-5 8 6 18 4 3 2-6 0-7 6 9 11-3 17 9 3-8-2-9 0-13 8 7 17 10 23 16-6-14-9-14-15-22-1 1 1 1 1 2-2 3-5 5-5 4-5-5-8-9-10-13-2-3-4-5-4-7"/><path fill="#1E3446" d="M146 259c4 3 5 4 10 8-3 0-6 1-9 0-1 9-2 10-2 19 1-2 6 3 9-1 9 8 17 9 24 9-10-10-13-18-22-31-4 1-5-4-8-2"/><path fill="#383741" d="M347 234c-3 4-18 1-10 11-6 0-2 5-1 5 1-3-3-3-3-5 11 7 12 1 24 11 8 1 15 1 21-2-4 0-7 2-12 1 0-4-3-8-4-10 1-1 2-3 4-2 6 1 9-3 13-3-1-3-4-2-7-3 0 5-3 3-4 6-14-6-8-11-17-7"/><path fill="#2D3F4B" d="M207 331c-16-2-20 12-6 19 8 1 13 0 19-1 2 1 3 2 4 3 3-1 4-1 5-1 0-3-1-4 0-6 5 0-1 1 2 2 5 2 8 2 9 0-8-3-15-3-24-4-5-4-8-7-9-11"/><path fill="#727370" d="M301 192c-6 8 5 0-1 14 3 8 10 12 15 18 3 1 2-2 2-5 4 4 6 6 9 7 4-3 10 0 10-3 10 4 9 3 24 12 16-4 12-4 21-8-3 4-10-2-8 3-11-4-26-2-36-11-4 0-5 2-7 2-4-6-10-1-12-10-1 6-6-1-6 0-7-4-12-10-10-18"/><path fill="#161E34" d="M335 246c0 1 4 3 2 5 6 4 6-1 10 4 2 3 5 3 6 5-7 3-15 0-21 2-4 5-6 13-14 17-7 1-11 5-17 5-5 1-8 2-12 1 6 2 9 7 14 7-1-2-4-4-3-7 8-1 15-3 20-3-1-5 6-6 8-12 4-1 5-1 7 0 5-1 6-4 8-7 9 1 15 4 22 4 1 4 1 6 0 8 2-5 10-5 6-8l2-1 1 1 2 2-1-1-1-1-3-2c-1-1-3 0-4-1l-1-3v-1h2l-1-2c22-6-1 3-8-2-14-8-14-4-23-9"/><path fill="#25384F" d="M344 264c-2 1-2 5-6 6-3-1-5 2-8 0-5 7-9 8-7 12-7 0-13 3-18 2l-2 2h-1l-1 1v1l1 1c5 4 0 3 5 5-4 5-9 2-12 4 3-2 8 1 11-1 1 9 19 14 14 20 3-2 2-4 3-5-3-2-5-3-8-5 5 1 8-3 13-5 2 2 0 7 3 8 2-7 4-14 11-16-3 2-7 5-9 6-4 0-4-3-3-4-5 1-4 7-8 9-14-6-11-12-19-15l-2-3v-1h2l2-2c9 5 8-5 20 2 7-3 4-10 10-12 3-4 6-4 8-6l2 1v1l1 2h1c6 0 9-2 15 0-1 5-2 10-5 14 5-2 6-8 6-9 6 0 7-8 2-1-1-3 0-4 1-6-8-3-14-4-19-7"/><path fill="#56B5BB" d="M405 150c5 5 6 14 3 18-14-10-19 2-12 15-2-6 4-3 1-5 9-2 14 2 23 2 0-7-3-12-1-18 7 4 13 5 17 12-2-6-7-7-10-13-4-1-4 1-6 0l-1-1-2-1c-5-2-9-7-10-9"/><path fill="#06040C" d="M183 363c1 6 5 9 9 11 3 0 4 6 7 3 8 3 11 8 16 9 0 3-2 5-4 6-5 0-8 1-10-1-5 0-5-3-6-4-11 4-14 1-5 8 1 0 3-2 5-3 6 0 7 4 12 2 5 6 8 8 11 11 8-2 14-7 17-13-4 2-8 4-13 3-3-1-4-2-6-2 1-4 1-6 3-6 11-8 20-14 30-20v-2h1c-9 7-19 13-29 16-8 0-13 1-20-3-8-3-12-8-17-14"/><path fill="#514F50" d="M304 211c-1 7 2 12 3 18v-2h1l2-1c1 3 3 4 6 5 4 2 1-1 4-1 5 5 8 0 11 8 3-4 5 0 10 0l-1-2 1-1h-1l1-1c6 0 13 1 15-1-14-8-7-4-19-8-1 2-7-1-8 3-7-2-8-5-10-7 0 3-1 5-4 5-2-7-9-7-11-13"/><path fill="#06040C" d="M231 402c-9 5-17 8-26 11-8 2-14 1-20 1 10 0 21 1 28-1 6 2-1 5 3 5 22-3 57-11 12-16"/><path fill="#182332" d="M151 252c2 10 13 20 17 28 2 5 9 7 12 12-4 5-6 0-9 3-7-2-11-5-15-8-4 1-7 0-8 1 9 5 9 9 28 16 6 1 5-8 15-5-2-1-5-2-2-5 7 2 8 7 15 6-5-3-10-6-14-11-1 1-1 2-2 4l1 2h-3c-1-1-3-3-5-3-9-10-23-26-29-38"/><path fill="#D1D0C7" d="M340 303c-6 8-12 15-12 25 7-1 9 1 15 1 2 4 0 6-1 8 8-3 14-9 21-14 0-1-1-3 0-4-1 2-1 4-3 4-5 0-6 2-11 2-2-9-8-4-11-11-2-4 0-6 1-8"/><path fill="#3A596A" d="M236 316c6 2 5 4 6 0 2 4 3 6 7 7 3 1 5 1 7 1 4 5-2 5-3 7l1 3h3c4 0 8-3 13-3 2 8 15-4 17 4 6 2 5-3 7-3 4 2 3 5 6 4 4 1 1-2 4-1-23-10-42-9-60-17-3-2-4-2-5-1"/><path fill="#3F8593" d="M420 163c-6 1 1 6 1 17-9 1-15-3-21-2-4 4-5 6-6 8 4 1 3-3 5-3 12 4 20 5 29 5-3-6-1-11-1-16 14 10 9 7 6-2-3 0-7-6-11-6"/><path fill="#431C28" d="M254 448c2 9 2 20 4 25 10 6 21 8 31 10 1-2 2-3 4-4-12 0-17-8-26-6l-2-1-1 1v-3c2 1 3 2 4-1-3-2-6-2-6 1-2-7 2-3 0-9-3-6-3-8-4-13h-1"/><path fill="#4AAEB9" d="M192 280c-2 6 3 11 6 14 11-1 16 8 23 9 5 0 9 2 12 0-11-10-28-13-40-21"/><path fill="#181A2A" d="M143 435c-11 3-5 4-18 7-15 2-15-5-21-1-4-1-6-2-7-4 0 9 12 12 17 16 6 1 15 2 21 1-7 1-13 0-20-1 4-2 7-3 11-2-5-1-1-6 0-4 3 3 5-2 5 0 4-5 7-8 13-11"/><path fill="#55AAC1" d="M354 138c-12 1-22 4-31 11-1 1 4 2-1 4 3 1 5 0 7 1l-1 1h-1v1c0-1 1-1 2-1-7 5-14 6-20 11 7-5 15-7 24-8 12 1-2 2 14 1-3-1-3-3-5-3 10-1 18 2 22 8 10-4-2-6-5-9-11-2-20-3-28-4 0-3 1-5 2-7 9-3 17-3 25-4l-1-2h-1v1"/><path fill="#325F6F" d="M428 172c-1 5-2 11 3 15-12 2-19 1-29-3-4 1-4 3-7 5-2-4-2-6-2-9 1 4 0 7 1 11 8 6 17-1 25 6 4-4 7-6 10-8l1-2h1l2 1 1-2c-3-1-2-4-3-7 10 7 4-5-2-7"/><path fill="#4B7F90" d="M252 312c-29 6 22 12 38 16-6-9-22-10-33-15l-2-2h-1v1"/><path fill="#86CAD3" d="M212 189c2 2-3 4-1 7v2l-1-2-1 1-1-1 1 1 2 2-1 1-1 1v-1 1c0 2 0 4-1 5-3 2-2-3-3-1 5 14 10 21 17 35-3-18-5-33-9-50"/><path fill="#02040B" d="M191 271c2 1 4 2 5 3 4 3 1 4 0 3 6 6 12 9 18 12 9 3 16 5 23 7 0-2 0-5 4-4-18-6-30-13-48-20"/><path fill="#461D28" d="M325 460c0 2 3 3 3 6 12 3 26 7 37 6 3-2 3-4 5-4 0 1 0 3-1 5 3 0 6 1 7-2-1-2-3-1-5-2-14-4-30-5-44-9"/><path fill="#D0D1C8" d="M380 275c-2 1-4 0-5 1-5 1-9 2-10 4 1-2 5-1 8-3 5-3 7 2 10 0 10 3 11 13 16 18 0 8 2 14 2 21-7 4-6 11-9 15-2-2-3-4-2-5 0 2-2 11 2 10 8-3 10-10 11-15 2-9-3-20 0-24-3-10-12-16-19-20l-1-1-1-1"/><path fill="#2E506D" d="M111 206c-2 5-11 0-10 8 2-2 4 2 7 3-5 0-10-3-12-1 3 10 5 8 6 15 3 6 9 9 12 13-2-4-8-6-10-10 0-4 2-4 2-5 2 0 4 0 4 2 0-4 1-8-3-9 2 0 4-3 4-1-2-3-3-1-4-5 1-4 3-1 3-4 6 5 11 7 15 8-2-7-8-9-11-13"/><path fill="#315463" d="M226 319c-2 2-5 0-7 1-4 0-6 1-6 3 0 3 1 4 0 7 7-2 10 2 16 4 0-4 4-3 5-4 0-2-1-4 1-5 10-2-3-7-6-7"/><path fill="#67A7B6" d="M201 206c-1 4 1 13 1 20 1 5 6 5 4 2 4 10 12 6 13 17 3-4 1-5 2-8-9-14-12-19-17-32"/><path fill="#1D1E2B" d="M110 350c0 7 4 12 6 19 4 4 4 0 5-2 6 7 11 11 15 16 3-4 1-6-1-7-9-11-16-18-22-26"/><path fill="#45202C" d="M349 456c12 6 36 10 48 12 1-1 1-2 1-3l3 1v3l1 1c7-5 4 2 17-1-8 2-10-7-17-2-2-8-9-2-13-7-10 0-29 1-36-4"/><path fill="#16222F" d="M390 193c-1 3-4 4-5 5-3 1-5 0-6 1 1-1 2-1 4 0 0 2 3 3 0 4-7-3-13 2-5 4 1-1 9-2 11-8 3 4-3 5-1 8 7 0 12 0 16-1 4-3 2 0 6-6-6 2-10-7-14-1-4-1-7-1-7-3"/><path fill="#0C0F25" d="M383 255c-26 1-10 14 3 19-1-3-5-5-3-10 5 2 8 3 10 7-3-6-8-10-11-15"/><path fill="#333645" d="M133 290c4 5 7 11 13 14 5 9 11 10 18 17-3-4 3-6 3-8-11-6-21-14-32-21"/><path fill="#5BA9B2" d="M187 300c-8 11 24 8 31 13-1-3-5-3-9-4 3-3 5-3 7-3-8-3-17-4-25-6"/><path fill="#21222E" d="M130 284c2 3 3 4 4 5 11 9 22 17 34 23 0 3-6 5-4 7 16 8 16 9 24 10-7-3-13-4-16-9-2-7 7-2 7-6-4-6-16-4-22-11-10-5-17-13-25-17"/><path fill="#3B616F" d="M216 274c2 4 8 6 7 10 11 4 20 6 29 6-2-5-13-8-20-11 1-3-1 0-2-3h-1 2l1 2-1 2c-1-2-2 0-4-1-5-3-8-3-9-2"/><path fill="#ACA599" d="M405 307c-2 3 1 9 0 13-3 4-2 11-8 13-4 4-6 5-8 4-1 2 0 5-1 8 8 0 14-5 16-10 2-11 3-18 0-27"/><path fill="#487F96" d="M99 192c-1 4-3 8-2 14 2 3 0 4 1 6 2 1 4 1 3 2 2 2 3 3 5 3-2-1-5-4-6-5 4-6 7-3 11-6 4 0 4 3 6 4-1-2-2-4-4-5-4-5-9-7-14-12"/><path fill="#221D29" d="M308 362c4 2-1 11-2 15-6 7-11 13-17 14-1-7-1-10-3-14 4-4 4 0 5-3 0 6 0 9-2 12 2-1 4 2 4-1 10-5 12-13 14-20"/><path fill="#18182A" d="M179 446c12 0-8 13 4 11-8 5-15 4-19 7 2-6 7-8 12-14"/><path fill="#528289" d="M184 300c-2 4-3 9-2 14 28 7-2-5 23 1 2 1 4 0 6 1-3 0-3-2-6-1-2-3 0-3 0-5l-21-3c0-3-1-7 3-7"/><path fill="#88DAE1" d="M247 273c4 2 2 8 10 15 8 1 12 5 19 3-13-5-9-10-29-19"/><path fill="#343948" d="m112 241 5 5c-3 1-3 3-5 2 2 4 3 6 5 9 0 0 2-3 4-2 6 2 9 5 14 4-6-10-14-10-21-15"/><path fill="#F9E5AF" d="m437 193 2 1c0 1 2 1 2 3-18 2-6 1 2 4 12 13 24 22 37 29 7 13-6-2 1 6 3 2 5 1 7 2-13-12-34-29-49-45"/><path fill="#5FA6B1" d="M258 308c-12 5-18-1-22 7 14 0 8-5 20-4 9 7 21 4 28 11-6-6-17-8-22-14"/><path fill="#558194" d="M199 210c2 6-3 14 1 20 5 6 14 14 20 19 3-5-5-4-4-12-5 2-7-4-8-8 0 3-4 3-4 2-4-8-3-14-4-20"/><path fill="#D2CFC6" d="M369 320c-4 1-3 7-7 7 2-1 4-4 6 0-2 6 1 10 1 15 8-6 9-12 13-17-2 2-3 3-6 4-3-3-5-2-6-3-2-3-2-4-2-5"/><path fill="#92AFA3" d="M295 312c2 2 5 4 4 9-29-7-13 4 10 9-3-6-8-11-12-16"/><path fill="#DDF3EC" d="M385 127c2 1 5 3 1 4 14 6 28 17 39 28-2-5-6-9-9-14-10-8-20-11-28-17"/><path fill="#243B4A" d="M393 189c-6 7 1 12 7 6 4 3 6 4 10 3 2 4-4 5-2 6-4 1-4 1-1 2 8-2 12-8 17-12-2 1-3 2-4 4-8-1-13-8-19-2-4-3-6-3-9-4"/><path fill="#C2E8E6" d="M349 115c9 8 27 11 38 15-6-4-20-13-37-15"/><path fill="#10111A" d="M434 149c3 11 6 21 11 31-2 5-5 3-4 1-2 2 1 5 0 7-3 2-6 1-10 2 4-1 6 0 8 1 3 1 12 8 15 12 1-4-11-25-19-52"/><path fill="#152236" d="M111 238c6 10 18 9 24 20 0 3-1 2-2 3 1-1 2 0 3-1-2-4-4-6-5-9 2-5 4-2 6-7v-2l1-1h-1l-1-1 2 1-1 2-3 1c-2 0-3-1-5-2 1 1 0 3-2 3-6-3-9-6-15-5"/><path fill="#91CCCB" d="M262 306c1 4 13 9 20 12l3 1-2-2c-1-2-6-3-2-6 6-1 8 2 12 2-5-5-19-3-27-7"/><path fill="#396178" d="M308 301c-1 3-11 4-1 12 4 2 8 0 11-1-3-4-6-6-9-10"/><path fill="#332F41" d="M106 317c2 4 5 6 9 8 3 2 9 11 14 11 2 0 4 0 4-3-5-3-11-8-16-11 2 1 2 4-1 4-5-3-7-5-9-9"/><path fill="#477080" d="M349 275c8 0-5 11-8 14-2-4-1-6-2-8 3-4 5-4 8-5"/><path fill="#B5D6C9" d="M281 311c-2 5 6 8 9 10l2-1v-1h4v1h3c0-3-2-4-4-5-5-1-8-4-12-3"/><path fill="#1E1F31" d="M383 265c2 10 12 14 20 24-11-11 2-5-9-11 1-5 4-3 4-1-6-9 6-1 0-4-4 0-8-5-12-8"/><path fill="#1A1A2D" d="M179 447c-4 7-11 10-16 14 6-1 13 0 16-3 5-3 0 0-2-2 2-4 10-9 4-9"/><path fill="#192335" d="M295 297c2 2 6 1 9 2 8 4 13 11 18 11 1 3 1 4 2 6-6 2-3-3-7 5-2 7 4 1 5 5 0-3 1-5 2-8 1-7 5-10 5-15-4 2-7 2-9 5-7-1-10-7-14-9-3 1-7-1-9 0"/><path fill="#203B4E" d="M223 294c5 2 11 3 16 4 2 2 0 8 0 8-48-8-28-2 3 4 1-2 7 0 9-6-3-1-8-1-11-4-6-2-10-6-14-6"/><path fill="#121E2F" d="M137 200c1 3-1 3-3 4 1 3 2 4 3 6-2 4-3 3-4 4 1 0 2 3 3 3 0-1 3-3 0-4 2 1 6 0 6 2 5-2 0-6 4-7-3-1-4-4-7-5"/><path fill="#1F212D" d="M119 255c1 5 4 7 8 8 3 4 4 5 6 7-6 1-9-2-13-5 7 4 12 13 20 15 0-5-3-7-6-9l-5-5c1-4-5-6 0-7-3-1-5-2-8-3"/><path fill="#B77D4C" d="M429 201c9-2 13 7 20 10-3 1-7 1-9-1-9-2-7-9-9-6"/><path fill="#D4F9F3" d="M378 140c3 1 5 3 7 6-6-2-8 3-14 1-2 8 0 3 5 2 5 0 5 4 8 2 3 1 2-6 8-2-2-7-8-7-11-9"/><path fill="#22212E" d="M89 277c4 6 16 20 24 24 14 7 19 10 30 15-13-5-22-15-35-20-7-6-13-10-17-16"/><path fill="#40646E" d="M233 309c3 2 1 4-1 4-10 3-18 0-26-1 0 2 4 2 7 3-33-6-3 5-31 1 15 3 34 2 48-2h4v-1c1-1 0-2 2-2"/><path fill="#34606B" d="M393 120c11 12 24 24 36 36-6-8-9-17-16-19l-1-3-1-1-1-1 1 1 2 2-2 1c-11-5-10-12-16-14"/><path fill="#427BA0" d="M334 141c-9 2-16 6-24 11 4 2 6-1 10 0 1 2-3 3-5 5 11-6 4 6 14-1 0-1-9-3-6-5 1-6 8-6 12-11"/><path fill="#2B1521" d="M322 451c-1 5-2 3 1 5-7-1-3 9-9 7l2 3-1-2c4 0 3-6 7-6 0 3-1 4 0 6 2-3 5 6 8 3-5-3-2-4-6-6 4-4 7 2 9-1-3-5-6-10-9-7"/><path fill="#211B2B" d="M109 311c16 8 32 10 48 14-21-5-42-13-41-15"/><path fill="#50848D" d="M358 275c-4 4-11 9-12 14 4-4 3 6 3 3 7-6 9-11 11-17"/><path fill="#3A6C78" d="m184 255 6 6c-18-4 13 13 18 14-21-10 2-7-22-18"/><path fill="#451E2D" d="M268 459c3 5 7 8 11 11 7-2 23 7 34 8-6-5-26-7-31-9 0-1-12-4-12-10"/><path fill="#4A8795" d="M220 307c-16 1-6 1 2 4l-2 2h-1v1l-2-2c-3 0-3 0 0 1 6 0 12 1 16 0-4-4-9-4-13-6"/><path fill="#3A363F" d="M387 230c5 4 12 6 16 10 5 1 7-3 12-1-8-9-16-3-26-8"/><path fill="#281E24" d="M410 353c-4 4-2 11-4 14 3-1 5 8 6 8-1-6 0-14-2-21"/><path fill="#1D2333" d="M83 248c2 5-2 4-2 5 3 1 4 4 6 4 4 2-1-1 3-2 7 7 19 4 17 10-7-8-18-11-20-15"/><path fill="#62A5B1" d="M121 142c-2 2 6 9 5 15 1-2 2 1 4-3 6 10 18 23 25 34-11-15-21-30-32-46"/><path fill="#251921" d="M265 419c-2 2-4 1-3 5-1 6 2 2 3 8 4-5 7-4 6-6-2 1-4-5-6-5"/><path fill="#5DA6B5" d="M260 279c9 6 5 10 19 14-1-1 2-1 5 0-3-6-17-7-22-14"/><path fill="#0F1622" d="M390 201c-13 7-14 7 0 15 1 0 2 1 2 3 0-2-1-3-2-4 0-4-1-6 0-8-1 3-2 0-3-1 2-2 1-5 4-4"/><path fill="#717579" d="M328 161c-15 6-19 10-1 2 6 0 11 0 15 2 8 1 12 5 17 7 2 6 1 8 2 13-1-4 1-8-1-11l-1-1-1-3c-5-2-9-5-15-6-6-2-10-3-15-2"/><path fill="#15222F" d="M435 156c2 2 1 5 1 7-2 1-2-1-3-3 3 7 5 20 8 22 1-9-4-16-5-25"/><path fill="#1F2937" d="M282 338c3-1-1 7 6 4-5 3-5 7-9 8-2-1 1-4-2-4 0-3 3-4 3-5"/><path fill="#28333D" d="M206 360c-3 2-8 0-11 1 0 3 3 4 5 3 8-3 14 2 15-3-5-1-5 1-7-1"/><path fill="#1D3854" d="M146 191c-5 5 6 9 0 15-4-2-6-4-8-6-2 5-7-1-8-2 1 1 2 3 1 6 0 3-2 5-3 2 2 2 2 4 3 6 7-2-1-9 6-11 3 1 5 3 7 5h2v-1h2l-1-1c1-1 3-5 1-7 2-1 2 1 4 1l-4-4"/><path fill="#2E475B" d="M237 324c6-3 11 2 16 2-2 4-5 3-8 3h-1l-2-1 1-1-1-2c1 5-3 3-4 1"/><path fill="#428496" d="M343 156c2 0 2 3 3 3-3 6 9 1 18 5-4-1-5-6-12-7-3-1-5 0-7-1"/><path fill="#282532" d="M141 376c5 3 10 14 17 19-7-3-12-10-17-16"/><path fill="#487383" d="M350 276c-3 1-7 1-10 3 0 3 1 6-1 8 6-2 8-7 12-10"/><path fill="#39353D" d="M309 227v5c-1-2-1-3-1-4 4 6 8 10 11 15 3-3-1-4 1-5 3 1 4 2 4 4 1-4-2-5-3-7 6 0 2 1 7-2-3 4-4-2-5 0l-3-1v-1h2-3c1 1 0 3-2 3-3-3-6-3-7-5"/><path fill="#161A25" d="M266 367c8-2-2 8 0 9-3 2-4-1-6 1-1-4 2-6 4-7"/><path fill="#151119" d="M373 411c-9 5-17 10-25 15 4 0 8-1 11-4 6-2 8-7 12-9"/><path fill="#B6F1EA" d="M368 137c6 4 16 5 18 11l1 1v2l2 1-2 1c-2-2-2 2-4-1 4 3 8 2 10 6 2-4 0-3-3-7 4-1 4-5 8-2-1-1-6-2-4-3 10 0 5 6 10 6-1-2-3-4-4-7h-5c-3-1-5-3-7-3 1 1 2 0 3 2 1 3 3 6-1 6l-1-1-3-1c-2-4-5-6-9-8-2-3-5-2-7-3"/><path fill="#05050D" d="M183 331c-9 0-10 2-2 9 4 0 3-4 1-5 5-4 8-1 10-4-3 1-5-1-8-1"/><path fill="#26222F" d="M162 373c6 7-3 2 1 6 2 5 8 11 10 7-4 2-2-4-5-5l-1-3v-1h2l1-1c0 3 2 4 4 5 1-2-1-2-1-4l-1-1h-1v1l-2-1c-2 3-3 0-4-2"/><path fill="#0B1020" d="M318 319c-2 1-4 1-4 3-2 7-1 11-2 17 1-4 3-7 4-11 3 0 2 3 3 4-1-1 1-1 0-3 2-4-1-4-3-3 0-3-1-5 0-6"/><path fill="#2C3848" d="M174 190c1 5 0 12 1 19 1-2 3-1 4-2 1 5 3 13 6 13-6-5 0-10-3-11-4-7-6-12-7-17"/><path fill="#020308" d="M299 311c2 4 5 5 9 6-1 11 4 17 4 25 0-5-1-13 0-18 2-4 4-5 6-6-3-1-5 1-8 0-4-2-7-3-9-6"/><path fill="#36536D" d="M286 291c-1 3 3 2 8 5 4 0 8 1 11 1-7-8-10-3-16-4"/><path fill="#375F6A" d="M150 246c-2 2-3 4-4 10 4 4 6 4 7 7-1-5-5-11-3-16"/><path fill="#B34B2E" d="M394 216c16 4 31 12 47 16-15-6-29-12-45-16"/><path fill="#353844" d="M110 253c0 3 1 5 2 7 8 3 13 9 19 11 0 1-13-10-20-16"/><path fill="#31272E" d="M300 395c9-4 3 7-2 8l-2-1-2-1h3l1-2 1-1"/><path fill="#151219" d="M421 238c1 1 3 2 5 3-9 2-24 4-35 7 9-8 59 0 32-9"/><path fill="#BBDED8" d="M389 120c0 4-8 0 3 6-1 2 1 2 1 3h2l1 2v-1c-1-2-3-2-2-3 3 2 6 2 8 4-3-3-7-7-11-9"/><path fill="#272227" d="M386 392c-5 11-13 15-22 23 3-2 6-4 9-5 8-6 9-11 14-16"/><path fill="#447C92" d="M294 299c6 2 4 12 12 13-5-2-5-6-3-7 1-3 2-3 4-2-3-4-9-1-12-3"/><path fill="#375272" d="M311 152c-8 5-13 12-17 20 3-4 4-8 10-13 4-1 5-4 7-4 6 1 0 2 0 3-1 0 18-10 2-4-3 0-4 1-4 0"/><path fill="#161E33" d="M317 159c-9 2-17 7-23 14 6-2 12-8 23-14"/><path fill="#29424E" d="M432 179c1 3 0 6 3 7 1 3 2 2 4 3 1-4-1-6 0-9-1 4-4 0-5 1"/><path fill="#292B39" d="M181 355c4-1 8 2 11 3l-1 2h-1v2l-3-1c-1-1-3-2-5-3"/><path fill="#2A1623" d="M247 431c4 3 7 8 9 13-1 1-2 2-2 1-2 7 1 10 1 17 0-6-2-9-1-15 2-1 3 0 5 0 1 6 0 8 4 12-3-3-2-7-4-10-3-4 1-5-1-7-3-5-7-6-8-10"/><path fill="#262532" d="M123 426c-4 1-1 3 5 6 2-1 3-1 4-1 7 2 12 1 16 0-2 0-12 2-19 0-1-3-2 1-4-1l1-1 1-1 1-1c3 0 4 3 6 1-3 0-3-2-6-1l-2-1h-1v1"/><path fill="#6E6981" d="M401 243c-5 1-10 1-14 3-3 2-4 4-5 6 2-2 3-4 6-4 2-4 30-5 15-6"/><path fill="#59ADBA" d="M266 299c4 3 15 3 22 2-7-4-13 2-19-2"/><path fill="#494C56" d="M95 240c6 4 13 7 17 12-3-3 0-4 2-5-7-3-12-4-17-7"/><path fill="#253A57" d="M315 155c-7 2-13 5-17 12 9-6 10-6 16-13"/></svg>