<svg xmlns="http://www.w3.org/2000/svg" width="600" height="600"><path fill="#686B66" d="M398 110c4-2 9 0 13-1 20 2 33 10 51 6 18 22 43 29 56 54 6 12 8 23 7 36 7 4 13 5 17 11 50 32 12 49-2 81-11 1-11-12-17-16-8-3-16-3-21 1-3 10-4 19-7 27-10-1-18-7-24-8-7 35-7 73-7 107 10 9 21 18 30 26 3 7 10 16 4 21-29 8-57-1-85 1-7-7-13-15-19-19-25 7-47 15-71 17-7 1-8 4-9 8 1 4 5 9 3 14-10 4-20 3-29 3 2 5 0 9-5 8-21-2-42-3-61-7-9 3-16 4-24 3-8-4-3-16-13-18-24-8-50-9-72-7 1-10 2-13-3-19 4 1 13-2 8 5 1-3 4-4 4-7-2 1-6 1-8-1 6-7 13-4 16-14 13-1 22 5 32 0-18-1-34-9-49-20 2 9 11 12 18 16-12 1-5 0-16-4-3 3-3 6-6 6-1-4-3-10-6-14 3-2 5-2 6-3-17-25-46-45-58-71-9-16-14-31-16-47-3-34-10-63-7-96 1-13 4-24 9-35 6-8 8-18 17-19 9 12 12 24 17 35 7 9 18-1 24 6 4 14 4 27 3 41-3 12-9 21-18 29 12 16 28 27 46 34 11-20 24-36 42-49 2-11 4-21 10-28 10-4 18 1 24 5 6-10 9-19 16-27 12 0 17 10 23 15 7-9 12-18 19-27 9-2 13 3 17 8 5-5 7-11 12-12 8 4 11 10 14 14 10-18 22-38 41-50 12-8 23-13 34-16 8-2 13-1 18-3"/><path fill="#E8D297" d="M344 306c-2 4-6 6-8 9 7 9 12 16 14 24-6-6-10-14-16-22-8 8-13 15-19 22 4 8 10 15 13 22-12 2-22 1-32-1-4 3-5 4-6 6-3 5 6-2 8-3-5 13-12 26-10 40 4 4 6 7 9 7 8-6 14-10 18-16 1 5-7 10-9 16 4 0 5-6 10-7 1 3-3 5-4 8 12 1 24 1 37 1 15-2 27-6 38-11 14-6 26-14 34-24 28-29-5-35-25-37-19-10-34-21-49-33"/><path fill="#4E656D" d="M245 268c2 3 16 6 10 9-18 0-33-5-50-4-25 2-49 5-69 17-2-11-3-6 3-16-7 16-14 11-21 44 2 2 4 3 4 4 6 1 10 0 14-1 0 4-9 3-7 8 6 5 12 7 18 7 17-1 31-3 44-10 8-6 9-15 18-17-8 1-16 1-24 1-11 4-18 8-26 11-8-8-12-16-19-21 28 9 57 5 84 7-1 0 34 14 44 23 18 4 34 0 47 0-5-18 23-46-15-55 6 5-7 7-8 10-7 0-4-7-8-8-13-2-23-6-33-8l-2 1-1-2-1 1"/><path fill="#7E634A" d="M372 289c-9 5-18 9-25 16 7 6 14 12 22 16 19 14 40 21 61 25 5 8 2 16-1 22-11 17-27 30-42 36-26 10-54 10-82 9 0-4 1-8 5-10-5 1-8 8-12 9-7-3-12-7-12-12 2-14 4-25 11-34-5 4-13 6-13 5-2 21-15 41-8 61 8 8 16 9 24 11 10 2 19 1 27 2 27-3 50-10 71-21 7-5 12-9 18-13 11-24 27-45 37-67 6-17 11-35-6-5 0-8 3-14-4-17-10-6-19-8-28-11 8-1 15 2 23 2 0-4 0-7-2-9-20-6-38-10-56-15-4-1-5-1-6 0"/><path fill="#6494A3" d="M296 198c-10 7-23 12-35 15-19 8-29-3-43 7-15 5-33 20-50 22-7 9-23 15-25 28-3 5-6 10-6 17 23-13 51-13 78-17-5-4-11-10-16-16-2-6-4-10-4-14 8 3 15 8 22 12 2-8 5-15 11-21 0 7-4 13-2 22 3 4 7 5 9 8 19 7 37 11 54 16 3-16-8-24-5-39 1-15 7-26 11-38"/><path fill="#3F3E46" d="M120 295c-7 13-20 21-32 25-48-27-25-6 6 13-10 6-10 15-12 23 2 14 13 23 21 32 4 0 6 3 7 3-1-10-1-19 0-28 2 11 4 20 8 29 15 1 28-1 39-5 14-4 25-9 35-16 2-8 4-13 7-17-7-4-15-2-21 1 0-3 2-4 5-5-5-6-12-8-12-14 1-3 4-2 5-4-8 3-17 5-26 6-10-1-19-4-23-11-9 0-12 8-14 16-1-5 0-8 1-10-4-2-8 2-11 0 6-5 14-8 20-9-5-5-6-18-4-26"/><path fill="#A17A54" d="M496 204c-27 7-48 30-79 27-13 5-26 6-35-2 0 6 6 10 10 10 20 7 38 8 57 9 20 5 35 15 52 19 22 3 39-4 54-12 5 1 1 4 1 6 19-6-2-15-6-21 2-4 8-3 2-8-15-11-35-12-52-21 3-4 10-4 15-5-2 1-3-1-6 0-5-2-7-1-10-1"/><path fill="#70A3B3" d="M413 124c6 4 21 15 27 26 3 8-2 13-6 16-7 2-15 2-18-1 6 9 12 19 15 30 1 18 4 23 2 26 10-3 12 6 19-1 14-11 24-13 32-18 11-2 18-2 33-4-1-5-4-13-1-13-3-7-18-30-27-40 2-2 1 8-1 16-14-14-24-26-40-33-11-3-21-5-32-4"/><path fill="#5F8C9B" d="M51 139c-10 12-13 28-17 42 0 22 4 39 5 58 5 12 7 24 14 34 10 11 19 19 31 21 4-5 19-6 17-17-5-4-11-11-16-8-10-11-12-21-15-28-7-12-16-20-26-27 8-2 15 5 22 4 4 0 7 0 7-2 1 2 1 6 5 6 9-6 10-14 12-21 3 6 3 12 3 18 3-13 1-28-2-40-8 0-14 3-20-1-3 6-4 4-8 9 1-7 1-12 2-17-4-12-7-22-11-31"/><path fill="#403F47" d="M320 166c-3 11-12 19-4 24-9-4-18 32-28 37-3 5-2 12-4 18 4 14 14 22 22 32 13 11 25 18 36 25 10-6 18-11 26-15-14-4-27-13-36-26-2-6-4-11-1-16 6-8 14-10 22-10-14-8-18-24-25-36 2-7 7-12 11-14-4 1-9 2-14 4-5-6-4-14-6-20"/><path fill="#6393A2" d="M248 339c-14-1-8 15-15 13 0 12 4 22 11 29-10 15-1 23-11 37 3 9 7 12 13 15 4 1 3-2 6-2 0-9-5-20 3-26 6-4 9 2 12 1 1 5 1 9 1 12 1-13 6-24 10-35 1-7 0-10-1-14-12-10-17-26-28-31"/><path fill="#E8D296" d="M352 239c-1 6 1 9 3 13 5 10 11 17 19 21 25 7 13 4 68 15-9-13-16-23-27-29-11-8-24-8-33-17-10-3-19-2-28-3"/><path fill="#70A3B3" d="M403 126c-12 0-23 2-32 6-12 4-21 10-30 18 2-3-4-5-1-7-6 6-12 11-16 15 0 10-1 15 0 22 4 1 7 5 22-1 2 4-3 3-1 7 7 8 5-8 14 3 11-11 7-33 20-45 22-6 3-14 29-18"/><path fill="#587882" d="M243 336c-12 2-19 14-25 22-3 14-1 27-2 39 5 16 6 31 12 44 7 5 14 7 22 6 5-1 9-3 12-4-7-16-24-3-28-24 8-15-1-24 12-34-10-11-14-21-15-31 6-2 6-19 20-16-2-2-4-3-7-2"/><path fill="#6799A9" d="M366 180c-1 3-4 8-7 8-12-8-8 1-12 0 2-13-8 2-17 5 2 11 6 18 9 25 5 8 11 13 17 16 8 2 15 1 22 2 2-18-18-32-12-55"/><path fill="#54727A" d="M50 270c4 7-4 10 5 27 9 9 16 19 26 20 9 2 19-5 27-10 4-3 8-11 14-16-1-5-13-7-19-12-5 9-15 15-23 16-13-6-22-15-30-24"/><path fill="#3F3E46" d="M207 344c-3 11-4 21-5 32-1 24-1 47 6 65 11 4 22 11 33 7-5 0-12-2-14-8-7-13-8-25-11-37-1-16-1-29-1-42 3-6 7-11 9-13-10 5-5-6-16-2"/><path fill="#7D624B" d="M190 378c-20 11-42 19-66 19 7 8 14 13 22 16 11 4 22 6 32 3 10-11 10-25 12-38"/><path fill="#352B35" d="M32 200c3 35 6 70 13 103 5 14 10 26 16 37 7 12 18 21 26 30-4-4-6-9-6-15 2-9 3-16 11-21-9-7-18-10-24-18-8-8-16-15-19-23-12-31-11-61-17-91"/><path fill="#372D37" d="M207 311c-9 12-21 22-36 23 1 8 8 10 12 15 8-3 16-3 22-4 5-2 13 0 13 4 7-2 10-5 12-8-7 1-15 6-16-1 6-17 34-35-8-27"/><path fill="#BADFEA" d="M407 128c-36 2 0 20 11 39 11 0 18-2 22-9 1-5 1-7-2-9-7-11-16-15-24-19-4 0-5-2-7-1"/><path fill="#100A13" d="M469 299c-10 25-12 54-25 78-9 18-23 33-39 43-20 13-40 21-61 24-22 3-47 5-64-3-7-6-7-13-8-19-1-20 9-33 9-48 5-6 8-11 12-14 11 0 21 0 30 2-11-2-22-3-33-5 3 4-7 10-9 14l-1 1 3 2c-8 20-18 49-8 69 5-3 14 2 21 7 9 8 16 15 19 23-2-8-7-16-15-22 19 0 37-2 52-4 21-5 38-12 54-23-1 6-7 15-2 23-5-10 8-20 7-24 14-14 27-28 34-43 9-15 13-30 17-44 2 9 0 18 1 31 2-22-2-46 6-65"/><path fill="#404249" d="m231 314 1 1c-16 11-28 40 2 23 2-3-1-9 4-11 4 0 6 2 8 3 3 4 5 6 7 8l-5-5c3 2 4-3 7-5 7 4 8 5 13 9-5 3 3 9-3 11 5 7 9 13 13 16 3 0 4-3 8-4 3-6-7-6-12-14 12-6-7-13-1-16-7 0-22-7-29-16-5 0-7-2-10-1"/><path fill="#7E6249" d="M353 239c-32 2-12 30 1 38 19 8 37 14 56 15-11-18-19 2-45-23-4-6-10-11-13-17-1-6-4-10-2-14"/><path fill="#362D37" d="M270 330c3 2 7 5 8 9 0 3-4 6-3 8 5 4 7 8 12 7 2 6-5 8-8 14 6-4 16-9 6-10 16-2 28 0 40 2-5-7-12-14-17-22 0-11 4 5 6-5-9 4-28-1-42-1"/><path fill="#543E34" d="M414 426c-14 6-10 27 7 24 5-1 14-6 14-6 5-3 12 0 12-1 2-4 5-8 6-12-14 3-25-4-37-6"/><path fill="#4C3732" d="M198 373c-2 1-5 2-7 3-2 15-1 30-10 41-11 3-22 2-29-2-18-1-25-21-40-19 7 10 20 17 31 21 44 9 66 14 52-48"/><path fill="#322731" d="M461 360c-9 15-9 17-15 27-8 10-19 23-33 34 2-1 5 1 7 2 11-5 14-19 23-27 10 2 9 19 17 27 2 0 3 0 5 1-9-21-6-40-4-61"/><path fill="#86664A" d="M243 452c-7 0-14 2-20 3-19 6-4 15-15 12-2 8 8 2 11 4 7-2 3-9 5-11 3 3 1 6 3 8 10 5 18 7 25 11 10 6 23-9 10-13 2 0 4 6 4 9-9 3-16 1-22-4-2-7 4-6 2-8 6-3 9-3 12 1-6 1-6-12-5-11-5-1-7-2-8-1"/><path fill="#4D3832" d="M468 298c-14 5-32 2-48 1 6 2 13 2 18 6 2 4 3 5 3 7-7 3-12-1-16 1 6 2 12 4 17 6 7 4 8 11 4 15 7-2 11-18 15-13 1-7 3-15 6-22"/><path fill="#3F3E45" d="M444 398h-3c-6 8-10 19-19 24 6 2 10 6 17 5 7 0 14 1 18-3-5-8-5-24-10-26"/><path fill="#160B10" d="M379 228c0 9 8 15 16 17 20 5 31 16 38 7 5 6 6 8 7 11-3 2-3-2-5-2 14 6 18 20 28 31-19 5-37 5-58 1 20 5 44 8 64 3 4 1 8 4 11 6-8-5-15-11-21-18-8-11-14-21-15-32 20 4 35 16 54 20 1 12-2 21-3 30 2-8 1-16 5-23 7-3 14-3 19-4 8 6 12 13 15 20-2-7-5-12-10-17 8-4 16-6 24-9 1 4 1 7-1 10 1-3 3-6 3-9 4-6 9-7 12-10l5-5 2-1v-1l-1-3c-3-2-6-9-8-9 2 3 5 6 7 9 1 5-1 7-3 8-18 11-36 18-58 16-22-4-40-17-59-23-16 0-34 1-48-6-10-2-17-7-20-15"/><path fill="#533D34" d="M155 425c-4 1 7 2 4 11-1 6-6 3-8 6 3-1 5 0 7 2-2 6-6 8-9 11 12-3 25-6 32-17 2 4 2 7 0 10 2 4 3-2 6-1-6-6 6-12-4-17-10-2-17-5-25-6"/><path fill="#110B13" d="M40 156c-4 9-8 18-9 28-3 40 5 76 8 112 4 14 9 26 15 38 12 20 30 35 43 51 6 7 10 12 14 16 1-4-4-5-6-9 4 1 8 1 10 3 12 0 21 0 29-2 11-2 19-5 26-8 11-5 20-9 28-16 1 18-1 37 2 54-5 3-7 7-10 7-12-4-22-9-32-6 10-1 20 3 30 5 4 3 8 3 11 5 5 4 6 7 7 11-1-12-6-21-6-33-1-20 0-38 3-54-2 2 0 7-3 10-10 7-19 11-27 16-19 8-37 11-55 10-8-2-14-3-19-7-13-18-32-32-40-50-9-14-14-28-17-42-6-29-8-56-11-83-2-21 2-39 8-54"/><path fill="#271F28" d="M396 175c-8 6-8 18-6 26 2 10 5 20 13 22 9-8 7-17 8-25 1-12-11 4-15-10-8-7 5-12 3-11"/><path fill="#484D50" d="M388 150c-2 4-4 8-6 13-4-1-5-3-6-4-2 5-3 11-4 17-1 14-1 26 3 35v3l-1 2c2 3 5 7 8 9-5-2-4-8-7-12 7 3 1 0 4-3 2 2 5 4 5 5 0-1-3-3-3-4-3-9-2-18-2-26 2-9 6-18 15-20-3-7-5-8-6-13"/><path fill="#8D6C4E" d="M461 427c-10 0-8 11-13 17 10 4 16 10 26 9 0-5 2-10 5-13-7-8-17-9-13-13l-2-1h-1v1"/><path fill="#2B252E" d="M391 183c3 3 7 17 17 11 0 10 3 20-2 28-8-1-10-7-14-11-1-9-4-17-2-25"/><path fill="#87674B" d="M274 443c-29 8 9 25 20 26 2-6 4-12-1-12-3-3-7-3-18-9 3-6 5-1 4-5-2 1-2-1-5 0"/><path fill="#3E3E47" d="M197 242c1 4 2 9 5 11 5 8 10 13 16 15-3 4-2 4-9 4 19-2 29 6 47 4-11-5-42-16-57-32"/><path fill="#ACD7E4" d="M391 119c-9 1-18 2-25 6-11 5-19 8-25 16-3 4 3 6-1 9 10-9 19-15 28-19 7-5 46-5 25-7 6-2-1 0-1-6"/><path fill="#643E3F" d="M447 254c0 7 4 12 6 17 0-1-3-10-3-14 10 1 20 6 27 11 4 8 7 13 9 19 0 4 1 7 0 9-3-2-5 1-6-2 3 4 7 8 10 10 4-9 7-19 6-30-17-4-31-15-48-20"/><path fill="#7D6149" d="M414 255c11 7 22 19 26 31-12 2-22 0-33-2 15 7 31 10 50 8-9-6-16-15-19-25-9-5-16-8-22-11"/><path fill="#533E35" d="M208 447c-2 1-5 0-6 3l-3-1h-1v1l-2-2c-7 21-1 18 3 1 4 6-2 11 0 17 2 1 13-9 10 1 1-6 7-10 12-12 8-1 13-4 20-3-12 2-21-3-31-6"/><path fill="#594236" d="M450 250c15 7 39 21 60 23 14 0 24-3 34-7 8-1 10-5 12-10-16 8-30 14-48 13-19-1-35-13-55-19"/><path fill="#3B444E" d="M176 279c9-1 19 0 27-1 17 2 30 4 43 8-16-11-106 6-75-6"/><path fill="#567478" d="M182 204c1 9 0 18 0 26 9-2 17-5 25-9-7-6-14-6-25-16"/><path fill="#3D3C45" d="M91 207c-2 9-9 16-15 24-7-8-17-12-18-11 6 6 13 15 18 22 7-6 11-12 15-19-1-4 0-10-1-14"/><path fill="#926E4F" d="M453 431c7 1 15 1 17 3 6 3 6 7 2 10-1 2-5 5-11 3-5-1-7-3-9-5-2-6 3-6 1-8"/><path fill="#56757C" d="M217 189c-2 8-5 16-5 24 10 0 17-3 25-5 4-8-5-12-7-18-1 3 1 7-1 9-3 4-6 5-9 4-4-4-4-7-3-12"/><path fill="#221820" d="M407 424c-16 11-33 19-52 23-18 3-36 5-52 4 3 3 5 8 9 9 11-11 29-6 40-13 15-3 27-6 39-10 6 0 8 2 10 5 0-6 2-12 6-16"/><path fill="#6B9FAF" d="M268 234c4-2 8 0 10 1 0 9 4 16-3 19-4 1-11 1-11-5s1-10 3-14"/><path fill="#564036" d="M482 437c-3 0-7 9-7 17-11 1-17-5-25-8-2 3 1 5 1 6 9 1 15 3 22 3 20 2 27-4 10-17"/><path fill="#372E37" d="M274 181c0 13-12 22-19 29 9-3 18-5 26-8 1-7-2-13-4-19"/><path fill="#402C2D" d="M183 429c12 4 0 11 5 16-4 6-7 5-8 6 3 5 6 4 9 5 1-4 2-8 3-11 2 0 4 4 2 7 10-6 1-1 11-9-4-9-14-9-19-13"/><path fill="#1F1723" d="M392 185c-3 5 0 11 0 17 3 10 12 7 16 13-1-7 0-12-1-18-7 0-13-5-15-11"/><path fill="#6C9EAE" d="M256 405c-6 3-4 12-4 18 3 3 4 6 6 9 5-6 7-29 10-22-4-3-7-8-11-5"/><path fill="#0F0D13" d="M382 115c-15 4-30 9-42 19-17 15-27 32-35 49-5-5-7-9-12-12 4 4 8 9 10 14-1 5-2 7-3 9-4 2-8 1-10 2-4-4-6-8-8-12-1-6 2-10 4-15-2 4-4 7-6 11-5-3-7-5-9-7 7 8 13 15 17 23 4 0 7 1 9-1-1 10-5 17-6 25 11-28 22-55 44-78 14-16 31-23 49-27"/><path fill="#936F4F" d="M455 432c-4 5-5 12 5 14 7 0 11 2 13-5 3-4-3-6-6-8-5 0-7-1-11-1"/><path fill="#3D3F47" d="M141 301c9 3 10 12 15 18 11-2 18-6 26-9-7 2-15-1-21 2 2-5 8-5 14-6-11 1-22 1-31-5"/><path fill="#54737A" d="m260 178-2 1c-3 8-2 18-6 25 12 2 32-32 8-15-2-5-2-7-2-10"/><path fill="#6DA0B0" d="M270 235c-4 2-5 8-6 12 1 8 8 6 9 6 8-3 4-10 6-15-4-2-5-4-8-3"/><path fill="#ECC89D" d="M507 207c-14 7 33 12 40 22-3-7-7-11-12-12-8-3-15-7-24-6-1-5 4-3 6-4-1 1-3 1-6 0"/><path fill="#100D12" d="M180 203c-7 9-8 19-10 30-20 13-33 31-41 49-21-5-39-18-50-32 6-11 12-19 16-29-4 8-11 16-17 24-6-6-10-11-14-17 4 7 8 13 13 20s11 12 15 17c12 9 23 15 35 17l2 1v2c-4 4-7 10-9 15 3-5 6-10 8-16 5-10 12-18 17-26 8-8 17-22 26-22 1-10 3-22 9-32"/><path fill="#927051" d="M251 462c-5 0-11 8 0 12 6 2 9 2 13 1 2-7-3-10-10-13"/><path fill="#C07140" d="M394 170c-4 1-8 5-9 8-3 10-3 19-1 27 5-4 0-19 7-26 8-5 10-7 17-5-4-2-7-6-13-4"/><path fill="#99C6D3" d="M387 145c2 5 4 11 8 15 5 5 11 6 14 11-2-7-4-15-10-20-3-3-6-4-10-5"/><path fill="#597A83" d="M325 291c-10 8 0 13 8 19 4-2 6-4 8-7-5-4-11-6-16-10"/><path fill="#553E35" d="M297 457c0 2 2 8 0 12-11 1-18-2-24-7 4 3 7 5 9 9 22 6 41 5 14-14"/><path fill="#5A3136" d="M546 273c-6 2-12 3-18 5 3 5 6 10 8 15-3 2 10-14 11-18"/><path fill="#56757E" d="m289 260 3 15c-4 3-5 1-7 1 5 2-1 8 6 8 3-2 8-4 12-7-4-7-8-11-13-15"/><path fill="#7EAAB7" d="M483 173c5-3 8 3 11 4 1 6-6-2-10 4 2 5 12 10 12 15-5-5-32-26-14-21"/><path fill="#EB9D59" d="M388 206c-8 2 2 14 6 17 4 0 5 1 6 2 5 2 7-1 11-1 3-1 5-2 6-4-1-5-1-9-3-14-2 8-3 18-12 19-8-5-11-12-13-18"/><path fill="#0E0B10" d="M485 139c13 12 27 25 32 41 3 9 5 16 6 23-5 2-8 0-11 0 9 2 17 6 25 11 9 7 17 15 22 23-5-8-12-16-20-22-6-4-10-6-14-8-2-15-4-27-10-39-7-12-18-21-27-28"/><path fill="#221920" d="M180 448c0 2 0 4-1 5-1-1-3-2-2-4-7 4-12 7-18 6 15 7 47 14 17-6"/><path fill="#7BAAB7" d="M420 184c3 11 1 26 5 37 3-6 4-13 3-21-2-7-3-11-5-13"/><path fill="#C57746" d="M408 180c-5-6 8 28 9 35 2-9 1-20-3-28 0-4-3-6-3-7"/><path fill="#E6F1F3" d="M404 115c-8 1-16 1-23 3-13 3-23 7-32 14-10 6-16 13-21 20 6-7 12-12 19-18 9-6 17-11 25-13 8-8 113 5 30-7"/><path fill="#B68A85" d="M461 262c3 7 5 15 11 19 2-6 10-2 4-9-4-6-9-7-12-10"/><path fill="#271D27" d="M463 335c-2 11-6 21-10 31-6 13-12 24-19 34 13-12 15-21 24-37 5-4 3 4 4 6-2-11 0-21 1-32"/><path fill="#B39C74" d="M342 315c9 11 14 27 17 41-6-13-12-25-17-37"/><path fill="#516971" d="M39 243c2 9 3 20 5 29 0 12 6 12 9 11 5-6-10-18-13-39"/><path fill="#C6A677" d="M438 372c-5 11-13 19-18 30 7-1 12-11 16-16 5-8 5-8 0-11"/><path fill="#332D36" d="M322 188c14 11-16 15-11 18-3-6 4-11 8-14"/><path fill="#372E38" d="M245 330c11 6 11 12 21 19-3-9 5-12-4-15-6-10-9 3-14-3"/><path fill="#ACD3E0" d="M401 116c4 12 30 3 43 10-13-6-27-9-42-9"/><path fill="#563F34" d="M254 459c4 4 9 6 14 10 1 8-4 10-7 13 7 1 15 1 23 2-4-4-10-11-15-13-5-4-9-8-13-10"/><path fill="#9E724F" d="M451 256c1 15 11 26 21 34-6-8-15-21-12-30-2-2-5-1-7-2"/><path fill="#77AAB8" d="M265 172c-6 3-4 9-6 13 5 1 10-1 13-3-1-6-1-7-6-10"/><path fill="#3F3B44" d="M179 211c-3 8-6 16-7 25 3 0 6-1 9-2-3-7 0-16-2-22"/><path fill="#7C6149" d="M137 426c1 7-9 9-7 3 3 9 6 1 10 1-5 6-12 10-14 17 5-1 9-3 13-5 2-6 7-13-1-15"/><path fill="#72A6B4" d="M221 184c-1 5-3 11-2 17 4 1 6-1 7-3 2-6 2-11-3-13"/><path fill="#4E3A33" d="M439 267c2 10 10 19 20 24-4-5-8-18-18-23"/><path fill="#4A6571" d="M245 229c3 8 3 21 5 30-6-7-9-17-6-26"/><path fill="#553F35" d="M225 461c-1 2 1 6-1 9-8 1-13 4-19 2l3-1h-2c2 5-5 4-5 7-3-3-2-7-2-8-1 3-1 5-2 6 9 5 17 1 23-2 7-4 3-10 6-12"/><path fill="#56757B" d="M287 173c-3 4-8 11 0 14 1-1 5 0 8-4 5-14-7-1-9-8"/><path fill="#577881" d="M319 302c1 7 1 16-2 22 7 1 8-6 13-8-2-2-13-6-9-13"/><path fill="#9C7754" d="M439 444c-21 6-3 9 7 9 0-4-2-5-2-7-2-2-3-2-4-1"/><path fill="#4B5658" d="M378 210c-1 5-3 3 1 11 4 2 10 11 13 6-7-4-9-16-14-16"/><path fill="#0F0D15" d="M384 142h-3c-1 3-4 6-5 9-5 15-9 31-6 45-1-11 0-21 3-30 3-11 5-19 12-25 21 10 24 23 36 36-8-13-17-31-33-37"/><path fill="#5A7C86" d="M87 215c-3 2-5 4-8 6-5 1-6-1-5-5-4 5-8 4-11 3 4 3 8 8 10 11 6-5 9-10 12-14"/><path fill="#F5F7F8" d="M398 179c-3 3-2 5-1 7 2 5 4 7 8 6 3-6-1-10-5-13"/><path fill="#140C11" d="M467 426h2c5 1 9 5 14 7 6 8 12 13 13 20-15 4-30 2-44 2-8-9-2-4-2 2 15 0 32 2 45-2 1-7-4-12-8-18-7-6-12-9-18-11"/><path fill="#516365" d="M384 144c-2 5-8 11-6 18 6-6 11-11 8-18"/><path fill="#3D4047" d="M254 185c-2 9-8 22-15 31-3-4-3-4-2-1 6-3 13-2 18-5 4-5-2 0-4-1 1-10 2-14 4-22"/><path fill="#412D2E" d="M155 421c4-5 33 11 41 4-4 6-21-10-36-5"/><path fill="#0F0E14" d="M261 171c-7 10-13 20-18 30-7-7-13-14-20-19 7 5 12 13 18 19-2 4 0 8-3 9-11 2-22 11-32 4 3-12 8-21 12-30-5 9-9 17-13 26-7-1-12-5-18-7 8 4 16 8 23 14 10-1 18-4 25-6l3 1v1l1-1c5-14 13-26 21-38"/><path fill="#564034" d="M400 281c1 5 15 9 10 12 14 1 29 0 44 1-21 1-42-5-51-11"/><path fill="#3F4048" d="M447 122c9 7 20 12 30 18-4-3-5-7-8-10-8 3-11-12-21-7"/><path fill="#241A21" d="M487 432c-4 4 10 14 11 20 4-14-11-19-10-18"/><path fill="#D9EDF0" d="m411 146 1 1c3 2 5 5 6 8-3 2-22-10-9-8"/><path fill="#412E2E" d="M466 417c3 12 12 8 19 17-8-13-11-13-17-16"/><path fill="#5C4436" d="M475 219c6-2 12 2 16 6-5 4-10 0-14-3"/><path fill="#9B706B" d="M477 272c6 7-3 4-2 9-4 0-5-1-6-2 3 5 7 9 11 9 4-5 1-10-1-13"/><path fill="#4F3932" d="M144 437c-16 14-18 8-27 17 6-3 13-2 19-4 2-4 4-8 5-11"/><path fill="#150D12" d="M228 471c-24 13-24 10 0 5 11 6 27 7 43 8-15-2-31-3-44-11"/><path fill="#302631" d="M199 349c-3 1-6 0-8 2 3-1 6 0 8 1-3 7-4 14-7 20 8-3 11-17 10-24"/><path fill="#50666B" d="M298 178c0 8-11 11-13 9 2 2 2 4 4 4 4 1 6 0 9-2 2-4 2-7 1-9"/><path fill="#120D11" d="M372 287c-14 6-26 15-37 26-4-2-5-3-6-4 1 1 4 3 3 6-8 8-15 19-23 24l1-1 1 1 1 1c3 6 8 11 12 17-3-6-7-11-12-17 11-13 22-25 34-36 10-8 18-13 27-18"/><path fill="#7E5B47" d="M446 255c2 10 7 18 13 27 6 7 14 14 22 18-10-10-11-13-19-17-7-12-11-12-16-27"/><path fill="#4C5C62" d="M238 326c-4 6-1 14-11 18 6-15 37-3 12-17"/><path fill="#2B1318" d="M435 253c2-2 6 0 8-1 1 6 2 9 3 12-6-1-6-6-10-8"/><path fill="#EFCFA6" d="M255 456c0 3 12 12 14 10-2-6-7-8-12-10"/><path fill="#393E47" d="M227 232c-4 7-7 14-8 21 3 3 4 6 6 6-6-5 0-18 2-24"/><path fill="#D3EBEF" d="M411 138c8 0 6 8 12 12-6-2-15-6-11-10"/><path fill="#160D10" d="M394 167c-8 1-11 9-13 15-2 11 0 19 1 27 3 7 3 7 1 1-3-12-4-24 1-34 3-4 5-7 8-8 6-1 9-1 11 2 11 8 15 18 17 28 1 8 1 13 1 18-3 6-4 11-8 13 4-3 6-7 7-11 1-7 1-12 1-17-1-6-3-10-4-13-2-9-6-13-10-17-5-3-8-5-12-4"/><path fill="#D7EBF0" d="M266 412c-1 7-3 14-2 22-4 2-9-4-10-6 1 5 6 8 9 13 1-1 2-4 1-5-1-6 1-8 0-12 3 2 4 6 6 9-3-5-3-12-4-18"/><path fill="#DBBB87" d="M448 357c-1 6-12 16-8 20 4-7 8-13 9-20"/><path fill="#332B34" d="M111 363c-1 10-1 19 1 28 2 0 3 2 4 2-2-9-5-18-6-27"/><path fill="#865B5A" d="M483 282c0 3 3 4-1 5-16-8-6 5 3 9 1-6 0-9-1-12"/><path fill="#9B7756" d="M151 428c-5 1-4 7-7 10 6 2 10-10 10-11"/><path fill="#6A97A5" d="M323 158c-3 7-2 16 0 22 1 4 0 6 1 7 7-2 12-4 17-6-16 6-11-2-18-1-3-9 3-15 0-19"/><path fill="#ABD7E3" d="M486 173c-17 6 3 6 8 6-1-2-5-5-7-6"/><path fill="#170E11" d="M258 453c12 6 24 18 28 30 0-2-2-3-2-5 10-3 18-2 25-3-8 1-17 0-24-2-9-8-16-15-26-19"/><path fill="#E6F5F6" d="M411 147c-12 0 0 5 6 10-1-5-3-8-6-10"/><path fill="#5A828F" d="M72 190c12-4 3 7 3 12-2-3 0-7-2-10"/><path fill="#5B818C" d="M53 187c6-1 6 9 7 12-6-1-6-5-5-10"/><path fill="#F9E5C3" d="M397 355c8-3 3 10-1 9-2-3-2-5-1-7"/><path fill="#6A98A7" d="M432 216c-11 13 9 10 13 7-6 0-9-3-10 1-8-8 5-5-1-7"/><path fill="#444249" d="M402 213c-5 1-3 8 2 8 1-4 3-4 2-7l-1-2h-1v1"/><path fill="#A4805D" d="M151 443c-2 3-3 6-5 9 3 0 13-4 8-9"/><path fill="#5A4338" d="M226 468c5 9 17 9 25 12-7-5-15-6-22-11"/><path fill="#414850" d="M422 218c-2 4-2 8-7 11 3 0 6 0 8-3 1-3 1-5 0-7"/><path fill="#160C14" d="M181 443c-8 7-19 11-29 12 8 0 16-1 22-6 4 1 4 3 5 4-1-3 0-6 1-8"/><path fill="#D3E9F0" d="M78 251c2 5 4 9 6 14 0-2-1-4-2-5 9 6 16 14 24 18 7 5 14 4 20 7-8-2-14-5-20-9-9-5-16-10-21-17-4-3-5-4-6-5"/><path fill="#56747D" d="M469 140c6 5 11 13 17 18-2-8-10-12-16-17"/><path fill="#4A5759" d="M320 180c-12 3-6 6-15 15 8-2 11-6 14-14"/><path fill="#ECCEA8" d="M285 445c-2 7 3 6 11 10-3-5-7-8-11-9"/><path fill="#7D5C44" d="M389 240c13 5 17 5 25 8 15 0 24 0 36 1-25-1-38-2-58-9"/><path fill="#9A7759" d="M127 434c-2 5-11 11-3 12 1-4 5-7 6-11"/><path fill="#7E6249" d="M157 430c-3 2-3 6-5 10 7 1 7-5 6-9"/><path fill="#503C35" d="M134 422c-10 7-8 10 1 1 12 4-1 2 9 7-1-1 1-1 1-3-3-3-6-4-9-5"/><path fill="#A9CBD5" d="M413 168c1 15 8 16 12 21-3-7-10-15-12-19"/><path fill="#160D11" d="M149 424c-4 6-8 18-10 28-9 2-16 2-22 4-3-5-1-7 0-10-1 3-3 5-2 9 9 0 18-2 26-1 0-10 2-23 9-29"/><path fill="#E1F2F5" d="M413 138c-3 5 1 8 8 12-4-4-3-7-6-11"/></svg>