<svg xmlns="http://www.w3.org/2000/svg" width="600" height="600"><path fill="#6F7376" d="M291 101c9-1 18 0 26-1 15 3 27 6 38 12 9-3 15-6 22-7 16 1 29 4 42 1 16-2 25 6 37 10 12 11 19 21 22 36-3 20-5 39-8 51-3 13-17 10-18 20-22-16-23 13-39-1-2 9-1 18-5 24-4 11-10 18-16 25 7 9 16 15 23 22 9 9 10 18 15 25 5-7 9-13 16-18-6 8-11 14-15 21-4 31 1 14 2 26 3-5 9-9 12-19 1 8-4 13-9 18 7-1 18-1 26 1 8 5 14 10 18 19 4 10 7 19 5 30-4 15-8 28-16 39-9 8-24 13-34 20-7 3-12 2-17 3-17-9-29-14-38-29 4-5-2-10 0-20-2 6-6 9-8 13-5 2-14 10-17 8-8-1-12-4-17-11 4 10 4 18 0 27-15 4-14 20-28 26-14-3-23 6-33 1-16-4-29-10-40-20-9-10-17-16-22-25-7-7-8-16-11-24-4 0-3 4-6 5-1-33 6-66 8-97 4-20 14-35 24-50-6-7-9-13-11-19-15 4-25 1-47 5-5 0-6-4-7-8-4 0-6 4-8 5-13-10-20-4-36-15 8-7-3-11-6-15 5-6 8 0 11-2-1-10-13-11-14-18-1-39 16-69 57-76 4-8 0-9 3-16 15 0 29 2 40 1 13 2 21 8 32 9 16-2 29-10 46-11"/><path fill="#D9E7E6" d="M303 102c-22 4-21 5-1 5-5 2-7 8-9 6-7 12-10 28-16 40 13 22 37 22 52 53 2 4-5 7-7 13 3 2 4-10 15-10 13 14 7-7 21 16 0-10-6-17-7-25 3-9 7-17 11-20 9-9 18-8 18-17 9-1-21-36-11-34-3-4-5-8-9-11-20-5-32-11-58-13 6-4 16-2 23-1 12 2 22 5 31 9-6-2-13-6-22-7-4-1-4-3-7-2-10-3-17-3-24-2"/><path fill="#211A24" d="M338 216c-8 2-7 3-11 6v-2l-1 1c-7 9-11 18-12 29-3 1-1-2-2-4 0 10 2 22 4 28-5 4-6 10-8 13-11 2-23 0-32-3-16-5-28-12-40-20 4 8-8 14-9 21 11-4 25 6 36 10 8 5 17 12 14 16 0-4 5-9 13-9 22-2 45 5 68 3 10 8 8 16 9 25 3-4 6-9 7-14-4 5-11-6-8-8 6-9 14-16 21-22 11-30-13 2-26-3-2-14 1-28-1-43-1-4-1-5-1-6-3-7-6-13-13-17 5 3 10 10 12 15 2 8 3 13 2 20-4 5-5 12-10 16-6 1-12 1-15-3-7-15-10-28-9-38 0-11 16-10 15-11"/><path fill="#2E3038" d="M163 135c-11 0-29 16-25 13-6 7-2 12-10 19 2 10-3 15 3 17 4-2 2-8 8-11 5-1 11-3 16-5 8 4 23 3 33 9 8 5 9 16 19 26 2 7-2 15-3 19 3 2 5 0 8 1-4 4-5 6-6 9 1-1 4-2 4-3 1 1 2 3 1 5 6-1 3 4 9 2 9 12 15 23 24 29 0 5-3 2-4 1l-2-1 1 1c11 7 22 13 34 17 12 3 24 5 33 4 3-8 9-9 1-11-3 2-3 7-7 9-13-1-22-1-32-6-1-4 4 1 7-1-13-8-24-18-30-32-6-33-6-49-5-76 2-4 3-5 4-6-6 6-12 7-18 12 6-1 11-7 15-9-5 12-14 13-20 21-2-3 1-4 2-6-10 2-7-4-13 1-4-7-5-12-6-14 8 4-5-11 6-5-3-4 0-5-7-7 2-3 3-1 5-2-5-3-9-6-13-10 1 2 3 5 8 7-8-1 2 6 0 7-11-3-2-6-13-8 1 4 5 5 12 11-8-2-14-2-20-4-18 0-31-3-46 5 3-9 8-15 15-21 9-4 23-4 33-1-3-2-12-1-11-5-2-1-5 2-8 0"/><path fill="#E6F1EF" d="M308 113c24 2 25-1 39 8 7 3 14 14 19 24 7 8-1 13 4 18-11 4-18 21-27 23-4 3-6 3-10 3-16-17-20-20-38-39-1-10 1-7 2-15 4-9 9-20 15-19"/><path fill="#E7F2F0" d="M311 113c1 7-10 3-8 12-3 8-10 16-7 25 11 16 24 20 32 36 5 4 9 3 12 3 11-13 27-20 30-34-5-13-12-21-17-30-9-5-8-5-17-10-3 4-16-4-23 0"/><path fill="#1A1119" d="M364 361c-3 2-7 2-9 6-2 8 2 14 3 21 5 8 7 9 10 13 2 11-3 18-11 23-10-4-19-1-24-13-3-8 4-20 7-28-2-5-4-6-7-7 1 3 4 9 2 15-6-2-10-6-13-10 1 6 8 12 3 18-5-1-8-2-10-6 1 2 6 4 1 6-3-3-8 5-12 0-5-7-13-10-18-15 6 4 11 11 16 16 5 3 8 8 12 10 9 0 16 4 21 9 4 6 5 11 4 17 0 11-11 9-12 14 6 1 11-4 12-10l1-1v-4c1-3 0-10-3-13l-1-2 1-2c7 7 10 10 18 11 4 2 10-6 15-6 4-5 7-9 9-13 2 10 3 14 2 19 5 6 11 16 18 18-1-22-12-12-14-24 4-15 52-68 24-52-15 1-16 7-30 10-8-1-1-10 0-13-5 6-14 4-17 6-2-4-1-8 1-11"/><path fill="#9DADAF" d="M394 290c-4 4-8 5-12 12-1 5 8 2 4 11-3 11-13 15-14 24-2 13 16 3 14 19 6-3 17 0 18-4 9-7 13-16 15-23 4-7-1-14 1-20-6-8-12-20-24-18"/><path fill="#4E4546" d="m129 162-6 9c2 0 3-2 5-3-2 6-2 10-4 14 0 20 11 20 14 38 9-11 0 6 12-5-4-1-5-7-4-9 3-8 8-11 13-13s16 0 26-1c9 3 13 6 17 10 5 9 0 18-6 26 12-5-3 8 9-1-2 4-3 7-2 10 3-3 3 2 7-1 0-3 1-4 0-7-1 2-2 4-4 5 0-5 2-7 5-9-3 2-6-4-8 0 1-7 5-15 3-21-9-11-11-19-15-25-13-7-28-6-33-10-11 2-14 3-17 3-8 5-5 11-11 14 0-3-6-6 0-15-5-2-3-5 0-6"/><path fill="#A99488" d="M287 405c-4 10-23 10-20 24 4 7 10 11 11 15 21 0 17 15 29 19 6-5 9-9 8-15-2-8-2-16-6-22-7-11-12-17-20-22"/><path fill="#8D8681" d="M179 197c-6 1-12 2-17 4-6 2-10 6-11 9 3 5 3 8 5 11-3 7-4-2-6-2-3 2-5 2-7 3 6-4 6-1 8 2-4 3-7 6-10 8 3 6 2-4 9-5 6 1-2 6 1 8 4-5 13-4 19-4 1 4-1 4-4 3 8-1 0 6 2 8 6-2 2-4 9-7 4 2-1 3-3 8 7-10 6 0 19-6-1 7-14 3-19 9 5-2 12-5 17-4 4-4 8-5 9-8-18 7-6-8-20-1 6-5 13-6 17-13 6-7 3-23-11-23-3-1-4-1-5 0"/><path fill="#ABBABB" d="M393 304c12-4 28 4 25 15 3 4-3 12-1 11-4 7-8 16-12 18-7 6-13 4-17 4-3-9-12-6-14-12 7-14 15-24 18-34 2 2 5 1 2 0"/><path fill="#3D4C56" d="M234 266c-7 12-17 23-17 38-3 15-6 30 2 43 11 8 13 18 17 16-6-8-14-11-19-23-3-8-2-16 0-21 6 14 14 20 23 30 20 16 56 35 68 49 6-9-7-5-5-13 1-2 2 1 4 1l2 2v-2c1-3 2-7 6-7-5 0 2-4-5 0-2 2-2 4-2 6-7-6-15-7-21-10-21-16-42-21-57-43-4-8-8-12-4-19 4-1 11-6 19-7-4-8 1-5 3-10 7-2 12 4 19 5 10 6-1 14 7 17-5-4 5-7-2-13-2-1-2-3-4-4-6-2-10-6-15-6-12 2-12-4-23-6-5 4-7 8-10 11-1-15 8-23 14-32"/><path fill="#7B8F95" d="M275 110c-12 4-17 5-2 2-7 17-13 41-16 52-1 21 3 19 5 33-4 16-3 26-3 39 2 8 4 13 8 17 8 8 12 8 21 10 7 0 11-2 14-2 4-4 1-9 3-12 1-5 0-10 0-14 1 5 0 8 0 12-3 3-5 6-9 9-7 2-14 1-21-2-5-4-6-7-8-11-2-7 0-9 5-7-10-6-5-19-6-25 15-9 13-9 23-12 6 2 10 6 12 9-3 4-6-4-10-4 7 2 10 11 12 14 3 5 2 10 3 13-1-3-1-7-1-11 0-5-1-7-3-9-4-6-6-10-11-11-9-5-17 0-24 2 1-6 5-8 8-10-10-8 4-10-14-17 2-12 1-18 6-39 3-9 7-17 12-24-2-2-3-2-4-2"/><path fill="#362E32" d="M231 262c2 1 4 3 3 7-7 10-14 18-14 29 2-3 6-6 9-8 13 5 14 1 28 4 6 4 11 6 16 9 4 5 3 9 1 11 0 6 5 8 8 10-1-4-2-7-1-12 0-4 3-1 3-4 27 3 53 2 77 2 4 9 4 14 3 21-3 15-15 25-11 41v3c0 21 11 18 8 33-4 4-10 6-15 8-4-2-7 0-11-6 0-9 4-20 7-34 2 1-10 25-9 34 5 7 7 10 13 10 8 4 15 2 19-2-3-2 5-8 1-15-5-7-12-18-12-29-2-10 6-33 13-40-2-10-2-16-4-24-16-7-36-2-53-8-13-1-23-1-33 6-4-8-12-10-17-13-12-5-25-13-34-8 3-7 5-11 8-16 0-6 1-9 0-8"/><path fill="#A58F83" d="M431 378c-8 11-16 23-18 36-1 6 4 7 6 9 6 3 12 2 19 2 6-2 13-8 14-17-5-13-22-14-21-28"/><path fill="#53636B" d="M264 116c-3 2-8 1-11 3 4 7 11 16 4 22-14 22-23 22-32 30 13-3 18-11 29-20-5 11-7 17-8 24 4 23-2 49 4 66 4 12 10 18 17 24 12 8 24 9 33 12 4-4 6-7 6-11 1-11 0-21 1-29-1 8 1 18-2 26 0 7-5 5-7 6-11 1-21-2-30-8-7-7-12-13-13-21-1-27-1-50-5-71 8-14 13-42 12-52"/><path fill="#3B4A54" d="M253 153c-3 3-7 7-12 10-3 26 0 50 3 81 8 16 19 25 32 33-2 4-6 1-9 1 11 5 20 5 30 7 6-3 7-8 10-10 3 1 4 4 6 1-6-3-2-33-4-44-4 13 3 34-7 46-11-4-24-4-32-11-10-7-17-14-21-23-6-20 0-46-4-67 1-9 3-15 9-23"/><path fill="#26303B" d="M220 387c-7 14-4 29 3 44l2 2h1v3c17 14 17 23 32 28 6 2 8 4 11 5-15-8-29-18-41-33-6-9-11-20-10-29 17 22 22 27 32 42 10 8 24 15 38 21l3 1h3c5 1 13 1 17-1 15-10 14-26 27-28 1-6 0-10 1-13 0 4-1 8-5 10s-4 0-5-2c-2 12-5 22-15 30-6 5-15 5-21 4-18-7-27-21-38-29-12-12-23-34-31-44-5-5-3-9 1-10-1 1-3 1-4-1"/><path fill="#AEC2C3" d="M283 105c-17 6-1 1 6 3-15 20-7 24-19 41 6 8-3 10 3 17 6 12 27 9 37 25 6 5 9 11 12 16 2 6 0 11-3 15 1-8 14-14 8-17-7-23-44-34-50-52 2-8 10-26 15-40 2 0 4-3 8-4-7-3-11 0-18-2"/><path fill="#94A8AC" d="M287 102c-41 15-42 17-7 6-5 11-9 19-10 28-7 16-6 25-6 38 3 8 2 4 11 8-2 4-3 0-4 2 3 2 0 5 1 8 15 2-1-6 11-9 6-1 9 0 13 2-3-2-7-2-10-4 6 0 11 0 14 3 7 7 12 17 17 22 2 7 2 14 0 18 1-4 7-10 5-15-3-7-7-12-12-17-10-16-30-13-38-23-4-10 2-13-3-18 12-19 4-23 19-41-6-2-10-1-14 0 3-3 6-6 10-6"/><path fill="#BDCCCB" d="M399 309c1 1-2 8-6 6-2 1-5 10-10 16-7 9 8 16 9 17 6 0 7-3 14-6 4-7 6-12 9-17 2-10-3-18-15-14"/><path fill="#A1978E" d="m178 199 2-2c10 4 23 7 12 20-9 6-16 3-24 9-12-1-2-9-15-10 4-13 14-15 22-18"/><path fill="#767475" d="M463 142c5 2 1 5 4 8-7-8-16 0-24 2-12 4-3 11-13 14-8 2-15 4-18 9-2 4 5 7 4 10-3-5-2-8 1-12 14-3 19-5 27-8-2-1-2-4-5-6 0-2 3-3 4-5 8-2 10-5 17-3 3 5 5 10 3 15-7 7-7 25-12 35-4 1-8 4-13 2 5 5 6 10 11 13-1-3 4-4 9-4-2-1-7 0-8-3 13 2 8-2 17-4-9-1-3-6-7-9 3 2 7 1 9 3-2-1-3-2-4-4-2-7-1-7 5-7-7-18-2-34-3-43"/><path fill="#8F776D" d="M438 394c6 2 12 6 14 13 0 10-7 17-12 18-12 1-20 0-26-5-1-6-4-8 0-13-3 6-6 11-7 16 0 10-2 17 3 23 6 4 12 4 15 2 5-3 0-5 2-7 13-3 22-17 29-24 1-8-7-21-15-22"/><path fill="#C0B6A9" d="m314 323 2 2c-11-6 0 12-10 6 13 9 5-2 18 11-1 8 11 14 16 21 4-8 2-14 11-33-7-8-21-3-36-6"/><path fill="#201923" d="M166 138c-9 6-12 2-17 7-24 25-3 11 10 12 16-3 26 0 41 5-6-3-2-6-10-8 1-7 9 0 11-1-8-10-22-13-34-13"/><path fill="#2A313D" d="M422 347c-3 8-9 14-14 18-5 5-8 2-9-1 1 5-4 8-6 12-8 3-13 0-17 0 0 1-1 2 0 5 5-2 10-2 15-4 6-9 7 3 15-3 8-2 10-11 15-14-9 39-25 29-36 59 4 11 13 10 16 30l4 1 2 1c1 0 1 2 3 2 5 3 9 3 14 2 7 1 12-1 16-4 7-4 12-11 17-11 8-10 13-19 17-29-9 14-21 27-32 39-10 5-22 7-31 4l-1-1-1-1 2-2c3 3 10 3 14 1-4 3-11 2-15-1-8-5-7-11-6-18 0 7-2 14 5 17-2 3-3 0-4 1-9-11-7-23-7-35 4-20 19-35 25-52 1-4 2-5 2-7-6 10-1-3-5 3 1-4 0-8 1-10"/><path fill="#96A7AA" d="M378 140c6 10 7 16 9 21-1 7 0 11-3 17 4-4 0 7 8 11-4 3-5 1-7 0 2 2 5 5 6 8-5 1-12 0-17 1 5 0 9 0 11 4 9 6 5 9 8 13-2 10-9 11-7 14-9 9-19-2-21 0 3 0 5 6 7 7 7 1 24-10 22-2 0 5-2 16-14 18 0 2-12-4-13-10-1 7 4 14 10 13 7 0 10-3 14-5 4-4 6-5 5-9 4-18-2-54-6-73 7 4 7 13 11 20-3-18-10-32-20-45"/><path fill="#A69A8F" d="M302 316c-27 7 21 26 23 29 0 1 2-1-1-3-7-3-12-5-17-9 1 0 7-11 8-8 16 1 29-4 36 4-5 18-8 23-7 30-2 2-3 1-4 0 1 2 2 3 1 6-3-3-5-6-7-7 6 5 9 12 10 19-2-21 17-51 10-57-21-1-30 1-50-3"/><path fill="#536269" d="M249 295c-3 8-6 3-1 12-16 4-30 5-18 23 8 13 16 19 27 24 20 13 29 21 50 29 1-1-1-4 1-6 8-4 10 8 11-2 3 5 8 7 12 8 3 0-10-3-11-9-2 8-11-2-14 4-20-9-50-24-67-44-4-7-9-10-7-18 13-8 18-7 25-15 16 4 6 9 14 14-2-3 4-11-5-11-6-3-10-8-16-8"/><path fill="#677A80" d="M271 113c-4 2-8 1-12 3 2-1 4-1 5-2 0 17-6 40-12 54 4 25 2 45 2 71 3 10 9 16 15 22 13 8 23 6 33 7 3-6 4-11 3-17 1 4 0 7-1 9-8 4-18 5-26 2-10-4-18-14-20-23 0-16-1-26 5-41-2-12-9-14-7-33 3-12 9-36 12-50"/><path fill="#D4CFC5" d="M435 177c-16-8-19 11-10 21 8 1 16 3 24 1-4-12 7-13 3-21-5 2-12-3-16-3"/><path fill="#544543" d="M286 309c-6 1-4 4-4 10 2 5 3 8 8 9l2 1-3-1c-1-4-6-3-6-8 0-4 2-8 5-8 24 1 44 3 67-1l6 6c5 15-7 27-10 43 0 6-1 11 1 14 2 10-1 18 0 25-3 0-3-3-4-5 0 2 0 5 1 8-8-10-3 9-11-3 5 1-1-9 5-16-3 4-7 10-6 14 4 7-3 4-3 5 4 14 1 9 10 13 5-1 11-4 15-5 7-6-5-13-7-34-1-25 4-21 11-44 0-6 2-10-1-13v-3l-1-1-1-5c-24 2-48 1-72-1"/><path fill="#2A333F" d="M218 319c-3 7-3 18 2 25 8 9 11 12 18 18-1 3-4 2-5 3 18-1 16 0 27 3 8 4 24 11 35 25-7-7 6 0 6 3 5 2 8 5 11 3-1 1-6-1-8-2-2-2-3-4-2-5-22-15-45-29-61-41-10-11-17-18-23-29"/><path fill="#A79D94" d="M180 199c-10 2-20 5-26 12 10 5 10 12 12 13 10-3 19-8 22-8 15-9 1-14-6-18"/><path fill="#BAC4C3" d="M217 119c2 1 5 1 6 4-28-8-14 6-42 1 19 6 27 8 47 14 23 4 25-17-11-18"/><path fill="#19202D" d="M219 407c-1 9 4 20 8 27 14 17 28 26 43 34-3 2-6-1-10-1l-1-1 2 1c10 2 22 11 32 4-16-3-39-18-41-21-12-16-18-22-33-41"/><path fill="#4C4040" d="m317 275 2-1c9 10 23 8 33 6 0 10-8 15-14 16-19 6-38-14-18-20"/><path fill="#625D5E" d="M124 182c0 3-2 6-3 9 1 0 1-2 2-4 0 5 0 9-1 11 6-7 3 12 9 8-2 10 9 9 2 16 5 5 11 0 15-5 6 1 3 5 5 5 3-2-1-6-2-10 0-5 4-8 6-11 12-3 22-8 32-4 13 2 12 13 13 16-5 12-14 16-23 18 19-6 0 11 22 0 0 6-4 6-6 9 10-6 8 2 10 1-3-2-6-8 0-12-13 6 2-6-10 1 4-6 5-11 7-15l2-1v-2c-2-4 1-12-8-13-10-8-26-5-34-7-3 1-7 3-11 6-6 6-6 14 0 17-4 2-6 4-9 5-1-2 1-4 1-6-2 2-3 5-5 6-1-6-6-8-5-13-8 1-6-22-9-23"/><path fill="#C6D4D2" d="m402 314 1 1c12-2 8 4 8 13-2-6-8 20-20 14-6-7-8-8-3-13 4-7 10-13 12-13"/><path fill="#1B202E" d="M230 201c7 13 4 49 8 50-9-4-12-13-18-16 0-8 6-23 7-31"/><path fill="#C8DAD9" d="M269 318c2 3 3 4 5 6-2 7-6 2-6 5 7 11 17 24 30 29 8 8 20 0 22 0 2-3-1 1-2-2 1-7 4-3 5-3-4-4-8-7-12-9 3-1 6-2 9-1-3-1-7-1-10-3h-2v2l2 1h2c1 2 3 3 5 4-5 2 0 10-6 10-7 1-6 0-9 1-7-11-23-14-21-21 8-5 22 5 24 0-11-5-23-9-34-18"/><path fill="#AEC2C2" d="M366 121c0 18 15 22 14 43 1 9-8 7-16 15-5 4-9 12-11 19 2 12 6 23 6 33 0-9-2-17-4-25 0-9 2-15 5-21 5-5 8-8 12-8-4 4-8 9-9 14 0 3-1 4 1 5 4-3 7-7 12-7-5-1-9 9-13 4 1-7 4-12 8-13 29 4-3 7 19 10-12-17 2-20-7-37-6-11-6-19-17-30"/><path fill="#93A7AB" d="M267 219c-1 6 0 11 5 14-4 5-6 1-5 9 2 4 4 7 7 9 7 5 12 6 17 5 7 0 9-5 11-7 4-2 2-6 3-9-3-1-4 4-8 9-5-3-8 3-12-2 5-5 11-9 14-15-4 2-4 4-7 7-7 2-9-1-12-2-9-2-12-10-13-16"/><path fill="#A59D96" d="M454 152c-5 1-11 2-12 7 3 4 6 7 10 11-17-5-14 5-34 3-2 7 1 12 0 17 4-4-1-10 2-14 9-4 24 1 27-2 6 0 6 2 6 6 1 7-5 10-3 17 0-7 7-11 5-16-11-10 21-16 0-31"/><path fill="#68797E" d="M260 304c-21 1-41 25-7 40 8 9 30 23 41 27 4 2 9 2 10 6 4-4 7-1 10-2l6-3c1 6 7 7 10 9 4-3-13-3-7-11v1l-1 1h-2c-2 1-5 0-3 4-10-3-13-3-22-7-19-7-27-15-44-28-3-10-16-14-13-24 4-4 16-8 19-10 5 1 9 4 11 7-5-2 2-5-2-9-3-3-5 0-6-3"/><path fill="#7C8F94" d="M258 307c-1 0-1 1-1 2-11 5-24 6-16 18 11 13 19 21 32 29 5 4 21 13 34 16 9 6 7 0 15-2-9 2-16-1-24-4-15-4-29-18-34-20-9-11-15-16-16-26 3-3 7-5 8-8 5 0 10 0 12 4-2-4-3-5-7-7"/><path fill="#828D90" d="M171 107c13 8-7 5 5 6-16 5 1 3 14 4-1 3-12 6-10 7 17-9 37-4 42-9 12-1 19 8 29 13 3 5 3 9-3 7 2 2 7 1 4 5-4 9-12 8-20 7 3 4-4 4 4 3-3 4-17 11-12 11 3-9 29-14 25-14 5-7 7-8 7-12-6-7 1-11-7-18-3 1-8-1-11-2 2 2 7 3 5 6-6-2-8-9-12-9-16 2-24-4-30 4-14-7-24 1-27-8"/><path fill="#94A8AB" d="M257 313c-20 9 4 29 10 35 8 6 25 16 37 20 5-1 10 3 16 0-23-2-36-12-45-19-6-9-14-12-16-21 8-5 2-11 5-15l3 2 2 2-1-1-3-1c-1-3-4-2-7-3"/><path fill="#383034" d="M442 125c4 3-5 2-7 2h10c5 2 8 5 9 7-11 3-22 6-31 7-15 13-5 12-17 19-3 1-6 4-8-1 3 5 4 9 8 11 6-8 18-16 28-24 8-4 16-3 21-7-3-6 0-11-7-11l-3-2-1 1v-1"/><path fill="#B2BCBC" d="M382 106c-27 2-4 11 8 8 2 4-2 5-4 10 7-1 13-3 20-5-4 4-9 6-15 8 3 4 2 4 7 2-2 4-10 5-6 7 0 0 23-6 27-7 4-2-2 1-4-1 9-5 6-12 15-10-14-3-27 0-40 5 13-10-1-7 4-15 5 0-39 7-12-2"/><path fill="#7E9094" d="M391 167c3 18 11 53 6 71 0 13-10 15-12 17-10 2-12 3-18-5-1 5 2 8 7 9 10 2 24-8 28-19-3-19 2-32 4-32-4-17-6-16-13-40"/><path fill="#C9D7D5" d="M403 315c-6-2-1 6-6 2-5 8-8 8-11 16 2-2 0 7 5 9 9 2 13-7 19-15-3-5 8-14-7-11"/><path fill="#E4F1EF" d="M282 333c-4 9 9 11 8 16 8 2 12 13 23 7 2-2-2-7 3-8-3-3-7-5-9-7-6-3-12-2-25-7"/><path fill="#191E2C" d="M229 203c-8 9 0 9-11 32 10 5 13 13 20 20-4-5-3-38-7-51"/><path fill="#E4DFD5" d="M421 177c7-2 16 7 19 2 7 7 5 12 9 17-10 3-16 1-23-4-7-4-3-10-4-12"/><path fill="#ADC1C2" d="M262 315c1 2 4 3 4 5-6 2-6 3-7 7 5 11 9 13 15 19 5 11 44 25 50 18-1-2-2-7-4-10-1 3-1 4-3 8-5-1-7 1-10 0-12-3-21-8-29-18-1-2-10-10-11-13 8-3 4-8 2-13 0-1-3-2-5-3"/><path fill="#96A7A9" d="M392 303c0 15-11 22-16 35-2 6 9 4 11 12 5 1 11 3 15-2 14-7 5-7 14-16 0-5 4-14 1-15-1 7-1 10-6 15-2 8-8 14-13 15-8 4-10 0-18-8 7-16 8-22 19-28 12-3 9 0 18 4-2-14-20-11-25-10"/><path fill="#AB998E" d="M250 376c6 1 9 3 12 6-2 6 2 8-2 11-4 2-7 2-13 3-11-14-8 1-2 8 7 8 5-7 14-4 4 2 5 3 6 6-5 5-14-1-14 6 4-1 12 0 15 0 2-3 0-3 0-5-3-4-4-6-3-10 5-1 14 3 18 2 0-6-10-3-16-4-1-3 0-8 5-8-5-4-9-9-14-10h-3"/><path fill="#83766E" d="M291 314c-14 9 11 18 16 22l3 2-2-2c-6-2-10-6-14-11-4-4 1-5-2-7 26-1 40 3 62-2 3 20-12 54-9 73 0-16 10-52 15-70-24-1-47-3-67-5"/><path fill="#332D35" d="M329 220c-6 15 0 27 6 43 4 5 9 5 12 5 7-4 8-11 12-14 1-9 0-14-2-19-2-6-3-9-5-12 4 8 5 16 4 26-4 4-2 13-10 14-8-4-9-9-12-16-4-9-5-16-6-24"/><path fill="#424951" d="M428 353c-6 20-23 39-29 60 0 9-2 17 1 23v3h1v4c2 3 4 6 7 8 4 1 5 3 7 2 5 2 8 1 12 2 6-2 9-3 13-5 12-12 24-24 32-37 2 5-13 27-6 21 3-5 13-26 13-44-2 10-7 18-11 27-8 11-16 20-26 28-5 5-9 7-13 9-8-1-12 1-16-2 3-1 6 0 10-1l1 1h2l-1 1-1-3c4 2 4 0 7 0 12-7 17-18 22-25-10 10-16 20-28 26-7 1-11 0-15-2-4-4-5-6-6-9 0 3 2 5 5 7l1 1 1 1 2 2-2 1-2-1c-12-9-3-21-9-9-1-13 0-17 0-25 4-24 22-41 27-62"/><path fill="#AFBDBE" d="M366 231c0 4 2 8 3 12 5 4 7 10 12 8 6 0 14-9 11-12 2-4 0-4 1-7-7-1-14 7-20 6-3-2-4-4-6-5"/><path fill="#E9E6DB" d="M422 178c3 3-2 8 3 12 8 6 13 7 21 7-2-6 0-10-3-15-5 3-13-4-19-4"/><path fill="#42484F" d="M221 383c-4 4-5 11-6 17 1-5 2-17 8-13 2 15 14 27 23 43 10 12 19 20 31 31 7 4 12 7 17 9h5c9 1 14-2 19-6 3-4 4-7 5-10-8 7-3 9-18 16-1-4-4-3-26-18 9 8 12 14 23 17-9 0-15-2-20-6-14-11-23-22-33-34-11-11-14-24-23-34-2-5 0-5 2-6-3-2-6-2-7-6"/><path fill="#D1C2B4" d="M247 376c-9 4-9 16-1 18 7 0 10-1 12-2 3-2 4-8 2-11-4-3-8-3-12-5"/><path fill="#110711" d="M390 376c39-3-8 18-5 33 0-5 0-14 3-16-7 6 4-14-5-11l8-4"/><path fill="#9AA6A7" d="M221 114c4 2 3 6-1 3-40 5-34 9 1 2-1 3-7-1-2-2 9 3 17 5 24 9 5 3 2 5 7 7-9 1-8 8-20 4 4 2 15 2 11 6-10 1-13 3-24 4 16-3 29 4 34-7 3-3-1-3-3-4v-1l2-1c3 2 3-1 2-4-3-3-5-2-6-5-6-3-9-6-13-8-5-1-7-1-9-2"/><path fill="#475158" d="M321 414c-10 3 4 6 6 20 0 7-1 12-3 16-1-22 13-2 14-23-4-8-10-13-16-14"/><path fill="#431F1D" d="M287 211c12 5 0 9-3 13-20-10-18-8-4 10 7 1 15-1 18-6l2-2-2 2c-2-1 2-13-6-16h-2"/><path fill="#504546" d="M455 134c1 2 5 3 2 5-7 5-15 4-20 7-13 8-24 18-34 24 3 0 3 1 4 4 16-9 23-17 35-27 11-4 29-2 13-13"/><path fill="#6C8D9F" d="M224 276c-6 5-13 22-14 30-4 11-2 30-2 33-4 16-11 33-3 57 2 6 2 12 5 18-8-22-9-49-2-71 3-2 4-1 5 2-2-10-5-20-2-27 1-16 5-29 12-41"/><path fill="#090206" d="M283 207c-19 2-15 16-1 15 12 0-4-12 9-12 11 2 5 22 7 16 1-9-2-16-9-18-3-1-5 0-6-1"/><path fill="#8A736A" d="M286 399c1 4-2 9-4 11 3-1 2-8 8-6 8 6 14 11 20 21 2 12 11 23 4 33-4 3-7 6-11 4-7-2-7-7-6-9-7-6-15-2-21-10-4-5-8-12-11-17 3-6 6-11 10-13-6 1-7 11-13 14 5 6 8 15 12 14 12 11 19 19 30 23 7-1 9-4 11-6 3-7 2-13 1-17-2-7-3-11-5-15-6-9-13-16-20-22l-2-2-1-1"/><path fill="#161A28" d="M214 351c-2 24 2 18-2 37 3-9 9-20 20-22-6-3-11-8-15-12"/><path fill="#4C454A" d="M345 219c6 4 8 9 8 15-1 8 0 18-5 22-15-15-24-59-14-5 4 3 6 11 14 11 5-4 3-10 7-11 1-10 0-17-3-23-1-5-3-6-4-7"/><path fill="#201922" d="M435 128c-37 22 1 9 18 7-5-8-13-6-19-7"/><path fill="#F0EDE2" d="M424 180c4 0 9-1 13 3s10 6 8 12c-7-1-12 1-18-5-2-3-6-7-1-8"/><path fill="#D1DBD9" d="M415 109c-4 1-8 0-11 2-16 2 1 3-16 10 7-4 38-5 25-6 17-4 20 10 15-6-7 1-8-1-12 0"/><path fill="#52636C" d="M411 295c5 6 11 11 14 17-2 11-4 25-8 32-3 4-7 10-12 13-6 4-9-1-12 0-4 0-9 4-10 0 0 10-13 5-11 7 9-1 10-6 19-6 7-1 9 3 12 5 8-5 13-9 14-16 4-6 8-19 12-25-9-3 1-5-4-6-3-10-6-17-11-20"/><path fill="#1F1C26" d="M207 166c-8 1-2 0 3 16 1-2 3-2 5-3-1 2-2 5-3 5 3-2 7-7 12-5-1 5-4 6-3 10 4-10 14-10 19-20-5 6-13 7-21 8-2-3 2-2 3-4-6-3-11-5-16-7"/><path fill="#C6D0CF" d="M207 122c10 3 20 2 29 7 10 4-6 5 3 5-13 0-24-3-28-9"/><path fill="#7F8D92" d="M233 366c-18 12-24 30-2 0-2 7-3 8-4 9 0 7 7 12 5 17 4 9 7 17 11 24 3 3 4 6 5 8 16 14 25 27 39 40-16-14-18-25-37-38-2-3-13-27-15-31 4 3-2-17 7-18-3 1-5 3-8 4-5-2-1-9 0-12"/><path fill="#596065" d="M166 122c-6 3-12 6-18 10 2 9-13 2-20 17 4 1 9-8 22-13 11-6 18-3 27-3-6-5-8-3-19-1 6-7 33-12 8-10"/><path fill="#180C0F" d="M343 433h1c8 6 21-3 27 1-10-2-42 23-28 1"/><path fill="#10060F" d="M411 375c-8 7-18-2-25 7 8 0-5 15 5 8-5 5-5 13-8 18 5-14 17-23 27-33"/><path fill="#6B7A80" d="M403 208c-3 12 3 24-2 36-7 10-15 16-22 16-5 1-9-1-12-3-1-5-1-8 0-10-1 2-1 5 0 8-1 4 1 6 2 8 11 2 21-4 29-11 6 1-1 8 5 1 0-11 6-29 0-44"/><path fill="#655E5E" d="M463 143c-5 2-12 2-18 5-13 11-29 20-40 26 1 0 3 0 5 1-3 3-4 2-5 1l-2 3-1-1c1 2 1 4 2 6l1 1 2 2-1-1-2-2c-2-7 5 2 8-1-2 0-5-3-9-4 3 0 6-2 8-1 0-6 9-12 17-12 11-4 2-11 13-14 6-3 12-3 15-7 5 2 11 5 8 7 3-2-2-5 1-8"/><path fill="#9CA7A7" d="M364 110c0 8 8 0 12 9 5-1 8-2 11-3-8 8-1 13 2 17 7 6 10 5 17 9 3-6-13-2-16-8 11-6 19-11 28-13 7 0 0 3-1 5 7 0 1 8 6 0-6-1 3-6-3-6l-1 1h-3c-10 0-16 9-22 10 1-3-6 0-4-4 6-2 11-5 15-7l-18 6c0-4 1-9 5-10-15 6-21-10-27-4"/><path fill="#A6968B" d="M468 368c0 3-3 8-3 7-4-1-9-2-12-4 1 3 3 5 2 9-4-7-17-7-20-4 11 4 21 3 31 6 5 0 3-7 4-11"/><path fill="#3F4A52" d="M425 331c-4 12-6 22-20 32-6-1-7-5-13-5-11 2-14 12-25 7 2-1-6 0-3-4-2 3-1 6-2 9 1 0 2-1 3-2 12 6 20-12 24-6 5-3 6-2 7 0 1 7 0 3 0 8 2-2 1-5 2-6 6 11 20-9 22-16 3 2-1 11 1 9 8-12-3-1 6-29"/><path fill="#582924" d="M292 217c7 0 5 13-1 14-7 2-11 1-13-2 8-11 13-2 12-8"/><path fill="#F4F2E7" d="M426 181c1 2-4 4 1 8 6 6 11 4 16 7 3-6-2-8-4-12-5-2-8-5-11-2"/><path fill="#2B323E" d="M363 253c2 3-1 7-2 2 1 19-5 38 21 20 5-3 10-5 12-9-4 3-8 6-12 8 4-7-9 2-14-1-6-4-4-13-4-17"/><path fill="#456276" d="M230 263c6 3-12 20-13 30-2 9-4 16-5 22 0 8-2 14 1 18 1 7 2 11 4 16-3 0-3-4-6-5 0 6-4 10-5 15-2 17-1 32 4 43-6-19-5-35 1-55 6 6 13 12 21 16-8-7-17-16-18-28-3-15 2-26 2-39 4-13 13-21 17-31"/><path fill="#B7AFA4" d="M175 200c18 8-11 12-16 14 1-6 5-9 9-11 4 0 4-2 5-2"/><path fill="#735A54" d="M452 404c2 3 8 7 5 12-8 20-34 19-31 34-9 2-14-2-17-5-4-7-4-12-3-18 0 7-3 12 2 18 4 4 8 6 14 5 2-2 5 1 5-2 11-11 26-18 28-30 13-8 3-8-2-12"/><path fill="#AABEC1" d="M303 225c-1 11-14 17-18 22 11 4 15-4 18-9 2-2 1-7 2-10"/><path fill="#4E5960" d="M319 414c5-2 11 4 14 7 7 5 0 12 0 11-3-6-9-10-13-15"/><path fill="#657881" d="M400 282c-5 1 0 2 1 5-5 2-8 3-12 5-4 5-8 7-10 10-2 7 4 3 5 8-10 17-6 2-5 14-7 0-7 3-8 5l-1 2v-3c2-1 3-3 4-5 3 5-2 6 0 9-5 6-5 10-2 16-1-2-3-10 1-14 5-9 12-15 13-25-2-4-6-1-5-7 0-4 7-8 7-8 4-4 8-5 12-4 10 2 16 12 20 17-13-19-2-10-21-25"/><path fill="#DBCEC0" d="M246 377c3 1 10 1 12 7 0 3-5 7-8 7-9-6-3-11-8-12"/><path fill="#556268" d="M224 377c-2 2-3 3-5 6-3 6-5 10-5 14 1-4 2-9 4-13 5-5 3 4 9 1 4 4-3 5-1 7 11 13 14 27 24 37 1 3 4 4 4 6 10 11 18 19 28 27 8 5 12 5 17 8-12-6-4-2-15-7-12-11-23-24-33-33-15-18-22-40-27-52"/><path fill="#B4ADA5" d="M457 154c6-1 5 10 3 12-5-4-11 0-13-4 1-3 0-7 2-7 4 0 6-1 8 0"/><path fill="#A18B80" d="M410 435c5-3 14 5 14 9-4 2-6 4-9 3-4-3-8-5-6-10"/><path fill="#0B0306" d="m374 205-3 1c-4 2-7 9-4 14-1-7 6 0 9-1 6-7-5-9-3-12 15 1 20 6 4-5"/><path fill="#96A6AB" d="M426 108c4 1 21 8 9 9l4 2-3-2c7 0 13-1 19 2 10 10 8 19 19 32v3-3c-4-7 4-4-7-13 2-5 1-1 3-5-5-2-5-12-13-12l-2-2v-2l2 1h-1c-6-2-18-7-27-10"/><path fill="#3D4853" d="M401 258c-7 4-18 8-28 11-7 1-10-5-8-11 0 5-1 8-1 12 6 6 23-5 17 5 8-7 15-10 19-16"/><path fill="#54636D" d="M395 278c-2 2 1 2 2 7-8 5-17 13-22 20 0 4 3 2 4 6 1 11-10 18-13 27l-1 3 1-2c0-1 1-4 2-2-3 7 2 6 2 12-1 7-7 1-5 4 3 2 5-1 7-2 3 4 4-4 10-4-3-1-7-1-8 1-4-2-7-6-5-9 4-9 6-16 11-21 8-11-5-8-2-16 7-8 13-14 22-14-1-3-2-4-3-5 3 0 5 0 5 2-2-3-4-4-7-5"/><path fill="#546169" d="M400 250c-7 8-19 16-29 14-4-3-7-6-5-10 0 4-1 7 0 11 9 8 22-7 30-4 5-6 7-3 3-8"/><path fill="#6B5D58" d="M290 313c-6 0-8 7-4 11 2 1 3 2 4 3 3 3 7 4 11 6-5-3-10-4-13-9-5-6 0-8 1-9 23-1 45 3 66-2 7 5 4 11 5 15-4 16-13 26-10 42-2-15 8-27 10-40 0-7 3-12-4-16-24 2-44 0-64-1"/><path fill="#CBD5D3" d="M209 124c8 6 14 9 29 12-4-3 7-8-4-10h-1l4 1c-1 4-18-4-26-3"/><path fill="#292E3B" d="M391 275c2 15-17 20-23 31-6 13 11 6 6 13 1-2 3-4 2-7-3-1-6 1-8-1 6-10 16-19 23-25 5-4-1-6 1-8"/><path fill="#C6D8D7" d="M373 181c-5 0-9 5-9 9 10-5 34-3 9-11"/><path fill="#52626A" d="M306 202c0 31 6 33 5 71-4-26 6-47-4-68"/><path fill="#20222D" d="M231 193c2 8-13 18-16 26-6-1-2-4 1-7-2 1-5 5-6 0 8-3 13-10 18-15"/><path fill="#625C5E" d="M332 219c-1 13 8 28 13 36 7-9 8-19 5-28-2-6 5 15-2 20-10-5-13-17-17-25"/><path fill="#414A51" d="M226 182c10-4 2 9 3 12-3 3-6 4-9 5 0-3 1-10 4-15"/><path fill="#DDEEEF" d="M301 104c23 1 44 9 55 12-4-6-10-5-21-10-8 0-19-4-31-2"/><path fill="#554645" d="M313 281c-4 13 14 14 23 13 7-1 11-4 12-8-21-5 6 7-25 6-2-2-9-3-10-9"/><path fill="#212E3F" d="M213 349c-4 17-7 32-2 48 5-28-1-20 4-48l1 4-1-1"/><path fill="#9AA5A4" d="M300 404c9 9 13 23 21 31 0-10-9-23-18-30"/><path fill="#0C0916" d="M244 271c11 5 23 12 35 15-15-1-22-4-33-12"/><path fill="#7E9095" d="M287 181c9 0 15 13 18 12 7 13 12 23 10 35 3 0 3-13 1-22-8-11-14-23-27-25"/><path fill="#858E92" d="M116 215c8 4 10 7 14 10-1 4-4 1-6 4 15 2 8 2 28-4-3-9-10 2-17 2h-1l-1-1-2-2c-4-1-6-5 0-6-8-6-7 1-13-3"/><path fill="#47484C" d="M415 197c3 4-11 8 4 20-4 0-4-2-5-4 2 4 1 9 6 10 1-5-6-14-8-16 8 0 11 8 12 14 0-2-1-3 0-5 3-2 4 2 6 0-4-15-14-1-13-21"/><path fill="#5A6265" d="M368 120c8 14 27 23 31 41 3 0 6-4 2-5-1 3-5-5-6-6 11 0 8 8 14 3-9-2-1-4 0-4-8-4-8 1-12 0-7-10-13-12-20-23-1-2 1-2 1-3-5 4-7-3-11-3"/><path fill="#7F8E95" d="M438 117c-2 6 13 0 17 7 5 4 8 16 12 21 2 9 3 13-2 11 1 0 8 8 7 5 7-6-14-30-11-35-4-10-19-6-21-8"/><path fill="#1F1012" d="M345 432c-16 25 13-1 27 5-8-4-25 0-26-2"/><path fill="#685953" d="M351 372c-1 5 1 8 0 13-5-3-2 3-4 6-6-3-3-5-3-7-3 11-5 13-4 16 1-7 11 8 7-9 2 4 4 5 4 7-2-3 2-7 0-11 1-6 0-9-1-12"/><path fill="#424248" d="M220 179c-1 7 0 7-5 13-4 3-5 1-7 2 3-5 4-4 5-7-3 2-5 6-7 7 3-6 6-10 11-12"/><path fill="#A59184" d="M410 435c-2 4 0 8 4 10s6 1 7 0c3-5-5-9-8-10"/><path fill="#87746C" d="M471 370c-2 5 2 13-4 12-11-1-20-1-31-4 7 5 16 6 24 4 11 23 13 6 11-10"/><path fill="#DED2C3" d="M246 378c-2 1-1 5 1 12 6-1 10-3 9-5 0-6-5-5-9-6"/><path fill="#525C63" d="M321 414c2 7 10 11 10 19 4-4 6-8 2-11-2-5-7-5-10-8"/><path fill="#52636B" d="M477 377c0 10-1 18-5 26-7 18-30 42-36 45 12-7 22-19 29-30 8-9 11-24 13-29 0-3 2-7 0-10"/><path fill="#17121A" d="M329 267c5-2 10 3 13 6-6-2-4 4-9 3-10-3 1-4-6-6"/><path fill="#4A5C64" d="M231 292c-11 21 5 10 9 10-2-1-1-6-4-7 0 0-2 2-3 2"/><path fill="#D0D9D8" d="M201 131c7 2 13 6 19 7-30-4-14 6 20 4-14-4-26-6-36-11"/><path fill="#404245" d="M177 461c6 4-12 7-12 12-3 6 1 8 2 11-6-2-7-5-6-10 4-6 8-10 14-11"/><path fill="#BCB4A9" d="M171 204h-3c-3 2-7 4-8 8 6-1 31-6 14-10"/><path fill="#5A6166" d="M199 148c18 7 5 10 11 10l3 1h2l-1 1-3-2c6-2 12-2 18-4-2-6-13-1-27-5"/><path fill="#C4D8D8" d="M286 186c-6 5 11 5 13 12 3-5 0-8-4-10-3-3-5-2-6-3"/><path fill="#797474" d="M333 218c-2 10 7 22 11 29 6-7 6-15 4-21l-1-3v-2l1 3 1 2c-1 4 2 14-6 14-5-7-9-13-11-19"/><path fill="#667981" d="M421 307c1 16 0 30-8 35-1 5-5 8-7 11-3 3-8 3-14 2 4 1 11 4 14 1 2-2 3-4 4-4-1-2 5-4 4-7 3-7 9-17 8-28 4-1 3 2 5 3-3-6-2-8-4-9"/><path fill="#67797F" d="M306 191c-7 48 7-14 7 51 4-12 1-22 1-29-3-8-7-13-9-18"/><path fill="#737A7D" d="M205 108c-25 4-28 4 21 4-10-2-17-3-25-5"/><path fill="#39393A" d="M186 442c4 0 13 2 13 9-7 7-13 9-19 11 3-5 11-5 15-10 1-6-4-6-7-8"/><path fill="#2F323A" d="M405 194c7 5-4 6 6 23 7 7-3-13 7 1-1-5-8-8-7-13 3-1 0-4 4-7-3 0-6 0-9-2"/><path fill="#42494F" d="M162 133c-12 1-20 9-29 15 15 0 10-13 31-14 19 8 26-1-2-1"/><path fill="#A6978E" d="M456 383c-2 2-2 5-4 7 5 3 9 6 13 6 2-9-9-8-9-12"/><path fill="#C8B9AC" d="M453 357c-17 10 2 14 9 17 5 0 4-3 5-6-3-2-3 7-15-1-3-3-7-7-1-8"/><path fill="#848D90" d="M174 125c-19 4 19 2 15 11 6 4 10 5 15 6-4-2-5-2-12-6 3-2 7-3 11-1-3-4-24-3-14-7-7-2-24 1-12-4"/><path fill="#373E47" d="M223 211c2 8-6 10-7 19-3-5-1-13 5-15"/><path fill="#868A8B" d="M165 232c-8 0-17 5-15 4 3 3 6-2 10-2-2 3-3 4-3 9 14-7 11-8 12-12"/><path fill="#485962" d="M230 294c3-1 3 4 3-1 7 2 6 8 10 9-8 1-11-4-14-5"/><path fill="#1B1E28" d="M231 195c-20 21-12 0-19 25 4-3 13-17 18-23"/><path fill="#434C51" d="M369 123c11 7 24 40 28 33-9-11-14-20-27-33"/><path fill="#54616A" d="M430 350c-3 16-16 34-24 50-1 4-3 5-2 7-4 12-4 22-3 32 0-5-3-21 6-37 8-17 17-33 25-51"/><path fill="#70787B" d="M170 128c2 2 7 5 16 5-4 3 14 7 11 13 13-3 6 2 15 0-6-9-16 2-25-14-9 0-9-5-15-3"/><path fill="#E0D5C8" d="M454 357c-12 6 1 12 7 12 4-1 0-3 4-4-3 3-18-1-8-6"/><path fill="#465861" d="M226 297c6 0 8 6 9 7-3 2-4 4-6 2-4-3-4-4-3-7"/><path fill="#71787B" d="M176 117c-2 4-7 1-10 3l-1 1-1-1c-6 7-25 11-22 15 4-5 15-9 22-13 8 4 38-4 15-5"/><path fill="#53636B" d="M372 196c-3 3-10 12-12 3 1 14 3 32 4 37-1-9 0-18-2-27 3-6 6-9 9-11"/><path fill="#735A53" d="M272 439c2 12 16 16 24 25l3 1 2-1c5 4 11 1 15-5-3 4-9 7-15 5-10-8-21-11-28-23"/><path fill="#67787D" d="M255 123c-2 5-5 0 4 11-2 12-16 14-15 25 5-5 9-14 14-20 1-7-1-10-3-14"/><path fill="#A7B1B2" d="M415 119c17 1-11 6-14 9 3-4 8-7 12-8"/><path fill="#97A4A5" d="M433 355c-4 19-13 31-24 49 10-13 16-27 27-39-2 2-4 6-6 7 0-6 3-12 3-15"/><path fill="#6F787B" d="M361 114c0 3 12 11 16 7-6 6 8 7 6 13 12 5 9 19 22 20-6-8-8-10-28-30l3-3h1-1l-2 1c-9-2-10-4-16-6"/><path fill="#3C4752" d="M393 278c4 12-20 19-22 31 2 1 9 0 6 7 6-6-2-6-3-9 6-9 13-17 21-21 2-4-6-7 0-8"/><path fill="#696A6C" d="M462 170c3 1 4 11 4 13-2-3-5 2-6-2-2-5 4-5 0-8"/><path fill="#898B8B" d="M440 205c-13 6-3-2 3 8-3 4-6 2-8 1 3 6 7 3 13 6 1-3-5-7-8-14"/><path fill="#BDB8AF" d="M452 155c-4 6 1 7 6 9 4-3 2-5 2-6-3-2-4-2-5-1"/><path fill="#6E777B" d="M228 150h-18c6 1 9 0 15-1-6 5 1 2 6 4-7 4-13 3-17 6 3 0 5 2 7 3-2 0 1-5 8-6 12-6-3-2 3-8"/><path fill="#7A9098" d="M468 354c3 2 5 4 6 7-4 3 4 24-1 33 3-7 1-13 1-22 3 3 4-6 6-1-2-3-2-6-4-8-2-4-3-7-5-9"/><path fill="#504A4D" d="M247 375c12-2 20 7 29 12 6 5 8 10 7 17 3 1 0-7 1-7 11 9 21 17 27 27-8-11-17-21-28-31-2-3-4-3-6-4-10-6-16-17-28-14"/><path fill="#616061" d="M420 198c-1 2-5 5 0 9 9-7 10 15 14 10-2-5-5-11-15-17"/><path fill="#5B4743" d="M265 403c2 4 8 9 16 4-1-3-10-3-14-5"/><path fill="#C9D4D2" d="M246 367c-18 16 6-1 14 6-4-4-9-4-14-5"/><path fill="#3E3F45" d="M218 192c4 2-5 11-8 13 1-4 3-8 5-12"/><path fill="#828D91" d="M418 385c-7 9-11 23-14 34 9-12 3-20 15-32"/><path fill="#685A58" d="M315 280c-3 6 5 10 8 9 8 2 14 2 19-1-4-1-9 3-14 1-6-2-10-4-14-6"/><path fill="#CBD9D8" d="M443 348c-1 8-8 13-9 16 2-5 24-20 12-15"/><path fill="#6F7E83" d="M383 347c-7 2-7 5-1 12 2-9 2 1 6-3-3 3-3-5-5-7"/><path fill="#5A6165" d="M130 151c-1 2-6-1-7 1 2 1 5-2 5 2-5 5-6 10-8 14 2-4 5-7 8-8-6 9-8 12-6 17 16-15-10 4 7-16-11-2 11-10 2-10"/><path fill="#787575" d="M422 201c-11 3 15 2 10 14 0-3 7 0 10-1-5-8-13-4-20-13"/><path fill="#E3EEED" d="M450 348c-17 18 2 1 12 5-4-2-8-5-12-3"/><path fill="#5A4745" d="M434 380c-1 5 2 5 5 10 7 1 10 0 12-4-3 4-14 0-17-4"/><path fill="#0A0714" d="M244 272c10 9 21 12 34 16-11-5-22-10-32-15"/><path fill="#868E90" d="M216 144c-27 5 5 6 8 2-3-1-7-3-12-3"/><path fill="#DCE4E2" d="M406 110c11 2-5 8-8 7 2-4 5-4 6-7"/><path fill="#F0EAE0" d="M454 357c7 8-4 1 2 8 3-1 4-3 8 0-1-6-4-9-8-7"/><path fill="#100812" d="M311 400c3-1 6 4 9 4-3 0-19 2-11-4"/><path fill="#859092" d="M294 392c-13 1 2 5 17 29-19-24 3-10-22-32"/><path fill="#404950" d="M441 122h6c-26 6 1 0 7 9-2-5-6-8-11-9"/><path fill="#6D5A55" d="M435 380c0 4 12 9 17 5-5-2-9-2-15-4"/><path fill="#100B14" d="M358 267c4 1-1 11-1 14-2-3-3 0-6-1 5-3 5-7 6-11"/><path fill="#97AAAC" d="M370 179c-6 1-10 7-12 12 0 4-1 5-2 6-1 11 4 22 4 32 1-9-4-19-4-29 3-10 10-18 16-22"/><path fill="#6C787D" d="M419 380c-6 8-19 33-17 52 1-18 5-37 18-50"/><path fill="#6B797E" d="M231 370c-4 1-6 4-8 7-1-1 0-2 1-2 5 13 10 30 22 46-12-16-15-32-19-44 0-3 1-4 1-6"/><path fill="#EBF1F1" d="M335 209c-21 15 1 2 10 5-3-2-6-3-9-4"/><path fill="#808E90" d="M431 357c-3 10-11 16-11 26 7-11 5-9 10-24"/><path fill="#B2C1C0" d="M436 355c-3 4-4 9-7 14 2-5 9-9 10-15"/><path fill="#140E16" d="M353 265c7 2 0 7-3 9-2-2-1-4 0-6"/><path fill="#848F91" d="M384 118c-6 0-4 8-2 8 8 4 1 12 13 14-13-1-3-10-12-12 3-4 0-8 5-10h-1"/><path fill="#413B3E" d="M135 198c5 0 1 8 5 8-7 2-7-3-6-5"/><path fill="#98A4A5" d="M277 380c-4 3 9 9 16 16-4-7-11-11-15-15"/><path fill="#9AA6A8" d="M247 148c-8 3-14 8-22 11 11-2 13-5 21-9"/><path fill="#BFC9C9" d="M413 124c8-1-5 9-9 6 2-2 4-4 6-5"/><path fill="#CBD4D2" d="M418 130c-7 2-15 6-21 5 10 1 9 5 21-5"/><path fill="#584543" d="M451 395c-15-6 4 10 15 8-4 1-12-5-16-8"/><path fill="#6E777D" d="M128 171c-7 5-7 13-8 19l-1 3-1 1h-1c6-1 1 10 8 8 2-6-7 1-1-14-2 2-3 5-4 5 5-9 1-17 7-20"/><path fill="#544544" d="M240 401c1 5 4 9 6 13 4 3 6 5 9 6 5 1 7 1 8 0 7-1 5-9 12-7-3-2-7 2-6-3 0 5 1 6-4 8-7 1-14-2-17-4-2-2-5-6-7-12"/><path fill="#6E7A7F" d="M242 156c-9 1-9 5-9 11 5-4 6-6 6-9"/><path fill="#80898E" d="M181 235c-5 1-8 3-10 7-1 4 3 0 1 7 19-10 32-14-5-4 10-2 8-9 11-9"/><path fill="#ACC0C2" d="M281 181c-2 20 3-1 15 5-2 0-6-4-11-2"/><path fill="#585F63" d="M182 134c-3 6 5 3 14 11 1-7-15-7-11-11v-1h-1v1"/><path fill="#6E777D" d="M132 214c-7 3 4 3-4 7 2 2 5 4 7 6-10-1 6-13-4-11"/><path fill="#562420" d="M293 218c1 1 6 10-4 11-9 2-10-10-12-1 4 5 8 3 12 3 5-2 8-8 6-12"/><path fill="#504445" d="M366 353c-2 6-13 5-11 7 7 0 10-1 12-5"/><path fill="#060206" d="M330 267c-5 6 9 4 10 8 0-5-5-6-7-8"/><path fill="#5C5E62" d="M264 377c12 14 23 12 43 42-13-19-25-31-43-41"/><path fill="#DEDFD9" d="M338 219c-4 0 1 8 4 6 2-4 2-6-2-7"/><path fill="#868F90" d="M318 420c9 23-10 1 6 28 0-9 0-18-6-25"/><path fill="#9E9893" d="M418 194c2-1 7 10 13 12 10 1 1-5 9-5-9-5-2 7-11 1-5-1-6-3-7-7"/><path fill="#3E3030" d="M244 410c4 7 6 10 12 16-3-6 9 2 10-7-1 2-4 3-9 2-6-1-10-5-11-9"/></svg>