<svg xmlns="http://www.w3.org/2000/svg" width="600" height="600"><path fill="#8C6A58" d="M448 111h1c16 9 35 14 47 31 0-5 3-8 4-12 12 7 21 16 26 28 4 9 0 16 2 25 3-7 13-7 18-10 40-18 14 36 10 43-7 7-12 14-19 17 5-1 9 1 13 3 0 13 5 10 6 23-1-5-3 10-9 7 8 13 6 20 11 25-9 4-9-2-16-3 2 2 0 13-3 17 6-14-16 23-13 17-5-6-1-23-5-26 2 4 0 11 1 16-9 12-3 9-11 19-4-6-3-13-4-19 3-8 11-7 11-14-6 4-18 11-24 18-3 2-5-2-4-2-5 21 3-2 0 20-3-4-8 18-13 23 23 41 35 63 60 85 4 7 11-1 16 4 9 12 11 9 12 24 0 1-1 2-2 3-23 5-35-1-73 1-9 0-16-6-24-8 1-5-4-3-6-8 8 0 8-6 7-10-2-7-5-11-7-15-14-10-29-16-41-29-5-3-7-18-9-21-10 4-18 3-26 6 0 10 3 17 4 25 3 9 5 15 9 21 0-1 3-2 3-4 4 5 7 9 8 13 10-1 20 4 26 10 7 9 6 18 8 26-1 3 0 5-3 6-34 2-65 3-96 1 1-4-16-2-13-12-14 4-17-11-27-8-10-14-8-11-17-22-3 1-7 9-9 4-1-11 2-18 4-25-2-3-4-3-6-4 9-8 18-19 13-26 3 7-19 23-18 21-12 6-22 9-33 8 2 7 3 14 9 18 6 0 11 1 15 0 6 2 8 5 10 8 4 9 8 11 5 20-25 3-55-1-66-1-10-2-17-10-19-21-5 2-10 8-15 6 1-12 9-20 3-30-8 4-15 5-22 8-2 6-3 10-2 16 7-1 15 0 18 7 7 7 8 15 10 22-15-1-16 7-47 4 5-2-6-3-6-7-4 5-17 9-28 5-2-4-3-6-7-4 0-5 2-16 3-22-5-1-9 6-16 5 7-11 21-30 22-51 5-7 21-12 21-25-14 5-13 2-22 6-65-5 52 0-44-3 16-3-12-8-7-12-11-9-17-14-19-23-1 3-10-32 0-46 3-14 11-32 25-43 25-20 52-18 71-27 13-2 20 7 30 9-2-3-5-6-7-10 2-4 2-6 5-5 14-1 26 2 37 5 3-3 4-4 4-6-8-7-12-19-14-30 4-2 6-2 7-3-4-11 5-22 11-30 6 4 8 12 8 20 6 5 11 7 15 13 18-5 34-9 51-11-9-15-10-32-12-48 14 3 24 7 33 13 9 7 15 15 21 20 5 3 8-1 12 1-1-6-2-12-1-19 2-6 5-10 7-14 17 3 29 11 42 17-4-5-2-13-3-20 5-3 6-1 9 0-1-7-1-15 0-22 13 3 25 5 35 15-2-2-4-11 3-9 10 4 19 9 28 11-2-6-2-12-4-18"/><path fill="#F3E8CF" d="M327 223c-10 3-19 8-27 14 2 3 4-3 8-3 4 4 6 7 7 11-6 14-17 17-27 21-9 12-9 25-10 38 4 5 7 8 9 10 0-9-11-17-5-29 1-4 3-1 3-4-1 13 6 20 13 26-1-4-5-9-2-13 9-2 4-11 9-17-1 30-4 57-11 82-1 12 1 21 4 29 2 8 6 13 9 18 3-2-1-8 3-9 13 4 19 13 30 17-8-10-23-22-33-32 17 9 31 18 44 28 1-5-3-14 2-18 13 12 22 14 30 22 0-10-5-19-12-27-7-11-16-17-25-24-2-12-10-24-1-33-8-21-20-39-29-58 1-15 14-21 22-28-3-5-7-7-11-10-3-5 1-9 1-12"/><path fill="#FBF2D8" d="M276 234c34 7-8 5-35 5-1 9 8 10 8 15-9 9-17 17-26 20-5 1-8-1-7-3 2-6 7-9 8-13-2-3-8-1-10-5-5-1-8 1-11 4 3 1 12-1 8 5-2 12-15 5-17 14 7 2 15 3 20 9-11 5-21 1-29 5 11 3 15 15 19 21-4 3-8 1-11 3-3 9-6 16-10 22-12-1-15-11-17-18 0 6 2 11 1 17-2 7-8 10-9 14 7 8 16 15 13 27 12-8 16-20 22-30 13 9 26 20 34 33 5-17 6-35 3-50-6-14-16-25-25-36 5 1 9 6 12 11 6-7 11-13 18-18 5 0 8 3 11 4 3-3 4-5 7-6 7 9 0 16-1 24 8-3 15-5 22-7 2-10 2-20 5-28-5-1-8-6-9-10-1-16 42-25 17-31"/><path d="M106 259c-11 1-21 4-30 11-11 10-17 21-19 33-1 16 1 28 6 40 2 3 4 3 6 4-1-2 0-5-1-8 5 0 6-6 11-2 0-6 1-11 3-14 8 7 27 18 33 19 2-2-2-3 8-13-6-5-9-11-11-16-3-9-3-16-2-24 5 0 8 3 13 4 1-2-1-6 1-8 6 4 10 9 12 13 22-27 11-38-25-30-5-5 2-8 4-8-3 0-4-2-8-1"/><path fill="#C28A5B" d="M323 179c1 6 2 12 5 17-6-5-14-4-19-6-11 8-30 0-43 5-1 5-11 5-10 5l-1 2-1-1-2-1c-3-2-7-2-11-4-13 2-16 6-25 7-7 11 1 12-9 17-2-2 2-2 0-5-6-6-12-11-18-16 1 7 3 13 6 19 5 4 7 8 12 5-4 4-7 7-8 11 15-6 31-11 47-12-4-8-12 1-18 2 5-4 9-9 14-9-2-7 6-9 9-13 4 2-3 4-4 8-1 6 0 9 3 11 5 2 9 2 14 2-6-8-10-11-8-16 10 2 17 7 23 8 4 2 1 12 7 11 1-5 7-6 11-7 5 4 6 9 3 12 11 0-1-14 16-14-4-3 3-9-3-15 29 16 32-5 11-23"/><path fill="#ED854C" d="M456 177c-2 2-5-1-7 1-1 13-1 11 2 15-6-2-10-4-14-6-6-1-9 2-12 3 7 10 19 9 26 19-24-17-45-16-14 13 10 9 18 11 33 13 14-1-10-3-9-9-5 0-8 0-10 1 1-4 4-3 6-4-2-6-5-12-5-17 7 2 12 4 17 5-4-6-5-15-1-21 10 4 17 10 22 16 2 9 1 15-3 21-6-2-8-6-10-8 1 5 3 10 5 14 12 2 10-15 23-15 3-2 6-2 6 1 0 6-1 10-3 15 3 1 5-1 8-1 11-3 15-12 17-19-6-3-13 1-18 5 1-6 1-16-1-22-6 4-11 10-19 10-4-6-5-11-9-16-7-7-12-14-20-14-4 0-6 0-9-1"/><path fill="#7C6C65" d="M216 369c-6 3-16 8-24 6-6 8-15 14-24 17-8 2-7-4-8-7-5-2-11 0-15-3-4 9 9 13-1 15 4-2 6 0 8-2 2 15 0 24 0 36 15-10 35-10 51-21 9-11 35-27 15-40"/><path fill="#61595C" d="M453 375c-6 7-9 16-9 27-6 2-10-1-14-4-18 8 8 15 20 20-1-4-3-10-1-15 18 14 27 14 37 27 1-8 3-15 3-24 7-2 10 5 14 8 0-14-9-26-16-39-21-1-18 3-32-1"/><path fill="#843C32" d="M344 208c-10 8-11 12-16 22l11 11c4 3 9 1 13 2-3 4-8 1-11 4 1 9 11 12 15 16-9-1-20 0-28-3 3 7 6 13 12 17 10 2 15 4 20 7 5-10 10-19 19-25-2-2-5-3-7-4 1-6 4-8 7-10-24-9-6-20-29-29-4-5-6-1-12-1 0-3 3-3 5-5"/><path fill="#543136" d="M451 408c6 15 25 33 22 54 5-4 0-8 0-11 4 5 8 12 15 12 11-4 18-10 25-18 9-5 16 5 21 2-10-20-17-13-27-36 2 5 0 7 0 11-5-6-10-10-15-14 2 12-7 22-1 32-13-20-21-15-38-33"/><path fill="#E07D4C" d="M354 398c1 13 3 21 6 31-5-4-11-8-14-12 1 17-11 8-10 28-8-5-15-5-7 9 7-7 18-1 24 2 12 3 13-10 22-9 0-7 0-12 4-16 7 4 13 9 16 14 2-1 5 1 7 0-13-8-23-37-45-43"/><path fill="#412F37" d="M240 373c-12 6-28 34-12 42 7-4 5-6 29-13 0 1 6-4 6 1-1 2-2 5-4 6 2 0 6-2 10-5-1 4 9 3 3 8 12-6 17-24 18-26-11-1-27-8-48-13"/><path fill="#3E2129" d="M216 401c-9 11-19 18-32 20-2 15 3 12 0 24 0 0 7-5 10 1 0 1 2 4 3 7 5-3 7-7 11-8 7-1 12 4 15 5 0 4 6 7 6 12 3-3 2-11 13-15-9-8-11 4-21 0 7-2 14-7 22-3-7-7-9-16-10-25-1 8-4 8-5 11-4-11-6-19-10-28"/><path fill="#493A42" d="M485 315c2-1-1 19-10 24-10 13-22 20-32 28 2 3 7 3 9 6-6 0-10 0-13-2-9 5-17 7-24 11 2 6 2 18 8 23 10 10 20 15 31 19-2-10-29-10-29-18 0-6 6-8 3-12 2 5 10 8 13 8 2-11 5-20 11-27 20 2 11-2 35-2-7-7-8-10-9-13-4 3-5 12-11 13 10-20 22-36 19-58"/><path fill="#F69349" d="M387 115c0 10 1 23 5 31-3 0-9-5-13-9 2 8-3 18 7 20 8 1 15 3 21 4 3-6-3-17 3-20 14 6 25 9 38 14 4-7-1-13-4-17-5-5-13-12-21-15 0 7 3 14 3 17-10-10-23-20-36-22"/><path fill="#3C232C" d="M294 386c-7 16-1 5 1 11-6 9-6 14-16 21 3 4 12 33 25 45 10-9 7-4 14-8 3-7 4-13 3-21-11-15-23-28-28-44"/><path fill="#6D5F59" d="M405 302c-8 6-8 16-7 26-2 0 11 4 7 14-5 7-12 6-20 8 9-5 1 11 8 2-6 7-5 11-5 17 1-6 10-11 16-13 1 12-11 20-12 28 16-2 32-9 40-15 10-6 19-15 19-13 0-14 3-1-5-8-3 4-7 3-13 15-6-6-5-10-4-15-3 4-7-1-5 5-1-11-9-1-11-8-7-14 0-7-8-19 2 1 6-9 8-11-4-5-8-8-8-11"/><path fill="#F7BD72" d="M339 141c-3 5-7 11-8 17 3 13 5 25 9 35 10-7-10-27 0-41 15 7 30 18 41 32 12 7 24 15 33 16 1-15-15-20-23-33-20-11-31-17-51-27"/><path fill="#89705E" d="M346 284c-7 0-13 7-14 11-5-7-5-7-2 0 5 8 8 16 13 23 6-4 7-16 7-15 15 13-7 22 2 30 4 3 6 5 8 7 2-11 3-22 2-34 4 12 3 24 4 36-1-1-1-4 2-4 9 1 9 0 14 4 6-9 9-16 11-23-8 1-15 2-23 1-3-10-5-20-3-29-5-5-17-4-21-6"/><path fill="#593236" d="M131 376c-7 22-12 20-26 36 2 15-10 26-1 39 9-11 7-12 26-27v-6c-2 13 15 8 16 20 4-13 3-24 5-37-9 2-17 7-22 15 3-12 1-25 4-37"/><path fill="#46252A" d="M123 340c-3 3-4 7-5 12-2-2-5-4-5-5-7 4-11 9-18 9-8-2-19 0-23-3-1 4-8 5-11 5-4 3-4 3 1 6-9-1-14-3-17-13 3 8 9 13 13 20 0-1-3-3-3-4 21-2 30 16 47 15 10 0 17-2 23-4 10-11 3-33-1-11-2-7-5-2-6-2l-1-3 1-1h2l-1-1-1 1v3c-3 6-5-3-6 4-1-4-9 2-13 0 5-2 11-3 15-7 2-7 7-11 7-20"/><path fill="#F28B47" d="M452 117c0 8 3 18 7 24-4-1-7-8-13-7 4 6 7 12 8 19 9 2 17 5 24 7 1-4-2-6-4-8 5 1 5 4 7 6 2-4 12-2 15-7-2-5-6-11-12-15-12-10-22-14-30-18"/><path fill="#ACC2A8" d="M392 258c-7 1-14 3-18 10-16 29 5-2 19 5-2 8-8 9-16 13 9 2 17 3 24 8 4-7 7-12 11-17 5-3 10-2 13-3-5-8-14-9-18-15-6-2-10-2-14-1"/><path fill="#32484F" d="M524 264c-2 3-4 0-9 3 3 4 7 2 10 3 0 9-3 6-6 11-1 1 2-1 3 1-4 9 9 25 3 36 6-4 8-8 11-13 3-8 3-14 0-21 7 2 12 5 16 8 4-18-9-34-27-27"/><path fill="#E5814D" d="M205 261c3 0-24 4-33 16 2 0 5 3 8 4-7 0-13-2-17-1-6 1-9 3-11 7-11 10-17 21-17 34 4-5 6-10 10-15 9 1 16 1 22-2 7-5-4-7-6-11-1-3 1-5 2-6 17-2 32-3 45-2-6-3-13-6-20-5 3-14 19-11 20-20"/><path fill="#3B4349" d="M236 314c2 11 9 21 4 34 8 2 7 3 15 7 12-4 18 4 34-1-4-12-16 0-22-9-5-7-7-16-4-22-9-3-24 1-23-10"/><path fill="#E6814C" d="M103 245c-11 1-21 4-30 8-5 2 9-1 10 6-7-5-15-2-21 2-10 9-15 17-19 26-6 9-7 18-9 26 11-12 20-28 37-45 14-11 41-15 35-25"/><path fill="#7E7269" d="M434 280c-7 2-9 12-8 18 4 0 7-4 10-1 10 5 17 6 26 15 8 4 15-8 26-9 0 6 0 8 5 9 3-3 6-5 9-8-3-12-15 0-17-12-6 2-18 3-12 5-8-4-19 2-27-3-6-3-13-7-13-12"/><path fill="#FCF2D8" d="M462 259c-39 12-32-1-4 27 8-4 18-5 27-7-1-8-10-14-15-20-5-1-7-1-10-1"/><path fill="#3D4A4C" d="M422 276c-2 2-6-1-7 3-6 6-11 13-13 18-11 3-27 12-28 19 5 0 11 1 16-1 7-11 17-13 15-16 0 16 18 4 8 20 4-6 10-9 9-11 0-8-5-5-2-16-4 6 21-21 3-15"/><path fill="#CB8F57" d="M270 161c4 8 4 15 10 24 10 1 21 0 29 2 3-10 4-18 6-19-29-8-24 0-43-5"/><path fill="#44232B" d="M361 174c2 3 4 7 6 10-6 4-13 4-18 8 6 11 15 22 30 26-2-5 0-11-1-15-2-1-4-1-7-2 5-1 5-3 10-3-2-3-4-5-5-6 3 0 5 0 6 1-2-2-5-4-8-6 2-2 4 1 7 0-12-17-4-2-19-9"/><path fill="#ED8A50" d="M402 224c-10 1-20 2-29 5 5 8 12 12 20 14-2 6-9 2-13 4-3 2-5 5-2 7 8 5 14-2 20 0-1-3-6-6-3-9 7-3 10-2 14-1-2-6-5-12-6-18"/><path fill="#5B2E2F" d="M40 312c-1 8-9 8-5 20 2 13 8 13 8 23 5 5 5 9 10 11-2-1-6-4-6-8 2 6 11 1 9 5 9 2-6-2 6-5 5 2 5-6 13-1-3-4-18-11-25-21-7-8-11-14-11-22"/><path fill="#58312E" d="M426 219c-4 3-3 20 8 32 8 1 17 0 21-4 4-1 3-7 7-8-38-23-5 1-38-19"/><path fill="#A08269" d="M236 294c-1 12 0 17 9 20 5 5 14 2 19 7 7 2 6-2 10-4 1-5 0-10 0-14-9 2-16 5-24 9-2-3 0-4-1-7-3-3-6-8-12-10"/><path fill="#E2804D" d="M183 297c-6 5-7 1-14 15 3 6 1 17 10 20 9-6 7-20 18-23 0-3 0-6-3-7-4-2-5 1-8 1-6 7-11 13-9 22-8-11 8-23 7-28"/><path fill="#F7D7A1" d="M195 181c-2 5 0 11 2 14-3 1-6 2-9 2 7 6 14 9 20 15 2-9 10-11 16-13-13-16-19-7-25-16"/><path fill="#BF8165" d="m333 360 1 1c8 6 12 15 10 24-11 1-18-7-26-12-11-13 4-15 10-6 0-3 2-3 1-5"/><path fill="#AEC3AA" d="M420 155c1 6 1 12 1 18 2 4 5 6 7 10 9-4 16-8 24-9-9-9-19-14-29-18"/><path fill="#3C2D35" d="M239 338c1 3 1 8-1 10 10 10 5 12 14 19 7 7 40 5 36 13 1-7 1-8 2-16 0 3-3 4-4 5-3-4-13 5-14-7-1 5 1 6 0 9-3-4-6-8-4-13 4 0 5 3 11-2-4 0-6 2-9-1-5-2-6-5-7-9 0 3 4 6 2 9-11 2-23-7-24-7 0-2-1-4-2-8"/><path fill="#FBF2D7" d="M150 336c-5 1-6 7-9 10 5 0 13 0 11 7s-8 11-12 16c3 5 5 8 6 11 4 3 9 1 12 2 2-18-2-32-8-45"/><path fill="#8A8781" d="M423 460c-11-1-7 15-15 20 8 5 19 4 26 3 0-8 0-15-3-21-4-3-5 1-7-2"/><path fill="#878480" d="M391 463c-2 9-10 1-15 1-6 5-8 9-10 12 10 11 48 11 23-12"/><path fill="#87786C" d="M346 333c6 7 5 15 9 18 0 2 0 5 2 8-8-6 2 12-10 2 19 14 23 16 33 34-6-15-7-33-15-42-8-11-9-10-16-18"/><path fill="#321418" d="M561 178c-9 9-17 21-27 30 3 2 1 9 0 12-2 9-9 14-14 18 5-2 9-7 12-12 5 4-1 9 2 8 7-18 27-31 27-54"/><path fill="#45484D" d="M515 155c-5 7-12 10-9 22 6 5 12 11 17 16 3-10-1-19 2-29-7-5-8-3-10-6"/><path fill="#633735" d="M533 228c-7 8-1 24-17 30-10 0-13-10-17-14 12 15 6 15 15 23 6-6 14-6 20-8 3-11 27-27-4-23 1-2 3-4 2-7"/><path fill="#564140" d="M462 319c-2 13-4 11-8 21-6-2-10-7-16-1-5-5-5-15-9-13-4 6-6 10-6 18l-1-1 1 2c-2 5 4-2 7 0 0 2 5 6 2 14 3-2 12-16 12-14 7-2 6 4 12-3 3-10 13-15 7-22"/><path fill="#7E7169" d="M507 262c-3 9-17 11-16 23 5 2 9 6 14 3 22-14 18-14 0-23"/><path fill="#96674E" d="M140 239c-41-3-12 15 0 14 2 1-8-7-1-7 2-4 10-2 10 1 2 4 5 8-1 6 2 1 4 0 6 1-5 0-6 3-9 4 1 1 3 4 2 5 10 6 12-6 17-6-12-4-7-9-25-20l-1 1h-1"/><path fill="#5B4240" d="M82 329c5 3-6 10 3 14-5-4-19-6-12 5 2 2 4 4 8 3 11 2 22 2 25-4-11-10-18-11-22-16"/><path fill="#F1C995" d="M479 243c-3 2-7 0-9 1 1 2 3 3 4 6-35 10 10-8-16-2-3 4-5 7-7 10 4 0 4-3 4-4 1 6 14-2 18 5 7-9 44 9 25-13-4 3-4 8-9 8-5-3-5-6-9-8 3-2 5 2 8 3 4 1 5-1 7-2-5-3-10-4-14-5"/><path fill="#2D0E0F" d="M374 186c3 2 7 4 11 6-3 0-6 1-8 0l5 5c-4 3-6 3-9 4 2 0 4 0 5-1 2 8 0 14 3 18-8 0-13-4-18-7-19-24-18-21 0 1 3 1 6 3 9 4 8 5 19 3 25 3-9 4-20 6-30 10 10-4 21-6 32-7h1l-2-2-4-4c3-2 10-1 9-1-8-10-14-18-20-26-5 0-6-1-8-2"/><path fill="#EC8C54" d="M417 232c0 6 5 7 8 11-4 2-6 2-9 2 8 8-4 12-3 15 6 5 10 6 13 11 1-4 0-7 1-10 8 2 15-1 19-3 2-3 4-3 4-4-6 0-13 2-17-1-6-7-8-14-15-18"/><path fill="#443A42" d="M259 399c-9 10-17 6-21 8-2 2-3 7-2 11 17 4 53-10 29-14 2 1-2 7-9 8 3-2 9-10 4-11"/><path fill="#7F352B" d="M502 181c6-1-23 22-4 6-8 10-6 11-3 19 10 0 18-11 17-15 2 2 9 6 7 20 3-4 9-1 10-4-10-5-11-21-24-26"/><path fill="#734742" d="M430 229c8 0 15 5 22 8 4 3 4 7 3 9-6 3-11 7-17 5-8-6-7-13-9-19"/><path fill="#8D8881" d="M339 463c-4 4-11 11-5 18 8 3 15 2 23 1-1-7-7-11-8-17-5-1-6-2-8-3"/><path fill="#A2866D" d="M194 347c-4 12-16 24-1 8 3 9 1 15-1 18 12 4 21-7 27-3-7-8-15-15-24-21"/><path fill="#DE7B4C" d="M128 430c-6 3-12 9-15 14 3 4 9 7 10 12 4-1 7-3 10-5-5-8 6-22-3-22"/><path fill="#EB8A50" d="M309 237c-7 5-15 7-17 16-3-2-1-3-1-4-4 2-8 1-11 2-2 4-5 7-6 10 11 2 19-8 31-8 6-4 9-10 4-15"/><path fill="#E88750" d="M229 242c-4 1-5 5-12 6 5 1-1 6 13 6-3 7-7 11-10 16 10-1 16-7 23-12-5-13-10-14-12-16"/><path fill="#DE794B" d="M312 403c-2 2 0 5-1 7 7 11 15 18 21 24 3-6 0-18 9-12-11-7-17-16-26-16"/><path fill="#787675" d="M523 455c-24 14-10 19 13 18-1-4 0-6 0-9-1-8-8-7-14-9"/><path fill="#6A5355" d="M346 162c-3 0-2 5-5 3 0 8 5 21 9 24 3-2 11-9 14-8-8-5-8-23-19-17"/><path fill="#8CA587" d="M378 282c-20 36 6 29 20 9l1 5h-2l3 1v-3c-11-3-8-3-22-7"/><path fill="#B75133" d="M379 154c11 12 22 22 38 34-5-8-7-16-8-26-11-3-21 0-27-7"/><path fill="#573237" d="M544 450c-17-6-3 19-1 23 15-5 6-19 13-21-8-8-1 5-11-4"/><path fill="#94897F" d="M147 459c-22 13-11 23 9 18 2-3 1-6 1-9-1-9-6-7-10-9"/><path fill="#B5BCA4" d="M314 305c6 0 11 6 15 9 3 5 3 11 2 14-7 0-11-1-14-4-4-6-8-12-4-17"/><path fill="#F9EFCF" d="M471 193c-1 2-3 5-2 9 2 10 11 15 16 21 2-5 3-9 4-13-5-9-12-11-16-16"/><path fill="#52454A" d="M388 349c-5 1-10 3-14 5 0 9 5 17 6 23 6-4 7-10 9-10 2-12 6-15-2-19"/><path fill="#AF7E5C" d="M156 230c4 6 7 16 17 14-3 2-6 2-8 3 1 2 1 4 2 6-6-2-5-7-10-7 1 5 5 3 7 8l3 1 1-2 12-9c-2-5-7-9-9-14-6 0-9-1-12 0"/><path fill="#897161" d="M297 312c-5 2-8 11-14 9-3 7 0 12 1 17 5 2 7 0 11 1 1-8 5-17 2-25"/><path fill="#572924" d="M528 236c-12 6-14 6-30 8 7 2 7 12 16 13 8-4 14-11 13-19"/><path fill="#6D6160" d="M134 369c5 14-2 25-3 39 8-7 13-9 17-13-6-5-1-20-12-25"/><path fill="#F4B66F" d="M268 143c1 5 3 13 3 18 9 3 10-1 19 5-4-14-1-9-10-20-2-2-6-3-9-4"/><path fill="#FAF1D6" d="M147 308c-5 9-13 17-15 27 6-3 42-30 18-26"/><path fill="#715A51" d="M193 362c-6 3-15 10-20 19-4-1-7 3-11 1-4 8 4-1 1 9 6-3 15-6 23-11 6-6 7-12 6-18"/><path fill="#983A27" d="M460 156c6 1 16 6 18 6-7 14-13-3-16 11-6 1-3-5-5-7 2 3-1 7 0 9 5-2 12 0 16 3 0-2-5-3-3-5 8 4 11 9 16 12 0-8 1-9-3-23l-1 1h-1l-3-1c-5-3-11-4-16-6"/><path fill="#2D171C" d="M237 435c1 2 3 5 5 8-6-2-13 2-19 4 4-2 4 2 0 4-5-4-8-5-12-6-7 2-9 6-13 8-3-3-5-7-1-10-4 8-7-3-11 3 6-5 11 8 10 8l2 2-1-1c6-3 11-11 18-7-2 3-9 5-10 12 2-6 7-11 15-9 6 3 5 8 9 13 2-5 4-12 9-15 9-3 11 5 14 9 0-3 2-5 3-8 9-2 20 10 9 0-8-4-2-8-8-8 2 3 4 4 7 6-3 3-3 1-6 2-3 2-4 4-5 5-2-2-4-4-5-7 1-2 2-3 3-4-3 3-4 1-5-2-4-2-5-5-7-6"/><path fill="#746156" d="M432 301c0 3-4-2-5 3-6 15-9 15-9 24l2 2h2l-1 1-3-2c3-16 7 14 3-12 1 5 6 7 4 9 3 2 5-2 8 1-8-13 13-16 2-28"/><path fill="#F9ECCB" d="M206 242c-4 2-4 7-7 10-9 6-18 4-25 8-4 4-8 6-6 11 14-6 28-12 41-21-4 0-2-5-2-7"/><path fill="#F5B76E" d="M561 174c-9 2-18 3-27 7 2 6 7 10 8 15 6-7 18-19 22-23"/><path fill="#F3A35F" d="M226 229c-4 1-8 2-11 3-11 3-19 7-27 11 2 2 15 0 9 6 4-3 1-9 6-8-2-2-7 6-7 0 8-8 12 2 9-6 8 4 3 10 9 10 8-3 20-8 13-17"/><path fill="#4C3C42" d="M235 341c0 10 1 21-1 30 0-6 4-10 3-14 4 4 1 9 0 12 19 2 35 12 53 14-6-11-26-5-37-14-10-7-15-20-18-25"/><path fill="#685753" d="M547 242c-3 4-16 11-12 17-5 4-11 2-14 5 7-3 19-4 26 0 8-6 2-14 2-20"/><path fill="#A18168" d="M236 288c-4 1-13 11-17 18 4 3 7 8 10 12 6 0 2-15 4-22 1-8 10 2 10-5-4-2-4-2-5-3"/><path fill="#FBF1D7" d="M248 226c-5 1-10 1-15 2-5 3 0 7-2 10 7 0 14-2 20-3 3-9 13-11-3-9"/><path fill="#384349" d="M442 304c-1 2-2 8-6 17 0 6-4 10 0 16 8-1 6-6 9-11 1-16 0-13-1-22"/><path fill="#926045" d="M343 193c-5 11 16 24 24 30 5 4 7-1 11 0-6-2-11-5-16-9-7-6-11-13-14-20"/><path fill="#706259" d="M446 307c5 4 3 13 4 17-3 4-4 7-10 11 4-3 8 3 10 2 6-8 3-5 2-12 4-2 1 2 3 3 2-7 9-4 10-12-3 5-12-8-16-7"/><path fill="#4A3841" d="M243 450c-8 0-10 8-11 13 7 3 13 2 18 3 1-7-1-10-4-14"/><path fill="#6C615D" d="M468 315c-2 14 0 22-13 37 12-6 23-20 24-24l1-2-1 2c-2-2-3 1-4 0-2-5-4-8-4-11"/><path fill="#622E2E" d="M56 296c-10 29 1-15-16 25 4 6 11 12 15 17 1-7-6-28 0-40"/><path fill="#4A3841" d="M216 450c-21 12-6 20 10 14 0-4-2-8-5-12h-4v1"/><path fill="#96897E" d="M160 454c3 18-4-1 1 21 5 0 10 1 15-1 0-7-7-13-12-18"/><path fill="#613739" d="M404 456c-2 2-1 5-3 7-1-1-2-4-1-6-13 12 1-11 2 28 10-14 9-15 12-26-3 3-10 0-9-2"/><path fill="#F2934D" d="M502 133c-2 5-3 10-2 15 4 5 3 8 5 12 3-4 8-13 13-7-6-9-10-12-14-18"/><path fill="#7E7976" d="M109 459c-2 8-4 7-7 16 7 4 11-2 19-1-2-2-2-5-1-11-5 2-3-4-9-3"/><path fill="#543A39" d="M395 326c-4 6-6 13-10 18 6 1 12 3 15-1 11-11-4-13-5-13"/><path fill="#823E36" d="M412 201c-4 1-7 10 3 20 3 1 5 1 9 0-1-3-4-4-4-6 7 4 11 10 17 12-6-7-11-13-16-22-2 2-5 0-6-1 0 4 1 6 0 10-6-5-6-8-2-12"/><path fill="#AE452D" d="M451 152c-9 8 10 10 7 20 7-13 20 1 22-12-4 4-18-3-25-6 0 2 0 4 2 6-4-2-5-4-6-7"/><path fill="#573336" d="m517 448-3 1c-4 4-13 11-11 19 5-4 14-12 17-15 17 6 11-4 0-7"/><path fill="#A65534" d="M502 171c-4 2-9 2-13 3 1 5-2 13 1 17 9-4 11-11 13-18"/><path fill="#4A3842" d="M257 451c-4 4-4 8-2 12 5 3 12 3 17 2 0-5-3-7-5-10-4-3-6-4-8-4"/><path fill="#FAF2D6" d="M456 209c1 6 4 12 9 16 4 5 8 4 11 7-1-5-1-10-4-14-5-5-10-5-14-8"/><path fill="#B06A42" d="M382 186c8 9 23 27 23 33 1-6 1-11 0-16 3-3 5 3 6 1-10-7-19-12-27-17"/><path fill="#724F48" d="M112 297c2 8 3 16 7 23 4 8 9 4 11 5-1-4 1-7 1-10-10-5-3-5-10-4 5-5-7-7-8-12"/><path fill="#907D6C" d="M346 332c-7 10 0 13 0 24-1 7 4 4 9 10 1-19-5-20-9-35"/><path fill="#ACBBA1" d="M317 306c-3 1-3 4-4 6 3 9 7 12 15 14 4-2 1-4 2-7-7-6-9-11-12-11"/><path fill="#89472E" d="M533 181c-1 3-5 7-6 13-4 13 12-2 5 14 3-3 8-5 8-8-1-8-4-13-8-17"/><path fill="#DC774A" d="M140 335c-1 4-3 4-6 6-1 9-1 16 2 23 6-2 9-6 12-10-3-5-7-1-11-3-1-7 5-10 5-15"/><path fill="#A28166" d="M323 259c-4 2-5 5-6 8 5 14 11 24 13 27 3-3 10-14 16-9-9-2-16-12-20-20 2 3 3 7 5 10-6-3-3 2-5 8-4-6-8-9-9-15 1-3 1-6 4-7"/><path fill="#585E5D" d="M57 367c2 6 5 9 11 11 9 3 17 4 25 5-12-4-20-16-34-14"/><path fill="#5B4140" d="M272 329c-10 1-8-1-4 14 6 3 10 2 13 2-2-4 0-9-3-11-2-5-11 3-7-6"/><path fill="#F7A55D" d="M499 153c-5 2-10 4-15 5 0 4 1 7 3 9 5-4 17-3 14 2 1-6 0-11-2-15"/><path fill="#65514D" d="M210 378c5-3 12 0 9 7-4 4-8 7-11 9-5-4-2-9-1-13"/><path fill="#543137" d="M501 460c-5 4-15 9-22 3-1 2-1 5 1 6 6 5 14 3 20 4-1-4-1-9 0-12"/><path fill="#381D24" d="M229 443c28 2 1 6 1 20-1-5-7-9-6-13 3-3 5-5 7-5"/><path fill="#CBAC8D" d="M158 357c3 7 2 14 3 23 0-2 0-4-1-7 3 3 3 5 2 6 7 2 11-1 15-4-2 2-4 1-5 4-2-4-5-11-4-17-5-2-3-3-8-4"/><path fill="#F9D9A4" d="M269 188c-18 7 29 4 36 4-10-5-23-3-32-3"/><path fill="#77665B" d="M421 315c-1 1-2 5-3 8 4 5-3 11 4 9-10 4-14 5-15 9 6-6 4 8 13 6 1-7 3-17 6-22-7-11 2 2-8-1 2-5 7-10 5-9"/><path fill="#F7D194" d="M280 146c6 4 9 9 12 15 7 4 12 4 17 6-7-10-17-16-26-21"/><path fill="#FAECC7" d="M258 208c1 6 3 11 9 13 5 1 8 3 12 2-2-8-13-10-19-14"/><path fill="#5B342D" d="M565 175c-3 15-14 44-30 52 5-4 14-3 17-12 7-13 11-25 13-38"/><path fill="#DD784C" d="M318 366c3 8 14 12 20 16 2-7 0-11-3-16-3 2-4 3-4 5-5-1-7-4-10-5"/><path fill="#EA8B54" d="M340 249c-26 10-2 12 10 12-4-3-8-7-10-11"/><path fill="#4C3033" d="M271 358c0 16 16 4 14 13 2-4 4-7 5-10-6-3-15-3-16-1"/><path fill="#76786D" d="M423 149c8 10 24 16 33 23 2-5-8-9-11-13-10-7-14-5-21-9"/><path fill="#906855" d="M126 291c-5 2 8 7 1 19-9-25-24-17 0 1 2-1 2 1 3 1 6-7 4-14-3-20"/><path fill="#EF9453" d="M188 245h-2c-5 4-11 7-13 11 6-1 34-8 19-12"/><path fill="#DDAD82" d="M380 435c-1 3-2 7-1 12 3 2 5 2 7 4 2-2 5-3 5-4-2-7-7-9-9-13"/><path fill="#DE7A4C" d="M163 313c-1 3-4 3-6 5 6 10 0 17-1 24 4-2 6-5 8-7 0-8-5-15 0-20"/><path fill="#65504E" d="M129 329c-4 1-5 5-7 9-6 24 8-6 1 22 8-9 4-20 6-29"/><path fill="#4A2120" d="M476 259c1 10 3 0 11 6 6 4-3 9 3 10 13-2-6 0 12-13-9 2-17-1-24-1"/><path fill="#F9EBC6" d="M507 220c-7 3-12 6-14 14 11 7 4-9 10-1 3-4 6-8 4-13"/><path fill="#E2CBA6" d="M285 283c-4 1-3 7-4 10 1 10 7 11 11 19 1-1 1-4 4-5-3-4-10-11-10-13 0-4-1-7-1-10"/><path fill="#C4CBB0" d="M311 284c3-2 6 0 7 3 2 5 3 8 0 11-4-2-7-3-8-7-1-3-1-4 0-5"/><path fill="#DC794C" d="M137 432c0 5-3 10 1 14 5 1 6 1 10 2-3-6-5-11-8-16"/><path fill="#B08966" d="M323 260c-3 1-4 4-5 7 1 7 5 9 8 13-2-5 3-8 4-3-3-7-6-11-7-15"/><path fill="#6F5E56" d="M365 336c-1 2 0 6 0 9l2 1v2c2 3 4-7 6-4-1 3-3 5-4 6 6-1 10-2 12-7 1-4-8-4-11-4-5 0-3 3-4 4-1-1-1-3-2-6"/><path fill="#F3B573" d="M202 166c-2 5-5 9-6 14 4 3 6 1 8 5 2-7 2-13 0-18"/><path fill="#FAECC9" d="M172 229c3 5 6 7 11 12 3 0 5-2 7-3-3-7-10-7-16-8"/><path fill="#3C2229" d="M252 445c-8 1-3 5 0 10 8-5 1-7 11-6-2 2 9 3 9 12-1-6-3-11-8-14-5-4-7 0-10-3"/><path fill="#ED9052" d="M262 225c-17 15 7 9 13 6-4-1-5-6-12-4"/><path fill="#4E3539" d="M403 358c-9 4-13 12-17 18 8 5 19-16 17-16"/><path fill="#FAF1D6" d="M402 246c-10 1 8 12 12 8 2-7-6-7-9-9"/><path fill="#2D424A" d="M518 305c-2 1-6 2-7 6-1 5 0 10-1 14 5-5 9-11 9-18"/><path fill="#E2D0B0" d="M243 273c4 1 6 11 3 15-3 1-6 0-7-2-1-6 2-8 3-10"/><path fill="#884234" d="M520 240c6-2 3 9 2 10-4 4-6 10-10 7 4-5 6-10 6-16"/><path fill="#8E6350" d="M119 244c-24 14 10-2 28 21-4-10 1-8-9-17 2 4 2 4 4 9-5-11-21-2-23-12"/><path fill="#797674" d="M557 455c-1 8 0 13-8 17 4 2 7 0 12 1 1-6 0-13-2-16"/><path fill="#FAF1D6" d="M169 290c-9 2-1 4 3 7 4-1 6-2 9-3 0-5-6-4-10-4"/><path fill="#EC8E57" d="M337 212c-10 4-20 8-30 11 10-2 22-1 29-10"/><path fill="#603839" d="M323 446c2 11-3 15-7 23 5-2 12-4 14-11-4-2-5-6-7-9"/><path fill="#824135" d="M447 232c18 9 27 7 39 10-6-6-16-2-36-10"/><path fill="#290E0D" d="M165 259c-17 10-16 28-28 41-2 2-2 0-3-2 4 5 0 11-2 15-1 14-5 28-1 40v2h-1l-2 1c-1 2-2 5-3 7-2-2-3-4-2-5-2 3-5 6-9 7 3-7-10 5-14 2 5-1 12-1 12-1 5 0 9-8 11-3 3-2 4-4 5-7 4 19 1 16 7 24-3-12-4-15-4-25-2-15 1-28 2-39 0-7 3-10 4-13 38-38-5-6 29-48"/><path fill="#E28251" d="M374 452h-3c-2 5-4 10-8 13 3-9 32-9 13-14"/><path fill="#270E0C" d="M476 258c-2 10 10 10 11 17l2 2h3c3-5 9-7 12-12-3-5-9 5-12 12 1-12-13-12-17-16"/><path fill="#39474D" d="M487 305c-6 2-12 4-16 9 4 1 13 1 15-3 1-2 2-4 1-5"/><path fill="#7B7369" d="M418 155c1 5-4 3-5 9s2 13 6 18c8 1-8-8 1-25"/><path fill="#0C0405" d="M359 482c-31 7 55 1 68 4-21-7-40 4-65-4"/><path fill="#3E2329" d="M210 448c-4 0-6 3-8 6-5 2-2 5-2 7 2-7 17-10 13-13"/><path fill="#F7BA79" d="M447 179c-3 1-8 5-13 6 12 5 17 14 13-7"/><path fill="#F6A156" d="M211 234c2 3 5 3 14 5-5 1-9 8-12 5-2-2-1-5-3-7"/><path fill="#755C50" d="M353 306c-8 5-4 11-9 14 1 0 3 3 4 7 1-5 10-15 3-19"/><path fill="#5B4440" d="M412 319c-4 1-3 5-4 8 4 5 4 7 6 9 7-9 1-10-3-15"/><path fill="#DE7E4F" d="M412 447c-10 14 4 7 11 7-3-4-6-5-9-6"/><path fill="#592F34" d="M354 162c2 5 5 11 7 13 6 4 6 7 11 5-4-9-16-14-17-17"/><path fill="#94846F" d="M418 150c-7 0-7 6-6 12 2-5 5-3 6-8 2 7 2 12 1 16 1-4 1-9 0-14 4-4 8-1 11 0-3-8-3-2-11-6"/><path fill="#A07F68" d="M152 322c0 5-11 6-6 13 6-6 6 5 10-4-2-3-2-6-3-8"/><path fill="#9C816A" d="M279 306c-5 32 18 5 17 4-3 1-3 5-7 6-5 0-5-5-9-6"/><path fill="#422B2F" d="M399 371c-14 11-14-1-18 9-2 3 3 2 1 4 6 2 9-4 15-12"/><path fill="#F9EAC5" d="M295 222c-6 0-8 4-5 8 1 2 4 0 6 1 4-4 4-10 1-10"/><path fill="#B89979" d="M339 289c3-1 7 3 11 3-1 4 0 6-1 7-5 0-8-4-10-8"/><path fill="#F09755" d="M492 165c-13 7 3 9 8 5 2-6-2-3-7-5"/><path fill="#F09B55" d="M260 192c-5 1-10 2-14 5 8 5 16 0 17-5"/><path fill="#AFBBA0" d="M311 285c-2 6 3 9 5 12 2-4 4-8 2-10-3-2-4-2-5-1"/><path fill="#EA9055" d="M312 172c1 6 5 11 8 17 1-7 1-14-6-17"/><path fill="#684F49" d="M275 317c0 7-6 8-12 11 13-4 5 6 13 2 1-3 0-7-1-11"/><path fill="#644E4B" d="M212 378c8 1-8 4-4 12 6-4 16-11 6-12"/><path fill="#F9F1D9" d="M406 226c2 4 3 9 5 13 4 3 6 3 8 4-6-5-6-12-10-17"/><path fill="#6A5B57" d="M285 339c1 5 4 9 6 13 1-4 4-8 3-12h-7"/><path fill="#5B3E3D" d="M481 289c-12 3-14 5-23 5 17-7 62 3 23-6"/><path fill="#888F79" d="M384 274c-6 0-10 5-13 6 1 2 24-5 15-7"/><path fill="#7C3B35" d="M419 225c-10 2 3 9 5 13 0-4-2-7-3-11"/><path fill="#F6DAAB" d="M324 174c-2 6 7 9 9 14 0-4-3-8-2-12-2-2-3-2-4-1"/><path fill="#E27552" d="M433 232c-1 7 0 15 7 18-9-7-1-15-5-19"/><path fill="#E1C8A6" d="M255 287c-3 2-7 3-7 8 1 2 2 3 3 4 3-3 5-7 3-10"/><path fill="#904235" d="M368 229c-4 6 15 13 21 15-6-3-12-7-17-13"/><path fill="#9A8874" d="M315 386c7 9 17 17 24 23-4-9-18-15-21-21"/><path fill="#DE7E51" d="M337 453c-10 17 1 4 10 7-4-4-6-4-9-5"/><path fill="#DE7B4C" d="M141 453c-4 1-6 5-8 8 6 2 11-4 10-7"/><path fill="#6B645D" d="M418 166c1 8 0 19 6 19 7-5-9-9-5-17"/><path fill="#2D2D2C" d="M453 437c6-1 8 10 5 14-2-2 0-8-5-11"/><path fill="#2A110C" d="M325 255c0 10 7 17 13 25l3 1 2 1c6 0 12 4 21 4l2 2 1 1c3-2 5-5 9-6-1 3-4 4-6 6 10-5 8-8 16-9-6-1-14 3-19 8-1-12 3-21 11-27-8 6-13 15-13 24-14 1-12-5-22-4-10-7-15-15-19-23"/><path fill="#D17046" d="M128 435c3 0 1 9 2 12-3 4-5 5-6 6 4-4 4-9 2-16"/><path fill="#372B36" d="M440 233c-4 4 9 8 2 11 5 1 7-1 12-3-10-1-9 0-11-8"/><path fill="#211317" d="M221 395c-3 3-11 8-12 12 3-2 5-5 8-7 5 10 8 18 10 27l1 2h1c2-4 2-8 4-11 1 0 1 1 1 2 4 3 8 1 10 2-3-2-5-2-8-2-1-3-3-5-3-7-1 5-3 10-4 16-4-11-6-18-10-27-3-3-1-5 1-5"/><path fill="#7F564B" d="M127 254c2 3 4 4 7 6-31 2-10 5 9 3-6-1-11-4-15-7"/><path fill="#A8573F" d="M307 252c-4 6-24 5-18 9 5-2 13-1 17-8"/><path fill="#5C3835" d="M448 286c-2 10 11 5 15 4-6-5-9 2-12-2"/><path fill="#5E3738" d="M102 456c-3 6-3 10-2 15 3-8 15-16 1-11"/><path fill="#F69F53" d="M212 234c-3 13 2 11 12 5-4-2-14 0-11-4"/><path fill="#DBB691" d="M206 275c4-2 10-1 7 5-3 2-7 0-8-2"/><path fill="#885C54" d="M341 157c-2 2-2 4 0 6 2 1 6-1 9-1-3-2-5-4-8-5"/><path fill="#796763" d="M378 458c-5 4 8 6 10 6-1-6-4-4-8-6"/><path fill="#F49E57" d="M227 246c5-4 8 2 11 1-3 4-8 1-12 1"/><path fill="#5F3C3D" d="M160 451c6 5 6 3 15 13-3-6-6-15-14-12"/><path fill="#DCC5A4" d="M244 274c0 1-5 14-2 13 3 0 7-5 2-12"/><path fill="#7C7976" d="M380 471c6-2 11 8 17 5-6 5-10-2-14-2"/><path fill="#220E12" d="M321 454c-2 4-12 0-13 9l-1 2h-2l-7-7c4 4 3 6 4 7v1h1l2 1 1-1c4-1 6 1 8 2 1-1 4-3 4-4-1 3-8 2-10 1 6-18 14 1 13-9"/><path fill="#A95839" d="M280 232c-9 0-12 3-17 4 7 4 17-4 20-5"/><path fill="#543B3D" d="M120 352c-3 3-5 7-6 11 5-3 9-6 7-11"/><path fill="#B4653F" d="M314 179c-2 2-2 5-3 8 2 1 5 1 8 2-1-3-4-5-5-8"/><path fill="#A0684B" d="M319 206c2 5-1 7 5 9 1 0 3 0 5-1-4-2-5-6-9-7"/><path fill="#DCC1A0" d="M298 290c-1 8-1 15 1 14 2-4 1-10 2-13"/><path fill="#713F37" d="M508 243c3-3 5 2 8 2-4 6-9 4-10 0"/><path fill="#48393F" d="M316 458c-3 1-6 2-7 6 6 3 9-3 9-7"/><path fill="#B18F6F" d="M192 350c3-2 6 3 8 4-3 3-7 3-8-2"/><path fill="#DF8050" d="M395 448c-11 7 5 8 6 3-2-2-3-2-4-1"/><path fill="#AD5336" d="M414 190c0 4 6 14-1 12 3 1 4 3 6 2 3-3-3-3-1-9 2 0 3-5 7 1-2-3-4-5-6-2l-3-1v-1h1"/><path fill="#AB6A3F" d="M265 196c-8 3-15 7-21 14 2 9-12 7-15 12 5-2 14-9 18 0-1-3-2-6-3-11 7-9 14-12 21-15"/><path fill="#F6A25A" d="M239 241c-13 0 1 5-12 5 5 1 8 5 11 3-7 1 1-4 0-6"/><path fill="#624A48" d="M84 324c-2 3 3 8-2 7 9 7 9 3 22 11-7-6-15-8-20-15"/><path fill="#FAEFCE" d="M411 144c-1 2-1 4-1 6 4-3 8-1 11-2-3-1-5-3-8-4"/><path fill="#663433" d="M534 218c-2 6-5 11-11 15-11 6-21 11-26 8 10 3 17-1 23-6 8-4 11-10 13-16"/></svg>