<svg xmlns="http://www.w3.org/2000/svg" width="600" height="600"><path fill="#5F666D" d="m145 101 2-2c18 1 38-2 54 4 22 6 41 12 56 28 5 8 8 15 9 22-5-5-9-10-13-13-10-8-19-13-28-16-22-6-43-4-61 3-18 6-33 14-46 26-12 11-22 24-26 39-7 9 6 8 3 17 0 7-4 11-6 16 5 0 10 5 14 8 7 8 10 17 14 24 2 7-1 10-5 12-8 1-14 0-19-2 16 12 32 24 50 29-1 11-13 20-21 25 21 1 42-4 64-5 4 2 4 4 2 5-5 7-9 12-14 16 16-7 31-17 46-25 8 5 2 13 0 17 18-19 36-35 57-49 5-1 7 1 6 5 0 6 0 11-2 15 12-16 31-23 44-34 10 3-2 18 1 20 5-10 8-18 12-25-3-15-7-28-10-41-2-16-3-29 1-41 3-13 10-27 15-31 4-4 14-20 25-25 7-7 31-16 46-17 42-5 73 10 108 12 15 31 30 58 53 83 2 11-1 19 1 27-7 8-11 13-16 19-5-4-7 4-12 3-2-3-3-8-8-6-7 6 6 12 2 20-2 6-6 9-9 10-14 8-27 12-42 11-15 1-29 0-41-3-3 6-3 11-2 16 0 38 19 66 26 99-1 17-6 30-10 43 13 0 22-9 35-8 8 4 17 6 26 6 9 2 15 6 19 11 2 7-5 4-8 5 2 4 7 6 7 10-13 2-30 1-39 5-25 3-22-1-33-5-18 6-23 2-41 3 1-4 5-2 7-3-7-3-13-10-12-13-20-2-38-4-57-4-9 2-15 5-23 6 11 0 23 1 33 1 9 2 14 9 20 12h18c-2 2-7 1-10 3 5 5 10 9 14 14-16 3-36 2-53 0 1 4 3 10 2 15-19-6-37-10-54-14-15 4-28 9-41 12-2-6-1-9 1-13-7 1-11-1-18 0 6-3 15-1 20-4 4-5 7-9 10-14-10 3-20-2-31 0-3-3-4-4-3-7 3 10-11 12-11 17 4 0 10 4 14 5-3 3-7 0-10-1-1 3-3 4-2 6-11 0-20-4-27-8-10 8-23 12-35 13-5-5-1-10-1-15-9-2-15 3-25 1 0-6 4-11 7-15-5-3-13-1-18-5 17 5 29-3 42-7-19-4-40-6-64-2 4-4 17-5 26-5-21-4-65-34-66-39-25-22-39-46-48-71-7-16-11-31-13-46-2-20-1-38-2-56 7-44 26-85 65-109 18-10 37-17 56-21"/><path fill="#2D5E75" d="M83 156c-16 13-20 30-27 46 1 15-13 30-9 52-4-12 0-24-3-37 1 9-1 17-2 25 1 8 3 13 3 19 3-2 7 1 9-1 5 5 7 11 7 17-3 7-7 15-12 14 4 18 10 33 18 47 8 12 17 22 27 31 14 17 39 23 45 25 10 6 23 7 38 6 16-1 29-5 42-10 9-5-6-7 8-8-12-3-13-11-23-11-3-4-1-5-2-9 1 4-1 7-4 9-9 0-13 7-22 4-8-9-6-6-16-11-1-6-2-9 1-12-14-5-26-10-37-20-14-13-23-27-30-40-7-19-14-36-15-55-5 1-8 6-15 4-3-7 1-13 1-18 6-17 22-23 24-36-2-7-4-9-7-9 3 2 2 11 0 14-4 7-8 3-8 0 14-23-7-16 6-35"/><path fill="#72B0BE" d="M427 114c-9 2-19 1-27 4-8 6-67 41-46 38 2 2 9 6 11 7 4 12-5 6-3 17 4-3 9 0 11 2-6 7-2 13-2 18 6 6 9 16 8 12-1 5 2 7-3 9 11 9 35 6 41 12 15-2 28 0 45 2-6-2-14 0-19-3 2-8-1-16 8-20 5 2 10-1 13 0 7 4 15 6 19 13-6 4-4 10-13 8 18 1 35 1 50 0-9-12-19 0-33-9-12-11-24-17-38-18-16 6-31 5-48 5-8-4-11-7-17-9-10-14-10-32-9-47 3-9 5-14 9-20 6-7 11-11 18-12 18-4 29-1 44-4 18 13 42 19 56 32 10 10 7 21 15 29-1 7-7 9-8 13-1 8 7 11 3 18-2-1-8-2-10-7-7-2-11-4-16-7 5 2 10 8 15 7 5 5 8 7 3 9 4-5 8 7 15 4 3-19 19-31 19-44 5-4 10-1 11 3s4 5 5 7c-1-2-4-3-4-5 2-3 3-2 4 0-8-9-18-13-22-25-15-2-24-14-34-14-7-2-4-7 0-7-15-3-25-18-24-15-9 0-2 2-1 3-20-9-21 4-42-7l-1 1h-1"/><path fill="#203A54" d="M57 318c1 12-5 28 5 41-1 6 3 16 12 22 7 8 15 6 22 10 5 3 12 13 14 21 3-4 5-7 11-6 12 3 16 19 28 20 4-11 15-18 10-23 15-1 27-1 37-5 3-1 4 0 6 0 15-5 27-11 40-17 10-10 6-24 12-33-4 2-9 8-13 4-1-9 4-11 6-17-16 8-34 14-52 17-16 3-31 2-43-4 3 2 7 2 10 3-4 4 0 7-2 9 1 5 5 4 6 7 3-3 6-7 9-9 9-1 15 0 23-1 7 3 6 9 4 12 12-1 15 12 24 12 2 3-14 17-28 16-12 3-24 5-36 4-5 1-7-1-11 0-22-5-39-16-56-29-18-17-30-34-38-52"/><path fill="#E0DCD1" d="M378 308c-16 19-20 44-29 69 16-1 35 9 58 3 8-4 12-9 17-15 4-7 7-13 4-18-3-8-6-13-12-17-14-9-25-18-38-24"/><path fill="#805451" d="M444 281c-1 4-2 8-5 10-1 3-1 4-1 5 0 21-2 32-2 36-17-10-14-25-43-37-5 1-9 6-15 7 12 7 22 16 34 20 10 8 16 16 20 25 5 6 5 12 4 18-3 9-7 16-13 23-12 8-21 14-32 16-22 5-32-14-50-14 4 3 7 7 12 9 1 6-3 6-5 8-12 1-19-8-22-15 4 5 5 12 9 17 15 2 21 5 33 4 8 5 7 6 12 9 2 14-17 14-20 24 19-6 19-5 36-13 12-17 34-25 45-42 3-6 4-11 6-15 1-26-3-53-8-77 2-12 8-18 8-15"/><path fill="#97D0D9" d="M433 121c7 2 13 5 18 10 6 4 12 8 11 13-8-4-17-10-20-15-8-6-29-4-6 0 4 5-2 8-4 8 7 9 14 13 19 20l-1 2h-1l-2-3c-6-4-12-11-18-14 6 4 12 10 18 14 9 10 12 20 16 29 18 10 35 14 48 26 4-7-4-10-3-15 1-7 7-9 8-14-8-10-5-20-12-29-16-14-40-20-55-32-6-1-10-1-14-1"/><path fill="#192132" d="M453 346c1 1 0 3 1 5-1 13-3 16-6 29-5 12-9 20-27 40 4 6 7 12 9 17-2 13-6 18 0 20 6 6 16 9 27 7s-21 3-21-4c8-6 18-1 27-2 23 4-1 7 19 7-3-4-2-8-3-11-4-7-3-6-11-7 6-3 10-7 17-6 15-1 27 3 40 6-12-5-26-9-41-8 2-5 7-3 11-5 8-2 10 2 14 4-1-1-3-3-5-3-3-1-5-2-6-1-19 1-20 12-36 9 4-10 7-22 9-31 1-8 1-14 1-19-1-9-4-15-6-21 4 12 6 24 5 38-2 11-4 20-8 28 9-17-2-45 4-47-3-16-7-28-12-39 5 3 8 11 10 17-2-8-7-15-10-23"/><path fill="#2E5A6E" d="M298 323c-14 11-19 4-35 18-10 9-10 21-12 32-1 18 0 34 5 47-3-6-3-15-1-20 3 5 2 12 3 18s6 7 8 9c-2-22-10-45-3-71 9-3 28 1 33 4 15 8 25 22 42 23-4 2-3-2-3-2 3-5 9-7 11-12 7-16 2-13-7-3-7-3-14-2-20-4-14-15-3-29-22-36"/><path fill="#4B161C" d="M403 240c0 1-1 9 3 7 7 3 8 6 15 2 3 3 2 4 4 8 8 2 16 8 22 1 4 4 6 8 10 9l2 1-3-1c-2-1-5-4-6-6 10-2 17-2 23 1 4 1 7 1 7 3-3 2-4 5-6 5 4-4 9-2 10 3 20 1 37 0 51-10 0-9-3-13-8-17 4-3 7-2 9-4-7 3-14-1-18 8-3-3-6-3-6-6-6 1-14 0-20 0-3 4-7 5-10 7 0-3-6-4-5-7-79-8-1 1-75-3"/><path fill="#1E2733" d="M348 235c-2 8 3 14 3 22-2-1-3 1-5-1-1 2-1 6-2 9-2-5-5-7-5-10 1 6 5 12 3 20-8 16-19 17 5 11 7 5 13 9 20 12 10-1 9-2 17-7 4 0 5 2 3 3-5 3-7 5-11 9 3-5 7-4 11-6 2-6 2-11 7-13 8-5 16-6 22-10-13-5-26-7-39-13-12-8-15-18-27-25"/><path fill="#253E4A" d="M177 110c-17 1-34 7-51 13-18 9-32 22-46 35-12 13 8 18-4 23 2-1 3-2 5-1 1 3 1 5 1 7 0-2 0-5 1-7 5-1 6 3 7 4 5-8 10-15 17-23 13-13 24-22 34-27 23-13 39-17 63-17-7 1-14 1-20-1-5-2-6-4-1-5 50 4 34 2-7-2"/><path fill="#673E3F" d="M323 390c7 19 2 41 1 59 12 0 24 5 34-1 3-13 23-12 22-25-14-13-28-7-42-13-8-6-9-13-13-19"/><path fill="#1C263C" d="M249 374c-8 12-22 14-33 20-18 6-35 10-54 8-6 6 4 5-2 8-4 4-6 9-8 12 2-3 4-7 8-9 5-5 11-3 15-4 12 4 24 8 28 18 8-3 15-8 21-2-2-7-7-16 0-23 10 2 19 5 25-1-3-11-1-25 1-23"/><path fill="#5D3C3E" d="M244 403c2 4-1 18-1 26-10 3-17-2-23-5-7-1-11 3-15 4-5-1-5-5-6-6-5-4-8-5-10-7 2 2 5 3 8 4-7 5-10 14-10 19 0 3 0 5 1 7 12 4 22-3 31-6 58 16 52 10 22-38"/><path fill="#5898AB" d="M138 116c-27 0-47 24-66 26-10 11-15 15-24 21-5 9-9 15-11 21 2-6 9 0 11-4 1 10 6 15 5 24 4-12 11-28 30-52 17-12 34-29 55-35"/><path fill="#5798A9" d="M358 299c-7 3-5 18-11 24-4 8-8 1-11-1-3 5-3 10-7 12-4 5-8 8-12 9 5 7 12 12 21 10 7-2 10-7 12-11 5 7 2 15 1 21 3-4 6-19 6-28 4-11 19-12 15-24 2-9-8-10-13-13"/><path fill="#3F7B91" d="M261 359c4-7-4 28 3 44 3-2 6-7 10-7-3-9-9-15-6-26 3-5 6-9 10-12 11 1 19 4 27 10 0 8 2 16 2 22-9 5-5 9-12 12 7 6 6 16 7 25 2 3 6 7 10 5 6-11 10-23 8-35-1-9-4-16-8-22-7-8-13-13-20-16-6-1-9-3-12-3-6 1-11-1-14 1"/><path fill="#5E99AA" d="M357 153c-8 7-13 4-18 19 4-6 8 6 8 9 8 15 1 29 11 43 3-9 14 1 21 1 7-12-11-16-11-36 0 2-3 4-4 0-2-4-2-6 1-7 5-2 4 3 6 3-1-4-6-6-9-3-3-8 0-12 4-11 2-11-10-7-9-18"/><path fill="#6EA6B7" d="M279 358c-4 3-7 7-10 10-2 12 2 19 7 26 8 1 14 3 19 7 3-6 6-7 10-8 1-9-1-17 0-22-8-8-16-11-24-14"/><path fill="#8A7B80" d="M61 372c12 21 33 39 53 50 24 13 46 21 70 25-21-11-45-18-61-40-9-2-7 9-13 7-6-7-6-14-10-19-15-5-28-8-37-21"/><path fill="#6A3935" d="M418 275c-9 8-30 4-30 22l3-6c7-1 14 5 16 4 11 4 22 14 26 23 9-4 5-17 5-24 4-5 5-18 11-11-10-4-20-6-29-8"/><path fill="#D14D37" d="M407 156c-11 1-12 13-16 23 1 8 1 13 4 18l1 1 2 2-1-1-3-4c4-2 22 13 33 4 2 5-5 9-10 7 4 1 8 0 12-2 5-5 8-9 9-13l-9 3c6-13-5-20-9-27-7 7 0 23-7 31-6-17-5-23-3-31-4 0-8 1-9-3 0-6 6-10 10-5"/><path fill="#5A98A8" d="M541 171c-3 13-19 32-25 49-3 6 4 4 5 10-3 2-3 6-6 4h11c-3-2-4-7-7-9-1-7 2-8 4-10 13-3 20 1 30-5 4-7-1-12-4-16 2-3 5-2 7-4-4-6-6-14-11-19"/><path fill="#C1AEA3" d="M425 338c3 4 7 11 4 17-5 12-12 20-20 26-26 6-46-4-63-3-1 1-3 3-4 6 9 7 21 4 29 9 16 1 30-3 42-6 8-3 12-9 15-14 8-12 6-25-2-33"/><path fill="#AE5544" d="M278 285c-16 14-21 10-52 43 8-7 12 1 17 3 9-6 17-7 23-12 5-5 9-8 11-12 2-9 4-16 3-24"/><path fill="#6F5458" d="M167 411c-8 0-17 14-12 21 18 5 29 17 37 16-3-1-6-4-6-9 0-7 4-16 11-18-9-5-16-10-24-10h-3"/><path fill="#1C2837" d="M23 240c-1 21 1 44 6 64 2 8 4 14 6 19 5 18 12 32 21 45-9-14-16-28-21-42-5-17-9-32-10-47 3 6 7 8 7 15 3-4 2-8 5-9 4 6 1 13 5 17 4-3 10 1 10 6-8-20-8-45-13-65 0 4 1 8-6 10-6-4-7-6-9-11"/><path fill="#427B8C" d="M333 283c-21 27-37 32-29 34-16 12-13 4-21 13 6-2 10-5 14-7 2 4 5 4 8 7-1-6 11-15 3-15 5-6 12-12 15-18 5 3 9 3 7 8-2 3-6 3-9 4 3 1 5-1 8 0-3 4 5 5 5 15 3-6 8 6 13 2 1-6 6-14 5-23 16-7 8-4-6-14-6 1-9 4-13 5-4-2-4-6-3-7"/><path fill="#9F7D75" d="M400 318c7 4 13 7 19 12 7 8 12 14 15 21 1 15-5 25-15 33-13 6-30 10-45 11-10-4-19-5-28-6-2-4-8-4-5-7-4 11-4 4-13 9 1 6 6 13 12 15 6 1 9-1 12-2 0-6-15-13-9-16 18 3 27 20 46 15 11-2 19-7 27-11 10-7 15-16 19-25 0-6 1-10-1-13-3-9-8-16-13-22-7-7-12-12-19-13"/><path fill="#E4DDD3" d="M361 223c7 16 24 27 38 33 31 11 58 23 90 24-43-17-50-13-97-35-9-5-18-13-27-21"/><path fill="#273F54" d="M256 400c-4 6 0 16 0 22 5 10 7 13 16 22 7 6 14 9 20 13 10-2 20-6 28-9 0-11 4-21 4-33-2 11-5 24-8 33-4-9-22-7-19-17-3 6-8 9-15 7-13-4-12-17-19-11-10-8-4-19-8-25"/><path fill="#5E95A2" d="M417 146c14 7 28 18 37 31 3 7 2 13 5 17-2 6-6 6-9 8-17 1-32 12-51 6-9-4-15-15-16-8-7-23-8-24-2-1 7 4 12 6 17 11 20 0 35 1 49-8 24 1 35 25 56 24-10 0-16-11-22-12-2-5-10-15-3-20-8-7-8 6-17-3-5-8-2-15-6-22-6-9-14-16-21-21-8-2-10 1-16-1"/><path fill="#893D32" d="M186 320c-2 3-4 6-7 6-20-3-38-2-56-1 5 10 19 17 30 20 14-3 24-13 31-23"/><path fill="#43798B" d="M556 192c-2 1-5 0-6 1 4 5 8 11 4 18-12 9-24-3-34 7-1 8 4 13 8 16-6 2-11 2-16 1 5 1 10 1 14 0 12-1 22-1 31-3-10-1-16 1-17-4 0-6 9-9 10-12 7 0 14-6 15 1 5-10-2-18-8-25"/><path fill="#2F5D75" d="M217 444c-13 5-26 7-39 11 1 5 4 9 1 13 10-4 13-15 23-17 2 4-1 6-3 7 4 2 5-1 9-1 1 7-2 4 3 12 17-8 46-21 5-26"/><path fill="#83B6C5" d="M284 362c13 0 12 17 20 20 2 5 2 8 0 11-8 1-7-5-8-8-4 2-5 6-10 6-6 0-9-4-10-8-6-8 1-16 6-19"/><path fill="#6D5C65" d="M42 304c-3 3-9 6-9 12 5 15 10 27 17 39-1-2-3-4-2-8 5-2 7 4 8 6-4-9-4-20-1-29-3-9-2-20-10-21"/><path fill="#8AC4CE" d="M452 211c-17 17-4 26 17 23 9-1 7-3 14-9-5-7-12-8-17-12-5-2-9 3-12-1"/><path d="M419 421c-13 9-26 19-40 24 15 1 32-1 46 3 7-9-1-17-4-24"/><path fill="#D4E9EE" d="M427 109c-14 1-27 3-38 8-16 5-27 15-38 25-7 11-14 20-16 31 7-13 14-26 27-36 2 4 10 3 11-1 2-4 1-5-2-6 21-5 24-18 53-17 23 4 99 1-4-5"/><path fill="#88BAC8" d="M285 363c-7 3-16 14-7 22 3 5 7 3 9 5 4-3 6-4 8-5 3 2 1 8 7 8 3-4 3-7 2-8-6-6-7-11-11-18-3-3-4-4-6-3"/><path fill="#8A4337" d="M90 267c4 18 11 35 23 50 7 4 10-3 15-4-13-11-31-34-36-44"/><path fill="#417E92" d="M47 181c-3 4-9-1-10 5-2 2-5 9-6 14 4-3 12 4 13 9 4 16 1 30 1 45 1-13 2-35 10-40-1-11-5-19-7-32"/><path fill="#437C8E" d="M309 341c7 11-2 13 11 20 7 2 12 2 17 4 7-3 9-7 12-11 2 5 2 7 1 8-1 4 0 5-1 6-4 6-9 9-13 11-2 4 4 4 6 1 7-8 11-17 14-25 1-8-2 7-4 9-1-8 2-15-1-20-3 5-10 12-19 10-10 0-15-12-20-12"/><path fill="#4C7F9E" d="M156 366c7-4 13 7 11 11-4 7-9 9-13 11-8 4-13 4-18-1 5-6 6-14 15-17l2-1v-2l2 1"/><path fill="#D8EFF1" d="M417 122c-3 1-8 0-10 2-19 9-25 16-2 4 12 9 32 14 43 30-3-8-10-12-15-19-1-4 6-4 0-8-3-3-6-4-10-3 1-8 17-1 7-5-5-1-8-2-12-1"/><path fill="#452729" d="M268 444c2 1 2 2 3 5-20-2-35-10-12 13 8 0 21 3 31 1-6-8-13-12-19-17"/><path fill="#4D7F8D" d="M475 196c2 6 3 13 5 16 8 4 15 15 26 14 1-13-6-1-2-17-8-1-16-11-25-14"/><path fill="#AA4C3B" d="M221 314c-8 6-16 12-29 20 2 5-4 9-2 13 9 0 15-2 20-7 6-9 10-17 13-25"/><path fill="#B24E3D" d="M285 400c-12 4-26 6-8 21 6 3 14 2 16-5 4-7 1-13-4-16"/><path fill="#834033" d="M86 228c-6 9-1 22 0 30 7 6 14 8 21 9-7-3 0-6-9-9-2-10-2-21-4-28-1-1-3-1-5-2"/><path fill="#7D5152" d="M228 404c-7 6-5 16-1 22 6 2 11 3 13 3 2-9 3-16 4-24-6 5-9-2-14-2"/><path fill="#B95B48" d="M92 203c-8 1-14 7-19 12-4 7-6 13-7 19 8 0 13-6 19-9 5-8 8-13 8-20"/><path fill="#7C5653" d="M377 250c3 9 19 14 29 16 28 8 54 16 82 18-38-5-73-21-108-32"/><path fill="#263C4C" d="M346 209c1 4-1 6-2 9-4 3-6 0-8 0 1 14 8 34 7 45 0-3 2-5 0-7 4 1 5-1 7 0 0-7-5-13-3-21 11 5 17 13 26 18-8-5-14-13-20-19-3-9-8-14-6-23"/><path fill="#1B3E53" d="M313 300c-18 11-36 21-55 30 2 1 6 0 6 3-1 3-2 4-2 6 18-9 42-27 53-38"/><path fill="#7A4440" d="M388 292c29 6 33 34 47 40 3-9-7-21-18-31-9-6-13-5-24-11"/><path fill="#376579" d="M560 215c-2 2-5 0-7 1-3 4-13 6-12 10 1 7 8 3 17 4-7 5-15 5-22 6 11 0 22-4 32-6 5-10-6-10-6-16"/><path fill="#45798B" d="M486 121c15 7 32 21 47 31-2-6-7-10-11-15 1-5 3-4 5-3 2-3 0-5-2-7-8 3-23-5-35-6"/><path fill="#912518" d="M414 152c3 10 9 17 16 26 3 6 1 11 0 15 4 1 7-8 9-2 2-8 1-17-3-23-11-18 1 14-21-20"/><path fill="#AA5646" d="M102 279c3 14 18 23 28 30 4 0 7-5 11-7-13-8-26-11-37-21"/><path fill="#447E92" d="M318 451c-7 6-34 6-12 18 9-3 18-7 30-9-1-2-12 1-18 0-5-4-4-5 0-7 22 6 27 1 49 10l2 1 1 1c5 0 3-5 7-6l2-1-1-1c-4-1-8-1-12-1 4 1 7 0 11 1-3 4-4 8-9 6-4-4-8-3-10-7-14-2-26 0-38-4"/><path fill="#602021" d="M267 407c-3 8 1 17 6 24 6 4 12 7 18 5 4-5 6-9 8-12-4-9-13 8-21-1-7-4-11-9-12-14"/><path fill="#4D7B8A" d="M340 169c-4 6-4 13-5 20 1-2 2-5 5-6s4 2 6 2c5 14-1 29 7 39 10 9 11 24 23 27-11-8-14-22-22-31-5-18-2-34-12-48"/><path fill="#1D2D36" d="M182 111c-6 7 18 5 24 6-11 1-20 2-28 4-11 2-20 5-27 9-6 2-9 3-12 5-13 9-26 18-34 30 9-11 20-22 33-28 13-8 25-13 37-16 15-3 28-2 39-1 39 15 38 15 7-6-12-1-23-3-35-3"/><path fill="#305A6E" d="M321 391c2 12 1 29-8 39-3 4-6 5-7 1-2-3-6-4-5-8 0 4-3 5-3 8 2 9 13 9 16 14 3-5 6-15 8-23 2-12 2-21-1-29"/><path fill="#CAAB9F" d="M334 462c-2 12 25 18 30 31 0-10-5-18-13-24-5-4-8-7-13-6"/><path fill="#8D8187" d="M445 282c-1 6-2 13-5 18 5 26 9 51 6 73 6-11 7-23 6-37 2 38-10-35-6-48"/><path fill="#893E32" d="M315 282c-7 9-16 10-25 12 0-1 5 7 1 12 10-1 37-18 28-24"/><path fill="#845353" d="M331 468c-3 4 0 10-2 14 10 5 27 8 37 14 4-3 1-5 2-7-1 0 2 8-3 5-13-8-23-17-33-25"/><path fill="#B75E4B" d="M95 231c3 8 1 17 4 24 8 6 3 13 15 9-5-11-10-25-17-33"/><path fill="#9CCBD7" d="M284 365c6-3 11 4 11 9-1 6-6 10-10 10-5-2-10-5-10-8 1-6 4-9 7-10"/><path fill="#CDADA2" d="M379 459c-4 2-5 5-4 10 14 3 25 6 36 11-10-6-17-17-27-21h-3"/><path fill="#C8EAEC" d="M479 170c3-1 9-1 12 0 4 4 5 8 6 11-5 6-11 7-15 3s-5-7-4-12"/><path fill="#3E7089" d="M95 358c3 0 5-1 8 1 2 5 7 9 7 13-3 4-7 4-10 3-6-5-18-12-6-17"/><path fill="#501B1E" d="M27 210c-2 11-3 17-2 29 0 6 4 10 7 12 8-6 8-14 11-20-4 5-11 4-14-1-5-6-4-13-2-17"/><path fill="#5A98A9" d="M474 118c22 8 33 28 55 34 8 7 11 16 20 18-7-5-11-11-15-18-17-11-35-23-49-31-3-2-5-4-9-3"/><path fill="#4D7C88" d="M383 144c-4 12-7 20-6 33-5-10 35-39 7-31"/><path fill="#1A2434" d="M214 443c-9 0 20-3 25 6 6 9-6 7 5 22 2 0 5-4 8-5 1-12 1-11-5-18-7-4-19-4-29-7"/><path fill="#B05647" d="M36 207c-7 2-10 6-8 14 3 4 8 3 12 8 0-8 4-20-2-23"/><path fill="#8F2F24" d="M407 152c-3 2-7 2-9 6-6-1-1-3-1-4-6 4-8 8-9 12-2 10-1 17 1 24s6 13 12 15c-5-3-11-14-11-23-3-12 9-16 7-22 5-5 11-6 13-4 2-3 3-5-2-5"/><path fill="#244659" d="M280 344c2-1 5 0 6-1 2 4 5 3 6 4-3 5-5 1-8 3 4 1 5 6 9 6-13 0-44-2-11-11"/><path fill="#A3CFDA" d="M286 366c-4 2-9 2-9 8-1 5 3 7 5 8 7 1 11-2 11-7s-1-9-6-10"/><path fill="#8D5755" d="M374 469c-1 4 0 7 1 11 3 0 5-1 7 0-2 1-3 1-4 1 13 0 25 1 37 3-13-7-27-8-40-13"/><path fill="#70ADBC" d="M129 109c-10 7-13 5-24 9-7 12-18 13-25 23 18-15 37-20 52-29"/><path fill="#CFEDEE" d="M480 170c-3 3-1 9 1 12 5 4 10 4 13 1 2-5 0-8-1-11-4-3-8-1-10-2"/><path fill="#86605F" d="M566 231c-16 9-39 3-55 12l36-3c9-2 19-2 22-8"/><path fill="#40738C" d="M97 359c-12 1-5 10 2 13 3 3 8 3 10 2 1-6-5-10-4-14-4 1-5-3-7 0"/><path fill="#A0736A" d="M539 260c-1 3-2 7-6 9-10 8-48 2-45 13 14 1 30-5 44-12l2 1 1-1c7-5 1-2 4-9"/><path fill="#2A3B4F" d="M332 463c-4 9-11 3-19 5-3 9-11 2-6 11 3 1 4-5 9-3s7 6 10 7c-2-6 2-13 4-17"/><path fill="#E2DCD4" d="M372 225c12 9 28 10 44 11 35 1 67 2 99 2-48-1-98-1-142-11"/><path fill="#4E7D89" d="M426 153c11 2 18 26 19 18 11 11 7 31 1 32 6-4 10-4 10-7-1-6 0-12-2-17-6-12-16-18-25-26"/><path fill="#1C283B" d="M480 445c9 0 25 18 24 19 4 0 5-2 9-1-1 1 6 1 8 1-2 0-5 2-7 0-4-6-4-13-8-13-7-4-17-2-25-6"/><path fill="#5C2621" d="M185 335c-6 3-12 5-17 8 5-9-10 6-14 3 5 5 3-2 12-2 2 9-2 1-4 5 5 2 11 3 18 2 2-2 3-7 3-9-3-3-3-1-6-2 2-2 4-3 6-4"/><path fill="#698FA2" d="M49 263c0 8-2 16 0 23 5 0 7-4 9-8-1-7 0-16-8-14"/><path fill="#243247" d="M25 275c2 12 4 25 7 37 2-3 6-9 8-8-2-6-1-12-2-16-4-1-1 4-5 6-2-7-7-11-7-18"/><path fill="#7B2E26" d="M314 318c-3 4-5 11-4 16 4 5 7 4 10 3 9-4 11-10 12-16-1 4-6 9-10 9-7-2-9-7-10-10"/><path fill="#AF5C4D" d="M327 269c-11 8-22 15-34 22 11 5 18-11 28-9 4-5 4-9 6-13"/><path fill="#6CA7CE" d="M181 359c-1 1-2 0-3 1-5 3-7 6-6 10 10 1 34-11 9-10"/><path fill="#447692" d="M157 368h-1c3-1 4 0 5 2 2 6 0 9-2 12-7 3-15 2-18-4 2 4-5 5-6 7 6 7 12 5 18 4 5-4 9-5 11-10 3-5 0-12-4-13"/><path fill="#8C5956" d="M206 468c-8 4-18 8-22 17 7-1 13-4 19-7 4-5 8-6 5-11"/><path fill="#283D50" d="M338 459c13 1 20 17 34 20-2-3 2-7 0-11 1 2-1 3-1 4-8-11-21-11-31-12"/><path fill="#5E1B16" d="M403 148c-5 2-8 4-10 8-3 4-5 6-6 8-2 9-2 17 0 23-2-10-2-21 4-30 6 3 3 0 20-8 1 6 3 5 4 11 0-4-1-6-2-8 19 20 14 7 21 10 7 12 8 21 5 28v3-3c2-5 2-12 1-17-1-4-3-4-3-6-4-5-8-9-12-13-5-4-8-5-12-6-4 0-6 0-9-1"/><path fill="#8A3C30" d="M275 310c-8 11-19 15-29 21-10 1-7-8-16-4-3 1-5 2-8 3 11-3 12 14 25 1 11-3 20-9 27-19"/><path fill="#832E32" d="M451 260c3 6 9 7 13 9 6 0 11 2 13-3-6-4-14-6-24-5"/><path fill="#845454" d="M305 473c-9 2-32 20-30 19 8-3 19-7 29-12 1-3 1-5 0-8"/><path fill="#BEA097" d="M293 467h-3c-5 7-9 13-12 21 2-13 37-14 18-24"/><path fill="#5C92B4" d="M154 368c0 7-5 15-12 7 5 8 9 8 13 9 6-3 10-16 1-16"/><path fill="#A18783" d="M514 447c-1 1-3 5-2 6 9 4 18 3 24 9-4-2-3-6-3-8-5 0-10-7-16-8"/><path fill="#5C2821" d="M282 303c-7 8-12 17-22 24 11-10 54-22 20-20"/><path fill="#214054" d="M285 344c-36 13-3 8 11 15-5-1-8-6-13-8 5-2 11-1 4-6-2-1-3-1-4-1"/><path fill="#14222F" d="M330 284c-19 17-44 30-67 42 17-7 35-20 52-28-17 19-36 33-56 42-2 3-3 4-4 5-3 9-4 16-5 24 1-8 3-15 5-22 21-17 42-26 59-46 7-5 11-10 15-15"/><path fill="#5A92B8" d="M196 360c-2 2-5-1-7 1 2 0 8-2 6 2-9 4-12 9-20 11 6 1 12-3 18-3 8-1 12-11 4-12"/><path fill="#BD5E4C" d="M339 188c-2 4-6 6-4 12 1 4 4 5 5 6 9-4 3-13 2-17"/><path fill="#CD6A53" d="M326 312c4 2 2 5-1 6-5 4-12 3-9-3-4 5-1 8 0 10 4 5 10 4 12 0 4-4 3-8 1-10"/><path fill="#70A9B4" d="M417 136c-26 12 22 6 27 20-7-6-14-14-24-16l-2-2-1 1v-1"/><path fill="#243043" d="M442 456c-14 12 26 4 32 7-9-7-20-2-30-6"/><path fill="#855655" d="M481 455c-1 3 1 7 1 10 9 2 16 2 23 5l1-1-1 1c-4-4-14-12-21-13"/><path fill="#65A6B6" d="M333 334c11 3-3 11-5 17-7-5 0-7-3-11 2-2 4-3 6-4"/><path fill="#B05444" d="M180 319c-11 2-23 3-34 5 10-1 21 0 30 2 7-1 15-10 5-7"/><path fill="#6297A3" d="M400 137c-6 1-14 4-17 7 9 3 19-5 29 1-2-2-5-1-6-4 14-4 7-3-5-5"/><path fill="#203950" d="M476 440c-10 22 13-5 36 13-1-3-2-6 1-7-14-9-5 7-38-5"/><path fill="#35687A" d="M324 297c-4 7-12 13-16 17 1-1 32-8 17-16"/><path fill="#F9976F" d="M396 194c1 5 5 10 10 11 9 0 17 2 23-3-5 1-11 1-17 0-7-1-10-4-15-6"/><path fill="#8C5956" d="M225 463c-1 2-2 5-1 9-1-2-1-3 0-4 2 6 10 9 14 12-2-7-5-14-11-18"/><path fill="#A3807A" d="M227 455c9 32 4-10 17 26-1-8-11 6-21-14 2 4 0 7 2 9 7 4 13 8 19 6v1l-2-1 1-1v-3c-2-4-1-9-4-12-2-5-3-8-7-6"/><path fill="#3D6B87" d="m160 390 2-2c3 1 6 2 9 4-4 10-20 7-11-1"/><path fill="#A98478" d="M402 237c37 4 75 4 112 5-35-2-74-3-110-5"/><path fill="#1B2532" d="M317 377c-1 4 6 12 7 21-1-3-1-5-2-7 6 0 7-6 9-8-5-1-8-4-12-5"/><path fill="#DB8D7C" d="M94 121c-10 4-18 11-27 17 11 0 18-8 24-16"/><path fill="#77AECD" d="M251 338c-4 1-11 7-8 13 8-1 11-7 10-13"/><path fill="#BAE0E4" d="M491 191c0-2 1-1 3-1 3 3 7 4 8 7-6 5-16-1-14-5"/><path fill="#0F0100" d="M413 155c-2 13-4 27-1 40 7-12-2-26 1-37"/><path fill="#835352" d="M511 454c1 2 2 5 3 7 8 2 15 2 22 2-7-6-16-5-23-8"/><path fill="#34434B" d="M444 183c2 2 1 5 3 7-5-4-6 12-14 12 4-7 12 4 15-4 3-5 2-12-2-13"/><path fill="#5F2923" d="M227 331c-3 3-7 6-11 9 4-7 2-6-1-2-6 2-7 8-12 9 7 0 3-4 11-8 4 1-1 3 3 5h-5l3 1 1-1c11-6 27-4 8-11"/><path fill="#76B4C1" d="M444 127c-2 5 10 12 15 16 0-7-9-14-14-14"/><path fill="#273744" d="M344 287c-15 6-8 3 2 1 10 5 19 11 27 15 5-7 11-5 14-9-6-1-11 6-18 3-9-1-15-5-22-8l-1-1h-1"/><path fill="#A58780" d="M490 450c-8 4-11 2 14 17-2-4-6-11-12-14-2-4-4-1-5-4"/><path fill="#3B5A69" d="M348 207c-2 10 2 17 5 25 8 8 13 17 21 21-10-5-13-19-22-26-1-8-5-12-4-18"/><path fill="#84382E" d="M193 334c-2 1-5 1-7 3 6-3-12 20 11 11 2-1 4-1 5-2 5-3 8-6 10-9-3 5-8 10-14 11-4 0-9 2-9-2 0-5 3-7 3-10"/><path fill="#5D9CAE" d="M165 103c0 9-14 3-16 7 2 2 30 0 19-7"/><path fill="#67A7B8" d="M333 336c-2 2-4 1-7 4 2 4-2 5-2 8 6-4 13-8 12-12"/><path fill="#4D8EA2" d="M318 452c-10 11 13 7 18 5-5-2-12 0-15-5"/><path fill="#26546F" d="M239 364c9-2 2 12-3 11-5-4 0-7 1-9"/><path fill="#58201E" d="M332 202c2 5 1 12 7 15 6-4 5-8 7-12-1 2-3 3-4 4-5-1-7-4-9-5"/><path fill="#34596D" d="M344 458c3 3 22 1 24 15 5-2 2-6 4-7-8-5-17-5-25-9"/><path fill="#8E3D33" d="M27 217c-1 5 0 8 2 11 3 4 6 7 9 4 4-6-11-5-12-12"/><path fill="#A27E79" d="M175 457c-26 15 16-7-21 20 9-4 14-4 19-6 5-6-6 2-9 0 3-7 17-6 13-15"/><path fill="#273F49" d="M235 120c6 14 12 8 25 25-5-11-13-19-24-24"/><path fill="#6C4343" d="M432 404c-12 8-22 16-30 25 11-7 21-15 29-25"/><path fill="#CCE2E9" d="M137 105c-11 2-21 5-30 10-8 2-12 5-14 11 12-12 31-18 47-22"/><path fill="#2B4052" d="M225 462c-5 1-13 4-15 7-1 1-1 3-1 5 3 0 4-3 7-4 4 0 4 3 7 4-3-3-1-10 0-11"/><path fill="#7B6C74" d="M48 348c2 8 7 14 11 21-3-7 0-16-9-22"/><path fill="#7AABB5" d="M457 171c2 6 1 11 3 17 7 8 9 3 13 3-7-2-14-9-15-18"/><path fill="#C1ACA2" d="M197 461c-1 3-3 2-4 5-7 6-7 12-11 17 1-9 23-19 19-22"/><path fill="#9DCBD2" d="M359 151c2-1 6-1 8 0 0 4-1 6-2 8-5 1-10-3-7-6"/><path fill="#A1CED8" d="M551 176c4 12 16 25 20 32-14-17-2-13-19-33"/><path fill="#406E89" d="M162 389c-8 9 1 12 8 5-2-3-5-3-7-5"/><path fill="#BEE2E5" d="M492 191c-9 3 4 10 7 8 1-4-3-8-5-9"/><path fill="#683028" d="M289 296c-3 2-4 4-6 7 1 5 8-1 8 6h-5l3 1 3-2c0 2 0-11-3-11"/><path fill="#30465B" d="M273 444c8 1 15 9 22 12-6 2-13-6-20-9"/><path fill="#3A6D83" d="M74 316c5 0 6 9 4 11-5-2-8-5-6-9"/><path fill="#244158" d="M200 453c-8 4-12 12-18 17 6-5 19-12 21-18"/><path fill="#7A3129" d="M341 267c-3 6-11 10-8 19 8-4 6-12 7-18"/><path fill="#D09589" d="M144 105c-4 1-8 1-11 6 3 2 20-3 13-7"/><path fill="#DF8F7B" d="M320 312c-10 8 4 10 7 3-2-3-4-2-5-3"/><path fill="#A07B75" d="m197 462-3 1c-7 7 7-9 10 0-7 3-12 9-16 14 4-7 31-10 11-17"/><path fill="#A8CFD6" d="M406 130c-9 2-18 5-20 10 4-10 37-1 17-8"/><path fill="#A1CED7" d="M384 123c-4 1-7 2-10 5 2 2 2 5 1 9-3 4-11 5-12 1-7 5-12 10-16 16 3-5 8-9 13-12 5-2 10 0 13-2 3-8 1-13 11-15"/><path fill="#386274" d="M530 134c-15-5 0 13 2 11 0-4-1-7-3-10"/><path fill="#5491A2" d="M358 457c3 2 7 1 8 5 6 2 7-1 9-4-5 0-10-1-14-2"/><path fill="#2A5974" d="M241 365c-4 1-7 5-8 8 7 1 11-4 9-8"/><path fill="#1C0807" d="M376 229c3 5 7 7 12 9 15 2 39 4 60 4-24-1-49-2-70-11"/><path fill="#813029" d="M295 405c4 6-1 15-7 18-5 0-8-1-10-2-6-4-11-8-11-13 1 5 4 10 9 12 15 5 29 3 19-13"/><path fill="#3F5F69" d="M442 170c0 10 7 15 9 23-2 14-11 6-16 9 5-1 14 3 16-7 0-9-7-25-8-22"/><path fill="#98C6D3" d="M453 114c23 13 14-8 49 9-16-9-31-8-48-9"/><path fill="#A17B77" d="M207 474c-5 8-22 14-27 10 5 5 11 1 19-1 3-2 8-3 9-8"/><path fill="#3E6370" d="M391 154c-10 5-6 20-12 26-1 5 2 7 4 10 1-2-4-26 6-34"/><path fill="#284F6B" d="M492 441c-25 3 8 2 13 5-4-3-8-4-13-5"/><path fill="#7F5856" d="M525 446c5 5 12 8 20 6-7-1-12-5-18-6"/><path fill="#263A50" d="M468 392c-6 2 5 28-7 43 7-12 8-28 7-44"/><path fill="#77ABB9" d="M67 144c-8 7-17 15-18 17 7-4 17-11 21-18"/><path fill="#698CA7" d="M256 333c-4 0-6 3-8 6 1 0 3-3 4-3 2 3 3 6 2 8 2-4 6-8 4-12"/><path fill="#161D27" d="M240 337c-20 7-42 15-66 15 24 1 45-7 66-14"/><path fill="#A47770" d="M331 467c9 8 22 17 32 24-9-9-19-16-30-22"/><path fill="#1E2635" d="M55 313c-1 20-2 39 8 55 4 11 14 19 23 21-9-2-18-10-23-18-12-21-6-42-7-55"/><path fill="#F7F0EC" d="M404 158c0 2-3 3-3 4 5 6 13-3 5-4"/><path fill="#22506E" d="M217 368c0-1 5-1 5 1-3 7-10 4-8-1"/><path fill="#848283" d="M370 243c8 9 19 12 30 14-9-4-19-8-28-12"/><path fill="#1E2A3F" d="M428 429c4 1 7 11 4 16 0-5-1-9-4-13"/><path fill="#487683" d="M378 184c3 9 5 19 9 11-3-9-4-4-8-8"/><path fill="#3D7086" d="M76 317c-5 2-4 7 0 9 3-3 1-4 1-8"/><path fill="#AF7D6E" d="M277 281c-7 5-15 11-23 18 11-5 22-17 27-19"/><path fill="#47788B" d="M54 259c-1 4-5 1-8 3h7c5 4 5 6 6 9 0 9-5 15-10 18 7-1 7-6 10-9 0-4 0-5 1-6l-4-12"/><path fill="#0C0809" d="M361 245c5 7 11 13 18 16 16 6 31 8 44 13-12-4-25-7-36-12-10-4-18-9-25-14"/><path fill="#8E5D5A" d="M178 463c-5 2-9 4-14 6 5-1 14 0 14-4"/><path fill="#1B1B24" d="M276 449c4 3 11 7 15 11 0 6-3 6-5 9 5-3 8-10 14-12-3-1-4 2-6 3-9-6-12-7-17-11"/><path fill="#C0A9A1" d="M232 463c2 5 6 10 9 15-2-4-1-12-7-14"/><path fill="#A9D6DE" d="M495 133c-4 4 4 7 7 5 0-3-2-5-4-5"/><path fill="#9A7674" d="M304 480c-11 11-33 11-28 13 16-4 11-2 29-11"/><path fill="#D59281" d="M276 398c-13 4 4 9 6 1-2-1-3-1-4 0"/><path fill="#376C84" d="M124 356c7-2 5 8-1 6-4-2-2-4 0-4"/></svg>