<svg xmlns="http://www.w3.org/2000/svg" width="600" height="600"><path fill="#6B7674" d="M387 89c2-2 5 0 7-1 24 7 41 22 59 34-3-11-12-19-15-29 23 4 33 29 55 26 8 17 16 30 29 41 5-3 2-10 7-12 6 8 8 14 10 21 12-47 16 16 8 27 1 19 23 21 21 36-2 7-8 14-9 14-8 1-10 9-16 9-1-7-5-1-8-3-2-4 0-6-1-9-3 3-6 4-9 5-2-5-1-9 0-12-4-1-6 1-8 1-4-8 1-4 3-5-6 1-2-11-9-5 1 13 8 18 5 28 2 4 6 0 8 1 2 9-8 11-7 19-6 2-11 5-16 3-1-9-12-20-14-24-3-9-11-10-21-10 9-5 0-8 7-14-10 0-18 2-26 2-3-6 5-5 4-8-6-1-11-1-16-2-10 3-20 7-23 17 1 8 2 14 5 20 5 9 1-3 8 0 6 17 14 33 26 43-1 16 1 23 0 37 5 6 10 12 11 18-6 5-12 7-17 8-1 7-2 13-5 19 4 4 6 9 8 12 2-3 3-9 7-5 5 12 5 24 9 34 1 0 3-4 6 0 2 9 7 14 8 21 6 7 12 11 18 16 0-6 5-7 7-11 8 0 17 11 22 3 11 7 19 12 28 17 4 5 7 9 8 13-9-9-18 0-28-2 1 3 2 6 2 9-6 1-7-4-10-5-19 1-32-4-49 0-2 4-1 9-5 11-2-12-15-14-21-21-6-10 5-16-3-24-7-2-14-4-21-5-4-6-5-12-8-16-11-9-23-10-31-18-4 1-8 1-10 4-1 7-3 13-5 19-4 7-8 11-13 15 5 5 15 5 19-1 18 12 18 5 29 16 1 6 0 9 1 13-7 0-6-5-11-6-4 3-10 1-14 2 7 10 18 16 22 27-9 1-15-7-22-1-1 3 0 6-1 9-5-2-7-4-10-7-13 5-21-6-33-3-1 2 1 5-1 7-11-11-26 0-38-8-9-15 7-28-8-40-7-3-15-5-22-9-2-4-2-7-1-9-4-3-7-4-9-5-11 8-20 17-30 22 4 4 7 6 9 7 4-2 4-5 8-6 10 11 26 6 32 18-11-2-3 17-13 17-8 0 2-7-3-8-10 1-12 10-21 4 0 5 4 11-2 14-5-12-17-1-23-11-6-1-11-1-11 5-7-9-13-1-20-6-5-3-9-9-4-14-28 6-23 7-56 8-2-2-28-6-30-10-15-5-26-11-36-21-5-11-10-10-19-26-5-11-8-20-10-30-2-18-2-33 0-48 2-30 15-53 25-77-5-1-14 6-16 0 10-14 20-27 31-37-5-3-11 4-16-1 18-17 35-28 50-42-5-2-9 0-13 0-3-3 0-4 0-6 24-15 46-27 72-33-8-6-21-4-28-7 19-6 39-5 55-1 5-5 9-10 12-14 5-4 10-2 12 1 5 11 1 23 10 29-4 9-4 18-8 26 0 12 2 22 3 32 5 27 12 50 21 73 3 6 7 8 10 11-1-11-2-21-3-32 8-4 11 6 15 10 8-29 21-56 36-82 9-9 18-1 19 2-4-15-17-23-24-34 13-1 24 0 35 2-4-8-11-15-14-23 14 0 25 2 35 6-9-11-22-15-34-22 11-5 25-5 39-4-9-6-21-7-28-14 15 1 29 0 42 4-4-4-8-10-14-14-1-5 3-4 4-5 19 5 34 11 49 16-3-9-13-17-19-22"/><path fill="#A17431" d="M182 229c-5 13-23 21-24 37-3-4 1-13-3-12-3 23-1 48-6 70-15-5-26 4-39 0-1-14-5 3-9-10-6 1-20-2-34-6-2 9 5 21 1 31 10-14 22-17 31-21 2 7 5 21 3 24 12-1 20-13 30-18 7-1 10 4 15 2 5-18 9-25 7-46 4 1 2 5 3 7 0-11 6-24 13-30-3 22-6 44-5 69 2 5 4 7 6 10 4-3 9-6 13-10 8-1 12 5 14 8 1-6 4-12 2-19 5-3 4 5 6 7-2-11 12-13 15-22-10-41-13-49-35-70"/><path fill="#B58820" d="M123 227c-23 25-40 52-54 80 15 6 26 6 30 7 5 12 11-5 9 11 14 2 23-6 36-2 4 1 6-4 6-6 1-29 4-55 4-80-6 4-9 10-12 16-3-6 3-24-3-18-11 10-17 20-26 29 4-11 10-23 12-37"/><path fill="#6F6277" d="M171 258c-6 3-10 15-13 22-3 20-1 39-2 56 0-10-3-20-3-30-1 5 0 12-3 17-5 8-10 1-15 1-12 5-20 17-30 19-4 5-4 9-3 15-2-15 1-27-2-41-11 5-22 11-32 27 0-10 1-19-2-27-6 15-12 31-10 49 5 1 13-3 13 2 7-5 9-9 12-10 8 9 20 26 25 30 1-5 2-10 4-14-1-1 15-24 21-25 1 2 6-2 9-2 11 9 24 31 23 30 1-12 10-24 12-27 4 5 10-2 18 16-2-9-1-22-1-33 10 7 13 20 19 23-5-13-5-28-8-42 0 8-3 14-2 22-6-4-9-10-15-10-6 4-10 8-13 13-5-5-7-8-9-11-1-26 2-48 7-69"/><path fill="#143357" d="M440 353c-2 9-7 17-13 27-71 38-13 39 23 64 0 5-4 4-5 5 16 4-4 22 10 29 9 3-4-1-2-4 10-1 9-11 15-18-6 8 0 23-2 29-6-4-6-4-3-1 5 3 3-3 7-4 12 9 29-4 43 6l3-1 1-1c4-1 5-4 4-8 5-2 6 1 8 2-4-4-8-10-13-12 10-3 15 1 19 5 4 3 5 4 7 7-4 1-7 2-9 0 5 2 10 2 14 0 0-12-10-13-16-19-9 2-17 0-25-7-1 4-7 3-7 7 0-1 2-4 3-4 6 11 12 19 13 29-13-1-22-8-33-10-2-14 15-1 17-9-8-5-17-11-24-17-1-3-8-11-9-14-1-4 0-5 1-6 3 3 4 7 6 11-2-4-3-8-5-12-2 1-5 8-7 1-2-12-4-24-7-35-3 1-2 4-4 6-4-4-7-9-11-12 4-15 3-23 2-33"/><path fill="#133256" d="M229 360c-2 6-6 11-8 17 7-4 6-12 11-17 7 13 7 29 3 41-12-2-20 7-26 16-2-7-3-13-5-18-2-2-3 1-4 1 1 16 7 33-1 47-2 5-2 8-4 10-6 1-12-3-8-6-1 2-3-2-4 2 2 1 11 6 11 9-4 9 2 10-1 20-5 1-8 10-11 3 1-5 4-9 6-13-2 3-4 6-5 9l-1 2v1l-1 2c3 1 4 4 6 5 12 4 4-6 10-7 4 3 6 4 7 6 12-4 17 10 28 5-12 9-15-16-27-11-4-6 7-10 7-6 2-2 1-7 2-10 14 6 22 19 24 18 8-7 14 5 22-3 2-3 2-9 1-13-5-4-9-5-12-8-7 0-3 5-5 6-8-3-15-5-18-11 0-11 16-16 18-27 10-10 5-29 10-32 2-2-4 0-4-4 6-3 6-8 9-10 0-3-4 4-8-1-8-8-11-19-20-24"/><path d="M136 349c-9 4-15 10-20 18 3 13 7 32 9 38 8 0 10-3 13-6 5 1 3 5 2 6 7 0 12-2 17-5-4 11-10 16-18 22-6 5-4 7-3 12 11 1 20-9 29-12 0-4-3-5-1-8 8-5 13-11 20-15-4-4-10-6-15-10 6-9 14-14 23-17-7-35-29-12-25 11-9-13-15-24-27-33l-1-1h-1"/><path fill="#5A432F" d="M168 425c6 3-8 17-14 20 1 0 3 1 5 2-1 5-2 8-3 10-4 4-7 5-12 4h-1l-3-3c-1-2-4-6-6-8l6 9c2 4-1 5-3 4-21 5-32-6-40-4-18-7-35-17-49-24 3 8 17 24 26 28 16 10 25 13 40 17 24 4 24 6 44 1 5 2 56-14 20-20 1-10 13-12 10-21-6-5-11-9-17-13"/><path fill="#49C0E9" d="M370 175c-1 7-10 5-10 8 7 9 13 16 13 25-5 4-9 12-14 10-6-7-4-14-4-22-3 3-4 7-7 10-5 5-9-1-13 1-4 3-4 7-5 10 6 5 5 6 9 7 2 8 5 12 6 17-5 10-16 8-20 3-3 6-3 11-3 13 17-1 18 5 35 2 4-11 4-23 11-32 6-10 12-17 20-23 20-12 44-2 62-4-3-9-6-19-17-20-1 3-1 6-3 7-6 1-8-1-12 0-6-2-5-8-7-10-7 1-13-1-19-2-4-2 9 10-3 19-7-10-15-5-19-18"/><path fill="#F7823C" d="M192 165c-9 0-16 5-24 8-9 7-18 13-22 22-6 1-7-4-11-4-15 13-29 23-16 39 15-18 32-32 49-43 14-7 26-3 35 2-1 32 11 64 18 94 4 10 6 17 9 25 5 4 8-9 11-3-8-22-16-44-21-66-5-21-6-41-10-59-3-8-10-5-11-15-4-1-5-1-6-1"/><path fill="#D62F0A" d="M183 186c-13 3-22 8-33 16-9 8-17 15-23 22-3 14-8 26-14 38 9-9 19-24 26-31 7 2 1 15 2 20 4-6 7-11 11-16 3 4 2 10 3 14 5-13 18-7 28-31 7 4 12 10 15 10 1-15 5-35-11-40-3 2-4 4-5 7-2-4 1-6 3-9"/><path fill="#B28722" d="M183 237c16-3 14 18 16 27 0 20 2 39 0 57-8 4-22 6-27 8-4-1-6-1-6-4-2-20 1-37 4-53 2-12 5-21 9-30l2-1 1-1"/><path fill="#B48920" d="M185 238c-2 0-3 1-4 2-5 11-8 20-10 29-3 19-6 36-5 55 1 4 3 3 5 4 4 1 18-6 26-4 3-21 1-40 2-57-3-12-1-27-12-30"/><path fill="#26638E" d="M283 378c6 24 31 72 36 98-5-1-10-7-16-4-2 3 0 8-1 13 1-5-1-11 4-13 7 3 17 9 17 16 1-5 6-6 6-14 9 7 2 15 7 22 13-2 20 8 29 6 6-4 4-9 7-12 4 3 6 9 13 7-1-4 2-7 4-9-6-7-11-13-16-17-15 9 0 15-5 26-12 4-19-5-28-5-3-6-5-9-5-13 7-1 14 8 16 2-9-5-16-12-19-20-10-15-13-31-16-47-6-13-20-18-22-31-3-3-5 0-6-3"/><path fill="#102C4E" d="M375 419c-54 10-62 25-37 45 1 7 4 10 11 13-2-1-3-2-5-2 7-3 11 2 12-4 4 4 8 7 8 8 1-3 3-8 6-9 6 2 9 7 13 9-2-1-3-2-4-3 5-5 11-1 15-7-2-4 2-6 1-9-7-1-11-4-15-7-8 11-21 0-29 0 6-3 10-6 14-12 5-9 8-12 9-23"/><path fill="#16385E" d="M313 334c1 3 3 7 4 10 1 6 1 9-3 10-7-1-10-7-17-9 0 4 6 4 8 8-8 8-13 17-17 25 9 14 23 26 30 37-3-10 4-22-2-30 10-8 64-57 28-40-4 1-3-3-4-6-10 0-15 4-21 7-2-5-2-9-4-12"/><path fill="#3099CC" d="M296 348c-2 6-8 10-9 13-21-24-13 30-21 38 15 20 24 36 37 51 1 8 2 14 0 20 5-1 9 2 12 4-7-32-20-62-33-91 9-5 11-23 22-29-3-3-4-4-6-4"/><path fill="#892825" d="M112 214c-3 10-8 20-13 30-8 9-19 8-24 19-4 4-3 7-5 10-2 12-4 23-6 34-5 7-12 6-15 13-4 5-5 13-7 21 11 14 7 55 23 72 8 16 21 20 31 27-6-11-29-23-31-41-7-17-13-31-11-50 3-20 9-37 17-53 1-6 0-14-2-21 5-7 10-12 13-18 6 2 7 5 9 8 6-9 12-18 22-30 4-6 1-14-1-19"/><path fill="#3499C8" d="M452 125c-2 3-4 3-5 1 0 2 8 5 6 9-11 17-23 5-35 22-7-3-12-6-17-10s-7 3-10 5c3 8 23 6 32 12-1 7-6 1-3 4 3 4 7 2 10 4 1 6-1 8-1 11-5 2-10 4-14 1 5 2 9 2 12 3 5-2 3-11 8-7 4 3 13 3 13 10-1-7-10-12-15-17 14-2 24 1 32 4-2-17-9-25-12-31 1-6 4-5 4-2-2-6 4-17-4-17"/><path fill="#45C8F4" d="M473 181c8 13-17 17 2 27 0-3-2-7 0-9 3-5 8-5 10-3 17 10 29 25 42 36 5-4 7-10 13-13 8 5 15 11 23 8-10 5-17-16-27-8 0-2 2-4 4-5 8 3 13 9 19 10 0-3-1-5-4-6-18-9-33-23-54-19-10-6-15-18-26-17"/><path fill="#5C3D2A" d="M438 356c-1 1-2 0-3 1-6 1-11 0-13 4 2-3 6-3 11-4 1 2 0 3 0 5-15 9-28 20-38 33l-2 1-1 1h-4c-3-3-7 1-12-1 0 2 9 2 12 1 3 3 1 3-1 4-7 3-13 5-19 6-1-4-3-7-4-9 2 5-5 6-7 6-5 0-6-3-6-4 1 6-1 11-8 11-8-7-13-25-14-36-4 14-8 3-8 8-3 4-1 4-2 5 1 7 1 11 1 16v-13c2-6 5-8 8-10 3 11 9 20 9 30-6 2-16 7-18 1 0 7 1 13 3 20 24-5 48-16 64-22 14-5 17-39 52-48-4-2-2-7 0-5"/><path fill="#2C8EC2" d="M231 363c-2 7-5 15-13 19-5-2-6-7-7-8-5 1-6 5-9 6-5-5-6-3-9-5-2 8-3 14-4 19 8-9 7 6 14 2 5 6 4 12 6 17 5-11 18-11 25-13 3-14 4-26-1-36"/><path fill="#5DAFCF" d="M361 291c0 3 0 6 1 9-9 1-15-2-20 1 0 7-4 14-4 14-4 3-3-4-5-3-18 8-29 7-33 15 4-3 11 0 14 3 7 3 3 8 5 13 7-3 13-6 20-7 4 3 3 10 5 10 7-19 17-13 19-21-5-9-9-5-20-11-2-3-3-6-1-11 4-5 13-1 18-2 1-3 1-5 1-8"/><path fill="#FBF3A9" d="M371 314c-7 6-7 20-3 28 10 4 20 5 26 13 3-5 14-7 12-11-6-19-25-19-33-30"/><path fill="#9F311C" d="M430 312c-3 8-4 16-6 27-6-8-9-16-15-23-10-4-22 0-29 2 6-2 17-6 27-3 7 8 11 16 13 24-1 8 0 14-4 18l-2-1-2-1 1-1-1-3c-2-6-6-12-10-17l-1-2-2-2c-3-5-8-8-13-10 5 3 10 7 14 12 5 7 9 13 11 19 1 10-10 4-13 9-8-9-18-14-28-12 1 4 3 7 4 8 0-3-3-4-3-6 6-2 10-1 13 0 6 4 11 8 13 13 2 9 3 16 2 24-3 3-4 6-6 7-7-6-5-17-11-23 3 7 5 15 4 24 7 1 10-4 14-6 11-13 24-22 34-30-5 0-10 0-12 3-1-3-2-5-4-7 4-16 13-20 20-33 2-6-2-10-7-10"/><path fill="#CF4531" d="M43 335c-5 7-1 11-8 9 0 13-1 25 0 36 8 13 14 26 27 39 13 5 19 22 34 21-11-6-24-11-32-24-15-22-14-66-24-77"/><path fill="#3EB2DE" d="M360 281c-9 4-19 0-31 2-4 7 2 14 1 20-7 4-15 6-22 9-3 3 0 5-2 8 9-2 16-9 24-10 6 0 5 7 6 5 5-4 2-10 4-15 8-4 14 0 19-1 1-6 2-12 1-18"/><path fill="#816F46" d="M352 352c-5 10-18 12-21 22 0 15 6 25 8 36 4 2 6-1 9-2 9-18-3-42 5-53"/><path fill="#2C8DC1" d="M266 347c-44-2-41 9-13 34 0 0 1 2 3 1-1-7-6-13-4-20 7 2 11 5 15 9 2-8 3-15 5-21-4-3-6-5-8-5"/><path fill="#993421" d="M181 185c-10 2-1 0 4-1-3 6-5 11-7 16 2-5 5-9 8-13 6 2 15 11 13 8-1 10 3 19 2 27 0 5-1 6-4 7-4-3-8-6-11-8-8 6-19 25-25 20-9 9-3 12-3 22 4-13 17-22 24-34 15 6 16 18 25 24 4-2-2-7 0-11 2 3 3 6 4 8 6 27 12 51 22 73-9-23-16-47-22-70-3-22-11-43-8-63-6 5-11-12-16-3-3-3-4-3-5-3"/><path d="M81 361c-5 2-8 5-11 10-1 3 3 0 5 1-2 8-4 15-6 22 1 11-1 11 3 16-4-3-1-8 1-12 5 4 7 9 10 13-1-6-5-10-6-15 8 2 16 12 22 9-7-2-11-12-14-18 8-1 14 1 17 7 5 0 5-4 6-5 2 12-18-16-25-27"/><path fill="#892623" d="M290 225c-13 19-16 42-24 62 8 10 1 21 10 25-3-22 10-25 2-49 2-1 3-2 6-1 4-10 7-20 11-30-3 2-3-5-4-6"/><path fill="#FCF5AD" d="M366 283c-5 8-1 20 5 26 11 12 21-1 33 4 1-7-3-11-7-14-9-9-26 0-29-14"/><path fill="#1B3C5B" d="M139 401c-3 4-15 6-8 14-6-1-12 5-13-2 2 6-2 10-7 10 4-1 7-3 11-4-6 9-22 25-27 17 14 6 24-1 36 2 5-7-2-10 5-17 16-8 29-26 1-10 0-5 2-6 3-8"/><path fill="#1F507E" d="M207 133c-8 5-11 15-13 17-5-7-13 11-26 4 9 2 19 2 25 1 1 7 11 11 12 17 16-10 12-28 5-39"/><path fill="#3CA2C8" d="m339 161 5 5c-1 12-11 4-2 12 6-1 6 1 14 2 0 7-1 15-7 23-2 5-6 6-8 3 2 2 6 2 7-2 3-4 4-6 6-8 0 11 3 20 7 21 5-1 9-8 11-12-1-5-4-6-4-8-3 2-7 5-10 7-3-8 1-13-2-17 5 0 8 2 10 6-1-4-5-6-8-8 2-7 13-3 10-9 2 2 3 1 5 2 1-4-1 0-2-5-4-6-18-7-23-4l-2 1v-1l-2-3-3-3"/><path fill="#513D2E" d="M253 411c-1 17-14 32-28 42 14 1 28-18 31-19 28 14 20-2-4-23"/><path fill="#1C456F" d="M312 198c-3 3-7 0-12 2-5 11-11 19-6 30 8 0 15-9 22-5 5-13-10-12 0-26"/><path fill="#FBF5AF" d="M365 250c-4 5-4 12-4 16 3 7 5 13 11 15 9-5 20 0 28-5-6-10-16-9-26-10-4-5-6-9-8-13"/><path fill="#FBF7B5" d="M375 224c-7 2-9 9-10 14 3 9 4 14 7 20 8-2 16-3 24-2-2-18-28-10-19-31"/><path fill="#1C4772" d="M299 200c27-6 4 14 18 17-8 10-15 10-21 12-6-7-2-15 1-20 1-4 2-5 3-6"/><path fill="#E2482E" d="M224 291c1 23 20 32 24 53 6 1 10 0 14-2-10-9-15-30-22-38-4 1-3 4-6 7-7-5-8-12-10-17"/><path fill="#C7F9FA" d="M480 120c1 17 7 33 17 47 0-7 6-10 4-17-5-9-7-18-10-27-3-2-7-1-9-2"/><path fill="#D8F5F7" d="M348 151c11 7 23 10 33 17 10-11 19 8 33-2-25-2-38-13-64-16"/><path fill="#FBF8B7" d="M388 210c-4 1-9 3-9 8 0 7-1 13 1 18 8 3 16 9 19 17 4-4 4-8 3-13-8-2-4-14-14-17 0-6-1-10 1-12"/><path fill="#98CEDB" d="M326 312c2-1 3 1 4-1 7 7 7 14 8 21-6 3-10 3-16 3-18-8-8-18 3-22"/><path fill="#F5EA9C" d="M366 344c1 22-17 12-13 28 9 6 19 4 26-1-1-9-8-15-12-23"/><path fill="#307697" d="M149 170c-12 12-29 18-42 23 2 1 3 0 4-1 2 8 1 13-1 18-2 19-23 30-21 37 14-6 15-22 22-34 1-4 0-7 2-8 8-2 17-15 24-20 6-5 10 2 14-1l2-1-2 1c-3 2-6-2-7-3 1-9 5-8 8-11"/><path fill="#153250" d="M426 274c5 10 9 19 13 29 3 22 6 43 7 61 5-3 10-3 13-5-8-21-8-10-15-18 3-28-2-4 7-36-8 1-16-24-23-29"/><path fill="#C4F8FA" d="M281 265c5 9 15 14 23 20 7 0 12-2 16-2 2-7-5-8-10-11-9-5-18-6-26-8"/><path fill="#FBF8B9" d="M400 201c-3 0-9 2-7 7-8 13 6 16 7 26 8-8 10-31 3-34"/><path fill="#F47A3A" d="M398 316c-20 1-7 4 2 10 7 10 12 18 15 27 5-11 1-23-4-32-4-5-8-6-13-5"/><path fill="#C4F8FA" d="M368 105c-1 12 14 18 20 26 6 6 11 2 15 2-8-13-20-23-32-27"/><path fill="#F57C3E" d="M308 228c-4 1-8 3-11 6-6 10-8 19-11 28 4 0 6 2 8 2 1-15 22-32 18-37"/><path fill="#F58E45" d="M386 281c-28 8 4 9 10 11 7 7 12 12 12 19 3-1 5-3 6-5 0-11-9-17-15-23-6-2-10-1-13-2"/><path fill="#D7C990" d="M106 446c-5 0 4 5 5 9-1 3-3 3-4 4 9 4 22 5 33 2-3-5-6-11-13-13-6-3-14 0-18-3"/><path fill="#266B8D" d="M548 155c-2 6-1 14-5 20-6 5-5 9-10 13-3-4-9-4-8-9 5 12-10 6-6 17 7 2 15 0 20 4 6-17 13-28 9-44"/><path fill="#1B4975" d="m302 202-2 1c-3 8-8 16-6 25 8-2 14-2 18-8-12-8 13-19-8-20"/><path fill="#85EFF6" d="M500 144c2 4 3 7 2 12-4 3 0 13-6 11 10 2 20 20 25 21 1-8 2-14-2-18-8-8-14-16-18-24"/><path fill="#255D7C" d="M184 402c-6 6-11 6-18 14 5 10 14 14 20 20-1-19 4-20-2-33"/><path fill="#276897" d="M468 127c1 3 5 4 6 11-5 9-13 6-15 5 15 7 24 22 32 20-4-8-9-19-13-35-3-3-6-1-8-2"/><path fill="#91835B" d="M440 325c-7 5-11 13-15 20-2 5-8 10-4 14 6-3 10-4 15-4 5-10 5-20 4-30"/><path fill="#276A99" d="M215 468c-1 4 0 8-2 11-22 0 6 5 8 14 5 2 7 2 8 1 4-3 1-7 5-9-6-7-11-12-17-15"/><path fill="#7A6A4D" d="M436 360c-8 10-34 21-40 38 9 3 19-9 26-15 6-9 11-15 13-23"/><path fill="#DCCE94" d="M47 404c-1 3-2 6-2 9-14-10-1 14 1 19 6 1 10 1 14 0-1-11-5-19-10-27"/><path fill="#76643F" d="M328 382c-3 2-5 4-6 7 0 9-4 17-2 23 6 2 10 1 14 0 2-11-4-19-5-30"/><path fill="#745A69" d="M221 301c-2 9-17 11-14 23 2 1 5 4 6 5 1-3 1-7 3-10 5 5 8 9 10 14 9-10-2-20-3-30"/><path fill="#89F1F7" d="M110 195c-4 2-8 6-12 8 2-1 5-2 4 2-2 5-3 9-5 13-5 2-7 3-10 4 0-4 1-7 2-10-8 5-15 10-22 15 12-2 18-2 24-1 3-4 6-9 11-7 2 14-15 17-11 18 13-11 19-26 21-42"/><path fill="#CD3D33" d="M168 428c-7 3-13 8-20 9-17 3-33 4-48 6 11 0 25 0 35 6 7-4 13-5 18-6 7-5 11-9 14-15"/><path fill="#72EDF6" d="M169 158c-8 1-16 3-23 5 1 5 8 7 12 3-3 6-8 9-12 12 6-2 44-18 26-21"/><path fill="#1F527C" d="M496 132c4 25 31 33 34 52 5-3 6-5 6-7 0-11-4-20-8-24-3 6 2 10-4 15-8-11-24-27-27-33"/><path fill="#D8F6F9" d="M455 144c4 11 10 22 19 30 5-4 8-6 9-10-9-8-17-15-25-20"/><path fill="#256281" d="M252 273c-2 12 2 20 4 33 6 5 6-5 12 0-1-13-8-22-15-31"/><path fill="#D8CB93" d="M61 423c1 3 3 6 3 9-5 2-6 4-10 3 10 6 19 11 28 16-1-12-9-22-19-27"/><path fill="#4B191B" d="M478 201c-2 10 1 17 5 24 1 1-4-6-2-8 7-1 10 1 14 3 11 10 12 25 18 34-4-11-13-29-15-45-8-2-10-8-18-7"/><path fill="#296886" d="M199 401c-2 4-4 8-7 12-3 12 3-9 8 3-2 16-7 30-14 38-1 3-2 0-1-2-1 1-4 2-4 3 0 8 2-7 10 5 3 3-1 3-3 2l-3-1h-2l3 1h1c3 1 7 0 5-4 6-2 8-14 10-22 1-9-1-13-2-18 0-7 1-12-1-16"/><path fill="#7CE3EC" d="M356 473c-2 4-3 8-7 11-7-6-16-3-7 6 9-1 13 10 21 7-1-9-1-17-5-22"/><path fill="#2C8BC0" d="M502 457c-2 3-1 7-3 10-36-2 4 13 13 17 0-12-7-18-9-26"/><path fill="#D34423" d="M415 356c7 6-6 19-10 25-4-6-4-13-7-18 4-5 9-6 15-5"/><path fill="#1B3F64" d="M499 207c15 16 31 31 47 37 2-1 5 4 11 1 4-3 7-11 9-17-13 7-24 4-31 9-14-6-23-18-34-27"/><path fill="#71E9F2" d="M396 93c17 10 16 26 28 37-1-6 3-7 5-7-5-9-11-15-15-22-6-4-11-6-15-8"/><path fill="#225078" d="M375 134c-24 22 7 14 17 21-5-2 3-10 6-11 7 6 12 9 17 13-5-4-9-8-15-11-8-4-34-4-25-10"/><path fill="#DC4824" d="M373 349c8 0 16 5 21 11 5 10-3 8-8 10-5-4-7-10-10-15 8 12 12 25 14 39 5-2 6-4 8-5 1-10 0-17-1-24l-1-1v-1l-2-3c-4-6-11-11-19-11"/><path fill="#29D4E5" d="M62 249c-5 8-12 15-17 23 9-1 17-4 24-9 8-11 2-8-5-12"/><path fill="#EF6237" d="M83 258c-3 5-6 10-11 14 1 8 0 17 1 21 5-9 11-17 17-26-3-4-2-6-5-7"/><path fill="#1A3E5F" d="M57 366c-1 9 6 21 8 30 3-7 6-15 10-21-13 4-2-14-15-8"/><path fill="#84E3EC" d="M305 475c-4 5 1 11-1 15 5 3 9 10 14 7 3-3 2-6 3-7-5-8-10-10-14-16"/><path fill="#80EDF4" d="M379 108c8 8 23 14 26 26 2-2 7-1 10-4-1-5-2-9-5-10-11-5-20-8-29-11"/><path fill="#91EFF5" d="M341 132c-32-3-14 3 1 10 5-7 18-7 25-4-2 6-6 10-10 12 0 1 2 0 3 1-6-2 9-5 6-12l1-2 1-1h-1l-2-2c-8-4-17-1-25-4"/><path fill="#3AC3D6" d="M266 309c-3 6 2 15 4 21 6 2 10 0 14-3-3-9-9-12-15-17"/><path fill="#F48D46" d="M404 253c-3 11-20 1-26 9 10 1 20 2 26 12 4-7 5-13 1-20"/><path fill="#E7F7F9" d="M319 216c3 8 5 18 10 25 6-5 9-8 10-12-5-7-12-9-17-13"/><path fill="#D7CA93" d="M82 440c1 4 6 8 4 13 6 1 14 9 21 3-5-10-14-13-22-17"/><path fill="#3EC8D9" d="M201 348c-1 3-3 3-6 4 0 9-1 17 2 24 4-2 6-5 8-7-4-8 4-14-2-18"/><path fill="#E14B26" d="M416 358c-5 1-12-1-16 3 2 7 2 14 3 20 6-8 13-14 14-22"/><path fill="#7EE9F1" d="M443 96c5 8 9 15 14 23 5 2 10 2 12-2-7-10-16-15-25-20"/><path fill="#D2F6F9" d="M331 313c-7 2-14 5-19 10 5 5 10 10 15 7 6-4 4-11 5-15"/><path fill="#8AF0F7" d="M133 169h-3c-2 1-5 3-7 5 0 5 3 2 5 4-8 10-20 9-30 12 9 0 17-2 24-5 8-5 39-17 13-17"/><path fill="#7DE9F1" d="M370 124c-16 8 13 15 19 15-1-8-4-9-11-13-4-2-5-2-6-2"/><path fill="#DA4522" d="M352 377c-1 10 12 13 15 21 3-5 6-11 3-15-6-4-11-5-15-7"/><path fill="#FAF3AB" d="M421 301c-5 4-6 11-11 14 6 6 9 14 12 21 3-12-1-23-2-33"/><path fill="#1C4976" d="M539 220c-22 26 14 9 27 9v-4 1c-2 3-5 4-9 3-7-1-11-7-15-9"/><path fill="#3CD1E2" d="M414 99c4 9 12 15 16 23 4 2 8 4 10 3-3-11-15-18-24-24"/><path fill="#A14A55" d="M489 227c2 17 16 12 16 29 9-7-2-16-2-22-5-4-7-7-11-7"/><path fill="#FBF5B0" d="M409 268c0 7-3 12-10 11 8 6 15 13 18 19 3-10-3-19-6-28"/><path fill="#8EF1F6" d="M298 170c2 2 4 4 5 7 9 4 19 4 28 3 0-2 1-4 0-5-12-2-21-4-31-5"/><path fill="#D8CA8F" d="M152 446c-5 2-10 1-15 4 3 5 5 10 8 10 10 0 18-11 8-14"/><path fill="#F06831" d="M373 350c5 6 8 13 12 19 4-1 7 0 8-3s-1-6-2-9c-6-4-11-6-16-7"/><path fill="#DBCD8C" d="M36 382c-5 4-2 13-1 18-1 8 5 8 8 11 1-10-2-19-4-28"/><path fill="#C2F8FA" d="M394 137c5 6 11 10 16 14 7 0 10-1 12-6-8-3-17-7-27-7"/><path fill="#D3F6F8" d="M222 354c-4 2-14 1-15 7 4 4 4 7 7 8 7-3 18-12 11-16"/><path fill="#C9F8F9" d="M306 177c1 5 9 13 14 16 7 0 8-7 10-10-7-2-16 1-21-6"/><path fill="#77ECF3" d="M316 285c-2 1-4 0-5 1-3 4-1 9-1 13 5 0 9 2 11-3 4-7 1-13-3-11"/><path fill="#B2F8FA" d="M355 137c-5 0-10 4-12 5 4 4 8 6 13 7 12-8 12-13 0-12"/><path fill="#1F3F5B" d="M110 372c2 8-1 16-1 21 4 3 8 6 11 7 1-11-4-19-8-26"/><path fill="#74E7F1" d="M272 439c-1 3-1 10 4 9 7 2 14 8 19 3-6-6-13-10-20-11"/><path fill="#266484" d="M421 428c1 10 9 13 17 17 5 2 5 4 10 2-7-7-16-14-25-18"/><path fill="#7A694B" d="M110 397c-2 6 1 7-7 8-2 7-2 12 0 16 5-5 8-12 14-16 0-5-3-6-4-7"/><path fill="#C7F8FB" d="M82 234c-3 1-6 1-9 3-7 5-1 8 0 11 2 3 4 2 5 3 4-5 10-14 6-18"/><path fill="#88EDF5" d="M353 182c-2 5-6 8-10 11-7 1-11-3-8-6-1 4-6 10-3 14 5 1 8 1 10-2 8-5 11-10 12-17"/><path fill="#86EDF5" d="M485 164c-2 4-6 7-9 11 3 3 7 4 11 6 4-5 5-8 6-11-3-3-5-3-7-4"/><path fill="#C7F6F9" d="M338 179c-2 2-3 8-3 12 13 4 24-15 4-12"/><path fill="#38E1ED" d="M121 174c-10 7-17 9-26 16 7-3 39-4 28-14"/><path fill="#4E3B49" d="M263 470c-2 4 0 15 3 22 6-4 6-10 3-16 2 1 5 0 7 2-4-7-7-7-11-9"/><path fill="#7C2317" d="M365 379h2c2 1 4 4 5 6 0 6 0 9-2 12-22-18-5-4-2 8 7-1 14-2 21-5-2-2-8-1-12-2-1-6-3-15-10-19"/><path d="M293 281c-2 7-4 15 3 20 2-6 7-9 11-11-5-3-8-6-12-7"/><path fill="#153350" d="M266 392c-1 5-1 10 1 14 5 7 12 13 14 20 0 7 2 12-1 14 8 3 10 1 18 8-11-19-28-34-34-53"/><path fill="#193A5F" d="M508 196c20 0 33 15 50 21-5-5-12-10-10-17-6 3-23-4-37-3"/><path fill="#91ECF2" d="M463 218c-2 2-7-1-9 1 0 4 2 7-2 9 6 0 12 0 17-2 4-5 1-11-5-8"/><path fill="#F15C39" d="M283 272c-1 8-6 18 2 24 4-5 3-11 5-16-2-4-3-6-5-7"/><path fill="#193758" d="M87 388c4 5 5 10 10 16 4 2 6 1 8-1-2-8-8-15-16-15"/><path fill="#2A6D8B" d="M333 151c3 7 12 13 14 19 0-1 2-2 4-3 0-3 1-7 0-9-9-5-8-4-17-6"/><path fill="#BFF8FB" d="M326 261c-6 0-2 7-1 9 5 1 9 2 11 0 1-4 1-6 1-9-4-1-6 0-9 0"/><path fill="#256C9B" d="M117 421c-2 2-5 4-14 6-2 3-7 4-6 10 7 0 27-14 23-17"/><path fill="#D7F3F7" d="M344 261c-3 3 0 6 0 9 3 4 5 2 8 3 3-4 5-6 4-10-4-1-7-3-11-2"/><path fill="#3AD2E5" d="M340 117c8 5 17 9 26 14h-1l-1-1-1-3c5 0 7-5 12-3-10-5-22-5-33-7"/><path fill="#94EFF5" d="M265 409c3 1 2 3 5 4-3 0-1 6-5 7 5 7 8 10 12 14 3-9-3-18-9-24"/><path fill="#7C6447" d="m443 213-2 2c-14-1-1 9-18 1-7 2-11 11-16 11 11-1 22-7 33-8-2-1-2-3 1-4 11 6 16 2 2-3"/><path fill="#95F0F5" d="M446 177c17 3 16 17 22 16 4-4 5-9 2-11-10-1-15-4-21-5"/><path fill="#256282" d="M232 324c-2 4-2 9-3 13 6 4 5 6 11 10 0-3 0-6-3-6 3-2 0-4 2-5 4-1 3-3 4-4-1 1 0 3-1 4-4-4-4-11-7-12"/><path fill="#C9F8FB" d="M428 127c2 4 4 12 9 14 5-3 6-6 8-9-6-3-10-5-15-6"/><path fill="#83EDF2" d="M459 123c1 6-1 17 5 20 4-2 4-6 7-7-2-7-7-9-9-13"/><path fill="#CBF5F8" d="M306 327c-6 2-10 7-14 12 5-4 8 1 13 0 7-3 4-8 3-13"/><path fill="#203E52" d="M79 397c1 5 6 9 7 14-7 3-6-4-9-7v-2l-3-2c-1 3-3 4-2 8 0-3 2-5 3-7 5 9 8 16 11 22-3 2-6-1-7-3 3 3 6 7 10 8 1-5 2-8-2-12 3-4 7 0 4 2 1-1 2-2 1-5-5 0-7-7-9-11 4 1 10 6 12 8-5-6-10-9-14-12"/><path fill="#FAF3AA" d="M425 205c-9 2-13 11-15 19 5-5 10-7 15-9 0-6 2-7 1-11"/><path fill="#194067" d="M449 186c-2 12 9 14 17 16-1-2-1-4-1-7-5-3-10-5-14-8"/><path fill="#1D507B" d="M517 465c9 6 13 16 23 13-4-6-11-14-20-13"/><path fill="#D3F6F9" d="M346 302c-4 1 1 8 3 10 8 2 10-4 11-7-4-4-7-4-12-3"/><path fill="#21547D" d="M467 203c0 17 8 15 12 29-4 1-4-7-10-4 14 7 16 13 28 19-23-10-15-34-28-42"/><path fill="#C8F7F8" d="M287 306c1 5 2 10 5 14 5 2 8 0 11-2-5-6-10-7-14-11"/><path fill="#234E6A" d="M150 406c8-1-7 10-9 13-4-2-4-4-8-5 4-5 10-5 14-7"/><path fill="#BDF4F9" d="M438 174c6 0 4 12 26 17-4-6-11-10-17-13 6-2 11 1 17 2-8-4-17-5-26-6"/><path fill="#6DE9F2" d="M324 157c4 5 8 15 17 15 4-5-3-8-4-12-6-1-9-2-11-3"/><path fill="#214B65" d="M452 392c6 7 5 20 9 29-5-5-12-15-10-26"/><path fill="#D6F6F9" d="M321 204c-17 7-3 10 6 9 2-2 2-4 3-6-3-3-6-2-9-2"/><path fill="#75ECF5" d="M495 169c0 4-1 8-3 12 2 6 7 10 10 12-6-6 1-18-5-23"/><path fill="#9B874D" d="M363 338c-5 5-12 18-6 21 6-5 7-16 9-20"/><path fill="#90353F" d="M482 216c-4 10 9 7 6 17 1-2 1-4 0-7 6 1 10 2 14 4-3-7-10-12-17-13"/><path fill="#2EA8C0" d="M217 321c-3 6 0 11 0 14-4-2-6-5-8-8-2 6 0 10 1 14 1-3 6-2 7 1-3 0-1-7 0-8 5-2 6-2 8 0-3-4-4-8-8-11"/><path fill="#8DEDF2" d="M196 413c-7 8-4 21-7 30 5-8 8-17 10-27"/><path fill="#93825E" d="M430 288c-1 6-3 13 0 19 3 3 5 3 7 5 0-9-3-15-6-21"/><path fill="#A01F12" d="M307 244c-13 12 0 12 13 7-5-7-11-5-14-5"/><path fill="#8FEEF4" d="M66 267c-6 10-12 20-17 30 3 1 4-2 7-3 3 2 2 7 3 10-10-7 10-33 8-29"/><path fill="#B6F4F7" d="M252 405c3 6 9 11 13 17-2-4 8-8 1-10-4-5-8-6-11-8"/><path fill="#286381" d="m304 294-6 9c1 3 1 6 3 8 6-2 6-12 5-18"/><path fill="#29CBE4" d="M148 146c12 7 27 6 38 4-11-4-23-4-36-3"/><path fill="#35E9F0" d="M102 203c-8 2-14 8-14 18 9-2 11-10 14-17"/><path fill="#BCF4F8" d="M449 202c-7 0-12 3-17 6 5 1 10 2 17 1 3-8 19-7 0-8"/><path fill="#E3CB6F" d="M382 372c-4 0-11 5-16 6 4 9 23 7 16-5"/><path fill="#89221C" d="M423 276c0 8-3 20 4 25-1-8 5-16-2-23"/><path fill="#90EEF5" d="M194 393c-2 3-5 5-7 8 1 4 1 7 0 10 7-4 12-10 8-17"/><path fill="#44CDDF" d="M255 365c-1 15 6 11 13 18 1-2 0-5 0-8-4-3-8-6-12-8"/><path fill="#163958" d="M417 124c1 4 2 7 3 10-3 4-4 5-7 4 9 0 16 4 23 6-4-16-12-6-19-17"/><path fill="#48CDDB" d="M216 333c2 2 1 6 3 9 6 0 9 2 12 2-2-7-8-13-14-9"/><path fill="#52ABC2" d="M128 187c2 3-8 11-11 16-3-2-3-4-3-7 4-5 9-5 12-8"/><path fill="#38A3C9" d="M286 328c2 0-3 4-3 2 3 1-3 2-1 3 2 6 2 9-2 10 13 2 27-25 1-8 2-3 3-4 5-5"/><path fill="#8CE8F0" d="M461 203c-9-1-9 9-19 8 8-1 14 2 21-1 4-3 2-6-1-7"/><path fill="#1A3E63" d="M347 155c5 0 7 6 5 10 6 0 10 2 16 1-4-6-12-9-18-11"/><path fill="#1B3F64" d="M465 165c0 3-3 6-1 10 14 3 24 8 32 17-6-15-22-8-31-26"/><path fill="#4DD5E3" d="M320 230c-3 2-8 5-11 9 5 4 5 5 10 2 2-3 5-7 3-11"/><path fill="#256080" d="M243 302c2 6 6 12 8 19 2-4 6-6 5-8-4-7-9-7-11-10"/><path fill="#BEF8FA" d="M415 171c-1 4 0 12 7 10 2-3 4-5 4-7-4-3-7-2-10-2"/><path fill="#B2F8FA" d="M97 219c-3 5-5 10-6 16 5-2 16-15 9-15"/><path fill="#51D9E7" d="M319 149c2 10 13 7 20 12 5 4 6 11 0 12 2 0 3-1 4-3 1-4-1-5-2-7-4-5-6-8-10-10-4-3-8-3-10-4"/><path fill="#92EBF2" d="M226 360c-3 4-5 7-10 9-5 0-5-2-7-5 3 5 4 10 6 15 6-4 7-11 10-16"/><path fill="#2E98B6" d="M115 408c-3 6-7 11-10 17 4-1 8-4 12-5 1-5-1-7-1-10"/><path fill="#B7F9FB" d="M65 276c-6 6-7 16-5 23 4-7 6-14 6-22"/><path fill="#9DF0F4" d="M55 299c-7 5-14 12-14 20 6-6 13-9 13-18"/><path fill="#1A416C" d="M305 202c2 4-4 19-6 25-2-8 2-14 4-21"/><path fill="#399CC8" d="M334 177c-4 6-5 18-12 19 0 2 0 4 1 6 5 1 8-1 9 0-4-1-2-1-4-4 1-9 8-20 8-20"/><path fill="#90E5ED" d="M311 331c2 13-14 7-19 9 4 1 8 4 13 6 6-3 8-8 6-13"/><path fill="#D3F7F8" d="M260 332c3 2 5 5 8 6 5-3 9-1 11-2-4-4-10-5-17-4"/><path fill="#AFF4F8" d="M309 256c-13 1-1 6 4 10 3-2 2-3 4-3-6-5 2-7-7-7"/><path fill="#245472" d="M154 406c-7 2-14 4-20 6 3 3 4 4 5 7 6-4 10-10 15-13"/><path fill="#982C28" d="M186 157c-5 4-10 11-16 13 5-8 38-4 18-12"/><path fill="#EAD374" d="M408 347c-5 1-9 5-11 8h-3l-1-1-1-1 1 1 2 2 2 2c6-3 18 1 11-10"/><path fill="#1B3F66" d="M397 169c-5 1-10 1-14 3 2 0 42 5 14-2"/><path fill="#9A2C26" d="M141 185c-10 4-4 6 3 9 3-3 4-5 5-8-2 0-4 0-7-1"/><path fill="#2A6381" d="M448 321c-2 8-5 17 0 24 2-7 2-15 1-23"/><path fill="#84EEF5" d="M71 239c-2 3-3 6-7 8 3 8 16 1 8 12 7-5 9-9 11-14-2 3-2 8-7 6-4-2-8-7-7-9"/><path fill="#7A6341" d="M261 389c-3 2-5 4-6 6 2 3 10 5 6 10 2-4 3-11 2-16"/><path fill="#1F5170" d="M75 402c0 3-3 4-3 6 5 8 8 13 13 17l-9-21"/><path fill="#79E7EF" d="M279 307c1 7 5 13 9 19-2-7 0-14-7-18"/><path fill="#2A6687" d="M340 261c-5 17 8 5-2 20-31-7 1 5 12-3 3 2 4 5 6 5 4-5 2-10 3-14-3 3-2 10-7 12-11-3-10-12-11-18"/><path fill="#173B58" d="M306 292c0-2 4 11 0 17-3 7-6 3-8 2 1 0 3 2 4 3 9-8 39-11 10-9-3-4-4-8-5-11"/><path fill="#7A2117" d="M201 205c3 10 4 24 7 35-4-10-7-21-8-31"/><path fill="#236D8E" d="M54 297c-2 0 6 11-16 28 8-6 14-14 21-15 7-9-5 4-2-15"/><path fill="#EAF5F8" d="M358 187c1 5-1 9 0 14 3-1 5-2 8-4-1-4-3-7-5-8"/><path fill="#1F4E78" d="M216 163c2 5-2 6-4 8 0 5 2 8 1 12 7-5 6-11 3-18"/><path fill="#CDF3F7" d="M284 341c-2 3-3 5-5 7 7 6 18-4 7-6"/><path fill="#28ADC6" d="M193 335c1 6 1 11 1 16-1 4 0 8 0 11-1-4 0-6 0-9 3 0 6-6 8-5-2-3-5-7-7-10"/><path fill="#7E694F" d="M98 407c-1 4-8 12-2 16 6-2 2-10 4-15"/><path fill="#6A5639" d="M164 439c2 0 9 1 6 6-3 8-6 2-6 4-2-1-1-8 1-8"/><path fill="#1E3E5C" d="M266 322c-3 1-11-1-10 7 2 1 19 4 9-6"/><path fill="#938253" d="M419 300c1-6 6 12 5 22 2-3 3-6 4-10 0-7-4-10-6-14"/><path fill="#2B89BC" d="M190 472c-2 4-8 9-7 14 8-3 10-7 9-14"/><path fill="#E93031" d="M504 176c-3 4-1 9 0 13 3 4 5 5 8 6-2 2-6-6-5-20"/><path fill="#B9943D" d="M384 384c-3 1-6 1-9 3 1 3 0 5 1 6 4-1 6-2 8-2 1-3 1-4 2-5"/><path fill="#BE9B48" d="M356 389c-2 2-4 6-2 12 3-1 5-2 7-2 0-4-1-6-3-9"/><path fill="#276686" d="M189 375c1 2-4 2-6 3 4 3-3 12 4 16 0-5 2-12 3-19"/><path fill="#89EFF6" d="M339 262c-1 2 1 6-1 9-5 3-9 1-11 2 0 2 1 4 2 6 4-1 8 0 9-4 1-5 0-8 1-11"/><path fill="#235B84" d="M356 328c-3 7-6 14-11 19-3-4-3-7-5-10-3 1-6 0-8 1 6-4 11 3 10 8 6-10 26-5 16-17"/><path fill="#92E9F0" d="M344 302c-3 0-2 6-1 9 4 5 9 5 13 6 2-4 4-8 5-11-1 3-4 9-10 7-5-2-8-8-7-11"/><path d="M327 487c-8 4 0 10 4 13 1-5 0-8-3-11"/><path fill="#295E83" d="M89 227c-3 3-8 0-11 6 3-1 5-2 9-1 1 9-3 15-6 21 8-5 7-17 9-24"/><path fill="#2D82B4" d="M466 461c-3 3-3 12-9 12 2 4 4 7 6 10 0-6-1-14 3-20"/><path fill="#183452" d="M498 268c1 3 1 8 6 8 4-1 8-1 10-3-2-6-8-1-12 0-2-2-4-2-4-4"/><path fill="#18324B" d="M294 455c1 4 7 13 8 19 1-5 0-13 0-17-4 1-5-1-7-2"/><path fill="#8FEEF4" d="M410 140c5 1 9 3 13 4-6 9-20 10-1 8 1-4 5-6 6-8-6-3-11-3-15-5"/><path fill="#2A6884" d="M414 122c2 2 6 7 2 11-7 2-12 2-16 3 5 1 10 3 15 1 4-6 1-13 0-15"/><path fill="#91EAF0" d="M474 233c-1 9-5 10 11 8-3-4-6-6-8-8"/><path fill="#8B637D" d="M235 485c-5 10 2 12 5 16 1-12 2-2-4-14"/><path fill="#235979" d="M453 394c-4 9 2 18 6 27-2-9-2-18-6-25"/><path fill="#8BE3EC" d="M290 343c5 3 0 6-3 7-4 2-7 1-9 0 3 2 5 4 8 5 5 1 5-3 7-4 2-4 0-4-1-6"/><path fill="#39C0D4" d="M211 340c-1 5 1 8 2 11 3 1 3-1 4-2-1-5-1-9-5-8"/><path fill="#836944" d="M413 259c1 3 0 7 2 10 3 3 4 5 7 4-2-5-5-9-7-13"/><path fill="#745E40" d="M121 403c-4 3 0 6-2 11 3 0 5-1 8 0-1-5-3-7-4-10"/><path fill="#285576" d="M360 301c8 5-7 19 1 21 2-9 3-16 1-20"/><path fill="#2B6481" d="M297 490c1 3 1 6 5 7 8 1 13 4 21 3-2 4-18-5-25-8"/><path fill="#CBF5F7" d="M370 165c2 4 4 13 9 10 1-5-3-7-7-9"/><path fill="#695167" d="M389 490c-3 7 16 14 13 11-1-2-3-5-10-11"/><path fill="#663D20" d="M363 301c3 5 0 12 2 18 2-2 3-5 4-7 6 3 9 5 14 5-8-3-16-7-18-15"/><path fill="#E9F7FA" d="M391 182c-2 1-4 1-6 2-1 4 1 5 2 7 5 0 3-7 6-9"/><path fill="#8BEEF5" d="M446 131c-1 4-5 12-9 11h-1l1 1 2 2 2-1c0-4 12-9 7-13"/><path fill="#5A4354" d="M266 476c4-1 5 6 4 9-3 4-4-3-5 1-1-4 0-5-1-8"/><path fill="#E75E39" d="M44 323c-4 6-6 13-8 20 3 4 7-11 8-17"/><path fill="#97E8F0" d="M370 152c10 3 16 10 25 5-7-2-15-3-23-4"/><path fill="#449AB1" d="M313 338c4 8-12 8-3 14 8-1 5-8 3-11"/><path fill="#816179" d="M372 493c-2 10 4 10 5 13 4-5 0-5-2-12"/><path fill="#93E6ED" d="M332 321c1 5-1 8-6 10-6 2-9-3-12-5 2 3 4 6 7 8 9 1 14-3 11-11"/><path fill="#58291B" d="M411 249c1 5 3 16 0 19 2 2 4 6 10 8 1 8-1 13-1 19 7 13 10 16 21 21-7-5-15-9-18-20-1-7-1-12-1-17 1-5 2-2 3-2-3-10-1 3-11-6-2-5-1-9-2-12 5 3 7 6 9 9-4-5-7-11-10-17"/><path fill="#63475D" d="M397 462c-5 7 4 7 6 12 2-6 0-9-5-11"/><path fill="#92EDF2" d="M281 334c1 6-12 3-14 5 2 1 4 5 6 6 4-4 6-7 9-9"/><path fill="#33647D" d="M280 295c-2 3-2 6-3 9 1-9 7 5 9 6 0-5-1-11-6-14"/><path fill="#133757" d="M268 340c-7 7-3 2 5 8l1 2-1 2c-1 4-2 9-3 13 1-4 2-9 3-13 6 0 7 6 11 8-3-8-10-11-16-18"/><path fill="#1E4868" d="M69 375c9-2 0 9 1 12-3-3-3-7-3-11"/><path fill="#33A5CD" d="M500 256c-1 4-1 7 0 15 6-2 1-10 1-13"/><path fill="#183859" d="M326 469c2 3 3 5 4 9-2 2-4 6-6 4 1 5 6 2 9 10 3-9-3-15-6-21"/><path fill="#B9F7F8" d="M82 226c-7 2-15 1-20 6 7-1 20-4 23-7"/><path fill="#8F7E57" d="M413 271c3 6 5 13 7 19 1-3 0-8 0-13-2-2-4-3-5-4"/><path fill="#55DFEA" d="M182 380c-4 1-4 4-7 3 2 2 5 5 8 11-2-4 0-9-1-13"/><path fill="#7F221F" d="M93 422c-6 10 6 10 9 3-3 1-6 1-8 0"/><path fill="#3E91A9" d="M363 479c1 6 3 13 1 19 7-6 3-12 0-16"/><path fill="#1A3D5C" d="M321 265c1 3 0 4-1 5-22-3 2-2 3 12 5-6 0-11-1-15"/><path fill="#4CD9E7" d="M325 290c0 6-7 13-14 10 3 3 9 3 11 1 2-4 3-6 3-9"/><path fill="#1A3B5A" d="M529 151c4 7 11 20 6 30-9 8-10-11-12-10l-1-2v1c3 8 4 12 10 16 2-1 2-1 3-3 2-4 3-6 2-10-1-9-3-15-6-22"/><path fill="#1A2D3F" d="M504 216c-7 4 2 14 2 18l3-1-3 1c0-9 3-13-3-16"/><path fill="#1A446E" d="M340 236c-2 3-7 5-9 8 14 3 4-5 11-5"/><path fill="#703F21" d="M364 306c5 0 7 8 2 10-2-2-2-5-1-7"/><path fill="#270D0E" d="m479 198-1 2-1 1-1 1c0 3 0 6 1 9-1-3-1-6 0-8 3 0 11-5 10 1 3-5-2-8-6-8"/><path fill="#87EDF4" d="M426 173c1 5-5 14-11 7 4 3 8 6 11 4 1-4 3-6 2-10"/><path fill="#70E5EE" d="M258 377c1 4 3 7 5 11 6-6 1-9-4-9"/><path fill="#265D7A" d="M423 261c-2 7 2 12 7 16-1-6-3-8-6-13"/><path fill="#8D2E1D" d="M403 251c-1 1-2 5-4 6 3 0 2-5 4-6 7 4 5 18 7 15 2-6 2-13-5-14"/><path fill="#932927" d="M298 257c3 6-2 2 1 6 4 3 8 3 11 5-3-4-7-7-10-9"/><path fill="#6B573A" d="M166 438c0 2-3 7-3 11 2-4 3 3 6-3 4-7-4-4-3-8"/><path fill="#70E9F0" d="M472 118c-1 2 0 4-1 5 3 1 3 3 6 2 3-3 1-6-3-5"/><path fill="#183B63" d="M305 204c-3 7-6 14-8 21 5-5 5-14 8-21"/><path fill="#ED8144" d="M412 201c-2 3-2 5-3 8 2-1 13-4 5-6"/><path fill="#3E8DA9" d="M305 472c2 3 12 10 16 14-3-6-8-11-13-12"/><path fill="#265978" d="M468 427c-4 7 3 12 5 17-1-4-3-10-5-14"/><path fill="#27678A" d="M296 445c6 2 1 10-4 10 4-2 7 2 11 0 0-3-2-6-4-9"/></svg>