<svg xmlns="http://www.w3.org/2000/svg" width="600" height="600"><path fill="#526068" d="m222 113 2-1c19 6 40 15 56 27 18 11 46 37 61 57 28-2 55-1 79 4s45 12 65 23c18 18 41 22 58 39 12 14 12 30 14 45 5 6 11 6 14 12-2 9-3 15 0 24-10 11-12 24-20 29-3-5-3-10-4-15-11-1-12 8-20 12-7-1-1-5-1-7-9 1-15 5-20 12 1 1 2-2 4-1 0 4 1 8 1 11 3-2 6-3 9-5-1 8-7 13-6 17-14 11-29 14-43 18-4 11-10 20-21 23-7 4-14 4-19 7 0-7 2-19-5-24-21-2-41-3-60-6-15 13-28 25-45 29 6-10 13-20 14-32-13 11-25 21-35 30-7-2-3-14-3-19-13 14-26 30-42 41-13 11-27 19-42 22-10 0-20 4-26-1 13-9 25-20 35-31 3-16 18-26 12-41 12-7 23-10 29-19-10-5-18-8-25-12-21 14-12 6-32 25 0-13 4-24 6-35-7-5-13-7-18-10-19 9-7 6-29 21-1-12 3-29 4-33-12 3-18 13-25 18-2-9-3-17-1-23-5-2-6 0-10-1-17 22-37 45-58 62-9 4-16 8-23 9-50 12-2-23 4-38 11-16 20-30 26-46 0-40-19-70-25-105 16 3 28 10 41 21 18 16 28 32 35 50 7-1 12-3 18-6-1-9-3-18-1-27 8 5 12 10 17 17 6-3 12-6 16-10 1-11 0-20-2-28 9 3 16 8 21 13 8-2 13-5 19-8 0-17-1-32-8-45 10-1 21 5 30 12 1-8 3-15 3-23-1-15-1-28-6-39-5-15-10-27-18-37"/><path fill="#232A3C" d="M60 227c2 21 22 51 27 97-1 10-12 31-20 43-11 24-61 60-5 41 19-14 66-66 55-62 13-12 21-14 30-15-5 1-7-4-12-5-4-8 3-6 2-12 6 5 9 7 14 16-6-2 2-12 8-17 2 5 1 9 3 11 1-4 13 0 17-2 9 14-1 14 3 14 6 5 5-8 11 1-9-5-9-7-11-16 7 7 11-5 18-2 9 10 14 12 24 22 2 0-11-10-9-13-3-5-3-13 0-17 1 6 4 11 8 15-3-2-2-10 4-8 5 4 5 9 7 13 7-1 10 7 17 7 5 0 4-4 5-6 0 6-7 6-9 5 0-3 1-6 2-4-4-5-8-9-9-19 1-3 1-4 2-5 2 5 5 9 7 14-1-3-2-6-3-8 1-4 9-9 11-2-1-1 1-12 1-14 2 10 8 20 11 26 3-2 2-8 7-6-11 3-4-6-9-5 3-2 4-11 7-14 0 1-1-1-2-1 3-6 16-3 13-3-11-1-23-1-33 1-3 2-2 4-3 5-5 0-4-3-5-5-12 1-24 1-34 2-2 3 0 5-1 8-4 1-4-5-7-7-4 5-4 8-3 13-7-3-6-10-8-15 1-10 10-12 13-20 1 4 0 7 1 12 0-4 1-8 3-12 4 2 2 6 1 9 6-1 10-3 15-5-1-7 1-10 1-14 3-8 11-11 15-22-5 17-3 9-1 27 0-6 3-11 5-17 1 4 1 9 0 13 5-4 10-6 15-10 9-17 0-17 14-29-2-2-4-2-6-3-5 4-23 16-35 21-9 13-24 21-31 27-3-6 3-8 3-14-4 2-8 5-12 7-7 11-11 21-10 34-5-2-3-6-4-8l-6 3c-1-8 0-9 2-15-8 6-19 8-20 19-2-2-3-4-2-6-6 2-7 10-6 17-8-4-6-9-3-12-8 8-14-8-12-1-12-15-21-30-34-43-13-11-28-29-38-29"/><path fill="#517F8B" d="M478 248c-42-3-12 8-2 38-2 8-3 14-6 19-3 12-15 17-18 23 11 6 18 5 30 8 23-9 46 6 71-2 1-5-4-6-2-10 1-5 6-4 7-6-15-19-20-44-45-60-7-10-18-10-28-11-4 0-6 0-9-1"/><path fill="#7C7877" d="M160 328c-40 11-21 11 7 15 33 15 65 32 98 45 6-8-9-17-5-28 20 8 39 12 57 15-4 14 7 18-5 25 37 9 71 15 108 15-13-1-25-3-37-7-10-3-17-6-23-11-12-18-24-33-24-54-8 1-9 7-11 12-9 1-11-6-11-11-3 3 0 8-4 8-5 2-28 1-25 2-4-1-7-2-5-4-7 6-10-1-4 7-4-2-44-18-56-12-5 10 17 9 15 15-8-3-15-3-19-9-4-3-1-7 1-8-5 0-10-1-15-3 0 4 6 7 5 9-23-11-35-15-50-18"/><path fill="#446874" d="M334 210c-2 1-4 1-4 3 1 5-22 16-18 33 0 0 2-16 10-20 4-5 9-14 14-10-16 12-11 25-22 33-11-3-5-7-10-7 11-16 0-11 6-20-7 10-13 11-26 14-9 7-1 10-5 13-10 5-17 10-22 16-6 2-9 5-12 7-3 6-4 10-3 16 3 1 5-8 11-3-1-8-1-15 1-19 6-2 5 1 7-1 2 7 0 18 2 17 1-9-1-17 6-21 5 4 2 15 1 24 25 4 36 3 65-1 4-9 7-19 15-28-1 2-5 2-6 4-5-2-3-4-10-3 8-1 5-8 10-11-8-5 0 13-11 6-1-17 8-15 11-22-6 4-8-3-14-4 13-10 48-18 4-17"/><path fill="#EFF0E2" d="M348 329c8 12-7 24 8 38 1 3 2 6 3 8 8-2 15 0 19 2l2 2-1 1h-1l-2-1c-4-1-8-1-12-1 3 7 7-2 11 1 0 2-3 2-4 5 5 5 13 3 20 4 2 4-8 1-9 3 42 4 82 5 122 4-11-8-40-8-58-11-1-4-2-9-1-12-4 2-9 3-11 7-6 2-9 0-12-1-21-10-26-29-48-34-6-6-6-10-3-14-7 0-9 6-3 9-8-4-12-7-18-10"/><path fill="#487380" d="M354 207c-2 10 10 2 24 5-3 8-7 12-11 18-4-2-4-6-1-9-2 1-5 5-5 7-2-1-7 2-7-2-3-7 5-7 5-9-21 6-44 11-13 13-2 3 1 8-6 15 4-4 8-14 15-13-1 12-11 14-14 21-3 1-6 2-8 1 5 2 7 2 10 5 11-6 25-19 41-19-8 3-16 7-23 12 2 4 5 4 5 10-1 0-3 8-8 4 6 1 5 7 8 16 21-10 48-37 57-41-1-4-2-9-7-16-16-1-22 10-27 6-2 0-8 0-7-4 4-5 3-5 8-9-9-4-1-5-3-9-15-1-26-1-37-1"/><path fill="#28161D" d="M387 342c6 5-1 1 27 33l-1-4 2 2-1-1-2-1c0-1-3-2-3-4 12-1 21-1 31 1-3 4-4 8-9 9s-8 0-11-1c4 1 7 2 9 3 8-3 11-9 15-11 2 4 2 8 2 11 3-2-1-11 6-9 7 1 13 2 18 4-1 4-3 6-6 8 7-5 10-8 15-12 2 5 2 9 2 14 5 0 9 0 12 2 11-4 2-8 9-17 6 1 1 3 1 4 1-10 35-17 18-14 12 2 5-7 22-7-7 0-14 2-18-1 8-4 21-7 21-1 0-7-12-6-17-7-8 4-13 10-17 13-3-1-2-5-3-8-4 0-8 1-11 2-6 5-9 7-12 12-4-3-4-8-2-11-13 6-36 2-44 13-1-5-3-5-1-7-17-8-37-7-56-16"/><path fill="#354959" d="M250 144c-6 3-1 4 5 3-6 4-2 5 2 8 7 7-7 2-3 6 2 3 3 4 4 5 13 16 27 30 32 46 15-4 29-10 43-13-7-8-5-7-26-27-10-6-22-11-34-15 2 7 8 13 12 18-7-4-12-9-17-14-3-3-2 6-8 5-4-4-2-4-1-10 1-2 2-1 3 0-3-3-4-5-6-6-3-2-3-4-5-5"/><path fill="#2B3546" d="M326 287c-13 1-10 5-24 7 4 24-12 1-5 27-7-3-14-14-12-24-5-1-8 0-12-1-3 3 2 4 3 3-10 1 3 11-9 12 0 3 5 4 2 9 9-2 6 11 12-1 9 21 18 6 19 19 1 0 1-3 2-6 0 3 4 3 4 5-1-1 0-2 2-3 8 8-10 11 0 15 5-15 10 3 8-16 8 7 6 16 2 16 1 4 6 5 6 1-1-6 9-8 13-11-6-3-5 2-9 1-4 0-6-2-8-3-5-11-7-21-6-32 1-4 1-9 3-8 3 11 6 19 11 26-1-3-4-5-3-9 4-4 7 0 8 3-5-9 8-30-5-31"/><path fill="#3C5D6D" d="M297 383c-3 1-5 1-7 2-16 13-30 22-46 28-8 3-1 2-4 7 18-10 35-21 51-35-15 18-33 27-51 38-2 8-9 13-11 19 3-9 44-25 61-51-10 18-28 32-42 49 4-4 6-9 12-9 3 3 7 7 5 7 9-5 16-14 24-21-3 13-13 21-22 32 14-14 26-28 37-43 9-10 11-28 0-7 0-6 5-10 0-15-2-2-4-1-5-2"/><path fill="#837B77" d="M341 341c-3 18 7 29 14 43 7 9 15 15 23 18 13-1 27 13 74 9 18-2 37-6 53-14-27 0-57 3-83 6-2-3 5-2-10-3 16-1 28-2 39-3-12-1-23 2-36 1-13-2-26-3-38-6-10-15-11-7-24-21-6-10-12-22-9-27"/><path fill="#344753" d="M393 268c-7 4-12 10-18 15-7 3-11-4-12 1-1-1-2-3-1-4-24 8-24 9-22 38 3 0 4 1 6 1-3-2-5-5-5-8 3-6 7-9 11-8 12 10 30 22 44 34 17 0 12-2 27-2-12 2-18-7-27-8-15-17-8-31-22-38 5-4 3-2 4-7 4 4 4 7 6 9 2-9 4-16 7-22"/><path fill="#BFEBEC" d="M418 207c-10 10-18 9 13 13 0 7-8 0-9 2 17 7 8 15 17 16-1 3-3 6-7 6 6-1 11 2 16 5 18-4 33-5 49-2-14-10-32-29-57-32-9-4-16-5-24-7"/><path fill="#334556" d="M263 184c2 6 11 9 13 15-8-2-13-6-18-9 8 7 14 16 18 24-5-8-18-20-24-27 0 9-4 19-6 30l10 10c11-3 21-8 31-12-4-12-11-27-21-30"/><path fill="#456D7D" d="M261 429c-1 3-2 4-5 3-19 18-41 35-61 50 14-2 26-9 39-16 9-11 48-28 25-33"/><path fill="#B5D6D2" d="M452 331c-5 1-10 5-8 12-37 1-52 4-2 6 12-3 25-6 38-8 13-1 24-3 35-4-5-6-10 0-15-4-8 3-16 1-18 7-9-9-17 3-28-12"/><path fill="#678A91" d="M290 243c5 0-3 8 1 10 0-3 3-5 4-8 8 0 5 2 10-1 1 11-6 18-4 27-6 6-3 2-5 7-5-2-5-8-4-14-8 0-9 10-7 14-4-3-10-9-6-18 2-7 4-12 9-16"/><path fill="#445862" d="m493 310 1-2c12 1 14 2 19 7-1 5 2 13-6 13-8-4-15 3-22 1-16-7 2-13 5-18"/><path fill="#252C3E" d="M276 366c-4 11-6 25-13 30-9 9-13 10-19 14 18-7 27-14 43-27 8-1 16-5 21 2 17-10-19-10-31-17"/><path fill="#A5ADA9" d="M234 334c-3 2-1 5 0 7 11 1 23 9 31 0-1 7 6 7 9 6 6 1 7-4 12-4 0 2-1 3-1 5 6 2 13 7 14-1-8-14-22 1-35-14-7-1-7 2-9 6-10 3-13-6-19-6"/><path fill="#354754" d="M460 261c7 8 8 21 5 32-1 8-3 14-7 19-1-5 1-8 2-13-4 6-5-5-9-8-1 12-3 20-9 28 1-1 3-1 5-2 4 2 2 5 0 5 9-1 16-8 20-16 3-3 4-7 5-11 0-14-2-23-11-33"/><path fill="#CEF9F6" d="M426 247c-23 7-32 21 1 8 7 5 12 12 17 16 13 4 9-7 11-10-12-5-11-6-29-13"/><path fill="#D1D6CB" d="M340 319c-1 11 2 23 8 31-3-4 8-11-2-22 12 7 13-2 23-2 3 2 2 4 3 5 4-2 1 0-1-3 22 10-2 5 26 15 7 6 7 0 14 3-16-2-28-20-44-26-10 1-18 10-25 0"/><path fill="#2C384A" d="M228 119c10 12 25 21 35 34 11 1 20 2 28 6-20-15-39-30-60-40"/><path fill="#344D5B" d="M225 282c-39 18 9 17 21 10-1 2-2 6 0 9 3-3 2-7 4-7 13-2 30 2 38-4-17-5-30-1-33-5-5 0-9-1-10 5-5 0-5-3-4-4 0 3-3 5-4 7-7 3-11-3-17 3-9-12 8-11 5-12"/><path fill="#E4C699" d="M430 280c-7 8 5 19-5 28-3 5-7 6-10 6-5-1-7-4-9-5 2 2 4 4 7 5 9 4 17 2 21-5 4-5 4-9 5-13 0-7-3-12-6-16"/><path fill="#2C3649" d="M310 209c-14 5-27 11-40 18-13 4-22 10-32 14s-15 11-17 18c8-16 33-20 46-33 4 3 2 1 6 3-13 13-5 15-11 29 2-2 5-4 7-6-3-10 11-16 7-24 12-9 45-17 33-19"/><path fill="#558590" d="M418 258c-28 12 9-5 15 7 14 8 15 28 26 32 4-9 2-13 4-19-4-1-4-5-6-6-3 2-7 2-11 1-5-2-7-6-11-8-5-3-7-6-11-6-4-1-5-1-6-1"/><path fill="#81716E" d="M523 340c-34 1-64 11-98 12 9 0 16 4 24 4 27-12 69-10 81-15"/><path fill="#394B56" d="M537 281c10 10 10 24 20 32 3 7 0 9-4 9-2 6 2 7 4 9-1 6-6 5-8 7 5 0 11 1 16 4 1-6-3-14 5-20-5-8-7-3-10-7-10-11-14-23-21-33"/><path fill="#252A3C" d="M213 370c1 10-3 24-8 31 11-2 43-35 14-18 2-2 4-4 5-7-3-2-6-4-9-5"/><path fill="#5D7076" d="M318 301c-2 7-2 16 1 23 2 6 3 10 7 12 3 4 6-1 9 1-1-7-1-10-2-17-1-4-2-7-6-6-1 4 1 7 2 10-8-5-10-13-11-22"/><path fill="#1E1019" d="M411 283c-8 3-8 10-7 17 2 8 8 13 15 11 8-5 9-14 7-21-2-4-2-6-4-6 1 2 4 3 3 7-4 2-1 16-11 14-8-19 7 6-5-24"/><path fill="#415865" d="M237 255c-19 22-1 30-22 37 11-3 15 3 21 2-3-9 1-12-4-16 15-22-5-6 4-20"/><path fill="#A0D4D7" d="M285 425c-14 11-27 27-43 36-12 10-24 16-35 21 15-3 28-10 41-19 14-11 27-24 36-37"/><path fill="#AAD8DC" d="M380 204c-43-2-36 5 2 2 14-1 11 10 25 8 7 2 1-6 9-3-2-7-14-6-21-7h-17"/><path fill="#1B1018" d="M353 387c5 8 15 14 23 18 17 6 33 7 49 9 4-1 5-1 7 0 0 3-3 1-5 2-12 0-22-1-34 0 10 0 23 2 31 0 4 5 10 9 10 13 2-3-4-7-6-12 16-1 31-3 43-5 14-3 25-7 34-11-17 6-46 12-71 13-4-1-5-1-6 0-18-2-33-5-48-9-11-6-18-7-25-17"/><path fill="#323442" d="M450 417c-6 1-13 0-19 1 5 10 4 13 9 17 30-14 20-25 1-3-1-5 8-8 10-13"/><path fill="#916D57" d="M421 269c-4 1-9 1-12 5l-2 1-2 2c-2 4-6 7-5 13-2 7-2 13 1 18 3-13-3-15 3-31 4-3 5-4 7-3v7c9 2-1-10 12-7 10 4-5 7 3 10 0-7 9-3 11-4 4 2 4 5 6 7 3-7-10-18-18-18"/><path fill="#90B8BA" d="M297 245c-3 4-4 8-6 12-4-5-3-7-2-11-7 9-9 19-7 28 4-10 10-13 14-26 2 5-9 21 0 27 0-13 11-26 3-28"/><path fill="#262B3E" d="M174 352c-9 5-3 17-6 23 11-6 35-26 7-13 2-3 4-5 6-7-2 0-4-3-5-3"/><path fill="#466876" d="M252 169c-3 4-4 13 0 15 7 4 12 10 19 12-21-22 11-4-20-28"/><path fill="#2B384A" d="M221 209c3 3 3 12 5 17 3 5 7 8 8 12 5 0 7-1 9-2-5-10-14-19-19-26"/><path fill="#150D16" d="M369 246c-8 2-14 7-19 14-8 9-11 17-14 25-2 17-2 33 1 46 1 14 0 29 8 38-8-8-7-25-6-36 0-15-2-34 0-48 2-10 5-17 9-24 8-6 14-11 20-16"/><path fill="#344C5A" d="M311 219c-4 4-10 8-12 12-4 0-7-4-2-7-12 5-9 8-22 10 7 4-16 15-2 16-12 10-26 16-32 26 12-12 17-13 36-28 2-1 0-7 6-12 6-1 10-5 15-4 8-11 17-11 16-11"/><path fill="#53789A" d="M365 201c6-1 66 3 84 15 2-7-23-11-36-14-15-1-26-3-39-2"/><path fill="#ACD7D9" d="M432 215c9-1 16 10 25 7 10 5 18 11 26 17-10-3-17-13-29-14 7 5 14 10 19 16-13-10-25-19-39-24"/><path fill="#374552" d="M412 264c-8 4-19 11-21 14-4 16 5 23 8 32-4-7-5-17-2-25 2-11 9-18 18-20"/><path fill="#282938" d="M341 410c-1 14-2 18 10 12 1-4 11-1 10-8-7 2-10-2-19-3"/><path fill="#303B4B" d="M194 319c-1 4-4 4-6 5 2 2 4 4 7 5 0 6-6 3-7 8l-2-3-2-2 3 3 1 2c2-6 4-1 7 0 12-5 19-15 0-18"/><path fill="#5E828A" d="M385 243c-3 4-3 25-7 26-4-2-5-5-4-10 1-6 4-10 7-14"/><path fill="#586971" d="M273 321c-1 5 3 11 6 14 5 4 8 0 12 0-5-5-5-10-9-12-3-1-4 2-3 3-5 0-2-2-5-3"/><path fill="#4F7E8B" d="M412 220c7 5 8 10 11 16-6-2 6 7-4 7 6 3 12-2 16-2-1-10-18-15-21-21"/><path fill="#62474B" d="M448 370c0 3 0 6 1 9 6 1 10 2 15 3 2-1 2-4 5-5-6-3-12-5-18-6"/><path fill="#5C4249" d="M411 369c4 3 11 6 16 8 6 0 8-6 11-7-7-2-16-1-24-2"/><path fill="#2C3646" d="M160 324c2 3 8 4 9 9 5-3 9 1 14 3-7-14 6 1-2-12-8-1-19-1-19 3"/><path fill="#467281" d="M435 334c-18 2-19 3-28 7 5 0 11 2 16 3 11-4 12-4 11-11"/><path fill="#252B3D" d="M146 343c-2 5-1 11-1 17 11-16 21-12 3-17"/><path fill="#272939" d="M312 404c-12 15 12 2-7 22 12-10 31-22 7-20"/><path fill="#55656E" d="M216 315c0 6-1 11 2 15 4 6 6 3 11 3 4-3 2-7 1-10-3-3-4-4-6-3-2 5 5 7 2 10-6-3-9-8-10-13"/><path fill="#596B73" d="M250 311c2 4-3 8 2 11 5 6 12 1 16 8-2-6-11-12-15-19"/><path fill="#BAECEB" d="M399 217c-4 2-12 3-13 9 0-6 38-2 15-8"/><path fill="#9DA4A1" d="M207 331c-16 9 8 10 12 11-2-5-4-8-7-10h-3"/><path fill="#416876" d="M329 269c17-1-1 7 1 10-5 3-8 1-9-2 2-3 4-6 7-8"/><path fill="#5B858E" d="M491 288c8 5 16 16 25 19-10-3-19-5-26-16"/><path fill="#17111A" d="M314 396c-11 16-49 58-13 18-2 9-3 14-4 19 2-10 3-22 13-29 5 0 7 1 10 2-1 6-6 9-8 14 3-4 6-9 9-13 19 5 12 3 33 5-3 7-8 11-13 14 5-3 10-8 14-12 3-1 5-2 7-1-1 2-2 3-3 4 2-1 4-2 5-4 9 1 18 1 26 2-9 0-16-2-24-3-20-3-36-5-54-10-1-3 1-4 2-6"/><path fill="#15131D" d="M322 204c-22 6-42 16-62 25-7-2-10-7-15-10 0-6 1-8 2-11-2 2-2 6-3 8-3-2-8-4-11-7 2 2 6 6 10 8 4 7 9 8 11 12-5 5-11 8-16 11-5-3-8-5-9-9 2 3 3 6 5 9-9 6-18 12-28 17-5 0-8-3-11-5 2 1 4 3 6 6 1 3-1 3-3 4-3-3-6-5-8-8 3 2 4 6 6 9-9 7-18 13-26 19 22-14 43-29 66-40 8-5 15-8 21-12 24-10 44-21 66-27"/><path fill="#16121B" d="M379 290c8 9 10 20 17 30 6 6 10 9 15 11 4 0 4 2 5 1 6 3 11 1 14 0 12-3 21-7 29-14-12 7-25 14-40 15-8-3-13-6-15-7-12-11-13-24-23-34"/><path fill="#40636E" d="M351 266c-7 9-9 15-10 21 6-1 12-1 14-6-3 0-2-4-6-2 0-3-2-8 2-11"/><path fill="#729EA4" d="M390 246c5 4-2 14-4 19-4-5-3-12 1-15"/><path fill="#60585B" d="M309 357c8 13 16 14 17 23-9 1-6-11-15-12-2-4-3-5-3-7"/><path fill="#1C1D2C" d="M103 351c-4 11-18 25-28 36 7-11 17-21 25-32"/><path fill="#7D7C7C" d="M223 251c-10 3-16 8-20 18 9-5 18-7 16-17"/><path fill="#A2CBCF" d="M336 205c-11 3-23 6-32 13 11-4 31-9 36-14"/><path fill="#7E706D" d="M533 341c-1 4 10-1 12 2 4 6 5 11 7 15 0-4-1-8-3-11 3-2 7-2 9 0 0 8-2 11-5 18 3-6 6-11 8-16v-3l-2-1c-7-4-16-3-23-5"/><path fill="#191219" d="M419 263c-28 18-8 4 8 4 10 3 17 13 20 20-3-8-8-18-18-20-4-1-7-2-11-1"/><path fill="#415B69" d="M256 154c-15 0-4 12-7 16 1-3 5-4 8 2l-4-4c1-3 3 0 4 0-1-3-3-4-4-6 1-4 3-3 4-4v-1l-1-1"/><path fill="#406774" d="M485 287c5 6 11 17 20 21-10-2-17-10-20-17"/><path fill="#426A77" d="M332 270c-6 0-7 4-12 5 3 5 6 6 8 4-4-6 15-5 5-10"/><path fill="#485360" d="M118 355c-14 13-24 25-36 39 12-12 25-25 36-38"/><path fill="#AEDCDE" d="M372 214c-3 2-7-1-9 3-4 3-7 5-7 7 2-8 28-7 19-11"/><path fill="#5A6D75" d="M288 294c-1 8 1 15 4 21 5-8-2-14-2-21"/><path fill="#EFECE2" d="M496 346c-3 1-7 1-9 3-3 3-2 6-3 9 5-4 12-9 14-13"/><path fill="#141518" d="M267 133c22 15 47 33 65 56-17-23-45-43-61-54"/><path fill="#43648B" d="M444 209c27 19 22 10 37 18-7-5-17-10-28-15"/><path fill="#8BB6B7" d="M330 219c-7 6-14 14-15 23 5-7 9-16 18-23"/><path fill="#394D59" d="M489 317c-7 7-7 14 9 9l-6-3c1-4 2-5 5-4-4-3-5 1-6-1"/><path fill="#2B3647" d="M250 202c6 3 13 12 16 19l-16-16"/><path fill="#87A2A4" d="M349 303c-1 3-3 2-4 5-2 5-1 10 2 11-4-5 7-16 6-15"/><path fill="#929490" d="M283 362c8-4 10 5 17 5-7 3-12 1-17-2"/><path fill="#384453" d="M159 312c2 8-9 7-7 14 4-6 8 3 13 6-3-4-8-9-5-18"/><path fill="#394554" d="M139 316c-1 2-2 4-4 6 10-1 5 8 14 8-4-6-5-10-10-12"/><path fill="#518691" d="M97 254c11 12 22 26 31 39-6-14-16-26-29-37"/><path fill="#2C384B" d="M230 216c7 5 12 11 15 18 4-1 6-2 8-3-7-1-14-10-20-14"/><path fill="#F1EEE7" d="M478 373c-3 3-6 7-8 11 2 0 4 1 8 0 2-3 2-8 0-10"/><path fill="#8AB2B4" d="M269 261c-3 6-6 13-3 19 2-5 3-11 5-17"/><path fill="#EBFAF9" d="M425 246c23 12 9 7 28 11-8-7-16-10-26-9"/><path fill="#F3F0E7" d="M445 294c-1 9-3 17-9 24 3 2 6-5 7-6 3-7 5-12 2-16"/><path fill="#885D49" d="M409 275c-8 4-3 2-8 13 9-6 12-5 9-14"/><path fill="#2D3A4B" d="M225 231c1 4 0 12-2 13 4-1 7-1 10-3-1-4-5-6-6-8"/><path fill="#7A706F" d="M372 331c-4 11 16 18 23 22-6-7-25-12-21-19"/><path fill="#8FB7BA" d="M355 265c-9 8-2 10 5 9 1-4-1-7-4-6"/><path fill="#9A7054" d="M437 284c4 4 5 17 0 24-4 4-7 8-10 9-9 2-15 0-19-5 2 6 8 7 13 8 8-1 11-5 14-9 6-9 6-19 3-27"/><path fill="#7D8D94" d="M398 314c0 8 11 12 17 15 8 1 13 1 19-1-5 1-11 1-17 0-7-2-12-7-17-11"/><path fill="#596770" d="M243 316c1 7 4 14 11 18 4-6-9-10-9-16"/><path fill="#2E3C4D" d="M258 155c4 9-6 6 2 10 2 0 5-2 7-4 5 3 9 7 12 10-3-1-7-8-11-10-4-7-6-4-8-6"/><path fill="#8BB0B4" d="M261 268c-1 2-2 7-5 2 0 4-1 9 1 12 5-1 2-7 4-11"/><path fill="#8AA7A7" d="M352 305c-1 6-5 8-1 12 6-1 5-7 3-12"/><path fill="#3C4553" d="M186 276c-9 3-11 5-13 15 3-2 6-4 7-8 2 5-3 7 2 5 1-4 0-7 1-10"/><path fill="#2B2A37" d="M461 415c-11-1-8 3-14 10 4-8 12-1 15-11"/><path fill="#1B0F1B" d="M500 318c-11 0-3 11 5 6-1-4-3-5-4-6"/><path fill="#98BCBC" d="M532 262c-5 1 7 9 10 9-1-4-2-5-8-10"/><path fill="#2C3849" d="M271 366c1 3-2 4-5 5 1 5 2 7 4 9 1-2-1-13 5-12"/><path fill="#F9F9F9" d="M413 281c-3 4 3 11 7 8 1-4-1-8-4-8"/><path fill="#1B131A" d="M529 338c-29 2 21-2 25 4 10 0 9 8 7 10 2-2 1-6 7-7-5-3-24-10-37-7"/><path fill="#59656D" d="M306 411c-4 4-4 11-6 16 7 0 2-10 7-15"/><path fill="#496B84" d="M352 199c-30 5 12 3 17 1-5-1-11-1-17-1"/><path fill="#C5C4B7" d="M374 362c2-2 7 1 7 4-4 5-11 2-7-1"/><path fill="#1D1F2F" d="M95 269c5 3 8 12 11 18-5-5-8-10-11-15"/><path fill="#90B8BB" d="M325 212c-16 10-22 2-25 12 6-5 15-6 23-10"/><path fill="#434D5A" d="M95 376c-9 12-21 24-33 31 14-4 24-19 32-29"/><path fill="#140F18" d="M216 369c1 3 7 3 9 5-2 6-4 9-7 13 3-4 6-7 8-11 4 1 5 2 7 2-1 7-7 6-8 12 4-4 8-7 11-11-6-3-11-7-19-9"/><path fill="#676163" d="M313 352c2 2 7 9 13 8-5 3-12 0-14-5"/><path fill="#2E3948" d="M249 322c4 8 20 13 26 14-5 1-13-11-26-12"/><path fill="#202937" d="M286 399c-20 18-31 31-50 47 19-14 33-30 47-44"/><path fill="#3B282A" d="M481 379c3-2 7 3 9 4-3 1-10 4-10-2"/><path fill="#2F3648" d="M319 415c-3 4-7 6-11 9 3 5 14-4 9-6"/><path fill="#415B68" d="M309 192c5-5 9 2 5 6-6 2-3-3-4-4"/><path fill="#57545C" d="M188 272c-14 9-34 21-47 25 16-3 31-17 46-23"/><path fill="#2D3747" d="M117 310c7-2 3 7 5 9-5 0-5-4-6-6"/><path fill="#576873" d="M208 296c-4 2-9 2-13 4-1 4 0 4 2 6-1-14 11 0 10-8"/><path fill="#5E7079" d="M295 293c-2 5 1 10 3 13 0-4 1-10 0-13"/><path fill="#495A64" d="M447 318c-9 3-16 10-27 8 11 3 29-7 28-5"/><path fill="#475969" d="M536 272c5 2 4 9 10 10 2-7-5-7-7-9"/><path fill="#303C4A" d="M379 285c-13 0 12 7 11 19 2-4-7-8-3-18-1 2-1 3 0 5-5-1-6-4-7-7"/><path fill="#5B878F" d="M524 315c2-1 11-1 9 2-6 6-3-3-8 1"/><path fill="#4C7A88" d="M446 330c-3 3-15 3-10 10 4 2 0-4 11-10"/><path fill="#ABDDDA" d="M345 235c-6 3-10 8-10 14 4-2 5-9 9-12"/><path fill="#455462" d="M198 288c-1 2-4 4-3 9 7-2 9-9 6-9"/><path fill="#F7F5F1" d="M419 274c-6 3 2 7 5 5 1-4-2-5-3-5"/><path fill="#586B7A" d="M464 415c-1 6-5 11-11 15-6 6-13 7-19 8 9-1 17-4 24-9 5-5 5-9 6-13"/><path fill="#15141C" d="M426 246c-2 1-6 0-7 2-8 3-13 6-18 10l-1 3-1 1-2 1c-3 5-6 9-8 14-2 7-2 14 0 19 1-5-2-11 1-16 2-9 6-14 10-20 5-5 11-10 16-12 5-3 25-3 11-2"/><path fill="#3A4A57" d="M316 337c-1 2 1 7 3 8 3-4 3-8-1-9"/></svg>