<svg xmlns="http://www.w3.org/2000/svg" width="600" height="600"><path fill="#91715C" d="M367 118c0-2 1-1 3-1 10 3 18 9 24 16 8 8 11 16 13 24 5-5 0-11 4-15 7 6 13 12 16 18 13-4 27-5 38-1 19 7 34 18 37 37 2 10 2 18-2 24-3 9-9 12-16 14-8 2-14 4-22 2 14 32 16 28 33 67-1 5 6 10 0 15-4 1-9 0-11-2 8 11 10 23 12 35-6-2-6-8-12-12 2 7 4 16 1 23-3-3-7-6-11-11 1 18-4 39-12 55-9 13-19 22-32 31-12 10-28 11-42 16l-4 8c3 4 7 5 9 7 0 5-2 7-5 7-13 4-22-1-33-1-7-7 3-19-3-21-28 1-58 0-77-2-3 4-5 7 1 9 7 8 16 10 20 16-17 6-24 5-42 3-8-21-33-29-48-43-5 2-12-4-11 0 3 2 5 4 8 5-3 5-3 12-2 17 6 6 11 4 14 8-11 2-19 6-33 3-7-5-11-11-14-18-1-9 1-14 4-19-18-24-42-36-56-59-2 3-9 3-12-1-2-7 5-10 7-10-1-16-4-33-1-50-6-5-14-6-14-15-1-11-3-22 2-29 3-6 8-7 11-5 8 4 13 8 18 10 7-7 14-13 20-18-8-10-13-21-21-30 6 0 10 1 14 2-2-4 0-8 4-6 11 4 16 13 21 20 12-1 18-13 28-8 2-6 2-3-1-9 5-1 9 1 12-1 8-14 19-20 32-27-12-2-23-18-20-23-4-9 0-16 5-22 5-7 8-9 13-13 14-8 27-9 43-8 14 0 23 9 34 12-7-5 5-2 7-4-2-6-9-11-7-17 9 4 16 9 20 14 7 3-2-5 4-5 6 7 13 6 19 8-4-7-11-10-17-15 19 2 26 4 37 7-1-4-3-9-7-10"/><path fill="#8B6F6A" d="M399 286c5 8 12 14 17 21-17 19-54 34-73 55-15 4-31 3-47 6-6 0-6-4-8-5 2 7-7-1-7 4-3-3-7-4-8-7v-2l-2-2c1 5 0 7-4 6s-7 2-8-1c2 2 3 5 4 8 6 0 8-6 9-9 4 7 7 14 12 21 5-1 9 3 8-4 6 5 8 9 11 13 12 0 19 15 30 18 8-7 12-6 25-17 1 8 9-8 13-1 11-6 18-11 30-12 4-6 4-11 9-12 6-3 13 2 14-7 2 3 5 5 6 7 5-4 7-9 8-13 13 13 1-11 20 3 3-5 1-9 0-11 8-3 14 9 16 2 4 4 6 10 8 10l1 1 1 1c3-20-7-26 1-1-4-8-5-13-7-18-8 2-10-9-16-11-9-11 2-20 4-27 1 1 4 1 6-5-3 0-1-7-1-8-1 5-9 7-8 10-1 1-21 10-23 9-15-7-22-1-40-22"/><path fill="#FBF2D5" d="M193 235c0 2 4 3 2 7-12 4-1 13-12 16 4 5 11 2 18 1-6 10-20 14-24 26 4-4 9-5 14-7-2 5-4 5-5 9 2 2 4 2 6 3-20 16-19 27 3 6-1 6 6 9-3 12 9-2 17-3 24-6 2 3-1 4-2 7 12-1 10 8 28 8 1 4-4 5-2 7 10-2 15-2 24 0 11-6 11-18 21-25 7-6 17-5 24-10 4-14 14-20 23-24-6-6-6-14-9-17-21 6-37 16-55 23-8 2-13-3-17 0-30-9-36-28-58-37"/><path fill="#31262E" d="M274 364c-16 9-17 30-32 32-6-3-10 2-18 0 4 7-1 6-2 11-72-18-19 26 9 46-5-4 1-7 3-9 14 1 30-3 38 9-12-11-27-12-41-18 8-5 5-8 17-2-3-2-6-3-9-4 9-5 13-7 23-10 17-2 22 8 48 11 27 6 20-5 43-6-6-2-13 0-18-6 4 2 5 6-1 5-2-10-15-17-21-25-1 1 0 2-1 5-7-7-10-10-14-18-4 0-7 3-10 0-8-6-11-13-14-21"/><path fill="#FBDD89" d="M312 122c-2 7 9 13 11 16-10-1-9 3-12 5 8-7 18 4 29 4-11 6-25-2-37 3-21 4-6 7-27 17-7-1-15-1-20 2 1 2 5 4 9 5-13 2-6 14-21 13 2 4 2 7-2 9 6 2 6 6 11 9 10 0 16-11 26-11 16 1 13 0 37 0 7 6 15 2 19 9 8 5 14-2 18 2 6-11 15-6 20-15-5-12-6-6-18-14 0-5 4-7 5-11-6-3-12-3-19-2 11-5-2-11 5-17 6 7 8 3 4-1 5 0 16 4 22 14 5 5 10 15 4 18 8 3 1-14-2-16-8-14-24-19-27-21-1-1 1 3 2 5-22-3-18-15-36-21"/><path fill="#F5BF6A" d="M347 147c-7 4 6 10-3 12l-1 1-1 1v1c7-1 13-1 17 2 2 4-3 7-4 10 14 6 13 9 19 16-11 6-18 16-28 16-16-6-19-6-32-13-5 8-15-2-22 1 2 0 13 6 13 15 3 12 0 20-4 28-4 7-13 12-18 13-12-2-11 2-20 2 16 2-1 12 7 7-2 7-13 7-8 9 23-7 50-24 79-23-2-1-10-1-4-3 4 1 6 0 8 2-1 2-1 4-2 6-5 0-8 0-9-4-5 4-1 7 1 8 6 1 10 0 13-1 4-5-2-5-3-6 4 0 7 0 9 1-6-7 1-7-1-9 11-2 15-20 23-26 10-13 14-5 25-8-5-16 2-36-24-38l-1-1v2l1-1h1c2 3 3 6 2 10-3 4-10-3-2-1 0-8-4-6-8-9-5 2 6 1 7 7-5-1-7 9-11 5-3-8-1-1-7-7 1-3 3-5 5-6l-1-1-1-1h-3c-4-2-9-3-14-4 4-4-1-15 5-10"/><path fill="#302633" d="M463 349c-8 15-23 7-30 18-4 1-5 0-6-1-5 10-10 18-19 25-23 13-45 25-50 28 1 4-4 2-2 3 11 1 22-1 32-1 2 1 6 4 2 8 0-2 6-4 7-1-2 7-9 16-10 16 7 2 11-7 16-5-13 17-36 10-49 28-4 0-2 4-1 5 18 5 5-10 30-4-8-5 7-3-12-6 2-4 3-4 4-6 23-5 23-11 45-18 9-9 14-12 23-21 10-8 10-18 15-25-5-15 22-34 7-46"/><path fill="#A38577" d="M396 287c4 2 6 6 1 9-15 3-30 17-47 11 4-5 2-11 3-18-2 14-8 4-7 16-8 4-15 3-22 3-15 9-6 33-20 43-10 12-21-2-24 6-9-13-19 5-26-10 3 6 3 10 6 14 7 3 12 1 11-6 3 7 7 8 9 13 0-8 9 2 6-7 4 2 5 6 7 6 19-3 32-2 47-6 13-29 98-34 60-73"/><path fill="#1F1520" d="M361 415c-8 13-22 8-27 17-12 0-28-1-44-5-7-8-15-6-20-8-15 5-17 2-30 9 3 2 6 3 9 4-13-4-9-1-16 1 12 7 25 8 39 16 20 3 51 4 82 3 1 4 2 9-1 11 12-7 76-30 33-17 4-6 9-12 10-18-8 3-3-7-8-6-18-2-11 2-33 2 2-4 3-7 8-8"/><path fill="#E19951" d="M368 117c4 5 6 9 9 14-4-1-1 4-7 3 1 4 9 9 10 14-10-11-22-19-34-24 11 15 19 25 34 41 5 3 11 1 13 7 12 10 2 14 9 23 1 4 2 7 0 9-10 7-13-3-20 5-10 10-24 33-29 32 3 10-2 6 4 11 6 3 10 7 18 5-2 5 1 1 2 7 2-3 2-5-1-5l-2-2h-1v1-3c7 3 7-1 12-2-3-11-6-23 1-33 4-5 8-9 12-11 8-1 13 0 17 2-8-9 13-6 4-15 7 1 11 1 15 3-18-7-22-25-45-34 7-7 9-17 8-25-6-10-17-15-27-22"/><path fill="#201117" d="M181 309c-5 17-7 36-14 52-1-5-6-4-9-5 2-9 2-20 4-26-4 16-11 34-22 43-3 5-6 7-11 7-5-1-7-6-9-8 0 10 5 14 11 17 4 0-2-4-1-6 8-1 12 6 17 4-6 5-2 4-2 9-12-3-2-4-15-4 19 13 43 15 49 25 1-2-1-3 0-5 13 9-5 12 6 16-9-1-16 1-21-5 9 5 25 22 29 19 0 4-1 7-4 8-1 6 1 9 4 11 8 1 13 5 18 6-3-6-7-2-11-8-2-8-1-14 5-19-4 3-7-2-11-1 2-8 8-2 10-4 6 3 9 7 15 9-5-3-10-6-14-9-8-7-12-14-17-20-8-9-10-19-13-28-6-24-1-53 6-75"/><path fill="#E2D1B4" d="M328 269c-7 0-12 7-15 13 0 4-1 5-3 6-8 7-18 6-23 11-11 7-12 20-23 26-10-1-15-2-24-1-1-1-1-3 2-4-17-2-17-11-28-11 1-3 2-4 4-5-9 2-17 3-24 6 3-6 2-7-1-10-5 2-10 4-14 10 3-3 8-6 12-8-2 6-4 12 2 17 6-6 10-9 14-13-1 6-1 14 1 19 8-3 11 3 17-6 0 8 10 10 4 13-1-1 5-1 5-5 4 4 4 4 6 8 7-1 10 2 14-6 0 8 14 6 13 16-1-4-3-9-4-13 6 1 5 8 9 11 23-6 22-34 41-39 2-7-1-13 1-19 2-8 6-14 12-14"/><path fill="#503D3C" d="M254 353c1 4 5 8 2 12-4-5-9-6-14-9-4 4-12 1-5 8-5-3-7-8-11-9-8-2-15 1-22-1-4 1-3 4-1 1 7 0 12 1 17 4 3 3 4 5 5 6-3 1-5 1-6 3 5 5 8-3 11 6-8-1-35 28-53 17 3 9 5 12 7 15 14 0 24 1 36-1 4-5 5-2 2-9 19 2 20-4 29-4 5-4 5-11 5-14 9-3 19-11 6-7-3-8-5-12-7-16"/><path fill="#92412F" d="M448 211c-5 9-6 3-18 13-20-18 0-2 3 10-5 7 1 16-5 22-3 4-9 5-18 9-7 2-23-9-19-8 31 13 57 10 77 28 1-16-8-30-10-45 1-1 3 1 6 0-19-14-2-18-18-27"/><path fill="#735957" d="M447 349c2 9 0 9-7 3-1 3-3 3-3 4-2 5-3 8-6 10-3-1-4-3-6-6-5 11-8 2-15 6-4 2-4 8-7 10-16 4-33 18-45 16-11 12-17 8-24 16-15-4-18-17-31-17 9-4 25 31 44 31 22-10 42-24 60-31 10-9 15-17 17-27 4 1 4 3 6 3 4-2 5-5 7-8 4-1 1 2 3 2 4-1 14-5 10-10"/><path fill="#F7BE63" d="M244 193c-16 8-26 17-35 31-7 3-10 3-13 1 3 3 5 7 10 3-1 7 6 10 8 15 12-3 22-3 34-3 3-2 2-6 5-7-4-1-5-3-8-2 4-3 7-1 10 0 4-22 31-42-3-23-2-8-12-7-9-14"/><path fill="#C4AD95" d="M316 281c-4 8-1 15-1 22-18 5-18 24-30 35-5 3-9 8-13 5-1 3 0 4 1 6-5-5-9-15-8-16 0 3 1 6 3 9-2-7-15-4-14-10l-1-2 1 2-1 1-2 2c-4 2-5-1-10 2-1-4-6-4-4-6l-1-1v-1h-1c-2 1-3 4-5 4 0-2-4-8-4-11-2 2-1 8 2 12 4-1 5-4 7-5 2 6 1 11 3 14 5 0 9-5 13-8 1 5 3 13 9 16 14-1 21 4 31 4 9-3 12-5 17-9 4-14 5-29 16-36 15 7 30-22 18-4-8 0-13-3-17-5 12-8-17 2-9-19"/><path fill="#8E725C" d="M186 307c-4 12-8 17-13 58 14-2 20-6 31-13 19 3 19-4 32-1-2-2-4-5-6-8 4 3 8 7 13 9-4-6-9-9-8-21-2 2-3 3-4 5-5 0-5-4-7-5-2 2-4-5-8 3-3-5 4-6 5-10h3l-2 2c-11 0-14 9-25 10-2-4-8-8-11-9 2-6 6-3 9-8-3 3-7 0-6-3-3-5-2-8 0-9"/><path fill="#5F2F1F" d="M184 284c-10 2-12 10-16 11 0 6-4 14-6 10l2-2v1c-13 10 0 15-3 19-8-3-15-1-20-4 2-7-7-12-2-18 1-6 1-10 1-14-3 3 2 8-2 12-7 0-8 14-17 14-11-4 3-8-9-12-8-3-4 5-9 3 6 4 13 12 18 12 6-1 11-3 14-9-1 8-2 17-10 17-2 8 12 6 18 18-7 7-3 7-9 11-10-3-2-11-7-8-4 3-1 6-1 9 5 0 11 1 13-6 5 4 2 8 0 10 2-6 8 0 12-5-1 5-3 8-5 11 8-9 10-20 13-30-4-3-4-3 0-1-5 1-10 1-14-3-1-3 5-6 16-1 4-10 4-21 7-30 2 13-2 27-5 41 0-1 1-2 1-4-1 12 8-2 6 8 12-30-2-35 16-61"/><path fill="#221620" d="M398 214c-10 3-1 8-12 33 16-1 29 3 30 10 6-5 9-8 9-12 1-9-1-14-3-20-3-5-7-9-11-10s-5-3-8-2"/><path fill="#2F2327" d="M285 200c0-1-10 9-12 6 0 5-12 10-11 24 11-1 18 11 29 8 12-8 4-20 11-24 0-8-6-16-15-14"/><path fill="#672A2B" d="M442 178c-31 17 26 7 35 18-1 7 0 14-13 14-11 4-10-14-23-10 0 5 8 4 11 5 0 4-1 6-3 9 16 11-7 7 14 22 0-2-10-5-7-10 11-1 21 2 26-6 5-5 5-10 4-16-1-7-7-10-9-16-7-4-12-6-17-7h-17"/><path fill="#67524B" d="M201 354c-9 8-15 10-23 8-5 11-2 21 0 31 12 5 30-8 42-15-8 0-14-4-20-10-5-8 2-7 2-11 6-2 9-1 12 0-7 3 11 6 4 10 10 2 3-7-3-9-4-2-7-3-10-3"/><path fill="#221521" d="M458 167c-45 9-3 12 13 14 6 6 11 9 13 14 7 10 2 24 9 26 3-2 4-7 5-12 2-1 2 3 1 5 1-8 0-15-3-20-4-8-6-15-13-18-7-5-13-8-20-8-4-1-5-1-6 0"/><path fill="#BA6B3B" d="M398 141c1 8-2 17-7 20 8 10 16 15 24 20 6 4 1 7 6 10 9 1 13 4 22 6-6-5-12-9-16-16 2-5 3 3 6 1-2-5-5-1-8-11-1-5 3-9 4-3-4-9-8-17-15-22 1 18-2 6-5 14-5-6-6-13-10-18"/><path fill="#A39EAE" d="M464 247c3 15 11 28 14 41 2 4 5 5 8 7-4 1-7-1-10-3-1 17 1 22-4 35 4 6 6 12 9 17-1-7-6-13-7-20 9 9 14 18 18 21 1-10-3-21-9-30 4-2 5 3 9 3 3-3 4-1 5-6-15-33-14-38-32-62"/><path fill="#C46E32" d="M108 264c5 4 7 9 9 14-1 4-4 3-2 7-3-3-4-5-3-9-5-1-6 4-10-1 1-24-12 17-5 23 6 0 11-2 14-6 8 1 13 5 21 5 0-9 8-3 3-14-9-8-17-14-24-19"/><path fill="#C2AA96" d="M374 262c5 9 15 12 12 20-7 10-15 5-28 8-4-7-4-10-9-12 5 7 6 20 2 27 5 3 8 0 14 3 14-5 22-11 33-13 3-5-7-11 2-9-9-3-11-14-20-17 40-1 40-1-1-2-1 0-5-3-2-5"/><path fill="#DED0B9" d="M356 256v-1c2 0 5 4 7 5-2 6-4 6-7 9-26-6-1 6 1 19 13-2 22 3 29-6-1-9-14-23-24-25h-2l-1-1"/><path fill="#8D524C" d="M242 447c-14 9 15 17 8 27 21 6 25-4 32 0-6-6-10-18-21-21-6-4-11-4-16-6"/><path fill="#8B4336" d="M399 269c-13 14 32 6 36 15 9 2 16 6 26 13 4-1 4-4 6-4-7-13-23-17-34-21-11-2-22-3-33-2"/><path fill="#B96856" d="M339 261c-13 25-20 10-20 25 6 8 12 14 21 12 7-1 8-6 9-13-10-12-14-23-9-21"/><path fill="#B6946F" d="M261 132c-7 2-14 4-2 3 8 4-6 3-2 6 5 0 18 4 25 14 20-2 7-10 23-14-10-2-18-8-26-10-7 0-12 0-17-1"/><path fill="#B27346" d="M175 247c-7 4-15 4-21 9-7 7-12 12-16 19 9 8 2 24 12 29 10-2 14-6 18-14-1-1-9-1-14-4-8-6-1-15-7-11 3-18 22-20 31-29"/><path fill="#392323" d="M240 143c-3 3-8 2-11 6-11 3-9 8-13 14-4 11 5 6 7 22-2 1-3-6-5-4 7 6 13 16 22 12-5-4-10-10-12-16-2-8-4-14-1-20 4-4 6-7 9-8 13-3 24-1 33 2 3-7-19-10-27-7"/><path fill="#8A463D" d="M397 281c10 8 32 7 40 24 9 3 14-3 21-4-7-7-13-11-20-15-13-6-26-5-37-7"/><path fill="#B1675A" d="M244 160c-25-4-14 27-1 28-6-9 11-8-3-12 25 4 3-17 38-10-12-7-23-6-33-8"/><path fill="#8C403B" d="M437 190c2 3 4 4 6 7-11-2-14-5-3 3-2 2-4 2-7 1 13 2 14 8 7-4 3 2 7 1 8 3 4 3 11 6 7 9 13 1 24-2 21-10 0-7-9-6-15-8-9 0-16-1-23 0"/><path fill="#B9623D" d="M424 197c-12 12-11 15 8 27 13-11 7-4 19-17-33-5 2-10-30-9"/><path fill="#C97661" d="M335 273c6-3 13 7 13 13-3 9-8 13-16 12-6-3-10-7-9-12 2-7 5-11 9-13"/><path fill="#52636A" d="M113 315c3 8 1 17 2 32 4 11 8 26 16 29-2-6-4-28-9-33-1-5 4-7 6-10-11-3 1-19-13-17"/><path fill="#8A5033" d="M174 244c-5 1-9 3-14 5-10 10-20 15-27 25 0 3 8 5 6 11 2 13-2 24 4 32 5 4 11 2 15 5-4-5-2-13 3-21-4 2-11 6-13 1-6-9-5-19-12-25 5-9 11-15 17-20 7-7 22-9 24-13"/><path fill="#94818A" d="M472 288c4 17-15 14-11 35 0 6 13 14 2 11 6-1 9 6 13 3-1-5-6-8-6-13h3l1 2c3 3 4 12 7 12 2-6-2-10-6-13-2-19 1-15-1-36"/><path fill="#CF7D67" d="M336 274c-6 0-10 4-11 10-1 8 3 13 6 13 8 2 13-3 15-8 1-8-4-15-9-15"/><path fill="#68322E" d="m265 145 2 1c2-1 9 5 2 5-9-2-17-3-26-2-7 0-10 3-13 7s-3 7-4 9c1-6 10-6 14-8 16 3 60 6 25-14"/><path fill="#2A2432" d="M148 403c-2 1 8 13 12 17 8 7 15 6 23 8-10-5 8-7-3-15 0 1 0 3 1 6-7-6-19-13-29-15"/><path fill="#844C4A" d="M173 433c-3 7-5 15-1 22 4 4 5 8 9 10 7 3 16-1 17 3-17-3-13-23-22-34"/><path fill="#565669" d="M474 356c-15 19-14 39-22 50-14 19-28 32-45 39 9-1 17-5 24-11 7-5 12-10 19-17 13-16 13-40 23-59"/><path fill="#2D1E2D" d="M487 204c1 8 0 14-5 19-8 7-19 1-26 4 5 9 13 6 19 7 10-4 7 0 14-5 11-3 13-35 4-3-4-7-6-11-5-20"/><path fill="#96441B" d="M115 291c-22 10-15 19-4 6 13 7 3 11 8 17 10-1 13-19 19-13 0-2 1-5 1-8-6 0-4-1-6 6-9-1-14-5-20-7"/><path fill="#8E7369" d="M445 156c-43 22 37 8 27 7-6-5-16-6-26-5"/><path fill="#E59F46" d="M346 150c1 4 6 8-1 9 7 2 13 2 18 5 0 4-6 6-3 9 5-5 12-9 16-4-2-8-7-14-12-18-6 2-8 4-16-1"/><path fill="#CE9660" d="M174 251c-8 5-19 7-23 17-1 3-3 3-3 4 0 8 11 19 20 16 0-4 1-2 0-10-9-3-9-13-17-7 6-10 14-13 21-19"/><path fill="#DA8A71" d="M333 275c6-3 12 5 10 10-4 5-6 10-11 8-5 0-7-5-8-7 1-6 4-9 8-10"/><path fill="#3B2A2A" d="M151 353c-4 6-9 0-11 7-4-1 0-3 0-4-3 6-7-2-11-2 0 4 2 5 3 7-10 10 7 12-3 17 14-3 16-12 21-22"/><path fill="#432119" d="M169 299c-3 9-3 20-7 28-6 2-10 0-15-1 4 4 11 3 14 8-3-3-1-5 2-4-3 10-2 18-7 27 2-2 13-1 10 3 5-10 7-23 10-34 0-5 0-5 1-2-2 7-5 10-5 15-6 7-6-3-8 0-2-4-1-6 0-7 3-12 4-22 6-32"/><path fill="#6E564B" d="M231 342c3 5 5 6 6 10-20 3-25-5 0 10-8-4 3-5 4-7 6 2 12 7 15 10-3-8-1-13-3-18-4-2-4 5-8 1-1-2-2-4-1-5-7 3-1 5 0 10-7-2-11-10-11-9"/><path fill="#64574F" d="M288 201c4-1 12 2 12 8-1 5-4 6-6 8-6 1-10-1-12-4-1-6 1-9 4-11"/><path fill="#DE9076" d="M335 276c-3 1-6 1-7 4-4 4-2 8-1 11 7 3 12 1 14-4 2-6 0-11-5-12"/><path fill="#A28368" d="M207 308c-10 7-12 14-20 17 4 2 6 7 9 8s7 2 8 2c3-21-7-2 3-28"/><path fill="#5D312F" d="M235 443c-12 12 9 16 12 23l-9-12c-1-3 2-6 3-7 13 0 21 5 30 9 0-6-5-9-11-10-9-2-15-2-24-3"/><path fill="#372427" d="M201 362c-2 6 6 10 10 13 4 1 11 3 17 0-3-4-14-8-24-12"/><path fill="#EEA354" d="M243 250c-13 4-18-1-7 8 10-3 23-1 33 1 3-5-6 0-7-7-8 0-13-2-19-1"/><path fill="#F3C062" d="M320 141c-43 10-5 5 20 10-10-10-14-1-20-10h-3"/><path fill="#F0A651" d="M228 244c-3 12 30-3 41 8 0-6-9-7-13-8h-24"/><path fill="#8F4E44" d="M401 286c16 16 20 16 30 18-6-10-16-14-28-16"/><path fill="#CE9160" d="M147 227c1 3 3 5 6 7-1 4-4 2-6 1 5 7-6 7 1 10 5 4 8 0 11-2 6-1-3-13-10-16"/><path fill="#8DA0B9" d="M474 165c-2 5 23 12 23 27 4 9 6 18 3 27 4-9 3-22-1-30-4-12-18-23-24-24"/><path fill="#B3714D" d="M145 222c-6 1-3 3-1 6-24-9-5 2-2 13 8 0-2-11 9-5-11-7 2-10-4-12"/><path fill="#89B4B8" d="M111 312c-2 14-1 28 2 42 5 9 7 18 14 25-5-10-10-19-12-29 2-16-7-17-2-37"/><path fill="#5A4B4B" d="M400 216c2-2 5 0 7-1 5 3 4 6 4 9-2 2-5 5-6 4-6-2-10-6-6-10"/><path fill="#B96B44" d="M386 256c-22 3 3 16 18 10-6-1-12-4-15-10"/><path fill="#F0E5CF" d="M356 255c-4 5-8 10-14 10 4 1 7 8 13 3 7-7 14-1 3-11"/><path fill="#502C2E" d="M381 463c-5 8-12 4-17 8 13 4 38-2 17-6"/><path fill="#8C5738" d="M186 264c-5-1-6 6-10 4-1 16-1 9-7 22 5-9 15-16 18-25"/><path fill="#855537" d="m183 237-2 2c2 6-3 12 0 17-2-7 14-13 6-21"/><path fill="#5D3E31" d="M173 240c-13 5-30 17-38 28 12-7 21-18 34-24 4-1 6-1 9 0 3 4-1 7 1 11-1-4 2-7 0-10 1-8-3-4-6-3"/><path fill="#ECA45D" d="M249 260c-13-1 1 5 5 6 8 0 11-1 15-5-6 0-12-1-18-2"/><path fill="#C86145" d="M348 247c5 1 8 9 1 10-9 2-14 0-19-4 3 10 5 8 11 10 10-5 20-13 10-14"/><path fill="#5D4845" d="M178 370c3-2 6 1 8 5 1 4 0 6-2 7-16-10 4-9-6-9"/><path fill="#90AAC1" d="M473 363c-7 12-5 27-14 38-3 10-8 16-13 23 4-6 10-11 14-18l-1-1v-1h2v-3c6-11 11-23 12-36"/><path fill="#874121" d="M131 340c-6 3-2 9 0 12 8 0 4-5 9-5-5-1-5-5-8-6"/><path fill="#C98F58" d="M103 265c-3 3-2 5-1 8 4 8 4 0 8 3 3-5-4-8-6-10"/><path fill="#C79C6C" d="M250 134c-2 1-4 1-5 2-8 2-15 6-19 10 4-10 35-3 25-12"/><path fill="#9B4F31" d="M427 165c-6 8 5 14 7 15-4 5-10-6-8-1 4 5 6 5 10 4 8-5-9-8-7-16"/><path fill="#622F28" d="M428 224c1 4 4 6 4 10-3 2-6-4-6-3 4 7 2 14 3 19-10 16 2-8-8 5-7 12 8-2 1 9 8-6 9-18 8-27 1-5 1-8-1-11"/><path fill="#AD6444" d="M384 269c5 3 7 11 15 8-4 2-6-3-2-5 1-1 2-6 9-3h-19"/><path fill="#EAAA50" d="M370 170c-2 2-5 2-5 5 4 6 18-3 6-5"/><path fill="#F8CE7A" d="M332 230c3 0 8 3 11 5-6 1-18 4-12-5"/><path fill="#F4C473" d="M244 176c9 1-2 3 7 9 3-4 6-8 9-8-4-1-8-2-14-1"/><path fill="#E78C64" d="M330 245c-7 7 0 8 7 10 6 1 11 3 15 0 1-4-1-5-3-6 3 2-1 6-4 5-8 2-12 1-14-4-1-3 2-5 3-4-1-1-2-1-3-1"/><path fill="#F7CC7A" d="M380 184c4-1 6 0 10-1-1 6-17 13-11 3"/><path fill="#36262D" d="M401 250c0 1-5 0-1 1 3-2 4 0 6-1-21 6 6 6 11 5-5 1-9-8-15-5"/><path fill="#F8D392" d="M198 230c1 2 9 8 14 15-1-6-7-10-6-14-2-1-4 0-7-1"/><path fill="#EAA352" d="M253 232c-1 4-2 10-8 8 10 2 19 3 10-8"/><path fill="#E5A389" d="M332 278c3-2 8 0 8 4-2 3-11 5-9-2"/><path fill="#E0B37C" d="M156 264c-2 1-1 7-5 4 3 1 4 0 6 0-3 5 15 5 12 13 2-2 0-4 1-8-9-2-5-12-11-4-4 1-6-3-3-3"/><path fill="#5C2E2E" d="M174 433c11 5 7 17 13 24 3 7 8 7 12 9-21-3-7-27-22-31"/><path fill="#292930" d="M129 382c4 2 2 4 7 8 5-1 7 0 9-1l2-1-1 1c-5-3-9-5-14-6"/><path fill="#0E050F" d="M394 217c-5 4-5 9-7 16 7-4 5-12 8-16"/><path fill="#D6C4AF" d="M324 297c-1 6 16 8 20 6-4-3-12 3-17-5"/><path fill="#403D50" d="M443 410c4 3-7 12-9 16 0-5 4-9 7-13"/><path fill="#523E3C" d="M181 369c5 10-10 2 2 13 5-4 3-9-1-11"/><path fill="#512F35" d="M384 453c-5 1-9 4-11 8 3 0 16-9 14-9"/><path fill="#AC9079" d="M252 335c-4 2-10 8-4 13 1-9 8-3 2-12"/><path fill="#382A2B" d="M131 312c-2 3-5 3-7 5 2 4-3 3 0 5 20-12 0 2 6-8"/><path fill="#36262B" d="M261 232c11 2 18 10 29 8-11 1-17-9-26-9"/><path fill="#401B1C" d="M176 434c4 1 7 3 9 7-1 6 1 12 3 16-4-6 5-9 5-14-2 8-9-8-14-8"/><path fill="#A88186" d="M460 242c1 2 1 4 2 6 1 9 4 14 9 19-3-5-7-11-7-18 0-3 3-1 4-2-1-7-3-1-7-4"/><path fill="#FAF1CF" d="M177 252c-1 8-5 7-7 9 5 2-2 7 2 10 3-5 3-11 4-17"/><path fill="#F6DFB0" d="M197 228c-3 5 0 7-5 16 2-5 3-9 11-8 5 8 12 11 15 17-1-5-16-18-22-22"/><path fill="#260D0D" d="M413 212c8 6 13 14 17 23-1-9-7-18-15-22"/><path fill="#F1B466" d="M224 245c-10 0-1 8 5 5-2-1-1-5-4-6"/><path fill="#ECC993" d="M168 264c-3 0-3 1-5 3 2 5 9 3 7 11 5-5-4-7 0-14"/><path fill="#89705D" d="M202 357c-1 7 14-2 14 10 6-3-8-7-2-9-5 0-6-2-9-1"/><path fill="#352628" d="M290 202c-2 1-5 1-6 4-2 2-2 3-2 4 2 6 6 7 9 6 5-1 7-3 8-5-3 4-9 5-13 3-2-3-3-4-2-7 3-4 6-5 10-4l-1-1h-1v1"/><path fill="#593A32" d="M391 214c-5 6-8 13-8 21 4-5 3-13 8-18"/></svg>