<svg xmlns="http://www.w3.org/2000/svg" width="600" height="600"><path fill="#926544" d="M377 98c4-2 7 2 11 2 8 12 18 18 25 28 10 2 17 7 23 12 1 6-5 3-6 7 4 2 6 7 8 10-4 5-7 1-10 1 0 3 0 6 2 8-2 10-12-4-9 9 21 7 21 29 42 35 2 11 3 19 6 26 6-5 14-8 22-10 51-5 41 4-5 4-4 3-10 6-15 11-1 3-1 5 0 7 15-4 27-8 43-7-14 2-30 7-43 13 15 0 27 3 39 5s22 5 28 10c-22-6-45-10-67-10 14 2 26 3 36 7s19 6 26 11c-14-5-27-9-40-12-10 0-18-4-24 1 14 5 27 11 38 18 12 7 23 13 31 23-21-16-44-27-67-35 2 7 28 17 35 32-8-7-21-18-34-24 10 7 17 15 25 25 3 4 7 9 6 12-11-14-25-28-37-37 11 15 21 30 25 49-7-17-16-32-29-46-4 1-4 5-8 7 3 10 1 21 1 31 0-8-2-20-4-28-10 2-14 12-24 13-2 10 3 16 3 24 6 13 15 22 17 34-12 3-4 19-16 25-10-3-14 2-24-1 1 8-2 17-3 26-10 16-17 35-30 47 11-5 25-4 38-5 8 4 12 13 18 13 5 4 2 7 3 11-23 5-45 6-67 7-14-2-25-6-31-15-9-2-17 6-19-1 0 0 3 3 0 6-19 6-36 15-57 12-5 3-3 7-6 9-8 0-14 0-17-6 1 3-1 9-5 7-13-6-21 2-32 1-10-6-22-6-27-16-14-2-26-2-36-8-18-8-31-20-46-26-20-13-30-42-42-49-5-7-4-29-9-23 0-38-4-38-5-61 11-25 23-44 36-65-2 0-8 2-9-3 11-12 23-18 35-26-3 2-10 3-7-3 19-6 22-21 40-22 2-8 5-17 14-18 24-15 52-16 75-28-1 1-3-3-1-5 8-2 11 3 15 4 6-14 35-6 40-19-1-2-7 1-5-4 25 1 15-10 37-3 6-4 10-7 15-8-2 1-2-1-5 0 1-4 2-5 4-4 16-3 27-1 42-1-1-2-3-3-2-6 9-1 16 0 22 4-1-4-4-5-6-8"/><path fill="#C7854E" d="M270 225c-9 6-11 5-19 15v2l1-3c4 0 11-6 16-2-7 5-12 8-17 11v-2l-2 1c7 2 8-1 16-3 0 11-4 12-10 14 6 11-2 26 1 30 0 0 3-7 7-5-8 10-12 13-14 22-11 5-20 5-24 13-8-6 3-3-1-17-3 6-7 16-12 11-11-6-20-11-30-21-3-2-5 11-11 17-5 2-1-5-3-9 2 6-6 5-6 11-2-8-2-16-6-17 0-5 3-9 7-11-13 16-17 36-33 52 3 2 5-6 9-8 3 34-16 22-9 38-6 4 0-16-4-6-1 12 1 20 1 28 1-4 2-8 5-12 0 9 1 16-1 22 2-5 8 0 7 4 4-5 1-13 7-17 11 13 15 29 24 42 7 13 22 7 19 15 29-9 72-15 87-23 2-4 6-7 4-9-9-14-18-23-28-34-1-18-10-30-10-46 4-6 2 6 4 7 2-1 2-3 4-3 0 10 0 18 7 23 7 8 13 13 21 16 11 9 27 6 36 7 0-5-1-5-5-9 7-1 10 3 14 4-6-3-11-7-19-6-5-11-18-16-20-27 3-4 4-5 6-5 3 3 6 6 8 7-2-1-5-4-6-6-2-5-4-7-3-11 5-7 7 13 12 1 2-4 2-8 2-12 5 1 3 6 5 10 4-11 2-21-2-29 10-13 22-17 33-19 4-4 8-5 11-7-8-11-2 1-9 5-9 1-5-6-1-10-8-6-13 2-18 0l3-1h-3c-12 6-24 11-35 20 8-12 23-17 35-23-2-3-9-2-10 2-13-3-2-16-9-10 0-5 2-2 2-5-1 1-3 2-4 4 1 3-1 0-2 2-6-3-16-13-17-14 1-3 2-6 4-10-17 14 3-7-14 7-2 1 2-13 1-10"/><path fill="#584339" d="M387 353c4 25-15 7-5 17-13-8-15-2-28-3 6 3 6 7 8 16-5 6-10 2-13 1 0 5 0 11-2 14-8 2-11-1-14-5-1 4-2 7-3 10-11 0-17-10-22-16-15-1-27-4-37-11 4 7 10 18 13 25-6 3 4 16-5 18-30 12-65 13-93 29 1-11-21-15-23-25 0 16-8-8-6 13-5-9-12-11-13-13-14 2-17-3-28 2 1 1 3 1 3 3-5-3-8-6-10-8-3 2 8 8-3 6-9-4-16-10-19-17-3 1 3 8 1 11-7-7-6-18-12-18-8-2-8-7-17-10-1 15 13 30 22 42 9-4 25 29 55 35 8 4 16 5 26 4 5-4 4-10-1-12 7-3 9 3 8 6 3-1 4-3 6-4 2 4-2 4-2 6 29-19 11 9 36-15 3 2 0 5-1 7 4-1 7-5 9-9 1 4 2 8 0 10 5-4 10-6 14-9-2 7-10 13-18 14 8 2 18 1 25 1 6 5 9 9 12 12 16 0 30 0 43-5 16-1 29-12 39-16 4-2 7-5 9-8-6 0-14 3-20 5 9-9 15-14 21-17 3 2 1 3 0 5 5-5 10-10 12-17 1 6-1 11-3 16 18-31 18-14 26-30 1 6-1 12-8 17-11 9-28 23-39 39 7-1 19-8 21-5 8-3 13-8 18-14 2 2 10-7 6 3 12-18 31-39 23-60-2 6 0 11-5 14-1-13-9-34-2-51"/><path fill="#654331" d="M337 280c-35 3-25 23-26 47-4 5-6-1-7-2 1 3 0 7-2 10-6 2-10-6-10-3 13 12 30 18 48 20 7 5 12 10 16 14 9 2 4 3 7-4 10 6 13 4 16 9 3-10 9 4 7-18 7 15-1 19 6 39 4-15 4-30 6-43 1-5 1-5 2-2-4 4-7 3-5-1 2-11 6-19 9-27 2-1 1 2 2 3 2-3 2-7 5-10-7-3-15 3-19 4 14-14 33-8 46-21-19 4-37-11-57-3-9 12-14 25-18 39-2-16 18-35 4-40-1-6-3-2-10-3-12 11-19 21-24 33 0-12 10-21 18-32-5-1-17-4-16-8"/><path fill="#D89055" d="M186 223c-26 15-32 9 2 12-14 4-21 20-24 16 2 3 0 9-1 10 3-2 5-8 9-5-6 10-14 12-17 20 3 3 8-6 13-4-2 9-11 13-10 20 2 2 3 9 2 16 10-3 13-30 30-47-9 20-7 18-17 42 5-9 5-9 8-14 1 8 26 14 26 25 4-2 13 0 17-13 6 12-6 14 0 17 7-8 11-8 24-14 5-6 3-14 9-19-9 0 8-24-4-23 9-13 9-2 11-17-6 5-10 4-13 3-4-3 7-6-1-6-8 8-20 12-28 21-4-7 3-10 5-14 7-5 13-5 18-7 6-9 3-5 0-8-7 5-14 14-24 18-3-1-1-5 1-6-4-1-7 2-10 4-3-4 0-5 1-7-8-4-13 1-19 3-3-6 2-10 1-16-5 0-9 3-13 4-1-7 4-8 7-10-4-1-5 1-6 1"/><path fill="#64412E" d="M62 290c-6-2-36 46-7 11-5 12-8 21-12 30 6-9 8-20 15-27-4 19-12 34-13 52 3-4 5-10 9-14-1 14-5 26-5 39 0 7 1-15 9-15-1 12-2 22 0 29 0-1-2-6 4-3 28 16 32 20 55 30 19 2 18-4 32 3 0-2-2-3-2-4 7 18 15-6 13 9 2-3 3-4 2-6 5 9 27 13 21 23-11-14-29-38-35-60-5 4-4 9-5 12-2 3-3 6-4 6-3-3-3-5-4-7-3 6-2 11-4 15-3-6-12-21-10-35-4-5-10-2-14 0-12-12-22-22-34-30-6-22-6-48-12-58"/><path fill="#CC864C" d="M164 251c-9 4-9 15-19 19 2 1 4-2 5-1-5 10-7 19-15 24 2 0 4-1 6-2 1 6-4 3 3 3-4 8-9 13-11 18-3-3-4-6 0-13-10-6-6 11-17 1-6-5-13-1-15-6-3-1-5-6 0-10-15 8-3-13-16 4 2-7 4-10 8-13-4 4-9 4-13 1 4-5 10-10 11-6 5-5 9-9 13-11-21 9 6-5-13 9-3-2 3-3-2-3-4 0-6 3-8 6-3-3 3-4 1-8-5 7-7 14-14 16-2 8-3 13-5 17 4 1 6 2 5 5 3 15 1 31 8 41 5-3 6-3 10 0-2 4-6 7-9 4 12 8 20 20 28 29 5-2 11-3 15-1-4-3-2-11-3-16 4 9 4-7 10-9-6-5 2-14 0-20 10-11 21-33 28-48 4-4 8-9 12-8-1 5-1 5 0 2-12 2-17 4-17 10 6-25 9-11 20-27-2-2-3 0-4 2-4-3 1-7-5-7"/><path fill="#DE9358" d="M336 180c-8 5-16 2-33 6-12 12-1 23 9 34 31 6 54 12 82 25 4-2-7-2-9-6 7-8 10-6 15-5l-4-4c7-1 12 2 18 4 0 6 4 5 2 8 6 3 10 0 14-1-1-10 2-6-7-16l2-2h1c5-6 8-7 8-12 8-5 12-1 17-1-5-2-13-3-20 0-6 2-8 7-4 10-8-4-21-2-26-2-7-2-10-8-18-8 7-2-10-13 2-11-17-6-4-13-24-15 3 3 7 6 7 10-3-1-10-3-11-1 2 6 9 10 11 18-14-4-22 3-35 0-1-3-3-14-6-20 12-7 15-3 16-11-2-1-4 0-5 1"/><path fill="#EBAB76" d="M351 161c-23 2-79-11-43 23 5 0 11-1 19-3-2-5 2-7 4-11 9-1 14-1 20 3 17 13 25 15 32 25-9 0 8 8 1 10 10 8 14 5 16 9 7 0 19-2 24 3 1-2 0-3-1-4 4-5 7-8 10-8 10-1 14-1 20 2-9-8-23-17-30-23 3 5 25 15 19 19-22-18-36-26-57-37-3 4-4 0 0 6-9-3-16 1-22 6 0-6 4-14 10-12-9-5-3-7-13-8-4-1-5-3-8-2"/><path fill="#BD9770" d="M434 240c-2 5-12 1-14 6-9-1-1-4-7-5-13 0-3 11-14 3 1 2-1 5 2 7-4 3-6 1-11 2-4 5 3 1 5 3-8 1-2 9-13 11 5-2 9-5 14-6-12 9-25 15-36 24 8-4 12 1 22-3 7-7 13-13 20-19 6 3-9 8-10 15 7 4 15 7 23 9 8 1 13-1 17-3 8-2 12-7 16-11 7-18-6-22-14-31"/><path fill="#E4A677" d="M245 200c-15 4-30 11-41 23-1-4 3-8 6-10-5 1-9 2-14 1-22 13 1 4-16 18 6 0 9-3 13-4 5 5 0 12 0 15 7 0 12-5 18-2 3 3 0 4 0 7 4-1 7-4 12-4-2 3-3 6-4 8 12-6 22-15 31-23-8 1-17-3-26-2 6-10 26-19 23-27"/><path fill="#573626" d="M421 311c-14 14-23 30-26 36 1 0 3 3 3 0 1 5 0 8 1 12-1-4 0-7 1-9l1-2h1l-1 1c1 5-1 8 0 13 2 4 4 5 7 6 2-1-1-3 2-5 2 2 2 4 3 6 3-4 1-5 6-6-2 6-4 12-2 18 11-5 9-20 5-27 4 4 8 7 8 11-2 6-3 14 0 16 5-4 6-8 5-13-2 1-3-1-5 0 2-3 7-1 5-5 0-8-5-13-6-19 7 2 8 17 13 16-9-11-14-31-23-27-5-18 11-9 2-21"/><path fill="#D78F55" d="M126 250c-2 3-2 9-8 10-11 9-10-2-14-4l-2 2 3-2c-6 11-16 13-22 18 1 2 5 5 8 0-1 4-4 7-6 10 9-10 6 8 15-2-1 7-4 7 2 12 2 4 18 8 22 9 5-3 4-1 0-4 8 0 4-2 9-10-4-10-5-26-8-38"/><path fill="#DE975D" d="M288 229c-17 11 1 13 10 22 2 0 4 0 6-1-2 5 1 7 5 9 17 1 29-7 42-9 5-5 11-7 9-12 14 6 20 6 28 11-7-5-15-9-24-11-16-4-27-7-42-7-10-3-6 0-9 5 2-3 6-6 8-5-2 2-4 7-1 10 5-9 6 4 5-10 5 8 8 10 11 18-11-5-18-2-24-6-7 3-11 5-17 1-11-3-3-13-6-14"/><path fill="#BEAC87" d="M374 111c3 2-5 6-6 3l3 9c-49-9 25 20 21 24 10-1 24-3 18-7 8-4 13-1 18-2-6-3-12-5-19-6-8 2-7 11-13 8-8-8 5-20-4-26-1 2-1 4 0 7-6-4-12-6-16-9"/><path fill="#9A7A58" d="M362 131c9 6 4 4 5 11-14 2-26-1-40-4-32-4-36 2 2 0-5 3-9 4-11 7 5 0 10-2 16-2 0 3-3 5-5 7 12-2 35 6 34 0 8 4 14 7 19 10 1-3-9-8-4-10 7 5 13 8 18 11 4 0 1-4 0-5 5-1 7 1 10 2-1-2-5-4-6-6 12-4 18 3 23 10-1-5-4-7-8-10 12 3 8-5 17 1-3-9-8-4-15-6-5-1-10 0-14 4-5 1-6-1-8 1-11-8-23-8-29-20"/><path fill="#E8A46E" d="M301 192c-5 3-9 8-14 9-10 4-18-2-28 0 10 0 2 7 8 6-3 5-7 6-9 10 6-1 12-1 16 0-6 10 5 0 6 9 10 1 14-9 22-8 9 1-3 4-4 5 29 9 4-16 1-16 3-4-7-16 4-14l2 1"/><path fill="#B7A783" d="M156 182c-12 9-9 25 7 25 7-3 14-3 20-6-4 2-6-2-9-5 18-9 9 3 20 1 5-4 6-6 5-10-14-2-28-3-41-4"/><path fill="#865335" d="M246 179c-16 6-32 26-45 31 27-16 77-1 46-31"/><path fill="#442415" d="m133 208-2 1v2l1-1 2-9c5 46-4 43 2 62 1 11-5 9 0 13-3-2 1-5-1-9 4 4 13-14 18-10-10 3-7-6-12-1 11-8 15-13 19-14-3 0-7 0-10-2 7-6 11-9 13-11-8-1-15-7-21-14 4 5 10 9 15 12 0 4-4 5-6 3-12-4-17-23-14-23"/><path fill="#4D3327" d="M387 463c-15 3-34 3-46 11 1 6 13 2 10 6 16 5 85-12 41-8-5-1 0-5-2-5 2-2 5-5 6-4-3 0-4-2-8-1"/><path fill="#291009" d="M387 439c-3 7-9 14-16 19 1-4-1 0-4-2-5 5-11 9-17 12-11 2-22 2-28 2 1-2 3-5 5-8-5 4-8 6-11 8-8 3-14 5-20 7-16 5-31 5-45 7-1 4 2 6 1 11-13 2-16-11-24-15-5-7-8-7-13-6 5-1 9-1 11 4 5 5 5 10 7 14 1-1-3-2-1-3 8 3 10 8 18 6l2 1v-2c0-2 0-5 1-7 13-3 25-3 37-2 9-4-2-1-2-4 6-1 9-2 13-1-13-3 10-5 12-8 4-2 5 1 6 0 6-2 10-2 13-2 7 6 13 11 21 12 22 3 39-3 57 0 31-5 18-15-4-26-2 0 15 6 17 14-7 1-11 3-15-2-6-3-9-3-14-2 5-1 9-1 12 2 3 5 13 8 8 11-25-8-50 12-72-2-2-3-6-4-4-5 21-9 42-9 61-13-11-3-20 7-29 5v-3l1-2c8-4 11-11 15-18"/><path fill="#8A4E2E" d="M260 157c-7 6-4 22 0 29 3 5 5 8 7 9 5-2 11 3 17-1 6-3 2-5 1-8-9-3-11-6-21-2 3-4 5-5 1-9 6 1 9 2 14 1-2-3-5-3-7-5 4 0 6 0 8 1-7-3-6-14-18-14"/><path fill="#C0AE8A" d="M325 115c5 1 9 3 13 7-7 0-15-2-22 0 0 3 8 4 11 6-42 8 37 16 34 7-8-8-13-18-30-20l-2-1h-1v1"/><path fill="#E49E66" d="M292 228c-4-2-1 8-2 14 5 2 9 2 12 3 3 0 6-3 9-3-3 1 19 6 27 5-7-14-22-14-26-16 17 2 29-1 45 5-20-6-40-10-62-8"/><path fill="#2B0F07" d="M468 247c0 5 3 10-1 15-5 10-7 19-14 26-9 1-6-8-5-10-2 4-6 8-10 10-8 4-14 4-21 3 7 5 15 2 21 0 3 4 1 6 0 8-13 8-26 8-39 10 6-1 13 2 18-1 0 3 0 6-3 7 3 0 6-6 8-5 0 23 16 36 23 53-9 0-9-9-14-16 3 5 6 11 6 18 1 4 1 6 0 7-1 6-2 8-4 11-3-2-5 1-6-2s-1-4 0-5c1-8 2-14-1-17 3 4 2 10 0 14-1 6-3 10-6 11-7-5-5-13-3-18-1 3-3 4-2 7-1-7-11 3-16-11-1 6-2 13-3 19 1-4 2-7 3-11 6 2 9 4 8 9-2 19-4 36-14 50 14-14 10-35 16-51 5-1 0 7 3 9 4 1 6-2 9-3 5 2 0 7 6 5 7-3 9-9 10-15 1-3 1-5 0-8 4-2 4 2 7 0-5-21-23-36-19-59 3-3 6-6 10-7 6-13 25-9 26-26 2-3 6-5 6-10 3-6 3-11 1-15"/><path fill="#B8A985" d="M195 167c-13 1-25 5-36 11 18 2 73 16 38-12h1-1v1"/><path fill="#824C2D" d="M124 213c-7 4-14 9-21 14-2 8-12 13-8 22 11-5 19-10 29-18 0-7 5-16 2-19"/><path fill="#DDA173" d="M124 240c-11 4-23 5-32 12-12 8 10-4-7 11 7-3 13-3 16-7 9 0 5 12 16 4 6-2 6-8 9-11-6-2-11 4-15 4 5-7 13-7 14-12"/><path fill="#CD844A" d="M444 209c-2 1-4 1-6 2-5 10-13 7-9 21 5 0 14-12 29-4 2-14-3-18-13-17"/><path fill="#3B140C" d="M337 189c-10 2-3 13-2 18 11 4 17-3 26-1-3-6-7-12-13-15-4-3-7-2-10-2"/><path fill="#66412E" d="M247 163c-16 18-45 33-58 44-10 6-19 9-29 11 6 4 13-5 17 0-6 4-12 5-15 5 24 2 17-17 29-10 20-18 43-28 57-48"/><path fill="#B77C4C" d="M159 298c-5 35-9 32-9 55 0 0 2-1 3-3 3 1 1 3 3 5-4 2-4 7-7 10-12-25 3-18-6-32 0-5 5-7 5-3 2-10 4-19 8-28"/><path fill="#C78A58" d="M382 262c-6 4-14 2-17 3-11 5-19 8-26 14 2 7 10 5 14 8 6-7 3-6 5-13 8 6 19-7 27-12"/><path fill="#290F07" d="M53 386c-5 10 6 20 10 29 10 14 18 26 30 34 14 10 27 17 41 25 14 2 27 4 39 4 2 5-8 0-11 4 15 3 19 10 37 13-5-8-13 0-19-6 7-23-3-13 3-23-2 3-12 6-9 8-5 1-6 3-10 2 1-5 5-2 6-6l2-1-1 2c-1 2-3-1-4 1 1-3 1-7 0-9 2 4-1 9-3 11-9 2-15 1-20 0-20-5-35-16-51-25-11-10-18-19-25-29-8-11-13-21-15-33"/><path fill="#694532" d="M251 355c2 6 0 13 4 20 11 12 21 23 27 36 2-11-1-17-10-30-7-10-17-14-21-25"/><path fill="#895E43" d="M301 147c-5 1-24 5-10 12 16-3 40-1 53-1-14-1-23-6-32-7-3-1-1-2-1-3-4-1-6-2-7-1"/><path fill="#765647" d="M464 243c-3 5-4 7-9 8-2 13-2 24-7 33 13-14 6-9 19-22 0-8 0-12-2-17"/><path fill="#4B3429" d="M88 423c6 4 10 14 17 20-1-2-6-6-4-10 11 10 23 24 34 26-9 1-16-6-26-8-10-7-16-17-21-25"/><path fill="#644130" d="M313 349c-2 8 13 1 18 9 7 3 1 6-1 4 9 0 11 11 17 16 4 3 5 1 7 0 0-6-3-10-5-14-4-3-6 6-9 3 2-4 4-6 2-8-9-6-19-6-28-8"/><path fill="#320D04" d="M132 198c-2 28-9 24 4 5 5 8 8 14 13 17 6 4 10 7 16 6-1 3-3 5-4 6 13-6 26-14 39-23-12 8-24 16-39 17-3-4-4-9-2-10-11 1-16-15-25-15"/><path fill="#563E32" d="M201 464c-2 3-6 4-9 6-9 3-12 11-10 18 6 2 9-1 13 3-4-4-4-8-8-10 5-10 12-6 18-7-1 2 3 3 1 5 8-7 0-9-5-13"/><path fill="#CA8A55" d="M400 230c-23 6-8 20 17 9 1-4-11-7-17-9"/><path fill="#8F7B5C" d="M208 163c17 9-18-3 8 22 2-7 7-13 13-18-7 1-12-5-20-3"/><path fill="#654030" d="M462 225c-5 10-17 0-23 3-4 3 6-3 4 5 2 5-2 6-3 8 6 7 8-4 9 4 4-3 1-7 3-9 5 1 2 4 4 6 0-8 0-8 5-14 5 12-1 15 6 20-2-7-2-14-5-21"/><path fill="#8A5132" d="M284 166c2 6 2 16 7 22 2 6-4 9-5 9 5 1 7-3 10-5 6-6 4-13 2-19 2 9-9 1-13-4"/><path fill="#D4925C" d="M291 336c-14 2-1 14 2 18 7 4 1-2 1-3 8 2 6-6 14-1-5-5-12-6-16-13"/><path fill="#C08352" d="M325 364c-4 6 11 10 2 18 6 7 12 1 14 8 1-6 1-12-2-16-9 2-10-5-12-10"/><path fill="#CB9970" d="M298 354c-2 10 8 12 16 13l2 2-5-3c11-1 13 1 12-4-6-1-13-7-22-8"/><path fill="#DE955D" d="M397 172c11 11 26 17 45 34-18-11-29-40-39-30"/><path fill="#CD8A54" d="M363 252c10 1-4 5-5 1-25 23 20 2 26 2-7-1-12-1-18-3"/><path fill="#2B0D05" d="M55 311c-4 9-7 19-15 26-1-7 4-13 6-19-2 3-5-1-6 4 7-1-4 13-2 18-2 7-1 0 1 0 2-4 3-5 4-6-1 13-1 24-3 34 6 12 6 23 10 32-2-14-7-28-8-43 1-18 9-30 13-43"/><path fill="#EBAE7A" d="M345 177c-13 4-14 4-1 1 2 5-3 2-3 6 9 3 16 10 21 16-15-13 8-2-3-16-5-3-9-6-13-6"/><path fill="#D4915B" d="M361 254c-20 4-17 3-39 9 6-1 9-4 13 0 5 6-7 12 5 9 11-2-6-1 4-9 5 0 2 5 6 4 1-4 1-6-2-8 3-3 21-7 16-5"/><path fill="#BC7945" d="M161 312c5 14 1 18 11 35-9 1-9-17-11-14 0-4-4-5-1-17"/><path fill="#B37444" d="M242 384c3 1 1 12-1 15-6 10-12 14-18 16 2-9 18-9 18-30"/><path fill="#E39E69" d="M249 251c11 0 2 12-4 12-3 2-6 0-8 1 2-7 7-10 10-12"/><path fill="#4E3120" d="M138 207c-2 9 4 14 10 19-4 1-6-3-10-5-3 4 1 6-1 12 2-3 5-7 11-4 4 0 4 2 6 0 2-3-15-10-15-20"/><path fill="#4B4442" d="M526 239c14-2 28 1 41 3-14-1-30 2-43 0"/><path fill="#CD8A55" d="M368 236c-39 22 20 7 9 13 7-5-5-3-12-11"/><path fill="#614132" d="M402 372c-8 10-4 21 0 30 0-9 4-21 2-29"/><path fill="#E4A16A" d="M248 243c-6 2-14 2-19 6-4 5-9 7-9 11 10-6 20-11 29-17"/><path fill="#82664B" d="M222 157c-34 13-9 1 10 10 1-3 3-2 4-5-6-1-10-4-16-4"/><path fill="#270E07" d="M82 247c-7 2-13 11-19 18-3 8-7 13-10 18-8 16-16 29-19 43 2-9 12-28 18-40 9-16 22-30 34-40"/><path fill="#CF8A50" d="M189 250c-1 4-11 19-19 17-2-12 12-9 15-14"/><path fill="#2C1007" d="M341 356c8 6 17 16 17 25-6 2-13 2-16-5 1 2 2 3 3 5v13c-7 5-11-3-15-6-1 4 0 11-3 14-9-6-15-11-18-18-12-1-21-3-30-5-8-5-15-8-21-14 5 5 13 10 20 13l2 2h3c7 3 15 4 24 3 6 8 11 14 17 19 6-2 6-6 5-11 6 3 10 7 16 6h1l1-3c-1-3 0-7-2-10 26 9 9-23-2-26"/><path fill="#BC804F" d="M323 380c-19-2-7 11 3 13 1-5-1-8-3-11"/><path fill="#563321" d="M54 344c-4 4-5 9-7 14-3-2-3-3-2-4-3 8 0 15 4 22-1-11 3-21 5-32"/><path fill="#513526" d="M86 405c3 8 8 13 16 19 4 3 5 1 8 2-18-27-7-2-22-19"/><path fill="#E49F6C" d="M251 252c-5 1-11 4-14 9 5 5 18-2 16-8"/><path fill="#D6945F" d="M248 198c2 2-3 5 2 6-6 5-13 7-15 14-4 4-8 6-10 8 9-7 9 7 17 0-2-5-2 0-10-6 8-12 16 0 16-8 6-4-6-2 1-6-2-2-2-5 0-6"/><path fill="#AF9773" d="M387 110c-2 6 4 0 4 5-3 1-4 1-5 2 6 10 4-8 10 1 2 9-6 15-2 20 7 3 9-7 16-6-6 4-11 0-11 0-2-3-2-7-1-12l-1-1-1-3c-4-1 0-8-8-4"/><path fill="#2C0A03" d="M384 285c-33 18 16-5 29 6-8-4-18-8-29-4"/><path fill="#CA8853" d="M175 233c-3 1-7 0-9 2 5-1 7 3 6 4-5 8-20 16-25 14 13-2 46-15 30-19"/><path fill="#F5D3AE" d="M366 164c3 1 5 3 8 4-24 16-3 6 8 5-2-5-9-6-13-9"/><path fill="#AC9E8F" d="M77 258c-8 6-14 14-19 22 9-11 14-4 23-24"/><path fill="#4A2B1C" d="M136 219c4-1 6 6 10 7-9 3-3 5-8 7-1-5-2-7-3-11"/><path fill="#380A03" d="M299 142c-5 5-14 6-20 10 3 2 5 6 8 8-1-3-8-6-4-9 11-8 53-6 15-10"/><path fill="#B7713B" d="M98 339c4 6 4 12 9 18-4-1-6-2-9-3 0-6-2-8-1-12"/><path fill="#C98A57" d="M249 214c-4 7-7-4-14 4-1 6 5 4 6 4 1 4-2 1-3 3 8 3 7-4 9-10"/><path fill="#BD753D" d="M264 287c4 0 7 5 13-1-3 7-28 10-16 2"/><path fill="#F4C598" d="M387 208c6 2 18-3 21 7-6-2-13-3-20-5"/><path fill="#B09F7A" d="m160 192 2-2c2 3 6 1 8 0-7 12-7 13-11 3"/><path fill="#390D03" d="M256 153c-8 23-34 38-52 53 16-9 29-27 46-32 3 8 6 16 12 22-6-6-10-13-10-21-1-10 0-17 6-21"/><path fill="#310D05" d="M128 253c1 10 4 19 5 29 14-12-3-9 17-25-3 3-4-1-7 1 10 4-13 10-6 15-7-4-7-12-9-18"/><path fill="#330B04" d="M405 151c12 24-1 3 12 11 2 9-2 11-7 8 5 6 5-1 8 4 1-4 0-7 1-10 4 0 3 2 6 3-3-7-11-10-18-13"/><path fill="#B97845" d="M238 349c5 5 5 18-2 22 2-6 2-12 1-19"/><path fill="#B09973" d="M366 131c7 12 22 14 31 20-16-10-11-13-31-18"/><path fill="#BE753D" d="M79 296c4 3-2 14-5 19 1-6 0-10 2-15"/><path fill="#BC8F67" d="M138 327c-2 4-5 7-6 10-2 6 7 7 2 13 5-8 4-14 4-21"/><path fill="#CD884E" d="M188 250c-3 11-18 3-17 16 2 5 10-7 16-13"/><path fill="#BE7B46" d="M202 317c6 0 2 11 6 17-6-9-8-4-6-15"/><path fill="#6F452D" d="M94 242c-6 2-14-1-20 5 7-1 13-3 19-4-4 3-15 8-13 13 6-5 15-10 15-13"/><path fill="#CF8D56" d="M76 274c6 1-3 11-6 12-5-6 3-7 4-11"/><path fill="#B79274" d="M84 254c-8 20-22 16-20 28 3-3 21-19 20-26"/><path fill="#553325" d="M461 229c-5 6-2 6-3 14-3-2-4-3-3-6-2 2-4 6-4 7-3-5-6 6-11-1-1-3 2-4 2-6 0 3-6 2-3 5 5 5 11 5 12 10-1-20 13 7 8-26"/><path fill="#AF9772" d="M356 126c1 3 3 6 7 9-3 1-11 9-19 6 17 5 32-5 12-14"/><path fill="#B68F6F" d="M192 202c-8 4-16 7-25 9-13 1-14 0-21-8 3 3 7 12 16 10 11-3 21-5 29-11"/><path fill="#A27D62" d="M238 473c-3 1-6 3-8 0 4 7 15 11 10 0"/><path fill="#A17A5D" d="M212 476c15 4-12 3 6 8 1-3 4-3 6-5-4-5-6-2-8-2"/><path fill="#F1C293" d="M371 183c4 0 12 5 12 10-11 2-2-4-11-7"/><path fill="#543323" d="M58 366c-8 5-8 26-10 18 3 13 2-13 7-3-1 9 2 19 7 27-8-15-7-23-4-41"/><path fill="#390B03" d="M268 157c5 1 11 4 13 10v8c-3 5-6 5-8 3 6 4 12-1 14 8-4-7-2-16-7-23-4-5-8-5-10-7"/><path fill="#B6723F" d="M221 323c4 2-2 12-4 15-2-5-1-9 2-13"/><path fill="#AC6F41" d="M158 301c-7 17-12 35-12 55 3 5 2-32 13-54"/><path fill="#B67644" d="M164 375c4 1 8 8 10 12-7-2-8-6-10-9"/><path fill="#CE8048" d="M265 217c-2 4-7 1-11 3l-1 2 1-2c7-3 2 5 1 7 11-5 15-2 12-10"/><path fill="#F2C498" d="M342 183c6-2 13 0 16 5-5 0-9-2-14-3"/><path fill="#997B66" d="M67 271c-10 17-15 10-20 30 5-15 16-16 18-27"/><path fill="#AE946F" d="M418 138c5 3-9 1-15 12 3-6 31-5 15-13"/><path fill="#523A2D" d="M121 427c5-1 5 9 9 12-6-2-8-6-10-10"/><path fill="#E39D64" d="M319 233c6 1 3 1 8 5-7-10-5 10-10-2"/><path fill="#693F2B" d="M423 319c-7 3-3 9-3 14 5-2 3-8 3-13"/><path fill="#B26E3C" d="M208 326c3 1 4 10 7 13-6-1-8-6-7-10"/><path fill="#4A3429" d="M103 441c-13-2 17 16 31 19-20-16-22-7-33-20"/><path fill="#C98048" d="M210 250c8-2-6 11-8 10 1-5 3-7 6-8"/><path fill="#DE9358" d="M272 222c-5 1-6 4-10 7 9-10 19 7 13-9"/><path fill="#4C3228" d="M415 464c-3 2-6-1-8 2 2 4 20 5 9-2"/><path fill="#4E382F" d="M281 459c11-1 1 9-4 6 0-2 1-5 2-5"/><path fill="#CD8249" d="M217 266c5 0-3 9-5 11-2-4 1-7 2-10"/><path fill="#CE8C53" d="M155 312c6-2 4 7 4 10-4-1-6-5-3-7"/><path fill="#98826C" d="m270 143-15 3c5 3 15 1 17-4"/><path fill="#2B0F08" d="M104 220c-12 10-28 16-39 30 2-6 29-21 40-30"/><path fill="#DA9058" d="M263 207c-11 5 1 6-14 15 5-4 10-3 15-4-3 0-5 1-8 0 2-6 15-9 9-11"/><path fill="#9F825F" d="M402 122c-5 0-4 6-4 9 2-2 2 3 5 2 7-3-5-3-2-10"/><path fill="#997359" d="M194 477c-6 5 7 5 9 7-1-3-2-7-7-7"/><path fill="#E3A677" d="M266 154c-4-4 22 8 20 12-2-8-9-12-16-13"/><path fill="#875232" d="M367 159c12 8 9 3 30 13 10-1 9-2 13-5-7-2-6 1-11-1 1 1 3 1 3 3-10 4-22-7-33-10"/><path fill="#A76F47" d="M316 356c3 2 13 4 13 12-9-9 6-6 1-9s-8-4-12-3"/><path fill="#D0915A" d="M153 260c-4 2-9 4-10 9 4 0 10-2 10-7"/><path fill="#361D15" d="M422 469c12 4 1 9-6 4 2-2 3-2 5-1"/><path fill="#DF965F" d="M333 169c-15 18 7 3 13 5-13-4-6 3-15-2"/><path fill="#4E3932" d="M304 466c7 0-6 9-9 4 1-3 4-3 7-2"/><path fill="#D39563" d="M92 254c-10 3-7 10-12 16 6-7 28-11 6-8-1-3 3-4 4-7"/><path fill="#27110A" d="M208 458c-12 2 0 14 9 13-2 0-4-2-6-2 0-5 4-6 4-10-2 2-4 5-7 6-4-1-1-4-1-6"/><path fill="#D3874C" d="M371 217c4-2 9 1 9 5-4 3-4-2-8-2"/><path fill="#9D7A58" d="M381 102c4 5 4 12 11 8-3-5-6-6-10-7"/><path fill="#885433" d="M165 275c-6 2-8 6-11 11 5-2 9-6 11-9"/><path fill="#C17238" d="M264 261c7-1-2 7-4 7-3-2 0-5 2-6"/><path fill="#AC9A76" d="M160 191c4 11 1 11 10 0-2 1-6 3-8 1"/><path fill="#2A1109" d="M201 476c3 2 5 7 7 10 1 6-3 3-3 5 1 1 2-1 4 0 2 6-3 7-6 6 5 2 9-1 7-7 6 1 9 3 11 7-6-9-16-10-18-21"/><path fill="#D9945F" d="M309 171c1 0 4 0 6 1-3 4-12 7-8 0"/><path fill="#A9A39F" d="M471 263c16-2 43 5 58 14-9-5-20-10-31-13-8-2-15-2-22-1"/><path fill="#4C342A" d="M82 438c6 4 10 10 17 11-4-2-3-7-7-10-1 1 0 3 1 5-3-2-6-3-9-4"/></svg>