<svg xmlns="http://www.w3.org/2000/svg" width="600" height="600"><path fill="#A89868" d="m214 128 2-3c15 18 24 40 35 60 16-6 30-15 46-21 11-4 21-4 31-3 35 10 67 22 100 34 34-6 56-37 86-51 15-7 32-12 48-11 3 16 0 31-2 45-4 19-9 35-15 50-12 42-37 78-58 113 0 7-2 10-1 15 5 18 18 32 31 44 19 13 40 18 59 26-19 7-35-1-51-3-30-10-54-27-78-42-7-3-14-3-20-2-17 5-33 8-49 10 0 3 6 4 7 8-14 2-23-1-33-4-24 15-32 41-56 58-13 9-24 20-38 21 1-14 10-25 11-39 3-14 4-27-2-37-4-9-7-14-12-20-21-10-41-18-58-30-16 14-33 30-51 39-16 9-32 14-50 15 2-12 22-21 29-36 12-16 18-32 22-49-36-28-66-58-95-90-31-25-43-76 16-46 40 9 77 34 123 38 8-4 15-7 21-10 4-26 1-52 0-77"/><path fill="#E6BC5C" d="M399 192c11 15 25 35 29 55 6 18 6 36 8 53-6-18-11-41-21-60-7-16-31-43-34-42 7 14 16 29 12 44-9 20-20 15-26 22 11 9 22 22 26 36-3 0-3-3-5-5 0 11-1 23-6 33-6 9-14 14-22 15-13-1-24-3-31-14-6-8-8-16-9-24-3 1-6 3-6 7-1-17 6-28 15-39-11 6-25 7-39 8 2 3 2 7 1 10-4 6-8 7-14 6-8-2-12-9-10-15-25-3-48-4-68-13-43-17-81-38-120-59 34 36 75 73 115 101 30 20 60 35 92 43 28 6 58 8 84 2 22-3 38-14 53-28 12 6 21 12 32 12 20-8 44-59 15-16-9-4-16-8-21-14-6-6-3-26-7-20-1-7 1-12 3-17 6-8 12-17 20-18 9-1 15 2 19 8-1-15-10-27-22-37-16-15-36-27-51-31-3-2-7-2-10-3"/><path fill="#F8DD8C" d="M357 177c4 5 17 13 15 19-28 9-52 15-78 15-21 3-43-2-66-7-10 6-19 10-30 15 10 2 20 3 30 4-28 2-56-3-72-7-16 0-29 8-46 4-20-2-37-19-54-27 9 7 17 14 25 22h3l-2-1c-2 0-4-3-1-5 39 22 76 42 115 59-1-1-1-5 0-9 1-5 5-6 8-7 6 3 10 7 12 10 0 7-5 10-9 10 8 1 16 4 24 5 36 1 53-3 85 3 19-12 37-21 57-17-9-11-19-16-31-16-12 2-20 7-27 14 3-6 9-11 15-14 10-3 19-3 26 0 9 3 14 7 20 11 37-10 1-56 7-60-6-6-15-14-24-20"/><path fill="#5A5540" d="M523 210c-2 6-18 38-31 60-1 19-1 35-9 48-16 22-36 29-52 43-44-12-86 10-130-1-38-9-75-14-106-29 17 9 44 23 70 33 19 14 32 36 50 48 14-15 20-31 35-43-18 25-31 49-53 70-9 9-16 17-24 23l18-12c2-4 3-6 6-8 20-19 26-34 42-50 10-8 19-12 28-16 2 2-2 2-2 4 27 1 48-9 70-9 24 9 41 25 62 34-22-12-40-31-61-44 24 11 43 31 66 42 15 10 31 14 46 19-11-6-23-11-35-15-17-15-26-31-33-48-3-14 4-21 7-34 2 9 10-11 12-14 14-33 60-94 24-97"/><path fill="#1B202F" d="M365 266c3 7 2 17 1 23-3 6-6 12-10 13-9 1-14-3-19-7-4-7-7-12-7-18-6 10-9 26-5 39 3 11 11 20 19 23 12 1 20 0 26-6 7-6 12-12 14-19 3-11 1-20-1-28-5-8-11-14-17-18"/><path fill="#FBE9B0" d="M341 168c3 3 7 6 10 10 1 5-5 2-5 6-18 7-32 7-52 9-11 1-31-2-36-2-1-1 0-4 1-4-10 6-20 12-31 17 23 4 45 9 67 6 20-2 119-6 43-43"/><path fill="#494739" d="M85 245c43 41 71 62 103 81 15 10 43 17 74 25-22-10-45-22-67-36-24-17-51-38-78-64 3 2 6 6 9 8-7 0-7-5-11-5 5 6-10 4-13 3-5-11-3 2-15-9"/><path fill="#F9DD8E" d="M554 144c-19 17-23 35-43 45-14 7-27 1-36 13-18 6-7-18-18-11-6 2-16 6-22 9 9 6 17 12 26 18 14 3 23 5 34-1 13-13 28-32 37-45 3 5 2 6 1 8 6-11 11-23 19-33"/><path fill="#FBF4D6" d="M310 165c-19 4-36 14-53 24 16 3 39 4 59 0 13-3 53-6 21-22-8-3-17-3-26-2"/><path fill="#E8BC59" d="M265 366c7 9 10 19 14 29 2 8 1 15 2 21-2 20-12 34-19 48 20-12 38-30 52-49-17-12-28-34-47-47"/><path fill="#88CBDC" d="M42 205c26 34 61 67 94 94 34 27 68 47 103 64 4 1-4-7 2-5 8 8 16 14 22 22 8 10 12 20 13 31 0 12-1 21-4 29 6-12 7-25 6-40-4-13-8-25-16-35-36-15-70-31-102-53-42-31-80-67-116-106"/><path fill="#FBE9B3" d="M31 174c22 16 44 30 68 43 21 6 38 0 53-4-10-2-26-11-32-11-10-1-17-3-26-3-15-6-28-12-37-20-4-2-16-3-24-4"/><path fill="#FBE9B2" d="M550 138c-4 1-7 1-10 2-4 4-8 14-14 17 7 6 2 4 7 6 0 6-3 8-6 9-6 4-12 2-11-4-8 6-17 8-25 10-7 0-13 2-16-2-5 6-11 9-18 13 2-1 9 0 6 3 4-4 9-6 14-7 6 2 7 4 6 8 14 0 24-3 35-10 10-12 38-39 38-47"/><path fill="#575341" d="M44 202c19 24 40 42 53 53 11-2 11 5 12 3 8-4 5 0 3-5 9 0 8 8 11 6-13-14-29-26-41-42-5 0-24-11-35-12"/><path fill="#E9BC59" d="M499 218c-28 7-48-5-13 27 1 6 3 14 4 22 10-13 16-28 23-42-3 3-6 4-9 2-6-2-5-6-7-8"/><path fill="#465169" d="M328 297h2c3 6 1 13 5 19 3 5 7 8 11 9 9 1 15 0 19-4 11-6 12-15 14-23 7 0 3 7 5 11-3 9-6 15-10 21-8 6-15 9-22 9-11-1-16-7-21-13-7-8-9-18-6-26"/><path fill="#495F8C" d="M353 266c-8 1-15 4-21 8 0 8 2 12 4 17 5 5 9 9 13 10 8 0 14-5 15-11 2-8 2-15 0-20-3-3-6-5-10-4"/><path fill="#FBF3D2" d="M538 141c-10 2-18 5-27 9-13 9-26 17-36 27 15 3 31-3 40-10 11-6 14-15 24-27"/><path fill="#6F6753" d="M539 173c-1 2-9 21-15 39 10 7 12 8 12 12 6-8 13-28 17-43-3-2-10-6-12-8"/><path fill="#02030D" d="M474 260c-1 8 2 19-7 24-4 3-9 5-12 1-6-2-5-15-6-13-1 9-3 14-2 21 5 0 5 10 11 12s9 1 11-2c8-5 7-16 11-19 2 9 1 17-1 23-5 6-10 10-16 10-5-2-5-2-2-1 5 1 8 0 11-1 3-3 5-4 6-6 2-4 3-5 3-7 3-16 3-31-5-41"/><path fill="#E7BB58" d="M142 352c-10 16-24 30-39 42 7-1 15-2 21-5 11-5 20-10 28-17-3-7-6-12-9-17"/><path fill="#4F4D3B" d="M152 327c2 4-5 20-7 25 3 8 6 13 9 19 12-10 10-16 23-27-8-3-18-8-24-15"/><path fill="#73727C" d="m426 337-24 15c6 4 14 7 23 5 23-2 25-19 1-19"/><path fill="#90B9B3" d="M231 282c3-1 7-1 9 1 8 2 12 7 12 13-2 8-11 12-17 8-10-2-15-17-5-20"/><path fill="#48483A" d="M152 316c-9 13 8 9 1 23 1-2 3-5 2-7 11 0 8 10 23 11-6 3-10 15-10 7-3 12-7 10-15 20 17-8 25-26 37-30v3l-2 2 3-1v-3c-13-7-25-15-38-23"/><path fill="#8E8471" d="M221 166c1 10 0 21 1 31 6 6 15-5 21-5-2-8-5-14-8-21-5-2-9-1-12-5"/><path fill="#385081" d="M467 258c-6 1-11 4-14 10-1 7-2 12 1 16 7 3 13 1 15-4 4-7 5-19 0-23"/><path fill="#6A634F" d="M27 176c3 8 7 16 13 23 15 11 25 6 39 18-21-20-39-33-50-41"/><path fill="#847B67" d="M560 139c-5 7-15 22-19 33 2 6 16 3 12 10 6-9 6-27 7-40"/><path fill="#726852" d="M400 197c-30-4 15 30 11 30l-1 2 1-1c3-1 2-5 6-5-5-11-11-20-18-27"/><path fill="#A69F8D" d="M217 124c-3 33 2 26 4 55 0-4-2-9 0-13 6 3 9 1 12 4 5 7 9 13 12 19-20-32-22-60-23-53"/><path fill="#B7BEC9" d="M340 271c6-3 11 2 13 7 4 6 6 12 1 17-6 1-9-1-11-5-4-6-6-11-4-17"/><path fill="#8B816E" d="M318 158c-62 26-41 15 6 1 12 4 19 10 32 12 9 6 15 16 29 26 5 3 10 1 12-2-7-9-21-16-32-20-4-1-5-2-8-3-7-3-19-9-29-9-3 0-3-2-6-1-3 0-5 0-8-1"/><path fill="#879BBA" d="M327 298c-3 6-1 14 0 19 4 6 6 10 9 14 7 4 13 5 19 6 7-1 11-5 14-7-8 3-20 2-26-4-11-8-13-16-14-25"/><path fill="#86CCE0" d="M233 285c-8 1-7 15 1 15 6 4 13 3 15-2-1-6-2-11-7-12-3-1-5-2-8-1"/><path fill="#8ACDDF" d="M275 276c-6 1-7 10-4 15 4 4 11 5 15 2 3-5 3-11 0-13-4-5-6-5-10-4"/><path fill="#605942" d="M414 221c3 7-5 9-4 4 11 20 19 40 23 62 0-14-3-27-7-40-4-9-6-22-11-24"/><path fill="#EBC265" d="M534 173c-9 7-14 20-23 28 6 2 7 9 7 14 5-12 14-32 15-39"/><path fill="#FBF1CC" d="M57 178c11 7 22 15 35 18 10 3 17 3 25 4-19-8-38-16-58-21"/><path fill="#F6F7F7" d="M341 272c-2 5 0 12 2 15 4 5 6 7 10 6 3-5 2-10 0-14-3-5-6-7-10-6"/><path fill="#93CEDC" d="M508 207c-3 2-6 3-7 7-1 5 0 9 2 11 6 0 10-1 11-6 0-6 2-14-5-13"/><path fill="#2C324D" d="M380 299c-1 9-4 19-13 23-7 5-15 7-22 4 9 5 20 5 28-1 7-5 10-15 8-25"/><path fill="#405B5E" d="M518 247c6-1 5 7 4 10-1 6-4 10-8 9-5-3-3-7-4-9 3-5 4-7 7-8"/><path fill="#95D1E1" d="M202 256c-4 2-4 7-3 11 5 2 11 2 13 0 2-5 0-8-2-9-3-3-5-2-6-3"/><path fill="#050604" d="M428 374c-29 13 3-3 13 3 27 12 49 30 75 39 19 6 36 13 56 11-11-4-22-8-33-13 6 4 16 7 25 11-19 3-69-24-41-7-33-11-56-28-79-42l-2 1-3-1c-3-1-8 1-12-1"/><path fill="#9AB29C" d="M171 268c4-2 9 0 10 4 2 5 1 7-2 8-4 2-6 0-9-2 0-4-1-6 0-7"/><path fill="#A4ADBD" d="M454 265c7-1 12 11 9 15-5 2-7-1-9-2-2-5-1-8-1-11"/><path fill="#B4C6AE" d="M235 249c3 0 9 1 9 5-1 5-5 5-8 6-4 0-7-3-7-5 2-4 3-5 4-6"/><path fill="#3A636F" d="M187 342c-9 7-17 20-28 27 12-6 25-16 32-28"/><path fill="#CDE1DE" d="M473 189c-2 1-8 3-8 9 9 5 23-9 10-10"/><path fill="#9FB295" d="M147 255c3-4 7 0 8 3s2 5 1 7c-6 2-14-5-10-9"/><path fill="#2F344A" d="M425 330c-10 12-23 19-35 25 2 0 5 0 8 1 3-7 18-13 25-20 26 7 28 9 2-4"/><path fill="#2B324D" d="M480 287c-1 5-3 9-5 14-4 4-8 6-11 8 2 2 8-1 11 1 4-7 5-14 6-21"/><path fill="#B1C2A5" d="M173 233c5-3 10 2 13 6-2 3-3 4-6 3-4-1-7-4-8-6"/><path fill="#070A0B" d="M81 252c22 22 43 42 68 60 1 6-2 10-2 15 1-4 1-9 4-13l3 2v1h2l2 1c32 26 69 40 104 61-34-22-72-35-104-62l-3-1-1-1-2-2c-25-17-48-38-69-59"/><path fill="#869BB8" d="M448 295c1 6 3 11 6 16 7 5 13 3 17 1-5 0-9-2-14-4-4-5-6-8-8-11"/><path fill="#3B6C7C" d="M517 250c-3 3-6 9-4 14 7-2 9-9 7-15"/><path fill="#191F1E" d="M25 174c3 14 11 26 19 38l2 2 1 1 1 1c17 20 31 34 48 53h3l-2-1c-14-16-33-32-49-52-9-14-21-29-22-43"/><path fill="#F4F5F6" d="M455 266c-2 5-1 13 6 14 2-5 0-11-3-13"/><path fill="#8FC6D4" d="M419 375c-19 5-39 6-58 9 21-1 44-3 61-9"/><path fill="#3D646F" d="M148 326c0 8-9 16-5 22 4-6 7-12 6-21"/><path fill="#DFE7E1" d="M528 163c-4 1-8 2-9 7 5 2 14-1 11-7"/><path fill="#261D11" d="m448 192-15 6c-42-16 21 12 24 22 12 10 19 16 23 25 5 7 6 13 7 20-1-7-2-13-5-19-4-4-4-8-8-10-14-17-26-26-43-36 6-4 12-5 17-8"/><path fill="#DAE2DD" d="M228 149c5 14 11 28 18 41-4-14-11-26-17-39"/><path fill="#84CCDF" d="M175 270c-6 1-3 9 3 9 3-3 2-9-1-9"/><path fill="#A4C9D5" d="M554 186c-6 19-13 37-18 57-10 20-18 39-29 56 11-17 20-36 28-54 7-21 14-38 18-58"/><path fill="#C79F4C" d="M451 237c3-2 7 0 10-1-6 0-26 15-11 1"/><path fill="#050707" d="M409 381c-17 3-34 6-51 7 0-4 1-5 2-6-9 8-20 14-28 24 7-7 13-13 23-16 19-3 39-6 57-9"/><path fill="#9FD5E2" d="M235 251c-7 5 2 9 5 5 2-4-2-4-3-5"/><path fill="#898272" d="M215 127c-1 9 0 18-1 26 2-7 1-18 1-25 10 13 18 27 21 32-6-11-12-23-18-30"/><path fill="#B3D3D8" d="M221 182c-4-2-2 14-4 22 2-7 4-14 4-21"/><path fill="#AD9F84" d="M338 166c9 4 18 9 27 15 2-9-18-9-25-14"/><path fill="#426066" d="M501 393c6 7 13 15 21 17-5-8-14-8-20-14"/><path fill="#201C1D" d="M425 329c-9 9-17 15-24 19 8-4 16-10 24-17 7 6 15 8 22 11-2 4 0 8-4 9 3-2 2-6 6-7-9-5-14-8-22-14"/><path fill="#161C1F" d="M192 343c-15 17-31 32-42 38 16-9 30-23 43-38"/><path fill="#585139" d="M480 262c2 4 3 12 5 14 1-6 1-10-3-12"/></svg>