<svg xmlns="http://www.w3.org/2000/svg" width="600" height="600"><path fill="#A7753C" d="M244 111c0-2 1-1 3-1 9 1 17 2 23 6 21 8 33 22 46 38 12-10 23-15 34-20 14-5 29-5 40 0 13 8 19 19 19 31 3 18 0 33-5 47 9 1 17 3 24 5 10-28 17-57 36-80 7-11 20-19 31-25 6 0 11-2 14 1 5 20-15 28-14 43-10 6-19 1-25 13-19 25-21 25-31 51 13 7 22 15 33 24 4 9 5 15 6 22 7 5 10 10 13 16 1 8 1 13 0 19-16 19-30 29-44 51-13 11-35 8-44 15 19 15 20 25 30 48 3 22-3 41-2 62-7 5-10 1-14 0 6-10 0-23-2-31-11-21-4-13-19-26-10 7-17 12-26 17 3 16 1 39 11 49-9-3-11 3-18 1-6-16-29-25-37-42-15 0-31 1-42-4 0 7-10 9-12 15 6 4 11 6 16 8-2 5-3 6-4 9-10 0-20-5-23-12-6-13-11-25-14-31-9-2-13 0-19-1-5-8-1-12-13-14-4-6 1-11 5-9-9-5-11-15-13-25-6 6-11 11-16 15-7 2-14 2-18-2-3-12 0-22 8-27-12 11-19 27-36 32-3 10 6 17 3 25-5 5-8-3-10-4-2-15 6-24 10-36 6-6 11-11 16-15 2-6-6-6-4-12 2-9 11-14 19-16 14 0 26 2 36 6 14-5 25-11 36-14-4-2-3-7 2-9 6-3 10-4 15-3-34-6-65-15-95-30-19-14-37-31-52-48-16-17-27-33-32-52-1-9-1-15-1-21 3-26 29-36 51-26 24 4 46 13 65 26 14 8 25 15 33 27 18 21 34 47 47 68 1-17 0-38 2-56 2-15 4-27 11-37-17-18-44-11-57-30-9-7-16-16-14-27 5-5 11-3 15-4"/><path fill="#853D26" d="M350 247c-9 2-19 7-24 15-7 11-4 21-8 30-7-8-14-2-17-1-3-1-2-4-3-5 1 3 0 6 1 10 2 14 10 25 21 32 14 9 27 19 44 16 9-2 16-5 22-9-1-1-5 5-7 1 3-10 14-14 16-23 4-10 4-21 2-29 7 4 9-1 11-5 2 9 2 15 2 22-2 14-9 25-21 31 4-3 8-4 11-8 7-7 8-14 9-22s1-14 1-20c-2-4-1-6-2-7 2 4-3 9-7 8-10-19-5-2-25-34-9 0-16-4-25-2"/><path fill="#FDEB70" d="M382 133c-6 1-13 0-18 1-41 11-57 22-16 58 14 11 48 17 48 17 8-16 13-23 11-37 0-14-4-24-11-32-6-4-9-5-13-6"/><path fill="#D35D2C" d="M348 249c11-2 18 1 21 2 7 3 19 15 19 24 2 11 2 20-2 26-5 10-13 18-21 19-9 1-17-2-19-2-7-2-24-24-19-24-1-14-2-26 2-28 9-7 14-18 21-16"/><path fill="#FDE665" d="m361 137 1-1c9-1 19-1 25 4 11 9 14 20 15 32-1 8-11 9-11 19-4 7-1 12 0 17-15-20-102-56-29-72"/><path fill="#FDE664" d="M367 137c-66 10-15 36 6 58 4-1 6 2 7 2-2 0-2-4-5-2 5-3 9 4 10-4 3 3 2 5 3 7 0-8 5-17 11-21 3-7 1-17-3-24-2-7-5-12-10-14-8-4-16-2-22-3"/><path fill="#27171E" d="m312 333 1 1c4 3 7 5 10 9-11 19-61 33-5 17 5 5 13 5 20 10-1 13-14 16-20 22-9 6-18 2-26 3 6-1 13 1 19 1 10 14 1 31 6 45-9 4-22 1-31 0 14 2 29 6 39 4-3-6-5-11-4-17-1-14-4-27 3-37 6-6 12-5 15 0 0 6-1 12-3 16 2-5 5-9 10-12 13-10 24-16 37-24 19 8 15 34 36 37-5-7-16-17-14-30 5-2 9 1 12 6-6-11-11-10-12-18-18-3-37-1-51-8-16-5-29-14-40-25"/><path fill="#FCD642" d="M120 153c-11 3-23 12-19 26 4-1 5-5 10-3 7 8 16 17 15 27 0-2 1-3 2-4 5 1 11-1 15 0-4-1-9 1-13-1-6-8-11-13-14-20 8-9 16-10 23-14 9-1 18-3 24 1 4 6 3 13 3 19-3 6 1 15-8 14 3 0 5-1 6-2 2 4 11 20 18 28 4-2 7-2 9-3-9-10-16-21-23-31 7-4 14 2 17-1 8 2 10 8 14 12 7-1 13-4 20-4-9-12-5-12-20-21-17-8-33-15-49-19-11-2-19-5-29-4"/><path fill="#AA4910" d="M230 237c3 8 4 18 11 24-4-4-8 3-11 0 12 13 31 24 38 41-15 0-31-8-43-16-4-4-6-3-7-6 3 3 3 7 2 11 0-3 1-4 2-6 10 4 15 10 15 15 4 5-3 3-4 4 10 3 20 5 30 8-11 4 21 4 9 8 18-2 9 5 29 4-2-8-7-17-8-26-25-38-32-47-39-54 0 2 5 11 9 17-1 7-5 12-9 15-15-11-22-32-21-36"/><path fill="#FA8C0A" d="M314 186c-9 9-15 19-17 31-3 18-3 36-2 52 6-10 8-20 17-26 8-7 20-15 30-20-7-12-14-25-27-36"/><path fill="#D09059" d="M405 255c2 11 10 29 6 46-1 13-7 24-17 30 7-2 10-13 16-10 10 7 10 9 20 11-5 2-10 2-15 2 8-1 15 0 22 2 7-2 14-16 13-12 1-9 3-18 4-27-5 10-5 23-14 31 1-14-1-27-7-40-7-9-15-21-26-32"/><path fill="#FA9D47" d="M157 248c-11 7 0 16 4 22 4 5 4 13-1 6 5 6 13 9 16 12 18 7 35 15 55 19-19-12-50-15-68-34-4-6-8-10-8-13 9 8 15 17 24 21 12 8 24 12 36 16 3-5 5-11 3-13-10-10-19-16-27-24-12-4-22-7-32-11"/><path fill="#DF4F2A" d="M351 252c-4 2-6 3-2 7 7-3 12-2 15 2 3 3 7 5 7 8-6 9-16 13-23 15-4 7-8 10-9 14 8 12 20 10 29 15-10 8-20 2-27-2 6 5 13 8 22 7s15-6 19-12c-2 0-4 2-6 2-2-9 2-20-1-23 1-9 3 0 5-5 3-7 0-12 0-16-1-4-6-8-9-10-7-3-13-3-19-2"/><path fill="#705343" d="M382 374c-10 5-19 10-26 17 2-3 5-1 5-1 2 5 2 12-2 14 12 1 12 15 18 21-3 3-6 6-9 8 11-6 25-13 30-26 2-16-5-38-14-31"/><path fill="#FCF57D" d="M115 142c2 0 4 0 5-1-10 2-18 9-23 17-4 11-5 25 0 33 6 18 16 35 23 48 27 18 22 22 42 36-13-23-41-38-52-64-5-9-10-15-11-23-1-11-2-17 1-25 7-7 13-10 19-12 16 0 27 4 39 7 17 5 30 11 44 17 14 7 25 18 34 29-10-12-13-21-21-26-11-10-46-17-48-26-20-4-28-9-51-10"/><path d="M257 339c-13 2-25 6-36 12-3 6-5 10-6 15 4 2 12 3 13 9-4 9-16 12-13 20 4 1 11-5 16 1 1-11 5-19 11-26 7-18 59-27 14-32"/><path fill="#403133" d="M292 397c-12 6-5 35-11 40 12 4 24 6 34 6-4-16 5-33-5-44-6-2-11-3-15-4"/><path fill="#FEFB9F" d="M165 208c-14 4-27 3-38 9 0 7 2 12 6 17 6 7 13 9 19 11 28-9 32-35 9-36l5-1h1"/><path fill="#FCF785" d="M355 224c7-1 26-1 34 6 11 6 20 14 26 20 11 11 17 22 23 32 7 10 4 22 7 32 8-19 8-42 14-61 1-6 4-9 6-10-2-4-4-5-6-8-8 11-10 25-19 33-15-18-18-24-35-35-13-4-21-13-48-10"/><path fill="#683727" d="M253 120c-7 5-7 15-6 22 7 6 1-11 5-14 6 0 10 7 12 6 7 2 8 12 12 18 4-1 3 3 10 2 23 26 51 44 65 76 4-7-12-36-16-45-7-7-9-6-15 0 0-8 6-8 6-9-5-2-10-8-10-12-3 6-10-5-11-4-1 3-2 5-5 7 1-4-2-6 1-8 2-6 7-11 4-17-8-11 3 10-5 14-3-3-10-9-14-3 4-10-15-12-8-23 0 4-1 7-4 9-2-4-5-5-8-6-5-4-9-4-13-6-2-3 0-4 0-5"/><path fill="#FEF57D" d="M144 166c-1 1-2 0-3 1-23 1-27 17-9 29 9 1 19 0 28 1 3-8 8-22 2-30-7-2-12-2-17-1"/><path fill="#D45C15" d="M228 207c11 8 19 20 22 32-9 4-11-7-15-10-7-2-9-2-12-1-3-4-4-5-5-6 1-5 2-7 4-10-2 2-3 4-4 7-5 0-6-3-9-4 3 4 8 7 11 11-4 7-11 2-11 7-10 5-16 1-24-6 9 7 5 21 6 29 11 14 17 13 26 26-2-2-6-8-8-13 0-4 2-5 5-6-3 2-6 2-9 4 2-5 6-5 8-8-6 0-10-5-14-9-6-5-9-9-7-15 29 21 16 14 50 30-6-9-11-16-11-25 4 4 15 2 21 0-8-10-10-25-23-32"/><path fill="#683423" d="M324 395c-5 15-5 34 1 48 7 9 15 16 21 21 0-5 5-1 7-7 7 6 13 10 17 13 0-7-2-14-4-20-12-3-26-5-34-18-4-32 6-7 4-33-3-2-6-3-10-2"/><path fill="#FB6935" d="M229 262c-30-5-17 21 2 25 11 8 22 12 32 18 1-4 3-8 1-10-12-12-22-23-34-31l-1-1-1-1"/><path fill="#FBCB3B" d="M299 177c0 4-4 4-6 14-4 14-6 28-6 42 3 15-4 34 5 45 4-17-1-40 4-58 3-15 8-25 16-35-4-2-7-8-11-9"/><path fill="#A77241" d="M213 350c-15 9-43 9-39 20-6 0-2-3-6-3 4-5 8-8 12-10-6 0-13-1-19 0 12 9-1 13 10 17 1-3 5-7 9-10 6 2-1 4-1 9 10-6 16 4 21-4 0 10-8 15-12 22 8-1 13-9 18-15-1 4 6 7 4 12 19-3 4-15-2-14 1-7 8-15 7-24"/><path fill="#7C553F" d="M297 296c1 11 1 14 11 30 12 13 24 21 37 27 12 6 23 9 36 8 22 0 44 0 52-5-12-6-27-3-47-16-8-2-18 8-28 6 4-2 11 5 9 0 11 11 19 12 25 14-17 2-32 0-45-7-14-5-24-13-34-22-3-8-15-22-16-34"/><path fill="#663621" d="M246 411c4 15 9 30 16 44 1-3 7-5 6 1 5-6 10-10 11-16s1-11 0-16c-13 5-20-9-30-12"/><path fill="#D64614" d="M473 267c2 5 9 8 9 14-6 3-12 4-14 7-7 13-1 34-2 30 8 1 10-2 14-3 4-5 9-10 9-16 1-11-2-18-5-25-3-5-5-3-9-6"/><path fill="#AC7349" d="M410 321c-39 16-18 26 14 32 2 0 3 0 5-1 6 3-2 4-2 5 10-4 19-6 24-12 1-8 1-18-2-21 2 8-8 5-11 11 2 1 2 3 4 3-5 2-9 13-17 14-11 0-18-7-20-15 9-3 10-5 24-4-4-2-13-4-16-11-4 0-5 0-6-1"/><path fill="#402A21" d="M320 339c-10 11-51 36-57 32-5 4-10 13-14 18 9-4 21-1 28-4 3-2 0-11 3-13 6-4 16-10 24-11 3-12 26-15 16-23"/><path fill="#2F211E" d="M241 374c-6 10-11 25-5 38 1-5 2-9 6-11 4 1 27-1 37-5 7-7-1-15 1-21-1 4 2 8-1 11-9 4-24 0-29 3-3-2 1-1 1-4-5 2-12 7-14 10-4-6 0-13 3-19"/><path fill="#FB9D51" d="M183 225c-7 7-18 11-24 21 10 4 19 7 28 10 5-11 3-22-5-29"/><path fill="#5D443B" d="M308 320c8 16 21 23 26 27 18 10 37 14 58 13-8-3-19-3-24-13-7 2-22-2-31-7-11-6-19-10-26-18"/><path fill="#FEEB72" d="M372 155c6-1 12 5 14 10 0 11 1 17-4 24-10-3-9-14-16-17-1-8-1-14 5-16"/><path fill="#482422" d="M344 248c-8 2-15 8-20 14l-1 2v1h-3c-1-5-17 3-13-5-6 14-8 19-8 29 1 1 12-7 16 3 6-10 3-19 9-27 5-10 13-14 20-17"/><path fill="#FB8954" d="M244 243c-20 1 3 23 7 30 5-2 9-4 10-6-1-9-5-14-7-20-3-4-6-5-9-5"/><path fill="#E67821" d="M227 206c-4 4-6 9-8 14 6 10 19 4 28 23 2-12 1-16-9-29-4-3-6-8-10-8"/><path fill="#FDF67F" d="M109 178c-6 3-6 9-5 15 2 9 9 16 14 20 4-6 7-10 6-16-4-8-8-15-13-19"/><path fill="#5A413B" d="M360 389c-3 2-15 2-14 14 10 6 28 26 19 29 7-2 9-6 11-6-6-7-5-20-18-21 3-5 5-6 3-9 1-6 0-4-2-5"/><path fill="#462324" d="M397 276c1 6 7 9 10 3 0 7-5 9-8 5 1 9 1 19-2 27-2 12-17 16-17 24 10-4 21-10 25-21s4-22 3-33c0-4-6 4-10-3"/><path fill="#4E2826" d="M462 146c-5 5 3 9 4 23-2 4-3 6-6 7-5-1-10-6-12-9 4 19-9 2-8 26-2 13-7 20-8 24 8-1 8-11 13-15-2-4-3-7-6-9 4-2 5 1 8 2 4-5 8-11 12-16 3-1 6-9 11-11-2-9-3-16-8-21"/><path fill="#613428" d="M417 390c3 2-6 6 1 9-5 3-4-1-7-2 7 7 8 16 4 24 0-1 4-6 6-6 3 4-1 7 1 10-4 8-1 22 1 31 10-7 8-23 9-35-3 1-7 7-9 6 3-17-3-30-3-37"/><path fill="#70342E" d="M508 120c0 4-5 6-6 10-6-3-9-6-13-8 2 3 7 5 7 8-14 1-18 19-29 22 2 3 2 8 4 12 5-13 25-18 28-26 5-6 9-12 9-17"/><path fill="#FDE65F" d="M171 188c-2 9 14 21 18 30 3 1-4-3-3-6 7-1 12-5 15-1 2 4-3 5-5 7l9-6 1 1-1-2-1 1-1-3s-8-13-13-17c-6-1-10-1-15-3"/><path fill="#FDF88A" d="M145 201c-4 2-10-1-14 1-5 5-7 8-9 12 4 9 5 18 14 23-4-3-7-9-10-13-2-5-1-9 3-10 9-5 22-4 33-6 6 8 5-4 10 4-4-12-14-13-26-11"/><path fill="#FEEB73" d="M374 156c-7 0-8 7-7 14 7 5 5 15 15 18 5-6 2-12 4-21-3-6-6-10-10-11"/><path fill="#E6AB56" d="M390 238c17 19 22 20 43 49 5 6 6 15 7 24 2-17-5-31-13-44-10-13-22-24-35-30"/><path fill="#8E5F3E" d="M183 370c2 4-8 6-5 1-3 6-3 11-5 19 3 8 17 7 17 2 3-1-3 3-3-1 19-19 13-21-3-19"/><path fill="#713121" d="m349 236-3-1c-16 7-39 27-37 22-3 11 10 0 11 8 8-8 16-17 25-19 32-1 62 23 18-8 7 5-8 10-15 7-5-4-7 0-13-1-1-4 7-5 11-8 4 2 7 2 9 4l-6-3"/><path fill="#F4CD6B" d="M358 225c-1 1-2 4-4 5 15-4 28 4 38 8 13 4 23 15 31 23 10 13 15 24 18 36 2 12-3 21-2 30 6-6 8-12 10-17-2 1-3 3-3 6-5-9-2-18-6-24-4-12-9-20-14-29l-2-2-1-1-2-3c-9-10-18-17-30-25-11-5-20-9-32-7"/><path fill="#28161E" d="M401 403c-1 8-7 14-14 19 3-1 5-5 7-6 8 5 8 9 13 13 8 12 15 24 14 38 2-19-9-37-6-51-6-6-9-6-15-11"/><path fill="#FDF99A" d="M330 171c8 20 22 28 35 43 12 0 22-2 33-2-3-3-32-6-52-19-7-7-9-14-15-19"/><path fill="#512924" d="M310 363c5 4 8 21 12 26 4-4 9-7 15-11 2-6-1-9-5-10-8-2-14-4-20-5"/><path fill="#DA812A" d="M245 218c5 20 40 65 48 76 0-3-3-8-2-12-8-8-30-40-46-64"/><path fill="#FCE05C" d="M189 170c15 8 26 13 28 23 1 7-10 4-13 10 1 5 3 3 7 8 11-2 12-9 21-8-10-16-26-24-40-32"/><path fill="#F57033" d="M359 259c4 2 8 9 7 14-6 1-11-1-16-3-10 2-9 19-20 21 5 2 8 0 9 5 4-2 2-8 6-12 9-2 14-6 20-8 8-7 1-16-4-16"/><path fill="#D38428" d="M305 367c-6 3-16 6-21 9-2 4-1 6 2 6 13 3 37 2 20-15"/><path fill="#522922" d="M354 459c-15 6-3 6 9 23 9 5 6-2 13 4-3-12-6-6-5-20 0 2-1 3 0 6-4-5-11-6-13-12"/><path fill="#BE431B" d="M480 287c8 1 7 11 4 16-4 7-10 4-16 3-3-4-3-9-1-10 5-4 11-2 13-7"/><path fill="#80442D" d="M252 125c7 2-5 7 0 20-1-3 1-4 4-3 17 8 16 9 27 17-5 0-14-15-16-24 0-8 9 5 5 6-2-2 7-4 4-8-5 5-15-7-22-7"/><path fill="#4C3433" d="M347 395c-7 5-10 14-11 17 9 6 24 7 28 20 5-3 2-7 1-11-8-5-8-9-18-11-3-6-2-10-1-13"/><path fill="#B23D32" d="M382 263c3 21-12 25-3 43 6-4 4 1 8-12 0-11 2-21-4-27"/><path fill="#834B24" d="M333 411c-2 5-5 16 2 23 8 10 19 12 28 14 4 3 6 5 6 7 0-3-2-5-1-9-8-6-28-9-33-23-1-10 5-4-3-11"/><path d="M271 321c6 1 12 4 18 7 4 10-19 9-10 10 12 5 23-3 31-4-5-10-25-8-37-13"/><path fill="#F37516" d="M207 215c-5 3-14 6-20 10 5 4 7 7 10 9 5-7 26-6 11-18"/><path fill="#BA843F" d="M341 418c4 6-11 3 6 14 6-2 17 16 19 10 2-9-8-11-11-18-2-3-9-4-14-5"/><path fill="#FB6907" d="M328 290c1 7 5 16 11 20 8 3 13 11 28 4-18 0-29-19-37-23"/><path fill="#CE955F" d="M499 112c-3 5-9 6-13 8-6 3-10 5-13 9-10 9-17 20-23 31 7-4 6-14 14-19 12-2 15-6 26-13 1-5-6-4-7-7 13 5 9-7 21-9"/><path fill="#FB9B3A" d="M333 263c3 4-11 29 1 25 4-13 9-14 14-20 7 3 12 5 15 4 3-3 1-4 0-6 0 2-3 5-5 5-5-1-6-2-8-3-3-2-2-3-2-4-3 1-6 2-6 6-4-4-12 1-8-7"/><path fill="#2D1C1B" d="M474 258c-4 8-6 17-10 25-4 20-6 27-6 52-5-14-2-28-2-46-1 17-4 34-2 52 5-4 8-10 11-15-4-7-4-16-2-26 0-16 8-35 14-38"/><path fill="#FCD52E" d="M409 217c14 3 14 25 27 20-1-4 0-9 2-13-10-4-19-6-27-6"/><path fill="#BA3F18" d="M479 290c-1 4-5 4-9 3-3 4-4 6-3 10 4 5 10 2 12 4 6-5 9-20 1-15"/><path fill="#F97637" d="M192 233c1 6 0 12 7 15 5 8 11 11 19 11-7-10-16-19-24-24"/><path fill="#814931" d="M234 121c-8 6 6 15 10 21 1-6 1-13 4-19-4 0-7-2-12-1"/><path fill="#67391F" d="M311 337h-1c-6 9-13 14-21 21 1-4 11-16 9-14-8 9-14 17-22 22 12-4 47-24 39-30"/><path fill="#CD5812" d="M225 287c-15 12-12 15 14 16-3-5-6-13-15-15"/><path fill="#B76F29" d="M277 349c-4 2-8 2-11 4l-2 1-2 2 3-1 2-1c-9 14-10 1-14 16 5 4 35-18 24-19"/><path fill="#FCE75F" d="M117 153c-5 3-11 3-14 9l-1 2-1 1-1 1c0 4-3 9 0 12 0 4-1 6 0 8 3 15 11 26 18 38l2 2-2-3c2-4 10 11 15 13-7-5-8-13-13-20 2-4 2-6 4-6 0-3-5 8-9 1-5-6-11-10-11-17-2-7-2-13 4-16 6 0 8 4 10 8l1 1 2 2-1-1-2-2c-1-3-3-6-6-8l-1-1h-1l-3-1c-2 0-3 6-7 4-1-6 0-10 1-13 4-9 11-12 17-15"/><path fill="#A05521" d="M315 379c1 7-7 7-10 9-8-1-13 3-19 1-2 2-2 5-3 8 5-8 21-2 32-6 3-4 0-7 0-9"/><path fill="#502E29" d="M252 436c5 8 7 19 12 27 5 5 14 11 16 5 1-5-9-6-13-15-3 1-2 5-6 3 0-7-6-8-7-19"/><path fill="#3E2725" d="M460 270c-3 20-4 39-5 64 2-24 6-36 9-56-3 6-5-4-4-7"/><path fill="#532623" d="M406 376c-1 11 3 20 10 24-4-3 1-14 3-10-2-6-6-12-11-13"/><path fill="#F8C53D" d="M93 164c-4 10-3 24 0 33 6 15 14 27 24 37-8-11-14-24-20-36-4-11-8-22-3-32"/><path fill="#4A2D2A" d="M420 447c3 11 5 22-3 28 2-3 9 4 6 3 13-11-1-15 7-26-3 2-5 2-6 6-3-3-2-6-2-9"/><path fill="#844D22" d="M291 393c-2 6-6 6-10 6l1-2-1 1c-5 7 5 0 5 4-3 6-3 10-6 13-4-2-5-4-7-5 2 3 3 6 3 8-12 4-19-7-29-9 12 4 19 19 32 14 2 5 2 10 1 14 0-7 0-15 2-22 0-6 3-7 3-10 2-6 4-9 6-12"/><path fill="#A44616" d="M411 235c9 7 18 15 22 20 2-7 6 5 9 0 8-4 9-11 12-16l1-2-1 2c-3 4-9 12-13 11-8-5-21-3-27-13"/><path fill="#F29E3A" d="M227 205c10 3 22 21 26 33-2-5-8-14-6-19 15 21 25 39 39 56-7-11-15-28-23-36-4 0-9-11-14-16-6-7-9-12-12-17h-2l-1-2-1 1"/><path fill="#C19F68" d="M166 372c-6 3-14 10-17 17 8 5 18-10 20-16"/><path fill="#C4954B" d="M339 423c10-1 20 7 25 15-9-1-16-8-24-12"/><path fill="#F4C565" d="M365 232c8 11 25 13 34 20-4-8-10-11-19-15-1-2-8-4-13-5"/><path fill="#913F25" d="M360 237c-47 2-5 14 6 2 7 2 12 7 18 10-5-4-12-7-19-9-5-2-8-3-12-2"/><path fill="#A37E4A" d="M217 411c3 6 17 8 9 15 8 1 11-1 16 0-9-2-6-10-24-16"/><path fill="#FA7529" d="M348 253c-6 2-14 5-13 13 1 0 4 0 5 3 10-8 10-9 6-17"/><path fill="#E1CC73" d="M179 346c-6 2-12 5-15 6 8 1 16 1 21-1 4 4-2 6-4 8 11-3 17-8-2-14"/><path fill="#67332E" d="M462 151c-2 5 3 11-3 14-4 2-7 2-10 1 1 3 7 8 9 10 4-2 5-4 6-6 1-7-4-11-2-18"/><path fill="#4B322B" d="M280 397c-7 4-16 3-24 4 7 5 11 4 15 8 5-5 6-8 8-12"/><path fill="#F8C73F" d="M283 128c-8 5 7 14 12 13 1-6-4-8-10-13"/><path fill="#A14D1B" d="M305 158c13 4 17 16 31 29-5-8-11-18-14-23-5-8-10 3-15-6"/><path fill="#4C2721" d="M332 387c-17 10-5 7 6 11 0-3 2-4 1-6-3-2-4-5-6-5"/><path fill="#673D35" d="M395 263c-2 3 1 14 8 18 7-7-2-14-7-16"/><path fill="#EEE088" d="m180 345-1-1c-14 6-14 7-1 1 7-2 11 6 17 6 10-1 4 3 15-3-10-1-18-2-26-5"/><path fill="#CCA054" d="M340 424c7 5 15 10 21 16-2-9-11-14-18-17"/><path fill="#EC8126" d="M384 215c-5 3-9-1-15 4 9 3 10 1 19 4 6-4 6-9-2-7"/><path fill="#834933" d="M372 242c21 14 18 25 32 26-2-6-17-18-29-23"/><path fill="#B96B3E" d="M492 127c-8 9-24 14-32 15 5-2 5 5 6 6 10-3 17-16 27-19"/><path fill="#955A1F" d="M248 407c8 5 17 13 26 11 2-2 0-6-2-7-8 5-15-2-20-3"/><path fill="#9E561F" d="M270 337c4 2 9 5 13 7 0 16-24 22-31 31 9-3 12-15 19-8 5-9 12-16 14-22-4-6-11-3-13-8"/><path fill="#FCE360" d="M132 239c5 6 9 11 16 16 4 5 5 7 8 9-2-2-4-4-7-6 3-4 2-8 6-9-8 6-13-9-21-7"/><path fill="#FCFDAF" d="M407 220c2 6 10 12 15 15 1-6-7-15-13-14"/><path fill="#FBE25E" d="M257 116c-4 7 13 6 16 8-2-8-8-5-14-8"/><path fill="#522937" d="M407 338c1 4 18 3 22 6-1-1-1-5-3-6h-15"/><path fill="#CA9F52" d="M293 342c-6 4-11 11-20 23 8-6 18-14 22-23"/><path fill="#695545" d="M241 402c-1 4-3 7-3 11 6 10 5 10 11 17-5-8-4-19-8-26"/><path fill="#B6782A" d="M255 404c-15 2 6 5 13 9-3-6-8-8-13-10"/><path fill="#794121" d="M280 399c-2 3-4 8-8 11 3-1 4 2 6 3 5-2 4-10 7-9 1-6-5 2-7-4"/><path fill="#C2A25C" d="M223 408c-13-1 20 14 16 15 0-2-2-7-5-11-2-2-5-2-7-4"/><path fill="#FDF270" d="M199 210c-4 2-9 1-13 2 2 3 5 6 6 7 9-5 18-12 7-7"/><path fill="#6F391F" d="M242 373c-2 5-4 10-6 14 8-1 12-7 9-14"/><path fill="#C29F67" d="M141 407c0 5-5 12 0 16 5 1 7-1 7-4 0-10-6 5-7-12"/><path fill="#B16C32" d="M253 122c3 7 15 5 20 13 3-8 6-5 8-11 0-4-2 10-12 4-5-2-9-4-13-5"/><path fill="#F9A22D" d="M391 216c6 1-8 9 11 11 3-2-4-5-1-9l-3-2-1 1v-1"/><path fill="#271419" d="M413 336c-16 3 8-2 12 1 5 4 7 10 2 12 5-2 7-6 11-10-7-4-15-2-24-3"/><path fill="#F8EB85" d="M264 324c-5-1 14 6 17 11-3-1 1-6-3-8s-7-3-10-4"/><path fill="#EF832A" d="M156 260c4 7 8 15 16 19 10 7 19 11 28 14-9-4-18-8-26-13-7-7-12-13-17-18"/><path fill="#FAA439" d="M345 198c4 6 12 16 15 20 1-8-9-14-13-18"/><path fill="#F69718" d="M414 232c3 12 12 7 20 10-4-10-11 1-18-10"/><path fill="#7F2C14" d="M430 254c6 4 5 5 9 11 4-4 7-7 8-10-5 7-11-4-14 1"/><path fill="#975A25" d="M335 417c-2 7 4 8 6 14 6 4 10 9 16 9-14-4-23-21-17-22"/><path fill="#66313E" d="M408 339c2 2 3 5 6 7 6 0 13 0 13 2-2-5-12-5-17-8"/><path fill="#CD9C54" d="m468 246-1 2c-4 3-3 8-5 12 3 2 14-18 8-11"/><path fill="#825033" d="M473 251c-1 6-7 9-9 15-3-4-2-6-2-9-2 3 0 5 0 9l2 2-1 1v1c1-6 5-3 3 2 3-8 7-13 6-20"/><path fill="#CCAF65" d="M179 353c-5 2-17-1-19 2 10-1 34 3 22-3"/><path fill="#542A26" d="M421 415c1-1-5 8-6 7 1 6 4 13 4 23-2-13 1-19 3-30"/><path fill="#683B2B" d="M461 262c-1 5-1 11 1 17 4-2 3-5 5-6-1-9-4-4-7-9"/><path fill="#FAF2B1" d="M382 133c7 2 15 6 19 14 8 12 7 25 8 38 1-14 0-26-5-37-6-8-12-14-19-14"/><path fill="#EA6D16" d="M217 223c-9 5-8 6-16 10-1 1 23-3 17-8"/><path fill="#C89D6E" d="M495 148c-3 5-9 7-14 9 1 3 6-1 11 0 2-2 5-5 2-7"/><path fill="#DD8326" d="M227 304c-1 4 18 7 33 12-24-7-3-7-34-12"/><path fill="#C47223" d="M310 382c-7 7-18-2-24 4 9 2 20 0 25-3"/><path fill="#FBBF30" d="M401 218c2 7-1 10 10 14 7-2-5-7-7-12"/><path fill="#E4D075" d="M224 398c2 4-2 9 10 13-7-5-2-14-7-13"/><path fill="#FBFDAF" d="M438 228c0 5-3 11-1 16 3-5 6-10 4-16"/><path fill="#AA4730" d="M507 115c-7 0-5 10-9 10h-3l-2-2 3 3h1c5 5 4-2 9-3-1-4 3-5 0-7"/><path fill="#E5A146" d="M258 325c0 5 11 5 16 10-2-8-9-8-14-10"/><path fill="#F4ECA2" d="M279 326c2 4 0 7 4 8 3 0 5 0 5-2 0-3-3-6-7-6"/><path fill="#884B3A" d="M459 151c4 9-5 10-10 13 2 3 6 1 8 3 5-5 5-8 2-14"/><path fill="#FDE85D" d="M146 164c-1 1-3 0-4 1-10 4-18 5-25 11 3 8 6 13 10 18l-9-15c12-11 26-17 42-13 11 8 2 25 1 30 3-8 8-23 1-31-6-2-11-1-14-2"/><path fill="#E9A53A" d="M279 132c3 6 10 14 17 14 4-3 4-6 1-8 2 5-2 5-6 3-7 0-7-6-12-7"/><path fill="#B57030" d="M230 116c-10 6 13 3 20 6-1-3-15-3-17-7"/><path fill="#D78D4B" d="M478 126c6-2 0 14-6 8 0-3 2-3 3-5"/><path fill="#B66C39" d="M259 323c-15 1-8 14 3 10-1-5-6 1-7-4-2-4 1-4 2-5"/><path fill="#4A211F" d="M385 254c-10-2 7 10 9 23-3-11 0-14-10-24"/><path fill="#986444" d="M422 319c4-2 11 0 8 6-4 2-5-2-8-3"/><path fill="#FADC4A" d="M288 225c5 1 1 11 3 15-4-2-3-8-4-12"/><path fill="#FCFCB7" d="M352 261c-4 4 3 7 6 8 2-6 0-8-4-7"/><path fill="#DE731A" d="M228 208c7 0 12 9 15 13-5-2-7-8-13-10"/><path fill="#DFC96D" d="M214 369c0 2 4 11 8 9 4-6-4-5-5-8"/><path fill="#492C20" d="M246 382c-3 6-12 5-11 13 2-6 15-8 13-10"/><path fill="#F8C964" d="M344 226c-14 6-29 16-38 29 11-13 25-23 39-29"/><path fill="#F4EB86" d="M256 357c-6 13-8 7-8 20 4-5 4-12 9-17"/><path fill="#010000" d="M401 401c10 12 6 10 11 9 3-4-3-5-6-7"/><path fill="#C56818" d="M244 310c10 2 19 9 18 3-4-1-9-5-15-2"/><path fill="#FBCC26" d="M445 228c-2 3-1 7-3 10 2 1 4 2 5 1 1-5-1-7-1-9"/><path fill="#F3702D" d="M472 267c-3 6 9 6 6 13-4 5-15 0-8 7 0-5 6-3 9-4 1-6-2-10-5-14"/><path fill="#A46D33" d="M424 404c1 4 3 11 0 15 7-2 6-9 1-12"/><path fill="#A1715F" d="M321 242c-3 6 3 3-12 11 8-5 29-13 15-10"/><path fill="#6B3523" d="M311 364c0 9 6 16 7 25 2-3-4-16-6-23"/><path fill="#EE8E16" d="M447 230c1 2 2 4 1 8-3 3-7 2-7 6 5-2 18-9 8-14"/><path fill="#291812" d="M463 174c-12 15-18 27-26 45 7-15 15-29 25-42"/><path fill="#9C5325" d="M279 139c8 5 6 14 15 10 3 4 5 4 5 6 1-4 4-6 3-9 1 5-4 2-7 4-6-3-10-5-13-9"/><path fill="#B73E0A" d="M208 245c4 5 12 10 12 16 1-1 4 0 6-1-6-4-11-10-16-14"/><path fill="#B07E44" d="M491 148c-5 3-9 5-14 8-2 1 14-3 16-8"/></svg>