<svg xmlns="http://www.w3.org/2000/svg" width="600" height="600"><path fill="#A4673C" d="M260 112c19 9 42 5 63 8 17 4 28 19 38 30 10 1 16 6 23 7 14 15 32 25 38 45 40 18 61 44 98 64-1 15 11 23 8 38-1 11-6 18-8 27-3 19 2 36-1 52-13 26-43 25-57 47-10 5-20 6-29 9-4 12-6 24-16 30-11 7-19 16-31 16-4-2-7-3-8-5 6-3 12-6 10-13-12-4-10-19-11-24-13-3-18 3-28 0-10-2-20-7-30-9-6 11-17 19-25 23-13 9-27 10-40 11-18-4-36-2-48-13-6-6-8-12-9-18 8 2 14 10 21 8 9-13 14-26 23-36 7-7 15-8 22-9-10-11-18-23-26-35-7-9-15-13-23-15-7 4-14 8-18 12-5 19-5 38-13 54-20 21-41 41-66 54 16-15 4-44 19-59-9-8-4-18-9-25-6 1-14 1-18-3-7-5-7-11-6-18 0-5 5-7 6-10 7-2 12-1 17 0 3-6 3-13 8-18-2-9-9-14-7-24-1-11 1-21 7-27-7-14-18-24-25-33-95-41 37-22 58-14 13 7 19 12 23 21 5 11-2 19 2 28 3 8 6 4 12 5 13-11 24-24 36-34-5-10-19-9-21-21 26-28 23-70 54-97 0-12-9-18-13-25"/><path fill="#C55B20" d="M392 251c-10 6-29 0-39 10-13 7-27 12-33 19-20-5-17-1-19 21 3-4 3-12 7-11-2 8-1 16-3 22 6 6 14 7 17 15 7 0 10-5 15-5-8 5-13 20-21 16 3 0 6 2 11 1 0 12 5 23 11 33 9 7 18 11 26 15 12-4 25 4 52-6-6-8-17-13-21-20 8-8 17-3 24-3 11-5 16-16 25-19-3 7-12 15-19 20-10 6-17-2-24 0 3 2 11 5 17 7 22-8 41-27 59-31 10-2 23-5 29 8-5-34-8-69-2-78-7 14-8 35-2 52-1 5-3 6-4 8-5-4-3-7 0-9-3 2-4 6-8 4s-7-3-10-5l-3 1h-2l3 1 1-1c3 1 8 2 6 7-4 2-7 0-10-1-7 2-7 5-10 7-3 0-2-5-3-8-11 6-17-4-25 2-11-12-17-34-19-54-8-9-18-5-25-7-9-5 0-7 0-11"/><path fill="#FAA629" d="M354 209c-6 1-11 1-16 3-12 22-38 44-32 68 4 0 8 1 10 0 8-8 23-12 34-21 13-9 33-3 41-9 6 4-6 6 1 10 9 3 19-1 24 8 5 21 11 43 24 52 6-3 12 5 19-1 6 3 4 9 5 10 5-3 8-10 13-14 10 7 17 4 24 1-7-18-4-40-4-58-10-3-12-13-22-15 3 4 8 8 6 15-4 5-10 3-11-2-3 2 4 8-3 5-13-16-29-28-46-37-4-8 6-15 8-15-8-1-7 9-9 11-16-4-28-10-43-9-9-1-14-3-22-2"/><path fill="#793D29" d="M381 264c14 1 25 12 35 22 7 7 7 15 8 22-7 7-2 27-12 32-12 10-25 13-40 12-9-5-17-9-24-15-7-10-6-20-8-29 2-11 4-18 7-25 6-7 11-10 17-14 5-4 10-5 16-4"/><path fill="#567074" d="M260 367c-11 3 6 16 17 35-2 1-3 0-4-1 4 4 7 7 11 8 9 0 16-3 21-9 1-4-2-6-2-9 5 6 18 12 20 10 7 9-6 17-3 27 2-1 9 2 13 1 2 3 9 7 5 8 3 1 11 3 19 3l2 1h-4c2-5 23-4 18-8 9 2 17 3 24 4l-3 1h-2l3 1 1-2c17-2 31 0 43-10-3 1-6 0-8-3-3-10 4-15 2-24-24 2-46 11-69 10-15-6-27-11-39-18 2 5 7 8 13 8-3 3-5 2-8 1-8-6-7-14-15-18-13-16-17 1-27-16-1 24 1 8 10 37-11-10-12-18-14-26-5-2-8-1-11-1-6-3-9-8-11-12"/><path fill="#6C281C" d="M304 342c-8 10-2 25 6 34 7 2 10 1 13 0-4 4 0 10 5 11 7-6 11 7 14-4 13 7 20 17 33 16 18 0 35-4 52-4 14-3 24-10 34-18-3 9-14 15-21 21-3 4 7 9 0 13 4 0 6-2 10-1 5 5-5 7 4 7 10-3 17-16 27-16 6-8 6-15 8-21 7-15 8-4 15-11-6-7-15-7-25-6-15 2-25 10-37 15-9 2-17 2-24 0 3 1 5 3 7 4-20 4-37 12-54 9-12-3-21-7-30-13-11-10-13-20-17-32 2 2 0 5 1 7-9 2-7-7-11-8-4 0-6 1-7 0"/><path fill="#9F5333" d="M270 146c0 3-4 2-4 4 8 11 11 23 24 21 1 7 4 10 1 13-8 6-10 13-8 18-12-8-27-16-35-20 5 0 7 15 15 24-8-1-14-5-19-11 9 10 0 4 4 12-9-1-6 11-14 11 1 2 5 3 6 5-3 2-5 0-7-1-6 8-6 9-10 18 18 17 15 0 22 16-1-10 10 0 12-10-2-6-3-11-7-15 7 2 8 12 12 11 4-3 6-5 8-6-2-7-4-11-6-15 6 3 7 7 9 11 1-6-3-10-5-14 5 4 9 9 8 14 5-2 9-5 11-6-1-7-3-12-6-16 5 3 7 7 9 11 5-3 10 1 15-5-1-11-6-22-9-32 21 35 5 9 10 26 6 2 6-2 5-7 3 3 4 5 3 9 5-1 8-2 11-3 5-1 2-4 4-5 9 3 27-3 0 2-2-10-3-18-8-26 3 9 7 19 7 29-5-16-11-30-21-40 7 12 12 24 14 38-4-11-8-20-12-30-7-12-3-12-9-16-3-5 7 10 7 14-2 5 0 10-6 10-7-12-42-41-27-35"/><path fill="#63413B" d="M162 310c-6 5 3-1 4 5-12-4 0 5-7 8 4 2 8-2 9 1-7 3-12 1-17-1-1-1 10 2 3 7-6-3-10 2-17 2 3 5 5 3 9 5-9 7-12 11-13 19-4-5-1-10-1-13-1 2-2 4-1 8 15 15-8 32 3 45 12-13 25-29 37-43-12 17-24 31-34 46 3-1 8-11 13-12 4 3 9 8 9 12 4-10 9-20 15-30-10 28-18 33-24 56 6-7 9-16 14-25 5-2 6 1 8 2 2 6-3 16-1 13 16-51 13-17 16-32 1-12 3-16 1-20-5-5-10-13-16-16 3-8-4-16-4-20-2-5 4-9 3-14-3 1-6 0-8-2"/><path fill="#D1773A" d="M263 117c14 8 28 23 40 32-4 5-19-12-23-13 7 2-1 8 4 13-4 8-8 0-13 0 9 12 21 23 30 34 5 1 3-3 5-7-1-10-15-25-13-29 15 22 30 37 33 60 0-9-2-17-6-25 7 6 8 14 11 21 5 2 8 3 13-1-1-17-8-31-16-44 12 12 17 26 20 42 3-5 7 6 11 0-4-17-1-30-4-36 9 10 15 22 16 37 7 2 13 3 19 5-2-2 0-5-1-7 1 6 5 9 11 11 1-12-13-12-13-24-1 4 4 11 0 16-4-10-7-16-8-22 1-6 4 0 4-5-4-3-3 4-6 1h1v3c0 4 3 8 0 10-6-7-18-16-26-36-5-4-8-6-9-10h-2l1 1c2 3 5 6 7 9 3 10-11 8 0 12-16-6-15-5-22-12l-2-1h1c-2 5-6 7-11 6-6-1-8-4-9-6-14-14-24-22-38-33 7 1 14 1 21 3-10-2-16-4-24-6"/><path fill="#A14D31" d="M108 231c12 2 23 12 32 17 0 8 13 24 20 30 0 4-1 6-4 5-23-28-20-4-40-26 11 14 20 22 19 28 1 3-1 5-3 8-2 8-5 21 1 30 2 4 4 6 6 8 4-1 9-2 10-3 2-6-8-6-12-9 7-1 14 2 21 3-3-14 14-4 0-13 10 1 15 6 18-3 0 3 3 6 1 8 1-7 5-15 11-19-2-1-1-5-4-5 3 0 2 4 3 4-3 5-3-2-5 3-10-14-17-28-29-39-9-10-21-18-34-23 6-2 10 0 15 0-7-2-16-3-24-4"/><path fill="#643F39" d="M308 399c-10 7-2 10-15 19-7 5-13 8-19 10 6-4 13-10 21-14-3-1-15-1-20 1-10 4-14 13-20 19 2-7 10-20 21-23-3-1-5-4-8-6-4 0-17-2-21 4-10 13-16 15-18 31-7 4 0 1 4 3-9 0-13 7-20 5-8 4-9-14-12-6 4 7 6 12 12 14 5 4-5-3-7-6 10 7 13 5 22 7-1-3-2-5-1-9 11-1 19-6 26-11 5-2 7 3 10 4 26-9 26-17 56-28 1 0-3 2-1 6 11-17 4-19-10-18"/><path fill="#EED897" d="M331 213c-6 1-12 3-18 6-3 15-10 26-10 39-9 5-15 19-20 28 0 15-5 26-12 35 1 10 5 14 13 15 4 3 7 2 10 2 0-28 5-48 8-74 0-3 2-3 1-5 11-16 20-31 28-46"/><path fill="#D56B38" d="M315 417c-5 8-6 17-12 25-2-4 13-24 3-20-16 11-35 19-52 25 0-2 3-3 5-5-1-2-2-3-3-4-7 6-14 9-22 11 0 5-3 7 7 9 10 3 21 1 30 1-13 4-26 5-36 1 16 7 34 2 49-2 11-4 18-10 24-18 6-7 8-13 9-20"/><path fill="#66433A" d="M208 295c-8 3-6 2-12 10-4-3-11 6-12 9-3 9 5 13 4 19-7-3-8-8-7-13-2 4-6 5-5 12-3-6-3-8-2-11-5 8 1 16 3 23 2 6 6 8 8 12h2l2 2-1-1-4-3c7 1 9-2 17-4-1-4-8-5-4-8 4 5 15 1 18 3 2-1 1-5 2-7 5 5 11 10 16 12 0-8-15-23-7-29-9-1-12 12-10 16-12-4-11-7-13-13 1-4 3-21 12-26 1 4 1 9 3 13 2 6 4 3 6 1 3-22 2-17-2 1-6-4-4-11-6-16-8 8-10 10-16 18 3-8-7 2-4-9 4-6 4-1 9-11"/><path fill="#240E15" d="M384 283c-3 1-7 0-10 2 5 1 11-1 14 2-4 13-1 9-8 19-2 4-1 8 0 11 5 7 9 8 15 9 7-3 11-7 12-12 2 17 5 9 4 17-9 9-18 11-28 10-8-1-13-5-17-11-7-7-7-15-6-24 1-8 4-13 9-18-10 6-11 17-13 26 1 12 10 19 16 25 10 6 21 5 28 1 1 7-22 8-11 8 10-2 15-6 21-11 6-7 7-15 6-24-2-10-6-17-12-24-7-4-12-7-18-7"/><path fill="#D76D34" d="M270 243c-12 6-20 20-30 26 1 4-3 11-5 17 7 8 2 15 6 23 2-15 9-25 18-31 2 13-1 28 7 39 5-2 7-5 10-7 6-16 2-17 8-29-3 4-4 9-7 13-4-5-9 1-13-3 7-18 0-23 15-45-8 14-12 21-17 33-2-11 6-24 7-34"/><path fill="#D57848" d="M119 234c12 6 24 12 34 22 13 14 20 28 28 42 0-4 3 1 5-3-17-72 11 25-5-32-2-3-7-16-14-21-15-6-29-8-46-8"/><path fill="#516265" d="M151 387c-4 3-9 8-14 14 2 19-11 31-7 51 10-19 22-15 41-40 0-4 2-6 2-8-3-3-4-4-7-3-7 9-10 19-16 27 2-11 5-20 8-28 0-7-6-8-4-13"/><path fill="#340201" d="M484 336c-22 5-40 19-58 33-8 0-13-2-18-3 7 5 16 6 26 5 15-7 28-16 44-18 12-1 20 1 26 7 6-17 6-23 2 0-1-8-1-13-4-17-4-7-10-8-17-7"/><path fill="#694D3E" d="m260 329-2 2c4 4 3 13 2 23-17-5-20-42-26 0-1-8 20 6 21 15-2-5 5-5 7-6 2 14 13 8 27 20-3-4-1-10-2-15-8-13-7-8-13-18-2-8-4-13-3-20-4 1-7-2-9-2"/><path fill="#6F130C" d="M374 267c-4 4-17 6-22 15-7 11-10 21-9 33 18 33-6 2 7 21 8 6 20 17 34 14 10-2 17-4 23-8 6-6 9-11 10-17 0 4-4 8-6 11-12 12-7 2-19 8-14 1-23-6-31-16-7-10-6-22-2-31 14-13 11-4 21-16-10 3-19 14-29 15-1-4 0-8 3-12 5-7 9-11 14-13 9-4 17-1 23-2-3-3-9-3-15-2"/><path fill="#F9C853" d="M428 211c-7 2-5 5-5 10 16 12 31 23 44 38-1-5 5 1 13 1 2-16-15-19-9-25-2 0-3 4-6 3-16-8-15-16-32-26l-2-1h-1"/><path fill="#D47140" d="M95 231c-7 6 12 11 33 38 1-1-1-2-2-4 3 0 5 4 7 5 0-2-2-4-3-5 11 1 18 13 28 18-1-9-22-29-17-34-5-4-30-16-33-18-8 3-17-2-8-2"/><path fill="#788578" d="M229 287c-2 7-2 15-4 24-3 3-4 8-7 4-4-5-1-11-3-15-4 5-7 11-10 15-1 10 3 14 6 17 4-2 4-13 13-14 4 8 3 16 9 21 4-2 3-7 6-11 15 25 1-3 18 19 2-9-3-22 8-26-4 2-6 4-8 6-13 3-12-13-24-9-6-17 5-26-6-27"/><path fill="#3F272A" d="M424 439c-3 3 2 11-3 14 0-3 0-7-1-12-11 2-28-1-41 6 3 2 1 6 3 9-1 8 13 5 9 15 1-3-1-6 1-8 15-8-1 10 8 3 8-3 10-6 12-11 4 8-5 7-5 14 3-9 11-8 16-13 3-6 5-6 3-16"/><path fill="#C4814B" d="M265 152c-1 2 0 5-3 6 2-1 2-3 3-5 10 7 4 14 15 18-7 3-9-3-12-4 0 4 3 11-3 12 1-4-10-13-6-14-1 5-10 9-8 14 10 8 21 16 30 23-7-11 18-16 8-27-11-1-16-13-21-22"/><path fill="#F88D2F" d="M307 223c-7 3-14 6-19 11-8 9 6-4 4 6-2 4-9 8-11 5-3 3-6 9-9 14 5 3 8-5 12 0 3 7-5 14 2 14 0-3 13-11 15-20-1-12 8-18 7-30"/><path fill="#F4943B" d="M303 124c-2 1 3 2 1 5-31-11-13 6 2 22 2-2 1-6-1-9 3 0 6-1 4-6 16 7 11 9 19 14-3-2-1-5 0-9 2 4 6 11 4 13 3 5 9 9 14 12-22-15-1-24-14-32-10 1-14-9-21-9-4-2-5-2-6-2"/><path fill="#DBCA9A" d="M259 279c-10 8-12 20-16 31-6-2-6-7-9-10-3 3-4 9-1 13 11-4 11 8 17 10 8 3 9-8 11-2-3-12-4-27-1-40"/><path fill="#80816D" d="M273 331c3 13 3 12 7 24 7 10 12 17 19 22 7 0-7-27 1-39-3 0-18 7-26-6"/><path fill="#F4B05B" d="M263 118c13 9 26 24 39 35-6-8-14-16-22-22 4 0 7 2 11 5-1-5-6-7-8-11 7 3 12-2 20 5-4-6 2-9 6-7 9 1 13 11 21 9 17 12 28 28 35 44-2-5-1-10-4-13 0-4 3-4 4-5-20-12-22-27-28-28-12-2-20-10-27-11 4 5-31 5-39 0 2 3 6 6 10 9-6-3-11-5-16-8"/><path fill="#EB7629" d="M369 163c2 4 0 7 2 10 7 5 11-2 11 1-10 5 8 19 3 28 7-4-1-13-1-18 3 11 18 12 14 24 13 2 10 10 21 11-4-3-1-11-3-17-6-8 3 12-2 14-2-11-1-20-7-25-1-3-5 10-3 16-6-6-4-14-7-20v-2 1c0 2 0 3 1 5-4-6-4-11-10-16s-16-3-16-11"/><path fill="#F5731C" d="M394 272c-2 5-21 5-27 3-6-1-18 15-5 12 10-4 21-9 32-5 12 5 20 15 23 25 2-5 1-10-1-15-5-8-12-14-18-18h-3"/><path fill="#EC782D" d="M281 258c-8 5-11 2-13 14 2 24-8-9-3 23 6-3 9-7 10-1 6-6 5-15 11-20l1-2-1 1c-11 1 5-12-4-14"/><path fill="#BC4217" d="M317 337c-15 7 2 6 3 16 6-2 0-10 5-8 4 13 6 22 14 30 11 8 21 12 31 15l3 1h2c16-1 31-7 47-9-2-1-4-3-6-4 9 1 17 1 23-1 12-4 20-10 29-13-33 17-12-8-31 9-12 1-21 0-27-5 3 3 7 4 11 6-5 0-10-1-14-5 4 5 6 10 9 12-15 4-28 8-41 10-15-4-26-10-37-17-7-11-11-22-11-33-5-1-8 0-10-2"/><path fill="#762410" d="M336 167c5 12 9 23 10 37-19 6-12 1-31 10-2-4-1-7-3-9 2 4 0 7-5 9 0-16 4-3-13-37 6 15 10 27 11 39-10 7-3-1-15 9-2-8-5-12-8-17 3 5 4 10 7 15-3 5-8 7-10 10-4-4-5-10-9-13-6-8 8 8 4 13-4-6-6-11-12-15 5 4 7 10 9 15-3 5-5 7-8 9l-1 2-3-1c-2-5-5-10-9-15 3 5 5 10 7 15-1 6 0 5-5 9 3-1 5-5 7-6-6 9-13 15-20 20 7-5 14-11 21-17l1-1c-1-3 1-3 1-4 7-8 18-8 14-9 15-5 42-24 64-26 10-5 59-2 30-5-1-13-5-21-8-30 4 9 6 18 8 27-7 4-14 3-20 4-5-13-7-25-13-36"/><path fill="#1F141A" d="M518 267c-7 24-1 28-8 53 2 7 8 13 4 17 8-14 9-31 7-51 3 0 3 3 4 5-1-8-8-12-6-22"/><path fill="#925A41" d="M260 248c-12 18-36 23-41 45-3-2-1-3-1-4-6 4-12 9-16 9-1 3-12 13 0 14 1-4 7-8 12-17 5 5 3 12 6 17 4-13 9-24 12-35 8-11 19-16 26-27"/><path fill="#6E2217" d="M500 280c1 21 8 38 10 56-2-1-3-5-5-9 2 5 2 10 4 13-6 13-4-5-4 19 2-7 3-11 3-16 3 4 1 12-2 17-3 1-3-1-5-2 6 9 5 5 8 9-3 8-10 8-13 12-8 8 5 15-4 12 7-1 13-4 16-12 2-12 1-23 2-34 3-3 0-5 0-6 1-17-6-59-8-54"/><path fill="#A6B6A8" d="M115 356c-4 1-9 9-5 17 10 9 20-8 18 5 9-19-9-13-6-20-1-3-3-2-4-3"/><path fill="#EF923B" d="M367 156c-12 12 6 25 9 31 3-6 0-15-7-16-3-8 2-9 4-9 0 8 24 9 23 29 0-12-5-21-12-30 2 2 2 6 1 8-6-2-10-10-11-9-4 1-2-2-4-3"/><path fill="#603E3A" d="M346 388c-37-5-2 7 14 17 12 0-3-2-3-5 9 2 18 3 26 3-10 1-13-4-22-5-6-5-11-10-16-13"/><path fill="#728E86" d="M361 300c4 19 5 22 6 28 4 5 5 6 7 8 1-3 1-4 1-5 4 1 15 5 9 9 4 0 8-1 12-3-3-1 5-9 6-12-12 0 3 4-9 7-30-7 11-5-19-12-5 0 2 7 1 9-9-7-12-16-12-26"/><path fill="#5D3D34" d="M436 395c3 2 0 5-2 2 0 20-1 32 11 24-1 3 8-2 11-1 13-7 7-4 14-13-15 15-7-1-22 16 0-7 5-10 2-12-4-1-6 1-10 0 6-6-6-10 2-14l-2-2h-1v1"/><path fill="#ED832A" d="M456 269c4 1 5 9 8 13 1 7-4 6-5 8-5 0-12-1-12-8-1-6 6-9 9-6-1-1 0-3-1-4"/><path fill="#B4481E" d="M349 152c3 6 7 11 10 17-5 4 4 24 1 32-8 5-7-3-11 0 7 3 13 3 19 3-4-18-4-27 0-18-6-7-6-11-8-15-2-6-7-12-10-17"/><path fill="#F9C64C" d="M395 246c3-1 7-1 10 0 4 10 13 10 16 19-13-4-17-11-28-15"/><path fill="#F67B2C" d="M312 138c-10 4-2 10-3 18 7 3 13 0 14-1-1-8-6-11-10-17"/><path fill="#EF6A1E" d="M483 357c-6-2-17 8-20 3-8 3-14 6-19 10 2-9 81-8 42-14"/><path fill="#D6ECE4" d="M128 354c-5 4-4-1-5 7 3 1 5-3 6 1 4 5 2 8 3 13-5-7-9 6-21 0-3-4-4-8-3-12 3-5 5-8 9-9-2 0-3 2-6 1-3 4-7 5-7 8 0 8-2 15 4 18 0 3-8-9-4-15v-4h4l-1 2c-2 4-1 10 1 15 7 1 14-2 12 4 6 0 8-6 11-6 5-9 2-17-4-21"/><path fill="#DAA15F" d="M266 154c-4 4-1 4-7 12 1 6 8 8 4 12 8-2 1-8 2-10 7-1 7 4 12 5-7-6-5-11-8-18"/><path fill="#E46223" d="M299 314c-1 4 0 10-1 14 2 4 4 7 6 6 5-1 7-5 7-7-5-5-6-9-9-13"/><path fill="#F47B2B" d="M336 139c5 5-3 6 0 10 2 6 5 12 9 13 4-3 3-6 4-7-3-7-8-11-10-14"/><path fill="#672D25" d="M190 302c-5 16-14 4-7 12-3 0-6-2-4 3-7-1-5-4-2-9-1 2-4 3-5 5-3-3-7-2-9-5 1 4 5 4 7 5 0 8-1 8 0 12-12-1-22-3-33-8 10 5 19 8 29 9-6 12 7-5 6 13-1-6-2-11 1-19 3 1 0 4 2 6 0-4 7-2 4-8 3 5 1 10 7 9-3-3-4-6-3-11 0-7 6-7 8-11"/><path fill="#FAD056" d="M394 247c5 7 17 10 22 20 2-11-8-10-9-19-4-2-7-1-8-2"/><path fill="#3B3A38" d="M367 301c-3 7-1 17 3 23 0-2-1-5-2-7 6 2 7-8 11-4-2-2-2-6-1-9-5-1-6-2-9-2"/><path fill="#680600" d="m459 352 1-1c5-1 9-1 12 1-6 7-36 14-14-2"/><path fill="#F9CA4C" d="M408 245c2-3 5-1 6 0 6 4 10 8 12 12-9 1-15-6-20-11"/><path fill="#EAAD63" d="M274 132c0 4 0 9-1 15 3 2 2 6 6 6 7-2 0-8 3-13-2-4-4-6-5-7"/><path fill="#8BB9B7" d="M475 410c-6 2-10 8-14 12-11 1-19 7-28 11 12 2 21-8 31-9 25-20-15 14 12-16"/><path fill="#CAB79B" d="M164 258c2-1 4 0 5-1 4 3 5 5 6 6-2 5-6 7-8 6-6-2-7-7-5-10"/><path fill="#B78459" d="M246 186c8-1-2 15-3 5 7 9 12 13 17 16-3-8-8-15-8-21"/><path fill="#3C0C08" d="M283 231c-13 7-29 20-38 27-12 9-21 18-30 28 21-18 46-42 69-55"/><path fill="#231419" d="M430 438c-12 0-36-1-45 5-2-5-5-3-12-2 4-1 5 0 8 1l2 2-2 1c-3 4-2 11 2 14-3-4-4-10-2-13 18 0-1 0 43-8-3 7-2 11-4 14-6 10-14 18-23 22l-1 2 2-1c8-6 16-12 21-21 3-4 5-9 2-12 5-6 8-1 6 3 0-3 6-9 3-7"/><path fill="#616A5F" d="M236 347c-4 12 11 17 17 24 2-9-11-16-18-21"/><path fill="#7B887B" d="M515 357c-3 9 0 16-4 25-5 8-12 14-19 21 11-3 18-15 24-24 1-7-1-11-1-20"/><path fill="#C73708" d="M445 339c-8 4-14 12-21 18-8 2-15 0-20 0s-9 2-7 6l1 2-1-1c3-12 17 1 25-5 10-5 17-13 21-18"/><path fill="#544141" d="M417 454c-6 1-9 12-19 14-3-1 1-4 0-5s-2 0-4 0c-1 6-1 9-3 13 7-3 20-11 25-21"/><path fill="#84C3BD" d="M245 367c7 9 10 23 25 32-15-31-6-5-24-32"/><path fill="#F16A1E" d="M515 269c-2 2-1 5-4 7-2 0-5-1-5-2 1 9 0 20 2 28 4-3 2-23 8-32"/><path fill="#580B09" d="M348 296c1 11-1 31 10 40-6-4-9-8-11-13-1-9-2-16-1-24"/><path fill="#821F0F" d="M307 317c3 3 7 7 6 12-4 8-5 15 10 1 3-1 5-1 5-3 0 3-3 0-4 2-6-4-9-9-16-11"/><path fill="#F4D593" d="M284 234c-4 1-6 4-9 6-6 10-7 19-11 27 8-10 11-21 18-32"/><path fill="#F0943A" d="m324 281 1-2c11 3-1 16-9 10 2-4 2-8 6-7"/><path fill="#740901" d="M459 350c-21 17 15 5 10 4 0-3-4-2-7-3"/><path fill="#292327" d="M518 309c4 3 2 12-2 18-4-3-4-7-5-10 5 1 4-3 5-6"/><path fill="#6E9293" d="M183 400c-5 19-25 28-37 41 9 1 19-17 32-26 4-3 4-9 5-13"/><path fill="#FAD254" d="M409 244c-2 5 10 12 14 15-1-7-5-14-11-15"/><path fill="#ED8D28" d="M453 298c1 6 9 7 3 13-4 0-8-1-8-5 0-3 2-3 2-5"/><path fill="#BC450E" d="M391 198c0 3-1 6 1 8-10-1-19 1-27 0-10 1-18 2-26 3 8-2 16-1 23-3 17-3 72 18 30 2-1-3-2-5-2-7"/><path fill="#2F0E0C" d="M509 363c-7 18-14 3-18 14-2 14-7 26-16 35 11-5 13-38 35-44"/><path fill="#C52F09" d="M383 265c-2 2-5 0-7 1h-5c-8 2-15 9-22 15-4 8-5 15-7 21 1-7 4-13 7-19 7-11 20-13 24-17 8 0 14-2 19 1 1 4-2 2-4 4 24 10 43 30 5-5l1 3-2-2c-3-1-5-2-7-2"/><path fill="#F9C14C" d="M489 259c2-2 6 2 7 4 1 5 1 7-2 8-5-1-7-5-7-9"/><path fill="#8B3A24" d="M147 279c7 6 16 13 24 19-9-2-16-8-24-15"/><path fill="#340C0B" d="M463 376c-13 12-28 19-44 24 9-2 18-6 28-8 6-5 11-10 15-14"/><path fill="#C05B32" d="M286 435c2 6-17 11-23 14 6-6 13-9 20-12"/><path fill="#884834" d="M145 297c3 4 15 9 16 12-5-1-18-7-19-12"/><path fill="#86B6B6" d="M137 445c-8 8-14 14-21 23 5-6 16-12 21-21"/><path fill="#C2370E" d="M370 272c-5 2-11 4-14 10-4 5-5 10-6 14 8-2 16-7 23-13-5 3-10 7-18 5 1-9 8-14 15-16"/><path fill="#FBF5D1" d="M376 292c-7 2-2 9 3 11 6-4 1-9-1-11"/><path fill="#432D2E" d="M170 355c-12 14-24 29-36 42-2-3-2-6-3-10 0 11 3 14 5 24-1-3 1-8-1-11 11-16 23-30 36-44"/><path fill="#56120A" d="M480 364c5-2 10 0 14 2-6-2-35 7-15-2"/><path fill="#F17C1C" d="M456 269c3 10-2 5-8 8l1 3v1l-1 2c1 1 0 3 1 4 1-6 4-8-1-7 3-4 6-4 8-3 3 5 5 11 2 14 3-4 5-2 6-7-3-5-5-9-7-12"/><path fill="#67312A" d="M143 334c7 1 17 0 24-1-6 5-15 5-22 3"/><path fill="#A7C1BA" d="M106 361c-3 5-2 13 0 17 5 6 10 6 14 8 4-2 7-4 9-1-4-3 2-5 2-6-3-1-5 5-9 4-1-7-10 1-15-4-1-7-3-11-1-15"/><path fill="#B4B18E" d="M231 305c0 4-1 8 2 10 10-2 10 7 15 10 8 4 11 1 14-4l1-2v-2l1 3-2 2c-3-4-5 5-13 1-3-13-17-3-19-16"/><path fill="#5B7F85" d="M392 431c4 1 11 1 16 0-4 6-16 5-18 1"/><path fill="#C33E14" d="M421 301c-11 3 4 11-8 38-7 6-15 9-22 11-9 3-16 0-21-1h-2l1 1c5 3 14 1 19 1 11-3 19-6 25-13 7-7 3-24 8-29 3-7-2-4-2-10"/><path fill="#F9C544" d="M376 239c4-2 8 0 10 2-2 4-14 5-12-1"/><path fill="#FABB3C" d="M432 217c4-1 10 2 12 5-5 3-6 3-8 2s-3-3-2-4"/><path fill="#363234" d="M409 315c-8 7-1 8-5 18 2-2 6-2 7-4-5 3 0-8-2-13"/><path fill="#E3CCA0" d="M462 228c1 1-1 12 5 9 0-4 4-2 4-5-3-4-4-5-6-5"/><path fill="#92593A" d="M261 311c3 2 1 10 6 9-2 3-5 2-6 6 2 1 4 3 7 2-2-6 3-6 2-7-3-4-7-6-7-9"/><path fill="#874C39" d="M140 337c-5 5-10 11-8 19-4-9 16-16 11-20"/><path fill="#FACB55" d="M489 259c-2 4 0 10 3 12 5-4 3-10 0-11"/><path fill="#ECCA94" d="M168 242c7 7 15 15 18 24-1-10-11-18-15-25"/><path fill="#4B2D2C" d="M307 403c-38 15 7 5-39 27 12-4 19-9 23-13 8-4 11-9 12-13"/><path fill="#6D938D" d="M223 348c29 19 24 31 37 31 0-2-4-4-2-8-1 2-1 3 0 5-8-7-22-20-32-26"/><path fill="#302B2E" d="M518 309c-3 10-9 5-3 18 3-5 6-12 3-15"/><path fill="#676160" d="M357 400c6 3 12 5 19 4 11 1 19-3 28-4-14 2-31 7-45 0"/><path fill="#502B2A" d="M175 326c2 21-2 3-2 20 1 4 19 12 17 19 3-8-9-8-14-19 3-5-3-16 0-16"/><path fill="#7DADA6" d="M380 325c1 5 11 7 17 4-7 1-9-3-16-4"/><path fill="#89BDBE" d="M152 437c-7 5-11 12-16 17 6-5 17-12 18-18"/><path fill="#F3933B" d="M398 177c4 4 1 10 5 17 3 3 1-5 0-7 5 2 7 4 7 6 0-7-7-9-9-15"/><path fill="#704538" d="M512 344c-3 10 1 30-6 41 7-10 7-25 6-39"/><path fill="#F8C66E" d="M509 265c-1 2-3 6-1 10 3-3 9-9 4-11"/><path fill="#B25B39" d="M73 229c12 5 15 4 25 7 0-2-5-3-8-5 5-2 9 0 15-1-10 0-19-1-30 0"/><path fill="#64685D" d="M217 338c1 13 8 11 14 14 0-2-11-7-12-13"/><path fill="#533C36" d="M196 323c5 3-4 13 1 19-7-5-2-11-2-17"/><path fill="#E89C4A" d="M319 141c4 4 9 13 15 18-6-6 0-7-5-16 0 1-2 2-2 4-3-1-4-3-5-5"/><path fill="#B63915" d="M305 309c-11 3 3 9 6 17 1 5-2 7-5 9 3 0 4-1 5-4l1-2v-1h1l-1-2c-2-3-3-7-6-8 9 0 12 6 17 12-3-10-15-12-20-19"/><path fill="#67939A" d="M341 430c3-2 7 0 10-1-1 6-8 7-10 4"/><path fill="#F98825" d="M396 279c6-3 11 3 13 8-3-2-7-3-10-6"/><path fill="#A35338" d="M309 417c-15 4-24 20-40 23 13-4 25-13 35-20 2 2 10-3 6 3 1-2 2-3 1-6"/><path fill="#F2832E" d="M289 237c-3 2-5 2-8 7 0 2 12 0 10-7"/><path fill="#5D312D" d="M168 344c3 4-11 9-15 12 4-5 9-7 13-10"/><path fill="#1C1217" d="M404 402c-15 3-34 8-50 2 7 4 15 4 23 5 12-3 22-7 31-8"/><path fill="#402824" d="M377 287c14-3-3 6 9 10 0-3 0-7 2-9-2-3-6-1-8-2"/><path fill="#5F423E" d="M426 396c-13 2-28 0-38 6 16-7 18 2 36-6"/><path fill="#341B21" d="M392 443c14-2-2 8-7 5 2-2 3-3 5-4"/><path fill="#F9CB75" d="M343 140c4-1 9 7 11 10-4-1-7-5-10-8"/><path fill="#506A67" d="M376 314c-1 3-3 3-4 3-1 3-2 4 0 5-3 4 2 6 4 7-1-2-4-3-4-5 2-5 5-6 9-4-2-2-3-3-2-5"/><path fill="#211215" d="M268 400c-1 5 6 9 11 11-2 2-4 2-6 3 3-1 7-2 11-1l-15-12"/><path fill="#5A6A67" d="M404 323c-7 3-3 17-11 16 4 0 9-2 12-5-5 5-4-7-1-9"/><path fill="#ED8E4B" d="M120 245c5-3 9 1 12 4-3 0-7 0-9-2"/><path fill="#81321E" d="M147 281c7 8 15 14 23 19-6-7-14-11-20-18"/><path fill="#C33911" d="M502 256c4 39-9 17 6 36-2-6-4-16-1-24-4 1-2-8-7-7"/><path fill="#FACF4E" d="M378 239c-9 5 5 5 6 5 0-4-2-5-5-4"/><path fill="#B3B498" d="M375 330c0 5 2 9 9 8 0-4-5-4-7-6"/><path fill="#F9B958" d="M326 283c-3 1-7 0-8 4 4 2 9 0 10-3"/><path fill="#669393" d="M139 436c-4 8-10 15-15 21 4-1 7-14 15-12 1-1 1-4 3-6"/><path fill="#676C66" d="M361 310c1 9 2 18 11 24-6-10-2-9-11-23"/></svg>