<svg xmlns="http://www.w3.org/2000/svg" width="600" height="600"><path fill="#394B5C" d="M415 99c0-2 1-1 3-1 13 8 21 19 26 29 11 16 7 36 18 50-1-3-3-6-3-9 6-4 11-6 15-9 1-17-2-33-4-49 3-2 5 1 7 2 13 13 20 25 27 37-4 13-11 24-18 33 2 14 0 28-1 41 13 5 23 13 35 21 8 9 16 17 21 26 5-1 8-4 11-6 3 6 0 9 1 14 2-5 0-12 6-14 3 13-2 17 7 24-2 7-9 9-7 15 17 10 22 29 16 46-3 8-9 15-15 19 0 9-2 17-7 22-12 7-19 21-28 29 3 19 2 40-3 56-3 6-5 11-8 14-6-1-8-5-9-8 0 7-4 13-8 18-8-1-12-8-15-13-5-11-4-21-6-30-20 12-45 13-66 19-7-2-16 1-22-1-10 7-19 15-28 18-9 1-8-7-10-11-33 14-31 13-60 19-2 0-4 1-6 0 3-7 6-12 6-19-25-1-44 9-70 9 24-25 32-21 56-42-6-5-11-6-16-10-1-4-3-4-3-6 1 1 2 4 3 4-8 4-11 7-12 14-22 3-48 0-70 2-3-4-1-6 2-8 14-14 26-16 41-27 0-7-1-12-6-13-9-1-12 1-19-2-1-6 7-11 0-13-5-2-10 2-15-4v-17c-11-2-16 6-23 10-10 11-16 19-24 29-11 9-21 15-32 20-16 9-30 12-45 12-11 0-23 4-32-1 11-22 37-21 51-36 0-5 2-9 0-11-8-4-15-4-22-7-5-4-10-8-11-11 12-1 23 3 32 0 12-4 21-11 30-15-19-10-24-15-48-16 5-10 18-5 25-12-16-2-33 6-49 1 0-13 3-24 4-35 10-4 20-1 29-1-11-4-20-9-30-15-8-8-18-16-16-26 3-6 7-7 10-8 14 3 23 7 33 11 3-4 4-6 3-10-2-10-6-17-12-22 0-4 2-3 3-4-10-3-18-13-29-17 20-3 37 2 51 10 22 22 40 43 56 66-3-9-13-19-14-27 17 23 28 52 43 63 7 6 15 3 21 2 1-9 25-17 25-36-11-13-30-11-47-12 15-12 27-18 37-31 10 3 19-3 32-6-6-1-13 5-17 1 7-2 12-8 17-11-13-8-29 1-43 1 12-11 24-13 37-14 21-2 40 1 55 4-4-7-11-8-17-12 9-3 18-9 26-6-3-2-6-2-9-4-2-12-8-19-13-26 2-4 4-4 3-7-5-6-13-6-19-8 24 0 44 7 64 17-2-16-17-27-25-37 24 13 36 9 53 22 4-7 1-15 1-22-3-10-7-18-12-25 18 1 30 14 41 24 1-1-3-2-1-5 12 9 21 22 29 32 8-4 12-10 14-17 5 2 7 5 8 7-12-13 1-34-8-47"/><path fill="#343245" d="M406 289c-2 2-6 0-8 1-11 2-18 7-24 15-15 18-14 40-15 61-10-13-3-24-8-39 8-2-2-14 10-30-6 9-10 18-15 27-5 22-5 41 1 58 4 8 6 13 12 16 20 4 15 10 29 14-4 3-5-2-10 0-4 2-6 4-8 6 6 4 10 7 16 6 18 2 17 1 27-4-4 8-22 12-33 8-6 13-13 26-26 31-3 7 0 15-5 19 6 0 2 8 6 12 12-3 21-13 32-21 16-13 37-39 44-47 0-1 0-2-1-6 6-3 9-8 12-8-1-1-3 2-6-1 18-18 38-33 53-50-2-8-12 10-21-1 1-13-14-36-1-31-8-11-2-1-9-1 1-7 2-10-5-15-4 1 10 6-2 7-1-5-13-18-6-14-11-8-23-13-38-13"/><path fill="#0F1F2F" d="M107 262c5 9 10 18 12 29-4 3-10 0-13-1 7 5 16 6 24 9 16 15-9 16 6 27-16 1-34-11-59-14-5 6-11 9-12 15-11 1-19 3-28 2v3-3c18 3 8 0 26-2 30-5 14 12 29 2 4 6-3 10 0 15-1-2-10 0-9-4-5 1-13 1-18 0 5-3 13-4 14-6-8 2-15 1-21 5 24-1 39 14 49 16-11 8-11 14-32 21-10 1-18-2-28-3 8 12 9 9 22 15 9-1 15-5 22-5-4 4-9 5-14 7 1 8 0 14-2 17-16 9-23 9-39 18-5 3-12 8-8 12 27 5 6 0 36-1 11-9 28-8 39-16 44-32 41-25 53-45 4 2 6 0 6-1l1-2-1 2c-2 0-3 1-4 2-5-5-6-10-9-14 8-5 14-17 7-22-15-25-28-53-47-78"/><path fill="#7DBDBC" d="M432 219c-6 1-12 3-17 5 12 1 24 5 33 14-24 0-87-3-40 1-3 4-5 3-7 4 9 0-1 11 9 7-2 2-3 4-2 8 4-8 13 3 21 0 10 8 20 15 29 21 10 32 26 16 42 52 10 1 7-10 12-15-3-3-4-4-5-7-1 5 1 9 0 12-2-18-17-1-27-27 14-2 31 7 42-6 4 21 3 27 6 45-2 1-1 5-4 3 0-8 0-15-6-18-8 10 8 21 2 27 1-1 4 0 7-2 0-2-3-5-1-8 7-1 3 6 9 0 5-14 3-32 3-47-3-8-6 6-10-2-1-9-1-19 1-15-7-14-18-23-27-30-8-5-13-8-18-11 3 13 11 23 15 34-21-21-43-36-65-44"/><path fill="#694447" d="M398 299c22-1 25-1 43 15 6 7 9 14 9 22-4 4-7 29-20 37-11 6-22 12-33 11-14-8-25-20-30-31-1-10 2-21 5-30 3-15 15-14 23-20-1 1-4 1-6 3-3-3 0-2 1-3 3-2 5-2 7-3"/><path fill="#794C4A" d="M410 302c-3 2-8-1-10 2-11 4-18 10-23 18-6 9-8 19-5 28 2 11 9 19 15 24 9 6 20 4 28 4 9-2 13-7 20-12 9-14 11-30 7-45-5-11-16-20-31-18"/><path fill="#1C3957" d="M285 267c-5 15-1 15 0 30-2-2-5-4-7-7-3 3 1 7-2 10-5 6-9-2-7-5 0 1-2 2-2 3 1 10 8 15 15 15 12-11 10-21 10-31 3 8 5 13 4 19-2 6-4 12-9 15 6 5 9 13 7 21-1 6-7 9-9 13 5 5 8 9 12 6-10 14-11-3-18 3-3 20 14 7 15 20l1 1-1 1v2l-3 1-1 1v2l1 1c3-1 6-6 8-3 0-5-2-3-6 0v-3l1-1h2l1-2v-1c-6-1-6-7-7-11 6-8 14-11 16-19-3-14-5-7-7-18 7-9 11-17 12-24 3 4 5 8 2 11 0 4-2 4-2 5-3-2-3 6-7 5 5 0 0 8 6 4-3-4-4-6 1-6 2 3 10 3 8 9-3 5-7 6-12 5 2 5 5 8 3 13-2 7-10 10-11 16 5 18 17 1 25 9 5 10 1 17-4 23 7 2 3 9 6 10 12 4 22-3 31-7 5 4 2 7 3 10 6 3 14 0 16-7-5-7-16-2-21-10-10-10-12-23-13-34 0-11-1-23 2-32 3-10 7-16 10-22-11 8-21 25-26 49-7-19-8-39-4-46 0 5-4-1-4-1 5-2 1-2 4-4-7 2-11-4-16-8-5-8-6-15-5-23 0 6-2 10-2 14-2-4-6-2-6-5-8-5-2-10-10-14"/><path fill="#8C5A55" d="M413 304c12-3 23 8 27 18 5 10 4 22 0 30-2 8-9 13-13 17-11 7-23 8-34 3-7-4-13-8-15-14 1-11-3-22 3-29 3-5 8-13 16-18l14-7"/><path fill="#1F0F21" d="M242 367c-27-6-42 20-14 36 3 7 11 7 15 8-3-10-9-1-17-19-2-4-4-10-2-15 14 16 19 16 28 34 7 5 12-5 18 2 2 6 2 10 4 14 3 5 6 9 9 9-2-6-3-11-5-16 16 0 32-2 48 0 15 5 27 18 30 31 3-10 8-17 13-24 4-5 7 0 10-1-3-2-8-2-12-5-4 1-8 5-12 6 3-6 2-14 4-20-9 1-13 9-20 10-4 2-9 2-11 0-9-5-4-15-13-16-6-1-11 1-13 6-6-7-11-4-13-13-5-1-6 2-8 3-3-10-12-13-11-22-5 6-12 10-13 10-12 2-10-11-17-17"/><path fill="#192C3C" d="M86 235c3 8 9 14 12 22-5 5-12 2-20 6 3 6 10 8 15 12-6 1-11-2-16-5 1 6 8 8 8 12-3 3-8 13-13 11 3 5 7 9 4 10-2 6-10 18-16 21-9 2-16 3-22 5-2-3-3-5-2-6 0 1-1 3 0 5 10 1 18-1 26-2 3-6 11-9 13-14 34 6 40 14 63 13l-1 3v-3c-3 0-5-2-6-6-3-5 2-5 3-5 0-6-1-10-5-12-9-5-17-6-25-11 5-1 9 1 14 1-1-11-6-20-11-28 3-5 4 2 6 3-8-10-15-21-25-31"/><path fill="#391F32" d="M280 419c0 13 8 24 19 28 16 9 37 6 52 12 4-6 5-11 1-15-5-9-10-15-18-19-17-8-37-4-52-5"/><path fill="#384458" d="M292 171c2 1 6 4 6 7-5 6-11 9-13 10-2-1-6-9-9-15 4 6 5 14 7 18 11 2 22 7 30 12-3 0-5 0-6-1-8-1-13-4-18-6-10 1-16 3-24 4 7 2 15 6 19 13-7-1-5 5-8 10-13-12-54-4-55-11-7 0-18 2-27 8 13-1 22-1 37-3-2 4 12 2 16 4-3 0-19 1-27 13 2 0 8-2 12-2 0 3-3 2-3 6-6 1-6 1-2 0 11-2 20-3 28-6-4 1-7 0-10-1 2-5 9-4 13-2 1-3-1-3-3-4 11-2 18-2 24-1 11-6 18-9 29-16 1-3-2-3-3-4 3-2 5 1 6 1l3 1h1l1-1c1-3-7-3-9-7 1-4 2-5 4-6 5 2 9 2 11 6 8 0 11-5 13-7 11 9 11 9 2 0-3-3-5-4-7-5-8-2-13-3-20-4-7-4-10-5-16-10"/><path fill="#1F3A51" d="M275 263c-2 4-6 12-10 12-10 2-10-1-14-2-19 19-36 32-45 53-7 6-12 2-15 10 6-5 15-6 20-14 2 21-4 37-10 52 5 1 6-2 8-2-1-13 6-23 7-35 4-11 10-16 15-24 5-6 8-11 12-14 12 2 2 23 10 17 10-13 14-36 22-53"/><path fill="#1F3959" d="M407 272c-11 1-21 5-30 10-7 10-15 18-19 28-6 14 2 24-1 36 3-5 3-17 10-35 6-8 14-16 21-19 14-5 22-4 34-2 40 27 47 28 11-17-3 8 7 6 6 12-8-5-12-10-22-11-4-1-7-1-8-3"/><path fill="#254865" d="M327 259c-5 3-4 9-6 13 4 1 7 2 9 3-2 1-3 1-7 2-3 3-1 4 0 9 5 3 8-1 11 3 0-4 1-8-1-10 6 0 7 7 6 14-2 11-15 15-21 17 7 0 2 3 8-2-13 1 4 14-13 13l1 3 1-4c2 4 3 10 8 0 0 13-4 24 1 33 9-34 26-37 41-65-5-2-10 0-13 7 5-15-18-10-15-22 0 1-2 2-2 3-1-8-1 1-9-5-2-4-4-8-1-10"/><path fill="#14182F" d="M257 313c-3 4-3 8-5 13-3 2-12-9-17-4 1-3-2-5-2-7-4 6-11 12-13 20-3 13-11 24-9 36-1 4-3 4-4 5-11 8-4-11-10 1 3 2 5 1 7 0 4 4 11 13 7 15 10 5 14 16 22 20-13 8-14 11-28 18 6 5 15 3 21 3 0 4-3 5-6 6 12-3 28 6 38-2-4-5-10-7-13-13 1-2 2 1 4 1-4-4-11-7-6-13-8-1-13-3-17-8-8-8-13-15-15-23 3-8-1-30 9-43 2-8 5-13 9-17l3 1 1-1 2 2c5 4 8 12 7 21-5 10-4 12-4 18-6 3-12 2-15 5 4-3 13-1 16-1 3 1 4 3 5 5-2-3-3-7-2-12 9-14 9-30 14-44"/><path fill="#240811" d="M524 361c-4 0-7 2-9 2 2 2 4 0 6-1 1 6-1 9-2 12-5-2-5-6-7-8-6 1-13 3-20 5-3 0-4 1-5 1-11 5-29 17-41 30 6 0 4-5 12-9 3 1 2 3 6 3 4-2 7-4 17-8 2-5 1-10 4-14 7 3 11 6 15 10 17 1 25-10 41-6 2-4 4-6 3-10 6 4 4 11 9 15 2-8-1-17-10-20-7-3-13-2-17-2"/><path fill="#69A6AC" d="M409 242c-5 11-5-3-14 5 2 0 5 3 3 4-9-3-34-2-21 18 4-11 18 1 27-9 4 1 5 1 7 2 0 3-4 1-6 2 10-3 12 1 22 5-1-3 2-5 2-9 27 25 29 37 49 69 0-12-5-23-6-28-8-4-6-15-12-20-11-7-22-14-28-22-7 0-15 0-21-4-5-4-1-2-1-4-6-1 2 8-4 10-1-5-2-9-6-10 6-5 9-1 11-6"/><path fill="#455266" d="M336 110c5 6 11 20 11 23 0 2 6 16 0 23 6 5 11 12 17 16-3-2-4-4-6-7 2-6 4 0 8-3-1-7-2-13-4-18 8 7 11 16 15 25-2-7-5-14-8-21 5 9 14 2 18 4-6-13-16-27-29-34-2 3-9 6-11 5-4-4-7-8-9-12"/><path fill="#293747" d="M311 191c-1 2-2 3-3 5 1 5 10 5 9 8-3 3-7 0-10-1 1 2 3 2 3 4-6 5-13 7-17 11-61 8-19 15-78 23 12 0 18 9 28 11 6-2 6-2 1 0-2-5 4-6 6-8-7-5-10 3-15-5 19 4 35-5 43-7-2-3 6-7 10-11 16-1 0 7 12 1-2-2-4-2-4-4 5-5 10-6 14-9 5-1 7-1 8 2-3 3-8 4-10 7 6-1 13-3 19-5 4-3-8-2-2-9 15 1 43 10 10-12 0 3-8 6-8 6-5 0-10-4-14-5"/><path fill="#8A4942" d="M412 328c-12 4-5 17-19 19-5 2-8 2-9-2-3-5-2-10-3-13-2 1 0 5-1 7 0 5 0 7-1 8 1-1 1-3 0-6h2v2l2 1v2c1 3 5 4 8 3-2 5-4 12-6 13 3 6 10 9 16 11 10 1 17 0 23-3l2-1-2 2c-8-2-14-2-21 0-8-5-13-10-11-16 4-7 9-10 15-9 6 6 9 11 17 7-4 7-7 4-5 12 8-3 12-8 16-12 0 5 1 9-4 11 5-5 8-11 10-17 4-25-8-17-19-8-6-2-9-7-10-9"/><path fill="#49252C" d="M415 305c-2 1-5 0-6 2-11 3-19 11-24 17l-4 4c-2 7-3 13-2 19 0-6 0-11 1-17 3 5 1 10 4 13 2 5 5 4 8 4 17-7 14-29 29-38 6 2 10 3 11 7 3 5 4 9 2 12 4-1 6 4 6 0 4 5 2 10 3 13-1-3 1-8-1-11-2-10-8-20-17-24-4-1-6-2-9-1"/><path fill="#283849" d="M378 163c3 9 7 18 9 28-5-7-8-12-12-18-3 1-4-1-8-1 3 6 5 10 9 14-7-6-12-4-18-5-6-2-7-1-4 3-5-5-11-7-13-8-16 7 11 18 13 31-2-6-7-11-6-15 12 10 23-8 33 4 0-2 2-2 1-4 4 2 4 5 5 8 5-8 9-12 5-22 5 17 12 11 15 24 3 4 6 1 8 4-16-9-10-31-26-39-4 0 2 6 0 10-6-4-7-9-9-12"/><path fill="#1F344B" d="M42 294c-3 16-15 46 18 28 9-7 16-15 16-20-8-6-19-7-32-8"/><path fill="#B0E2D8" d="M381 211c-10 1-19 2-27 5-11 2-16 11-20 18 15-2 108-17 47-24"/><path fill="#213855" d="M475 398c-5 1-9 1-13 3-12 9-18 3-30 15-1 3 1 4-1 6 9-3 16 5 22-1 11-6 8-12 12-11 4 5 9 2 17 5 51-20 5-16-13-14"/><path fill="#2F5975" d="M331 245c3 13-13 15-4 24 3 2 5 5 8 6 0-4 3-3 6-4 3 2 4 3 3 5-4 7-8-3-6 0 3 4 7 7 11 7 1 4 2 6 0 10 5-6 11-8 18-6 2-3 5-4 4-8-11-13-24-21-38-25-1-3-2-5-1-6"/><path fill="#2F4D66" d="M261 308c-7 17-8 18-9 41 2 5 3 4 6 7 7-4 17-5 19-14 4-7 1-13 1-18 5 2 10 7 12 4-3-5-4-8-8-9-10 8-11 2-21 1-6-1 0-6 0-9"/><path fill="#2A4561" d="M526 399c-11 8-25 11-35 20-8 0-13 1-19 2-8 9-15 13-23 17-1 7-4 12-8 16 9 1 13-2 23-6 12-7 25-25 25-26 7-13 18-4 28-10 4-5 3-10 9-11"/><path fill="#61A7B3" d="M389 226c-15 3-30 5-44 8-4 0-5 2-8 1 3 0 5 3 6-1 3 9 10 10 9 20 6 4 13 4 17 7 2-7 0-14 5-17 13-15 39-12 13-17"/><path fill="#190C1C" d="M261 435c5 8 18 9 23 17-10 3-8 1-11 1-37 21-32 20-1 2 2 3-6 6 0 5 21 1 8 0 24-4 23 8 28 10 46 15 8 1 10-4 9-11-15-6-34-3-50-9-12-3-6 3-5 5-8-4-20-12-34-19"/><path fill="#20303E" d="M393 177c6 16-4 14-4 22-5 0-2-4-6-5-7-6-25 6-34-2 2 5 4 11 7 14 13-6 76 11 52-2-4-14-12-7-13-25"/><path fill="#172740" d="M404 290c3-2 7 0 10-1 1 4-3 2-5 3 4 0 8-1 12-2 51 27-18-2-39 14 3 2-8 4-9 14-6 20-10 30-8 40-6-14-3-24 2-37 4-10 11-18 19-23 6-5 11-6 16-8"/><path fill="#1E3755" d="M279 324c0 5 3 11 0 17-4 11-17 13-19 17-6-3-5-5-8-5 0-5-1-10-1-15-2 10-12 19-6 31 15 6 18 0 24-4 2-12 35-31 12-39"/><path fill="#485064" d="M276 158c-15 6 10 23 8 30 1-3 16-4 11-15 12 10 23 9 35 11-17-8-35-24-56-27"/><path fill="#465267" d="M296 135c12 13 20 19 24 39 4-7 8-1 15-8 6 2 8 7 13 10-3-2-5-5-7-8 10 7 8-7 18 4-8-7-15-14-23-18-28-22-23-5-38-18"/><path fill="#162A3F" d="M211 323c-1 2-2 3-3 5-5 5-12 4-15 7-11-1-24 1-27 2-5-2-3 0-1 2-4-4-10-9-16-11 3 8 11 14 10 15-3 6-1 17-8 15 21 0 14-6 36-9 4-8 11-15 19-20 1 2 0 12-7 9 3 1 6 2 5 6 5-20 5-3 7-17"/><path fill="#22374B" d="M57 264c-14 24-8 20 17 31 3-4 5-7 10-11-1-5-7-9-9-14-5-2-9-4-14-5l-3-1h-1v1"/><path fill="#40283E" d="M425 437c-3 10-23 19-17 27 11 3 19-2 27-6 10-8 17-27-10-18"/><path fill="#5290A0" d="M332 236c1 4 0 11 1 14 11 6 22 11 31 19 4 5 13 10 8 15 1-5 13-12 19-17-3 1-6-4-11-2-2 4-5 6-4 10-3-5-5-8-4-13-8-4-15-3-20-6-1-12-5-13-9-19-3 1-8-1-9 1"/><path fill="#32455A" d="M435 138c2 8-6 7-9 5 1 8 5 11 4 17-5-5-5-12-8-12-8-5-10 10-19 10-2 5 3 6 6 14 3-1 6 6 8 0 1-6 0-12 1-16 3 5 4 9 6 14 7-4 9-11 11-17 1 3 2 5 3 7 4 6 4 3 5 0 3-11-8-8-7-20"/><path fill="#273C5E" d="M454 352c12 6-3 17-1 23-9 12-19 17-28 21-11 0-22-1-29-5 9 0 21 1 28-4 12-8 29-27 28-28"/><path fill="#1A2442" d="M330 469c-11 5-23 8-34 11-3 7-4 12-10 16 14-1 57-11 46-18-7 2-11 4-15 6 2-4 12-10 15-13"/><path fill="#2B384E" d="M199 248c-10 9-24 18-32 17 14-1 29 6 43 7 5-1 6-2 8-3-7-4-11-5-15-6 4-2 8-1 13 0-6-2-14-2-22-3 11-1 18-1 26 1-5-4-1-9-6-10 24 2 24 1 1-2-4 3-8-2-14 0"/><path fill="#263949" d="M54 222c7 8 14 13 12 19 0-1 0-4 2-4 5 4 8 4 11 6-1 5 2 9 0 12-5 9-17-4-10 3 5 4 8 8 11 10 1-2-5-3-1-6 9-3 15-3 18-2-11-17-6-25-9-25-14-20-22 5-33-13"/><path fill="#3A2337" d="M225 377c-2 5 0 11 2 14 7 20 15 7 17 22 9 7 20 12 31 18-5-5-3-11-5-17-7-6-11 3-17-2-9-18-16-17-25-33"/><path fill="#2E495E" d="M30 253c-11 10 7 24 15 27 11 0 4-13 10-17-1 0-3 1-5 0 5-5 10-3 14-1-7-4-15-7-23-8-4 0-6 0-9-1"/><path fill="#14212B" d="M465 189c-3 6-3 13-7 18-5 1-3-3-4-5 0 6-1 12-2 18 1 5 7 7 10 9 11-5 11-16 13-25-4 1-5-9-10-12"/><path fill="#1D2C3A" d="M435 168c-1 8-2 17-11 15 0-3-2-5-1-10-3 8-3 15-2 23-5-4-6-10-9-15 3 9 6 17 8 26 4 1 6-7 10-10 8 6 10-2 15 9-1-10 0-18-1-28-1 5-4 1-5 2-3 0-4-4-3-10"/><path fill="#D77E6B" d="M402 347c-13 1-12 18-1 22 9 1 14-3 20 1 6-3 11-5 13-9-12 8 5-12-14 8-1-5-3-5-2-6-2-6 4-5 5-7-7 2-11-4-13-9-4-1-5-1-6 0"/><path fill="#1C2845" d="M263 462c-17 10-32 15-43 25 5 2 13 0 18 1-3-1-16 1-13-3 22 0 103-30 33-16"/><path fill="#17172E" d="M272 456c-3 3-8 3-13 8 9 5 30 1 42-4-17 19-89 31-20 20-7 1-14 3-13-1 12-5 22-10 32-15 8 4 16-1 20 5-9 5-17 7-25 9l-1 1h-1l-1 1c0 7-5 13-8 18 4-5 9-11 9-19 14-3 25-6 35-11 7 3 2 6 2 8 4 3 6 5 8 5 6-4 14-2 12-10-8 3-12 0-20-4-8-1-22-5-31-8-14 4-12 1-26 3-5-1-2-7-1-5"/><path fill="#425467" d="M416 98c13 24-4 32 14 62-1-7-6-12-5-17 7 2 9 0 9-5 0 8 10 15 10 12-2-22-15-37-27-50"/><path fill="#111A30" d="M534 408c-18 17-36 34-57 45 0 8 5 7 3 17 0-7 7-8 7-15 5 4 3 9 2 12 3 1 5 1 7-1 0-19 16-11 7-30 12-11 22-19 31-27"/><path fill="#273A4C" d="M436 153c-1 6-4 12-8 17-2 0-8-5-8-14-3 8 1 16-4 18-7 0-13-9-15-17 10 24 11 23 17 37 1-6 1-13 3-20 3 2 3 6 4 9 8 1 8-7 9-15 2 3 3 7 3 10 3 0 5 4 6-2 6-21-6-4-8-22"/><path fill="#121A35" d="M363 376c6 6 18 18 31 19 9 3 17 4 24 2-9 6-20 10-29 7-8-5-12-5-17-8-5-6-13-10-9-17"/><path fill="#19243E" d="M522 419c-4 10-15 9-14 15-5 27-6 11-1 44-5-16 8-23 5-38 5 9 1 20 8 26 9-46-5 0 3-50"/><path fill="#B8DFCE" d="M471 109c2 25 13 20 15 48 7-7 7-13 8-18 2 8 2 14 0 20 5-2 5-6 8-7-2-5-4-8-6-10-8-12-15-23-23-32"/><path fill="#2F4556" d="M30 204c9 4 21 11 27 16 10 5 3-7 13 1-4 3-5 3-13 2 2 1-1 2 3 4 7 5 17-9 23 4 19 18 33 37 45 57 10 14 4-8 14 7-9-15-20-33-31-43-1 1 11 15 12 23-11-14-22-30-36-42l-1-1-2-3c-5-2-9-5-13-8-19-6-10-10-40-17"/><path fill="#864240" d="M562 317c-1 1-2 2-2 4-4 5 0 12-2 19-4 7-11 3-13 0-1 2 0 4 1 7 4-1 19-3 25-7 4 1 5 2 5 4 2-10-1-24-13-26"/><path fill="#3B5D6D" d="M250 251c-9 2-16 14-23 16 2-1 1 2-1 2-11 28-28 49-33 51-20 17-3-3-22 17 9-7 9-5 15-2 14-8 18-26 29-30-1 0-4-2-4-3 4-12 19-27 16-30 8-8 6 4 26-22"/><path fill="#274761" d="M309 257c-7 1-13 0-19 2-3 3-5 4-4 7 6 11 8 19 13 20 2-7 4-19 9-27"/><path fill="#FCFBE9" d="M422 312c-7 1-11 7-9 15 1 7 6 10 12 8 8-2 8-9 7-15-2-6-5-9-8-9"/><path fill="#3F85B0" d="M441 133c8 24 5 56 6 83 6-19 6-38 4-55 0-12-5-19-9-27"/><path fill="#2F3954" d="M198 340c-3 1-2 3-5 4-7 11-6 20-5 28 7-5 12-11 16-18 6-15 2-7-4-15"/><path fill="#A6D6C6" d="M519 290c-4 7-12 8-19 5 5 7 2 10 8 16 6 3 12 1 17 0-2-7 2-18-3-21"/><path fill="#151931" d="M400 300c-4 2-8 1-12 4 1 0 2-1 4-1-5 5-10 9-14 15-4 4-4 7-6 10-4 9-4 17-5 25 6 11 16 22 27 29 9 4 15-1 21-2 6-2 10-2 13-7 3-3 7-5 8-7 8-18 11-30 13-37 4 2 3 7 4 12 1-7 1-13-3-17v2l-2 2-3-6c-6-11-15-18-23-21 7 2 16 10 21 19 4 16 2 32-7 43-7 8-11 14-19 16-13 1-26 2-33-7-7-7-11-12-13-19-3-9-1-17 1-23 4-11 12-18 19-23 17-8 42-5 8-8"/><path fill="#354459" d="M337 167c-14 5-21 3 1 19-9-4 4-6 2-10 11 13 18-6 35 11-7-4-13-14-21-17-3 0-5 3-12-3 1 3 4 5 5 7-5-2-6-5-10-7"/><path fill="#A8DDD5" d="M408 226c9-4-11 7 3 13 13-4 24-3 34 0-5-7-12-11-20-13-6 0-8-2-11-2"/><path fill="#3E7EA9" d="M385 145c10 20 18 39 29 59 0-14-7-27-12-40-7-5-10-20-15-17"/><path fill="#1D3253" d="M317 376c-6 5-23 17-24 20 4 3 6 4 8 6 4-6 17-8 14-5 8-5 5-18 3-19"/><path fill="#13152C" d="M376 408c-2 4-6 9-11 11 3-3 4 4 7 3 9 4 17 5 27 4-7 3-14 3-19 1-5 0-6-2-8-3-9 13-15 25-20 37 12-6 22-19 25-33 8 1 15 1 22 0 29-8-19 5-24-6-10-3 0-7 1-10 7-2 8 1 10 2 0-4-5-4-8-5"/><path fill="#121832" d="M364 377c-4 6 1 12 7 16 6 5 10 5 15 9 12 4 22 0 31-3-7 2-14 0-21-2-13-4-25-9-31-19"/><path fill="#2C4B5E" d="M510 325c-1 7 1 15-3 16-6-1-11-1-15 2-9-4-10-12-15-13-1 4 0 9 1 13 8 0 11 11 15 11 6 2 2-6 4-9 4 0 4 3 3 3 20 3 15-7 8-21"/><path fill="#19233F" d="M302 465c-21 9-14 4-33 15 9 1 14 0 21 0 12-4 45-13 11-15"/><path fill="#182949" d="M277 362c-5 6-4 7-6 17 1 3 3 3 3 4 0-1-2-1-1-2-1-4-2-6-1-7 3 7 6 7 10 8-5 4-5 4-1 11 6-2 12-3 17-7-2-2-5 3-8 3 0-5 2-7 4-9-2-12-18-1-17-19"/><path fill="#B3DFCF" d="M337 221c-11 5-23 6-34 11-5 5-7 9-8 14 7-2 13-4 19-6 7-7 14-13 20-18"/><path fill="#D98976" d="M573 340c-7 5-17 6-24 7-4 9 12 2 5 12 3-1 10 3 13-1 4-7 11-11 7-17"/><path fill="#2B3450" d="M228 323c-3 4-6 9-8 13l-1 2v2l1-1 1-3c2-2 4 1 8 2 0 4-1 5-3 6-3 0-8 2-8-2 1 9-7 15 3 17 0-2 1-6-2-9 5-2 8 3 14-4-4 2-4-6-1-8 4 0 6 4 5 5 1 0 0-3 3-2-1-8-3-15-10-17"/><path fill="#263852" d="M515 451c-4 11-11 8-8 28 0 2 0 6 4 7 4-5 9-8 8-17-1-3-4-9-5-17"/><path fill="#90BAA9" d="M261 251c-11 8-26 20-31 33 16-10 18-14 33-25-4 1-5-5-3-7"/><path fill="#162C41" d="M537 394c-9 3-25 4-37 3 3 1 8-1 10 2-9 8-18 12-26 16-9-3-16 2-18-7-5 3-2 6-2 2 7 2 2 7 4 10-3 4-3 7-6 8 4-2 6-6 10-8 26-5 48-22 69-26"/><path fill="#314055" d="M205 238c-13 10-30 31-5 8 10 3 18 2 29 4 5 2 9 2 12 4-6 5-13 12-13 13 3-4 7-7 12-10l2-2v-2l2 1c-19-8-27-18-37-13"/><path fill="#E9F5E9" d="M483 228c20 8 43 29 51 49 1-13-7-20-13-28-12-9-23-18-34-22"/><path fill="#BBE0C9" d="M298 234c-10 3-19 7-28 11-5 4-10 6-9 12 8 0 14-4 21-7 5-6 8-11 14-15"/><path fill="#243D50" d="M125 283c7 13 14 25 22 37 3-3 5-6 6-8-2-5-2-8-5-10-2 1 5 4 2 6-13-26-14-11-24-22"/><path fill="#273C4B" d="M476 151c2 5 2 14 0 20-4 2-11 4-14-3 4-2 7-5 10-6-4 2-8 2-11 4 2 10 7 17 9 27 2-2 2-4 3-6 3-1 6 1 4 6 2-12 16-15 18-27-3 5-7 13-15 17 6-6-7-6-2-33"/><path fill="#182530" d="M430 197c-1 7-13 9-8 14 8 3 14-1 20 4 3-10 1-14-4-14-2 2-6 0-7-2"/><path fill="#4F252D" d="M545 322c-1 7-4 12-5 11 1 17 6 12 9 23-2-6-5-11-6-16 3 1 6 3 10 3 7-5 2-12 4-18-2 2-3 4-6 3-3 0-5-2-5-3"/><path fill="#355378" d="M464 414c-2 4-7 8-11 10-8 3-13 0-18-1-5 4-5 8-7 12 7-3 16 0 22-6 7-4 13-7 15-14"/><path fill="#192440" d="M224 437c1 2-16 5-21 13 8 3 58-7 21-12"/><path fill="#7AA9A4" d="M539 296v33c-2 13-9 5-13 8 2 12 10 19 18 21-2-9-6-16-4-27v-32"/><path fill="#1B314D" d="M407 291c-26 11-34 18-1 4 13 0 24 9 33 9-9-9-19-12-32-11"/><path fill="#33465A" d="M369 144c8 27 8 14 16 29 6 3-2-8 4-8 4 2 6 10 9 10-8-6-8-16-13-24-4 1-3 5-7 3-4-1-4-4-7-5"/><path fill="#1F3D5D" d="M316 282c-6 2-1 5 4 11-2 4-6 7-7 5 3 4 7 6 12 2s10-9 7-11c-11 4-10-14-17-4"/><path fill="#37375D" d="M258 425c-1 6 3 4 5 10 9 5 17 11 25 14-7-10-16-20-28-23"/><path fill="#2F4758" d="M477 146c4 9-4 36 8 28l-3 4 1-2c6-7 10-16 10-26-2 4-4 9-9 11-4-4 0-11-6-13"/><path fill="#35465A" d="M363 144c2 5 3 11 6 16-6 6-8 1-12 3 13 30 9-8 26 19-6-14-12-25-18-36"/><path fill="#5D8A96" d="M523 404c-3 21-30 5-34 24 3-2 4-4 6-5 5 3 17-4 16 4 3-4 6-7 10-9 0-5 4-7 2-12"/><path fill="#19213C" d="M206 379c-2 7-7 12-9 18 16 12-3-8 13 1 9 5 16 10 22 18-7-7-15-21-21-23 3-1-2-9-4-11"/><path fill="#A4D9D0" d="M388 236c-31 17 6 15 16 4-4-4-11 0-17-1"/><path fill="#122235" d="M536 387c-17 7-35 5-55 10 14 4 81-7 56-7"/><path fill="#6CB8C5" d="M408 213c-2 5-15 11-21 12 7 0 6 7 9 4 10-10 48-11 9-15"/><path fill="#274559" d="M279 258c-9 4-20 5-27 14 0 5 7 2 14 2 5-5 10-14 12-15"/><path fill="#2A3F59" d="M502 456c-2 6-2 13-4 18-2 8-9 6-11 4 1 9 1 7 4 15 6-2 5-10 10-11 3-10 3-16 2-24"/><path fill="#23303F" d="M289 221c-5 5-11 10-17 14-9-4 4-8-4-8-1 5 1 12-7 11-8 2-16 1-25 2 5 4 10-1 15 3-2 4-6 4-8 7 10-4 19-7 26-14 5-6 31-12 24-15"/><path fill="#4E8393" d="m316 242-21 6c-3 2-3 5-5 7 7 1 12-1 18 0 1-5 4-8 6-11"/><path fill="#1D2836" d="M216 251c3 1 1 13 11 11 5-1 8-3 10-7-6-2-12-5-19-5"/><path fill="#5B6273" d="M333 107c6 4 9 9 12 15 5 3 5-3 11-2-3-7-12-13-20-14"/><path fill="#B5E7E9" d="M482 184c0 15-10 31-7 45 3-6 8-30 9-41"/><path fill="#374E76" d="M183 359c-8 8-23 5-32 1 3 7 5 10 6 14 7-13 25-3 26-13"/><path fill="#18223F" d="M204 431c-5 3-19 7-6 12 10-2 17-7 26-9-6 1-14 1-18-2"/><path fill="#5D8893" d="M157 316c-12 4-6 10 2 15 2 4 5-1 8 1v2l-1-3c8-1-1-7 4-8-4 2-4 2-11 4 0-5 7-4 0-9l-1-1-1 1v-1"/><path fill="#B2DED3" d="m487 292 8 8c-30-19 5 20 8 9l-7-14c-4-1-6 0-8-1"/><path fill="#223B52" d="M464 313c4 7-2 1-2 4 9 7 6 35 12 29-2-3-2-7-3-12 4-5 4 2 5 3 0-3-1-11 3-7-6-6-9-9-13-15"/><path fill="#2F485C" d="M67 237c1 6 4 13 1 19 3 1 4 1 6 2 7-3 3-10 4-12-3-4-7-6-9-8"/><path fill="#27445F" d="M310 259c-1 10-4 13-5 23 1-2 0-4 1-5 3 5 7 11 11 16 0 3-3 5-5 2-2-4-5-6-6-9 2 3 3 6 5 8l2 3 1 1 2-1c1 0 2-1 1-3-1-5-4-6-6-9 3-7 8-1 7 1 2-5-8-15 1-21-2 1-3 2-5 3-6-1-5-6-1-7"/><path fill="#243053" d="M182 351c-18 4-10 6-28 10 10 3 11-1 22 1 8-2 12-9 8-12"/><path fill="#273654" d="M364 360c6 1 7 17 11 8-3 7-2 12 2 16-6-4-8-7-12-10-2-6-2-8-1-12"/><path fill="#2A495E" d="M217 305c-13 4-17 26-32 31 9-1 10-9 19-8 6-9 8-16 13-23"/><path fill="#101A2F" d="M406 291c-4 1-8 1-11 3l-2 1-1 1h-4c-3 3-7 6-11 9-7 9-10 17-12 26-2 10-6 16-2 26 0-9 3-32 13-48 6-6 11-11 16-14 5-5 34-5 15-4"/><path fill="#111C31" d="M457 318c4 9 11 22 11 37 5 10 12-1 16 1-7-6-9-14-10-22-1 7 3 13 6 19-4 5-7 3-9 0-5-12-3-25-11-33"/><path fill="#5C848A" d="M266 326c6-2 11 9 9 14-6 3-7-1-9-3-2-4-2-6-2-9"/><path fill="#11243A" d="M89 331c-7 5-15 5-22 8 12-1 21 1 23 4-3-1 12-17 0-11"/><path fill="#290B13" d="M552 303c-7 6-10 17-10 29 3-8 3-18 13-22 25 14 16 2-1-7"/><path fill="#3C5669" d="M54 210c18 9 34 20 47 37-7-9-13-18-20-27-10-5-18-6-26-9"/><path fill="#9FDFF5" d="M499 434c-10 6-21 9-30 17 12 2 22-9 31-16"/><path fill="#1A263E" d="M235 315c1 7-3 5-7 8 2-2 6 2 9 3 3 7 5 12 4 18-5 17-12 5-16 20 4 1 7-1 11 0 1-7 0-10 5-19 1-8 0-13-3-17-11-8 2-5-2-11"/><path fill="#2A465E" d="M271 278c2 8-6 19 2 25 5-7 1-11 4-16 0-4-4-6-6-7"/><path fill="#385672" d="M141 394c-8 10-18 18-30 24-14 9-28 11-41 16 16-2 30-9 45-14 11-7 18-15 25-25"/><path fill="#233E5C" d="M247 348c5 8 4 10 6 18-5-2-5 3-9 1-1-7 0-12 2-16"/><path fill="#0C172E" d="M304 329c-3 10 5 14 5 22-5 9-17 12-15 22 3 6 9 3 10 8-4 8-11 9-16 12 1-1 2 1 1 2 4-5 14-6 17-14-3-4-8-4-10-8-1-11 10-12 12-20 1-6-1-10-3-15 10 3 18-9 2 0-2-4-3-5-2-7"/><path fill="#132A3E" d="M105 407c-4 8-24 18-35 21 10-6 20-13 31-18"/><path fill="#A7D7CA" d="M349 211c-14 2-27 6-38 14 12-6 36-9 42-15"/><path fill="#263A4D" d="M455 173c0 10 2 20 1 31 5-7 6-15 8-22-2 2-7-9-7-1-1-2-1-4-2-7"/><path fill="#83B8B8" d="M477 305c8 8 6 23 15 31 0-12-4-22-14-29"/><path fill="#4B6F77" d="M260 245c-6 6-4-1-7 6-17 33-22 1-27 29 6-11 48-37 36-35"/><path fill="#2E374B" d="M184 369v13c2 5 4-6 7 1 4 5 8 1 10 5 1-3 4-5 4-9-3 2-8-1-10 3-2-4 0-6 2-8-1 2-5 4-5 6l1 3-3-2c1-3-9-4-5-12"/><path fill="#263851" d="M486 462c-2 3-3 6-5 9 2 9 5 14 8 19-2-1-3-11-2-9 3-7 6 3 8-3 3-3 3-4 4-9-1 4-2 6-5 8-7-3-7-7-6-14"/><path fill="#6A9BB1" d="M498 423c-20 12-4 5 7 9 4-3 3-5 6-6-5 0-10-2-12-2"/><path fill="#456C7C" d="M216 282c-7 10-13 21-17 33 7-9 15-19 17-31"/><path fill="#101C2F" d="M352 317c1 18 1 33 3 48 1-15 3-32-2-45"/><path fill="#57232D" d="M556 308c-8 16 21 2 20 26 1-8-2-14-7-18-2-4-6-5-10-7"/><path fill="#2C3A4D" d="M212 398c-28 6-6 1 7 6 4 6 4 10 0 15 5-1 8-2 11-4-3-3-6-8-10-9-4-4-6-6-9-7"/><path fill="#23303D" d="M312 210c-5 3-11 3-15 8 5 7 24-8 18-8"/><path fill="#162946" d="M307 356c-3 6-11 7-11 15 3 5 9 5 11 8v2l-1 1v2c4-4 10-11 16-7 4 5 1 17-6 20 1 3 3 4 4 6 1-8 9-15 3-24-5-7-10-1-14 0-7-2-6-6-10-8-1-7 4-9 6-13"/><path fill="#6475A5" d="M456 457c-20 6-39 14-63 11-3 3 53-1 67-10"/><path fill="#172C4B" d="M243 358c-2 8 1 13 4 19 9 1 17 0 21-7-2-4-11 5-16 3-8-1-10-6-9-13"/><path fill="#5D858C" d="M328 241c-7 4-9 11-14 16 1 3 4 2 3 6 10-13 7-11 11-20"/><path fill="#41698B" d="M304 165c10 15 36 20 39 28-11-12-23-20-36-26"/><path fill="#1C3044" d="M104 329c15-1 0 13-8 10 1-4 4-7 6-10"/><path fill="#233C57" d="M260 309c2-3 0 5 0 12 4-1 8 0 14 2 4-4-8-8-11-14"/><path fill="#161127" d="m235 425 2-2c2 6 4 3 9 5-4 13-23 2-9-1"/><path fill="#1C2D3A" d="M465 179c0 5-1 9-2 14 1-2 1-4 3-4 4 10 8 14 10 18-1-5 2-11 0-19-3-1-2 2-4 6-5-5-5-9-7-14"/><path fill="#A7BCC6" d="M408 264c-35 10 12 6 11 5-3-2-7-4-11-4"/><path fill="#2A4D65" d="M303 364c0-2 1-1 3-1 4 1 6 4 5 6-3 5-14 4-11-4"/><path fill="#294461" d="M245 301c-2 4-6 11-9 12-2 4 3 5 5 6 2-4 6-15 5-17"/><path fill="#6DB7D5" d="M34 203c14 5 30 7 43 14-10-10-24-13-41-15"/><path fill="#122739" d="M115 372c1 5-23 11-32 11 9-4 18-6 27-10"/><path fill="#172941" d="M267 286c-3 6-5 17-8 20h3l-2 2c-4 2-5 3-7 10-7 5-3-13-5-16 3 4-2 10-2 15-1 4-3 3-4 4 0 3 5-2 5 4 8-6 7-14 13-17 5 2 9 5 11 9l3 1h1c5-1 9 1 9-2 4-3-4 4-8 1l-2 1-3-3c-3 2-7-11-9-11 5-4 2-11 5-17"/><path fill="#F9F7EA" d="M550 314c-2 3-2 5-3 8 3 4 4 5 6 4 3-2 5-4 5-6-1-5-4-5-5-6"/><path fill="#2D4253" d="M476 157c2 8-14 7-12 13 6 3 8 1 11 1 2-4 2-8 1-13"/><path fill="#7BB2D3" d="M491 430c-6 4-8 10-13 14 8-8 42-13 13-13"/><path fill="#1B2632" d="M228 254c2-2 4 2 8 0-2 4-4 6-5 8-13 1-11-8-5-6"/><path fill="#2D5369" d="M329 312c10-4 3 14-2 12-3-4-3-8 1-10"/><path fill="#B6DBC8" d="M515 318c-3 5-3 12-1 18 2 4 3 7 6 6 4 8 3 3 8 4-1-4-5 2-6-2-3-9-11-18-6-27"/><path fill="#5E6A82" d="M239 342c-3 6-9 9-15 10 0 8-4 15-7 18 5-10 14-18 24-25"/><path fill="#EDF4E9" d="M504 357c-3 3-9 2-12 4-2 4-7 6-9 8 4-4 45-14 23-11"/><path fill="#C56A60" d="M381 341c-1 8 0 14 3 20 1-4 6-6 7-9-5-1-9-5-10-8"/><path fill="#0D1B2F" d="M271 277c-4 10-2 23-13 30 3-1 3-3 5-3 3 2 2 6 6 8 4 7 8 4 13 5 5 3 8 6 10 10-1 21-23 32-21 51-1-15 16-28 22-42 0-4 1-6 0-7-2-5-5-11-9-12l-1-2 2 1 1-1 1-2c4-2 4-6 7-8 1-6 0-9 1-12 1 8-2 15-8 20-5 4-13 5-16 1-10-12-1-24-1-35"/><path fill="#558894" d="M322 217c-12 4-20 12-28 14 24-5 69-21 10-2 6-7 12-9 16-12"/><path fill="#17212E" d="M468 234c7 7 16 13 22 19-2-6-6-12-11-17-2 0 1 2-2 2s-5-2-7-2"/><path fill="#0E172F" d="M439 383c-8 3-15 5-22 8-10 0-19 2-24-3 8 6 20 7 30 7 3 0 4-2 5-2-3 1-9 1-13 0 9-3 15-6 21-9"/><path fill="#192640" d="M488 455c0 6-6 9-7 13 2-2 3-5 6-6 1 6 1 11 6 14 5-2 4-7 6-10-3 2-6 3-8 3-3-4-1-7-2-12"/><path fill="#161127" d="M232 426c-17-1 3 8 13 7 2-7-8-2-7-7 0 0-4 2-1 3-7-1-1-5-6-4"/><path fill="#83BCB8" d="M475 275c2-1 5 2 6 3 2 5 1 8-2 8-3-1-7-3-5-10"/><path fill="#EEF1F3" d="M430 265c5 11 17 20 24 30-4-11-14-19-22-28"/><path fill="#243F5D" d="M248 350c-2 4-4 9-3 15 3 0 4-1 5 2 1-7 1-9-2-17"/><path fill="#84B2AC" d="M540 396c-4 5-9 3-13 7-1 5-2 9-4 11 5-4 11-10 15-16"/><path fill="#1B2C41" d="M116 328c9 0-1 14-6 13 0-3 4-10 6-11"/><path fill="#233240" d="M325 205c-4 10 16 7 24 3-9-5-17 9-22-3"/><path fill="#EEF6E7" d="M525 346c-4 5 7 11-1 13 6 1 9-2 13-3-3-2-7-5-9-8"/><path fill="#344A65" d="M405 433c5 4-11 15-16 16 4-5 9-8 14-12"/><path fill="#43526C" d="M191 356c3-2 9 7 3 9-5 1-6-3-5-6"/><path fill="#161D2F" d="M524 424c-10 34 9 0-6 60 7-21 10-43 5-58"/><path fill="#1A2B39" d="M444 209c-1 2-1 4-1 6-6-4-12 0-17-2 22 10 35 14 15-2"/><path fill="#172A45" d="M313 307c0 8-3 16-4 20 0 5 4-3 5 4-5 0-8 4-9 0v-3l1-2-1 3v2c1 1 0 3 1 4 5 0 8-1 11-2 2 2 0 2-1 3l-1 2 4-2c-4-9-12-14-4-28"/><path fill="#8FBAAA" d="M230 275c-6 7-10 15-14 22 8-6 10-13 15-19"/><path fill="#1E2E3D" d="M551 265c-3 5-7 6-9 11 3 5 2 9 3 16 4-6 3-15 7-21-3 2-3 6-5 8-6-1 0-2-3-4 3-5 5-7 7-9"/><path fill="#2C4568" d="M222 436c-7 2-13 5-19 7-7 2-11-1-12-4 1 3-3 8-5 8 14-2 31-10 38-11"/><path fill="#1B2531" d="M225 254c-10 8 8 11 9 2-3 0-5-3-7 0"/><path fill="#131F37" d="M449 323c5 2 7 11 7 17-6-3-4-10-8-14"/><path fill="#5BA5CA" d="M26 249c-5 1-3 5-2 8 1-2 3-6 6-6 7 0 12 2 16 1-7-2-11-4-19-3"/><path fill="#EBC0A5" d="M572 340c3 0 2 11-1 12-6-3-4-7-2-9"/><path fill="#131D31" d="M207 329c-6 5-13 10-16 17-4 11-9 19-10 28 3-9 5-18 9-27 5-12 17-7 16-18"/><path fill="#30516B" d="M306 277c0 7 3 15 8 19 1-6-6-11-7-17"/><path fill="#2F556A" d="M331 313c-5 1-6 5-5 10 6 1 7-8 7-11"/><path fill="#F7C5A3" d="M401 352c2-1 5-1 7 0 1 5 0 6-2 7-4 0-7-1-5-5"/><path fill="#152946" d="M285 352c-15 7 5 9 11 7-4 1-7-5-11-6"/><path fill="#172430" d="M218 266c6 5-6 7-9 8l6 3c3-3 12-8 5-10"/><path fill="#77A2A1" d="M538 379c-15 11 2 5 13 5-5-3-8-4-12-3"/><path fill="#9F4C4C" d="M547 350c3 4 4 10 9 13 3 2 4-1 6-2-13 2-3-10-15-8"/><path fill="#808BA4" d="M486 377c-6 14 1 9 11 7-3-2-7-2-9-6"/><path fill="#558994" d="M540 275c-13 1 1 14 1 11 0-2 1-6-1-9"/><path fill="#244561" d="M315 319c4-2 9 4 5 8-4 1-4-3-6-3l-1-1 1-1"/><path fill="#312E51" d="M249 418c1 8 7 11 13 16-3-2-1-6-4-5-1-6 2-5 4-3-4-2-7-5-11-6"/><path fill="#151E2A" d="M22 261c4 11 12 15 19 20 10 6 19 12 30 14-12-5-23-10-34-17-5-6-11-10-13-15"/><path fill="#94BFB3" d="M288 230c-8 4-15 7-22 12 9-5 24-4 18-11"/><path fill="#9CB6C0" d="M406 264c23 2 3 9 28 13-8-8-16-12-25-13"/><path fill="#203150" d="M366 360c-5 10 2 12 5 16 2-5-2-9-5-14"/><path fill="#86BDB9" d="M476 276c-3 0-3 8 1 9 6-1 4-7 1-8"/><path fill="#9DD2C4" d="M527 271c4 4-2 14 4 17 7-6-3-11-2-15"/><path fill="#1E2C3B" d="M201 261c5 3 11 3 17 6-6 7-16 6-20 4l-2 1 2-2c1 6 5 0 6 3 4 3 9-3 16-4-2-5 2-3 3-2-3 5-6 16-10 10 3 8-7 14-9 22 7-16 38-40-5-36"/><path fill="#365969" d="M509 331c1 11-9-1-11 3 0 3 3 5 6 6 3-1 6-2 4-7"/><path fill="#ECF4EC" d="M526 384c-10 1-18 4-26 7 7-3 34-5 30-8"/><path fill="#333B57" d="M222 335c-2 2-2 5-3 7 3 1 4 1 6 2 4-3 3-8-2-6"/><path fill="#76A097" d="M248 260c-8 7-12 14-20 16 5 3-4 12-1 19 15-11-8-14 21-34"/><path fill="#B7CEC3" d="M225 213c13-1 37 1 50 5-13-7-30-5-45-6"/><path fill="#3B5665" d="M478 132c-6 14 7 15 5 29-2-10-2-17-3-27"/><path fill="#DAEFE1" d="M430 110c5 9 9 18 16 26-5-11-6-15-15-25"/><path fill="#446A87" d="M332 147c13 9 19 19 37 33-11-13-23-25-35-32"/><path fill="#120711" d="M374 329c3 3-3 13 1 18-5-5-3-10-2-15"/><path fill="#A5D1CB" d="M559 285c-2 4-5 7-6 10 5 1 10-6 9-10"/><path fill="#224360" d="M316 351c6-1 5 7 1 9-5-2-2-4-2-6"/><path fill="#4D7576" d="M520 346c-10 4-3 7-15 10 23 1 6-7 18-7"/><path fill="#20415C" d="M324 363c6-2 1 7 4 9-7 1-6-4-4-6"/><path fill="#8BC1BC" d="M474 277c3-3 7 2 8 4-4 6-8 2-7-1"/><path fill="#334F6F" d="M188 442c-4 2-8 5-11 9 8 1 10-4 13-9"/><path fill="#66A1B7" d="M551 283c-3 4-4 12-4 15 2-4 9-11 6-14"/><path fill="#151127" d="M229 424c7 2 4 6-7 5 1-3 5-2 6-4"/><path fill="#25223F" d="M242 415c-2 5 8 10 11 13-5-2-3-11-8-13"/><path fill="#37647B" d="M354 283c8-2 0 10-2 9-1-3-2-6 1-6"/><path fill="#20384B" d="M471 224c1 3 0 5-1 7 1 4 4 4 6 5 3-5-3-5-5-9"/><path fill="#233F5F" d="M438 277c-25-1-3 7-1 8 4 0-5-5-1-10"/><path fill="#142740" d="M481 396c-20 10 9 2 15 2-5-3-12 3-16 0"/><path fill="#501B28" d="M379 350c-3 1 1 13 6 16 6 5 11 6 15 8-10-3-19-12-21-22"/><path fill="#4C7983" d="M280 253c-5 2-10 4-14 7 4-2 12 1 14-7"/><path fill="#131D31" d="M440 300c9 2 6 19 15 14-4 1-5-10-13-13"/><path fill="#3E5175" d="M273 362c-2 5-3 11-9 14-5 5-12 5-15 4 7 4 11 1 15-1 6-6 6-11 9-16"/><path fill="#4D767C" d="M226 290c-12 23-10-6-13 12 7 2 12-5 11-8"/><path fill="#263340" d="M266 226c10-1 2 4 3 8-3-1-5-3-3-5"/><path fill="#6E9D96" d="M505 348c-8 5 3 7 5 5 0-3-2-4-3-5"/><path fill="#7291BC" d="M416 444c-8 8-19 18-28 26 9-7 19-15 27-25"/><path fill="#448AAB" d="M494 161c-3 6-6 12-11 17 6-4 11-12 13-17"/><path fill="#597DA8" d="M451 368c-9 10-6 1-18 15 7-2 13-7 16-14"/><path fill="#391325" d="M459 393c-3 2-6 5-9 7 9-3 26-4 7-5"/></svg>