<svg xmlns="http://www.w3.org/2000/svg" width="600" height="600"><path fill="#82898C" d="M385 111c18-2 35 1 45 16 11 12 7 27 13 39 11 13 27 18 32 34 1 3 0 4-2 5-17-2-35 6-48-4-13 0-24-2-32 3-1 8 2 13 5 18 12 10 26 17 35 28 9 10 14 19 19 28 7 12 12 23 15 35 1 13 3 23 0 32-2 10-5 17-8 24-6 10-14 16-21 22-18 14-38 17-59 20-9 6-13 15-14 23 2 12 17 18 11 17l4 2-2-3c18 8 40 7 60 12 5 6-1 9 3 12-27 10-51 2-76 6-2 2-2 3-1 5-30-3-51 7-80 0-5-5 7 0 10-1-6 0-12-1-17-4-6-5-3-11-2-14-4 2 1 19-4 11 1-13 8-22 11-32 2-13-4-21-7-30-20-20-48-15-67-32-24-29-59-45-78-78-4-9-8-16-8-24 1-5 3-8 5-9 6-3 12-1 16-2-1-8-4-14-4-22-1-13 0-24 4-33 7-1 5 8 7 13 3-13 8-24 15-36 10-12 19-21 31-28-9 20-19 40-19 63 6 14 12 36 30 45 2-1-2-7 4-7 3 6 9 9 11 12 0-8-3-17 0-25 7 4 9 12 15 18 5 3 9-1 13-2 0-7 1-11 3-15s7-5 7-1c8-28 20-17 16-27 8 6-1 18 3 29 25-9 54 1 76-7 4-7 4-14 2-20-6-21-20-35-22-54-2-11 1-19 3-26 4-10 8-17 15-22 3 1-3 4-4 6 8-8 19-16 32-17-3 0-13 3-9-1 6 0 8-2 12-1"/><path fill="#E9F1E8" d="M441 267c-8 8-16 18-26 19-5-5-11-1-22-3-7-3-8-7-5-10-7 2-11-1-16-4-4 4-8 8-11 9-16 2-22 6-33 4 5 2 2 5 5 10 7 0 14 1 18-2-9 7-27 32-37 38-2 6-6 8-7 13 4-1 8-5 12-5-6 11-14 19-15 29 17-8 37-7 54-8-10-9-10-21-12-32 3-11 13-14 16-20 0 11-5 12-10 22 5 3 6 9 10 12 1 5-1 9-3 10-5-4-7-6-8-8 2 4 5 9 8 13 8-1 14 1 16 5 7-3 11-4 14-6 1-6-3-9-4-13-5 3-7 8-11 9 11-10 15-22 17-34 4 6-2 11 2 18 2 5 5 9 8 11 9-13 16 6 21-7 4-10 1-19-1-26 7 9 6 22 18 27 3-9 11-5 9-11 1-12-5-21-5-30 7 8 8 23 19 26-1-23-10-39-20-55"/><path fill="#999391" d="M451 319c2 12-2 15-5 25-9-9-13 1-23-3-18 14 3-3-10 11-12 4-21 11-36 12-22 1-39 3-56 11-6 3-7-4-5-6-1 6-5 10-3 16 12 4 15 11 26 13-6 2-13 1-18 3s-7 4-9 6c26 1 52 1 75-2 16-2 28-5 40-11 11-7 21-16 26-26 4-8 18-49 4-33-4-5-7-8-5-14"/><path fill="#2D3349" d="M236 313c6 9 14 23 28 18-13 3-22 2-31 0s-21-5-28-12c1 4 3 10 8 13 10 5 22 5 33 6-13 2-22 1-31-2-14-4-13-5-23-9-15 6 6 11 9 13-1 5-11 15-2 16-1 1 9-5 14 0 0-2-2-3 0-5 1 2 2 6 2 9 7 2 9 0 13-2 1 6 3 6 4 10 4 3 8 2 10 0 5-1 3-4 4-6 1 4 1 8 4 12 7 4 18 0 20 0 4 7 9 9 11 9 7 2 14 3 20 1-13 5-26 2-41 4-30-7-35-13-65-17 11 10 27 18 48 24 4 3 11 2 23 0 12 11 17 37 25 30 11-3 14-16 25-24 1-3 10-3 15-4-7-9-11-1-20-10-2-7 2-18 4-19-6 4-5 5-9 5-22-6-32-17-46-21-5-5-9 1-12 3-2-2 0-4 1-5-9 0-22 3-29-5 9 7 22 2 33 2 10-14 20-15 28-20-8 1-18 2-26-2-6-1-13-5-17-10"/><path fill="#F5FBF7" d="M391 227c-3 5-9 12-15 15-15 7-22 18-37 19-7 6 3 8 7 8-7 5-18 5-19 10 11 4 18 0 32 0 5-3 9-7 10-11 8 3 12 6 17 2 2 7-1 9 6 12 11 2 14-2 20 3 51-7 9-50-19-56"/><path d="M314 412c-7 2-12 12-14 19 1 7 0 12 4 15 12 11 26 14 40 19 3-14 6-10 5-25-2-10-3-18-8-25-7-6-17-2-24-4"/><path fill="#938C8D" d="M151 282c-4 5-2 13 1 18 8 18 16 34 31 46-6 3-12-4-18-6 8 7 20 11 23 21 19 13 38 10 55 21 14 2 25 3 37 4-12-11-32-8-45-16-5-2-7-4-8-7-3 1-7 0-10 2-6-2-6-6-5-9-6 2-11 2-17 1-3-6 2-11 5-14-6-4-12-6-18-10 1-5 3-7 6-8-12-14-28-27-37-41"/><path fill="#DFE1DC" d="M383 127c-13 3-16 17-14 29 1 7 3 11 6 15 7 6 12 3 20 5 13-1 18-4 21-5-5-8-8-28-14-40-7-4-12-5-18-4"/><path fill="#7DBDD0" d="M382 117c-15 2-27 11-36 24-17 22 7 27 21 22-2-7-2-15 0-22 2-8 6-14 13-16 8 0 15-2 19 2 10 10 13 23 27 26 7 5 9-3 8-7-3-13-14-20-22-25-10-6-20-4-28-5"/><path fill="#6C9BAA" d="M294 266c-39 5-44 7-78 25 10-7 2-6-5-1 1 1 1-1 4 0-2 2-5 3-6 5 6 1 8 3 13 2-7 4-13 6-19 7-4 5-1 7 0 9 9-3-1 5 6 6 5-7 15-5 22-5-1-5-5-9-3-13 12 0 19-7 27-10 15-2 26-5 40-3-4-3-6-7-8-10-2-8 4-11 7-13"/><path fill="#7F453A" d="M352 424c0 13 1 29-4 42 12 6 23 14 37 9-7-6-15-10-21-17 9 6 17 10 24 15 13 4 29 4 42 2-6-6 10-3-6-8-17-6-36-8-52-16-9-7-10-15-9-25-3 3-5 2-6 6-2-4-3-5-4-7"/><path fill="#2D3850" d="M339 158c-6 34 27 52 23 84 2-12 0-24-5-33 12 6 22 10 33 14 2-8-3-15-1-22 10-4 19-5 29-4-15-10-43 1-60-12-7-1-13-4-15-10-4-5-5-10-4-15"/><path fill="#608494" d="M326 288c1 6-9 8-12 10-18 8-32 3-47 12 8 10 21 11 33 12 13-2 55-32 26-29"/><path fill="#DDBD7C" d="M429 164c-18 14-29 17 2 28 10 4 22 2 33 3-4-12-20-21-29-31-4-1-5-1-6-1"/><path fill="#E5ECE4" d="M133 273c-13 9-1 27 5 36 10 14 20 25 33 32-7-14-16-28-24-41-5-10 3-18 0-24-4-1-8-4-12-2"/><path fill="#6DA0B1" d="M302 270c3 8-9 4-11 1 4 10 3 16 16 20-17-1-32 5-46 10 16 5 34-1 51-2 5-4 9-5 12-8-2-18 2-16-13-12-6 0-6-3-8-7"/><path fill="#D3895D" d="M283 456h-1c-10 10-7 26 9 24 11 4 22 3 29-2-8-8-18-19-28-24-4-1-5-1-6-1"/><path fill="#5F8794" d="M156 264c-2 5 1 12-1 19 6 9 11 16 19 21 8 1 15 5 22 6 0-1 0-5 1-6 4 0 12-6 17-5-7 1-4-8-7-4-1 5-2 8-8 8l-1 1-2 2c-23-31-19-21-40-41"/><path fill="#7DB4C2" d="M306 257c-2 2-5 0-7 1-11 1-18 6-26 8-4-2 2-3 3-5h3-3c-10 3-21 8-30 14 18-9 39-6 59-13 10 2 17 2 23 5-17 0-27 0-36 3 12 0 12 6 31 7 26-22 18-22-18-20"/><path fill="#546F80" d="M321 314c-20 11-16 13-30 28 5 2-19 5-26 10 12 6 25 5 33 2-2 4-8 4-12 6 3 2 9 4 13 5 5-7 4-8 9-16-4 0-6-2-5-6 4-12 14-24 16-27"/><path fill="#7E453B" d="M286 425c-3 8 3 20-4 28 28 10 33 14 70 23-17-8-34-14-50-24-5-7-7-18-4-27-2 4-4 4-7 5-2-1-3-2-4-3"/><path fill="#7EB6C2" d="M163 201c-2 27-8 9-3 40 3 5 6 19 15 21-5-17-5-37 0-53-1 3-3 5-6 7-5-3-3-8-5-12"/><path fill="#6FA1AE" d="M160 239c1 18 11 33 21 48 5 6 10 11 14 14 5 1 7 1 9 0-1-4 0-6 2-8-18-2-26-29-34-32-9-6-9-13-11-20"/><path fill="#A99F99" d="M393 146c10-2 13 12 18 15 2 7-1 8 0 13-3-8-14 5-22-6 4-2 5 2 9 0-6 3-10-7-9-6-2-5 0-12 5-14"/><path fill="#B4B2AB" d="M389 332c-3 4-3 13 7 22-30 10-60 8-80 18 1-2 0-1 1 2 25-12 51-5 80-16 8-3 39-23 9-5-7-4-18-20-16-21"/><path fill="#6699B0" d="M372 217c-9 7-5 21-11 30 16-3 45-27 9-29"/><path fill="#5D88A0" d="M354 175c-20 2 13 14 23 14 11 4 19 1 27-1-5-4-13 2-19-2-5-3-5-10-7-9-8-4-16-1-23-1"/><path fill="#5E7A8A" d="M303 324c-20 5-24 6-43 19 4 1 8 1 12 2-1 3-11 2-4 3 5 0 11-3 16-5 15-11 16-11 21-18"/><path fill="#374C60" d="M157 219c-6 12-6 27 0 40-6 1-10-5-12-8-2 7 2 17 4 20 1-2 3 2 4 2 1-3-1-8 1-12 6 5 10 11 15 13-9-16-12-34-13-53"/><path fill="#5D8193" d="M232 307c-4 2 6-4 6 9 6 1 7 4 9 4 4-1 6-2 8-3 1 2-2 6 1 5 11 4 21 2 29 3-7-3-15-8-21-16-9 1-16 3-23 6-3-3-4-6-5-8v-1h-1"/><path fill="#638B9B" d="M200 307c2 2 6 2 8 4-1 7-10-3-4 5 4 0 8-3 11-1-3 2-3 4-3 6 11 6 21 9 32 10-6-7-7-14-12-19 1 5-11 2-14 3-7-2-14-7-15-7"/><path fill="#6D9CAD" d="M271 291c-24 5-23 13-40 11 5 15 0-9 10 13 7-4 14-6 21-7-1-4-4-5-2-8 3-5 6-7 10-9"/><path fill="#D4D7CE" d="M387 345c4 1 3 4 4 7l-4 4c-13 8-17-3-29-1 5 3 0 2-4 4-11 0-23-1-32 4-2 2-4 4-3 7 18-15 64 0 76-22"/><path fill="#689BB1" d="M340 163c1 4 3 9 6 13 7-3 19-2 29-2-4-2-5-7-7-10-10 2-17-1-26 0"/><path fill="#2C324A" d="M373 410c-11 1-21 0-30 1 8 24 8 3 14 17 7-7 5-4 18-20"/><path fill="#98928F" d="M184 261c2 13 13 18 23 24 4 2 8-1 11-2-11-5-21-15-33-20"/><path fill="#426872" d="M178 182c-4 5-8 10-11 15 0 8-1 13 2 17 7-8 10-14 11-31"/><path fill="#33445F" d="M410 143c0 8 3 16 7 21 6 4 11-9 19-2-1-5 2-7-1-9-1 2-3 5-7 3-7-2-12-7-17-11"/><path fill="#628999" d="M178 306c3 13 24 22 28 24-1-5-4-10-7-15-10-4-11-2-20-9"/><path fill="#CB8058" d="M309 464c6 5 14 10 20 15 16 6 13-5 27 0-14-3-30-9-44-15"/><path fill="#394D5C" d="M271 238c-5 7-8 15-9 23 5-1 9-2 12-4 1-14 2-11-4-17"/><path fill="#171E2E" d="M144 215c-3 10-4 20-4 32 2 10 5 17 7 24-3-8-6-16-6-25 9-5 11-9 12-19-2 1 0 11-5 7-2-6-1-12-3-17"/><path fill="#D8DDD4" d="M351 330c-1 6 0 9 3 13 1 2 2 4 4 5 7-8-1-13-4-17"/><path fill="#AFACA6" d="M451 317c3 5-1 12 5 16 4 2 8-10 9-3 0-4-2-8-1-13-1 2 0 5-1 7-8-1-6-4-11-5"/><path fill="#233244" d="M149 239c0 9-10 1-6 13 2-7 6 7 11 7-3-4 0-14-5-17"/><path fill="#161D2E" d="M175 222v19l1 1 1 2-1 1v-2c11 26 4-3 23 28-12-14-19-26-20-41-3 3 0 9-2 13-3-8-3-15-2-20"/><path fill="#6899AE" d="M381 177c-1 3 2 5 1 8 8 3 14-1 21 1-8-10-7 1-21-9"/><path fill="#DBDFD6" d="M415 340c-7 1-9 2-14 7 3 1 5 3 7 4 7-6 18-12 7-8"/><path fill="#212638" d="M221 380c11 4 22 12 35 12-12 2-22-3-32-9"/><path fill="#F5F9F8" d="M344 297c-11 5-24 19-28 30h-1l1-1c8-8 18-19 27-27"/><path fill="#ACA9A2" d="M430 328c-16 18-1 11 12 13-5-1-9-6-13-9"/><path fill="#C9D8E3" d="M307 254c-39 8-42 14 0 0 10 2 22 1 32 3-10-4-22-2-33-3"/><path fill="#040000" d="M396 153c2 4-2 5-3 6 3 5 4 6 7 7 4-5 0-10-1-13"/><path fill="#39495B" d="M225 268c0 4 2 8 3 13 4-3 7-4 9-5-6-11-6 1-11-7"/><path fill="#ECF3EC" d="M404 160c2 2 2 5-1 7-10 5 2 3 8 6 4 1 3-5 3-7 6 2 0 7 6 4l-2-3-1-1h-2l-1-1c-1 2 2 6-1 7-2-15-2-9-7-9"/><path fill="#242839" d="M249 358c9 2 17 7 28 5-10 4-18 1-25-3"/><path fill="#BC8756" d="M405 177c4 7 19 15 28 19 12-1 22 0 31-1h2l2 1v-3c-3-1 0-3-3-4 3 2-1 4 1 6-11 0-22 2-31-1-12-3-20-8-28-14"/><path fill="#181F2F" d="M224 253c-4 10 2 20 2 30 2 0 3-1 4-3-6 5-5-10-7-14 8 3 8-2 14 8-6-7-10-14-13-20"/><path fill="#3B4B5F" d="M286 362c-3 6 11 5 14 8 5-7-7-2-12-8"/><path fill="#ECDBB6" d="M454 188c4-2 8 0 10 2-3 2-13 3-12-1"/><path fill="#C5905E" d="M401 179c7 8 25 22 34 21-9-3-23-11-32-20"/><path fill="#967D56" d="M431 171c4 0 8 3 12 5-3 3-10 1-12-2"/><path fill="#6F3222" d="M435 199c9 8 20 2 28 4-7-4-17-2-25-3"/><path fill="#D1D4CB" d="M361 309c-4 3-9 6-11 11-4 6-1 11-2 15-1-11 7-18 12-27"/><path fill="#2C3545" d="M256 253c-1 7-4 15-5 12 3 1 5 0 7-1 3-7-1-4 0-11"/><path fill="#323234" d="M366 115c12 0-8 5-10 9 1-5 5-6 9-8"/><path fill="#DBE2ED" d="M395 114c14 0 24 9 35 18-3-4-6-8-11-10-8-5-15-7-22-8"/><path fill="#222E3F" d="M280 229c-5 4-12 8-7 15 4-4 2-10 5-14"/><path fill="#2C3C4A" d="M195 169c-4 3-9 5-13 8 4-1 2 6 1 7 3-5 10-12 11-15"/><path fill="#DADED5" d="M446 330c-2 3-4 6-6 10 1 0 2 1 4 1 3-6 1-5 4-9"/><path fill="#59839B" d="M366 215c-3 5-1 12-2 18 0-6 2-11 7-15-2-2-1-3-4-2"/></svg>