<svg xmlns="http://www.w3.org/2000/svg" width="600" height="600"><path fill="#3F597A" d="M201 105c26 1 53 5 76 11 27 8 54 19 78 31 11 0 18-1 26 3-3-2-6-2-8-6 8-1 17 0 22-1 18 6 32 22 42 35 17 42 56 69 71 110 4-1 9 1 11 3-1 4-4-1-7 1 5-1 9 4 11 8 1 6 0 9-3 11 3-2 4-5 3-9l2-1 1 1v2c-1 14-7 30-7 45-8 14-16 23-22 36 7 19 17 37 20 57-15-13-32-27-41-44-6 17-7 33-15 48-7 14-18 24-27 32-2-16 18-29 14-51-7 13-14 24-25 34-15 11-28 23-43 28-8 2-15 4-21 3 9-9 16-16 26-21 3-9 5-17 12-21 0-6 2-11-1-15-11 5-19 17-29 22-13 10-27 13-39 19-29 2-55 15-85 8 18-10 30-24 61-35 1-6 6-10 9-14-24 9-50 16-76 20-15 0-24-1-35-3 9-6 22-9 31-19 13-12 17-27 25-39 16-3 16-22 32-21-3-9-7-15-14-20-6-5-11-7-16-7-20 10-28 31-45 42-34 21-59 46-91 66-10 7-19 13-29 15 3-23 28-32 34-54 9-15 12-33 8-50 3-12 12-19 19-28-8-7-16-13-21-22-14-25-20-51-33-74-82-128 88 50 120 54 15 14 23 14 31 16 14-6 18-18 24-27-9-3-18-5-23-12-3-12-7-22-13-31-9-14-21-24-34-29 14-6 28-8 41-9 18 1 34 3 51 2 5-1 9-3 12-5-16-9-18-25-24-37 2-3 6 8 13 8-2-8-1-17-8-22-8-5-16-7-25-8 5 5 13 10 15 16-19-19-41-27-62-36 0-6 5-2 7-3-6-1-11-3-18-4-5-4 0-7 3-5-5-2-9 1-13 0"/><path fill="#182B52" d="M169 292c5 3 2 4 5 8-8 3-22-5-31-6 3 2 7 4 11 6-5 5-8 5-13 9-7-4-5-4-11-8 13 7 21 32 29 35-7 11-10 12-15 22-1 5-6 10-4 15 4-2-1-2 3-5 15-1 13-4 20-3-8 6-14 14-19 22-7 17-10 28-19 41 22 0 44-11 55-19 12-6 26-25 40-34 1-8-8 7-10 5 4-9 13-15 13-21-20 14-6 0-36 24 3-6 6-9 9-11-6-2-7-5-4-12-10-4-16 3-22 3 7-7 14-9 20-13-7-7-14-8-24-4 17-6 41-11 49-12 9-8-19 5-31 5 14-7-12-8 0-15-3-3-5-3-7-4 6 2 11-5 12-4-7-4 8-7 0-7 13-2 51 4 10-13 14 7-7 3-10 0 4 4 10 6 13 10-15-5-16-6-31-14"/><path fill="#091846" d="M250 329c-2 5 1 9 2 11 9 2 22 2 32 10 13 14 18 31 25 39 16 17 16 21 37 28 16 4 32 2 47 1 8-4 14-5 16-7 13-8 21-20 22-26-10-19-19-11-34-27-3-10-4-8-8-17-2 6 2 8 3 15 3 11 12 25 21 33-6 5-6 0-6 6-11-4-17-2-22-8-7-12-12-22-16-32-6 3-9 6-14 12-15-3-8-15-20-16 8 21 20 41 38 58-19-4-22-26-29-26-7-8-11-17-15-27-4-1-2 9-6 13-7-3-9-8-10-12-25-1-43-33-63-24"/><path fill="#040C32" d="M252 342c3 8 13-3 18 5 12 6 19 15 23 24-3 4-4 5-7 4 13 3 13 25 22 35 2 7-3 8-5 12 5-3 12 1 14 8 0 8-11 12-11 21-9 3-16 3-20 10 5-4 11-7 18-9 12-9 26-11 37-18 1 5-5 12-10 16-12 6-22 9-32 12 6 3 22 0 34-5 32-19 54-33 89-54-8 8-21 13-28 16-19 2-39 3-55-4-16-6-29-17-38-30-13-13-4-24-17-34-9-6-21-11-29-6"/><path fill="#3469A8" d="M450 236c4 2 5 6 8 7-4 6-5 9-3 14 1 5 5 6 7 7-6 2-7 11-13 11 5-2 11 2 16 1 4-1 9-2 9-7 7 4 10 8 14 11 0 32-6 13-8 48 5-3 14-2 19-2-5 6-8 11-12 15 14-12 20-15 28-19-7-1-7 3-14 4 6-7 7-8 11-13-9-18-14-30-20-44-4-11-18-21-32-23-4-5-6-7-8-9"/><path fill="#040B30" d="M469 379c-5 13-13 23-25 30-16 11-32 18-48 23 5 1 4 11 3 17-10 16-15 29-33 36 20-15 41-28 59-46 1 2 10-1 9 4 7-9 12-15 15-21 2 5 1 14-1 21 4-27 11-22 14-34 0 5 6 8 2 17-6-25 21-38 5-44"/><path fill="#345682" d="M76 188c15 23 28 53 54 72 16 20 38 13 35 22 12 1 9 1 6-4 6 3 10 3 13 3-28-19-12-9-33-20-27-28-51-47-73-73"/><path fill="#294A83" d="M327 159c2 4-1 7 1 11 2-3 6 2 10 2-3 7-6 12-9 16-5 0-4-5-5-8-1 10 4 11-1 20-12-2-18 11-29 8 2 3 4 2 5 5-3 4-6 8-9 11 3 2 5 6 9 7 16-1 8-4 24-15-4-5-1-7-3-12 6 3 11 8 17 7 2-3 5-4 7-6-2-6-6-7-8-11 5 3 9 6 14 7 6-1 6-8 9-5 0-19-28-23-32-35"/><path fill="#5AB9DA" d="M398 223c-4 11-5 25-6 30 11 1 30-5 41-12 7 7-21 6-10 20-5-10 14-2 8-12 5 13 14 3 19 10 2-6 2-11 7-13-6-4-5-11-12-12-15-10-31-6-44-10"/><path fill="#1C2E5A" d="M426 331c2 4 4 8 7 12-20-15-5 13 0 20 2-1-8-9-2-10 16 3 14 9 26 7 0 15 8 17-3 34 8-6 11-17 15-19-3-1-9-5-10-12 5 8 10 7 15 8 3 6 7 10 11 10-3 3-7 0-10-2 7 7 0 8 3 11 5-5-2-9 9-6-4-5-8-6-11-11 7 1 9-4 17-4 11-4 18-13 23-21-12-3-22 10-35 10-29-11-32-14-55-25"/><path fill="#0F1D45" d="M219 336c-3 0-32 2-51 9 9-5 15-1 22 4-5 7-12 8-20 13 7-1 15-8 22-3 1 5-1 5 0 8 2 2 4 2 7 3-6 5-9 9-13 12 15-8 15-13 35-25 5 8-7 14-10 22 6-5 10-11 14-16 7 3-12 15 0 9 23-26 42-33-1-32 0 3 10 1 13 10-6-8-14-5-20-4l3-2-2 1c-3 3-11 3-26 9 8-6 32-16 31-18l-1-1h-1"/><path fill="#1B2E57" d="M261 320c-3 2-6 4-9 4-1 2-1 5-4 5v2l1 2-1-2c-15-5-8 11-25 1 2 2 4 1 5 2-41 20-40 21 5 3-4 2-3 3-1 4 5-4 11 0 12-6 2 4 6 11 8 9-2-4-4-8-4-13 5 3 10 1 8-4 13-1 32 26 58 29 0 4 2 9 6 11 6 0 3-14 9-9-3-6-4-15-10-17-2 3-9 4-14 3 1-5 6-4 11-7-7 3-11-2-15-6 1 4 0 7-4 9-11-9-26-10-34-20"/><path fill="#F0FBFA" d="M378 221h-2c-4 16-7 32-9 49-2 7 7-5 6 12 4-4 4-12 13-13-4-17 26-54-5-50"/><path fill="#2C4166" d="M114 247c8 6 15 15 23 20-9-2-16-7-25-10 5 11 11 26 27 35-4 2-7 5-10 6 3 4 4 5 8 7 4 8 9-4 17-3-5-4-10-4-14-8 33 12 6 2 34 5-41-35-14-15-61-52"/><path fill="#1D2F59" d="M285 376c-5 2-7 4-10 7 11 8-4 21 1 30 6-1 15-11 21-15-6 11-18 18-21 25 0 9-1 8-2 14 5-2 9-5 14-7-1-6-2-10 1-15 6-1 9 2 10 5 3-1 5-3 7-5-10-12-6-29-20-38"/><path fill="#1F488B" d="M411 203c-7 6-7 8-10 14 11 0 22 3 31 7 22 14 31 23 51 30-9-13-24-25-34-35-10-7-19-12-29-14-4-1-6 0-8-1"/><path fill="#5CB5D4" d="M372 222c-13 1-23 7-35 10-4 8-4 15-7 24 2 3 3 4 5 6 3-5 3-9 7-11 5 0 6 1 7 4 4-3 4-7 8-10 3 2 2 13 9 8 3-7 6-23 8-32"/><path fill="#08194B" d="M352 449c-14 10-35 16-50 16-5-5-11-3-17-1 5-5 10-7 15-9l2-1h-3c-4 2-9 5-13 8-13 5-25 6-22 14 46-6 21 8 66-4 4-1 11-5 17-9 2-4 4-8 4-12"/><path fill="#97634A" d="M454 285c-7 2-11 7-13 12 0 7 0 10 2 14 7 8 15 10 23 7 7-7 10-16 5-24-2-5-6-8-9-8-4-2-5-2-6-1"/><path fill="#3E5A7B" d="M166 419c-13 9-33 12-46 14-4 6-11 14-18 20-3 3 5 7 5 7-2 3-4 4-7 5 35-20 36-19 65-45"/><path fill="#4C8DBA" d="M235 116c-3 13 33 10 47 25-8-8-1-5-21-13 19 4 34 11 48 18 4-4 9-9 12-8-19-9-55-16-85-22"/><path fill="#667982" d="M453 363c-3 7-10 10-16 12 0 17-17 22-17 38 7-1 11-4 14-9 11 1-6 9-6 10 8-4 13-8 17-13 7-16 9-27 9-36"/><path fill="#2D6BAC" d="M362 157c-7 3-21 0-29 3 18 13 24 17 33 24 3-1 8-4 3-7 22-10 20-4-7-21"/><path fill="#B5CBC8" d="M214 212c10 10 21 16 34 23-3 2-6 0-9-1 3 6 5 12 9 17 7 4 13 7 19 8-6-10 2-21-9-27-45-11-13-17-42-18"/><path fill="#4A5E70" d="M271 389c-5 1-9 3-12 7-6 11-16 27-20 37 8-6 17-11 27-14-2-3 0-7 1-10 11-4 4 11 5 6-6-10 13-20 1-26"/><path fill="#26416B" d="M362 323c-7 1-15 2-21 5 2 2 6 2 9 3-6 6-9 11-7 15-5 3-8 5-9 1 4 4 10 6 15 8 9-3 12-6 14-8 7-8 1-16 1-24"/><path fill="#B4F6F8" d="M397 144c-45-3 25 20 25 38-5-14-21-27-36-33 10 0 20 5 29 13 19 18 27 38 38 58 4-1 1-7 5-5-6-8-23-46-47-60-5-4-9-8-14-10"/><path fill="#071137" d="M402 320c-2 3-7 7-9 8 13-1-7 11 10 3-7 9-12 9-12 13 0 13 24 27 35 31 3 8 9 8 4 13 4-4 4-10 6-14-9-2-18-8-23-17-7-8-8-15-11-22-1-6-1-10 0-14"/><path fill="#274069" d="M426 317c-1 7 0 16 3 16 12 10 25 9 38 22 9 0 14 4 19 1-3-2-8 0-13-1 6-8 12-16 19-21-4-2-19 17-23 10-4-1-9-5-6-8-5 7-19-4-16 1-3-9-12-14-21-17"/><path fill="#C9F3F7" d="M209 109c7 4 51 8 69 15 35 6 65 22 95 35-30-16-60-30-94-41-27-7-32-7-63-10"/><path fill="#132043" d="M189 311c6 13-22 5-3 10 0 6-5 5-5 7 3 1 8 3 6 6-1 3-2 4-4 4 14-3 29-5 41-11-8-2-20-5-32-5 6-4 14-1 22-3-7-3-14-5-21-7"/><path fill="#426480" d="m349 312-2-2c-17 18-13 13-30 27 8 4 14 11 18 10 3-5 9-9 11-14-1-2-5-2-7-4 7-3 3-9 14-6-4-2-8 0-11 1 5-9 25-10 10-15"/><path fill="#27426A" d="M274 311c-31 12 22 22 24 27 2-9 2-17 4-22-2 9-12 2-17 2-1-7-10 2-15-6"/><path fill="#6395B7" d="M294 148c7 6 7 16 9 24 7 6 12 11 17 15 2-7 2-14 4-19-8-5-12-7-19-8-2-7 4-7 6-10-5 2-10 4-15-1"/><path fill="#5C93B8" d="M245 207c15 4 27 13 41 17-2 0 4-9 10-10-16-8-29-7-49-8"/><path fill="#152753" d="M411 318c-3 1-4 3-5 6-1 9-2 16 3 23 5 11 13 24 25 24-6-7-12-14-16-21-9-23 0-34-8-25"/><path fill="#51AFD6" d="M323 137c-24 11 0 12 7 19 10-1 19-2 26-2-10-5-22-12-34-15"/><path fill="#8AA1A0" d="M299 268c-21 23-26 42-51 52 10-6 24-14 34-14 4-5 6-9 7-14 5 4 0 8 3 12 1-7 1-16 9-20-2-3-2 3-5 3-1-7 1-11 2-16"/><path fill="#C5E1E1" d="M389 263c-9 12-5 6-4 18-5-1-8-2-7-5 1 4 1 6-4 7-3-4-2-8-5-10-7 4-2 16-4 25 6 2 12 2 18 1 1-12 2-23 5-33"/><path fill="#334D7C" d="M258 220c0 4 6 7 4 12 7 3 11 7 16 10 0 3-1 5-3 6 2-1 3-3 4-5 4-5 7-10 12-13-12-3-21-8-31-10"/><path fill="#5C4355" d="M454 289c2-1 7-1 9 0 5 5 7 11 5 16-4 4-8 6-12 4-4-8-17-18-3-19"/><path fill="#3A4352" d="M392 362c-4 5-27-3-11 14 11 11 14 4 23 10-3-8-7-15-11-22"/><path fill="#2A3448" d="m383 435-12 3c-7 4-13 8-19 11-1 7-2 10-4 13 16-6 42-28 37-24"/><path fill="#23314D" d="M419 446c-10 12-20 14-31 26 0 4-2 7-4 10 7-2 12-4 22-11 1-8 8-15 12-22"/><path fill="#50585E" d="M385 341c-4 4-12 5-14 10 1 6 2 9 4 12 9 2 12-1 15-1-1-7-3-13-5-19"/><path fill="#598096" d="M296 288c-1 18-14 18 6 23 11-4 9-10 17-8-5-2-16-17-23-10"/><path fill="#325B82" d="M365 285c-9 7-10 1-18 25-13-7-8-13-13-18-1 2-8 6-8 2-4 13 10 9 7 21 11-3 18-17 29-17 2-4 1-9 1-14"/><path fill="#4E92B3" d="M337 259c0 4-5 5-3 11-6 0 0-2-6 0-2 4-1 8 0 14 6-4 11 1 19-7 4-17 3-10-9-8 1-3 0-6-2-8"/><path fill="#2A5584" d="M402 276c-2 4-3 8-7 9-6-1-9 4-8-3 0 7 2 9-1 15 6 1 10 4 15 4-1-9 9-16 3-23"/><path fill="#222E4B" d="M458 430c-10 15-16 29-25 45 8-3 18-24 18-17 6-14 9-16 10-27"/><path fill="#254B90" d="M478 273c-31 4 5 11 7 26 4-7 1-11 3-16-4-5-6-7-9-10h-1l-1-1"/><path fill="#8BA7B8" d="M386 203c-9 7-12 20 11 13 4-2 5-7 8-10-6-1-12-2-18-1"/><path fill="#0D255D" d="M269 474c-45 13 29 10 27 3 2-7-17-1-29-2"/><path fill="#07144A" d="M285 244c-5 16-14 17-17 36 3-2 8-1 11-1 0-3 5-9-4-16 4-2 6 1 9 0 11-9 11-7-1-17"/><path fill="#2C4267" d="M165 274c5 2 9 7 11 8-5 2-7 2-12-1 9 5 20 13 27 16 2 0 8 2 12 2-5-4-15-7-18-12 9 5 16 7 23 11-5-4-11-10-14-13-5-6-17 1-27-11"/><path fill="#F2FAF9" d="M333 234c-2 4-8 5-9 11-3 13-5 24-6 36 11-11 8-31 15-44"/><path fill="#2D4F81" d="M433 299c-5 6-7 17-6 19 13 9 13 5 32 17 0-1 3-1 7-3-4 2-8 0-11-1 2-4 2-8 8-7-7 1-15 2-17-1-7-3-11-20-15-12 1-7-2-10 1-11"/><path fill="#273E6D" d="M326 232c-2 5-7 7-10 10-8 6-5-6-13 1-4 4-6 7-8 11 2 3-4 5 1 6 3 0 5-5 7-3-13 11-16 26-25 31 6-5 18-18 24-28-3-6 11-10 12-15 6-3 10-8 12-12"/><path fill="#101F4C" d="M459 364c15 11 9 16 19 27-2-2 0-9-5-12 3 0 6 2 9 3 5-7 12 1 14-9-7-6-10 2-21-1-6-2-10 1-13-7"/><path fill="#5899B6" d="M432 287c-7 4-9 6-13 15-1 11-1 18 3 27-2-16 13-30 7-40"/><path fill="#202C4B" d="M380 376c2 6 5 13 13 14-3 3 0 5 0 7 7-5-1-2-1-5 14 7 14 0 20-1-5-6-5-9-9-12-1 2 6 6 2 8-10-5-15 0-24-11"/><path fill="#3B5171" d="M274 422c-19 10-19 14-26 19-2 4 3 2 4 1 2 5-3 2-4 4 6-1 15-4 21-9 3-6-1-10 2-12"/><path fill="#3570A0" d="M407 258c-8 13-10-3-16 11-3 5-5 9-3 15 3 1 8 0 10-3 4-7-3-15 7-21"/><path fill="#A8C6CA" d="M294 170c7 3 11 12 10 20 4 3 3 1 7 5 4 2 7-1 9-2-5-10-19-19-24-22"/><path fill="#030937" d="M513 327c-15 3-23 18-35 26 12 1 21-11 32-13h2-2c-3-2-5 1-8 0 2-7 7-9 9-13"/><path fill="#254D8C" d="M397 180c8 1 5 9 10 15 9 0 17 3 24 5 0-4-2-6-3-8h3-2c-8-6-25-1-28-12"/><path fill="#7D9BAA" d="M259 232c11 6 3 17 9 26-12-1-11 1-19-6l-1-1 1 2c3 6 4 10 6 16 1 0 4 7 9 6 1-6 3-11 5-16-7-7 2-19-8-25"/><path fill="#101C48" d="M305 422c9 6-12 12-23 19 10-4 50-3 29-18"/><path fill="#71C1D4" d="M446 266c-3 10-16 3-22 3-11 9-17 19-18 30-1-5 10-9 5-10 6-6 14-11 21-15 9-3 25 3 12-6"/><path fill="#06174F" d="M359 180c0 7 6 11 10 17 1 5-2 7-4 6 2 0 4 1 5 0 4-2 3-6 1-8 5 2 6 4 9 6-1-1 13 0 17-1 2-5 2-8 1-13 1 2 1 5 0 7-7-1-8 6-14 3-12-2-16-9-23-15"/><path fill="#4C91B3" d="M321 249c-13 8-15 24-15 29-2 0 0 0 0 1 0-4 7-4 8-4 2 4 2 5 3 9 0-12 1-23 3-34"/><path fill="#214A8A" d="M386 166c6 8-2 5-5 6-10 3-9 8-13 14 8-6 16 0 23-6-4-8 1-10-2-11"/><path fill="#13275E" d="M291 230c-1 1 0 4-3 3-2 5-8 8-4 9-4 6-10 11-10 17 1 1 10-9 9-14 4-2 7 7 11 2-3-7 10-13-1-17"/><path fill="#0E1C4D" d="M434 352c-4 7-4 12 6 18 7 0 11-4 11-8-5-2-7-5-17-8"/><path fill="#193773" d="M391 176c1 1 1 3 2 5-8 6-15 0-23 5 1 3 4 5 6 7 11-4 27 0 15-16"/><path fill="#86AFC2" d="M225 122c22 8 37 21 60 19-25-16-45-11-55-18"/><path fill="#32689C" d="M445 280c-5 2-11 3-13 7-3 9 2 13-1 23 6-1 1-13 9-19 9-15 32-9 4-12"/><path fill="#C2F2F5" d="M109 219c14 11 29 27 43 33-13-11-28-29-41-32"/><path fill="#051037" d="M367 346c-5 11-22 10-24 11 4 6 8 5 11 8 5-8 16-8 15-16"/><path fill="#406FA2" d="M262 128c18 5 18 13 40 23 4 1 6-2 10-1-14-6-25-15-49-22"/><path fill="#6095B9" d="M366 151c6 5 25 16 34 27 8 4 16 2 21 6 4-5-11-2-18-5-7-8-11-16-19-22-5-6-10-6-16-5"/><path fill="#233A74" d="M473 319c-9 5-11 3-18 11 10 2 11 1 15 2 10-8 12-16 4-9"/><path fill="#36719F" d="M366 262c-4 5-5 2-7 4-5 7 0 19-5 21 3-3 5 0 8 3l-2 1h2c1-9 3-18 4-26"/><path fill="#2B416B" d="M243 441c-16 6-29 1-25 12 8-3 41-4 26-10"/><path fill="#40759A" d="M311 275c-1 4-6 2-7 6 3 8 5 16 11 19-2-8 4-19-4-23"/><path fill="#20376B" d="M360 211c-2 1-5 1-7 3-6 5-15 7-15 15 10-5 18-7 39-12 0-13-8 5-19 1 1-7-4 7-8-4 5-1 7-1 8-2"/><path fill="#8DCCDC" d="M388 158c5 6 10 12 13 18 3 4 8 1 10 3-3-11-12-17-21-21"/><path fill="#B8C4B7" d="M418 407c-4 6-21 9-15 19 8-3 7-2 15-8 1-4 0-7 2-9"/><path fill="#1E3B73" d="M492 387c-6 9 2 21 3 30 3-5 5-13 3-20-2-5 0-5-4-8"/><path fill="#80A6B7" d="M311 151c-14 10 7 10 13 15 1-12-2-9-6-12-2 0-4-3-5-3"/><path fill="#24314C" d="M342 436c-8 1-11 10-13 6-23 7-24 11-43 21 8-2 15-3 22-6 4-6-3 2-4-1 8-5 15-9 22-13 6 6-7 10-5 8 10-1 13-10 19-13"/><path fill="#657987" d="M101 231c2 8 5 14 9 22 7 4 14 8 20 12-10-10-20-21-28-31"/><path fill="#31619D" d="M327 165c-3 2-3 8-4 12 0 5 2 9 0 11 2-2 0-6 1-8 3 0 1 7 2 8 5-5 8-9 11-13-3-1-7-8-9-4-2-1-1-3-2-5"/><path fill="#374760" d="m163 366-21 6c-3 6 0 14-2 19 6-10 13-20 22-25"/><path fill="#4593BE" d="M418 249c-11 7-22 2-27 6-3 3 10 4-1 13 3-2 5-5 5-7 3 6 3-1 7 2 5-6 8-8 14-12"/><path fill="#253D60" d="M316 350c3-2 8-1 9 3 2 5-3 7-3 10-4 1-6 1-7-3 0-3 0-5-1-8"/><path fill="#657880" d="M269 407c-2 16-9 12-14 26 5-4 11-7 16-11 8-10-6 0 3-13"/><path fill="#3767A2" d="M392 173c4 2 5 8 10 8-4 2 1 4 1 5-1-1 0-3-1-4 5 9 29 4 24 8 4-1 5 1 6 4 2 3 4 5 5 6-2-6 2-8-4-14-3 1 1 5 2 7-4-2-5-4-8-5-8-9-27-1-32-15"/><path fill="#0D1944" d="M463 405c-2 24-10 2-11 34 0-7 7-10 9-8 6-13 4-13 1-23"/><path fill="#65D0EA" d="M386 148c16 6 32 22 44 36-6-11-11-18-19-23-8-7-15-11-23-13"/><path fill="#89A3A8" d="M498 413c3 5-6 5 2 12 6 3 4 6 9 3 0-7-5-14-1-14-4-1-5 0-10 1"/><path fill="#233D74" d="M320 203c4 5-1 7 5 11-17 13-12 17-26 18 2 3 7 2 11 2 9-6 26-24 12-29"/><path fill="#263C67" d="M409 265c-1 3-4 3-6 5-3 7 5 7 4 11 16-13 7-7 7-17"/><path fill="#8EA8AD" d="M356 304c-23 7 22 5 30 2-5 0-21-3-27-2"/><path fill="#0A1748" d="M383 474c-2 2-11 9-18 14 9 0 9-1 18-3 1-3 6-13 2-11"/><path fill="#455A72" d="M291 416c-5 4-2 10 0 13 3 0 7 2 8-2 0-4-2-10-6-11"/><path fill="#4F6171" d="M119 274c5 14 5 15 9 22 4 1 6-3 9-3-6-5-12-10-16-17"/><path fill="#2E4E7B" d="M477 330c-5 3-9 6-13 8 0 3 0 4 3 6 7-4 3 4 7-1 4-4 1-7 1-12"/><path fill="#5E88C5" d="M273 440c-16 8-25 12-48 13 15 0 27-2 38-5 6-2 12-3 13-9"/><path fill="#325275" d="M287 308c-6 11-2 10 7 11 3-1 7 2 7-4-10-1-11-6-14-4"/><path fill="#25324A" d="M423 446c-2 7-8 14-11 21 1-2 32-23 11-21"/><path fill="#ACECF8" d="M233 207c-35 4 20 3 24 9-3-5-10-7-17-9-4-1-5 1-6 1"/><path fill="#1B3164" d="M381 207c-6 3-23 4-29 9 5 5 6 1 14 0 7 0 3-4 7-5 0 4 4 0 4 4 2-4-1-3 3-7"/><path fill="#1C3B75" d="M361 191c-1 6-8 13-14 9 6 8 28 2 16-8"/><path fill="#23365F" d="M495 358c5 0-2 9-5 10-7-4-5-1-11-3 2-6 9-4 13-6"/><path fill="#6592AC" d="M313 313c-3 2-5 5-7 8 4 0 8 2 9 5 3-1 5-6 5-6-3-3-3-6-6-7"/><path fill="#68797E" d="M383 319c-4 3-15 3-19 2-1 8 10 10 7 16-1-2 2-5 0-7 4-5 8-7 11-5 0-2 2-2 0-4"/><path fill="#10164C" d="M515 324c-2 5-10 9-11 15 8 0 1 4 9 0-1-4 6-7 5-15"/><path fill="#3E769B" d="M350 278c-6 5-17 5-22 5-1 0-2-2-1-3 0 5-1 10 1 14 5 3 12-19 22-14"/><path fill="#11265E" d="M492 386c-4 5-9 10-9 14 1 6 7 7 10 16-4-10-7-33 3-28"/><path fill="#192748" d="M366 358c4 9 10 21 16 30-10-7-13-17-17-27"/><path fill="#284162" d="M317 350c-4 4-1 15 3 13 2-3 6-5 5-9-2-3-3-4-6-3"/><path fill="#456087" d="M266 232c1 22 5 16 8 21-1-2 1-6 5-9-5-4-9-6-13-8"/><path fill="#69BBD7" d="M385 154c0 5 24 8 32 30-17-20-2-16-33-34"/><path fill="#829497" d="M322 242c-7 5-15 10-19 19 11-2 18-15 20-19"/><path fill="#8DD7E4" d="M440 262c-24 3-5 12 9 7-4 1-5-3-8-8"/><path fill="#303C4F" d="M331 442c-9 5-18 9-26 14 5 7 37-18 27-13"/><path fill="#4193C6" d="M400 219c0 10 29 3 38 11-10-6-23-6-33-11"/><path fill="#43586D" d="M221 377c-8 5-17 12-23 19 3-1 20-10 25-19"/><path fill="#232F4E" d="M349 382c-3 4 5 8 6 14 6 7 12 12 17 13-14-15-19-17-21-25"/><path fill="#374253" d="M384 332c-3 8-10 9-15 14 1 1 1 3 2 4 3-5 10-7 15-11-1-1 0-3-1-4"/><path fill="#0E2868" d="M431 193c1 4 7 10-1 10-12 0-11-8-23-5 15 1 42 25 24-3"/><path fill="#8BDBE8" d="M420 254c-6 1-11 6-16 9 4 1 9 0 14-2 2-1 4-4 3-6"/><path fill="#314B7A" d="M305 253c-3 4-6 6-7 8-6-1-6-2-3-7-7 10-6 19-13 28 7-10 14-18 22-26"/><path fill="#11295F" d="M442 276c-5 3-8 1-11 4-2 6-9 7-8 10 13-15 45-12 19-15"/><path fill="#BAC5B9" d="m375 328-1 1c-1 3-1 8-2 12 11 0 10-18 6-14"/><path fill="#3B475A" d="M336 363c-2 1 6 21 12 20-5-7-7-20-12-18"/><path fill="#CCDDD7" d="M225 216c17 10 14 9 31 12-9-6-19-9-28-12"/><path fill="#1C3061" d="M326 229c-4 4-23 10-14 13 5 5 7-7 15-11"/><path fill="#0B1C54" d="M299 234c-4 6-3 10-6 16 3-1 23-16 6-13"/><path fill="#53626A" d="M375 310c-19 7-13 13 7 5-2-4-7-3-10-3"/><path fill="#AEC6C5" d="M252 427c-4 2-17 6-13 9 6 1 23-7 12-8"/><path fill="#4998BD" d="M360 251c-3 6-2 13-4 17 8-1 20-20 3-13"/><path fill="#4995C1" d="M452 253c2 10-1 19-2 19 5 0 7-6 11-7-4-2-9-6-7-11"/><path fill="#738C96" d="M399 421c-7 5-14 8-22 12 6-2 17-3 24-5-2-2-2-8-1-7"/><path fill="#020932" d="M397 183c2 5 4 11 2 15-5 4-10 3-17 4 19 2 34 1 15-19"/><path fill="#0E1A3C" d="M390 330h-3c-1 2-1 5 0 7 10-6 3 6 7 2 8-3 5-13 0-10"/><path fill="#6F8890" d="M286 304c-2 6-7 3-9 3-9 5-11 4-17 6-1 4-4 2-8 8 8-2 16-7 23-13 4 0 6 3 8 5 2-2 1-5 2-7"/><path fill="#0C194C" d="M456 278c10 0 20 10 23 19-2 5 1 8-1 11 0-10-4-16-8-22 7 6 4 18 6 23 0 9-17 15-19 13 9 0 13-3 16-8l2-1 1-1 2-2c0-5 4-8 4-12-5-12-15-19-25-20"/><path fill="#B9753F" d="M508 293c10 3 12 15 10 18 4-4 4-9 3-12-2-6-6-5-9-7"/><path fill="#1B305B" d="M394 317c-1 3-8 5-6 10 0-2 20-6 8-11"/><path fill="#F2F9F7" d="M325 283c-4 4-4 9-5 14-3 6 1 4 3 5 2-5 2-11 2-17"/><path fill="#A6BABD" d="M465 384c-12 15-26 27-41 34 16-5 35-21 39-31"/><path fill="#E2F6F8" d="M449 200c1 7 10 14 6 21 18 13 23 28 37 43-7-17-36-40-42-62"/><path fill="#EDF8F8" d="M152 251c-1 6 16 12 19 15-9-1-1-9-17-14"/><path fill="#273A57" d="M184 359c12-4 7 12-1 9 2-2-1-4-1-6"/><path fill="#253C66" d="M409 310c-4 0-4 2-6 3 2 2 0 6 1 8 0 6-1 10 1 13-2-3-2-7-1-11 2 1 3-5 6-5 1 3 3 4 2 8 1-4-1-5 0-9-1-3-2-5-1-6"/><path fill="#47596A" d="M131 306c6 9 8 13 18 21-5-7-8-17-17-20"/><path fill="#263960" d="M495 359c-4 3-11 2-16 3 6 3 5 1 8 6 6-2 6-6 8-7"/><path fill="#0D2A6B" d="M339 165c3 7 10 13 21 21-3-9-13-13-20-20"/><path fill="#040C35" d="M416 335c1 9 5 17 10 25 5 5 10 11 16 12-6-3-11-8-14-14-6-8-8-15-11-22"/><path fill="#56748D" d="M99 457c-1 3-4 6-5 9 7 0 19-5 6-9"/><path fill="#2E4364" d="M457 369c-2-1 0 19-8 31 4-4 5-9 8-12 3-11 2-13 0-18"/><path fill="#1B0F46" d="M454 293c-2 0 4 0 5 2-6 1 1 2-7 6 0 2 2 4 3 6 4-3 7-3 8-9-2-4-5-5-6-5"/><path fill="#7F9CAC" d="M210 211c-1 5 20-1 38 11-5-12-29-7-39-12"/><path fill="#6E8286" d="M325 344c3 4 4 13 9 15 0-11-3-10-7-15"/><path fill="#0C1C46" d="M318 326c-3 4-7 9-14 9 4 0 6 4 9 1 3-4 9-5 7-10"/><path fill="#435A80" d="M515 343c-8-1-20 5-27 11 8-2 18-10 27-11"/><path fill="#122B66" d="M394 182c3 3 2 5 0 8-8 0-15 10-23 0 4 3 7 6 12 5 13 0 17-4 12-11"/><path fill="#889DA2" d="M435 405c-2 5-13 11-16 7 3 10-9 11-14 15-2-3-7-6-3-8l-1 1h-1l-3 1c-9 5-17 10-26 15 12-1 9-8 28-15 0 2 4 4 2 8v-2l2 1 1-1c6-2 7-2 10-5-3-2 21-13 24-16"/><path fill="#7EA0B0" d="M204 111c42 7 0 11 32 9 2-7-15-5-26-9"/><path fill="#172447" d="M322 379c4-2 9 2 11 4-6-3-2 4-6 4-2-3-6-3-4-6"/><path fill="#EEF6F4" d="M361 301c-2 1 27 3 34 3-8-2-18-5-30-3"/><path fill="#5D7383" d="M148 275c10 7 19 14 30 19-2-4-18-13-28-17"/><path fill="#294164" d="M195 383c7 0 1 10-3 9-5-3 0-6 1-8"/><path d="M293 171c2 6 3 12 9 15 0-5-1-12-6-13"/><path fill="#6C828C" d="M507 415c3 3 2 9 4 13-6-1-5 4-13-4 8 8 12 11 15 15 0-9-3-15-5-22"/><path fill="#1D2C50" d="M194 284c7 6 12 15 23 15-3-7-14-6-21-14"/><path fill="#E7F9FA" d="M357 247c-3 6-6 11-7 17 6-2 6-9 8-14"/><path fill="#3F91C4" d="M358 155c-6 0-20 2-28 2 5 0 32 2 30-2"/><path fill="#5A809A" d="M480 327v1c-4 4 0 8-2 13 11-10 15-23 5-4-3-3 0-8 1-10"/><path fill="#3071AF" d="M399 218c9 2 35 6 47 14-7-5-15-8-23-11-8-1-13-3-19-2"/><path fill="#BCE9EE" d="M372 263c1-2 6 2 6 4-4 6-12 1-9-3"/><path fill="#1C325D" d="M350 287c-2 5-7 11-12 7 1 2 4 1 5 2 1 6-3 1-4 5 3 3 4 2 5 1 10-9-1-8 8-13"/><path fill="#718597" d="M334 226c-7 6-7 12-14 21 1-10 16-11 17-20"/><path fill="#364456" d="M422 443c-4 9-11 17-15 25 4-2 12-14 15-22"/><path fill="#192548" d="M387 383c5 0 11 5 16 7-6 1-10-1-14-5"/><path fill="#1A2A51" d="M394 308c8 6-6 4-22 2 6 0 10 1 11 6l-1 1 2-2c4 1 17 0 15-7"/><path fill="#EDD95C" d="M466 306c5-1 0 7-2 7-5 1-7 1-8-2 1-3 6 0 8-3"/><path fill="#2B3F62" d="M419 326c-2 9 2 10 2 13 3 2 6-1 11 3-3-4-10-6-12-14"/><path fill="#143575" d="M329 159c-3 10 12 10 11 11 1-3-3-5-9-10"/><path fill="#C9E6EB" d="M357 262c-8 4-6 9-5 20 4-4 2-12 4-18"/><path fill="#030C3D" d="M287 260c-2 7-6 4-10 2 8 4 2 13 2 16 2-4 6-10 8-16"/><path fill="#94D3E2" d="M358 231c6-1 4 8 1 10-3-3-3-6-2-9"/><path fill="#AFCCCF" d="M314 311c-19 1 13 6 9 0-2-4-4 0-8-2"/><path fill="#0F1B3F" d="M425 439c-5 10 10 7 10 4-4-4-2-4-12-2"/><path fill="#335C8B" d="M306 323c-3 1-5 8 1 9 12-16 0 0-2-9"/><path fill="#0D1D4E" d="M488 391c-3 2-7 6-11 5l2 2 1 1 1 1c4 8 7 12 13 18-4-6-11-17-12-17 4-2 0-8 4-8"/><path fill="#3F7598" d="M415 291c2 12-6 6-7 11-2 8 6 0 4 10 0-7 1-13 4-18"/><path fill="#07133F" d="M367 385h2l5 5c-7-12-12 12-12-3"/><path fill="#6391A4" d="M303 280c-1 4-7 6-5 12 2 1 6-6 8 1-1-4-1-8-3-11"/><path fill="#223B5E" d="M315 338c-22 7 4 5 8 3-4-3-4 1-7-3"/><path fill="#254368" d="M327 309c-2 2 0 12 4 14-2-5 6-6 6-8-1 4-3 2-6 0 0-5-6-1-4-6"/><path fill="#2C3F5A" d="M186 360c-6 1 2 6-5 8 3 1 15-5 6-9"/><path fill="#87A4B0" d="M230 225c3 9 10 9 19 11-8-11 0 0-18-10"/><path fill="#173776" d="M420 197c-1 7 11 8 14 4-5 0-8-4-13-2"/><path fill="#192752" d="M304 424c-4 13-16 3-19 16 4-8 25-7 21-16"/><path fill="#335783" d="M496 326c-4 0-7 3-7 7 3 0 18-11 7-5"/><path fill="#5691BE" d="M437 298c-4 5 0 10 1 16 5 6 9 9 14 10-4-2-7-5-10-9-4-6-6-10-6-15"/><path fill="#E8EEEB" d="M513 355c-9 9-19 26-24 30 11-9 13-17 24-29"/><path fill="#CFF0F3" d="M173 265c-8 1 15 14 13 11-4-4-7-6-11-9"/><path fill="#283D66" d="M385 316c-4 17 5 14 14 5-3 4-7 5-11 7-3-5 1-7 4-9-3-2-4 0-6 0"/><path fill="#331A47" d="M453 292c15-3 5 18 4 16 3-6 11-4 8-10-1-4-4-5-5-6"/><path fill="#293E66" d="M279 417c-9 7-8 11-7 21 5-6 0-10 4-19"/><path fill="#2D537E" d="M426 280c-5 3-10 4-11 10 8 1 3-6 13-11"/><path fill="#14244C" d="M241 341c3-4 6 1 6 3-4 3-9 0-8-4"/><path fill="#0F1C45" d="M389 306c7 8 7 0 11 3-15 9-23 7 0 7 1-3 0-6 3-7-5-1-7-3-11-2"/><path fill="#171D53" d="M512 328c9-2-1 8-4 7 0-3 1-4 3-5"/><path fill="#1A274A" d="M391 391c3-1 6 3 7 5-4 4-6 0-7-3"/><path fill="#6D8085" d="M236 320c1 2 1 3 0 7 5-1 8-1 11-3 4-8-4 4-11-3"/><path fill="#466187" d="M250 218c4 7 11 8 10 13 2-2-2-12-6-13"/><path fill="#49576A" d="M209 299c7 4 20 10 24 11-7-5-14-7-22-11"/><path fill="#ADCDD1" d="M297 274c1 5-1 7 0 12 3-3 11-13 0-9"/><path fill="#E8F5F7" d="M500 279c3 13 12 28 20 40-9-12-13-25-19-38"/></svg>