<svg xmlns="http://www.w3.org/2000/svg" width="600" height="600"><path fill="#90A0A8" d="M209 103c10-1 19 0 29 2-12 4-27 5-36 18-10 9-17 20-21 31-2 8-3 15-4 21 7-3 11-8 18-10-8 11-18 21-20 34 1 21 8 37 14 53 3 4 3 4 4 1 1-12 3-22 6-32 5-19 14-34 22-48-3 21-4 46 2 67 4 15 12 26 19 38 2-9 3-21 6-30 6-19 13-37 21-50 1 15 2 29 5 42 7 25 17 45 32 64 6-1-1-11 8-6 13 5 24 11 33 20 12 0 16-11 20-17-13-11-27-17-37-27-9-8-15-15-18-24-8-13-12-26-12-41-2-13 1-22 2-35 4-12 7-22 14-31 10-11 19-20 31-24 12-6 22-8 36-7 11 2 20 3 27 10 8 6 12 9 17 14 7 11 11 20 10 33 14 23 26 50 46 69-4 7-10 4-13 2-20-14-36-29-54-40 15 11 31 24 48 36-17-7-31-15-47-21-12-4-20-1-30-3-11-3-19-7-24-14-9 4-10 13-8 20 2 12 11 20 19 26 8 0 3-12 4-16 9 10 16 20 22 30 8 8 13 10 20 17 13-6 24-15 30-24 6 7 6 19 5 29-2 8-3 14-6 19 14-4 25-14 35-26 2 10 3 16 1 23-2 13-8 22-12 30 15 2 30 1 44 4-9 9-18 19-28 24 13 4 24 5 34 10-11 9-23 18-34 24-2 7 11 8 15 15-7 1-12 6-19 7-2 6 6 3 8 5-4 4-7 6-11 7-10 3-19 8-28 4-9 21-20 40-36 55-22 13-51 5-73 13-37-3-72-7-107-11-13-3-14-14-23-20-27-9-45-32-69-43-21-17-39-43-54-60-1-3-4-4-1-6 13 9 27 20 39 24-13-24-30-40-39-62 2-3 6 5 10 7 5-1 5-3 4-6-14-25-24-51-30-78 12 16 28 37 44 54-1-18-9-32-11-47-1-28 2-55 7-79 6-35 26-77 24-8 6-15 8-22 12-28 7-7 13-14 21-17 11-5 18-9 27-9 5-1 7-1 8-2"/><path fill="#0E1E2F" d="M319 431c-9 5-21 6-31 10-20 18-101 11-51 42 32 2 64 6 96 9 23-2 45-4 68-4 12-2 20-8 25-18 10-11 17-23 22-35-7 8-16 18-26 23-8-2-1-12-4-19-8 6-14 10-21 13-13 3-24-1-33 4-3 3-4 6-7 7 2 0 3-2 6-1 3 5-4 7-2 11-6-3-9 7-19 4-6 1-11 3-13-2 4 6-7 2-9 5-6-2-4-6-5-8 1 3 1 5-2 7-4 3-6 0-8 0-8-2-11-8-13-12 1 2 1 5 3 8-13-9 1 5-13 1-6-8-12-2-15-12 5-1 9-1 14 0l-6-3c-1-6 0-8 0-11 10-3 18-2 24-6-3 1-11 4-13-1 9-4 17-5 23-8 0 4-3 6-5 7 5-3 9-5 13-10"/><path fill="#F2FAF8" d="M361 240c5 4-1 5-1 6 17 13 27 24 37 39 13 22 21 43 30 61 4 3 6-2 6 4 0-4 0-6 3-8 3 8 2 16 5 23-1-12 5-4 5-13 3 12 10 22 16 23-1-16-4-31-9-45-4-14-10-26-16-37 10-12 15-27 16-40-8 7-20 17-31 24-18-14-45-35-58-34"/><path fill="#B5C5C7" d="M200 284c-3 11-22 2-3 21 5-1 10 5 15 3 14 17 30 35 49 42 11 4 26 12 40 13-27 3-62-4-82-3 20 10 24 9 46 15 12 2 23 5 35 3-1-3-2-6-2-8 1-3 2-4 4-5-1-3 3-3 2-4-4-7-11-13-17-16-18-12-39-25-56-41-7-3-14-3-16-2-3 1 0 1 0 4-9-12-13-14-13-21"/><path fill="#F2FAF6" d="M269 200c-6 8-4 22-6 32 1 12 4 21 7 29 6 30 38 49 48 73 1 7-4 9-5 11-6 3-9-5-14-6 14 17 36 37 50 47 9 5 24 7 30-1l3 1-3-1c-5 0-12 3-19 1-11-1-8-10-18-12 12-5 19 3 32 1 4-2 5-4 7-6-4 3-11 3-16 2-1-4 3-3 6-4-10-2-19-7-27-14-19-17-31-42-43-54-14-21-21-36-28-57-3-14-5-27-3-42"/><path fill="#9DB2B9" d="M355 143c-13 2-26 13-29 20-5 15-6 32-3 46 8 20 14 33 23 49 9 12 21 21 30 31 11 15 17 29 23 43 2-4 4-9 1-13-2-11-8-19-12-27-18-9-42-41-55-60 6-5 10-14 15-10l1-2 2 1c1 3 3 5 6 7-1-4-4-7-3-12 0 4-2 4-4 4h-1l-3-2c-1-6-8 0-10-7-9-6-11-13-12-20 2-12 4-21 8-29 7 5 9-8 17-9 1 6 6 1 9 3-1 6-5 11-3 16 3 5 3 13 8 17 13 4 12 0 41 14 4-6 10 0 8-4-1-6-4-8-5-11 2 3 5 10-2 8-9-2-16-4-22-10-7-13-13-18-18-29-3-2 0-7 4-8-8 0 0-8-13-6"/><path fill="#2B364C" d="M112 381c5 11 24 28 33 36 24 13 42 35 67 43 11-2 22 1 29-4-11 3-24 3-34-1 3-1 13 2 18-3-4 0-10 2-13-1-7-4-19-9-20-13 17 4 33 2 46 1-9-6-19 2-28-7-22-19-37-21-62-44l-1 1h2c1 5-5-1-6 2l-1-3-2-2 3 3v1c4 8 15 14 17 17-18-6-31-16-44-24"/><path fill="#F8FCFB" d="M369 113c-3 0-8 1-9 2-35 11-54 39-5 5 3 2 7 7 15 4 29 32 38 22 65 57 3-13 1-28-4-37-8-13-18-20-29-27-12-3-21-6-32-4"/><path fill="#A3D1DE" d="M332 143c-3 7-8 4-13 7-7 10-10 20-16 29-4 20-3 36 2 54 5 16 13 28 23 38 15 14 32 20 45 32-6 9-12 14-19 17 2 1 5 1 7 3 4-7 13-12 13-17 11 5 14 24 16 27-2-13-5-26-16-35-10-14-22-14-31-22-6-6-16-14-18-24-1-5-1-12 1-12-9-15-12-30-12-50 3-18 6-33 17-45"/><path fill="#DDEDE8" d="M353 232c-3 5-3 11 4 14 16 17 33 32 45 53 8 15 10 31 14 46 0 13 3 26 3 35-2 5-3 7-4 10 0-4 2-5 1-9 2 5 9-5 7 6-22 48-10-5-22 33 23-10 31-35 51-38 3 9 5 5 11 6-2-6-3-12-1-18 0 2-1 4-2 5-3-1-4-7-8-5-3-6-3-11-5-16-3 7-5 2-5 14-5-10-4-18-7-24-2 1 0 4-1 6-2-5-2 1-7-2-10-20-18-41-29-62-12-16-22-27-38-37-1-7 5-4 0-9 7 3 10 7 8 0-3-6-9 0-14-7"/><path fill="#18364B" d="M294 447c-4 2-12 1-17 3-4 8 2 13 6 14-18-9-18 8 0 9 5 5 6-1 11 2-1-3-3-5-3-7 5 5 9 11 16 10 7 3 8-2 7-8 3 4 1 8 5 9 10-2 21-1 32-3 6-4 9-2 11-10 1-6-4-1-6-3 3-1 3-4 5-6-5 0-11 4-16 3-1-3 1-5 2-7-2 2-3 6-7 7-4-1-1-4-3-6 1 5-6 8-9 6-8-4-10-3-13-7 2-3 4 2 5-3-7 1-17 1-23-3"/><path fill="#DCEAE3" d="M203 289c44 18 51 37 85 53 1 0 2-3 2-4 3 0 5 1 6 2 7 11 10 22 19 31 5 6 15 19 16 11 0-3 4 0 3-7-3 1-23-24-32-33 3-2 6 5 10 3 2-3 5-5 5-9-4-14-14-23-23-34 13 12-6 23 4 29-2 10-11 0-9 4l1 3-3-1c-12-7-19-23-32-29-16-10-33-14-50-17"/><path fill="#E0ECE3" d="M346 340c-6 3 6 9 3 15l-2-1 1 2c7 5 15 9 23 10-1 3-5 2-7 3 10 3 14-1 18-2-2 4-4 7-7 8-13 4-20-5-31-1 6 1 7 8 11 10 9 4 18-1 23 2-3 7-6 3-7 7-8-1-28-4-25-9-5 0-9 2-13 1 12 5 11 17 25 19 10 2 22 2 30-3-3-9 2-12 9-31-4 2-6 4-9 5 3-7-3-5 1-12-2-1-3 2-5 2-2-1-25-12-36-25"/><path fill="#B8C4C6" d="M187 110c-8 2-15 4-23 10-12 8-16 20-21 31 7 18 6 30 20 50-1-14-2-32 4-45-2-19 30-42 24-47"/><path fill="#4B5A6E" d="M133 319c1 5-3 7 5 13-4-1-6-3-8-5-18 11 2 32 17 47-4-6-11-9-14-16 2-1 7 3 11 4-6-2 5-4 1-6 4-3 6-1 7 0-2-9-11-19-14-30 8 10 17 23 24 33 9 9 14 15 24 19 7 1 22-3 29-7-5-14-9-10-20-20 6 6 16 10 14 17-6 7-11-2-15 0-24-19-49-43-58-47"/><path fill="#9EACB1" d="M204 208c-7 18-11 42-7 64 2 3 5 10 8 16 14 3 22 6 35 10-6-17-22-29-26-46-9-13-4-40-7-45"/><path fill="#8898A6" d="M118 173c-9 22-9 49-6 74 8 12 17 24 26 32 2-7 1-17 1-23-10-26-17-54-20-81"/><path fill="#B5C5C4" d="M348 220c1 7-13-4-6 9-7-6-4 4-9 0 14 34 51 50 66 80 4 10 5 18 0 25-4-8-9-22-13-25 4 19 11 38 8 53 3 6 5-2 6-3-1 10-5 23-2 30 3-3 5-15 10-22 1-17 2-37-3-52-13-31-40-51-58-72-8-7 3-10-1-15 4 0 19 8 12 1l-1-2v2c-4-2-3-3-8-7"/><path fill="#314359" d="M139 326c2 10 12 20 14 29-6-4-6 4-10 6-5 1-8-3-11-5 4 7 11 12 17 17-43-38-40-18-2 14-7 0-16-7-18-7 10 7 13 17 24 22-4-3-6-7-11-10 3-1 4-3 6-1 15 9 32 22 44 25 1-2 6 4 10 1-9-9-31-20-43-37 2-4-9-9-13-18 8 4 14 7 21 9-17-24-14-23-26-43"/><path fill="#9FBDC7" d="M355 140c-12 4-25 9-32 20-7 21-10 34-6 54 15 20 4 31 13 48 14 21 43 22 55 49 2-4-7-17-11-23-10-10-21-20-28-29-10-17-16-30-25-48-2-16-1-33 3-46 0-14 35-25 34-24"/><path fill="#798691" d="M183 287c6 13-10-5-4 6-26-10-31 9 4 35 13 0 24 0 34 1-5-5-10-11-14-17 8-1 15 14 17 4-6-2-14-5-20-7-7-6-12-13-16-20"/><path fill="#8F989E" d="M158 234c-24-3-11 37-4 57 21 2 20-2 30 0-6-10-20-37-26-56"/><path fill="#CADBDD" d="M166 220c6 14-13 7-5 14 5 21 15 41 28 60 0-1-2-2-1-4 0 1 7-5 8 1 3-3 0-9 5-8-8-23-22-39-25-51 2-2-6-2 0-5 2 4 5 5 5 7-1-2-1-4-2-6-8-14-5 5-13-6"/><path fill="#CBDBD7" d="M346 226c6 7-6 9 3 16 10 17 30 28 41 47 9 15 20 27 18 44 2 30-1 46-9 63-5 17-21 29-34 33 14-1 21-11 28-18 11-14 17-26 20-40 7 0 0 6 3 8 1 3 1 4 1 5-2 12-7 15-11 28 9-7 16-19 16-30-1-2-4 5-5-1 1-10-2-23 0-34-6-14-7-27-12-38-9-28-44-53-54-67v-11c5 2 12 9 11 5-2-3-6-5-8-5-3-4-5-1-6-4"/><path fill="#586F8A" d="M518 367c-19 2-39 7-55 10 1 7-1 16 2 23 7 4 25 2 36 1-5-5-12-7-19-10 12-7 27-17 39-25"/><path fill="#4B566B" d="M169 387c15 15 32 23 50 30 3 3-5 5-7 7-9 1-10-1-14-3 7 6 20 10 25 7 15 0 16-6 18-9-2-13-18-12-28-18 2 0-4-11-10-13 11 4-7 8 7 10-14-5-27-8-39-9"/><path fill="#AAB5B5" d="M254 235c-6 14-10 30-8 47 0 10 7 13 11 21 2-5 6-3 7 0-2-8 2-13-4-17 1-7 5-10 5-12-7-15-2-26-11-38"/><path fill="#5A6C82" d="M119 279c3 10 7 19 11 27-2 5-3-2-6-2 3 4-4 9 2 13-6-7-9 8-14 6 4 7 7 14 9 16 2 0 5-6 8-12 6 4 8 7 11 11-2-5-5-9-8-13 5-1-5-8 3-8 14 10 33 29 53 46 4 4 6 3 7 6 0-6 7 4 11 1 5-8-5-10-7-17-4-1 6 5-1 6-8 3-1 5-7 5-18-10-34-39-40-39-12-15-23-29-32-43"/><path fill="#DBEEEE" d="M211 209c-2 13-2 30 4 42 8 20 21 37 37 50-20-25-31-69-39-92"/><path fill="#94BCC7" d="M375 306c-1 5-9 11-11 17-15-7-25 3-43-1 2 4 4 7 7 9 4-6 15 6 20 4 11-3 7-8 17-6 28 19 27-7 10-22"/><path fill="#B8C5C4" d="M259 254c15 19-4 28 7 45-6 0-5 5-10 4 7 8 16 20 26 25 5-11-12-25-4-40-10-13-10-23-15-32"/><path fill="#8BB6C3" d="M516 332c-16 7-35 13-55 15 0 7 1 13 2 18 5 3 11 3 16 2 7-16 24-21 38-36"/><path fill="#B7C5C4" d="M455 393c-4 10-19 4-26 13-3-2-1-3-1-4-13 12-3 13-9 29 12-13 24-15 34-21 2 1 6 3 2 6 2-13 14-22 1-22"/><path fill="#DDE9E5" d="M238 379c19 2 36 10 55 13 13 2 24 0 35 1-6-6-19-8-23-13-23-2-43 0-65-1"/><path fill="#CCDAD6" d="M266 266c17 16 5 42 23 58-3 2-5 5-6 5-8-3-12-10-17-13 24 18 19 26 30 31 7-5-2-7-8-11 2-5 6 3 9-3-6-8-1-13 1-19-9-18-23-31-29-48"/><path fill="#A2D2E2" d="M215 104c-1 3-11 2-14 6-8 3-13 9-17 14-7 7-9 14-10 22 3-3 6 2 8 1 7-12 16-25 26-32 21-8 41-10 5-11"/><path fill="#C1D4DA" d="M134 117c-3 5-6 10-7 17-3 16-8 31-5 45 7-4 10-20 19-22-3-11-7-25-7-39"/><path fill="#A2B0B1" d="M454 410c-11 7-23 8-32 22-3-7-3-13-3-19 1 12 0 24 2 34 9-6 14-8 23-9 7-11 11-18 11-26"/><path fill="#9D3F3F" d="M438 178c-3 5-5 11-10 16-17 4 34 39 48 47-10-4-19-16-29-24 1-3 6 1 6-4-1-9-11-4-12-13 3-8-3-14-3-21"/><path fill="#404250" d="M247 388c-7 6 20 15 18 21 6 0 14 4 20 1-1 4-5 4-9 5 12-3 23 1 33 5 10-3 17-8 21-10-16 3-27-6-41 2 7-4-8-4-9-9-14-6-18-7-33-15"/><path fill="#CFF1F4" d="M484 277c-1 12-6 21-15 28-4 3-5 5-8 6-2-7-9-4-8-10-1 2-3 4-4 6-3 9 11 8 11 17 3 0 9 1 10 2 3-4 6-7 7-11 6-12 10-24 7-35"/><path fill="#829AA9" d="M349 154c-8 2-9 12-16 9-4 7-6 16-7 25 0 7 0 11 2 15 4 5 8 10 13 11-3-7-9-17-7-28 1-13 15-19 22-28 6-6-7 4-7-4"/><path fill="#909BA1" d="M121 279c11 24 32 42 49 64 7 1 14 1 20 4-5-12-16-23-26-33 1 1 2 5 6 7-8 1-6 8-11 4-14-14-28-42-37-42"/><path fill="#BBE4E9" d="M452 302c-4 6-6 0-6 7 7 13 11 24 13 36 6-1 14-1 20-3 5-3 8-7 11-11-5-2-25-3-29-8-6-3-4-6-3-7-1 1-3 1-5 2-3-3-4-5-6-7 0-5 3-6 4-9"/><path fill="#81B6CA" d="M79 246c0 11 9 30 13 43 4 8 12 2 10 3 4 3 8 5 9 9-3-7 4-7-2-16-10-17-22-22-29-36"/><path fill="#D9EAEB" d="M149 180c3 16 5 33 9 50 2-1 10 0 8-5 7-2 6 0 9 4-2-2-2-5-4-7 4 1 6 3 7 6-3-28-21-18-27-48"/><path fill="#4D586B" d="M227 433c9 5 17 6 34 6-34-1-94 5-19 7-3 4-6 5-9 6 4 1 7-1 9 1-10 3-18 4-27 3 9 0 17 1 24-1 11-2 25-10 37-13-5-2-24-5-45-9"/><path fill="#C6D5D5" d="M262 385c5 1 1 3 6 1 1 3 0 8-3 9 17 6 31 11 51 12-4-3-13-7-9-13-13-1-25-3-37-7-4-1-5 0-5-1"/><path fill="#255063" d="M365 442c-18 2-28 10-39 7-6 1-5 5-6 6 21 1 15 2 31 4 8-8 9-11 16-16"/><path fill="#133956" d="M392 156c5 4 5 10 9 15 2-11 4 10 8-10 3 3 8 2 9 7 4 11-2 15-3 21 7 5 13 1 15-1 4-8-6-19-12-25-7-4-15-8-24-7"/><path fill="#A4ADAC" d="M147 190c-5 13-3 32-4 49 5-2 7 0 13-8-2-12-4-27-7-40"/><path fill="#3D4254" d="M191 379c16 14 45 31 49 35 11 6 20 2 23 1-22-9-42-19-70-35"/><path fill="#DCE9E7" d="M230 349c-15 2-7-1 2 1 0 8-7 4-12 5 32 8 47 5 76 9-18-2-35-11-52-15-5 0-10-1-14-1"/><path fill="#C1DDE0" d="M357 129c-13 2-26 13-33 14-3 3-5 3-4 5-10 9-16 18-17 28 5-8 9-17 15-27 11-2 20-12 32-13 10-2 15-2 24 2 0 5 5 5 6 7 42 24-12-17-19-16"/><path fill="#839CAD" d="M373 190c1 8-18-2 10 20 7 4 24 0 31 0-4-3-17 3-25 0 6-7 20-2 24-8-15 3-30-7-41-13"/><path fill="#D8F0EE" d="M356 124c-13 4-25 10-35 18-18 22-13 21 1-1 12-1 21-11 34-12 6-2 9-1 12 1 8 4 23 17 31 23 3-1 7 1 9 0-15-3-28-21-36-25-2-5-11 0-15-4"/><path fill="#DFFAFC" d="M484 275c-7 8-18 18-28 24-5 7 4 5 4 11 6-4 13-8 16-14 6-6 5-14 8-20"/><path fill="#BAE6EB" d="M311 298c-1 6-2 13 5 18 9 1 18 0 26 0-7-8-19-14-29-18"/><path fill="#354764" d="M463 408c-2-3-6 7-7 17 8 1 15 1 22-3 1-4-5-2-7-4 3-6 16-6 6-10-3-3-8-3-13-2"/><path fill="#E2F9FB" d="M178 160c1 13-16 7-12 22-2 7-1 15 0 20 2 5 7 6 9 9-3-15 0-31 3-48"/><path fill="#7A838F" d="M132 298c17 28 31 36 57 65 4 0 6-1 10-4-2-5-4-7-6-9 6 1 8 5 10 4-6-3-11-8-17-12 1 2 2 3 4 5-7-1-17-4-17-3-14-16-29-28-40-43"/><path fill="#CAD9D7" d="M452 381c-16 11-19 9-32 27 5-8 22-5 35-15 2-1 8-2 6 4 6-15-9-1-7-15"/><path fill="#CBDBD5" d="M390 331c-1 8 2 14-3 20-2 6-5 9-7 10 1-1 3-1 5 2-2 4-6 5-7 7 4-2 7-7 10-9-5 11 4 4-1 15 4-2 9-9 11-6l-4 8c-9 9-16 12-24 14 8-2 17-6 21-12-5 17-2 7 3 18 1-3 2-7 4-11l2-1-2 2c-3-2-2-11 0-15 0-6 2-9 3-12-1 2-5 9-8 3 3-12 0-20-3-31"/><path fill="#D4F5F8" d="M453 258c-2 13-6 24-17 33 3 5 6 10 8 15 9-12 10-33 10-46"/><path fill="#AEC7CB" d="M357 135c-2 1-4 0-5 1-8 2-13 5-18 7-8 7-11 15-13 21 1-3 4-7 6-10 9-8 18-12 27-15 3 2 8 3 13 5-1 1-1 3-3 3 24 1 24 8 8-8-4-3-9-3-13-3"/><path fill="#505867" d="M325 426h-3c-10 7-28-1-38 7-8-1-15-3-21-5 23 4 8 12 29 9 15-2 21-5 30-10 20 5 44-5 2-1"/><path fill="#B4C5CA" d="M109 247c3 7 4 16 10 21 0-2-5-9 0-8 40 50-15-1 33 52-3-8-4-11-5-13 1-1 2 0 3 1-6-13-19-27-29-38-4-7-10-9-11-13"/><path fill="#0E1D36" d="M405 168c-10 1-1 19 12 27 7 1 12-3 14-8-1 5-6 4-10 6-3-2-5-3-6-5 6-6 3-11 4-19-6-2-7 1-12 5 1 0 2 2 4 3-6-1-8-4-7-9"/><path fill="#525665" d="M234 386c-7 6-3 12 5 13 4 2 11 7 26 9-7-6-24-15-20-20-5-2-7-2-10-2"/><path fill="#B6C5C5" d="M414 371c-3 12-8 23-15 34-7 9-13 16-21 21 10-2 18-9 23-18 9-13 16-24 14-37"/><path fill="#A1AEB0" d="M145 291c13 12-1 5 5 13-2 4-4 3-7 0 6 7 9 16 18 21 0-3 5-2 6-3-5-11-11-19-20-28"/><path fill="#6C849A" d="M506 360c-3 1-8 6-14 9-10 1-24 0-30 1 1 4 3 5 3 6 8-2 18-3 26-6 14-2 49-5 14-11"/><path fill="#719DB6" d="M111 287c4 5-2 9 1 12-3-3-8-4-9-7-10-1-7 9 1 19 2-3 10-2 9-5 4 2 6 5 8 8-8-8-1-16-8-25"/><path fill="#6487A3" d="M116 293c4 6-1 10 3 16-2 0-3-1-4-2-2 4-10 0-11 6 3 5 5 9 7 11 3-3 7-5 9-9 5 3 8 8 11 12-17-10 1-21-14-32"/><path fill="#B0C2C7" d="M366 150c-3 12 12 21 16 33 8 8 17 13 25 13 3-8-10 2-18-14-13-8-18-21-20-30"/><path fill="#606A7B" d="M252 427c-11 10-16 4 15 13 5-2 12 5 24-2-16 2-16-10-40-9v-1h-1"/><path fill="#39475F" d="M351 173c-2 12-3 11-7 19 0 6 0 10 4 13 4-6 11-4 5-10 4 0 4 4 5 2-3-8-7-13-6-22"/><path fill="#B8C4C3" d="M309 394c-6 4 3 9 5 11-1 3-3 2-4 3 1 0 3-1 5 0 2 2 13 0 16 0-3-6-7-6-7-13-5-1-9-1-13-1"/><path fill="#F0F8F7" d="M377 150c8 8 7 26 22 30-4-7-3-16-8-23-4-4-7-5-10-7"/><path fill="#9EAFB5" d="M184 330c9 8 17 13 26 18 0 3-11-1-6 1 20 1 19-4 25-8-5 1-30-2-42-10"/><path fill="#636F83" d="M139 200c1 14-3 25-1 39 1 16 8 28 11 42 2 5-1 6-2 7h-2l-1-1-1-1 1 1 2 2 1 2c4 3 3 5 6 5-1-4-2-9-3-13-2-8-5-15-6-22-5-23-1-38-4-58"/><path fill="#676E7D" d="M199 381c8 5 25 14 46 22-5-2-10-4-14-7-2-4-1-10 5-11-13 1-24-3-36-5"/><path fill="#7E8790" d="M363 426c-13 1-25 12-28 16 8-1 16-2 27-7 12-6-13-1 3-10"/><path fill="#7B8491" d="M158 370c11 5 27 20 43 23-14-15-26-13-40-23"/><path fill="#7C9DAF" d="M489 355c-5 2-9 6-8 12-7 2-13 2-18 1 9 1 19 0 27 1 19-9 15-11-3-13"/><path fill="#DCE9E5" d="M264 208c-4 10-9 19-5 30 2 19 13 31 20 45-6-10-11-21-14-32-3-15-3-29 0-42"/><path fill="#FAFAF1" d="M445 186c5 16 18 30 23 45 4 5 8 9 13 7-16-15-25-37-34-51"/><path fill="#8E99A1" d="M217 331c4 5 8 10 14 10-10 1-4 2-5 7 8 3 10-7 17-6-4-3-7-7-12-9-4 0-8-2-13-1"/><path fill="#AECCD8" d="M132 169c-4 3-5 10-9 12 0 11 1 20 4 29 3-10 2-28 4-39"/><path fill="#ACD4DA" d="M497 327c-28 21-2 14 18 4-6-4-14 0-19-3"/><path fill="#A4B2B3" d="M408 418c-3 2-6 2-8 6-4 2-6 8-12 10 5-1 9-5 13-10 1 4-2 7-4 10h-3l-1 1v2l-3-1c-3 5-13 10-21 9-1 2 4 2 6 0-2 4-4 5-7 6 3-1 5-2 8-3 6-4 10-8 14-11 2 3 1 6-1 8-5 4-10 4-13 7 5-2 11-3 16-6 8-25 22-7 14-27-2 0-1 4 0 0"/><path fill="#DCECEB" d="M372 150c8 8 4 24 31 39-2-11-14-10-18-21 1-8-11-15-7-18-1-1-2-1-3-1"/><path fill="#712B3F" d="M413 201c1 3 3 6 3 9 19 7 20 15 37 20-13-10-25-20-38-28"/><path fill="#12202F" d="M383 427c-13 5-25 14-40 15-15 4-29 5-43 6 12 5 23-1 37-2 18-7 36-6 47-19"/><path fill="#DEE8E4" d="M404 383c-3 7-9 14-13 20-6 9-19 18-28 26 10-3 19-10 28-17 7-14 8-18 12-27"/><path fill="#3A4559" d="M201 443c6 8 15 10 26 8-40 2-25 4 8 5 1-2 2-3 5-2-2 0-4-1-5 0 0-4 3-4-2-8-11 0-22 2-30-2"/><path fill="#D5F8FB" d="M378 230c3 4 1 11 2 16 6 5 11 8 17 10-5-9-10-17-17-25"/><path fill="#586C84" d="M90 355c22 19 33 34 56 45-17-19-38-30-52-43"/><path fill="#A8B3B3" d="M358 413c-14 3-24 13-35 8 9 0 47 13 33-9"/><path fill="#D3F1F5" d="M170 151c-4 11-7 24-6 38 0-5 0-11 1-16 10-2 13-13 14-14-1-2-10-1-10-6"/><path fill="#343845" d="M217 392c17 11 32 15 45 20 3 2 1 5-5 6 15-4 30-6 43-11-9 0-14-3-27-8 7 2 11 9 18 8-4 5-10 5-12 5-23-3-42-10-60-19"/><path fill="#929FA3" d="M442 439c-8 2-13 3-21 10-1-2-1-4-2-7-1 6 3 10 0 14 7 1 17-10 22-16"/><path fill="#C6D7D9" d="M184 329c9 4 22 10 34 9 0-2-2-4-3-5-11-2-20-4-30-3"/><path fill="#8E959A" d="M386 403c-2 5-6 8-9 12-6-2-11-2-15-5-8 3-1 7-2 12 3 1 8-1 10-2 1-2 3-2 5-3 4-4 11-8 11-12"/><path fill="#597083" d="M368 340v1c0 6 7 10 5 15 0 3 3 1 5 1-3-4-5-7-6-11 5-1 9 0 13 1 5-13-9-2-14-9"/><path fill="#E2E8E1" d="M334 410c-6 4-10 6-18 9 11 2 50-6 19-9"/><path fill="#697281" d="M203 310c3 7 9 13 16 17-2 3-4 2-5 3 4 1 9 0 14-1-8-16-11-4-24-19"/><path fill="#69889B" d="M367 333c-11-5 10 28-2 21 9-3-1-10 2-16 8 5 20-2 22 4-1-1 0-3-1-5-8-3-13-5-20-5"/><path fill="#5A677B" d="M150 364c4 7 11 14 17 20 7 6 12 5 19 6-12-9-29-18-34-23"/><path fill="#758293" d="M140 178c-4 18-6 39-3 59-2-12 2-23 1-36 5 2 2 8 5 12 2-13-2-21-4-34"/><path fill="#2F3B52" d="M179 419c8 5 18 15 29 18-5 1-10-1-16-2-9-7-7-7-14-12"/><path fill="#B5C4C5" d="M397 418c-17 21-6 3-28 25 7-3 12-4 17-6 4 0 4-2 5-2 20-19 11-9-3 2 4-6 7-11 12-16-5 2-2-3-2-2"/><path fill="#BACBCF" d="M238 381c5 2 15 10 29 13-2-2 0-3 1-5-9-5-19-6-30-8"/><path fill="#7F8990" d="M418 411c-7 5 0 22-13 29-9 3-19 13-24 11 13 1 18-3 28-8 1-13 8-21 10-30"/><path fill="#9BAEB9" d="M140 164c-6 9-9 21-7 35-1-12 4-20 7-30 0 8 7 10 5 19 2-8 2-15 2-19-2-4-4-4-6-5"/><path fill="#5E6C80" d="M353 162c-3 12-12 11-14 21 1 4-1 5-1 6-1 11 3 17 7 24 4-7 8 6 8-10 0 4 0 6-1 8-8-8-13-15-13-25 6-5 12-20 15-21"/><path fill="#738395" d="M140 256c0 6 1 16 1 23-4-1-6-3-9-6 7 7 10 11 15 16 4-12-3-15-6-32"/><path fill="#90B1BE" d="M354 173c-2 10 3 16 8 22 6 8 14 13 22 16-6-3-11-10-22-18-3-8-6-13-7-19"/><path fill="#7E8189" d="M331 388c9 4 7 20 16 19 12 2 21 5 28 6 4-2 6-4 8-7-10 0-22 6-34 2-10-4-9-16-15-19"/><path fill="#2A374E" d="M155 372c10 22 49 40 48 46 4 1 9 1 14 1-13-6-24-12-35-19-10-8-18-18-27-25"/><path fill="#8999A7" d="M141 169c-2 2-1 5-3 7-7 16-4 33-3 48-2-16 1-31 4-45 3 3 3 14 4 18 4-13-1-18-3-26"/><path fill="#575B68" d="M231 368c-26 8 7 7 15 9-9-3 1-6-11-7l-2-2h-1v1"/><path fill="#C7DADB" d="M367 151c8 4 4 9 8 16 11 10 18 22 30 25-15-2-34-35-31-39"/><path fill="#5C6779" d="M245 420c11 6 24 9 36 13 5 0 5-2 7-4-14-2-30-4-41-8"/><path fill="#A0D4E0" d="M317 317c0 2 2 4 3 5 8-1 19 0 27-2-7-4-19-2-28-3"/><path fill="#3F5471" d="M463 398c1 4-2 8 4 6 9-2 15 8 14 6 8-3 14-5 20-7-10 1-22 0-33 1 1-3-5 1-4-4"/><path fill="#CBDCD6" d="M334 334c8 7 4 15 16 21-2-5-3-9-7-12 3-6 13 2 13 4-5-7-11-11-18-13"/><path fill="#9FBAC7" d="M138 166c-5 5-5 12-7 17-2 12 0 22 1 30-2 7-6 1-6 0 4 9 6 20 10 29-3-18-4-37-5-56 1-8 3-14 6-18"/><path fill="#A7B2B1" d="m327 388 6 3c-3 3-7 3-9 4 2 6 5 9 10 13 5-2 1-11-1-14-1-2-3-5-4-5"/><path fill="#C5DEE6" d="M220 183c-8 12-6 16-11 34 1-3 5-6 7-6 2-9 1-20 4-28"/><path fill="#7F9FAA" d="M353 328c14 13 9 23 12 24 3-6-1-11-4-17 10 3 2-9 17-2-12-7-17-1-21-3"/><path fill="#9FCFE0" d="M194 166c-7 4-11 7-17 12 0 7-2 10-1 15 3-10 11-18 17-25"/><path fill="#132D41" d="M264 450c2-2 6 0 8-1 2 4 2 7 3 10-6 0-12 0-11-7"/><path fill="#535563" d="M284 415c-38 0 26 7 33 7-9-1-19-6-32-7"/><path fill="#7E858F" d="M260 418c-13 8 47 3 59 7-19 0-39-5-59-7"/><path fill="#4B5E71" d="M373 345c1 4 2 7 5 9 2 4-1 4-2 5 1-1 2-1 4 0 4-5 6-8 8-11-6 0-9-2-12-3"/><path fill="#8C989B" d="M412 416c-3 2-5 2-6 6 1 1 3-5 6-2-2 10-10 18-17 25 2 0 11-3 14-10 2-7 8-15 4-19"/><path fill="#738597" d="M354 159c-4 10-15 14-18 20-3 11-1 22 5 30-6-9-4-19-2-28 8-5 8-15 17-21"/><path fill="#BDE1EA" d="M176 136c-2 4-5 8-6 13s2 7 6 6c4 0 4-4 6-5-3-3-6-3-8-2 0-5-1-8 1-10"/><path fill="#96AEB5" d="M344 335c9 1 12 14 21 13-3-4-4-9-9-12-4-1-6 2-9 0"/><path fill="#C0D3D5" d="M202 290c6 4 7 11 12 15-1-2-1-3 1-4 1 0 10-2 12 3-4-4-21-14-22-13"/><path fill="#8D959D" d="M266 424c15 4 34 3 53 1-16 1-33-3-52 0"/><path fill="#9BACB3" d="M115 266c3 14 12 19 20 26-8-8-11-17-17-26"/><path fill="#3E485D" d="M244 419c-18 13-21 9 21 7-11 0-17-2-23-5"/><path fill="#374359" d="M196 422c9 9 36 21 31 13-7-6-20-4-30-13"/><path fill="#646674" d="M215 373c-4 4 7 6 11 8 6-1 2-5 12-3-8-1-16-1-21-6"/><path fill="#929DA2" d="M330 434c-10 2-17 3-26 10 11 0 24-7 27-11"/><path fill="#A5B0B1" d="M305 361c-5 5-9 11-3 17 2 1 7-1 10 1-2-1-5-1-6-4-3-6 1-9-2-12"/><path fill="#6B6D75" d="M338 393c0 4 7 7 5 11 7 4 15 6 24 3-11 0-18-3-28-14"/><path fill="#495870" d="M352 169c-6 2-5 17-11 14-1 14 1 12 1 23-3-13 7-21 9-35"/><path fill="#C1D1D5" d="M111 251c9 12 13 29 27 40-7-14-18-25-25-39"/><path fill="#88939C" d="M341 435c-10 3-18 7-27 10 8 1 16-2 23-3-1-2 4-4 1-6"/><path fill="#303C54" d="M179 421c4 9 19 16 33 17-12-3-22-9-31-17"/><path fill="#A1B1B5" d="M208 376c-17 5 21 6 26 9-7-2-16-4-23-10"/><path fill="#769CB5" d="M100 324c12 6 6 21 20 24-3-5-5-9-9-11 2-3 10 3 6 0-5-4-10-8-15-11"/><path fill="#939B9E" d="M292 348c22 6 5 29 24 33-7-11-9-24-20-33"/><path fill="#CDDCDE" d="M214 350c-14 1 11 8 18 2-5-3-11 0-15-3"/><path fill="#153045" d="M266 450c-5 5 4 8 1 10 4 3-1-5 6 0v-9c-2 0-4-1-5 0"/><path fill="#8E9A9E" d="M390 439c-3-1-10 10-25 14 4 1 9-4 13-1-2-5 15-3 12-13"/><path fill="#1D3548" d="M311 436c-7 3-20 5-23 6 15 2 14 0 21-4"/><path fill="#B4C9CA" d="M326 330c4 2 7 11 13 15 3-2-3-6-5-10 4-3 8 1 11 2-5-3-10-8-18-6"/><path fill="#D0EFF3" d="M368 300c-2 7-6 13-12 17 4-3 20-9 15-15"/><path fill="#C5D4D3" d="M214 104c-13 0-22 3-35 7 18 0 15 1 35-8"/><path fill="#7589A0" d="M413 205c-8 1-16 1-24 4 9 1 19 0 25-3"/><path fill="#AEC5D0" d="M138 160c-8 8-7 16-8 28-1-11 6-19 10-27"/><path fill="#6787A2" d="M111 336c16 9 1 18 18 18-11-6-6-15-16-18"/><path fill="#E9F4E9" d="M361 357c4-2 8 4 12 4-5 3-13 2-13-1"/><path fill="#D3E1DD" d="M323 367c4 2 7 7 10 9 4 8-5 4-1 10 4-3 8-1 13-3l-9-6c-5-4-8-5-10-9"/><path fill="#B1BDC1" d="M218 181c-5 8-12 21-11 27 5-6 6-18 10-25"/><path fill="#435974" d="M105 365c12 12 30 18 38 32-8-14-22-23-35-29"/><path fill="#1B3547" d="M373 436c-14 4-28 10-42 12 9-2 30-5 42-11"/><path fill="#5B677B" d="M192 418c7 4 19 9 26 1-8 2-16 1-25-1"/><path fill="#415774" d="M474 415c-7 2 12 9 15 2-5-2-12 1-16 0"/><path fill="#A0ABAE" d="M348 430c-13 3-19 4-26 11 9-4 17-6 25-11"/><path fill="#A9CEDD" d="M176 229c3 10 12 22 17 31-8-10-8-22-17-30"/><path fill="#B6C3C5" d="M366 447c-3 2-6 5-9 7 6-1 28-10 10-6"/><path fill="#33475D" d="M102 369c5 7 8 15 15 13-5-3-9-9-13-13"/><path fill="#B5C5C7" d="M238 289c1 8 5 12 13 14l-12-12"/><path fill="#555B69" d="M419 427c-5 3-4 8-6 13 6-1 6-6 5-12"/><path fill="#717A88" d="M246 429c-6 1-11 2-16 3 25 4 5 0 23-4"/><path fill="#D5E4DF" d="M335 386c5-1 9 5 15 4-4 4-9 0-12-2"/><path fill="#F3F7F7" d="M106 319c1 2 0 3-2 4 4 5 7 7 11 10-3-3-5-8-7-12"/><path fill="#56708A" d="M119 343c15 12 0 14 22 25-11-8-12-17-20-25"/></svg>