<svg xmlns="http://www.w3.org/2000/svg" width="600" height="600"><path fill="#8C634C" d="M244 102c5 0 14-2 20 1 9 4 16 11 17 19 20-6 47 3 62-11 0 5 0 10 4 11 10 1 20 7 27 8 1-6 3-10 5-14 4-3 7-6 11-5 11-2 19 0 25 7 6 6 6 13 5 21-2 9-9 13-15 14 9 13 14 26 17 39 4 13 5 25 7 36 1 1 5-4 6 1-6 14-4 24-2 37-5 1-6-1-6-3-4 12-10 22-16 31 13 18 17 31 23 47 13 25 9 49 18 73 2 30-9 50-13 72-24 1-44 2-67-2-9-4-12-14-16-21 1-4 3-4 5-5-12 4-21 11-32 9-1 8-2 21-10 27-29 2-55 1-80-3-2-5-5-9-10-16 0 3 5 6 6 10-7 3-11 0-6-4-4-1-1 6-7 4-14 1-27 1-41-1-11-9-12-11-18-22-10-19-16-37-16-57 5 0 8 4 13 6 1-13 0-27 2-39-7-4-11-10-17-16 8-2 13 0 19 1 4-9-8-11-10-15 4-4 8-5 13-4-3-8-4-15-5-21 6-4 9 1 13 3 10-16 17-30 26-43 2-24 9-46 6-67-2 1-5 1-6 0 7-24 26-40 35-61-7-4-11-14-11-23 2-12 9-20 18-24"/><path fill="#653729" d="M213 206c-3 26-9 54-9 82-9 9 4 19 10-5 10 20-11 36-7 41 3 0 3 0 1 4-4-12 9-8 7-18 3 4 2 7 3 11 3-3 6-6 9-8 3 2 5 2 5 4 2-18-9-19-4-49 3 11 2 21 3 30 8-8 5-3 8-10 7 0 4 4 7 9 5-2 6-5 7-9 0 12-8 19-15 25 5-2 10-4 14-7 10 16 8 20 15 32 3 5 10-1 10 1 0-9-2-20 0-30-2 49 12-7 8 30 6-8 15-15 20-22 4 1 18-11 27-9 12-3 21 1 30 2 8 1 13 7 17 10-1-5-1-9-3-14 5-5 8-9 12-12 4 6 8 8 8 14 9-12 18-22 23-33-9 1-10 10-15 15-1-3 5-10 3-11-22 2-36 17-58 14-33-6-63-17-95-22 1 4 2 9 1 16-5-25-20-46-22-74-5-5-11-7-17-7"/><path fill="#3D211E" d="M215 408c-3 1-6 6-7 6-6 16-10 8-10 17-8-5-13-12-17-18-8 6-1 18-5 27-5-3-9-3-13-4-20-40-15-17-5 14 5 11 11 21 22 30 9 4 19 4 28 3-5-7-5-16-4-23-11-13-20-26-25-41l15 24c9 9 16 17 26 22 1-1-6-8-2-8 9 11 14 21 23 31h-3l-2-2 3 3h2c15 3 33 4 49 4-10-5-11-8-15-14 1 1 4 4-1 4-6-2-11-4-15-6-8-9-13-16-16-25 6 2 14 4 23 2 3 5 3 9 4 13 0-5-3-11-1-17-2 1 1 4-2 4-6-4-16-5-22-10-13-7-25-16-33-28 14 12 32 28 53 32-6-6-18-7-25-15-9-8-17-14-20-22-4-4 2-3 3-3-2-1-4-1-7-1"/><path fill="#DCA06E" d="M341 116c-7 2-13 6-20 8-9-5-31 2-36 2-7 12-26 10-25 26 17 8 34 16 51 25 0-4 3-10 7-13 7-5 13-8 19-8 13 0 23 2 31 7 9 4 17 12 18 19 42-11 7-40-10-47-10-2-20-7-31-8-5 3-11 4-17 5 1 3 2 4 3 5-8-9-23-2-30-8 9 0 23 3 35-2 9-5-3 1-4 0 3-5 6-6 8-10"/><path fill="#ECE1C7" d="M342 323c-25-1-42 19-40 44-4 8 2 9 6 14 12 6 27 8 40 7-2-3-4-5-6-7 3 0 5 2 7 4 1-9 0-16 1-26 4 9 1 22 4 28 9 1 14 0 18-2 8-2 12-8 15-12-2-20-9-35-21-49-8-4-16-2-22-3"/><path fill="#E6D4B8" d="M343 196c-5 2-11 2-15 5-14 16-23 35-23 56 8 4 15 8 23 9 11-12 23-18 33-25 0-11-18-14-16-27 0-5 0-8 4-9 6-4 11-4 17-3 6 0 9 3 12 5 2 6 2 10 1 14 1 12-15 11-14 19 9 7 18 14 23 22 5 0 12-1 10-8 0-14-4-28-9-40-6-12-16-17-26-18h-18"/><path fill="#C98655" d="M250 308c-15 17-21 6-31 14-10-11-7 38-2 47 7 6 13 9 18 13 14-3 25 10 40 3-2-6-3-12-6-17-2-2-3-2-4-1-2 3 1 6-1 10-4-15-6-27-7-40 4 4 3 16 6 24 1 4 6 3 4-1-5-17-10-39-12-48l-2-3h-1v1"/><path fill="#B37047" d="M250 156c-9 6-18 12-26 20-5 8-6 15-8 22 4 8 13 6 16 14 5-5 13-25 16-30 3 10-11 17-9 33-1 0-2-1-3-2 1 18 6 31 10 46 6 0 11 14 21 12 17 2 14 5 37 6-2-4-3-6-3-8-5 3-12 3-17 1-6-5-11-14-7-21-9-11 6 11-17-7 5-1 7 2 9-2-10-15-13-24-16-40 2-33-3-20 1-46"/><path fill="#9B603E" d="M326 408c-8 1-7 10-13 18-8 0-9-9-12-10-4 1-8 7-13 3 2 6 2 13 0 18-3 9-9 16-16 18-2 8 0 14 2 20 31 6 31-13 51-8 6-21 7-42 1-58"/><path fill="#A36541" d="M429 406c-2 2-3 4-6 5-6 0-10-1-16 0-7 11-5 9-8 23-1 6-2 12 0 17 7 7 15 9 22 11 9 1 16 0 21-3 7-19 7-29 8-46-5-6-6 3-13 5-8-3-3-14-7-10"/><path fill="#643A2C" d="M186 329c-2 12-5 4-9 8 1 2 9-2 8 5-14-7-12 5-25 0 3 1 7 2 8 5 0 5-2 9-1 12-7-1-10 1-15-2 6 4 10 8 14 14-6 14-3 32-4 47-4-6-10-9-12-9 6 12 12 23 22 28 7-28-8-62 6-92-3 16-4 38 0 56 4 11 9 19 16 27 4-30-9-54-10-82 2 7 8 6 16 11 4 4 7 8 11 9-4-1-7-5-10-7 3-8 2-14 3-19-2-1-4 2-5 2 6 1 2 8 2 9-7-8-10-2-17-20"/><path fill="#EFDFC7" d="M340 159c-4 1-8 0-11 3-27 9-9 23-2 36 3-2 6-4 10-5 17-1 32-2 43 6 0-6 2-12 5-16-7-13-18-19-28-22-6-2-12-1-15-3"/><path fill="#C76B3C" d="M264 160c5 5 9 9 14 15 14 10 27 18 42 23-14 8-6 29-23 31-7 0-13-3-15-9-3-6-3-14-2-18-8-1-17-7-24-4 4 18 11 33 19 47 3-3 6-10 13-11s11 1 14 6c3-17 16-29 21-43-4-9-10-13-14-18-15-8-28-17-43-19"/><path fill="#B16F45" d="M221 377c7 16 13 27 31 45 3-2-4-6 2-8 1 4 4 7 6 8 0 5-1 2-2 3 3 4 3 5 7 3 0 1-2 0-3 1 6-2 5-7 8-9-4-2-4-8-2-12 4-6 9-5 13-7 0-7-8-7-3-11-22-3-43-8-56-13"/><path fill="#71402E" d="M202 280c-8 11-14 23-21 34v3l-1 1-2 2c1 1 6-1 5 3-5-3-4 4-5 9-3-1-6 1-7-3 0 12 12 11 13 13 0-4-4-1-4-5 3 0 4-2 3-12 3-7-4-3 2-9-1 0-2 0-3 1 8-1-1-9 8-15-1 11-3 23-4 32 4 10 5 8 8 12 5-5 1 6 5-4 1 6 1 14-2 12 2-2 5-5 4-9 0-3-2-2-3-3 7-2 2 0 6-5 0 8 0 14-2 21 5 6 11 8 13 12-6-11-2-39-7-43-2-16 2-18 5-36-4 8-7 8-11 11-4-5 2-14-1-20"/><path fill="#C98555" d="M412 313c-8 7-9 16-6 25 3 11 5 20 9 28l1 3v-4c2 11 6-1 11 4 5-1 8-3 12-5-3-22-16-33-27-49"/><path fill="#532E25" d="M188 351c1 14 3 28 9 40 2 13-3 21-3 29 1-4 1-8 4-12 0 8-2 15 1 20-4-9-2 5-10-5l7 7 2 1v-2c1-14 4 1 6-15 4 0 7-6 12-8-2-12-9-22-6-28 4 1 8 2 17 20l1 1-2-3c-2-5-9-17-11-24-14-10-12-16-27-19"/><path fill="#391E1C" d="M385 418c-10 0-9 21-25 37 4-2 8-5 11-8-3 7-7 12-12 14 3 8 6 15 11 21 12 1 21 3 31 3-12-12-21-25-25-39 0-12 2-21 8-28"/><path fill="#5F4E47" d="M376 421c-9 3-19 6-28 9-3 12-9 23-16 33 6 1 12 0 18-2 14-13 21-26 26-40"/><path fill="#5C3529" d="M213 375c-7 12 3 14 3 29 6 5 12 0 14 1-1 5-5 3-8 4 9 17 24 30 42 33-17-18-42-42-48-66"/><path fill="#624C43" d="M384 274c-9 6-45 2-76 4 15 12 34 11 52 12 11-1 35-12 28-18"/><path fill="#B7A186" d="M391 387c-11 11-26 15-39 21-1 9-1 12-3 19 11-2 17-4 26-7 4-13 18-19 15-31"/><path fill="#D5C0A3" d="M294 369c-2 5-3 9-4 13 9 3 16 4 23 8 6 5 12 10 15 15 9 3 14-1 21 0 0-6 1-12 0-16-12 1-22-1-30-2-10-4-19-10-23-16"/><path fill="#291F27" d="M290 194c-8 5-10 16-7 23s9 10 16 9c4-2 8-4 8-7 0-10 0-13-1-18 4-3 5 0 8 0-8-5-12-3-23-6"/><path fill="#DEA26E" d="M261 158c-4 12-9 26-6 38 8-2 12-7 20-6 9-2 17-2 23 1-13-9-26-17-36-31"/><path fill="#130A15" d="M363 242c-1 3 2 4 1 6-8 9-10-1-14 3-5 5-13 6-18 15 15-7 21 1 18-6 13 4 16 8 22 11 33-2-7-24-8-25"/><path fill="#D08D5B" d="M289 237c-3 0-6 4-9 7-2 11 0 22 8 23 5 1 9 1 11-1 1-11 2-16 4-23-4-4-8-8-13-6"/><path fill="#180D13" d="M175 399c2 10 4 19 9 28 5 14 13 24 20 34-1 8 2 16 5 21-4 3-9 2-13 2 12 1 33 3 33-5 7 6 2 8-2 6 5 1 8 0 5-4 4 3 6 5 7 8-3 0-4-3 0 2 5-2 9 1 15 0-5 1-9 0-13-1-3-4-5-6-6-9-7-9-11-16-18-23 1 3 6 6 5 10-12-8-20-15-27-23-11-15-17-29-19-45"/><path fill="#774632" d="M329 464c-4 4-12 4-17 7-4-1-3-4-4-5 2 6-4 8-9 9-10 5-20-1-25-1 5 6 10 17 19 17 2-4 3-7 6-8 11 8 13-6 24-5 3-3 3-8 5-12"/><path fill="#D3BFA3" d="M390 370c-4 5-9 13-15 16-8 2-16 4-22 1-1 7 2 13 0 19-2 8-2 15-5 20 3-5 3-12 4-19 14-6 27-11 38-20 0-7 1-12-1-15"/><path fill="#B47249" d="M282 388c1 5 4 10 4 16 3-2 7-4 10-2 5 4 5 8 4 12 3-2 4-8 9-9 7-2 8 9 14 2-4-7-9-12-15-14-9-3-16-4-24-5"/><path fill="#4F2B24" d="M329 308c2 4-10 4-12 7-13 8-23 19-31 28-2-1-6-3-4-5-5 2-6 3-15 3 1 4 3 10 5 14 15-14 51-34 63-46"/><path fill="#60382A" d="M377 434c1 5 0 10 2 14 5 14 12 26 22 35 5-10-6-17-4-27-6-8-15-14-19-20"/><path fill="#794733" d="M398 454c2 6 3 13 7 19 14-3 21 4 34-3 2-2 3-5 4-8-6 1-13 2-20 1-9-2-16-4-22-8"/><path fill="#B17047" d="M312 331c-13 6-25 15-34 26 4 5 5 10 11 13 5-13 13-25 21-37"/><path fill="#77432E" d="M389 294c-3 5-12 8-12 14 2 8 2 14 6 19 4 2 5 0 7 2 5-1 5-10 1-35"/><path fill="#C4693A" d="M415 199c-15 3 2 25-15 29 1 6 10 5 11 12 6-12 8-28 5-41"/><path fill="#33292E" d="M411 195c-16 6-18-2-20 7-5 9 2 14 4 23 2 3 2 5 3 6-1-1-1-3-2-5 4 1 8-2 9-5 0-10 2-16-2-23 2-2 5 0 7-2"/><path fill="#A46642" d="M429 237c-7-2-9 5-16 8 2 5 1 0 5 6-4 4-1 18-6 23 4 0 8-1 9-3 5-12 7-27 8-35"/><path fill="#423134" d="M254 119c-10 1-9 15 2 19 4 3 8-2 12-4 1-5 1-10-4-12-4-3-6-3-8-4"/><path fill="#B49D83" d="M343 406c-4 1-9 2-14 1 4 8 3 16 6 22 5 1 6-1 9 0 1-8 10-24 1-24"/><path fill="#3F211D" d="M400 312c-8 16 0 14-7 26 5-8 8-2 7-10-6 15 12 33 8 56 5-1 11-1 15 0-2 0-6 0-4-4 2-2-1-6 2-10-1 1-1 3-2 5-7-7-8-15-12-20-2-9-4-16-4-24-2-7 3-12-2-17"/><path fill="#60382B" d="M247 453c-3 5 5 13 8 17 13 3 9 10 19 10-5-7-7-15-7-23-6 0-13-1-18-2"/><path fill="#B8764D" d="M434 388c-3 2-7 0-10 1-5 1-7 5-10 3-8 10-10 20-13 31 0-6 4-10 4-12 5-1 9-3 12-1-5-6-1-16 5-19 3-2 6 0 8 3 1 6 0 9-1 11 5 0 6-6 11-6 11 23 9 5-2-7-2 0-2-3-5-2"/><path fill="#CEB698" d="M305 258c-1 7 1 12 2 17 10-1 20-1 28-4-5-7-19-4-28-12"/><path fill="#B3724A" d="M374 328c8 13 14 25 18 39 7-4 11-11 6-17-6 2-12-18-23-20"/><path fill="#CC8B5C" d="M400 235c3 8 6 20 0 28 4 2 6 4 8 5 6-6 5-16 3-21-2-6-4-11-9-12"/><path fill="#7F4C35" d="M385 417c-2 6-7 11-7 17 5 8 13 12 17 18 0-8-1-16 1-23-2 1-4 1-6 2-5-3-5-7-4-12"/><path fill="#CB6E3D" d="M402 173c-5 3-10 5-14 11-3 6-4 10-3 15 5-5 10-6 15-8 4-7 4-13 3-19"/><path fill="#3F3739" d="M361 207c-6 0-18 3-10 8 4-1 7-2 10-1 4 7-2 11-5 12 1 2 5 2 6 5 4 0 6-2 7-3-4-3-7-10-3-14 12-2 7 11 7 12 3-6 5-11 1-15-5-4-7-1-12-4"/><path fill="#413132" d="M399 123c-6 4-6 3-8 8-5 11 10 12 7 17-3-5 7-5 9-14 0-8 0-8-7-11"/><path fill="#92593D" d="M401 359c-2 4-5 7-9 10 1 8 3 16 1 23 3-2 6-3 10-5 2-16 0-16-2-26"/><path fill="#6D5A4D" d="M343 312c-10 1-19 5-25 14 11-12 71 1 24-16"/><path fill="#A46643" d="M392 404c1 9-9 8-4 27 12-4 9-15 13-20-4-1-7-3-7-7"/><path fill="#975D3E" d="M275 358c-4 7 4 15 4 22 1 3 5 2 6 4 3-5 3-8 5-11-6-5-8-9-12-14"/><path fill="#653628" d="M229 121c0 7-1 14 3 18 4 7 9 10 15 8-12 0-6-21-16-24"/><path fill="#B3724A" d="M418 196c7 14 2 36-4 49 4-6 9-8 12-15-1-16-4-26-5-34"/><path fill="#4E2B23" d="M333 308c9-2 20 5 25 6 10 9 17 12 25 18-4-7-10-14-18-19-12-2-15-7-30-5"/><path fill="#C9895D" d="M406 116c-3 2-7 0-9 1-7 1-10 7-11 12 6 2 6-9 12-6 7-1 11 2 12 6 4-6 10-6-5-13"/><path fill="#A26542" d="M399 268c0 4-5 7-9 13 8 0 12-2 17-4 10-13-4-7-4-9"/><path fill="#60382E" d="M416 131c-6 3-9 12-17 18 10 2 13-2 17-5 2-5 4-9 2-12"/><path fill="#8F573C" d="M239 128c0 7 4 14 10 18 5 0 8-4 10-3-10 1-13-15-17-15"/><path fill="#160B0E" d="M212 413c4 11 20 23 31 30 8 3 15 8 23 6 4 1 0 2 2 4 1-5 5-4 6-6-1 1-2 2-4 2-2-3-2-5-3-8 1 3 1 5 0 6-8 1-14-2-19-5-15-7-24-16-34-27"/><path fill="#AE8C71" d="M291 149c3-1 7-1 8 1 3 5 2 8 0 11-6 1-8 0-9-3s-2-5-1-7"/><path fill="#AB6F4A" d="M225 329c5 5 3 17 7 24 4 2 6 3 11 4-6 2-8 0-11 0-4-3-3-5-5-7-3 1-6 3-8 5 2-5 4-6 7-8 0-7-1-11-2-14"/><path fill="#723F2D" d="M240 288c-2 7-4 14-5 21 4-1 12-8 12-12 1 3-4-4-5-9"/><path fill="#613528" d="M239 152c-5 6-11 13-15 23 8-13 35-23 16-22"/><path fill="#A9998B" d="M320 231c3-2 7 1 8 3 1 6-3 7-4 10-5-1-7-3-7-6s1-4 1-6"/><path fill="#AE6F46" d="M439 365c-3 7-11 1-10 14 5 1 7-1 10-1 4-4 0-8 1-11"/><path fill="#5C4B45" d="M333 427c1 10 2 17 0 27 2-9 21-30 1-23"/><path fill="#CD8F5F" d="M254 110c5 2-1 3-2 2-6 1-12 7-12 12 3-9 25-9 21-9 12 6 13 1 1-5-3 4-4 0-6 2"/><path fill="#61392C" d="M282 417c-1 2-5 4-8 3-2 4 9 7 7 14-3 8-14 1-11 10 4-3 11 1 11-9l1-1 1-1-1-1c1-4 1-9 0-14"/><path fill="#817D7F" d="M293 202c4 0 0 13 6 17-7 1-10-3-10-6-1-5 1-7 2-9"/><path fill="#DFA878" d="M406 175c1 7-1 14-6 18 5 0 11-2 14 3 0-7-3-13-6-20"/><path fill="#4B2922" d="M410 296c-5 6-11 12-14 19 1-1 3-1 2-3 4 2 5 4 6 6 2-7 6-12 6-19"/><path fill="#C58052" d="M405 396c-3 2-9-1-10 4 2 4 4 6 7 7 1-4 8-11 5-12"/><path fill="#C48255" d="M409 167c-6 8 11 18 8 29 4-5-3-19-5-26"/><path fill="#241920" d="m218 477 1-1c3-1 4 1 5 3 2 9-21 7-8-2"/><path fill="#AC9D8C" d="M389 231c5-2 9 7 4 11-5 1-6-2-7-4-1-4 1-4 1-6"/><path fill="#807A7E" d="M395 205c6-2 0 11 6 14-5 2-8-1-8-3 0-4 0-6-1-9"/><path fill="#C66D3E" d="M240 110c-5 2-9 5-9 11 2 0 3 2 4 2 3-7 10-16 7-12"/><path fill="#7F4A34" d="M441 380c-6 1-13 3-17 2 9-3 24 18 17-3"/><path fill="#683A2C" d="M217 186c-5 7-6 4-11 14-1 7 4 2 3 12 1-10 6-21 7-25"/><path fill="#B8A089" d="M336 273c-25 2 32 4 38 1-6-1-23 3-34-2"/><path fill="#F2DBC0" d="M255 104c-29 4 2-1 9 5 6 3 11 7 13 11-1-5-7-10-11-14-5-2-9-2-11-3"/><path fill="#D59766" d="M270 113c-15 3-1 0 3 19-1-6 3-9 2-12-1-8-8 2-6-7"/><path fill="#291D24" d="M219 477c-3 1-4 3-6 5 7 4 18 0 7-6"/><path fill="#C9B296" d="M397 262c-9 0-11 11-21 11 5 1 12-2 16-4 3-2 4-4 5-6"/><path fill="#B16E49" d="M168 318c1 5 2 10 7 12 1-2 3-3 2-5-2-2-5-3-7-5"/><path fill="#180C0E" d="M369 440c-4 6-8 13-14 19 2 0 3-3 5-3 0 5-2 2-3 4 4 10 7 20 14 23-6-6-10-13-14-20 6-5 11-9 14-15-4 3-7 7-11 9 3-6 6-11 9-15"/><path fill="#AC9279" d="M272 406c-1 2-2 5-1 8 2 2 4 0 6 1 1-4 0-6-2-9"/><path fill="#8C5539" d="M424 445c6 6 1 10 0 15-1-3-2-9 0-11"/><path fill="#E0AD82" d="M415 387c-5 6-14 4-16 9 8 1 18-5 17-8"/><path fill="#552C23" d="M267 193c0 2 16 9 19 2-14 1-6-2-15-1"/><path fill="#0D060D" d="M205 457c5 0 9 8 14 9-5 2-8-4-14-6"/><path fill="#4F413C" d="M364 426c4 3-3 13-3 17-2-5 1-9 2-14"/><path fill="#4D2F28" d="M404 474c2 3-2 6 0 9 3 2 4 0 7 1 1-7-3-5-7-7"/><path fill="#9B8370" d="M291 405c-3 1-4 3-3 6 4-2 5-2 8 0 2-3-1-8-3-5"/><path fill="#C76F41" d="M383 118c-2 2-3 4-4 7 5 3 12-9 6-8"/><path fill="#A45950" d="M347 265c-7 13 11-2 15 3-4-2-8-3-13-2"/><path fill="#593329" d="M415 133c5 3-4 13-8 16 3-4 5-9 7-14"/><path fill="#CC8E5F" d="M365 152c6 0 10 9 13 13-5-3-8-7-10-11"/><path fill="#463030" d="M419 400c-1 4 0 7 1 10 4-2 4-4 5-6-1-3-5-3-6-2"/><path fill="#130F16" d="m353 217-1 2c0 2 5 1 3 5 9-4 6-10-2-5"/><path fill="#EEEDED" d="M293 205c-4 3-3 13 2 14-1-5-3-9-1-12"/><path fill="#381E1B" d="M149 355c-2 5 12 12 15 18-4-8-12-14-15-17"/><path fill="#180E0C" d="M331 423c3 14 0 29-1 43-3 6-3 11-5 16l-1 2-2-3c-1-1-3 0-4-1 1 1 3 0 4 1 2 6-2 7-2 10 6-6 7-16 9-24 3-12 12-20 14-30l1-2-1 2c-3 7-6 14-10 21 0-12 0-24-2-33"/><path fill="#100C12" d="m367 218-2 1c0 3 3 2 3 6-2-7 13 0 0-12"/></svg>