<svg xmlns="http://www.w3.org/2000/svg" width="600" height="600"><path fill="#555251" d="m341 110 2-1c15-1 30 0 44-1 14 5 27 7 38 13 13 9 25 20 33 29 21 2 61 26 23 28 0 3 0-1-2-1 2 3 8 6 8 10-5-1-9-1-12-2 4 17 3 37 2 53-8 12-20 33-36 47 7 13 7 27 6 39-3 18-10 32-17 46-10 5-24 19-38 22-21 4-36 14-55 18 8 16 24 24 35 33 17 10 36 2 48 18 6 4 5 9 8 13-20 4-41-6-61-3-2 3 0 7-2 10-4-7-9-10-13-13 1 2 2 5 3 7-26 7-41-9-66-4-5 9-7 10-11 19-8-5-8-14-12-18-18-2-34 0-49-3 2-7 3-11 7-15 11-7 25-3 31-12 1-7 0-6-3-6-12 9-26 12-40 15 5-6 7-15 10-22-12 14-27 29-44 37-11 1-22 1-32 1 12-9 22-17 32-28 15-14 23-29 32-43-2 2-3 6-7 7 1-9 2-16 5-22-3 2-4 7-7 9-1-13 2-23 4-34-6 5-13 9-19 13l-2 1-3-2c7-3 13-7 19-10l2-1-2 1c-16 9-32 17-50 21 4-1 10-1 14-4 1 3-1 5-2 7 2-3 3-4 5-5 5-4 9-7 15-8-19 8-26 30-44 36-5 1-9 1-7-3 4-7 8-9 13-14-3 2-8 7-10 3 6-11 12-20 16-28-15 10-28 25-46 31-5 1-9-1-6-3 7-10 17-15 24-22-5 0-12 2-18-1 15-13 31-22 47-30 4-8 9-13 12-19-5-2-16-3-16-9 15-15 31-27 45-36 10-9 3-10 1-19 12-10 23-14 33-21 5-12 5-14 13-28 15-16 30-29 40-46-3 2-5 0-7-1 10-9-10-4-2-14 22-16 52-24 71-35"/><path fill="#162034" d="M277 228c0 1 2 2 1 4 1 5 5 7 7 10l-2 1 1 2c4 3 8 7 9 11 3 10 1 19-1 25-7 15-17 26-27 38-7 5-13 8-18 10-6 0-10 1-12-2-7 9-15 17-23 24-4 8-5 16-7 22 4-3 7-7 11-10-6 17-7 17-10 34 6-6 8-18 13-23-2 18-9 34-14 54 8-12 13-24 20-36-1 8-5 15-7 23 6-5 12-16 20-19-4-7 4-17-2-26 8-16 25-22 32-36 8-13 17-32 21-35 4-4 13-17 22-14 2-7 1-14 2-17-14-5-23-27-28-22-2-7-5-9-6-12 4 0 5 3 8 2-4 1-5-4-9-6"/><path fill="#A8CFCD" d="M375 113c-1 5-6 7-10 7-10 0-14-6-23-3-18 0-22 22-8 5 0 4 8 10 15 12 16-4 28 0 21-7 7 7-4 8 4 16 2 3 6 1 9 2 4 4-4 2-6 3 3 0 6 4 8 6 0-3 5-6 7-4 8 5-1 10-4 8 4 9 11 7 13 7 1 1 1-1 2-3 2 2 1 3 2 6 7 0 8-11 16-9-2-9-4-18-14-22 7 1 10 4 14 7 8-1-9-7 2-10 17 16 8 0 22 9-13-15-20-15-28-22-5 4-11-3-15-3 4 3 17 6 13 13-13-6-24-12-34-17l-3-1h-1v1"/><path fill="#EAEADD" d="M441 154c-4-1-15 10-15 4-13 17-10-1-23 30-3-2-5 1-7-1-5-3 1-6-2-7-4 6-7 12-8 19 8-7 8 6 11-11 3 5 1 8 0 11 3-6 5 2 7 3 26-20 53-31 51-31 10-4 6-3 6-1 29-6 48 7 5-15-6-4-27 5-22-1"/><path fill="#EAEDE1" d="m317 132 5 5c-4-1-7-4-11-4-52 5 5 10 16 19 3-2-2-4-1-6 16 7 21 26 30 31 8 9 7 21 14 28-5-14 5 1 4-15 4 5 1 8 1 13 1-6 4-1 4-2 4-12 0-17 0-27-1 4 1 10-2 13-6-16-13-30-23-40-1 4-2 7-1 11-6-11-15-21-27-24-4-1-5-3-7-3"/><path fill="#09101D" d="M414 336c-2 4-6 9-10 11-10-9-2 6-10-4-22 28-23 36-52 60 2-2 8-5 5 1-12 6-18-1-24 6 3-14 10-13 11-17-7 4-16 10-22 19 1-6 4-12 8-18-4 4-7 8-9 12-5 6-8 9-12 11 0-7 0-8 3-13-5 11-4 9-7 18 4 5 11 2 13 4-3-4-7 2-11-2 7-5 6-11 13-15 2 4-6 5-3 9 11-7 11-4 15-15 3 2 0 4 0 5-6 9 11-2 2 6l-1 1 2-1c10-6 12-6 22-9l1 1v-3c12 0 27-12 50-21-4 6-10 10-15 11 17-6 18-9 31-19 21-50 5-6-14 9 5-10 10-19 13-26-2 4-4 8-7 11-5 5-10 7-14 8 13-13 10-28 21-38"/><path fill="#422922" d="M262 344c-7 8-18 12-22 23 2 9-4 19-1 26 8-7 11-15 15-22-1 9-5 15-9 20v22c2 6 5 10 8 13 3-7 0-16 5-22-3 5-6-4-7-6 6-2 8 0 13-4-1 7-1 2-4 11 6 2 4 3 6-3 3 4 2 7 4 9 0-3-2-10 1-14 7 5 3 12 1 16v3l-1 1-3 1c-1 0-3-2-3-3l-1-3v-2l1 3v2c6 4 12 18 15 18-4-21-1 2-10-16h1v-2l2 1-1-3c9-7 2 0 5-13-3-5-11-8-15-15 5 3 11 6 16 10 0-6 11 4 16-13-3 4-5 10-10 6-4-1-3-3-2-6-2 1 1 4-2 4-2-13-6 5-15-10-2-4-2-15 5-14-8-4-7-6-17-7 2-5 5-6 7-10"/><path fill="#1E324B" d="M293 163c-3 10-6 20-9 29 0 8 2 13 2 19-5 1-8-4-12-6h1v1l-3-1c5 9-16 4-12 14-1 3-2 5-1 7 13 4 22 15 33 24-4-4-9-7-12-14-4-11-9-18-7-28 8 7 9 13 14 19 5 0 10 0 12 2-2-1-4-3-6-4 4-7-5-8 5-13 2 4 3 6-1 7 8-3 5 1 9-2 0 9-7 3-8 6 11 2 16 13 21 8-4-4 2-4-7 1 2-11-12-21-7-31-5-3-7 2-8-4-3 5-6 4-4 8-4-5-5-7-5-12 6 0 11 6 16 2 3-3-4-2-4-6 2-4 2 1 5 0 0-3-2-4-1-8 3-1 5-1 6-2-1-9 3-7-16-16"/><path fill="#172032" d="M305 356c-1 7-6 3-7 8 2 5-1 10 2 14-6 7-11 13-16 18 1 9-1 14 5 18 3-2 4-4 6-7 1 10-11 11-7 14 2 4 5 1 5 3 2-8 4-15 8-21 1 5-1 9-2 15 4-4 10-8 12-14-4-1-6-8-1-12-4 3-4 10-9 8-2-7 3-9 5-13 10 4 17-10 27-3 6 3 3 10-2 15 13-4 35-30 5-25-2-2 1-4 2-5-2 9-20 4-31 14 6-5 1-12 4-18-2-5 0-10-5-8"/><path fill="#5D4136" d="M285 315c-12 9-16 28-32 37 11 2 10 7 18 10 4-5 6-9 8-14 2 7 4 10 9 13-2 10-3 17-6 24 2 3 4 3 7 4 3-5 7-7 9-10-4-10-1-8-4-15 4-2 6-7 7-5-4-11 7-5-1-25-10 2-20 5-29 4 6-1 14-9 19-14-1 0-2 3-3 3 1-5-2-7-2-11"/><path fill="#DC7738" d="M380 215c-4 10-12 13-14 18-5 13 7 26 4 43 12-9 15-21 19-33s-5-18-6-26"/><path fill="#3E221A" d="M320 411c-2 4-7 1-11 8-2-2-4-2-4-4-7 6-12 12 1 8 6 3 9 7 8 11 7-4 11-8 18-14 1 11 10 16 8 21 0 4-2 6-3 8-3-4-9-7-15-10 1 2 2 4 1 8-4-5-2 5-8 3 12 2 18 1 20 2 6 7 11 7 15 14-4-4-2-17-7-23-2-14-7-16-10-31-7-1-10 3-14 0"/><path fill="#3C4F5D" d="M309 229c12 8-9 11 2 15 23 5 3 13 28 15-17 6 9 6-20 15 12 1 19 2 25-2-5-5-1-12-1-19-7 1-3-6-12 1 8-5 0-11 4-17-9 0-18-6-24-4"/><path fill="#DDDFD1" d="M346 295c-6 7-10 15-14 23 3 2 8-1 18-2-4 11 6 10 3 20 1-14 21-23 24-32-5 6-15 6-19 15 0-6 5-10 8-16-3-8-15 2-19-6"/><path fill="#B57149" d="M373 312c-4 5-9 9-13 13-4 17 8 8-5 30 7-9 11-7 5-12 6 0 7-6 12 3-8 4-15 15-21 21 15-3 19-21 31-30 0-4 2-9 0-12-4-1-7-1-9 0 1-6 10-10 1-12"/><path fill="#436F8A" d="M264 254c-6 2 4 1 4 5-7 6-11 10-11 17 4 1 7 4 16-7-3 6-2 8-4 11 7-5-5 9 7-3-2 10-8 13-11 14 2 4 6-1 8-3-2 6-3 13-1 18 7-14 12-15 14-28-5-4-2-12-9-17-1 1-2 3-4 4 0-4 1-6 2-8-1-5-5-3-8-4"/><path fill="#0E203B" d="M226 413c-17 20-10-2-24 23-1-7 1-13 1-17-3 8-13 20-28 33 2-1 3-2 4-3-4 7 4 11-3 15 8-5 23-15 32-25 5-9 15-14 17-23"/><path fill="#90715C" d="M354 291c-19-6-26 20-41 20l3-4-2 2c0 3 2 5 1 9 3 0 4-2 5-2-8 6-9 14-11 22 3 2 5 2 7 6-2-8 6-9 4-14 13-11 17-33 33-41"/><path fill="#683D2F" d="M470 229c-8 24-30 28-34 38-7 21 9 1-2 23 11-14 23-27 29-39 2-4 8-11 7-19"/><path fill="#E3E4D5" d="M410 296c-9 14-20 19-33 25 6 0 9 4 7 10 3-4 5-7 8-11 6 1 5 6 5 8 5-5 2 5 5 4 3-12 13-23 11-35"/><path fill="#945233" d="M276 436c-5 5 4 1 1 6-14-6-2 9-9 25 9-2-1-8 6-12 7 8-1 13 10 16-3-5 1-13-3-18 2 0 4 1 5 3-3-4-7-4-11-5-4-3-1-6 0-6 9 3 16 8 18 17 12 7 27 4 37 11-2-5-8-8-4-14 1 0-2 7-7 4-5 1-10-1-15-2-13-15-28-17-25-22"/><path fill="#749396" d="M336 128c-18 3 7 4 6 13 4 1 2-5 7-3 9 12 25 21 26 37 0-4 2-5 1-9 4 2 4 4 5 6 2-3 0-9 6-10 3 3 6 3 8 5-9-4-10-17-20-18 3-5 7-3 10-2-4-1-8-3-11-1-1-1-2-1-3-6 1 3-5 8 2 8-4 3-4 0-3 6-11-2-15-18-18-15 8-9 19-1 23-8-7 0-24 8-37-2"/><path fill="#987056" d="M410 287c-4 3-8 2-7 7-5-1-3-2-5-4-9 5-17 17-23 23 4 7 14-1 21-2 5-9 30-31 14-21"/><path fill="#5F98AF" d="M258 238c-5 5-15 1-18 7 10-6 16 11 23 10-17 7-5 6-23 17 3 3 0 1 5 3 4 1 8 3 10-1-1-8 8-8 11-15 4-2-6 1-2-4v-1l2-2c3 1 7-1 9 3-6-8-12-9-19-15"/><path fill="#121013" d="M351 202c-6 12 8-3-1 14 2 3-4-1-1 1-2 5-22 17-6 9-3 4-4 8-6 12 15-12 5-6 12-18l1-2 1-1v-1l2-2c2 1 3 4 7 3-3 10-7 20-4 27 2 1 2 10 5 13 0-7-3-14-5-22 4-12 4-7 7-15 9-6 11 2 18-7 6 7 13 12 10 23 1-5 1-10-1-14 4 2 3 5 5 7 3-2 4 6 2-2 7 9 0 5 10 9-4-14-18-15-26-29-1 0-1 4 0 5-5-1-9 4-15 2-9 0-11-10-15-11"/><path fill="#2A3441" d="M314 267c-1 5 1 14-4 18 8-3 6 0 15-1-7 7-12 14-13 21 12-8 24-13 27-24-2 0-6 2-9 2 3-2-27-8-10-16"/><path d="M291 426c-7 11 9 15 15 20 5 3 10 4 12-1 0-12-11-4-8-16-5-3-12-1-16-2"/><path fill="#3D2A28" d="M258 417c-2 9 1 13 7 18-7 3-2 10-5 11-3 3-1 5-2 8-6-2-6-4-13-2 1 1 6 3 4 7-3-1-12-6-7-7-4 7 7 4-1 14 9 1 15 1 22 1-1-4-2-7-3-9 5 1 4 4 8-2 2-9-5-3-9-9 5-2 0-8 5-9 4-4 10 0 8-1-5-4-10-12-13-17"/><path fill="#121F31" d="M418 322h-3c-5 7-8 15-15 20-2 4 2 6 4 4 6-8 9-15 11-23-4 19-11 34-22 51 4-1 8-2 12-5 11-15-4-6 7-21-1-1 0 3 3 3 0-7 5-13 5-20 4-3 6 2 7 1-1-1-5-5-6-3-1-2-1-5-3-6"/><path fill="#D9763B" d="M324 183c-19 7 3 18-16 17 7 6 11 4 10-1 2 8 2 12-2 17 4 5 8 8 14 7-1-11 17-10 16-8-1-6-2-7-3-9-1 5-5 9-9 9-3-2-9-2-12-4-4-7-1-11 0-14 11-9 10 3 9-8 0-1-3-4-6-5"/><path fill="#3A2621" d="M323 384c-5 1-10 9-14 3-5 4-9 6-7 11 5 1 2-5 7-6 1 2-1 4 0 8 4 2 6-1 8-4 1 4-2 7-2 11 8-9 19-13 14-20 10 9 5-8-4-3"/><path fill="#8B6B58" d="M305 314c-8 6-15 7-20 18 4 3 10 2 15 0 4 3 3 8 5 12-2-11 10-21 0-30"/><path fill="#100E15" d="M465 185c-16-3-27 13-26 14 0 1 4 8 3 18-3 10-12 17-18 21-5-2-12 0-14 0 5 1 8-1 13 1h2l2 1 5-3c1 3-8-6 16-15-3-2-6-7-5-17 8-6 11-14 23-15 0 11 3 8 3 20 0-11-2-23-3-25"/><path fill="#E2F1F1" d="M346 112c-7 6 7 2 17 8 9 1 9-9 15-8 14 7 26 13 38 18 0-6-11-8-15-11 4-2 8 2 13 2-7-3-14-6-21-8h-2l2 1c-1 4-9-2-12-1-13-2-25-1-35-2"/><path fill="#D3ECEA" d="M390 131c2-1 5 0 6-1 6 7 14 12 6 18h-9c-7-5-19-14-4-17"/><path fill="#101E33" d="M193 285c-3 8-3 17-13 21 12-8 3 4 16-6-4 11-2 18 6 21 3-7 9-4 12-8-6-1-10-1-15-7-1-5 1-8 2-11-3-4-7-6-8-8"/><path fill="#1A1F2C" d="M466 191c-11 1-13 8-20 11-3 5 0 10-3 14 4 4 7 1 9 3 0-11 7-6 1-17 5-6 10 0 10-3 3 7 2 18 3 23 4-16 0-22-1-28"/><path fill="#444B55" d="M308 146c-2 3-2 6 0 9 13 4 19 15 30 16-6-13-18-19-29-24"/><path fill="#0D1B33" d="M299 157c2 4-6 0-5 6 6 1 13 5 19 9-3 4-3 0-5 0 1 3 4 4 5 6-3 3-5 3-8 2-1 5 1 6 0 10-4-3-5-1-6-3 2 2 3 5 6 4-15 17 3 0-5 14 7-7 7-24 20-26-2-3-4-4-5-6-5-1-2-4-4-4 2-1 8-2 6-5-7-4-11-6-17-5"/><path fill="#172133" d="M280 350c-3 9-10 13-15 16-1 11 8 1 11 7 2 5 1 9 3 11 10-11 1-18 1-31"/><path fill="#B2957E" d="M350 317c-9 3-5 13-9 16-10-4-4-7-6-10-2 2-2 6-4 9-4-1-7-6-10-4 2 8-6 7-4 16 12 5 15-4 21-9l3 1 1 1-1-1c4-7 4-12 8-18"/><path fill="#070E1A" d="M192 295c-6 11-18 19-30 18 8 0 14-3 21-5-11 8-6 6-8 10-4-3-5-1-14-1h6c-5 8 0 14-13 21v1h2c3-6 14-12 17-18-5 6 9 0 6 10-3 6-9 13-13 15-10 2-14 7-22 11 7-3 13-7 20-10-10 8-3 5-7 15-3-6 18-24 32-34-2-4 4 4-12-5 4-10 30-36 9-15-4-2 4-7 4-10"/><path fill="#0B1727" d="M394 347v-1c15 3 5 11 1 20-9 4 0-5-9 2 7-15-11 2-1-12 2-4 4-6 6-8"/><path fill="#AA957E" d="M447 174c-7 16-26 11-28 27-5 0-8-3-6-6-3 8-11 17-22 17 5 7 10 3 14 2 26-22 34-23 39-37"/><path fill="#61A0B3" d="M216 272c-5 8-17 5-20 9 1 7 5 11 12 10 6-4 19-9 6-18"/><path fill="#2F333F" d="M302 287c-14 11-13 16-24 30 5-2 8-4 11-6-1 6 0 9-2 14 11-9 10-24 13-36"/><path fill="#233446" d="M290 237c8 6 15 12 23 14-4 2-9 2-13 0 2 4 13 3 10 7 16-2 3 10 17 1-1-2-6-7 0-9-22 2-15-15-35-11"/><path fill="#5C92A6" d="M277 173c-14 4 4 10-20 22 2 4 5-1 4 13 5-4 10-3 11-6-3-15 6-19 5-29"/><path fill="#DCF2EF" d="M393 131c-24 4 5 19 9 17 7-6-1-10-3-16-4-1-5-1-6-1"/><path fill="#976D52" d="M353 331c-2 4-6 8-8 11-4 0 1-2-1-3l-2-1-1-1-2-1c-11 6-8 14-19 18 6 1 15-7 17-2 1-5 3-9 5-12 2 2-3 7 1 11 2 0 4-1 6-2 8-10 1-6 3-17"/><path fill="#0C1B30" d="m173 326-2 1 2-2c4 3-5 9-7 12-3 0-5 0-7-1 5 4 0 9-3 12 2 0 8-4 7 1-19 7-8-2-33 15 12-5 21-7 30-12 8-13 31-22 15-26"/><path fill="#111E33" d="M216 313c-5 6-9 12-15 16 3-4 8-2 11-5-1 6-5 9-8 11 8-5 14-13 20-18-2 5-3 7-2 11 2-1 4-5 5-3-21 20 3 2-13 21 7-7 12-13 16-20-1-10-2-13-12-12"/><path fill="#3F4F5C" d="M434 251c-10-4-17 6-26 2 1 4-2 8-7 5 3 3 0 5 5 4-5 5-8-6-9 5 0-5 7 0 11-2 7-4-8-9 5-8 7 0 3 6 8 9 2-2 4-3 5-5-2-1-5 0-7-1 5-5 10-3 14-4 2-2 5-6 3-7"/><path fill="#A38C77" d="M348 181c-1 8 9 25 19 29-6-8-1-18-8-25-6-6-3 4-8-3"/><path fill="#BA7B4F" d="M291 448c-2 2 8 8 10 12 11 1 17 4 23 2-9-6-15-13-32-14"/><path fill="#88563D" d="M374 360c-12 2-5 11-12 18-1-4 2-7 0-12-3 7-9 3-11 6 2 1 3 0 4-1 5 3 3 6 2 7-7 11-16 15-23 22 14-5 23-11 32-24-7 0 9-10 5-14"/><path fill="#C8733E" d="M346 430c21 11 8 18 22 25 9-1 20 6 29 0-5-1-10 1-15-1-12-9-22-15-33-22"/><path fill="#283545" d="M434 294c-2 3-5 6-6 9 1 5 2 0 4 1-5 5-2 7-1 12-4 5-5-8-4 2-2 7-1 10 5 10 1 9-4 14-4 21 5-20 9-26 7-54"/><path fill="#060304" d="M310 159c10 3 18 11 26 18v2l-1 2v-1l-2-1c-8-2-15 1-20 6 5-4 12-9 20-5-5 0 13 2 17 17-6 8 4 1 1 14-2 8-7 13-13 15 6-2 11-7 13-12 0-5 2-7 1-10 4 5 8 8 13 8 7 3 11-2 14-1 0-3 1-4 2-5 0 2 4 2 4 4 3 8 19 10 14 16 2-4 0-5 0-7-5 2-8-5-12-6-2-7-3-11-2-16-2 6-7 8-9 12-5 3-11 3-14 1-10-9-11-18-18-26-10-10-20-19-31-25"/><path fill="#866553" d="M460 232c0 2-4 2-2 5-6-1-9-1-12-2 4 1 10 2 11 8-6 2-8-2-12-4 1 1 4 5 7 7-4 0-8-5-10-2-5 6-1 8-6 11 8-2 13 4 18-5 3-6 7-10 5-17"/><path fill="#78736B" d="M388 164c-5 1-4 5-6 8 1 6 1 11 3 15 3-4 5-7 4-12 4-1 10-4 8 3 1-2 4-3 4-4-3-4-7-8-12-9"/><path fill="#161314" d="M265 454c-8 3-1 7 0 12-10 1-16 2-22 3 5-14-5-10-4-2l-1 1h1l2 1 1-1c8 0 16 1 24 1 7 3 4 13 12 17 0-6 8-10 2-13-4-4-4-7-11-3-1-21-3-2-8-14"/><path fill="#382828" d="M250 334c12-1-3 12-3 16-4 6-8 7-11 8 2-5 6-10 4-17 4-3 6-4 9-5"/><path fill="#815842" d="M333 351c-9 6-13 1-19 6 4 2 9 6 14-1 1 5-8 8-2 13 15-1 10-12 10-17h-1"/><path fill="#132849" d="M232 408c4 2-10 26-11 31 7-4 13-11 19-14-5-5-4-11-6-17"/><path fill="#0C1929" d="M395 347c-7 5-11 11-13 18 0-3 3-4 3-7 3 4 3 6 0 7 5-2 6 0 6 3 4-9 17-18 5-20"/><path fill="#24323F" d="M260 406c-2 2-2 9-2 11 14 20 6 4 19 21-2-14-15-20-14-32"/><path fill="#161212" d="M409 461c-4 3-6 7-5 12 9-3 6 4 19 0-5-6 4-5-3-11-3 2-6-2-10 0"/><path fill="#030000" d="M324 196c-2 5-3 9 1 13 2 4 6 2 9 3 4-4 6-6 5-10-5-1-9-3-13-4"/><path fill="#173152" d="M199 345c-1 0-17 7-33 11-6 2-7 7-9 9 16-6 33-10 46-22"/><path fill="#436C86" d="M265 298c-7 11-21 2-28 10-4 3-8 2-5 7 5-4 8-3 12 1 9-8 16-13 20-15"/><path fill="#786462" d="M463 171c-15 9-26 18-28 21 8-9 76-28 24-19"/><path fill="#172F4C" d="M176 451c-17 9-11 5-25 16 9-3 17-2 25-3 3-5 1-10 3-14"/><path fill="#6A3620" d="M337 422c1 8 7 16 10 31 10-3-6-8 10-9-6-6-12-13-18-22"/><path fill="#2B323F" d="m456 201 1 1c-10 20 9 16-3 26 3-7 16-31 6-28"/><path fill="#61A3B6" d="M178 287c1 8-16 13-12 20-5 2-8 7-13 3 7 2 16 0 23-2 1-8 3-13 4-18"/><path fill="#203441" d="M334 421c-4 1-7 5-10 7 1 8 7 12 10 16 10-9-2-12-2-22"/><path fill="#31506A" d="M271 295c-8 6-15 14-24 24 10-8 14-4 22-9 3-6-2-10 2-15"/><path fill="#CFEAEC" d="M274 243c-21-5 2 12 11 11 5 8 3 17 4 23 2-8 1-19-2-25-5-6-8-8-12-10"/><path fill="#0F1D32" d="M163 377c-5 4-10 2-15 5 7-5 0 8-15 20 15-2 16-10 30-24"/><path fill="#050100" d="M414 207c-2 3-5 5-8 7 2 5 3 8 7 9 4-2 7-5 11-3 8-19-15 2-8-13"/><path fill="#274E6F" d="M190 307c-4 3-11 14-6 17 6 0 11 2 15-3-6-4-8-6-7-13"/><path fill="#060E1E" d="M317 160c0 2 0 3 2 5-18 0 4 12 3 16-6-4 10-5 12-2-5-6-14-15-17-16"/><path fill="#294B68" d="M203 410c-3 9-20 29-36 46 8-4 15-12 22-20 8-9 13-16 16-25"/><path fill="#3D2B25" d="M465 206c-9 17 4 22-6 38 7-4 7-15 12-13 2-36-6 5-7-23"/><path fill="#C5B8A4" d="M332 315c-2 5-4 8-7 12 5 9 7-1 9-3-1 5 2 4 3 11 8-2 3-9 7-15-7 2-3-8-8 1-3-4-1-1-5-3"/><path fill="#8D7265" d="M340 161c2 6 7 6 5 11-28-13 1 19 8 9 0-5-7-11-10-18"/><path fill="#82C0D2" d="M250 232c-2 4-4 1-6 1-6 2-8 5-7 9 4 0 36-8 14-10"/><path fill="#3A2E28" d="M386 269c0 8-1 12-3 18 10 2 18-7 24-7l-1 4v-3c6-7-10 2-5-6-3 3-6 7-10 9 0-5 4-13-4-13"/><path fill="#2C3747" d="M427 257c2 5-3 7-4 11 1 5 7-2 8 4-1-2 8-7 6-13-2-2-5-1-8-1"/><path fill="#3F6A87" d="M235 296c-5-1-14 7-12 1-7 11-2 4-2 9 3 0 0 5 4 5 1-4-1-7 1-9 4 2 3 6 4 7 3-5 9-9 7-14"/><path fill="#070E1B" d="M156 356c-15 14-45 5-44 6 2 7 13 3 18 3-10 10-18 17-29 24 78-58-11 21 58-36"/><path fill="#BCB2A4" d="M300 296c0 6-2 12-3 17 5 1 8-6 11-3 6-12 1-7-6-13"/><path fill="#050304" d="M390 218c5 9 2 21-1 29-4 12-7 23-16 30-5-19-14-30-14-52-5 17 8 33 7 50-4 6-8 8-12 10 6-1 10-9 17-7h2l1-1 2-1c3-4 5-8 7-13 4-5 5-10 6-14 2-6 4-10 3-16 1-5 1-9-1-13"/><path fill="#27394F" d="M298 143c-26 5-1 6 5 13 2-4 2-7 4-10-6-1-8-4-12-3"/><path fill="#3F708F" d="M252 208c-5 6-14 13-18 20 4-2 7 1 10-2 4-6 7-11 9-16"/><path fill="#0C1C30" d="M141 363c-15 8-36 28-41 27 23-7 22-12 42-26"/><path fill="#15233A" d="M246 424c-4 7-9 13-17 19 10-12 41-5 17-17"/><path fill="#914825" d="M356 449c2-2 10 9 12 13 9-4 14 4 22-1-12-7-24 2-29-13"/><path fill="#3F4954" d="M437 308c-1 19-5 44-12 43 7-1 10-9 12-15 1-13 5-17 0-26"/><path fill="#9ED2DA" d="M275 253c9 11 9 22 13 25-1-6 1-14-1-20-2-5-7-5-9-3"/><path fill="#192633" d="M362 259c-1 12-7 9-6 21-6 7-8-2-11 4 0 4 13-3 18-6 0-6 3-12-1-18"/><path fill="#1B304D" d="M291 158c-2 2-6-1-8 1-8 20 3 9 1 16-3-6 17-20 10-17"/><path fill="#993612" d="M327 183c7 10 9 9 21 32 1-7 0-14-4-20 0 13-7-13-16-12"/><path fill="#2F4C67" d="M280 172c-2 8-2 16-3 24-3 6-6 11-13 13-3-1-4-3-6-4-1 3-2 7-1 12 12-7 16-10 19-19 5-7 2-16 5-24"/><path fill="#CE8650" d="M384 349c-13 7-11 18-20 27 11-6 15-17 21-26"/><path fill="#101F31" d="M416 353c-1 0-1 4-3 2 2 8-12 20-14 26 8-8 23-21 21-30"/><path fill="#284D6F" d="M190 281c-3 2-5 3-8 4-2 7-3 13-2 20 9-6 3-17 10-22"/><path fill="#41241A" d="M356 345c-2 4-13 21-29 25 8 2 10 0 11 3 2-10 14-12 19-28"/><path fill="#3B2B23" d="M353 215c-11 16 0 6-9 20 10-18 6 5 9-7 5 4-7 10 1 8-1-8 11-19-1-19"/><path fill="#3F718E" d="M238 235c-1 1-2 0-3 1-7 1-8 5-13 5-3 13 5 0 3 10-14 7-3 0-7 8 2 1 6-3 10-5-2-5-2-15 4-17 3 2-1 6 2 8 3 4 7 2 10 3-2-6-4 4-9-3 2-4-1-8 3-10"/><path fill="#1D3755" d="M185 330c-5 6-12 12-16 19 6-1 12-5 18-7-2 0-2-3-5-4-1-5 2-4 3-5"/><path fill="#6F6764" d="M425 138c4 5 7 10 13 13 4 0 8 0 12-2-2-7-4-4-10-7 3 8-7 2-1 6-6-2-9-7-13-8"/><path fill="#36271E" d="M340 465c-4 1-5 6-4 9 5 1 10 0 13 1 0-5-4-9-8-10"/><path fill="#2C4D6A" d="M204 294c-1 3-2 7-1 11 4 1 10 1 12-1-5 0-3-7-3-8-4-3-4 1-7 1"/><path fill="#312520" d="M400 228c-8 8-7 16 0 3 7 6 4 18 8 15-1 0-3-2 0-4 11 5 13 1 21-2-8 0-6-1-19 0-4-3-6-5-8-8l-1-1-1-1"/><path fill="#F4CA83" d="M428 208c-3 3 0 12-4 15 1 5-2 4 2 7 6-2 4-5 9-7-11-11-2 8-9 3 0-6 1-9 2-13 2 2 6 0 7 1 2-5-3-5-4-5"/><path fill="#E7A472" d="M381 228c6 8 0 23-1 32-1-9-1-19 1-28"/><path fill="#6F3522" d="M273 435c-1 4-3 0-7 2-6 2-1 9-7 10 5 4 9 3 11 4 1-8 0-7-5-6 2-8 6-6 9-7"/><path fill="#132338" d="M203 324c-7 8-14 4-19 10-1 4 1 5 2 7 10-6 6-6 15-15"/><path fill="#8D533A" d="M437 276c-3 9-10 9-14 11 1 5-5 8-4 13 3-4 10-15 11-5 4-6 6-11 7-16"/><path fill="#55747C" d="m364 135-1 1c2 0 0-4 5-1-7 3 0 8 0 11-19-15-11 1 0 7 0-5 7-7 13-6-6-2-7 1-11 1 1-5 1-9-1-11l1-2h-3"/><path fill="#659DB0" d="M231 258c-1 1-3 0-4 1 1 4-8 4-6 9 3-1 0-3 2-4 1 6 6 4 9 6 1-5 18-8-6-10"/><path fill="#183655" d="M159 339c-3 1-7 2-10 4 0 6-5 10-7 13 6-5 18-8 19-18"/><path fill="#42748F" d="M247 246c3 3 0 6-3 9 6 3 10 2 14 1-4-2-1-10-9-9"/><path fill="#452519" d="M304 345c-6 18 10 5 7 24 9-7 11 0 16-10-4 4-8 6-13 5 2-4-5-2-3-7 6-1 9-6 12-7-5 6-12 0-18 2-2-2-2-3-1-4"/><path fill="#A4451E" d="M433 199c-3 2-7 2-10 4 5 5 21 9 11-3"/><path fill="#0E0F15" d="M243 411c0 4-3 10-1 12-7 8-14 13-19 20 7-7 15-13 23-20 4 1 6 8 11 10 5 11-9 17-10 18 7-4 10-5 12-6-1-6-3-20-3-30-1 3 0 8-2 12-4 0-4-6-7-4-4-6-1-1-3 1-2-5-2-8-1-10"/><path fill="#703921" d="M364 460c1 3-1 7 3 8 8 3 0-1 6-6 7 4 13 9 21 6v-1h-1v1l-1-3c0-1 0-2 1-3-1 1-1 2 0 4-2-7-16 3-18-6-4 6-7 4-8 1"/><path fill="#623C2D" d="M271 398c-2 4 0 9-1 13-3 1-3-3-3-6-1 1-2 2-3 4 3 9 12 8 11 17-4-6 0-12-4-11 3-7 6-13 2-16"/><path fill="#534039" d="M421 268c-8 4-15 8-22 8 3 4 6 1 9 1 0 5-1 6-3 7 5-5 14-8 14-13"/><path fill="#223145" d="M260 311c-9 18-10 1-24 14 8 0 33-9 25-12"/><path fill="#080F1A" d="M215 307c2 4-15 14-21 29 7-6 14-15 21-23 23 0 10 2 0-5"/><path fill="#5E6D71" d="M424 139c6 5 0 9-5 6 8 9 5 8 13 8 1 2 2-1 4 0-7-4-6-8-10-12"/><path fill="#466374" d="M318 235c4 6 2 1 6 6-3 3-4 7-7 5-7-4-2-8-1-10"/><path fill="#56352A" d="M262 368c-2 6 7 12 13 15 0-3 2-5 2-7-6-7-14 2-15-7"/><path fill="#392724" d="M252 335c-3 1-6 4-9 5-1 7-3 13-9 16 22-11 6-23 23-19"/><path fill="#AD8B72" d="M415 266c-5 4-10-1-17 2 4 5 7 3 8 6 5-4 14-5 12-8"/><path fill="#223644" d="M350 252c8 13 7 9 5 25-3 1-5 1-6 5 3 0 4-2 5-3-1-9 5-9 6-13 0-6-3-12-6-14"/><path fill="#815842" d="M308 336c-1 3-3 8-3 11 7 0 11 3 15 0-4-4-9-6-12-8"/><path fill="#47697E" d="M298 227c8-2 1 11 12 12 5-9-6-11-9-13"/><path fill="#DD8845" d="M405 217c-4 4 1 13 5 16 1-4 3-5 5-6-2-2-7-2-8-8"/><path fill="#945E41" d="M379 340c-3 4-5 8-8 12 3-4 5 3 2 5 4-4 8-6 10-9 4-6-7 1-4-6"/><path fill="#283B4E" d="M421 331c-1 6-4 12-5 17 4-1 6-1 7-5-3-9 0-12 2-12"/><path fill="#FAE5BF" d="M470 202c2 12 2 25 3 38 1-12 3-26-1-38"/><path fill="#080C15" d="M225 456c-1 4-11 16 11 11 0-2-1-4 0-5-6-9-3 3-11 1 1-2-1-3-1-6"/><path fill="#0E1C31" d="M213 338c-55 33 0-3-65 35 30-10 49-22 65-36"/><path fill="#070E1A" d="M227 412c-3 15-21 29-32 40-7 6-12 9-18 12s-12 2-17 3c5-1 11 1 15-2 8-3 12-6 16-9 14-11 22-21 32-32 2 1 0 5 0 9 0-9 7-15 4-20"/><path fill="#644033" d="M372 352c-10 7-8 15-10 25 0-13 9-15 12-25"/><path fill="#543D30" d="M355 226c-6 14-3-8-17 19 8-4 15-10 17-17"/><path fill="#653621" d="M359 342c-4 6-18 9-20 18-1-1-2-3-1-4 0 1-1 3 0 5l1 1-1 1v2l-1-1c11-5 15-16 21-21"/><path fill="#7A5540" d="M366 286c-3 4-8 5-12 10-8 0 34-4 11-9"/><path fill="#121E32" d="M243 395c-2 2-3 4-4 7-1 4 2 8 2 16 2-7 3-15 2-23"/><path fill="#A5CDD9" d="M176 290c-8 7-10 13-23 18 5 5 8 0 11-1-3-7 11-9 11-15"/><path fill="#F7D07D" d="M340 213c-2 5-10 3-8 10 4 0 15-5 11-9"/><path fill="#1F344D" d="M248 290c-12 7 2 15 8 13-2-3-11-2-7-11"/><path fill="#172435" d="M428 303c-7 8-5 13-9 14 8 12-3 4 14 15 0-4-3-3-8-5 2-17 3-3 5-22 0 0-1 5-4 0"/><path fill="#934A27" d="M351 435c6 14-2 8-1 22 0-8 10-10 10-15-2-1-3-4-5-5"/><path fill="#070E1B" d="M170 361c-3 6-11 8-18 6-6 7-9 14-12 21 14-6 3-10 10-18 17-3 24-5 16-6"/><path fill="#427690" d="M237 267c-2 2-4-1-7 2-5 3-6 2-9 3 1 5 7 3 9 4 7-2 2-7 0-5 2-4 5 0 6-2"/><path fill="#CFC3A6" d="M389 197c-1-2 5 6 2 11 0-2 1-3 2-4 1 9 4-2 6 3 3 0 5-3 9-5-10-8-12 2-17-5"/><path fill="#A89685" d="M311 291c-2 3-6 3-8 5 4 2 6 7 9 2 1-4 9-7 1-6"/><path fill="#609EB0" d="M211 266c-7 2-13 0-14 10 10 1 8-9 16-8"/><path fill="#281914" d="M407 461c5 0 12 1 13 7-5 0-9-2-14-4"/><path fill="#02040B" d="M224 398c-3 6-8 12-9 19l-1 2v1l1 2h1c6-8 12-12 16-19 4 6 5 12 8 17 1-7-7-13-5-21-7 7-13 14-18 21 1-9 3-15 6-20"/><path fill="#CAC0AB" d="M438 182c-7 5-17 8-24 12-2 0 3 0-1 4 7-3 13-13 26-14"/><path fill="#D1B99E" d="M394 321c-3 2-4 4-6 7 0 3 12 3 12 6 4-9-8 2-4-14"/><path fill="#3F667F" d="M250 197c-4 5-2 10-9 13 6-1 18-10 12-13"/><path fill="#162642" d="M246 426c2-2 4 3 6 3-3 5-6 5-8 7-4-3 0-7 2-8"/><path fill="#8B6A57" d="M374 290c-3 2-11 6-6 12 4-3 8-7 5-10"/><path fill="#D9BD9F" d="M404 173c-2 4-5 8-7 12-3-3-3-3-2 0 3 3 5-1 7-1 5-3 4-9 3-8"/><path fill="#142F52" d="M171 366c-6 6-18 3-23 9 8 0 15-3 22-7"/><path fill="#BE7C54" d="M426 292c-7 11-8 11-10 16 5-2 7-8 14-16"/><path fill="#9C4F2C" d="M381 215c-11 6-11 8-14 8 3 5-10 3-4 16 2-13 11-13 19-26"/><path fill="#985836" d="M367 333c1 11-10 16-9 26 5-4 6-12 13-12-1 0-2 1-5 0 5-4-1-9 1-13"/><path fill="#F6D98F" d="M414 225c8 4-4 3-1 7 2 3 6 3 8 2 1-6-1-5-5-9"/><path fill="#2E465E" d="M293 206c4 9 2 7 1 17 1 2 2 3 3 4 1-2 0-4 1-5 4-2 7-2 8-4-2 5-3-2-6 1 0-3-3-9-6-11"/><path fill="#3A6885" d="M235 254c-18 4 6 8 6 8 1-13-4 3-5-8"/><path fill="#070D18" d="M228 325c-14 9-19 20-35 28 8-3 22-13 33-27"/><path fill="#D17A48" d="M434 350c-2 3-4 7-6 10-8 8-12 16-19 21 8-4 13-16 18-18 2 2-2 9 0 8 1-10 7-15 8-22"/><path fill="#0C0F16" d="M275 219c1 4 4 10 6 14 5 0 7 5 10 9h2c-1-2-2-3-4-4 6-4 10 1 15 1-5-2-9-4-12-6h-1 2c0 1-2 1-3 2-2-1-13-6-13-14"/><path fill="#47291E" d="M319 368c-3 1-5 3-7 3-2 2-2 5 1 5 13-3 12-1 3-6"/><path fill="#D7EFEE" d="M390 151c-3 0-4 2-3 6 4 1 6 1 7-2s-1-3-3-4"/><path fill="#19212D" d="M391 248c-1 4 1 13-6 14 6 6 6-5 14-3 1-1-8-2-7-10"/><path fill="#0E1A2D" d="M184 309c-8 3-21 7-26 4 7 3 18 3 24-3"/><path fill="#785747" d="M439 238c2 9-1 2-5 9-4-2-4-6-3-7 1 8-7 1-7 9 4 1 9-1 14-1-5-6 10-4 2-8"/><path fill="#765644" d="M286 331c-32 10 3 5 13 2 2 4 4 4 3 7 1-3-1-5-1-7-6 2-16 4-17-1"/><path fill="#1C0A08" d="M325 181c12-5 17 13 25 18-3-6-7-11-12-15-4-4-8-4-11-5"/><path fill="#0F1218" d="M365 271c3 9-6 9-5 11-8 1-4 5-13 4-1-4 2-5 2-8-4 14-12 1-8 9 9 0 6 6 18-3 4-1 5-4 7-5-3 0 1-3-1-5"/><path fill="#E28C42" d="M433 209c2 1 6 0 4 4-4 1-9 3-9-2 2 4-1 7-1 10-2 6 3 3 3 5 5 0-2 1-2-3-1-7 7-7 8-3 0-3 2-4 1-6 1-3 1-5-2-4"/><path fill="#364859" d="M294 203c9-3 5 6 3 8-1-3-3 0-6-2l2-2v-2l2 1"/><path fill="#0D1F39" d="M193 357c-24 9-23 16-45 21 19-4 34-11 39-20"/><path fill="#1F252C" d="M378 273c-2 7-6 5-12 8 7-3 11 11 15-6"/><path fill="#BE7E50" d="M288 438c2 11-16 1-1 10 3-4 9-2 11-2-2-4-9 0-9-6"/><path fill="#85C1D0" d="M133 353c-2 2-10 4-10 7 6 2 10-2 11-5"/><path fill="#6C6761" d="M345 257c-7 10 2 8 3 13 5-3-4-8-1-13"/><path fill="#0F0E14" d="M256 369c-4 9-12 23-19 30-5 2-7 4-10 6 7-1 4-1 7-7 0 5 3 11 6 14 0-8-4-1-4-9 7-12 16-21 19-33"/><path fill="#F6D98F" d="M311 206c1 3 2 6 4 8 2-1 4-3 4-5-1-5-4-3-5-4"/><path fill="#0F1D32" d="M199 339c-14 5-22 10-33 12 9-2 19-2 31-11"/><path fill="#1A304A" d="M192 279c-7 8-2 21-13 27 3-3 7-4 8-7 1-8 6-13 4-19"/><path fill="#354F64" d="M290 229c3 3 9 5 13 8-1-2-2-5-1-8-2 4-6-3-9 0"/><path fill="#414951" d="M421 270c-3 3-2 7 0 12 1-3 6-11 1-11"/><path fill="#5D3424" d="M254 395c-4 4 1 6 2 9 3-4 4-5 8-7-3-4-7 6-9-2"/><path fill="#5F4535" d="M397 234c1 1-8 12 5 19-13-23 6-7-4-18"/><path fill="#070D17" d="M223 318c-8 9-16 18-26 22 8-2 19-11 27-20"/><path fill="#2B221F" d="M272 471c6-3 7 6 4 8-4 0-3-3-3-6"/><path fill="#623927" d="M304 347c1 7 16 4 22 1-5 0-12 2-19 0"/><path fill="#BA9374" d="M384 326c-5 13 10 2-2 13 5-2 6-4 9-5 11-4 4 7 6 5-2-7-9-12-14-8"/><path fill="#1A222E" d="M273 207c1 5 0 9 1 12 2-5 6-1 7 3-2-4-3-9-5-13"/><path fill="#1A1111" d="M321 431c-8 3 0 9 1 15 1 0 1-6-2-8 7 3 14 5 16 11-3-7-13-10-16-16"/><path fill="#4A768E" d="M278 179c-3 6-6 10-4 20 4-6 2-12 3-18"/><path fill="#E7F1F2" d="M335 118c-8 2-15 5-21 9 9 4 14-7 22-10"/><path fill="#3B5563" d="M348 255c-2-2 0 15 5 7 0-2 0-5-2-7"/><path fill="#2B2F33" d="M385 264c0 10-11 8-4 15 5-2 2-9 5-13"/><path fill="#653826" d="M287 455c-1 2 2 5 1 7 6 3 9 5 15 4-10 1-13-14-15-7"/><path fill="#2D1D18" d="M258 388c3 1 7 7 12 6-5 2-11 0-12-3"/><path fill="#3A647F" d="M233 279c-3 1-6 3-9 5 3 3 12-1 10-4"/><path fill="#578BA3" d="M273 275c-4 6-9 9-15 12 6-4 12-4 10 3 15-17-9 0 7-15"/><path fill="#150C0C" d="M431 295c-4 6-14 20-20 30 12-3 7-19 21-28"/><path fill="#2F465F" d="M238 276c-1 4 4 9 8 7 5-4-4-3-5-5"/><path fill="#637D81" d="M354 135c-14 10-13 3 4 12-6-2-2-4-6-7 1-2 2-5 5-5h-2v1"/><path fill="#D78A50" d="M355 450c-10 10 3 2 6 6 0-4-3-6-4-5"/></svg>