<svg xmlns="http://www.w3.org/2000/svg" width="600" height="600"><path fill="#8B9399" d="M157 106c21-1 42 0 63-1 25 2 46 7 67 13 13 7 20 18 26 27 14 19 24 37 36 57 6 3 13 2 18 3 8-23 12-50 27-71 12-9 23-12 34-15 25-4 47-7 69-11-8 36-17 70-34 100-9 9-20 13-30 17-9 0-15 3-21 0 20 13 15 40 34 52-1 7-9 7-12 9-1 6-2 9-2 13 7 7 11 13 15 19-6 3-11 5-17 4-2 6-4 10-6 15-7 8-13 13-19 15 3 8 5 15 12 17-19 9-1 30-22 38 8 6 13 12 15 18 1 9 0 14-3 19-2 7-7 11-10 16 1 5 12 4 12 12 2 6 4 10-1 14-8 3-15 3-20 6-9 0-14-3-15-9h-23c-15-6-10 9-20 9-6 1-10-1-15 0-4-3-5-6-6-8-2 3-8 7-15 4-12 1-22 0-31-2-11-3-18-8-25-16-6-8-6-16-8-23-9-3-17 2-25-2-9-2-15-4-21-8-3-5-4-7-3-11 3-3 6-4 8-6-7-1-14-4-20-8-8-7-10-14-12-21 1-5 4-3 6-4-3-4-2-8-5-11 6 3 10 5 14 6 7 1 12 0 10-6-1-14-9-20-17-28 12 1 21 5 33 5 8 7 9 15 11 22 4-3-3-16 5-11 14 12 18 28 20 44 6-15 14-27 23-37-1-5-4-8-5-11 15-5 22-20 36-24-4-4-4-10-8-13-11 1-20-3-26 1 3-14 14-24 24-31-12-5-21-10-32-10 8-12 17-20 29-21 7-15 15-25 28-36-15 3-32 1-47 2-17-3-33-4-45-10-26-15-43-34-65-54-41-36-67-71 16-55"/><path fill="#272A3E" d="M117 120c27 27 51 50 81 73 14 2 14-2 26-1-18-21 17-2-8-23 10-1 15 2 21 3-5-7-9-13-12-20 15 2 28 6 39 12 0-4-2-8-1-13 5 2 9 5 12 8-11-9-22-18-36-20-28-5-56-3-82-6-15-2-27-7-39-11"/><path fill="#F6FBF5" d="M337 216c-5 2-10 2-13 6-16 8-40 25-18 41 8-1 15-3 23-1s12 6 15 11c10-3 17 4 25 4 10 1 14-7 21-8 3-5-1-17 6-14-2-6-2-10-8-15-11 0-27-19-43-24-4-1-5-1-6 0"/><path fill="#E7F0E5" d="M282 338c3 13-32 25-12 29-2 9-7 17-4 26 1-2 1-5 4-6 4 3 1 9 3 12 1-3 4-5 6-4 3 7 11 4 13 8 8-3 12-5 15-11 4 6 7 10 10 14 2-1 1-4 3-5 5 6 11 2 15 1 4-8-1-14-4-21-17-8-37-37-49-40"/><path fill="#958586" d="M300 345c7 9 18 14 26 22 10 4 20 9 23 17-3 13 2 23 2 36-1 3-4 6-7 8 2-2 5-4 7-7 6-6 11-9 13-14 2 4-2 6 0 10 8-10 14-4 22-15 2 3 2 8 5 8 5-4 9-10 12-17-1-4-1-8-2-10 8-3 11-9 15-12-9-1-15-10-18-14 1 8-4 14-8 21-6 6-12 6-17 7-16-7-31-12-45-18-10-7-18-14-27-20"/><path fill="#CFD2C7" d="M375 209c-2 4-3 9-4 13 9 9 20 14 25 25 9 10 7 23 4 32-14 4-33 3-48 3 0 5 2 8 3 12 12-7 30 4 42-5 4-7 6-13 13-17 0-16 5-32-7-46-8-10-17-14-26-17"/><path fill="#EEF6EC" d="M295 358c2-1 5 0 6-1 5 3 4 6 1 7 4 2 10 0 12 5 5 8 5 16 7 24-4-1-5-4-7-7-3 4-7 6-9 10-7 0-10 5-15 0-4-8-10-9-15-9-12-13 2-34 19-26"/><path fill="#C4B1A8" d="M252 185c-6 5-8 11-16 13-15-7-16 1-1 10 11-4 17 3 27 6 9-5 20 1 34-6-2-7-6-10-10-12-9-6-18-9-27-11l-3-1h-1v1"/><path fill="#BAB5AD" d="M205 364c4 11 2 27 2 39-15 2-28-12-42-13 2 4 17 13 9 14-7-3-12-7-15-11 3 4 3 10 7 12 14 4 27 13 44 9-3 4-6 5-10 4h7c-2 5-5 6-7 8-8 0-12 2-17 2 3 2 5 6 8 6 7-9 17-2 24-8 1-3 2-9-3-7 6-7 3-18 12-22 9-7 3 17 7 8-2 1-1-18-6-26-4 10-17-3-15-1-2-3-4-8-5-12"/><path fill="#E1FAF9" d="M220 109c1 1 10 2 13 3 0 4 3 0 3 6-5 1-9 0-15 1 5 0 12 3 19 1 5 3 2 5 0 6-26 6-60 4-87 5 22 3 47 0 70 3 17 0 28 7 40 12 3-3 5-4 6-5-2-1-5-3-8-5 55-18-13-25-38-27"/><path fill="#EFF7ED" d="M297 361c-16-6-35 10-19 24 6-1 9 11 17 13 9-2 14-7 18-14 4 5 5 8 9 10-4-7-4-16-7-24-4-6-9-2-11-3-2-4 1-5-1-8-3-1-4-1-5-1"/><path fill="#7D9BB2" d="M495 110c-15 4-35 7-49 9 0 1-7 5-8 10 2 9 16 17 26 19 21-20 12-15 31-37"/><path fill="#7899AB" d="M269 396c-5-2-9 15-21 27-7 3-9-10-13-4-1 6-4 12-2 19 3-2 6-1 7-2 3 9 7 15 16 16 8 2 14 0 20-2 8-4 15-8 16-16 2-9-4-13-10-16 3 2 7 3 8 7-2 7-8 9-9 13-14 7-27-3-35 1 1-7 4-11 7-16 8-8 19-5 24-11-5-5-6-12-7-17"/><path fill="#CFD2C7" d="M171 348c5 8 16 18 16 31-5-1-1 5-2 7-8-2-19 3-23-7 2 2 2 5 4 7 14 5 27 17 40 17 1-14 1-32-3-44-7-5-19-2-30-10"/><path fill="#1E283C" d="M364 434c-6 10-16 21-26 26 0 8 1 14 0 21 12 1 24 0 36 1-6-15-4-33-8-48"/><path fill="#CAF0ED" d="M166 108c14 2 28 3 42 7-14 3-25 8-37 11-43-10-58-2-6 6 20-4 53 0 76-8-6-2-14-3-19-5 3-3 10 0 13-2 6-7-18-4-15-9-17 0-34 0-52-1"/><path fill="#B1DBDE" d="M159 108c-18 2-39 2-57 1 7 6 13 9 20 12 14-2 23 1 33 4 45-3 70-13 4-16 4-2 3-2 2-1"/><path fill="#2C2B3D" d="M499 109c-15 16-17 25-25 39-14 13-27 18-41 29 9-2 1 11 1 15 5-1 11-2 16-4 0 5-3 7-3 10 3 2 4 2 6 0-1 5-2 6-4 9 22-26 35-88 50-94"/><path fill="#655663" d="M228 153c3 7 6 15 12 21-11-4-29-8-9 10-2-2-4-4-5-6 16 0 28 3 40 5 8-9 21-5 18-16-5-5-11-8-16-13-2 3 2 10 4 14-15-7-28-11-43-14"/><path fill="#435571" d="M296 438c-1 15-17 20-27 26-9 3-14-2-19-1-10-1-7-19-16-10-4 4 6 15 12 22 7 3 17 8 23 1-2 4-1 8 4 9 14-6 27 8 33-7-4 0-5 2-7 3-4-2-4-4-5-5 0 2-4 4-5 7-9-8-5-3-15-5 6-17 10-9 16-17 6-7 8-14 7-22"/><path fill="#7C6C75" d="M301 346c9 6 17 13 26 18 15 8 30 13 44 19 6 1 10 0 13-2 8-8 14-15 14-24-10 3-17 2-21 9-11 4-18 0-26 0-22-1-39-16-47-18"/><path fill="#87666C" d="M285 168c-1 2 2 5 0 8-49 6 17 21 28 30 5 5 6 11-1 13 9 0 12-9 17-10-10-7-22-22-43-41"/><path fill="#95B9C6" d="M387 153c-22 34 1 28 25 30 4 0 2 4 1 5 15-7 26-18 31-23-2 2-2-5-7-4-6 3-11 7-17 11-1-6 6-6 9-10-1 2-3 2-5 3-2-3-1-5 0-6-3 4-6 10-11 13-9 2-5-2-4-5-8 0-12 7-17 4-4-3-7-10-9-13"/><path fill="#AA9D9A" d="M226 395c-2 3-5 6-8 8-6 15 0 14-4 26-10 2-16-1-21 7-5-1-7-5-10-7 0 2-1 5 2 5 7 7 15 9 20 9 11-1 8-5 9-10 5 0 9-3 13-2 6-6 5-14 8-20-4-8-3-5-5-2-2-6-2-10-2-14"/><path fill="#799BAE" d="M320 427c-2 13-11 13-13 14 3 14 0 29 5 39 7-4 8-10 9-12 6 7-1 5 4 12-3-8 6-5 3-13-10-11 8-29-8-36"/><path fill="#7996AD" d="M379 181c-1 0-1 4-3 2-6 24 3 22 21 17 2 3 0 4 0 5 8-4 14-12 21-17-5-6-24-3-36-8"/><path fill="#65504F" d="M315 279c-5 4-9 9-13 13-1 8 2 12 3 17 3 6 7 7 11 8 9 2 17 3 24-3 2 1 0 1-1 2 3-2 4-4 5-7-1 1-3 1-3 2-6-8-19-2-24-9-3-9 10-14 4-23 1 8-8 9-12 12-3-6 1-8 4-10"/><path fill="#8EB8C4" d="M269 416c2 2-1 3-2 2-14 9-17 10-20 19 8-2 20 7 31 1 17-7 9-25-8-21"/><path fill="#60758C" d="M378 424c-1 2-3 2-4 5-3-2-5-2-4-3 1 18 0 39 5 57 6 0 10-3 10-12-1 2-2 7-8 5-4-8-5-16-2-24 10 5 13 14 15 22-8-22 1-37 3-34-6-18-11-1-14-17"/><path fill="#607891" d="M283 418c7 2 13 10 9 18-5 11-16 14-24 18-9 1-14 0-18-4-4-13-15-11-20-15 0 23 3 1 3 19-1-5 3-1 6-4 5 3 3 10 10 11s16 6 22 0c9-4 15-8 21-12 6-11 4-25-7-31"/><path fill="#45566F" d="M394 413c4 11-3 28 5 35 0 4-3 5-4 7-1-21-1-2-5-16-6 11 0 22 3 30-8 1-7 14-19 15 2 1 3 4 6 3 8 0 1-1 8-7 2 0 1 3 2 4 3-3 2-8 4-11 1 3 3 8 1 12 0-4 3-9 1-13 0-8 3 2 1-5 7 4 9 11 7 17 4-4-2-14 2-14 4 6 2 11 1 14 2-6 3-8 1-12-3 1-11-13-13-2 2-6-4-8-2-12 5 0 13-13 15-19 0-12-4-21-13-24"/><path fill="#E0E9DE" d="M363 225c10 9 21 11 23 13 5 3 11 11 11 15-7 0-3 10-5 14-6 5-12 6-15 11-13 1-21-7-31-3 2 2 3 5 4 7h47c5-12 7-25-1-33-5-12-15-17-22-23-1 4-6 4-8 0"/><path fill="#7E6F78" d="M422 323c-8 0-8 11-17 12-8 3-18-1-22 5 3 1 13-4 8 2-13-3-20 1-32 2 4-1 7 0 8 0 1 3 1 7 2 9 13 1 22-4 32-5 12-6 22-14 23-25"/><path fill="#BBB6AD" d="M399 289c-11 7-26 4-39 3-7 5-1 19-4 22 16 0 33 6 35 13-1-15-17-9-24-17 9-13 27-6 32-18"/><path fill="#343B52" d="M101 111c19 22 39 40 56 63 7-3 12 2 18 0-26-20-48-50-71-60"/><path fill="#91B7C4" d="M306 139c0 6-3 4-8 6-34-9-22-2 1 17-1 11-10 2-11 5 7 6 14 11 20 8-3-6-9-10-11-15 8 4 14-1 18-6-2-6-4-10-7-14"/><path fill="#90B3C2" d="M442 119c-6 2-12 1-17 4-7 6-20 6-21 18 5 1 8-3 11-5 12 0 22 8 27 6 3 2 11 8 18 10 3 1 3-1 4-2 19-19 25-32 1 4-11-9-23-12-27-23 0-7 5-9 7-13h-1v1"/><path fill="#637891" d="M161 175c13 14 28 25 42 36 13 12 25-2 38 7-15-5-16-5-26-9-19-12-24-20-37-30-6-3-10-3-14-5"/><path fill="#D0D6CA" d="M284 339c7 5 37 36 51 46 4 9 4 13 2 18-7 5-14 0-16-3l-1 4 1-3c2 4 3 9 6 13 6 9 11-6 16-5 3-9-1-18-5-26-17-17-37-30-49-47"/><path fill="#908486" d="M420 334c-7 14-21 16-35 18-6 2-9 1-14 3-4-3-3-6-3-9-3-2-9-1-13-3-1 3 3 0 3 4-11 3-21 1-30 4 16 10 42 8 56 5 13-1 17-7 22-6 3-5 13-5 13-14"/><path fill="#AFD8DC" d="M430 152c-9 0-27 6-38 0-7 2-6 3-8 8 8 1 1 10 6 9 7 4 11-3 16-5 6 4-2 9 5 7 9-5 11-14 17-19"/><path fill="#876B6F" d="M435 177c-9 7-19 14-28 23 4-3 3-1 5-5 6 1 15 9 19 11-5 12-15 13-24 14 13 0 25-2 34-13 6-5-1 0-2-2 4-5 5-9 8-13-6-1-11 3-16 4 3-7 2-12 4-17"/><path fill="#ABA09A" d="M397 297c-8 5-20 3-29 10 7 8 18 6 26 12 4 12-14 4-13 10 6 2 9 3 14 2 6 0 7-4 8-7-5-2-6-8-8-11-1-5 3-11 1-16"/><path fill="#383D50" d="M496 114c-9 16-23 47-32 74-2 3-3 4-4 5 1-1 2-2 2-4 3 3 3 4 5 6-1 5-2 7-3 10 1-3 3-5 4-7 9-21 21-56 27-83"/><path fill="#645B69" d="M360 413c-3 5-8 8-12 12 3 0 5-4 7-5 3 4 3 6 2 12-4 3-7 6-9 5-7 4-9 0-11-1 0-4 0-7 4-8-4 0-5-5-8-6-1 4 5 3 2 13 2 7 1 13 3 18 10 1 19-12 24-19 5-5 2-11 5-14-3 2-6-3-5-5"/><path fill="#9C7778" d="M413 197c-6 5-12 11-16 17 2 7 15 6 21 3 21-9 6-15-3-20"/><path fill="#CED5CA" d="M292 316c-3 13 17 22 28 24 18 3 28-6 42-6 6-1 8-4 9-7-5 10-31 4-43 10-15-7-24-12-31-19v-1l-1-1"/><path fill="#7B9AAE" d="M317 152c2 4-7 3-4 7-6 3-11 5-15-1 2 7 8 11 11 16-3 4-6 4-10 2 6 4 10 9 16 12 5-4 0-7-2-10 6 0 11-2 14-8-2-5-6-10-9-16"/><path fill="#372C37" d="M414 278c-4 2-5 5-6 8-4 8-6 15-5 23 0-3 14 0 18-11-1-15 11-3-6-24"/><path fill="#92B9C5" d="M263 388c-9 6-26 20-27 28 4-1 8 13 14 4 5-7 8-13 13-18-1-7-2-10-1-13"/><path fill="#4C3A40" d="M321 278c8 8-6 15-4 21 7 8 18 4 23 12 3-1 0-3 2-4 2 2 3 4 2 5 0-5 4-7 0-11-8-10-16-11-19-23"/><path fill="#DBE5DA" d="M356 320c-9 2-15 7-24 8-11 0-20 2-26-4 9 3 15 14 27 11 11-2 20-6 29-3 7-13 11-14-6-12"/><path fill="#B79892" d="M290 198c3 2 6 4 6 8-2 4-4 6-7 7-17 4-32 0-53-5 9 8 20 10 30 11 22 0 58 3 24-21"/><path fill="#8DB9C7" d="M329 264c-3 5-12 2-16 0-9 5-12 12-15 17-1 8-3 13-2 19 4-9 5-23 18-29 8-4 15-2 21 2 7 7 10 13 12 20 4-9 0-22-15-29"/><path fill="#B9B7AF" d="M291 322c-6 10 4 19 12 23 16 0 43 0 60-9 7 0 9-5 11-8-5 11-27 7-39 13-10 1-17 0-23-3-9-4-16-7-20-15"/><path fill="#63768F" d="M328 170c-3 15-23 0-9 14 0 3-3 8-4 6 6 4 12 9 18 14-2-3-5-7-7-12 6 0 13 5 17 4-4-8-9-17-14-24"/><path fill="#332832" d="M321 271c-2 1-4 1-5 2-20 23-17 15 3 1 19 21 12 15 29 27-2-6-3-13-7-19-4-5-7-8-11-10-4-1-5-2-8-1"/><path fill="#AED8DC" d="M292 123c3 1 6 6 2 7-11 2-18 5-29 5 6 6 12 9 17 13-3-2-6-4-10-6 10 0 19-1 24 2 17 0 4-14-1-19"/><path fill="#DCE6DB" d="M306 232c-5 6-11 11-15 17 6 25-1 55 3 62-2 2 4 4 7 10-5-7-7-15-8-22 1-15 6-25 14-34-6-3-10-12-11-18 1-7 6-9 8-13"/><path fill="#485C75" d="M417 270c-4 1-8 3-10 7-8 13-7 24-10 36 2 6 6 9 10 9 10 2 13-2 17-5-4 2-8 4-14 1-7-2-9-7-8-12 0-12 1-16 6-24 4-9 16-2 16-8 0-4-4-3-5-5"/><path fill="#94BDC9" d="M357 207c-34 6 3 11 11 17 3-5 3-10 5-14-5-4-10-3-17-4"/><path fill="#33384D" d="M196 191c10 10 28 22 44 24-10-8-17-12-21-22-2 4-15-1-21-1"/><path fill="#A79D99" d="M375 326c-2 15-17 12-27 16-15 7-39-1-45 4 7 3 16 6 25 8 25-5 22-11 42-15l3-1-3 1c-3-6 9-3 6-11"/><path fill="#44536D" d="M173 187c14 15 23 22 40 29 5 1 5 3 8 2 27 7 59 10 84 5-30 6-62-8-89-6-17-6-28-18-41-27"/><path fill="#799EB0" d="M348 283c-1 8 2 19-3 31-9 9-15 10-26 8 9-1 12 2 9 5 11-2 17-4 23-8 7-11 3-25-1-34"/><path fill="#665A67" d="M311 350c15 10 32 16 53 16 17-2 23-10 40-14-21 9-36 7-47 10 1-1-31-4-43-11"/><path fill="#D2DACF" d="M303 234c-7 12-18 12-23 24 5 5 11 12 12 19 2 9-6 10-9 18 6 8 8 11 11 15-8-15 4-35-6-58 5-8 10-11 13-16"/><path fill="#A49894" d="M297 345c13 14 31 21 43 35 12 16 5 40-1 48 12-4 11-10 12-11-5-14-4-19-3-32-11-17-36-21-48-40"/><path fill="#B1DADC" d="M275 268c-14-2-15 10-26 12 7-3 53 3 34-1 1-3 0-9-3-10-2-2-3-2-4-2"/><path fill="#4C5265" d="M463 189c-4 17-24 23-34 31 11-1 20-5 29-10 8-15 18-22 4-15"/><path fill="#BEBAB1" d="M400 219c6 6 8 13 11 19 4 10-2 26-2 33 9-5 6-16 11-21-4-13-8-24-19-28"/><path fill="#B1D7DD" d="M446 141c2 5-4 7 3 8-9 8-19 13-32 22 8-3 13-7 19-11 6-1 7 7 9 3-2 3-4 7-6 8 7-3 46-33 22-17-4-6-16-2-15-10"/><path fill="#CED5CA" d="M308 394c-2 0-3 1-4 2-3 5-7 4-9 7-5-3-12 0-14-7-4-1-7 1-6 4 4 3 12 5 19 8 5-1 6-7 10-9 12 20 21 10 2-5"/><path fill="#C8F0EE" d="M422 139c3 2 7 4 11 5-7 3-12 2-18 3-4 0-10-2-7-5-6 5-9 6-18 4-2 1-2 4-3 7 12 3 27-1 38-2 13-6 8-8-2-10"/><path fill="#B39C96" d="M230 179c2 3 4 6 5 9-18-8-8 5 2 11 8-4 7-10 14-14 6-1 10 0 14 0-11-3-23-3-33-6"/><path fill="#4F5E77" d="M327 192c1 5 6 9 8 13-20-14-3-1 2 8 5 0 9-6 14-7-5-3-6-8-9-12-2 8-9-4-13 0"/><path fill="#928384" d="M405 323c-1 2-4 9-8 9-15 1-17-7-19-3 0 1 1 4 0 8 7-1 17-2 26-1 9-4 15-14 2-12"/><path fill="#495971" d="M332 426c0 12-1 32 4 45-6-4-2 10-10 11-3-1-3-5-5-7 0 3 1 7-1 9-4 5-7 4-9 2l4 4c6 0 7-4 6-6 3 1 2 3 3 5 5 1 6-13 10-5 0-3-2-5-2-7 5 1 4 4 4 7 1-4 2-7 1-11 0-6-2-10-1-16 1 1 3 1 5-1-1 1-2-1-4 0-1-11-2-20-3-29"/><path fill="#897D83" d="M385 408c-8 4-10 16-12 17 3-1 1-3 6-3 3 18 6-3 10 10 2-6 3-12 2-19-4 1-5-2-6-4"/><path fill="#222B3D" d="M302 441c-3 5-4 11-7 22 11 0 10 13 13 19-2-14-1-28-4-41"/><path fill="#A27C7B" d="M288 195c7 6 19 12 18 22-49 2-46 8 9 1 3-1 0-7 2-9-10-9-19-4-27-13"/><path fill="#ACD7DB" d="M261 371c-7 21-21 22-23 38 8-4 11-17 22-19 2-6 1-13 4-17"/><path fill="#789BAD" d="M376 452c-3 8-2 16 1 23 6 2 6-3 7-6 5 1 2 3 4 3-3-7-3-14-9-20"/><path fill="#60788F" d="M332 428c-12 18 3 41-8 52 7 2 6-11 10-7-5-13-1-31-4-42"/><path fill="#CAF1EF" d="M284 121c1 3-12 6-21 14 10-5 48-1 24-15"/><path fill="#DAE4D8" d="M304 415c-1 7 1 15 7 21 4-4 9-9 7-13-5-3-9-4-14-6"/><path fill="#948688" d="M233 428c-12 6-19 6-24 17 5 1 13-4 20-2 1-5 1-10 2-15"/><path fill="#5E7891" d="M298 468c0 1-3 3-3 4-4-8-2 3-9 2-3 1-12-1-8-3-2 1-3 3-4 4 9 3 7-1 12 9 4-5 8-6 8-9 1 2 3 2 2 5 9-2 9-12 4-11"/><path fill="#7D9EB4" d="M443 142c-9 2-17 12-20 21 9-3 19-11 22-19"/><path fill="#A9D3D7" d="M274 298c-1 1-9 19-19 21 7-1 13-4 20-5-2-1 10-10 3-18"/><path fill="#706370" d="M355 421c-6 7-11 11-18 8 1 5-2 6 3 8 5 1 10-1 14-4 3-6 3-8 2-11"/><path fill="#334059" d="M401 465c5 2 7 13 4 20 0-6-1-14-6-16-2 2-2 8-2 13-4 3-2-6-3-8-2 19-10-1-9 17 6 0 9-6 18-5l1-1h1l2 1 2-1-2 1c-3-18 4-16-3-19"/><path fill="#C9E9E7" d="M277 264c-12 2-20 5-27 15 9-4 15-15 30-12-1 0 8 7 1 11 15 8 9-7 4-13-3 0-5-1-6 0"/><path fill="#5F7085" d="M424 275c2 2-1 3-2 2 5 8 5 17 4 26-1 7-4 13-9 16 3 0 4-4 7-5 2 5-4 5-4 7 7-2 7-13 9-19 3-8 2-18-3-27"/><path fill="#A9D2D8" d="M285 151c-1 2-3 3-4 5-25-13 5 11 12 11 7-6-4-10-6-15"/><path fill="#C8EFEC" d="M273 142c-20 6-13 1 3 14 3 0 5-2 6-4-2-3-5-7-8-9"/><path fill="#6B829B" d="M373 196c4 22 18 8 19 18 6-5 10-10 15-14-3 2-5 5-9 6-2-1 0-2 0-3-9-1-18-1-21 2-3-3-3-5-3-8"/><path fill="#F0F7F0" d="M281 340c-9 6-17 15-26 19 5 5 9 3 12-1 6-6 12-11 14-17"/><path fill="#5E5B66" d="M458 211c-8 5-17 8-25 11-7-1-2-4-1-6-7 4-18 5-28 5 7 6 19 2 27 3 10-3 17-6 24-12"/><path fill="#9CC5CE" d="M278 296c8 1-2 8 3 11-4 3-5 6-7 6 7 2 10-1 18 1-3-7-6-14-11-18"/><path fill="#687787" d="M254 282c-6 0 15 4 17 6 5 0 11-1 14-5-8-2-18-1-27-2"/><path fill="#8EB7C3" d="M302 312c-8 5 5 13 9 14 12 2 18 4 18-4-8 3-19 1-25-8"/><path fill="#A99F9C" d="M165 404c4 5 6 10 13 10 15 1 19 5 30 3-16 3-29-9-42-12"/><path fill="#BCBBB3" d="M278 404c-8 0 6 9 9 11 7 1 9-1 9-6-4 0-10-3-15-4"/><path fill="#CED4C9" d="M305 409c-5 12 20 8 15 19 3-3 5-6 1-9-5-4-9-7-13-9"/><path fill="#A89E9A" d="M409 227c8 5 8 13 11 20 0 8-7 19-1 22 2-7 4-13 5-19l2 3-1-3c-5 1-2-15-13-22"/><path fill="#333F54" d="M289 420c10 6 8 23 11 25 4-5 6-4 2-20-3-10-5 6-11-4"/><path fill="#483A44" d="M422 288c0 4 3 8 1 13-7 0-6 6-10 7-5 1-8 1-9-3-2 6 0 6 1 9 7 2 15-8 19-12-1-10 4-10-1-11"/><path fill="#7B7079" d="M387 403c-1 0-4 1-2 2-4 4-8 8-12 6 2 6-7 3-5 12 2 1 2 3 3 5 2-3 2-8 12-21 4 1 4 3 5 4 5-2 10-6 2 0-2-3-2-5-3-7"/><path fill="#33425B" d="M298 449c-1 5-3 9-6 14-6 2-11 2-14 5-10 4-4 9-13 12-14 0-25-7-30-18 5 8 9 16 17 18 10 7 10 1 20 6-1-3-5-2-5-4 4-6 7-9 9-13 7-5 13-5 20-4-6-2 3-10 1-14"/><path fill="#CFD1C7" d="M210 364c2 3 1 8 1 13 3 5 4 4 6 5 0-4 4-5 5-6-3-7-8-8-9-11"/><path fill="#E7FBF9" d="M415 138c-16 12 10 6 15 9-3-3-6-6-10-8h-3"/><path fill="#6A7686" d="M287 316c-8 1-18-1-27 5 6 1 12 0 19 0 3-2 16-7 10-7"/><path fill="#E3FBF9" d="M399 134c-4 3-7 7-9 11 3-1 5 3 9 1 1-4 8-12 2-12"/><path fill="#BEBBB1" d="M346 408c-4 2-10 7-14 11 1 2 3 2 5 5 5-4 9-8 9-14"/><path fill="#44526C" d="M431 267c4 15-2 6 0 20-1-7 8-5 12-7-2-3-6-7-9-11"/><path fill="#DAE3D9" d="M166 347c7 8 18 16 18 29 0 4-1 5-3 6-8 1-16 1-19-6 4 12 15 7 21 10 3-7 4-15-3-25-6-5-8-12-11-14"/><path fill="#C9EFEE" d="M259 370c-8 9-13 17-16 26 8-5 12-18 19-25"/><path fill="#938687" d="M422 246c6 8-1 15 0 22 2 3 5 3 5 6 5-4-1-18-4-25"/><path fill="#CBCEC4" d="M160 389c-1 6 9 13 15 14-5-5-7-13-13-15"/><path fill="#AEA7A1" d="M172 395c5 2 13 5 19 7-2 3-5 2-8 2-5-2-8-4-11-6"/><path fill="#776F78" d="M431 313c-7 13 6 8 13 7-4-4-8-5-11-7"/><path fill="#685661" d="M332 208c-10 7-18 11-26 19 15-5 13-9 28-16"/><path fill="#766B78" d="M307 225c-6 4-14 13-22 21 7-6 26-14 21-20"/><path fill="#BBB8AF" d="M305 352c9 12 23 17 32 30 6 7 8 14 9 20-1-8-4-17-9-24-11-10-22-15-30-25"/><path fill="#5D768E" d="M321 472c-2 2-2 6-4 9-5 1-5-3-6-3 0 3-1 6 2 8 7 5 8-7 7-12"/><path fill="#799DB1" d="M287 467c-3 1-8 1-8 5 2 0 3 4 5 1 7 2 9-7 5-7"/><path fill="#CDD3CA" d="M254 359c0 7 8 11 14 12 0-9-9-5-12-11"/><path fill="#3C3949" d="M449 189c1 5-5 9-7 14 2 0 5-2 6-1-4 6-8 9-13 12 6-2 11-6 14-8 14-10-12-2 3-18"/><path fill="#615258" d="M424 303c-5 4-10 13-18 11 4 3 8 3 11 2 5-4 4-8 6-12"/><path fill="#CCEAE9" d="M271 300c-5 5-11 10-14 17 7-4 11-11 16-17"/><path fill="#A7A19C" d="M320 404c3 2-3 5 1 8-5 0-8 0-10-2 6 4 11 5 16 9 4 8-3 13-2 17 3-3 4-6 6-8-1-4-3-5-2-7-9-11-6-12-8-14"/><path fill="#89B1BE" d="M312 468c5-5 9 3 5 7-4 0-8-3-6-6"/><path fill="#B9B6AF" d="M319 415c10 5 1 12 4 17 5-2 3-6 5-8-2-5-5-6-6-7"/><path fill="#9C999A" d="M288 285c-6 2-11 4-10 11 6-1 7-9 12-11"/><path fill="#CDD2C6" d="M355 316c-11 8 22-1 27 4-7-3-17-2-26-4"/><path fill="#33425B" d="M334 477c2 14-15 8-13 12 1 1 11 1 13 0 3-5 2-2 1-11"/><path fill="#CDD2C7" d="M197 419c-7 7-3 10 11 1-4-1-7-1-9 0"/><path fill="#465268" d="M284 416c-3 1 9 3 8 9 1-5 5 1 6-4-2-4-8 0-12-5"/><path fill="#4F424A" d="M408 286c7-1 2 10-2 10-2-3 2-4 0-8"/><path fill="#87AFBC" d="M377 466c3-1 7 4 5 7-4 1-7-1-7-4"/><path fill="#BDE6E8" d="m449 154 2-2c1 2 2 3 5 2-3 5-9 9-9 1"/><path fill="#AFD6DA" d="M296 301c-1 5 0 10 2 14 6-3-1-11 0-13"/><path fill="#3E4151" d="M302 181c10 8 23 18 31 29-3 6-10 6-13 10 5-2 9-4 14-6l2-1v-1l-2-2c-8-11-20-18-29-28"/><path fill="#A89F9A" d="M170 392c4 7 12 14 21 11-9-5-14-2-19-9"/><path fill="#A3CBD1" d="M270 426c1-2 6 2 6 4-5 3-7 2-8-2"/></svg>