<svg xmlns="http://www.w3.org/2000/svg" width="600" height="600"><path fill="#5F6469" d="m457 131 2-2c5 4 5 11 7 17 43-46 14 33 25 32 5 14 13 24 14 35 10 9 19 15 30 17 4 3 1 6 1 8-4 10-13 11-18 17 0 4-3 9-2 14-18 6-29-14-47-8-8 5-11 15-5 19-7-1-10-5-10-8-3 5-7 13-3 20-5 2-9-3-11-6-3 3-5 6-7 9-2 8-2 15-1 20-5 0-11-3-14-7 1 12-7 11-10 23-6 5-4-7-9-9-1 3-4 7-6 11-5 3-4-4-6-4-8 7 0 20-6 28-7 4-4-10-7-2 0 21 3 40 14 55 4 6 7 11 11 16 11 8 22-1 31 4 5 9 16 12 16 23-15 8-41 5-60 5-3-19-20-21-23-32-3 1-4 7-7 4-2-12 1-21-8-28-1 1 1 6-2 6-3-5-7-8-8-12-2 1-1 6-4 7-3-7-3-12-2-18-3 2-4 3-5 5-2-12-1-20 4-27 0-11-15-9-12-16-13-1-19 7-27 12-4 13-6 26-5 40 14 22 3 21 8 35 8 3 14 0 20 2 7 11 18 18 14 29-11 3-22 4-34 3-28-3 9 0-31-6 7-19-8-22-8-37 0 0-3 2-4 1-1-17 6-33-7-45 0 1 1 9-3 3-2-9-5-17-5-25-5 0 1-6-7 0-1-15 19-23 9-28-2-2-7-5-12-5-6-2-8 1-9 5-6 11-8 21-14 29-9 12-21 15-31 21-2 5-5 8-4 13-3 11 2 19 7 26 6 8 15 2 20 6 4 6 12 8 12 15-24 6-19 3-48 5-1-8-14-17-16-33-4-19-10-21-11-38-6 1-11 8-14 13-6 12-10 23-14 34-2 10 14 4 13 16 5 6-1 9-1 13-13 7-26 4-40 5-4-1-6-5-8-6-1-24 15-45 13-65 2-8 7-13 10-19-1 0-3 1-5 0 8-9 17-8 22-16 2-15 8-34 15-59-9 10-14 25-18 15-7 15-10 22-6 33-11-2-16-8-19-14-4 8 0 17 6 23-7 1-10-1-14-3-1 2 0 5 1 7-2 1-4 2-5 1-7-8-16-15-18-25-5-20-6-40-7-60 3-10 5-18 11-23-2-1-5 1-7-1 5-8 10-10 16-13-3-3-7-1-10-3 7-5 11-12 16-15 8-9 19-4 26-2-1-5-8-2-10-5 1-7 6-7 10-9-1-3-4-4-5-7 13-4 26-1 34 5-1-3-2-6-6-9 1-5 4-3 6-4 17 3 29 12 41 21 0-4 1-7 0-13 7 7 13 13 18 19 33-7 63 9 95-2-4 0-7-1-11-3 9-5 17-9 26-10-2-2-5-4-4-6 7-3 14-5 20-3 0-3-2-7-2-8 6 0 9 3 12 4 8-2 6-6 19-3-3-4-5-9-4-14 1-4 3-3 3-6 22 0 38 5 58 0-4-2-9-2-14-3-2-4 1-4 2-5 14-4 28-5 39 0-1-3-3-5-3-7 7-1 11 3 15 5 9-6 14-11 20-16"/><path fill="#24242E" d="M215 317c-51 36-48 30-75 57-3 17 0 13 5 40 7 23 12 15 19 29 6 2 12 4 16 1 3 2 7 2 5-1 1-3 0-4-1-5-7 0 1 4-1 5-7 2-11 1-15-1 1-5 0-8-1-10 7-7 10 3 13-6-8-5-11-14-14-22-2-10 1-14 3-23 11-6 20-9 29-15 11-13 13-28 19-41 23-1 2-2-7-5"/><path fill="#29252C" d="M372 329c-3 4-7 7-11 9 2-15-43 19-27 10 0 4-1 13-5 9 4 4 2 8 4 14-1 2-1-15 5-10-2 8-2 15-1 20 3-3 5 6 8 7 2 11-5-1-5 3-2-2-5-3-4-4l-2-3v-1h1l-1-1c-2 4 0 9-1 13 0-3 1-5 1-8 2 1 3 2 3 4 6-1 8 6 12 7 8 9 9 20 8 29 3 0 3-4 5-5 5 13 22 17 23 33 7 2 9 2 15 1-3 0-6 2-8 0-2-5-3-8-2-12-2-5 0-5 1-9 4 0 8-2 9 2-2-3-3-5 0-8 7-1 6 6 7 3 16 5 2-5 22-1 9 8 13 22 12 22 2-10-7-13-11-21-8-3-15-1-20 0-5-2-6-3-8-4-6-3-9-7-11-10-10-13-16-26-17-38-3 0-4 1-5 2-6-4-8-8-7-13-2 3 0 5-1 9-3 2-5 1-5-2 1-6-3-18 6-21 4-4 7-2 8 1 2 5 1 8 2 12 0-4-1-7 0-10 0-4 1-7 2-9-1 1-1 3-2 5-5-7-10-9-12-14 4-5 15-8 12-8"/><path fill="#656F7A" d="M173 221c-15 5-27 24-34 37 3-2 1 6 6 2-3 13-2 25 5 34 3-1 2-2 3-3 4 1 4 4 5 6 0-3 1-7 4-8 6 6 5 14 15 13 4-2 7-4 9-5 8-17 1-16 4-28 1-2 2-2 4-1-2 0-4 0-7-1 4-1-2-4 2-7 2 1 1-4 6-2s0 9 3 8c12 2-1-7 10-5-3-6-11-3-13-7 2-5 5-4 8-5-4 1-10 2-16 1-6-4-4-7-13-7 3-3 4-1 7-2-8-9 3 1-2-9-1-5 2-7-6-10"/><path fill="#534D54" d="M115 234c-15-1-10 10-22 17-7-4-1-11-10-10-2 2-6 3-7 7-7 7-5 12-6 20 2 0 9-1 12-2-1 25-4 21-7 39-9 5-12-5-12-9-6 2-7 6-12 9 0-13 8-18 0-26-6 14 1 30 0 44 4 18 13 19 18 22 10-1 1-10 11-25 4 8 7 12 17 17 1-5-5-7-1-20 10-16 18-11 25-35-6 7-4-4-8 12-2-7-7 1-9-1-9-15 5 1-1-8-6-1-14 4-17-1-1-12 0-20 5-29 8-10 17-12 24-16 4-3 4-4-1-3"/><path fill="#2D2930" d="M416 254c-4 6-18 6-22 6 1 11-16 4-16 15 6 19-11 11 0 30 0 0-1-2 0-4 6 8 9 2 14 12 3 9-8 14-12 17 5-2 9-5 13-10 1 2 5 5 0 8l6-9c2 3 5 5 6 8 0-3-3-5-5-8s-1-4-1-5c6-7 5-17 11-12-3 2-8-7-12-7-1 5-6 9-6 14-6-5-11-9-12-14-2-8 3-14-2-18 6-6 11-4 11 2-1-3 1-7-1-9 3-3 6-4 9-5 2 5-2 7-3 11 5 7 12 7 16 5 5 6 3 12 2 15 3 7 10 14 17 19-2-8 1-15 4-23 2-4 5-6 6-9 3 3 6 7 10 8-3-7 0-14 3-20 6-7 3 3 6 4 30-32-26-1-25-7-2-10-4-1-6-11-1 1-8 3-10 9-1-4-4-7-2-11"/><path fill="#4F4E57" d="M263 325c2-1 5 1 6 3 0 8-1 12-4 14-4-2-10-5-15-7-4 1-4-1-6-1 5 5-2 4-5 8 2 1 6-2 8-6 5-1 8 1 7 3-7 3-16 9-20 12 5-4 6 6 15 3-1-5 5-1 9-1 3 7 5 6 9 9-2 10-4 7 0 9-4 1-9 6-12 9-1 0 5-4 5 3-4 17 3 26 2 35 3 0-3-7 2-13 6 1 6 9 13 10 6 2 7-1 6-6-1-7 0-9 1-16-5-1-5 5-4 8-3-7-6-9-10-12-1 4-6 10-9 6 0-9 1-18 10-20-2-7-2-14 0-20s7-6 10-8c2 8 4 13 3 20 10-19 17-20 14-26-9 3-17-8-24 1-5-12 13-24-9-17"/><path fill="#413A41" d="M137 266c-14 34-13 37-21 63 5 9-2 8 0 17 2 6-5 0-3 2-6 12-14 11-19 14-3 3 3-3 3 2-3 4-6 5-5 9 2-2 3-5 5-6 4 5 3 9 7 10 0 9-9 4-8 15 7 3 6 0 14 0-4 3-8 7-12 5 4 2 2 7 4 10-1-2-2-5-1-8 3 0 9-9 8 0 0-3 0-4 1-5 8-7 9-13 13-15-8 3 4-7 1-12 2 0-4 7-9 5-2-11-8 1-10-10 4-12 13-6 9-5 0-3 1-6-2-6 3 0 5-2 5-4 4 0 1-20 10-14-6-14 6-18 4-34 7 1 9-11 12-14 2-12-6-7-8-15"/><path fill="#8B8F8C" d="M148 293c-4 9-21 11-11 31 5-6 10-6 15-6 7 4 13 8 8 14 9-1 9-12 18-8 9-10-1-19 10-23-3 4-9 1-10 5-6-2-12-6-12-10-4 0-1 2-4 2-6-6-8-7-13-3"/><path fill="#413F48" d="M400 242c-4 5-6-3-8 5-5-1-12 1-11-3-4 3-6 11-10 13-2 1-2 5-1 7 2 1 4 3 1 3-5 8-10 2-13 0-1 3-1 6-5 7 1 5 3 9 6 9-11 23 14 28 3 35 2-4 3 2 7-2-3-1-1-12-3-16 4-5 6 0 9 0v3l1 2-2 2c4 7-1 6-7 16 11-5 7-15 14-19-3-8-1 5-4 3l-2-3v-1h1l-1-3c-2-2 0-2-2-4 10 2 0-21 7-28-5 3-3-5-6 1 0-3-2-4-4-3 9-3 5-7 12-7 5 5 3 10 7 5 4-10 11-18 11-20"/><path fill="#2A282E" d="M486 131c-4 6-9 10-14 14-2 4-4 0-5 4-2 4-1 7 0 9 1 11-2 20-2 20-11-11-2-27-9-42-7 22-17 18-15 29-2 1-6 2-6 0-3 7 3 14-1 19 7 3 12 6 17 5 9-2 5-4 13-7 4-10 3-11 2-22 3-2 3-4 5-3 3 2 1 10 5 10 2-3 3-5 4-6-4 1-8-11-9-14 6-5 10-10 14-15"/><path fill="#A7AFAC" d="M121 184c6 5 7 13 12 19-48-11 8 12 18 24 3 0 6 0 7-3 0-4-2-7-5-10 4 1 6 3 7 5 4 1 6-1 8-2-8-22-16-17-26-27 7 4 0 15 7 16-6 0-9-4-15-6-4-6-12-14-10-17l1 1h-1"/><path fill="#696D76" d="M103 191c-10-1-9 4 0 6-6 3-14 3-15 7 4 3 9 2 11 7 8 6 6 14 11 19s13 3 16 6c3-4 4-6 6-8-8-5-12 6-17 1 4-11 13-12 19-11-7-11-18-7-24-17 1-3 4-3 7-2-3-1-8-8-5-9-2 2-5 2-7 0"/><path fill="#26262F" d="M251 384c8 13 2 28 0 38 4 2 5-2 8-3-4 18 13 22 10 41 5 3 8 6 13 4-5-6 3-17-8-21 10-5 14 2 20-6-1-6-5-10-5-15 2-5 8 5 4-4-2-4-3-6-6-7 0 3-1 5 1 9 1 3 2 5 1 8-3 6-3-2-6-3 2 3 1 5-2 8-5 0-7-5-10-2-5-5 0-10 3-8-3-2-5 2-8 4 1-4-3-2-6-7-4-12-4-20-7-35"/><path fill="#8C918F" d="M80 213c-2 1-5 0-5 3 4 14-15 5-8 21-4 3-8 4-11 5 3-1 7-1 10-1-1 4-1 11 0 13 8-7 10-14 19-16 2 4 8 2 4 11 9-1 10-8 13-12-2 1-1 7-6 7-5-6-5-10-8-13-1-10 9-23-7-18"/><path fill="#3A3741" d="M241 352c-4 35 17 23 21 76 5-2 6-5 8-5-3 8 5 5 9 10 4 0 5-5 2-8 6 3 5 4 9 7-1-3-5-18-3-25-5 1 0 10-6 10-7-1-12-7-14-12-2 4-1 5-5 6-7-10-4-21-3-29-6 4-6-5-7-2-7-9-5-17-5-25"/><path fill="#CCDAD8" d="M496 224c-10 6-23 2-31 10 14 0 26 7 38 12 15-2 20-16-3-22l-1-1h-1v1"/><path fill="#2F2F39" d="M206 347c5 1-4 12-6 16-8 7-15 9-22 12-4-2-13-1-22-4 0-11 11-16 16-22 5 1 4 3 5 6-2 7-9 5-10 10 2-2 3-6 7-4 5 2 5 6 9 4 10-3 17-6 20-16"/><path fill="#889190" d="M320 242c-9 4-27 10-30 18 3 8 13 8 15 11-2-4-5-7-4-13 11 9 10 6 25 5-2-5 7-19-6-20"/><path fill="#403A42" d="M409 265c7-2-1 5 3 7 15-2 9 0 23-3 2 2 7 4 3 13-7 16-7-7-14 13-4-7-9-11-12-16-3-3-4 3-6 2-4-5-2-11 1-13"/><path fill="#828585" d="M293 441h-3c-3 3 2 6 1 8-13-18-9 8-7 13 9 1-1-8 6-11 6 3 9 7 9 12 3 4 10 2 13 3-1-10-2-19-7-26-4-2-7-1-8-2"/><path fill="#423D45" d="M135 260c-6 7-19 4-26 7 5 16-12 24-6 22 14 4 9-6 20-7-5 3-10 13-5 14 8-5 12-21 16-34"/><path fill="#4F4850" d="M379 306c-2 6-2 13-10 19-2-4-2-7-4-6-3 2-2 6-6 8-3-3-3-8-8-11-9 13 2 11-4 21 13 1 29-11 34-10 16-6 7-23 0-20"/><path fill="#898C89" d="M81 269c-7-1-11 5-16 6-7 10-12 16-13 28 4-3 6-7 10-9 3 3 2 8 5 11 4 0 6 1 7 0 2-7 0-13-1-17 2 0 5 1 8 2-2-4-2-8-4-11 1-4 2-7 4-9"/><path fill="#CCD9D6" d="M470 188c-6 3-16 4-13 14 8 3 16 2 21 2 19 5-1 9 14 10 3-10-3-17-8-22-5-3-9-5-12-5"/><path fill="#282833" d="M92 370c-5 3-12 22-6 18-4 19-15 39-16 60-2-7 5-10 5-16 8-1 14-22 25-23-1 5 3 9 1 14-3 7-8 2-13 7 7 11 5-7 18 1-3-13-2-11-5-20 0-5-2-7-1-11-2 11-7 9-11 12-2-6-4-11 1-15 8-6 12 4 18-4-17 0-9-7-21-1 0-9 2-15 4-21"/><path fill="#544E57" d="M203 300c5 2 8 6 13 8-5 2-10 2-10 8 9 4 20 7 31 7 5-3 8-9 12-12-4-2-6 3-11 1-11-5-16-8-33-11"/><path fill="#463F46" d="M402 427c-4 11-1 6-2 19-3-6-6-5-5-9-9-3-4 9-3 17 7 2 11 2 16 2-6-9 0-5-6-11 7-3 14 5 11 9 6 2 9 1 13 1 1-5-2-8-1-13h2l1 2c-2 3 6 1 7 3-2 2-2 6 0 7 1-1 3 0 4-1 0-5-2-10-5-12-3 2-4 2-5 1-5-4-9-5-10-9l-2 1h1c5 5 6 13 7 17-8-3-12-10-21-11-8-7 10-8-1-10"/><path fill="#30313C" d="M206 347c-5 10-11 17-22 19-6 2-7-7-14-4 6-2 6-10 5-12-6 5-18 10-19 19 11 3 18 5 21 8 8-3 27-15 31-30"/><path fill="#29252C" d="M345 299c2 5 1 10 5 14-5 1-5-5-7-6 2 2 0 7 0 8-7 8-16 11-25 13 5-3 4 5 7 1 0 3 0 5-1 7-7 3-13 7-18 6-2 6-11 12-16 17 4-4 9-7 13-10 10 0 18-5 25-4 3-6 7-13 4-14 9-17 15-6 17-15 3-1 4 0 6 2 1 4 3 5 5 6 5-16 9-7-6-24 7 6 1 11 2 18-7-5-10-11-10-18"/><path fill="#504E58" d="M186 300c8 18-14 25-14 44 8-2 14-6 19-13 2-5 0-7 1-11 4 4 6 6 10 2-4-4-4-7-10-8 2-25 0-2-4-12"/><path fill="#ABB2AC" d="M215 211c15 1 5 12 14 16 0-1 1-3 0-4 2 5 9 3 16 6 6 1 8 0 9-5s-3-6-1-10c-12 1-24-3-35-4"/><path fill="#C77F61" d="M60 245c-5 3-8 7-10 12-7 10 8 14 3 19 8 8 12-16 13-3-2-11 3-14 5-21-1 2-4 3-4 4-5-2 0-14-6-11"/><path fill="#54555E" d="M145 338c5 3-8 11-5 16-7 5-12 5-17 8-10 1-5-10-11-5 2 0 4 0 3 4-4 9-11-2-8 3 3 3 11-6 16 1-8 5 12-1-3 14 32-12 45-20 23-25-1-11 6-11 6-16"/><path fill="#507589" d="M313 299c-5 3-7 15 3 18 2 0 5-1 8-3l2 1-1 1c-3 2-6 7-10 9 0-1 12 1 15-4 2-3 6-6 5-7-6-3-1 0-8 1h-1v-3c1-6 14 1 10-10-4 0-5 3-6 4-5-5-10-9-17-7"/><path fill="#A6694B" d="M106 247c-7 1-12 8-15 13-3 8-4 18-1 23 7 2 15 0 18-5 2-11-7-8-12-11 2-9 9-16 13-19"/><path fill="#C4D0C7" d="M299 240c-8 1-17 11-27 4 2 9 7 18 20 23-7-4-4-10-2-11 9-5 41-19 10-16"/><path fill="#798087" d="M208 211c-16 1-30 0-4 1 3 7-5 17 5 19-1 3 0 7-4 7 5 1 3 1 4-5 2 3 5 4 5 7 6-3-2-7 1-14 8 6 4 10 12 13-2-7-2-15-4-23-8-4-4-3-15-6"/><path fill="#C7D1CE" d="M444 201c0 3-3 0-4 2-2 20-31 13-32 25 4 0 6-2 8-3 5 7 11 9 20 9-2-4 3-6 7-8-6 1-13 2-16-2 10-4 16-18 27-17 3-6-2-6-8-5"/><path fill="#6C6B6E" d="M288 364c-6 7-3-1-6 8-6-6-7 6-11-2 5 8-7 5-8 13-6 17 7 6 5 20 0-6-3-11 2-16 3 4 9 7 8 15 5-10 6-22 8-36"/><path fill="#C7D5CC" d="M388 177c-18 5-8 13-32 12 5 4 3 10 11 11 10-5 47-13 14-12 5-4 8-7 10-11"/><path fill="#39343D" d="M188 425c-6 9-27-3-17 18 4 1 7 0 10 0-1-2-4-8 2-8 4 5 4 13 11 8-1-3-2-5-2-7 7 0 6 7 10 7-2-10-5-15-10-16l-2-2h-1v1"/><path fill="#9A9E9B" d="M93 212c-5 4-2 12-5 18 5 3 4 10 9 13 3-7 7-9 13-9-6-8-6-22-15-22"/><path fill="#ACB2AD" d="M418 226c-9 2-21 4-2 6-4 3-5 5-6 8 9-2 17 6 21 3 6 4-3 3-2 8 10-3 4-11 7-13 8-1 13 3 18 1-4-7-15-2-17-8 3 1-1 5-7 3-7-1-10-3-10-8"/><path fill="#828A8E" d="M464 214c-10 18-21 10-24 18l-1 1h2l-1 1v-3c7 4 10-2 20 2 29-8 42-15 0-17"/><path fill="#9FA4A0" d="M186 213c-10 2-20 7-3 13-2 5 2 8-1 11 12-3-4-12 9-12 11-4 12 7 15 12-5-10-3-17-6-24-4 0-9-1-13-1"/><path fill="#798890" d="M340 214c11 7-1 17 9 22-2 2-3 1-5 1 3 1 4 5 5 9-3 1-4 2-6 3l-1 1 1-1c3 1 4 0 5-2 3-3-1-3 1-5 2 6 20 6 28 5-8-13-14 4-25-14 4-3-4-6-3-8 5-3 15 2 12-4-9-5-8-4-19-7"/><path fill="#3E383F" d="M374 326c0 15-18 4-17 13 5-3 9 9 13 13 0-2 4-2 4-3 3 3 3 5 5 8 6-13-3-22 5-25-7-5-1-5-11-2"/><path fill="#CFDAD7" d="M456 136c-22 13-13 15-30 33 0 16 4 24-4 25 12 2 14-2 26-3-8 0-17-4-18-13 5-17 11-20 23-42"/><path fill="#954B35" d="M147 234c-5 14-12 17-21 22-4 0-5 2-8 1-4-9 3-9-3-12-6-1-9 0-12 1l-1 2 2-1c1-2 3-2 5 1-1 3-4 3-5 6 1-2 3-3 4-4 10 10-3 11 6 14 7 1 10-1 14-2 9-5 20-22 22-26"/><path fill="#70C7CB" d="M267 256c0 3-3 0-4 2 3 2-8 6 1 10-8 2-10 5-16 6 2 4 8 4 10 11 1-10 18-9 15-15 4-7 5-12-4-14"/><path fill="#534D55" d="M347 251c3 5-1 9 7 15-14-4-1 14-16 4 18 29 12 26 20 28-1-1-1-9 2-13-4-2-5-5-8-6 5-12 6-11 5-22-3-2-8-2-9-5"/><path fill="#C78859" d="M129 217c-19 11-9 12 5 8-4 6-5 11-8 14 8 0 6 1 8-7 11 4 11 3 16 4 2-9-5-13-11-16-5-1-7 1-9-1"/><path fill="#35353F" d="M366 354c-11 1-9 13-11 19 1 4 3 6 7 5-2-3-2-6-1-9 1 4 3 10 7 12 7-6 0-14 3-25-2-1-3-2-4-3"/><path fill="#383640" d="M397 273c-6 6-4 9-3 14-5-2-5-6-7-11-3-4-5 0-7 0 1 11 5 21 11 30 12-7 1-15 8-23-3-3-5-5-3-9"/><path fill="#A1A5A5" d="M488 186c-28-3 11 8 5 20 3 9-2 7-3 10 15 9 18 8 29 18 1 0 3-3 5-2-8-7-18-8-24-17-3-3-3-6-5-8 2-10-2-16-7-21"/><path fill="#828585" d="M86 433c-9-1-11 6-14 17 6 2 1-10 8-10 3 3 2 7 3 10 3 2 7 3 12 2-2-6 2-11-2-16-2-3-3-5-6-4"/><path fill="#2A3242" d="M378 399c6 5 7 17 16 22-7 1-5 3-7 8-7-3-10-8-12-12 0-7-4-13 0-16"/><path fill="#6796A5" d="M151 246c5-3 12 1 13 5 3 5 3 10-1 12-6 5-11 1-13-3-3-4-3-9-1-11"/><path fill="#89BBC4" d="M194 226c-1 2-3-1-4 1 0 14-8 14-6 18 11 6 16-4 19-6-1-6-2-13-8-13"/><path fill="#CB925E" d="M405 198c-1 1-2 0-3 1-3 4-10 4-10 7 5 6 9 8 13 10-8-3 31-15-1-19"/><path fill="#443D44" d="M112 233c2 2 11 2 5 6-9 6-22 7-2 4 1 4 6 11 5 14 10-4 14-8 19-10 4-5 1-9 4-11-5 2-13 4-13 14 1-6-8-11-11-14-1-2-4-1-6-2"/><path fill="#578A9D" d="M244 285c3 7-5 2-9 6 6 2-5 5 3 9-3-2-9-5-9 0-1 7 6 7 8 9 4 1 9-12 15-13-3-3-5-6-7-9"/><path fill="#39343B" d="M406 298c1 5-2 10-6 13-2 10 7 9 5 20 4-3 4-12 10-16 1-12-2-19-8-12"/><path fill="#A8B5B2" d="M216 258c8 4-27 2 9 26 8-1-11-4-6-11 3 2 4 3 3 5 12-2 17-5 22-5-2-1 1-2 1-3-11-3-9 6-19 3-6-6-3-12-7-13 2-3 3-3 5-2-2-1-3-1-4 0"/><path fill="#35171A" d="M481 239c-2 0 4 2-1 3-28-2-20 0 0 2-1 3 5 3 7 6-2 1-4-1-6-2 7 3 14 12 20 4 1 6 10 4 10 11 0-2-1-4-2-6 3-3 4-2 6-1-12-7-18-12-34-16"/><path fill="#465665" d="M361 162c1 4-2 6-5 9 4 7 6 14 15 14 2-4 4-3 7-7-12-4-7-16-14-15"/><path fill="#547788" d="M175 272c2-2 5 0 7-1 8 2 6 7 8 10-4 7-9 7-14 6-7-4-7-9-3-14"/><path fill="#5D7785" d="M350 171c-1 3-7 2-3 9 2-1 3-1 7 0-20-1 2 8-14 10-1 4 2 7 3 6 6 2 8-2 11-3 1-3-2-7-1-8 5 0 6 1 8 2-2-2-2-6-6-5 5-3 1-11-4-11"/><path fill="#A9D0D3" d="M394 193c-1 1-2 0-3 1-9 4-16 13-23 13 3 3 8 3 11 5 9-16 30-10 20-20"/><path fill="#A5ABA6" d="M216 226c-2 6 3 9 0 13-3 0-4-2-7-4 1 5 0 5-3 4-3 9 0 10 6 8-2 2-3 2-4 2-3 0-8 2-10 3 3 2 7 3 10 7 6 1 0-5 0-7 4-6 17-2 17-5-3 0-5 0-9-1 2-3 5-2 7-1-4-5-1-11-7-17"/><path fill="#6E7071" d="M185 305c-6 0 3 12-6 16-14 2-17 20-31 21 17-10 13 13 21-1 4-7 5-11 10-18 7-2 4-10 7-9 1-4 0-6-1-7"/><path fill="#BCC6BF" d="M217 248c-2 4-11 3-2 10 13-7 25 7 35-2-8-2-13-7-21-7-4 1-5 3-11-1"/><path fill="#69A5B3" d="M311 181c1 2 3 5 5 7-8 1-14-3-20 1-3 2 4 4 5 5-3 2-7 2-9 5 30 11-6-10 22 3-3-5-5-8-9-10 4-3 6-3 8-3 4 0 5 0 7 1 0-3-3-4-2-5 22 10 24 3 0-2-2 0-3-2-5-1"/><path fill="#43383C" d="M335 363c-5 7-6 2-9 24 4-4 5-4 7-9 3 6 1 12 2 18 1 1 2-3 3-6 1 9 6 8 7 15 5-4 0-10-5-13 16 2-18-13 0-29"/><path fill="#2C3546" d="M379 401c-8 1-4 8-3 13 2 7 5 11 8 14 1-7 6-5 11-6-10-5-12-15-14-19"/><path fill="#517B8E" d="M285 266c1 3 2 6 6 7 0 5-3 6-5 5 4 7-2 14 1 15-2 5-5 0-8 1-3 8 8 7 4 13 1-6 5-7 12-7-2-6-11-9-7-18 4 3 8-2 11 1 3-11-9-10-12-16"/><path fill="#538296" d="M151 321c-2 1-4 1-4 3-12 13 6 3-4 15 5-4 10 1 12-1 9-8 6-17-5-16"/><path fill="#939793" d="M216 282c-2 5-3 3-8 7-1 4 2 3 3 4-5 4-4-1-7 1 2 3 5 8 9 9 9-1 0-13 14-11-3-5-6-8-9-10"/><path fill="#79CBCD" d="M249 230c1 2 1 4 1 7-27-10-10 14 3 18-3-6-1-17 0-24v-1l-1 1"/><path fill="#626068" d="M273 212c-9 2-15 2-23 0 1 1 3 0 5 1-5 7 10 9 4 14 8-8 36-12 17-16"/><path fill="#383742" d="M250 297c3 4-7 7-6 10s9 0 5 5c-6 7-9 12-17 12 3 3 9 1 14 5 12-1 0-7 12-10 3-11-3 8-13 0 2-4 10-12 14-15-3 0-3-5-8-6"/><path fill="#7EB1BC" d="M307 302c-5 3-6 11-13 10 2 12 20 6 19 14 5-4 7-9 13-11-5-1-8 5-10 5-4-4-12-10-7-17"/><path fill="#848787" d="M98 430c-7 6 5 14 2 21 4 2 6 0 9 1 3-7-2-12-2-18-3-3-4-4-6-4"/><path fill="#7F8180" d="M280 350c-2 1-4 2-7 1-1 8-4 17 0 20 4-6 6 2 8 0 3-9 1-15 0-21"/><path fill="#C1CDC6" d="M327 204c1 10 6 18 12 26 5-7 1-6-2-13 1-7 8-4 10-3-4-7-11-8-17-11"/><path fill="#434F5F" d="M412 164c-1 3-5 3-7 2-11 3-10 3-17 9 14-4 28 1 31 2-3-5 6-13-7-11"/><path fill="#536776" d="M250 352c1 3-1 5-3 7 1 3 5-6 8-4 2 4-1 7-4 9-1 7 4 10 3 15 8-6 10-6 11-14-16-1 1-8-13-13"/><path fill="#363945" d="M188 296c-1 2-3 3-4 5 1-2 2-3 4-4 3 3 0 6 2 9 0-2-1-8 3-8-1 10-1 12 1 15 2 2 2-14 12-7-2 2-2 11-9 9 3 1 2 5 6 6-4 5-8 5-9 0 0 6 1 11-6 14 5-4 9-8 15-11 3-3 5-4 7-5-2 1-5 0-5-2 0-3 1-5 2-7 5 0 7 0 8-1-11-5-9-11-26-12"/><path fill="#568194" d="M330 272c-6 7-14 7-23 7-1 2 39 21 23-6"/><path fill="#4D7487" d="M255 229c-4 8-3 19 0 24 4-3 10 0 16 0-5-7-14-12-14-22"/><path fill="#313947" d="M201 326c20-8 9 13 2 17-6-3-6-8-4-11v-3l1-1h2"/><path fill="#6CA7B6" d="M154 248c-5 1-6 6-4 9 3 3 6 9 12 5 3-2 5-5 3-8-4-3-4-8-10-6"/><path fill="#79C1C7" d="M274 276c0 5 5 9 7 12-4 2-5 9-10 5 0 8 7 15 16 16-5-4-5-7-10-11 1-8 6-3 9-2 1-4-3-4-3-5 1-3 1-1 2-2-1-2 4-6 0-8-3-3-6-3-8-5"/><path fill="#A7AAA8" d="M452 244c-4 3 8 5 11 4-1 4-4 4-7 3 14 3 30 7 44 15-14-11-29-19-45-22"/><path fill="#527B8D" d="M323 216c-8-1-8 5-1 7-4 1-7 1-9 0 5 3 9 5 9 9-9-3-14-13-9 0 4 3 0 5 13 4 1-1 0-2 0-4 2 0 3-8 7-6-2-3-4-8-9-9"/><path fill="#25222A" d="M335 261c-2 10-3 19 2 25-4 2-8 6-11 4 8 2 12 6 17 11-4-5-4-22 2-23-7-5-9-11-9-14"/><path fill="#79B5BE" d="M419 156c-8 11-33 4-39 11 0 2 0 8 7 6 1-10 30-7 36-14"/><path fill="#4D5F6D" d="M364 272c2-1 5-1 7 3 4 10-2 15-1 14-5 0-7-4-9-7-1-5 0-7 1-10"/><path fill="#303746" d="M485 134c-4 4-12 10-17 14 6-8 5 7 11 11 4-6 5-15 8-24"/><path fill="#504951" d="M419 271c-2 1-4 3-6 4 1 7 7 12 10 18 3-3 5-6 6-9-3-7-9-8-10-13"/><path fill="#3F3C44" d="M344 319c-10 7-12 15-11 18 9-9 8 9 20-3-1-1-5 4-6 4 4-11-3-6-1-18"/><path fill="#CEDAD8" d="M460 211c-6 11-20 3-26 13 8-3 14 3 20 0 3-5 9-9 10-12"/><path fill="#4A434B" d="M408 432c-13 7 13 12 14 19 0-2 1-11-4-15-3-3-5-4-8-3"/><path fill="#BCDBDA" d="M296 212c5 6 10 20 18 26-2-5-9-8-7-13 3-3 5-1 7 0-2-1-3-2-4-3 6 0-1-5 7-6-5-4-12-3-18-3"/><path fill="#548094" d="M177 272c-10 7-3 5-4 12 6 2 11 2 13-2 2-3 1-5 2-6-4-3-6-4-10-3"/><path fill="#838686" d="M306 438c4 8 12 15 13 24 2 3 0-2 4 0 0-7-2-13-4-18-4-5-7-6-12-5"/><path fill="#858888" d="M176 250h2c-4 5 2 3 8 9-3 3-6 6-10 5-12-3-5-9-5-14"/><path fill="#435263" d="M99 411c-6 3-17 13-17 21 3-2 12-10 16-7 4-5 0-8 2-13"/><path fill="#56879B" d="M160 343c-3 2-9-1-12 1-6 8 1 7 0 10 3 1 6 3 8 1 8-5 5-7 5-11"/><path fill="#465767" d="M96 368c-5 6-7 12-9 19 6-3 9-1 15-6 1-4-4-7-3-13"/><path fill="#3D3740" d="M427 268c-2 1-3 11-6 6v-2 2c5 4 10 9 12 14 5-3 4-10 6-15-4-3-5-5-10 1-3-3-3-4-3-5"/><path fill="#6B6C73" d="M436 239c3-2 2 8 1 13 1 2 1-1 13-1-2 2-4 4-7 5 3-1 6-2 8 2-1-2-1-7 1-7 1-2-9-7-2-9-4-2-8-4-11-4"/><path fill="#9CB4B9" d="M264 313c-9 0 1 5 3 7 8-1 18 3 19 1-2-6-14-6-20-9"/><path fill="#8BB4BD" d="M198 272c-13 0-2 16 4 17 5-4-1-10 1-15-2 0-2-4-4-2"/><path fill="#516777" d="M334 223c-5 8-10 7-5 15-6-1-8-3-10 0-1 8 12 2 8 12 1-8 2-16 10-13 2-6-4-9-4-11"/><path fill="#55889B" d="M123 346c-4 0-5 3-6 6-1 2 0 4 1 6 5 3 8 1 10-2 2-5 2-12-3-10"/><path fill="#C2D1CA" d="M357 196c-31 8 0 14 11 7-4 0-7-2-9-6"/><path fill="#425363" d="M292 285c-2 1-5 2-2 4 2 4 5 7 9 7-4 8-15 3-13 10 2 1 5 6 8 4 6-3-6-1-3-4 4-2 7-6 10-8-6-6 4-2 4-5-9-1 0-6-15-7"/><path fill="#504B53" d="M452 251c-4 0-4 2-7 3h-4l1 2-3 1c-3 4-11 6-9 13 8-9 14-5 22-9 0-3-5-7-10-3 2-5 13-9 12-7"/><path fill="#43505F" d="M295 318c-1 1 5 2 5 5-12-1-18 4-5 3 4 2 3 7-1 5 4 1 6-2 15 1 3 5-2 7-4 8 5 0 5-9 11-9-9 0-5-10-20-11"/><path fill="#6DC5C8" d="M233 259c-3 1-7 1-10 2 1 6 2 7 5 9 6 3 6-1 8-3 2-3 1-6-1-8"/><path fill="#8A8C8B" d="M346 252c-10 5-9 5-10 10 1 2 3 6 6 8 3 0 1-5-1-6 4 0 7 1 9 2-1-4-5-8-4-12"/><path fill="#4D464F" d="M107 251c-5 6-8 8-8 14 6 2 11 2 15-1-3 1-6 0-6-3 6-2 3-7 1-9"/><path fill="#7B584D" d="M95 267c1 2 7 3 11 5-1 4-2 6-4 7-4 2-7 1-9-1-1-5 0-7 1-8"/><path fill="#BCDCDD" d="M382 162c-18 0-13 11-1 16 6-3-5-8-2-11 15 5-6-10 20-4-7-2-12-1-16-2"/><path fill="#91B6BB" d="M343 162c11 3 4 6-4 3-1 6 1 9 3 12 0-7 26-11 3-17"/><path fill="#88B8C1" d="M239 277c-1 2 0 3 2 4l2 3v3c-9 0-14 6-22 9 2 5 5 8 9 10-4-2-3-5-1-7 3-3 5-1 6 1-5-6 5-6-2-8 5-3 8-6 11-3v-1l-1-1v-3l-1-3c8-3 6-3-2-4"/><path fill="#252530" d="M193 283c-3 3-4 7-5 11 11 1 16 8 24 14-11-8-8-13-19-24"/><path fill="#525059" d="M398 227c-5 5-8 14-15 18 9 1 14-9 21-9-8-2 3-9-5-7"/><path fill="#635E66" d="M488 133c-1 14-8 28-9 40 8-12 10-26 9-38"/><path fill="#41596B" d="M255 282c-14-2-11 8 0 12-3-3 10-5 5-9 4 3 4 0 7 0-3 1-4-1-5-3-3 6-8-1-8-1"/><path fill="#B0B8B2" d="m310 292-2 1c-6 2-9 9-14 12-1-7 39-9 22-15"/><path fill="#4D6E82" d="M346 286c-1 12 3 16 7 28 8-10-8-15-3-27"/><path fill="#7E8B91" d="M458 209c-15-2-15 8-25 11 7-5 26-1 28-13"/><path fill="#66666A" d="m134 361 1-1c5 1 10 1 11 6-15 3-20 6-12-4"/><path fill="#323B4A" d="M203 325c-1 2-1 4-3 4-2 5-2 10 0 12 0-12 22-6 6-18"/><path fill="#3D3A43" d="M310 327c0 7 5-2 8 3-24 13 0 14 8 1-4-2-11-5-16-1"/><path fill="#616870" d="M417 182c-17 14-3 13 14 19-3-1-5-3-7-4-3-3-6-7-2-8-4-4-4 2-6 3 0-6 5-8-2-8"/><path fill="#8FB5BC" d="M312 193c3 4 8 9 11 13-1-7 5-8 4-12-3-3-8-1-12-2"/><path fill="#21212A" d="M527 229c2 2 1 2 5 3-5 4-11 5-12 6 2 6 5 6 8 6 4-2 6-5 7-9-3-3-4-3-6-5"/><path fill="#51525B" d="M332 237c-3 6-5 27-5 36 12-15-3-35 9-34"/><path fill="#4D6D80" d="M266 326c-5 2-10 2-13 6 9 4 16 14 13-6"/><path fill="#545059" d="M140 259c-4 4-8 14-2 14 6 2 5-4 5-8 2-6-3 0-2-5"/><path fill="#676A72" d="M397 213c1 3 3 8 9 6-16 21 10-8 16-1-11-2-1-4-26-2"/><path fill="#81BAC2" d="M400 175c-21 7-5 7 7 3 7 0 11 4 16 7-2-7-11-9-18-9l-3-1h-1v1"/><path fill="#AEDFE1" d="M263 256c-6 1-11 2-16 5 5 3 10 6 15 8-3-2-2-5-2-7s10-8 6-6"/><path fill="#4F6575" d="M110 356c-1 2-3 4-3 6 12-5 0 12 12 9 4-10-8-5-5-14"/><path fill="#5A7889" d="M280 324c-6 9 10 7 4 13 9 1 3-9 11-6-4-2-8-4-12-7"/><path fill="#ACCBCE" d="M395 150c-22 3 1 3 6 10-2-4 2-11 6-9-1-2-8-1-11-1"/><path fill="#AFC8C5" d="M234 225c-1 4 1 6 2 8 5 2 9 4 13 3 1-9-10-6-13-8"/><path fill="#81B5BF" d="m344 207 8 8c4 1 5-2 7-1 0-4 1-6 0-7-6-2-9 1-13 0"/><path fill="#415768" d="M271 304c-8 9 9 10 17 9-9-3-7-3-14-9"/><path fill="#8C8F8E" d="M396 218c-4 2-8 3-12 4 12 8 31-4 12-4"/><path fill="#909091" d="M452 251c-4 10 16 7 28 6-12 2-13-7-27-4"/><path fill="#8FB9C0" d="M352 226c0 1 4 5 3 8 15 4 4-7 12-4-3-4-9-4-13-4"/><path fill="#ABB3AE" d="M293 265c-11 6 25 6 17 11 8 0 14 0 13-7-2 3-23 5-29-3"/><path fill="#53788A" d="M367 274c-4 1-4 4-3 8 2 3 4 4 5 5 3-5 4-11-1-13"/><path fill="#3C4C5C" d="M95 396c-5 2-8 6-5 11 6 2 10-7 7-12"/><path fill="#504951" d="M368 297c-3 6 3 13-1 18 4-2 6-5 7-8 2-6-2-6-4-8"/><path fill="#597F8F" d="M127 186c4 5 3 13 12 12 2-4-1-7-4-9-4-2-1-2-7-3"/><path fill="#C47951" d="M366 219c-7 3 5 14 11 12-6-3 1-6-10-12"/><path fill="#83D2D4" d="M285 229c-4 3 2 3 4 11 9-2 5-2 1-4 7 2 11 1 17 0-5 0-14-2-19-7"/><path fill="#4B434B" d="M417 431c5 5 12 15 16 8-3-4-7-10-15-7"/><path fill="#4D545E" d="M471 157c-4 2-6 13 2 13 1 2 2 3 3 4 6 5 11-1 15 0-6 0-8 0-12 1 2-7-12-8-7-17"/><path fill="#ACD7D8" d="M289 198c-5 2-9 2-13 5 3 4 8 2 12 1 2-2 3-8 3-6"/><path fill="#A2DADB" d="M269 287c-9 0 1 10 4 12 0-1-3-3-4-5 7 2 6-4 12-4-4-2-6-4-11-3"/><path fill="#3A4D5F" d="M281 261c-6 3-2 9-5 11 4 9 8-4 14 3-7-5-8-5-7-12"/><path fill="#9B583C" d="M360 254c2 3 3 6 5 9-2 2-4 2-7 1 6 5 5 6 12 4-3-4 1-14-9-12"/><path fill="#82BAC3" d="M400 182c-4 4-16 2 6 8-1-4 3-7 7-7-5-1-9-1-12-1"/><path fill="#424F61" d="M108 396c-3 0-3 3-6 4 2 5 1 11 1 17 5-9 6-8 4-20"/><path fill="#393E4E" d="M298 205c-7 0-5 4-6 8 7-5 16-6 22-5-3-3-8 0-14-4"/><path fill="#4B4B55" d="M411 244c-9 23 6 4 12 4-3-3-7-1-10-4"/><path fill="#4F606F" d="m306 332-6 3c-3 2-6 3-4 6 4 0 17-2 12-9"/><path fill="#626974" d="M439 203c-11-1-15 9-25 8 4 2 13-1 14 1 4-2 6-4 8-8"/><path fill="#A6B5B2" d="M368 233c-2 3-9 3-13 2 4 9 29 5 15-2"/><path fill="#636872" d="M474 179c-26 12-1 4 11 4-4-5-8-2-11-4"/><path fill="#BDC6BE" d="M303 259c-1 4 1 7 4 9 4 4 8 2 10 3 3-3 2-4 3-5-5 3-12 0-15-4"/><path fill="#667683" d="M388 213c-24 3-8 7 9 3-4-5-8-2-11-2"/><path fill="#904D39" d="M365 218c-3 1 6-2 8 5-3 6 14 8 2 10 4 0 7-2 9-3-1-7-12-6-16-13"/><path fill="#744732" d="M143 285c0 9-11 15-12 16 6-1 8-3 12-2 0-6 6-8 1-12"/><path fill="#425565" d="M431 150c-1 3-4 2-5 5 6-1-1 5-2 13-2 9 1 10 0 15 1-4 0-9 0-13 4-7 8-10 11-14s-10 2-2-5"/><path fill="#33313B" d="M335 298c3 7 7 6 6 19-4 1-5 5-7 5 2-1 4-3 6-4 3-2 1-7 3-10 4 1 3 12 4 8 0-6-3-10-1-15-4 5-5-3-8-4"/><path fill="#3D4F60" d="M280 231c0 4-5 1-5 3-1 3-2 6-1 8 6 2 5-2 9-2-2-2-3-5-2-8"/><path fill="#474048" d="M379 340c2 1 4 11 1 14-1-3-8-8-4-12"/><path fill="#47687D" d="M404 286c-8 4-5 3 4 12 2-2 3-5 4-8-4-5-5 4-9-2"/><path fill="#55798B" d="M408 244c-8 1-2 13-9 14 1-1 4-1 7 0 6-7-2-11 4-14"/><path fill="#45444D" d="M341 321c9 0-1 11-6 10-1-4 2-5 5-7"/><path fill="#A6ACA8" d="M335 246c-1 4-3 9 2 13 1-3 2-7 7-7-3-2-5-4-8-5"/><path fill="#667A88" d="M459 191c-9 3-16 0-17 7 2 1 6-2 10 1 0-3 4-5 4-7"/><path fill="#9EC1C7" d="M171 200c5 4-5 7 1 12 3 1 5 0 8-1-2-5-5-7-8-9"/><path fill="#77533E" d="M132 345c0 4 1 9-3 12 3 2 5-1 8 0 0-7 2-11-3-10"/><path fill="#93ADB3" d="M274 220c-4 13 7 7 11 2-3 0-5-2-9-1"/><path fill="#C18F54" d="M201 267c-8 3 11 3 3 11 3-1 5-2 8-1-3-5-5-9-8-11"/><path fill="#3B373F" d="M330 344c-1 1-4 4-5 2 1 2 3 3 5 1-5 5 0 9 1 9 1 2 7-9 2-6 5-3 2-9-2-4"/><path fill="#BB9A64" d="M316 254c4-3 7 6 5 8-4 2-7 0-7-1l-1-3v-1h2"/><path fill="#403B44" d="M411 266c-5 3-8 8-5 14 8-4 3-3 10-9-1 2-3 2-5 3-2-4-2-5 0-7"/><path fill="#464A57" d="M287 212c-8 7-3 5-13 7 24 4 4-4 18-5 3 7-7 7-8 12 6-1 18-8 11-11-2-3-5-3-6-2"/><path fill="#476475" d="M302 280c-1 6-9 2-12 3-2 1 23 12 11-2"/><path fill="#90B9BF" d="M266 234c-11 0 4 13 5 6-1-1 2-4 0-6h-2l-1 1v-1"/><path fill="#A6B3B1" d="M339 214c-4 6 10 14 0 17 3 3 5 5 9 6-5-6-7-26-5-23"/><path fill="#538395" d="M275 270c1 3-10 8-16 11 4 2 9 3 12 2-1-7 2-7 4-12"/><path fill="#474B57" d="M400 240c1 14-4 4-5 20 4-3 11-12 6-18"/><path fill="#6FB2BD" d="M319 215c-5 2-5 4-8 6 6 4 1 8 10 13-1-6-2-7-7-9 3-1 6-1 8 0-2-3-9-4-5-9"/><path fill="#3C485A" d="M316 202c-1 4-5-1 0 7-33 0 8 1 9 6-17-10-1-8-6-12"/><path fill="#403B43" d="M429 255c-2 1-5 0-6 3-2 1-5 3-5 4 12-14 17 13 15-10"/><path fill="#29262E" d="M244 319h1c3 2 7 0 9 1-3 0 5 7-9 9-15-5-15-5 1 1 6-5 13-5 19-9-3-6-4-2-8 0-1-4-8-2-10-3"/><path fill="#405363" d="M301 273c1 5 2 11 6 14 2 0 5-1 9 0-17-5-6-13-13-11"/><path fill="#363C4C" d="M457 132c0 9 4 17 3 27-2-10 6-12 1-21-1-1-1-3-2-5"/><path fill="#554A52" d="M96 270c-4 4-2 10 4 8 1-1 4-2 5-3-4 2-5-4-7-4"/><path fill="#4F6878" d="M134 319c5 16-14 3-7 13 5 6 5-8 10-1 0-9 5-6-3-9"/><path fill="#4E535F" d="M337 334c-2 3-6 6-7 9 10-4 15-2 9-8"/><path fill="#A1A8A8" d="M482 222c-7 3 9 7 12 2-4-3-6-2-9-2"/><path fill="#868886" d="M124 334c-3 3-1 11 5 8 4-5-1-7-3-8"/><path fill="#878989" d="M108 432c4 4 4 16 6 19 1-8 1-15-4-19"/><path fill="#A4ACA9" d="M228 230c-5 7 7 19 6 19 1-2-3-11-5-18"/><path fill="#7F5A43" d="M276 329c-5 2-5 7-6 10 8 0 8-5 6-10"/><path fill="#A0B7BC" d="M405 148c0 4 3 4 19 9-8-7-13-6-19-9"/><path fill="#714B39" d="M256 297c-2 8 8 7 13 6-3-6-7 2-10-5"/><path fill="#272733" d="M201 306c-6 0-2 14-8 5 0 3 3 4 5 3 5-3 8-10 5-8"/><path fill="#472A21" d="M356 395c4 2-3 7 0 10-4-1-4-3-5-5 0-3 2-5 2-3"/><path fill="#535964" d="M468 172c-3 16 0 5 11 7-3-1-6-6-10-5"/><path fill="#547486" d="M261 290c-8 2 0 6 2 9 4-7 2-5 0-8"/><path fill="#5C616B" d="M360 206c1 5 1 10-5 10 3 2 4 3 7 2-10-15 17-2 0-13"/><path fill="#2A2224" d="M406 445c0 4 4 6 4 10 1-1 1 3 3 2 5-1 7 0 9 1-2-2-5-2-7-1-2-6-3-10-7-12"/><path fill="#8C908E" d="M170 251c6 4-3 7 2 10 4 4 9 2 12-1-5-5-5-5 1-1-3 5-6 3-9 1-5-5 2-5 0-8 0-1-2 0-3-1"/><path fill="#4A444D" d="M260 409c3 1 3 9 8 11-8 2-7-5-8-9"/><path fill="#2A2224" d="M426 443c-2 5 5 8 3 13 3 2 5-2 8-1-8-3-7-9-10-11"/><path fill="#88B7C2" d="m208 280-1 1c-1 1 1 4 2 4 7 0 6-8 1-6"/><path fill="#646972" d="M240 264c-6 9 15 4 12 3-4-1-10-3-11-2"/><path fill="#88AAB2" d="M343 238c2 5-5 7 0 9 7 0 5-4 3-8"/><path fill="#999D98" d="M175 255c-3 5 4 9 8 5-1-3-3-4-5-5"/><path fill="#495867" d="M406 154c-4 1-4 4-1 7 3-5 12-7 2-8"/><path fill="#8C8D89" d="M48 265c-1 6-1 11 0 17 4-5 5-10 0-14"/><path fill="#A9ABA5" d="M63 235c-4 1-7 3-10 6 4 0 15-3 12-7"/><path fill="#C3E2E3" d="M297 230c-12-1 3 6 6 4 1-5-3-4-4-5"/><path fill="#4B6F83" d="M260 307c-10 5 9 5 8 1-3-1-5-2-6-1"/><path fill="#9FA39F" d="M112 191c3 5 7 8 13 7-6-4-4-7-12-5"/><path fill="#62636A" d="M136 303c-3 2-5 4-6 6 1 4 1 8 3 8 0-5 0-9 2-13"/><path fill="#D2A054" d="M318 255c-5 1-4 8 1 8 1-3 2-6 1-8"/><path fill="#444D5A" d="M388 228c-4 6-1 4-3 12 3-4 6-12 7-13"/><path fill="#4B4A54" d="M342 321c-2 4-6 5-8 8 4 1 12-2 10-6"/><path fill="#423A40" d="M75 330c-1 7 3 18 7 17-2-6-6-8-6-18"/><path fill="#65727E" d="M369 215c3 2 7 6 11 7 6-2 10-2 14-4-11 2-18-1-23-3"/><path fill="#4A444C" d="M380 341c-7 3-3 8-1 12 3-2 1-5 0-11"/><path fill="#312931" d="M461 262c6-1-5 7-2 11-2-3-4-7 0-9"/><path fill="#4D6B7F" d="M130 320c-4 3-3 2-3 9 2-3 13-3 4-10"/><path fill="#403A40" d="M303 341c-1 5-4 1-5 1 7 8-5 4-6 14 4 0 10-9 13-14"/></svg>