<svg xmlns="http://www.w3.org/2000/svg" width="600" height="600"><path fill="#777269" d="m440 117 2-1c9-1 19 1 25 8 3 10-1 18-7 21 7-2 12-10 9-18 9-1 9 6 8 11-3 7-7 9-11 11-12 6-14-3-20-3-7-3-6-6-4-9-8 2-11 7-14 13-6 32 9-8 1 34 9 0 5-11 15-12 0 7-5 12-8 14 3 12 5 30 13 38-5 8-4 14-6 18-14 11-15 28-31 35-3 12-1 0 4 4-3 11-9 2-7 11-2 10 1 17 3 24 13 10 26 14 35 26 11 9 18 17 22 28 4 8 5 15 4 23-8-3-15-9-20-12 4 21 12 40 12 62-7-11-10-26-19-39-5-1-8-7-11-10-1 2 2 8-2 9-10-6-17-11-24-17-3 22-17 37-21 57-1 7 4 10 7 11 15 1 25 6 37 6 4 5 11 11 10 17-27 3-50-3-74 5-4-5-8-6-8-10 0-9 8-10 6-19-2-7-9-9-15-8-21 9-45-2-61 7-1 5 1 9 5 9 14 4 27 3 38 9 6 4 9 7 8 13-12-3-26 2-37 0-5 3-8 5-11 7-6-3-15-1-19-7-11 1-23-2-29 4-7-4-3-13-4-12 5-10 15-8 22-11 2-5 6-6 4-10-1-14-15-23-18-32-15 7-29 10-44 10-3 0-5-1-5-3 5-4 8-6 11-9-10 0-21 1-29-4-2 10-4 18-5 27-10-13-9-27-8-40-11 6-12 15-19 21-2-14-2-26 2-36 4-14 10-25 17-35 14-15 34-17 47-31-19 10-41 13-62 20-12 7-24 13-31 23-3-1-3-4-2-6 7-9 14-18 22-24 16-11 29-19 44-25-7-12-7-24-5-36 2-9 7-12 12-16 4-4 7-5 12-4 2 2 6 3 4 6 2 15-14 14-20 21 0 7 5 11 8 14 7 2 12 4 18 3 8-6 15-14 21-22 5-9 3-20 9-26-1 17 10 19 9 36 8-26-7-61 9-87 1-6 1-11 4-13 2 6-1 10-1 15 16-17 21-39 40-55 10-7 18-15 30-14-9 7-22 20-21 27 19-6 26-21 37-28 14-1-4 8 3 9 13-6 25-7 35-12 1 5-2 7-4 10 18-3 32-18 50-22"/><path fill="#E3E7D6" d="M369 319c-13 5-25 17-31 30-6-16-17-11-15-18-16 1-20 13-31 18-2 6-5 5-5 11 5-8 1 4 10-6-1 8-2 14-4 19 2-1 3-3 4-5 2 5 3 8 4 12 3 0 3-4 4-4 11 1 13 5 20 9 8 3 14-3 19-2 11-10 24-19 36-19 19-18 7-54-11-43"/><path fill="#323947" d="M256 300c-14 7-11 25-24 36 12-16 11 4 17-6-2 11-10 11-9 22-1 10 3 21 0 29-1 8 7 8 11 18l2 2v1l-1 2c-7-3-5 1-8 4 2 13 5 9 9 16 4-6 3-21-1-19 7 5 20-7 20 7 1-6 1-9 2-12-2 21-13 8-17 30 2 6 10 8 9 12 6 0 16 4 23 4-5-3-7-4-3-9 4-2 6-6 10-2-7-9-10-15-14-22-3-9 4-6-4-13 2 4 3 8 3 12-2 0-3-1-3-3 6-42-7-22 9-61-4 13-6 7-9 13-16-5-15-21-23-20 1-10 8-16 10-23 7-1 13 1 18 0-1-5-4-8-1-11 10 6 6-1 20 5-6-3-12-6-18-8-10 5-3 6 0 13-10 1-17 1-21-6 2-5 0-8 4-7-4-4-5-2-11-2"/><path fill="#F29D56" d="M444 117c-5 1-9 1-13 3-15 5-26 15-39 20-5 1-6-1-8 1 1-5 5-7 7-11-5 1-9 5-15 5-9 0-11 6-21 6-6-3 3-7 1-9-16 11-9 12-27 21 10-10 22-6 32-12 6 2-4 8 1 8 0-12 12-6 12-13 7 2 3 10 12 9 14-2 23-15 35-15 9 7-7 30-8 48 6 5 0 16 8 16-3-6 1-15 3-20l3 1h1v2l1 1c-3 5 1 10-4 13 3 1 6-1 9 1 2 9 4 39-2 57-4 3-5 6-8 7-4 0-2-3-3-5-1 1-3 1-5 2l-1 2h-1l-1-2c-2-12 2-22 7-31-2-10-6 2-9-3-4-15-9-29-21-37 7 10 20 26 17 39 1 3 1 8 2 14-4-2-3-6-5-10 0 6 1 12 2 17 3 0 3-3 2-5 1-6-1-10 1-13 2 18-1 31 0 45 3 3 3-10 5-13 5 0 6 5 9 1 1 10-7 15-14 19-1 18-7 9-4 19 0-6 5-11 4-17 18-9 19-27 33-35-1-9 4-15 5-22-12-11-6-40-18-42-6-10 6-13 1-19-2 3 0 7-4 10-3-1-2-4-4-6 2-13 8-22 15-27 4-2 5-3 6-4-1 5-2 11 3 11 7 1 14 0 17-4 4-4 3-8 3-12-4-9-12-11-20-12"/><path fill="#F9DA8C" d="M418 131c-11 3-19 12-30 15-6 1-14-5-8-9-10 6-16 4-22 6-16 1-32 16-28 10 16 1 10 10 24 3-2 6-10 11-9 14 16-6 27-7 31-13-9 4-20-3-31-2 1-5 5-8 11-10 0 7 9 2 15 6 20-2 11 8 20 2h2l-1 1v2l-1 2c-4 3-9 6-14 7 12 13 23 23 30 37-6-13-15-26-26-35 4-5 7-6 9-10-7 10 8 17 9 26 7-4 4-13 12-17 2 15 1 28 2 42-1-3 8 0 13-5 2 5-4 18 4 15-3 9-10 14-10 21 2 1 2-5 5-6 7 24-3 9-3 23 6-5 9-7 11-12-5-11 6-21 2-33 0-5-1-10-6-5 2-6 3-8 4-12-3-3-6 2-8 0 3-7 1-13 2-18-4 4-8 12-4 17-11 2-5-9-9-12-2-21 15-40 3-49"/><path fill="#5E5D5E" d="M389 324c7 13 19 27 14 47-2 13-7 23-14 33-7 6-9 8-18 11-14 5-27 4-42 5-24-2-27-16-47-9 1 6 8 14 13 22 16 7 36 5 51 5 12-2 28-15 32-12 2-2 5-5 8-9 10-12 15-24 17-37 1-4 0-6 1-7-1-10 0-18-2-25-3-13-7-19-12-22"/><path fill="#141B27" d="M266 229c-2 18-3 30 1 48-7 23-21 17-29 37 0 5-9 14-9 20l-3 2h-1v2l-2 1c0 5 3 10 4 16 6-18-5 2 0-20 4 15 18-29 24-33 8 1 9-3 12-1 2 2 2 5 1 5-2 5 0 6 2 7 6 4 10 4 16 3-2-5-12-1-17-8 0-3 3-4 4-5 11 4 13-2 35 8 1-4 2-7 4-9-9-4-17-3-23-10 12-6 27 5 42 7-9-9-11-15-22-20 2-4 3-5 5-4-3-1-5 1-7 2-7-4-11-7-15-10 8 8 17 11 24 21 1 3 0 4-2 3-8-1-14-5-20-10 5-3-17-16-17-25-5-9-6-17-6-25"/><path fill="#7B7C74" d="M399 345c3 5 3 12 0 17-6 14-15 21-25 31-12 5-22 10-34 8-11-1-21-1-29-4-2 5-2 11-5 16 3 1 4 3 6 3 4-3 5-8 10-10 3 6-2 8-5 11 23 2 45 1 63-7 11-6 16-18 20-27 3-13 4-26 0-36"/><path fill="#EEF2E8" d="M308 190c-11 1-11 14-11 20 7 1 11-5 17-5 9 7 11 14 14 21 1 11 4 23 2 30 5 1 10 2 16 4 4-7 2-14 1-20-2-12-5-21-10-30-6-8-13-15-20-18-4-1-5-2-8-1"/><path fill="#3C586F" d="M285 305c-5 3-2 8 0 11-6 5-13 2-18 1-4 8-10 14-12 21 9 2 8 17 22 22 11-11 10-23 23-46-7-9-11 1-13-8"/><path fill="#181E2B" d="M401 319c5 8 8 17 13 24-7 15-10 20-9 42-1-2 1-2 0-4 9 8 17 11 25 17 1 0 1-7 0-10 15 8 20 20 27 26-3-10-6-20-11-29-16-6-30-45-44-62"/><path fill="#89ABB0" d="M333 156c-17 4-11 1 2 1 3 4-4 9 4 11-8 9-7 14-15 22-1-1 0 0 2 1-3-3 14-3 12-9 10-3 18-3 24-6 11 0 17 8 22 15 1 7-3 11-5 15-3-2-8-1-7-7-6-4-10-2-12 0-4-4-9-7-11-4-8 3-8 9-9 13 4-7 18-3 17-9 3 1 2 3 3 5 3 2 10 4 15 5l1-1h2l1-2c1-2 8-14 14-15-3-12-10-20-18-26-11-1-19 4-27 8-10-1 2-11 5-14-8 3-13 0-19-3"/><path fill="#794225" d="M276 451c-9 1-5 12-12 15-4-2-28 9-13 3-1 5-4 6-4 8-2 5-3 3-2 8 2-2-1-4 2-5 10 3 16-4 23-4 4 14 22 5 21 13 1-6 7-3 11-12 14 4 35 3 37 0 0-2-6-1-7-5 0 2 2 3 3 5-12-1-24 1-33-3 0-7-4-3-7-7 5-3 7-1 12-2-19 3-18-18-31-11"/><path d="M219 355c-5 0-7 11-14 16-6 12-9 22-11 33 14-1 25-5 37-9-5-13 0-31-9-42"/><path fill="#41423C" d="M367 303c-8 3-10 11-14 17-11-9-14-13-30-16-9 3-15 10-20 15 19 3 27 21 41 14 5-5 19-10 16-21 6 5 33-12 7-9"/><path fill="#373A48" d="M408 320c2 3 2 6 3 9-3 8 33 57 45 73 0-5-8-14-6-25 4 5 14 8 20 14 2-11-2-20-6-29-9-12-20-23-30-29 3 5 10 13 15 17 3 7 0 17-3 20-18-13-11-32-31-37 10 19 27 36 36 55-20-27-31-37-41-67"/><path fill="#CACFBD" d="M390 328c3 12-2 26-9 35-10 0-8 4-16 6-10 4-10 7-16 14-9 1-21 7-28 0-4 2-4 4-5 5 14 1 19 2 27 7 14-7 26-12 37-18 10-10 13-18 18-29 0-6-4-12-7-18"/><path fill="#BB5E27" d="M337 272c-45 3 25 30 10 46 10-14 21-26 30-38-10-5-8-6-13-4-3 10-7 20-9 31-7-11-8-23-14-33-2-2-3-1-3-2"/><path fill="#6D3A22" d="M371 439c-14 3-12 5-1 10 1 13-3 11-9 18 1 5 5 9 9 10 14-1 23-5 43 1 0-4 0-5-2-7-3 6-17-5-24-5 4-10 13-8 22-8-5 0-10-2-14-3-12-8-8-12-17-10-2 1-5 5-7 6l-1 1-1-2c3-4 2-6 1-9"/><path fill="#A4E1EF" d="M364 177c-15 2-26 5-33 13 2 7 5 14 10 20-1-1-2-3-3-5 5-6 2-9 9-10 12-1 13 3 24 2 1 7 4 6 7 7 13-9-2-26-12-27"/><path fill="#1C2632" d="M213 339c-9 2-31 11-45 20 5 1-9 9-2 13 6 2 10 2 16 6-3 9-10 14-14 21 12-4 17-26 29-27 0-6 0-14 1-22 5-5 9-6 12-9 2 4-1 5-2 8 3-4 5-9 8-13"/><path fill="#F2EFE0" d="M387 198c-13 17-20 37-24 57 5 5 11-2 13 2 2-13 4-26 10-37 4-5 9-13 14-7-2-8-2-14-11-13"/><path fill="#A4A897" d="M400 347c-6 9-9 25-23 32-15 7-31 17-45 16-2 1-2-2-1-4-5-1-11 4-16 0-2 2-3 3-2 6 9 1 17 3 24 5 15 0 25-5 36-9 11-10 19-18 24-29 3-6 5-11 3-16"/><path fill="#3F5D73" d="M305 211c-22 18 13 5-15 26 14 5 26 10 38 12 1-10-4-18-8-26-4-5-9 0-13 1 0-2 2-4 4-5 0-5-1-9-5-7"/><path fill="#FCFBC4" d="M391 157c-2 4-6 6-10 8 12 9 15 19 23 27 5 9 5 18 7 26 3 0 7-7 9-1 1 13-8 21-5 35 4-5 8-2 10-5 1 0 1 1 1 2 2-6-6-7-1-14-3 2-2 7-5 8-1-10 5-16 9-22-8 0-2-13-3-16-8 2-10 4-12 6-3-17-2-30-4-43-5 4-4 13-10 16-3-7-7-12-11-16 0-5 1-6 2-8"/><path fill="#31303C" d="M169 359c-7 9-10 16-14 30-3 7-7 21-4 31 9-15 21-26 30-40-6-5-9-5-15-6 0-7 3-12 4-16"/><path fill="#3E414B" d="M236 401c-7 2-19 3-26 9-3 3-5 4-6 6 6 1 10-1 12 2-5 5-9 7-13 10 15 3 28 0 39-7l2-1-3 1c4-8-5-12-5-18"/><path fill="#2E4152" d="M319 161c-7 4-11 10-15 19-9 2-4-5-1-6-7-1-12 11-17 8-7 13-15 23-19 35 0 12-7 22-5 33l2 2-1-3c2-5 0-13 3-20 3 4 3 8 2 12 4 8 4 17 10 23-5-6-7-14-9-21-1-10 1-16 4-22 7-11 11-18 14-25 1-1 26-23 29-18-9 0 10-14-3-6 3-5 4-7 6-8"/><path fill="#415E70" d="M356 212c-7 1-12 3-15 2 7 7 10 22 13 36 9-12 23-39 19-34-9-1-10-4-16-4"/><path fill="#693B1D" d="M293 379c-4 9-16 13-13 22 5 4 4 8 5 11 11-9 14-8 19-10 3 3 2 5 0 8 4-8 9-16 6-25-4 2-5 5-10 4-3-5-5-6-9-1 0-4 1-5 1-7"/><path fill="#3A3A48" d="M400 397c-5 13-14 23-26 33-7 7-13 10-20 12 4 1 10-1 14-4 3 3 5 6 4 8 2-1 4-3 5-6 3 2 5 2 5 4 11-24 17-25 17-45"/><path fill="#B27346" d="M414 459c-34-4-28 12-3 13-5-6 6-1 2-4 10-2 15 7 22 3-2-2 0-6 2-5-8-6-17-5-24-8"/><path fill="#6A3E2C" d="M402 247c-4 1-2 4-5 11 0-9-14 12-14-2-3 5-1 6-1 9 2 2-1 6 3 6-4 0-1-4-3-4 5-4 12 0 14-8 1-3 3-3 3-5 0 9-1 16-6 22-8 2-13 2-17 0 4 9-15 20-17 30 8-12 21-23 33-28 6 3-4 8 2 11 3-2 5-6 7-11-1 8 2 15 2 20 8-40-8-15 0-50"/><path fill="#A9693C" d="M280 464c4-1 10-2 12 1 5 5 9 10 7 15-6-3-4 0-7 6-3-3-3-6-4-8 1 5-3 5-6 2-4-3-6-5-7-7-1-5 2-7 3-9"/><path fill="#243A4D" d="M178 318c-8 3-16 6-22 11-12 5-20 14-25 23 46-31 39-18 51-29-5-1-4-3-3-6"/><path fill="#393541" d="M179 389c-1 7-11 7-8 16-2 13 0 24 4 33 3-13 4-27 10-39-2 0-5-1-7 0-1-4 1-5 1-7"/><path fill="#CACFBC" d="M310 325c-5 2-9 4-13 6-4 7-6 12-8 18-3 7-5 11-4 18 4-4 7-7 10-11 1-1-3 2-3 3-6-5-2-7-2-9 7-10 44-25 19-23"/><path fill="#914E4C" d="M377 426c-10 4-19 9-28 12-17 3-32 0-45 1 9 7 22 7 32 7 16-6 30-9 41-19"/><path fill="#A1A393" d="M296 194c-8 6-13 13-15 21 2 15-1 31 6 37-1-15 3-34 6-57"/><path fill="#6F5A55" d="M396 289c-3 3-7 5-8 10 8 10 13 20 21 29-2-12-6-24-8-36 1 2-1 2-3 3-4-2 0-3-2-6"/><path fill="#E89543" d="M351 265c-4 2-8 5-12 6 8 9 11 23 13 35 4-11 8-20 10-30 1 0 4-3 4-1-2-3-5-5-6-9-3 8-1 20-5 28-3-10-4-22-5-29"/><path fill="#50585F" d="M200 374c-5 5-18 3-21 20 4 3 9 3 11 12 3-10 6-22 9-31"/><path fill="#5F8692" d="M324 159c-5 1 13-1-2 6 4 1 7-5 10-2-25 14 8 0-19 20 8 3 1 6 18 12-4-2-8-3-9-7 5-2 13-15 17-18-9-4-2-8-4-11-3-1-6-1-8 0"/><path fill="#485D69" d="M312 179c-9 6-18 11-26 20l-1 2-1 1-2 2c-3 5-6 11-9 16 0 6-3 8-2 12-2 11 2 19 5 28 5 8 12 11 17 15-3-6-9-10-12-15 8 5 13 11 19 14 7 0 12-2 17-2-3-3-6 2-14 0-8-3-13-10-14-17 0 2 1 4 2 5-8 2-11-10-12-3-6-12-8-24-5-34 2-8 4-14 8-20 7-9 20-17 30-23"/><path fill="#445A66" d="M234 298c-12 7-29 2-38 14 7 7 3 6 15 5 8-7 14-11 21-18"/><path fill="#242732" d="M236 371c-3 5-4 10-2 16 2 9 4 16 7 22 2 4 4 6 6 7-2-2-3-4-3-5 1-11 6-7 8-10-9-12-14-15-16-30"/><path fill="#B3703F" d="M282 465c-9 0-7 10-1 13 7 7 4-2 9-3 7 11-6-1 2 10 0-4 2-10 4-4 4-6 0-10-1-13-4-5-8-3-11-4"/><path fill="#B36B3C" d="M296 466c2 4 7 1 5 7 10 4 22 2 33 3-4-5-2-8-10-9-11-1-18 0-26-2"/><path fill="#797676" d="M434 337c1 13-4 0 2 21 2 2 3 5 5 6 2-3 8-5 9-8-5-8-9-14-14-19"/><path fill="#445B66" d="M237 292c-2 7-2 13-9 19-7 5-11 12-18 9 9 2 11-2 16-3-4 5 14-2 3 12-6-15 28-28 11-37"/><path fill="#5A8596" d="M358 199c3 9-22 0-14 16 0-8 9 3 11-6 9 1 10 6 15 9 4-3 4-5 8-9-4 4-14-3-18-4-1-1-2-3-1-4"/><path fill="#251B1C" d="M387 281c-2 2-6 4-8 6-5 9-7 1-13 11-1 5 11-5 20 1-9 4-6-3-18 3 9 0 18 1 22 8 11 14 13 29 15 43 0-8-4-17-3-23-8-13-5-21-15-28l-1-2v-1l-2-3c2-2 5-2 6-5-14 6 3-11-11-1 3-5 6-7 8-9"/><path fill="#F8CCA6" d="M392 194c-4 2-5 3-7 7 3-8 12 2 12 0 3 4 3 8 4 11-3 1-4 0-6-1 8 7 10 15 12 24 1-11-1-20-2-29-4-5-5-13-12-13"/><path fill="#6D3B3D" d="M299 432c-36 15 15 15 26 15-6 0-12-1-17-4-3-2-6-3-6-4 6-2 8 0 12-1-6 1-10-1-15-3"/><path fill="#6E7C83" d="M398 223c-4 7-10 15-14 18 0-6 0-10 3-16-7 6-4 13-6 20 4-2 5-5 7-8 2 5 16 1 13 9 4-8 2-16 0-23"/><path fill="#7D371B" d="M313 273c-12 10 31 22 32 41 1-5-1-11-6-15-4-8-13-9-18-16-2-4 0-5-2-7 2-2 4-3 6-2-2 0-4-1-5 0"/><path fill="#192B3A" d="M189 276c-7 7 3 15-4 23 6 7 7 11 10 14-5-6 11-5 4-10 6 2 1-7 11-2-7-3-15-3-19-11-4-4-5-10 0-12"/><path fill="#55585D" d="M216 405c-12 3-24 5-36 8 8 5 17 5 24 5-2-6 17-16 15-13"/><path fill="#353F48" d="M344 220c5 13 9 29 5 44 3-2 9-3 11 2-1-14 5-27 9-40-4 9-7 18-15 25-2-10-5-20-9-29"/><path fill="#FCFBBC" d="M362 145c-41 9 15 17 23 9-12 7-17-8-25-3-4-3 0-3 0-5"/><path fill="#090B14" d="M317 288c4 3 9 6 12 11-18-1-31-12-41-4 5 4 11 2 21 5-1 5-4 7-5 10 3-2 4-10 9-10 6 2 11 2 15 0 19 12-3-9-8-11"/><path fill="#263645" d="M276 250c4 8 11 16 18 23-4-1-9-1-12-6 1 6 16 9 10 13 5 5 13 11 19 11-9-15-26-23-34-41"/><path fill="#525E67" d="M391 236c-3 3-5 7-8 11-3-4-1-5-2-9-1 5-3 10 0 14 7 0 14-1 20-5 2-9-12-3-11-10"/><path fill="#271D1B" d="M292 229c-4 8-1 21-1 30l2 3v-1c2-2 2 4 5 4-2-1-4-8-5-4-1-7-2-13 1-18 9 1 1 11 9 15 3 2-3-1-2-3 17 0 6 5 19-3-7-2-18-3-24-11 0-2 0-2-3-1-3-3-2-6 1-9"/><path fill="#7E8178" d="M294 195c-8 6-12 13-15 20-1 5-2 7-1 11 0 9-1 18 2 25 3 6 5 9 8 8-5-7-9-23-8-42 2-9 5-15 12-20"/><path fill="#6A4B3F" d="M389 306c-14-3-29 19-6 3 7 12 8 18 13 20-1-7-6-20-10-22"/><path fill="#1A1E26" d="M315 301c-1 1-2 0-3 1-8 11-16 19-20 32 6-12 15-22 26-29 16-5 34 18 15-5 0 0-10 2-16 2"/><path fill="#0A0B12" d="M394 312c11 17 10 25 12 51 3-6 3-20 7-17-6-12-11-23-17-32"/><path fill="#22202A" d="M274 401c1 4-1 6 0 10-8-12-13 0-20-8 3-1 4 14 2 22-3 3-1 6 2 7-1 0-2-2-1-6 4-18 14-7 19-24"/><path fill="#3C5F76" d="M333 134c-7 1-12 5-18 8l-1 2 3-3c-13 19-26 27-26 28 14-13 28-24 45-36"/><path fill="#A06C4F" d="M416 104c6 11-18 18-22 24 4-12 12-13 19-20"/><path fill="#6A848D" d="M195 315c-8 8-19 17-29 22 14-4 17-6 31-12 2-1-3-10 1-8"/><path fill="#A06338" d="M370 465c2-1 5 0 6-1 6 1 8 5 9 7-4 9-8-1-10 4-5-2-10-5-6-9"/><path fill="#445159" d="M208 344s-6 13-10 14c3 2-3 11 4 12 6-8 10-13 10-20-1-2-2 3-5 4v-8"/><path fill="#261E22" d="M269 442c-4 7 2 6 2 10 7-4 12 7 19-4-5-4-14-1-20-5"/><path fill="#C7CBBA" d="M302 190c-1 3-5 2-6 5-3 10-9 16-4 26 3-3 7-6 9-9-2 4-5-1-6-3 1-8 2-17 10-19"/><path fill="#F5DC9B" d="M351 267c2 8 1 17 3 24 1-7 8-22 1-27"/><path fill="#FAD57C" d="m416 256-2 1c-1 13-9 18-8 33-6-15 30-27 11-33"/><path fill="#604049" d="M414 324c4 4-1 5 6 10 3 4 6 6 11 3 1-10-9-9-15-13"/><path fill="#5D7B88" d="M247 270c-3 7-8 17-10 23 4 1 8-1 9 0 4-6 1-14 0-21"/><path fill="#2B3A44" d="M228 317c-7 3-15 14-26 18 7 0 13-5 19 0 0-7 4-11 6-16"/><path fill="#426171" d="M327 160c-2 2-7-1-9 1-8 12 2 12-2 18-6 5-1 7-2 8 1 0 2 2 4 1-1-2 1-2 3-5-3-2-6 2-7-1 22-16-3-6 16-18-3-1-4 3-8 2 2-3 3-5 5-6"/><path fill="#263845" d="M235 297c-6 8-16 13-22 20-29 1-9-12-23-7 6 5 18 13 20 9 3-1 4-1 5-1 11-3 18-12 19-20"/><path fill="#090D19" d="M271 271c10 8 6 11 15 21-4-4-12-6-16-9 0-4-1-7 2-8"/><path fill="#F3854C" d="M470 128c6 9-8 19-16 20 10 0 11 0 18-5 6-5 5-13 0-15"/><path fill="#405E71" d="M205 255c-1 6-10 2-12 9 1 3 3 8 2 10 2 1 4 0 6 1-2-1-3-1-4-1 12-5 1-19 12-17"/><path fill="#331E15" d="M401 249c-7 3-13 5-20 7-3 6-1 12 1 16 7 4 14 0 16-5-3 4-9 7-13 4-4-4-6-9-5-12 3 9 15-9 17-4 0-1 0-3 1-6"/><path fill="#B16E52" d="M411 229c-8 13-4 26-12 44 5-8 10-2 8-5-1-15 4-27 2-41"/><path fill="#565F60" d="M243 330c-4 1-17 9-10 14 0 4 3-3 6-5 4 2 1 5 0 7 1-6 10-12 3-14"/><path fill="#8DABB1" d="M247 266c2 8-1 30 8 28-1 0 1-7 4-15-2 3-2 11-6 11 5-20-5-13-6-21"/><path fill="#AC6C3D" d="M370 465c-3 14 14 4 12 10 1-5 0-9-4-9-3-1-4-1-5-1"/><path fill="#51564D" d="M318 326c9 5 12 10 18 19 3-2 4-4 6-7-4-4-15-1-21-12"/><path fill="#323E46" d="M217 335c-2 10-7 5-10 13-2 9 2 1 6 0 0 4-1 5-2 6 3-2 10-6 9-9 0 0-1 2-3 3 2-5-4-7 2-13"/><path fill="#A9AA9B" d="M328 255c-8 9-1 14 8 15 5-2 8-5 11-6-6 2-13-2-17 0-2-2-2-4-3-7"/><path fill="#87ABB9" d="M394 213c-14 15-4 10-11 28 18-9-3-19 16-27"/><path fill="#AFA490" d="M362 257c-1 6 1 10 6 13 6 7 6-7 9-2 3-11-15 3-16-9"/><path fill="#F7A962" d="M392 154c-7 3-15 4-21 7 4 1 5 5 8 2 6-3 11-4 12-9"/><path fill="#38556A" d="M309 168c-4 2-27 9-22 16 4-3 8-10 14-12 3 3-6 9 1 8 4-4 4-8 7-10"/><path fill="#A36D43" d="M388 115c17-4 0 12-4 10 1-4 1-7 4-8"/><path fill="#508399" d="M320 146c-9 6-32 32-32 28 8-2 23-12 30-27"/><path fill="#FBF3AF" d="M396 154c5 2 3 11 4 13-10 1-7-6-5-9"/><path fill="#6F7575" d="M240 339c-11 5 2 15-6 23-1 5-2 4 4 5 0-9-2-18 3-27"/><path fill="#C5B495" d="M331 367c10-2 4 11-2 12-3-3-1-7 1-10"/><path fill="#744E3B" d="M448 136c5-5 11 2 5 6-3 2-6 2-8 1 1-3 0-6 3-5"/><path fill="#CABB9D" d="M346 356c4 2 1 14-3 18-2-7 0-11 2-15"/><path fill="#6E4324" d="M282 368c-2 7-3 19 1 21 0-3 3-5 5-8-8 1-1-9-6-12"/><path fill="#859EA5" d="M197 317c-1 3 2 4 4 5-5 7-14 6-18 10 9-4 47-10 13-13"/><path fill="#835A4B" d="M382 312c-25 9-3-1 7 13 0-4-5-8-5-13"/><path fill="#CDC9B8" d="M362 254c1 2-1 6 1 9 6-1 9 0 12 1 3-12-9-1-13-8"/><path fill="#C9CCBC" d="M329 255c-6 13 15 9 20 5-6 0-22 0-20-5"/><path fill="#6A5648" d="M385 389c4 1-1 12-3 15-5-4-1-9 1-13"/><path fill="#20303E" d="M229 302c5 3-7 15-12 16 1-5 6-8 10-13"/><path fill="#0E0B0B" d="M293 239c9 5 16 12 28 11-1 8-4 15-10 18-12 0-15-1-19-8 1 3 3 5 6 7 4 3 7 3 11 2 8-2 10-10 13-12 2-1 2-3 3-5-13-2-21-8-30-12"/><path fill="#9C6637" d="M299 257c-6 5 2 8 5 8 8-8 7 5 11-5-3-5-9 7-15-2"/><path fill="#090D18" d="M271 273c-1 2 0 5-1 9 7 6 12 4 13 10-6-11-4-10-10-19"/><path fill="#B6D1D6" d="M260 253c0 15 2 24-4 39 3-4 4-9 6-13 2-10 0-17-1-25"/><path fill="#7E7F76" d="M325 261c-2 3-6 8-9 10 17 1 21 1 4-8"/><path fill="#B7CED3" d="M268 188c-9 18-8 31-9 50 2-15 4-32 8-47"/><path fill="#567C8A" d="M195 261c-6 4-10 10-11 17 3-2 6-4 9-5 1-5-5-7-1-11"/><path fill="#AACFDD" d="M398 217c-7 3-9 5-6 15 1-7 11-12 7-15"/><path fill="#A8AE9E" d="M303 321c-3 2-6 7-8 10 11-12 32 0 10-10"/><path fill="#D6D4BA" d="M309 349c5 1-2 12-4 16-4-4 2-9 2-13"/><path fill="#9B7251" d="M431 257c10-4 6 9 0 10-2-2-2-6-1-8"/><path fill="#2A3747" d="M454 409c0 9 7 21 9 31-1-15-4-25-8-28"/><path fill="#F5EBBD" d="M354 266c5-1 2 12 2 15-5-3-3-8-4-12"/><path fill="#73452A" d="M436 466c6 13-15 4-20 2 4 6-3 8 1 10-1-1-1-2 0-3 11-3 32 1 19-6"/><path fill="#2A475E" d="M317 143c-12 4-20 16-25 27 7-8 13-17 22-26"/><path fill="#8CA5AB" d="M228 397c-10 6-18 4-26 9 9-4 25-1 29-8"/><path fill="#433536" d="M394 281c-10 5-6 2-15 8 15-10-2 9 12 0 0 6-7 6-5 10 1-3 5-5 5-8-2-4 1-6 2-10"/><path fill="#AA6B3B" d="M400 254c-3 8-9 14-18 11 5 9 14-3 9 6 5-7 7-11 8-16"/><path fill="#926345" d="M360 123c12-2 1 9-5 6-1-4 2-4 3-5"/><path fill="#607D84" d="M230 317c-3 5-6 10-5 17 3-2 9-18 6-15"/><path fill="#8E5B3D" d="M430 145c8-4 5 9 1 9-4-2-1-4-1-7"/><path fill="#A7DAE1" d="M311 207c4-2 6 1 8 4l2 2 1 2c-5 0-5 4-10 5 3-2 7-3 8 1 5 3 5 7 6 10 2-5-1-11-4-17l-1-1-1-3c-2-1-4-4-7-3"/><path fill="#966A3D" d="M297 373c-9 9-1 6-4 14 2-5 5-4 6 1 2 0 3-1 5 0 6-4-4-1-4 1-2-5-1-10-3-13"/><path fill="#294456" d="M208 258c-11 1 2 12-8 15 12-9 6-7 9-14"/><path fill="#8C7D6E" d="M363 266c4 7 11 10 20 9-2-2-4-4-5-6-2 1-3-3-5 5-5-1-7-4-9-5"/><path fill="#60899E" d="M275 302c-1 4-6 2-6 7 3 0 5 2 7 3 0-4 1-7 2-9"/><path fill="#FCFAB9" d="M396 156c0 3-6 11 1 11 4-3-2-6 3-11"/><path fill="#304457" d="M295 221c-1 2-1 5-4 6 10 6 16-13 2-1"/><path fill="#5D8898" d="M311 208c-2 0-3 1-4 2 2-2 6 3 4 7-1 3-3 5-4 7 2-2 2-4 8-8-1-2 0-9-3-8"/><path fill="#5D6068" d="M434 350c-2 6 1 10 6 13 3 3 4 6 5 6 3-5 4-9 6-12-2 3-8 5-10 7-5-4-9-6-7-12"/><path fill="#1B1A1B" d="M322 259c-10 7-5 11-23 11 4 1 9 3 12 0 10-2 11-14 12-11"/><path fill="#5C554B" d="M367 311c-8-1-4 8-9 13 6-4 10-8 10-11"/><path fill="#A6CBD4" d="M191 309c-17 9-11 3-9 10 1-1 9-4 8-7"/><path fill="#89A6B3" d="M195 338c-1 3-8 1-12 6 0 6 13-2 17-7"/><path fill="#0E0A0C" d="M375 289c-4 5-9 9-12 15 19-4 32-5 5-6 2-3 4-5 6-7"/><path fill="#4F5050" d="M453 463c5-1 11 2 16 4-5 0-9 0-13-2"/><path fill="#A8CCD3" d="M229 288c-6 3-6 10-11 9 8 4 8-3 11-8"/></svg>