<svg xmlns="http://www.w3.org/2000/svg" width="600" height="600"><path fill="#946D3A" d="m283 108 1-1c6-1 10 0 14 2 13 7 12 22 17 28 17-3 24-22 41-18 10 8 10 18 9 30 13-8 25-13 38-14 6 5 6 9 7 13 0 10-1 17-4 24 12 12 20 20 29 31 10-2 18-2 25-1s11 5 12 10c5 15-9 21-14 29 9 16 15 30 16 46 8 4 16 8 19 14 3 12-8 16-14 18-1 7-3 11-2 17 13 4 27 11 33 23 2 15-14 15-15 26-6 5-12 5-16 8 3 4 6 8 8 13 3 8 6 14 2 21-13 7-30 4-42 2-6 4-10 9-15 11 2 7 4 11 4 16 2 10 1 17-3 23-3 6-7 4-9 6-21 4-33-8-48-12-17 2-27 11-38 18-13 3-21-3-29-8-18-4-24 12-42 7-16-5-27-21-46-20-9 4-15 9-22 14-10 2-20 2-26-1-5-10-6-26-1-36-7-8-17-16-22-22-10 0-17 4-23 1-1-12-17-12-16-24-7-1-16 0-20-6-1-9 0-15 3-21 3-8 10-11 15-14-1-6-3-10-2-16-8-2-15-3-19-8 0-15 14-19 21-24-4-6-8-10-11-15-1-8 2-12 6-15-9-7-16-15-13-25 8-10 19-12 29-14 7-12 14-24 20-35-6-5-12-12-14-19-10-18 0-36 21-25 8 2 14 7 18 13 17-12 31-21 46-32 7-1 11-1 16-2 0-8 0-17 4-22 12 0 22 5 28 12 5 1 8 1 12 0 0-11 3-19 9-25"/><path fill="#482B14" d="M154 352c-3 4-5 9-6 13-9-5-5 5-11 6 2 9 3 11-1 15 3-3 7-8 12-3 3 3 7 5 8 7-4 6-5 10-9 12 4-2 7-6 11-7 4 3 4 6 3 9-4 7-14 11-5 12-35 8-24 10 1 4 7 6 16 10 22 19 0 9-8 31-4 41 3-5 19-1 26-12-4-11-6-4-12-15 1 7-1 5 4 7-3 6-8 13-11 13 0-10 5-17 1-23 18 4 36 5 42 17 6 2 10 3 13 4-2 1-2-4-1-7-5 3-6-2-10 2-7-8 9-6-2-6 11-1 17 1 26 0 6-2-5-3-4-11 3 0 1-6 7-4 12 10-9 12 9 20 41 6 47 3 89 6 1 7-7 10-16 11-13 2-18 4-29-1 6 5 8 2 10 5 4 1 4 1 1 2 10 8 44-18 34-7 5-10 37-11 51-21 2 6-10 7-8 14 4 2 9 3 12 5-6 0-11-1-16-1 5 2 22 4 17 3 8 1 14-3 21-1-5-7-15-23-21-19 5-2 10-10 13-11 7-11 22-18 20-24 14 2 30 1 44 2-12 0-25-1-35-5-5-4-9-4-10-7 0-6 3-9 5-12-12 10-26 19-41 22-27 10-46 7-68 8-11-2-44-10-60-14-7-4-11-8-12-15 2 11-2 18-4 28-9 11-14 5-20 10-16-8-20-2-30-18 2-8 0-17 3-20 3-8 6-14 12-16-6 0-12-4-16-8-5-6-2-13-2-17-4 6-6 10-14 14-8 5-16 6-25 5-8-1-15-3-19-9-1-4-1-5 0-6 1-6 1-10 4-14"/><path fill="#8A7861" d="M241 213c-19 0-34 18-43 32-7 7-4 22-10 23 2 9-1 18 2 23 6 19 7 27 21 36 14 11 41 14 56 10 9-3 10-2 17-6 3-2-8-1-1-6 7-6 16-14 21-23 7-14 7-30 3-43-4-17-15-30-26-38-13-8-25-9-39-8"/><path fill="#93846D" d="M243 215c15-2 28 2 40 9 14 14 20 22 23 41 1 21-5 32-11 40-9 13-27 24-42 24-17 0-30-2-41-10-9-8-14-15-17-22-2-9-4-15-4-22 3-16 4-28 13-34 18-20 19-19 38-26"/><path fill="#604829" d="M208 353c3 11-9 31 14 34 8 0 21-3 30 3 12 6 13 17 17 25 6 6 17 5 23 8 34 7 47 13 84 9 15-1 34-9 48-14 17-10 25-27 40-37 3-2 2-6 4-8-17 6-33 17-51 25-2 8-2 12-10 19-8 1-12 0-14-5 0-4-3-6-2-13-2 3-1 7-5 8-7 4-12 1-16 2-5 0-17-2-12-8-6 3-3 0-7 4-11-5-23-7-32-13-14-1-21 1-31-3-29-11-57-19-78-37"/><path fill="#F6C465" d="M367 162c11 11 10 21 13 28 0 15-5 21-12 32-12 2-20 11-28 4-8-3-13-7-15-13-3-4-2-8-3-11-2 7 0 18 8 21 15 9 25 6 32 6 3 1 12 17 3 31-2 0 0 5-2 6-6-3-15-3-24-3 1-1 3 3 4 4-1 5-4 6-5 7-6-1-10-5-14-10-8 17-5 25-12 39-4 8-8 15-15 20 10-11 14 1 19-19 4-1 24-12 24-5 5-10 17-16 20-18 12-4 29-3 39 2 2-18-13-30-10-41 11-7 8-17 22-27 9-3 17 2 25 6-5-11-17-22-26-27-1-6-4-8-7-10 3 2 5 5 7 8-6 6-10 3-12 2-4-6-9-6-10-13 3-5 6-2 8-2-7-7-16-13-26-16"/><path fill="#F5C261" d="M306 141c-23 8-49 2-73 9-5 1-9-4-13-2 11 3 9 3 22 9 4 5 4 9 6 12 2 6 1 10-1 14-5 6-8 10-14 12-8 4-15 0-21 3 6 0 8 8 16 7-4 6-8 7-12 9-5-3-11-2-16-5 1-5 0-8 4-9-7 0-13 0-17-6 0-7 3-16 10-20-6 1-9 9-19 12 4 14-7 19-10 37 13 0 28-9 41-2-2 4-5 9-8 13 8-9 15-20 27-25 22-5 27-5 45-1-11-6-24-6-33-6 7-6 9-14 16-19 17 0 25 4 40 1 3-5 6-9 10-12 9-4 19-3 25 1 45-23-8-13-23-33"/><path fill="#9E814F" d="M470 343c-13 3-25 3-36 3-21 4-25 20-41 23-11 1-21-2-32 0 5-3 12-2 18-3-5-3-11-4-18-3-11 0-20 1-28 4-8-4-8-9-14-13-22-2-40-7-61-2 10 8 11 5 15 2 9 9 16 13 27 21 8 3 19 8 24 3 1 2-1 5 1 8 8 2 9-3 9-7 17 8 30 11 48 11 13-3 25-6 35-9 12-4 26-23 25-23 2 6 13-10 28-6 3-4 0-8 1-9"/><path fill="#7A623A" d="M233 351c-36 8 32 27 43 34 18 6 27 6 41 5 11 7 23 9 31 13 8 1 1-6 8-7 4 4 3 6 1 8 10 5 14 3 23 5 14-6 7-17 22-22 5-1 8-1 10 2 5 4 3 8 4 11 0-1-1-3 0-4 24-11 26-13 52-25 0-6 2-12 3-19-11 0-19 4-26 5 2-1 4 2 5 3 0 4-1 6-2 8-5 1-8-4-7-7-5 7-14 17-23 20-11 4-23 7-34 9-20 1-33-2-48-8 0 3-4 7-9 5s-4-5-2-7c-6 4-17-1-23-2-10-11-20-9-23-21 1 2 0 4 1 5-4 7-7 7-9 5 0-3-5-2-3-6 1-3 3-6 5-5-9 6-28-8-40-4"/><path fill="#FAD284" d="M315 171c-2 1-4 1-6 2-7 3-11 11-11 11-22 5-45-12-57 19 9-3 22-2 32 4-8 0-17-2-27-1 11-1 20 1 29 3 14 6 16 9 26 17-2-2-5-6-2-7 16 7 32 14 33 23 4 4 4 9 2 11-10 6-15-6-17-1 1 8 0 17 1 28-1-7 1-12 3-17 4 2 8 2 8 5 0-2 2-5 4-6 13 1 24-1 28 5 5-6 5-12 6-19 3-8-1-15-4-17-9-2-21 3-33-5-4-4-9-8-9-12-1-8-1-14 3-18 1-10-15 5-17-5 2-5 1-10 4-14 10-7 19 5 23-3-5 0-11-5-18-3"/><path fill="#D69F3F" d="M336 296c-31 20-84 45-4 63-8-2-14-7-18-13 6 0 7 6 11 8 3-8 0-12 8-17 9-11 14-14 27-18 18-6 33-4 40 2 9 6 14 14 12 26 1-6-1-17 4-15 1 8 4 15 1 20 9-6 1-18 6-21-9-14-13-13-15-26-7 0-21-10-37-6-3-1-12 0-25 7-4-11-6-4-8-8"/><path fill="#291D15" d="M241 237c-16 3-23 13-26 21-3 9-5 15-1 24 5 12 13 17 21 20 14 4 24 1 30-2 10-5 15-12 17-21 2-7 1-13-1-17-2 2-6 7-8 5-6 2-9-2-13-4 0 1 3 2 3 4-3 3-5 5-8 5-8-5-10-11-8-16 3-6 2-11 6-15 4 0 6 0 7-1 1 4-2 6-2 7 1-2 3-4 5-5-8-4-12-6-21-6"/><path fill="#C88422" d="M165 187c-3 5-8 10-12 16l-1 1 2 2-1-1v-3c3-2 5 1 6 4-7 2-16 4-18 4-11 22-19 35-13 34-4 1-16 10-23 10 3 0 6 2 7 4 0-3 6-6 8-8 2 8-3 17 2 23 5-2 10-5 19-3 5 4 6 7 8 10 0 7 1 13 0 18 6 0 17 2 26-4 5-4 9-5 8-9 2 2 4 2 3 5-3-28 5-34-1-54v-2l-2-2c-7-2-13 2-18 4 4-2 12-7 19-3 0 7 1 10-1 14s-11 12-16 14c-9 2-16-4-14-10-2 5-6 5-9 5-5-5-1-8-6-8 0-12 14-27 19-39 3-8 6-15 7-21"/><path fill="#8B5513" d="M145 309c-2 4-5 10-10 11-8 1-12-2-16-5-13 3-5 13-8 22 4 2 6 3 9 2 8 3 12-2 16-5 6 2 6 6 7 7 8 1 14 2 19 1 4-6 15-14 23-13 8 2 4 8 8 8-1 7 0 14-5 16 4-2 10-3 14-5 4 7 13 5 19 6 14-1 20-8 34-12-16 0-30-3-43-10-10-7-16-18-20-21-2 5-8 9-17 15-11-2-22-3-29-8-2-3-2-5-1-8"/><path fill="#381C0B" d="M249 446c0 3-2 10 4 10-3 6-6-2-1 6-8-1-15 0-22-4-1 2-4 4-6 8-5-3-3-5-8-6-8-7-19-4-30-10 5 6 12 8 17 16-19 14-48 17-1 16-2-2-5-5-13 0 7-5 12-12 18-17 4 2 2 6 0 7 3-1 7-4 11-6 22 1 36 20 54 18 23-9 44 1 62-2 9-3 19-4 15-8-39-3-53-6-83-9-2-2-9 0-11-7 1 0 4-4 4-7 0 2-2 5-4 6-6-2-7-5-6-8"/><path fill="#F9F1D8" d="M242 219c-14 3-28 10-36 23 5-9 8 1 15 0 1 3-1 4-2 6 5-7 12-11 19-13 14-1 24 0 33 6 7 6 11 11 12 18 3 7 4 13 2 18-4 14-13 25-25 27 15-9 13-1 22-8 7-6 15-17 13-28-2-19-6-36-8-37-12-9-28-15-44-12"/><path fill="#E1A541" d="M193 161c-6 5-17 10-19 17-7 3 3-6-6 4-5 24-17 37-29 60-1 5 3 5 3 12 3 3 5-1 7 0 6-10 5-10 13-18 9-3 8-5 18-6 7-4 7 21 9 25 5-14 11-23 20-31-8-11-29 2-41 2-2-13 9-21 9-29 2-8-2-11-4-16 7-8 14-14 21-18"/><path fill="#E6D4AF" d="M285 232c8 6 8 16 12 24 0 12 0 21-5 28-6 8-7 11-13 16-3 3-6-4-5-4l2-1 2-2-1 3-2-1c-4 8-10 9-17 11-8 0-17 2-24-2-8-3-15-8-18-15-6-9-7-17-5-25 2-11 7-19 14-23-7 7-13-5-17-1-11 11-7 14-10 28 6 8 8 19 16 21 9 11 13 11 18 17 15 8 33 10 47 6 13-4 17-21 21-24l-1 3v2l1-1-1-3c7-7 6-45-11-55"/><path fill="#C9B088" d="M199 253c-5 11-5 28 0 39 5 16 20 24 30 30 49 1-13 8 47-1 12-8 19-18 23-30 4-13-6 21-17 21-14 4-27 3-39 0-19-6-23-22-34-24-6-11-16-21-9-33"/><path fill="#F8F2DD" d="M419 227c-15 4-14 21-15 34 2-9 9-7 16-17 8-1 16-1 21 1 9 5 14 11 17 18 4 7 6 13 5 21 1 9-2 15-8 19-5 5-10 6-16 5 11 6 27-9 30-7 1-6 1-15 0-24-1-12-7-20-12-29-7-9-14-15-21-19-6-2-11-3-16-2"/><path fill="#64431E" d="M138 336c7 5 5 13 1 16-5 1-6 0-7-2-2-2-4-11 1-12-7 7-17-3-21 8 3 18 11 32 20 44 3-3 4-7 7-8-3-1 0-6-4-10 7-4 4-4 7-9h2l1 1 2 2-1 1c9-23 27-27-4-23 0-3-2-5-2-7"/><path fill="#A86715" d="M184 285c1 5-4 5-6 11-12 2-20 6-27 1-6 3-5 13-6 19 8 6 19 7 28 10 11-3 17-18 21-13-4-9-7-20-9-26"/><path fill="#33100C" d="M370 321c-4 1-8 1-12 2-11 4-18 7-25 16-5 8-5 10-6 20l2 2-2-3c1-2-1-5 1-7 7 0 12-1 15 1 2-6 8-9 12-11 13-3 23-6 33-10 11-1 10 1 16 5 4 5 4 11 3 16 3-11 0-23-10-28-10-3-17-4-26-3"/><path fill="#27140C" d="M422 244c4 13 15 11 14 22-7 2-5 4-13 6-5-2-11-10-13-9 0 5-2 11 2 16 0-1-2-4-1-8 2 4 4 8 6 11 7 1 16 11 20 9-2 7 6 10 9 13-13 1-20-2-26-11 4 7 13 15 26 13v1l-1-2c7-2 10-2 13-7 0-4-4-8-2-14-16-10-14-25-29-32 4-5 10-2 13-4 1 0 10 3 11 8-6-8-14-13-25-10"/><path fill="#49280F" d="M402 239c-7 22 1 43 7 61-5-5-11-12-17-12-11 0-18-2-27-1l-6 6c-11 3-3-5-9-3-5 3-8 12-4 12 9-3 16-7 23-9 18-5 35 8 38 11 5 3 5 6 9 10 14 16 17 14 25 18 5 1 10 0 14-2 6-3 8-8 10-11-2 1-10 10-20 7-10-2-18-7-25-16-11-16-9-15-15-29-3-16-2-35-4-37"/><path fill="#703B09" d="M455 387c-6 9-12 19-15 29 14 10 31 11 46 10 4-4 2-10 0-13-1 2 1 4 2 9-11-10-22-14-30-25-3-3-4-5-5-7"/><path fill="#4A201B" d="M390 332c-11 4-21 7-32 10-7 2-13 5-14 11 1-2 3 2 6 2 12 4 22 5 32 10l2 2-3-1c-8-7-20-6-29-11-2-3-6-4-3-8 17-8 30 8 42 8 6 1 8 4 10 6-1 2-2 5-3 5 1-1 3-2 4-3 7-7 5-29-5-30-2-1-4-2-5-1"/><path fill="#603E1F" d="M242 209c-18 1-33 15-41 28-1 2-3 2-2 4-6 9-8 17-10 25 6 5-1-15 10-24 6-10 12-18 24-24 11-7 24-6 35-7 9 1 15 4 21 7 10 7 15 14 22 23 6 9 8 17 9 26 1 13 0 24-5 32-5 13-17 22-23 27 0 4 6 2 9-1 6-5 14-10 14-14 6-7 8-21 9-30-3-11-1-26-9-37-7-13-19-25-25-31-21-6-15-3-38-4"/><path fill="#BB8532" d="M414 316c3 5 7 9 11 13-5 5-1 13-3 21 4-1 9-2 13-5 12 1 28-4 38-2 1 0 2-1 2-3 3 1 4 3 5 5-1 2 0 3 0 5 0-2-1-3 1-3 8 1 12 6 19 7-8-5-3-5-20-11-5-3 2-4-4-3-1-4-1-6-2-9 1 2 0 4 1 6-6-4-8-8-12-11-6 4-13 12-23 9-11-3-16-9-25-18"/><path fill="#876E4C" d="M305 392c10-3 21 2 20 13 0 0-3 6-6 7-7 5-16 8-22 2-5-6-1-15 4-19"/><path fill="#A96511" d="M233 388c-4 1-4 4-6 6-6 14 2 20-1 30 15-10-5-10 10-32 3-4 5 2 10-2-20 25 7 7-13 41 8-6 19-12 22-21-7-4-2-29-21-22"/><path fill="#5C2C2A" d="M354 345c-20 13 32 14 28 22 8-1 14 0 19-4-10-11-21-6-30-16-7 0-11-2-15-1"/><path fill="#462E1D" d="M440 249c-11 1-20 2-6 7-2 3 1 8-1 12 4 0 3-6 0-9 6 9 24 19 25 34 5-13 1-27-7-37-4-5-3-4-10-7"/><path fill="#3D3629" d="M236 241c0 10-17 34-3 49-12-6-19-11-18-21 1-8 4-13 7-18 4-4 6-7 9-8"/><path fill="#6B3704" d="M203 348c-16 6-33 13-47 24 11-7 24-16 39-16 2 5 5 9-2 13-10 5-19 10-31 8 17 3-1 9 24 4 12-4 29-18 18-32"/><path fill="#673408" d="M474 349c-5 15-1 11-3 27 4 1 8 2 13 1-6 3-16 6-18 3 2 6 8 3 12 4 1 4-6 2-8 3 2 1 4 4 6 4 22-6 11-16 27-20-6 1-10 2-16 1-1-3-10-3-9-9 11 0 25-2 31 2-10-5-21-3-29-7-7-2-4-4-6-7"/><path fill="#69380A" d="M151 395c-6 7-13 15-22 18-2-1-2-2-2-3-1 5-5 11 2 13 6-4 16 0 23-7 11-9 8-24-5-15"/><path fill="#644329" d="M378 444c20-8 16 18 6 17-5 4-11 4-15 2-3-7-1-12 4-17 2-3 4 0 4-3"/><path fill="#84521B" d="M357 167c-2 16-7 31-15 43-7-6-14-25-10-29-3 10-5 15-3 20 2 7 6 12 10 14 11-11 19 5 29-5 2-6 3-9 2-14 0 5-5 7-6 11-5-3-7-7-11-6 1-12 3-22 5-31"/><path fill="#403A2D" d="M235 243c-4 2-8 3-10 7-5 6-8 11-9 17-1 11 5 16 12 20 1-4-4-12-1-21 2-9 7-16 10-23"/><path fill="#713D0D" d="M428 445c-8 1-5 8-3 12-2-1-5-2-5-4-4 1-5 4-8 4 5 11 14 13 17 21-5 3-8 2-11 1 2 1 5 2 9 1s7-5 7-7c1-12-2-20-6-27"/><path fill="#6B3503" d="M260 397c2 10-5 20-12 25s-13 9-18 11c1-7 4-12 6-18-4 6-6 12-12 16-1-5-3-8-2-13-1 4-2 7-1 11 3 3 4 7 8 8 11-1 17-5 24-8 5-5 8-9 10-13 0-7 2-13-1-17"/><path fill="#BA8734" d="M286 333c-6 3-18 7-25 13 18 4 52 10 22-15"/><path fill="#FAD885" d="M352 151c-7 12-4 5 11 6 5 10 11 16 14 23-2-5-5-12-10-18 9 2 16 6 23 10 18 19 33 30 58 50-3-4-9-9-10-12-17-12-30-29-50-40 5 0 8 2 13 3-11-4-22-10-32-17 1 2 5 1 5 3-7 0-14-8-20-6"/><path fill="#8F4F09" d="M231 388c-3 1-6 1-6 4 1 6-8 35-9 18-1 13 1 19 6 23 3 4-7-8 0-15 0 4 1 8 2 11 6-3 8-9 11-14 1 8-5 13-6 17 4-2 5-1 6-2 8-5 15-9 19-15 4-7 6-11 6-15-19-23-5 9-4 9-5 11-13 15-19 20-2-4 4-15 4-24-6 6-7 14-13 20-2-8-2-10-5-17 2-9 3-16 7-21"/><path fill="#8E5212" d="M142 383c-5 8-15 19-18 34 1-8 17-5 25-22-7-7 11-7-6-13"/><path fill="#CD8523" d="M178 331c-8 4-6 5-12 11 4-2 7-7 13-5-12 14-11 8-20 27 7-5 15-4 22-10-1-4 5-7 6-12-6-4-15-9-6-11"/><path fill="#FBE0A6" d="M291 219c19 12 20 26 26 33-5-14 16-14 10-17-13-11-30-14-32-12"/><path fill="#FCE6A6" d="M319 176c-9-1-9 8-11 13 1 11 15-4 16 7 4-7 2-12 7-17-3-1-7-3-11-3"/><path fill="#DCB472" d="M289 162c12-3 18 10 6 15-6 2-14 3-17-2 3-8 5-10 8-11l2-1 1 1"/><path fill="#EAD6AC" d="M421 300c6 2 2 9 9 10 7 7 19 6 27 7 3 2 1 2 0 3 5-3 8-11 9-14 3-8-12 6-19 3-12-1-14-1-24-8"/><path fill="#6B3604" d="M142 272c4 5 5 11 4 18-10 5-3 6-4 13-7 3-14 3-19 4-9-2-15-5-20-8 12 6 14 12 18 18 7-7 14-10 24-8 1-6 3-16 4-23-1-7-3-9-5-13"/><path fill="#F8EFD6" d="M265 242c-6 3-6 9-5 16 2 7 10 9 14 6 8-2-3 0 2-10-10-1 1-10-10-12"/><path fill="#140703" d="M411 272c2 12 9 24 21 30 4 2 8 3 13 2-2-15-23-13-34-30"/><path fill="#464032" d="M232 244c3 8-10 22-7 35-8-2-9-8-8-12 2-10 6-15 12-20"/><path fill="#6A3708" d="M111 356c2 3 2 6 6 8l-1 3-3 1c-6 5-14 14-19 22-2-2 0-4 0-6-3 5-2 14 6 14 11 2 19-2 27-4-7 2-20 5-31 3 7-5 15-7 21-12-6-2 7-6 1-10-6 3-12 7-17 11 3-8 7-14 13-18l2-1h1c1 1 0 3 1 4 1-2-1-3-1-4-1-5-5-6-5-9"/><path fill="#704D30" d="m378 446-2 1c-5 3-9 8-4 13 4 3 9 1 13-1 9-6 4-18-5-14"/><path fill="#CFAE80" d="M408 265c-1 8-3 14 2 20 4 10 5 14 11 22 7 7 11 12 15 13 6 4 15 5 18 1-3-5-24-1-28-13-6-13-21-24-18-42"/><path fill="#F5CA7D" d="M210 198c-17 5-5 15 5 15 5-2 8-3 11-6-7 0-8-9-16-9"/><path fill="#FAD37C" d="M269 136c-12 2-33 13-51 10 7-1 10 4 18 6-6-3 1-4 3-5 16-1 77-3 25-5 4-5 4-4 8-6"/><path fill="#DCA23F" d="M199 175c-8 2-10 11-13 15 4 9 12 9 18 8-8-4-5-14-5-21"/><path fill="#BD7D2C" d="M359 161c1 12 2 20-5 30 3-1 2-2 4-2 2 3 2 7 3 11 2-10 8-14 9-15-3-25-6-17-11-20"/><path fill="#80460B" d="M453 401c10 3 20 13 29 19-7 0-16-2-22-6-5-4-8-6-9-9"/><path fill="#623E1E" d="M398 255c0 12 1 24 7 33-12-4-23-5-34-6-10 0-23 6-17 9 4 2 8-1 9-5 11-1 18 1 27 0 8 1 14 8 16 14-2-14-9-28-7-44"/><path fill="#E8D2AD" d="M321 141c-1 8 19 12 28 12-1-8-7-9-11-11-6-1-9-2-14-1"/><path fill="#BC8032" d="M349 162c-5 3-9 8-12 12-5 13 3 12 5 20 5 15 24-66 8-9-3-11 1-17 0-21-8 6-5 13-10 16-3-7 3-11 6-17"/><path fill="#AE6813" d="M184 360c-13 1-19 14-29 15 5 1 14 1 19 0 8-4 14-12 13-16"/><path fill="#67452A" d="M378 445c8-4 17 7 7 12-5 4-10 5-13 0-2-5 1-7 2-10"/><path fill="#8B4D08" d="M223 153c5 6 10 13 13 19-7-1-6 12-14 9-6-3-6-8-8-12 2 10-5 3-1 11 8 6 17 5 24 0 1-4 10-2 8-12 1 7-3 4-6 2-7-3-8-10-15-16"/><path fill="#371B09" d="m408 459-1 1c-13 5-30 13-46 14 6 0 11-3 17-3 12 8 22 5 31 10-1 2-7 0-11 0 9 6 45-1 11 0-4-2-10-5-15-5-1-9 8-10 12-16 4 0 5 1 7 1 0-1-2-1-2-3"/><path fill="#DA9E3D" d="M472 302c-3 8-5 19-12 26 1-1 1-1 2-3 5 5 7 7 12 10 0-1-1-3 0-4 2 2 0 6 2 8-1-9-2-35-3-36"/><path fill="#C98325" d="M129 164c1 8 6 14 12 20 11 9 17-6 24-2-8-12-5 5-27-16 3 6 10 8 13 13-1 4-3 3-4 4-9-7-17-17-15-19"/><path fill="#4D2506" d="M119 373c7 4-8 13-2 10-6 7-13 10-20 13 11 1 21 0 28-5-2 0 0-11-6-16"/><path fill="#E4A73E" d="M248 168c-2 15-22 22-33 29 7-3 17 3 23-6 7-7 12-13 10-22"/><path fill="#8B4C09" d="M131 270c11 0 3 6 11 9 2 5 2 9-1 11-6 2-10 1-13 0-7 1-12 1-17 1h15c0 3-4 1-6 2 4 0 8 0 13 1 3 2 7 5 5 8-12 3-17-1-28-1 9 5 21 6 30 2 3-7 12-35-7-32"/><path fill="#494435" d="M232 245c-7 5-12 12-14 19-1 7-1 12 3 14 2-12 7-22 12-31"/><path fill="#BB8333" d="M327 196c-5 5-1 13 2 17 6 7 10 9 16 10 11 3 23-2 28-11-5 8-18 7-29 9-9-7-16-11-18-24"/><path fill="#3B1E0C" d="M264 416c-4 12-15 18-25 20-8 1-14 3-18-1-5-3-8-5-9-8 0-8-1-8 0-2 2 5 3 8 7 9l2 2h1c17 4 16 9 29 3l-2 4 1-2c7-5 11-13 13-23"/><path fill="#8F4E08" d="M465 390c4 6 9 10 13 15-34-16-9 2 9 16-7-19 9 3-7-19-6 1-9-7-14-9"/><path fill="#170D08" d="M218 287c12 12 27 12 39 12-5 5-13 5-18 3-9-2-15-6-19-12"/><path fill="#F4EBD6" d="M420 250c0 3-1 15-2 15 1 2 4 4 7 4 7-2 5-8 4-10-2-6-5-8-8-10"/><path fill="#3E2B1E" d="m254 242-2 1c-2 6-2 9-5 14-2 6 3 11 5 12 5 1 8 1 10-1-2-7-9 3-11-5 3-10 9-16 6-23"/><path fill="#9D6C28" d="M271 339c-13 2-19 5-31 10 5 3 12 4 16 4 7-3 1-10 14-12"/><path fill="#A96615" d="M211 152c-3-1 3 6 0 21 1 3 1-3 2-4 4 3 4 12 12 12 4-4 6-10 10-8-1-4-4-6-4-7 0 2-5 4-7 13-5-11-11-18-12-28"/><path fill="#83490C" d="M452 402c2 13 20 15 28 19-7-8-16-13-24-19"/><path fill="#FAE5A6" d="M386 168c25 14 36 30 51 39-7-9-18-19-33-33-6 1-11-4-15-5"/><path fill="#533A26" d="M435 251c3-1 8-1 10 1 8 5 11 10 12 16-6-6-15-8-20-14"/><path fill="#AE670C" d="M183 330c-8 0 2 1-6 4 5 2 6 4 10 5 0 8-6 11-3 14 8-1 7-8 9-15-4-2-2-8-9-7"/><path fill="#AE6710" d="M132 176c2 5 4 10 8 15 5 1 14 1 18 0 5-3 4-2 7-7-7-5-9 7-18 3-7-1-10-6-13-11"/><path fill="#844D14" d="M478 363c1 5 6 5 10 7 6 1 13 1 18-3-6-5-17-3-25-1"/><path fill="#C07F2B" d="M285 109c-12 8-7 9-6 22 2-5-1-12 2-17 5 6 3 13 4 18 2 3 4-2 4-3 3 6 8 5 9 2 0-3-8 0-14-21"/><path fill="#F3DFB3" d="M175 234c-6 2-10 3-13 7-2 3-12 9-6 13 5 3 6 5 12 2 1-3 3-4 4-6-1 2-3 3-6 2-5-1-6-5-4-7 4-6 11-7 15-11"/><path fill="#6D3704" d="M131 177c2 6 5 13 8 19-6 2-10-4-12-9 3 8 9 20 20 18 4-3 6-5 8-8-3 3-7 0-10 1-8-7-10-13-13-20"/><path fill="#DFC399" d="M325 141c8-1 17 2 23 7-8 4-17 1-24-4"/><path fill="#914D06" d="M400 141c-5 6-8 12-13 18-7-4-11-3-16-5 4-1 37 31 33 1-1 3-2 5-4 8-4-1-1-4-1-6-2 3-6 9-10 6 3-8 6-14 10-20"/><path fill="#BE7C25" d="M238 391c-1 1-3 1-2 3-3 8-7 15-4 21 4-10 18-23 7-23"/><path fill="#F0CE8A" d="M355 237c8-5 6 6 9 2 2 5 0 7-2 8-5 2-7 1-9-2-2-4-2-6 1-7"/><path fill="#A46923" d="M368 187c-2 4-4 8-4 13-6-8-4-14-10-7-3 9 3 5 7 12 7-3 12-12 9-18"/><path fill="#6B3808" d="M105 318c7 1-3 11-11 12 4-1 7-2 10-3-3 6-7 6-11 8 3 2 5 3 9 2-1-3 7-2 6-8 4 6 1 11 1 15 4 1 3-3 6-3-8-6-2-18-7-23"/><path fill="#6E3906" d="M201 166c-2 12 2 23 7 22 6 0 12 1 16 1 5-4 6-2 7-4 4-2 9-5 11-9-3 2-3 6-9 7-8 4-18 1-22-4 1 11-9-4-6 2-5-3-4-8-4-13"/><path fill="#8A4C07" d="M192 357c-2 1-6 0-7 2-12 3-20 9-28 15 8-4 16-13 26-15 9-1 3 6 1 8-3 5-6 8-9 9 7-3 30-10 18-19"/><path fill="#D2B992" d="M290 165c-4 1-8 2-9 7 9 8 29-6 10-8"/><path fill="#6F3F0E" d="M372 182c-1 10 2 22-5 30-10 4-11 0-19-1 1 3-5 6-7 3 6 5 13 3 18 4 6-3 11-4 13-8 4-1-2-11 0-28"/><path fill="#AA6618" d="M351 126c-2 3-2 7-6 9-6 5-7-1-5-4-4 2-10 4-9 5 7-2 4 2 12 4 3-2 3-4 4-6 1 3 2 5 0 7 10 1 18 3 15-8-2 2-1 6-2 8-1-7-2-3-7-2 3-9-4-1-1-11"/><path fill="#8A4E0F" d="M115 365c-10 2-21 27-22 22 4-2 7-7 12-11 0 3-3 5-4 9 5-3 9-7 15-10-4-3 2-5 0-8"/><path fill="#A86314" d="M462 384c-9 5-2 1 1 7-5 4 5 7 2 10h-2l2 1c3-6 8 4 11 4-2-6-7-9-12-9-3-5 3-5 3-2 8 10 17 5 19 14-6-19-12-6-22-25l5 3-2-1c-1-2-2-1-3-1"/><path fill="#8F4B07" d="M466 212c-6 2-11 6-16 8-4-2-5-3-6-4 14 2 0 13 19 14-2 3-4 4-5 6 12-7 5-5 11-16-6 1-9 9-16 4 3-7 10-9 14-13"/><path fill="#C28529" d="M201 181c-5 6 0 13 4 16 9-1 17-3 22-7-5 2-11 2-17 1-5-1-10-5-9-7"/><path fill="#AC732E" d="M172 299c3 1 4 2 7 5 0 5-5 8-8 8-4-3-6-5-5-8-2 1 10-3 3-3"/><path fill="#F7CF7A" d="M400 231c-4 5-10 2-12 18 7 3 8 9 8 19-1-12-1-26 3-36"/><path fill="#A36A27" d="M343 166c-8 8-10 12-12 19 2 0 2 13 7 16 8-11-4-12-3-20 0-7 3-9 5-13"/><path fill="#A96718" d="M103 291c-6 6 1 6 4 8 13 1 19 5 29 2-36-16 20 9-46-10"/><path fill="#684727" d="M412 428c5-5 9 5 5 7-4 5-4 4-7 6-4-4-3-9 1-13"/><path fill="#5E3A20" d="M200 433c2-2 2 2 3 2 4 3 7 5 6 9-7 2-15-3-11-11"/><path fill="#DCA34C" d="M132 164c0 1 5 11 13 17 11-2-7-9-8-13 6-4 21 8 23 11-7-10-16-13-26-15"/><path fill="#904A04" d="M475 295c-2 4 2 5 2 8 6 2 11 1 15 3-4 2-13-3-15 3 8 2 8 6 15-1l1-1v-1l-2-2c-4-5-10-1-16-6"/><path fill="#C07E2C" d="M355 121c-20 22-3-5-25 15 3-4 6-5 8-6 2 4 0 9 6 5 4-3 4-6 6-9 3 3 2 7 2 8-2 9 11-4 6 6 4-15 3-11-3-4 2-6-1-11 1-13"/><path fill="#341908" d="M370 293c0 1-3 3-4 2-7 4-12 6-17 8-7-4-7-7-4 0 8-1 13-5 18-7 16 3 33-3 41 10-5-9-14-13-23-13-5-1-7-1-10-1"/><path fill="#DA9839" d="M128 279c-17 1-5 3-20 8 0-10 53 8 20-10"/><path fill="#573E29" d="M437 251c3 8 13 9 18 18 0-6-3-11-8-15-3-3-6-3-9-2"/><path fill="#D59842" d="M354 159c-3 1-5 1-5 4-3 5-11 10-11 16 0-8 6-5 9-14 7 1 2 9 1 14-1-4 8-10 10-21 1 4 3 7 2 9 1-5 7-4 1-7-3-2-4-2-5-1"/><path fill="#61322E" d="M336 351c-14 24 4 3 16 7-5-2-9-6-16-5"/><path fill="#AA620B" d="M225 390c-10 5-8 15-10 18 0 5-1 8-1 12 2-9 9-4 9-30"/><path fill="#45240C" d="M208 465c-6 5-11 12-19 15 9-5 20 0 8 3 6-6 35-25 9-9 2-3 2-5 3-8"/><path fill="#633A1E" d="M157 421c4 8 22 20 23 26-2-12-13-19-21-24"/><path fill="#C5822A" d="M214 159c3 6 7 12 9 18 0-12 12-7 7-12-3-5-8-1-6 3-4-7-3-10-9-6"/><path fill="#C58229" d="M116 279c-5 6-16 8-17 16 2 5 4 7 5 9-1-4-7-9-3-13 38 1 50-7 3-3 6-3 11-5 14-6"/><path fill="#96774E" d="M116 344c2-2 5-1 6 2 1 4 2 7-1 8-4 2-7 1-7-2-1-3 1-4 1-5"/><path fill="#875245" d="M347 357c-34 15 12 1 20 5-6-1-12-4-20-3"/><path fill="#E7C485" d="M167 201c2-1 5 2 6 3-2 6-4 10-9 10-2-5-1-9 1-12"/><path fill="#E9C37C" d="M375 255c3-2 8 1 9 3 1 6-5 6-3 6-6 3-5-3-7-2 0-2-1-3 0-4"/><path fill="#8D4E08" d="M120 254c-2 2-2 5-5 6-6-1-12-2-18-1 6 0 16 2 16 9-8 0-13-1-18-3 12 5 3 10 16 5 3-10 8-6 9-13"/><path fill="#120905" d="M219 287c3 6 9 10 14 13 8 3 17 3 24 2-13-3-28-2-36-13"/><path fill="#AC6611" d="m398 145-9 15c5 2 14-7 8 3 12-10 8-20 2-7-1-3-9-1-1-9"/><path fill="#663E1E" d="M416 220c-4 1-7 2-9 6-10 15-4 11-5 21 0-5 3-11 4-17 2-12 35-7 10-11"/><path fill="#6A370A" d="M126 397c-3 1-5 1-8 2-2 6-4 12 2 14 11-7-3-9 5-15"/><path fill="#BB9B74" d="M287 166c3-1 7-1 10 0 1 9-15 10-12 2"/><path fill="#D99B42" d="M285 108c-9 7-7 7-1 1 7 13 13 15 8 20 5-7 1-13-3-19 14 7 8 17 17 11-4-4-14-8-14-12l-4-1h-1v1"/><path fill="#AD6512" d="M400 142c-5 3-8 9-13 11-7-1-5-4-11 0 1-4 2-5 4-6-4 1-8 5-11 4 6 4 11 3 16 8 6-7 10-12 14-18"/><path fill="#8B5216" d="M483 354c2 2 6 3 0 5 8 1 17 1 24 4-6-5-14-6-21-10"/><path fill="#904B08" d="M231 128c-2 3-1 8 0 12 12 2 15-1 24-3-2-1-5 1-9 0-4-3-5-5-8-7 1 2 7 8 3 10-5-9-13 0-10-11"/><path fill="#8E4E05" d="M138 189c2 3 4 9 11 7 7 2 11-2 13-6-5 5-18 1-22 1"/><path fill="#592D08" d="m410 463 1 1c3 1 3 3 4 6-4 4-19-3-8-6"/><path fill="#4E2403" d="M145 309c-14 1-14 3-20 9 3 3 9-1 13-2-1-3 5-3 4-7"/><path fill="#C47F26" d="M403 138c-1 5-12 18-4 15 7-15 3 6 7-5 1-1 0-5-1-8"/><path fill="#C7A97A" d="M405 388c-2 1-4 1-5 2v2-2c2 0 7-2 9 3 3 0 4 3 2 7-6 7 0 11-11 13 5-1 10-3 13-7 1-9 1-17-7-19"/><path fill="#DA9B3A" d="M171 335c-9 7-20 22-15 23 5-8 20-22 10-17"/><path fill="#A8681C" d="M282 115c-5 14 3 0 0 23 7-4 11-1 17-1 0-3 1-5 0-6-3 9-11-8-14 5-1-9-1-14-1-19"/><path fill="#D19D4B" d="M324 198c-2 7-1 15 5 19 5 6 10 8 16 10-2-6-12-4-15-12-5-5-6-10-7-14"/><path fill="#8B4E0B" d="M301 130c-2 3 1 5 0 6-8 0-16 3-19 0 15 7 38-2 17-3"/><path fill="#A56824" d="M145 384c3 3-7 12-9 16-1-5 1-11 6-15"/><path fill="#87704C" d="M342 389c7-4 9 9 5 8-6 3-6-3-6-1 0-2-1-3 0-4"/><path fill="#AD8D62" d="M195 267c-1 9-1 18 2 26l1 2h1v4c3 6 7 11 13 15 5 5 12 7 15 8 9 3 16 2 27 2-9 1-17 1-24-2-9-3-14-7-20-11-5-6-9-11-12-16-3-9-4-17-3-26"/><path fill="#9E8761" d="M286 372c2-2 6 2 7 4-1 3-2 6-3 6-4 0-6-5-6-8"/><path fill="#6E3604" d="M120 258c-2 7-6 4-4 11-5 3-9 4-13 3 2 1 7 3 5 5-5 0-7-1-9-2 3 3 6 2 7 5 3-2 6-4 10-8 2-3 2-8 3-12"/><path fill="#C78125" d="M389 140c0 3-3 0-4 2l-2 1v2l1-1 1-1c7 1-7 5-2 8 10-1 23-16 4-4 0-3 3-4 4-5"/><path fill="#DBA244" d="M121 247c-7 3-15 1-20 6-6 3-11 5-9 11 17-14 9-6 29-17"/><path fill="#AB6514" d="M463 215c-2 2-7 3-9 7 28-5 8-6 4-3"/><path fill="#FBE4A3" d="M349 147c0 8 15 3 22 14-2-4-7-9-1-11-6 3-13-1-20-2"/><path fill="#62340A" d="M186 455c-2 5-3 11-4 17 4-3 7-6 9-9-3-8-6 2-5-8"/><path fill="#C48D2F" d="M414 331c1 7-5 27 2 19 3-3 0-10-1-16"/><path fill="#513A2A" d="M256 246c3 7-8 11-3 19 3 1 4-1 5-1 0-1-5-16 0-15"/><path fill="#A36923" d="M358 160c-1 16-9 28-15 41 11-10 12-34 16-36"/><path fill="#B06911" d="M176 341c-9 9-21 19-24 31 6-6 15-9 22-14-5 3-13 5-17 7 6-10 11-17 18-21"/><path fill="#AA6713" d="M106 262c-12 2-18 3 7 6-3-4-5-6-7-7"/><path fill="#67442A" d="M380 449c-1 1-5 3-5 6 6 4 13-2 8-7"/><path fill="#7A430C" d="M425 448c3 1 7 12 7 19-4-5-4-12-8-17"/><path fill="#CAB083" d="M308 394c-7 0-11 8-8 14 3 5 7 5 12 4-12-2 1-1-11-7 2-7 1-10 7-11"/><path fill="#3C1F0E" d="M226 464c6-2 6 3 12 2-2 8-14 1-13-1"/><path fill="#624325" d="M182 395c3-3 7 0 7 3-3 6-10 4-8-2"/><path fill="#CC9D5A" d="M158 275c7-3 6 8 0 9-3-2-3-5-2-7"/><path fill="#CE831C" d="M219 150c6 4 17 12 24 17 1-5 1-2-1-8-3 4-12-3-21-9"/><path fill="#D3952A" d="M320 317c5 1-1 9-3 13-3-5 0-7 1-11"/><path fill="#F6EACB" d="M325 240c-2 5 0 9 5 9 1-4 2-9-2-9"/><path fill="#D7A95C" d="M136 249c7-2 5 11-2 8-3-3 0-4 1-6"/><path fill="#E5D1B1" d="M418 250c-3 1-4 4-5 7 2 4 1 5 5 7-5-6 0-9 2-12"/><path fill="#B3966D" d="M119 345c-4 1-4 4-3 8 6 2 9-6 5-8"/><path fill="#5B2E08" d="M410 464c-12 2-3 7 4 7-1-3 0-6-3-6"/><path fill="#B09C75" d="M327 380c4-4 6 1 6 4-1 3-3 2-4 3-4-3-3-5-4-6"/><path fill="#815C37" d="M412 428c-2 3-4 5-4 7 5 5 12-4 7-7"/><path fill="#452714" d="M245 476c8 7 17 11 27 11 15-1-3 3 4 1 12 1 16-10 28-6-12-3-20 3-29 5-13-2-19-2-28-10"/><path fill="#8A4C0D" d="M101 319c11 2-8 10-11 14l1 3v1h2c3 1 6 3 11 2-5 0-9-1-13-3 20-9-4-3 19-18"/><path fill="#F1C673" d="M303 151c3-2 7 0 8 2-2 4-9 7-10-1"/><path fill="#66350C" d="M177 451c-6 22-5-8-7 15 1 3 1 8 3 11 1-5 1-15 3-22"/><path fill="#DA983B" d="M213 153c7 3 3 1 9 12 0-1 5-6 6-1-3-7-7-10-10-13"/><path fill="#A3661D" d="M476 339c-4 14-6 5 3 5-7 1 5 8-1 12 5-7 18 1 28 3-7-4-17-8-25-6-3-3-4-6 0-7-2-4-3-3-5-4"/><path fill="#C37F27" d="M211 149c-6 7-5 4-7 10 4 0 0 10 3 16 1-8 0-17 2-24"/><path fill="#763603" d="M453 219c-1 3-7 2-4 4 3 6 5 10 7 13 2-3 4 1 5-3 6-5-10 2-10-8l-2-2 1-1h2"/><path fill="#934F09" d="M348 134c-1 2-2 4-4 5-8 1-7-5-12-1 2 2 14 3 16 6 15 3 20-4 0 0-3-3 1-5-1-8"/><path fill="#B2680B" d="M230 157c2 5 6 13 13 14 1-3 3-5 0-8 2 2 1 5 2 6-4-6-9-2-14-11"/><path fill="#D79C48" d="M352 121c-10 2-9 3-16 9 28-18-9 15 21-11-2 9 5 7-2 15 4-4 5-9 1-12h-2"/><path fill="#916129" d="M416 454c5-3 8 5 7 8-5 1-4-4-6-5"/><path fill="#B69A72" d="M117 345c3-3 8 4 5 6-6 3-7-1-6-4"/><path fill="#BB7318" d="M177 362c14-1-1 7-6 6 1-3 3-3 5-4"/><path fill="#E2B46C" d="M136 171c4-1 8 4 11 6-4 2-7-1-10-3"/><path fill="#C67F25" d="M458 208c-19 8 2 6 8 1-1-2-5 0-7-1"/><path fill="#C88126" d="M156 356c-2 1-4 3-5 5-2 7-2 14 5 16l2 2-2-2c-3-1-5-3-4-7 9-18 10-11 0-10"/><path fill="#AB8659" d="M404 399c-1 3-5 1-6 4 4 6 10 1 8-4"/><path fill="#7A5633" d="M412 429c7-2 4 7-1 8-2-3-1-5 0-6"/><path fill="#683206" d="M382 317c-48 8 2-3 15 6 11 8 13 17 14 26 1-5 0-9-1-13-2-4-6-9-11-11l-1-1-1-1-2-1c-7-2-18-3-14-5"/><path fill="#805A38" d="M413 218c-5 4-11 7-11 12-7 10-4 23-5 33 1-9 1-19 3-28 4-11 14-17 14-17"/><path fill="#7B4813" d="M155 398c8-3 1 10-4 7-1-3 1-3 3-4"/><path fill="#462F17" d="M413 407c-2 3-4 6-7 7-7 1-11-1-13-5 1 6 6 8 12 7 5-1 5-5 7-6"/><path fill="#CC964D" d="M477 341c18 1 7 9 27 14-4-6-13-11-21-15"/><path fill="#4A2F1A" d="M335 459c4-2 5 4 6 1-1 8-9 5-6 1"/><path fill="#D8B279" d="M326 239c-4 1-7 4-6 9s5 6 8 7c6-2 6-6 7-9l-2-3v-2l1 3v2c2 4-4 9-7 6-10-4-3-16 1-13"/><path fill="#C58126" d="M132 271c4 0 1 4-1 4-5 2-10 2-11 4 9-8 33 13 10-4 2-1 8-2 6-3"/><path fill="#6D3507" d="M281 132c0 2 0 4-1 5-12 2 17 8 27 1-6 3-13 3-21 2-5 0-4-5-5-7"/><path fill="#512604" d="M472 361c-2 6-4 11-5 17 6 1 11 2 15 0-4 1-8 0-12-1-1-4 0-11 2-14"/><path fill="#E0C289" d="M377 255c-6 6 0 5 2 8 6-4 1-7-1-7"/><path fill="#977C55" d="M371 280c-1 3 21 0 27 6-4-4-15-6-24-7"/><path fill="#AE6617" d="M466 210c-7 6-14 3-20 6 7 5 18-8 23-5"/></svg>