<svg xmlns="http://www.w3.org/2000/svg" width="600" height="600"><path fill="#9C6D43" d="M307 98c24 18 48 31 69 54 12 13 16 28 19 43 11 1 18 4 26 5 5-12 1-29 13-39 17-21 35-37 53-52-2 24-3 47-13 65 4 1 9 1 13 4-17 9-28 24-41 35 2 5 7 11 8 17-3 15 1 30-1 44-3 5-6 8-10 9-10 5-25 5-29 5-4 31 16 50 21 74-8 19-18 32-22 49-6 5-8 0-9-3-7 8-15 11-19 17 0 19 6 34 12 49 10 9 24 17 31 23-20 1-36 2-52 1-5-25-8-48-17-69-3-9 4-12 6-17 0-5-1-6-3-7-8 7-17 12-21 18-6 8-5 15-8 21 8 20 22 30 35 43-5 4-11 3-16 4-2 3 3 5 1 7h-39c-6-23-1-50-15-69-1-10 7-13 6-20 2-10 1-18-3-24-3 8-6 14-10 20-13 15-32 21-35 39-2 11-2 20 2 27 1 14 15 13 18 25-26 3-55 2-81 3-1-22 1-43 0-65 11-14 19-28 19-44-11 3-22 3-32 5-13-1-22-5-30-10-11-10-18-19-23-29-7-12-12-23-15-34-5-19-7-38-4-56 2-19 8-33 18-46 4 0 8-1 8 2 2 13 4 24 7 34 6 20 13 37 22 52 8 15 15 27 27 34 10 2 18 2 24-2 10-10 15-21 25-29 8-7 14-11 22-13 9-10 11-21 9-33 16 9 33 15 40 32 14 4 28 15 41 11 9-15 17-27 21-41-2-15-1-29-3-42-25-12-45-31-66-49 2-5 8-4 11-3-3-6-7-11-9-16 1-19 0-38 0-56"/><path fill="#E88F37" d="M290 304c-12 2-22 7-29 2-20 6-36 35-30 34-4 7 0-1 4-3-7 11 6-2 0 13 2-1 5-1 7-3-4 5 0 6 4 8 5-4 16-5 18-15 6 3 15 3 20 8 1-3 3-5 4-7 5 5 7 8 15 8-5-6-4-13-6-18 11 9 19-10 24 1 2-4 8-10 3-13 42-6-29-8-33-14"/><path fill="#3B1612" d="M274 352c-19 4-8 23-23 32-8 9-17 13-24 18-1 14-11 26-13 40 3-11 8-21 15-31 10-10 21-15 25-27-2 10 14-2 11 14-6 13-8 27-14 39-2 0-3-2-3-4 0 5-1 12 5 15 2-8 5-16 12-22 8-10 17-14 24-23 5-8 6-15 8-22 9 1 10 9 11 14 2 12 0 21-7 29 3 12 8 21 11 30-3-9-7-19-9-29 4 6 8 14 9 23 8-18 7-47 5-75 1-2-11 2-23-7 8 4 17 12 19 20-11-6-24-8-37-5-3-7-5-12-8-17 4-6 13-8 19-3-3-3-5-7-8-9h-3"/><path fill="#F19135" d="M370 313c-13 4-23 13-34 23-4-1 0-9-7-6-5 12 4 27 0 49 2 6 6 7 8 9 6-1 9 5 15 4-2-12 1-20 6-28-1 11 5 2-4 22 6-2 11-4 13-7 3-23 6-46 4-65"/><path fill="#E1D7A3" d="M133 225c-8 8-11 18-14 28-3 12-4 22-5 32 1-3-1-7 3-9 2 8 2 15 5 21 4 4 19 28 23 31 5-5 8-11 13-17 6 4 8 8 11 13-8-16-21-25-25-45-6-18-14-33-11-53"/><path fill="#75432B" d="M143 336c-4 6-6 14-8 19 6 12 8 13 0 2 16 8 15 25 26 26-5 3 39 3 47-2 2-11 6-23 9-33-14 6-28 14-42 16-17-4-29-20-34-24"/><path fill="#F7D269" d="M348 135c9 8 17 16 23 25 9 20 16 38 21 57 5 4 10 3 14 7 6 7 9 14 15 19 7 1 13 2 17 2 5-7 7-13 11-18-13-19-29-12-45-26-9-3-5 4-8 8-5-16-7-28-13-38-9-15-21-26-33-34"/><path fill="#CD702E" d="M298 331c5 4-1 12 7 19-9 0-13-3-15-9-4 3-2 5-3 8-8-5-17-5-23-7 0 8-12 8-14 15-7-8-15 2-18-4-5-5-1-12-3-11 0-5 5-5 6-4-2 2-3-2-5 0l-1 1 1 1-2 1c-3 4-5 10-7 15 0 6 0 15 3 23 5 4 7 9 11 9 6 1 9 0 12-2 12-11 14-24 16-37 3 0 2 2 3 3 3-2 6-4 10-5 15 2 17 11 31 12-1-10-11-21-5-26"/><path d="M254 391c-11 16-31 25-36 47-3 10-3 21-1 29 2 11 5 19 11 25 4 1 7 1 10 2-3-20-3-40-7-58 13-14 20-28 22-43"/><path fill="#B86F39" d="M162 311c-25 28-13 27 2 47 6-3 8-11 13-15l2-1v2c-4 4-7 8-8 13 13 3 26-2 39-8-9 4-22 0-29-7-8-9-14-18-20-27"/><path fill="#F7F4CE" d="M386 304c-9 12-12 27-12 42 1-1 0-4 1-6 0 19 18 7 16 17 8-3 7-11 9-16 4-10 9 7 7-1-3-7-5-11-7-16-2 3-2 8-5 10-2-9 3-6 2-14-3-7-5-12-9-17"/><path fill="#B19D7F" d="M116 276c-3 14 3 27 2 40 0 10 9 25 15 37 4-9 10-19 13-24 0 4-1-2-3 1-5-7-20-32-20-34-5-5-5-11-7-17"/><path fill="#763920" d="M380 273c-7 18-10 27-23 40-7 2-18 14-25 8-6 10 10 3 3 13 12-13 28-20 39-27 2 1 1 2 0 3 8-1 9-12 15-16 0-10-5-14-8-20"/><path fill="#7B6E68" d="M405 285c-6 2-13 8-17 16 13 18 14 27 25 40-2-19-4-44-7-57"/><path fill="#E7DAA2" d="M403 337c-1 6-2 16-10 20-4-1 1-2 1-6-8 10 0-6-11 5-6-5-4-11-7-14 4 4-5 10 0 22 4 3 4 9 7 12 1-3-1-7 3-8 0 4 1 8 1 11 5-4 7-8 9-13-1 4 4 8 7 3 5-7 6-14 8-21 2-3 1-4 0-5 0 3-1 6-2 9-2-6-2-11-4-12"/><path fill="#CD6A29" d="M324 326c4 7-4 45 0 67 7-5 9 20 23 11 6 0 11-7 6-10-5 2-10-6-14-3-5-4-9-6-10-11 2-27-5-39-1-57"/><path fill="#512B24" d="M409 382c1 14-9 21-5 22l-3 2h-1l-2 1c-5 3-12 2-17 0-8 1-8 9-11 8-4 10-2 15-1 25 5 2 8 3 13 2-1-6-2-13-1-18 8-2 7-9 19-16v-1l1 1 1-3c4-3 3 4 5 5-6-9 4-14 1-26"/><path fill="#B28F67" d="M322 424c-2 4 0 12-4 17 2 16-1 34 1 49 6-7 11-4 10-12 1-10-2-18-1-27-3 1 0 6-4 6-6-30 13-21 1-34"/><path fill="#F0C662" d="M469 130c-7 8-16 16-22 24-3-3 0-3-6-1 7 1-10 15-9 22-5 11 0 4 1 12 3-3 1 4 6 1 10-17 19-39 27-56"/><path fill="#572C1E" d="M274 360c-12 4 1 11 1 19 15-3 29 1 39 8-4-6-11-15-18-19-2 1-4-5-13-8-3 0-5 0-8-1"/><path fill="#B66C3A" d="m320 120 3 21c10 20 24 32 32 36-10-17-17-37-33-56"/><path fill="#EFC25D" d="M323 144c3 11 5 23 9 33 5 9 4 14 12 17 4 1 1-11 9-12-8-13-24-22-28-37"/><path fill="#774733" d="M475 134c-8 12-16 23-21 35-3 11 3 11 0 17 7-7 13-15 17-24 2-10 5-17 4-26"/><path fill="#704430" d="M218 367c-2 13 5 23 1 33-1 0-8 22-18 32 5 50-8 50-3 55 8 8 12 7 10 2-1-2-5 3-6 5 0-21-2-42 3-60-1-1 4-6 6-11 1 16-4 30 1 28-6-22 18-36 9-57 6-9 13 4 20-4-4 3-10 1-12-1-9-6-11-12-11-19"/><path fill="#9C6744" d="M212 425c-5 5-7 11-8 18-2 17-2 34-3 49 4-7 9-4 13-6-5-16-1-39-6-37 1-12 1-17 2-22"/><path fill="#EFC162" d="M384 245c1 6 0 8 2 12 3 7 11 7 15 12 14 7 34 4 46 2-9 4-22-5-41-2 4-9 10-12 15-15 8-3 14-2 20 0-1-2-1-4-4-4-15-7-20 8-31 11 4-3-23-1-20-15"/><path fill="#35130C" d="M412 356c-2 15-16 28-25 39-4 3-9 5-14 8-5 1-13-1-10-6-7 11-19 17-26 25 4-5 16-12 22-19 4 1 6 0 7 3 3 9-5 12-6 18 6-8 12-11 18-17 11 3 30-6 18 3 6-3 5-7 7-7-3 1-6 2-9 4-1-21 14-33 18-50"/><path fill="#A25325" d="M311 103c0 12 11 64 4 52 2 7 6 12 8 18-4 0-7-8-11-13v-2c9 18 7 16 16 22-3 3-8 0-12-1 8 3 14 10 20 17-2-13-10-21-14-41-1-12-8-28-2-40-6-2-3-8-7-12"/><path fill="#B38F66" d="M374 443c-3 16 9 23 10 37 1 6 5 4 9 4-1-13-7-26-11-38-2-1-4-1-7-2"/><path fill="#522A20" d="M255 388c5 8 1 11 0 17-3 8-11 20-20 32 3-1 4-2 6-3 0 1 1 4 0 6 4-6 2-13 7-15 1 4 1 8 3 13 1-14 24-49 5-49"/><path fill="#F9F5D0" d="M130 221c-4 3-13 20-4 6 0 3-2 7-3 10-4-1-6 6-7 8l-1 2v2l1-1v-3c2-2 2-6 4-9-2 12-5 22-6 32-1 13-1 24 2 33-3-12-3-25 0-37 4-16 6-29 16-39 1 9 2 17 3 25 8 21 11 42 25 58-8-16-15-34-20-52-2-11-8-37-3-31-2-4-8-1-9 3 0-4 1-5 3-6"/><path fill="#5F200C" d="M369 163c1-1 2 6 4 9-7 3-6 1-14-1 2 3 0 4-2 5 6 9 14 26 21 28-3-16-2-29-7-39"/><path fill="#994319" d="M321 332c-7 1-14 2-19 5l-1 1v3l1 1c2 6 7 11 7 17-15 1-18-8-29-9 6 2 5 9 10 12 8 5 15 7 21 10 0-4-2-9-3-14 4 4 6 9 8 13 3-19-12-13-13-29 5 4 9 10 16 15 2 0 1-2 2-4-8 1-12-7-18-12h-2l1-3c4-7 30-4 21-6"/><path fill="#BF6A2B" d="M415 350c-3 45 1 3-9 62 9-16 11-21 12-35 4-3 3 4 2 6 2-3 4-5 4-7-1-8-3-16-7-23"/><path fill="#341F25" d="M332 433c-3 28 1 33 6 53 2 1 5 1 6 4 4 0-8-6 2-11 8 2 10 10 17 10-2 3-8-5-11-8 2-3 5-1 8 1-12-4-20-17-25-27-6-7-3-14-1-21"/><path fill="#8B3E1C" d="M333 128c5 6 7 17 19 34 2-1 3 2 4 2 2-3 1-5-1-7 6-2 6 5 11 4-7-13-20-24-33-32"/><path fill="#764B34" d="M248 425c-3 4-4 12-7 18-3 17 1 31 1 45-1 5 1 6 3 7l3-2v2c5 1 5 1 0 0 6 0 10 3 17 1-12 4-10-7-15-4-3-1 0-2 0-4 0 2-3 3-3 4-4-9-9-24-5-36 12 6 8 21 16 29-1-1 0-2 2-3-10-10-3-21-11-38-3-8-2-13 0-17"/><path fill="#F5E390" d="M430 253c-9 2-17 5-24 12 10 9 19-3 24 3-1-2-6-6-3-10 16 0 22 0 3-6"/><path fill="#CD702E" d="M279 270c2 31-6 1-2 25 6 2 1-3 3-6 2 2 2 5 4 5 0-3 0-5-1-7 4 4 5 11 13 9 3-3 1-7 2-9-10-7-13-9-17-12"/><path fill="#652D18" d="M419 327c-2 4-2 13-3 19 2 8 9 14 12 21 3-14-5-26-8-38"/><path fill="#5E2E1D" d="M366 385c-6 7-4 11-15 22-8 4-17 6-22 4-4 8 2 13 4 19 9-17 31-27 33-46"/><path fill="#E59B40" d="M391 212c-4 6-11 13-3 19 26-4-4-5 13-9 12 6 10 18 18 24-3 12-14 12-15 12 9 1 13-8 19-10 8-2 13-1 18 3-3-4 1-7 1-11-1 2-1 6-5 5-5-1-10 1-14 0-8-16-25-24-34-30"/><path fill="#75412D" d="M475 160c-17 29-13 29-36 52 22-11 19-25 43-34-4 0-10 1-14 0 6-13 5-5 5-16"/><path fill="#907563" d="M320 427c-7 10-8 12-4 21-5 3-6-1-6-3 8 9 4 32 4 49 5-16-2-48 6-64"/><path fill="#BB9B70" d="M377 363c-8 34 13 28 25 7-8-4-6 9-16 13-3-5-7-10-9-16"/><path fill="#977459" d="M372 443c0 15 7 33 6 50 4-3 6-5 9-7-4-16-15-25-15-42 2 0 4-1 5 0-1-1-3 0-4-1"/><path fill="#CC7F34" d="M275 318c21-1 17 14 3 1 5 6 4 9 8 13-5 3-10 7-13 8 1-5 4-7 7-9-2-4-4-8-6-11"/><path fill="#99471D" d="M385 206c1 10-10 4-6 10-25-7-25-9-2 3v2l1 1c-1 7 1 13 0 20 2-3 4 1 6 1-4-11-3-11 0-25 0 4-3 3-5 4l-2-1v-2c6-2 13-4 10-10"/><path fill="#3C1309" d="M380 264c6 8 12 12 17 20-2 6-8 10-10 15 4-5 10-11 15-15 7-1 7 3 8 6 2-2 1-5 4-6s5 2 6 2h6c7-4 17-2 22-9-30 7-4 0-25 10-5-2-6-3-8-4-15-6-21-4-33-18"/><path fill="#80391C" d="M354 151c14 17-11 8 4 23-4-9 12 0 11 0-1-18-4-7-13-20"/><path fill="#81695A" d="M409 359c-3 14-15 24-28 31-8-4-4-13-6-20 1 9 0 17-2 25 11-8 0 10 15-5 10-9 18-19 22-31"/><path fill="#632A16" d="M381 266c-1 3-2 7-4 10 1-1 1-4 3-4 5 8 11 14 10 22 2-3 5-5 6-9-6-7-8-12-15-18"/><path fill="#965832" d="M144 336c-2 8 15 21 28 27 14-2 27-8 38-13-15 10-36 11-43 8-16-9-14-20-23-19"/><path fill="#8F6E56" d="M330 427c0 8-8 4-5 30 0-4 1-6 2-8 3 14 5 32 1 37 3-16-2-40 3-58"/><path fill="#5C2A1A" d="M452 175c-2 8-6 16-8 24 8-4 12-5 17-11-2 1-3 2-4 4 1-4 2-6 3-9 1 1-3 2-4 6 2-13-6-3-3-13"/><path fill="#F3BF57" d="M299 301c-22 7 30 9 37 13-11 1-17-10-34-13"/><path fill="#592C1C" d="M253 381c-3 5-7 9-12 11-8 5-14-5-17-1 7 21-10 31-10 49 0-4 10-23 11-38 8-5 20-11 27-18"/><path fill="#915E3F" d="M251 467c-7 6-8 13-3 23 2-2 4-5 7-5-1-5-3-11-4-17"/><path fill="#400F04" d="M345 152c10 19 16 38 29 55-2 2-3 1-5 1 4 3 10 1 12 3 0-5-3-23-6-34 1 8 6 26 3 28-4-9-22-21-32-52"/><path fill="#634B47" d="M374 371c2 11-10 21-10 31 9-1 14-2 14-8-1 1-3 3-5 4 0-10 2-17 1-26"/><path fill="#A44F20" d="M327 393c-6 5 0 11 4 15 4 1 7 1 10 2 8-2 13-7 16-13-2-6 0 9-9 8-6 2-10 2-14-1-3-4-5-8-6-11"/><path fill="#E2A249" d="M352 183c-8 4-1 12-8 12 1 1 6 4 10 4 3-2-1-3-1-4 3-1 4 0 5 1 0-6-4-11-5-13"/><path fill="#E69035" d="M320 334c-6 1-11 1-16 4 2 4 5 6 8 7 2-4 11-7 10-12"/><path fill="#8D593A" d="M243 456c-3 6-2 17 0 22 1-6 6-8 7-14-2-5-3-5-5-6"/><path fill="#F4D074" d="M162 315c8 9 13 23 24 30 11 6 23 3 31 0-9 3-20 2-28-3-18-11-20-24-24-24"/><path fill="#E89D41" d="M380 243c-2 7 2 13 4 18 5 7 12 6 16 9-3-4-7-5-11-7-8-6-4-17-6-20"/><path fill="#3B1005" d="M384 233c4 9 4 20 9 21-7-6 2-10 3-15 4-5 5-1 8-2l1 3-2-3c-1-2-4-4-8-3s-8 3-6 7c-1-4-5-5-4-6"/><path fill="#CB9E62" d="M443 268c-3 13-20 0-29 8 7 8 46-3 26-5"/><path fill="#954416" d="M416 348c-1 21-19 34-20 54 3 0 5-1 8-3-2 0-2 2-3 2-4-10 2-15 4-21 7 9 1-11 9 2l1-2-1-2c1-4 0-7-1-9 0 3 2 5 1 9-2-1-5-2-6-4 5-9 6-16 8-23"/><path fill="#CC7431" d="M430 194c-1 2-1 6-3 8 4 4 7 5 10 6 0-4-2-8 2-12-4 6-4-2-8-1"/><path fill="#3C1108" d="M481 124c-8 12-18 24-25 37l-1 3v1l-2 2c-5 13-13 34-14 44-4-2 13-10 14-16-2 1-4 5-6 6-1-12 3-26 8-37 7-15 18-27 25-38"/><path fill="#9C5128" d="M220 357c-2 8-2 20 6 30 5 3 9 4 13 3 6-1 10-5 14-8-5 6-13 10-21 5-12-7-11-19-12-29"/><path fill="#743B24" d="M484 122c-7 11-4 25-10 36 8-6 7-23 10-35"/><path fill="#CC6E27" d="M322 337c-4 4-7 6-9 10-4-3-7-4-9-6 4 6 21 22 17 1-1 2-4 6-6 4 3-4 4-5 6-6"/><path fill="#A6582C" d="M345 171c15 10 14 32 26 36-12-14-10-26-23-34"/><path fill="#DD9542" d="M430 183c-1 6-1 10-3 18 6-7 24-11 2-15"/><path fill="#572C1C" d="M163 383c10 3 4 7 14 6 10 1 21 4 26-2-17-4-17 6-39-3"/><path fill="#160200" d="M430 262c-1 2 4 7 6 9 4-1 7-4 8-5-3-1-8-1-11-3"/><path fill="#764830" d="M214 465c-1 5-3 14 3 22 9-4 1 7 6 6 0-5-11-15-8-27"/><path fill="#E29C46" d="M375 173c4 9 4 19 8 27 4-4-4-18-6-25"/><path fill="#914E2B" d="M275 299c-9 15 3-1 18 4-4-3-9-2-13-4"/><path fill="#E19C4A" d="M473 128c-5 6-17 12-12 20 4-9 6-9 12-19"/><path fill="#BC7531" d="M274 284c-3 15-15 18-27 24-8 6-13 14-16 19 3-5 8-10 15-17 9-9 23-10 27-15 0-3 1-6 1-9"/><path fill="#FBF5DB" d="M398 199c15 6 32 8 46 19-5-5-12-9-18-12-10-3-18-5-27-6"/><path fill="#EEB65B" d="M350 201c8 6 16 12 27 13-8-5-17-9-25-12"/><path fill="#9E4C22" d="M452 165c-5 13-13 26-15 40 6-12 9-26 15-38"/><path fill="#914E26" d="M141 362c7 13 0 9 12 17 1-3-7-9-7-14"/><path fill="#D88E38" d="M407 381c-2 5-8 10-5 16 4-3 5-8 4-15"/><path fill="#FAF6C5" d="M330 118c19 16 43 31 56 55-4-7-8-13-12-19-15-14-29-24-42-35"/><path fill="#8F6D54" d="M322 404c-1 6 0 14-1 21 1-3 4-2 7-2-2-10-4-8-7-18"/><path fill="#A3958E" d="M321 374c1 13-1 27 3 39 0-13-3-25-3-37"/><path fill="#BF7231" d="M332 185c4 11 8 17 20 20-11-6-10-9-19-18"/><path fill="#100200" d="M397 236c-1 4-3 9 0 12 4-2 2-7 3-11"/><path fill="#A54A16" d="M367 382c-4 2-8 4-11 6-1 1 1 2 1 3 4 0 6-4 8-8"/><path fill="#C6712B" d="M302 286c4 2 5 6 7 10-4 1-3-6-7-7-2 2-3 4-2 7 4 0 7 1 10 2-1-4-2-7-6-11"/><path fill="#CA712E" d="M404 228c-14-1 8 8 6 16 0-7-3-14-6-14"/><path fill="#280B06" d="M275 381c7-1 14 0 20-1-6 2-12 2-18 2"/><path fill="#78442B" d="M399 484c-3 7-12 0-15 5 17 6 15-5 20-3"/><path fill="#BD7032" d="M356 187c1 2 4 4 4 7-11-4 1 6-8 6 5 1 10 3 14 5-2-2-7-6-4-8-3-4-4-6-5-8"/><path fill="#412328" d="M305 423c5-3 6 4 5 8-4 0-5-3-4-6"/><path fill="#6A250D" d="M321 117c7 8 12 17 17 24-4-6-8-12-13-18 16 10 32 19 41 36-11-19-28-29-43-41"/><path fill="#8E4E2D" d="M393 269c19 8-12 2 21 11-1-5-7-3-9-9-2 2-7 0-11-1"/></svg>