<svg xmlns="http://www.w3.org/2000/svg" width="600" height="600"><path fill="#74614A" d="m315 132 2-2c4 3-9 12-10 15 20-3 40-3 60 1 24 4 44 10 62 20 5-13 14-25 24-33 7 14 7 32 0 44 11-9 12-26 25-33 3 10 3 19 1 27 8-4 14-11 21-15 1 16-4 28-9 39 17-2 27-18 42-23-5 14-9 27-14 39-4 5-8 10-13 12 9 0 11-11 17-14 7 1 16-3 17 4-3 9-7 16-11 23-7 9-15 16-24 20-16 8-34 14-50 7 1 8 5 10 8 16-4 0-8 0-13 1 9 6 14 11 18 18 2 15 2 29 0 41-13-10-22-21-29-34-4-4-4-8 0-9-12 13-14 13-31 21 3 21 18 33 22 52 0 10 1 18-1 25-2 1-3 0-3-2 0 3-3 5-3 8-5 2-15 16-24 15 9 0 15-10 22-14-4 13-8 30-15 37-5 2 12-5 16 10 0 6-6 11-6 11-25 6-35-6-68-4-8-4-1-7-2-12-17 7-18 3-24 7-4-1-6-2-8-3 2 2 4 1 5 4 3 5 3 10 3 12-21-1-23 7-62 4-7-7-21-2-23-8 5-11-12-14-11-26-13 2-27-5-39-9-14-8-23-12-36-24 3-3 3 1 8-1-10-9-18-17-25-31-7-23-12-44-19-65-7 6-17 5-25 7-11-4-24-1-30-12-1-9 3-14 6-20 8-2 14 0 20 1-3-4-9-6-14-4-3-1-3-5-2-6 20-3 34-14 51-18-11-3-19 7-27 0-9-3-15-7-21-12 0-4 3-4 3-5 23 0 26-15 63-12-10-7-21-18-25-27-15-21-11-43 17-24 5 5 2 13 10 17 7-2 0-11-2-14 5 0 9 1 12 5 22 15 27 43 37 64-3-13-8-25-12-37-1-16 5-27 11-38 6 4 13 12 15 20 5 11 6 22 5 34 4-7 4-15 3-22 5 4 7 8 9 12 0-3 1-5 2-7 3 1 5 3 5 5 1-8 18-18 10-23 23-24 48-43 76-55"/><path fill="#F2EBCB" d="M295 176c-6 1-12 0-16 4-12 5-20 15-22 24-7 1-12 1-16 3-4 10-5 19-4 29 4-1 9 0 13-2 3-5 2-9 4-13 5 4 15-19 25-20 7-6 13-6 21-5 10 2 16 7 23 13 7 12 13 22 19 32-15 12-29 25-44 29-15 2-26-2-35-10 0 1-2 1-2 2-5-5-6-14-13-15-5-1-7-1-10-1 2 15 7 31 23 38-1-3-3-6-3-9 4 8 11 16 19 19 14 5 27 3 37-1 9-4 14-8 19-13-1-19 17-31 25-44 3 6 18 20 23 18 5-10-3-13-6-18 9-7 10-15 15-21 6 0 18-12 29-7 2-9 0-16-3-21-7-5-16-5-24-3-15 4-25 11-34 22-13-14-27-22-41-27-8-3-15-2-20-4"/><path fill="#522612" d="M234 275c-6 13 15 21 5 32 1-4 5-6 7-3 7 4 16 5 16 12 1-2 4-5 7-3s3 6 2 7c3-3 10 0 13 2 1 1 0 2-1 3 6-2 3-3 13-7 0 6-2 16-7 25 0 2 2 2 4 3 4-8 5-18 9-26 14-1 20 6 28 14 9-1 19-1 27 1 9 2 16 5 22 10-1-4-2-7-3-11-11-8-22-12-31-20 14 6 27 12 38 20 3-5 3-10 2-16 6 2 9 4 13 6 2-8-2-14 0-21 6 4 5 14 13 9 13-5 24-12 31-24-3 3-6 3-9 5-1-4 0-7-1-11-1 4-5 7-7 10-8 5-16 6-24 5-10-2-17-8-21-15-6 7-13 12-19 15-22-4-39 17-68 11-23-4-37-18-44-11-9-8-12-14-16-19"/><path fill="#425236" d="M88 230c-23 2-9 16 4 19 11 8 22-3 29 1-17 6-31 17-49 19-2 7 12 1 16 8-6 4-12 0-20 2-5 6-8 11-9 17 7 12 24 9 29 9 10 3 18 2 27-4 4 10 6 23 11 34-4-9-6-19-8-28 4 0 7-1 8 2 5 8 4 16 5 23 5-10 1-23 2-32 9 2 19 3 23 18-1-8 4-17 1-21-16-4-33-4-46-12-2-7 5-12 9-16-5-4-10-6-15-9 6-5 12-8 20-7 4 2 7 5 9 7 9 2 5-11 11-12-7 1-14 0-19-3-11-4-19-9-27-15 4 7-10 2-10 0"/><path fill="#61534C" d="M354 337c7 10 7 27 2 38-3 9-8 15-13 19-11 4-11-9-17 5-4 2-3 13-14 14-9 12 2 23-1 31 7 5 17 2 26-2 13-5 25-12 31-24 8-11-4-18-4-27-6 1-4-6-9-7 9-10 18-14 25-23 1-4 1-6 1-9-7-9-15-13-24-15"/><path fill="#E5914B" d="M311 136c-27 8-62 42-65 51-3 0-1 1 1 2-6 1-8 6-10 10-5 8-9 15-9 23 1 4 3 6 5 7 1-7 1-16 5-22 5-4 11-3 15-5 6-12 17-24 29-27 15-3 30-1 40 4 14 6 25 12 34 23 7-5 11-9 17-12 7-30-7-7-17 1-8-10-18-18-27-20 3-4 9-4 10-8-8-5-15-5-22-4 11-7 21-11 33-12-17-1-36-1-52 6 3-5 7-10 11-16"/><path fill="#DE8842" d="M256 323c-3 0-23-4-14 13-4 0-4-3-6-5-1 9 1 15 2 22 5 20 15 35 28 49 0-5-2-9-3-13 3-12 13-20 18-28 11 6 23 2 32 4-11-10-22-17-37-17-5-5-7-21-15-14 0-4 4-8 3-11-3-2-4-1-5-1"/><path fill="#5C3830" d="M291 208c-9 2-19 10-21 19 5 1-5 16 2 20 4 8 9 12 15 13 10 1 16-1 21-4 6-3 11-8 12-14 1-10 0-16-4-22-6-6-11-10-16-12-4 0-6-1-7 0"/><path fill="#46767A" d="M477 146c-5 5-11 11-13 18-5 19 1 36-10 50 10-2 10-13 16-18 7-9 13-17 19-26-7 8-12 15-17 24-3-4-2-7-1-10 10-11 19-19 28-26-1 15-5 26-10 37l-1 3-2 1c-4 3-11 4-15-1-7 10-11 22-7 35 11-9 16-22 22-34l2-1h2l-1 1-6 12c7 0 13 0 17-5 0 4-5 9-2 15 7 0 10-2 14-5 45-62-3-31-21-15 3-14 8-27 10-40v-2l-2-1c-6 4-13 10-18 15-2-8-1-19-3-27"/><path fill="#65B9C0" d="M147 260c-37 2-47 38 1 30 17 3 34 1 51-2-11-7-23-12-35-15-13-2-24 1-33 4 12-9 31-8 47-11 0-3-3-6-6-7-11-1-20-1-27 1"/><path fill="#AB622E" d="M186 351c-9 2-5 13-10 16-1 14 5 23 9 32 1 4 3 5 5 6 1-3 0-4 1-7 9 9 18 15 27 19 1-11-1-21 2-29-5-10-8-17-11-25 0 2-1 4 0 6-6-5-8-10-12-14-2 9-1 17 1 25-7-7-7-18-5-26-3-3-4-3-5-3"/><path fill="#593A34" d="M291 212c7-2 14-1 18 4 5 6 8 9 9 14 0 8 0 13-3 18-5 5-9 9-13 10-9 1-15 0-19-4-6-4-10-8-11-12-1-8-1-13 4-16 5-5 7-9 14-14"/><path fill="#283838" d="M125 169c10 3 5 16 15 20 2 3 4 2 5 3 2-8-2-13-3-18 14 8 23 19 29 30 1 4 2 5 1 8-6-4-11-7-17-9 7 5 17 8 22 17 4 5-3 7-4 8-12-7-20-15-28-24 7 9 15 14 20 23-5 1-9-2-14-3 19 6 37 17 52 32-6-1-11-5-18-7-4-2-6-4-8-4-7-1-11 2-15 2-4 1-7 1-10 0 3 0 4 3 3 5 0-2 1-6 5-4 13-1 13-6 24 1 5 4 18 5 15 12-16-1-27-7-42-4 7 0 14-2 19 3 4 2 6 4 8 6-4 2-6 3-10 2 6 1 11-1 16-1 8 3 14 5 17 9 2 8-2 12-7 13-13 3-25 5-37 5 12 0 22-2 32-4h4l2-1c7-2 13-8 20-12-8-21-9-57-4-72-7 3-3 11-9 17-2-4-1-9-2-15-1 6-1 12-1 18-2 5-3 10-6 11-11-2-16-10-17-18 3 9 5 17 10 24-11-8-13-24-21-35-3-8-6-14-10-19-6-6-10-10-16-13h-4c2 3 10 15 1 16-10-5-7-17-14-22"/><path fill="#512613" d="M400 309c2 5 1 11 1 18-4 1-7-2-11-3-1 3-1 7-3 10-3 5-5 1-8 1 3 6 4 13 6 19 4-5 9-3 14-5 11 1 4 5 10 6 2-3 5-4 5-9 5 6 4 13 4 20-2 6-3 6-7 5 3 5 2 15-1 20-7 9-12 17-20 19 6-1 10-4 13-9 1 3-1 6-4 8 3 0 7 5 11-1 14-5 14-26 17-29 0-27-21-45-25-68"/><path fill="#2B3A2F" d="M479 176c-15 9-17 24-27 34 3 9 4 20 5 30 11-6 19-8 35-12-10 11-21 19-27 34-5 2-9 0-13 1 16 3 35 2 52-7h2l1-2c14-7 24-20 29-33-5 12-15 26-29 32-7 4-11 7-17 7-6-2-9-5-7-10 20-7 80-57 22-13 7-12 13-19 17-26-4 3-5 9-10 11-3 2-6 4-8 1 6-2 8-6 11-8-5 3-9 7-14 8-5-3-5-5-4-8 1-6 5-8 7-12-5 8-13 9-21 10 2-8 5-18 15-17-2 0-3 1-6 0-11 11-14 29-27 39-4-7-3-14-4-19 3-9 7-14 10-20-5 4-5 11-9 16-3 2-8 6-9 3 6-15 11-28 24-37"/><path fill="#75675D" d="M449 251c-13 7-11 11-27 19-8 3-14 1-17-1-4 7-10 15-16 19 8 7 18 8 27 5 8-3 14-9 15-15 6 3 1 15 6 11 13-10 16-27 16-38"/><path fill="#522613" d="M420 404c-6 4-6 10-13 15-8 2-17 2-22-1-12 9-18 20-27 28-6 2-8-3-6-5-3 3-3 7-5 10 18-5 31 5 45 8 5-7 3-13 1-17-9-3-16 1-21 3 9-10 20-6 30-9 10-9 12-20 17-30"/><path fill="#A79C84" d="M176 308c-3 6-1 13 0 19-4-2-12 2-11 7-2 9-2 16 1 23-4-1-8-4-11-6-2 3-2 6-1 9 2 15 14 26 23 32 2-2-7-12-5-22 6-7 4-25 21-25-5-15-10-26-16-37"/><path fill="#DE8841" d="M232 364c-5 7-8 14-9 21-1 11 0 21-1 29 3 13 6 22 13 30 5-11 15-19 15-30-10-16-16-31-18-47"/><path fill="#958976" d="M331 337c-2 1-5 0-6 2 1 1 4 0 4 3 2 8 1 14-2 20 6 5 17 7 16 17 0 5-4 6-7 5-2 6 1 9-2 13 11-3 19-13 22-22 7-20 3-49-25-37"/><path fill="#4E2513" d="M209 287c-5 2-10 4-15 5-2 6-1 11 1 16-5-4-6-9-5-15-40-11-28 31-33 53 8-19 4-14 10-38 4 6 0-2 6-2-2 5 0 10-1 14 4-4-1-8 2-12l1-2 1-3c2 3 5 6 5 8 5-2 2 0 3-5 5 3 8 6 10 8 9 9 15 18 17 28 1 6 0 10 2 13-6-4-14-3-18-2 7 0 5 8 11 11 0-2 0-9 4-6 5 10 8 19 11 27 2-9-6-16-9-25l-2-1 1-3c5 5 8 11 11 16 5-4 1-11 0-15-6-17-14-30-26-41 2-3 3 0 5 0-2-11 6-18 8-27"/><path fill="#532713" d="M247 383c1 20 18 38 26 56 7 3 11 0 20 1 9 4 9 13 11 20 2-7 5 0 15 1 1-5 1-8-1-11-5-4-11-2-14-3-4-6-4-12-7-17-18-6-17-20-29-23-10-10-17-20-19-24"/><path fill="#5E7344" d="M105 165c13 11 36 38 54 52 6 3 12 15 18 8-3-11-13-16-20-20 4 0 9 2 14 5-3-13-15-27-28-34 1 2 9 14 1 17-7-5-13-10-13-20-7-7-16-5-24-9"/><path fill="#A45C2C" d="M223 209c-1 14 0 28 5 39 6 14 11 29 23 39 9 4 28 21 46 18 15 0 28 0 39-7-1-3-3-3-3-5 7 1 12 2 17 3-5-4-11-8-14-14-9 6-15 11-21 14-9 3-16 4-23 5-16 0-24-13-36-16-7-5-12-11-15-16-8-22-9-49-19-56"/><path fill="#AB612E" d="M276 369c-15 17-12 23 2 39 6 4 11 6 18 5 5-5-6-7-10-15 10 3 19 7 28 5-7-7-19-11-21-19 10 4 21 5 32 4-6-5-14-5-20-10-4-5 4-3 5-4-5 1-11-1-16 2-5 4 1 12-6 12-7-4-13-10-11-16"/><path fill="#2A3E43" d="M454 267c-1 4-3 8-4 13-4 8-8 13-14 18 8 13 18 28 28 39 5-7 4-25 3-36-4-10-10-14-17-19 3-5 8-5 11-2-1-6-4-8-7-11"/><path fill="#477A7E" d="M187 168c-5 10-12 22-10 35 3 8 5 15 9 25 4 5 8 5 11 7 11-6 6-20 8-30-3-2 0-9-3-11 0-7-2-11-5-15 2 3 3 8 5 13-2 7-4 11-9 14-2-12-3-22-4-32 3-1 4 1 5 3-4-4-3-7-5-8"/><path fill="#252429" d="M293 214c-3 2-7 2-9 6-5 5-5 11-4 17 2 4 2 7 4 9 6 3 11 2 16 2 10-2 14-11 15-18-1-7-4-10-7-14-6-3-9-3-14-2"/><path fill="#A75E2D" d="M394 356c-10 4-16 16-28 20 1 0 7-2 11-2-4 5-9 6-10 7 8-1 16-4 22-9-3 6-8 12-13 16 4 5 11-3 16-4-2 8-8 11-14 15 9-1 15-4 22-9-1 8-7 12-11 16 11-3 17-12 19-20 3-12-4-13-5-20-5-3-10-2-15-2 5-5 9-3 15-2 1-4-4-6-6-5"/><path fill="#5A6E3F" d="M96 277c-8 6-16 3-25 2-6 4-7 9-9 12-1 6-1 6 3 10 11 7 19 1 25 4 6 1 12 0 18-1 9-4 5-14-2-12-6 4-10 7-15 11 0-5 9-8 11-15-13 3-25 7-37 9 12-5 25-8 37-13 0-3 1-6-3-6"/><path fill="#55683C" d="M95 275c25 11-21 18-28 20 10-1 22-5 33-8 2 7-6 11-10 16-7 2-11 3-17 2s-13-8-12-9c1-7 3-13 7-17 10-1 18 4 25-2"/><path fill="#B26630" d="M368 149c16 5-5 17 9 20 0 6-1 14-3 19 11-6 23-11 35-7-1-9-4-17-10-23-10-4-19-7-29-8"/><path fill="#F5EECD" d="M349 150c-10 2-43 8-10 7 0 4 3 5 3 6-3 5-6 6-8 7 8 3 16 9 20 18 6-3 9-8 13-10-4-5-7-11-11-16 5-2 11-1 15-3 2-5-2-7-4-8-7-1-11-1-15-1"/><path fill="#6F391C" d="M141 304c0 17-5 33-4 47-2 8-2 14 3 21-2-11 11-19 12-23 4 0 7 2 9 4-3-13-4-9-16-51"/><path fill="#90A569" d="M108 167c2 16 8 29 18 41 6 6 10 10 15 13 8-3 14 1 19 2-16-18-36-35-51-54"/><path fill="#252328" d="M406 218c-3 1-6 1-8 5-4 5-2 10-3 13 3 10 10 14 17 12 10-2 12-11 11-18-3-9-9-13-15-12"/><path fill="#1F0C05" d="M234 283c-3 13 5 27-2 37-2-5-6-11-1-15-1 12-21 12-20 21-9-5-8-10-14-11 4 3 7 11 13 11 4 3 1 5 3 5 7 12 12 23 14 34 4 0 6-4 9-5 3 4 4 8 7 12-3-5-5-9-6-13v-1l-1 2c-4 0-5 7-8 2 8-9 0-44 10-59-3-12 0-10-5-19"/><path fill="#201F18" d="M425 212c3 5-11-2-15 1 7-1 13 0 18 6 2 3 3 13 6 10-2 5-2 9-1 14-1-5-1-9 2-12 3 4 6 9 4 15-4 8-12 15-18 19-36-7-13 6-2 5 15-10 18-10 25-20 5-2 7 2 10 0 2 5-2 8 1 11 3 0 5 2 8 0 5-9 11-18 19-23-8 3-18-6-24 5-2-8-3-14-4-20 1 6 1 12 2 18-4 2-4 4-7 3-12-5-12-22-23-31"/><path fill="#36353D" d="M289 216c7-2 16-1 20 6s1 13-2 17c-7 5-16 5-20 2 0-6-6-8-5-13 3-5 2-8 5-11"/><path fill="#6D371B" d="M185 309c-9-1 9 22 8 34 0 6-7 4-9 8 7 0 18-1 27 3 1-13-5-24-12-35-4-5-9-7-12-10"/><path fill="#753C1D" d="M217 215c-1 20 3 43 13 57 7 3 7 16 16 21 9-4 25 10 46 14 3 0 4 0 6 1 13 0 23-3 32-6 11-4 12-9 25-4-7-1-15-3-20-5 6 3 0 7-3 7-11 6-22 6-32 8-20 0-41-15-49-23-12-8-18-22-23-35-6-17-7-19-11-34"/><path fill="#8AA064" d="M535 215c-15 17-36 24-51 38 4 4 7 5 11 4 7-3 13-4 18-8 12-10 18-20 22-31"/><path fill="#A15A29" d="M235 361c0 2-2 2-4 3 4 15 9 33 19 47 1 15-10 24-14 35 1-2 1-4 2-6 10 3 20 3 28 2-3-9-11-19-15-29-2-19-15-40-14-48"/><path fill="#582A15" d="M158 402c19 17 42 25 66 30-1-5-3-10-4-12-26-17-33-5-62-18"/><path fill="#3B6266" d="M134 224c-40-3-46 7-7 20l-1 1-3-1c-8-4-16-9-24-14l3-1h1c14 4 27 7 42 8 1 6-5 10-9 11 14 2 24-3 39-5 12 5 22 10 31 16-15-14-31-26-49-32h-2l1 1c4-2 3 2 6 3-3 4-6 4-9 3-19 3-34-2-50-5 10-5 25-6 38-5-5-1-7-2-8-1"/><path fill="#998E79" d="M385 248c0 4-3 5-4 7-8-9 2 26 4 32 9-3 14-11 18-17-8-6-13-18-19-19"/><path fill="#786A5F" d="M431 192c0 4 1 17 1 25 4 9 9 9 12 23 4 2 6 2 8 3 2-8 2-15 0-20-12-13-11-21-19-29"/><path fill="#23100A" d="M427 380c2 10-4 4-5 21v1l-1 1-2-2c-2 1-10 13-15 11-5 3 8-2 1 3-4 3-7 0-10 0 7-2 3-9 12-15-9 4-8 13-16 14-22 0 8-3-16-1 4-4 1-5 5-6-2 3 7 0 5-4-3 4-2-1-15 1 3 1 8-3 11 1-21 33-14 16-30 34-3 7-6 9-7 13 15 1 30-1 41 8-6-1-9-7-14-7-12-1-12 2-23 0-3-4 1-9 2-13 3 1 1 6 6 7 10-10 17-22 26-30 8 3 17 3 24 2 8-6 8-15 12-15-2 9-4 19-9 28-4 5-7 7-13 5 6 0 8 1 8 3 1-3 4-4 4-7 6-12 10-22 14-31 1-6 3-8 4-11 3-1 0 2 2 4-2-6 3-11-1-14"/><path fill="#522613" d="M402 155c14 24 38 40 48 64-3-15-8-27-18-37 4-2 6-4 8-5-11-10-24-16-37-20"/><path fill="#4D3B3E" d="M332 229c0 3 1 6 3 5-18 2-15 32-38 31-8 1-15 2-19-2-12-13-27-25-26-28-5 5-11 1-18 5 25 6 18 14 44 25 7 3 12 2 16 3 11-2 14-5 24-10 5-7 26-12 19-23-3-2-4-3-5-4"/><path fill="#66B7BE" d="M499 160c-9 7-18 14-25 23-3 4-4 6-3 10 5-8 10-15 16-22-5 10-12 19-16 27 8 4 14 2 16-1 7-13 10-24 12-36"/><path fill="#834621" d="M154 368c0 10-3 11 4 21-5 0-5 0-10-2 5 5 9 9 15 13 29 15 27 1 58 22-2-5-22-12-28-23-2 3 0 3-1 6-4-1-11-3-8-6-11-7 4 11-9 4 3-8-20-27-21-32"/><path fill="#3D666A" d="M156 257c-4 1-7 1-10 2 7-2 15-1 23-2 6 2 12 6 12 9-22 0-83 16-23 4 13 3 34 9 43 18 0-1 3-2 5-3 2-9-3-12-7-14-9-5-17 0-24-2-1-2 2-1 3-2l2-1h1l2 1-2-2c-2-4-5-6-9-7-6 0-11-1-15-1"/><path fill="#AB6230" d="M271 325c-12 7 5 11 2 21l4 1h2c14 1 24 8 36 15-6 5-10 1-15 4 14-3 18 14 34 8-9-11-35-24-55-27 1-6 6-14 8-19-5 2-10 5-12 10-1-6 4-10 7-13-4-1-6 0-9 0"/><path fill="#3A3940" d="M404 219c6-3 14 2 15 8 1 8-1 13-7 14-16 1-9-5-13-5-5-9 3-13 3-16"/><path fill="#13131D" d="M291 217c-3 1-6 3-5 6 1-1 4-3 6 0 3 2 4 5 3 8-2 8-14 3-9 7 7 5 14 5 18 2 5-6 8-12 5-16-4-8-10-8-17-7"/><path fill="#9F8782" d="M294 198c-9-2-19 10-23 10-7 5 1 2-11 15 1 6-3 14 2 20 5 9 12 19 20 21 7 0 13 1 17 0 6-3 10-4 13-8-3 3-7 6-11 7-8 0-15 1-19-2-8-3-13-9-16-15-5-5-5-10-4-15 3-8 7-15 12-21 6-5 11-7 16-8 8 0 12 1 17 3 6 5 12 10 15 15 1-2 2-5-1-6-8-10-16-15-26-16"/><path fill="#3F6B6E" d="M228 273c-6 5-8 13-10 20-3 1-1-3 0-4-4 2-7 5-10 7-4 7-6 13-5 20 20-20 4 2 21-26 7 5 6 14 4 17-3 4-5 6-6 8 1-2 3-4 5-5 2-4 2-6 3-8 2-11 2-20 1-29"/><path fill="#723A1C" d="M302 321c-1 6-15 41-2 14 6 2 10 4 16 3 5-1 8-3 12-4-7-8-12-13-23-13"/><path fill="#64B7BF" d="M126 225c-52 0 21 14 31 8 0-6-6-7-12-8h-19"/><path fill="#5C7042" d="M454 135c-2 3-3 2-7 8 2-2 7-10 7-3-2 10-3 21-6 27-3 3 0 11-11 15 3 3 4 7 7 10 11-6 8-2 15-12-2 0-4 0-6-2 4-11 3-27 2-37-4-5 3-3-1-5"/><path fill="#65B5BB" d="M531 176c-7 3-13 7-18 12-4 4-4 8-6 11 6-5 11-13 17-15-8 10-19 17-21 26 6 3 8 3 10 4 7-13 12-26 17-37"/><path fill="#5CA9AF" d="M187 169c4 11 3 27 5 39-7 0-11-3-14-7 0-12 4-20 8-28"/><path fill="#E0D8B8" d="M324 339c-27 7-19 18 2 22 2-6 4-11 3-18-2-3-4-3-5-4"/><path fill="#5CA9AF" d="M530 177c-2 9-9 24-14 34-4 5-7 2-10 2-3-3-4-4-3-6 8-10 17-19 24-26"/><path fill="#91A76B" d="M453 138c-9 7-16 16-19 26 1 6 5 6 7 9 7-9 10-21 11-34"/><path fill="#6B7D4E" d="M84 231c1-1 3 0 4-1 8 9 6 7 13 13-3 6-5 8-8 6-10-4-29-14-9-17"/><path fill="#64B5BC" d="M225 292c-12 15-7 11-21 23-1 2 1 3 1 4 9 0 15-3 20-10 4-5 4-11 2-15"/><path fill="#904E24" d="M151 353c-6 4-10 11-11 19 7 15 15 16 16 21-1-4 3-3-2-7 3-2 5-1 6-2-1 3-5-2-5 0-1-2 0-4-4-5 8-2 2 3 7-4-4-5-8-12-8-20"/><path fill="#63B6BE" d="M99 228c10 7 21 14 32 18 7 1 10-1 14-4-14-6-30-8-44-13"/><path fill="#F3EBC9" d="M282 363c-5 6-4 21 7 22 0-5 1-9-3-12 9 4 19-6 27 0-8-7-19-4-28-9"/><path fill="#65B9BF" d="M188 171c-4 9-9 17-10 27 3 7 8 9 12 10-1-12-1-24-3-35"/><path fill="#55683B" d="m105 292 1-1c9-2 12 10 3 13-8 2-14 4-20 4 3-7 9-11 13-15"/><path fill="#7B6361" d="M356 244c3 2 5 12 3 16-6-2-8-4-12-8-3 6-4 5-7 13 3 3 8 6 12 8 5-1 8-5 8-7 0-9 1-16-3-20"/><path fill="#713A1C" d="M235 360c2 7 12 32 17 52 5 12 11 20 18 28-14-22-23-52-33-78"/><path fill="#783E1E" d="M242 303c-3 5-2 12-4 17 4-3 13-3 16 0 1-2 6-4 7-5-6-6-11-8-17-12"/><path fill="#4B3D38" d="M320 406c-5 2-10 3-15 3 1 2 5 3 6 5-5 5-8 5-12 6 2 8 3 16 7 23 9 2-3 1 6-2-7-8-3-13-4-21v-3h2v-3c2-4 9-2 11-8"/><path fill="#110F19" d="M406 220c-4 1-4 1-4 5 2-2 8 2 6 6-1 8-10 8-8 6 3 4 6 5 11 5 6-3 8-8 8-13-1-7-7-10-11-9"/><path fill="#3A2D32" d="M357 244c5 5 5 12 4 20 0 5-3 8-6 10 7 1 13 0 18-4-4-11-7-20-13-26"/><path fill="#040101" d="M374 271c-4 2-8 5-12 5-7 0-12 0-16-3-1 5 1 10 4 15 4 2 5 6 9 4-4 1-8-3-9-6 4-2 7 0 10-3 5-2 9 2 5 5 5-5 7-10 7-15"/><path fill="#512816" d="M132 297c10 44-7 33 1 61 2-14 7-32 7-53-2 3 0 7-1 9-2-4 0-9-3-12"/><path fill="#589CA1" d="M476 147c5 1 1 12 3 17-2 5-6 6-7 8 0-8 0-14 2-19-3 6-3 13-5 20-6-3-5-8-3-10 3-6 5-10 9-13"/><path fill="#A19580" d="M417 184c2 6 6 15 4 23 4 2 7 5 10 7-2-4 1-11-2-15 1-6 5-3 6-2-4-5-10-9-16-12"/><path fill="#201617" d="M358 241c-16 16-5-2 4 3 11 11 10 31 12 31-1 11-7 18-14 21-7-2-12-4-17-7 5 4 10 5 14 8 11-4 19-11 20-16 6 3 7 6 9 9 4 3 7 3 9 5 7 2 15 2 19 0-4 2-11 2-17 0-4-2-7-2-8-5-4-4-8-6-9-10 0-10-2-16-6-22-1-4-9-10-11-12l-2-2-1 1v-1l-1-1"/><path fill="#65794A" d="M523 213h-2c-3 7-8 12-12 18-4 3 44-21 20-20"/><path fill="#422213" d="M407 440c3 3 3 9 2 15-5 8-15 0-13-1 5 8 10 2 17 5 9 0 11-21-4-20"/><path fill="#66B8BF" d="M190 171c1 11 2 23 3 34 5-4 6-8 8-13-2-8-6-13-9-19"/><path fill="#783E1D" d="M377 443c2-2 6 0 8-1 6 4 8 7 7 12-2 4-5 4-6 2-5-3-13-7-11-12"/><path fill="#582A15" d="M246 445c-5 2-10 3-7 13 13-1 21 10 33 7 0-7-2-10-3-13 1 4 6 12-2 13-6-9-16-7-22-11 5-5 0-5 7-9-2 0-4 1-5 0"/><path fill="#433437" d="M339 267c-3 5-4 8-1 16 6 6 11 9 17 11 9 0 17-7 17-15 2-7-4 18-15 15-11-5-13-15-13-23-2 0-4-2-4-4"/><path fill="#6C3121" d="M412 215c7 4 14 7 16 17 0 9-1 15-6 21-7 5-15 5-21 2-7-8-11-17-7-27-1 2-3 3-2 5 0 8 0 16 5 20 10 4 7 7 13 6 7 0 16-2 20-12-1-5-2-9-1-14-3-2 0-6-2-7-3-7-8-9-14-10"/><path fill="#D27C5E" d="M278 222c-9 21 3 29 14 31 9 0 8 2 11 0 5-4 12-9 13-14 1-4 1-6 0-9 1 6-2 11-6 15-6 6-13 5-20 5-5-1-9-6-11-8-3-6-1-12-2-16"/><path fill="#433339" d="M405 211c-7 1-9 10-16 10-4 7-6 11-11 15 7 5 4 6 8 8 0-8 1-18 9-24 19-13 49-5 7-10"/><path fill="#4D2614" d="M407 440c5-3 12 3 13 7-1 5-1 8-5 10-3 1-5 2-6 1 2-7 1-12 0-15"/><path fill="#395C5F" d="M119 307c1 8 4 15 8 27 3-5 3-13 1-17-1-6-3-10-7-10"/><path fill="#B16732" d="M257 448c-18 6 8 8 11 15 0-7 0-12-5-13-3-2-4-2-5-2"/><path fill="#8D4E26" d="M270 444c-5 3 9 12 12 16 2-6 2-11-1-15-4-1-6-2-9-1"/><path fill="#80431F" d="M378 443c-7 5 8 15 12 13 2-6 0-9-3-11-3-1-5-2-6-1"/><path fill="#733B1C" d="M400 156c5 7 9 15 11 24 4 2 6 2 8 3-2-10-8-19-18-26"/><path fill="#64B1B6" d="M477 148c-5 6-13 13-11 23 3-5 4-11 7-16 1 5-1 9-1 15 1-2 5-1 5-3 1-7 1-12 1-17"/><path fill="#B65E43" d="M281 221c-4 2-6 6-8 9-1 8-1 14 3 18 5 5 9 7 12 9 8 1 14 1 19-2 8-7 10-14 11-22 1 9-9 14-13 20-10 3-3 0-12 4-8-6-15-8-17-12-7-13 3-22 3-22"/><path fill="#7C9257" d="M123 254c-16 1-13 5 0 9 3 1 5-2 8-2-2-4-4-7-7-7"/><path fill="#5A9CA0" d="M528 176c1 5-15 17-20 23-1-3 1-6 2-10 6-4 10-8 14-11"/><path fill="#8A9F66" d="M75 238c7 4 14 11 21 10 1-4 4-5 1-7-7-2-13-4-19-4"/><path fill="#B26630" d="M300 336c-2 5-10 13 1 13 5-4 9-7 14-9-5 0-8-2-12-3"/><path fill="#BEB197" d="M373 160c-5 3-11 1-16 2 4 3 4 9 8 11 12-2 11-3 3-9v-2l2 1 1-1"/><path fill="#352B31" d="M434 229c2 4 4 9 3 16-3 5-4 9-7 12-8 5-14 7-20 7-8-1-12-7-17-9 0 1 3 2 3 4 3 1 7 7 12 6 8 2 13 0 17-3 5-6 11-9 13-14 2-8-1-13-3-17"/><path fill="#624F51" d="M325 217c-6 6 1 10-1 21 4-1 5-2 8 0 5-3-6-13-6-20"/><path fill="#A59B83" d="M414 350c1 8-13 11-7 18 6-3 2 5 8 0 3-6 0-11 1-15"/><path fill="#975429" d="M268 445c3-1 7-1 10 0 4 4 4 9 6 12-7 1-9-7-15-9"/><path fill="#A7533A" d="M427 229c1 11-3 17-10 22-10 4-19-1-22-8 2 3 2 6 4 9 7 5 15 6 21 1 6-7 9-14 7-22"/><path fill="#5D2E18" d="M408 441c9 3-2 17 5 17 5-4 7-8 5-11-3-5-5-7-7-7"/><path fill="#756C5E" d="M168 247c-6 1-14-1-12 8 9-2 29-3 13-8"/><path fill="#733C1E" d="M400 349c-4 3-9 3-11 8-5 4-6 6-9 8 4-1 4-4 6-7 9-3 15-3 20 1 7-4-5-9-3-10"/><path fill="#653219" d="M172 308c-6 1-7 11-10 25 1-5 5-9 9-9 0-5 0-11 1-16"/><path fill="#7A4020" d="M294 321c-11 3-5 15-17 25 12-3 13-16 18-23"/><path fill="#210D09" d="M346 283c1 2 3 4 4 7l2 1h2l1 2h1c8 2 8-7 11-6-1-8-10 1-14-2-3 3 2 4 0 5-3-2-5-4-6-5"/><path fill="#552915" d="M280 444c6 5 6 11 4 15-14-9-14-13-9 5 4 1 8 0 11 1 1-8 0-14-3-19"/><path fill="#562A1F" d="M408 215c-6-1-13 7-16 14 4-5 7-14 16-12 10 0 17-1 20 10 5 9-2 25 0 22-1 10-12 8-8 10 4-2 7-5 9-7 2-3-1-13 3-8-1-5 0-12-3-16-3-5-4-10-10-12-4-2-7-1-10-1"/><path fill="#2C130A" d="M278 411c0 9 13 11 21 18-1-12 0 2-8-13h2c-9 2-6 0-15-4"/><path fill="#532916" d="M288 442c-10 2 5-2 7 3 5 3 3 7 4 10-4 10-8-1-10-1 1 2 2 5 2 8 3 2 6 3 9 2 0-7 0-13-2-18-4-3-6-4-8-5"/><path fill="#8C726E" d="M355 246c-5 2-5 7-8 8 1 1 1-1 2-2 1 6 9 3 9 10 1-5 1-12-2-16"/><path fill="#2B170D" d="M174 246c4 4 7 8 10 12 1-6 11 3 15 2-9-5-22-14-23-13"/><path fill="#502715" d="M396 440c-3 1 10-1 9 6 2 5 2 7-1 9-4-3-3-8-8-11 3 3 4 8 1 11 3 3 7 3 9 2 3-5 3-10 2-14-4-2-6-4-10-3"/><path fill="#F6F6F6" d="M288 224c-5 2-5 10 1 10 5-1 5-4 4-6-2-3-2-5-3-4"/><path fill="#23130D" d="M222 267c11 10-17 14-13 28 6-7 11-11 14-19 5-5 0-6-1-7"/><path fill="#5D4F48" d="M342 376c-6 4-12 5-19 4 4 2 8 3 10 6 3-4 13-2 9-9"/><path fill="#A55E2E" d="M269 446c5 3 8 9 12 13 0-4 1-8-2-10-2-4-5-4-8-3"/><path fill="#644F52" d="M260 226c-6-1-4 5-7 12 7 3 13 16 23 23 6 5 13 4 20 4-7 0-14 1-18-3-12-10-24-21-18-36"/><path fill="#5C6F41" d="M86 232c-4 1-8 3-11 5l1 2-1-2c14-2 25 7 13-7"/><path fill="#0D0606" d="M407 213c4 1 9-1 12 2 7 4 12 9 12 12 3 8 3 16 0 22-2 4-2 6-5 8 2-2 5-3 6-6l1-2v-1h2v-3c1-4 1-10-2-14v-2l-1-3c-2-3-3-8-8-9l-1-1-1-1-2-1c-3-2-8 0-11-1"/><path d="M148 250c-5 0-5 3-6 7 4-1 8 0 11-2 1-4 1-7-4-5"/><path fill="#20130E" d="M151 399c6 7 15 12 22 17l3 1 1 1h2c12 7 25 10 38 15-13-5-28-9-42-17-28-13-3-15-23-16"/><path fill="#24110A" d="M437 295c-6 10-15 12-23 18-2-1-5 2-7 1-5-3-5-7-7-9-1 7 1 11-1 19-4 3-4-2-7 0l-1-3-2-2 3 3v1c2 1 5 3 7 5 1-8 2-14 0-19 4 5 7 9 8 15-1-3 0-7-4-8 4-1 8-2 10-3 8-5 19-7 22-16"/><path fill="#54643D" d="M459 193c-1 5-4 7-4 6-6 2-6 1-6-3-3 4 2 7 1 11 6-2 10-7 9-12"/><path fill="#814422" d="M395 442c5 3 6 8 7 13 4-3 4-7 3-10-3-3-5-4-8-3"/><path fill="#334D50" d="M463 324c3 1 4 8 3 12-3-2-7-4-8-6 2-2 5 0 4-3"/><path fill="#F6F5F5" d="M403 226c-6 0-6 9 0 9 4-1 5-7 1-8"/><path fill="#8F4E25" d="M164 387c6 6 7 8 15 22l2-3 2-2-1 3-4 1c6-8-2-12-12-20"/><path fill="#1E1212" d="M388 228c3 12-2 19-3 19 4 2 10 9 20 14-5 0-7-8-13-8-1-5-4-13-2-23"/><path fill="#6C361A" d="M410 443c6-2 11 8 6 11-5-1-2-6-5-8"/><path fill="#9F592B" d="M286 446c4 3 6 7 8 12 1-4 3-8 1-10-3-3-5-2-6-3"/><path fill="#1F120E" d="M237 451c2 3-4 8 2 7 8-1 13 6 20 7 2 1 3 1 4 1 7 1 10 0 13-1 10 2 14-1 21 2-4-1-9-3-7-8 0 8-7 6-12 7-1-2-3-1-4-2-1-5-1-9-3-10 1 2 2 5 1 9s-4 3-7 3c-11-1-14-8-25-6-4-3-2-7-1-8"/><path fill="#160D0F" d="M282 208c-8 4-12 11-14 16v1l-1 1c-4 8-3 14-1 18 1-4-1-13 3-17-2-6 13-18 16-19"/><path fill="#643218" d="M307 449c4-1 8 3 10 5-4 3-10 2-11-4"/><path d="M459 185c-3 4-8 6-10 12 10 2 8-6 9-11"/><path fill="#677B48" d="M112 256c-17 3 8 11 12 10-3-4-18-7-13-10"/><path fill="#402011" d="M233 297c0 8-6 15-1 23 5-6 1-15 1-22"/><path fill="#783D1E" d="M408 372c3 7 1 15-2 20-3 8-9 14-14 17 7-3 10-10 15-16s5-15 4-21"/><path fill="#0C0606" d="M292 204c-4 0-7 1-9 3l-2 2-2 1c-5 4-9 8-12 14v2h-2l1 2-1 2c-2 2-2 8 0 10-3-4 0-10 2-14 8-4 1-9 15-17 42-2 16 0 10-7"/><path fill="#4F403B" d="M327 393c-5 1-9 1-13 2 2 2 6 3 8 7 1-7 6-7 5-8"/><path fill="#1D1310" d="M159 300c-1 6-2 12-2 19-6-9-6-7-10-16-9-1-9 5-8 11-1-4-1-11 5-11 4 6 8 11 11 15l2 1 1 1h1c-1-7 0-13 1-18"/><path fill="#394632" d="M456 144c1 11 2 23-4 31 3 5 6 1 8 3-4 8-10 11-15 17l1 1 1 2c-1 3 1-3 1 0 6 2 9 1 11-1 1-6 1-6 0-2-3 4-5 5-9 4h-1l-1-1v-3c2-2 12-18 13-10 0-1-1-3 0-4v-6c-2 2-5 5-7 2 3-11 4-21 3-31"/><path fill="#0B0301" d="M206 323c9 12 15 25 19 38 3 6 1 10-2 14-3-2-4-4-5-5 2 3 5 6 5 9 0-4 3-8 4-12-1-1 0-2 0-3-6-16-11-28-20-39"/><path fill="#733A1B" d="M207 359c0 2 2 11-3 5 1 2 3 2 3 4 1-2 0-5 1-7 5 9 8 17 11 24-3-9-5-18-10-25"/><path fill="#697C4A" d="M138 220c9 4 19 3 27 8-2-8-15-5-25-6"/><path fill="#6F381B" d="M275 319c-14 9 3 2 10 5-3-4-7-3-10-4"/><path fill="#72391D" d="M239 441c-6 13 13-2 25 3-7 0-16 0-23-2"/><path fill="#180E0E" d="M307 208c10 10 17 17 16 29 1-7-1-14-5-19-3-5-5-7-9-9"/><path fill="#4D2716" d="M234 349c-2 4-3 8-5 12 3 0 5-1 7-2-1-3-2-6-3-8"/></svg>