<svg xmlns="http://www.w3.org/2000/svg" width="600" height="600"><path fill="#5B6F3F" d="m343 113 1-1c12 1 22 6 32 12 15 11 26 28 34 40 11-13 24-25 39-28 12 12 21 28 23 44 5 24 3 48-2 68 21-10 37-26 48-44 14-23 21-46 29-70 12-7 10 16 10 24-2 16-7 29-14 41-9 13-20 23-31 34-11 9-23 16-34 23 13 11 5 28 12 41 0 11-1 18-5 25-5 5-13 14-25 15-6 10-7 23-20 24-14 3-26 8-41 6-16 2-29-12-38-9 4 9 11 15 19 19 15 10 33 7 48 10 8 16 12 33 7 48-5 5-4-5-6-7-9 14-11 14-22 29 6 6 12 7 18 2 8 5 15 10 19 16-10 6-13-4-20-5-2 7-13 4-16 2-1 3 5 6 0 7-16-5-12-14-23-17 5-11 14-19 16-29 3-9 7-16 3-23-18-17-43-22-65-30-6 1-9 5-11 7 9 12 23 13 30 23 9 15 11 29 10 45-7-3-10-11-14-16 5 3 5 3 2-1-4 0-7 11-15 8-26-5-53-6-78-9 10 24 8 32 24 42-13 5-28-4-38 8-8-1-2-5-5-8 2-5 3-13 10-13-1-4-1-7-3-9-28 10-39-4-61 7-1-7 3-10 10-12 3-15-5-25-8-34 13-10 28-15 38-24-15-8-29-16-41-27-11 5-13 19-17 28-9 25-13 62-15 77-8 4-6-6-12-5-9 5 5 6-6 7-12-1-22-5-31 2 1-10 7-16 13-21 6 1 6 3 10 5 5-1 8-2 9-6 12-20 14-42 17-63-5 11-9 22-16 33-11 15-12 7-18 19-12 9-21 10-26 14-11 2-17 5-26 4-6-17-11-35-7-52 1-19 9-32 17-46 10-13 22-23 35-28 7-1 12-4 16-1 8 3 11 6 14 11 1-7-4-17 2-20-4-12-10-20-12-30 18-4 33 0 45 8 7-13 12-18 24-27-8-12-17-22-23-38-4-13-7-24-8-37 1 29 9 54 16 80-5-6-27-33-31-38-10-22-14-42-17-62-11-4-26-9-32-10 9 3 17 7 25 14 3 8 3 14 4 20-10 13-33 35-38 59-5 10-5 19-7 28 0 14 2 28 6 40-8 0-13-5-18-11-16-14-17-28-29-39-6-16-10-30-12-45-1-21 0-38 5-53 4-18 14-34 21-43 14-8 27-13 41-15 14-3 26 0 38 1 3-6 5-15 12-11 44 17 82 40 125 55 15 20 37 22 56 41 16-16 32-27 48-39-12-23-31-40-45-58"/><path fill="#447338" d="M102 138c-13 1-24 4-34 11-3 6-6 9-7 13 6-1 13-1 21 0-5 1-17 2-25 2-6 10-9 21-11 32-4 21-3 43 3 60 3 13 6 22 11 32 7 3 13 6 20 5-8-3-6-3-19-12-1-6-1-12 0-16 5-6 10-8 17-7 7 4 10 13 17 7 7-22 21-42 38-58 0-9 0-15-3-20-10-4-24-16-43-18 6-4 11-1 16 0-1-6 9-10 8-21 2-7-13-3-8-10"/><path fill="#AEE163" d="M422 222c-1 10-4 24 3 28-1 5-6 5-6 4l-1-2 1 2c1 12 20-1 17 20-4-3-10 4-15 0-7-4-15-7-16-14 3 0 5-1 7-2-2-3-3-5-4-8v2c-5 0-12 0-13-4 0-11 10-10 15-12 2-4 1-7 2-10-14-1-16 14-30 13-2-2 4-5 10-10-5 1-14 2-15-5-17 8-27 17-44 34-7 10-9 19-8 32-1 4 3-24 10-29 8-7 16-7 24-6 1 3-3 5-4 7 6-6 15-13 18-19 2 5-7 10-8 16 1-5 4-7 9-4 2 5 19 10 12 14 6 2 11 1 17 2 9 11 15 14 19 21 6-4 12 4 18 4 2 3 2 4 3 6 6-32-15-46-6-69 8 11 19 19 23 33 5 11 2 20 4 31 3 2 9-1 12-5 18-19-10-26-21-45 4-3 8 1 12 3-16-4-33-25-44-26"/><path fill="#457144" d="M161 147c-25-2-14 36-13 50 4 18 8 34 17 50 3-18-1-33-6-47 6 0 9 0 11 4-1-7 1-19 5-12-1-9-4-27-2-32 6 2 1 63 14 77 2 12 12 26 20 35 12 14 23 24 37 34l2-1-2-1c-20-28-38-57-50-89-6-15-11-28-14-40-1-9 3-1 4-3-3 0-6-8-9-10-4-6-5-9-6-11-4 0-4-4-6-4"/><path fill="#17211E" d="M249 293c3 6 5 13 9 19-1 7-3 1-4 2l-1-1v1c7 5 5 0 10 3-4 4-12 0-16 4-4-6-2-13-3-13-1 2-1 8-1 10 9 13 14 23 17 32-5 9-7 8-14 8-11-3-25-11-32-13l-1-1 1 1c13 15 24 22 39 33 11-5 16-20 22-26 3 0 4-1 5 1 3 11-3 10-4 18 1-2 10 1 8 7-20 12-36 24-36 21 4 6 29-4 37-17 21 16 13 17 30 27-6-5-10-12-13-19 7 5 12 8 16 8-13-19-30-32-41-50 3-5-1-16 3-21-5-4-13-6-16-8 0-2-4-3-4-4-4-9-7-14-11-21"/><path fill="#161E1C" d="M322 288c1 11-12 28-25 37-2 3-9 4-13 0-2 5-3 8-2 12 2-3 12-4 19-2 5-1 6 2 8 4 7 17 2 40 14 46 2 2 7-6 13-8 9 5 16 2 27 5-7-3-13-6-18-11 9-14 11-11 17-15-8-1-17 2-23 8-6 2-9 1-11-2 4-9 13-12 21-15-2-2-4-4-6-7-11 7-11 7-18 20l-2-2 1 1 2 2 1 1c2 3 5 4 9 4-10 3-10-2-14-7-3-4-2-7 0-9 8-9 9-8 16-13-4-9-8-10-11-22 0-9-5-17-3-24"/><path fill="#D9F798" d="M176 124c-11 4-11 11-3 22 11 17 18 19 31 33 15-2 26 5 36 11-5-17-14-31-27-44-12-12-26-16-38-22"/><path fill="#DAC854" d="M212 192c-2 5-3 12-1 16 15 21 30 39 40 60 1 4-2 3-4 4-1 10 4 15 5 22 6-10 7-20 15-28 4-3 10-7 14-5-8-13-16-24-24-35h-1 2c-1 6-8-3-10 2 0 1 7 4 4 7-14-10-7-20-19-31 2 6 11 12 7 17-12-10-16-20-25-28"/><path fill="#7E6825" d="M276 262c-13 2-20 27-23 35 5 8 7 15 11 21 12 5 23 7 33 10 1-24-5-43-13-61-2-4-4-4-6-5"/><path fill="#9BBF52" d="M320 205c3 4-3 6-10 5-6 9-2 9-5 16-14-14-32-6-45-19 2 5 5 9 7 14 25 11 38 25 66 31 45-24-12-45-8-41"/><path fill="#255236" d="M387 174c-15 13-30 22-45 39 7 9 8 12 13 18 13-7 34-17 52-18-4-15-10-27-18-38"/><path fill="#B2D464" d="M245 174c-16-9 16 28 22 39 17 1 26 3 35 12-1-9 13-16 19-19 4 1 8 4 8 10 1-2 0-3-1-4 3 0 4-1 5-2-7-6-15-11-22-16-25-4-47-12-65-25"/><path fill="#275035" d="M448 139c-4 1-28 20-35 30-4 0-1-3-3-3 5 14 8 28 10 43 5-3 6 0 8-5 2 6 0 7-2 12 4 2 7 2 9 3 7 0 6-15 9-22 3-21 7-41 5-61"/><path fill="#484730" d="M179 332c10 18 28 33 44 45-17-9-33-24-45-39-18-7-35 12-23 26 9-2 5-7 8-17 4-5 8-8 13-6 7 8 13 15 14 23 12 13 21 16 42 25 4-2 12-7 18-10-13-9-27-21-36-32-12-6-23-10-32-15"/><path fill="#365238" d="M436 313c-15 6-20 25-35 29-11 5-22 4-29 0 8 9 24 9 33 15 6 3 22 7 32 3 27-28 23-38-1-10-4-4-7-10-7-12 3-15 8-16 9-26"/><path fill="#D6F799" d="M451 162c-3 20-2 42-9 61 2 5 4 2 4 4 1-15 8-27 13-37 0 15 2 31 2 46 2 5 3 7 6 8 5-16 7-37 4-56-6-13-15-20-22-23"/><path d="M301 401c-15 6-32 2-46 2 2 8 2 15 3 20 30-1 89 9 41-21"/><path fill="#273D26" d="M218 309c3 2 7 1 9 4 4 5 8 9 9 13-12 1-29-4-30 1-4-1-6-3-7-4-1 0 0 1 1 2-2 3-4 3-5 3 3 2 6 0 7 1-24 4 3 5 9 0 7 0 19 15 21 22 8 3 19 10 26 1-3-13-10-25-17-34-1-2-12-9-21-8"/><path fill="#588043" d="M147 132c-15 1-30-1-43 4-9 1-16 2-22 5 5-3 13-3 20-4-2 7 15 3 9 14-5 12-2 9-8 17 5 2 13 0 19 2-1-3-4-10 2-13 7-1 13-3 18 0 0-9 2-16 3-24"/><path fill="#5E5632" d="M71 411c-11 13 1 40 1 46 2 4 8 3 10 1-2 0-5 0-6 2 1-4 2-7 4-6 8 2 21-3 13 2 8-5 10-7 11-15 0-7 0-14-3-19-3-3-4-7-7-4-7 6-8 15-15 18-9-6-9-16-9-24"/><path fill="#73A155" d="M214 220c2 5 5 9 7 13-5 9-14 0-14 7 12 23 24 45 40 65 3-8-5-23-7-34-5-14-13-24-18-35 8 3-5-10-6-14"/><path fill="#283A29" d="M172 342c-2 3-10 0-9 9-4 16 0 31 4 48-4 19-12 36-15 51 1-1 2 1 4 2-3 9 2 7-1 12 5-46 17-80 26-101 2-13-3-21-8-21"/><path fill="#324A34" d="M146 353c0 14-16 26-19 37-2 5-3 2-4 1 1-3 2-4 4-5-2 0-3 1-4 2 9 11-3 9 9 15 6-3 11 3 16 2 4-12 7-18 5-32-1-9-1-11-6-20"/><path fill="#94C065" d="M202 183c-5 1-10 3-14 5 7 22 7 28 18 50 1-6 10 4 13-4-4-9-7-16-12-24-2-9 0-18 3-21-3 2-5-4-7-4"/><path fill="#2D2C2D" d="M125 410c-6 4-18 7-25 10 4 1 5 9 5 13 1 12-1 9-1 17 9-2 14-7 23-14 2-7 7-20 1-27"/><path fill="#58482F" d="M550 133c-13 37-18 55-31 73-4 10-34 39-47 45 16-6 27-19 39-32 5-4 6-8 8-11 5-7 8-12 11-18-12 17 9 13-3 24 11-12 21-30 25-47 2-11 3-18 1-26 1 9 0 18-3 26-3 11-7 20-12 28 7-20 13-38 13-59"/><path fill="#76A454" d="M96 364c-4 2-9 3-12 2-5 6-7 11-10 15 2 6 1 9 5 11-2 5-5 2-7 4 8-1 18-4 22 2 2-3 2-7 6-6 4 0 3 1 2 2v3-2c9-16-8-17-4-31"/><path d="M226 410c-4 4-10 8-13 12-2 13 1 22 4 31 9 0 14-11 21-15-3-10-13-9-10-28"/><path fill="#0F0A08" d="M333 328c3 1 4 6 7 8-12 5-29 21-11 30 49-9-11 2 36-14-19-5-19-18-29-22"/><path fill="#77A753" d="M129 346c-9 5-19 10-28 15 0 5 1 9 1 13 8 2 12 6 19 13 12-7 18-20 23-31v-5l1 3-1 3c-9 3-15 10-23 12 2-6-11-6-4-15 5-3 8-8 14-8"/><path fill="#8A895C" d="M395 279c4 2 10 6 12 11 3 9 3 17 0 23 0 5-3 6-4 8-14 0-16 7-26 9-11-2-17-15-17-20-2 5-6 8-1 13 3 7 9 10 13 12 4 1 13-3 21 2 9-3 15-9 18-15 4-11 3-21-1-28-3-8-8-13-13-15"/><path fill="#261C11" d="M364 135c30 38 25 32 47 78 3 8 5 41-1 38 6-5 11-17 9-35-3-10-3-20-7-28-25-15-22-32-46-49"/><path fill="#33482D" d="M162 377c-5 33-4 43-17 77 1-4 4-6 6-2l-2 1h-1l1 2-3-1c-5 14-27 3-35 18 8-8 26 4 34-8 4-2 6 9 9 9-1-7-3-12-6-17 4 1 5 5 7 4-1-3 3-9-5-11 3-15 12-31 15-47-1-14-1-15-3-24"/><path fill="#344D29" d="M288 339c-5 0-7 4-8 8 4 1 2 11 8 10 0-4-3-8-1-13 3 7 2 13 4 17 13 17 24 32 38 44 5-1 6 5 10-1-10-3-22-19-30-25-9-11-8-24-16-38l-2-3h-1v1"/><path fill="#132020" d="M315 250c3 3 9 4 14 5-22 3-28 6-42 13 3 8 6 18 9 31 1-6 8-15 15-23-3 2-7 6-8 10-6-9 6-9 4-16 7-5 13-6 18-10 5 1 2 3 2 5 12-15-1-9-10-15"/><path fill="#719F4E" d="M277 241c-7 1 7 16 9 24 5 0 5-2 3-4 10 2 20-7 29-5-8-6-17-11-26-14-6-2-10-2-15-1"/><path fill="#2E2C2F" d="M462 302c-13 3-18 8-20 11-3 8-6 12-9 18-3 7 1 12 4 14-1-5 14-5 13-16 7-9 7-15 11-27"/><path fill="#221F1E" d="M108 379c-2 9 1 4 9 13-10 7-16 14-22 22 5 4 8 9 9 15 0-4-4-8-3-11 12-3 19-7 27-10 5 10 2 22 0 27 4-3 5-5 7-6-2 0-3 3-4 0 0-6 1-16 1-21 2-3 3-4 6-3-3-1-7 1-9-1-8-9-12-17-20-23"/><path fill="#F2F8CA" d="M383 279c-6 1-16 0-13 10 3 0 7-2 8 2 2 4 0 8 0 11 6-1 14 8 20-1 5-7-2-14-3-18-3-4-7-3-10-5"/><path fill="#3A4E31" d="M327 428c-51 6 3 6-51 7 23 3 42 4 59 8 2 0-4-6-4-9 4 1 5 6 9 8 20-7 0-18-8-12-5 1-4-4-7-2"/><path fill="#303D28" d="M248 407c-3 5-6 10-8 15 0 11 0 10 3 17-27 14-2 11-22 21 18-9 12 3 18 0 3-13 9-25 8-28 8-3 9 8 15 16-9-15-10-25-10-42"/><path fill="#344D28" d="M176 321c-32 10 7 6 13 11 16 7 29 12 41 18-3-7-6-11-13-16-6-6-10 0-25 0 2-3 5-3 8-4 0 2-3 0-5 1 0-5 2-4 5-5l-1-1-1-1-2-1h-19"/><path fill="#3D2E1D" d="M346 117c25 26 37 38 66 75l2-3-3-1c2-5-2-12-4-18-11-8-36-38-60-53"/><path fill="#273928" d="M356 360c-23 8-2 18 8 21-4 1-8 1-11-1 27 11 34 12 53 25 4-7-2-7-4-9-7-4-25-9-34-15-3-8 3-3 6-2-13-8-19-12-16-16"/><path fill="#2A3B22" d="M142 297c5 6 16 18 20 23 3-3 10-3 14-4 2-4 3-7 4-10-3-4-24-5-36-9"/><path fill="#365639" d="M212 283c-1 8-1 16-1 24 12 1 21 3 28 8 5-10 1-1 0-7-10-15-11-7-26-26"/><path fill="#3A442F" d="M213 411c-6 3-10 5-14 11 3 3 3 15 5 24 0 7-8 10-9 10 3 1 4 5 7 5 5-2 7-4 7-6 3 0 3 2 6 1-7-16-7-32-5-36-1-4 1-5 3-8"/><path fill="#88742C" d="M161 200c6 14 10 31 7 50 6 10 12 18 17 26-9-23-9-35-13-61-7-6-1-7-8-14"/><path fill="#2B1607" d="M369 291c-7 3-10 14-6 22 3 6 4 8 7 12 3 2 9 4 11 2 6-5 3-9 1-13-4-3-7-1-12-10-4-4-3-9-1-12"/><path fill="#ADD16D" d="M207 181c7 19 39 12 43 29-1-7-5-14-7-21-12-1-21-11-36-8"/><path fill="#54432B" d="M347 117c12 5 30 25 40 33 8 11 15 16 19 23-1-16-18-27-25-39-12-9-22-14-29-16"/><path fill="#7BA150" d="M243 186c9 12 11 33 24 45 7 4 15 0 21 3-5-6-12-12-20-11-8-13-13-28-23-35"/><path fill="#3F3323" d="M531 190c-5 10-11 19-17 28-17 24-43 31-41 36l-4 1h4c2-2 32-16 51-39 19-15-9-4 9-25"/><path fill="#325E3C" d="M152 121c-2 9-6 18-6 31 6-5 10-3 14-7 6 3 10 6 12 11-6-13-11-24-19-35"/><path fill="#34452D" d="M255 428c-11 4-6 4-10 13 5 8 9 15 12 22 4 0 9-2 13 0-5-12-16-23-18-35"/><path fill="#5B8744" d="M339 267c-2 5-5 8-6 13-5 15-1 36 0 45 6-4 12-6 18-10-6 1-8 5-15 8 0-12-3-16-3-30 1-6 3-4 4-7 4 2 6-1 8 2-4-2 11-20-4-21"/><path fill="#213423" d="M279 361c-6 8-19 24-29 31-1 4-1 6 2 7 19-11 5-1 31-23-2-2-2-6-7-5 2-5 1-9 3-9"/><path fill="#72A248" d="M116 126c-18 5-36 8-50 20 9-2 15-7 23-9 23-7 90-5 23-12"/><path fill="#263527" d="M300 387c25 36-3 4 20 33 8 4 17 11 25 8-27-17-26-34-39-33"/><path fill="#363525" d="M284 385c-6 7-13 11-20 15 8 2 57 4 20-17"/><path fill="#2E3C27" d="M254 463c2 0 3 2 4 3-8 1-15 28-5 12 13-2 21 1 30 4-4-7-8-12-15-11 1-3 2-4 4-5-6-5-14 1-16-3"/><path fill="#345430" d="M319 286c-3 8-13 6-17 3-8 10-3 19-2 25 9-7 18-14 19-25"/><path fill="#DBE1A0" d="M396 282c0 5 8 11 3 19-6 9-15 2-20 2 1 8 7 11 8 16 6-4 14-6 17-16 3-8 0-18-7-20"/><path fill="#AC9842" d="M86 300c-29-6 0 23 8 27 1-1-6-16-5-27l-1-2h-1v1"/><path fill="#B9DB6D" d="M451 139c0 10-1 19 1 27 11 1 9 10 19 16-3-15-10-28-19-41"/><path fill="#465735" d="M411 422c-9 19-10 21-17 31 4-1 3 8 12-2 7-10 17-29 7-30"/><path fill="#D2F694" d="M405 261c-4-2 7 8 13 11 10 5 15-1 18 1-3-4 1-10-6-11-5 1-17-4-23-1"/><path fill="#2B3627" d="M257 427c1 2 2 5 3 8 20 2 38-4 62-7-22-2-43 2-63 0"/><path fill="#8BBD60" d="M132 346c-5 1-9 4-13 8-8 8 4 8 0 13 6 7 11-9 19-7 9-5 6-13-4-8-2 4-3 7-5 10-1-6-4-11 1-14"/><path fill="#2C3926" d="M415 410c10 4 5 11 7 15-10 16-18 38-23 38-1 7-3 10 6 13 2-4-4 2-2-10 6 0 8 8 12 6 4 1 6-6 11-4-4-9-14 0-21-8 8-15 13-18 21-34-5-2 3-9-8-15"/><path fill="#83753B" d="M75 411c-8 1-3 8-3 12 0 7 3 12 7 12 6-7 10-14 15-19l1-1v2c-8-8-5 4-9 3-6 1-10-6-9-10"/><path fill="#75A542" d="M346 257c-2 1-4 1-6 2-5 6-6 11-9 15-3 15-2 28 0 40-2-12-2-24 2-35 1-6 4-9 5-12 15-4 8 11 14 10 0-4 1-6 2-9s4-4 4-5c-2 1-3 2-2 4 1-6-2-10-9-11"/><path fill="#F3E57B" d="M233 202c13 15 4 22 18 31-1-2-3-3-5-4 4-6 10 1 11-3 3 3 6 5 7 9-7-12-15-26-27-33"/><path fill="#80AE3A" d="M364 259c-6 21-10 9-5 25 5-5 10-9 19-10 10-3 20 1 27 3-6-5-18-8-29-6 0-2-15-5-12-10"/><path fill="#77A140" d="M306 336c3 20-11 8-4 18 3 7 5 23 17 31-12-13-6-33-11-46"/><path fill="#314E36" d="M210 285c-7 0-17 11-23 13 3-2 6-1 7-1 5 6 5 15 14 13 0-6 1-16 1-24"/><path fill="#25382B" d="M417 313c-1 8-7 15-12 22-6 4-11 5-15 6-9 1-14-1-19-3-9-2-14-12-16-15v-1l-1 2c2 5 7 11 13 14 9 5 16 8 26 6 9-1 14-6 18-10 5-11 7-12 7-20"/><path fill="#BBDE74" d="M154 118c14 17 13 30 29 52-3-12-18-30-17-37 0-7 4-8 7-8-4-5-11-4-16-7"/><path fill="#45673D" d="M477 294c-4 7-13 9-15 12-2 7-5 20-11 30 12-1 16-25 26-39"/><path fill="#8E826A" d="M452 273c-8 2-4 6-4 15 1 4 4 7 5 5 12 1 4-10 7-14-2-3-4-5-7-6"/><path fill="#9A8D70" d="M439 245c-3 8-2 8 2 14 4 9 10 4 13 6 2-4-1-9-3-12-4-6-7-6-10-7"/><path fill="#323C2A" d="M230 396c-12 12-28 14-36 25 4 2 11-11 18-10 6 4-10 8-1 9 8-8 21-13 19-24"/><path fill="#B8A13D" d="M72 262c-3 2-5 4-6 6-3 7 1 13 4 15 5-3 5-6 8-10 2-2 4-11-4-12"/><path fill="#211C17" d="M344 334c-1 4 8 9 9 12-3-2-4-6-2-8 10 14 5 5 26 18 11 5 22 7 34 8-3-6-47-13-57-27-1-1-8 1-10 0"/><path fill="#5A8B48" d="M221 229c6 17 19 33 22 52 0-5 1-9 5-11-8-15-19-32-27-38"/><path fill="#4A7244" d="M345 285c-3 5-10-2-9 7-3 11 1 20-1 29 2-3 6-11 6-17-1 5 6 13 0 16v2-3c2 3 1-2 4-4-2-10-4-19-1-29"/><path fill="#D6F79A" d="M409 215c-14 0-24 5-37 10l-1 2 2-2c6-3 11 8 21 1-9 8-16 15-24 20 25-8 25-28 39-29"/><path fill="#466A49" d="M351 319c-3 4-20 11-2 16 0-3-3-7-2-9 10 18 22 16 31 23-5-5-13-9-18-14-5-6-7-10-9-14"/><path fill="#82B239" d="M268 166c-11 6-1 12 5 15 6 1 12-1 20 0-8 2-8 2 0 1-12-8-15-9-26-15"/><path fill="#92C543" d="M368 254c-3 6-2 5-3 8 11 7 8 8 21 7 6-1-11-15-16-14"/><path fill="#150E0B" d="M338 341c30 8-10 9-10 21-4 1-1-1-4-2 9-10 4-11 9-15 9 4 2-1 9-1"/><path fill="#518540" d="M86 267c2 3 2 8 0 11-2 12-13 9-11 13 5 2 10 1 15-1-2-11 11-28-1-22"/><path fill="#F8F595" d="M456 201c-5 8-5 17-6 27 2 3 4 5 7 6-2-11 1-21 1-33"/><path fill="#C4AE45" d="M136 159c-16 7-8 11 6 16 1-5 0-10 0-14-2-2-4-2-5-3"/><path fill="#192622" d="M189 297c-23 24-7 19 23 19-15-6-13-3-27-10-2-3-1-5 0-7"/><path fill="#B5DB75" d="M188 170c-9 5-4 12-1 16 5 0 9-3 13-4 4 2 6 4 8 6-4-6-22-24-4-6-11 0-9-8-14-9l1-2h-1"/><path fill="#304B2F" d="M139 297c4 11 7 16 12 23 2 4 7 0 9-1-12-7-18-28-17-21"/><path fill="#2E2C2C" d="M349 338c2 9 21 19 27 21 9 4 26 7 43 4-12-4-5 6-34-3-13-4-23-13-34-21"/><path fill="#4B6E32" d="M225 311c-21 9-13 16 8 13-4-5-6-10-9-12"/><path fill="#BCBF81" d="M399 283c6 4 8 12 6 18-2 15-16 13-19 22 7-2 15-4 20-8 3-12 2-24-4-30"/><path fill="#90C05B" d="M424 291c-1 5 2 10 2 15 3-5 11-2 15-2-1-1 2-3 0-6-6-1-9-6-14-6"/><path fill="#DAE19C" d="M371 281c-6 2-11 6-13 12-5 7-3 13-4 19 3-12 14-20 16-31"/><path fill="#41412C" d="M219 355h1c5 4 13 10 14 13-7-2-26-6-18-13"/><path fill="#364D33" d="M135 407h-1c4 7 0 15 0 21 4-9 22-21 4-22"/><path fill="#23342C" d="M196 297c-9 2-11 3-13 8 4 1 12 0 12 7 0-2 1-3 2-4 0 6 8 5 6 8 9-6-10-6-6-18"/><path fill="#283827" d="M315 393c19 23 13 18 36 38-6-8-12-14-15-22-2-4-10-1-18-14"/><path fill="#454246" d="M77 400c-17 13 15 2 14 11-2-3 3-3 0-4 0-6 3-3 6-4-5-1-12-4-19-2"/><path fill="#36542C" d="M351 295c-2 0-3 1-4 2-2 6-3 12-2 18 10-2 4-18 9-20"/><path fill="#3A563A" d="M127 345c-17 5-34 13-42 16 5 3 7-1 10 1 4 3 4 7 6 10-1-3-2-7-3-10 10-7 19-11 27-16"/><path fill="#D7F49F" d="M422 218c56 49-8-15 50 36-10-11-16-17-21-21-9-5-15-10-23-11"/><path fill="#3B5135" d="M148 332c-3 5 2 9 0 16 3-4 8-8 13-10-4-3-8-4-11-6"/><path fill="#BDC382" d="M484 289c-3 5-6 11-10 19-2 8 4 10 4 14 8-10 2 5 8-7-2-3 2-5 1-7-5 2-8 9-10 5-1-10 4-18 9-24"/><path fill="#90BE44" d="M234 155c12 7 21 14 25 16 7 0 1-4 7-3-11-7-16-6-30-12"/><path fill="#241509" d="M471 312c-3 7-6 14-8 15 6 2 11-1 13-3-1-6-5-8-6-11"/><path fill="#D4F798" d="M409 238c-4 1-8 0-10 3-4 3-4 5-2 7 3 3 6 4 9 4 1-3 2-6 5-6-5 4-7-2-9-4 3-5 11-2 9-5"/><path fill="#395031" d="M409 410c-3 9 6 6 8 10 0 6 3 10-2 15 8-7 4-15 6-17-2-6-7-6-11-7"/><path fill="#1E312F" d="M326 260c-5 4-11 6-17 8-7 10-6 15-12 24 13-17 8-15 33-31"/><path fill="#CDEB81" d="M222 150c5 7 10 15 15 22 8 3 4-4 12-2-9-4-19-9-26-19"/><path fill="#C2AD46" d="M78 263c8 9-4 13-8 23 7-1 10 0 11-4 3-12 4-16-2-19"/><path fill="#365F32" d="M63 181v-2c31 9-8 0-10 20 2-8 6-12 8-17"/><path fill="#3A522F" d="M415 392c-6 5-2 3-3 6 11 4 10 8 14 11 1 1 8 16 7 17 1-3 0-8 0-12l-4-4c-6-7-8-14-15-16"/><path fill="#5D8231" d="M262 374c-5 3-14 8-15 11 8 5 14-5 16-9"/><path fill="#6D6A49" d="M161 360c-2 2-5 1-6 4 1 7 2 16 1 23 3-8 3-17 4-26"/><path fill="#AEE079" d="M323 271c-7 3-12 8-17 14 7-2 17-4 17-14"/><path fill="#4D6937" d="M417 391c-2 4 10 13 13 18 1-3 1-6-1-9-8 5-3-15-9-7"/><path fill="#040503" d="M382 274c10 1 19 4 25 12 8 10 10 22 6 32 3-7 3-17 1-25 4 2 5 6 6 10-1-5-2-10-6-13-9-12-19-15-30-16"/><path fill="#203828" d="M319 294c-3 10-14 16-19 25 6-8 10-6 15-10 3-6 2-10 4-13"/><path fill="#A1D569" d="M123 337c-5 2-10 1-10 6 5 2 8 0 12-1 3-3 4-7-1-5"/><path fill="#140F0D" d="M352 350c14 4-18 6-18 15 3-9 9-11 16-13"/><path fill="#47652B" d="M157 325c-16 4 14 12 18 7-10 2-14-1-15-8"/><path fill="#465935" d="M348 425c7 7 11 16 17 25 2-10-2-7-3-19-7-6-1 0-2 3-3-3-8-6-12-8"/><path fill="#476B2E" d="M351 277c-4 5-4 12-5 18 3 1 5-3 7-1-1-6-1-11-2-16"/><path fill="#91C35B" d="M336 259c-5 6-6 14-8 22-3 16-1 25 3 38-3-12-4-25-2-37 1-10 6-16 9-23"/><path fill="#38462D" d="M407 451c-10 14-11-3-16 7 1 2 6 9 10 14-2-6-3-1-4-9 6 2 2-5 9-9"/><path fill="#D2DA98" d="M485 293c-5 4-9 16-7 21 2-4 7-4 8-9 2-12-3 6-5-4-1-5 4-5 5-6"/><path fill="#608358" d="M207 277c-10 10-15 10-18 19 7-7 21-11 19-18"/><path fill="#65922C" d="M296 337c1 4 3 10 6 13 2-5 3-7 3-10-2-5-3 3-7-4"/><path fill="#80AB58" d="M278 244c4 2 12 10 14 13-5-1-7-3-14-10"/><path fill="#38462C" d="M424 464c-15 5 8 2 15 12-3-6-7-9-11-12h-2l-1 1"/><path fill="#8DBD5F" d="M112 341c-6 1-10 5-15 8 8-2 27-1 13-8"/><path fill="#1F352B" d="M244 310c1 3 1 6 3 9 4-2 11 0 14 1l-15-9"/><path fill="#B6B185" d="M442 261c1 5 5 5 8 8 0 3-4 2-5 6 5-2 10-5 15 2-1-4-3-8-4-11-4-1-10 2-14-2"/><path fill="#94B85A" d="M238 175c4 13 16 16 20 29-4-10-9-21-18-28"/><path fill="#5D7D43" d="M379 379c5 4 9 8 18 12 6 0 7-1 11 0-9-3-20-5-28-11"/><path fill="#4E663A" d="M357 414c-8 13 8 11 7 27 0-9-2-18-6-25"/><path fill="#243126" d="M410 400c0 7 11 8 15 13-2-4-6-11-12-14"/><path fill="#5C5447" d="M449 295c-11 15 3 11 13 5-9 2-10-1-13-2"/><path fill="#517330" d="M246 393c-7 3-12 13-7 19 1-6 4-12 6-18"/><path fill="#344D29" d="M278 356c-9 3-1 4-15 15 8 0 13-3 18-17"/><path fill="#6C6353" d="M448 289c-1 4-1 6 2 8 4 4 8 2 9 1 0-8-9 2-11-7"/><path fill="#528954" d="M447 186c-1 13-6 25-8 38 4-12 7-24 9-35"/><path fill="#393927" d="M178 335c10 15 28 32 43 42-15-11-30-25-41-40"/><path fill="#45673D" d="M435 310c-5 2-11 1-10 9 4-3 18-8 13-10"/><path fill="#1C241C" d="M175 342c4 2 6 7 8 10 1 8-1 12-4 15-2-3 7 1 8-3 7 6 13 9 18 13-5-4-11-7-16-11 1-7-6-10-5-12 0-4-5-8-7-10"/><path fill="#94C259" d="M473 258v1c1 3 3 5 4 7-11-8-9-6-2 1 6 5 4 7 7 8 4-5-5-12-8-15"/><path fill="#3D5531" d="M345 415c0 11 3 10 12 16-2-4-5-10-9-14"/><path fill="#A76335" d="M374 289c-5 3-4 8 1 10 3-2 2-8 1-9"/><path fill="#7BA751" d="M430 303c-10 10 9 6 11 1-3 1-5 0-10 1"/><path fill="#4E4E17" d="M233 243c5 7 11 18 16 26-4-9-8-18-14-26"/><path fill="#B6A03C" d="M129 157c-1 2-3-1-4 1-3 5 0 7 1 9-3-4 15-11 5-10"/><path fill="#3F3C42" d="M112 393c-10 6-10 8-22 13 3 2 4 3 3 4 4-7 12-9 18-15"/><path fill="#749D49" d="M179 319c5 0 26 4 23-1-4-2-12 0-19-1"/><path fill="#ECFDC4" d="M437 229c7 4 13 12 21 14-7-6-10-12-18-14"/><path fill="#857527" d="M72 260c-4 0-7 3-8 7-3 7 0 13 3 16-1-3-5-8-2-12 1-5 3-7 6-9 5-2 9-2 11 2-2-3-5-5-9-4"/><path fill="#A4CB5B" d="M332 216c3 2 8 10 14 12-6-1-11-6-16-9"/><path fill="#E7FEB8" d="M404 240c-2 2 3 9 6 5 3-6 0-6-4-5"/><path fill="#5C8D43" d="M78 143c-4 1-6 4-10 4-4 3-7 9-11 14 7-4 10-16 21-18"/><path fill="#364F35" d="M140 339c-16 5-1 5 5 9-1-3-3-5-4-7"/><path fill="#474345" d="M109 387c-2 3-3 6-4 10 3-1 5-3 8-5-1-3-2-4-3-5"/><path fill="#161C17" d="M413 291c6 5 2 16 5 22 2-10 2-11-3-21"/><path fill="#506E3E" d="M368 378c9 7 23 12 34 15-21-9-22-13-32-14"/><path fill="#998842" d="M78 411c0 3 1 6 5 8 1-2 3-10-3-7"/><path fill="#99CC54" d="M455 247c1 2 8 8 10 9 1-6-1-8-8-10"/><path fill="#1B2117" d="M245 406c0 3-2 4-3 6 0 4-9 11-3 18-8-23 29-22 8-23"/><path fill="#32592E" d="M64 181c-4 7-12 13-16 21 7-8 7-10 17-18 18 2 14 3-1-4"/><path fill="#324229" d="M247 415c4-2 7 2 5 7-13 0 2-6-4-4"/><path fill="#618B47" d="M75 382c-3 7-4 7-4 12 2 1 4 0 7 1-3-4-4-7-5-11"/><path fill="#161D18" d="M413 410c0-5 19 11 13 15l4 1v-3c-1-3-3-5-4-8-4-2-5-5-7-6"/><path fill="#446331" d="M444 141c-14 3-24 18-32 27 10-10 19-21 32-27"/><path fill="#406832" d="M319 285c-3 0-9 3-14 4 2 0 3 5 7 1 2-4 6 0 6-3"/><path fill="#6A5F35" d="M79 454c-9 8 11 2 15 1-7 4-8-5-15 0"/></svg>