<svg xmlns="http://www.w3.org/2000/svg" width="600" height="600"><path fill="#834E47" d="M306 137c15-2 31 1 44 1 27 3 48 12 70 21 15 11 31 21 44 32 22 24 37 55 54 73 4 16 10 29 12 43 1 14-1 24-5 32-10 19-26 24-26 43-11 2-19-2-22-7-6-2-4 2-4 5 13 7 23 17 35 23 4 5 5 9 6 12-3 5-6 6-9 5 6 2 9 6 13 10 2 6 4 11 2 15-3 4-4 4-5 6-9 3-13 0-17-5-7-11-13-16-22-20-2-14-7-24-13-34-7 3-13 4-20 3 3 4 4 6 5 9-4-1-6-3-8-7 0 5 3 6 7 7 2 5 7 5 8 9-1 5 9 8-1 17 6 3 15 2 19 10 1 11-7 18-15 20-18-1-18-19-33-23-3-15 2-27-4-37-16 8-41 6-55 10-9 1-14-1-19-3 2 6 3 10 3 15-4 6-5 11-8 14-8 0-15 5-20 1 1-2 8-10 13-8-4-3-8-1-8-8-5 1-7 2-8 5 2 3 1 6 2 9 3 4 4 11 1 14-20 4-19-23-27-19-5 3-9 3-11 7 0 5 2 8 1 14-1 5-4 9-8 9-11 1-20 1-30 0-5-5-6-9-7-13 0-8 6-12 9-15-13-6-25-10-37-13-9 4-12 17-23 20-1 8 0 13-6 18-6 4-11 0-15-2-5-5-6-11-4-16 3-7 7-10 13-10-2-2-5-3-6-5 13-16 26-10 33-22-3-4-7-7-10-9-7 7-12 8-16 14-5-5-6-10-5-15-1 6-1 11 3 14-9 6-14 12-21 14-3 7-6 14-8 21-5-1-4-5-8-6-3-19 10-29 11-43 8-5 14-5 19-7 4 4 10 1 20 4-20-32-51-40-72-63-1-10-1-14 1-20 17-46 34-94 75-124 20-17 42-26 64-36 17-5 32-8 48-8"/><path fill="#881912" d="M254 234c-3 2-4 7-4 10-11 3-13 7-22 10 6 12-6 25-1 40-5 8-12 15-19 16-5 0-9 2-11 0-7-5-8-11-9-17-3 3-5 0-6 2-4-3 5-3 3-6-3-2-5-1-9-10-10 15-13 39-13 63 6 4 10 9 18 11 12 2 22-2 28 1 27-4 50-19 66-21 6-2 8-7 12-9 3 3 11-1 5 4-9 6-20 12-30 17 10-3 20-9 30-14 5-4 8-8 11-11-4-6-10 0-11-10 2-9-8-32-8-47-6 4 0-5-6-2 7-9-24-20-20-26"/><path fill="#22141D" d="M338 306c-16 20-40 31-61 47-5 15 11 36 13 37 4 0 13-6 21-10-12 8-15 24-20 28 3 0 7 0 3 5 4-11 14-19 23-26 6-1 0 1 0 4 13-3 32-3 51 2-12-8-22-21-29-32-7-18-2-39 2-53"/><path fill="#C02518" d="M280 209c-1 1 1 10 0 10-12-7-26-4-36-8-18-4-19 16-24 32-1 7 5 10 5 15 8-14 26-7 27-25 5 8 23 13 30 23-1 3-5 4-6 5 2-1 3-2 5-1-3 5 8 1 3 8 2-14 6-11-1-24 4-7 12-8 14-6s4 4 5 7c-1 15-5 16-4 31 2 4 2 1 5 1 9-3-6-5 3-10 4 13 13 14 18 25 4-3 9-4 12 0 1-8 2-14 3-17-4-10-6-18-9-26-5-6-10-10-15-8 2-1-1 3 1 4-4-4-5 1-8 1 3-10 2-19 14-21-12 0-10 8-16 14-1-13 4-3 2-9-15-5-22-7-26 0 4-12-1-10-2-21"/><path fill="#F99D6D" d="M319 143c-4-2 43 16 27 6 9 4 17 5 23 11-6 1-10 0-14 0 7 8-12-3-3 5-9 0-6-3-5-3-14-2-27 1-40-5-21 7-28 8-47 16-3-2 3-5 2-5-13 1-29 9-34 4-34 20 39 2 52 4 8-6 17-8 27-14 2 0 3 1 6 0-3 5-6 2-9 4 13-3 26-4 28-4 5 2 11 2 12 11-4 2-7 9-11 6 5 5 9 9 14 10 12 1 29 0 41-3-1 2 6 5 6 9 1-5-9 23 0 20 4-9 4-10 3-20 13-1 19 6 24 12-5-5 2-4-5-7 5 0 8 2 11 3-21-14-19-30-15-23-10-4-15-11-21-13-3 2-5 1-6 4 1-5-4-6-10-9 2-4 15 4 5-2-28-13-44-13-48-15-3-2-9-1-14-3"/><path fill="#27171F" d="M251 356c-18 6-37 9-56 9 6 4 18 4 20 10 8 2 18-4 19 2-22 9-18 30-47 36 5 1 7-1 11 4 1 3 2 7-1 10 10-14 29-24 43-26 3 0 16-2 21 0s1 2 1 3c3-4 10 0 14-3-3 0-5 2-9 1 4-4 9-6 13-8-12-13-17-43-31-37"/><path fill="#EA6B5F" d="M307 162c-8 7-21 7-20 14-4 1-16-1-19-1-2 3 6 1 7 4-24-2-46 9-57 0-14 11-19 24-26 35 10-9 10-1 23-12-1 3 4 1 5 2 17-8 20-7 52-16 7-1 8-2 12 4 9-2 15-9 27-15 11-1 17 2 23 3 33-13-12-21-26-15"/><path fill="#B83C3C" d="M215 202c-8 9-14 8-20 8-6 17-22 49-27 84 5 2 1-11 7-15 6 13 6 2 10 7 1 7-6 6-6 12 3-3 5-4 8-6 2-13 3-25 9-36 4-2 9-9 13-9 5 0 6-1 10 2 3-13 5-23 7-33-8-10 3-9-12-12"/><path fill="#FCD3A3" d="M390 184c-8 10-26 2-36 9-18-10-6-4-11 10 12-1 11 19 27 12-5 7-8 11-13 14-12-5-7-14-15-21-1 1-4 2-3 4 6 8 19 24 32 36 5-1 9 0 12-2-6 0 9-9-4-3 5-10 16-13 13-22 7-2 11 1 14 4-2 5-1 7-1 9-1-2 4-4 5-8-3-6-17-8-19-11-1-6 0-22 5-16-2-4-8-10-8-13"/><path fill="#FAC6B6" d="M297 144c-15-2-38 7-40 5-13 7-24 13-36 25 8 0 25-4 40-8 1 4-2 4-2 7 18-8 31-10 41-15 24 2 112 11 24-17 12 6 25 7 25 12-28-6-23-11-49-11"/><path fill="#F43B27" d="M431 204c-3 7 5 12-1 19-6-2-12-6-17-10 5 5 11 8 14 10-21 7-38 25-57 36-1-3-6-12-22-19-2-5-5 3-9-2-6-4-2-9-1-12-4-1-5-6-8-4-7 1-11 6-16 8-1 7-4 8-6 14 5-3 9 4 6-6 6 0 12 5 15 10 5 10 7 18 12 25 4 2 6 12 12 4 0 6-3 7-5 11 16-14 17-22 40-38 13-11 28-18 43-22 7-9 6-11 0-23"/><path fill="#1F161E" d="M370 277c-19 15-1 1-24 26-2 13-10 31-2 46 4 14 16 25 28 31 8 5 14 9 21 10 7-4 15 1 19-4 2 5-3 7-4 9 8 0 13-18 26-14-2 1-1 4 1 6-5 0-9-4-12 1-2 15 5 23 2 37 7-13 7-14 12-20-2 0-4 2-6 3-2-5-4-8-1-13 4-7 10-4 14-10-7-3 6-7-6-9 6-7 12-13 17-21 6-9-7-5 3-14-7-10-11-22-13-33 3 11 2 26 1 34-2 13-5 15-16 33-8 3-15 10-23 12-16 0-27-5-38-12-6-4-10-9-13-13-6-8-8-15-9-22-3-27 20-50 23-63"/><path fill="#BFC7B5" d="M400 273c-3 1-7 0-9 2-9 4-14 8-19 15-4 11-5 21-10 30-2 7-1 18 2 27-6-13 4-20 1-32 6 1 8 3 10 5 3-3 10-6 12-9 7-3 14-1 19-3 4 7 26 9 24 19 5 21-1 27 2 37 3-4 11-16 11-25 1-12 3-25-2-35 0 2 2 4 1 7-3 3-9 8-10 5-2-6-5-6-8-14-6 0-8-5-12-6-14 2-19-6-33 4-3-11 6-18 9-23 7-4 14-4 18-4-1 0-3-1-4 0"/><path fill="#A5998B" d="M391 274c-11 3-21 12-26 22-4 17-10 32-6 49 2 7 4 13 8 18 12 10 25 18 38 17 12-2 19-8 28-14l1-2-2 2c-5-1 1-8-1-11v-2 1c-1 3-15 18-17 16 4-2 2 2 1 4-7 0-13 1-20 1-6-2-10-4-13-8-6-8-1-18 0-25-3 1-4-1-8 0 3-3 6-3 9-2 1-7 4-9 5-14 5-10 22-13 23-14-8-2-16-2-22-1-4 4-10 6-11 10-5-2-7-4-10-7 3 15-11 18 1 34-6 0-8-4-8-7-4-17 6-29 8-48 6-10 14-17 23-20"/><path fill="#580F0E" d="M341 296c-11 8-24 19-36 28-4 2-29 18-42 21 5-5 20-11 27-17 5-4-2 2-1-4-5 3-8 8-14 9-17 3-40 19-63 21-12 0-20 1-30 0-9 0-14-10-20-10 9 11 19 16 30 17 18 4 33 1 48-3 20-6 39-14 56-24 16-11 29-21 43-32 0-3 0-4 1-5"/><path fill="#EBF1E6" d="M403 274c-4 1-9 0-12 3-28 28 1 16 14 17 10 0 12 7 19 7 3 5 6 9 7 15 3 2 6-2 10-3 0-9-2-14-4-20-7-9-14-15-22-18-5 0-8-3-11-1"/><path fill="#91180F" d="M288 250c0 27 5 42 11 56 5 12 14 0 19-1-18 10 1 7-18 21 15-9 24-20 37-28 1-4-5 3-7 3 1-4 6-7 8-9-8-5-6 9-17 11-1-4 1-7 2-11-7-11-14-12-17-23-6 3 6 5-3 8-4 3-4 1-5 0 1-10-2-16 2-20-4 4-8-3-10-5"/><path fill="#DC4037" d="M270 187c-7 11-23 6-30 9-3 5-2 1-17 6-7 8 8 0-1 8 15 4 31-5 58 10-2-2 2-6-3-9 20-29 9-17-6-24"/><path fill="#4C2022" d="M339 359c7 14 20 29 34 37-6 0-38-10-48-6-16 0-32 23-11 26-2-3-7-2-5-6 9 7 22-9 17 4 22-11 37-10 57-16-2 1-5-1-8-1-2-4-4-1-5-4 12 5 25 1 35 5-12-4-26 0-35-9-14-6-23-18-29-29"/><path fill="#241C23" d="M222 266c-9 9-22 16-29 21-4 7-4-2-3-3 0 8-3 17 6 22 9 6 18 0 24-5 7-11 8-28 2-33"/><path fill="#1B141A" d="M406 317c-6 2-10 2-13 9 5 9 6 18 10 28 3 5 7 4 9 4 7 0 10-4 13-6 5 2 2 4 2 6 9-16 1-23 0-35l-2-2-1-1c-2 2 2 5 1 11-6 6-3-1-7 3-3-3-7-1-9-7 0-10 1-4 2-10l-2-1h-1v1"/><path fill="#7B7875" d="M311 178c-34 16 9 19 20 32 8-3 12-7 12-12 0-6-1-9-3-12-4-3-12-7-16-6-5-1-8-1-10-2"/><path fill="#44494F" d="M295 189c-8 6-20 21-6 31 7 3 16 7 22 2-7 6-6-7-12-5-7-7 1-7 0-10 10 4 3 6 9 11 3-4 17 7 27-8-14 1-21-15-41-19"/><path fill="#B24642" d="M175 230c-4 15-24 48-27 63-10 15-13 4-17 17 0 12-3 23 4 29 7-2 4-5 12-15-4-10 1-18 2-25 8-9 12-29 18-35 5-9 4-26 10-31"/><path fill="#38282F" d="M169 353c6 8 9 16 13 24 14 16 1 0 18 8 3 4 3 7 5 9-6 4-3-5-9 0 5 3 9 0 10 7 6-1 9-5 13-7-2-4-2-6-1-10 7-1 12-3 17-6-9 1-27-4-47-16-7 5 3 9 2 15-13-2-9-18-19-21"/><path fill="#BDC9BB" d="M499 260c7 5-6 12-2 20-2 6 0 11 0 15 3-4 2-10 5-14 2 21-3 34-4 52 5-11 6-22 14-30 8-5 15 6 15 6 0-12-5-14-1-16-3 1-9 1-12-4 2-5 5-3 7-4 1-4 0-7-1-9-3 0-6 3-8 6 2-9-5-17-11-22"/><path fill="#353136" d="M255 430c-7 6-8 5-1 6-5 8 4 8-8 12 0 7 3 8 6 10 9-3 23 9 31-3 1-3 0-5 1-6-3 0-7 0-9-3 2-5 3-7 2-10 0 5-13-5-20-6"/><path fill="#323234" d="M451 287c-3 5-10 9-8 14-1 9 19 40 14 50s-14 19-18 25c11-10 23-25 34-42-3 1-3 9-7 6 5-7 1-12 7-17-1-10-7-15-10-22 4 6 3 13 0 16 3-10-14-6-12-13-3-6-9-10-1-15"/><path fill="#0C040B" d="M340 303c-17 14-35 27-54 37-13 8-25 12-37 18 3 0 9-3 14 0 2 15 12 24 17 34 2-1 4-1 6-2-6-12-13-23-11-33 25-21 52-39 65-52"/><path fill="#2D2D37" d="M211 248c-2 1-4 1-5 2 2 0 3-3 4 1-2 5-3 9-6 12-16 7-3-9-7-5-5 11-8 21-6 30 7-6 18-12 29-21 5-8 1-19-8-19"/><path fill="#1B1723" d="M429 236c-9 3-7 9-17 10-11 8-20 19-32 26 9 1 18-5 31-1 10 3 19 9 24 16-14-9-13-21-19-34 2-6 19-12 15-16"/><path fill="#DD6B67" d="M212 176c-18 15-33 37-51 55-3 14 0 33-9 47 7-11 9-24 17-34-6-3 9-8-1-4 13-17 21-42 43-63"/><path fill="#8A1511" d="M344 141c18 5 36 14 52 24 26 22 37 31 55 58 3 1 5 1 7 2 6 4 11 7 16 8 12 6 18 24 27 26-2-9-10-15-18-20-2-4-5-4-7-6-7-2-12-4-17-6-19-23-28-45-60-64-16-10-34-16-53-22"/><path fill="#2F2B2F" d="M392 328c-4 9-6 21 0 31 5 4 8 8 14 9 6-1 8-1 13-2 6-4 8-12 9-11-7 2-15 6-21 3-9-10-9-22-13-30"/><path fill="#FAD8CD" d="M307 143c23 4-11 10-4 13-13-9-14 2-23-3-6 8 5-2 6 7-9 1-21 1-27 0 13-10 9-5 22-13 9-2 17-3 25-4"/><path fill="#2C313B" d="M433 240c-6 3-12 8-18 11 6 10 8 19 11 27 8 3 10 12 15 17 2-4 5-6 7-7 3-3 5-5 7-6-2 1-3 3-5 4-4-2-7-5-10-5-6-7-14-23-16-27 3-4 8-7 12-9-5-4 3-4-1-4"/><path fill="#8E2521" d="M163 277c-4 7-9 14-12 22 3 10-6 30-11 40 7 0 14-1 14-6 4-21 8-50 9-53"/><path fill="#F56E4B" d="M410 180c1 9 11 16 17 22-3 2-6-1-9-2 4 1-1 4 4 4-3 3-5 6-7 7 2 5 5 6 9 8-10-5-16-10-26-13 2 4-7 3-2 8 1-3 5-4 8-3 6 2 7 7 11 9 0 5-4 7-5 9 9-4 18-3 22-10-7-7 3-14-3-15h2-1l-1-1c-3-9-11-15-17-20"/><path fill="#F4CC9F" d="M383 146c28 14 30 13 49 23 7 7 11 20 16 17 5 10 7 17 13 27-6 3-11-7-12-4 2 8 1-7 12 12-2-1 1-7 3-3-4-8-9-16-10-18 6 9 24 13 12 18 7 0 9 7 13 7-3-6-6-10-6-16 6 5 8 8 12 11-12-22-39-31-53-53-15-10-32-15-45-19"/><path fill="#342A30" d="M338 280c12 27-10 52 4 80 6 11 15 22 26 27 11 10 27 7 39 8 3-3 5-4 6-7-29-2 6 10-28 5-20-11-21-10-39-30 0-3-7-18-6-24 0-18 2-29 3-45 0-5-3-8-2-13"/><path fill="#856D66" d="M392 323c-4 5-6 11-8 16-4 1-6 1-9 1 3 1 5 2 9 1-3 7-4 14-5 20 3 5 4 9 8 10 9 4 19 1 26 4 2-4 4-6 6-7-5 6-8 0-17 1-6-4-10-8-12-13-5-12-4-21 1-31"/><path fill="#EFBDB0" d="M231 159c-20 10-43 26-60 45-8 11-26 36-26 52 8-12 12-31 28-47 22-23 34-35 61-50"/><path fill="#302F30" d="M515 304c-6 6-8 9-10 19-3 10-2 20 3 26 8 1 12-2 13-7-4 0-8 1-11-2-2-17 16-32 8-37"/><path fill="#434A4D" d="M459 279c-4 6-10 11-13 16 3 14 16 12 16 20 2-1 5-7 0-12 7 7 12 14 11 24-6-6 0 9-6 12 3-5 7-6 9-10 1-11-2-17 1-25-1 1 0 4-1 6-3-8-11-1-12-11-1-3 0-6 2-7l2 1v2l1-1-2-2c-6 4-11-1-15 0 3-8 2-6 5-11"/><path fill="#2F2D36" d="M450 428c-8 2-8 8-7 15 0 8 2 14 9 16 7 0 0-9 8-11-13-6 4-14-11-19"/><path fill="#33181D" d="M246 304c5-3 10 1 12 5 2 9 0 16-6 18-6 1-10-1-11-5-1-7 0-12 4-16"/><path fill="#4B2326" d="M244 400c1 8-17 7-12 12-5-5-9 1-3 1 9 1 25 7 19 11 2-10 13-15 13-22-4-1-10 0-16-1"/><path fill="#FADED2" d="M310 144c-23 0-39 9-48 13 5 4 17 2 23 3 8-1 0-2 2-1 4-8-16 4-9-6 16-4 18 5 34-5 4 4-9 4-12 8 32-8 34 4 10-12"/><path fill="#776B68" d="M386 275c-12 5-22 16-27 27-5 14-7 27-4 39 2 12 7 20 14 27 12 10 23 15 38 14 4 0 5-1 7-2 9-5 17-10 22-18-5 8-14 12-21 16-8 4-14 4-19 2-12-4-20-9-27-17-6-5-9-10-11-16-4-19 2-34 6-48 4-12 13-20 22-24"/><path fill="#362E37" d="M161 391c-2 0-2 2-3 2 3 3-4 8 3 8-3 2-7 5-10 6-1 5 1 7 1 10 6-3 13-6 20-7-2-8 0-19-10-18"/><path fill="#20191D" d="M528 316c-2 9-12-4-16 9-1 5-2 8-1 13 4 3 7 3 9 2 2 3 1 4 0 5 6-8 10-19 8-28"/><path fill="#949F93" d="M495 260c-6 27 1 57 2 84 7-22-4-12 7-65-3 9-4 15-7 19-5-14-2-26 4-35-3-1-3-3-5-3"/><path fill="#6F7771" d="M492 261c-7 16 3 41-1 62 1 15 4 29 7 39 0-7 8-8 11-11-5-4-7-9-6-15-2 3 0 7-2 9-6-27-12-57-7-84"/><path fill="#221118" d="M307 423c2 6-8 4-3 13 2 6 7 13 13 13 4-6 4-12 2-16-2-12-8-6-13-7"/><path fill="#FAD7AD" d="M359 197c9 1 18 7 26 11 4 9-5 5-7 4 0 3 10 2 8 6-27-1-49-25-6-8-7-5-13-7-19-11"/><path fill="#333039" d="M438 406c0 3-3 0-4 2 0 4-7 15-9 19 1 3 2 11 9 14 6-13 7-21 8-36"/><path fill="#424D56" d="M439 244c-12 2-7 1-15 8 9 14 12 27 23 32 7-2 10-6 14-9-5 1-9 5-14 3-4-3-18-11-13-19-3-13 8-5 8-12v-2 2c-4-1-1-4-5-4"/><path fill="#FCE9CE" d="M395 221c-6 15-20 20-9 22 2 3 9-4 15-6 6-7 6-17-7-15"/><path fill="#580C0C" d="M425 192c7 8 12 17 17 27 23 11 40 27 52 43-4-12-10-21-20-26-8-4-14-9-21-12-9-11-17-22-27-30"/><path fill="#494B52" d="M157 251c-12 11-18 38-22 46 10-13 20-27 23-43"/><path fill="#DAB9BF" d="M151 233c-6 14-11 21-15 30-5 22-18 40-18 58 19-45 26-68 32-81"/><path fill="#20151B" d="M188 378c10 13-4 5 2 10-19 2-12-7-28 3 3 0 6 0 8 2 3 6 0 11 3 14 2-1-4-10-1-15 4-1 7-1 10 0-1 6-9 9-7 12 6-3 17-11 18-10 17 4 10-8-3-13"/><path fill="#5C211F" d="M478 330c-8 9-14 21-21 31 2 8 10 9 14 12 5-1 8-2 10-4-6-3-13-9-17-15 5-8 9-14 11-21 5-1 6 0 7 2 1-2-1-2-2-4"/><path fill="#201920" d="M249 305c-4 1-7 5-7 9-1 6 1 11 4 12 6 0 10-3 11-6 1-8-1-14-7-16"/><path fill="#2C070A" d="M174 258c-2 12-11 19-10 33-2 18-13 46-6 56 0-29 9-57 15-87"/><path fill="#E6938B" d="M214 173c-14 4-24 24-39 35-13 13-18 26-24 38 12-22 42-53 62-72"/><path fill="#1C1119" d="M437 228c7 18 21 25 30 42 7 14-3-7 18 11-19-11-25-30-39-44 9-3 19 3 28 5 4 4 16 14 13 19 2-6-6-13-11-18l-2-2-4-5c-15-7 13 11-36-9"/><path fill="#FBF7E5" d="M345 200c-6 9 11 25 1 20 11 13 17 2 20 1 4-10-8 0-11-7 2-8-12-11-7-14"/><path fill="#861914" d="M236 159c-13 7-26 20-36 33-13 16-19 32-25 49 14-24 15-28 30-52 9-12 22-23 30-29"/><path fill="#606F70" d="M459 282c-4 2-5 5-6 8 3 0 8 3 13 3-5 15 12 8 6 20 6-6 4-16-1-24 0-10-12 6-12-9"/><path fill="#090309" d="M444 217c-19 19-11 23 10 35-9-6-13-16-18-23 15 0 31 7 41 16-11-10-23-16-35-25"/><path fill="#342E34" d="M493 396c0 3-5 6-10 7 0 9-8 12 1 19 6-3 9-6 16-9 1-3-5-4-8-3-2-7 1-12 4-13"/><path fill="#454B56" d="M268 405c-5-3-5 11-12 18 11 1 7-1 14-8-1 3 10 1 8 13-2-4 1-10-4-12-1-16 16-6 12-6-5-6-10-5-15-6"/><path fill="#6B3E3D" d="M216 410c-6 14 25 9 32 16-1-9 0-2-9-10-6 1-14-4-19-5"/><path fill="#FA9F77" d="M342 205c-2 2-4 5-7 7 6 7 11 17 13 21 9 9 9 11 23 16-13-11-27-30-31-39-2 0 0-2 0-4"/><path fill="#56484A" d="M378 279c-9 6-16 15-20 23l-1 3v1l-1 2c-5 11-7 26-3 40 4 12 13 22 22 29 12 5 23 10 34 6 4-2 7-2 9-4 8-3 13-10 18-15-4 5-11 10-16 13-8 6-15 7-23 6-11-2-19-6-27-12-7-8-13-15-15-23-4-16-3-31 3-43 4-11 10-19 17-25"/><path fill="#382C32" d="M183 414c-1 2 3 1 9 7-2 3-4 7-8 6 1 5 4 8 6 10 13-6 5-9 8-17-4-7-6-5-11-7"/><path fill="#0E060D" d="M422 241c-17 9-33 20-49 32-9 11-22 16-26 26 24-14 33-31 73-58"/><path fill="#C36E6F" d="M136 283c-3 10-8 20-14 30 6 3-6 15 4 18 1-13 9-29 9-47"/><path fill="#322E36" d="M172 430c4 0 4 5 5 11-5 5-10 3-12 10 4 4 8 6 12 7 0-3 6-10 5-17-3-4-4-11-8-11"/><path fill="#48474B" d="M455 431c0 10 6 15 2 28 9-4 15-9 15-16 2-1-4 4-7 2-8-3 2-13-10-12"/><path fill="#20161D" d="M505 413c0 9-11 8-14 17-5 0-4-10-4-6 3 6 7 13 11 17-1-21 14-19 10-28"/><path fill="#342C31" d="M505 421c-3 7-7 13-4 21 3 4 5 6 7 7 1-7-2-18 2-21 0-6 1-2-3-4"/><path fill="#3E1A1F" d="M281 368c8 4 9 10 16 3 5 9 0 12-5 15-4-2-8-10-11-15"/><path fill="#4B2123" d="M336 414c-1 3-8 7-8 9 6 4 10 7 14 4 0-4 7-15-4-12"/><path fill="#560D0F" d="M194 209c-13 24-25 39-28 67 10-14 12-37 27-66"/><path fill="#637175" d="M440 245c3 2 1 3 4 5-3 2-5 2-7 0-1 3 3 7-4 9-4 3 9 15 13 17l1 1h1l2 1h2c3-3 4-3 9-5-5-6-1 2-10 5-3-5-6-6-8-8-6-3-2-8-3-9 5-1 8-2 10 0-15-12 9 1-10-16"/><path fill="#FAF1D6" d="M434 177c9 11 10 27 24 38-3-15-10-26-23-36"/><path fill="#5E3C41" d="M152 346c15 7 10 18 28 32-2-9-11-22-11-25-5-8-7 1-14-7"/><path fill="#34252C" d="M209 403c17-4-4 12-4 15-5-1-6-3-8-4 2-6 7-8 10-10"/><path fill="#3A373C" d="M301 206c-9 11 7 8 6 18-27-7-27-7 0 4 2-2 4-3 6-2 7-3 13-6 18-10-10 10-20-3-21 2-7-2-2-9-9-10"/><path fill="#832F29" d="M474 340c-2 4-6 8-8 13 3 8 10 11 13 16-2-6-7-19-6-27"/><path fill="#484D51" d="M489 269c-2 21 4 49-2 67 5-18 3 26 5 28 1-21-3-63-3-93"/><path fill="#85100D" d="M430 234c-14 6-27 13-39 22-16 11-30 20-42 34 25-22 51-41 79-55"/><path fill="#F8A672" d="M411 158c18 16 25 30 46 61-15-17-18-32-26-44 3 0 6 4 10 7-4-5-7-7-7-9-6-6-12-9-18-12"/><path fill="#3D2B2F" d="M446 378c-14 12 12 14 22 3-8 1-15 1-22-3"/><path fill="#3A2B31" d="M362 293c-7 11-13 24-14 37 0 13 2 22 7 31 13 13 26 21 41 24 12 3 20-3 27-9 6-3 7-5 11-9-3 3-6 6-9 8-10 6-17 12-28 10-16-2-29-11-38-24-9-11-10-22-10-34 3-13 6-23 12-31"/><path fill="#552327" d="M325 415c-4 0-6 4-9 5-6 0-7 0-9-4 1 7-15 5-16 11 11-1 16-5 26-6 4 0-2 2 0 5 1-4 21-10 10-12"/><path fill="#251C22" d="M473 381c-17 14 6 16 8 8-1-3 1-5-8-6"/><path fill="#342E38" d="M149 409c-7 6-8 14-9 22 2 4 3 6 4 9 8-11 0-11 2-31"/><path fill="#1E181E" d="M174 425c6 3 1 7 9 15 1 7-4 17-6 16 13-2 6-16 12-19-6 0-2-9-14-11"/><path fill="#A64339" d="M477 333c-3 4-2 9-4 13 4 8 4 15 8 21 1-11-4-23-4-34"/><path fill="#795F5B" d="M403 195c-11 5-4 6 3 11 5 1 7 2 8-3-1-4-5-7-9-7"/><path fill="#2F282F" d="M480 387c0 1 6 3 3 6-6-2-6 5-14 3 4 2 4 6 7 8 15-8 12-15 7-16"/><path fill="#FA9D73" d="M474 211c1 6 0 5 7 13-5 1-14-8-12-4 14 9 23 14 33 26-33-25 5-9-29-35"/><path fill="#332F3C" d="M446 234c7 14 19 21 24 36-1-13-11-23-19-31 10-2 21 4 30 13-5-9-21-15-32-17"/><path fill="#D44431" d="M297 238c2 3-3 6-9 8 3 3 6 4 7 8 3 0 5-1 7-2 2-7-2-9-4-12"/><path fill="#404653" d="M172 432c-7 4-7 11-7 17 2-6 7-4 11-7 2-5-4-10-2-11"/><path fill="#504748" d="M511 424c-5 4 1-2 1 3-5 4-2 17-1 23 6 0 10-7 8-12 0-1 2 3 0 5-2-6-4-7-8-8-4-4 2-4 0-6 3-1 4 0 5 1 0-2-3-2-4-4"/><path fill="#2A2F3A" d="M288 388c-8 11-13 8-16 13 4-2 8 1 12 2 18-18 11-10 3-13"/><path fill="#292B37" d="M435 391c-2 1-4 0-4 3-2 5-2 8-1 12 3-1 7-2 11-1-1 0-3-1-4 0-1-5 2-13 0-14"/><path fill="#FA6A53" d="M347 232c1 11 30 22 19 27 8-4 14-7 19-12-4 4-8 3-12 3-16-6-17-6-25-16"/><path fill="#431A1E" d="M282 370c1 5 5 9 7 13 4 1 6-1 8-4-2-11-7 3-13-9"/><path fill="#9F9992" d="M517 350c-3 2-10 2-13 6-5 2-6 5-4 7 7-2 13-7 17-11"/><path fill="#E9F3F3" d="M415 320c-4 0-4 5-3 8 4 5 7 0 8 2 5-2 3-6 1-7-2-4-4-1-5-4"/><path fill="#42454F" d="M186 415c-18 4 1 9-10 10 2-1 4 2 7 3 2-5 7 0 8-6-1-3-4-4-7-5"/><path fill="#402428" d="M224 395c2 13-13 18 8 15-5-3 14-5 11-11-7-5-3 12-16 7-1-4 4-3-3-10"/><path fill="#42454E" d="M253 436c-3 2-9-1-10 4 7-3-8 14 4 17-8-7 9-14 5-18"/><path fill="#36272E" d="M211 404c-5 1-10 4-13 7 3 6 5 2 8 1 0 3-3 4-3 5l-1 1 3-1c0-2 14-14 9-14"/><path fill="#F1F6F5" d="M471 273c3 9 8 19 11 28-1-6 0-12-2-19-3-5-5-7-7-9"/><path fill="#383E4B" d="M209 250c-1 1-3 0-4 1-5 5-7 11-10 11 9 2 12-6 15-10"/><path fill="#FCF6CB" d="M437 173c9 10 21 19 31 26-8-9-15-17-29-25"/><path fill="#231317" d="M464 349c-5 6-8 10-13 16 7 11 18 8 12 11 6 0 6-2 7-3-4-1-9-4-14-6 0-7 4-11 6-16"/><path fill="#C11B0F" d="M321 137c11 2 21 3 33 6 17 6 32 10 45 19-13-10-27-16-42-19-4-2-7-1-9-2-10-3-17-3-25-4"/><path fill="#9F9F96" d="M514 262c5 7-2 2-4 3-2 7 7 8 0 16 3-3 6-4 9-6-1-6-3-9-3-11"/><path fill="#FBDAC1" d="m317 148 1-1c-1 6 10 3 13 7-8-3-41 3-15-6"/><path fill="#879898" d="M445 247c-1 4 2 5 5 7-2 3-4-2-6 2 2 2 5 2 7 4-3 1-6 0-10 1l1 1-1 1v3l1 2c3 4 6 4 9 9 3-2 7-2 5-5-7-2-12 0-16-8 8-3 18-5 20 3-10-13-3-7-15-18"/><path fill="#4A4A4F" d="M493 399c1 4-3 5 0 8 3 1 5 2 7 5-2 3-4 5-6 5 4-2 14-8 19-2-1-11-14-3-19-14"/><path fill="#B72514" d="M287 278c2 8 6 28 5 25 0 6-1 6-2 10 10-6 2 8 8 1-2-7-9-29-10-34"/><path fill="#C31A0E" d="M457 224c6 6 18 6 25 12 11 7 18 17 23 25-2-10-8-16-16-21-10-7-19-11-29-15"/><path fill="#363036" d="M270 415c0 4-8 6-4 7 5 2 12 5 15 13 4-2 6-4 7-9-2 5-4 1-9 2-1-17-6 3-10-11"/><path fill="#EFF2F0" d="M473 255c-2 1-2 13 10 18-2-3-4-14-9-18"/><path fill="#030104" d="M503 415c-5 1-9 4-13 6-4 3-3 6 0 7 1-6 12-6 13-12"/><path fill="#F66E53" d="M338 208c-1 2-2 3-3 5-3 3-4 4-5 6 14 5 3 12 16 8-5-3-6-10-11-13l-1-2 1-1h2"/><path fill="#B84637" d="M267 263c8-4 10 10 2 10-3 0-5-3-4-4l1-2v-1"/><path fill="#3B404E" d="M157 393c-11 4-6 14-13 19 3-6 10-5 15-10-8-1 4-9-4-7"/><path fill="#070508" d="M258 424c2 6 16 4 20 11-2-9-10-10-17-11"/><path fill="#BB4B41" d="M250 259c5-3 9 7 4 9-3 2-6 2-6-1s1-4 1-6"/><path fill="#39191E" d="M314 400c3-1 9-1 11 1-4 2-30 7-12-1"/><path fill="#542A29" d="M447 387c-19 5 2 11 9 3-3-3-4 0-9-2"/><path fill="#373237" d="M152 273c-4 3-7 22-16 28 11-4 12-17 16-26"/><path fill="#562122" d="M173 301c7-2 7 11 1 12-4-3-2-7-3-9"/><path fill="#0D070F" d="M314 373c5-1 11 4 12 9-3 2-3 4-5 4-1-5-2-10-6-11"/><path fill="#67727D" d="M155 245c-11 17-17 40-19 44 4-12 14-35 23-44"/><path fill="#FAEEDE" d="M401 211c-6 5 2 12 6 8 3-5-1-8-4-8"/><path fill="#5F171A" d="M159 311c-2 8-2 17-5 25-6 3-9 6-15 5 5 4 11 4 14 4 2-12 4-22 6-32"/><path fill="#F97553" d="M293 140c-52 8 46-6 55 8-7-6-19-7-30-8-10-1-16 1-24 0"/><path fill="#CE9F8A" d="M457 195c4-2 12 6 10 10-6-1-8-5-10-7"/><path fill="#E22712" d="M314 255c5 1 3 11 5 15-6-1-7-7-6-13"/><path fill="#1C1921" d="M257 424c-8 2-1 0-1 5-10 6-10 8-2 1 11 1 16 4 23 7-1 0-1-1-1-2-5-7-16-4-19-10"/><path fill="#EDF3F0" d="M447 263c-6 3 9 6 10 7 2-7-4-8-7-7"/><path fill="#572226" d="M477 413c-5 7 3 15 8 16 0-4-4-9-6-13"/><path fill="#424B54" d="M441 411c-5 5 4 12 1 14 2-1 4-2 8-1-3-1-3-11-8-11"/><path fill="#271116" d="M309 396c-11 6-5 28-17 24 7 1 11 0 15-1-3-5-3-9-5-12 1-5 3-7 6-9"/><path fill="#FBF3D4" d="M360 196c6 6 14 7 20 13-36-12-17-2 6 5-5-9-15-12-22-16"/><path fill="#6B7277" d="M461 244c3 2 5 6 4 9 3-7 8 1 11 2 11 8 6 24 8 22 3-3 2-5 1-10-3-3-4-7-6-10-5-4-8-6-11-7 4-2 7 1 10 2-5-4-9-8-14-7"/><path fill="#1E181E" d="M493 396c-7 3-9 4-16 8 2 0 3-3 4-3-4 9-7 7-5 13 6-6 11-16 19-18"/><path fill="#F8794B" d="M402 158c6 4 7 7 16 12-2-8-6-9-14-13"/><path fill="#444552" d="M451 237c4 8 8 7 13 12 1-1-2-2-1-3 1-2 3-3 5-2 6 4 10 7 15 9-9-12-1 3-14-10-17-11-6 11-17-6"/><path fill="#1F1C22" d="M288 407c6 6-4 14-6 21 7 5 6-9 9-11 0-3 1-6-2-7"/><path fill="#D5E3D5" d="M525 284c-18 6-4 6 1 13-1-5-2-2-2-12"/><path fill="#E5EDEC" d="M520 307c-2 6 0 11 5 11 1-4 1-8-3-10"/><path fill="#581615" d="M316 305c-1 7-7 4-10 7-4 2-4-1-5-2 2 3 2 6 3 10 9-8-1-5 17-14"/><path fill="#0B060B" d="M429 382c-4 1-10 2-11 8 5-10 23 0 13-10"/><path fill="#A65A61" d="M209 197c7-4 6 10-1 8-2-3-1-4 0-5"/><path fill="#717472" d="M449 370c-9 5 9 13 11 8-1-4-7 0-12-7"/><path fill="#BF1D13" d="M401 163c16 12 31 23 41 41-7-13-22-30-38-40"/><path fill="#838783" d="M323 194c10 1-4 11-6 5 8-9 3 1 7-3"/><path fill="#711E1F" d="M314 299c11-1 0 7-1 9-5-3-1-6 1-6"/><path fill="#832E2A" d="M371 393c10 6 17 6 32 6-10-4-22-1-30-6"/><path fill="#A82F30" d="M329 291c-6 0-7 7-8 11 8-4 6-5 9-12"/><path fill="#4C4A4C" d="M452 367c-11 8 18 9 9 14 4 0 9-1 10-3-6-1-26-6-18-10"/><path fill="#272028" d="M245 372c6 1 4 0 13 1-6 2-10 6-15 1"/><path fill="#4D2223" d="M490 432c3 7 9 19 21 19-8-4-15-11-20-17"/><path fill="#1F1316" d="M478 317c-1 5 1 11-3 14 2 0 4-3 4-1 5 4 6 7 8 10 0-8-10-13-9-21"/><path fill="#FCE5B3" d="M361 191c12 0-6 6-10 4 3-1 5-4 9-3"/><path fill="#2D1115" d="M335 429c-5 0-8 4-12 6 1 3 30-9 12-4"/><path fill="#8A8B85" d="M327 197c5-1-3 6 5 4-7 4-4-1-7 4 0-3-2-6 0-7"/><path fill="#F0F4F3" d="M466 273c-1 2-2 3-3 5 6 2 9 6 13 17-2-8-5-14-8-21"/><path fill="#8A8E97" d="M154 245c-8 10-15 26-17 39 5-14 10-32 20-41"/><path fill="#5B0B0C" d="M403 251c-20 10-37 28-55 41 18-15 35-29 53-40"/><path fill="#F5EEEA" d="M452 216c18 14 43 17 56 41-4-7-10-13-16-18-12-12-27-12-38-21"/><path fill="#352127" d="M222 395c4-2 6 6 7 8-4 0-8-2-6-6"/><path fill="#383336" d="M502 369c-1 4-5 5-4 11-12 7-13-12-17-3 5 3 9 6 11 5h4l2-2c2-3 4-6 4-9"/><path fill="#2C2530" d="M173 393c0 2 2 4 1 7 6-3 11-10 1-7"/><path fill="#1E1B24" d="M448 428c-6 1-10 6-9 13-3-2-3-3-2-4 0 1-2 5 0 6 5 0 3 5 5 8-2-6 0-11 0-17 3-3 3-6 6-6"/><path fill="#F9A473" d="M352 204c8 9 15 2 23 9-7-3-13-7-21-9"/><path fill="#08040B" d="M315 374c2 1 7 6 5 12 2-1 5-2 5-4-3-5-5-7-8-8"/><path fill="#FA644F" d="M485 227c0 5 10 9 13 14-2-5-5-10-11-12"/><path fill="#434C51" d="M478 299c1 10 2 17 2 22 4 0 4 2 6 5-1-4-5-5-7-26"/><path fill="#6A787A" d="M278 407c-1 3-1 6-3 8 6 3 2 8 5 11 3-10-5-4-1-18"/></svg>