<svg xmlns="http://www.w3.org/2000/svg" width="600" height="600"><path fill="#887260" d="M334 100c14-2 27 2 39 7 12 4 21 10 30 17 7 7 12 14 17 20 19 2 4 31 13 40-5 11-10 17-15 24-3 9-2 16 3 20-4 2-5 4-8 3-1 28-25 38-26 67-5 0-5-5-7-7-8 2-4 8-7 11 9 7 17 11 26 12 8 1 12-7 20-5 5 0 7 1 10 3 10-3 11-20 25-17 7 9 16 15 22 22 7 15 8 26 7 41-2 6-6 9-10 12-7 4-12 6-18 6-5 13-10 23-20 33-12 11-24 21-37 30 20 8 47 7 70 4 18 3 20 20 31 30-11 15-24-2-32 9-10-1-14-11-22-10-3 3-4 7-8 8-27-9-60-3-88-7 0 5 3 11 6 17 0 3-1 5-3 6-18 3-30-1-45 2-6-3-8-6-12-7-6 7-16 5-24 6-9-8-21-8-27-18 3-9-3-11-6-16 5-10 8-17 10-24-14-3-25-8-35-16 3 11 10 18 17 26-6 10-13 16-21 20-39-2-72 8-106 5-3-12 7-19 12-29 21-3 34-9 50-3-16-12-26-37-38-46-3-10-2-21-6-30-3-1-8 1-9-2 6-21 10-42 25-56 13-1 22 5 32 8-4-7-8-12-16-14-9-9-23-2-30-5 23-22 48-30 58-54 10-9 14-19 19-29-2-4-7-4-10-8 19-12 38-23 58-29-1-2-6-4-4-8 20-3 37-5 53-12 1-11 2-21 10-25 12-12 23-8 35-16 0-9-7-11-13-14l3-1h1"/><path fill="#5F5450" d="M180 343c1 8-7 9-12 7-1 10-2 16-4 23-4 3-5-2-8-3-2 6 0 13-3 18-6 4-7-4-11-4-1 5-2 9-5 13 8 16 16 28 28 38 6 8 13 8 19 9-10 2-26 0-32-4 1 5-4 1 1 5h-10c-7-5-16 3-24 1 4 2 7 5 9 9 5-4 8-12 14-10 9 6 6 15 11 20 17 1 33 4 49 4 17-4 18-18 22-17-16-27-29-55-45-83 21 15 27 39 46 54 8 3 14 7 21 3 4-6 3-14 3-21-2-7-7-13-11-16-6-3-9-3-14-2 4-6-3-10 0-14-12 2-18-13-29-4-5-7-5-15-13-12 0-9 1-1 4-4-1-9-1 1-4-10"/><path fill="#381D18" d="M299 156c-9 7-14 15-20 22 5 0 11 1 15 3 8 2 14 8 18 13-4 8-9 13-12 18 4 2 7 1 10 0-3 13-6 25-9 36 6-1 11-3 16-3 3 17 6 31 10 44 3 14 12 21 22 30 4-9 10-16 17-24 5-3 8-4 11-6 5 1 6 4 7 6 1-10 6-19 11-27-6 0-12 1-18 2-12-4-21-9-30-15-5-5-10-8-11-13-2-8-4-25-1-34-3 5-3 12-6 17-9 5-16 11-23 16 10-18 13-38 30-50-2-2-5 1-8-1 5-7 8-12 11-17-9 5-17 12-23 21-9-13-15-24-16-38"/><path fill="#F6F6D2" d="M256 207c-14 4-26 14-38 23 18-2 36-6 51-15-9 12-21 16-32 24-3 7-5 12-5 17 6-2 14-5 20-11-3 7-7 11-9 15 0 7-2 13 1 17 22-35 11 12 37-32-5 23-24 26-34 37-2 6 7 9 9 5 0 7-7 11-2 15 5 2 11-7 13-12 1 7-5 10 2 11 6-24 14-47 26-68-4-9-7-14-11-20-9-5-18-5-26-6"/><path fill="#686363" d="M358 356c-2 1-4 6-7 3-9 4-12 9-18 12-3 6-7 22-13 32 3 7 11 8 17 9 1 3 0 4-1 6 2-2 5-3 7-4 25-11 36-41 62-49 2 2-5 6-6 11 3-3 10-8 13-4-1-24-38-5-50-18"/><path fill="#3D201C" d="M227 198c-11 5-22 8-33 9 3 3 6 2 8 4 0 5-1 8-2 10 3 1 5-2 6-2-7 9-4 18-10 25-7 10-15 13-24 16 5 2-2 7-1 9 8-3 13-11 20-16-3 8-7 14-10 21 2 13 9 22 11 32-7 2-13-2-18-3-1 2 1 3 1 4-8-6-13-13-21-14-12-2-19 2-27 3 11-3 26 1 33 8 15 11 19 26 27 40 10-22 10-52 23-81 0-4-3 2-4-2 3-7 6-13 10-19-2-2-6 0-9-2 12-11 1-18 24-44"/><path fill="#F3F4D2" d="M313 306c-13 4-25 8-37 13-5 5-12 11-10 17 8 1 17-1 23-9-3 11-7 19-7 28 8-2 14-7 18-14-9 13 1 28 0 40 15-8 22-22 25-35 0 6 0 13-3 19 3 0 7 2 5 8 1-2 3-4 2-7 4-15 2-30-2-41-1-10-6-16-13-19"/><path fill="#574039" d="M170 326c2 6 5 12 6 16-7 4-13 1-16-2 5 8 6 18 3 28-4 2-8-4-12-5 2 5 4 12 1 18-8-1-10-2-16-7 3 1 0 6 2 9-25 10 8 18 8 37-2-9-6-14-9-20 2-7 3-11 4-15 4-1 6 1 8 5 6-6 4-13 5-19 4-2 5 3 8 4 3-9 4-15 3-24 9 1 14-2 16-9 6 5 2 9 0 12l2 2h2c6-2 6 6 9 9 12-6 18 9 28 8 0 3 6 8 2 12 6 1 8 0 11 1 7 5 10 10 13 15 3 8 3 16 1 22-6 7-14 6-19 2-24-15-30-41-52-57 11 15 16 31 28 45-2-1-3-2-3-4 4 6 9 12 16 14 10 7 27 14 33 11 1-2 4-22 6-34 4 14 14 16 9 30 16-9 31-15 35-22-5 4-16 13-26 17 0-7 0-14-2-20 2-4 3-7 7-8-10 2-21 0-30-1 3-10 8-17 11-25-16 9-23 3-30 11-3-7 4-14 5-21-13-4-7 5-24-2-5-6-1-11 1-15-7 9-19 9-29 11-3-5 3-7 0-11-4-8-5-15-12-16"/><path fill="#6A6363" d="M432 366c-8 12-3 26-14 37-8 11-16 18-26 22 9-6 13-14 18-22 4-5 2-11 1-14 1 4 0 7 0 11-7 9-13 17-19 23-8-3-6 17-20 14-6 3-6-2-8-4-1-12 3-20 9-27 5 3 4 7 6 9 10-2 14-9 18-16-4 2-5 2-9 4-1-9 4-22 2-26-11 11-16 22-26 29-8 14-15 25-18 38 5 2 9 2 14 2-2 2-4 4 1 5-3-2 3-2 3-4 13-2 21 5 32 5 12 1 24-2 36-3-21 1-38-11-57-5 5-3 8-6 11-9-3 5 2 3 7 4 14-10 27-19 36-32 5-7 10-12 11-18 3-11-3-16-7-21"/><path fill="#BCCBB2" d="M284 334c-4 5-8 9-14 10-29-4-20 5-9 21 3 4 5-2 6-2-2 8-6 14-9 20-1 5 1 7 2 9 8 5 19 4 25 2-4 4-7 8-8 13 11 0 22 1 29-5-1 4-4 9-6 11 6-4 12-10 15-16 3 0 4 3 3 6 5-11 9-19 11-28 0-5 0-5 1-2-7 1-1-4-5-6-9 5-17 23-31 29-2-10-1-21-1-31-7 3-14 4-20 6 5-18 9-36 11-36"/><path fill="#696465" d="M281 180c-2 3-3 6-2 11 3 10 6 19 10 27 10 6 2-9 1-16 3-5 3 1 4 2 2 12 3 21 2 32 1 13-18 26-16 42 10 9 19 13 29 15-4-5 8-20-4-22 4-9 6-13 7-19-5 1-9 2-13 4 0-14 9-32-1-42 3-6 7-10 10-14-2-7-7-11-9-15-6-4-10-5-16-4"/><path fill="#9FAC9B" d="M215 296c-7 7-13 14-17 22 7 9-9 20-7 29 3 5 6 3 10 2 8-2 11-8 16-11 1 3-3 6-1 10 8 9 17 10 27 9-1 5-2 10 3 12 8 2 13 0 19-2 1-2 2-3 3-5-2 2-4 8-7 5-5-9-8-15-14-19 1-6 5-4 8-5-5 0-14 3-17-5-1-3 0-4 1-4 7-2 17-8 23-12-6 4-13 9-20 12-13-2-19-6-27-12-2-4 2-4 2-6-4-3-6-7-8-10-1-5 4-6 4-8"/><path fill="#603A32" d="M351 133c-5 2-11 2-14 7 3 8 5 15 6 22-4 11-7 20-14 27 4 2 6-2 9-1-17 15-22 36-33 52 8-5 14-11 22-13 4-7 5-13 7-18 0 9-1 19 2 28 1-7 10-15 15-19 8-7 13-9 21-13-5 2-10 3-15 5-8-7-14-13-16-19-3-13 9-23 18-30-1-8-8-11-10-16-1-5-1-8 0-10"/><path fill="#61514B" d="M316 399c-3 7-11 14-17 17-5 0 0-4-4-2 0-2 2-4 4-5-8 0-17 1-24 0 3 4 1 10 0 14 7-2 13-5 18-10-7 9-15 14-24 17 2-13-8-16-10-31-4 23-7 44-17 62 4 7 5 6 10 1-3 6-10 14-2 19-2-6 12-20 13-27 18-19 41-32 54-54"/><path fill="#F6F0C6" d="M448 296c-5 9-13 19-18 29 2 5 5 6 6 9 6-7 17-12 9-18 4 0 5 2 7 3 4-1 3-5 6-6 5 4 2 8 1 10-7 10-18 12-21 20 2 4 5 7 6 8 7-5 22-7 18-14 4 0 6 5 8 2 6 6-5 9-3 15 1 5 3 8 4 11 5-2 8-5 9-7-1-9 0-15 1-21-7-7-6-14-9-19-9-8-13-17-21-22"/><path fill="#673C32" d="M201 214c-6 18-17 34-31 47s-30 21-43 34c8-1 15-5 25-3 10 1 16 8 20 15 0-1 1-3 0-4 7 0 13 4 18 4-2-10-6-18-10-26 1-12 7-18 10-27-7 5-14 18-21 16 1-5 8-10 4-7 5-7 15-9 22-16 6-10 3-19 11-25-2 0-4 0-6 1 0-3 1-4 0-7"/><path fill="#C1CEB3" d="M224 267c-2 4-5 6-5 10 3 2 6-1 7 0-5 10-10 18-15 25-1 10 12 10 4 18 6 7 13 8 17 11 17 2 26-1 31 5 4-4-1-6 3-8 4-4 3-1 9-8-13 5-30-1-43-5 4 0 9 0 7-7-3-11-3-21-6-30-7-1-3-12-6-10"/><path d="M358 411c-15 9-32 14-50 15-5 9-11 16-15 24 11 10 28 4 41 8-3-1-4-2-7-4 13-15 24-28 31-42"/><path fill="#FBF0BC" d="M352 133c-6 11 4 17 9 24-2 10-14 14-8 24 1-5 6-8 12-7 11 6 25 20 34 16 11 1 18-2 25-6 5 6-1 9-2 13 4-5 6-9 8-12-5-11-4-21-8-30-10-7 3 10-1 17-8 8-15 16-24 13-9-6-17-12-23-19-3-9 4-13-1-19-6-7-15-6-21-11"/><path fill="#F58133" d="M348 102c8 11 18 16 29 24-10-2-20-11-31-3 11 1 20 8 29 14 17 0 21-1 35 4-3-14-16-20-25-26-13-7-24-10-35-13"/><path fill="#F2DDA9" d="M383 202c-8 4-23 9-15 21 3 7 9 13 15 14 5 3 8 3 11 2 7-4 11-7 13-10-5-4 0-14-10-18-6 6-13-10-21 1 6-14 16-3 22-6-6 2-8-5-12-4"/><path fill="#635552" d="M422 356c-13 3-28 3-43 2 10 2 21-2 30 2-16 16-12 12-28 21-15 17-10 11-16 24 9-7 13-18 22-27 5 4 7-1 6 8 3-9 8-17 15-24 6 7 1 26 6 37-7 8-8 16-15 19 7-3 12-5 19-13 11-13 4-28 14-40 7 8 13 16 8 26-5 12-12 21-22 29 7-6 14-12 19-20 12-17 2-31-12-45"/><path fill="#8A796C" d="M350 220c-6 6-16 13-11 23 10 12 23 19 35 24 11 1 18-2 25-5-15-9-38-10-52-25 4-2 12 8 21 8-4-2-8-3-11-8-4-6-7-10-7-15"/><path fill="#BECEB7" d="M274 181c-10 2-19 6-28 11-20 12 2 16-16 28 8-8 17-10 24-14 13 0 24 1 32 8-6-10-10-28-8-35"/><path fill="#81827B" d="M128 327c-5 7-6 16-4 24 7 4 14 5 20 6 1-2-2-3-1-4 8 2 12 9 18 13 1-4 4-10 1-15-2-7-4-11-7-15 4 0 13 11 15 5-6-1-26-15-18-7-8 1-17-1-25-5"/><path fill="#AA5133" d="M316 132c-4 2-11 6-12 12 1 17 4 31 11 43 4-4 9-9 11-14-2-16 0-30-7-41"/><path fill="#6E4136" d="M296 159c-16 7-33 10-50 12 6 3 13 3 20 4-28 4-51 19-73 30 12-1 24-3 34-9-1 5 0 8-2 12 4-7 12-12 18-16 12-8 23-12 35-14 7-6 7-13 16-17"/><path fill="#E7C895" d="M378 204c-4 2-7 3-10 6-20 4-17 21-6 30 13 9 37 12 41 13 6-8 7-15 6-23-5 2-10 9-16 11-12-1-21-8-25-17-3-5-4-9-1-12 3-4 6-5 9-6"/><path fill="#6B6463" d="M221 245c-6 4-11 8-13 14 2 0 5-2 5 2-9 16-15 41-11 51 3-11 14-19 20-29-5 1-8-6-3-10 2-5 5-9 9-9-3-5 2-17-5-19"/><path fill="#6A605E" d="M403 320c-4 6-8 7-15 11-4 1-8 0-8-3-4 8-18 0-26 10 6 7 16 11 25 14 7 0 5-4 11-5 6 0 8-3 11 0-1-5-3-10-13-12 2-3 4-5 5-6 4 3 4 5 5 7 4-5 3-11 5-16"/><path fill="#5E3D33" d="M452 329c-14 11-16 4-18 15-6 0-8-2-10-3-1 2-2 7-5 8-6 0-11 1-12-1 0 5 10-2 10 5-9 3-19 3-30 2-4 0-32-9-34-14-5 0-10-3-8-8-4 1-8-2-11 1-1 5 3 5-1 10 5-2 0-1 4-5 1 5 4 7 9 9 11 3 18 7 28 8 20 4 39-2 55 0 6 11 13 15 14 25-3 7 3 10-2 14 4-7 6-12 9-21 6 0 7 0 11-1 14-5 16-5 1 0-3 1-5 0-6 1l-3-3-1-1-1-1 1 1 2 2v2h-1l-2 1h-1l-3-1c-10-4-7-17-20-19 0-6 0-10 4-11 6-4 12-10 18-12"/><path fill="#F35B2D" d="M275 461c-11 3-11 15-5 23 5 7 14 6 21 5 2-8 3-18-1-23-4-7-9-5-14-5"/><path fill="#91351E" d="M139 446c-4 7-10 15-16 19 0-3 3-5 4-9-2-6-7-6-10-8-6 5-12 15-16 20 17 11 15-5 28 2 11-5 27-15 12-23"/><path fill="#716C67" d="M143 351c0 2 2 4 3 5-8 0-12 2-22-4 1 15 4 26 5 38 2-2 6-5 7-8 2-7-6-9-5-14 6 7 13 9 19 13 2-8 3-17-4-22 5 2 12 7 16 10-6-6-11-12-18-15"/><path fill="#665651" d="M339 313c-4 4 1 9-7 19 5-2 9 1 13 0-2 5 4 9 8 11-4-6 2-1 4 1 8 4 13 6 18 8h3l2 1h2c8 2 18 2 26 1-3-5-4-6-7-6-14-4-14 4-18 6l-4-2h-1v1l-3-1c-5-1-10-5-16-7-3-3-7-6-7-9 9-4 19-8 25-4-5-7-8-5-18-4-7-16-6-2-19-15"/><path fill="#6C544C" d="M352 430c-27 23-19 22 18 38-6 3-7 4-10 3 15 0 30 1 45 1-7-6-17-2-26-4-8-6-23-16-21-21h-11c-1-6 1-11 3-15"/><path fill="#929D91" d="M132 311c-5 39 26 12 31 28 3-8-1-15-6-21-8-2-14-2-20-4"/><path fill="#F87C30" d="M389 147c1 4-2 5-4 6 3 8 5 20 14 25 11-4 13-13 15-20-6-15-17 0-22-11"/><path fill="#5F4D48" d="M303 214c2 10 0 28-4 39 5 0 9-1 13-3 0 10-4 15-5 22 10 4-2 22 7 20 5-1 8-7 11-6-4-14-6-26-8-39-6 1-11 2-16 4 1-13 4-23 8-33 1-4-2-3-2-4"/><path fill="#F4F4CF" d="M369 297c-28 22-7 23 12 21 1 4 1 8 3 10 7 0 12-4 17-7-12-6-27-9-34-20"/><path fill="#3C1B14" d="M362 175c-11 3-7 16 0 18-1-2-1-5 1-6 0 1 15 4 13 5 2 9-11 7-12 5 10 6 18-2 28 1 6-1 7 4 9 6 5 3-1-2 0-5 8-3 9-1 12 2 6-4 8-7 11-10-6-1-15 4-23 6-15-1-23-13-33-20l-3-1-1 1v-1"/><path fill="#CEDBC2" d="M406 374c-9 2-9 8-10 10-1 5-5 9-4 13 3-1 7 1 13-3-10 9-12 19-16 28 6-7 14-13 20-20 0-11 2-23-1-29"/><path fill="#42241D" d="M340 101c-17 1 2 2 3 11s-13 7-16 13l-1 1 1 1v2c4 2 5 7 9 9 4-3 9-4 13-6 8 2 15 2 21 5-7-4-14-8-22-9-7-2-13-1-19 0 3-6 9-9 15-10 12-2 20 2 27 6-10-6-18-14-26-23l-3-1h-1v1"/><path fill="#665049" d="M238 234c-9 9-18 4-19 5 4 2-6 8-6 11 3-3 8-8 14-5 0 25 11 25 10 47 1 10 5 20 5 25 3-13-4-14-3-23 3-13 16-19 18-28-4 4-10 14-15 15-5-10-3-22 1-22-3-1-8 1-12 2-1-11 3-21 6-26"/><path fill="#6D4238" d="M377 154c-2 3-3 6-2 10 7 7 13 13 20 18 11 1 17-3 23-8 4-5 2-10-3-11-3 8-9 14-16 17-8-8-12-16-15-23-3-2-3-4-6-3"/><path fill="#B4C4AF" d="M313 409c-14 17-31 28-45 42 6-2 12-2 18 0 12-13 19-26 26-39"/><path fill="#EF5B2C" d="M313 464c-13 0-9 18-5 24 5 5 8 3 13 4-3-9-1-18-2-26-3-2-4-1-4-2"/><path fill="#A67A61" d="M465 339c4 10-14 7-18 13-5 0-8-2-9-4 2 4 5 8 11 6 8-3 14-7 20-11-6 7-12 11-19 14-1 6 1 12 5 13 7-3 14-1 19-2 3-3 6-7 8-9-2 2-5 6-8 8-4-3-8-5-9-7-3-7 2-11 5-14l2-2h-2c-2-1-2-3-3-2"/><path fill="#F8BC56" d="M395 135c0 9-30-7-10 17 4-1 3-5 5-6 8 10 19-4 22 12 0-8 1-13-1-17-5-2-10 6-12-4"/><path fill="#F46429" d="M414 312c-2 1-4 1-6 2-2 7-5 13-3 18 7 0 10 1 14 0 7-7 11-25-4-20"/><path fill="#B7C5B2" d="M374 409c-6 6-11 17-6 25 6 1 9-1 13-2 3-11 17-30-1-14-6 0-3-6-5-8"/><path d="M325 290c-5 5-12 4-13 12 6 1 10 6 13 9 3 6 5 11 6 16 4-6 5-11 5-17-5-8-8-13-10-19"/><path fill="#CBD8BF" d="M447 448c-14 3-20 6-43 7 17 4 31 5 48 6 15-8 0-11-8-5 0-3 12-7 6-9"/><path fill="#66382C" d="M267 455c-10 2-7 16-13 18-2 4 0 7 0 9-4 0-6-1-7-4-3-10 1-8 5-15-9 6-6 3-7 14 1 3 3 3 3 5 5 3 16 5 16 9 5 4 3 2 7 3 9 0 16 3 23-4 4-1 7 4 9 4-3-1-5-6-4-8 5 2 7 5 9 6 2 3 3 2 5 3-2 1-3 1-4 2l-2-1 1 1c12-1 17-5 26 0-10-4-12-4-25-4-4-3-4-6-5-8-2-4-1-8-2-11-1 3 0 6 1 9-3-1-7 0-9-2 1 2-1 5 1 7 0 4-5 1-5 3-8 5-17 4-23 0-2-1-8-7-10-11 7 4 10 4 16 11 5 1 8 0 12 1-8 1-14-2-17-9-3-9-10-19-4-27"/><path fill="#FCF2BD" d="M321 126c9 13 7 32 13 46 8-5 7-12 5-17-3-12-8-21-15-29"/><path fill="#62534E" d="M335 341c1 29-14 43 16 14 4 5 7-4 14 1-10-5-21-4-28-13"/><path fill="#DA6532" d="M311 141c7-2 9 9 12 12 1 8-2 12-4 17-8-9-6-9-12-16 6-1-4-5 3-11"/><path fill="#F05B2C" d="M332 465c-5 1-7 6-7 10 5 7 6 15 12 17 4 0 7-2 7-3-7-9-4-20-10-25"/><path fill="#9A3D26" d="M273 452c-4 1-8 4-10 7 0 8 2 12 3 17-3-4-1-9 3-12 4-6 10-4 14-5 12 6 11 17 10 26-5 7-18 7-22 2 3 4 9 4 15 3-4 2-8 2-12 2-7-7-11-7-15-12 2 5 5 8 7 11 8 3 15 3 20 1 3-2 6-2 7-3 1-10 1-18-2-24-2-5-3-8-4-11-5-3-9-2-13-2"/><path fill="#C5D1BC" d="M393 453c2 9-17 2-20 7 10 9 22 2 31 7 16-15-9-5-10-14"/><path fill="#F46230" d="M412 457c-7 9 10 14 15 16 7 0 12 0 13-4-8-1-15-7-22-11h-3"/><path fill="#61514B" d="M321 403c-24 22 5 22 17 12-10 1-18-13-20-9"/><path fill="#696464" d="M279 286c-2 4-5 14 4 14 8 0 15 1 19-3-6-5-14-7-20-11"/><path fill="#736D6E" d="M232 200c-8 9-15 18-19 28 14-7 2 5 23-16 4-3-9-6-1-11"/><path fill="#F27234" d="M312 141c-1 2-3 3-4 5 4 9 6 16 9 22 3-4 6-7 6-12-3-7-6-11-8-15"/><path fill="#92715F" d="M321 124c-7 2-15 8-18 15-5 10-1 18 2 21-1-4-4-11-2-17 5-7 10-11 16-13 7 14 10 34 7 49 5-4 7-4 7-6-6-15-7-37-13-50"/><path fill="#706B6D" d="M256 224c-14 5-37 7-46 13 8 4 31-7 28 0 5-6 14-8 20-13"/><path fill="#EACE98" d="M358 165c-4 2-7 7-11 8-2 13 3 26 13 34 3 0 3-2 4-3-9-5-10-26-12-23-3-8 0-12 6-16"/><path fill="#C0CCB2" d="M287 453c5 4 6 12 8 17 9 2 11-11 21-7-16-5-18-5-26-10"/><path fill="#694E45" d="M254 335c-29 4 1 9 12 9 7-2 12-4 16-7-6 4-20 1-29-2"/><path fill="#664E47" d="M280 276c-1 2 1 6-1 8 8 5 17 8 24 12-4 7-12 5-19 5-4 0-8-3-9-5-1 4-1 6 4 11 10-6 21 3 28-5 2-2 3-3 3-5-3 0-2 5-6 0 4-2-15-6-19-11-3-7-1-1-6-9"/><path fill="#6E6563" d="M275 299c-24 30 12 12 23 8-6-3-12 0-18 1-3-1-3-3-4-5"/><path fill="#DFE9CF" d="M367 448c-9 3 1 8 3 12 8-6 15 0 22-5-6-1-11-5-17-7-4-1-5-1-6 0"/><path fill="#6B3023" d="M138 446c-8 9-8 9-19 21-1 3 1 3 0 4-8 3-17 3-17 0 12 4 23 1 36 3 10-3 7-6 12-18-4 6-13 9-18 13-6 3-10 1-13 0 10-6 18-24 23-23"/><path fill="#574641" d="M172 384c6 6 8 19 10 28-10-1-18-1-21-8 4 1 9 4 14 5 1-8 0-15-3-21"/><path fill="#6A605D" d="M332 450c-3 7 16 11 18 19 6 1 11 3 15 1-9-7-19-10-31-17"/><path fill="#624E46" d="M241 358c-5 6-9 16-11 23 8-7 15-1 20-8-4 0-7-1-11-3 1-5 1-7 3-9"/><path fill="#D3D8B3" d="M267 300c-5 1-10 10-15 16 4 1 6 3 8 3 5-7 10-14 8-17"/><path fill="#832A11" d="M419 338c-5 2-10 2-13 6 3 4 6 5 11 4 5-2 9-9 4-11"/><path fill="#D6DEBD" d="M247 281c-1 3-4 4-5 6-1 8 0 12 2 16 5-9 9-6 12-13-3 1-6 1-9-3-2-1-1-2 1-3"/><path fill="#EC5A2E" d="M342 465c-5 5 1 14 2 19 3 5 5 7 9 6-5-6-7-15-8-24"/><path fill="#523B32" d="M216 433c0 4 7 11 11 16-7 8-12 16-20 19-19 4-52-3-59 0 21 0 39 4 58 2 10-5 16-12 21-19-2-6-7-10-9-16"/><path fill="#EA5A2C" d="M460 457c-6 1-4 7 0 10 4 6 7 9 11 9-5-7-6-13-10-19"/><path fill="#917D70" d="M344 179c-2 3-2 9 0 12 4 8 6 15 12 18-6-9-10-19-10-31"/><path fill="#907163" d="M428 322c-2 5-5 9-6 14 4 4 6 8 11 6-2-8-5-10-4-16"/><path fill="#9B4327" d="M357 192c2 4 6 8 9 13 9-4 24-6 31 0-6-9-18-6-26-3-6-2-10-6-11-10"/><path fill="#56433F" d="M145 402c4 8 13 16 24 17-5 4-10 1-15 0-5-5-8-9-10-13"/><path fill="#D0D0A9" d="M373 318c-3 2-7 0-9 1 4 0 0 4-1 5 4 2 12-4 12 5 10-5 6-10-1-10"/><path fill="#DB5C32" d="M484 453c-8 2-1 12 3 16s6 5 10 4c-6-2-8-10-13-19"/><path fill="#984831" d="M475 454c4 6 7 15 15 20-2 1-5 2-7 1-24-29-4-8-6 2 12 3 11-1 19-1-10-5-13-11-19-21"/><path fill="#736C68" d="M142 310c-8 2 6 5 14 6 7 9 16 19 14 28 1 0 2-2 4-1-4-11-9-20-16-28-7-3-11-3-15-6"/><path fill="#5B3425" d="M349 117c-47 16 3 2 15 16-6-5-12-8-20-9 3-4 5-6 9-5-2 0-4-1-5 0"/><path fill="#EA5B2E" d="M471 453c-3 6 4 10 6 14 4 6 7 8 12 7-8-5-11-14-15-20"/><path fill="#60453A" d="M296 361c-2 8-3 20 0 27 9 0 15-10 20-16-6 4-8 11-15 13-4-8-4-15-6-22"/><path fill="#936A5B" d="M437 343c-14 1-8 18 4 15-2-3-8-9-5-14"/><path fill="#655651" d="M392 331c-9 6 16 7 8 14 3-3 7-3 9-7-8-13-7 6-15-8"/><path fill="#7A5449" d="M323 474c-4 3-1 11 0 15 3 4 5 5 7 6-1-7-4-13-6-19"/><path fill="#64483E" d="M280 348c-1 6-4 12-5 18 5 1 27-18 6-7-2-4 0-5-1-9"/><path fill="#8C422E" d="M462 457c4 6 5 12 10 18-7 2-13-6-16-11-1 1 0 3-1 5 2 7 9 11 14 10 3-1 3-3 5-2-6-7-8-13-11-18"/><path fill="#C4D4BB" d="M317 460c4 2 6 7 6 11 2-3 5-8 10-8-3-6-10-3-14-4"/><path fill="#624F48" d="M216 341c-3 2-11 10-3 3-3 6-2 13 3 14 4 1 8 3 11 1-4-3-8-5-12-8v-2l-2-1 1-1-2-2c2-4 2 0 2-4"/><path fill="#9A4223" d="M441 302c-4 6-7 9-12 13-1-2-3-3-5-4-5-1-10-2-15 1v2h-1l-1 1c-1 2-4 2-1 5 1-2 0-5 3-6 4-5 9-3 13-4 6 3 4 7 5 9-2 7-4 10-6 14-6 1-9 0-14 1-3-3-4-4-3-7 0 2-1 4 0 6 5 3 12 3 16 2 4-6 9-15 9-17 5-5 9-9 11-14"/><path fill="#956957" d="M447 359c-14-1-4 16 4 13-3-4-5-7-4-12"/><path fill="#634E47" d="M156 313c9 7 14 18 19 27-3-4-4-8-5-13 3-2 5 0 6 2-3-9-12-10-18-15"/><path fill="#533F39" d="M171 384c5 7 5 16 7 24-7 0-12-1-17-5 4 5 5 10 7 15-1-4-2-6-3-10 5 3 10 3 14 5 0-11-2-20-6-28"/><path fill="#B29070" d="M381 215c5 0 13 8 11 14-4-4-9-7-12-11"/><path fill="#BD9573" d="m464 362 1-1c12 9-5 8-10 9 1-4 4-4 7-6"/><path fill="#9A5D2B" d="M450 367c1 2 6 3 1 6-5 0-6-2-1 1-1 5-2 11-5 15-5 11-11 19-20 26 9-7 16-15 20-23 4-7 6-14 9-18h-3c22-3 21-5-2-4"/><path fill="#69564B" d="M129 320c-11 18-8 29-14 41 14-6 0-28 15-38"/><path fill="#883D2C" d="M434 465c2 1 6-1 9 1-3 8-10 8-13 9-9 0-17-3-22-7 8 8 16 11 26 9 5-1 7-5 9-8-2-5-5-3-7-4"/><path fill="#D7DCB7" d="M252 298c-2 3-3 9-4 15 13-13 15-11 2-12"/><path fill="#A58759" d="M307 422c-5 11-12 20-19 29 9 4 17 7 26 9 5 4 7 7 8 13-1-7-3-8-5-13l-1-1 2-2c6 1 13 1 18 5-5-5-11-3-18-5-11 0-18-1-26-6 5-10 12-20 15-27"/><path fill="#643E33" d="M431 463c14 2 20 11 33 17-6-1-9-7-11-13-8-2-14-3-21-2"/><path fill="#DABE8C" d="M422 184c12 6-12 22-15 28 12-7 18-18 19-27"/><path fill="#E6C996" d="M362 247c15 6 25 5 37 13-9-8-22-9-34-13"/><path fill="#9E6D52" d="M411 139c6 8-1 23 9 22-8-6 4-15-8-20"/><path fill="#674D43" d="M293 350c-1 8-5 12-16 17 7-1 12-6 18-5 2-3-5-5 1-11"/><path fill="#816559" d="M302 157c0 10 5 23 13 34-2 2-12-27-11-33"/><path fill="#523C37" d="M145 402c1 6 3 10 7 15 6 3 11 4 15 5-10-4-13-5-21-18"/><path fill="#DBC092" d="M459 314c-3 1-2 5-6 6-3-1-5-2-6-4 1 2 2 3 2 5-4 5-6 9-11 12-3 0-5-2-6-3l-1-2 1 1c1 3 2 4 5 5 5-4 10-7 13-11 3 1 11-5 11-7"/><path fill="#3F2A24" d="M201 403c4 5 5 12 8 18 5 3 7 2 9 4 11 7 23 10 30 12 1 6-2 9-3 13 2-4 4-7 5-11 0-5 2-6 2-8 0 2-2 2-1 5-13-2-22-6-31-10-11-4-14-14-17-21"/><path fill="#A4B09E" d="M258 383c-2 3-5 6-6 9 5 2 6 4 10 3-3-4-6-6-6-10"/><path fill="#A3462B" d="M336 464c3 9 5 19 9 26-1 2 2 7 8 3-2 3-17-15-14-27"/><path fill="#673D34" d="M352 133c7 6 18 7 23 8-4-5-12-3-21-8"/><path fill="#6F534A" d="M295 474c-2 9 3 6 7 10-2-4 1-11-6-9"/><path fill="#422520" d="M245 172c2 2 4 4 6 5 5 1 9 1 13-1-6-1-11-2-16-4"/><path fill="#7A5447" d="M466 457c-4 6 6 8 8 13-1-5-4-8-6-12"/><path fill="#5F524D" d="M300 183c2 6 7 10 8 16 5-5-3-11-6-13"/><path fill="#A4775B" d="M459 322c-10-4-12 16-26 13 13 0 23-11 25-13"/><path fill="#E2C187" d="M398 205c0 6 10 17 10 21-2-6-3-14-9-19"/><path fill="#4C2D24" d="M376 276c6 0-6 8-8 9 1-4 3-6 6-7"/><path fill="#F8F2D4" d="M424 146c-5 4 3 11 3 16 1-5 0-10-2-14"/></svg>