<svg xmlns="http://www.w3.org/2000/svg" width="600" height="600"><path fill="#666E68" d="M354 114c0-2 1-1 3-1 8 1 22 14 26 11 5 5 12 10 16 16-6-3-13-15-16-10 3-1 9 3 16 12l1-1 1 1 2 2c0-2 2-4 1-7 6 1 9 5 10 8 6-5 12-10 18-12-5 4-11 8-16 15l-2 1h-1c1 4 2 8 5 11-2-2-3-7-4-10 5-12 40-23 25-20 27-7 15-10 49-14 34 15-12 36-4 56-21 19-11 9-20 22l-4 2-3-1c7-5-2 2-5 0 1 0 4 1 5-1-3 10 3 31-1 42 0-2 1-6 0-7 15 7 19 17 25 22-8 6-15 3-20 11 5-5 15-7 22-8 7 7-21 1-12 9-1-3 7 3 10 12-8 1-14 2-20 4 1 2 10 0 7 5-9-4-27 11-52 21-17 6-34 9-51 9-42 5-73-21-113-17 1-5 7-5 9-9 5 0 10 0 13 2-4-2-9-2-13-4 8-7 18-10 23-13-8-1-12-3-18-2 5 1 10 0 14 2-11 4-21 15-36 14 2-4 4-3 5-6-8-3-16-5-25-5 6-10 14-17 21-24-2-4-7-2-10-3 6-7 14-13 19-18-6 3 0-7-4-10-7 0-17 1-21-4 1-3 2 0 4 0 6 3 12 1 17 0 2 5 4 6 3 10 1-4-1-6 0-9 5-1 9-3 12-4 14-4 24-14 33-21-11 0-12 15-32 19-5 3-9 5-13 5-8 0-13 3-18 0-17-9-28-23-36-36-12-19-20-36-25-54-1-4 0-5 2-6 26-7 81 11 65 2 25 7 41 14 57 24 2-2 3-4 4-6 3 2 0 4 0 5v3h-2l1 2h-3c-2 0-2-4-4-4 1 2 3 3 4 5 2 2 6 2 6 3 1-3-6-2-2-7 4-9 9-16 16-21 0 3 0 7 1 12-1-5-1-9 1-12-7 4-12 9-15 15 1-8 7-13 12-17 10-5 2 9 4 12 22-30-7 20 21-27 4 5 6 12 10 11 2-1 2-3 1-6"/><path fill="#51504D" d="M193 235c0-2 2-2 2-1-2 7-6 11-9 15 51-10-8-3 41-11-1 6-5 7-6 10 1-1 5-1 7 0 0 6-2 8-3 11 4-1 10 1 12-4-4 9-10 12-15 18 4 4 9 3 14 5-7 15-18 26-19 40 3-3 6-6 10-9-2 11-4 20-4 30 1-3 5-2 7-6 1-2-2 3-3 1-2-9-1-17 0-24l1-1 1-1h-1c-2 1-4 1-4 3 0-4 2-6 4-7 1 10-1 18-1 27 2-1 4 0 5-1 2 6-1 8-1 11 4-4 8 0 10 2-4-5-10 3-11 2 5 5 3-1 4-3 7 5 12 6 16 9-5 4-9 8-11 14-5 11-7 21-6 32-1-12 1-22 5-31 7-10 16-15 25-18l2 1-1 1c-4 7-2 15-1 22-1-7-1-15 0-21 4-16 20-21 20-34 7 12 16 25 28 29 1 4 1 6 1 8l-1 2h-1v1l-3-1c-6-1-16-3-23 0 7-1 17-1 23 0 7 3 13 7 14 12s-1 7-2 10c-6-5-10-9-14-12 4 5 12 8 13 15l-5 5c-3-3-5-6-7-8 2 2 2 6 5 8-2 5-5 4-8 5-5-1-5-4-5-5 1 1-1 4 3 5s7-2 9-1c0-3 6-2 7-7-1-4 4-5 4-7v-6c0-7-6-10-9-13v-10c28 3 55 0 78-5 1 16 1 31 2 47 1 12 8 19 9 29 0 17-19 27-14 41 7-11 30 8 23-1 8 2 9 7 8 11-3-7-2 11-11 5 3-1 6 2 8-1-24 9-32 2-38 1-10-5-5-13-9-17-11-7-22-13-27-24 4-5 9-8 13-12-6 4-12 8-19 11-4-3-3-7-5-9h1-1l-2 1c-3 2-6 2-9 4 3-1 6-3 8-4 4 1 3 3 4 4-11 12-27 19-28 34 5 3 14 7 12 16-2 2-4 6-10 4 1-2-1-6 0-8 0 3-2 4-1 8-7 2-7-2-6-6 0 2-1 4 0 6-7 3-13-3-10-2 1 2 5 3 8 3 3-1 4-1 6 0h4c3-1 8 1 9-4 4-2 3 1 1 1-12 8-27 5-38 3 0-4 3-1 5-2-5 1-7-5-4-9 1-7 6-8 9-10-2 0-3 1-4 2-5-7-11-12-14-18-6-9-9-17-9-26 17-6 32-11 46-18 10-6 18-12 23-21-5 8-14 14-21 19-17 10-33 14-49 18 4-7 12-11 18-18 11-3 22 0 28-6-8 6-19 3-28 4-7-2-9-7-9-11-4-1-15 6-18 2-1 7 10-4 16 0 4 4 3 10 9 11-18-5 5 10-20 7-8-3-5-14-9-12 1-6-2-12 0-16-1 5-1 9-2 13 5 6 6 16 15 15 4 7-8 10 1 13-4 1-13 12-23 11 8 0 15-4 22-8 1 4 2 7 3 10-4-1-4-4-3-7-25 15-20 2-44 12-16 0-31 0-44-5 0-7 8-3 12-5-9 0-16-7-28-10 12 2 21 6 31 8 5 6-7 5-11 6 1 1 4 0 5 2 19 3 38 1 54-4-15 5-35 6-51 3 16-3 8-4 13-7-12-4-25-2-37-10-13-5-24-10-33-19 12 6 28 2 40 9-10-4-18-11-26-19 0 3 10 7 6 9-8-2-14-4-19-8-13-12-23-24-29-37 1-5 3 0 5 0 6 5 11 15 13 11-5-3-9-5-11-8-1-5-6-11-7-15 4 5 8 9 10 14-2-5-6-9-7-15-2-5-4-8-5-11 1-8 9 3 13 5-4-7-2-17-3-25 0-14 11-39 9-10 3-17 29-47 18-39 9-6 28-19 35-20 1-1-7 1-1-3 4 4 2 9 0 13 4-2 6-5 9-7-3 6-6 9-10 12-4 0 0-3-1-5-1 4-5 8-6 13 1-1 5-3 6-6 8-7 15-16 24-19"/><path fill="#2F4348" d="M424 303v2c-4 1-7 2-10 4-4 8-1 20-10 21 8 10 18 16 28 23-8 6-16 9-21 17 4-7 13-13 19-11 5 8 15 15 12 27 0 4-2 7-4 8 1-5 3-9 3-12 0 3-1 7-5 9 0-2-1-4 1-6-1 7-8 12-16 10 0-3 8-6 7-13-1 5-5 11-10 11-2-28-9 11-10-22-1 5 2 8-1 10-3-1-4-3-5-4 0-8 3-14 7-18-3 3-4 6-6 10-3-8-1-11-2-19 0 11-1 21 0 32 6 2 3 40 19 36-7 6-12 5-16 4-3 12-12 20-16 30 9 2 20 3 29 5 4 5 5 13 2 17-1-2 1-9-2-13-10-5-21-4-31-5 3-14 13-22 15-34 6-2 10 0 15 0-5-1-10-1-14-4 0-9-8-15-7-22-5-19-3-38-4-55 4-4 7-6 10-7-9 3-19 9-29 11-20 3-41 4-57 1-9-1-14-5-18-11-4-5-7-10-9-15-1-21 12-2 23-2 5 0 49 5 50 10 25-2 43-19 58-24"/><path fill="#040F1B" d="M235 343c-2 11-6 0-13 4-14 4-16 7-24 14-5 0-5-1-8-2-2 5 0 8 1 10-3-7-9 1-14 3-7 5-17 9-19 17-5 5-12-2-15-1 8-1 10 8 20 16-24 0-29-4-37-8 13 11 32 19 48 26 14 1 13-3 32 2-6-1-11-2-16-4 4-11 7-13 10-26 8-1 12-2 14-5 4-4 8-9 8-18 4-5 11-3 14-4 10-14 20-18-1-22"/><path fill="#7DCBCD" d="M389 135c4 6 2 15-1 22-19-1-33-10-50-11 2 3 3 6 5 10-4-1-9 0-12-5 3 2 5 5 8 7-5 0-9-1-14-2-16 13-7 7-13 21 5 2 9 3 14 5-1 4-5 1-4 5 1 2 6 8 4 9 4-1 12-1 16 1 11 4 19 10 26 17 0-3 4-3 4-4 4-2 6 0 7 3-3-9-9-17-17-22-5-6 1 5-1 8-4-1-6-4-10-4 9-1 1-7 3-12 5-1 5 3 7 3-1-5-4-10-6-15 3-5 8-3 12-2 0-4-4-6-4-9 19 10 20-2 36 6 19 5 17-12 9-22-1 3-2 6-3 10-4-8-9-13-15-17"/><path fill="#162A34" d="M125 293c-5 5-8 32-1 12 2 10-1 16 0 23 1-2 4 1 4-2 2 9 9 17 12 18 2-5 5-11 8-11 11 1 15-3 28-1 10-2 13-7 19-9 3-7 3-14 6-19-18 7-27-7-40 3-8-3-7-7-13-9-5 3-10 6-12 6-5-3-8-9-9-11"/><path fill="#314849" d="M325 213c-17 0-8 21-11 37 8 8 15 14 22 17 20 1 30-18 45-23-5 1-8-2-10-6 2 1-1 3 1 3-16-3-22-24-39-26-3-2-5-1-6-2"/><path fill="#A5937A" d="M185 331c-4 6-21 1-29 5 0 7 0 14 3 19-6-5-7-12-8-19-6-1-5 7-8 11-3-1-6-1-8-3 1 10 3 21 10 29 6 3 6 0 9-1-1-1-4-1-4-4 12 7 12-4 21 6 5-4 10-6 14-8 0-7 3-12 3-17 22 12 16-10 1-13-4-4 4 6 1 9-4-5-4-9-5-13"/><path fill="#F9FAF6" d="M369 163c3 4 4 9 6 13-6-2-9-5-13-5 8 17 14 32 25 47 3 4 14-1 21 2 2-12 12-23 4-36 0 4-3 3-1 9-3-9-6-16-12-21-4-4-7-5-9-7 2 6 4 11 6 15-3 7-4-5-3 3-4-11-13-17-22-19"/><path fill="#F8F8EB" d="M396 246c-4 1-7 2-11 3-13 7-22 23-36 27-9 0-17 2-22-1-14-4-23-12-35-14-5 0-8 3-12 3 6-1 13-1 19 0-9 3-16 4-22 5 12 0 21 2 29 4-11 3-20 5-29 9 9 0 18-1 28-2 16 4 32 9 41 10 3 1 0 2 0 4 2-1 4-5 7-6 3 11 18 0 25 8l4-4c2 3 0 5-1 7 3-4 9-4 11-11-14-2-28 0-37-7 3-4 4-5 7-6 7-3 1 4 7 4 7 1 12 0 17-2 4-9-9-12-4-20 5-6 10-9 15-10 17 5 13 0 0-2"/><path fill="#7B6955" d="M185 133c5 18 16 33 25 50 6 9 17 20 21 19 11-4-6 1-7-4 5-2 10 0 14-4-2 0-3 0-4 1 2-4 8-3 8-8-10-6-19-7-27-12 4-1 10 1 13-3-2-12-18-23-14-28-11-4-19-6-27-10"/><path fill="#F8F6E6" d="M195 235c-43 45 7-19-40 37 7-7 10-14 14-14 2 4 2 7-1 10 10 3 7 9 16 4-1 7 3 10-2 13l6-6c3 3-1 5-2 7 0-1 2-3 3-3 5 5 8 5 7 12 3-1 4-4 5-4 1 5-7 12 0 8 6-14 18-26 29-36-6 6-14 9-22 14-2-1 1-2 1-4-1 0-3 3-4 3 7-7 12-16 17-23-9 1-16 6-24 9 6-7 19-13 21-19-18 12-39 18-37 18 7-9-7-5 10-23"/><path fill="#F8F6E7" d="M381 350c-4 1-9 13-13 4-2 4 0 7-2 9-5-5-11-7-15-6-4 5-5 10-6 15 2-3 4-8 7-8-1 8-2 13 1 18-7-13-6 8-14-4-5 5 3 11 0 16 1-1 2-4 3-4 2 3 0 7 2 10 5-3 5-3 10-4 3-3 1-6-1-8 7 5 16 2 20 1 9-7 7-15 8-22 3 0 4 3 4 6 2-8 3-19-1-24"/><path fill="#5E4B40" d="M99 324c-1 13 15 23 7 21 8 8 13 17 25 30-9 0-20-15-29-22 9 11 12 23 26 32s-5-2-4-5c8 6 14 9 20 13-3-4-5-7-7-11 5 5 11 6 16 8 1-3-2-3-3-6 2-1 4 1 6 2 5-3 7-7 9-10-7-3-12 1-20 0-9-11-11-23-12-35l-1-1-1 1c-2 6 1 14 3 20-6-6-7-13-6-22-3-1-6 1-9 1-8-4-13-10-19-14"/><path fill="#DCD5BD" d="M193 237c-12 2-16 15-25 21h-1l-1 1c-4 7-8 9-15 22 9-22-5-8 16-36-8 8-14 15-18 23-6 9-5 16-8 24 5 3 8 1 11 5 2-6 3-11 6-16-6 31 4-4 2 24 4-3 9-2 13-5 3-10 9-11 10-18-1-12-8-5-14-13 1-4 2-8 0-10 8-1 15-21 23-21"/><path fill="#5D4A3D" d="M214 143c1 10 12 17 14 23-2 3 3 6-1 7-5 3-8 2-11 1 16 4 23 8 39 19-5 2-15-2-19 4 6 1 14 0 23 1-2-3-5 0-7-2 6-3 11-3 11-6-7-10-9-17-15-30-10-8-21-13-32-17"/><path fill="#2D4B4D" d="M449 207c-12 8-17 19-25 30-15 7 0-9-13 3 1-3-7-3-4-10-1 5 2 7 2 11 8 0 6 14 16 15 5 2 8 5 11 2 5-2 5-5 7-7 16-14-6-34 9-44"/><path fill="#65999A" d="M332 221c4-1 8 4 12 4-3 10-2 18 1 23 10 10 11-9 16-5 2 8-2 12-7 16-6 4-13 4-17 2-7-2-10-6-14-9-3-6-4-11-3-16 2-7 5-12 11-14"/><path fill="#091522" d="M282 427c-38 4 8 35-3 34 11 0 17 2 22 0 2-7 5-11 8-15-3-4-10-7-7-13-5 0-8 0-11 2-3-3-5-5-6-8"/><path fill="#502B1C" d="M316 213c-3 6-10 8-12 14-13-20-1-6-16 7 1 5 4 7 6 10-3 7-5 4-8 6 16 13 28 19 33 17 0-1-1-2-2-3 2 1 4-7 9 1-11-13-11-11-14-22 3-13 2-21 1-27"/><path fill="#08121D" d="M249 356c-10 7-14 17-15 28-1 7 1 12-2 15 5 7 2 9 9 18-3 1-5 2-8 2 12-2 21 4 20 6-1-7 12-1 2-10 8 2 23-3 30-5-6 1-12 5-20 3 5-4 9-8 14-11l2-1-2 1c-5 3-9 7-14 9l-1 3h-1l-3-1c1-6-6-4-10-10-15-21 8-27-3-46"/><path fill="#201212" d="M180 130c20 7 49 13 65 26 8 7 15 12 23 17-2 5 4 10 2 13-3 4-6-1-8 0 0 1 6 4 5 7-4-7 4-4 8-1-8-7 2-9-6-17 3 0 6 2 9 4-2-1-3-3-5-4 3-3 4-1 7-2-5-4-9-7-13-9 3-3 5-1 8 0-14-6-4-5-5-7-25-16-66-25-87-28"/><path fill="#5D4A3F" d="M233 369c-2 2-6 0-8 1-3 8-4 16-11 21-4 4-9 2-12 3-2 10-6 17-11 25 35 3 4 9 37 9-13-3 2-6-14-5 4-2 5-3 7-4-9 3-20 3-29 0 9-1 18-1 25-4-5-4-10-8-14-14 15 2 16 1 27 0-2-12 3-24 5-33"/><path fill="#112532" d="M278 214c-2 0-3 1-4 2-2 5-4 7-6 9 7-7-18 1-7-8-2 2-4 2-5 3 0 9 0-5 4 5-6 10-16 15-24 22 5-2 11 3 14 0-3 5-6 7-10 10 7 5 16 4 24 6 3-5 8-10 7-17-5-4-3-13-8-13 1-4 2-5 3-6 3-4 7-6 7-9-1 5 0 13 7 13-2 1-4-5-2-17"/><path fill="#F7F6E9" d="M458 242c-2 8-5 19-16 23-9 3-16-4-22-8-3 5-4 9-7 13 2 4 7 4 9 3 4-4 0-7 2-9 4 3 5 6 4 9-3 8-11 8-17 9-4 6-1 12-6 15 2-9 12-5 18-8 0-2 1-5 0-7 5 1 2 4 4 6 4-10 16-7 23-13-2-2-5-2-7-5 9 1 13-11 22-14-2-1-4-3-7-2 8-8-2-5 4-13"/><path fill="#06121F" d="M382 434c-19 11-38 12-8 26-3 4-5 9-3 12 12 1 14 5 25 2 0-4 1-7 3-10 2-2 4 0 6 0-2-1-6-5-7-3-1 6-2 11-6 5 2-6 3-8 7-9-5 0-9 1-13 4 6-19-6 3-8-29"/><path fill="#244E62" d="M292 200c-3 5-7 9-10 13 0 8 1 13 3 17-5 3-8 2-11 0-3-5-1-8 0-11l-9 12c4 2 2 11 7 12-1 9-1 14-8 19 9-1 17-3 26-5-3-3-6-3-9-4 4-4 7-6 9-8-2-4-5-7-6-10 4-5 6-6 8-9 1 0-4 0-4-2 0-9 1-16 3-22"/><path fill="#5B483E" d="M377 416c-10 8-22 11-32 18 4 6 7 13 12 10 7-3 14-4 17-8 4-4 3-10 7-14 7 3 7 4 9-2 2 4 4 6 3 9 14-13-10-12-17-8"/><path fill="#5D4B3F" d="M310 291c-35 0-18 11 15 9 1 5-14 1-19 3 20 2 19 4 28 8 16 5 30-3 33-6-29-4-38-5-63-14"/><path fill="#4E868A" d="M439 222c7 2 10 13 7 20-4 9-11 15-19 15-6-3-9-7-9-10 5-4 9-4 12-7 0-7 5-11 8-15"/><path fill="#59463D" d="M307 409c-7 5-14 9-21 13-4-1-4-3-5-5-7 2-12 4-17 6 0 3 1 5 0 8 8 0 13-5 19-6 5 3 5 6 6 8 6-1 9-3 12-4 3 4 1 7 2 8 11-7 2-23 2-26"/><path fill="#070303" d="M182 122c1 2 0 4 1 6 23 4 44 9 63 17 25 8 20 14 28 17-1 3-3 1-5 0 3 4 7 6 11 9-1 5-4 3-5 2 0 3 3 4 3 5-5-1-7-3-10-4 10 7 0 12 8 17-4 1-6-1-9-2 0 2 2 2 4 3-7 1-9 4-13 4 3-1 6-2 10-1-9 3 4 0 2 5-7 5-13 7-18 9-8 2-15 2-19-2-11-6-17-14-23-21 5 8 12 15 20 21 4 2 5 3 7 3 5 3 8-1 13 1 15-2 23-12 34-16-2 1-3 0-4-2 2-4 5-4 6-7h3l1-1h1c13-5 6 6 17-3-6 0-11 1-16 2-2-3 1-4 2-7-2 3-4 5-7 7 5-2-9-14 2-9-8-10-17-18-26-23-6-4-11-5-15-7-21-9-42-14-64-17 1-7 11-3 16-5 15 3 28 5 39 10l3 1-3-1c-11-5-24-7-37-9-7 0-12-2-17-2"/><path fill="#08131D" d="M210 305c-12-1-11 9-12 18 5 6 17 3 25 5 1-7 1-12 3-17-2 0-4 5-5 3-5-3-3-6-2-9l3 1h-3c-2-2-5-1-8-1"/><path fill="#2B586B" d="M321 352c0 8 2 13 3 21-1 10-15 17-13 23 9-5 17-13 21-20 10-14 13-30-10-22"/><path fill="#392826" d="M220 401c-2 3 6 3 11 6-1 6-11 2-14 2-1-2 8 3 11 5-8 1-5 6-11 7 14 1-1 5 12 6-17 4-27-4-16-3-11 3-6 4-26 9 28 1 95-11 46-13-1-4 5-2 7-3-6-5-4-8-8-15-5 2-7 3-11-1"/><path fill="#609C9E" d="M279 341c-5 6-6 12-5 20 10 2 4 13 12 15 6 7 10 1 12 1 2-2-1-3-1-4 3-4 6-4 9-3-6-3-8-8-3-11-12-6-24 5-27-1 12-5-7-8 9-9 3-5 1-5-4-7"/><path fill="#112532" d="M284 319c2 13-21 19-19 37-1 16 0 11 5 19-1-2-1-5 3-6 1 7-2 0-1 7 5-2 8 5 13 4 1-5-8-7-6-13-3-1-6-5-8-3-4-12 6-19 12-30 2-1 4-1 4 1 5-6 1-9-1-15"/><path fill="#DED8C0" d="M275 281c-19 7 33 11 38 4 2 3-1 4-4 5 7 5 15 6 23 6 3 2 0 2-1 3 9-1 15-4 16-9-2 0-4 2-6 3-8-4-24-8-34-12 4-1 4 6-1 4-3 1-5 0-3-4-10-1-22 4-28 0"/><path fill="#D6CFB8" d="M354 387c8 7-6 12-5 12-5 4-7-1-6-3-1 6-3 11-3 17 8 9 24-9 29-3 0 3-2 7-6 9 10-2 19-19 19-18-2 1-4 0-5 3 0-10-9-4-11-5-5 5-8 5-17 9 7-6 5-9 8-20"/><path fill="#0B1723" d="M264 363c-2 6 2 11 2 16-3 2-3-2-5-2 5 11 4 8 3 3 5 0 2 4 6 2 0 5 1 10 3 13 21 4 29-2 34-1 0-7 6-4 1-11 6 3-5 7 0 8-4 2-7 2-9-1 5-1 4 4 0-4 4 1 5 2 7 1 0-3-6-1-7-8 1 2 2 3 1 6-3 3-6 3-10 4-18-18-18-12-27-22"/><path fill="#9CF2F4" d="M334 234c-21 1-9 23 1 23l-2 1h1c7 4 15 2 19 0-3-3-10-10-15-14 2-5 2-3 1-10-1 0-3-1-4 0"/><path fill="#122532" d="M178 119c-8 15 12 38 17 53 11 19 22 34 38 44-12-7-21-25-39-54-6-12-13-25-14-39 24-4 49 7 43 0-10 1-15-3-42-2"/><path fill="#94D9D6" d="M274 138c-10 10 16 18 21 30 7 2 9 0 14-2-7-12-21-20-32-26"/><path fill="#422113" d="M402 225c-4 3-7 0-10 3-5 1-3 13-10 16-8 3-15 11-21 16 12-10 18-6 25-16 2-1 29-3 27 9 6 0-14-22-8-28"/><path fill="#A19076" d="M492 130c-7 6-18 9-21 18-1 6 6 1 8 2-3 4-8 5-11 9 2 1 5-2 7-1-8 6-13 10-16 17 1 1 3 0 5 1-1 3-3 3-5 4 18-10 24-32 32-48"/><path fill="#0A151F" d="M124 290c-4 8-7 16-9 24-2 0-3 0-3-3-1 8-1 15 2 20-7-8-6-19-4-28-2 7-2 17 0 24 7 21 23 0 29 19 4-3 5-8 7-11-2 3-3 7-4 11-9-5-12-11-12-18-3 1-5 1-6 2 6-31-15-8 3-44"/><path fill="#211615" d="M386 312c19 2-8 12-12 10-1-2-26 6-33-4 18-2 27-3 44-5"/><path fill="#F7CD85" d="M345 202c-29 5-10 11 4 18 12 3 3-10 19-3-8-6-12-9-19-14l-3-1h-1v1"/><path fill="#142736" d="M294 312c4 7 9 13 16 18l1 1-2-1h5c-2 4 7 4 8 4 1 2 6 1 10 2-7 2-3-5-8-3-2-5 0-7 3-6 17-6 13 9 30 4 15 0 22-6 32-9-13 5-29 8-44 9 2-5 8-3 13-5-15-2-28-3-41-7 2 2 4 4 8 6-3 1-3 4-2 5-4 1-7 2-10 0 1-5 7-2 8-4-9-6-18-8-26-12"/><path fill="#5E4B3E" d="M198 326c2 17 6 17 9 24 3 0 5-1 7-2 0-3-2-5-3-6 6 5 12 4 15 3 3-8-8 8-8-18-7 3-13 2-18 0"/><path fill="#559CA9" d="M325 183c-13-1-21 7-33 9 5-1 9-3 13-4-2 5-7 6-8 11 4-3 2-1 4-5-1 6 2 14 6 8 1 4-1 4-3 5 7-3 13-7 20-9 5-3-2-8-3-11-2-2 4-6 5-3"/><path fill="#603B23" d="M311 246c10 13-5 5 8 15-14-4-3 4-1 8 11 4 19 5 27 4 21-7 20-11 32-22-12 6-22 15-34 19-14-2-24-13-31-22"/><path fill="#76644E" d="M220 277c-7 8-13 17-16 27 4-1 10-3 14 0-6-3 20-26 5-27"/><path fill="#568386" d="M335 169c1-1 3 0 4-1 8 1 12 3 16 5-7 5-12 12-20 10-12-1-14-16-1-13"/><path fill="#346474" d="M290 329c0 13-9-2-9 13-9 10-9 10-2-2 13 1 4 10 8 12 2-1 13 1 17 1 3-2 4-3 4-5-8-5-13-11-16-17"/><path fill="#5A483D" d="M245 265c-13 9 2 12 11 16 1 2-1 2-3 4 6-1 11-6 16-8-8-6-15-7-11-12-5 0-7 0-10-1"/><path fill="#201416" d="M326 387c-18 17-28 21-66 33 10 0 15-3 20-5 2 2 7 3 5 6 9-5 20-12 24-16 1 0 1 1 1 2 11-9 16-12 17-21"/><path fill="#AC9D81" d="M166 240c-10 8-21 18-26 29-2 8-9 15-11 23 1 2 2 5 3 7 7-24 20-37 35-57"/><path fill="#665342" d="M461 146c-16 13-4 11-14 26 6-1 9-2 13-4 2-4 9-6 11-8-3 2-7 1-11-1 7 3 18-12 6-4-4-6 4-6-4-8"/><path fill="#68AAAD" d="M359 117c-2 6 2 10 0 15-6-6-12-10-17-13-1 8-4 14-5 21 10 3 6-4 11-8 1 9 5-3 14 5 0-8-1-15-2-20"/><path fill="#DBD4BD" d="M355 291c-26 12 5 12 16 11 4-1 7-1 8-5-9-8-19 3-25-7"/><path fill="#52291C" d="M370 221c0 2 2 4 3 5-8 1-12-5-19-3 3 4 6 7 8 8-20-21 0 10 7 10 0-4-3-6-3-10 4 6 9 12 15 10-2-6-4-16-9-17"/><path fill="#8BD6D4" d="M456 127c-6 2-11 4-16 7-8 8 2 4-3 19 7-12 27-18 22-26"/><path fill="#102436" d="M314 387c-8 21-37 5-47 27 17-4 34-10 49-19-2 1-4 2-5 0 1-2-2-6 2-6"/><path fill="#655344" d="M421 294c-10 8-18 10-24 11-3-3-2-4-1-6-5 5-22 8-20 4-5 4-10 7-17 9 16 0 39-2 43-6 28-6-6-2 23-11"/><path fill="#E1DAC3" d="M188 283c-1 4-8 9-11 17 6 2 9 1 12 5 4-1 5-8 8-9-3-3-2-12-9-12"/><path fill="#93E3E5" d="M434 181c-2 8-13-2-5 12 9-4 19 11 23 11-1-8-9-15-12-20-3 4-3-6-6-3"/><path fill="#83ECF2" d="m435 234-1 1c1 6-3 10-1 14-4-4-6 2-12 0 6 10 12 3 14 2 6-4 18-19 1-18"/><path fill="#62A9B0" d="M315 152c1 8-6 6-5 15-5 4-8 7-12 9 1 2 8 5 21 4-3-1-11 1-8-5-7-10 31-18 4-23"/><path fill="#0A1823" d="M295 195c-11 13-25 20-40 24-5 6 3-6 8-1-12 6-3 6-11 16 10-14 10 5 25-23l1 1 2 1-1 2c-1 15-2 12 2 14 3-5-4-7-2-13 3-10 12-16 19-20"/><path fill="#162E42" d="M297 463c-5-1-26 6-11 13 1-4 3-6 4-9 7 2 7 7 10 9 4-1 1-7 5-9 5 2 7 6 8 9 1-7-6-10-10-13l-3-1h-1v1"/><path fill="#142736" d="M299 324c-7 7 1 14 6 18 12-2 15 4 35 3 1-2 1-3 2-4-18 2-28-5-33-5-12-5 2-4-9-9"/><path fill="#5C493F" d="M323 398c-3 10-7 22-7 29 8-2 11-7 13-6 1-9-6-14-5-22"/><path fill="#181818" d="m174 119 1-1c22-1 43 0 62 5-19-2-38-5-60-3-7 5 1 14 0 20-3-6-7-12-5-21"/><path fill="#643D26" d="M452 213c-3 9 3 23-4 32-4 9-8 16-16 17l-2-2h-2l3 1h2c6 4 15-5 16-1 8-15 5-25 4-46"/><path fill="#D0C7B0" d="M336 382c-3 19-5 6-10 11-2 12 5 16 6 23-2-8 3-18 8-23-1-3-5-6-2-9"/><path fill="#522B1E" d="M428 219c-4 1-7 5-9 4-3 4-5 9-8 13 4 0 7-2 8-4 3 0 0 4-1 5 7-1 17-15 11-18"/><path fill="#32201F" d="M249 159c6 11 5 18 13 25-1-3 4 4 6 3 3-2-2-8-1-11-6-7-12-8-15-15"/><path fill="#5EA1A8" d="M438 133c-13 13 4 4-14 25 1 4 3 3 5 5 9-8 7-9 11-18-5 9-1-8-4-4 1-5 3-4 4-7"/><path fill="#86745C" d="M137 260c-2 8-8 9-13 23-3 4-1 4 2 6 5-5 10-13 15-19-6 5-1-8-4 0-2-5 0-6 1-8"/><path fill="#5A483E" d="m365 410-3 1c-5 5-12 6-18 9-5-8-7 3-9-6-1 6-3 7-1 15 11-3 21-8 28-18 3 5-3 7-4 12h-5l3 1 2-2c2-4 14-12 6-10"/><path fill="#634F42" d="M222 197c28 5-6 5 16 11 11 1 19-3 28-6-14 1-28-1-39-5"/><path fill="#C2F8F5" d="M416 166c-3 3 0 3 1 6-10-5 0 10 4 13 2-7 11 4 13-5 4 2 4 4 7 4-8-8-15-6-26-17"/><path fill="#F6F3DF" d="M227 134c20 7 39 14 56 30 2-8-13-14-19-18-13-5-24-8-36-12"/><path fill="#1D1D1D" d="M244 295c6 6 35-1 46 7-2 8-2 14-9 18 3-5 5-10 6-17-14-6-31-2-45-4"/><path fill="#356C81" d="M302 196c-9 4-10 13-11 24 5-5 10-9 15-13 2-2-9-2-4-10"/><path fill="#786652" d="M459 262c-2 3-13 10 3 9-1 4-3 1-4 3 6-1 12-1 17-3-6-3-3-9-9-7-4-1-7 2-9 0"/><path fill="#F5CE88" d="M436 201c-5 2-8 7-10 10 4-3 7 3 11 3 10-5 9-11 0-13"/><path fill="#A66441" d="M314 205c-1 4-10 4-17 13 5-1 1 3 6 6 12-8 19-19 12-18"/><path fill="#102533" d="M426 360c-5 1-13 7-15 13-3 16 6-8 5 19 2-9 3 4 9-5-5 0-4-5-7-7 6-7-3-18 8-19"/><path fill="#41342C" d="M237 260c-3 5-8 8-12 12 6 3 12 4 17 5 8-1-5-2-4-6 8-8 16-7 0-9"/><path fill="#12222D" d="M113 286c-3 13-5 30-2 45-1-6-1-13 0-20 3 1 0 2 3 3 2-7 5-14 8-21-2-6-4 5-6 7-1-4-1-8-1-12"/><path fill="#65AAAD" d="M396 350c-3 13-4 30 0 42 3-26 1-22 0-40"/><path fill="#F0EBD6" d="M383 383c-5 6-10 12-18 16 13-10 7 12 17 0 3-2 6-17 1-14"/><path fill="#172E3D" d="M390 430c-4 6-8 4-10 5 4 5-2 12 4 16 1-7 12-14 8-19"/><path fill="#451208" d="M266 390c1 3 1 6 3 9-6-7-13 0-19-3 0 2 1 3 2 5 20 12 14-4 12-3 6 4 8 3 9 4-3-3-5-8-4-12"/><path fill="#1A1A19" d="M117 277c1-3-16 28-8 51-5-11-4-23-2-33 2-8 4-13 6-18"/><path fill="#1F1313" d="M392 403c-24 21-7 10 7 15l-1 2h-2l3 1v-1c4-17-10-8-10-14"/><path fill="#F5F5F4" d="M489 124c-12 4-24 8-34 16-10 9-17 17-22 27 3-6 11-17 22-23 12-10 24-15 36-20"/><path fill="#92D6D2" d="M361 118c2 5 2 12 3 17-5 3-7 2-8-1-4 2-6 6-4 7 7 1 11 0 15-2-2-12 6-14-6-20"/><path fill="#1A2E3A" d="M432 137c-6 3-11 6-15 12 1 4 0 8 4 9 4-10 10-10 9-20"/><path fill="#232121" d="m125 386 1 1c7 5 14 8 21 11-8 2-15-1-22-3-4-1 5 3 2 4-15-14 5-5 10-2-4-2-8-6-12-8"/><path fill="#5F9FA4" d="M423 363c-1 5-4 15-2 19 5 7 6-3 8-7 3 2 2 6 6 7 0-1 1-3 0-6-4-3-16-7-10-11"/><path fill="#83E1E7" d="M422 191c-1 6-7 11-5 17 3 12 27-27 8-4-1-5 1-9-1-12"/><path fill="#33231F" d="M453 154c-11 9 3 6-11 20 7 6-2 7 2 9 10-6 9-5 15-12-3 1-7 1-11 3 4-12 4-15 2-18"/><path fill="#1D1113" d="M309 415c5 8 3 22 7 23-3 6-2 8-7 12 2-3 9-7 8-9 7-5 6-8 12-10 1-6 1-8-3-5-4 1-5 2-9 5-3-6-5-9-7-15"/><path fill="#030101" d="M383 258c3 7 15 7 21 12 5-6 11-6 12-12-4 2-7 5-10 7-4-8-16-5-22-4"/><path fill="#3D2C2A" d="M307 409c-4-2 2 7 3 20-2 4-4 13-7 9 3 3 5 5 7 6 4-2 6-4 8-5-5 3-2-6-5-3 0-10-4-20-6-27"/><path fill="#7E6D58" d="M352 353c-2 1-5 0-6 1-4 8-6 16-7 23 2-3 1 4 4 3 12-18-7 8 2-16-1-9 17-10 9-12"/><path fill="#CFC7AD" d="M211 245c-9 2-19 4-26 9 1 3-4 8-6 7 10-3 22-9 32-16"/><path fill="#0D1F2D" d="M266 207c-8 4-22 5-28 7 11 3 28-1 30-5"/><path fill="#122435" d="M315 348c-1 7-1 11 6 13 0-2-1-5 0-9 8 1 16-2 21 1-1-8-19 0-25-5"/><path fill="#66AAAF" d="M325 144c-7 0 11 13 15 10 1-2-3-7-4-9-2 2-5-1-7-2"/><path fill="#766553" d="M382 260c1 5 5 6 7 11 1 5-2 6-5 8 7-2 13-4 17-8-5-4-13-4-18-9"/><path fill="#091219" d="M404 318c-10 7-18 19-28 21 7-1 13-6 20-9l3 1v1l-2 2c-3 2-6 2-9 4 8-4 9-3 14-6 0 5 1 8 2 11 0 2-1-9 3-16-4 3-5 7-8 6 7-10 14-13 1-6 1-3 1-6 2-9"/><path fill="#132330" d="M317 126c-4 8-12 16-14 24 7-6 9-7 13-11 1-1 0-7 1-11"/><path fill="#040202" d="M427 269c0 4-4 8-8 8-7 0-10-2-13-3-9 3-16 6-23 8-9 0-20 4-22-6 0 6 4 8 6 7 19 5 32-13 49-4 5-1 11-3 11-9"/><path fill="#0B1620" d="M202 173c4 14 21 37 36 41 11 8-11-6 16-3-11 5-24-2-23-5-13-10-22-19-27-30"/><path fill="#1C0F0E" d="M460 143c-5 5-18 15-21 30 7-4 16-27 24-31"/><path fill="#D0F7F5" d="M482 121c-9 1-17 3-24 6 5-2 4 6-1 7 7-6 29-12 29-14"/><path fill="#82725D" d="M402 280c-1 3-9 2-12 5 2 3 4 4 7 3 9-2 22-11 5-7"/><path fill="#0C1722" d="M319 127c-2 3-2 7-1 11-2 0-4 1-5 0 1-1 4-2 1-4l-1 1v4c-3 0 0 2-3 2 3-2 3 3 3 2-8 0-4 7-9 9 5-1 8-4 17-2-7-5 3-10-4-10-1-9 3-12 2-11"/><path fill="#85CCCB" d="M402 336c-3 1-5 3-7 4-5 34 4-7 3 29 1-12 1-22 3-32"/><path fill="#746251" d="M451 282c-4 3-13 13-17 9-1 2-3 4-5 5-2 0 0-4 1-6-1 2-4 4-3 7-6-3 0-5-5-3-26 12 8 2-18 13 9-4 17-5 24-9 7-7 36-15 27-17"/><path fill="#836F5C" d="M188 348c1 4-1 6 0 10 3-1 6 1 9 2 2-2 4-3 5-5-8-9-7-1-11-4"/><path fill="#304F58" d="M214 123c16 2 30 9 45 16-2-3-4-5-7-8-13-4-25-5-37-7"/><path fill="#336474" d="M401 392c-12-2 1 20 9 24-5-7-8-15-10-23"/><path fill="#5B4A40" d="M389 373c-2 16-1 31-7 35 4-2 7-5 8-9 4 0-4 12 4 7-4-11-6-16-4-31"/><path fill="#2A5363" d="M323 328c3 6 7 7 16 8 0-3 0-4 1-5-6-2-10-3-14-4"/><path fill="#ABEBE5" d="M417 163c-2 2 0 3-1 6 7 1 16 11 17 7 0-4-9-10-16-12"/><path fill="#541D0A" d="M408 361c-3 5-8 13-2 20 0-7 8-13 5-18"/><path fill="#242424" d="m236 280 1-1c11-2 14 5 3 9 0-3 2-4 5-5-4-1-5-2-6-3-5 6-7 10-10 15 0-6 3-10 5-14"/><path fill="#0A121C" d="M291 467c-2 3-2 6-3 9-19-12 0 18 0 1 0-1 1-5 3-9 8 4 6 13 10 14 4-5 1-13 5-14 8 4 5 17 8 11 2-8-2 2-5-11l-2 1-2-1c-3 2 1 8-3 10-5-3-6-7-8-10"/><path fill="#302221" d="M392 314c-8 2-17 1-25 3 1 0 3-2 4 5 6-1 15-3 21-6"/><path fill="#342320" d="M385 344c-4 1-8 2-11 3-12 0-20 3-30 2 15 3 17 4 27-2 3 4 1 4 2 7-3-11 21-7 15-9"/><path fill="#212121" d="M257 285c1 12-3 2-19 7 1-3 8-4 13-5"/><path fill="#142834" d="M406 332c-2 11-3 21-4 34 2-4 4-7 7-10-2-2-7-16-1-23"/><path fill="#3C2E28" d="M183 126c9 1 21 5 29 3-1-3-16-4-26-5"/><path fill="#53AAB9" d="M372 209c-7 10 2 10 10 9-1-6-2-4-5-8"/><path fill="#D5F5EE" d="M254 131c6 6 10 11 17 14 0-3-3-7 2-6-6-3-11-5-16-7"/><path fill="#C7BAA0" d="M195 326c-6 1-5 6-3 10 3 1 7 4 7 8 0-7-4-11-2-19"/><path fill="#DED8C2" d="M392 294c-6 2-10 5-13 8 7 0 13-1 17-6 5 2 2 4 1 6 13-12-9-4-9-5"/><path fill="#B4A68D" d="M144 277c-4 7-7 15-9 23 5-1 10-6 18-2l1-1-2 1c-1-3-11-4-9-4-4-7 2-11-1-15"/><path fill="#6EA8A5" d="M277 145c6-1 13 4 18 7-9-1-9-5-11 3l-4-8"/><path fill="#2E647C" d="M373 218c1 4 6 9 8 14 1-7 7-3 2-13-1-1-4 1-8 0"/><path fill="#142D2F" d="M333 223c-4 1-8 4-10 8 6-1 17 1 12-9"/><path fill="#302120" d="M344 317c1 7 15 3 21 5-6-6-12-4-18-6"/><path fill="#2E2523" d="M392 255c-19 6 24 1 16 6 2-2 3-3 5-4-6-1-13-1-19-2"/><path fill="#142737" d="M397 459c1 2-9 4-2 9 3-2 1-11 6-8 5 9 9 3 9 10 1-4 0-8-1-8-4-3-7-4-11-3"/><path fill="#A0E1DB" d="M371 139c1 4 0 7 1 11 3 2 5 2 7 3 0-12-6-14-8-10"/><path fill="#272727" d="m337 432 1-2c7 4 5 14 0 3-7 2-13 2-18 9 4-7 8-11 15-9"/><path fill="#AD9D85" d="M277 161c4 2 8 9 11 8 5 7 0 8 1 12 2-2 4-4 6-7-13-23-5-1-15-11"/><path fill="#AEA189" d="M360 388c-11 22 3 9 13 4-7 4-7-3-14 0"/><path fill="#3D2B26" d="M105 340c5 9 15 22 13 22-1 1-3 3-6-1 8 8 12 11 19 17-9-9-14-23-25-36"/><path fill="#356572" d="M279 369c2 5 7 9 8 16 4 4 6 0 8 2 3-9-14-6-15-17"/><path fill="#998873" d="M383 422c-3 4-4 9-6 13 6-5 8-1 15-8 0-9-3 3-7-2"/><path fill="#070303" d="M485 129c-11 5-21 9-31 17-12 8-12 17-18 25 1 5 6 5 7 9-5-4 0-7 0-9-1 1-4 5-5 3 4-7 6-13 7-18 13-14 26-21 40-27"/><path fill="#84705D" d="M151 369c0 2 3 2 4 3-21 2 23 6 11 3-4-9-3 1-13-7"/><path fill="#C88359" d="M331 199c-7 1-13 4-18 8-11 9 36-12 22-8"/><path fill="#5D9FA5" d="M386 332c-23 13-14 0-35 9 14 0 1 6 19 1-6-1 7-6 13-8"/><path fill="#E0DBC4" d="M423 290c-9 2-19 4-16 9 5 0 12-7 17-7"/><path fill="#87D3CF" d="M409 336c-6 8 4 9 2 15 3 1 4-2 6-2-2-6-5-7-8-11"/><path fill="#2A2A2A" d="M228 293c0 6-7 17-7 22-1-7 1-13 4-19"/><path fill="#252525" d="M318 440c3 4-17 14-10 22-5-7 1-13 6-18"/><path fill="#D58B55" d="M357 214c1 14 17 8 11 3 1-1-3 0-7-2"/><path fill="#F4F1DD" d="M405 288c-7 3-12 1-15 9 3-1 5-4 10-3 2 3 1 4 0 6 3-3 4-8 6-11"/><path fill="#212020" d="M264 343c5 1-5 7-7 6-7 2-11-1-15-2 7 1 13 2 19-2"/><path fill="#C3B99C" d="M206 245c3 5-18 8-20 12 4-7 11-7 17-10"/><path fill="#132332" d="M309 361c6 3 0 16 10 12 2-9-4-9-9-10"/><path fill="#519CAC" d="M415 206c1 4-6 13 0 12 5-2 4-5 6-6-1-2-2-2-5-4"/><path fill="#90D5D3" d="M406 312c-10 8-21 14-32 19 6-2 12-5 19-6 6-5 9-8 12-13"/><path fill="#604D43" d="M280 198c-2 2-8 4-8 7 5 1 22-10 10-6"/><path fill="#D9945A" d="M429 211c-1 2-2 3-5 2-2 3-3 5-4 7 3-7 24 2 11-8"/><path fill="#F4BD6E" d="M422 348c-1 3-4 3-6 4-1 10 21 2 8-1"/><path fill="#3E6469" d="M366 141c0 2-10 5-16 2 5-1 23 14 18-2"/><path fill="#1C1C1C" d="M195 230c12-2-1 10-1 13-1-3 0-7 3-11-2 1-4 3-6 3 1-2 1-4 2-4"/><path fill="#98D4CC" d="M427 362c-7 2-1 9 10 14-3-4-8-8-9-13"/><path fill="#232324" d="M177 140c4 5 7 16 11 22-6-6-9-12-11-19"/><path fill="#1C1D1E" d="M237 251c8-5 11 2 2 5-2-3 1-2 2-3-4 0-9-1-12 1 1-3 3-4 7-4"/><path fill="#21201F" d="M94 315c3 3 3 17 7 22-5-6-8-11-8-18"/><path fill="#132432" d="M292 314c-6 2 0 8 0 12 7-3 2-7 1-11"/><path fill="#222121" d="M96 341c2-1 1 12 8 18-6-4-8-10-10-15"/><path fill="#A6ECE7" d="M407 172c1 8 9 7 12 16-4-7-6-15-10-17"/><path fill="#2F5B6C" d="M324 339c2 5 10 3 15 4 0-5-8-3-12-5"/><path fill="#375A63" d="M337 123c-4 5-5 11-8 17 1 0 2 0 4 1 1-7 2-12 3-17"/><path fill="#A6977B" d="M227 263c-7 0-13 5-15 10 5-3 11-5 16-9"/><path fill="#183236" d="M440 223c-2 4-4 5-5 9 2 0 15 1 7-7"/><path fill="#070D15" d="M115 315c4 5-1 16 2 21-5-5-1-11-3-18"/><path fill="#DED7BF" d="M435 280c-1 2-2 4-5 3 0 9-5 2-3 9 1-10 21-5 9-9"/><path fill="#242424" d="M124 274c3 2-5 11-5 15-4-6 2-3 3-13"/><path fill="#232425" d="M412 390c4 2 9 8 17 5-6 5-12 2-17-2"/><path fill="#262626" d="M355 450c4 1 11 5 14 9-3 0-8-5-14-6"/><path fill="#6CAAA8" d="M451 134c6 0-7 9-9 11-1-3 4-6 6-10"/><path fill="#1A0F11" d="M351 423c2 4-12 5-8 12 2-5 14-6 9-11"/><path fill="#52403B" d="m210 404 5 5c5 3 8 6 13 5-4-1-8-3-12-4 5-1 9 0 14-1-8-2-13-3-18-4"/><path fill="#998870" d="m144 251-12 18c6-5 5 1 14-17"/><path fill="#90D8D8" d="M335 173c-4 0 11 10 10 0-1 0-4-1-8 0"/><path fill="#452418" d="M451 211c-2 0-2 2-3 4 0 5 1 8 2 11-1-6 1-14 4-15"/><path fill="#7C6A58" d="M468 243c0 2 2 2 4 3-14 3 2 8 6 7-3-3-4-5-8-8"/><path fill="#9D411A" d="M260 354c1 5 0 8 0 12-2-1-3-3-1-6-5 4-4 8-7 13 2-2 7 1 8-5 1-5 0-8 1-11"/><path fill="#261719" d="M194 133c5-3 10 4 14 0-2 7-8 3-11 2"/><path fill="#3C707D" d="M308 152c-7 4 6 7 2 10 6 0-4-9 6-6-3-2-4-5-7-3"/><path fill="#D6F6F0" d="M371 129c0 20 2 5 9 18-1-6-2-11-8-14"/><path fill="#0D151E" d="M304 361c-7 8 3-5 7 4-10 2 5 9-10 6 12-4 3 20 16 12-8-14 4-3 1-11-7 1-2 6-5 10-5-5-5-13-2-15-1-4-3-6-5-6"/><path fill="#242525" d="M249 232c6 1-9 9-11 11 2-4 5-6 9-8"/><path fill="#7CC2C3" d="M347 130c-6 6 0 12-4 12 3-3 5-6 7-9 0 0-1-2-2-2"/><path fill="#E4F4EC" d="M362 120c7 2 8 9 15 11 1-5-8-8-12-11"/><path fill="#061418" d="M336 222c7 2-7 12 5 9 4-5 0-6-4-8"/></svg>