<svg xmlns="http://www.w3.org/2000/svg" width="600" height="600"><path fill="#5C2B2C" d="M105 124c11-1 22 1 31 4 16 5 28 11 40 20 9 9 18 19 23 30 6 10 10 19 12 29 3 2 5 1 6 2 1-9 3-16 7-22 7-10 17-16 26-20 19-8 38-8 59-7 21 3 39 10 55 21 5-15 13-27 23-35 12-11 26-10 40-9 9 2 16 4 23 8 6 5 7 6 8 13-25 13-52 21-73 41 5 11 5 22 3 34 15-10 30-18 46-24 18-6 36-7 53-10 26-3 48 5 68 13 0 5-1 6 7 10-4 5-7 2-9 2 0 2 5 4 1 6-12-1-23-6-35-11-21-1-36-6-55-6-21 4-38 10-53 19-9 5-16 9-20 17 9 6 19 19 21 30 4 17 1 32-7 42-6 7-11 10-18 10-6 1-11 3-13-1-1 8-4 12-10 13-16 2-27 8-41 11 2 9-6 15-1 20 11-4 22-9 32-16 7-1 11 0 17 0 7 8 13 16 21 22 8 8 17 9 25 12 10 13 21 26 23 44 10 9 14 18 24 22-4 5-9 2-12 1-5-5-9-12-12-12-5-13-7-24-16-32-9-6-19-7-24-3-13-16-21-28-30-42-11 8-25 15-38 17 4 6 11 12 18 16 15 21 16 52 41 62-15 2-16-8-23-10-8-7-7-26-17-33-10-10-13 5-19-2-6-11-6-24-14-32-16 0-13 21-28 25-7 4-12 6-18 7-3 21 0 36-7 52-4 2-5 3-8 0 5-16 9-35 6-51-9-2-17-5-23-10-8-8-13-16-18-23-6 0-11 2-16 2-5 12-8 22-12 32-6-2-14-3-18 2-14 12-7 31-20 40-5 4-11 4-16 3 10-4 13-14 18-18 6-10 4-21 8-29 11-7 8-19 21-23-10 7-20 15-30 22-7 1-12-2-17 2-8 7-14 15-17 23-5 6-9 13-18 12 11-10 19-23 26-38 19-17 47-16 64-35 14-24 32-23 42-53 13-7 23 14 26 15-14-21-31-34-47-47-4 0-6-1-7 0-3 4 0 7-1 9-5-1-3-5-4-7-9 1-17 4-27 4 0 7 7 14 3 20-8-4-6-12-8-18-12-2-21-6-31-10-2 2-2 1-2 4-1-10-12-15-13-24-1 2-3 4-4 4 1-16-12-23-10-37-10 1 3-8-11-3 2-6 7-19 17-19-4-1-7-4-11-6-4-5-5-11-6-15-13-1-29-2-42-3-9-4-16-9-21-14 8-24 23-47 48-54 7-2 11-6 18-4"/><path fill="#35121F" d="M138 141c2 2 9 2 9 4-16-1-34-5-47 3-10 15-5 14-12 30-5 1-8 7-15 3-5-8-6-4-1 2 6-1 10 3 13-1 3 5 8 6 13 10 15-10 31 5 44-3 21 13 46 11 67 19-5-16-14-32-27-45-18-16-28-12-38-21h-4"/><path fill="#5F090C" d="M363 186c1 7 0 11 2 17-11 20-18 44-24 50-7 17-2 41 2 56h-3v-2l1 3h1c3-2 3-4 2-8 3 2 2 4 3 5 5-3 12 1 14-4 13-17 16-37 21-60 1-15 1-20-2-33-3-9-7-19-14-24"/><path fill="#100C18" d="M269 223c3 2 0 5 4 8-37-12 0 2 3 19 5-2 17 2 15-3 6 7 18 6 23 14-5-1-11-6-17-5 4 6 9 8 11 14-5 0-7 4-11 4-5 8-11 14-16 18-9 3-17-5-18-11 1 20 7 36 17 49 4 0 5 2 7 1 6 1 8-1 13 0-7-2-5 0-12-1-6-1-7-6-12-8 9 4 21 5 30 3 13-9 20-22 23-34 1 7 5 12 3 18 2 3 5 1 7 2-5-12-5-32-18-43-17-20-22-14-28-25 1-5 5 0 6 2-3-2-3-8-3-11-2 2-1 7-5 8-10-4-18-9-20-18"/><path fill="#E63D2C" d="M301 162c4-1 7 0 10 2-3 3-7 3-9 7-1 7-11 21-20 30-6 5-12 6-16 9-8 2-15 0-23 1-9-4-12-13-17-18-2-4-4 1-4 2 6 9 7 10 13 19 23 4 41 5 61 11 4-7-1-11 2-16 8-3 14-2 17-8-5-5-4-14 0-22 3 2 6 0 10-1-2 5-5 3-7 4-3 2-2 6-3 8 30 4 10-15 5-25-5 0-11-4-16-4"/><path fill="#8B1210" d="M346 173c-3 1 0 7-7 4 4 2 8 3 9 7 0 14-2 15 4 28-3-8-10-10-21-10 2 2 5 0 7 1-5 5-9 16-14 19 2 4 0 14 1 19-4 5-11 2-13 2 4 5 11 13 15 18 6 10 10 18 11 26-4-10 0-24 1-29 8-13 13-33 24-59-1-2 0-5-1-12 3-2 4 0 5 0-6-7-12-11-20-13"/><path fill="#241F2B" d="M219 214c1 62-5-9-2 36 1 24 7 14 13 37 21 19 10 27 39 48-12-16-25-32-31-48 2 2 12-4 13 0 6-14 6-20 18-33-6-7-14-16-22-21-1 8 1 18-4 24-3 4-5 5-11 3-6-6-9-12-9-18-1-9 0-14 4-19-2-1-3-2-6-1"/><path fill="#5A1B23" d="M103 138c-7 0-13 2-18 4-10 7-14 11-20 9-9 8-9 20-17 25 3-1 6-3 9-4 6 9 9 17 19 21 10 0 16 5 25 4 2-3 4-5 6-7-2 1-5 2-8 3-10-16-20-2-32-14 21 9-4-3 24 0-6-11 7-17-1-18 5-4 3-10 8-13 25-10 73 3 20-12-3 2-8 2-13 2"/><path fill="#350D18" d="M417 148c-8 6-18 6-26 12-10 8-14 16-19 24 4 4 8 9 10 12 19-21 110-40 29-47"/><path fill="#120F1B" d="M226 303c12 11 27 23 38 37 22 54-6 25 11 66 10-13 24-17 36-26-2 7 14 5 15 18-4-10-11-22-8-27-10 7-19 9-31 13 6-9 16-13 21-22-4 4-8 2-10 5 5-5-16-5-24-18 6 4 14 5 21 6 0 3-3 2-4 4 14 3 12-1 21-2-16 2-25-12-39-12 0 0 2 0 1 1-10-6 14 18 5 15-8-6-9-13-14-19-2-2-1-3-1-4-10-14-22-20-36-34"/><path fill="#3E090F" d="M379 262c-3 17-8 28-16 40-3 7-11 3-15 5-1-1-3-2-2-4-12 11-16 20-20 25-8 5-3 6 0 9 11 5 27 7 37 0 8-24 10-49 16-72"/><path fill="#140C17" d="M260 350c-14 11-14 17-22 31-7 2-13-9-20-9 2 10 9 14 19 20-5 0-6-2-5 5 2 6 6 9 10 12 7 6 14 8 20 9 2-3 0-6 1-9-1 10-7-1-5 7 0-18 5-14 4-25 1-7 1-12 0-17-1 3-3 9 0 12-6 3-4-2-5-4-5-15 10-19 4-30"/><path fill="#110D1A" d="M491 207c-15 0-29 3-42 6-4 0-5 0-6 1-52 30-34 6-47 18-11 7-9 14-12 18-6 25-8 49-10 73 5-6 17-7 24-15-3 0-5 1-6-3-2-8 2-13 1-20 9-2 9 7 8 11 0-7 2-16-2-22-6 2-5 3-10 5-1-2-2-3-3-4 1-8 4-12 5-16-1-4-3-6-5-7 2-4 5-7 8-10 16-16 36-22 54-28 9 0 27-7 39-2 1-3 6 1 4-4"/><path fill="#831B1C" d="M176 219c-2 1-5 1-8 5-5 7 2 23-3 29 1 9 8 9 9 14 2 3-1 4 3 6 4 3 6 2 12 5-6-3-10-5-15-9 10-3 18-7 20-15 1 0-4-4-2-7 2-5 6 4 7 2-3-10-16-21-11-27-2-4-7-3-11-3"/><path fill="#F16E51" d="M288 162v1c-8 4 1 9 1 15-7 9-11 17-21 20-11 4-26-4-30-3-1-4-9-6-8-11-4 1-6 4-7 6 7 2 10 16 18 19 10 0 17 2 23 0 6-3 12-4 17-7 12-10 18-27 19-29 20-9 0-13-8-13"/><path fill="#AE2C26" d="M134 234c-9 7-21 1-12 15 6-1 8-9 16-7-7 2-12 10-14 15 0 8 2 11 6 16 2 3 5 3 8 5 3-9 14-12 20-17-5-8-7-16-14-23-4-2-7-1-8-4"/><path fill="#120F1C" d="M257 274c-2 4-3 8-4 12-31-12 4 30 14 43 3 9-2 2-4 1 9 3 18 17 36 18 6-2 20 1 18-7 4 2 7 3 10 4-3-3-7-6-10-10 14-13 11-8 16-22 0-2-3 1-4-2 3 12-14 17-11 21l-2 4h-2c-12 4-15 3-25 0-13-4-23-14-28-24-6-12-8-25-5-37"/><path fill="#B81C15" d="M318 195c1 4-4 8-6 10-5 0-9 4-14 2 3 1 7-1 8 3-2 6 7 9 2 14-1 4-8 3-8 9 2 3 9 6 7 10 5-2 11 2 16 0 0-7 2-17-1-22 14-11 23-20-5-23"/><path fill="#1F2031" d="M289 244c1 1 3 3 3 5-4 2-9 0-12 2 2 9 15 5 19 11-9 8-11 16-17 21-4-5-9 2-11 1-8-4 0-14-9-11-3 4-4 8-3 13-1 14 12 31 10 38 7 6 17 13 30 12 6-4 15-12 22-19 5-10 12-15 9-25-3 10-9 19-16 27-7 7-13 10-20 7 1 5 7 0 8 4-7 1-11 3-17 2-5 0-7-5-10-6-7-15-16-31-13-45 5 13 11 7 18 10 6-3 12-9 15-16 5-3 8-3 11-6-1-5-8-7-11-12 9-3 15 2 21 5-7-6-15-8-23-11 0-4-2-4-3-6"/><path fill="#601218" d="M186 221c10 18 14 30 8 32-8 3 1 8-3 11-6 2-14 2-16 3 10 7 12 13 23 11 6-3 7-9 6-14 4 6 0 14 6 16-2-7 3-16 0-19-2-11-10-25-20-36"/><path fill="#FADE9C" d="M273 162c-14 4-28 7-39 16 2 5 13 11 23 11 8 0 12-3 16-5 3 4-9 8-1 5 3-5 6-8 6-12-4-5-10-5-13-9 0-5 10-6 10-7"/><path fill="#F6A775" d="M284 161c-6 1-11 1-16 3-5 6 8 7 10 10 1 7-2 11-4 16-3 2-8 2-6-1 3-1 6 0 5-5 2 5-3 2-5 3-3 3-4 4-7 3-7 1-11-4-18-2-4-4-8-5-6-10-4 1-7 3-9 5 2 4 7 7 9 11 7 0 22 8 32 2 10-4 13-10 19-15-7-10-2-20-1-21"/><path fill="#5D161C" d="M126 275c10 13 7 10 13 17 10 1 5 5 14 5 29 3 12 1 43 4-35-15-41-15-65-25"/><path fill="#110F1B" d="M367 364c-1 1-49 0-38 22 19-8 31-16 40-20 14 19 18 26 32 44 1-3 4-4 7-4 5 2 10 3 14 5-3-3-12-4-11-10 8 4 14 6 20 10-4-6-22-7-15-18-3 4-7 7-11 9-15-11-30-25-35-40v-1h-1"/><path fill="#B32720" d="M321 165c5 6 8 15 14 21-7 3-12 6-19 5 6 4 7 0 11 0 6 3-6 4 3 7 6-4 14 3 17-2 1-5 4-8 1-10-2-6-6-7-9-8 5 2 5-9 10-4-6-2-16-8-26-9"/><path d="M188 219c8 9 15 18 20 30 9 10 6 24 10 34 6 6 9 10 14 15-17-23-16-53-27-78-6-1-10-1-14-1"/><path fill="#9C3330" d="M112 191c-13 2-9 20-1 23 7 6 15 5 19-1-9-7-2-16-13-22 0 1-1-1-3-1"/><path fill="#A42C28" d="M171 222c-33-1-31 16-6 30 0 7 7 12 9 18-2-6-7-10-9-16 5-7-4-29 4-32"/><path fill="#580F15" d="M494 205c0 2 0 3 1 5 5 1 13 0 18 1 14 4 22 8 33 13 3-5 7-7 10-2-6-8-11-15-22-15 3 10-27-4-36-1"/><path fill="#030209" d="M308 291c-3 10-15 11-18 21-6-4-6 4-10 3 11 4 17 7 25 3 1-3 4-2 3-5-6 3-14 4-20 1 6-1 13-1 17-2 9-6 8-14 5-20"/><path fill="#150E18" d="M169 210c0 3-1 6 2 7 10-3 22 0 32-1 13 1 19 5 31 8 12 10 25 15 39 32-11-22-32-30-48-38-19-5-42-10-57-3"/><path fill="#831C1F" d="M156 254c4 1 4 5 2 8-7 5-21 9-18 17 12 0 15 5 28 5-3 0-4-2-7-1-2-9 5-12 5-20-1-6-6-6-7-8"/><path fill="#F3AF77" d="M115 125c-10 3-24 4-34 10-8 3-7 10-15 12 14-1 15-10 31-15 4 0 11-2 9 2-8 2-13 3-17 5 15-6 31 0 31-9 47 10 22-1-5-5"/><path fill="#77272C" d="M62 152c-7 7-14 19-20 29 19 11 21 14 45 16-6-1-12-1-15-6-8-7-10-9-13-16-5-2-7 1-9 2 6-7 5-19 13-24"/><path fill="#05040A" d="M307 291c7-2 5 9 8 12-2 6-14 14-23 10-3-10 11-12 14-19"/><path fill="#310308" d="M297 240c4 16 27 19 31 37 8 9 8 25 10 33 0-15-4-29-10-42-7-13-17-23-28-26"/><path fill="#271E2D" d="M172 212c-7-2 42-3 51 6 18 5 42 19 53 36-2-8-6-15-13-20-27-21-15-9-38-18 1-4 4-1 6-1-13 0-34-7-55-5"/><path fill="#262030" d="M487 203c-22 1-22 2-44 7-21 6-34 11-46 23 23-11 31-13 43-19 10-6 56-6 46-11"/><path fill="#410D15" d="M138 279c21 7 37 13 53 14 5-3 18 3 30 4-6 0-13-5-17-11-23 2-45 1-63-6"/><path fill="#24202E" d="M316 375c11 17 8 21 17 39-5-15 7 5 5-7 0-5-5-6-6-9 7 2 9 9 15 7-6-3-20-18-27-29"/><path fill="#6B5A54" d="M270 255c-2 4-6 5-8 9 1 0 4 3 4 0 2 3 2 4 4 6 2-4 5-10 12-8-3 11-16 12-13 15 4-4 11 2 15-5 13-17-5-10-11-16"/><path fill="#640A04" d="M225 237c-1 6 0 14 4 17 5 4 11 3 14-3 1-3 1-6 3-7-8 0-12-5-19-5"/><path fill="#CF4A3A" d="M142 191c5 7-4 9-3 12-5 1-11 5-14 6 7 0 52-2 18-18"/><path fill="#25212F" d="M371 363c6 14 19 28 33 38 1-5 0-8 9-8-7 1-6-2-14-3-5-5-20-17-25-26"/><path fill="#61141B" d="M143 235c8 8 12 18 22 23 5 11-6 16-3 22 3 2 5 2 7 3-2 2-4 1-7 2 7 1 14 1 21 0-4-4-21-15-14-25-10-9-18-15-24-24"/><path fill="#EE7155" d="M120 132c-10 6 34 8 41 12-4-5-10-9-18-11-7-1-12-2-17-3"/><path fill="#192232" d="M268 337c10 11 27 12 38 21 0-3 2-3 5-2-6 0 2 6-7 13 10-1 4-8 9-13h1-4c-2-1-6 1-7-2 8-6 17-3 21-8-5-6-11 7-24 3-12-1-20-7-29-12"/><path fill="#F7DDA1" d="M108 125c-13 1-24 4-35 10-14 9-22 21-29 35 6-5 18-21 33-34 8-10 55-11 34-11"/><path fill="#06040F" d="m285 311 2-2c3 9 16 6 21 3 0 5-3 6-6 8-4 0-29 3-19-8"/><path fill="#8A1912" d="M250 333c-1 7-10 17 1 23 2-4 6-6 10-7-3-6-5-11-10-15"/><path fill="#453A41" d="M280 252c-3 1-6 0-7 3 4 7 11-1 18 5-3 8-4 13-10 15-7-1-12 9-14 2 1 1 0 3 1 5 6-1 11-2 14 0-9 0 36-27-6-27"/><path fill="#190F17" d="M213 371c-3 3-4 8-7 12-3 3 0 5-3 5-4 9-8 13-11 20-1 5-1 7 0 11-4-5-6-7-12-10 3 0 2 3 3 4-4 4-10 8-13 12 2-3 7-5 10-6 7-3 8 1 12 2 4-10 8-21 12-30 5-3 11-5 15-7-5-3-8 4-13 2 2-9 6-11 9-15"/><path fill="#262431" d="M262 375c5 12-1 24-2 30 1 4 9-2 13 4-1-8-6-23-7-33"/><path fill="#271120" d="M162 159c12 12 28 25 33 26-4-2-10 2-16-4-7-6-12-13-16-19"/><path fill="#E1432A" d="M244 332c-7 5-7 12-6 21-7 3-14 6-15 13 7-4 14-8 20-3-1-8-8-22 2-30"/><path fill="#201E31" d="M387 253c9 2 2 7 7 11-10-1-3 7-6 10l-1-1v2c0 1 2 2 1 4 7-2 4-7 11-7 5 9 4 19 3 27 1-10 1-22-2-31-2-8-5-13-11-15"/><path fill="#DA3F2D" d="M405 138c-1 3-5 2-6 5-6 8-13 11-16 17 6 6 19-10 29-23"/><path fill="#420F19" d="M168 264c3 4 1 7 3 11 5 3 13 3 14 6 6 3 12-1 18 0 5 5 12 14 20 11-4 3-9-3-12-5 2-6-10-8-5-23 0 5-1 12-6 15-9 1-15-1-21-3-5-3-6-7-9-10"/><path fill="#5F1015" d="M416 144c-7 10 23 4 32 11 2 6-2 7-5 10 4-2 9-2 11-5-1-4-3-1-4-4-5-4-7-8-9-10-14-3-13 2-19 3-4-2-6-2-4-5"/><path fill="#39060B" d="M272 224c2 10 11 14 19 17 2-3 3-4 2-7-6-4-13-7-20-8"/><path fill="#821819" d="M422 140c-5 2-5 5-3 8 7-1 9-6 20-3 6 3 9 10 15 12-5-2-1-11-13-14-6-2-12-3-18-2"/><path fill="#38090E" d="M236 217c12 4 22 12 35 13-2-4-2-9-1-8-10 1-21-4-32-5"/><path fill="#861A18" d="M157 213c-18 2-31 19-44 23 19-1 36-26 50-23"/><path fill="#DD6C4F" d="M141 192c-8 0-13 7-15 13 6 3 8-4 11 0-1-7 9-5 4-13"/><path fill="#030209" d="M395 283c0 8-5 16-2 24 5-3 7-5 7-7 1-8 1-16-3-14"/><path fill="#8ECECC" d="M408 272c3 5 3 12 2 20-3 17-18 31-7 31 5-3-1-17 9-21 2-9 2-18-3-29"/><path fill="#130C17" d="M177 399c-6 5-16 8-23 10-2 4 0 4-1 7 9-4 26-14 27-18"/><path fill="#871A1A" d="M517 201c-32 3-14 3 20 9-9-7-19-8-27-9"/><path fill="#313E51" d="M397 257c7 12 9 33 3 47-3 16-18 19-27 25 12-4 20-8 28-20l1-2v-4c3-8 3-17 4-26-1-9-5-13-8-18"/><path fill="#B1271B" d="M246 332c-3 5-6 10-6 16 1 6 4 8 7 10-7-7 1-19 2-26"/><path fill="#273F52" d="M329 304c-4 13-19 27-31 31 9 0 16-3 22-8 4-12 9-16 10-21"/><path fill="#2E1F2B" d="M214 367c-10 16-20 30-26 43 1-2 13-16 16-24 5 2 9-3 11-3-1-6-5-1-6-2 0-6 1-9 4-11"/><path fill="#1A2335" d="M313 380c-14 10-28 15-37 27 22-11 9-13 42-26"/><path fill="#B6251E" d="M415 139c-6 5-13 8-18 15 8 3 24-14 21-15"/><path fill="#53191A" d="M343 311c11-1-5 12-2 27-6-11-2-17 1-27"/><path fill="#E56E52" d="M401 140c-6 2-11 5-16 9l1 3h-2l1 2-1 2c-5 8-9 25-17 27 10-10 27-31 15-25 11-5 12-20 20-18"/><path fill="#5E0E0F" d="M167 211c0 2 1 3 0 4-11-4-26 5-29 12 8-2 16-7 27-11 7 7 5 5 1-3"/><path fill="#4A0D14" d="M533 213c6-1 12 4 18 5-3 2-3 5-5 5-7-6-15-4-15-9"/><path fill="#3F1317" d="M206 219c5 8 6 17 9 26-2-6 2-11 0-18 1-5-2-11-7-8"/><path fill="#DA3123" d="M309 208c-2 3-5-1-9 1 3 11 5 15-1 22 15-3 4-18 10-23"/><path fill="#86140D" d="M233 367c-13 4-6 2 2 12 3-4 5-8 7-11-3 2-5-1-8-1"/><path fill="#E77251" d="M168 206h-2c-17 1-31 11-45 19-2-1 1-2 1-4-14 5 0 1-13 12 8 0 9-12 11-6 15-11 30-17 46-20 1 2 0 3-1 5 2-1 2-3 3-5"/><path fill="#43353B" d="M205 373c-2 4-11 31-28 32 6 3 14-3 11 2 3-7 15-23 22-37"/><path fill="#393D48" d="M261 264c-3 9-5 18-5 27l2 2v2c5 9 5 20 11 28-4-9-8-19-10-28 0-8-3-13 0-18 1-6 6-7 8-4 0-9 1-7-6-6"/><path fill="#BA261B" d="M298 217c1 2 3 6 0 8-10-2-16-2-25-5 6 5 13 6 19 10 5 1 4-2 5-3 4-3 6-3 3-9"/><path fill="#CF4435" d="M117 240c0 9 3 17 7 24-2-8 3-15 10-21-4 4-9 4-13 7-1-3-1-6-3-7"/><path fill="#1E2234" d="M401 305c-8 11-25 16-28 20 8 0 11-5 18-6 5-5 7-9 8-13"/><path fill="#993839" d="M41 181c2 5 16 17 27 14-5-3-15-3-22-14"/><path fill="#89130A" d="M225 233c-3 6 13 5 18 10 1-11-12-4-15-10"/><path fill="#430C13" d="M532 214c-2 6 25 6 16 14-1-5 5-9 7-6-6-4-13-6-19-8"/><path fill="#F77D3F" d="M242 331c-10 13-8 19-19 30 3-4 9-7 12-6 2-9 0-17 7-21"/><path fill="#F2AE78" d="M386 147c-8 11-10 26-20 34 9-3 14-22 19-31"/><path fill="#F2A278" d="M169 203c-11 2-24 5-32 10-9 2-12 6-16 12 14-12 36-22 51-20"/><path fill="#13111A" d="M342 399c1 3 4 3 6 5-4 2-7 4-9 8-1 4 12 4 17 12-17-17 0-7-9-17 0-4-2-4-4-5"/><path fill="#B52618" d="M247 361c-6 4-16-4-21 7 4-7 15 4 19-6"/><path fill="#486475" d="M400 259c3 5 6 10 6 15 0 13-1 23-4 32-4 13-15 17-21 23 11-5 5-5 17-12 3-4 3-7 4-9 2-4 3-8 4-11 3-14 1-27-5-35"/><path fill="#AD3229" d="M165 144c-2 3 15 18 17 11-4-3-10-9-16-11"/><path fill="#272533" d="M359 358c-8 4-7 6-14 8 8-6 14 4 19-3 7-10 2 3-4-3"/><path fill="#2A202A" d="M220 296c10 12 24 23 26 24-4-6-13-12-22-24"/><path fill="#892221" d="M154 224c-11 1-18 8-27 13 6-5 10-3 17 0 0-3 0-4-2-7 5-4 12-6 14-7"/><path fill="#B22316" d="M239 228c-1 9-10 1-13 3-1 0 25 12 14-2"/><path fill="#831F1F" d="M180 156c-4 4 14 13 17 23-2-5-7-16-16-22"/><path fill="#DE4129" d="M229 225c-9 6 6 8 9 4-3-4-6-3-7-5"/><path fill="#B33831" d="M147 193c5 2 10 5 11 10 3 0 5-1 9 0-6-5-12-8-17-11"/><path fill="#AF2A22" d="M158 211c-18 3-35 18-49 25 7-5 53-31 55-23"/><path fill="#3D363F" d="M223 293c4 7 15 18 22 24-5-6-13-16-19-23"/><path fill="#446676" d="M304 391c-12 11-26 23-31 26 10-4 21-14 30-23"/><path fill="#2C4153" d="M297 394c0-3-18 17-24 23 8-5 18-14 25-22"/><path fill="#A22B27" d="M488 200c5 1 2 5 5 7 1-1 0-3 1-4 8-2 21 2 19-3-7 2-11-2-23 0"/><path fill="#F4D19B" d="M379 154c-5 7-8 14-11 22 5-4 10-12 11-19"/><path fill="#23212C" d="M411 403c11 7 16 10 22 19 1-18-8-1-7-13 0 0-7-4-12-6"/><path fill="#4A1318" d="M208 219c8-3 5 9 7 12-4-3-6-6-6-9"/><path fill="#70706F" d="M227 465c5-1 13-1 18 0-6 3-11 3-16 2"/><path fill="#618C96" d="M401 321c1 4-17 2-14 10 4-1 12-4 14-10"/><path fill="#0F0F1A" d="M272 404c3 8-1 3-5 4 4 1 0 6 2 7 4 0 6 0 6-3 1-2-2-4-2-5"/><path fill="#5D0B0D" d="M333 199c-9 4 12 1 14 6 1-2-1-3 0-5-6 0-8-2-12-1"/><path fill="#63909A" d="M402 263c6 7 7 16 6 27-3 12-4 24-15 31 9-8 14-17 16-27 1-12 1-22-6-29"/><path fill="#231F2F" d="M303 373c-5 6-13 4-16 13 2-10 20-3 17-12"/><path fill="#0C0307" d="M331 300c0 3 1 6-1 8l1 3-1 2c-3 4-4 8-7 12-8 8-15 12-23 13 4 0 8-3 13-3 5-3 6-7 9-9 4-5 9-13 8-13 4 0 7-1 10-1-3-1-6 0-8-2 0-3-1-6 0-7"/><path fill="#2E2C3A" d="M355 361c5-5 7 3 4 6-4-1-5-2-6-5"/><path fill="#242129" d="M265 409c-4 2 3 10-3 10 5 3 2 8 7 10-10-18 7-2-3-20"/><path fill="#181319" d="M267 425c2 36-6 15-1 38 7-9 0-21 2-34"/><path fill="#8B2B2B" d="M117 190c7 2-3 3 11 8-4 3-2 5-4 8 1-4 4-6 6-9-4-4-6-5-11-7"/><path fill="#1F1C2A" d="M265 342c5 6 11 22 18 18-9-2-11-16-16-16"/><path fill="#2D2B36" d="M310 370c2-1 5-1 7 0-1 5-8 8-8 2"/><path fill="#F6B05B" d="M241 333c-10 7-12 17-18 25 16-12 5-7 16-24"/><path fill="#8ECCCA" d="M305 395c-5 9-16 14-23 21 7-6 17-7 22-20"/><path fill="#393140" d="M170 210c6-2 37-2 50 4-14-4-29-7-47-6"/><path fill="#5E949C" d="M305 393c-7 9-18 16-26 23 8-6 19-12 25-21"/></svg>