<svg xmlns="http://www.w3.org/2000/svg" width="600" height="600"><path fill="#5E6C43" d="m276 140 2-2c5 0 11 1 16 4 6 4 10 8 10 12 7-7 15-12 24-8 5 1 6 3 5 7-7 9-16 12-24 16 22 11 48 6 72 13 16 3 29 11 41 18-1-6-7-10-10-15-1-7-1-14 6-14 8 2 12 6 16 11 5 5 4 11 5 16 3-2 5-4 7-5 9-1 14 0 19 3 0 11-18 9-24 15 10 6 23 4 33 10 11 5 20 10 26 17 10 9 15 16 20 25 7 11 11 22 14 33 1 13 3 26-1 37-8 18-21 32-35 44 18-1 35-1 49 6 13 8 24 15 33 27-6 5-12 4-16 7 2 4 6 7 7 10 1 4-1 5-2 4-12 2-20 0-28-3-5 4-6 9-11 10-36-1-73 1-106-6-13-8-20-21-27-31-5 0-10 0-13-2 2 14-3 27-2 39-2 7-4 11-7 15-19 4-39 3-55 2 13 3 28 2 42 3-25 4-44-3-65-4-3-3-2-4-1-6-3-1-7 0-9-2 7-19 28-21 33-41-5-1-12 1-18-1-5-3-11-6-9-11-7-1-11-3-16-2-9 14-13 21-22 33-6 7-10 10-21 11-35 5-61-5-90-3-6-7 10-12 13-20-9 0-17-1-25-2-7-8 9-10 10-13-7 0-12 2-18 1-4 10-10 20-20 23-24 0-47-1-71 0 1-11 10-19 17-26 10-7 19-12 28-17-8-9-16-17-22-28-3-8-6-15-7-23-10 5-19 12-30 9-1-7-1-12 4-14 4-6 8-7 14-6-4-3-6-5-7-9-2-4-2-6 1-7 7 2 12 6 15 10 1-18 3-35 7-51-8-1-18 4-28 3-7-11 5-19 13-20-4-4-4-8-3-14 1-5 5-8 7-11 5-3 9 3 10 4 5 7 4 14 5 21 8-16 23-31 39-38-9 0-18-1-25-5-5-5-6-12-2-15 12-2 25-4 31 7 0-11 7-17 14-21 4 11 0 19-4 27 8-1 18 1 25 3 1-1 3-1 3-3-5-5-14-6-15-13 10-4 5-22 17-25 5-2 8 2 9 5 1 8 2 16 1 23 13-8 27-13 43-13-5-6-11-12-17-21-4-5 1-9 5-9 7-2 13-1 17 1 9 4 8 10 7 17 3-4 6-7 10-9 7-5 13-5 20-4 3 3 1 3 1 6-7 8-16 14-24 19 3 1 6 2 8 4 14-7 28-9 41-11 12 0 23-2 33 0-7-3-12-6-16-11-4-6-5-11-4-16"/><path fill="#21262A" d="M191 226c-6 17-3 39 0 56 1 4 0 6 1 8 5 16 8 31 17 44-11 11-25 15-39 15-6-3-9-9-12-12 1-2 3-3 5-2-4-1-8-1-12-1-3-2-5-4-6-6-2 13-27 22-25 26-17-9-29-20-41-31-8-12-12-24-16-35 1 22 21 35 27 55-10 14-19 13-9 16-7 3-9 0-11 0-11-3-13-15-16-22 1 4 2 8 4 13 7 10 16 21 24 28 7-4 16-3 22 0 9 2 16 6 19 13-3 9-6 17-13 22-5 2-5-6-7-8 1 3 4 7 3 11-22 4-45 2-65 3 20-2 40 1 60 1 13-3 18-14 20-22 10-2 13-4 16-4 4-4 6 2 7 2-4 5-10 6-14 10 11 5 21 3 30 4 25-22 17-25 55-57 1 4 2 6 4 9-3-5-6-9-6-14 3-7 8-8 11-10-5 5-10 0-13-5-10-13-14-28-18-41-4-22-9-45-3-65"/><path fill="#2B3C36" d="M259 270c-7 7-12 3-13 12-11 2-4-5-10-1 4 1 7 4 11 5-6 8-14 11-22 15 2 3 2 8 7 10 12 4 16-2 22 0 1 2-3 6-3 6-6 4-12 6-19 7-5-11-18-16-28-21 3 6-4-3-5 2 4 14 8 28 20 35-1 1-1 3-3 3 2 0 2-2 4-1l2-1-3-1c2-4 8 2 3-2 12-3 21 6 24 3-4 12-8 6-6 13-6 2-3 1-2 3-8 5-9 9-16 7 5 1 8 2 15 3 18 12-3 8 15 18-1 8-3 16-5 20-7 13-13 14-18 17 4 2 1 6 3 9 7-1 13-1 17-4 12-14 15-25 23-36 1-9 0-15-4-21-7-12-24-10-29-13 20-8 22-4 41-3-1-11-14-17-19-32-5-17-4-35-3-52"/><path fill="#1E2428" d="M296 197c-11 10-21 20-27 32v3l-2 1c-4 13-7 26-8 39v4c0 16-2 31 3 44 5 16 18 23 17 33-18 1-19-3-39 2 1-5 3-10 6-14-6 7-7 14-14 19 2-2 4-2 5-4 3 3 16 0 20 5 6 3 10 7 12 10 4 7 5 12 4 18-2 6-4 10-7 13-4-2-4-6-6-9 1 4 5 8 5 12-7 10-10 20-18 25-7 0-9 3-13 3-5-4-2-7-4-10 0 3 3 9-1 10-86-1-19 6 21-2 5-8 11-15 14-24 4-6 8-12 10-18 23 0 32 2 53 8 1 3-2 3-5 4-6 1-10 1-14 1 3-1 8-1 12 1 4-1 5-2 6 0 6-8 10-17 14-26 17 0 30 6 40 15-1 20 4 40-3 55-3 0-2-3-4-4 1 4 3 10-5 8-3 0-4-1-4-3 0 1 0 2 1 4-24 2-43 0-65 0 24 0 49 5 73 1 4-5 6-8 7-12 2-17 1-27 0-43 8-1 11 2 16-1 8 11 13 20 20 28 6 4 11 6 16 7 33 4 64 5 95 6 9-3 9-14 14-12-3-3 1-9 0-13 0 9-3 17-10 22-9 4-12-2-11-8-1 4 1 5 0 9-41-5-52 1-100-7-11-12-17-24-24-35 13 4 23 9 34 10 16 1 28 0 39-5-17 6-37 5-53 0-25-6-40-28-64-30-7-6-12-12-14-17-5-13-5-25-4-38-1 12-2 22 2 34-10 7-20 9-29 12-8 1-13-3-17-2-5-15-22-21-27-35-4-15-5-31-4-47 1-17 5-31 9-45 6-13 15-23 26-32"/><path fill="#2A3D37" d="M346 272c-15 4-34 13-39 19-3-1-7 1-7-4 4 7 10 12 16 13-11 7-19 8-25 12 3 10 3 13 9 20 19 1 21-5 29-6 1 5-2 7-5 9-10 6-16 5-25 6-10-11-8-9-13-21-13-3-18-4-22 4 5 12 22 19 24 34 15 4 32-2 46-9-6-19 1-36 0-40 2-16 6-29 9-36"/><path fill="#C9CF71" d="M337 181c-6 1-13 0-18 3-15 6-25 16-35 27-8 7-10 14-13 21 14-2 26-6 38-12 9 6 20 14 25 9 6-13 21-18 24-33 47-11-2-15-19-15"/><path fill="#3F1821" d="M382 348c-2 13 7 23 16 32 11 8 21 13 32 15 17 4 34-4 43-4 8-9 18-13 26-20-14 4-35 3-57-2-22-9-38-11-59-19"/><path fill="#34553B" d="M406 286c-24 17-26 19-46 42 6-1-1 12-2 12-12-3-17-17-22-26-3 8-2 19 1 27s3 17 12 22c8 6 14 8 21 10 7 1 11 0 15-2-6-10-9-21-5-31-1-12 11-19 10-27 4 7 10-8 17-8 0-8-1-12-2-16"/><path fill="#9AB659" d="M310 220c-12 7-25 11-40 13-4 10-6 20-8 30 7 7 13 11 19 13 7 2 14 2 18 1 9-12 12-23 19-33 29-22 9-4-7-23"/><path fill="#C7CE70" d="M257 172c-14 2-27 5-39 13-14 12-20 25-25 38 12 4 19-1 27-5 5 1 13 3 17 4 8-16 31-40 24-52"/><path fill="#A49D65" d="M430 315c-80 24 14 38 36 46 14 1 23 0 31-3 8-2 14-4 17-9 0-7 2-12-1-15-3-6-7-10-12-13 0 6-1 11-3 15-5 8-8 16-15 18-20 3-31-11-46-14-8-8-12-14-12-22"/><path fill="#5B4C3D" d="M428 298c-10 4-21 8-30 15-49 51 45 45 68 59 15-1 24-1 31-5 8-3 15-7 15-14-4 4-10 6-16 8-11 2-21 1-30 2-27-7-50-16-73-24 5-12 19-19 31-24 5-3 2-12 5-16"/><path fill="#38513C" d="M310 172c-19 19-28 21-45 38-10 13-15 28-20 40-2 3-9 14-16 16-1 10 6 9 6 14 7 9 11-7 20-6 4-14 6-27 11-39 7-16 10-19 15-25 6-23 70-32 25-37"/><path fill="#2F4135" d="M341 377c-5 10-9 21-18 29 3-5 11 0 17-3 14 7 25 14 29 18-2 7 6-1 2 15-3 2-5 4-8 5 2-2-3-4-3-5 1 1 2 2 2 4-3 10-14 8-19 11 7 0 14 1 19 0 1-2 1-3 2-4 1 5 4 5 8 3 6 4 10-34 7-55-10-11-22-17-35-18"/><path fill="#74A74D" d="M368 237c2 3-3 3-3 3-5 8-12 16-16 27 4 4 8 6 11 11-3-1-7-5-11-7-6 10-9 19-11 30 10 5 20 11 24 18 2-1 5-3 6-5-1 4-6-1-7-2-3-7-1-13 0-17 4-19 15-35 27-48-5-7-1-8-19-9"/><path fill="#9CB75A" d="M221 218c-8 5-16 10-28 7-2 8-5 17-3 26 10 9 22 10 34 8 8-17 29-46-3-37"/><path fill="#9DB75A" d="M156 219c0 6-4 1-7 3-6 8-8 22-20 24 1 10 0 20 2 29 9 3 18 1 25-3 1-18 19-43 3-53M98 212c-3 5-2 12-5 17-3 0-3 7-7 6-1 11 3 18 5 26-18 2-22 5-30 13 2 11 6 23 12 34 8-3 15-10 19-18-2-28 9-48 2-78"/><path fill="#BECA6D" d="M99 207c-12 5-24 14-31 26s-14 25-8 37c5-3 15-9 29-6-1-11-5-18-6-26 8-5 5-6 9-8 3-7 3-15 6-21"/><path fill="#BBC86B" d="M172 182c-12 4-24 9-32 19-6 15-9 29-10 43 11-3 13-15 18-22 5-4 17-2 16 0 6-12 4-27 10-40"/><path fill="#2B3934" d="M397 394c7 11 13 24 25 33 27 8 47 3 67 7 5-5 2-8 2-12 1 3 0 6 1 10-8 1-12-1-17-2-9-3-8-13-7-17-4 3 4 14-4 13-10-3-15-8-21-13-1-3-2-6-1-8-16 1-29-4-42-10"/><path fill="#34543B" d="M484 271c1 7-2 11-4 16 5 3 9 5 13 9 5-1 6-3 8-4 0 2-2 4-3 6 3 4 5 7 8 11 7-1 11-4 16-6-2 5-9 6-13 9 5 7 5 12 8 17 4-2 12-3 13-1 3-8-4-14-6-24v-2l1-1h2v-1c-1 1-3 1-2 3-4-8-9-13-13-20-4 3-5 5-7 8 2-5 2-10 5-12-7-3-15-7-23-7"/><path fill="#344C3B" d="M189 231c-4 3-9 5-13 7-2-1-2-2-2-3 1 18-4 31-13 48 3 9 12 11 17 12-11 10-23 13-37 12 1 3 2 4 2 6 16-7 32-11 47-24-3-19-6-38-3-57"/><path fill="#688047" d="M240 238c-6 6-8 17-18 23-15 1-23-1-31-7 0 13 1 24 4 34 10 0 24-9 30-12-1-10 36-39 14-36"/><path fill="#2A3C37" d="M135 300c-5 11-11 7-15 19 6 1 10-4 14-9 0 11-1 14-7 18-13 2-27-6-37 5 9 6 17 14 27 18 1-2 22-9 27-20 2-13-7-20-9-30"/><path fill="#37503C" d="M127 249c-6 1-13 2-18 6 2 16-5 29-7 42 8 1 13 3 18 3 6-3 9-4 10-7-5-14-3-28-3-43"/><path fill="#BFCA6D" d="M406 219c-14 0-25 12-15 24 6 4 12 5 17 7 11-1 14-1 23-2-6-10-9-20-16-28-4-2-6-1-7-2"/><path fill="#657D46" d="M337 257c-14-5-24 16-39 22-9 1-14-1-19-3-8-3-14-6-18-11 0 8-1 17 0 27 11 5 21 6 30 1 8-15 35-19 44-38"/><path fill="#2C4237" d="M190 289c-13 15-38 19-47 28 14-1 24 4 32 9 11-5 17-11 22-12-2-8-4-16-6-23"/><path fill="#334B3A" d="M362 242c-5 5-13 1-18 5-7 8-7 12-19 23-7 5-16 10-25 14-1 3 3 3 2 7-5 5-9 13-11 19 4-2 16-5 23-9-4-1-8-5-12-8 4 1 14-11 23-15 3 0 6-4 17-4 6-10 9-21 18-30"/><path fill="#94B958" d="M400 217c-11 3-21 9-28 17 7 0 10 0 14 6 8 13 16 25 20 37 10-1 2-7 7-10 10-3 13-6 24-7-1-5-3-9-5-10-9 0-13 0-21 1-9-2-16-4-22-8-4-7-3-11-1-16 6-6 14-10 21-9-1-3-5-1-7-2"/><path fill="#6A9E4A" d="M180 394c-6 6-6 18 2 23 13-4 22 5 33 3 4-2 6-4 8-5-7-11-20-17-21-17-6-1-13-4-19-5"/><path fill="#2D3D34" d="m89 378-3-1c17 15 13 20 14 24-6 14-33 14-30 16 14 4 39-4 37-5 28-17 7-39-16-35"/><path fill="#9F6838" d="M464 301c1 9 0 20-4 28 10 6 23 5 31 1 2-10 0-17-2-24-8-2-15-4-23-3"/><path fill="#93B257" d="M414 217c4 5 18 9 26 17 5 1 6 4 8 5-5 5-10 4-13 8 2 7 5 10 6 14 13 1 26-8 33-9-10-5-21-11-31-17 2-4 5-6 9-11 0-2-2-2-4-3-10-4-21-5-33-4"/><path fill="#A0BB5C" d="M389 248c-10 9-18 21-23 33 6-1 13-3 18-3 7 0 8 7 9 8l-1 2 1-2c4-1 6-4 10-5-2-13-9-22-14-33"/><path fill="#4D6B42" d="M404 198c-13 3-29 16-36 21-10 8-19 14-24 25 4 0 9-1 14 0 11-15 25-24 39-29-3-11 5-14 10-17"/><path fill="#35583D" d="M452 272c-15-5-7 10-11 18 11-4 24-2 35-3 4-3 5-6 6-10-3-10-20-4-28-7"/><path fill="#374B38" d="M201 366c-2 4 4 7 6 9 9 6 16 3 23 1 6 1 8 6 11 9 2 14-5 27-10 33-8-1-16 8-25 7-5 2-7-3-10-4 4 2 6 6 8 7 10 0 16-2 23-4 1-7 13-3 18-17 3-6 5-14 5-20-4-7-11-10-18-13-10-5-19-7-28-8"/><path fill="#A0B95C" d="M201 370c-25 16-14 31 3 16 1 4 8 5 8 7-3 4 0 4-1 6 1 1 8 7 12 6 3-8 4-13 0-18-7-8-16-8-22-15"/><path fill="#667E46" d="m163 253-2 1c-2 4-2 8-1 13-1 3-2 4-2 6-9 5-19 7-26 6 1 6 2 13 5 20 8-1 11-5 18-6 2-6 23-39 11-40-1 5-3 9-5 13-1-4 0-8 2-11"/><path fill="#273737" d="M199 316c-7 12-13 16-16 20-10 1-16-1-25-1 4 4 7 13 13 13 19 0 51-10 26-31"/><path fill="#ECCF11" d="M458 302c-4 6-8 17-14 25-10-2-8-11-8-17-3 0-5 2-7 2-1 7 0 12 1 16 4 6 8 8 12 11 10 2 14-7 17-12 2-9 4-17 2-25"/><path fill="#694330" d="M495 322c-3 3 1 10-6 9-10 5-22 5-29 0-3 1-5 13-16 9 7 5 28 10 45 4-8 6-19 6-29 3 6 4 14 8 22 6 5-1 12-11 9-9 0-3 1-4 2-5 5-10-2-5 2-16"/><path fill="#6A9D4A" d="M495 382c-2 1-5 0-5 3 0 9 3 18 3 27 10-2 17-3 20-6-3-14-1-25-16-25"/><path fill="#7DA54E" d="M452 222c4 0-5 11-10 11 11 7 21 13 31 18-5 7-28 10-32 13 13 1 25-1 39 0-3-13-16-34-26-40"/><path fill="#35573C" d="M439 273c-12 1-24 10-33 12 4 4 1 12 4 17 9-4 18-8 26-11 3-7 5-12 5-18"/><path fill="#BD985B" d="M395 199c-18 4-31 17-50 19-9 13-11 27-20 37 23-16 42-45 70-56"/><path fill="#607F47" d="M133 211c-7 4-13 8-20 10-6 11-4 20-4 33 7-1 13-16 18-10 0-11 2-21 5-32"/><path fill="#537344" d="M230 274c-13 8-25 13-35 16 1 6 5 7 7 8 5-2 6-9 13-6 6 1 7 6 9 8 15-9 22-16 5-24"/><path fill="#527143" d="M131 294c-2 3-6 4-8 6-8 1-14-1-19-2-6 8-15 15-26 22 6 4 8 8 11 10 1-3 1-15 4-14 7-2 15-1 20-1 9-5 15-13 18-20"/><path fill="#667D46" d="M99 261c-2 1-5 0-6 3 0 9 2 18 2 26-6 9-14 17-21 20 2 3 2 7 5 9 7-4 18-13 21-18-1-8 6-17 5-24-7 1-5-5-7 5-1-8 1-13 1-19"/><path fill="#729F4C" d="M467 233c5 6 9 13 13 19 2 5 3 8 4 10 9 3 18 2 26 6-5-8-20-8-28-14 8-5 13-2 21-9-2-2-6-5-11-10-9 1-17 1-23-2"/><path fill="#4D6D43" d="M207 193c-5 3-11 3-17 2-7 15-16 29-15 42 5-2 9-4 13-6 4-15 9-26 17-36"/><path fill="#436B40" d="M337 305c-3 9 5 18 9 27 4 5 9 12 12 7 2-4 3-11 5-14-2 4-6 0-8-1-4-6 3-1 4 0-2-11-12-15-20-19"/><path fill="#6A9E49" d="M83 383c-2 14-21 4-27 13 4 7 10 12 16 11 10-3 28-16 12-22"/><path fill="#4F4035" d="M226 340c-2 1-5 0-6 3-6 5-4 13-1 16 4 6 9 5 11 1 11-8 17-26-4-20"/><path fill="#9DB65A" d="M327 409c-28 16-8 26 11 16 4 0 3-3 4-4-3-8-10-10-15-11"/><path fill="#3D563D" d="M406 194c-6 5-10 3-1 4-4 3-10 8-7 16 13-3 26-1 38 0-9-9-19-12-29-18"/><path fill="#293A36" d="M86 332c-5 4-13 10-18 9-3 4-1 10-5 14 5 4 5 4 14 4-5-8 6-4 10-12 1-4 0-9 1-13"/><path fill="#96A956" d="M383 187c-7 4-15 5-23 9-4 8-7 13-12 18 13-1 23-9 35-14-1-5-4-8-2-12"/><path fill="#527244" d="M159 286c-2 10-12 9-20 15-1 8 9 5 13 6 20-4 34-12 7-19"/><path fill="#A36F3C" d="M173 404c-10 6-21 14-26 25 9-3 20-3 30-6-1-7-5-12-3-19"/><path fill="#96B259" d="M55 269c-2 10-4 20-3 31 2 8 4 15 6 22 10 1-1-15 7-23-4-11-7-20-11-28"/><path fill="#9CAE59" d="M265 171c-2 11-7 20-12 29 9-3 17-9 24-15 7-13 3-16-10-13"/><path fill="#374838" d="M466 404c-39-4-16 20 0 21-1-7 0-15-2-21"/><path fill="#41372F" d="M115 355c4-1 15 8 6 12-9 1-18 3-26 2-1-7 3-12 7-12 6 0 7-2 11-1"/><path fill="#BB945B" d="M192 186c-8 10-16 20-24 29-1 11 1 23-2 32 9-19 12-42 27-59"/><path fill="#70A24D" d="M226 379c-3 1-5 2-7 2 5 2 6 7 8 11 2 9-7 14-3 17 7-5 13-10 16-17-1-9-6-12-13-13"/><path fill="#A0B55C" d="M484 387c-4 6-9 10-15 13-1 5 2 7 2 11 7 1 12 1 15-3 4-7 2-14 0-20"/><path fill="#C29B5C" d="M290 180c-14 6-24 19-39 23-2 8-1 15-4 19 14-9 27-27 40-40"/><path fill="#4F6C42" d="M299 288c-5 5-6 6-14 9-4-1-8 1-9 0-6-2-11-1-15-3 0 8 0 15 2 22 6-3 3-13 11-17 8-1 13 4 16 10 3-7 7-13 9-20"/><path fill="#394E3A" d="M71 312c-8 5-4 18-7 24 2 3 1-1 4 4 6 0 11-4 15-7-3-7-9-13-12-19"/><path fill="#A36F3B" d="M321 431c-9 3-13 10-16 17 17-2 48 6 14-17"/><path fill="#5C8B46" d="M546 385c-1 4-3 7-6 9 0 7 3 9 3 13 4 0 7 1 9 2 6-3 7-4 6-9-1-6-5-11-10-13"/><path fill="#A2703E" d="M53 397c-10 8-15 15-15 18 15-1 42 1 14-19"/><path fill="#5E8E47" d="M536 399c-6 2-13 4-17 6 0 5 0 9 1 12 7-1 13-3 19-5 1-6 0-11-1-14"/><path fill="#9F722B" d="M453 291c-7 2-15 2-21 5-4 9-4 18-5 26-2-13 12-13 12-24 9 3 13 6 22 3-1-4-3-9-6-11"/><path fill="#699C4A" d="M333 428c-14 1-10 3 3 15 12-2 15-2 16-9-5-5-13-6-21-5"/><path fill="#9EB75C" d="M365 285c-2 7-5 13-4 22 0 5 3 5 5 7 5-5 6-10 12-13-4-8-12-13-10-15"/><path fill="#2F4E39" d="M387 372c-22 5 20 23 28 26-2-8-19-13-26-25"/><path fill="#683C2B" d="M457 291c3-1 7 6 5 10 5 1 18 0 26 3 0-4-2-7-3-11-9-4-18-2-26-3"/><path fill="#3E563C" d="M203 178c-13 7-3 8-16 20 5-5 19-5 19-4 11-9 17-17-3-16"/><path fill="#97B159" d="M509 381c1 3 5 9 6 14 7 2 14-2 18-4-1-5-3-10-6-10h-15"/><path fill="#79994E" d="M77 186c-12-2-8 12-3 10 9-1 20 3 22-3-2-3-3-7-6-7-6-1-8 0-11 0"/><path fill="#5D8F47" d="M329 407c17 1 19 21 29 25 3-6 6-11 3-14-10-8-19-12-30-10"/><path fill="#B2C264" d="M376 279c-2 3-6 3-8 4 3 6 6 10 10 13 5-3 11-6 13-9 1-10-12-8-13-7"/><path fill="#534438" d="M290 317c-12-1 5 13 6 22 10 1 17-1 24-2 5-2 8-5 10-8-9 2-18 6-29 4-6-5-8-10-11-15"/><path fill="#618E46" d="M502 245h2c-9 9-15 5-24 9 19 7 51 22 21-11"/><path fill="#A5BA61" d="M450 218c5 4 11 8 15 13 9 3 17 4 25 3-12-9-24-14-39-15"/><path fill="#272E2E" d="M287 371c4 0 10 5 15 5 4 10 6 12 16 17-13-1-26-10-34-19"/><path fill="#3F362E" d="M198 357c18-4 2 6-1 12-7 1-13 1-16-4 3-7 10-7 16-8"/><path fill="#514639" d="M196 316c-6 2-12 7-17 10-7 1-9-2-12-4 0 4 4 10 1 13 4-1 8 0 12 1 7-8 14-14 18-20"/><path fill="#B58B54" d="M275 301c-4 4-5 9-6 14 8 1 14 3 19 0-2-5-2-10-5-13-3-2-5-1-6-2"/><path fill="#BDC96D" d="M419 221c6 9 9 18 15 26 4-5 8-4 14-8-10-5-18-12-27-17"/><path fill="#4A7441" d="M513 273c-1 2-1 5-2 8 5 7 9 13 12 19 7-4 5-12 1-16-3-4-5-7-10-9"/><path fill="#58463A" d="M226 305c-17 3 1 5 3 17 11-1 20-3 24-9-9 1-23 5-27-8"/><path fill="#77984E" d="M143 159c-3 1-9 10-10 13 0 4-1 8 2 10 8-2 10-4 11-13 3-5 0-4-2-9"/><path fill="#658847" d="M190 145c2 2 9 0 9 5-4 3-10 7-12 10 4 5 9 8 14 11 1-7 2-14 1-21l1-1-1 2c-2-3-4-7-10-5"/><path fill="#4E6640" d="M116 200c2 0 3 0 5 1-19 18 2 24 15 3-7-3-13-2-17-4"/><path fill="#5E9047" d="M512 406c1 6-17 3-20 12 9 2 16 2 23 0 2-5 0-7 1-12"/><path fill="#466140" d="M292 172c3 8-13 22-25 34 11-18 43-20 34-36"/><path fill="#BB955A" d="M114 209c-8 8-10 19-14 28 0 8-1 15 1 20 7-10 2-33 12-45"/><path fill="#4B3D34" d="M108 356c-28 12 5 15 14 8-7-3-10-7-12-7"/><path fill="#658549" d="M277 141c7-1 12 1 17 5 1 5-13 11-14 8 2 5 12 7 17 12 3-6 6-15 2-15-3-7-11-10-19-11"/><path fill="#628546" d="M425 175c2 5-7 9-10 9 1 2 4 7 12 11 4-4 8-2 7-5 0-8-3-8-9-13"/><path fill="#7EAF4E" d="M438 259c-11 5-12 3-23 9-6 3 2 8-7 10 10-5 20-8 30-11-1-3 1-5-1-6"/><path fill="#5F8246" d="M28 318c-4 9-11 8-7 15 6 1 9-1 14-2 2-9 9-14-7-12"/><path fill="#382D2A" d="m147 399 1 1c5 2 9 4 14 6-10 4-46 3-18-6"/><path fill="#AD8752" d="M147 320c-2 4 1 8 2 11 6 2 9 1 13 2 0-5 1-8 3-11-6-2-11-1-16-1"/><path fill="#2A4135" d="M516 327c2 8 2 18 1 25 13-12 19-31-2-22"/><path fill="#74964C" d="M183 146c-11-1-3 8 1 12 4-2 10-4 12-9 0-3-7-3-11-4"/><path fill="#2A3030" d="M287 372c-3 6 9 10 13 15-1 2-2 1-2 3 4-2 11 5 2-2 7 2 12 4 16 6-8-3-10-9-12-15-6-3-11-4-14-7"/><path fill="#619047" d="M90 386c2 3 0 3 3 5-7 10-11 16-21 17 4 3 8 2 10 4 8-8 21-17 9-25"/><path fill="#4E7742" d="M483 266c3 9 20 4 25 14 2-5 2-9 4-11-7 0-18-3-27-3"/><path fill="#4C7041" d="M438 189c-13 9-18 3-1 18 7-4 14-9 23-9-2-1-3-4-12-2-6 4-6 2-10 9-2-5-3-10-3-14"/><path fill="#76974D" d="M276 140c2 8 0 10 5 13 5 0 10-2 13-3-9-7-7-11-16-8"/><path fill="#B08752" d="M95 315c-9 19 9 7 16 10-4-5 3-2 3-6-5-1-11-3-18-2"/><path fill="#607D45" d="M335 233c-11 2-17 14-22 23 5-8 5 2 11-5 5-6 8-11 10-16"/><path fill="#3B5239" d="M52 224c-2 5-7 10-6 17-4 1-5-2-8-3 9 3 15 16 15 15-2-9 3-20 0-27"/><path fill="#957A4B" d="M259 215c-5 1-9 5-11 6 1 2-8 11-7 19 10-1 12-16 17-23"/><path fill="#668947" d="M35 246c0 6-3 7-6 14 11 0 32-11 7-15"/><path fill="#4E3430" d="M299 389c-5 3-2 10 3 9 8 4 17 3 24 1-10-1-18-5-25-9"/><path fill="#936037" d="M546 411c-2 1-2 4-1 7 8 3 13 7 19 9-3-8-9-15-16-17"/><path fill="#354738" d="M216 359c-30 6 24 6 28 20 1-12-14-9-28-18"/><path fill="#38523B" d="M330 150c-10 3-21 8-28 18 15-6 28-12 30-18"/><path fill="#2A3A34" d="M540 419c-6 5-12 6-18 10-2 2 0 3-1 5 4 2 6 2 7 1 7-5 9-9 12-14"/><path fill="#684330" d="M544 409c-4 3 0 12-4 15 10 4 20 7 29 5 1-3-14-2-22-10-4-2-4-6-3-8 4-2 6-1 7 0-1-1-2-2-5-1"/><path fill="#B18853" d="M210 294c-2 3-4 8-2 12 7 0 10-1 14-3-1-4-3-9-6-9h-3"/><path fill="#59483B" d="M495 299c2 11 3 6 5 20 5 3 9 6 12 11-1-11-7-19-14-28"/><path fill="#4B3D33" d="M199 359c-6 1-13 1-18 4 5 5 9 5 12 6 5-3 16-12 8-10"/><path fill="#9D6C3D" d="M189 419c-3 3-11 9-11 13 7-2 28-5 13-14"/><path fill="#6F9E4C" d="M535 391c-5 4-11 5-17 6-1 1-2 5-1 7 7-2 13-5 19-7 2-2-1-4-1-5"/><path fill="#597442" d="M327 248c-2 9-7 3-10 5-6 7-9 14-12 20 10-6 16-14 21-23"/><path fill="#364B37" d="M359 414c3 4 7 10 2 16-1 6-4 2-5 1 3 3 5 3 8 9 2-1 7-3 7-6-2-10-5-19-11-18"/><path fill="#6D8549" d="M111 202c-3 0-3 1-5 3 0 8-11 6-5 10 3-2 26-13 13-14"/><path fill="#588644" d="M482 264c-14 1-29 0-40 5 13-3 34 2 40-2"/><path fill="#55463A" d="M134 313c-12 8-13 6-22 14 4 0 8 2 13 1 4-5 9-8 9-13"/><path fill="#67422E" d="M325 434c4 5 9 9 13 14-13 3-25-4-36 1 17 2 62 10 21-15"/><path fill="#80984F" d="M106 204c-5 0-7 2-7 7-1 3-2 4-1 7-3 8-2 15-1 22 1-7 5-12 7-18-3-3-4-7-6-9 3 2 6-7 7-9"/><path fill="#2E3E36" d="M225 426c-12 1-12 2-22 4 3 2 27 6 27-3l-3-2h-1v1"/><path fill="#526A42" d="M70 312c-9 3-3 12-7 21-3-2-6-4-10-6 2 7 3 13 5 18 3 0 6 2 6 0 1-6 0-8-3-10 6-1 0-18 8-21"/><path fill="#7E994E" d="M175 186c-4 6-5 14-5 21 5-3 9-6 11-10-3-4-5-7-6-9"/><path fill="#547043" d="M186 177c-1 9-1 8-5 15 6-6 34-17 6-14"/><path fill="#43673F" d="M518 419c-8 2-16 2-25 1 3 8 24 5 25 2"/><path fill="#364D39" d="M493 421c-1 4 1 7 0 11 9-1 16-1 23-3-5-7-17 2-24-5M469 417c-1 4 1 7 2 10 7 3 13 4 18 5 1-11-18-3-21-12"/><path fill="#5E8F48" d="M437 269c-11 3-22 6-31 11 10-2 27-6 34-11"/><path fill="#36513A" d="M234 153c-10 4-22 9-28 21 3-5 21-11 27-19"/><path fill="#43683D" d="M241 393c-4 6-9 12-14 18 3 3 0 6 2 6 6-3 11-14 12-22"/><path fill="#3A553B" d="M542 413c-9 4-17 8-21 8-2 3 0 3-1 6 8-4 18-4 21-12"/><path fill="#8C754B" d="M107 257c-10 0-6 13-6 20 7-2 6-14 6-18"/><path fill="#905F3A" d="M302 431c-5 3-9 7-12 12 5 0 10 4 13-2 1-4-3-7-1-10"/><path fill="#5F9048" d="M405 280c-6 6-20 12-25 21 10-6 17-11 25-15-1-2 0-3 0-4"/><path fill="#43683E" d="M470 415c0 2 0 4-1 5 7 4 14 4 21 5-1-8-15-4-20-9"/><path fill="#6D4631" d="M174 410c1 4 4 8 5 12-11 5-20 5-28 8h24c14-8 5-4 0-20"/><path fill="#40322F" d="M146 400c-6 6-27 7 18 8-8-2-12-5-16-7"/><path fill="#B4C164" d="M199 388c-11 7 7 6 11 12-2-4 5-7-1-8-4-3-6-5-8-2"/><path fill="#68874A" d="M51 223c-5 2-13 9-15 8 0 0-1 2 0 4 2-2 3 4 7 4 2-5 4-10 7-14"/><path fill="#334C39" d="M132 295c-4 8-10 16-19 20 4 3 7 1 9 1l1-2v-2l1 3-2 2c-1-12 13-7 11-21"/><path fill="#6B8549" d="M392 188c-18 13 1 10 10 6-4-3-7-4-9-5"/><path fill="#F5F4ED" d="M443 301c-3 2-5 5-4 9 2 3 3 4 5 3 5-3 4-10 1-12"/><path fill="#293A34" d="M519 422c-1 2 1 6-1 8-10 2-17 2-25 3 10 1 17 4 26 2-2-4 0-9 0-12"/><path fill="#3C5539" d="M115 175c-5 12-17 20-11 23-7 2-14-1-20 2 7 0 13 2 19 1 6-10 9-18 11-23"/><path fill="#63854C" d="M320 147c-2 3-4 0-5 3-4 0-10 7-10 9 8-7 33-11 16-13"/><path fill="#709E4B" d="M328 408c-12 6-1-1 5 3 5 2 8 4 9 8 0 3 1 6-2 7 4 1 8 0 10 2-4-6-5-11-9-16-5-2-8-4-11-4"/><path fill="#5F814B" d="M231 150c-6 2-14 2-20 9-1 6 32-12 22-8"/><path fill="#607C46" d="M184 179c-3 1-6 0-7 4-3 7 3 9 6 12-7-5 5-9 2-17"/><path fill="#5A8B45" d="M378 302c-6 5-10 12-14 18-6-7-16-13-27-18 10 6 22 11 24 23 6-9 15-17 19-23"/><path fill="#654833" d="M197 422c4 7-11 7-16 12 6-4 33 4 17-11"/><path fill="#426841" d="M530 297c-1 2-3 4-6 6 3 8 6 13 7 18 1-9 0-16-2-22"/><path fill="#95B25C" d="M79 383c-6 2-11 4-16 7 7 2 20 0 18-7"/><path fill="#5E9047" d="M486 412c-3 3-10 5-14 4 3-1 23 10 18-4"/><path fill="#3D5439" d="M149 170c-1 7-6 13-4 22-3-2-6-5-10-6 2 1-4 4-1 5 5 2 4 4 10 3 1-12 7-15 5-22"/><path fill="#2C4835" d="M341 349c8 2 19 11 28 4-3 4-7 5-12 4-6-1-10-3-14-6"/><path fill="#6A4530" d="M559 398c3 4 4 8 4 13 5 1 9 1 13-1-20-26 11 14-19-12"/><path fill="#374C39" d="M358 437c-3 4-11 15-17 11 7 1 15 0 19-4 3-2 0-5 0-7"/><path fill="#69994C" d="M532 382c2 6 3 2 8 12 2-3 4-4 5-8-4-3-8-2-11-4"/><path fill="#4E6C41" d="M30 303c4-6 4 12 13 12-3-7-4-10-9-14"/><path fill="#624430" d="M60 405c3 2 5 5 7 8-10 1-18 4-26 5 9-2 42 5 20-12"/><path fill="#6B9E4D" d="M512 262c-2 7 5 11 10 15-2-5-4-10-7-15"/><path fill="#1A261E" d="M501 240c10 12 18 24 24 37 7 18 10 40 5 57 6-19 2-39-4-53-5-16-13-27-23-39"/><path fill="#44673D" d="M357 435c-3 8-13 9-20 9 4 4 5 2 6 5 7-3 12-8 14-12"/><path fill="#1B1817" d="M512 361c-5 4-15 10-24 11 4-1 8-2 11-4-5 9-12 12-17 17 7-3 18-12 29-23"/><path fill="#517044" d="M209 159c-5 12-6 6-8 14 3 3 0-1 5 0 1-8 17-11 3-12"/><path fill="#3E2E20" d="M449 313c-2 3-8 6-7 8-2-2-6-1-4-7 0 4-1 7 1 9 7 5 9-4 9-8"/><path fill="#5E7F45" d="M65 301c-2 4-2 11-1 16 6-4 5-9 1-15"/><path fill="#72924B" d="M414 174c0 1 1 5 0 8 5-1 8-2 10-3-4-2-7-6-9-3"/><path fill="#6F9149" d="M33 247c-3 2-9 5-8 11 3 0 11-7 7-9"/><path fill="#1D211B" d="M434 294c-13 5-24 9-34 16-5 3-6 5-8 6-3 5-6 9-8 13v3l-1 2c-2 7-5 17-2 25 5 9 10 18 19 23-7-4-14-13-18-21-2-12-2-21 2-29 3-9 8-14 14-19 12-10 24-14 36-19"/><path fill="#628146" d="M247 217c-8 5-9 15-12 23 2-6 8-13 11-21"/><path fill="#71914B" d="M47 219c-5 2-9 7-10 11 3-5 7-3 10-6 3-1 3-3 1-4"/><path fill="#836F48" d="M340 247c-5 3-15 8-15 10 3-1 5 0 8 0 2-3 4-6 5-9"/><path fill="#986A3E" d="M559 393c1 7 7 14 14 15-4-4-8-10-12-13"/><path fill="#2E4C3A" d="M421 396c-4 5 8 4 12 5-1-4-7-4-11-5"/><path fill="#374F35" d="M85 378c-9 7 18 8 14 18 0-7-9-11-11-16"/><path fill="#88744C" d="M172 243c-3 2-8 5-6 10 5 3 5-5 6-8"/><path fill="#35513A" d="M242 285c-3 5-11 12-17 16 5-4 25-11 20-16"/><path fill="#375037" d="M98 398c-3 4-4 10-10 12 4-1 9-2 11-6 0-2 1-3 1-4"/><path fill="#537444" d="M40 318c-2 0 1 6-4 12 4-2 7-4 9-8-1-1-2-3-4-2"/><path fill="#668947" d="M144 178c0 6-4 0-7 5 1 4 3 3 4 6 4-2 2-6 3-8"/><path fill="#354D3A" d="M195 295c1 3 4 6 4 9 5-2 5 2 7-6-2 3-6-1-9-1"/><path fill="#9B7C4E" d="M164 324c0 4-2 5-1 9 2 0 3 0 5 1-1-4 0-7-2-9"/><path fill="#7A934E" d="M384 187c-4 3-1 8 0 11-3-4 2-5 6-8-3-1-3-3-5-3"/><path fill="#313C31" d="M213 354c-2 7-6 3-12 4 9-1-3 7 6 0-2 3-3 4-4 5-3 3-5 3-6 6 17-6 44 3 3-5 4-2 5-3 6-4 8 2 13-2 8-4"/><path fill="#1B201A" d="M456 289c11-1 25-1 34 6 10 8 16 16 20 23 4 9 7 17 6 27 1-8 0-17-4-23v-2l-1-3c-4-7-9-13-16-18l-1-1-1-1-2-2c-9-7-21-7-33-6"/><path fill="#73A04D" d="M489 402c1 3 0 5-1 6-5 7-18 4-18 4 7 5 14 0 18-1 2-2 2-4 1-7"/></svg>