<svg xmlns="http://www.w3.org/2000/svg" width="600" height="600"><path fill="#856446" d="M417 89c6-1 7 5 11-1 6 10 1 18 7 25 1-2 6-2 6-1 0-8-7-13-3-20 3-4 6 1 8-4 7 9 3 18 5 25 4-1 11 2 11 6 2-1 4-2 5-4 26-6 17 15 1 18-3 20 12 39 13 60-7 3-11 4-14 2-11-3-7-14-16-16-9-7-19-7-28-12-22 32-40 67-57 102 2 5 10 0 14 8 7 5 4 14 9 18-5 3-2 10-3 16-6 8-12 14-15 18-4 14-7 25-10 36 8 28 3 48 5 76 2 15 10 26 17 38 1 9 8 17 6 26-8 2-15 2-21 2-5-5-7-8-10-11 6 2 7 5 9 8 7-1 14 2 20 0-17 4-20-10-31-12 5-15-5-27-1-45-1-18-15-29-13-45 8-14 4-32 1-46-2 5-6 9-8 14 2 24-3 40-3 62-5 26 9 42 10 64-3 3-5 2-6 3-1 4 0 8 0 9-9 1-16 2-22 0-7-1-9-4-12-7-4-20 4-34 8-49 0-17-3-31-9-43 6-14 8-28 7-43-2-11-5-22-12-29-13 8-24 23-34 33-5 10-3 20-8 27 7 18-6 30-2 48 3 20 18 31 16 49-22 5-3-5-32 1 0-24 2-37 3-61-2-13-8-23-13-32 9-9 1-18 3-26 4-3 7-1 9 0 6-5 7-11 10-16 2-9 0-15-1-22-12 8-21 23-30 34-5 12-2 24-12 31 3 18-10 30-6 47s10 31 11 46c-10 3-22 6-29-2 2-23 7-39 7-64-5-10-5-19-10-27 4-5 4-10 8-13-2-7-1-14-1-19 3-4 6 2 9 2 9-17 11-37 12-55-13 28-29 43-35 75-8 20-8 43-7 63-6 4-6 7-8 10-6-1-4-4-5-7 12-35 10-74 28-104 0-6 5-6 6-10-5 2-7 7-11 11 0 26-25 39-21 64-4 6-10 7-12 1 8-25 24-44 29-69 0-1-2 0-4 1-2 7 0 15-4 20-6 9-16 7-19 14-6 23-16 42-16 66-5 0-8-5-11-2-5-5-3-9-4-12 12-19 26-35 26-56 7-6 14-6 17-12 6-8 5-17 10-23 10-5 18-7 24-13 15-17 14-40 25-57 9-10 17-17 26-22 17-8 37-4 51-14 10-7 9-18 14-26 21-4 28-21 46-22 22-18 38-46 64-60-3-9-10-13-13-20-3-6-2-11-4-15 8 1 14 7 20 8 4 3 4 6 6 9 4-11-13-16-6-25"/><path fill="#5B311B" d="M366 274c-9 13-4 19-15 24 12-7 14 9 16-1 5 10-1 16-3 21-6 7-8 2-11-1 3 0 1-6 6-2 1-6 0-9 1-12-1 2 0 6 0 9-4 2-6-1-7 3-5 9-4 3-14 10 9 3 5 11 11 7-3 4 0 13-5 9 4 21 2 36 5 59 1-8 4-14 7-21-7-2-6-12-7-19 3-4 3 3 8 3 1-1 2-3 1-6 2-6-5-3-6-7 2-3 5-2 8-2 2-9 2-16 3-24 5-3 8 2 11-3-2 4-5 2-7 1 5-11 2-5 3-16 7 3 11 3 14 4-1-1 0-10-3-8 2-4 4-4 5-6-14-11-7-4-21-21"/><path fill="#512F1E" d="M286 336c-19 12-26 7-34 11 3 15-3 23-4 30-6 1-5 27-13 30-3 0-3-3-4-6 2 8 3 17 10 19l1 2h-3c-3 1 5 9 2 12 0-4 5-2 8-3-9 1-6-4-8-7 5-2 6-7 7 0 3-2 4-4 3-7-5 0-7-6-10-3-1-1-2-3-1-4 1-2 9-7 13-5-1-12 3-19 5-31 5-14 24-26 26-34"/><path fill="#EED796" d="M295 242c-10 8-25 9-39 10 3 1 0 7 4 10-13 6-6-3-25 6 6 6-3 9-4 16 4-5 8-10 17-10 11 5-1 16 11 17 0-6 2-12 2-16 10 2 11-4 16-7s8-5 9-12c10 3 1 12 19 11-3-4-7 3-8-5 7-7 5 0 5-8 0 2-3 3-5 4-5-2-10-3-8-9 2-4 18-4 6-6"/><path fill="#272222" d="M320 461c21 31-7 2 12 26-16-8-15 4-27-1-4 3 3 7-3 12 4 4 6 6 9 7 7 0 14 1 20 0 4-5-1-9 9-7-4-14 0-30-15-35"/><path fill="#5F2D12" d="M285 298c-7 5-8 1-10 7 0 8 3 12 11 13 0 5-1 8-3 12-5 0-7-2-10-3 2-4 2-6 3-7-1 1-3 3-3 5l-2 1 1 2-1 1h-2c-4 1-7-1-9-2 4 0 9-2 9-12-11-8-35-17-11 16 12 4 28 3 42 4 2-5-5-3-11-3 2-5 1-12 7-8-2 0-5-2-7-5 1-2-3-14-2-19"/><path fill="#624B3F" d="M318 357c1 27 2 19 4 37-1 9-6 12-7 14l-1-1v2c3-1 9 3 9 2 1 6-2 9 2 9-2 10-10 6-11 8-3-3-3-4-6-5 1 7 5 5 2 12 2-2 1-5 2-6 1 2 1 4 1 6-1-6 7-3 9-6 0 3 5 1 6 3-2 2-3 0-6 1-1 4-2 5-1 11-7 2-8 0-7-5-1 7-2 10-4 16 0 7 8 3 9 6 2-5 0-6 1-10 4-5 3-3 9 0 1-6 1-12 1-17-2-12 3-13 3-26-3 3-7 1-9 2 0-15 4-14 3-26-7-8 2-15-8-23"/><path fill="#E7B357" d="M229 264c-1 16-16 24-19 26-10 24 7 15-2 32 2-5 10-4 7-11 7-1 18 4 27 2-3-5-16-3-18-14 10-10-3-15 10-14-11 3-1-3-6-3-2-7-1-11 1-15"/><path fill="#A03F10" d="M408 141c-22 19-40 44-54 56-16 7-15 13-35 16-4 2 0 3 0 5-4-1-6-1-10 1-4 4-4 5-6 11 0 1 21-15 19-8 8 0 9-7 17-10 1 0 5 0 5 1 0-3-3 0-4-3 9-2 14-9 23-13 18-22 31-39 45-54"/><path fill="#904D1C" d="M217 314c-1 3-1 7-1 10-1 9 1 24-3 33 12-14 22-4 36-30 0-17-7 11-19 5-3-3-3-6-6-8-1 1-4 1-6 2-3-4-1-8-2-10"/><path fill="#351D0F" d="M345 308c1 12-18 18-16 31 3 16 2 10 7 26 7-7 7-23 10-26 0-7 1-7-7-12 2-7 7-4 8-9 3-3 3-7-1-8"/><path fill="#271E1D" d="M371 472c1 4 0 7 1 11-16-12-16 13-8 19 5 2-9-8-6-11 2 13 30 9 30 14-3-13-5-21-8-29 3 6-4 1-6-1"/><path fill="#684B3B" d="M373 304c-1 17-11 18-10 44-6-1-9 2-12 0 1 2 3 3 10 4 0 6-1 9-2 12-4-1-8-3-8-6 1 8 0 19 7 21-3 2-3 8-3 9-2 3-3 4-2 7-2 6 1 8 3 10 0-3 5-7 4-11-2 0-3-3-5-3 7-5 6 0 8 4 0-10-5-17-3-27-1-6 1-9 2-13 1-8 3-13 4-19 4-12 11-17 18-25 0-2-7 0-9-6"/><path fill="#D96E1A" d="M234 263c-11 5-3 19-7 24 5 4-3 7-3 11 4 6 10 7 17 8-5-1 4-7-3-12 4-5 7-10 12-5 2-3 1-6 2-7-2 1-4 0-4 3-2-4 1-5 2-7-12-4-14 6-20 9 0-9 9-14 4-21"/><path fill="#2A201C" d="M196 474c-13 8-12 2-14 21 8 5 18 1 25 3 0-7-1-14-1-20-4 1-7-4-9-5"/><path fill="#211B1C" d="M245 464c2 2 7 2 9 5-1 5-6 7-4 9-5-1-7-4-10-6 0 6 3 9 1 16 7 6 17 5 26 6-7-9 0-18-9-25-3-1-7 0-12-5"/><path fill="#6A4732" d="M386 212c-6 7-4 7-9 15 1 1 3 1 5 2-6 8-10 14-15 18-7 9-10 17-15 28 5 1 8 0 10-2 7-22 12-24 26-53-2-2-1-5-2-7"/><path fill="#331C0D" d="M245 307c10 14 2 26 6 40 9-4 16 0 33-11-1 7-5 11-8 15 4-4 8-10 12-14-11-1-21-3-31-6-6-7-7-14-11-21"/><path fill="#51301F" d="M329 348c-3 6-3 4-10 10 10 6 3 18 9 25 1 6-1 17-5 24 4 2 6 2 7 1 0-2-4-2-2-5 4-7 3-6 7-11-5 1-6-4-5-7l-1-2v-1l1-1c2-10 1-7 6-20-7 1 2-18-9-10"/><path fill="#624C3F" d="M364 412c-12 19 3 51-7 64 5 5 9 4 12 6 3-8-6-7-7-8-2-8 0-15 5-16-3-12-6-28-2-44"/><path fill="#6C523F" d="M335 305c-2 1-5 6-8 4 0 5 6 4 1 7 3-1 8-5 11 0-2 3-3 6-5 7-9 0-17-4-20-6-2-4 4-3-3-8-7 11 5 24 9 25 7-1 14-10 19-16-1-5-1-9-3-12"/><path fill="#F1E2AC" d="M355 204c-5 4-8 9-2 11-8 4-13-5-17 2-4 8-10 17-9 21 2-4 5-12 8-21 9 5 6 14 11 19 5 3-1-9-2-12 12-8 50-5 9-12 3-3-1-4 1-5"/><path fill="#916744" d="M337 254c-3 1-4 2-5 5 3 7 4 7 9 4-1 13 1 25 5 30 2-8 3-12 7-21-4-3-6-2-8-1 2-5 6-5 9-4-7-4-12-5-15-12"/><path fill="#F3E7A5" d="M408 146c-9 5-2 22-18 19 1 8 0 16 2 22 6-3 0-10 1-16 6-2 11-3 14-8-7-14 18-14 4-18"/><path fill="#DA750C" d="M368 191c-3 8-14 9-12 19 1-6 11 9 16 0 3-7 2-13-3-19"/><path fill="#91714C" d="M194 396c-2 17-7 35 3 43-11 1-4 10-9 11 4 0 6 1 8-1 2 7 1 14 4 15l-3-12c-2-4-1-7-2-8 2-16 4-14 5-21-2-1-4-2-5-1 12-1-7-14 8-10-5-2-10-9-7-13"/><path fill="#694B37" d="M345 297c-5 11 13 14 3 24 2-2 4-5 5-3 5 2 1 5 9 2 3-7 9-13 5-21-4 3-1-3-7 0 2 4 0 9 1 13-3 6-5 0-7 4-2-5-4-9-2-16-3-1-5 0-6-1"/><path fill="#B1906B" d="M313 232c2 5 7 9 9 15-2 6-9 1-5 5 3-2 4 2 6 2-6-5 1-3 2-5-4-4 0-4 0-5 21 18 13 14 28 21 2-1 3-2 4-3-7 3-11-4-14-9 4-2 7-6 11-4-5 0-1-7-5-8-3 2-9 1-10 8-5-7-8-3-12-5-7 1-9-9-13-11"/><path fill="#D4B78F" d="M271 287c1 2-4 5-3 7-5 0-10-1-12-3-12 4 1 7 8 9 10-5 29-2 28-13-7 6-16 3-20 1"/><path fill="#AF8D5C" d="m206 350-2 1c-1 11-7 18-7 31-2-9 24-26 12-33"/><path fill="#4C4342" d="M251 450c-1 4-1 7-10 3 3 5 8 3 11 6-5 1-10-2-12-2 7 7-4 17 8 20-1-10 5-4 8-13-3-2-4-8-5-12"/><path fill="#F4E4AF" d="M378 184c-1 3-6 3-7 5 5 6 4 16 7 22l6-3c-2-9-3-17-6-23"/><path fill="#F7F7EC" d="M322 269c-19 2 2 15 14 11-1-6-5-10-11-11"/><path fill="#804419" d="M336 221c-3 6-2 13-5 18 1 2 4 4 7 7 3-4 7-5 5-9-1-6-3-11-4-15"/><path fill="#DA9A41" d="M282 248c10 3 0 15-4 19-5-5-3-9-8-12 4-3 7-4 10-5"/><path fill="#993F11" d="M131 412c-3 10-17 21-16 34 1-2 0-3 0-5 4 2 8 0 10-3 3-10 4-18 7-26"/><path fill="#9E947E" d="M196 451c-4 1-8 1-7 7 3 2 6 2 8 4-3 2-5-1-9-1-2 1-1 3-2 4 1 3 2 5 4 9 2-9 12-3 11-7-2-2-2-2-4-3 0-6-1-9 0-13"/><path fill="#E6DBB9" d="M314 273c-2 7 7 11 6 18 4-1 6-2 7-4 3 5 9 7 14 7 2-2 0-3 0-5-5-2-9 2-11-1-4-2-6-2-7-3 6-1 20-3 16-2-8-3-13 0-17 1 1-2-2-7-4-8"/><path fill="#612D0D" d="M243 320c-6 1-11 1-16 3 1 6 3 10 10 8 4-4 11-8 8-12"/><path fill="#523220" d="M344 309c-1 3 0 7-4 8-9-4-19 5-27-6 4 7 9 10 15 10 5 2 7 0 9-3-4 8-9 15-16 17 3 1 3-1 5-1-3 4-2 9 0 9 0-2 2-4 2-6 2-12 14-16 16-26"/><path fill="#A07750" d="M353 248c-3 2-7 3-10 4 4 4 5 11 12 8 6-9 7-17-3-10"/><path fill="#B09064" d="M307 286c-12 0-5 15-13 17 1 5 5 4 6 8 6-4 0-7 0-15l3 1v2c2 3 2 7 4 6-1-1-3-3-4-5-4-10 15-10 5-14"/><path fill="#5D4943" d="M249 432c-2 2-5-1-7 1-2 4-1 8-2 11 4 4 7 1 9 4 1-7 1-11 2-17"/><path fill="#6C4D3C" d="M370 272c1 17 11 13 12 23 2-5 1-9 1-14-3-3-6-4-8-7"/><path fill="#9D4514" d="M246 289c-19 3-1 1-5 15 3-6 4 6 12 1-6-6-3-9-3-14-2-1-2-3-4-3"/><path fill="#A98C74" d="M308 330c-2 5-2 4-6 8 2 2 9 5 12 11 1 4-1 5-2 7-4-4-6-8-7-11 2 8 5 11 5 16 5-3 6-4 5-11-3-7 1-16-6-18"/><path fill="#E9DAB8" d="M458 156c-6 5 0 20 3 27 3-5-5-14-4-20 11-2 9 8 12 13 2-1 3-4 5-1-2-10-9-7-13-18"/><path fill="#5E3215" d="M289 263c-3 2-4 0-5 5 2 1 4 9 5 11 5-2 7-5 8-8-2-3-5-7-10-6"/><path fill="#CFB688" d="M308 276c-10 5-14 15-13 26 2-6 5-20 18-18-3-3-3-5-4-7"/><path fill="#74442A" d="M397 191c-4 6-5 9-8 15-2 4 2 7 0 12 5-9 5-10 10-18 1-5-2-1-2-7"/><path fill="#89674A" d="M213 357c-3 7-7 13-9 21-2 4 2 3-3 14 10 5 7-5 10-5-2-1 0-5-1-7-3 0-6 5-7-1 6-8 9-9 9-21"/><path fill="#A5957E" d="M311 469c-6 5-2 12 2 16 2-3 3-7 6-11-2-2-4-4-6-4"/><path fill="#F5F0E1" d="M457 162c6 12 3 20 9 26-10-20 10-3-2-22 0-3-2-2-3-3"/><path fill="#EB9C25" d="M216 290c10-1 1 12 4 15-2-4-8-5-10-7 0-4 2-6 5-7"/><path fill="#3A200E" d="M363 276c-3 2-7 2-10 4-3 4-4 7-5 10 5 1 9-3 11-3 0-3 2-6 3-9"/><path fill="#964D19" d="M284 267c-8 11 3 8 7 18 6-5 9-8 14-10-2-2-7 0-7-4-2 4-4 7-7 9-3-3-7-6-7-10"/><path fill="#5B3017" d="M224 347c1 3-6 0-7 7-2 5 1 7 0 11 5-4 7-9 10-13 3-1-3-1-1-4"/><path fill="#4F3521" d="M351 224c-7 4-1 9 0 15 5-4 7-6 9-10-2-2-5-3-8-4"/><path fill="#EEDCB0" d="M380 178c1 9 4 17 7 25 2-2 4-6 5-9-1 1-1 3-2 3 4-7-7-12-8-17"/><path fill="#663B1D" d="M408 177c-3 4-6 4-11 13 2 3 1 6 2 8 3-7 20-24 8-18"/><path fill="#AD6440" d="M401 102c0 9 9 8 5 16 5 5 12 8 14 9-13-6 2-10-19-27"/><path fill="#562E18" d="M326 292c8 9-6 6-3 7 2 7 4 9 8 10-2-2 8-4 5-10-10 2 7-6-8-4"/><path fill="#9A714B" d="M325 262c0 6-25 0-16 8-6 5-11-2-9 2 3 1 7 0 9 2 15 21-2 12 18 39-11-10-6-23-16-38l-1-1v-3c5-1 11-9 20-3-1-4-3-4-4-6"/><path fill="#D46B0A" d="M293 247c-7 1-1 8 2 9 4-1 7-1 8-4-1-4-5-4-8-5"/><path fill="#8D755F" d="M368 457c2 4-6 2-6 8 0 8 4 10 8 11 3-8 2-14-3-17"/><path fill="#C8671B" d="M377 170c-11 22-42 30-48 41 10-7 13-6 27-15 1-6 15-13 21-23"/><path fill="#924B19" d="M268 279c-1 2-5-1-6 1 6 4-7 7 1 13 4-3 12-13 7-15"/><path fill="#974A13" d="M354 225c3 1 5 3 7 3-1 7-10 9-9 15 12-4 24-19 3-18"/><path fill="#503323" d="M358 433c-6 6 1 23-3 33 10-6 2-20 3-32"/><path fill="#BD9265" d="M249 298c12-1 17 14 26 18-1-7-3-11-7-11 2-3 2-1 5-2s-3-3 1-5c-3 0-13 0-6 5l-1 2-2-1c-6-6-3-2-14-6"/><path fill="#6D3712" d="M368 229c-1 8-12 12-15 16 4 1 7 1 10 2 1-7 7-11 7-16"/><path fill="#1D1A16" d="M440 90c-2 10 2 16 9 13 0-3 2-8-3-10-1-1-3 4-5-1"/><path fill="#715138" d="M214 355c1 17-8 16-11 29 3-2 6-5 7-7 2 7 0 11 0 15-1-18 9-20 5-34"/><path fill="#C77623" d="M286 276c-9-2-6 7-6 13 5 0 8-2 11-3-2-3-11-4-5-9"/><path fill="#3C2211" d="M307 327c6 2 7 11 14 8-2 3-4 2-5 3-1 5 0 8 1 11 8 0 5-9 8-13-4 2-12-2-15-8"/><path fill="#412009" d="M278 318c-2 2-2 4-3 7 2 2 3 4 6 3 5-11 13-9-2-10"/><path fill="#56473F" d="M252 405c-3 3-14 0-11 9 3-3 10 0 12 4 0-3 4-9-2-11"/><path fill="#D27912" d="M282 251c-2 2-5 2-8 2 2 3 1 7 2 11 7-1 12-16 7-11"/><path fill="#1F1C17" d="M428 89c-3 6-5 5-8 1 5 9-6 6 3 14 1-3 4-5 7-2-2-5-1-7-2-12"/><path fill="#EDDEB2" d="M434 127c-1 1-2 0-3 1-5 2-8 7-8 1-3 4-5 13-6 19 6-3 2-7 5-15 3 1 13 2 5 5 8-1 3-6 2-8 12 6 19 4 4-2"/><path fill="#CDBA96" d="M195 382c-5 2-5 2-8 9 3 0 5-4 7-5-1 4 0 9 5 7 2-2 2-5 3-7-6-6-5 3-10-2"/><path fill="#BA8C62" d="M444 150c9 11 1 19 10 19-3-5-4-12 3-13-3-4-7-4-10-5"/><path fill="#D7BD8D" d="M458 136c-6 3 3 8 2 20 1 0 3 2 4 5 0-11 0-9-5-25"/><path fill="#3C2211" d="M354 298c-1 3-4 13 3 15 0-6 3-14 0-16"/><path fill="#98451C" d="M194 329c-5 15-19 15-29 21 3 0 6-3 9-3-1 3-1 7-3 10 5-9 12-15 22-17-1-4 0-7 1-10"/><path fill="#EB9012" d="M218 291c-3 1-7 1-8 5 3 3 7 5 9 8-1-7 1-6 0-14"/><path fill="#933B11" d="M162 433c-3 14-13 22-3 22 9-6-2-14 3-19"/><path fill="#6A3318" d="M202 394c-1 3-5 5-5 8 5 6 17-11 7-8"/><path fill="#E27F09" d="M255 255c-6 1-11 3-17 5 3 3 0 5 2 5 6-3 10-5 13-9"/><path fill="#DD8416" d="M333 219c-5 2-10 5-14 8 4 0 5 6 7 5 3-5 5-9 4-12"/><path fill="#D8B994" d="M384 207c-7 8-9 14-20 10 6 4 9 4 13 5 4-8 3-7 7-13"/><path fill="#BEB7A4" d="M317 387c-2 1-3 3-4 5 1 4-2 8 1 10 0-9 11-1 4-16"/><path fill="#88491D" d="M271 315c-3 5-3 18-13 10 4 2 7 4 11 3 1-5 11-12 5-11"/><path fill="#D97F0C" d="M387 168c2 4-6 4-6 7 1 5 3 6 4 8 7-2 2-8 4-15"/><path fill="#B39976" d="M310 294c-3 1-2 4-2 7 11 8 3 7 13 10-4-5-7-11-9-18"/><path fill="#602F1A" d="M471 117c-3 4-7 8-11 11-1-4-1-4 0-1 2 1 5 5 7 4-4-1-3-4 1-7 7-3 20-6 5-7"/><path fill="#635047" d="M347 389c-1 9-8 11-2 16 7 0 4-9 3-13"/><path fill="#7C300A" d="M252 311c2-1 5 1 7 1-1 4-2 6-4 7-4 0-3-4-5-7"/><path fill="#3B1E0F" d="M419 157c-5 5-4 12-8 13 5-1 9-2 11-7 1-2-2-3-2-5"/><path fill="#B78F62" d="M457 121c-7 1 4 13-4 11 4 1 11 11 17 9-7-3-12-6-13-19"/><path fill="#9A6A47" d="M433 161c-14 7 6 5 14 9-2-1-7-5-13-7"/><path fill="#90725A" d="M321 431c-1 2-5-1-6 1-1 5 0 7 0 12 5 0 3-8 6-12"/><path fill="#532B17" d="M375 229c-2 5-3 9-9 16 4-4 18-13 12-17"/><path fill="#CEB58F" d="M317 229c8 5 1 9 4 11 4 3 6 2 9 4-6-3-3-11-11-13"/><path fill="#F5F2E7" d="M312 233c-9 2 3 10 6 14 0-5-3-9-6-12"/><path fill="#6B5041" d="M324 343c3 8-11 7-7 14 8 0 9-7 8-12"/><path fill="#7E4219" d="M310 256c-3 1-3 4-9 4 11 1 18 6 12-3"/><path fill="#7E6B5D" d="M309 464c-2 5 7 4 12 8 2-8-6-6-10-9"/><path fill="#6A230A" d="M322 220c-2 0-16 8-15 11 4-3 17-9 18-12"/><path fill="#77563B" d="M198 404c-1 5 3 4 6 6-14-2 3 10-9 10 3 2 4-2 5 0-3 3 1 8-3 11 1-4 4-5 4-8 2-5 3-8 4-10-1-8-2-7-6-7"/><path fill="#A06740" d="M427 149c-1 2-2 5-1 9 2 0 4-1 6 0-2 1-3 1-4 2 2 0 3 1 4 0 3-3 4-5 6-6-4 0-9 2-12-3"/><path fill="#96714D" d="M310 304c4 8-9-2-7 8-4-1-5-4-6-4 0 4 2 6 3 9 6-11 13-2 13-13"/><path fill="#5F3013" d="M333 263c7 11-4 6-2 4 4 4 7 7 8 12 1-5 2-8 1-13-2 0-4 2-6-1"/><path fill="#0E0A08" d="M426 138c1 6 1 4 6 10 3 0 4-2 6-1-3-6-7-6-11-7"/><path fill="#7F624F" d="M316 406c-6 4 2 9 1 11 2 0 3 2 5 2 2-10-2-8-9-10"/><path fill="#D1BA93" d="M471 173c3 15-3 8 0 15 1-6 6-2 8-1-2-4-4-4-5-13"/><path fill="#603118" d="M317 418c-8 8 4 13 7 3l1 3-1-3c-1-1-4-1-5-3"/><path fill="#CF6D15" d="M401 151c-4 5-5 8-10 12 8 1 10-3 10-10"/><path fill="#A59788" d="M349 402c3 17 4 9 10 13 0-3-7-11-8-10"/><path fill="#D4B185" d="M210 338c-7 0-5 6 0 10-1-3 5-5 3-10"/><path fill="#563415" d="M402 170c-7 3-7 7-5 14 1-5 8-10 5-14"/><path fill="#CDBC9F" d="M229 376c12 0 4 13 7 20 1-8 2-7 2-17-1-3-4-3-5-4"/><path fill="#CFBDA0" d="M343 294c3 12-9-2-5 15 7-1 5-9 6-13"/><path fill="#554C45" d="M324 457c4 3 2 8-15 5 9 3 25 3 21-4"/><path fill="#E8DAB7" d="M307 275c-7 4-11 10-14 17-4 5-1 5-1 10 2-10 4-22 15-25"/><path fill="#F4EDD1" d="M282 266c-3 5-8 4-12 9 2 2 4 3 5 3 3-4 3-9 8-11"/><path fill="#5B3F34" d="M252 421c-3 8-4 0-10 2 1 2 4 4 0 5 3 2 5 1 6 2 4-2 1-6 3-7"/><path fill="#E59316" d="M222 274c-3 4-6 8-9 13 5-2 10-4 9-11"/><path fill="#EDDBB8" d="M278 277c-2 3-6 3-6 10 1 3 1-2 5 2 1-4 0-7 1-10"/><path fill="#382F2D" d="M327 488c10 4-2 10-7 4 2-1 4-1 5-2"/><path fill="#5A331C" d="M362 395c-2 3-5 6-5 11 5 2 6-9 7-11"/><path fill="#C5732B" d="M219 313c-3 2-2 8-1 12 18-11-8-3 3-14"/><path fill="#A69174" d="M312 411c-7-1-2 5 0 9 6-4 2-5 1-9"/><path fill="#BBAD9C" d="M312 371c-2 2-3 4-2 7 2 7 3 1 5 4 2-4-4-11 0-10"/><path fill="#181214" d="M337 491c7 0 2 11-5 6 11-1 2-3 2-6"/><path fill="#3D1D0A" d="M291 323c1 3 0 5-1 7h7c0-2 1-7-4-5"/><path fill="#986C43" d="M192 397c-3 3-7 3-10 5 1 7 4 0 5 3 5-2 2-5 4-7"/><path fill="#D7A562" d="M208 324c1 5-1 8-1 12 3 1 4 0 7 1 0 0-4-7-4-12"/><path fill="#5F4331" d="M352 418c2 5 2 17 3 19 1-7 3-14-2-17"/><path fill="#F4EED5" d="M304 247v-1c1 0 2 3 4 3-3 5-5 8-9 9 8-5 24-13 9-11"/><path fill="#D7A05B" d="M228 315c-8 9 5 6 8 1-1-1-4-1-7 0"/><path fill="#6B3C24" d="M365 278c3 0 4 7 5 9-3-2-6-3-7-4l-2-2v-1h2"/><path fill="#534238" d="M311 468c21 5-4 14 13 18-2-5 1-8-2-12-3-3-5-4-7-5"/><path fill="#5F4C40" d="M346 408c-3 6 2 11 4 17 0-6-1-12-1-17"/><path fill="#AA8961" d="M191 431c-1 3 0 8-2 10 9 3 4-8 5-9"/><path fill="#87350A" d="M252 312c-3 0 1 5 1 8 4-2 4-4 5-6 0-2-2-1-3-2"/><path fill="#583E33" d="M331 373c2 9-3 7 0 17 1 2 2-1 3-1-1-5 2-8-3-14"/><path fill="#EBD7B7" d="M362 221c3 6 4 3 12 8-1-6-7-6-10-8"/><path fill="#CBB39B" d="M305 312c3 6 2 7-4 5 5 6 10 10 12 14-5-5-7-13-5-18"/></svg>