<svg xmlns="http://www.w3.org/2000/svg" width="600" height="600"><path fill="#376D6A" d="m371 129 2-2c12 1 25-1 35 5 12 8 22 18 29 28 27 4 51 8 75 13 118 30-40 6-69 11-11 3-16 4-21 8-9 13-18 21-25 32-2 14-1 24 3 34 4 8 12 10 16 15-3 4-8 3-11 5 5 13-3 18 0 33-21 20-28 45-55 74-9 6-17 11-25 18 3 2 7 4 9 8 2 12-1 20-7 28-6 7-14 6-19 6 2-6 8-7 9-13 1-7 3-14-4-14 1 3 3 7 0 11 0 8-5 11-9 14-5 5-12 5-16 5 4-6 9-10 10-17-6 7-10 16-21 16-12-5-11-23-16-32-8-1-9-5-16 0-5 4-10 6-14 9-5-1 1-6 1-9-7 4-13 6-18 10-10 16-18 30-26 42-2-7 4-16 6-25-1 1-5 9-7 4 3-6 6-8 7-12-15 10-29 20-45 29-7-3 7-12 10-18-10 6-21 15-29 20 10-14 19-21 30-30 20-28 40-57 59-86 3-6 6-11 1-15-9 3-18 2-26 5 5-9 15-16 21-23-19 11-41 18-64 22 2-8 7-12 12-19 7-2 12-4 16-6-7-10-21-6-32-7-7-3-12-5-16-8 2-4 3-6 4-9-21-8-42-14-64-21-13-9-24-15-35-23 28 1 59 10 89 16-18-8-37-17-56-25-11-10-22-18-30-26 26 2 52 11 79 19-10-7-17-12-26-19-10-17-19-30-28-45 19 4 40 15 56 32-3-9-9-15-14-22 0-14 3-24 4-36 10 21 17 42 24 63 4-9 1-39 0-55 31 26 59 50 84 73-4-21-9-41-15-62 12 9 19 18 29 26 0-2 0-5 1-7 13 12 26 25 30 44 9 11 20 17 24 21 9-12 26-33 37-58 0-4-7 3-10 2 9-15 18-30 29-45 9-8 17-11 26-12"/><path fill="#102229" d="M274 300c-13 23-17 51-28 75-9 17-20 31-29 46 5-4 12-5 17-9 1 3-9 16 0 8 12-10 20-9 36-20 5 1 1 6 3 9 8 0 10 0 18-3-1-1-3-2 3-6-2 0-3 3-4 3-2-9 0-14-1-21-2 3-4 5-6 6-1-4-2-8-1-11 2-4 4-5 6-6-4-1-5-5-4-6 4-6 8-10 12-12 0 3 0 7-1 11 10-5 12-9 24-12 4 11-5 19-7 28 4-1 7-3 9-4 7-12 11-23 10-37-17-31-22-22-18 9-6-5-7-8-11-10-4 4-8 15-11 7-3-5-1-8-2-14-2 8-11 13-6 24-8 2-12 5-17 6 6-18-1-42 7-60"/><path fill="#102625" d="M163 275c-5 4-5 7-1 9-3 2-5 1-9 2 13 7 33 6 47 13-6 11 20 9 14 15 5 2 4-8 9-8 1 7-20 21-27 30 14-3 18-1 30-10 4 2 6 3 9 4-6 16-19 21-26 38l-2 1-2 2 3-1 1-2c2-3 3-5 4-8 4 0 6 1 6 3-3 8-12 22-18 32-20 26-37 46-52 65 17-9 36-22 50-30 16-40 33-77 45-116 58-38 62-42-6-6-4-8-11-14-19-18-3-3-5 1-5 2-18-4-35-7-50-15"/><path fill="#1A3349" d="M44 210c-1 4 8 9 12 11 14 6 28 3 40 7 2 3-1 5-1 8 6 7 14 12 19 17 15 7 29 12 41 23l3 1h1v2l-2 2c-8 7-20 6-25 16 15 2 31 5 44 2 10 3 22 8 25 9 0 9-9 4-14 6 10 0 24 0 28-2-3-1-8-2-11-5-6-2-3-4-3-6-16-7-34-8-49-12 0-6 6-4 8-3 1-4-3-3-2-6 2-3 3-4 5-5-12-8-23-16-34-24 9-1 17-3 27-2 6-7-13-9-18-12 12-5 5 6 20-2-11-5-8-6-18-7-4 9-9 2-1 7l-3 2-3-1c-28-8-60-19-87-26"/><path fill="#183341" d="M291 282c-15 11-32 17-46 29-2 7-2 11-4 15 4 4 7-5 10-3-11 21-15 8-17 25 0 13 9 22 10 32 11-25 15-54 28-80-4 11-2 29-4 44 4-2 7-4 10-6 4 1 1 4 4 6 1-4 7-12 8-14s0-6 2-9c-4-6-9-6-10-11 13-16 6-21 11-26"/><path fill="#227E71" d="M183 212c6 9-11 12-8 37 9 1 15 2 23 5 3-3 0-7 3-10 24 7 44 15 66 21-6-7-11-15-15-19-10 0-15-5-29-5-14-6-25-21-37-29"/><path fill="#56AE81" d="M35 243c11 8 25 16 35 22 16 6 27 10 43 14 7-2 15-7 21-12-26-9-66-17-97-24"/><path fill="#2B4344" d="M233 350c-15 38-33 81-46 115 14-24 33-50 55-84 0-11-8-20-9-29"/><path fill="#ADF5F7" d="M372 129c-7 2-15 2-21 7-9 7-14 14-18 22 11-9 25-1 40-5-3 6-9 8-14 12 9-6 17-2 25 2 18-16 1-27-12-40"/><path fill="#132C46" d="M395 159c-1 2-4 3-8 8 1 9 11 11 4 23-4-3-15 11-22 14 4 9 13 15 11 25 10-7 2-13 4-23 7 7 11 14 9 24 6-15 19-29 19-32 8-5 13-14 23-14-7-5-15 9-39 3 9-1-8-10-7-20 2-6 12-10 9-8"/><path fill="#0E212E" d="M366 227c-4 2-7 4-11 6 10 6 16 15 21 22-5 26 2 32-4 59-7-9-13-15-17-22 1 10 4 21 4 29v3l-3 1c-3 6-10 9-12 17 10-9 5 7 14-2 2-4 0-9 0-14 6-3 10-5 11-11 2 6 1 12 0 17 4 5 6 7 8 9 5-2 6-8 8-12-1-6-1-10 0-14-3 4 0 9-2 13-4-3-6-2-7-5 6-10-1-27 10-34-12-11-2-22-8-32-7-10-8-20-12-28"/><path fill="#3A4230" d="M319 353c-5 3-13 2-16 8-3-1-6 2-8 3-6 11-3 24-6 35 3 2 4-1 6 0-5 5-3 5-3 8-6 0-10 7-12 3 0 1 0 3-1 5 5-5 4 5 8-2-7 12 0 8-6 16 16 1 12-17 21-10 0-3-1-2-2-2 8-14 15-26 20-39-3 1-5 3-7 4-2-3-1-4 0-5-4 4-6 8-9 13-1-8-2-19-1-27 6-5 10-8 18-10"/><path fill="#278095" d="M65 164c13 17 21 37 35 51 6 0 10 0 13-2 0-6 1-14 1-18-14-17-31-21-46-31"/><path fill="#1C6257" d="M142 172c0 15-6 17-2 32 15 6 30 10 43 17 2-3-5-6 1-12-13-10-28-24-41-36"/><path fill="#ABEADC" d="M136 149c-3 4 1 9 0 13 14 15 30 30 45 43 4-2 9-5 13-4-16-18-38-33-56-51"/><path fill="#6FEBEC" d="M376 128c-2 5 14 15 19 17-2 5-4 6-6 9 9 3 20 4 24 11-2-8-5-15-10-17 9-4 10 11 17 2 0-5-4-11-7-14-10-6-22-9-34-7"/><path fill="#55C6A7" d="M240 202c1 5-4 10-2 15-5 4-10 7-16 8 4 3 8 6 11 11-2 1-5 1-6 3 10 2 21 3 31 6 10-7-9-15-1-22-8-3-10-13-16-19"/><path fill="#15514D" d="M293 292c-3 5-6 11-9 16 0 7 5 6 7 11 0 9-1 17-1 24 4-2 7-5 9-8 6 2 7 6 11 8 5-16-4-19-4-36-9 4-8-10-13-13"/><path fill="#62BBA7" d="M326 248c6 24 9 48 15 70 6 0 11-1 15-2-6-24-17-45-29-66"/><path fill="#12313E" d="M370 315c-1 6-4 10-11 9 0 7 2 12 1 15-10 5-6 1-16 2-5 5-8 15-13 17-5 15-13 24-17 41 9-9 17-36 29-47 12 0 19-8 31-2 6-11-14-19-2-33"/><path fill="#B9E2AB" d="M305 263c2 15 1 30 3 44 5-3 8-8 11-12 1-4 0-7-1-9 4 1 5 3 6 5 5 7 7 14 12 19-3-6-7-11-10-17 2-5 5 1 7 2 0-7-1-13-3-19-12-2-13-13-23-12"/><path fill="#1D7469" d="M373 236c2 15 9 23 14 42 6 4 10 8 16 9-6-20-3-12-13-30 4-11 3 10 8 4-1-10-5-13-5-19 2 4-4-2-5-3 2 4-1 4-2 6-6-3-8-6-12-7"/><path fill="#34DDC5" d="M361 239c-2 7-2 16-4 23-5-3-10-4-14-8 1-5 4-6 5-9l-6 6c-19-9 12 18 15 23 8-4 16-3 19-10 0-10-8-16-13-24"/><path fill="#6CDFD2" d="M221 176c-1 2-3 5-3 8 6 10 10 18 16 27 5 0 4-6 6-9 6 6 10 13 14 20-1-7-1-15-3-22-5-7-8-12-12-17 0 4 2 10 2 14-6-8-12-13-18-19"/><path fill="#0F2427" d="M183 314c-5 1-9 3-13 5-9 3-12 11-18 16 14-2 21-3 37-8 26-14 20-14-7-12"/><path fill="#24927F" d="M201 246c-6 14 23 16 33 15 9 3 14 8 20 10 8 0 11 1 12-5 4 1 4 3 5 3-5-8-10-15-16-21-1-1 9 12 13 17-23-5-43-13-64-19"/><path fill="#2AD4CF" d="M144 254c21 10 41 22 63 29 6 0 6-4 9-5-21-14-47-16-70-23"/><path fill="#234246" d="M160 246c-35 11 24 12 34 19 5-3 5-1 7-6 9 3 6 3 15 2-17-2-36-10-53-16l-3-1h-1v1"/><path fill="#2A3D65" d="M54 220c16 18 42 26 57 32-5-4-11-9-17-13 0-5 2-7 3-10-14-4-29-1-41-8"/><path fill="#115355" d="M366 206c5 4 8 9 6 16-3-5-9 2-12 4 3 5 5-7 13-2-1 5 0 8-2 10 1 8 4 16 4 19 4-2-3-11-3-16 10 10 15 5 19 2 3 0 2-8 5-11-6 4-2-17-11-19-2 8 5 14-3 22-2-10-8-17-15-23"/><path fill="#166041" d="M152 261c-12 2 16 15 21 20 12 3 20 6 29 8 4 1 4-3 5-3-18-7-35-17-52-25"/><path fill="#1E6376" d="M115 198c-1 4 0 10 0 14-4 3-7 4-10 5 4 5 13 9 16 13 6-3 10-9 15-11-6-7-13-14-19-19"/><path fill="#BAE4B6" d="M219 264c-33-3-5 6 5 13 10-2 19-2 27-4-5-4-9-6-13-10h-19"/><path fill="#2BA79B" d="M267 274c-8 4-17 6-24 11 5 5 4 11 12 13 12-7 33-12 10-23"/><path fill="#225251" d="M358 348c-4 5-7 3-13 5-7 4-11 11-14 19 1-3 4-4 5-7 9-1 15 0 21 1 1 2-1 2-1 5 7-7 28-25 3-22"/><path fill="#A7F1E6" d="M205 160c5 18 10 40 15 57 3-5 4-10 5-16-2-7-5-12-8-17 2-4 2-12 5-8-6-5-9-11-15-15"/><path fill="#1D70A3" d="M360 177c6 6-7 13 8 25 6-2 10-8 17-10-2-7 5-11 0-13-7 1-12 4-16 5-4-3 3-3-6-5"/><path fill="#5E7051" d="M342 380c-4 2-9 0-13 1-7 9-11 18-16 26 3 0 5-1 8-3 4 7 8 9 14 12 0-6-6-10-12-12 8-9 50-34 12-14 0-4 6-6 8-9"/><path fill="#329D9D" d="M112 141c-3 12-3 21-5 30 5 6 6 12 10 12 4-2 9-1 7-5-3-12-8-23-11-35"/><path fill="#1D3635" d="M216 357c-5 12-44 56-28 53 10-9 19-26 27-41 4-5-2-10 3-12"/><path fill="#245B57" d="M386 290c3 9-4 31 2 33 8-6 16-9 15-21-4 3-7-10-13-11"/><path fill="#2DABA1" d="M348 161c-7 1-1 6-1 9-2 10-6 20-11 28 5 0 9-2 13-4-2 8-8 12-6 19 9-1 11-9 14-17 2-10-7-2-9-12 0-4 3-6 4-8-2-1-2-5-5-3-1-5-1-8 0-10"/><path fill="#457567" d="M323 302c3 1 13 12 16 21-9-4-23-8-26-14 3 8 7 12 10 16-2-2 2-3 0-4 4-3 6-2 8 0 3 11-1 18 7 26 3-5 6-8 8-12-4-10-8-18-8-25 4 9-9-3-11-6"/><path fill="#151F2E" d="M425 178c-8-1-8 3-11 9-20-1-20-1-1 1 9-11 77-3 95-4-28-4-54-6-81-7"/><path fill="#1E4D4D" d="M135 301c23 6 43 6 65 13-4-8-14-10-21-13-15 2-28 0-40-2"/><path fill="#249187" d="M297 263c-3 3-20 7-29 11 3 5 7 8 10 11 12-6 21-12 21-22"/><path fill="#3A6F54" d="M137 267c-7 4-14 8-20 13 14 9 38 12 20-13"/><path fill="#206F76" d="M359 279c0 2-2 3-1 6-23-8 7 13 12 25 3-6 2-11 4-16-8-9-9-8-14-13"/><path fill="#3B9382" d="M166 216c0 4 1 12 0 18 0-1-6-2-4 3 4 3 6 10 11 10 0-9 5-17 5-25-3-3-7-6-10-5"/><path fill="#1A5450" d="M319 200c-6 9-11 17-18 28-1 5 5 2 4 8 1-10 12-14 19-19 0-3-3 1-7-1 2-4 5-2 7-5 0-6 1-8-4-8"/><path fill="#4ACFC6" d="M302 260c-3 9-5 18-8 27 3 7 4 13 7 19 6-12 1-29 3-43"/><path fill="#D6DC95" d="M360 155c-11-2-10 5-10 13 12-3 23 4 34 2-7-5-15-10-23-4 4-5 7-8 12-10-4-2-8-2-12-2"/><path fill="#516A47" d="M319 355c-5 1-9 5-14 6-3 14 2 27-8 35 9-13 20-25 23-40"/><path fill="#86D7C8" d="M115 196c9 7 23 24 31 26 1-6 4-8 3-12-11-5-21-8-31-14"/><path fill="#9BDCCD" d="M197 200c-26 4-10 10 2 21 3-1 6-5 8-8-3-5-7-8-12-11"/><path fill="#28413D" d="M186 401c-9 16-23 36-51 57 10-5 18-13 27-16 4-4 14-17 21-26 3-3 2-9 4-15"/><path fill="#2C685F" d="M339 365c-15 11-11 19 7 13 4-4 9-7 11-11-6 0-11-2-18-1"/><path fill="#164856" d="M138 218c-15 10-21 15 0 18 11 4 22 7 33 11-4-3-8-5-11-10-6 4-15-1-21-1-7-6 3-6-1-8 2 8 6-7 12 4-10-7-6-6-11-12"/><path fill="#38A086" d="M212 217c-1 5-3 6-5 11 5 3 7 8 12 10 12 4 2-2 14-2-7-6-13-13-20-16"/><path fill="#2BA995" d="M256 248c6 6 11 13 16 20 6-1 9-2 12-3-3-5-10-10-14-16-6 0-9-1-11-2"/><path fill="#6EE1CC" d="M359 202c-1 7-15 19-8 22 4 0 11 1 15-6 3-14-5-7-7-14"/><path fill="#45D4C9" d="M321 241c-2 2-5 2-7 4 0 3-1 9 3 19 4-3 7-5 9-8-4-8 4-13-3-15"/><path fill="#13323D" d="M320 406c-4 1-7 6-9 6 3 5 8 3 9 11 0 6 0 12-5 16 4 0 8-7 10-11 3-9 1-17-4-22"/><path fill="#5BEFD7" d="M358 239c-6 2-9 8-14 12 4 6 8 8 11 11 3-8 3-16 5-23"/><path fill="#99E6CE" d="M226 201c0 8-6 14-5 22 7-1 12-2 17-4-4-7-7-12-11-16"/><path fill="#294C52" d="M309 413c-6 9 1 22-10 28 1-6 5-8 5-18-3 3-3-3-5-4h1l-2 2c-3 4-6 2-4 9 4-2 3-4 4-10 9 8-7 26-2 22l2 2-1 1c6-2 10-5 12-11 4-6 3-14 1-18"/><path fill="#0F1F27" d="M211 272c8 5 16 9 23 14 12-5 21-9 30-13-12 2-26 4-39 6-5-4-9-4-11-7"/><path fill="#527A56" d="M278 339c-9 4-11 11-12 20 5-1 9-3 13-4 2-7 0-11 1-17"/><path fill="#BCF6E8" d="M315 226c-1 2-3-1-4 1-1 10-4 12-4 15 1 8 7-1 12-1-2-2-5-1-6-3 13 2 18-13 1-10"/><path fill="#143236" d="M298 354c-5 2-9 5-13 8-4 5 2 6 4 7-5 0-8 11-7 17 4 0 6-3 7-6 0-9 6-15 7-25"/><path fill="#153248" d="M384 291c-7 8-1 20-8 27-1 6 3 6 4 8 4-12 7-18 5-34"/><path fill="#9DF7F1" d="M272 249c4 4 9 10 14 14 4 1 5 0 7-1 4-3-1-7-2-9-7-3-12-2-17-4"/><path fill="#75E4DB" d="M304 243c-9 2-4 6-7 9 2 0 4-2 7-3 4 5 0 5 0 12 4 3 8 1 10 2 0-4 2-12-6-10 2-4 4-5 6-6-2-5-4 5-9-3"/><path fill="#8FC3B7" d="M490 170c-7 2-16 2-22 5 15 3 69 2 20-6"/><path fill="#1F6878" d="M421 144c3 6 1 14 2 20-3 3-4 0-6 0 8 9-8 1-4 7 5 1 7-1 11-3 1-4 2-6 2-9 1 2 5 2 3 6 3 0 5-2 5-3-5-4-4-13-12-15"/><path fill="#B2C885" d="M334 182c-3 6-7 13-9 20 3 0 5-2 8-1 2-7 13-16 2-19"/><path fill="#34877D" d="M345 262c5 2-1 10 3 14-5-3-7-6-9-10 4 8 7 19 11 24 3-1-3-3-3-8 4 5 5 2 10 1-1-2 1-2 0-5-1-4-10-10-10-15"/><path fill="#37AC98" d="M253 201c4 12 2 23 5 32 4 5 8 10 2 11 6 2 11 3 15 3-3-5-10-6-15-11 0-7-3-11 2-15-2-6-6-11-8-17"/><path fill="#11203E" d="M392 193c5 5 0 11 8 14-1 7-7 2-5 8-5-2-6-4-7-7 5 2 0-12 3-13"/><path fill="#499C8D" d="M328 248c6 14 12 25 17 25-1 0 2-6 0-9-5-7-11-12-15-14"/><path fill="#12383E" d="M380 268c-3 8 5 14 6 21 8 1 12 9 15 13 2-17-17-19-23-31"/><path fill="#2F6871" d="M327 413c1 7 1 13-3 17-1 5-4 10-9 13 6-1 11-4 13-10 3-7 10-16 1-19"/><path fill="#B8D5B0" d="M350 319c-2 1-5 0-6 2-1 5 1 8 2 12 4-3 19-15 5-15"/><path fill="#2D8286" d="M125 183c-22-4 4 20 6 17-2-5-2-11-6-18"/><path fill="#4E637F" d="M443 164c-5 3-10 7-15 8 13 3 49-11 14-7"/><path fill="#489286" d="M326 306c-20 10 7 10 12 17-4-8-7-10-12-16"/><path fill="#407C6B" d="M398 263c1 2-1 9 2 12 5 1 10 0 13 0-4-7-7-7-13-11"/><path fill="#2B5E44" d="M137 265c5 6 7 14 9 19 2-1 5-2 7-2-2-9-9-12-14-15"/><path fill="#76A0B3" d="M470 167c-38 8 1 8 17 2-6-1-10-1-19-2"/><path fill="#1E373A" d="M288 414c-8 12-16-5-22 8 3 5 9 2 12 4 8-5-1-4 9-11"/><path fill="#3C5740" d="M373 354c-10 12-25 23-36 34 3-2 6-3 10-4 11-11 18-17 24-29"/><path fill="#3BDFCF" d="M353 177c-2 2-5 3-6 7 4 2 4 5 6 6 5-2 7-5 9-6-3-4-5-5-7-8"/><path fill="#176C6F" d="M358 190c3 7-4 13-5 20-6 2-9 4-13 6 1 2 3 3 4 5 2-3 7-3 8-10 3-5 6-7 7-10 2 3 7 2 9 3-5-2-5-9-8-12"/><path fill="#27B3AB" d="M366 273c-12 6-6 3 2 13 1-4 5-5 5-8-2-4-4-5-5-6"/><path fill="#1FA49E" d="M217 278c-3 1-3 4-5 6 4 2 8 3 11 6-6-3 7-2 4-6l-9-6"/><path fill="#1F6F6B" d="M265 226c-1 3 1 7-1 10 4 3 7 5 10 7 3-7-2-11-8-17"/><path fill="#4A9F8E" d="M160 212c2 8-1 17-1 25 10 1 6-10 6-21-1-3-3 0-4-3"/><path fill="#122B33" d="M315 393c-3 7-10 13-13 21 9-5 18-15 11-18"/><path fill="#B0DEBB" d="M512 176c-26 2 25 4 37 9-10-4-21-7-32-10"/><path fill="#164047" d="M332 182c-9 3-11 13-16 20 1-2 6-3 6 1 4-7 6-14 9-20"/><path fill="#1B6483" d="M384 172c-10 5-23 4-15 12 4-3 14-4 17-11"/><path fill="#264143" d="M268 403c-10 3-3 5-2 13 5 2 7-4 9 1-3-3-6-9-4-13"/><path fill="#1C333C" d="M291 426c-1 9-10 15-14 18 5 3 8-3 11-4 7-8 6-6 4-12"/><path fill="#16272C" d="M266 424c1 6 1 16 10 17-3-3-4-10-1-14-2-1-5 0-7-2"/><path fill="#111F3D" d="M393 196c-4-3 0 16-7 9 4 5 5 7 7 8-1-4 5-1 7-3-3-7-9-6-6-15"/><path fill="#63E2D1" d="M348 197c-4 1-9 2-13 4 0 4 1 7 3 9 4-4 7-8 9-13"/><path fill="#61927C" d="M327 320c-8 1-1 11 3 14 2-2 2-8 0-11v-2h-1"/><path fill="#103F45" d="M330 203c-1 1-2 0-3 1-1 4 2 10-3 12 3 1 4 1 5 1 1-5 4-10 3-15"/><path fill="#78D7E1" d="M340 156h-1c-1 2-5 2-9 6 4 1 28-4 13-8"/><path fill="#2E485B" d="M425 175c-30 3 68 0 82 6-18-2-48-6-75-6"/><path d="M281 428c-1 1-2 0-3 1-3 2-2 4-3 5 3 3 5 7 7 5 10-15 3-6-4-8"/><path fill="#6DBBAD" d="M157 212c1 14-6 6-1 23 2-8 4-14 3-22"/><path fill="#96E8CF" d="M364 169c-11 13 10 5 15 2-4 0-9-1-13-2"/><path fill="#9BCCB8" d="M302 234c-5 1-5 7-10 8 8 1 18-3 11-7"/><path fill="#166C73" d="M234 286c4 4-4 4-5 7 2 2 4 4 5 6 4-3 4-6 5-8-2-2-1-4-4-2"/><path fill="#92F1EE" d="M234 175c-1 10-1 15 6 22-1-6-3-14-4-19"/><path fill="#2AAAA4" d="M352 240c-9 3-8 7-22 4 5 1 3 4 11 6 5-3 8-6 10-10"/><path fill="#DEEDD6" d="M320 285c-1 10 5 16 13 22-5-6-7-13-12-19"/><path fill="#40D4BA" d="M323 219c-9 6-5 9 3 9 1-1-3-5 3-9-2 0-3 0-4 1"/><path fill="#1B5656" d="M272 232c6 5-1 14 13 15-3 1-6 1-8 2 5 1 12-2 15 1-6-4-12-10-19-17"/><path fill="#2B4763" d="M428 159c-8 17-5 13 14 6-6-4-9 2-12 1-1-3-1-5-4-5"/><path fill="#B0E8DC" d="M207 213c-1 4-6 7-5 10h-1l1 1 2 2h2c1-4 6-8 4-12"/><path fill="#1F775B" d="M131 252c6 1 14 14 20 9-5-3-12-9-18-9"/><path fill="#81EEDD" d="M328 257c-1 4-4 8-6 12 0 2 1 1 3 2 7-1 3-9 3-12"/><path fill="#1F6171" d="M334 166c-11 8-13 10-17 17 14-6 12-8 18-17"/><path fill="#53A295" d="M151 210c4 7-7 16 1 20 2-7 2-13 2-19"/><path fill="#A8F0DE" d="M352 169c-8 1 9 10 9 3 0-5-4-3-6-4"/><path fill="#1A3C57" d="M379 310c8-1 1 9 0 12-4-2-1-6 0-9"/><path fill="#3AA6A5" d="M339 163c-3 1-7 0-8 3-1 1 4-3 6-2-2 4-2 8-3 12 6-1 7-10 7-14"/><path fill="#134342" d="M308 309c-1 7 1 15 4 17-2-6 3-12-3-16"/><path fill="#226D5F" d="M137 165c2 6 0 14 1 20 4-3 0-15 5-13l-4-4"/><path fill="#79A77D" d="M329 294c3 6 5 14 10 16-7-1-7-1-2 1-1-6 0-15-7-16"/><path fill="#0F3F4E" d="M245 294c-9 6 0 11 6 5-1-2-3-2-5-3"/><path fill="#45D0C9" d="M420 151c-4 0-3 5-6 2-1 3 1 4 1 5 3 1 5 2 6 1-1-3 0-6-1-7"/><path fill="#0B3A4D" d="M370 222c-7 4-1 9-1 13 1-3 4-7 3-11"/><path fill="#274F50" d="M334 342c-2 4-1 10-3 14 3-2 5-5 7-8-2 0-2-3-3-4"/><path fill="#1B2430" d="M508 184c16 3 30 1 44 4-12-1-25-5-41-5"/><path fill="#7F9F71" d="M337 177c-7 4 1 4 4 7 3 0 0-3 2-4-2-1-3-2-4-3"/><path fill="#114E5B" d="M240 291c-1 3-2 5-4 7 2 3 4 3 4 5-3-1 5-10 3-10"/><path fill="#198B8B" d="M229 283c-1 7-10 5-3 8 3 0 6-1 8-2-2-3-3-4-5-3"/><path fill="#278C85" d="M261 223c-2 4-2 13 4 16-5-2 0-12-1-16"/><path fill="#5EB1AC" d="M336 235c-3 2-7 2-9 4 2 5 16-3 10-3"/><path fill="#4F392B" d="M400 161c13 13-7 2 6 10-12-1-10 0-14 4 4 3 12-3 13 0 2-7 1-11-2-12"/><path fill="#9DD3A1" d="M316 274c3-1 3 6 2 9-2-1-7-4-5-7"/><path fill="#2B454A" d="M253 319c-6 10-15 7-14 19 4-5 8-11 12-17"/><path fill="#134031" d="M209 286c-10 6 6 8 6 2-1-1-3-2-4-3"/><path fill="#35828E" d="M339 165c-13-2-16 9-24 19 3-3 13-19 22-18"/><path fill="#40CBBA" d="M335 205c-2 3-2 8 0 11 2-3 8-1 6-7-2 7-5 0-6-3"/><path fill="#317F90" d="M412 181c-4 1-6 2-9 4 3 2 15 1 11-5"/></svg>