<svg xmlns="http://www.w3.org/2000/svg" width="600" height="600"><path fill="#507186" d="M33 124c15 1 30 6 44 10 24 7 45 16 64 27 40 16 68 52 100 73 15-6 28-13 42-17 15-3 27-5 39-6 31-2 58 0 84 4 22 2 40 8 56 16 20 8 37 23 52 35 5 0 11 0 14 2 11 5 17 11 20 21 1 7-1 12-3 17 7 12 7 27 19 33 0 15 2 29-1 40-17 16-29 42-54 49-21 8-43 7-65 9-2 17 13 24 21 33-16 3-28 1-38-6-14-6-24-17-29-28-3 6 0 10 2 14 5 12 15 15 21 25-19 3-34 1-46-8-17-8-30-21-38-35-9 0-23-5-27-1 2 18 11 31 19 44-12 2-21 2-30 2-9-3-15-6-22-9-16-8-30-21-36-36-16 4-29 10-44 13 3 10 13 15 20 21-10 1-17 1-24 1-15-4-27-10-38-19-30 1-53-5-77-13-15-8-29-15-41-26 19 4 38 9 58 10 11 1 20 3 27-2 7-3 11-6 13-11 11-15 14-32 21-47 6-8 6-18 7-27-1-9-4-14-6-19-5-6-10-8-17-8-15-3-28-4-41-7-20 3-38 8-55 14 11-11 23-19 34-33 8-10 10-20 8-32-3-25-11-46-19-67-10-20-21-38-34-54"/><path fill="#0A1E37" d="M180 282c-130 15-16 19 17 35 39 17 55 30 83 45-5-7-13-9-18-15 8-1 32 13 26 5 19 8 34 18 48 31-13-8-25-17-39-24 10 11 23 17 34 27-9-3-18-7-26-14-4 9-6-5-6 6 3-2 8 2 11 0-5 3-8 4-12 3 3 1 7-1 9 1-12 3-21 3-28 9 15 7 29 10 45 15 3 5 5 7 7 9-7 0-21 4-20 9 16 0 52 8 71 5 0-8-10-10-11-19-2-8-1-15 0-15-6-7-13-6-22-15 0-9 5-10 5-12-5-11-5-12-9-17 1 7-8-7-10-1-5-3-7-6-8-9l-1-1v1c14 21 16 23 21 37-14-16-27-35-37-53-10-13-22-24-34-30-21-7-40-11-60-12-29-1-52 5-76 10 7-6 28-9 33-10"/><path fill="#E6F5F2" d="M343 213c-15 0-29 2-42 4-23 3-40 11-58 20-56 41-8 6 19-5 5 5 20-4 30-5 7 2 11-2 13 3-9 4-19 2-26 7 8 1 15 4 23 5 29-3 57-5 83-10 14 2 24 10 39 6 0-2-5-6-1-8 0 5 10 15 4 21-12 5-24 4-34 6 24 8 49 12 71 26 19 14 32 32 41 50-2-14-10-26-12-41 0-10 0-18 8-22-10-4-20-4-29-8-16-7-26-19-40-25 16 8 43 18 56 15 19 11 31 28 44 42 2 5 1 7 0 10-7-3-11-7-16-10 8 9 14 17 17 25 2 9 3 16 2 24 5-12 8-26 3-38 0-6-4-7-4-9-5-8-9-14-14-19-15-15-30-26-44-37-17-9-33-15-49-19-26-5-51-8-76-8-4-1-5-1-6 0"/><path fill="#2F6A94" d="M359 267c8 4 16 11 24 12 10 9 27 21 36 36 13 0 21 10 28 13 14 12 23 20 35 36 10 2 19-2 27 2 5-5 5-9 4-13 2 3 2 5 2 7 1-24-4-20-8-39 5-3 15 2 20 5 8 0 2-5 2-7-8 4-21-11-24-5-1-2-2-5-5-5 3 10 10 20 7 31-10-16-19-32-34-43-12-1-3 8-7 11-36-20-70-22-105-41"/><path fill="#14264C" d="M115 196c21 17 18 24 27 26-10 3-13-2-21-7-5 9 2 14 6 19-6-3-9-7-14-7 0 3-4 9-7 13 3 1 3 4 5 5-9-6-21 3-21 0 2 15-3 28-10 36 0 9 5 10 15 14 28-10 43-15 68-22-1-9-11-13-6-23 2 1 14-6 14 6-12-23-35-40-53-58"/><path fill="#387590" d="M300 258c-76 8-20 22 20 50 18 5 33-6 50-8-12-15-9-22-25-33 4-3 5-1 7-1-19-7-35-3-55-9"/><path fill="#4598B4" d="M332 248c-1 1-3 0-4 1-9 3 1 5 3 10-19 4-33-12-48-6-13 2-14 13-30 14 2 6 9 6 8 11-73-5-31 2 18 15-2-2 5-2 3-6-9-7-17-13-25-17 18-6 26-16 43-12 16 1 29 5 41 2 44 20 83 26 123 45 2-2-2-10 7-9-10-9-21-15-32-21-18-5-33-11-49-16-1-4 8-7 11-6-25 5-44-4-68-6"/><path fill="#323E55" d="M246 346h1c6 4 13 7 18 11-8 3-9 11-12 18-40 13-74 40-108 60-14 3-30 3-44-1 14 4 27 9 43 8 11 2 19-3 35-5 23-11 43-34 69-43 64-10 52-27-5-49"/><path fill="#4597B3" d="M133 175c1 4-1 3-3 2 4 6 10 9 16 12-4 7-20 0-27 6-25-19 28 23 34 33 14 15 23 28 31 41 7 0 12-1 17-2 8-8 17-13 23-21-4 2-3-4-7-5-4-8 5-12 2-14-10-13-21-17-34-19 11 9 13 22 13 33 0 16-7 9-5 19-7-11-14-21-16-32-11-6-18-24-30-32 10-3 21 2 30 6-2-2-3-5-4-8-13-8-25-14-37-18"/><path fill="#162848" d="M276 392c-4 2-7 4-11 6-1 6-1 10-1 13 0 7 4 12 4 15-12-5-34-15-28 2 4 0 5-4 9-2 6 3 10 6 14 9 9 12 15 24 20 33 9 9 28 4 41 6-5-3-7-23-17-26 0-5 1-6 2-7-3 5-11 2-15 4-7-2-10-4-14-6-10-7-12-17-15-25-1-5 0-6 2-7 8 1 14 5 21 7 11 4 13 13 20 21-1-8 1-13 5-18 6-4 12-1 17-1-2-3-4-5-7-8-13-6-29-9-45-17"/><path fill="#23436C" d="M182 315c-3 7-10 9-16 14 6 2 6 7 7 14-2 8-10 8-11 13 7-3 11 9 15 10 5 4 0 7-2 5 6-1 10 4 11 9 8-17 31-21 38-41-14 0-17-20-35-21-2 5-8 10-10 17 0-7 6-14 6-20"/><path fill="#687F9C" d="m353 356 7 7c-3 5-7 9-9 13 21 8 41 13 59 21 3 2 6 5 6 4 1 3 1 4 3 6 7 5 14 9 20 12 22-1 40 5 57 2 1 1 2 3 1 4 0-2 1-3 2-4-4-5-18-15-25-16-27-5-17-1-57-5-1-4 2-4 6-3-3-5-9-7-11-11-10-8-21-10-31-11-13-6-19-9-27-18"/><path fill="#7F97B1" d="M390 328c-9 14 6 26 9 38-2 2-7-4-11-6 4 6 6 12 10 17 14 5 26 22 39 23-9-1 23-1 36 3 13 7 11 0 30 16 26-8 32-31 50-37-4-2-8-2-11-7-10 14-15 29-32 36-13-4-23-12-36-14-12-1-23 1-31-2-26-6-23-25-35-34-6-10-6-21-9-29 0-2-4 1-8-4"/><path fill="#E4F5F3" d="M393 311c12 6-3 8 12 18 9 7 18 16 28 22 13 4 22 13 33 17 7-1 9-2 10-5-4-13-25-29-40-39-7-6-14-7-20-4 2 3 10 5 8 9-12-5-20-13-29-17"/><path fill="#505F77" d="M349 377c13 11 29 17 41 28 4 4 19 4 25 9 4 2 7 4 8 7-1 5 4 8 0 9 20 7 45 2 67 1-7-1 4-3 5-7-13 3-31-6-51-2-10-4-17-8-25-12-2-9-2-7-8-11-19-9-39-14-58-22"/><path fill="#041A29" d="M51 147c8 8 12 20 18 30 6 20 15 40 19 62-2-5 1-10 6-7-2-10 1-20-2-36 5-1 7 7 13 10-1-7 7 0 6-7-12-24-40-34-58-50"/><path fill="#255781" d="M508 318c1 16 11 24 8 43-3 0-1-4-2-6 0 3 1 6-1 8-3 5-8 3-11 4 5-1 10 5 12-2v-1h2c-3 9 8-1 10 12 5 1 8-2 11-1 7-10 11-19 15-29-4-6-10-9-12-13 1 5-1 11-5 16-3-6-2-14-2-20-8-2-15-8-23-9"/><path fill="#C2ECEE" d="M167 395c-5 0-10 3-14 2-3 2-9 11-10 18-1-6 0-4-6-5-5 5-11 10-17 12-21 4-40-2-57-5 15 15 46 7 68 16 26-4 53-19 35-40"/><path fill="#E5F4F2" d="M37 127c3 3 6 9 9 12 12 4-1-7 11-5 18 10 28 12 47 27 12 1 29 7 50 12 17 29 47 28 66 50-23-25-50-44-79-59-33-18-67-30-103-37"/><path fill="#7084A2" d="M243 348c-11 9-8 17-12 21-3-1-6-5-13-3-11 5-32 13-35 23 0 9-9 15-7 25 26-22 60-31 81-53 11-3 5-5 0-8 0 2 0 4 1 5-8 6-15 13-22 16-9-9 10-14 4-24"/><path fill="#66B4C4" d="M53 142c21 14 42 32 61 50 10-1 21-2 29 1 2-5-10-9-13-14 2-3 3 0 2-4-26-2-48-32-76-34"/><path fill="#0B1F3A" d="M106 189c5 2 4 7 6 10 2 9-8 0-4 9-7-4-11-8-14-14 4 30-4 20 1 35-2 7-5 2-6 3 0 5-1 9-1 10 1 8 1 14 1 20v-17c0 3 15-8 21 2-2-2-2-6-4-6 3-4 4-11 7-14 6 0 16 11 18 16-2-8-11-13-14-20 1-4 0-6 1-8 16 4 17 16 20 7-6-4-14-19-30-31"/><path fill="#69B3C1" d="M326 242c-1 1-3 0-4 1 4 2-6 4 4 6-12 1-20-6-31-6-23 8-47 13-64 23 7 1 14 0 20 2 21-4 21-20 40-17 12 5 24 7 37 6 3 1-3-4-4-4l-1-3h1l2 1-1-3c2-1 4 0 5-1 15 0 26 0 36 6 7 1 10-1 14-1 29 6 54-7-2 0-8-5-18-8-29-10-10-1-15 1-21-1"/><path fill="#C5F1F3" d="M336 326c0 9 8 16 11 24 18 8 33 17 49 25-6-14-21-25-24-40-13-5-20-7-34-9"/><path fill="#38445A" d="M370 390c4 8-2 29 14 31 19 5 37 14 60 13-8-1-15-2-21-4 2 1 1-8-2-12-8-6-18-9-27-10 0-6 4-6 5-8-2 2-4 3-6 6-10-4-16-10-23-14"/><path fill="#A0D9DD" d="M257 236c-15 10-31 20-48 27 21 1-7 5 18 4 18-17 117-27 26-31"/><path fill="#1C3E61" d="M267 406c-4 10 4 19 7 28 10 8 21 11 31 8 6-8-6-13-7-20-10-7-19-10-28-15"/><path fill="#0C1D39" d="M275 391c-5 1-12 1-11 8 1 4-3 4-3 6-11 4-22 2-23 6-5 3-2 5-2 7l1 3v1l-2-1c-3-4-8 0-12-1-16 4-18 12-32 16 7-5 2 7 9 3 14-3 26-9 38-12 0-2 1-5-2-6 4-3 6-3 7-3 15 5 10 1 27 12-5-6-7-18-7-29 4-6 8-7 11-9"/><path fill="#1D4767" d="M364 283c-3 5 8 10 8 15-1 3-2 4-4 4 19 0 31 14 49 15-3-8-14-18-21-25-11-6-19-8-30-8"/><path fill="#133452" d="M296 300c19 24 27 35 35 47 4 4 9-2 12 6-2-9-7-19-10-26 7-3 15-2 21 0-8-12-38-13-55-24"/><path fill="#152F58" d="M514 368c2 10-4-1-9 2s-2 6-3 9c-3-1-3-3-4-5-23-8-1 7-1 24 8 9 9 6 12 10 14-4 16-15 22-20 0-9-15 9-14 0-4 4-3 10-6 13 0-7 3-20 4-30"/><path fill="#316E95" d="M147 194c13 12 25 34 33 37-1-1 0-4 1-6 7 1 10 5 14 8 0-12-5-19-11-27-12-7-25-11-35-12"/><path fill="#A0D8DC" d="M385 234c-68 11-54 1 1 16 9 1 23-5 36 1 6 0 4-4 4-7-12-6-31 0-42-9l-3-1h-1v1"/><path fill="#071225" d="M373 414c7 8 10 14 10 15-62-13-10 23 24 32-10-7-13-16-13-27h-13c5-2 10-2 15-2-8-3-17-8-22-16"/><path fill="#051024" d="M294 382c-13 1-24 5-34 10-30 12-50 33-79 46 18-3 24-14 39-17 8-1 15-6 17 3-6-7 0-14-2-13 10-7 7 1 23-6 6-2 4-8 6-11 7-6 53-13 33-12"/><path fill="#0D1A36" d="M351 432c2 14 26 22 36 35 9 8 20 7 28 5-16-20-46-18-62-41"/><path fill="#AACECE" d="M176 373c-13 0-19 15-30 16 1 4 2 6 0 7 4-1 16 1 23-3-3 7 6 12 3 21-4-17 14-27 7-42"/><path fill="#081325" d="M399 437c17-5 18 23 57 24-8-3-11-8-13-13-1-5-3-11 0-13-15 3-31-1-43-1"/><path fill="#4597B4" d="M496 284c-1 8 0 22 8 27 6-2 17 10 23 6-3-10-10-17-14-25-6-5-11-5-15-7"/><path fill="#EBF6F3" d="M215 269c-7 0-14 1-20 2-28 3-51 10-74 18 32-9 77-9 101-18 18 2 57 10 18-4-7 2-15 2-23 2"/><path fill="#265A72" d="M368 293c1 1 5 4 3 7-13 4-24 7-34 10-17 1-30-11-44-15 25 3 95 59 71 4 10 1 6-2 6-5"/><path fill="#556279" d="M462 375c-35 27-7 17 18 21 10 4 18 9 26 14-23-26-32-25-46-32"/><path fill="#A1C2CF" d="M369 312c10 17 3 23 8 35 9 12 18 15 26 25-7-10-13-20-17-31 0-6 2-9 2-13 4 0 12 5 9 2-8-1-16-11-24-15"/><path fill="#73B5CC" d="M515 267c8 10 22 24 27 37 4-4 6-8 6-13-2-6-4-9-7-12-6-8-13-12-22-11"/><path fill="#CAEFEF" d="M422 351c10 4 17 10 26 19 10 1 23 12 36 7-1-7-5-11-6-16-3 0 0 8-10 8-20-9-35-18-43-15"/><path fill="#6AB5C4" d="M499 264c10 5-3 11-4 18 13 4 28 14 35 18-4-11-17-26-27-34"/><path fill="#030F25" d="M190 445c-11 1-22 2-34 1 14 1 79 42 34-3"/><path fill="#2C637C" d="M347 265c0 4 18 18 15 23 1-1-2-3 2-4 6 0 14-1 17 1 21 3 31 30 44 32-14-8-28-30-42-35-6-1-20-15-32-15"/><path fill="#C9F2F2" d="M552 353c-3 9-5 11-9 20 3 7 9 6 14 7 7-2 3-12 6-16-4-5-7-5-9-9"/><path fill="#2F5C7A" d="M166 358c-1 2-3-1-4 1-6 8-10 17-12 26 9-14 45-12 15-27"/><path fill="#0E233D" d="M85 271c-6 14-20 26-34 35 14-4 28-7 42-10h3l-3-1c-5 2-12-7-13-12 2-4 2-8 6-10"/><path fill="#C5EFF3" d="M367 305c1 2 2 5 3 7 10 5 18 16 25 13-2-2-3-10 4-9-10-8-15-6-30-11"/><path fill="#192F50" d="m209 326-2 2c4 10 18-1 17 16-7 9-15 11-19 20 2-2 7-2 8-2-5 3-10 4-14 5-8 5-7 10-12 14 9-8 20-11 26-17h3-2c17-16 12-42-4-36"/><path fill="#7A90A5" d="M246 347c0 3-3 0-4 2 4 11-14 16-7 24 8-3 14-10 21-13-1-7-1-9-8-11"/><path fill="#296084" d="M242 431c7 4 20 14 17 21 7 5 13 10 19 13-8-8-9-19-17-27-5-6-10-7-16-8"/><path fill="#18274E" d="M153 306c5 2 11 17 11 23 7-5 14-8 18-15-12-3-19-5-27-7"/><path fill="#101E3A" d="M226 334c-1 4 0 11-2 15-4 9-6 15-12 17 6-5 15-3 20-9 7-8 16-17 2-16 6 3-2 4-3 6-4-4-5-9-3-12"/><path fill="#010405" d="M426 355c-2 9 11 9 8 17 2 8-7 2-3 5 2 5 4 9 9 7 13-7-4-11 5-13-5-6-11-11-18-14"/><path fill="#C2EEEF" d="M548 387c-8 7-26 22-32 30 16-4 28-18 34-30"/><path fill="#0D1B34" d="M401 438c10 6 29 17 36 29 2 1 14 3 22 2-21-2-48-31-52-30"/><path fill="#97CCD2" d="M451 247c7 3 12 12 22 14 11 0 35 13 27 3-1-3-6-7-11-10-5 3-10 3-19 4-9-2-12-8-16-10"/><path fill="#294D62" d="M165 248c0 3-3 2-5 3 6 7 4 20 11 21 3-6 8-7 7-10-3-7-9-5-10-13"/><path fill="#CFF0EF" d="M293 228c-9 1-27 10-28 3l-10 5c-15 6-26 15-39 22 13-5 25-13 38-20 17 4 49-9 46-10"/><path fill="#9CD9DE" d="M120 167c10 9 33 12 47 23-2-6-6-10-10-13-12-5-25-4-35-10"/><path fill="#E8F4F1" d="M220 231c-3 3-1 11 5 12 6 0 10-3 15-6-5-6-11-6-17-7"/><path fill="#183963" d="M519 372c-14 20 5 18 13 12 1-1 4-5 7-8-4 1-15 0-16 3-1-2-2-3-4-4"/><path fill="#7591AD" d="M346 350c10 6 17 16 26 20 9 7 16 4 22 7-16-10-29-16-46-25"/><path fill="#3A8197" d="M426 377c-8 0 1 9 8 13 8 2 14-1 16-6 2-4-2-3-2-6-3 5-6 9-12 8-5-3-7-9-9-8"/><path fill="#0E203D" d="M343 375c11 22 8 4 19 31-9-4-17-18-21-26"/><path fill="#071D31" d="M65 167c7 3 13 11 20 15-7 0-4 8-5 11-5-8-8-16-14-23"/><path fill="#2F5376" d="M173 340c3 9 11 24 17 25-6-1-12-1-16-7-3-5-3-11-2-15"/><path fill="#BAD5D1" d="M183 228c-1 2-3 7 0 10 2 3 9 7 12 3 1-7-7-11-10-13"/><path fill="#9ABCCC" d="M399 326c3 13 10 12 17 21 5 3 11 5 16 8-15-14-19-15-31-26"/><path fill="#1B2E56" d="M44 412c11 11 35 19 39 20 1 2 17 6 27 8-24-5-40-19-64-26"/><path fill="#E7F6F3" d="m558 338-6 15c3 4 7 5 10 7 0-7 1-16-2-22"/><path fill="#347499" d="M182 240c2 6 6 12 8 18-2-8 9-3 9-15-7 2-11 3-15-1"/><path fill="#15254B" d="M338 430c12 12 33 22 47 39-9-14-31-22-35-36-4-1-7-3-11-2"/><path fill="#57677B" d="M259 359c-16 21-37 24-63 43 19-9 35-22 54-28 4-6 5-12 11-14"/><path fill="#102C49" d="M194 436c-8 2-18 4-18 6 19 4 57-9 13-2"/><path fill="#7F96AF" d="M466 379c10 5 20 9 29 16-2-4-2-8-5-12-8 1-14-3-21-4"/><path fill="#1D4863" d="M329 313c21 5 22 15 43 18-11-3-29-16-40-19"/><path fill="#869BB4" d="M166 331c-2 6-1 12-3 18 5 1 7-2 6-6 1-5 1-9-1-12"/><path fill="#5FA9BC" d="M541 310c1 4 2 8 1 13 0 9 8 4 4 13 6 5 4-7 9-1-3-5-5-11-8-17-2 0-1 4-3 7-3-8 2-11-1-13"/><path fill="#081E34" d="M65 165c6 9 11 18 14 28 1-4-2-11 5-9-7-7-12-12-19-17"/><path fill="#5A697F" d="M403 343c2 6 0 17 10 19-2-3 0-8-1-11-6-4-4-3-9-6"/><path fill="#C5E7E5" d="M455 248c3 2 12 7 13 7 13 1 17 2 21-2-11 4-21-4-32-6"/><path fill="#2B6F96" d="M352 442c-2 4 2 6 3 9 8 6 15 11 23 14-12-3-15-15-24-21"/><path fill="#E5F7F5" d="M76 425c15 6 31 8 49 7-14-6-33 0-47-7"/><path fill="#53ABBF" d="M199 248c2 4 5 0 10 1-3 4-5 7-2 9-5-1-7 0-11-1 0-5 4-2 2-7"/><path fill="#43879A" d="M333 263c8-2 14 6 20 10-9 0-14-6-22-8"/><path fill="#367A97" d="M279 358c10 5 19 11 30 14-8-6-16-15-28-13"/><path fill="#253046" d="M383 424c10 8 24 10 38 9-10-6-26-3-37-8"/><path fill="#E6F3F1" d="M285 291c-17 4 16 10 17 20-4-6-9-13-15-20"/><path fill="#254A63" d="M249 394c-16 9-33 17-48 29 20-10 37-24 47-28"/><path fill="#A6CBD1" d="M517 413c0 4-7 2-12 8 2-3 5 3 3 5 15-3 7-8 12-14"/><path fill="#8CA6B6" d="M502 420c-4 4-8 8-13 10 7 1 24-3 16-10"/><path fill="#1C4064" d="M245 427c-9 4 11 0 13 7 12 9 12 23 21 32-3-11-11-21-18-32-6-3-9-7-13-8"/><path fill="#539FB3" d="M544 326c-8 4 3 14 8 17 3-4 4-7 0-10 0 9-3 1-5 3-2-3 1-5-3-8"/><path fill="#63B0C2" d="M231 274c-11-2-17 0-24 5 1-9 48 1 31-5-4-2-5-2-6-2"/><path fill="#C9ECEB" d="M384 232c-8 4 29 10 39 8-12 2-24-4-34-9"/><path fill="#061929" d="M184 283c-16 1-30 4-45 8 12-3 62-9 50-9"/><path fill="#112546" d="M343 375c-1 12 10 20 14 29-3-9-12-21-13-28"/><path fill="#08142B" d="M229 336c-3 3 0 6 0 9 7-1 8-4 8-6 8 3 12 7 17 9-5-3-9-7-14-9-2 0-7 1-10-3"/><path fill="#C7ECEB" d="M104 161c11 8 25 6 51 14-19-4-37-13-45-11"/><path fill="#2D6989" d="M247 436c0 2 4 8 7 11 6 6 10 11 16 13-5-3-10-7-13-11 7-2-10-9 0-11-4 1-6-2-7-2"/><path fill="#A7CAD2" d="M479 364c2 4 10 9 4 14-15 2-27-5-38-8 8 4 62 25 34-6"/><path fill="#3F8BA1" d="M417 366c3 11 6 13 9 9-3-2 0-9-8-9"/><path fill="#2D5277" d="M177 336c-1 3-5 7-3 10 0 5 0 9 1 10 3 1 9 6 5 7 6-7-4-10-6-14-1-6 0-9 3-11"/><path fill="#255477" d="M410 448c-3 4 8 8 11 10-1-4-4-8-9-9"/><path fill="#5AB3C5" d="M199 248c2 4 0 7-3 7 5 2 6 1 9 2-3-3 3-5 4-7-2-1-6 2-9 1"/><path fill="#1D4166" d="M314 329c5 13 17 18 21 31-2-5-10-23-19-28"/><path fill="#9AD5DB" d="M174 196c5 7 14 12 22 13-6-6-14-6-20-12"/><path fill="#88A0AD" d="M183 378c-4 13-9 20-8 35 3-13 5-22 8-33"/><path fill="#468C9D" d="M331 264c7 2 13 7 20 10-5-4-11-12-18-10"/><path fill="#A8D0D1" d="M142 399c-1 2-1 5-4 6 5 2 5 5 4 9-1-10 12-14 1-13"/><path fill="#CBEFEE" d="M52 136c2 0 34 12 44 21-16-12-22-12-40-23"/><path fill="#081324" d="M315 416c-2 3-5 6-6 9 10 1 22 4 36 5-12 2-29-10-33-3-1-6 4-12 10-10-1 0-3-1-4 0"/><path fill="#1C4569" d="M408 446c-1 1 18 6 18 17-1-9-8-13-15-17"/><path fill="#1C4260" d="M274 351c-2 5 5 6 15 6-4-3-9-3-13-6"/><path fill="#132A42" d="M141 226c5 1 7 7 9 10-5-3-6-5-9-7"/><path fill="#19374D" d="M179 263c1 3-4 3-5 7 5 0 6 2 8 0 0-3-1-4-2-5"/><path fill="#495572" d="M156 427c-11 5-21 7-34 9 15-2 24-2 33-9"/><path fill="#13324C" d="M262 344c2 5 6 6 10 9 3-2 3-3 9 0-6-3-12-5-17-8"/></svg>