<svg xmlns="http://www.w3.org/2000/svg" width="600" height="600"><path fill="#5E5254" d="M243 102c10 4 17 14 26 18-1-4-8-7-11-14 28 15 18-2 43 12-1-3-3-5-4-6 23 0 42 7 60 16 9 4 17 10 22 14 10 12 17 20 18 32 23 5 46-4 65-1-20 20-48 28-69 44-5 13-5 26-3 37 4 6 9 10 13 13 3 11 6 20 7 29 1 20-6 34-6 51-8 16-14 25-19 39-16 9-26 21-40 30 5 12 11 21 19 31 17 12 37-4 51 4 6 6 16 12 15 20-6 0-7-3-10-4-11-2-18 3-29 1-14-8-32 3-41-11-6 3-7 5-11 5 3 5 4 9 7 11-6 0-9-3-13-5-3 2-6 4-8 3 6 8 9 15 8 24-6-2-6-7-8-11-8-3-13 2-18-2-9-8-18-13-28-15-17-2-29 5-44 5 3-5-3-10-2-16-4 3-5 7-7 11-4-1-5-3-4-6-4 3-6 5-7 7-1-4-2-9-1-12-3 4-5 9-7 14-4 1-7 1-10 2 1-13 8-25 9-39-9 9-10 4-13 4-13 10-25 21-39 30 2-7 8-13 12-18-10 10-19 11-31 19 3-8 9-12 14-19 2-6-12 6-9-4 6-6 12-10 18-15-6 3-9 1-15 2 13-13 24-25 37-35 9-51 41-91 51-142 7-8 11-14 16-19s10-3 13-4c6-19 15-35 16-47-11-21-21-35-36-53 3-7 12 5 17 6-1-3-5-7-4-11 7 4 11 12 20 14-9-12-23-21-29-36"/><path fill="#0E0A10" d="M302 263c1 5-1 11-1 17-3 2-5-1-6-1 2 1 4 3 6 6 1 18-4 33-11 47-13 11-22 24-33 33h-17l-3-2v-1h2v-3c11-1 17-13 23-20 7 2 7 6 5 10 6-4 11-9 14-13-2 0-3 1-4 4-4-1-11-1-13-5-5 13-19 20-27 24-6 2-9 0-10-4 2-5 6-9 3-12h3l-3-1c-8 15-18 29-34 40 11-5 20-16 29-24-8 12-15 21-25 29-7 6-12 10-19 7 2 2 3 2 5 3-7 9-13 16-19 23 22-19 41-39 61-57 2 5-4 8-7 13 7-5 2 0 7-1 2-2 7-5 9-10 9 1 11 5 17 0h4v2c-15 20-40 42-45 59-8 5-14 7-14 1-6 4-10 6-13 8-1-9 11-13 9-19 0-5-2-6-6-2 6-8 12-14 17-20-14 10-33 28-44 43 1-2 17-4 18-11 6 6-2 7-4 11 4 1 14 0 21-7-1 8-5 6 2 5 2 0 5-2 7-5 0 13-3 27-7 39 10 4 10-10 14-15 2 4 1 7 1 11 2 0 4-2 6-3 3 0 2 3 4 4 3-4 6-7 7-11 4 1 2 10 5 10 0-16 3-35 0-39 11 5 14 2 18 13 7-2-10-9 1-11-2 1 5 12 10 6-5-13-16-10-15-15 7 0 9 6 13 8 6-2 10 2 14 0-7-5-9-11-14-6-9-4-6-9-11-11-9 4-9 5-16 10-8-1 1-5-6-5 7-9 9-8 14-11 6-5 1-10 3-16 5 5 4-7 9-5 0-7 2-13 7-17 7-2 6-8 10-10 3 3 1 3 2 6 5-2 8 0 13-2 3-20 12-31 19-48-11-3 3-38-4-46"/><path fill="#F8F5EF" d="M278 198c-9 11-13 23-14 37 1-9 6-13 9-19 2 5 5 13 12 15-2 3-7 1-10 4 8 0 15 5 22 9 6 26 19 32 30 53-3 9-2 17 3 23 1-4 3-7 3-10 4 2 2 9 2 11 5-6 7-14 9-21 12 0 1 9 5 15 5-6 4-9 9-13 0-18-8-14-14-24 0-6 3 3 4-3-1-6 1-11-2-15-6 4-1 16-7 12-1-6 1-13-4-19-1 2-2 5-3 7l-3-9c-27-10-27-17-42-25-7-7-4-7-12-16 0 2-3 3-4 5-1-5 1-11 5-16"/><path fill="#261820" d="M304 324c-2 4-7 4-9 9 6 12-9 18-6 28-7 3-10 0-13 2-3-3-2-4-1-5-4 4-9 7-14 9-7 22-20 40-30 51 4 2 6-1 7-1 2-3-3-3-2-6 5-2 11-4 13-1 3-9-2-14 5-19 12 0 6 12 13 11 2 9-7 1 0 18-1-3 12 4 10 7 4 1 9 0 14 2 2-6 17-13 14-22-1 5-8 18-18 16-3-5-3-12 1-15l-6-3c0 1 3 2 3 3 0 5-3 5-4 6-7-7-14-12-17-19 2-5 4-5 7-4 2 3 6 3 6 7 6-10-7-4-4-13 3-6 7-7 12-6-3-2-5-3-8-4 6-2 11 0 16 4-1-4-4-9-4-14 4 0 4 3 6 6 2-2-2-5 1-6 9-6 7 4 10 2 1-17-3-22 0-42"/><path fill="#020106" d="M239 365c-6 9-14 13-20 19 1-4 7-11 9-14-18 15-29 32-36 40-3 4 5-3 4 5 2 7-10 11-10 18 12-9 14 0 24-6-1-15 64-65 36-60-5 5-8 9-11 14-1-6 7-10 6-15"/><path d="M321 426c-5 1-9 3-14 4-4 3-6 7-8 10-4-2 0-6 0-9-14 4-13-3-32 0 8 5 12 19 24 18 13 4 25 6 35 6 28 2 10-25-2-28"/><path fill="#F9F7F3" d="M329 178c-22 2-13 5-31 13 0 17 19 20 13 26 9 3 14-1 19 2 19-5-7-4 12-10-7 3-3-3-5-4 2-3 4-4 7-5-19-6 3-16-18-24"/><path fill="#6F1617" d="M246 104c5 3 9 10 14 12-4 7-10-2-12-6l-1-2v2c7 11 18 17 23 28 4 5-2 3-3 2 4 8 8 3 13 5-5 2 3 9-3 10-11-9-30-25-33-21 4 12 18 17 27 28-4 4-6-3-6 4 5 5 11 10 14 15 8 1-1-12 10-5-3-3-4-6-5-7 3-2 8 2 14 4 2-6 3-8-2-12-2 1-5 2-7 5-6-2-6-6-8-7 5-4-5-14 3-15-3-4-5-6-6-7 3-3 5-1 8-2-2-11-13-16-19-23 3-1 7 0 11 2-6-1-10-6-16-5v-2l1 2c4 8 13 13 19 19-13-6-24-15-34-22"/><path fill="#211A1E" d="M221 369c-70 75-22 13-69 59 4-1 8-3 12-5-9 9-14 14-18 23 4 0 10-6 10 0-8 4-7 13-19 18 23-22 9 4 31-19-1 5-14 20-12 20 16-11 28-23 39-33-9 10-16 2-17 5-3-3 7-5 5-13-6 10-16 9-23 19 12-25 56-60 56-66"/><path fill="#241720" d="M327 152c-1 4-1 7 1 10-5 5-13 11-18 8-7 0-4-5-10-6 4 1-3 3 2 5-5 7-11 3-13 0-10-1 6 5-1 8l-2-1h-1l-3-2c-1-7-9-7-13-10 4 3 11 4 13 10 5 7 0 7-3 9-3-7-9-11-13-16 8 9 5 8 11 16 2 5 0 8-3 10 5 3 8 6 11 10-1 4 3 7-4 8 5 4 8 5 12 6-6 2-6 4-3 7-1-8 10 0 13-5-7-1-13-3-17-6 7 2 12-5 17-2-6-5 0-8-11-12 0-8 5-11 8-14-1 0-3 1-4 0 15-7 25-8 29-12 2-2 1-1-1-2 4-4 6-8 9-6-9-4-1-8-4-10"/><path fill="#695B5B" d="M357 228c-3 1-5 2-8 4 8 0 11 12 19 14 4 8-8 18 4 21-3 5-6 4-7 1-1-5-2-9-3-12l-3 6c-2-2-3-4-2-6-4 9-4 1-6 3 0 5 1 7 0 11 1 3 1-10 8-5 7 38 12 5 17 31 2-6 5-10 6-16 2 16-2 28 2 40 2-17 8-39 4-52 1 2 0 4-1 5-3-5-10 1-5-7-3 2-5 3-8 2-7-13 2-26-3-38-4 1-8 0-12-3"/><path fill="#8B7772" d="M332 326c1 0 2 3 4 3-7 5-3 10-9 13 0-4 9 0 10 3 2 5-1 7 0 10l1-1v1l1 2-1 2c-4 4-7 8-8 14-6-4-5-13-12-11 5 8 3 24 7 34 6-1 4-10 11-12 3 0 5 0 5 2-7-12 6-12-4-28l3-1-2-1 1-1-1-3c2-3 3-7 6-11 4-2 7-2 9-1-3 7-6 21-12 20 1 6 6 5 7 13 3-9 8-17 8-27 5 6 4 17 2 23 10-8 1-23 6-30-2 1-3 4-4 4-6-9-15-4-19-8-3 3-5 7-9 5 0-3 2-6 4-8 6 1 1-9-2-5"/><path fill="#282B35" d="M387 258c9 16 12 52 10 66 0 3-3 25-7 44 4-5 8-14 11-20-6-30 9-29 5-55 0-11-4-18-5-27-5 2-8-6-12-7"/><path fill="#6A8391" d="M278 267c-7 6-3 16-17 16-9-2-3-11-22-7 0 11-7-5-6 14-5-2-6-2-7-2l-1-1v2c1-2 7 4 9 4 12-3 15 4 14-4 33-3 3 10 15 5 14-6 36-26 18-27"/><path fill="#97B5C1" d="M270 255c-1 4-3 12-9 12-8-3-13 4-15 0-4 2-2-2-7 6 2-6-2-7-7-7-3 25-8 10-7 19 9-4 11-5 17-11 1 0 2 2 1 3 3 0 3-3 5-3 5 1 8 1 11 3-3 2-5 4-7 5 7 0 9 1 16-2 12-14 33-21-2-24"/><path fill="#211921" d="M359 399c-11 9-19 3-35 17-9 3-11-8-13-7-6 2 3 3 5 10-2 5-8 5-11 7 6 2 15-4 21-1 11 8 12 5 23 12-10-16 1-11-6-19 7-7 12-12 17-18"/><path fill="#847573" d="M350 232c-11 15-40 15-6 14 1 3 3 6 4 13 6 0 7-2 10 1 2-1 1-4 2-6 7 5 1 16 10 16-9-6-2-13-1-19-7-5-9-13-16-16-1-1-2 2-3-1"/><path fill="#F8F6F3" d="M339 135c-14 1 3 25-1 26 16 10 18 2 22 2 0-12-16-17-20-28"/><path fill="#D52728" d="M279 120c3 5 6 9 8 14-4 3-5 1-9 2 1 2 4 3 5 6-6 3 4 12-2 15 3 4 3 6 7 7 5-5 14-5 12-13 5-1 8-1 9 1 0-3 0-4 1-5-5-2-16-6-20-10 9 0-11-11-8-14"/><path fill="#E5DBC5" d="M358 292c-6 11 4 3-7 24-6-4-3-9-1-12-3 0-4-5-5-3-1-2 5 9 1 14-1 3-2 4-4 4-2-2-2-3-1-4-3 1-2 8-6 7 1 3 8-3 5 5 5 1 9 1 14 1 2-7-6-9 1-18 1 9 6 15 14 17 6-20-11-21-11-35"/><path fill="#54454A" d="M305 373c0 3 0 6 1 9-5-3-7-1-9-3-12 5 1 8-15 14-3 2-2 8 1 10 7 5 12-3 17-2 1-3 5-5 7-9 6-9-4-9-1-16"/><path d="M240 426c-1 11 0 23-1 33 9-2 15 1 21-4-3-8-9-19-19-26"/><path fill="#4C4346" d="M387 334c-6 6-5 14-9 21-6-3-16 12-21 17-2 4-8 12-4 11 4-5 6-9 8-14 0 11-6 20-6 29 7-11 11-23 17-34 6-5 3 1 4 3 2-2 4-5 5-7 2 2 1 3 0 4 14-31 3-10 6-29"/><path fill="#1B1D29" d="M290 276c3 4-7 20-6 19-9 6-16 13-21 23-11-7-29 2-30-11-4 8-3 9-1 5 3 12 15-2 19 6 3 5 0 9-2 11 2-3 4-9 10-7 4 4 1 9 3 12 0-3 4 0 4 2 9 4 8 3 16-2 0 7-9 10-13 16-3-2-3-5-2-7-3-5-5-5-7-1 2-3 5-3 6 0-3 6-7 12-12 16-1-4 2-7 3-10-5 7-13 10-19 14 9 0 11 4 19 2-9 1 24-23 29-29-2-7-8 6-19 1-1-4-7-8-4-14 9-6 12-19 21-25 4-9 7-15 9-19"/><path fill="#0B0910" d="M372 209c-1 5-6 15-10 12l-3 2h-1v2l-3-2c-6 4-21 1-32 0 2 9 8-1 13 2-10 9-22 12-27 13 4 1 9 1 13-1-2 3 11-2 4 7 13-3 18-12 30-18l1-2 2 1 1-1 2-1c1-1 4-1 4 2l2 1-1 1 1-1c5-3 6 2 11-5 2 2 9 4 5 13 6-12 4-17-3-13-6 1-11 6-14 3 2-5 8-14 9-16"/><path fill="#322F36" d="M388 348c-3 17-31 25-31 63 8-9 14-21 22-31-13-4 18-22 11-33"/><path fill="#EF6362" d="M271 113c8 7 20 17 20 23 3 4 10 5 15 8-4-9 2-17-4-23-13-9-1 8-33-9"/><path fill="#422728" d="M307 327c-1 17-2 22 3 33-1 5-2 6-4 7-3 0-2-6-8-2-2 2-1 5-3 7-2-3-3-6-5-8 0 6 3 10 6 15-2-4 5 0 7 2-1-13 10-17 9-23 2-3 3 0 5 0 7-5-8-15-2-22-4 3-8-4-9-6"/><path fill="#4B3C41" d="M336 384c-4 12-12 17-21 19 2 4-2 6 0 9 12 4 16-8 19-1 2-16 10-18 5-26"/><path fill="#DDD3D0" d="M438 176c-14 1-30 4-42 2-4 4 3 2 4 5-3 1-5 2-7 3 2-1 3 4 6 2-1 3-2 6-5 6 14-11 39-8 48-18"/><path fill="#404A53" d="M223 291c1 5 1 7-1 10 10 2 20 4 24 5-2 4-4 6-6 10-5-3-6-6-4-8-1 4 0 5 2 6 5 1 8-1 10-5 1 3 2 5 5 7 2-3 6 0 10-8-4-4-15 3-20-5 5-4 16 0 18-6-15 1-29-2-38-3"/><path fill="#6787A2" d="M322 119c2 5-3 6-7 4 1 2 3 3 5 4 0 3-5 9-4 8-1 4-3 1-4 1 0 6 2 11 8 13 4-6 6-12 13-16 0-7-1-10-9-13"/><path fill="#8A7973" d="M388 262c8 32-9 62-6 71 8-6 11-14 11-26 4 3 2 8 1 12 2-19 1-37-6-53"/><path fill="#E56969" d="M325 118c11 2 16 11 25 17-1 3-5-1-7-3 10 10 0 13 16 19 10 3-13-3-9-8 5 2 7 5 13 7 5-1 6-6 9-8-28-12-30-21-42-23"/><path fill="#6B5F61" d="M357 346c-1 12-5 25-13 33-2 8-3 14-1 20 8-6 6-23 15-28 1-6 1-15 0-23"/><path fill="#3B2C33" d="M258 390c-8 1-6 9-9 14 6 4 9 14 13 15 5-2 0-8 2-12 3-2 2 2 4 2-4-6-11-19-10-20"/><path fill="#36282E" d="M277 374c3 1 5 2 8 3-13-1-8 19-20 14 2 7 3 10 7 12-3-2-6-5-3-8 8 0 12 10 15 15-6 5-7 0-9-3 2 2 2 5 5 6h3l1-3c-3-6-6-11-2-18 10-1 8-6 9-10-3-6-7-8-11-9"/><path fill="#72181D" d="M385 152c1 2 4 4 1 6-7-7-15 4-22-3 4 7 10 10 16 14 5-2 16-4 6-17"/><path fill="#010104" d="M388 171c-1 3-1 6-2 10-6-5-7-1-13-9 1 8-4 14-6 21 3-2 7-3 11-5 2 3-3 4-3 6 3-8 28-17 15-23"/><path fill="#1B1D28" d="M253 331c-2 4-5 15-12 18-8 1-7-9-6-15-10 9 1 11-8 24 10 7 14-8 18-3 3-8 7-22 11-24"/><path fill="#0F0D13" d="M333 148c-8-1-5 6 0 18-2-3-4 4-7 1-4 8 12 11 15 18 5-17-1 9 7-9 10-2 13 6 17 8 0-4-4-7-7-8-12-7-12 6-21 2-2-10 4-6 2-11-4-4-12-15-5-16v-2l-1-1"/><path fill="#272B37" d="M276 307c-1 4-3 6-7 8 0 5-2 6-5 5-2 8 2 12 3 14 9 9 14-7 19-2-9 12-20 22-30 31 11-6 20-19 29-28l1-2v-2c-5-4-11-2-15-6 0-3 4 0 7 0-3-5-9-3-10-7 17-10 28-8 3-7"/><path fill="#BA353A" d="m369 136 2 1 6 6c-4-2-8 3-9 7-32-14-5 1-6 5 9 5 19-5 24 4-3-12-8-18-16-22"/><path fill="#50464A" d="M358 226c3 2 10 4 13 4 3 5 3 9 1 11 3 0 2-2 3-4 6 23-5 2-3 23 0 3 1 5 2 7 5 1 5-2 8-2-2 5 4 8 2 11 0-3 6-3 3-9-3-13-11 2-12-12 6 0 2-16 3-25-8-4-7 1-18-5"/><path fill="#272E3C" d="M290 264c3 8-2 15-7 20-6 12-23 11-23 15 5 2 10 0 15-1 7-2 11-7 13-11 3 8-7 12-10 17 8-6 16-16 17-20-3-5-3 0-6 2 0-4-1 1-3-1 6-7 3-4 5-11 2-3 0-4 1-8"/><path fill="#010209" d="M317 222c-19 7-13 13 1 14 4-4 11-6 17-10-11 4-9 0-17-4"/><path fill="#2B323B" d="M215 339c-14 9 6 14 0 20-10 9-16 13-26 27-4-2 8-14 2-9-16 18 7 4-5 18 7-2 13-9 18-13-7-1-7 5-11 4 10-10 17-18 27-28 7-8-13-2-6-18"/><path fill="#44404A" d="M309 144c8 8 1 7 9 11-5 4-9-3-14-3-2 4-1 7 0 8-2 1-4 1-5 1 4 3 9 4 14 5 6-3 8-7 10-10 1-2 1-5 2-7-1 1 0 3-1 5-6-3-10-4-12-8"/><path fill="#DFD8CE" d="M337 184c-3 2 4 8-1 9 3 1 5 4 9 5-3 4-6 4-8 6 3 5 0 4 6 4-23 9 7 2-11 12 10-5 22-4 28-15-3 4-7 5-11 8 3-4-2-6 1-8-1-3-1-5-4-5-1-6-11-7-7-16"/><path fill="#CEC2AB" d="M370 322c2 4-2 7-4 4 3 5-4 22 3 30 3-4 6-9 7-14 1-8-6-11-6-17"/><path fill="#5B4039" d="M268 437c-8 8 1 4-3 11 3-1 7-1 9 0-2 4-14 3-9 6 1-1 11 2 9-4h2v1h2l2 1c-5 2-1 3-3 7 16 6 21 8 30 13 6 1 3 7 0 9 1 0 3-1 5 0 0-5 1-8 3-10-8-4-24-11-32-13-4-1-7-5-2-8-9-2 1-3-4-7-6-7 8 11-10 1 2-1-4-4 2-5"/><path fill="#685D5B" d="M394 307c1 10-3 19-11 29-3-5-7-10-8-16 3 10 2 32-1 34 4-2 1-3 12-22 6 3-1 9-1 12 0 4 2-2 3-3 3 2 6 4 4 8-6-9 2-25 3-40"/><path fill="#020103" d="M385 210c-6 6-6 0-10 4-3 4-6 6-9 8 5 7 14-6 19-2 7-2 11-14 1-8"/><path fill="#221A20" d="M349 454c-5 4-7 6-12 8 2 3 3 4 3 6-9-2-11-7-16-11 2 7-9 8-6 12-6 3-1 13-6 13 7 1 7-4 5-7 5 2 5 5 7 7 0-3-4-5-5-7 25 25 1 5 12 18 3-5-1-9-2-12-7-13 1 0-8-7l-1-1-1-1v-3c2 3 3 3 7 1-3-2-7-3-3-8 3 1 15 8 19 10-1-4-2-5-4-7 7-10 18-8 13-9"/><path fill="#52636D" d="M211 325c-5 7 1 7-7 18 8 3 6-5 9-9 4 5-2 11 1 16 2-3 6-7 10-7-1 5-2 7-5 9 7-5 10-12 11-14-3 3-7 0-10-1-2-3-2-3-4-7l3 1h-2c-4-1 2 1-2 1l-1 2-1 1-2-2c1-1-3-3-1-7"/><path fill="#323038" d="M455 179c-16 0-44 28-63 27 24-3 46-15 66-28"/><path fill="#342C33" d="M362 369c-4 13-12 15-13 29-7 8-7-3-9-5 0 5-3 9-5 13 10-9 8 6 16-4 2-3 6-21 11-30"/><path fill="#3F4C55" d="M212 351c0 4-3 0-5 2-5 16-12 9-12 12 7 2 24-5 19-12"/><path fill="#402C2E" d="M273 448c5 9-3 4-3 10-8-1 0-2-2-3-8 5-11 6-26 6 17 8 25-1 31 1 1-15 14-3 1-12"/><path fill="#97BBC6" d="M258 237c1 12-12-2-14 9-5 6-11 12-7 14 1-8 23-6 21-21"/><path fill="#AD988D" d="M324 319c1 11-9 8-2 16 16-9 14 3 29 1-9-3-20-6-26-15"/><path fill="#020207" d="M382 202c-15 1-20 15-32 21 7-2 5 4 15-4 6-5 5-16 16-16"/><path fill="#C4BAB2" d="M346 197c-4 1 5 3 5 6-3 4 2 5-2 9 3-3 7-4 10-7-7 10-4 6-1 9 2-4 6-7 10-11-9-1-20 0-17-6"/><path fill="#5C413A" d="M353 440c-15 13 4 14 10 18 4 2 6-1 11 2-4-3-8-2-8-4-6-4-9-12-14-14l2-1h-1v1"/><path fill="#8C746F" d="M314 369c2-1 0 5-1 17 2 5 6 11 8 9-1-7-2-24-4-27"/><path fill="#070810" d="M305 220c-28 1 4 12-5 14 2-6 11-12 17-12-6-5-13 8-12-3"/><path fill="#231A20" d="M355 458c0 3 3 6 6 6 11 1 26-2 32 3 6 4 18-4 23-6-1 8-39-2-52 0-8 2-2-7-7-1"/><path fill="#A89388" d="M327 338c9 7-1 7-1 15 10-7 11 12 13 0 4 4 3 5 4 7 4-7 7-12 9-17-4 2-5 9-11 12-8 4 2-12-13-14"/><path fill="#E0D8CB" d="M355 266c-2 12 5 20 11 29-2-10-4-19-9-27"/><path fill="#2E343E" d="M248 315c-4 4-6 3-11 2 7 0 8 7 13 7-3 10-14-2-13 8-3-9 12 2 14-6 1 3-1 5 3 9-5 1 20-12-4-12 3-2 1-4-1-6"/><path fill="#6A5759" d="M298 401c0 9-13 5-12 19 5-1 9-3 11-7 4-4 3-7 2-9"/><path fill="#5B6E7A" d="M282 272c2-1 4 6 0 7-5 8-6 3-12 7 0-6 5-11 10-12"/><path fill="#F7F4EA" d="M308 281c4 11 3 19 4 24 3-3 7-5 8-7-2-5-9-9-10-15"/><path fill="#46383D" d="M269 395c-2 6 8 15 12 17-1-7-4-14-9-18"/><path fill="#241B23" d="M379 221c-1 3-3 5-5 6 2-3 4 1 6-2-1 11 1 19 4 28 0-8 1-16 2-24-1 2 0 4-1 5-2-5 1-10-5-10"/><path fill="#576770" d="M237 318c-7 1-1 14-11 15 9 4 9-3 13-10 7 13 9-3 1-1 1-3 1-4-3-3"/><path fill="#D7C5A1" d="M357 323c-1 2-5 2-1 5-14 4-18-4-18-4 1 3 2 6 6 8 2-6 30 9 14-8"/><path fill="#A89789" d="M355 313c-6 10 8 10 9 19-3 4-7 5-11 4 4 13 12-3 13 5 0-3-2-10 1-12-5-3-11-8-12-14"/><path fill="#7E7174" d="M427 189c-17 7-29 11-50 17 20-1 36-9 50-17"/><path fill="#82736A" d="M371 288c-2 4 1 6 2 10-5 0-6 0-11 1 7-2 7 12 10 15 0-2-2-4-2-6 6-1 8 4 11 1-1-7-1 5-5-1 8-7-3-12-6-18"/><path fill="#6B5658" d="M321 388c0 3 4 5-1 8-4-4-5 5-11-2-1 6 1 8 1 10 6 0 8-7 15-5-2-3-3-6-3-9"/><path fill="#CBB6A8" d="M271 222c-2 10-4 9-6 15 12-4 25-4 6-15"/><path fill="#907974" d="M312 316c-3 5-7-3-5 7 0 5 1 9 5 11 4-4 6-8 10-6-7-6-6 1-13-5 1-3 1-5 3-5"/><path fill="#576872" d="M223 302c-3 3-4 6-1 1 10 4-8 11-3 8 11 7 23-12 4-8"/><path fill="#C3B7A4" d="M372 309c2 6 5 12 7 19 6-6-2-10 3-15-4 0-5-2-7-4"/><path fill="#AE9A91" d="M323 309c0 8-12 4-13 13 3 5 7 1 9-1 5-4 5-7 3-10"/><path fill="#E7DCCF" d="M309 279c-2 4 15 20 15 24 1-2 2-3 3-4-4-2-8-9-14-19"/><path fill="#0E0F18" d="M284 294c-6 8-15 6-23 9 3 0 4 0 6-1-2 8-9 18-17 15 4 1 7 5 11 0 6-9 14-16 23-20"/><path fill="#A08D86" d="M336 247c-9-2 5 13 9 10 3-6 0-6-3-9-1 1-4-1-3-3"/><path fill="#412D29" d="M281 456c19 2 24 6 30 9s7 0 10-2c-16 0-15-6-38-7"/><path fill="#5C5E69" d="M298 283c-1 11-15 16-19 25 14-1 8-12 21-18 0-1-2-2-1-6"/><path fill="#2C2E39" d="M325 147c4 15-8 11-7 18-6 3-12 1-15-1 3 3 0 2 5 5 3 1 14 0 18-7-2-4 1-8 0-12"/><path fill="#546876" d="M248 289c5 6-7 7-13 2-3 11 55-1 16-2"/><path fill="#353339" d="M380 240c-2 2 2 18-5 13 1 15 10 0 10 12-1-7 1-16 0-23 0 4 2 9 0 13-3-6-5-10-5-15"/><path fill="#0F0B10" d="M391 182c-13 8-16 13-23 23 9-4 20-18 24-24"/><path fill="#586975" d="M283 273c-5 3-11 5-13 11 3 1 6-2 8-1 3-2 6-6 5-9"/><path fill="#CEB99C" d="M333 355c-5 3-10 6-6 13 3-4 13-8 8-14"/><path fill="#3C1114" d="M259 137c3 7 13 11 18 17 0-4 0-8 2-8-6 3-13-6-17-8"/><path fill="#C3D6DD" d="M279 239c-8 10-10 6 4 10 2-2 1-3 3-5-2-3-5-6-7-4"/><path fill="#100A0E" d="M367 162c5 13 12 14 18 17 0-4 2-5 1-9 5 2 7 1 9 3 1-3-1-6-2-8-1 6-9 6-10 10-7-2-9-7-15-12"/><path fill="#6E8E9E" d="M214 319c-3 5-5 5-3 13 4-2 7-5 8-8-1-2-1-4-3-5"/><path fill="#444C57" d="M256 333c-4 5-2 9-6 13 6-3 16-11 8-13"/><path fill="#251417" d="M305 277c1 11-3 20-1 32 5 7 4-21 1-29"/><path fill="#34272E" d="M311 389c-2 5-8 8-11 12 8-1 1 12 6 5-2 5 0 8-2 10 8-5-1-1 6-8-2-3-2-7-4-8 1-4 3-6 4-9 3 2 2 3 4 4-3-3 3-3-2-3"/><path fill="#272934" d="M262 340c-4 6-6 12-10 17 5-3 15-11 13-16"/><path fill="#C7B5A8" d="M322 299c-12 8 0 6-6 14 3 0 5-1 6-4 4-4 2-7-1-8"/><path fill="#020001" d="M353 178c4 4-4 4-2 6 2 4 4 3 5 4 7-4 3-10 0-10"/><path fill="#73929F" d="M259 238c3 15-21 15-22 22-1-2-3-1-1 2 8-4 14-9 21-12 6-4 1-7 2-10"/><path fill="#7FA3B4" d="M229 320c-12 1-3 11-8 11 8-1 10-5 7-10"/><path fill="#4E5A62" d="M239 330c-2 2-1 6-1 9 12-1 9-12 0-8"/><path fill="#34282D" d="M421 454c-27-2-4 7 4 10-3-7-11-7-6-10"/><path fill="#424851" d="M265 245c-6 2-11 10-19 12 7-2 12-1 13-2 0-3 6-6 6-8"/><path fill="#C0B5AF" d="M366 166c-5 0-12 4-18 4 8-3 24 11 18-2"/><path fill="#715E5B" d="M310 414c-4 4-16 9-13 14 12-5 7-7 12-14"/><path fill="#201923" d="M242 462h-2c-9 10-4 9 0 1 2 3 0 4 0 6 8 0 16-2 22-3-7 2-12-2-18 0-2-2-1-3-2-3"/><path fill="#5F4036" d="M388 456c-27 5 13 0 15 6-4-9-7-2-17-4"/><path fill="#4E5961" d="M238 305c-2 2-1 4-2 7 6 2 16-8 4-6"/><path fill="#A5BEC7" d="M285 242c4 1 0 5-2 7-4-1-13-2-11 0 3 4 7 2 9 1 6 0 16 3 6-7"/><path fill="#444752" d="M274 314c-11 4 4 11 10 12-1-4-13-5-9-12"/><path fill="#4E5C63" d="M210 351c-7 1-10 1-13 5-4 4 0 5 1 9 2-6 6-17 13-13"/><path fill="#424C54" d="M249 331c0 3-5 6-7 10-6-1-2-3-6-4 2 3 1 4-1 8 6-3 5 1 5 3 4-5 4-16 12-15"/><path fill="#422C28" d="M384 459c-20 2 17 3 20 5 1 1-9-6-19-4"/><path fill="#3C2E33" d="M324 456c5 5 8 9 15 12-1-5-5-9-9-10-1-1-3-2-4-1"/><path fill="#BDD3D5" d="M271 256c-14 16-9-7-18 10 1-1 3 2 6 0 6 0 8-3 8-8"/><path fill="#BE2828" d="M246 106c3 5 7 13 13 13-3-4-9-12-10-12"/><path fill="#908C96" d="M298 296c-5 5-5 5-7 12 2 2 4 0 5-1 1-4 1-7 2-9"/><path fill="#2E222A" d="M272 390c7-2 9 3 7 8-2-3-9-4-7-8"/><path fill="#758C99" d="M291 251c-3 3 4 5 4 7-3 3-6-4-8-1 3 5 6 6 8 7 2-6-1-9-2-12"/><path fill="#8D8C96" d="M290 315v1c-1 3-4 1 1 6 2 0 8-12 2-9"/><path fill="#C4B6A3" d="M345 304c-1 4-4 8-3 14 6-1 4-8 3-13"/><path fill="#3D2B2C" d="M342 435c3 4 1 10 6 11 8-4-4-8 1-11-2-1-4 6-6 1"/><path fill="#02030A" d="M336 171c4 4-2 5 4 7 2-1 5-2 6-3-3-2-5-4-8-3"/><path fill="#2D333D" d="M386 372c-4 7-8 13-13 19 9-2 11-11 14-18"/><path fill="#5D5F6A" d="M280 312c-12 6 4 11 6 13 0-4-8-7-7-12"/><path fill="#701B1B" d="M365 182c2 2 3 4 2 7-1-4-3 1-4-4 4 9-14 10-13 8 6 3 9 2 14-2h2l1-3c2-2 2-3 0-5"/><path fill="#AA9081" d="M316 363c-2 0-2 2-3 2-3 6-2 11-5 15 0-18 19-7 9-17"/><path fill="#757581" d="M281 313c-3 2 2 6 3 7 5-2-1-5 4-6-2-2-3-2-4-1"/><path fill="#272E39" d="M234 309c-4 1 1 3-2 6-1-4-3-1-5 1-8 3-10-8-11 0 3 8 6 0 10 1 1 2-1 2-3 3l-1 2 1-1c9-8 17-5 8-11h4v1"/><path fill="#2C343E" d="M244 302c-6 1 8 5 12 3-3-3-6-3-9-4"/><path fill="#4B4347" d="M170 410c-8 2-15 12-19 16 7-4 12-10 19-15"/><path fill="#452D2A" d="M304 466c-4 4-1 8 0 11 2 5 3 1 5 3 7-14-4-1-7-11"/><path fill="#21151C" d="M247 427c-2 11 2-6 15 15 3-3-5-4 4-7v3-4c-3 5-12 0-11-6-1 2-4 4-6 0"/><path fill="#585C70" d="M307 135c-2 7 6 13 11 15-6-3-8-13-9-15"/><path fill="#6B5A57" d="M363 341c-2 5 4 13 0 19 11 2-2-13 2-18"/></svg>