<svg xmlns="http://www.w3.org/2000/svg" width="600" height="600"><path fill="#7A6153" d="M356 109c11-1 23 0 34-1 15 1 26 9 36 9 12 10 15 23 20 33 5 20 8 49 5 65 12-20 23-46 34-69 6-12 14-12 18-22 17-7 35-4 53-3 39 17 41 39-3 9-9 4-22 0-32 5-9 7-13 16-22 22-11 24-25 46-37 66 3 4 4 9 5 12-15 21-7 48-21 66 16 0 18-17 32-24 5 1 9 3 11 6 17-4 27-7 43-3 18 14 31 25 42 41 13 11 0 25 10 35 2 12 0 22-2 31-8 14-18 28-27 39-19 6-35 13-52 16-9 12-20 21-32 28-6 3-15 7-20 3 11-14 20-23 26-38-1-4-5-3-6-6 2-8 6-15 10-21-4-1-8-2-11-3 6-7 10-9 12-15-3 0-6-1-9 0 4-8 10-12 9-20 0-18-3-34-6-51-11 13-24 23-38 28-10 2-16-1-21-3-8 5-14 10-21 10-4-4-6-7-8-10-10 7-18 14-28 15 7 21 27 37 35 59-1 4-2 6-4 9-3 6 3 7 7 10-4 18-7 36-17 49-22-16-33-38-50-55-1 4-2 8-6 10-11 5-17 13-28 16 0-12 12-13 16-21 0-9 5-17-3-22 4-2 7-4 10-6-5-2-10 0-14-2 5-4 8-7 11-9-9-6-21-14-26-24-1 6-3 9-2 15-7-3-9-8-13-12-3 3-5 9-9 13-6-7-7-14-9-20-4 6-8 12-13 16-7 1-11-2-14-5-6 4-8 7-2 10-4 0-6 4-8 2 3 7 6 11 11 16-2 5-5 6-8 8 8 6 1 20 4 28 21 19 16 33 33 41-10 4-17 4-23 4-15-8-24-17-36-26-9 0-21-7-23-3-10-10-15-26-20-38-2 0-3 3-4 3 0 3 2 2 3 5-1 2-3 2-6 1 3 8 6 13 8 19-5 4-9 3-6 10 9 5 13 15 19 22-1 1 1 5 0 6-6 2-9-2-13-3-12-6-20-14-29-22-5-15-12-26-19-38-1-11 0-21 3-29 6-10 13-17 17-24-3-7-2-12 3-17-8-3-18-6-21-15-12 11-21 18-32 28-5 5-12 4-15 1-6 5-12 6-12 11 0 8 0 16 2 22-5 5-9 6-12 8 4 5 6 7 10 11-2 4-5 2-7 3 0 4 2 6 4 9 0 5-3 6-5 5 2 8 6 11 11 14 5-1 9-2 12-4-4 6-6 12-3 18-7 0-13-2-19-4-10-8-18-17-27-24-5-14-9-26-13-37-2-11 4-16 6-23 8-13 18-23 28-34-2-4-4-9-1-12 17-14 32-25 52-28-19-20-17-49-34-70 13 7 30 7 37 19-1-1-3-3-5-6 6 6 15-1 17 5-3 4-6 3-8 2 4 1 13 4 9 1 3-2 6 0 9 2 16 12 25 23 37 35 6-9 12-18 17-26-8-13-17-26-24-37 0-5-2-9 0-12 14 10 32 23 41 34 34-23 26-10 73-48 24 2 47-11 73-14 23 2 46 0 69 1 13 2 24 8 31 17 2-17-2-30-5-43-9-14-12-21-21-33-16-6-31-12-49-10-20 2-37 8-54 13 4-10 16-14 26-19 9-3 16-4 22-6"/><path fill="#165379" d="M560 352c-2 12-9 21-8 26-5 4-10 6-15 5 5 2 12 0 16 3-5 11-16 5-21 9 5 12 12 21 20 29 11-11 25-26 30-40-1-9 1-15 0-22-3-1-6 0-9 1-5-5-8-6-11-8"/><path fill="#7A1915" d="M513 281c1-1-1 7-5 14 2-2 1-5 4-6 1 9 3 16 6 22-3 4-6 0-7 2 8 14 13 22 14 34 3 4 8 6 12 7 7-5 9-12 12-17-6-22-20-39-33-55"/><path fill="#BB4C3D" d="M103 307c-14 7-28 16-41 25-2 7 0 12 2 16 18-5 24 1 46-10 3-5 2-12 2-18 0 5-4-2-5 0 7-7 6-13-3-14"/><path fill="#17283B" d="M294 266c-17 4-33 8-49 13 6 0 11-5 16-2 3 11 4 22 5 32-3 2-5 3-8 2 7 4 19 10 18 20 4-4 9-4 14-3 1-15-9-24-5-40 1-10 13-15 11-23"/><path fill="#225E76" d="M503 354c-6 7-12 14-18 20 2 10 3 18 2 27-3 6-2 10-6 13 1 11 3 20 4 30 4 2 7 0 10 1-6 10-14 17-21 21 12-7 16-12 21-19 7-15 13-25 18-43-4 9-11 3-12 8-6-5-6-11-9-15 12-15-3-21 16-42"/><path fill="#DA8F40" d="M75 243c7 12-4 21 7 39 3 8 7 20 16 21 6-12 8-31 12-42-11 1-21-18-30-18"/><path fill="#072540" d="M551 388c-10 1-21-1-28 7-5 4 2 8-2 11-13 10-15 23-20 35 13-2 32-9 47-14-3-10-13-19-17-29 3-11 13-3 17-9"/><path fill="#3B3140" d="M406 284c-9 1-20 6-29 3 3 11-10 19-14 27-13 2-24-3-33-9 15 15 37 10 53 23 15-11 20-28 22-44"/><path fill="#FCDB97" d="M327 192c-18 1-35 10-51 13-17 17-17 17-29 31 12-19 14 5 30-17 9 4-2 9 0 13 4-2 6-6 9-10 5-1 7-1 9-1-2 13-4 15 1 15 2-6 3-15 7-22 7-9 15-16 23-21"/><path fill="#FBC274" d="M371 193c-8 0-18 3-24 2-3 3 11 5 3 14-4 6-9 7-14 8-5-3-7-6-4-8-6 7-5 4-9 15 17-4 32-7 44-15 4 0 3 1 2 2-14 12-35 19-52 27 2 2-1 5 0 9 31-12 46-32 75-44-2-5 53-5 13-10 6 1 9 1 12 2-18 5-22 4-44 12 1-6 3-9 5-13-2-1-4-2-5-1"/><path fill="#1D5B7B" d="M374 383c-2 8 9 18 10 27 2 8-5 8-8 10 1 8 7 12 8 18l-4 8c-1-4 3-9-3-12-8 8-18 9-24 15 7 17 17 30 27 37 1-6-6-7-6-11 7-18 18-34 13-50 3-5 0-8-1-13-7-12-5-18-11-27"/><path fill="#3EB7B5" d="M47 343c0 16-32 21-38 53 1 11 8 26 13 39 5-2 9-5 12-8-4 1-9 10-12 5-1-13 13-17 5-23-2 3-5 11-8 12-2-7-4-11-6-15 5-3 11-9 13-2-11-5-1-12-6-20 0-6 6-7 8-1-5 3-5 4-4 10 7-2 13-6 22-4 0-8-6-9-8-16 2-9 14-21 13-32"/><path fill="#3EB9AF" d="M145 367c-3 4-9 1-12 4 4 4-2 15 7 9-6 9 2 18 1 26 2-15-16 0-18-13-8 8-6 19-10 28 6 16 14 27 18 41 6 2 2-10 7-14-5-1-3 0-5 8-4-8-8-14-12-20 6-7 9-8 15-10-3-8-3-10-7-17 5-3 3 3 12 0 4-1 6-2 7-3-1-10-2-17-7-31-2-1-4 1-6-2 3-3 8-4 9 0 1-2 0-3 2-3"/><path fill="#4E222A" d="M433 285c2 6-4 21-2 22-11 9-21 23-36 25l5 5c6-14 7 5 10-11 1 8 5 2 7 10 14-8 29-17 44-28-6-13-21 4-30 3 2-5 13-4 13-13 1-5-2-8-3-11-2-3-4-2-5-3"/><path fill="#FB7B49" d="M276 239c-3 1-3 4-5 6-1-6-9-5-15-2-4 4-3 9-7 11-1-7-2-4-7-6-12 9 8 11-1 24-1 3-3 3-5 4-5-4-2-6-2-10 0 3-4 4-2 9l1 1h2c8-1 15-1 21-5 0 0-7 2-5-2 11-5 20-7 28-11h3v-2l2 1 1-1c7-3 5 6 6 8 3 0-4-8 1-18 0 4-3 7-6 6 14-18 0-8-5 5-6-1 11-15-3-17l1-1h-1"/><path fill="#FA4C12" d="M297 362c2 4 0 9 3 13 12 8 16 25 29 26 2-10 8-18 9-38-8-4-13 5-18-1-3 5-7 9-9 8-5-2-8-5-12-7"/><path fill="#521A1F" d="M469 302c1 1 4 4 2 7-4 1-5-2-7-2 2 0 3 3 4 3-6 8-13 13-20 18-10 7-21 15-32 14v-3l1 2c3 5 12 7 19 5 15-5 29-15 38-28 7 31 7 2 12 36 21-8 9-31-6-27-4-9-4-18-10-23"/><path fill="#1C4157" d="M507 347c-23 31-18 13-33 41h9c-2 8-6 11-11 14 3 3 6 4 10 3-3 9-8 15-10 21 0 6 6 4 8 7-8 19-18 28-26 40 5-1 11-1 15-4 7-8 19-12 23-22-2-1-4 0-7-1-2-11-4-19-6-27 3-8 5-10 7-17 1-10 0-18-3-25 7-11 19-21 23-26 3 1 4 2 6 4-3-2-2-4-5-5"/><path fill="#7B3022" d="M527 123c-4 4-11 6-15 9-5 0-7-3-8-5-8 7 2 8 2 13-5 4-8 8-12 10-4-2-7-2-9-4-3 9 6 7 8 13-7 11-11 22-17 31 17-19 29-47 54-63-1 0 0 2-1 4 9-1 15 1 26 0 41 23 39 10-6-8 0 9-11-5-20 0"/><path fill="#B9433C" d="M518 282c5 10 16 15 27 35 2-3 6-5 8-1 7 10-9 8-4 12 10 11 11-11 28-2-12-17-25-28-41-42-6-2-10 0-15-2"/><path fill="#453442" d="M402 285c6 10-7 29-15 38-8 5-15-3-19-6-2-10 10-16 11-23 7-6 14-4 20-6"/><path fill="#4F1D21" d="M227 320v16c6 6 11 12 17 14 8 2 14 0 20 1 2-6 5-13 8-18 6 2 7 5 6 10-2 3-3 4-4 6 5-1 11 4 17-1 3-3 0-8-1-19-5-1-10-1-13 3-2-2-1-3-2-6-2 7-8 13-12 17-13-9-26-11-34-22"/><path fill="#0F2135" d="M273 333c-4 5-6 13-7 18-6 3-11 1-15 2-11-2-17-9-23-15-3 10 0 18-1 28 1-3 1-6 2-8 4-3 6-6 10-4 2 4 7 6 9 10 2 7-1 10-2 14 3-4 8-1 9-7 3-4 0-8-1-10 3-1 10 0 10-4 20-4 8 12 31 7-2-31 0-8-25-15 2-2 5-1 6-5 2-5 2-7-1-9"/><path fill="#4EB5AE" d="M360 266c-4 0-8 4-3 7 0 2-1 3-2 4-9 6-18-2-20 5-1 9 12 22 19 21 10 4 15-3 20-9-1-1-5-15-10-20l-1-2 1 2c-2 2-4-2-5 1 0-4 4-5 1-8"/><path fill="#BFF4D4" d="M194 365c-10 12-7 28-11 43 3 10 16 5 14 20 6-12 11-3 10-5-5-19-6-57-15-56"/><path fill="#F54408" d="M305 306c9 18 21 37 32 55 8 5 22 4 21 8-13-26-32-43-49-63"/><path fill="#E95137" d="M337 188c-9 5-20 11-27 21-12 16-13 35-16 53 9-16 13-34 28-48 5-19 54-27 14-26"/><path fill="#E0532A" d="M416 234c-5 6-14 4-21 5-7 11-17 15-25 20-2 6 2 10 1 14-3-7 14-4 18-9 8-11 44-25 30-30"/><path fill="#B54135" d="M481 281c7 18 16 36 19 57 5-5 12-6 18-4-3-10-13-33-23-43-3-4-7-6-12-9"/><path fill="#FBB171" d="M276 221c-4 8-9 6-15 10-6 1-1-2-3-4-9 10-15 14-16 20 0 0 9 0 5 5 5-1 4-7 8-9 6-4 17-5 13 2 4-4 6-9 11-7 1 4 4 3 6 4-1 6-7 15-6 15 4-8 8-12 12-18 2 8-1 15 2 21-1-18 10-48-16-28-3-1 1-5 3-8v-1h-1"/><path fill="#FCBF68" d="M296 314c-7 17 6 35 1 44 2 3 4 4 7 6 13-6 0-14 8-23 9 10 20 5 27 26-16-24-15-26-27-42-6-8-3 2-12-1-3-3-7-4-5-8"/><path fill="#2E7F9B" d="M506 354c3 7-1 14-2 21-3-2 0-6 0-10 0 4-5 5-6 9-4 10 6 3 0 17 0 4-4 4-4 3 0 5 2 12 5 17 13-8 15-9 14-1 0-18 1-33 1-46-2-3-3-7-7-9"/><path fill="#333F51" d="M430 247c-4 2-7 4-8 9-3 8-5 16-7 23-2 4-6 3-7 5-3 3-2 5-3 6 0-3-3-3-5-1 7 0-2 16-3 15-8-2-13 16-24 13-5 1-5-3-7-4 1 2 3 4 5 5 5 4 10 10 14 6 17-30 18-18 22-38 13-5 14-10 27-12 3-11 4-21-2-27"/><path fill="#E74315" d="M261 217c-8 2-14 3-20 11-11 14-15 30-20 45-6 3-10 6-14 8-8 6-15 3-22 7 0 2-1 4 0 6 7-4 15-5 19-12 6 1 19-5 27-7 6 3 10 1 15 0-4 1-9 2-13 1-2-2-3-4-2-5 4-22 16-39 30-54"/><path fill="#234055" d="M413 311c-4 7-10 16-18 19 0-4-3-7 2-9-6 10-9 5-14 8-6-2-9-6-13-8-11-3-20 2-27-3 4 10-3 5-3 11 10 2 21 7 31 6-1 4-4 5-6 9-2 7-7 12 0 13 1-8 9-23 11-20 12 3 57-28 26-8 5-8 10-10 10-17"/><path fill="#AE2D18" d="M423 241c-12 7-24 16-35 25 0 8 2 8 1 15 12 1 14-3 23-7 3-12 7-21 10-31"/><path fill="#AC2105" d="M212 291c1 20 0 40 1 59 3 6 10 10 8 15 3-11 3-38 1-54 0-9-2-17-8-19"/><path fill="#F88544" d="M432 211c-15 0-21 14-36 15-1 9-6 12-8 19-7 9-11 5-14 11 7-4 15-9 18-17 15 0 20-5 31-5 1 6 0 10-2 15 5-20 12-35 15-39"/><path fill="#1E465B" d="M224 420c2 7-7 9-10 20 2-1 3-8 7-7 6 15 5 31 15 42 0 5-2 7-1 10 7 4 15 2 21 3-14-10-7-26-29-42-4-8-4-19 0-24"/><path fill="#3F898B" d="M304 266c0 7-10 9-11 16 6 10 13 12 25 19 9-3 0-20-2-29-4-4-7-6-10-6"/><path fill="#214759" d="M39 412c3 4 4 7 2 10-8 4-13 16-17 16 3 6 7 9 10 2 12 16-7 7 13 21 6 3 13 3 18 6-2-7 0-13 6-16-5 0-8 2-11 5-9-8-13-17-21-22 3-4 8 0 12 1-3-1-7-3-11-5 1-3 3-8 6-6-2-3-7-12-4-11"/><path fill="#333F4F" d="M257 277c-7 3-14 3-22 2-5 6-9 11-7 19 13 2 25 13 37 12-9-3-19-10-27-18 2-5 9-3 13-4 0 4 3 10 7 8 4-3-1-6 4-7 1 3 1 4 2 6-2-6 0-16-5-19"/><path fill="#191428" d="M442 231c-5 1-9 7-14 3-1 10-6 17-9 27 2-6 4-12 10-14 10 4 9 14 7 21-4 14-14 6-18 12 4-4 10 0 11 3-2-3 1-6 5-7-3 4-3 8-2 15-2-2 2-4 0-7 7-4 11 5 15-1-4-2-9-2-12-5-2-16 35-52 6-44"/><path fill="#46ACB0" d="M331 411c-6 4 3 12 4 17 0-5 7 1 9-1 0 5 0 9-2 11-3-1-8-4-10-9v-1 2c4 6 10 14 17 18-1-1-8-7-3-11 10-3 20-13 30-12-4-4-3-9-9-7-10 0-17 2-18 10-2-5 0-9 1-13-7-2-13-1-17-3"/><path fill="#AD2205" d="M181 312c-7 13-15 26-23 39-1 8 11 3 9 11-2 3-4 7-6 8 3-3 6-5 10-8-2 4-5 7-8 9 3-2 6-5 8-8 4-11 6-34 13-37 1-3 9-12-1-14"/><path fill="#B22911" d="M123 306c1 6 2 13 3 20 30 16 0 17 14 17 8-5 3-14 3-21 4-2 10-3 13-6-9-2-20-7-30-10"/><path fill="#FDEDA9" d="M260 207c-11 8-24 16-34 22-8 8-15 13-20 21 7-1 12 2 15 5s1 4 2 7c4-11 7-21 14-31 8-10 15-18 23-24"/><path fill="#243D51" d="M328 404c-6 5-11 9-15 9 8 8 2 17 1 23-8 8-14 11-18 19 13-5 21-10 32-17 8-13-11-22-1-33"/><path fill="#254456" d="m234 355-1 2v16c-4-1-5-3-4-6-1 2-1 5-4 5-17-9-32-12-1-1-2 5 0 8 0 12 3-1 5-3 7-4 4 4 8 5 11 7 5-4 7-5 8-9-1-2-2 3-4 3 0-6 3-9 2-15-3-5-7-7-9-9s-3-2-4-2"/><path fill="#4E3440" d="M397 290c-6 2-11-1-16 3-2 9-17 15-12 23 13 4 21-14 27-12 4-3 9-16 3-14"/><path fill="#2D4254" d="M184 393c-3 6-13 3-14 15-3 9-3 20-2 28 7-3 12-5 18-8-7-1-2-7-6-9 7-6-2-18 4-24"/><path fill="#81DAC4" d="M174 377c-2 3-2 6-3 10-11 1-10 5-15 9 1 7 2 13 4 18 8-15 40-30 14-37"/><path fill="#122E47" d="m559 340-12 18c-5 0-7-3-10-3 0 2 0 4 1 6-6 6-12 11-17 17 4 1 6 4 10 5 5-2 10-1 15-1 5-5 4-10 6-14-3 3-8 0-7-5 3-6 6-10 9-14 4 4 2 8 1 12 2-6 3-12 4-19 8 6 5 4 2-1"/><path fill="#334653" d="M354 232c-14 11-33 16-45 28-5 0-5 5-10 0-2 6-2 13-8 16 6-4 10-11 16-12 11 3 13 14 14 19 2 7 4 12 5 18-5 3-11 4-17 3 15 3 26 12 39 11-11-7-12-5-19-10-1-9-3-15-6-20-3-10-6-17-8-24 15-10 34-20 43-29"/><path fill="#2D849A" d="M370 425c-7 7-18 7-24 12 0 12 6 18 13 27 9-2-6-10-6-14 7-8 16-9 22-16 8 1 7 7 3 10 2-1 3-2 4-3 0-10-5-13-9-15"/><path d="M518 330c10 17-4 32-3 49 0 14 3 26-3 35 12-3 4-16 9-20-1-6-3-9-5-13 6-8 13-12 19-18 1-9-6-10-10-12-1-8-4-13-6-18"/><path fill="#A53027" d="M114 334c-11 13-32 11-45 19-5 4 0 13 4 14-2 3-2 1-5 2 3 0 3 2 6 1 14-10 27-23 39-34"/><path fill="#FBE3A3" d="M207 292c-9 6-13 14-15 23-6 13-10 30-12 45 3-3 7-7 10-9 8-4 14-2 19-1-3 0-9-3-16-1-6 2-8 4-10 8 0-15 3-26 7-38 7 0 15 5 18-3 3 7 3 11 3 16 2-28 1-27-3-37"/><path fill="#F2D792" d="M150 227c4 15 19 28 24 40l-3 2 2-1c3-7 12-12 14-19-8-6-15-13-23-20-5 4 4 2 3 7-3 6 2 9-3 11-8-6-8-14-13-18"/><path fill="#E5481D" d="M207 236c-7 7-13 16-20 24-7 12-11 21-13 32 14-7 27-42 37-55"/><path fill="#1E8499" d="M374 389c-29-4-4 18-1 31l2 2-1-3c3-1 7-2 10-3-2-11-7-20-11-29"/><path fill="#80DCC0" d="M186 415c2 7 1 14 3 24 2-8 5 3 5 5 7-1 13-8 18-3 3-5-6-12-4-16-3-7-5 0-9 3-4-5-4-17-11-10"/><path fill="#A25532" d="M484 153c-9 12-12 26-19 39 4 0 5 3 9 1 4-13 23-31 13-40"/><path fill="#15273C" d="M337 316c-2 5 3 10-1 15 8 10 17 21 26 26-6 0 1-8 0-11 4-5 6-8 9-9-10 0-21-5-31-6 1-5 2-10-3-14"/><path fill="#C8F4D5" d="M361 232c-11 6 0 3-3 12-5 1-7 1-8-2-12 7-21 16-32 19-1 2 0 3 1 5 2-5 5 2 5 4 0-2-3-5-2-8 11-3 20-3 29-5 8-2 8 5 10 8-4-8-3-21-1-31"/><path fill="#A75441" d="M457 230c0 10-18 42-18 48 5 1 8 2 12 1 5-15 9-32 7-47"/><path fill="#102438" d="M411 326c-1 6-5 10-11 13-2-4-6-6-10-5l-1-1-3-1c-3 1-6 4-9 5l-2 1 2-2c3 5-14 9-7 18 18-3-13-7 19-22 0 9-5 12 3 16 10-1 18-3 24-4-2-6-4-10-5-15"/><path fill="#7A2B22" d="M463 306c-9 11-29 19-37 28-6 5-11 3-12-3 1 3 1 6 2 8 15 5 11-9 17-2 11-8 38-20 32-30"/><path fill="#871D12" d="M239 306c4 12 17 18 22 29 15-15 2 10 13-5-2-8-20-19-31-23"/><path fill="#FBAD6C" d="M195 319c-2 0-3 3-4 0-2 21-3 14-10 36 6-6 13-9 20-7-15 0 0-5-9-4 10 5 6-13 17-14-8-3 0-12-13-8"/><path fill="#802318" d="M182 326c-3 12-7 24-9 35-3 6-7 9-10 13 0 3-2 10 2 10 4-4 7-7 8-11 0 5 7 2 8 6-6-18 1-34 3-51"/><path fill="#A22D1B" d="M478 280c-5 3-11 6-12 12 5 9 17 21 20 21 7-4-5-22-7-31"/><path fill="#B96535" d="M357 115c19 4 33 7 52 14 3-2 5-4 7-5-17-10-35-12-55-12"/><path fill="#38C7BF" d="m199 369 9 48c4 0 6-1 10 1 2 0-4 0-5-2 5-10-5-23-1-34-3-6-7-9-9-10"/><path fill="#925339" d="M445 160c-1 3-5 5-8 5 1 13 3 29 2 42 2-9 14-13 9-25 1-6 0-14-2-20"/><path fill="#AC2506" d="M231 303c1 8 0 11 5 16-7-1-9-5-7-12 0 3-2 5-1 8 11 11 23 18 35 25 3-3 5-5 7-8-4 1-4 4-6 5-13-11-25-28-29-34"/><path fill="#7C1B14" d="M115 330c-6 17-27 27-38 40 13-8 24-20 35-30 5 7 14 8 20 11 22-9-15-13-15-22"/><path fill="#FA7C49" d="M215 257c-5 6-10 7-13 3-15 15-8 27-15 23 13-1 16-3 24-7-4-2 0-5 1-8 11 1-2 11 4 5 11-10-11-5 0-15"/><path fill="#6DD3C0" d="M342 260c-15 1-2-1-6 9-3 5-11 3-10 2 0 4 3 3 2 6 5 8 9 15 13 22 3 2 3 4 5 4 7 2 12 3 18 2l1-1 2-2-1 3h-2c-6 1-11 0-16-2-10-8-13-16-19-24 8-12 8 5 16-2 4-3 10 2 11-1 4-5 6-1 7-3 5 6 9 12 12 18-3-8-10-17-13-23 0-2 0 5-4 5-11-4 2-7 1-10-5-2-5 4-7 4-5-2-8-6-9-8"/><path fill="#62807E" d="M133 283c3 8-4 13-2 20 10 5 21 8 28 10 0-3 9-7 1-11-2-5-4-1-8-3 2 3 2 6 4 8-6-15-20-7-23-22"/><path fill="#851D0F" d="M348 369c-3 7-10 15-13 24-2 6 2 6 6 7-2 3-4 3-7 2h7c3-8 10-15 6-22 6-1 11-8 17-2-5 2-5 2-1 1 5-13-7-8-14-10"/><path fill="#FCE498" d="M368 209c-10 9-25 10-37 16-5 1-7 1-8-2 1-5 4-8 6-12-8 10-14 19-19 29 17-9 46-17 60-30"/><path fill="#40878A" d="M196 452c-8 8 24 13 35 31-5-5-11-25-16-28-6-5-12 2-16-3"/><path fill="#215869" d="M136 418c3 13 7 26 10 33 3 0 7-5 11-1-4-4-5-14-9-21 1-5 3-2 5-2-6-2-9-9-15-9"/><path fill="#B26D39" d="M420 118c3 7-5 12-9 14 6-4 9 1 14 6 5 2 3 5 0 6l-2 1h-1l1 2v1c5 0 8 5 12 7 5-3 6-6 8-9-4-8-11 3-17 0 3-6 7-8 12-8-7-6-15-9-18-19"/><path fill="#F68058" d="M80 307c0 5-6 8-9 6-11 5-20 10-28 17 9 2 7-4 15 1 6-2 5-5 4-8 4 3 44-18 20-15"/><path fill="#BB4A34" d="M421 249c-4 9-7 19-8 30-9 2-16 3-23 4 1-9-6-10-2-18-4 3-9 3-16 5 1 3 2 5 3 7-4-2-7-5-8-8 4 5 6 11 10 16 13 2 24-4 35-4 2-12 6-21 9-31"/><path fill="#EC5319" d="M42 332c-1 2-2 5 1 8 4 0 9-6 11-2 0 12 1 20 4 28 4 1 8 0 10 2-6-11-10-21-11-32-4-5-9-5-14-4"/><path fill="#30606C" d="M317 271c2 8 5 16 7 24-8 2-2 3-6 7-10-5-19-11-28-15-1 5-1 10-1 16 12-7 22 4 36-1-3-12-4-20-8-28"/><path fill="#FB8850" d="M320 348c-10 10-7 2-15 17 1 3 3 3 5 4 5 2 5-3 7-7 31 7 13-15 1-13"/><path fill="#215465" d="M153 456c-28 6-13 16 1 22 6 1 4-7 9-5-1-6-13-4-11-16"/><path fill="#FABC52" d="M433 207c-15 0-31 8-36 11-7 2-4 11-10 7 4 4 4 8 3 13 3-3 4-7 4-12 15-7 36-17 44-18"/><path fill="#246979" d="M198 359c0 7 9 4 12 10 6 7 3 22 4 33 5-5 15 8 13 9-5-9-3-15-11-21 2-5 4-2 7-2 0-6-2-11-1-17-10-1-16-7-23-10"/><path fill="#2A596B" d="m421 281-1 2c-1 7 0 14-3 20-5 11-5 18-15 23 12-3 13-12 21-19 4-7 5-13 6-18 3 6 1-16 0-2-1-3-2-6-4-7"/><path fill="#C12B0A" d="M127 272c0 7-3 4-8 3 1 6 2 11 4 14-5-2-4-5-6-8 0 6-1 13 3 17 7 1 11-1 11-6 3-7 1-14-1-19"/><path fill="#A86940" d="M110 263c-4 10-4 26-10 36 5 2 9 4 13 3 3-14-2-27-3-40"/><path fill="#153C58" d="M390 435c-2 11-7 22-13 32-1 3-1 4-1 5-1 6 4 8 5 11 8-5-11-6-3-14 4-2 10-1 11-7 3-5 6-10 7-16 0-5-3-6-4-9"/><path fill="#236476" d="M220 433c-4 9-8 8-3 17 5 10 6 25 17 28-9-12-8-29-14-42"/><path fill="#D68A40" d="M360 111h-3c-4 0 1 6 1 7 9 2 16 1 21 3-5-2-11-3-17-2-3-3-3-5-4-7 23-3 44 5 59 10-6-9-16-11-24-12-10 0-21-1-30 0"/><path fill="#88E0CB" d="M354 401c-3 3-3 9-7 12 7 1 0 9 1 13l3-6c8-2 14-4 20-3-2-3-12-23-5-9-7 0-8-6-10-7"/><path fill="#557C78" d="M277 367c0 4-1 6-9 4-3 4-3 9-4 13 6 3 8-7 11-10 4 5 8 8 10 13 6-17 4-21-8-16"/><path fill="#253D51" d="M266 358c-19 3-5 8-4 23-4-13 13-9 14-15l3-1 1 1c6-1 9 1 15 0-5-2-10 1-14-2-5-1-8-5-3-6-5 0-8-1-11 0"/><path fill="#F7562C" d="M286 257c-20 7-37 12-31 17 9-3 22-6 35-10-2-1 2-9-4-8"/><path fill="#DF3B10" d="M109 253c6 15 4 29 12 34-2-2-2-6-3-10 2-4 5-2 6-1 3-7 7-2 4-9-7-6-11-9-16-13"/><path fill="#8B1E17" d="M155 318c-3 1-7 4-11 2 1 7 2 13 3 18 4-6 31-22 10-21"/><path fill="#761B18" d="M469 302c7 5 7 16 12 22 11 5 6 3 15 7-2-5-3-12-6-17-2-3-2 3-6-2-5-2-8-7-13-10"/><path fill="#F1550F" d="M146 355c-4 4-14 1-15 8 7-1 12-2 18-4 2 9 3 17 5 25 1 2 5 1 7 2-4-9-6-19-7-30-3-1-4-1-5 0"/><path fill="#2D6767" d="M335 292c-8-1-2 8-2 13l-2-1 1 1c8 3 15 7 23 8 7-5 13-7 17-14-3 3-5 8-10 9-11-1-23-4-26-15"/><path fill="#591717" d="M565 334c-1 2-4 3-5 6 6 3 8 13 16 14 2-7 5-14 4-19-1 1 0 3-1 4-6-1-9-3-13-5"/><path fill="#F9825E" d="M380 192c-18 27 22-2 33 5-9-4-20-5-32-4"/><path fill="#7E1F18" d="M569 325c-6 4-14 7-19 13 5-1 6 2 8 3 0-3 5-4 6-7 5 0 8 3 12 5 4-9 1-14-6-15"/><path fill="#41676B" d="M166 416c1 7-1 16 1 23 2 5 4 17 9 10 13-1 4-12 7-17-5 2-10 3-14 5-4-6-2-13-3-19"/><path fill="#132D46" d="M419 284c-4 17-17 32-30 44 7-5 7 7 20-11 7-9 9-20 10-31"/><path fill="#F6D16D" d="M148 219c1 4 1 8 2 9 8 4 6 18 16 17-2-3 5-7 0-10-6-4-7-15-16-16"/><path fill="#57B2A5" d="M190 437c1 4 1 9 4 13 6 1 11 6 17 0 5 2 5 7 8 9-3-6-5-12-7-18-1 0-11-2-15 5-4-2-4-5-6-7"/><path fill="#39434D" d="M412 201c-21 2-35 19-51 29 3 3-3 19 0 28 4 14 14 23 16 35-1-12-12-21-15-32 0-12-3-21 2-29 16-11 33-27 53-29 0-1-2-1-4-2"/><path fill="#4DBBB4" d="m135 273 9 15c-4 2-7-6-10-10h-1l1-1c5 9-3 2 1 12 8 6 14 7 19 19-1-3-1-6-3-8 2-1 4-2 6-1-9-10-12-19-21-23"/><path fill="#CF5A1E" d="M91 269c3-1 7 2 9 4 1 6 3 11 0 14-7 2-9-2-11-5-2-5-1-8 1-10"/><path fill="#2B5D70" d="M416 283c-2 2-5-1-7 1-3 17-10 32-22 43 10-5 15-15 18-20 1 2 11-22 13-23"/><path fill="#5C3031" d="M451 199c-11 10-19 20-23 34 4-1 13-4 15-9 4-2-8 3-3-8-1-12 9 2 10-7 2-4 0-6 1-9"/><path fill="#E73E03" d="M118 304c2 8 4 18 1 26 8 6 15 10 21 13-2-8-9-10-14-15-3-9-1-18-5-24"/><path fill="#2E9798" d="M135 427c-6 3-6 3-11 8 2 6 5 12 8 18 1-7 7-15 4-25"/><path fill="#24596C" d="M27 402c3 8 6 17 8 25 5-1 9-9 3-15 5-1 7 5 11 6-5-7-12-11-19-16"/><path fill="#F77D4F" d="M169 323c-8 5-16 11-22 19 2-1 11 6 16-3 2-5 6-10 8-15"/><path fill="#A34D2A" d="M517 120c-5 3-20 4-8 12 7-3 13-6 17-9 11-5 22 6 28 2-9-4-18-6-27-4-3 8-3-3-7-1"/><path fill="#F6570B" d="M198 349c-3 3 6 12 9 12 5 4 8 4 13 3-1-5-4-8-6-11-6-2-10-2-13-3"/><path fill="#FBB571" d="M206 251c-1 3-4 4-5 8 4 4 8 4 14-3-8 11 8 6 4 15-7 7-15 9-23 12 8-2 15-6 22-10h2v-2c6-12 0-23-14-18"/><path fill="#F6892E" d="M348 194c-6 4-12 10-18 14 5-1-1 5 4 6 5 2 5 2 1 1 7 0 13-11 17-13 2-5-9-2-7-7"/><path fill="#253E4F" d="M267 284c1 1 4 1 5 3 0 9 6 17 2 23-7-6-8-15-7-24"/><path fill="#78251E" d="M481 333c0 5-2 22 7 25 10-13 24-12 29-20-16-4-17 13-29 14-5-5-6-12-7-18"/><path fill="#531E1F" d="M518 338c-2 10-6-4-14 13 7-4 9 6 11 10 4-4 5-13 5-23"/><path fill="#AF5E31" d="M498 134c-5 2-8 6-12 11 2 2 4 2 4 4 6-3 10-4 13-9 2-5-2-4-3-7"/><path fill="#3F626C" d="M238 288c6 7 23 16 23 20 3-6 2-11 1-16-1 0 1 8-6 5-3-2-6-5-4-7-4 0-7-1-10 0"/><path fill="#5D2B2A" d="M488 178c-11 6-17 33-31 28 5 5 8 12 10 5 8-11 15-22 20-33"/><path fill="#5C2F35" d="M456 212c-3 5-16 17-14 20 6 2 6 2 2 1 5-2 11-5 15-11-3 1-3-6-2-8"/><path fill="#F97B49" d="M183 259c-7 5-13 12-18 18 3-1 5 0 9-1 1 3 2 6 0 7-5 5-10 6-15 8 5 0 8-1 11-3 3 3 2 5 3 7 0-5 1-7 2-9 4-15 2-11 9-26"/><path fill="#39252E" d="M182 297c-5 3-11 4-16 6 3 3 5 7 8 9 9-2 5-9 11-16"/><path fill="#AFF1DF" d="M355 386c0 9-6 17-8 25-10 2-14-2-20-4-5 5 0 10 3 16 1-3-5-7-2-12 8-1 11 2 17 1h2l1-1c2-4 2-7 5-10 6-1 6 6 11 6-2-6-6-11-8-17 17-2 13-1-1-3"/><path fill="#54AC9E" d="M351 385c-2 6-5 12-9 20-5 2-11-1-13 0 4 4 13 2 14 6 5-9 11-18 10-26"/><path fill="#FB5A31" d="M259 251c3 0 11-2 10 6-5 5-9 5-12 7-4-4-4-7-1-9"/><path fill="#9E2C17" d="M37 394c-2 2-4 2-5 5 4 5 7 7 11 9 2-4 6-4 3-9-2-3-4-7-7-5"/><path fill="#CD4D14" d="M92 269c-2 4-5 7-3 12 3 6 5 3 8 5 5-5 2-7 3-12-2-2-4-2-6-3"/><path fill="#C13513" d="M181 286c-1 1-6 5-5 10-5-6-10-1-15 0 2 2 2 4 3 6 10-3 25-7 18-17"/><path fill="#267D8D" d="M52 348c-5 8-9 16-12 25 4-4 10-2 10-3 3-8 3-14 1-20"/><path fill="#B4F1D4" d="M131 376c-5 5-10 12-15 17-3 9-2 18-4 26 3-7 2-14 4-21 5-7 10-10 15-16 3 6 6 10 8 15-2-7-6-15-6-21"/><path fill="#7AD8BD" d="M132 383c-4 3-7 7-10 9 4 2 5 12 14 4 2 5 6 8 3 11 0-13-2-9-7-23"/><path fill="#31969E" d="M21 402c-2 1-4 1-6 2 1 6 3 10 4 15 5-5 11-13 3-18"/><path fill="#F89F51" d="M283 204c4-2 5 5 2 6-3 5-7 9-10 8-6-7 3-11 6-13"/><path fill="#A72F1A" d="M506 280c-5 0-8 2-12 4 2 5 6 10 7 10 2-9 7-9 8-13"/><path fill="#258F9B" d="M213 418c-1 1-2 0-3 1 0 5 0 10 2 13 9-5 15-15 2-13"/><path fill="#243B4C" d="M278 284c7 1 1 17 5 21-8-3-9-12-8-18"/><path fill="#C13005" d="M196 351c-3 1-6 1-8 4-4 10 2 11-2 20 4-6 5-12 9-18 3-1 5 0 7 1-2-1-4-3-5-5"/><path fill="#73E3D4" d="M50 341c-15 8-21 22-33 31-3 8-6 13-8 19 6-30 38-31 35-47"/><path fill="#242F42" d="M228 278c-5 2-12 5-18 7 2 4 8 4 12 9-1-3 5-10 10-15"/><path fill="#C0F3DE" d="M405 208c-9 3-17 7-24 14 7 0 24-11 27-12"/><path fill="#1B465C" d="M561 343c-4 6 6 10 9 14 4 4 8 0 11 1-4-6-12-1-18-15"/><path fill="#FBBA6E" d="M148 341c-5 4-9 11-12 15 5-3 41-17 12-11"/><path fill="#7D2D21" d="M142 411c-4 4 7 14 12 13 2-6-6-11-9-14"/><path fill="#CE8438" d="M421 118c2 11 11 12 17 18-2-6-6-17-14-18"/><path fill="#5E2728" d="M312 306c8 7 16 19 24 24 0-7 0-7 1-2-4-1-4-7-5-11-7-5-13-6-18-10"/><path fill="#25485B" d="M387 334c-4 2-18 13-13 15 3-2 9-1 10-4 2-4 4-6 3-10"/><path fill="#A63921" d="M553 340c-8 1-8 9-14 13 7 6 19-12 17-14"/><path fill="#A42D28" d="M492 295c6-2 10 9 7 12-5 1-9 0-9-3-1-4 1-5 0-7"/><path fill="#1F465A" d="M380 395c1 9 9 19 11 29 2-2 3-3 5-4-5-10-11-16-14-23"/><path fill="#2B4756" d="M268 284c-1 10 0 18 3 26 2-7 4-23-2-24"/><path fill="#FA5725" d="M238 258c-2 4-5 10-4 16 4 1 4-1 7 0 0-8 4-13-2-17"/><path fill="#F85201" d="M299 310c-4 3-4 6-2 9 2 4 3 5 5 5 4-4 5-6 3-8 0-4-3-6-4-5"/><path fill="#BB3A29" d="M92 335v-2c22 2-2 10-8 10 0-4 3-7 5-8"/><path fill="#2C8791" d="M29 415c-1 4-4 7-6 10-3 14 10 0 6 8 2-5 7-10 2-15"/><path fill="#7C3C29" d="M443 148c-2 4-6 10-12 12 4 3 8 5 12 1 1-4 4-7 1-11"/><path fill="#FB522C" d="m259 253-2 1c-1 2-4 5-2 8 9 3 19-12 6-10"/><path fill="#F6572D" d="M169 278c-5 2-8 5-9 10 8 4 22-11 10-11"/><path fill="#A01E07" d="m342 368-1 2c-3 10-6 21-11 30 5 1 7 1 9 1-4 0-6-3-5-6 1-11 18-27 11-28"/><path fill="#143650" d="M555 349c-3 4-6 8-10 12 4 3-1 6 1 6 10-2 8-11 12-17"/><path fill="#114368" d="M566 378c2-2 5 0 6 1 2 6 0 9-1 12-5 0-6-3-7-4 2-3-1-6 1-7"/><path fill="#CD9147" d="M418 132c-10 2-3 9 3 12 3 1 4 0 5-2-1-4-4-6-6-9"/><path fill="#7D4035" d="M465 194h-1c-1 4-4 8-6 12 5 6 25-17 9-11"/><path fill="#2F3446" d="M190 296c-1 1-3 0-4 1-3 4-4 7-3 11 3 0 4 2 6 3 2-2 1-11 4-16"/><path fill="#4F2526" d="M519 378c-5 4 3 10 4 12 5 1 6-2 8-2-4-6 2-2-10-10"/><path fill="#10314D" d="M390 464c-1 5-8 4-10 4-5 7-2 7 3 10 4-3 6-8 7-12"/><path fill="#152636" d="M379 229c-1 5-6 5-6 8 2 4 6 4 9 3 5-5 4-10-1-10"/><path fill="#33A0A5" d="M17 386c8-2 4 13-4 13-4-3-4-5-1-8 2 3 5-4 6-2"/><path fill="#388B80" d="M320 266c5 10 8 28 8 26 2 4 2 7 3 12-1-4 0-6-2-10 4-3 4-1 5-4-4-7-8-15-12-23"/><path fill="#E34515" d="M206 332c-3 2-7 9-3 13 9 0 6-10 6-13"/><path fill="#DB9147" d="M431 164c3 13 7 26 6 42 0-15 1-31-3-43"/><path fill="#9E2310" d="M512 290c-6 6-1 21-2 23 1-4 4 0 6 0-2-8-4-15-5-21"/><path fill="#244454" d="M381 227c2 0 0 2-1 2 2 0 8 1 6 6-3 9-11 4-12 12 5 1 10-1 11-6 4-6 4-12-3-15"/><path fill="#EDC780" d="M173 250c4-3 7 3 8 5-3 4-5 6-6 8-4-4-6-8-2-11"/><path fill="#5A3632" d="M52 384c2 2 0 5-1 7-6-1-16-2-19 3 3-2 6-3 10-2 17 18 14 9 11-9"/><path fill="#226473" d="M147 363c-2 9 1 30 6 43-2-13-4-27-5-41"/><path fill="#721C16" d="M226 312c-1 11 0 22-1 32v-25c12 12 25 14 37 22-13-8-25-16-36-26"/><path fill="#BD3515" d="M333 116c-9 4-19 8-28 15 14 1-7-2 26-10 8-4-2 7 4 3-1-3 2-10 1-8"/><path fill="#207C89" d="M198 365c1 6 11 8 14 15v12c1-3 3-7 1-11 0-7-3-5-3-11-3-4-6-4-9-6"/><path fill="#F67837" d="M261 209c-6 3-11 10-17 14 6-8 28-5 20-16"/><path d="M186 428c-1 3-3 5-2 9 2 6 1 14 8 15-3-7-3-15-6-21"/><path fill="#A02C2B" d="M544 301c5-3 9 6 8 9-5 2-8 0-9-2l-1-3v-1h2"/><path fill="#2A4353" d="M278 285c-5 5-1 16 1 21 0-7 2-14 1-20"/><path fill="#447478" d="M293 371c1 5 7 13 16 19-4-8-10-11-13-19"/><path fill="#FBE8AF" d="M355 191c-15 7 38-5 49 2-13-4-29-2-44-3"/><path fill="#D48F44" d="M421 149c2 4 4 7 6 11 4-2 6-1 7-4-3-2-6-6-10-7"/><path fill="#F89028" d="M314 236c-3 7-8 7-6 14 9 0 8-6 8-12"/><path fill="#258089" d="m216 404-2 1c2 4 4 7-2 9 7-2 22-6 7-11"/><path fill="#A32C26" d="M497 311c6-3 9 6 6 9-5 2-9-4-6-6"/><path fill="#285766" d="M167 479c-16 6 0 5 4 10 3-5-2-6 0-10h-3"/><path fill="#901B09" d="M159 357c-4 2 1 7 0 11 4 0 5-3 8-4 1-7-4-4-6-7"/><path fill="#111F30" d="M460 225c-3 5 1 13-1 19 4-2 6-4 6-6 1-12-2-4-6-11"/><path fill="#104065" d="M568 379c-4 3-4 9 0 12 4-4 7-11 1-12"/><path fill="#4A686D" d="M187 452c-4 1-6 3-9 5 7 2 26 1 10-5"/><path fill="#F8802F" d="M281 206c-1 3-10 4-8 9l2 2-1-3c3 3 11 0 11-9"/><path fill="#B83422" d="M93 335c-3 1-7 3-9 7 5-1 27-6 10-8"/><path fill="#4F4E50" d="M42 375c11 7-1 18 8 14 3-4 2-2 2-7-2-4-4-6-8-5"/><path fill="#DC3E13" d="M329 122c-7 3-15 5-21 9 8-2 26-4 24-10"/><path fill="#E14607" d="M186 356c-9 6-3 14-2 22 3-11 1-12 1-20"/><path fill="#DA755C" d="M515 278c3 1 0 4 2 4 15 18 28 34 32 54 5-4 10-7 14-10-4 3-8 5-12 8-5-19-19-34-31-50 1-5 9 0 12-2-5-1-9-3-14-4"/><path fill="#13283A" d="M485 357c-3 10 3 10 1 13 7-9 15-9-1-11"/><path fill="#4F7B7C" d="M183 439c8 14-12 9-10 16 5 2 10-4 14-4-4-3-1-6-3-10"/><path fill="#27828A" d="M368 377c-1 8-12 9-17 5 3 2 10 5 15 5 3-3 8-7 5-8"/><path fill="#FA5608" d="M312 344c-2 2-2 10 2 10 5-4 3-10-1-11"/><path fill="#EBC277" d="M175 250c-3 4-4 7-2 10 6-1 9-6 3-10"/><path fill="#298C94" d="M139 446c0 4-7 11-2 15-1-4 6-7 7-6-1-3-2-6-4-8"/><path fill="#862A1D" d="M37 391c-14 15 3-7 8 5 5 6 2 9-1 12 3-1 6-2 8-3 0-6-4-10-8-12-4-1-5-1-6-1"/><path fill="#592826" d="M147 410c-16-3 14 4 10 13 0-7-2-10-4-13-3-2-4-2-5-2"/><path fill="#1C1223" d="M463 293c-2 5-1 13 5 16 3-7-4-9-5-14"/><path fill="#2A4753" d="M299 303c-3 1-6 2-9 2 1 3-2 7 0 9 2-3 6-6 7-10"/><path fill="#4B6167" d="M156 294c2 4 6 7 8 11-1 5-6 7-3 9 3 4 5-1 7 2 0-4-1-6-3-8-3-6-6-9-8-13"/><path fill="#2B2F3B" d="M205 288c-5 2-10 4-15 7 1 3 3-2 3 0-2 7-2 10-3 15 1-8 8-15 14-21"/><path fill="#329CA2" d="M19 385c-1 11-10 2-8 13 8 1 12-11 8-10"/><path fill="#4FC0B2" d="M349 259c-7 0-4 4 1 5 3 1 4-3 7-3 0-4-4-2-7-3"/><path fill="#A64F2E" d="M555 123c2 7 15 5 20 12-5-6-11-10-18-11"/><path fill="#314A58" d="M55 359c-1 5-2 13-2 17 4-2 5-3 7-2-2-5-5-9-6-13"/><path fill="#7AD9C3" d="M415 205c-3 1-7 0-10 2 4 4 23 0 11-3"/><path fill="#5CC2B2" d="M344 268c6-2 7 8 0 9-4-3-4-6-1-8"/><path fill="#499E91" d="M333 262c-3 1-6 1-9 2 1 5 4 8 8 6 1-2 3-2 2-4-3 0-5 3-8 1 4-4 10-2 9-5"/><path fill="#503C41" d="M391 208c-14 7-26 16-39 25 20-9 17-8 36-25"/><path fill="#892025" d="M549 315c-4 2-4 8 0 9 6-2 3-7 2-9"/><path fill="#FCEFB0" d="M61 234c4 8 9 16 11 24 0-7-1-6-8-20 13 4 7 7 14 4-6-3-11-5-15-8"/><path fill="#DEF0DB" d="M373 226c-3 1-6 2-7 6-2 7 16-3 10-7"/><path fill="#FBC140" d="M365 249c1 2-1 6 1 8 5 0 8-2 9-4-3-1-5-1-8-3"/><path fill="#F9E8A9" d="M302 303c-4 1-2 5-5 8 1-4 5-2 7-1 0 13 15 17 20 34-5-11-12-21-18-31-3-4-3-7-4-9"/><path fill="#2C6A76" d="M204 463c10 9 19 16 29 23-4-1-17-18-26-21"/><path fill="#3897A2" d="M336 426c-1 4 3 8 5 12 3-3 2-6 3-9-2-3-4 1-6-1"/><path fill="#45696F" d="M280 365c-27 18-14 4 7 4 4 2 3 4 7 6-6-3 2-7 1-4-2-2-6 0-7-4-5 0-6 1-9-2"/><path fill="#215664" d="M35 442c-2 0-3 1-4 2 3 6 5 4 7 8 1 0 1-6-2-9"/><path fill="#AE5339" d="M347 194c-9 2-16 10-23 18 1 6 10-10 21-17"/><path fill="#D9815F" d="M61 343c2 27 3 2 21 3-7-1-12 3-18 3 0-3-4 1-4-3"/><path fill="#986857" d="M117 289c-3 3-1 7 1 10 7 3 14 6 21 8-3-2-8 0-9-5 0-5 2-9 3-12-1 3-2 7-5 9-8 1-13-3-13-8"/><path fill="#F99256" d="M203 338c-13 8-14 6 6 11 0-2-11-3-8-11"/><path fill="#1A1C2A" d="M116 312c-1 4-2 9-3 14 7-1 4-9 3-12"/><path fill="#EF813C" d="M364 244c-2 13 1 23 10 31-6-10-10-21-9-29"/><path fill="#2F3448" d="M431 291c0 9-5 16-11 24 5-3 9-7 10-13-2-3 4-7 2-9"/><path fill="#57DDD0" d="M131 268c1 15 8 12 15 26-11-13-6-20-14-23"/><path fill="#925147" d="M441 212c-3 3 5 3 6 6-3 9-9 13-15 15 7-1 13-6 15-13 6-11 2 0-4-9"/><path fill="#C23E1D" d="M349 114c-9 2 2 4-8 7 6-1 15 0 9-7"/><path fill="#2E6171" d="M371 238c0 3-4 3-4 7 1 1 2 2 4 2 5-4 6-6 0-7"/><path fill="#255768" d="M45 424c-10 6-1 7 5 10-1-4-2-6-3-8"/><path fill="#723728" d="M435 140c-3 2-7 1-8 5 3 1 17-4 10-6"/><path fill="#523E40" d="M302 252c-2-1 4 0 4 10 6-3 6-7 8-8-3 2-9 2-10-4"/><path fill="#F7D9B5" d="M104 303c-2 1-5 0-6 1-4 1 1-1 2-1-15 9-30 25-45 30 1-2 3 2 4 0 15-11 31-21 42-28 10 0 16 7 3-3"/><path fill="#63D8CC" d="M23 380c-4 4 0 6 0 13l-2 1 1 2-1 1c3-3 9-1 11-6-2 1-4 5-9 3-5-11 9-8 2-14"/><path fill="#1E4055" d="M409 346c-5 3-10 3-14 5 5 3 13-2 16-5"/><path fill="#A23820" d="M501 348c-5 2-8 3-11 9l1 2v-3c2-3 13-2 12-9"/><path fill="#F6DAAE" d="M181 311c-4 2-8 4-12 7 2 0 5-4 8-3-7 14-14 25-21 35v3l-1 1h-2c-6-1-10 1-15 2 5-2 10-2 14-3 5 5 4 10 6 13-1-3-2-7-3-11l2-2v-3c7-12 17-28 23-39"/><path fill="#F6F4DD" d="M208 288c-9 7-15 15-17 24 3-8 7-15 15-20 5 2 4 7 4 13 0-6 2-12-1-17"/><path fill="#64E6DE" d="M131 413c5 11 10 23 4 34 2 0 4-2 4-4 2 4 3 5 4 7-3-12-6-24-11-35"/><path fill="#1A2230" d="M389 235c-1 5-4 11-9 13-7 1-11 1-13-3 3 6 8 6 12 4 7-3 9-8 10-12"/><path fill="#942123" d="M547 301c-4 3-2 9 2 9 2-3 0-5-1-7"/><path fill="#F6BE42" d="M73 244c0 9 2 13 2 23-5-16 11-7-1-21"/><path fill="#3E9A9A" d="M355 286c4-2 8 5 3 6-4 1-5-1-4-4"/><path fill="#194358" d="M152 450c-5 4-8 6-12 10 5 3 9-8 12-4-1-1-1-3-2-4"/><path fill="#429E9A" d="M343 288c5-3 9 6 2 7-3-1-5-3-2-5"/><path fill="#9E4D34" d="M354 111c-4 5-1 2-1 10-5 0-7 2-11 1 3 0 6 1 8-1 4 0 6 1 8 0-2-9-5-4-4-9"/><path fill="#214E5E" d="M162 471c5 4-6 2-4 9-8 0-12-10-11-6 2 4 5 7 10 9h3-2c13-7 9-8 0 0 0-6 7-7 7-11"/><path fill="#F7711B" d="M350 202c-2 7-9 11-15 13 4 0 8-1 11-4 4-2 3-5 5-6"/><path fill="#471413" d="M511 282c-3 8-9 13-4 18-3 1-3-1-5-1 3 1 3 5 6 6-1-1-1-2-1-3-1-8 4-15 6-20"/><path fill="#FEE690" d="M91 248c5 3 9 7 15 7-2-5-8-3-12-7"/></svg>