<svg xmlns="http://www.w3.org/2000/svg" width="600" height="600"><path fill="#CF6969" d="m423 110 1-1c25 5 53 23 45 53 9 11 15 20 22 30 4 9 4 17 1 24-11-7-26-27-42-38-9-1-15-5-21-8-7-3-9-9-12-12-6-2-8 1-11 1-1 9-4 13-4 19 18 27 37 50 50 74 2 11 2 21 0 29-2 15-8 24-17 33-10 2-14 13-22 13-8 12-18 25-29 34-6-1-1-8-2-12-5 0-8 3-12 5-10 13-18 22-26 33 5 24 11 47 17 68 17 7 37 3 51 14-11 4-20 5-28 9-15-2-27-3-38-3 0-7 4-11 2-17-4-26-11-48-17-71 2-10 16-22 14-27-12 6-19 17-29 16-6 6-11 11-14 19 0 24 4 44 7 65 1 6 1 11 6 13 20-2 37 5 53 11-19 3-45 7-70 3-4-34-10-66-13-98 11-9 16-18 23-27-5-4-11-2-16-3-2 6-2 11-4 15-7-5-11-9-15-13-10-3-19-2-28-2-2 4 0 8-4 9-8-5-14-9-19-14-5 6-8 14-9 21-3 17 6 30 6 43 4 12 15 20 21 30-9 0-15 0-21-4-17-13-34-25-47-41-5 19 3 44-2 58-8-9-13-15-18-20-2-15 1-25 2-36-5-3-9-7-10-11-14 20-23 44-38 64 0-13-1-25 4-34 10-23 17-44 31-62 12-7 21-20 32-26 8-6 17-3 24-7 11-19 24-34 40-48-12-5-26-4-35-11 8-5 14-9 20-10 19 0 30-1 44-2 14-4 22-12 34-15 6-5-8-9-9-16 38-3 66 27 102 25 8 5 12 11 18 14 6-8 5-19 0-24-12-22-26-40-38-58-1-19 2-34 7-47 11-12 26-20 40-27"/><path fill="#FB605C" d="M389 188c6 7 12 14 14 22-3 3-7-4-11-3 13 20 24 40 29 36 1 14 10 25-1 28 11 2 3 8 8 12-3 3-5 2-7 4-6 6-4 9-2 13 8-2 14-11 22-18-6 10-14 18-16 27 8-7 12-12 17-17 5 2 0 6-1 9 16-17-1-27 13-46-11-19-22-28-24-34-11-7-19-21-29-30-3 1-6 2-10 0"/><path fill="#91222B" d="M246 344c-13 1-20 5-27 3-13 2-15 29-24 27-1 12 5 16 4 22-5 5-15 4-13 1 0 5 2 9 5 14 4 0 6-2 7-4 4 5 11 5 17 8-2-14-6-26-4-39 2-10 4-17 7-23 9 2 15 9 21 13 4-3 2-5 3-9 15-3 43 6 16-13-3-1-7-1-11-1"/><path fill="#FB4133" d="M399 138c-20 0-6 2 3 6-4 5-8 5-12 7-2 12-6 21-7 30 4 4 5 7 9 9 9 6 0-3 7 0 13 13 27 26 38 40-9-14-26-35-37-53 1-8 4-12 4-17 4-3 5-5 9-4 9 10 20 14 32 19-3-5-4-10-5-14-4 0-8 2-12 3-2-11-17-22-10-26h-18"/><path fill="#FBE8E5" d="M348 246c-16 5-31 11-44 22 8 0 14-3 21-5-4 11-7 20-8 29 1-4 3-9 5-14 6 2 9 8 13 2 0 9-1 17 0 27-2-13 3-22 9-32 3-3 4-5 6-6 8 0 15 1 17 1 2-6 4-9 7-11-2-3-6-3-9-5 20-2-10-6-14-8"/><path fill="#9F2E3B" d="M377 313c-5 3-9 6-13 10-22-5-15 4-9 17-1 4-3 1-4 3 3-2 7-2 9-4 0 3-3 5 0 9 8-6 24-12 12-12 8-4 10-3 14-5-6 3 5 5 5 7 2 6-7 7-5 5-2 4-3 12-4 17 18-11 25-32 29-34-4-1 9-9-8-7-15 7-29 12-44 14 3-8 13-10 15-19"/><path fill="#EC6F8A" d="M173 360c-7-3-10 7-13 13-4 24-7 44-6 67 2 5 8 2 10 4-4-9-3-21-5-31 5-4 6-2 9-8 4-13 7-26 10-37-2-3-6-5-4-8"/><path fill="#EC6E88" d="M163 362c-2 2-6 5-8 8 0-3-2-4-8-6-11 12-20 24-27 37-5 14-6 16-7 25 6-1 11-4 13-7 9-11 17-31 28-46 4-5 5-7 7-10"/><path fill="#FBD7BF" d="M267 259c-37 5-27-1-53 4 7 9 26 2 38 5-15 14-30 25-39 40-10 14-13 13-7 21 32-45 50-45 60-68"/><path fill="#DB5C62" d="M283 306c-1-1-9 12-6 22-4-2-5 3-7 1-3-4-4-7-6-10-1 1-3 2-4 4 5 17 11 32 24 44 1 6 2 3 4 4-1-4 1-7 2-11-3-14-1 11-4 10-5-15-9-27-11-39 3-3 3-5 4-7 7 8 7 17 13 22 4 0 5-3 6-5 4 3 3 6 6 7-2-6-12-19-11-23-1 0-1 2-3 2 0-7 6-12 2-18 0 3-2 4-3 6-7-2-2-8-7-9"/><path fill="#FB8A99" d="M186 333c-3 1-6 1-8 2-13 8-23 17-31 26l-2 2-1 1v2l-1-1 1-1h2l1-1c5 1 10 4 7 6 7-6 11-11 18-18 0 4-4 7-3 10 0-3 3-1 3-2 4 3 2 5 7 6 2-4 3-9 6-14-1 7-4 14-1 16-3 2 29-37 2-20 9-4 1-12 5-14-1-1-2-1-3 0"/><path fill="#BD342A" d="M345 405c1 8 5 15 6 22 0 8-5 2-6 4 1 14 10 28 1 41 15 0 31 6 45 1-5-2-1-7 5-9-11-2-23-2-35-5-6-19-10-36-15-53"/><path fill="#FB8E91" d="M397 258c1 1 3 2 3 4-10-3-9 9-13 7-6 5-2 10-4 14-7-1-11-5-15-10 3 5 8 10 13 12 1 4 5 0 5 4-11 13-27 16-34 32 13-4 23-16 34-18 3-3 5-9 8-8 0-7 1-15-5-14 7 0 4-5 11-3-2 2 0 6 3 6-4-3 2-5 3-7-6 2-5-8-9-9 8-5 12-4 2-10"/><path fill="#9D2F3B" d="M214 348c-12 4-18 20-33 24-3 9-3 18 2 25-1 4-2 13-4 12l7 7c4 1 4-5 7-3-4-4-8-10-9-15 4 2 9 2 13-1 2-6-4-11-4-21 11 0 10-25 27-28"/><path fill="#FC6652" d="M430 118c3 5 7 10 6 18-28-6-18 9-8 26 4 0 8-2 12-3-2-8-1-16-4-21 0-4 2-5 1-7 9 1 17 2 24 4 3 5 5 8 6 12 2-8-6-17-11-19-7-7-16-6-24-9"/><path fill="#FAD0D0" d="M377 251c-5 0-6 3-9 1 3 2 1 2 8 5-4 5-6 8-8 15-6-7 1-6-6-6 2 1 3 3 4 4-8 0-16-3-19 4-10 12-12 24-12 38 4-16 27-28 32-39v-1l2 1c2 2 5 6 8 7-3-16 7-21 0-26"/><path fill="#FBF3E5" d="M323 242c-10 1-19 2-26 3-10 5-19 9-28 13-3 15-14 11-18 23 6-6 15-9 20-16 10-10 78-19 57-24"/><path fill="#90242A" d="M379 333c-5 2 0 8-20 16-1-3-3-7 2-8-8 2-16 6-23 8-8 3-10 16-14 22 11-20 80-22 60-40"/><path fill="#FCBCAF" d="M275 265c-14 10-28 20-42 31 10 2 81-26 46-29"/><path fill="#6F1F2C" d="M199 408c-17 4 16 26 23 36 8 3 11 2 16 5-8-11-16-20-23-32-7-3-13-3-15-9"/><path fill="#F2CCCF" d="M323 277c-4 17-8 12-6 27-4-1-2-5-3-7-3 2-5 1-7 0 6 16 12 31 23 41-1-10-5-20-8-29-1-5-4-3-5-2 4-12 18-22 19-24-4 4-7-1-11-4"/><path fill="#FC9283" d="M295 270c-8 8-20 11-29 19 3 4 4 9 10 9 10-4 14-13 20-19 3 3 1 5 2 9 1-1 3-7 5-5 9-20-1-7-12-10"/><path fill="#FB8959" d="M379 145c-5 12-4 23-6 36 10 14 14 26 29 29-2-10-12-18-19-28-2-11 1-26-6-34"/><path fill="#901A1B" d="M365 357c-4 2-10 7-16 3-2 7-5 4-4 8 2-2 8 2 5 5-4 4-6 7-7 10-5-3-4-5-3-8-2 3-5 4-6 6 3 20 6 32 10 49 3 0 6 2 7 0-4-16-8-29-11-43l2-2 1-2c2-3 3-6 5-9 8-5 11-9 16-16"/><path fill="#CC4652" d="M428 296c-15 7 3-1-5 7-22-2-5-3-25-1 4 0 6 2 9 3-1 4-1 6-5 5-8 0-15 0-21-2 3 8-13 11-7 19 5 0 7 0 13-2 1-5-2-8-1-11 16 2 20 4 31-4 8-2 7-9 11-14"/><path fill="#FCB19B" d="M424 110c-7 6 6 5 4 9-14 8-29 8-40 18 19-4 68 8 34-28"/><path fill="#BB3332" d="M260 317c-3 12-59 40 2 22 4 9 9 17 15 23-9-11-14-23-19-36 0-5 4-7 5-10l2 1v2l1-1-2-1h-1"/><path fill="#FB8E94" d="M237 294c-4 4-13 9-12 15 8-10 6 0 17-9-6 10-10 28-15 44 8-11 15-20 22-30-4-1-3-10-2-15-4 0-1 2-4 2-2-2 3-6-4-6"/><path fill="#FB6F74" d="M402 265c1 8 7 16 2 22 6 2 10 7 13 0-1 6-5 8-7 12 3 1 6 1 7-1v-1l-1-1-1-3c1-2 3-1 3-4 1-5 6-3 9-5-1-3-4-6-2-8s-10 3-9 8c-7-7 4-9 4-12-5-7-10-2-15-8"/><path fill="#F9CED4" d="M372 281c-1 3-4 2-6 3-9 19-16 13-15 37 4-14 30-27 26-38"/><path fill="#691C27" d="M452 150c-4 9-5 20 2 24 8 10 17 22 25 29-3-14-13-25-25-34-9-16 6-16-1-16"/><path fill="#F45A58" d="M263 295c-4 16 4 20 8 33 7-9 6-20 8-30-2 1-4 3-5 4-6-2-8-2-11-6"/><path fill="#B6393D" d="M306 318c-1 4-5 11-9 4 6 8 11 16 9 24 4-1 7-6 2-7 4-2 5 0 6 0 3 10 4 21 4 33 4-9 9-15 11-23-10-2-11-13-19-12-1-4-2 3-4-1-2-3 0-7-1-9 4 1 7 2 8 4-4-4-1-7-5-11"/><path fill="#C14C53" d="M323 304c4 4 9 14 7 20 6 4 11 18 18 13 1-5 0-12-2-16-4-1-7 1-10 1-10-5-3-11-7-18-1-1-2-1-3 0"/><path fill="#FC726F" d="M264 289c-6 10-11 21-18 31 3-3 0 5 2 5 6-2 9-6 12-11 2-7 2-12 2-17 4 1 8 4 12 4-3-2-6-6-8-9"/><path fill="#DF5F6B" d="M229 333c-12 4-20 0-26 8-2 5-3 9-4 12 2-1 4-3 4-5 9-1 17-3 24-4-1-3 1-6 2-9"/><path fill="#A42D32" d="M311 325c4 9 8 20 19 22-2 11-9 19-10 27 4-9 13-26 16-22 3-3 7-5 12-8-3-1-2-3-5-3 5 3-3 2-2 7-16-22 5-4-8-18-6-4 4 10 0 12-8-3-17-8-21-16"/><path fill="#FC9D8A" d="M326 250c-6 1-12 0-16 3-11 3-17 8-25 12 7 0 14 1 19-1 7-7 25-12 26-15"/><path fill="#FC6545" d="M384 139c-1 3-3 5-4 8 4 9 3 21 2 31 2-8 5-16 7-24 3-6 8-6 11-8-4-3-9-5-14-6"/><path fill="#FB9D7C" d="M231 269c-9 1-18 1-26 2 13 4 22 4 34 8 20-13 3-11-7-10"/><path fill="#991F26" d="M305 347c2 13 4 15 1 29-1 8-9 13-8 20 6-10 9-16 16-23 5-10-8-14 0-22-4-2-5 1-6-3"/><path fill="#D35971" d="M171 400c-1 5-5 13-9 10 0 13-1 25 3 35-3-2-9 1-11-6 5 6 10 14 15 19-1-3-2-7-3-11-1-7-3-11-4-15 3-4 6 0 7 2-2-7 1-13 2-33"/><path fill="#FCE0B9" d="M422 111c-8 4-15 7-23 11 2 1 4-2 7-3-1 4-6 6-5 9-7 2-12 2-17 4 2 1-2 4 0 7 5-4 10-9 15-11 12-5 40-6 20-16"/><path fill="#FC6872" d="M241 300c-7 7-14 12-22 19 0 4 4 10 0 12 3-2 6-4 11-3 3-11 5-17 11-26"/><path fill="#BF3534" d="M298 394c-8 4-4-1-1 9-4 2-5 0-7 0 0 12 1 24 3 32 3-36 9-13 4-38"/><path fill="#FACDCB" d="M324 270c-5 0-10 1-15 2-3 7-5 13-6 19 9-6 18-9 18-20"/><path fill="#F43F36" d="M472 169c3 12 7 25 16 36 1-5 3-8 3-11-8-9-12-17-17-24"/><path fill="#BD313E" d="M421 308c-4 4-10 6-15 9-8-1-13-1-19-2 0 4 2 5 2 7 6 2 10-1 14-5 4 1 6 0 8 1-1 2 3 5-2 6 6 0 22-12 12-13"/><path fill="#D4616F" d="M129 416c-5 10-6 4-12 13-7-2-5-7-4-10-6 12-6 22-7 36 5-11 15-19 21-37"/><path fill="#FBABA6" d="M378 254c5 2 0 23 1 30-1-16 15-15 12-26-4-3-8-5-11-7"/><path fill="#FC7884" d="M231 306c-6-1-18 12-27 28 7-2 10-3 14-5 1-3 1-7 1-8 3-7 14-13 14-16"/><path fill="#E68C92" d="M280 328c-7 4 3 25 5 35 3-12 3-24-4-33"/><path fill="#F5EEEB" d="M439 132c1 11 2 24 5 34 3-6 4-10 5-15-3-4-7-6-6-11 2-9 10-1 10-4-3-2-8-2-11-4"/><path fill="#D14B4F" d="M303 372c-3 5-8 9-13 13 3 3 3 6 4 8-2 1-4-1-6-1 3 3 0 5-1 10 4 0 5 2 7 2 0-4 2-7-2-7 11-3 3-17 10-22 4 4 1 6 0 8 0-2 3-3 4-5l-1-3 1-1h-1"/><path fill="#D34340" d="M297 405c1 9 0 18 3 26-3-1-6 5-8 7 0 11 4 12 9 15 0-21 3-29-4-45"/><path fill="#C3352E" d="M316 475c10 1 20 3 28 10 8-1 14-2 21-2-15-2-30-9-48-7"/><path fill="#F87872" d="M299 277c-5 5-9 10-13 16 1-1 3-7 5-5-3 27 1 13 4 22-5-11 7-17 6-22 2-7-2 0-3 0-2-5 0-6-1-10"/><path fill="#FCABAB" d="M204 323c-4 3-7 11-15 8 5 1-1 9 4 12 5 0 1 3 10-7 2-4 0-7 1-12"/><path fill="#FC6A67" d="M430 225c2 1 7 7 8 10-2 5-2 9-4 11-7-5-4-11-5-19"/><path fill="#F88073" d="M306 478c10 8 16 1 32 10-6-5-3-7-13-10-8 1-10 0-16 0"/><path fill="#FAB1B1" d="M368 273c-5 12-28 23-32 39 4-6 8-11 13-16 8 5 10-17 25-14-3-4-6-5-8-9"/><path fill="#D6404E" d="M152 385c-3 0-4 3-6 4 1 5 1 9 5 12 3-3 6-13 3-17"/><path fill="#EAA6AB" d="M313 296c-11-2-5 7-9 13 13 9 6 22 19 24-6-11-11-20-16-29-4-9 2-6 5-7"/><path fill="#FCA7A8" d="M260 292c-4 2-8 2-12 4-1 7-2 12 0 17 4-7 9-14 12-21"/><path fill="#F86B74" d="M393 280c5 4 1 12 4 17 3 2 5 4 7 4-3-6 1-5 5-6-11-4-10-16-14-14"/><path fill="#8C4F59" d="M453 153c-1 5 1 7 0 12 8 9 15 13 20 21-6-11-13-21-19-31"/><path fill="#FA7563" d="M425 111c10 10 25 12 32 17-10-10-17-12-30-17"/><path fill="#FCCA85" d="M420 250c-6-1-2 9-5 16 1 2 3 1 4 4 7-6 2-14 2-19"/><path fill="#FBA07C" d="M293 228c3 4 8 8 11 10 6-1 11-1 14-3-8-1-15-5-23-7"/><path fill="#B73743" d="M179 380c-3 10-5 9-6 19 2 4 4 7 7 9 3-6 0-14-3-26"/><path fill="#FB796C" d="M316 236c-24 11 26-3 30 7-3-3-3-2-10-6-7-1-12 2-17-1"/><path fill="#CC474E" d="M294 325c-3 2 9 17 11 22 3-8-2-16-7-21"/><path fill="#A25260" d="M190 414c-3 11 25 21 31 30-9-7-19-18-28-28"/><path fill="#F37E7F" d="M302 291c-6 5-7 13-6 23-1-5 6-6 7-8 2-7-1-11-2-13"/><path fill="#B1373D" d="M334 332c3 5 0 9 5 13 5-9 7 1 15-3-7-6-22-1-17-10"/><path fill="#DE334B" d="M442 293c-8 11-20 17-18 24 6-9 13-8 7-3 5-8 11-14 11-19"/><path fill="#A12340" d="M459 146c-1 2-3 3-4 5 4 6 6 14 10 13-1-5-3-11-5-16"/><path fill="#B6343B" d="M379 311c-6 7-12 15-21 19 6 2 10 0 14-1-2-8 2-11 8-16"/><path fill="#FB5F60" d="M246 319c-4 8-12 15-12 23 4-6 9-9 14-13-1-4-2-5-1-8"/><path fill="#AD3027" d="M356 463c6-1 14 0 19 2-6 4-13 3-19 1"/><path fill="#FC6D6A" d="M430 225c2 15-5 9 3 21 3-3 2-6 4-9 0-5-3-7-6-9"/><path fill="#FBAAAB" d="M380 286c-3 7-11 11-15 18 6-4 23-9 17-18"/><path fill="#EF9496" d="m304 296 1 2c-1 2 1 6-1 8-14 5 4 1-8 15 5-2 6-5 8-6 4 4 9 7 8 9-1-7-7-10-9-16 1-6 4-8 1-10 5-2 8-3 11-4-4 0-8-1-11 1"/><path fill="#FB8F8E" d="M351 294c-5 5-9 11-13 16 8-1 18-9 16-15"/><path fill="#A82D33" d="M312 338c-7 10 4 9 2 26-1-10 5-21-2-26"/><path fill="#F98B8D" d="M334 287c-7 5-11 11-15 17 4-2 11-10 15-7 0-3-1-7 1-9"/><path fill="#F85F5C" d="M289 289c-3 3 0 14-3 24 1-1 8-24 6-22"/><path fill="#791316" d="M346 364c-3 5-8 11-6 18 3-3 7-6 9-9 0-6-9-2-3-8"/><path fill="#BE4659" d="M164 429c0 9 4 18 6 26-2-9 1-30-4-22"/><path fill="#90171F" d="M289 343c-1 5 1 9 0 14 5 1 8 0 12 1-5-4-7-9-11-12"/><path fill="#E1505E" d="M392 299c4 2 4 5 6 8-3 1-4 2-5 3 4-1 8 0 11 0 4-7-7-8-9-11"/><path fill="#CC2A1D" d="M492 195c-2 2-1 16-6 9 1 3-1 9 3 14 3-7 4-14 2-21"/><path fill="#E54A3F" d="M295 452c5 4 0 13 4 17 1-3 4-5 3-10 0-9-2-5-4-7"/><path fill="#851B1F" d="M377 309c-6 5-15 9-22 13 10 3 16-7 23-11"/><path fill="#E44B68" d="M164 363c-8 7-13 16-19 24 4-2 10-7 12-1-1-8-3-16 7-24"/><path fill="#68152B" d="M464 143c-4 1-6 4-8 7 1-2 2-3 4-4 3 6 5 12 8 17-2-7 2-13-4-19"/><path fill="#F97B82" d="M396 294c-6 1-8 15-18 12 5 2 9 2 14 1 2-5-2-11 5-10"/><path fill="#C3565D" d="M381 314c2-1 9 11 2 11-6-2-6-6-2-8"/><path fill="#EC5F51" d="M303 465c-4 5-4 7-5 9 2-1 4 0 5-1 2 3-3 4-2 8 1 1 3 0 5 1-1-10 1-9-2-16"/><path fill="#CA272A" d="M463 165c3 5 7 10 10 16 3-6-3-10-3-15-3-2-3 0-5-1"/><path fill="#9E344C" d="M357 354c-4 0-7 4-10 5 10 6 33-12 6-2"/><path fill="#F0797E" d="M299 343c-2 2-2 4-3 7 2 3 3 5 5 6 4-5 0-9-1-13"/><path fill="#FB7D75" d="M303 266c-6 1-12 1-17 2 13-2 3 7 14 4-2-2 5-4 5-6"/><path fill="#F15E65" d="M200 342c-3 9-7 13-10 21 8-4 10-11 10-18"/><path fill="#242E51" d="M450 137c4 6-7 1-4 4 3 4 1 10 6 7 3-3 2-7 0-9"/><path fill="#FAA9A4" d="M316 284c-4 2-11 12-14 8 5 0 9 1 12 0 4-2 1-6 3-8"/><path fill="#A64361" d="M398 337c-13 9-27 14-42 17 15 1 7 4 26-8 2 1 1 3 2 4-2-8 9-8 13-13"/><path fill="#972420" d="M297 484c5 4 17 2 23 3-6-2-11-5-21-3"/><path fill="#FBDEBB" d="M300 228c10 2 18 9 30 7-9-6-16-1-28-7"/><path fill="#FAD5D0" d="M356 257c2 1 13 7 10 11-4-3-7-5-9-9"/><path fill="#BF4C4F" d="M307 326c-3 7 2 10 8 11-2-3-6-10-6-10"/><path fill="#EFB1B3" d="M299 309c-4 5-6 10-8 15 8-2 6-9 9-13"/><path fill="#F6444B" d="M451 261c-2 7-4 17-3 24 3-7 4-16 3-23"/><path fill="#FCD7CA" d="M338 241c-6 11 2 6 9 4-3-2-5-2-8-3"/><path fill="#A62C25" d="M357 464c4 4 11 3 16 4-5-2-9-7-14-2"/><path fill="#D83D46" d="M229 329c-6 1-13 4-19 5 8 1 18-1 20-4"/><path fill="#C3575E" d="M382 315c-4 4-3 8-1 12 7-3 3-7 2-12"/><path fill="#BB353C" d="M329 302c4 1 2 10 2 13 3 7 7 6 10 4-8-2-5-3-11-17"/><path fill="#CB3B52" d="M183 360c-6 12-8 26-12 39 3-8 8-21 10-38"/></svg>