<svg xmlns="http://www.w3.org/2000/svg" width="600" height="600"><path fill="#46727A" d="m450 123 1-1c8 1 15 9 14 16 27-10 13 20 23 23-6 11-18 5-25 10 11 5 21 14 26 25 6 17-2 33 7 47-2 4-3 5-5 6-4-4-9-5-14-7-9 3-18 4-19 14-5 26 16 41 16 64 3 11 3 21-1 29-9 35-49 35-61 64-1 14 2 23 2 36 12 9 27-2 37 8-4 5-7 7-12 7 2 2 3 3 2 6h-13c0 3 1 4 0 6-16-2-35-4-47-2-2-8 4-14 0-22-5-9-8-19-14-25-8 5-13 7-22 4-7 12-13 16-18 23-9 3-15 6-21 7-43 3-73 2-116 4-16-6-30-10-43-17-12-8-22-15-30-26-7-9-13-17-13-26 6 11 13 18 22 24 12 10 23 16 35 20-9-9-17-17-24-27-8-12-18-20-19-32 9 9 17 16 25 21 20 9 38 11 57 22-16-10-27-26-36-42-13-20-18-42-22-64 13-9 5-28 18-35-1 11-2 23-1 33 8 5 5-10 11-9-4 19 7 35 13 49 6 9 10 14 16 18 4 4 12-5 17 3-6-12-11-24-14-36-5-21 1-38 8-53 5 13 18 28 32 37-13-22-8-43-22-64 1-14-1-25 4-34 2 12 5 25 11 37 5 2 7-4 9 2 4 7 15 12 8 17 4-3 7 1 9-2-7-11-11-20-11-31 5 12 16 24 28 31 2-5 16-4 21 0-7-5-12-15-17-20-7-11-11-20-12-30-3-14 1-25 8-35 1 6 2 13 1 19 4 13 7 26 15 34 5 4 4-1 5-3 12 12 26 21 41 22-10-7-16-17-22-28-3-8-8-15-3-22 7 16 18 27 28 37 10 8 13 3 21 10 4-1-1-5-2-7 7 0 11 4 16 7 6 0 0-3 3-4 12 8 23 14 31 23 8-4 12-11 13-17 2-7 2-12 2-17-4-19-21-30-18-49 3-10 8-19 15-24-9-4-18 0-23-8-3-4-3-9-1-10 5-4 10-4 12-2 4-13-2-6-6-13 11-8 11-9 18-22 7 11 13 2 20 9 2-3 1-6 4-7"/><path fill="#192D46" d="M459 306c-2 12-25 12-18 27-20-22-19-4-31-28-1 10 10 14 12 22 4 7 3 15 3 22-4-4-9-7-12-11-2 5 0 10-11 19-11 3-22 5-32 1 0 1 17 8 23 4 0 3-3 3-5 5 1 0 3-1 5 0 6-2 9-8 13-11-13 21-17 18-25 29-6 2-8-1-7-3 2-4 3-6 5-7-3 1-8 1-12 0 3-9-9-3-11-10l-1-2v-1h1l-2-2c-5 2-11 2-14 8 4-2 10-10 15-5 2 8-7 9-3 12-3-1-5 7-8 4 3 6 10 6 5 12 6-2 11-6 12-12 3 4 2 6-1 8-12 9-11 8-14 13-8 2-12 1-16-2 0 3 5 3 6 5-6 3-8-4-11-6-8-2-11 3-17 4 7-7 6 3 16-2-10 9 4 8-13 17 3 2 2 5 5 5 9 5 14-4 18-10-1 7-3 12-8 15-8 4-15 2-21 3l-2-1-2-2c-3-3-1-11 0-13-2 6-2 10 0 13l2 2h2c5 5 17-2 19 1-12 5-23 6-33 3-1-8 1-13 3-18 3-6 7-9 11-12l2-2v-2l2 1-1-1h-1v2l-3-1c1-12-7 13-15-5-1 4 2 8 4 9 6 1 8-3 11-4-4 7-9 13-15 9 2 3 5 3 7 4l-2 2v1h-3c-8 3-17 6-26 10 5 8 15 7 23 8-10 3-19 0-26 0 6 2 1 5-5 3 5 0 8 2 13 1-14-2-8 9-15 7 3 3 5 8 12 8 15 0 23-10 34-14-6 9-18 13-28 16 13 7 23 9 34 5 9-2 7-5 14-3-2-4-4-7-4-10 1-7 7-9 7-14 3 3 6 2 7 4-1 2-8 11-6 18 3-12 13-14 19-21 15-5 8 3 20-8 0-2-2-4-4-5-6-2-8 3-11 4-1-4 2-6 5-8 13 3 16 13 21 21 2 8 8 12 8 18 1 7 0 10-3 13 3-5 8-1 9-5-4-21-14-27-13-38 2-7 6-15 12-25 12 5 14 18 15 31 1 7 1 13 1 19-2 7-14 3-9 5 9 8 18 10 28 12 7 3 10-1 17 1-7-5 1-6 5-5-6-5-13-5-22-4 6-4 11-4 17-5-17 4-32-8-27 1-3-26-4-16-7-31 2 0 2-18 9-21-1 1-5 6-6 1 6-7 14-13 16-14-3-1-6 4-9-1 11-3 19-7 26-14-1-3-1-7 0-9-4 5-9 10-17 10-2-5 0-8 1-11 9-9 14 1 14-6 5 0 6 1 3 4 11-3 12-16 24-18-1-10-1-10-6-41"/><path fill="#0F2A4C" d="M432 185c-12 8-7 24-15 34-5-5-8-10-8-15 1 2-1 5 1 7 19 45 14 10 39 59 1-8 1-14 4-19 7-3 20-10 21-11-13-3-2-13-7-10 1-7 8-4 13-8-4-5-12-1-9 2-7-1-7-6-9-9 0 4 4 6 4 10v5c-2 1-8-1-12 2 4-2 2 3 5 4-9-4-18-5-27-9-5-4-6-9-8-11-5-13 3-30 11-32"/><path fill="#39666C" d="M232 359c5 6-1 23 5 15-2 5-5 4-6 5 2 0 6-2 7 1-3 4-4 5-3 8-5-2-7-3-8-6 2 4 5 5 7 9-8-4-14-9-19-10-10 0 2 3-5 5-8-7-14-12-19-17 5 7-2 14-3 19-7-4-11-10-14-14 2 4 14 22 11 14 12 6-1 7 15 17-5-1-6 5-13 3-2 2 2 4 3 6 7 4 11 8 17 8-8-3-8-11-5-15 1-6 3-10 10-17 3 2 1 7 4 9 10-4 20 3 29 6-5-5-11-7-16-11 3-1 6 1 9 2 7-3-4-6 6-16 2-2 3 2 6 2-11-4-11-17-14-21"/><path fill="#134067" d="M422 231c5 12 7 17 6 26 3 2 0-1 2-2 12 1 17 26 21 20 2 13 3 24-5 37-6 0 1-6-6-5 0 4 6 6 4 10-3-1-4-2-5-3 0 2-1 6-5 7-6-4-7-9-9-12 2 2 2 4 0 5-11 2-1 6-6 8 4 1 2-4 4-6 22 10-4 10 17 16 1-3-3-3-2-6 2-7 6-6 10-4-4-1 0-5 0-7 3-8 5 1 8-2s1-6 2-8c1 4 6 11 8 6 2 17-2 12-2 30l1 1-1-2c0-6 5-14 5-10 4 1 1 5 0 8 8-5 6-15 3-27-6-3-6-11-17-19 0-7-2-10-1-15 4 1 2 16 6 8-4-11-8-23-3-32-6-1-5 10-9 14-15-10-11-24-24-33"/><path fill="#3D8986" d="M220 305c0 3 3 4 4 6-4 1-7-4-10 0 3 10 7 18 11 26 12 14 17 24 32 32-1-8-8-20-16-28 2-3 6-6 11-8-13-9-22-15-32-27"/><path fill="#DBEAE7" d="M158 286c-2 3-6 25-16 34 6 24 11 43 21 61-3-7 4-4 3-9 5 2 7 6 9 9-9-18-20-35-23-55 5 16 3-25 8-40"/><path fill="#254653" d="M266 425c-11 6-8 5-14 12-18-1-18-1-34-7 6 1 11 4 16 7-2 5-5 6-3 10-3-5-10-3-10-9 3 7 14 14 17 22 5-4 10-2 15-9 17 1 23 14 41 10-7 0-14 1-22-6 43-20 24-14-8 1-4-4-8-7-8-11 1-3 5-10 15-5-4-2-9-3-12-1 2-7 8 0 0-7 10 0 19 3 27 2-7 0-12-2-17-3-4 0-6-3-5-4"/><path fill="#192D40" d="m199 428-1 1c7 1 14 3 19 9 8 7 1 12 5 15-33 2-40-8-9 10 12-1 41 0 63-1-4-8-13-5-21-9-18 8-8-2-17 10-6-16-19-17-20-29 3-10 9 1 14 1-3-3-6-9-10-8 1 8-15-4-21-1"/><path fill="#1D4856" d="M324 388c4 9-20 5-25 16-7-2-11-1-13-5 2 4 5 8 10 6 0 8 8-7 6 4 4-6 9-9 9-10 3 4 2 6 3 10-16 8-2-7-19 6-5-5-10-6-13-5-1 3 3 3 5 4-5 2-8 5-13 4 5 3 8-2 12-1 5-2 7-2 7-5 1 7-2 11-1 18 7 4 14 3 20 2s10-2 13-5c-6 3-16 5-23 2 9-2 16 0 21-4 7-3 5-8 12-11-5 5-10 12-18 9-4-2-4-4-5-7 18-11-1-6 9-15-2 0-8 2-7-2 3-3 5-6 10-4 17 15 4 6 1-5"/><path fill="#20495B" d="M272 323c-2 1 1 16-7 10-7 6 2 8-5 14 1 6 4-7 10-1 7 5 11 11 12 16-2 3 1 11-6 10 5 4 2 1 8 2 3 5-14 13-7 13 6-4 10-9 14-5 4-3-9-4-2-10 26-2 4 11 20 1-8-1-17-5-21-14 5 1 5-3 15 4-3-7-10-12-10-22-2 7 0 10 5 17-6-1-13-9-15-1-5-5-8-9-12-10l-5-5c-3-4-1-6-2-7 3 3 9 5 13 7 8 2 7-1 10-2-1-4 3-7 0-8 0 2-11-1-13 1-4-5 0-6 0-8 2-3 2-1 5-2-2 0-3 0-6-1"/><path d="M393 410c-3 5-12 4-11 12 4 11 7 23 14 31 6-2 5-6 7-8-3-13-2-26-7-35"/><path fill="#244555" d="M238 364c-1 5 5 12 15 17-4 1-6 0-9-1-3 2-2 11-7 8 9 4 1 6 5 5 0 3-3 2-3 3-4 0-7-2-10-3 29 20 16 9 39 26-6-3-4-6-7-7 2-2 8-5 10-3-10-1-15-10-23-11 8-6 17 8 23 4 2 1 1 3 2 5 0-2 0-4-1-7-25-17-6-16-35-35"/><path fill="#51E9DA" d="M432 266c-3 3-11 15-3 15-6 4-6-4-10 6 1 4 7-6 7 2-7 3-7 5-12 5 5 3 6 0 8 5 3-4 2-8 5-9 0 3-1 5 0 9 4-2 10-3 9 5 3-6 0-8-1-11 5-6 2 3 7 3-2-10-2-12 2-13-3-7-5-15-10-17"/><path fill="#D1EFD8" d="M279 233c-2 9 2 13 0 19 9 5 18 15 33 25-6-11-4-16-6-22-7-6-18-5-26-20"/><path fill="#245C98" d="M460 137c-2 4-6 6-7 12-1-5-4-7-3-11-6 4 1 5-1 11-8 1-5-8-9-7-8 1-3 6-5 11 13 3 8 11 16 9 3-1 5-4 6-7 3 3-2 7-4 10 5-2 11-6 15-10-3-12 3-20-7-5-1-5 0-8-1-12"/><path fill="#275D92" d="M428 141c-13 9-7 19-15 21-2 11 9 9 13 12-5 8-11 13-12 20-2 9 4 12 4 17 6-20-6-7 2-24 4-6 7-11 13-12-5-3-9-5-14-7 4-3 6 1 8 2-3-12 13-12 0-29"/><path fill="#45706B" d="M341 317c-4 3-19 24-14 37l-5-1v1l1 2-2-1c0-2-4-5 1-6-3 2-3 4-4 5l-3-6c4 3 0 6-1 8-11-3-4-5-12-6 1 5 7 9 10 8 5 1 6-1 8-1 4 5 12 7 14 10 6-2-9-3 3-6-6-8-7-7-13-4 3-5 5-7 9-6-3-8 8-14 4-20 5-1 12-9 10-1-3-5-2-12-6-13"/><path fill="#6BB7A9" d="M207 299c-6 8-4 19-6 28 0 15 6 28 11 39-3-10 1-15-6-25 5 1 5-3 10 6 4-4 2-8 3-10-1 5-4-5-5-3-4-11-9-22-8-32"/><path fill="#528682" d="M107 406c13 20 27 31 45 42 3-6 10 2 17 2-3-9-14-8-19-9-13-15-30-21-40-34"/><path fill="#20569D" d="M482 189c2 3 5 6 4 11-2-9-4 9-9-6 0 3 3 5 0 7-5 0-9 10-14 9 1 3 0 7 5 9 6-2 9-3 13 1-3-1-1-4 0-5 7 0 7 5 7 5 1-8 5-20-5-30"/><path fill="#2A4A54" d="M214 391c-7 1-5 8-12 9-1 5-3 17 7 24 9 7 10 2 14 1 4 2 5 4 7 5 0-4-3-1-4-5-7-2-16-16-15-16-1-7 7-6 13-8 0-3-4 4-6 1-5-4-5-7-4-11"/><path fill="#5DB2A8" d="M165 339c-2 6 0 15-4 10 10 20 18 29 25 34 4-4 4-9 0-17-6-5-11-13-18-12-2-6-4-9-4-12"/><path fill="#23707D" d="M254 334c-18 2-5 12 3 20 7 4 15-3 21 4-2-5-4-8-7-10-7-7-8 5-11 1 4-7 1-9 0-13-3 0-5-3-6-3"/><path fill="#284856" d="M196 424c-14 6-29 0-33 12 6 9 15 11 21 15 2 5-3 5-3 9 15 7 29 2 42 3-14 3-19-9-32-8 0-4-2-7-6-11 0 2 8 8 1 8-7-4-12-7-17-10-2-6 1-9 5-10 14-5 26 0 27-9-1 1-2 1-5 2"/><path fill="#398B8F" d="M224 345c-14 5-10-1 2 2-3 15-10 2-12 13l-1-2v2c11 18-6 4 17 27-5-4-6-7-5-12 3 0 6 2 8 0 2-7-5-9-6-13 1-4 2-5 4-5-3-5-5-8-7-12"/><path fill="#528580" d="M304 354c6 7 1 10 13 9-3 5 1 7-1 10-10 7-10 7-21 5 8 3 3 8 15 2 1 4 1 5 0 8-1-5 10-8 24-20-18-6 0-10-32-10"/><path fill="#22A4B1" d="M431 263c-2 2-3 4-4 8-1-1 3-8 8-6 5 6 6 10 8 15-3 7-1 5 1 14-5 6-7-5-7-3 0 5 3 7 1 12-5 2-2-5-5-5-6 3-5 3-6 9 1-5-7-8-8-11l-2 2h-1v1l-2-2c-2-9 10 0 2-9-2 8-9 6-14 9 10-6 12 8 17 2 8 1 0 3 4 8h1l2 1 1-2v-1h3c1 1 2 4 3 5 2-3 5-4 5-5 4 5 4-5 6-5 2-6 5-12 0-17 4-6-2-10 0-14-4-6-8-6-11-6"/><path fill="#172E3F" d="M254 372c-4 4 4 7 4 10 0 5-2 2-4 2 9 1 4 17 18 14 1-6-1-14 8-15-9-3-16-6-24-9"/><path fill="#E9F3F2" d="M210 295c-7 15 5 27 7 40 7 8 17 28 32 37 2-9-20-22-25-36-9-12-11-26-14-39"/><path fill="#38B29E" d="M289 278c0 3-3 3-4 2 0 4 2 3 3 6-24 2-27-7-10 14 5 5 14 10 22 10-7 1-17-5-19-15 13-9 27-8 26-11-1-4-12 0-17-5"/><path fill="#233A63" d="M452 357c3 2 2 5 3 8-3 5-7 5-9 8-5-7 0-11 4-15-13 4-9 3-23 6-2 4-3 7-3 10 8 0 14-2 16-7 3 2 2 5 3 7 5-5 11-6 9 0-11 3-15 8-35 16 4 1 6-2 9-1-1 3-8 7-10 7-10 7 0 12-7 18 3-11 7-13 11-19 11-11 23-12 32-21h2-1c-3-3 2-6 3-7-3-4 0-13-2-9"/><path fill="#6DAEA5" d="M128 391c9 7 9 10 8 16-1-8 7 1 6-2 2 3 2 14 5 17 7 2 10 2 13-3 0-2-3-2-4-5 17 0 13 6 25 2-10-8-16-1-26-7-10-4-18-9-25-15"/><path fill="#C9F5F5" d="M443 173c-3 7-5 10 5 6-4 8 8 11 11 14 2-8 5 1 8 1-3-8-7-3-2-11 6 9 2-4 8-1-12-7-14-3-30-7"/><path fill="#376769" d="M330 374c-11 6-18 7-22 14 1 4 1 6 3 6 15 0 9-1 12-6 3 5 5 8 6 10 0-1-3-3 0-5 1 1 3 2 3 3 2-5 11 1 3-7 8 9 5-1 4 0l-1 1-3-3c2 8-5-1-7 4-4-14 6-7-2-15"/><path fill="#3F686C" d="M174 420c7 7-17 0-10 13-6 0-8-1-10-2 3 1 4 3 7 4 4 5 8 8 10 11-3 11-16-6-14 3 6 6 16 9 23 10 1-2 3-4 6-5-9-5-17-8-23-17 3 0-2-8 3-9 3 0 0 3 4 3 13-4 4-9 12-10-2 1-4-1-7 0"/><path fill="#316F75" d="M240 339c10 7 14 18 16 26-3 3-5 1-6 0 0 2 7 3 5 7 7 3 17 8 27 8-10-4-27-28-39-39"/><path fill="#136293" d="M398 294c-5 9-11 0-10 11 7-8 21-2 24 1 8 2 8 7 9 11 2-1 4-3 5-5 2 2 4 4 7 6 5 1 5-3 6-5 1 1 2 4 3 4-2-19-17 1-16-19 1 1-2 7 1 9-7 3-5-5-8-7-10-5-18 4-25-2"/><path fill="#14436F" d="M448 331c9-5 15 4 13 11-2 5-4 9-8 11-4-6-8-10-8-16l2-2 1-1v-1"/><path fill="#539389" d="M167 318c-2 8-2 18-2 25 2 13 15 11 21 22 9 10 0 18 2 22-1-6 8-10 1-18-3-9-9-12-12-15 3-7-9-24-10-34"/><path fill="#091B3B" d="M433 196c8 11-13 5-2 22 4 4 9 6 13 7-4 0-14-4-15-13 3 0 2 4 6 5 6-1 9-10 12-11 4 4 4 9 0 12 2 0 3 1 4 3 2-8 1-15-3-20-14-13 0 11-15-4"/><path fill="#57E4CD" d="M326 268c-14 3 1 11 7 6-2 2-5 2-6 4 0 7 5 9 7 13 0-4-8-6-3-12 21-3 13-6 37 6-9-9-19-11-26-14-5-2-9-1-15-3"/><path fill="#153246" d="M262 333c3 9 12 14 19 21 5-6 11 3 15 3-6-6-5-12-1-20-11-7-1 8-16 7-7-2-11-6-16-8"/><path d="M438 186c-5 0-10 4-9 9 5-2 13-2 15 0 9 5 8 16 14 20 1-11-3-18-9-24-5-3-7-4-10-5"/><path fill="#B2D2B8" d="M280 197c-7 11-12 20-10 32 7 13 11-4 17 16-1-8-5-11-8-14 3-8-3-17 0-32"/><path fill="#376A73" d="M185 431c-23-2-16 17 1 18 4 3 1-1 0-2 9 6 21 9 32 6-13 6-25-8-31-8-2-3-5-9-1-14"/><path fill="#35676B" d="M286 356c5 10 14 16 24 16-5 7-20-5-23 4 20-4 12 8 28-3-1-2-3-2-5-3 1-2 4-1 6-2-13-3-20-8-27-12"/><path fill="#31588A" d="M460 348c-1 2-3 4-4 6 1 3-1 6 0 8-4 1-1-2-3-4-16 11-3 15-11 24 7-5 9-12 12-16 6 1 0 2-1 5l2 3 2-2c-1-7 10-18 7-24"/><path fill="#A4CBBB" d="M227 239c-7 2-2 13-4 22 1 7 6 14 7 17 0-2-2-5-2-8 5-4 4 0 7 1-2 8 4 17 5 25 2 3 1 2 6 5-4-6-8-16-11-28s-8-24-9-32"/><path fill="#A6D5C0" d="M278 243c-3 8 6 18 7 19 5 6 10 10 15 14 5 0 6 2 9 1 3 0 4 0 6 1-4-12 3-12 0-15 2-1 5 2 7 1-12-7-14-10-17-5 4 1 7 15 7 18-11-3-24-24-24-15-6-5-14-15-8-17"/><path fill="#5B8589" d="M172 377c0 10 5 19 4 21 5 4 4 8 8 11-2-4 4-3 7-1 0-9-14-19-18-29"/><path fill="#BE945E" d="M483 221c-30 19-8 3 9 23-1-7 1-11-3-16-1-2-1-4-4-3 2 2 3 4 4 7-3-3-6-4-7-7"/><path fill="#75B4AC" d="M237 273c-1 12 13 30 5 27 23 19-4-13 21 4-7-8-20-19-25-29"/><path fill="#66B5A1" d="M262 283c2 2 3 4 0 5-15-7-4 6 3 12s11 0 19 8c-13-6-9-18-21-23"/><path fill="#306C68" d="M267 306c2 3 2 7 6 9-1-3 0-4-5-6 6 1 9 1 12 4-2 4 7 6 5 8-2-2-6-10 3-8 12 1 11 8 15 15-2-4 4-4 5-2-3-5-7-7-9-11 1-2 5-1 8-2-5 2-25-6-37-8"/><path fill="#1C264A" d="M206 437c-5 11-19 5-2 16 6 0 9-1 13-3 5-8-17-7-10-12"/><path fill="#2E4851" d="M338 412c18-2 7 14-4 18-3-5 1-11 3-17"/><path fill="#518F8A" d="M156 415c2 2 5 2 6 5-6 3-21 7 0 14-1-5 3-7 1-9 4-2 8-3 12-2-4-5-10-8-17-8"/><path fill="#528F87" d="M324 316c-4 0-4 6-7 1 1 11 5-1 15 5-1 3-2 6-3 8-1-7-6 1-11-1 2 8 3-2 8 1-4 8-3 18 0 20-10-20 33-38-2-33"/><path fill="#222439" d="M394 459c-9 4 2 0-3 9-28 9 20 0 27 6-7-5-20-8-26-14"/><path fill="#446665" d="M230 408c9 3 16 3 18 9-4 4 0 15-11 11 6 2 11 1 15-1 0-3-6-4-2-8-1-3-4-4-1-6l2 1 2-2c3 2 7 3 11 6-4 1 2 5-4 6-3-3 1-4-1-5-1 3 0 6-1 11 5-5 11-8 17-10-8 1-16-3-17-10-4-1-7 0-8 1l1 3h-3c-5-4-5-5-15-7"/><path fill="#223E4C" d="M413 341c4 0 8 7 10 10-1 6-2 10-6 12-7-5-1-12-3-20"/><path fill="#1D4C55" d="M377 361c0 6-24 16 2 13-6 0-1-5-1-7 4 1 11 7 3 7 6 1 7-1 10-1 5-4-5-1 3-7-2 3-5 1-7 2 2-2 4-4 6-5-5 4-10 1-15-2"/><path fill="#6BA799" d="M323 321c-6 5-17 4-23 15 9 0 7-3 12 1-2-2-3-6-1-7 7 0 14-1 16-8 3 4-2 9-6 10l-1 2h2l1 2-2 2h2c-3 4-2 7 2 12-5-5-2-9-2-13 1-7 7-8 8-14-2-4-4-1-6-1"/><path fill="#5BD1BB" d="M302 289c-18-4-27 14-3 21-14-4 3-7-6-16 4-4 8-5 12-6-2 1-4 0-5-1"/><path fill="#3A374C" d="M402 459c16 6 28-1 35 6-14 3-14 2-34-3"/><path fill="#D6F6E7" d="M375 307c-16 1-12 14-7 2 4 6 7 11 13 10-2-4 2-7 6-8-6-6 0-5-12-4"/><path fill="#79B397" d="M398 308c3 3 8 3 12 6-6 9-15 3-20 5-2 0-4 0-4 3-5-8 6-11 7-12-10 2-10 7-10 13 2 0 6 1 6-4 5 5 10 6 16 8 10-8 6-16-6-18"/><path fill="#202B4C" d="M237 413c-6 1-2 8-7 10 2 4 8 4 12 3 4-4 1-7 0-11-2-3-3-3-4-3"/><path fill="#17667C" d="M443 270c12 27-5 30 2 41 8-6 7-23 7-28 3-14-5 2-7-12"/><path fill="#183142" d="M249 396c3 1 14 11 21 10 1 6-6 1-7 6 2 1 1 4 6 5 5 0 9 1 11-1-4 1-8-3-8-7-1-4-1-5 0-6-6 3-14-5-19-7"/><path fill="#A0D0C7" d="M343 258c-6 0 1 4 0 9 6 2 7 3 20 5-14-14 12 4-6-9-2-1-7-2-13-6"/><path fill="#1B5256" d="M362 379c-1 5-5 11-10 12-7 0 0-5-3-6-4 2 3 5-3 6-3-1-6-1-7-3 0 1 3 3 3 4-5-2-7-4-8-7 1 3 3 6 6 8-5 1-7 2-10 2 2 4 10 7 18 2-5-3 16-5 14-16"/><path fill="#EDF5F3" d="M236 265c1 12 18 30 30 37-13-9-19-22-25-35"/><path fill="#B2D5B8" d="M341 334c-2 4-6 7-5 13 1-3 5-5 7-6 5-1 5 1 6 3-3 6-4 4-8 7 4 5 15-7 17-1-1-8-9-9-16-17"/><path fill="#92D1CA" d="M383 263c4 10-17-5-5 12 8-8 18 7 19-3-4-3-9-5-13-10"/><path fill="#55CDE5" d="M474 185c-2 3-3 5-8 2 2 2 3 4 4 6v2l-3 1c-5-6-5 4-12-4 2 3 5 6 6 9 7 7 2-5 10-3l-1-3 2-1c1 3 0 6 4 2-5-6 14-10-4-9"/><path fill="#A6CFC6" d="M158 302c-2 8-2 18-2 26-3-1-4-6-3-11-2-6-2-6-1-1 1 12 5 30 10 34 0-13-7-30-4-46"/><path fill="#93E1C9" d="M252 258c1 7 7 24 13 24 3-2 0-3 1-4 1-6 2 0 3-2-6-5-10-9-14-17"/><path fill="#6FB5A6" d="M284 260c4 9 12 15 20 21 1-4 11 12 16 6 0-14-28-4-35-26"/><path fill="#3E384D" d="M381 443c4 6 6 14 9 21 5 1 0-4 2-6 12 9 16 7 33 17-16-9-17-13-29-16h-1l-1-1-3-3c-1-1-5-13-7-11"/><path fill="#123863" d="M443 341c4-2 4 7 8 9-3 5-6 5-8 6-4-3-4-6-6-9 3-2 4-3 3-5"/><path fill="#328BC9" d="M474 186c12 8-7 7 6 9l-2 3-2-1c-3 3-6 2-4-2 0 7-10 3-4 10-5 0-5-4-6-2-1 3 1 4 2 6 4-6 11-5 14-11 5 8 6-9 7 3-3-15-5-12-7-13"/><path fill="#2B3F50" d="M325 432c0 5-6 7-6 11-1 6 1 8 2 10 2 2 4-16 9-13 2-4-2-4-4-6"/><path fill="#DCF2E6" d="M230 269c-3 10 11 24 4 25 3 7 7 11 10 12-11-13-4-20-13-38"/><path fill="#92F5E5" d="M433 272c4 9-1 5 5 13-3 5-6 5-5 9-5-5-1-12-2-19"/><path fill="#79AC98" d="M369 342c-22 1-7 6-22 12 4 1 7 4 12 3 2-12 1-7 8-16"/><path fill="#439C9A" d="M208 344c8 9-1 18 10 28-2-3-5-7-6-11 5-14 9 1 12-11 0-5-10 3-13-6"/><path fill="#22365E" d="M435 373c10 4-9 13-14 13 0-5 6-10 11-11"/><path fill="#C7F2DB" d="M316 224c-2 8 1 20 8 22 2-11-3-11-7-22"/><path fill="#5CC8BF" d="M250 308c-8 1-1 11 2 14 2-3 3-8 7-12-3-1-5-3-8-2"/><path fill="#2EA9A6" d="M385 331c-2 6-10-2-14 9 2 2-2 4 0 6 1-3 4-9 8-9-2 8-9 13-7 20 7-2 5-17 9-18l1-1-1 1-2-1-1-1v-3c5 0 6 1 7-3"/><path fill="#97DECB" d="M335 295c-1 3-4 4-5 6 2-6 5 2 7-2 3 7-5 6-4 7 3 5 8 5 12 6 0-6-3-2-7-7 5 1 9-2 10 3 0-4-3-4-5-5 3-1 6-8 9-2-4-4-21-1-13-7"/><path fill="#476468" d="M218 431c-1 8 9 11 12 15-2-3 1-5 4-6-5-5-9-7-13-9"/><path fill="#A6DAC0" d="M384 306c-2 7 9 3 15 4-16 9-5-3-14 10 6-10 17 6 22-6-6-2-12-7-19-8"/><path fill="#254451" d="M417 344c-1 5-5 13-2 18 4-1 7-3 7-6 0-5-2-8-4-10"/><path fill="#3A8A7C" d="M342 360c-3 4-5 2-8 3 2 7-6 15-4 24 2 2 3 1 4 3-1-2-2-3-2-5 4 1 4 3 6 3-1-4-4-8-4-13-1-9 15-16 10-14"/><path fill="#73AD99" d="M346 279c4-1 10 3 11 5-11 9 1 8-8 12 1 3 9 0 15-2-10-3 4-5-2-9-4-3-8-5-15-7"/><path fill="#1C5283" d="M455 336c-1 5-5 7-7 1 0 6 4 8 3 14 5-1 6-3 7-6 3-8-2-1-2-8"/><path fill="#153C66" d="M422 180c-5 5-10 12-12 19 1 11 4 20 9 20 1-10-5-1-6-24 1-5 3-10 8-13"/><path fill="#7BB397" d="M372 317c-10 3-11 11 4 11-4-3-1-6 3-6-2-2-5-1-5-4"/><path fill="#26394A" d="M399 385c14-1-6 13-9 12 4-4 2-8 8-11"/><path fill="#346164" d="M228 426c-1 4 6 7 8 9 8 2 14 2 18-1-5-5-18 2-25-6"/><path fill="#6FB1A2" d="M361 298c-3 5-21 7-10 1 4 13-8 4-4 11-4 4-9 1-13 0 2 1 5 5 1 6-5 6 54-23 24-14"/><path fill="#0D3A67" d="M449 206c-6 1-7 11-9 15 5 0 6 2 9-2-7 0 6-10-2-13"/><path fill="#319D9F" d="M373 300c-1 2-4 5-6 5-9-4-5 2-12 4 4 0 4 3 3 4 6-2 4-5 6-8 28-4 25-2 9-4"/><path fill="#1B5BA1" d="M475 154c-6 2-14 11-21 14 9-2 20-6 24-14"/><path fill="#205B80" d="M454 274c1 33 10 9 13 36 3-19-9-22-12-30"/><path fill="#104068" d="M449 330c0 4-3 6-2 10 1-8 5 6 7-5 2 11 6-1 7 8 0-4-1-7-2-10-3-3-6-2-7-3"/><path fill="#9ECCB8" d="m241 264 9 18c1 4 3 4 3 5l2 3-2-3c2-2 5 2 8 1 6-4-6-5-9-2 6-8-7-15-9-21"/><path fill="#ADD1B5" d="M267 358c-6 2-2 9 3 10 2-4 4 0 5-4-4-3-2-8-7-6"/><path fill="#EFF2EF" d="M453 211c2 3 1 8 3 11 4 2 3 9 8 4-4-12-1-12-10-12"/><path fill="#123A66" d="M444 342c-3 0-3 2-5 4 0 3 1 6 3 8-1-1 7-4 8-3-3-17 1 5-6-9"/><path fill="#EDF3D7" d="M301 290c-11 3-3 8 3 9 3-1 3 0 5-4-3-1-8-2-6-5"/><path fill="#46ACA3" d="M121 384c1 6 7 18 15 18-4-6-9-12-14-17"/><path fill="#446A6B" d="M189 430c3 6 13 5 28 7-7-5-17-8-25-7"/><path fill="#4DC3D8" d="M448 124c1 6 10 9 14 10 1-6-6-12-11-9"/><path fill="#46695C" d="M391 345c-8 17 1 16 16 7-4-4-5 1-14 3 0-5 7-3-2-8"/><path fill="#468082" d="M191 430c-4 0-6 3-5 6-1 7 2 7 4 11-1-8 2-14 6-12-3-2-6-2-8-1 0-4 6-5 5-4"/><path fill="#9DE3C8" d="M336 278c-13 6 1 14 7 14 3 2 5 2 7 2-8-1-11-9-15-7-1-5 1-6 3-7 7 1 18-1 17 5 0-4-5-5-9-6s-5-1-6 0"/><path fill="#171C53" d="M393 341c-3 4 1 9 6 9 5-1 7-5 6-9-3-2-14 9-12 0"/><path fill="#456467" d="M421 326c-3 3-2 7-7 8-4-3-4 5-11-3 10 3 3 10 4 16 1-7 6-5 5-10 2 1 4 2 5 4 3-5 4-9 3-14"/><path fill="#264655" d="M421 326c1 5 0 9-2 13-2 3-2 1-4 0 4 3 6 6 8 10 1-8 2-15-1-20"/><path fill="#77ACAA" d="M398 273c-8 13-6 6 2 8 1 1-2-2-1-3 6 2 9 7 13 8-4-5-7-9-13-11"/><path fill="#3D8B79" d="M299 313c0 5 8 7 10 12-4 0-6 0-3 5 0-4 3-1 3-4-1-3-2-11 5-8-4-3-8-4-13-3"/><path fill="#3F8EB8" d="M423 182c-3 4-8 15-4 17 3-5 3-10 9-13-2 0-2-2-4-3"/><path fill="#6CD7BD" d="M266 275c0 4 6 8-2 7 5 5 11 3 17 3-4 0-8-7-12-8"/><path fill="#4F6C59" d="M341 367c-6 10 2 17 2 23 2-6-6-17 2-23"/><path fill="#E2F0E7" d="M322 299c-3 4 1 9-1 13 3 0 6 0 8-4-3-7-4 4-6-10"/><path fill="#A8E4C9" d="M321 233c2 3 6 5 6 8-1 5-2 7-5 4 4 3 5 5 8 4-3 4 1 5 1 7 0-2-4-3-2-4 4 1 8-2 10 0-5-5-13-12-17-18"/><path fill="#1F50A5" d="M310 297c-1 6-3 11 4 12 0-2 0-7 4-7-1-8-6 0-7-4"/><path fill="#6D787F" d="M425 200c-3 8 1 16 6 24 5 6 10 2 14 5-4-2-10-3-13-7-7-8-4-18-5-22"/><path fill="#283D66" d="M436 375c-6 2-14 5-14 10 5-2 14-4 16-10"/><path fill="#346F6E" d="M357 361c-2 7 6 8 10 8 5-2 7-4 9-6-5-4-17 9-19 0"/><path fill="#296267" d="M286 363h2l5 5c-6 4-15 3-10-3"/><path fill="#D0E5C9" d="M345 342c-3 2-8 3-9 6 5 3 18-3 11-6"/><path fill="#5D877D" d="M223 404c-9 14 3 20 9 23l3 1h2l-1 1-3-1c-4-1-7-6-9-10-1-4-3-7-1-9 9-4 20-2 25 6-3-5-9-8-14-9-4 0-7 1-9 0"/><path fill="#A1DFC1" d="M365 305c-11 29-4 8 17 15 3 1-12 1-12-9 1 5-6 1-7 5 0-5 2-9 5-9h-1v1"/><path fill="#F5F89A" d="M264 314c-9 12 8 7 13 5-2-2-6-3-11-2"/><path fill="#57837B" d="M397 331c-23 8 0 9-1 2 7 0 10 11 14 6 1-11 0 2-8-7-3-1-4-1-5-1"/><path fill="#3E6766" d="M221 406c-2 1-7 0-8 2 1 6 3 10 7 12 0-4-7-11 3-15"/><path fill="#29707C" d="M226 374c-2 5 1 10 7 12-1-3 6-3 4-5-9 0-6-5-9-5"/><path fill="#153A4C" d="M360 394c4 1-3 11-7 11-4-6 2-6 4-9"/><path fill="#1E3342" d="M223 401c-25 12-6 3 9 2 8 3 13 5 17 11-3-4 0-6 4-6-8 1-19-7-29-5"/><path fill="#ABD4B8" d="M360 325c-14 0-4 8 7 8 4-4-7-1-7-8"/><path fill="#1B3053" d="M414 375c11-3 4 11-4 7 1-3 0-6 3-6"/><path fill="#528881" d="M174 418c16 3-4 6 19 8-11-4 9-6-18-9"/><path fill="#3989C7" d="M469 142c-2 6 4 15-5 17 15-3 18-27 9-6 0-5-1-8-3-10"/><path fill="#C9EEE1" d="M329 252c8 8 7 11 22 19-15-6-9-15-9-17-5 1-10 1-11-1"/><path fill="#3194A1" d="M279 390c8 26-9-8 0 20 5-4 3-8 8-4-4-4-4-8-6-12"/><path fill="#2DA9A8" d="M326 286c1 5-10 4 4 13 0-4 5-8 10-4-6-1-16-2-11-8"/><path fill="#ECF4F2" d="M158 317c2 7 1 15 5 21-3-6 5-18-3-20"/><path fill="#44A398" d="M211 293c1 10 3 18 12 19-4-5-10-14-10-16"/><path fill="#60BEDD" d="M474 137c2 2-2 5-2 1 5 8 1 7 0 15 1-5 6-6 5-12 4 4-2 12 4 5-1-1-1-10-5-9"/><path fill="#51937E" d="M391 316c-1 11-9 5-16 8-2 0 31 4 16-3"/><path fill="#97D1B9" d="M284 315c7 5 3 7 11 10 1-5-4-10-8-11"/><path fill="#1C7C7E" d="M293 327c1 4-2 4-3 4-1-5 5 6 9 9-1-4 1-10-4-11"/><path fill="#548174" d="M385 375c-5 1-10 3-9 8 4 1 8-3 9-6"/><path fill="#ECF6F7" d="m445 133-2 1c2 3 2 7 1 12-14-8 31-16 2-14"/><path fill="#A4A55D" d="M298 298c1 5 4 12 11 10-3-3-4-10-10-9"/><path fill="#398ABF" d="m452 137-1 1c0 3 1 5 2 9-1-4 11-12 1-12"/><path fill="#B4A370" d="M227 410c-5 3 1 4 4 7 3-2 3-6 7-6-4-1-6-2-10-1"/><path fill="#2A3E4E" d="M401 386c-7 1-6 8-11 8 4 2 15-6 13-8"/><path fill="#B6CCCC" d="M168 373c-6-1-4 8 0 16 0-5 1-12 1-15"/><path fill="#4F877F" d="M413 315c0 5-5 10-5 9 0 3 4-2 6-2 3 6 5 7-2 11 6-1 5-5 8-7-1-4-3-6-4-4 1-2-2-3-2-4"/><path fill="#1F4852" d="M342 353c-14 14 7 3 16 8-8-4-14-3-17-6"/><path fill="#BDB263" d="M260 315c-2 6 0 13 4 16 6-8-2-7-5-13"/><path fill="#5F9280" d="M326 357c3-2 7 0 8 3-3 6-8 3-9-1"/><path fill="#779B9C" d="M170 374c-3 12 2 22 10 30-5-9-9-16-9-28"/><path fill="#8AAAA1" d="M225 228c-4 9-4 20-3 31-3-16 5-17 3-29"/><path fill="#315B8B" d="M473 333c-3 5-7 15-3 19 3-5 2-13 4-18"/><path fill="#D4F2DB" d="M338 278c-8 16 7 2 12 4-3-1-6-1-10-2"/><path fill="#32696A" d="M312 401c-2 2 3 6-1 9-10 4-4-8-6-4-5 0-6 3-7 4 8-3 6 3 12 3l2-2v-2l2 1-1-1c-2-3 2-5-1-6"/><path fill="#B9BC71" d="M303 292c7 3 15 2 23 9-4-7-12-10-19-9"/><path fill="#58817A" d="M211 375c-5 4-10-3-3 6 0 4 6 4 7 7-2-3-3-4-5-5 2-7 5-3 7-2-1-2-2-4-5-5"/><path fill="#1C488E" d="M273 323c4 3-2 5 0 7 4 1 4 2 10 1 2-5-9 1-7-8"/><path fill="#458581" d="M361 348c-4 9 0 9-3 13 5-2 8 4 13 1-5 0-14-7-9-13"/><path fill="#3A89C0" d="M483 159c-2 2-2 5-4 8 6 1 12-7 5-8"/><path fill="#1F949B" d="M408 299c2 10-8-2-11 4 5 4 14 5 12-2"/><path fill="#68CEE5" d="M433 174c0 6-5 5-9 7 8-5 19-1 12-6"/><path fill="#95C4B4" d="M142 404c-8-1-3 10 3 14-5-7 1-6-3-12"/><path fill="#3889C8" d="M475 160c-3 2-9 6-12 7 13 2 20-8 9-3"/><path fill="#37B499" d="M367 281c-5 5 2 13 5 7 5-2 2-1-4-5"/><path fill="#478B86" d="M360 305c-9 3-9 3-11 10 11-2-1 3 10 9-6-9-3-12-2-18"/><path fill="#4E8880" d="M295 340c-2 6 2 10 4 15 0-3-2-5-1-9 13-3 11-7-4-3"/><path fill="#44978A" d="M364 285c-1 8-2 4 1 10 2 3 6 1 10 5-10-9 2-4-4-10-1 2-2 0-2 4-4-2-1-5-5-6"/><path fill="#2D6A6D" d="M286 363c-7 5-2 8 5 6 0-2-2-4-3-5"/><path fill="#176795" d="M416 285c-2 6-12 5-15 11 5 0 8-7 12 0l-2 1h1c0-17 10-1 5-12"/><path fill="#345359" d="M410 358c5-1 2 8-2 8-4-3-1-5 1-6"/><path fill="#143757" d="M458 231c3-2 6 0 7 3-3 1-7 4-9-2"/><path fill="#7BB19B" d="M345 327c-4 7-4 4-1 7 5 8 4-1 12 7 0-9-13-9-11-13"/><path fill="#23394C" d="M343 429c6-1-4 9-7 8 1-3 3-4 4-7"/><path fill="#486A68" d="M112 414c10 16 24 25 37 34-12-9-26-18-35-32"/><path fill="#4A6161" d="M338 416c-5 11 4 5 8 2-3 3-3-3-7-1"/><path fill="#95D5BF" d="M380 279c4 9 7 4 12 5-2-3-5-5-8-5"/><path fill="#84A9A1" d="M271 232c1 7 3 13 6 19-1-11 2-15-6-16"/><path fill="#47CEB3" d="M290 282c3-2 6 1 9 1-4 2-12 5-11-1"/><path fill="#3E3A51" d="M430 462c-5 2-10 1-15 2 2 1 7 1 9 3-5-1 17-2 8-5"/><path fill="#72513C" d="M474 232c-9 8 10 7 11 12-3-4-7-7-10-10"/><path fill="#5DB6AC" d="M232 296c3 10 7 20 15 28-7-15 2 1-15-29"/><path fill="#203849" d="M313 436c12-2 0 6-4 4 0-3 1-4 3-3"/><path fill="#EAF6F5" d="M250 300c3 5 10 5 15 7-5-3-8-7-12-8"/></svg>