<svg xmlns="http://www.w3.org/2000/svg" width="600" height="600"><path fill="#465A65" d="m346 89 2 1c14 12 40 17 50 31 15-12 19 35 31 33-3 9-4 17-8 22 4 12 2 11 6 19 6 3 16 8 17 9 2 8 22 17 22 26-4 4-3 0-8-2-4 2 9 20 5 34-3 1-3-3-5-2-2 3 0 7-2 9 10 3 12 13 23 14 1 9 6 19 13 28 0 13 1 36 3 55-7 16-10 30-25 34-10 1-13 11-30 6 8-6 3-8-1-11 4-2 6-3 8-5-2-2-6-3-8-6 4-4 7-5 10-6 3-12 1-22-6-29-2-1-7-3-8-1l-2 2h2c-3 6-8 19-12 21 2 2 5 3 8 4 6 15 3 29 6 36-2 11-7 30-11 35 21 7 36 5 51 12 4 6 7 11 9 15 1 9 1 15-4 19-1-1-5 6-9 6-2-4 1-10-5-12 0 8-3 15-7 19-6-16-8-8-13-14-3-11-13-11-16-18 3 8 13 7 16 16-1 3-3 4-5 5-26 2-56 1-78 1 0-3-3-4-5-7 3-7 4-13 4-20-4-3-4-7-6-10-5-5-8 3-10 1-3-13 2-25 6-30-9-3-8-12-16-12-12 15-21 0-32 13-6-13-14 0-16-15-3 8-8 15-4 27-4 1-5-1-6-1-1 13-10 26-18 28-2 10 3 14 3 20-2 6-6 8-5 11-6 1-33 4-44 2-4 2-6 5-6 7-5 0-5-3-5-5-10-2-18 0-26-3-7-4 1-9 3-10-7 6-12 10-12 17-6-1-9-7-11-12-2 2-1 5-2 8-8-6-9-8-11-14 0-7 3-9 5-13 13-13 29-16 44-19 6-23-10-20-2-40-3 5-13 5-19 4-1 12-3 25 8 29-19 8-26-7-39-7-8-7-11-10-19-12-6-10-6-20-15-26-6-14 0-27-1-38-2 0-2 2-3 2 2-18 13-31 17-48-7-1 2-15-3-17 3-10 21-21 15-23 5-6 11-9 18-11 2-5 3-8 5-10-1-3-3 1-5-1 2-7 4-13 8-17-1-3-7 2-6-3 9-9 18-17 25-21 8-5-3-3-5-2 17-15 29-16 50-26-2-3-8-3-10-7 11-5 19 1 29-1 4-14 21-24 22-30 10-8 21-12 33-12 7-13 20-15 27-24-1-3-3-5-5-7 11 0 20-5 27 1 2-7 0-14-1-21"/><path fill="#747370" d="m293 266-2 1c-2 4-5 8-3 14 1 6 6 8 9 10 15 9 32 10 47 6-19 2-33 15-50 19-6 4-9 8-10 13-1 10 0 18 2 24 4 17 12 31 22 43 1 6 0 12 2 16 5-2 8-8 7-12 3-2 5-1 4 2 4-3 7-6 11-8 1 4-9 12-4 13 5-2 8-3 11-7 3 3 1 5 0 8 2 1 4 0 6-1 11-14 23-24 31-39 5-8 7-16 8-23 0-10 1-18-2-25 4-3 7-9 6-14-2-8-12-4-15-10 6 1 15 2 22-2 5-5 8-8 8-13-3 1-8 5-11 1 17-8 14-28 1-1-11-7-11-4-17-5-6 5-7 13-12 20-3-7-4-15-9-20-13 9-17 6-31 8-13-2-23-8-30-18"/><path fill="#1C273B" d="M294 245c3 14-11 27-10 40-1 3-4 7-7 8-5 0-6-4-3-6-5 2-8 4-12 7 4 24-17 9-12 41-5 3-10 9-15 8 1 2 3-1 3 1-4 6-8 7-13 9-2 7-5 11-13 23-3 21-11 39-16 50 2 1 5 1 7 0-2 8-2 12-3 22 4-5 9-8 13-12-2 1-5 1-8 5 6-11 3-22 14-28-2-1-3 2-4 2-3-6-7 0-4-9 14-35 15-34 29-56 12-3 26 7 33 18 5 6 4 10 8 16-4-1-5-6-9-5 0 4 1 9-1 13-2 13 13 13 13 35 5-14-1-40-4-50 17 16 16 26 21 39 9 3 29 4 33-2l1 2-1-2c4-5-5 0-3-5 4 4-11 10-11 8 8-5 1-13 12-22-14 11-12 12-24 22-4-19 3-7-2-23-11-11-17-22-23-40-5-11-1-33 3-32 14-10 25-14 35-20-4 1-10-3-15-2-8-2-17-10-20-17-4-13 10-15 9-36"/><path fill="#141A2B" d="M397 354c7 9 18 12 26 22-14 5-4 17-14 10 5 10 17 18 16 31-7 9-11-11-18-7 9 16-12-5 0 18-7 0-7-7-13-7 2 12 0 24 9 38-1 5-4 6-7 7-5 5-7-1-11 1 9-14-1-24-1-36-1 2-3 13-5 5-1 6 8 7 3 17-5-10-5-1-12-12-2 4-5 2-7 0-2 11 6 15 7 22 0 9 2 16-1 21 14 5 10 12 4 10 27-2 56 4 73-1-4-3 4-1 3-4l2 2-1-2c-9-8-17-11-17-15-2-4-3-8 0-12-12 5-20 6-22 6 1-8 8-13 11-14 0-4-1-7-2-10 3-5 3 1 4 1 3-2-2-4 0-14 4 2 2 7 4 10 8-10-5-11 7-31-13-12 6-9-14-31 3-1 4-2 5-3h-1v1l-2-2c-6-7-17-12-23-20"/><path fill="#1C273A" d="M390 351c-2 21-25 38-29 50-5 7-15 13-22 12 2-4 23 3 22 9-4 10 7 5 0 20-4 3-2-11-4-2-1 4 7 2 3 8-1-10 6-5 10-7 7 9 10 3 10 13 5-12-3-10-3-17 5 6 4-5 6-8 2 8 4 14 7 20-1 7-3 11-4 15 3 1 4 2 5 4 6-2 10-4 11-7-9-16-7-28-8-40 4 0 7 4 9 6-8-22 13-3 1-19 10-2 11 9 17 12l3 1-3-2c0-3 5 1 3-4 0-15-14-19-14-24 10 3-3-9 11-15-11-10-16-14-29-24"/><path fill="#ABB09F" d="M353 300c10-2 18 13 24 20-2 15-4 32-9 46-4-1 0-11-4-9-8 10-1 6-13 15 9-20 4-21 1-29-7 3-13 16-20 24-11 12-7-8-14 7-12-11-12-22-11-35 0-9 4-13 11-17-20 6 2-12-11-2 13-13 28-17 43-20"/><path fill="#7DD1E0" d="M299 143c-11 1-22 4-30 11 3-1 6 0 9 1-5 4-12 3-17 8-7 16-6 6-14 24-11-1-20-3-28-3 5 5 11 8 17 11-6 0-9-1-13 0-14 6-28 9-37 15 32 0-2 12 35 14-6 4-10 8-13 12 2 1 10-4 10 0-4 5-8 7-12 10 24-14 37-1 58-21-10 4 3-10-13-6 5 0 5 4 2 7-7 6-11 9-18 11 1-4 4-6 7-8-3 2-7 3-10 6-1-4 2-4 4-6-14 3-3-4-20 0 10-12 27-10 38-13-11 1-24 1-34 6-5-2-16-1-12-5 15-9 42 1 44-7 17 16 1-8 24 8-3-12-4-9-9-24-2-1-4-3-7-2 0-5 4-4 4-6 7 2 17-11 21-1-1 7 6 16 14 19-1-6 6-11-2-12 2-2 4-2 6-1-8-2-2-9-12-1 1-14 2-33 2-32-6 0-2-10-12-4 5-5 11-5 15-10"/><path fill="#212B3D" d="M283 237c-14 26-32 31-32 32-5 5-8 6-11 4 6-4 13-6 17-12-16 12-21 9-25 9 0 5 2-1 5 3-14 10-14 7-25 14 1 0 3 0 5 1-8 3-15 3-20 1 3 6 4 11 9 15-6 10-7 22-14 30-3 5-5-2-3-3-5 4-7 8-11 11-1 0-5 1-3-3-5 10-4 13-3 22 3-1 9 1 14 2-1-5 6-9 9-13 7-9 7 9 14-1 11-23 12-20 20-45-4 0 2-5-4-4 6-1 17-10 25-8 12-16 36-20 40-36-3 2-3-5-1-7-2 2-4 4-6 1 0-4-1-6 2-11"/><path fill="#588596" d="M150 276c-12 0-10 13-26 26 0 5 0 3 3 0-4 7-1 11-6 14 3-2 7-5 9-5-6 15-10 28-17 39 8-6 1 10 13-4 0 12 7 3 8 19 8-5-2-14 5-19 1 9 2 16 7 20-3 1-4-2-7-3 0 7-5 13-2 21 9 13 9 23 7 37 6 5 7 3 11 6 1-13-4-24-8-34 4 1 5 5 6 8 0-8 8-10 14-16 9 0 14-10 21-3-10-10-20 0-32-9 1-4 3-5 0-10 5-2 14 7 34 3-10 2-16-3-24-4 3-11-17-4-15-16 0 5 1 9-2 13-7-14 6-16 1-23 7 1 3 9 6 11-1-1 8-22 12-33-7 3-11-3-14 5-3-7-12-4-9-11-2 3-1 6-2 9-9-10-4-14-7-17-3-4-6 9-9 5 9-11 12-20 22-23 0-2 1-4 0-5"/><path fill="#1D2A3D" d="M423 160c-2 8-6 1-14 4 5 1 3-4 10 2-6 3-5 25-12 24 2 18-2 16 6 23-2 12-12 18-7 26-15 2 3-5-12-12-11-5-25-2-28 1 1 7 23-6 29 5 2 7 0 12-5 15-5 0-3-4-4-7-2 2 1 5 0 6-4-6-5 6-3 8-9-15-16 3-21-12-1 10-5-9-2 8-11-3-15-11-21-15-2-3-1-5-2-6 1 6-2 5 1 10-1-2-1-3 0-4 4 7 14 12 15 17-2-3-5-2-2 0 1-2 7-4 10 3-7-6-1 10-12 4 0 9 2 9-1 12-2-7 0-2-9-6-1 6 6 4 9 11-1-1-1-2-1-3 4 2 7-5 8 0 7 6 9 13 7 17 4-6 10-17 13-19 0-3 14 7 19 2 3-6-15-8-17-18 3 0 5 4 9 5-3-5-3-10-2-12 3 6 2 14 9 17 6-14 7-5 11-6 6-9 9-16 8-25 2 6 2 11 4 16 3-8 6-18 4-27 3 0 4 3 5 5 1-14-2-31-4-46 0-11 6-19-1-20"/><path fill="#202A3E" d="M265 417c-14 13-19 28-32 39-1-5 12-10 7-19-9 13-6-2-13 3-1-6-7-6 0-13-9 5-13 14-23 19-2 9-5 13 0 15 14 3 13 1 31 4 4 3 15 8 15 17-1-2-11 8-21 1 2 2 4 2 6 3-10 2-16 6-20 15h-2l2-1c6 6 25-7 36 0 4-11 1-16 1-26 5-8 2 9 4 2 1-13 6-14 9-23-1 0-2 3-4 5 5-17-1-8-3-18-4 4-10 8-14 12 12-25 23-29 19-30"/><path fill="#1E2738" d="M445 245c2 4 1 8 4 10-4 3-3-2-8 0 0 1 0 2 1 4-2-3-4-4-6-5 2 5 1 3 3 9-7-4-15-4-20-8-3 6 0 8 3 11-7-3-1 3-6 5 8 5 19 3 27 1-7 6-8 10-12 15-2 7 0 12 1 17-8-5-18-12-20-18 0 3-3 5-4 7 6 8 4 17 14 23-11-5-12-13-27-12 15 3 29 21 36 21 1-2 5-2 7-5 14-1 5 4 15-1 8-9-11-19-7-33 2 0 5-1 7 2v-7c9-5 6 0 10-2-10-5 6-6-12-8 4-5 1-9 3-15-3-5-6-6-9-8"/><path fill="#63A7B9" d="M251 213c-1 4 10 8 13 15-21 18-32 5-56 19 1-5 9-7 9-10-6 1-11 3-11-1 4-5 6-4 10-9-9 2-17-4-27-1 16-20 4 0 9-7 2-4 0-4 2-6-13 6-29 11-39 24 2-1 4-3 6-3-2 4-3 6-4 9 6-4 12-7 19-10-4 5-6 12-9 18 7-5-1 12-1 17 3 0 4-1 5-4 2 2 1 3 1 5 4-7 8-16 14-21 0 6-4 10-6 16 11-2 23-3 30-8 3-4-13 1-14-5 17-2 28-4 41-10 4 3-1 6-3 8 3 0 6-5 10-3-3 2-3 6-5 6 2 0 2-4 4-4 25-25 30-22-1-37"/><path fill="#69ABBE" d="M250 355c-4 2-9 2-13 5-9 15-18 31-15 44 4-3 9-8 9-11 7 0 0 5 0 7 6-1 11-5 16-7-1 6 4 13 0 18 14-12 10-33 15-41 5 5 4 11 8 15 0-14-5-29-18-30"/><path fill="#64AABE" d="M322 178c-4 7-12 18-13 30 3 2-1 2 8-8-6 13-6 29-3 42 2-10 3-20 8-28 1 7 11 9 11 17 0-7 4-2 4-6 3 13 10 12 18 22 8-18-14-25-11-38-7 3 1-8-7-4-1-6 3-7 3-10-2 1-5-2-6 0-6-5-8-8-7-15h-1l-1-1"/><path fill="#141A2A" d="M414 236c-1 5-1 12-3 14-3 10-14 9-14 15-10 0-12-7-11-16-5 4 0 7-1 11-4-1-6-3-8-5 5 6 10 11 17 14h3v2c-1 2-3 4-6 6-5-2-9-3-12-5-5 0-8 9-10 5 3-1-1 10-7 17 3-10 17-23 14-20 5 0 10 2 13 5 7-6 15-18 18-17 5 8 0 18 0 25-2 1-12 10-13 15 6 0 9 2 12 3 4 2 14 13 16 14-5-10-9-10-14-26 2 4 0-8 5-5 6 5 11 12 17 16-1-5-1-10 0-17 5-4 5-11 14-12-9 1-21 1-28-2-1-6 5-3 0-8 4 1 4 3 6 3-5-3-6-8-6-14 8 4 16 4 22 9-3-9-15-5-23-11-1 2 4 5-1 6 0-9 0-14-1-21"/><path fill="#71C2D5" d="M327 110c3 4 8 11 17 16-6-1-12-3-18 0-22 20 5-10-21 9-3 2 6 2 7 0-7 5-13 9-15 15 8-8-1 11 7 3-4 5-6 7-9 12 3-2 3-3 7-5 2 7-1 7 1 11 9 0 2-24 15-31 9-1 14 3 17 7 7-5 4-8 9-9 3 1 5 2 8 3 2-6-2-13 2-12 1-3 2-1 3 1-5-13-16-21-30-19"/><path fill="#3F6376" d="M226 256c-22 15-19 3-43 28 4-2 7-3 11-2-3 1-8 2-7 4 0 4-3 5-4 8 9-6 0 12 8 2-5 2-9 21-5 18-11 12-12 14-15 19-2-8 3-6-3-14-15 16-4 36-18 29v5-3c7 3 19 5 17 10 0-4-3-4-5-6 1-7 3-12 5-17 6-1 10-2 18-10 2-7 6-13 9-18-4-12 1-20-5-21 3-6 6-3 9-4-2-4-6-2-8-3 10-3 21-5 31-8 16-4 24-15 2-15"/><path fill="#3E5C70" d="M131 355c-3 7-4-3 1 7-6-1-6-4-8-6-5 5-10 8-13 12 5 7-2 20 1 30 5 4 8 13 9 20 0-5-1-8-2-13 3 1 6 4 8 7-7-16-3-13-6-28 7 25 6-10 18 26 1-7 1-13 3-14-4-2-6-8-7-14 2-9 1-14 4-20 0-4-1 2-4 1-2-2-4-4-5-6"/><path fill="#E3ECD0" d="M356 302c-13 1-24 4-34 9-3 10 17-4 14 3 6-4 13-5 19-11-6 17-25 15-35 26-12 9-2 9-6 15 10-8 13-7 24-17 3 3 5-1 6 3 3-4 5-9 5-14 5 2 2 4 2 6 3-2 3-5 5-7-2 20-3 11-6 15 4 2 5-1 6 4 2-4 0-5 1-8 3 1 4 3 5 4-1-14 20-12-6-28"/><path fill="#375A6F" d="M368 104c6 6-5 20 10 39-5-2-6 4-4 6-4-1-9-4-11-4 5 3 25 25 18 11 8 3 11 12 5 10 4 2 5-3 10 1-3-13-1 0-10-10 3-2 5-4 7-4 1-15 0-11 2-17 2-4 6 0 6 3-2-6-3-5-1-11-4-13-4 6-14-8 2 5 6 4 4 8-10-9-16-22-22-24"/><path fill="#2C3F52" d="M232 269c-12 7-27 8-41 12 2 0 5-1 7 1-2 6-5 0-7 4 6 5 0 11 5 20-4 8-8 14-10 19-6 9-19 17-15 8-5 9-7 14-8 19 3 3 4 4 5 7 3-3 0-11 6-18 4 7 9-7 12-11 3 2 4 5 4 8 7-7 9-29 14-28 1-7-6-12-8-20 5 0 13 0 18-2-1 1-2-1-4 0 10-6 15-8 22-12 3-4-5-2-6-1 0-3 3-3 4-6"/><path fill="#1C2635" d="M484 306c5 7-2 13-1 19-4-2-5-5-8-6 8 12-3 21 4 32-6 7-9 13-13 17-6-2-8-4-9-8 1 6-2 12-1 13 5 0 9-1 13 0 3-3 3-6 4-9-3 9 10 4 7 12 4-1 8 3 9-3 3-17-1-62-2-67"/><path fill="#151B2A" d="M276 401c-14 37-12 14-32 51 5-6 10-9 13-15 3 28 11 7 9 28 33-54-17 30 13-31 0 6 0 4 3 6-2-3-4-8-2-12 3-2 0 1 2 1 1-14-3-18-6-24"/><path fill="#3B5D72" d="M265 371c-12 8 4 8 1 20-7 10-12 13-17 24-5-2-2-5-3-8-4 3-10 9-16 11 4-6 14-13 12-19-10 6-25 13-28 10-1 2 1 3 1 4 7-7 9 1 17-7-3 5-5 7-8 9-2 8 5 5 7 3 2 6-4 9-4 13 21-19 15 0 39-17 8-21 1-30-4-41"/><path fill="#121725" d="M292 254c-4 16-27 22-39 35-1 3 2-4 7 0-7 10-12 9-19 13l-1 2 1-2c4 6 6 12 8 28-3 6-7 10-11 12 4-3 7-6 10-9 1-9-1-17 3-22 5-1 6-6 7 0-3-6 2-16 3-16 7-5 6-5 12-10 0 3-1 7 3 8 9-6 8-9 7-16 3 7 5 11 9 13-2-4-8-7-6-14 5-8 8-13 6-18"/><path fill="#C2CBB4" d="M355 317c-4 12-20 9-38 29-4-6-2-5-5-10 4-7 9-10 13-13-2-1-4 1-6 1-5 3-5 3-2 0-1 7-7 5-8 15 1 6 0 11 2 14 7-2 15-10 22-14 1 6-5 12-2 19 2-5 6-10 10-14 2 3-1 5-1 8 6-6 12-12 14-16 0 3 4-1 4 3-3-6-8-14-1-21"/><path fill="#5E5252" d="M474 373c-3 4 0 10-3 14-1-3 2-11-5-12-13-3-11 10-22 8 2 8 11-2 10-1-2 7-6 14-11 13 4 1 7 4 2 7 3-2 7 2 10 1 5-4 11-8 13-12-2 7 4 0 8-1-2 7-21 18-7 10 7-3 25-25 10-19-1-2 1-8-4-9"/><path fill="#65A1B2" d="M169 260c1 15-15 7-6 15-20 7 7-8-21 3 8-5 9-1 9 4-2 1-3 3-4 3-7 5-16 12-19 20 14-17 5 6 17-11 4-5-8-1 1-8 15-9 10 7 25-2-6 5 8 13-8 19-2 2-5 3-8 2-1-3 1-4 2-6-3-1-5 2-7-3-7 2-7 6-10 12 4-3 7 3 12-4 2 4-4 8-1 12 6-2 6-7 10-8 1 2-1 5-3 8 6-7 10-15 16-22 2 3 2 5 1 7 1 2 6-5 8 1-9 9-10 11-10 22 3-9 11-10 10-14-3-3 1-4-1-7-4-3-1-12-5-8-1-4-4-6 0-8-2 0-4 3-5 3 0-4 2-5 3-7-1-2-10 0-8-4-4-7 1-11 2-17"/><path fill="#55889A" d="M175 243c-8 1-13 7-16 7-4 8 5-2 8 0-14 16-8 31-15 25 16 4 1-8 11-5 2 3 3 6 5 10 6 0 6 3 8 1-1 4-2 6-4 7 2 0 3-1 4-2 1 7 10 14 8 25-2-13 5-5 7-12-7 3-1-10-9-4 13-11-2-9 11-13-4 0-8 2-11 0 4-3 4-7 6-8-3 0-6-1-9 0 7-12-5 1-1-9-4 5-5 6-7 7-2-6-1-14 3-14-6 5-4-3-7-4 9-2-4-2 8-9"/><path fill="#4C8297" d="M284 187c-6 9-6 4-14 7 5 10 5 12 9 18-1 6 3 14-5 12 8 0 17-4 18-6 7 24 5 27 14 30 6 0-3-12 1-21-2 2-3 3-3 5-9-10-13-36-23-41"/><path fill="#5A8295" d="m464 320-3 1c-1 1 9-5 10 2-7 4-12 8-17 10-4-2-1-4-5-6 3-2 4-4 6-3-4-1-7 0-9 1 4 5-3 6 3 9 6 2 7 1 12 4-3 10-6 11 0 26 6-3 11-8 13-12-14-11 7-33-7-34"/><path fill="#0A0C09" d="M393 325c1 6 1 12 1 18 2 4 4 5 8 4-1 8-4 2-8 2 9 4 17 9 23 17-2-3-4-5-6-8 5-4 7 0 10-3 4 1 6-1 8-2-2 1-4 3-5 5-5-7-3-14-2-20-10-5-7-6-20-9-1 4-7 0-5 8-2-5-3-7-4-9"/><path fill="#283C50" d="M321 228c-3 6-2 15 2 21 1 3 1 4 4 4-1-3-1-6 2-8-1 5 2 4 3 6 0 9 1 12 3 14-1 5-3 2-5 1 4 5 10 10 16 12-3-12-2-4-9-10-2-7-5-10-7-14 5 2 9 8 14 12 0-2 2-6 3-8 2 1 5 2 5 4-1-7 6-2 5-3-3-6-17-19-18-23-7 6-5-5-13 8-1-2-2-4-1-5 0 2-2 3-2 5 0-8-4-9-2-15"/><path fill="#7D7C76" d="M317 324c-4 2-9 5-7 9-2 2-1 4-2 6-1 8-1 14 1 19 2 6 4 10 8 12 3 0 4-1 5-4 1 3 2 4 3 5 13-8 16-16 16-27-3 4-7 9-10 14-4-6 1-12 3-19-9 5-15 14-22 18-4-7-3-12-5-16 1-8 5-11 7-16"/><path fill="#2D4256" d="M268 388c5 9 0 20-4 28l-1 2v1l-3-1c-4 3-9 4-14 8-3-4 1-5 1-7-3 2-9 10-10 3-6 4-8 10-13 15 3 1 5 1 7 0 3 2-2 7 0 5 6-1 6-2 10-6-2 4 2 7-1 10 6-11 15-15 21-25l2-2v-1l1-1c0 2 0 3 1 5 6-8 13-30 4-31"/><path fill="#C5D3BB" d="M309 251c-15 4-16 21 2 26 7 3 15 4 23 3-10-4-23-21-23-29"/><path fill="#2E4051" d="M454 279c-1 4 1 5 2 9 6 6-3-1-1-5 4-2 8 0 11 0 4 7-3 2-5 2 8 2 13 10 19 18-2 2 0 8-2 11-7 5-12-8-17-3-10-11-14-29-12-24 1 9-2 19 8 25-2 3-3 4-4 6 7-2 15-5 22 0 2 11-1 19 1 28-2-9 5-16-1-26 4-1 5 3 6 4 2-4 5-14 4-16 2-2 3 1 5 1-5-6-9-14-15-18-6-6-1-7 2-6-7-3-14-4-21-6"/><path fill="#61A9BD" d="M278 176c-8 7-7 10-18 13 4 1 6 3 9 2l1 3-1 1-1 1c1 2 0 4 1 6-1-3 3-4 0-5 9-9 8-1 13-10 9 12 15 33 19 45 13-23 3-8 5-30-5 6-8 3-13-1-5-7-11-10-7-18-6 2-8-5-11 2-2-4-1-6 2-8"/><path fill="#2F4355" d="M434 225c-5 3 2 8 5 10-27-7-9 5-2 17-7 7-12-10-12 0 5 3 8 4 11 6-1-4 2-4 3-4-11-20 9-2-3-17 9 8 16 18 24 20 0-7 0-15-4-22-4 3-11-7-11 1-7-2-6-8-9-9"/><path fill="#314D61" d="M401 124c-8 15-4 17-13 39 18-6 24-13 31-12-6-4-4-8-9-14h-1 2c-1 1 1 1 0 2-4 1-5-1-9-2 4-2-4-11-2-14"/><path fill="#1B273B" d="M198 374c-3 5 0 12-2 18-11-1-22-7-30 0-7 7 2 28-6 36 4 0 4-3 8-3 1-12-6-22 1-32 6-1 11 2 16 2 0 3 1 5 0 6 8-3 12 4 15-6 8-2 1-11-1-21"/><path d="M218 344c-3 6-7 12-13 16-5-1-2-6-5-8-2 1-5 3-6 5-5 10 12 10 9 21 5-8 11-15 16-20l1 3 1-2c-9-6 7-8 0-14"/><path fill="#5A4C4D" d="M434 464c-1 3-1 7 1 11 6-2 16 12 22 18 3-4 5-7 6-12 3 9-3 19-2 20 3-3 6-16 3-27-5 0-7 4-11 4-8-5-14-9-17-15"/><path fill="#3A5669" d="M427 212c5 6-1 16 3 22 14 12 10-8 24 1-1-5-7-6-9-13 7 3 13 3 18 6-3-4-5-8-9-10-4 0-12 1-17 6-8-3-4-8-9-10"/><path fill="#8C7770" d="M222 467c1 1 4 2 4 4-6 6-12 9-18 14-3-3-1-11-4-3-4 7-1 16 2 22 7-6 9-11 19-26 2-1 2-3 1-6 1-3-1-3-2-5"/><path fill="#EBEFDA" d="M373 178c-1 1-2 0-3 1-5 1-5 4-4 6 2 5 6 4 8 6-6 1-10 1-13-3 1 6-5 11-5 15 4 1 3-5 7-6 4 2 3 5 5 8 17 4 24-20 4-15-3-4-3-10 0-11"/><path fill="#88D6E2" d="M151 284c-13 7-7 11 5 14 1 3-5 8 3 6 8 0 5-4 11-6 4-8-8-7 1-12-9 5-14-1-16-3"/><path fill="#88746C" d="M183 476c-4 4-10 6-14 11-4 0-2-4-3-6-1 0-1 2-2 2-3 8-3 17 2 21 3-4 6-7 18-18-4-4 2-5 0-9"/><path fill="#293E53" d="M234 405c-3 3-12 10-13 5-12 8-9 21-16 29 9-4 23-11 27-19-3 1-11 4-9-3 4-5 7-8 10-12"/><path fill="#CAF9FA" d="M246 219c-5 1-10 0-14 2-7 1-6 6-13 6 23-3-9 9 20 0-4 5-8 5-11 9l9-6c9 1-9 6 0 6 10-2 26-15 10-18"/><path fill="#77C4D4" d="M251 368c2 3-9 12-12 17-9 8-14 2-15 7 2-7 4-12 6-16 7 1 12-9 18-6"/><path fill="#4C8195" d="M269 233c-10 19-27 12-36 21 6 1 12 0 15-5 2 4-1 7 1 9 6-3 10-7 15-11 1 3-2 5-5 7 6-2 12-6 16-10-3-1-4 0-5 1-2-6 6-12-1-12"/><path fill="#2A4458" d="M285 225c2-2-41 13-7 4-4 4-6 9-8 13 8-3 7 1 15-4-1 6-2 9-2 11 10 0 5-8 9-14-8-2 0-6-10-6 2-2 2-4 3-5"/><path fill="#659EB0" d="M157 361c-1 3 4 5-2 11 7 7 17 3 22 4 7 3 12 4 14 11 1-7-4-15 5-16-8-5-7 2-8 5-19-4-22-12-28-15"/><path fill="#3F5A6C" d="M455 283c1 4 4 2 3 7-22-11 1 10 1 18 7-3 15 12 17 6 4-3 1-11 5-9-6-7-8-12-13-15-10-5 9 4 5 8 2 7-7 2-3 9-6-7-9 4-14-9 4-2-3-6 2-7 3-3 2-4 2-6 2-2 7 2 8 1-5-3-8-2-10-4"/><path fill="#121623" d="M279 374c5 6 2 23 9 23-3 9 0 17-3 23 4-14 7 3 1-12 7 5 11 4 14 10-5-15-5-27-21-43"/><path fill="#554849" d="M463 459c-2 13 15 27 11 34 5-7 6-1 7-3 3-5-3-14 2-19-4 0-6 1-7 1-6-4-9-8-12-11"/><path fill="#4F889D" d="M357 113c-1 7 5 11 8 17-12-1 0 16-10 8 10 12 4 10 13 14-5-3-3-5-6-6 4 0 8 0 11 2-1-4 0-7 4-4-5-14-13-18-19-28"/><path fill="#B5BCA8" d="M371 315c1 5-14 5-7 17-4-2-4-4-5-6 6 13-2 27-3 38 7-6 9-14 8-24 4 1 2 5 3 8-2-8 0-16 2-23 3-1 3 2 4 4 0-5 0-9-2-12"/><path fill="#3E5F73" d="M197 373c-8 2-3 8-3 14-6-2-8-7-12-7-10 3-20 10-27 16 0 5-2 11-4 3 5 9 4 18 7 25 3-10-4-20-2-26 4 4 8-10 14-9 11-1 19-1 21-2 4-3 3-8 5-12"/><path fill="#808079" d="M353 301c8-2 11 7 17 10 4 6 4 11 5 15-2 6-4 0-5-1-2 7-4 15-2 24-4-1-2-5-3-8-4 17 5 15 0 29 6-16 8-34 12-47-1-5-5-7-6-9-6-6-9-13-15-14"/><path fill="#773D28" d="M395 306c-4 12 2 9 9 13 10 7 15 5 22 8 1 0 2-1 3-2-9 1-19-19-33-18"/><path fill="#89E0EB" d="M350 144c-1 3 1 4 1 6l-2 2-2-1c-3-1-4-5-5-6-13 13-7 8-6 15 1-1 10-6 10-8 3 3 19 5 24 10-4-13-12-10-18-17"/><path fill="#2D4155" d="M122 384c2 10-1 19 7 26-4 1-6-3-9-4 5 7 1 15 3 14 1-2 2-6-1-8 8 4 4 13 14 11-5-12 8 4 2-8-13-25-10-8-15-31"/><path fill="#3B5F74" d="M293 219c-7 5-6 2-9 9 9-1 1 3 7 4 1 7-1 14-1 21 2-4 2-8 7-12 0 7-1 11 0 16 10-6 2-5 12-13-5 6-7-3-10 7-3-7 1-9 2-12-2 2-3 0-5 2 2-9-1-15-3-21"/><path fill="#385D73" d="M381 230c-4 2-4 6-3 11v1l-1 1v2l-3-1c-4-6-3-10-10-4-2-7 2-8 5-7-10-4-9 5-12-1 1 4 1 8 0 11 0-2 1-3 3-4 10 12 12-1 18 11-2-3 0-5 1-7 2-7 27-10 2-14"/><path fill="#8B8481" d="M391 177c-10 4 7-3 9 3 3 1-1 14-11 9 4 1 6 4 10 4-1 10-7 13-4 15 2 0 4 1 7 2 6-6-1-15 4-22-1 3-4 3-6 5 4-4 8-10 1-15-2 0-5-2-9-1"/><path fill="#645451" d="M440 332c3 3 0 7-3 6-5 2-10 2-12-3-2 7-4 15-1 21 2-7 11-12 15-10 0-3 7-7 2-12"/><path fill="#81D3E2" d="M252 370c-7-3-13 7-19 4-11 11 5 2-7 15 12-1 18-11 24-19"/><path fill="#BFC6B0" d="M390 190c-5 7-9 17-21 15 16-3 13 3 24 3-1-2 13-15-1-16"/><path fill="#588093" d="M460 286c3 6-5 6-3 11 3 11 7 5 10 8 0-5 7-2 7-6-3-5-4-8-13-11"/><path fill="#72382E" d="M343 413c2 10 11 11 14 15-2 1-2 17-3 22 0 3 2 2 4 2-2-9-4-17 5-29-7 2-4-10-19-9"/><path fill="#545356" d="M312 248c1 7 6 14 9 20 5 2 8-1 11 6-2-3-3-6-4-8 3 0 5 2 7 2-9-8-16-15-22-17"/><path fill="#6C5A58" d="M171 428c-3 1-5 3-9 2 5 0 4 10 3 12-27-14-9 8 11 9-8-4-5-14-5-21"/><path fill="#4D778B" d="M427 199c-3 9 4 15 6 20 9 7 8-5 21 0-8-5-11-6-16-3-4-4-5-7-7-10 2-1 4-1 5-2-3 1-7-1-7-4"/><path fill="#63ABBF" d="M352 112c-8 5 4 9 7 17-3 2-3-2-5-2-6 6 3 7-1 15-7 0-7-10-8-5 3 6 0 3 7 5 3 3 5 0 9 5-4-7 5-3-5-11 5-6 5-4 8-6-4-7-10-11-12-17"/><path fill="#2B4256" d="M395 232c-3 6-12 4-14 12-3 2-3 3-1 6-4-1-5-4-6-6-3 8-13-8-16-2 2 1 10 7 19 7l3 4h1v2c-2-12 6-5 4-15 4 1 1 6 3 9 6-5 8-10 8-15"/><path fill="#1A2D41" d="M309 167c-1 4-1 14 1 15-6-1-6-7-15-8 4 3-3 5 0 11 1-1 4 0 7-2 0 3 7 3 7 8-2-9 10-3 7-12-3-4-7-7-6-11"/><path fill="#395D72" d="M323 216c-12 28 3-1-1 29 1-3 2-5 1-8 3 2 2 4 3 6 4-6 4-3 7-10l2 4-1-2c-2-8-9-8-12-15"/><path fill="#396173" d="M339 159c-6 9-5 1-9 2-1 5-6 16-2 17 2 5-2 11 4 12l2 1h1v3c7-7 7-1 12-2-5-9-10 3-13-3-3-4 2-13-5-9-5-13 17-7 6-19"/><path fill="#2D2B35" d="M389 311c-2 4-1 6-6 8 4 13 3 28-1 38-4 13-12 22-18 31 10-8 17-18 21-29 2-10 0-47 6-44"/><path fill="#3B6075" d="M277 242c-4-1 0 4-8 8-15 6 7-14-22 11l2-1-2-1 1-1 1-3c2-1 3-3 4-5-1 2-2 4-4 5-1-1-1-3 0-5-1 7-6 13-9 17 10-4 19-9 28-15-1 3-3 7-6 8 6-5 12-11 15-17"/><path fill="#B6EEF3" d="M210 208c7-1 16-1 22 2-7 5-35 5-25-2"/><path fill="#151926" d="M375 378c-6 13-25 19-23 29-5-1-13 3-21 10 5-7 13-4 18-7 6-2 8 0 6 1 5-8 5-17 22-33"/><path fill="#EBF1DC" d="M215 467c-3 1-5 2-6 5s-3 6-2 7c5 2 10-5 16-6-3-4-3-8-7-6"/><path fill="#7C7F79" d="M350 309c-8 8-12 4-17 9 2-5-7 4-14-2-3-2-1-3-2-5-3 1-6 3-9 5-2 6 11 7 18 5 4-1 5 0 6-1 6-3 12-4 15-9"/><path fill="#715E5A" d="M135 426c-8-3 2 14 12 17-4-7-1-8-5-18-3 2-6 0-7-1"/><path fill="#2C3B52" d="M237 468c2 4 7 6 8 10-10 0-19-11-15 4 5 1 12 6 16 0 0-5-3-9-7-12"/><path fill="#DBFAFA" d="M233 214c-9 0-17 1-25 4 8 2 66-5 25-4"/><path fill="#436073" d="M466 317c-5 2-10 4-16 5 9 3 13-8 23-4-7 13 4 27 1 37-6 4-9 13-14 10-9-19 4-20-2-28-1 9-5 18 2 26l1 2 1 1h1c5-3 8-8 12-12-2-12 0-24 0-34-4-3-5-4-8-3"/><path fill="#F1F2E6" d="M323 142c-3 1-5 1-7 3-2 8-7 16-3 22 0-6 1-11 3-15s3-6 6-5c4 4 9 5 9 6 6-4-2-10-6-10"/><path fill="#2E4458" d="M169 390c-5 1-8 11-12 8-3 7 8 20 1 29-5 2-8 0-13 1 6 1 9 0 13 1 3-3 3-5 5-4v-21c7-9-1-9 5-15"/><path fill="#61A6BB" d="M349 92c3 12 5 22 14 28 2 4 2 7 5 7 2-23-5-9-6-24-1 7 6 11 2 17-3-9-9-19-14-25"/><path fill="#131A29" d="M201 482c-4 6-1 13 1 18-6-2-12-5-13-7-7 1 4 9-8 3 1 2 3 2 5 3-5 1-7 0-9-1 4-9 18-9 20-12-13-4-10 5-22 9l1 1 1 1c2 1 3 5 7 3 7 1 11 3 15 1l3 2 1-1c-3-3-2-11-3-18"/><path fill="#568B9D" d="M228 252c-15 5-29 13-45 13 9 0 26-4 26 1l-2 2 1-2c7-4 14-7 18-13"/><path fill="#05060A" d="M346 163c-3 2-2 7-1 10 4-11 4 3 12-7 7 1 13 5 12 10 3-2 8 0 12-3-9 5-19-12-32-10"/><path fill="#192438" d="M201 483c-29 4 16 1-27 13 7 2 8 4 11 3-2 1-3-2-4-1 2-2 5 0 8 0-7-3 5-4-5-1 0-5 3-2 3-5 4 2 9 5 14 7-2-4-4-10-2-15"/><path fill="#2B3F55" d="M204 474c-5 2-11-1-16 1 0 4 0 6-1 7 5 4 8 0 11 1 2-4 4-5 4-7"/><path fill="#EBF0D4" d="M448 459c-18 4 2 12 7 9-1-4-1-9-5-8v-1h-1"/><path d="M434 327c-14 7-3 16 6 9 1-3-1-5-3-8"/><path fill="#050100" d="M238 316c-3 6-3 5-5 11-4-2-4-8-4-6 1 5-3 3-3 7 5-2 6 5 10 4 4-6 5-5 6-11 5 1-1 4 3 6 1-9-4-12-7-8"/><path fill="#4F8195" d="M224 391c-1 0-2 5-3 3-3 5-9 13-5 15 2 1 4-2 5-1 6-1 8-4 12-5l2-1-4 2c3-17 0-10-8 1-2-5-3-9 0-14"/><path fill="#161923" d="M173 393c-4 1-6 4-5 8-1 6 1 13 2 18l1 3v3l-2 1c-4 0-6 4-12 3 5 1 9-1 12-3 1 11 2 22 11 25-13-3-6-22-8-28l-1-1 1-2c5 2-3-11 6-10-5 0-6 6-7 9 1-9-5-6-2-17 0-9 9-7 12-5 2 4 6 9 0 11 4-2 5 2 7 4-4-4-3-10-4-14-5-4-8-3-11-4"/><path fill="#2A4458" d="M353 184c0 6-14 15-11 5 1 15-5 9 2 17 4-3 12-20 12-21"/><path fill="#6897AB" d="M465 321c-4 2-9 3-14 4-1 3 4 5 0 7 5-3 23-7 16-12"/><path fill="#663447" d="M379 210c-33 13 21 0 19 10-3-5-7-7-10-9-4 0-6 0-9-1"/><path fill="#64A9BD" d="M421 153c-11 3-21 7-26 11 13-1 19-3 28-11"/><path fill="#B44B3D" d="M360 169c-3 1-6 0-7 3 1 6 5 6 10 5 6-3 3-9-2-7"/><path fill="#89837A" d="M441 457c-2 1-9 4-5 7 4 6 11 8 14 13 6-1 9-3 12-5-2-3-2-5-3-7 2 4-3 8-6 7-7-1-12-3-15-7 3-7 5-5 9-9h-4"/><path fill="#B7EFF3" d="M276 163c6-3 9 7 2 9 0-5 0-2-13-3 3-5 7-5 9-6"/><path fill="#E7E8E8" d="M232 331c-6 3-5 6-12 8-2 8 2 3 4 9 6-8 9-7 8-17"/><path fill="#7B6C6A" d="M147 431c4 5 1 3 7 10 3 2 4-1 9 2 3-4 1-8 2-10-6-4-1 3-5 5-7-6-5-6-12-6"/><path fill="#655" d="M204 393c-2 9-11 10-17 9 4-3 12 6 12 12 4-7 3-12 5-18"/><path fill="#858581" d="M357 191c-5 7-13 16-9 25 3 5 6 9 10 11 10 0 13-6 18-5-5-2-10 5-16 3-5-4-8-4-11-6-1-10 6-21 9-29"/><path fill="#4B798F" d="M259 374c6 11-7 38-13 39 7-9 12-14 18-19 5-12-10-16-1-21"/><path fill="#7FCDDD" d="M169 368c2 4 12 5 17 7 5-1-1-7 5-7-7-2-13 2-20-1"/><path fill="#253447" d="M396 377c8 1 7 15 6 18-6-4-5-10-6-16"/><path fill="#80D3DF" d="M334 172c-10 6 10 9 17 14-7-6-14-5-13-16"/><path fill="#263F53" d="M244 348c-22 24-1 2 12 5 7 4 12 10 16 14-1 8-1 15 0 22-1-4-1-8-1-12 4 0 7 4 8 6-3-5-2-9-5-14-6-6-11-12-17-15l-1-1h-1l-3-1c-3-2-8 3-10 0"/><path fill="#8D8481" d="M320 157c-2 3-5 13-1 13-2 2-6 2-7-2 2 2 0 5 4 5 11 2 1-13 9-5-2-5 2-8-3-10"/><path fill="#213A4F" d="M311 184c-1 2-2 3-2 5-2-2-8-5-8-2 1 0 2 2 3 2-1 5-3 10-3 14 8-5 8-9 11-17"/><path fill="#EAEEE8" d="M434 351c-6 2-7 10-12 9-1 4-6 4 2 9 1-4 7-10 9-17"/><path fill="#62403A" d="M257 478c-4 5 0 13-3 19 4 1 4-1 6-4 2-5-2-8-2-12"/><path fill="#3C586A" d="M425 236c1 5 0 10 3 14 3 1 4 3 6 4 2-9-1-9-8-17"/><path fill="#E7ECD6" d="M176 471c-1 2-3-1-4 1 1 0-1 5-2 10 5-3 19-8 7-12"/><path fill="#674130" d="M250 293c-5 1-14 1-20 6 2 3 6 3 7 3 3-4 8-3 12-8"/><path fill="#4F7D92" d="M245 394c-4 4 0 17-16 22 8-1 15-10 19-10 1-4-3-8-1-12"/><path fill="#52839C" d="M205 464c-11 2-6 2-15 5 7 7 32-5 17-6"/><path fill="#2D4457" d="M172 398c-3 4-2 9 0 15 1-4 4-6 8-6-3-5-5-7-7-9"/><path fill="#D1F8FA" d="M211 209c-17 3 14 6 20 1-5-3-11-1-17-2"/><path fill="#643E35" d="M297 414c-6 13 3-5 6 13 9-2 9-3 14-6-7 0-11-1-19-4"/><path fill="#908378" d="M160 475c-2 10-9 0-10 7 0 5 0 7-1 8 0-4 6-5 8-7 0 8-4 17-2 18 0-9 5-16 7-24"/><path fill="#37566B" d="M404 125c-4 0 0 12 2 14-1-3 4 1 5 0 6 5 3 9 7 10 0-2-5-10-5-11-2-1-6-10-9-12"/><path fill="#673C38" d="M370 465c0 10-7 13-9 22 4 3 6 6 9 6-1-3-3-2-4-5 3-7 4-13 3-21"/><path fill="#846A62" d="M183 409c-2 2-9 1-9 7 8-11 18 9 12-7"/><path fill="#67BCCE" d="M250 205c6 0 7 5 16-1-5 7-13 9-18 4"/><path fill="#1B1A21" d="M443 333c3 5-1 11-6 13 3-3 6-1 8-2 2 3 4-1 8 1 1 4 2 6 1 10-3-3-4-5-5-8 2 7 7 12 7 19 1-7-4-16 0-23-6 0-10-5-8 1-5-3-2-7-4-9"/><path fill="#1A2131" d="M207 292c5 1 16 0 16 5-8 2-7 0-15-2"/><path fill="#1B2636" d="M417 457c-19 18 10 7 18 3-5 4-13 3-19 1"/><path fill="#172031" d="M367 265h2c2-1 4-2 7 2-1 4-6 1-8 1 2 11-7 7-2-2"/><path fill="#334B5F" d="M433 224c5 0 10 11 7 11-5-2-10-5-9-10"/><path fill="#83837A" d="M358 330c3 16-4 5-4 7-3 1-3 7-6 7 2-3 4 1 5-4 0 6 2 12 4 8-1 7-1 11-3 15-1 4-2 5-2 7 3-3 4-5 7-7-2 0-3 1-4 2 1-6 2-10 3-14 2-7 2-12 1-18"/><path fill="#ABEEF4" d="M235 190c8-2 14 4 21 6-7-2-13 1-19-5"/><path fill="#B2B5A9" d="M347 213c0 4 5 6 11 10 19-2 29-3 39-2 0-1-2-2-5-3-13-1-22 4-31 7-6-5-10-6-13-11"/><path fill="#1E293A" d="M422 237c1 6-2 10-3 14 3 3 6 4 8 5-7-4 1-11-4-16"/><path fill="#42657A" d="M430 201c0 3 5 2 7 3-1 2-3 2-6 1 2 4 5 6 5 8 6-5 10 6 13 0-1 0-25-8-7-8-6 0-8-5-10-3"/><path fill="#1F2D3F" d="M128 393c3 12 19 31 7 29 7-2 4-8 5-10-7-13-9-6-9-18"/><path fill="#302424" d="M233 344c-12 9-7 9-16 21-1-1 18-19 19-21"/><path fill="#856B64" d="M192 404c-11 0-1 12 6 9-1-4-3-6-4-8"/><path fill="#B46254" d="M355 170c10-1 5 4 10 1-4 7-13 4-12-1"/><path fill="#131928" d="M267 279c-12 8 14-4-10 11 2-6 3-8 6-10"/><path fill="#7B8079" d="M294 263c1 7 10 12 15 16 10 3 18 4 27 3 3 0 5-1 7 0-2-1-5-1-6-1-3-4-6-8-9-10 3 3 5 6 7 10-9 1-17 0-23-3-8-3-15-8-16-15"/><path fill="#4A464C" d="M340 359c3 5-3 16-6 21 0-6 3-12 5-17"/><path fill="#3F3A41" d="M405 263c3 10-11 18-11 19 5 0 8-1 10-3 2-5 2-9 2-13"/><path fill="#8BD6E0" d="M179 301c-5 3-5 0-6 7-2 4-1 7 0 10-4-9 9-9 8-18"/><path fill="#847F76" d="M463 457c2 4 5 7 9 10 3 6 6 2 8 3-4-21-6 7-16-13"/><path fill="#1D2638" d="M172 396c3 2 5 6 9 8-2 5-5 4-7 5 3-2 5 2 6-1 1-1 6-5 2-10-3-1-5-2-9-1"/><path fill="#47424A" d="M307 366c2 1 8 13 4 15-3-4-3-8-4-13"/><path fill="#D1F9FA" d="M278 164c-4 1-8 1-11 2 10 1 15 3 8 6 5-2 8-8 5-8"/><path fill="#2B4559" d="M241 247c-11 3-24 3-36 4 14 3 29 1 35-4"/><path fill="#568096" d="M179 467c-6 1-13 0-18 4 4 9 10-4 15-3"/><path fill="#5FA7B8" d="M332 178c5 2 2 3 1 8 6 2 12-1 15 0-6 2-7-8-13-7"/><path fill="#B2B4A1" d="M464 457c2 3 5 9 9 8 3-6-4-8-6-9"/><path fill="#C0C4AD" d="M177 470c2 1 5 1 6 4-4 4-7 6-11 8-5-1-1-7-1-8-12 11-2 2-3 13 0-1 2-1 2-3 6-4 9-6 13-8 2-4-1-5-3-7"/><path fill="#254255" d="M347 161c-11-2 27 1 29 10-9-3-14-13-26-13"/><path fill="#1F2C3D" d="M318 239c2 11 7 19 14 24-7-11 4-7-5-16-1 1 2 12-2 7-3-4-5-8-6-13"/><path fill="#76C3D5" d="M354 98c4 7 7 14 9 22-6-24 6-2 3-7-3-8-6-10-9-13"/><path fill="#476372" d="M120 344c-5 11-11 5-13 19 11-5 11-8 11-16"/><path fill="#725C57" d="M157 485c-2 1-4 1-6 2-1 8 1 8 2 11-1 0 3-9 4-12"/><path fill="#284257" d="M171 305c-8 5-1 14 1 20 7-2 8-6 13-10-4 4-9 7-12 10-1-6-6-12-3-19"/><path fill="#C2F8F9" d="M258 212c7 4 8 8 15 8-4-2-5-8-13-7"/><path fill="#050407" d="M413 166c-3 2-7 2-10 4 5-1 6 4 4 6 3-4 8-8 8-10"/><path fill="#192132" d="M362 410c8 2 2 3 4 9-7 0-7-4-4-7"/><path fill="#233548" d="M331 242c4 2 6 11 8 15-5-4-7-8-8-13"/><path fill="#273549" d="M397 376c0 6 0 13 3 18 3-2 1-12-2-16"/><path fill="#263E54" d="M425 156c-13 13-34 8-38 12 15 4 27-11 37-4 1-2 0-4 1-5"/><path fill="#5D5656" d="M319 151c-3 6-6 8-1 20-3-3-2-10 0-12 4-6 5-1 6 0 2-3-1-6-3-7"/><path fill="#76BBCC" d="M246 356c2-1 5 0 6-1 0 7-15 7-8 2"/><path fill="#171E2C" d="M210 335c3 1-4 11-7 12-2-4 4-6 5-9"/><path fill="#62ABBC" d="M274 200c-7 20 4 2 1 21 8-16-6-10 1-20"/><path fill="#191B27" d="M340 402c-2 3-6 5-8 9-4 0-12 3-11-2 1 3-4 4-1 8 4-2 7-3 9-5 6-2 9-5 10-8"/><path fill="#1C2E40" d="M405 166c-12 7-19 2-27 3 5 7 13-3 16 4 4-2 16-7 11-6"/><path fill="#405D71" d="M445 323c-8 4 2 15 7 16 1 0-13-9-5-16"/><path fill="#232F3F" d="M124 350c-8 11-14 13-19 18 5-5 12-5 17-14 5 1 2 4 4 4-1-1 0-4-1-6"/><path fill="#2D282E" d="M367 486c2 6 4 10 13 6-4-2-8-3-11-6"/><path fill="#254053" d="M174 238c-5 2-14 8-15 9 5-3 15-5 18-8"/><path fill="#76625C" d="M135 427c4-1 3 7 7 9-1 1-12-6-7-7"/><path fill="#2A4256" d="M275 248c-13 18-10-4-20 21 6-8 16-12 19-21"/><path fill="#898580" d="M407 219c0 7-19 0-20 3 6 1 11 2 14 5 1-4 3-3 6-6"/><path fill="#232A3D" d="M449 454c-3 3 7 1 11 9v3l1-2c-2-3 2-6 0-8-4 1-8-3-11 0"/><path fill="#161A26" d="M229 475c0 11-7 10-8 14l-1 1-1 1c-1 4-3 7-8 13 9-10 5 4 8-14 5-3 11 0 14-3-6 0-6-5-4-10"/><path fill="#7E6A62" d="M129 424c3 4 3 4 12 17-1-3-4-15-10-17"/><path fill="#659AB2" d="M226 466c2 6 7 5 12 8-2-5-6-7-11-6"/><path fill="#6797A7" d="M145 333c6 0-2 7-3 9-3-3-1-5 0-8"/><path fill="#68B3C2" d="M306 166c2 9-7-1-9 6 4 2 5-2 9 5 0-4-1-6 2-9"/><path fill="#191921" d="M409 190c-3 4 0 12-3 16-3 5-6 6-6 10-4 0-4-4-6-4 2 0 2 4 4 4l2 2 1-1c4-2 5-5 7-8 4 1 2 5 1 6 2-3 2-6 0-7l-1 1-2-3c3-4 1-10 2-14"/><path fill="#507284" d="M469 345c3 0 0 9-3 11-2-3 1-5 1-8"/><path fill="#694A38" d="M336 414c-3 9-13-1-14 10 6-3 11-5 15-9"/></svg>