<svg xmlns="http://www.w3.org/2000/svg" width="600" height="600"><path fill="#616C53" d="M103 120c1-3 1 1 3 0 0 6-10 16 0 17 15 1 26-6 35-15 5 2 8 2 11 4 32 30 32 74 62 105 52-27 100-52 153-76-18-5-35-15-52-22-15 1-30 7-40 1 12-1 25-1 33-6 24 8 47 17 71 20 18-9 35-12 52-15-1-3-4-3-4-6 5 0 8 3 9 5 17-2 31-4 44 5 15 6 25 15 35 22 1 2-1 6 1 9 5-2 8-4 10-1 7 8 9 17 10 25-22 24-24 52-44 74-11-23-32-40-43-63-18 6-39 3-57 13-4 5-7 6-12 8 0 14-8 24-15 31 8-6 12-17 21-22 15 10 15 28 22 40 9-3 16-9 24-12 8 1 10 5 14 8 6 22 10 43 12 65-4 13-2 29-2 45-1 23 13 44 11 64 25 12 52 4 77 18 6 0 8 4 9 7-8-1-11 10-22 3-6-6-12-3-16-8-19 0-39-6-56-2-5-2-5-6-7-6-2-16 5-35-3-52-3-26-13-48-19-70-2-17-1-33 1-47-5 1-10 7-14 11 7 30 5 63 8 94-11 8-22 18-30 26-10-4-19-8-30-6-7-1-10 3-15 3-2 5-7 6-5 11-9 4-10-8-15 0-1-13 11-14 18-18 16-4 32-9 44-1 10-7 17-12 24-17 1-15 1-28-1-40-3-15-9-26-13-38-15 14-38 14-52 28-5 1-6 2-9 0-6-3-7-8-6-11-4 5-7 10-12 13-3 19-12 37-13 55-8 6-15 7-21 11 0 22 2 43 1 59-17 14-40 23-57 31-3-4-1-6 0-8 8-13 20-15 32-19 4-4 6-10 10-13-5-15 4-27 2-41 0 6-6 4-12 5-3-4-7-3-5-7l3-33c-6 0-11 2-17 3-16 12-32 19-44 33-13 8 0 19-3 23 1 8 7 8 10 12-3 5-6 1-8 6-3-8-6 3-12-6 5-4 5-10 4-16 0-6-10-2-8-9 7-11 16-22 26-30-21 5-42 6-62 9 4 20 18 43 22 58-1 0-3 2-5 3-9 3-13-4-16-9-3-18-9-35-12-52-14-2-23 4-38 0-17 3-22 25-40 24 2-10 18-13 24-24-7-7-17-8-26-13 2-12 12-18 8-30 8-2 13-4 19-5-3-7-19-1-23-12 10-12 21-18 31-26 13-32 27-62 48-88 7-9 12-14 17-20 4-2 8-1 11-2 12 11 22 23 31 33 5 0 5-2 8-4-17-41-51-66-66-106-10 6-20 10-33 9-5 0-9-2-10-6-2-7-1-11 1-15"/><path fill="#1E2719" d="M431 167c-3 3-9 3-12 4-6 8-5 3-15 5-4 6-2 10-3 15-1-4-2-7-1-10 4 10-13 5-8 15-5-8-14 3-16 2-20 8-30 21-43 25-4 5-2 4-1 7-11 12-9 35-14 52 5 0 8-4 14 3 3 3 6 4 8 2 12-10 19-20 23-30l1-2-2 1c-5 2-2 13-9 16-5 4-9 8-20 14-7-3-1-15-5-10 0-22 5-3 2-49 7 14 3 13 11 22-3-4-3-8-4-11 7-13 15-11 22-23 3 0 2 3 3 4 6-7 12-11 17-15 6 3 7 6 9 9 2 5-2 4-3 7 4-5 9-6 9-8-4-3-9-6-12-9 10-3 12 3 16 8-3-5-2-5-3-8 7 0 9-2 17 6-10-7-8-9-12-15 10-3 18-11 30-11 7 16-2 1 13 13-2 2-3 1-5 1-3 1 0 1 1 3 0-1 3 0 4-1l1-2h2l1 2h-2c9-10 8-41-13-29"/><path d="M161 237c-3 2-6 7-9 9-18 22-33 41-44 66 16-9 25-7 36-14-3-2-3-6 2-10 13-9 28-24 37-29-5-7-7-25-20-21"/><path fill="#EFF2E3" d="M333 174c-20 9-44 19-67 32-10 15 1 0-7 30-1-6-4-10-1-14-6-3-10 0-14-3-11 4-20 8-28 15 5 8 9 16 17 18 13 1 17-7 23 1 0-7-1-11-2-14 3-1 3 1 4 2 19-10 22-29 35-36 12-6 27-3 39-10 2-2 1-5-1-6-16 5-28 9-41 13 14-12 28-20 43-28"/><path fill="#1B2818" d="M295 278c-8 10 1 45-5 51 3 7 4-6 8 0 1 16-13 27-10 39 5-3 9-6 15-10-2 1-4 3-5 2 1-7 9-14 12-19-1-1-2-3-4-2 5-3 7-2 10-3 4-3 3-6 3-9 4-3 4-6 8-7s3 1 7-2c-3 5-5 14-6 14 5-6 8-10 14-19-2-7-4 0-11-3-1 3-4 5-5 8-3-6 0-4 0-9-10-3-14-17-13-21 3 16 1 33 6 37-6 13-3-6-7 6 10 6-14-73-6-39-3-4-5-8-10-11"/><path fill="#DCDFC6" d="M364 190c-17 6-37 14-43 15l-2 1-1-2v3l-2-3c3-1 2-3 5-4-10 4-20-1-28 5-23 20-18 33-38 45-5-5-11 8-25 3 5 4 9 2 12 4 11 1 13-3 16-4 3 1 3 0 6-1 17-9 31-20 47-28 6-8 3-11 5-18 2 5 4 7 2 12 17-8 32-18 47-27"/><path d="M381 258c-10 10-18 19-29 30 1 9 1 19 0 27 14-12 28-22 42-32-4-9-2-23-11-26"/><path fill="#2E3B1B" d="M498 157c-2 0-3 1-2 4v2-3c6 8 14 16 14 28s-4 21-7 30c-5 4-10 7-15 5 2 13 4 27 1 39 8-4 30-64 27-38 1-27 2-39-1-45-4-15-8-13-16-22"/><path fill="#12160B" d="M413 173h-2c-47 19-72 39-119 68 1 2 3 2 3 4 12-6 23-16 33-19-8 21-10 37-18 53-1 5 1 6 0 9 5-3 7-5 11-6-2-9 1-37 6-52l2-2 1-1v-3c4-2 8-5 12-7 2 2 4 2 3 3 5-13 17-14 28-23 5-1 5 2 6 3-3-2 0-6 4-7 7-5 8 3 9 6-1-2-2-4-2-6 4-6 11-5 8-13 4 1 2 6 3 9 0-3-2-7 0-10 4-4 7-4 9-6 3 4 1 4 2 7-1-4 3-9 5-8"/><path fill="#12180D" d="M359 264c-3 10-11 17-19 24-8 0-11-6-15-7 14 19 6 15 20 30-4 7-8 10-9 13-5 4-4 6-7 7 0-3 1-7 4-11-2 4-3-2-4 0-11 9-8 4-10 17-7 1-13 2-17-2 2 1 4 3 6 3-6 9-11 17-19 23 8-6 14-14 20-21 2 5-17 20-9 22 8-6 20-18 28-28 3-4 4-6 5-8 9 2-1 10 9 12 8 2 11-9 17-9-6 0-10 1-14-1 0-5 3-7 4-8-4-21 1-29 0-31 5-8 9-16 11-23"/><path fill="#293A2C" d="M226 295c-19 21 27 24 44 41-5-6 4-10-9-20-7-9-16-13-24-19-3-2-4-3-5-4"/><path fill="#515440" d="M213 349c-11 4-26 30-43 33-2-4 7-5 7-9-2-3-7 1-9 2-17 13-18 6-25 19-5-4-5-8 2-7-3-1-4 0-5 1-5-7-8-13-10-18 0-1-2 0-3-1 5 15 12 32 18 52 6 48 5 5 15 41 5-1 8 2 7-5-5-9-11-30-20-34 2-5-13-23-3-26 3-13 17-8 21-15h2l1 1h2c3-2 6-1 9-1 14-10 22-18 32-32"/><path fill="#3B4E2F" d="M437 285c-5 13-4 40 1 56 1 3 4 2 5 4-5 0-5 1-4 7 9 18 13 60 19 77-14-52-8-94-21-140"/><path fill="#B3C687" d="M140 126c8 11 14 25 18 38 13 8 18 23 28 32-2-13-8-25-12-37-9-11-19-32-30-33"/><path fill="#293B1F" d="M175 228c0 2-2 4-3 6 4 4 14 16 23 24 10 14 4 21 21 42h-2l1 1c9-4 8-9 14-11-1-3-2-4-3-5 3-1 4 3 8 1-2-4-8-9-12-14 1 3 0 7 3 11-4-2-9-6-14-9 12 6-22-25-35-45"/><path fill="#BDBB9F" d="M488 161c4 3 5 14 5 20-5 6-5 6-14 7-5-2-6-6-8-8 3-26-10-12-11 8 6-2 8 10 16 9 8-5 13 1 21 3 3-4 5-6 4-9-1-9-5-16-6-24 3 0 6 4 8 7-5-8-9-10-13-12"/><path d="M313 352c-8 6-15 14-26 18 2 10-1 20 1 29 6-4 13-4 14-11 6-12 8-23 12-33"/><path fill="#2E3725" d="M433 273c-23 20-50 33-73 46 14-2 15-2 30-3 10-1 23-24 37-31 2 5 25-12 4-3-5-4 1-4-1-8"/><path fill="#D8D8C1" d="M479 157c-12 0-8 12-10 16 1 5 3 7 7 12 9 3 11 0 16-2 2-8-4-17-2-21-2 1-3-7-10-4"/><path fill="#1C2918" d="M244 320c-21 19-10 28 9 30 0-4 1-11 3-17 0 5 6 6 9 4 2 5 1 6 0 7 5-1 3-10 9-5-10-7-14-5-30-17"/><path fill="#6A824F" d="M149 228c-2 6-12 10-9 16-7 0-11 9-14 13-7 14-14 25-15 38 7-8 16-25 26-37 0-2 1-8 2-11 5-1-1 2 3 5 3-9 8-12 10-23"/><path fill="#698B52" d="M447 282c-8 0-5 7-6 13 4 9 3 23 8 26-3 18 1 32 1 48 5 1 0-24 5-39-2-5 0-13-3-9 4-9-5-27-5-38"/><path fill="#3B552D" d="M333 242c6 14-8 30 1 42l3-1h-5c16-17 2 9 18-13v-1l2-2-1 3-2 2c-9 2 6-11 4-16-5-2-9 1-13-2s-4-7-6-11"/><path fill="#7B7D65" d="M260 259c-4 3-11 5-13 12-3-2-2-6-4-7-33 2 13 28 19 42 2-2-2-4-3-7 2-6 9-5 13-7-1-3 1-5 2-7-7-1-8 10-17 12-5-8-12-14-10-24 6-5 11-9 17-14h-1"/><path fill="#293728" d="M218 348c-3 8-13 15-13 24-19 18-22 4-28 17 9-4 17-5 26-16 16-1 11-3 27-8-5-6-2-14-12-14"/><path fill="#B6D17F" d="M449 136c-15-2-3 8 0 10 11 2 23 7 34 7-3-11-15-11-24-13-3-4-1-5 3-4-4 0-9-1-13-1"/><path fill="#11160B" d="M208 325c-6 5-12 9-17 10-16 5-29 9-46 13 15 6 19 0 27 5 6 4 2 7 0 8-5 3-10 2-13 3 2 2 6 0 9 1l3-1h1l1-2c2-1 4-5 7-6-1-5-1-8-2-10 6-5 18-12 18-8 4-3 6-8 9-12"/><path fill="#3C4737" d="M220 372c-6 0-9 3-14 2-11 10-21 14-33 19 8-3 26-7 38-9 4 5-1 3 13 2 11-10 3-1-3-5 1-2 5-4 1-9"/><path fill="#4C662E" d="M171 218c-4 9-6 3-3 11 1-3 5-2 6-2 16 14 24 33 43 46-1-7-8-18-15-24-7-12-17-19-27-23-2-3-3-4-4-5"/><path fill="#192816" d="M235 285c3 7-4 6-3 7 15 8 40 31 39 40 3-7-1-10 1-16-14-9-21-25-35-29"/><path fill="#A0A18B" d="M196 340c-8 9-15 18-25 25-6 2-10 2-14 2 3 0 3 4 4 5 12 1 19-7 29-11 6-6 11-12 6-18"/><path fill="#AEBB96" d="M134 317c-8 2-15 5-21 8-2 3 3 12-4 10 7 0 9 0 19 2 3-3 7-6 8-11-2-3-1-5-3-7"/><path fill="#D8DFC7" d="M181 284c-4 8-13 13-19 18-5 1-7 6-13 6-2-9-10 1-15 2 0 4 1 7 2 10 4 0 7 0 10-2 2-6 2-6 1-9 8 10 19-10 18-3 11-10 9-9 20-22"/><path fill="#7C7B61" d="M213 300c-7 4-10 1-12 5 2 2 3 4 2 8-3-1-1-5-5-7-6 1-9 3-12 4 1 1 3 2 4 4-2 5-7 3-7 8 5 0 9-4 15-3 1 1 2 3 1 4 5-3 2-5 1-8 5 0 2 2 4 2 3-5 21-7 9-16"/><path fill="#B6D477" d="M434 137c-8 1-16 2-23 4-11 8-25 5-33 14 16-9 55-5 62-16"/><path fill="#2D3226" d="M270 339c-3 5-11 19-19 26 3 0 7 1 9 2-6 8-15 10-18 14 10-5 23-14 30-22 5 3 3 8 4 11 1-5-1-9 0-14-4 3-7 6-10 8 13-13 6-18 7-26"/><path fill="#CDCDB6" d="M216 320c-6 3-10 9-13 14 3 0 2 8 7 9 7-4 10-9 14-14 2-6-4-7-6-9"/><path fill="#21291A" d="M376 301c-13 8-21 15-31 24 14 6 21 0 38-7-7 1-14 0-23 4 7-7 21-21 17-19"/><path fill="#263C24" d="M319 287c-11-1-2 19 9 21 0 5-3 6-4 9 3-2 4-5 5-8 6 2 11-4 13 4-11-14-9-16-19-25"/><path fill="#AECB72" d="M363 162c-19 14-28 15-48 27 15-12 86-21 54-25"/><path fill="#63624D" d="M170 380c-2 8-12 3-25 13-7 8 3 28 3 31 4 0 4 3 5 4-2-10-10-25-8-31 9-4 18-6 27-5 16-13-1-7-4-11"/><path fill="#3C4D33" d="M106 344c6 1 9 16 12 6-1 13 10 12 5 20 2-1 5-1 6-3-2-4 0-8-1-10 1 5 5 6 9 7 0-1-2-7 1-9 6 1 11 5 16 7-7-4-12-10-18-13-11 3-17 0-20 1 1-5-4 0-8-5"/><path fill="#8A8C76" d="M420 160c-8 1-21 4-30 8-6 4-12 6-16 12 22-10 72-20 51-21"/><path fill="#787862" d="M163 393c-6 1-12 1-17 3 2 12 26 3 37 4 11-1 20-5 27-6-8 0-20 0-25 4-16 3-16-3-19-6"/><path fill="#777864" d="M426 161c11 2-30 10-42 17-7 2-4-1-4-2-1 5-7 5-9 6 4 2 7-2 11 0-32 21-62 37-93 57 29-16 56-35 85-50 21-14 52-22 62-27"/><path fill="#304B2D" d="M361 220c-11 3-16 11-5 20 5-1 9 2 13 0 3-5 4-10-2-12-3-3-3 3-7 1-5-17 10 0 2-8"/><path fill="#626551" d="M229 385c-3 1-8 3-11 8-3-2 0-3 0-4-20-1-33 7-49 8 17 3 28-8 46-4-4 7-25 24-15 22l-1 2 2-1c8-10 16-19 28-30"/><path fill="#CCD9B0" d="M387 236c-8 5 2-1 3 11 0-2 0-3 1-4 5-1 2 6 4 1-1 11 4 18 5 27-5-1-5-16-9-10 2 7 3 15 6 21 4-2 7-5 9-6-2-11-6-20-9-30-2-6-6-8-8-10"/><path fill="#CDDAB1" d="M413 300c-2 2-9 5-10 10 6 11 4 16 14 22-4-20 5-14-4-33"/><path fill="#243224" d="M422 185c-12-1-8 13-4 13 7 5 14 2 19-1-5-3-7-8-9-12-3-1-4-1-5-1"/><path fill="#ECEDDC" d="M472 160c5-3 11 3 12 7 4 6 5 11-2 13-6 0-8-5-9-9-2-4-2-6-2-9"/><path fill="#909372" d="M213 236c-2 11 14 20 17 31 2-6 7-2 10-3 6 0 5 4 6 5 2-1 3-3 5-4-3-4-9-7-19-7-6-7-12-14-17-20"/><path fill="#4B5642" d="M418 390c-7 5-17 12-24 18-5-1-6 1-11-4-12 0-27-1-20 5 8-4 22 1 29 6 12-3-3 1 1-6 7 0 23-16 29-17"/><path fill="#2A4129" d="M381 205c-6 3-12 6-17 11 4 4 8 5 13 4 11 0 14-8 5-13"/><path fill="#5C7345" d="M278 371c0 10 1 28 1 40v3l-1-3c-6 1-7 4-12 7 7 1 9 0 10-5 4 12 2-1 9 3-2-14-2-28-3-43"/><path fill="#CBCBB0" d="M195 321c-7 3-16 3-25 2 3 0 4 1 5 3-11 8-14-4-22 10 19-15 23 6 40-8 4 0 4-7 4-8"/><path fill="#B6BDA8" d="M134 367c-5 0 1 7 2 10 8 0 16-3 23-4-3-9-15-5-22-7"/><path fill="#3A4B2B" d="M433 270c-13 12-42 23-46 30 15-5 29-15 43-25 2 2 1 3 0 4 18-1 21 4 4-9"/><path fill="#191915" d="M526 145c3-2 8 0 11-1 13 5 28 9 36 18-13-5-25-12-39-14-15 7-20 4-8-2"/><path fill="#111609" d="M277 250c-10 7-23 16-30 29 4-3 8-4 11-7 2 3 4 12 4 12-1-6 0-10-1-14 5-5 10-11 16-7 1-4-1-7 0-12"/><path fill="#D8E4C1" d="M311 130c-29 3 0 8-1-2 19 9 42 23 62 25-9-9-43-15-58-23l-3-2h-1v1"/><path fill="#739748" d="M443 147c-8 2-16 2-24 3-19 2-33 8-50 10 24-2 56-11 77-9"/><path fill="#D7DEC7" d="M109 380c-4 1-7 4-11 6v9c11 3 30-10 10-13"/><path fill="#8B8B6F" d="M173 313c-16 4-19 17-32 16 8 2 3 9 9 7 3-3 9-8 15-12l2-1h1c21 0 17-7 1 1-1-5 3-7 4-9"/><path fill="#283A1F" d="M133 339c-7 7-46 0-10 10-6 2-7 6-4 8-1-3-1-8 4-8 7 5 6 11 7 16 2 1 3 0 5 1-6-3-8-15-10-18 10-1 12 2 14 0 3 2 7 7 17 16 0-6-4-7-15-16 2-1-10-8-7-9"/><path fill="#364C3F" d="M232 346c0 5 0 12 2 17 7-2 12-5 16-8-4-10-11-5-16-8"/><path fill="#A1AC7D" d="M188 193c1 4-2 2-3 4 9 11 22 41 28 43-5-16-19-31-24-44"/><path fill="#DCE3CF" d="M263 210c-8 2-16 5-23 9 5-1 11 1 16 0 2 6 1 9 3 11-1-6 1-7 3-12 3 0 1 3 2 5 16-7 0-10-1-13"/><path fill="#5C7542" d="M281 296c-9-8-2 23-4 43 9-14 1-30 4-45"/><path fill="#1A1E0E" d="M508 190c-1 10-6 18-13 26-5 2-8 2-10 3-8-4-18-5-20-11-1 1 3 2 1 4 6 8 11 9 17 9 2 12-2 1 5 10-1-3-2-8-2-11 4 1 10 3 16-4 4-9 4-17 6-24"/><path fill="#2B3F26" d="M368 228c8 3 2 8 2 12-6 0-13 3-17-1 3 6-3 1 0 11-1-3 9 6 16-4 5-5 10-13 1-16"/><path fill="#E1E3CE" d="M379 173c-14 8-31 11-44 18 9 3 20-4 28-6 7-3 10-7 14-10"/><path fill="#8D996B" d="M386 245c-18 12-25 24-35 42 11-14 28-26 33-40"/><path fill="#A7A588" d="M495 166c2 8 6 16 7 24 1 5-1 7-2 10-11-1-16-7-22-1-8-1-12-6-14-10-3 0-3 1-2 3 3 9 8 3 13 7l1 2 1-1c7 1 16 6 22 3 1 2 2 5-1 5 3 0 2-3 3-5 4-1 1-7 1-11l2-2v-1l-1-3c-3-7-6-16-5-18"/><path fill="#11170C" d="M238 320c-15 19-30 39-48 57 17-9 24-29 39-42 1 7 1 15 2 24-1-14 0-30 10-38"/><path fill="#202E1A" d="M133 338c1 3 4 6 7 8-3 5-3 0-3 1 9 7 12 5 18 11-1 1 4 9-2 6 5 1 5-3 14-1-5-19-21-3-32-26"/><path fill="#141E10" d="M256 333c2 8-9 25-2 23 4-2 8-7 11-12 2-9-9-2-9-10"/><path fill="#F7F8EB" d="M474 160c-5 6 1 14 4 18 4-1 7-4 8-5-3-6-5-12-9-13"/><path fill="#515343" d="M254 369c-6 2-13 1-18 6-15 12-2 12-29 33 15-15 32-31 50-39"/><path fill="#666A55" d="M272 294c-21 1-6 16-5 17 5-8 5-8 6-18"/><path fill="#78885E" d="M114 281c-8 16-14 33-22 49 10-12 11-17 19-32-1-7 0-10 2-15"/><path fill="#2A3920" d="M287 434c1 2 0 4 1 6-13-12-14 6-9 12 2 3 5 2 7 3-2-3 1-9-1-13 6 7 1-5 3-6"/><path fill="#304A2A" d="M346 230c-2 3-6 5-7 9 2 8 5 9 10 11 4-10-3-15-3-19"/><path d="M274 375c-5 7-4 21-1 29 6-5 2-19 4-28"/><path fill="#787E5D" d="M413 331c3 17 10 32 4 47 9 4 4-23 3-35 0-6-1-11-6-9"/><path fill="#918F76" d="M520 175c-1 9 1 20 3 29 7-10 2-21 0-28"/><path fill="#3C4233" d="M251 366c-3 1-5 3-8 4 5-1 9-2 13-3-11 11-24 16-34 29 25-12 24-17 33-25 4-5-1-2-2-6"/><path fill="#EEF1E3" d="M210 241c-4 1-5 5-2 7 3 7 7 12 12 14 3-7-7-13-8-19"/><path fill="#F0F3E9" d="M183 260c-8 0-12 14-24 17 10-2 30-11 27-17"/><path fill="#9DA58C" d="M123 386c-8 7-11 15-19 15 2 0 4 0 5 3h-9c-2-6-2-6 0-1 3 2 5 2 8 1 5 1 9-1 12 1 6-10-8-8 7-16"/><path fill="#6B8545" d="M422 271c-7 0-13 7-16 9-1 4-8 7-10 11 6-5 48-26 26-17"/><path fill="#304334" d="M273 360c-3 3-8 7-13 12 5 6 11 2 16 0-3-3-1-8-2-11"/><path fill="#B9B99E" d="M169 331c-1 1-3 0-4 1-8 3-12 4-16 8 6-1 36-3 22-10"/><path fill="#7A775F" d="M463 196c0 4 4 10 5 12 12 9 7 1 19 1-6-7-17-1-22-12"/><path fill="#22371F" d="M327 228c-7 4-15 8-22 12 2 6-1 10-2 12 8-9 19-16 23-21"/><path fill="#656A43" d="M311 370c-1 15-11 27-23 33 8-3 15-4 18-6 3-10 5-17 7-27"/><path fill="#1E2E17" d="M268 263c-1 3-4 3-6 5 1 6 1 9 2 12 1-5 23-17 6-16"/><path fill="#1E2C1C" d="m465 449 2-1c-2 4 2 2 3 3-21 4 1 2-5 8 15-1 15 2 23-4-13 1-10-6-22-7"/><path fill="#737662" d="M312 254c-2 6-5 2-7 7-4 4 2 5 1 11 5-5 13-12 8-17"/><path fill="#898E75" d="M102 356c-8 1-6 1-8 9 10-6 13 8 21 4 0-6-14-4-9-13h-2"/><path fill="#1F2B10" d="M179 299c-5 4-9 9-13 14 17-8 34-5 10-12"/><path fill="#61604D" d="M162 375c-7 1-14 2-22 4 1 0 5-1 5 2-1 4-6 6-8 4 9-3 27-3 28-11"/><path fill="#78825E" d="M91 339c-3 6-4 23 0 26 1-7 5-20 1-24"/><path fill="#6B8746" d="M288 266c-10 10-6 37-5 55-1-28 4-37 4-52"/><path fill="#73725C" d="M225 312c-3 2-5 3-7 6 3 2 10 4 9 9 2-3 4-5 5-8-1-3-4-4-6-5"/><path fill="#62844F" d="M89 326c-5 2-15 9-17 15 4 0 8 0 12-2 0-6 3-10 5-12"/><path fill="#597644" d="M67 375c-4 5 15 12 19 13-1-3-6-8-12-12l-2-1-1 1v-1"/><path fill="#4F6431" d="M165 219c-2 2-6-1-8 4 2 6-6 12-8 19 2 0 14-11 15-21"/><path fill="#1E281B" d="M230 353c-1 5 0 9 2 12-18 5-16 8 0 2 7-2 13-6 18-10-3 8-12 11-18 16 8-1 16-6 22-13-4-1 2-4-2-4-6 1-11 9-17 8-3-13-4 1-6-9"/><path fill="#213216" d="M172 236c12 13 20 29 31 42-5-13-12-23-29-41"/><path fill="#263425" d="M410 190c-6 2-8 7-4 12 5 0 9 1 10 1-2-4-4-8-5-12"/><path fill="#2C3728" d="M252 358c-15 5-16 14-29 15 2 2 2 6-3 7 3 0 6-2 5 3 12-10 4-12 28-25"/><path fill="#263924" d="M459 446c-3 0-8 5-3 9 2 5 7 4 9 2 0-3-5 0-6-3 6-1 11-1 6-6-3 4 1-4-3-1"/><path fill="#B6BD9C" d="M90 366c-1 9 0 19-2 28-3 4-12 2-17 3-12-4 5-3 7-6-6 1-11 0-17-1-1 1 7 3 3 5 1 0 3 0 5 1 19 7 15 3 23 2v3l2-3c-6-4-4-19-4-30"/><path fill="#EDEEE1" d="M179 287c-10 7-19 13-31 15 2 2-1 4 1 4 8-2 17-8 29-18"/><path fill="#354D35" d="M508 453c-12 5-7 3-23 4 9 1 18 5 25 4 11-10 5-1-3-6"/><path fill="#394F2A" d="M281 458c-4 12-25 22-27 24 24-9 19-8 28-18-2 1-5 3-1-5"/><path fill="#1E2B17" d="M258 271c-2 4-6 5-7 9-4 5 3 4 1 7 4-2 8-3 10-3-9-2 1-3-3-10"/><path fill="#4D683B" d="M458 201c3 5-3 12 4 19 4 3 7 9 11 12 5-2-6-7-7-11 3-3 10 2 15 4 1 1 0 2-1 3l3-3c-6 0-16-9-16-8-6-6-7-10-9-15"/><path fill="#404B37" d="M150 439c5 8 1 13 2 21 4 8 11 6 14 4-1-3-4 1-7-1-3-9-5-15-8-21"/><path fill="#92917D" d="M200 359c-8 2-14 0-26 22 9-6 17-14 26-22"/><path fill="#CCD6B9" d="M148 307c1 6 0 8-4 13-4 1-8 4-9-2 1 2 1 4 2 6 4-4 35-9 10-15"/><path fill="#2A3D27" d="M139 355c-1 2-3 6-1 9 6 1 9 0 13 0-2-3-6-6-10-9"/><path fill="#797F66" d="M107 355c-5 10 9 7 9 15-3-4-14 3-11 4 4-10 11 1 17-5-5-5-9-9-13-12"/><path fill="#637F46" d="M200 288c-2 1-4 1-6 2 1 4 3 5 3 9 4-1 6-1 8-2 0-5-2-7-3-10"/><path fill="#777D62" d="M102 343c-14 5 6 5 12 16-1-6-4-11-7-15h-3"/><path fill="#D0E3AD" d="M470 144c5 0 11 2 14 6-7 3-14 0-16-4"/><path fill="#9BB275" d="M175 283c-8 3-14 3-17 11 3 5 19-10 18-10"/><path fill="#929176" d="M462 194c10 10 17 4 26 15 10-4 8 7 14-8-10 8-29-4-38-4"/><path fill="#E4E8D6" d="M266 211c2-1 3 4 6 5-1 4-5 6-7 9-3-5-2-8-1-11"/><path fill="#DCE2CB" d="M185 261c7 4-14 12-11 13 7 8 12 1 19 1 1-3-1-4 0-6-7 5-11 10-18 8 0-7 19-8 12-15"/><path fill="#433F31" d="M236 317c-3 9-30 30-26 35 8-9 20-22 27-33"/><path fill="#A3A489" d="M95 364c1 3 0 7 2 9 4 1 7-1 9-3-1-4-6-7-8-5"/><path fill="#365025" d="M195 278c-4 1-7 3-6 9 8 3 17-2 6-10"/><path fill="#C9D8BA" d="M117 375c-3 0-6 3-8 4 1 4 13 5 9 11 1-2 2-3 4-4-2-5-3-8-5-10"/><path fill="#4C5541" d="M212 384c-14 3-30 8-40 11 10-5 41-4 42-10"/><path fill="#E2E1C9" d="M181 312c-5 0-8 4-10 8 5-1 25-4 11-8"/><path fill="#1F2B1C" d="M461 433c-6 1-7 7-10 10 0 4 2 4 2 6-6-3 13-9 10-8 1 0-2 0-3-1 3-3 0-7 2-8"/><path fill="#717E64" d="M338 413c2 4-3 1-3 2-6 3 1 4-6 8 4 5 28-10 10-9"/><path fill="#7B7A65" d="M200 327c-14 9-34 11-50 17 16-4 48-10 53-19"/><path fill="#739445" d="M458 137c10 4 24 4 31 15-2 3-4 3-5 4 3 0 5 2 9 3-1-2-1-4-2-6-2-6-10-8-13-12-7-2-12-4-17-5"/><path fill="#314F2B" d="M319 243c-4 0-11 4-18 14 6-4 17-6 17-14"/><path fill="#13190D" d="M452 157c6 4-1 3 5 10 5-3 6-2 9-8-3 1-8-1-12-2"/><path fill="#141F0F" d="M293 257c-6 7 1 16-2 24 2-5 6-3 8 2-2-9-9-16-6-23"/><path fill="#5B674E" d="M357 406c-7 1-11 5-20 8 7 0 34-5 23-8"/><path fill="#B3B29C" d="M200 335c-3 9 6 8 4 17 2-2 4-4 6-5l1-3 1-1h2l-1-1-1 1v2l-2-1c-6-1-5-9-8-7"/><path fill="#11190B" d="M432 156c-2 2-6 0-8 1-19 0-34 3-49 7 16-1 29-9 47-6 22-1 42 5 9-5"/><path fill="#97A98D" d="M123 372c-2 0-3 1-4 2 2 3 2 7 4 10 8-3 3-8 2-13"/><path fill="#28382A" d="M295 327c2 12-10 20-7 33 2-9 11-20 9-31"/><path fill="#696D50" d="M94 357c-2 9-5 30 2 28 1 0 3-1 4-3 1-4-2 3-5 0 1-9-3-16-1-24"/><path fill="#212B1C" d="M367 221c-4 3 5 8 7 11 5-2 1-4 4-7-3-1-5-2-6-1 1-3 2-3 4-2-2-1-3-1-4 0h-3l-1 1v-1"/><path fill="#233120" d="M240 324c6-1 11 5 17 6-7 5-11-1-15-3"/><path fill="#CED5BC" d="M112 325c-7 3-18 6-14 14 1-4 10-7 14-12"/><path fill="#A1AB7C" d="M386 242c0 1-2 1-3 2-3 2 0 5-3 5 1-1 3-1 3-2 1 2 1 5 0 8 1 2 4 2 7 3 7-5-4-6-5-12l-1-1 1-1"/><path fill="#A2A78C" d="M178 296c-23 24-11 5-30 31 12-8 18-20 29-28"/><path fill="#536F42" d="M461 210c6 6 4 11 13 18 4 3 6 0 7-2-4-1-9-5-13-6 0-3-4-6-5-9"/><path fill="#678A3D" d="M448 148c3 7 18 7 23 5-7-2-14-4-21-5"/><path fill="#F2F4E8" d="M106 315c-1 2-5 7-5 11 2 0 5-2 9-1-4-6 3-9-3-10"/><path fill="#314736" d="M223 344c0 2-4 2-4 4 5 4 11 4 8 12 3-6-2-11 2-14-1-2-3-1-4-2"/><path fill="#777C64" d="M133 391c-4 14-8 10-10 9 4 4 22 8 10-6"/><path fill="#2A391E" d="M395 289c-6 3-21 11-19 15 5-1 13-10 19-13"/><path fill="#5B7741" d="M189 288c-5 7 3 9 7 11 5 1 8 0 10-2 0-2-4 4-7 2-1-4-11-8-3-11-1 2-5 2-6 1"/><path fill="#577644" d="M457 179c-8 6-2 19 0 27 0-8-2-17-1-25"/><path fill="#384A23" d="M493 150c0 3-2 4 2 8 4-6 12 6 13 7 0-7-9-11-13-14"/><path fill="#B0C88A" d="M283 340c-2 4-5 9-3 15 8 1 4-9 3-13"/><path fill="#1E2C18" d="M305 239c-2 4-5 4-8 6 0 5 2 6 3 9 7-2 1-15 7-13"/><path fill="#F2F4EE" d="M452 135c-27 0 27-4 29 7 14 6 25 13 31 23-4-12-17-17-26-23-12-5-20-10-32-8"/><path fill="#84A670" d="M130 312c-3 2-12 2-13 5 3 3 15-1 15-3"/><path fill="#9DA487" d="M139 326c-2 3-2 4-10 12-11 1-19-3-25 2 8-2 15 1 23 0 6-5 11-10 12-14"/><path fill="#CBD4B5" d="M525 169c3 8 3 17 4 26 2-14 2-19-2-24"/><path fill="#838368" d="M145 330c-21 1-1 13 5 7-4 4-6-2-6-7"/><path fill="#6B904B" d="M161 284c-5 1-8 5-12 7 7 4 10-1 12-6"/><path fill="#202C19" d="M276 438c-3 6 0 11 1 17 10 8 1 5 12 6 2 5-2 7-3 9 2-2 4-3 3-7-3-8 0-13 1-19-7-8-2 10-3 12-5 0-7-2-10-4-1-5-3-9-1-11"/><path fill="#797D4C" d="M266 392c0 6-7 17-2 22-5-9 8-14 4-21"/><path fill="#1F281C" d="M209 360c-8 15-21 16-27 23 9 3 12-12 22-11 1-4 1-7 4-9"/><path fill="#EBEEDE" d="M189 266c-4 4-10 6-14 10 7 2 12-4 16-8"/><path fill="#747F65" d="M130 382c-11 1 3 14-10 13 6-3 8 1 10-2 0-4 2-7-1-10"/><path fill="#3B4D2B" d="M288 267c0 17-1 32-2 50 2-22 5-34 3-46"/><path fill="#4F6934" d="M280 273c-3 7-3 17-2 25 3-6 2-15 2-24"/><path fill="#D1E79D" d="M440 145c-22 1-44 6-65 11 22-5 48-9 68-11"/><path fill="#293B1F" d="M278 456c6 1 2 7 1 10-4 9-12 9-15 16 10-7 9-2 13-14 17 5 8-9 3-10"/><path fill="#1B2615" d="M166 352c0 5 2 7 5 10 0-3 5-2 3-6-2-1-4-4-5-4"/><path fill="#273923" d="M307 286c3 19 12 39 2 40 8-11 3-26-1-37"/><path fill="#20281C" d="M430 168c4-1-4 9 0 13-2-1-8-8-2-13"/><path fill="#BAC798" d="M387 241c-2 5 0 7 3 10l2 2v-4l2 1 1-1 1 1c-5 8 1 14 3 20-1-6-5-13-4-19v-4h1c-2 0-3 1-4 2-3-1-2-4-5-5"/><path fill="#89937F" d="M136 335c-2 4 8 10 12 11 0-6-5-4-10-11"/><path fill="#ACB49A" d="M115 391c-4 5-9 7-16 6 0 3 2 4 2 5 10 2-5-1 18-9"/><path fill="#4C6036" d="M282 415c-6 11-3 12 3 13-1-3 1-8-2-11"/><path fill="#2A381E" d="M357 254c-1 10-7 20-14 25 9-5 16-13 16-25"/><path fill="#71705C" d="M198 412c-4 6-6 11-12 17 3-9 13-5 13-15"/><path fill="#486035" d="M281 466c-1 2-6 5-4 8 6 1 9-4 7-7"/><path fill="#ECEFE3" d="M71 339c-15 13 7 7 12 4-4-2-11 5-14 0"/><path fill="#9CA698" d="M493 209c-4 2-9 2-13 3 6 5 15 0 15-4"/><path fill="#9DA189" d="M82 360c-2 3-5 1-10 3 5-1 5 3 8 5-2-7 17-1 3-10"/><path fill="#10100D" d="M393 102c9-1 8 5 14 4-4 5-7-1-11-2"/><path fill="#688650" d="M63 381c1 2 16 7 21 9-6 0-10-9-17-10"/><path fill="#B1B197" d="M85 365c-9-1-2 8 2 8v-7"/><path fill="#8D9075" d="M68 362c4 8 4 3 15 12-3-5-7-12-13-10"/><path fill="#636D52" d="M420 375c-2 4-2 9-1 14 1 1 2 4 4 1-1 0-1-11-3-13"/><path fill="#2A3927" d="M383 203c4 3 8 7 13 8-3-5-5-9-11-9"/><path fill="#A3A68E" d="M258 256c-2 4-12 1-10 8 4-3 13-6 13-8"/><path fill="#445E32" d="M355 256c-2 11-12 21-21 25 12-7 20-14 22-26"/><path fill="#465E33" d="M444 281c-3 0-6 3-8 4 1 2 2 3 1 6 6 10 5 20 8 29-1-10-4-19-5-28-2-6 1-11 6-12"/><path fill="#F1F2E6" d="M378 173c-15 5-29 10-44 15 14-4 28-8 41-14"/><path fill="#4F6A3B" d="M187 292c-1 5 0 8 2 11 4 0 6 0 8-2-3-3-7-3-11-6"/><path fill="#A4A38E" d="M199 342c1 2 3 4 4 6-3 7-13 15-11 15 1-1 8-4 10-9l2-2 1-1h2l-1-1-1 1v2l-2-1c1-2 0-7-2-9"/><path fill="#5A743B" d="M158 220c-8 2-7 9-6 14 6-6 1-14 7-13"/><path fill="#162413" d="M299 305c3 3 2 12 3 18-2-5-4-10-4-15"/><path fill="#F3F4EC" d="M144 301c-4 2-10 4-13 8 5-2 11-3 15-6"/><path fill="#141B0C" d="M333 237c2 5 3 13 10 15 9-1 19 7 21 0-6 3-15 0-22-3-6-3-7-7-8-11"/><path fill="#BCCF95" d="M140 125c-2 5-10 6-7 9-6 0-14 5-18 5 5 2 11-2 15-4 4-3 9-5 11-7"/><path fill="#ECEFE6" d="M287 240c-11 10-10 15 1 1 4 6 6 9 8 13-1-4-3-8-6-11"/><path fill="#0F0E0A" d="M411 112c9 6 18 15 27 25-7-8-16-21-26-24"/><path fill="#B8C69A" d="M268 378c-4 1-1 6-4 8 8 1 5-5 6-8"/><path fill="#3A542C" d="M214 264c10 11-8 3 2 10 4 4 3 3 8 9-2-4-3-7-5-10 3-2 5 2 8 3-4-3-7-6-11-10"/><path fill="#71874D" d="M165 213c-4 2 2 6 1 9 4 0 5-6 2-8"/><path fill="#8A8D73" d="M102 374c-2 1-7 0-5 7 3-2 11-4 7-7"/><path fill="#263A21" d="M322 238c-1 10-19 21-21 22 6-4 8-8 15-7 2-5 5-7 6-13"/><path fill="#18220C" d="M186 290c-3 3-6 9-8 10 4 8 4-5 9 4-4-4-3-10-3-12"/><path fill="#253421" d="M193 339c-4 1-8 4-11 6-2 3-2 6 0 7-3-4 7-9 10-13"/></svg>