<svg xmlns="http://www.w3.org/2000/svg" width="600" height="600"><path fill="#5E5957" d="m375 122 1 1c13 14 24 33 32 51 8-7 2-21 1-40 12 11 16 27 24 39 6-8 0-23 3-34 7 16 11 31 18 44 2-6 2-14 7-19 2 22 14 32 11 53 7 8 5-4 9-4 1 16 9 26 6 40 8 8 14 13 19 21 2 8 4 14 5 20 13 3 37 18 20 36-9 10-19 6-31 6-2 8-1 17-9 19-17 4-32 6-48 8 2 4-1 8 2 10-5 3-7 1-9 0-1 7-2 13-3 18-3-2-6-5-7-9-1 6-3 10-4 15-5 3-4-2-5-3-5 7-6 15-6 23-7-4-9-15-10-17-3 6-5 11-7 17-4-2-4-6-5-7-4 11-9 21-11 31 3 12 15 4 21 9 8 5 7 14 13 16-31 1-63 3-94 1 3-2 10-1 16-2-4-14-3-31-9-46-20 8-39 16-58 23-2 14 15 9 14 21-1 4 2 8 0 11-16 4-56-2-84-4-7-4 4-2 6-3l3 1 1-2c-1-1-2-2-2-4 1 1-1 2 1 4 0-2-24 5-37-2-9-6-2-16-5-25-4 0-7 0-10 1-3-2-2-3 0-4-9 3-19 10-29 12 5-10 11-18 17-26-14 4-26 10-39 15-2-5 2-7 3-11-4 1-9 2-13 4 5-8 14-15 22-21-8-3-17-1-25 0 2-7 9-9 14-14-46 9-2-13-34-3 3-6 9-9 14-13-7-2-15-1-21-4 12-4 27 0 37-6-6 0-13-2-19 0-2-4 6-6 8-9-9-5-21-8-28-12 15-1 27 0 38 1 6-3 9-5 12-7-4-3-8-4-11-7-10 3-17 5-24 7 1-5 6-7 10-11-7 3-14 4-22 7 15-14 33-25 51-34-5-14-38-17-37-29 6-1 16 2 25 5 12-1 21-3 31-4-9-6-25-8-36-10 7-6 17-8 27-11-7-9-16-13-24-19 12 1 21 4 31 7-8-7-16-12-25-18 12 3 22 7 32 12-9-7-17-14-25-20 22 7 2-9 38 11 8-2 18-2 28-2-7-3-16-4-24-7 1-5 9-5 10-7-14-7-25-12-37-16 21-1 41 2 59 7-6-6-11-13-17-17 10-1 19 2 28 5 0-2-2-4-3-5 7 1-5-7 5-5-9-7-19-11-29-16 11 0 20 3 30 5-6-5-14-8-20-13 22 3 39 10 56 19l3 1-3-2c-2-5-14-11-15-16 17 6 29 12 40 22-14-15-30-28-47-38 12-1 27 3 40 8-5-9-13-15-18-22 18 6 32 15 44 26-7-10-15-21-24-29 25 9 42 21 63 35-6-11-10-22-16-33 14 9 29 26 41 29-5-8-10-15-16-22 13 6 25 11 34 22-6-8-9-14-14-21 8 4 17 8 24 14 5-3 3-15 0-26"/><path fill="#19141D" d="M327 309c-17 5-36 7-58 10-9 0-1-4 0-4-12 3-24 5-36 11-35 20-58 32-83 50 4-7 10-16 16-23-2 1-4 4-6 1 9-6 18-9 29-23-29 12 4 5-32 22 7 8-17 20-23 30 1 4-3 11-5 16 2 5 1-1 7 2-1 8 5 17 6 16-6 5-13 7-19 10 14-3 24-11 32-24 5 10-3 17-1 25 2 4 5 3 6 4 2-4 2-8 5-10 7 9 3-4 9 1-1 4-3 4-5 5 3 11 1 26 1 35 15 9 35-2 32 2 7-3 0 0 1-7 8-2 4 2 7-4 2 7 3 8 1 14 3 0 4 0 6 1-3-6-4-12-5-18-3-1-6 1-8-4-1-6 3-9 6-10-1-4 1-19-4-17 2-3 3-6 5-6 2 4 6 9 8 12 7 5 9 3 13-3 2 6-1 12 0 15 9 3 13 7 18 4 3 9-5 8 0 15 2 2 6-1 8 3 5 4 5 8 4 13 3 0 8 2 6-2 0-8-8-10-8-14 12 0 13 9 15 17 0-20-11-15-19-28 32-26 66-31 99-54-1 3-6 5-8 10 1 1 3 1 5 1-7 7-14 9-21 12 5 15 4 34 12 47 9 9 25 2 37 5 9-1 2-8 0-9 1-7 6-2 7-3-6-4-12-1-16-9-6-12-5-20-6-31 3-4 4-6 6-7 4 2 4 4 6 4 6-9 11-22 21-30-1 7-7 16-13 23 16-9 44-57 21-31-3-2-5-6-4-10-25 24-4-12-31 15 3-7 4-12 8-17-10 8-19 15-28 19 2-6 9-14 14-21-17 6-23 24-42 23 13-9 29-21 37-35-18 6-57 35-86 55 3-10 9-20 17-29 11-3 19-5 27-7 7-5 13-11 18-18-2 0-3 1-5 4-2-4 1-9 2-10h3-3c-12 3-26 5-38 10 16-10 30-22 45-30h3-2c-13 8-21 8-33 13-23 20-21 33-69 74 1-6 3-9 4-12-5 2-7 5-11 7 6-22 23-23 29-40-8-7-20 6-30 0-5 4-8 8-11 11 4-1 9 6 15 5-18 8-35 11-51 18 5-10 13-22 23-32-25 7-41 13-66 20 2-3 5-5 8-7 24-17 48-33 72-42 6-2 10-1 13-3 1 5 10 4 2 9 13-8 24-15 27-16 12-6 15-4 25-2 14-10 28-12 41-17"/><path fill="#332C33" d="M211 279c2 0 4 2 7 1-3 4-6 4-9 5 4 4 0 7 6 7-33 7-17 9-51 17-8 11-21 16-31 25-1-6 6-13 10-20-9 2-16 9-24 14 3 1 2 5 3 8 6-1 10-1 13 5-5 9-21 15-30 23 5 0 9-8 15-8 7 3 4 6 6 9-15 10-14 15-27 21 2 1 13 2 7 7 4-2 7-6 9-6-3 5-8 8-10 13 3 6 11 6 14 7-2 4-7 5-9 7 4-2 9-8 12-1 4 5 4 8 2 13 6-3 11-5 17-7-7 1-2-23-13-18 5-14 2-18 15-28-8 8-15 16-22 23 0-6-3-8-3-14 16-27 25-5 45-28-1 8-12 17-14 26 5-11 9-5 7-12 12-7 26-12 33-20 4-3 9-2 6 2 23-19 51-36 69-53-10 6-20 7-29 12-31 20-44 36-56 38-6 0-1-2-1-3h-3c5-7 16-14 24-22-2 1-6 0-8 2 13-18 29-30 46-39 3 4 9 2 14 7 36-16-25-5-37-13"/><path fill="#342A30" d="M416 258c-16 4-33 9-7 13 1 6-4 2-8 4 6-1 10 1 15 4-1 7 1 9 3 15 5 6 10 11 13 14 14 0 17-3 33-3 4-6 9-5 10-11 9 3 22-4 30-1 0-3 1-7 0-9-4 1-10 1-12-2-4 4-13-5-21 3-8-11-19-14-26-22-8-3-14-4-19-6-4 2-5-2-8 0"/><path fill="#FAF9F2" d="M320 198c17 11 34 20 50 34-15-9-34-14-53-18 19 9 37 19 55 30-17-3-34-7-53-7 12 5 26 11 41 15-4 2-8 2-12 2 1 4 1 6 2 9-17-2-77-3-25 4 15 0 30-2 46-5 0-3 13-7 19-7-5-3-11-2-16-5 9-2 13 0 20-1-3-2-7-6-9-8 5 0 12 4 14 1-6-9-12-18-20-21-21-11-45-25-54-21"/><path fill="#483D3F" d="M114 316c-18 2-18 25-38 24 11-2 23-6 34-10 5 4-4 3-4 8 3 2 7 3 10-1-8 12-19 21-28 27 3 5 13 0 18 2-9 8-24 17-35 25 6-5 11-4 18-3 8 0 4 7 15 5 8-4-4-4-6-6 14-4 9-14 28-16-2-5-1-10-3-13-9-1-12 7-17 7 8-10 24-16 29-22-8-11-10 1-13-6-2-3-1-9-4-9 0-3 4-3 4-4-4 0-3-6-9-6"/><path fill="#765245" d="m445 333 1 1c-5 4-5 2-7 11-4-6-8 7-15-3-5 11-1 15-6 23 2 2 5 1 8-1 4 2 2 7 3 10-4 2-1 5-3 5-10-8-7 9-15 9-4 8-1 19-3 27 0-33 16-7 15-35 5 2 6 7 8 11-1-8-2-16 1-24 0 5 5 6 9 7 0-4-3-7-2-12 16 3 65-14 15-9-1-8-8-12-8-20"/><path fill="#5C5D5C" d="M235 149c7 11 25 20 34 35-10-4-21-16-34-14 5 1 7 5 12 10 9 2 15 2 22 7 4 1 11 6 5 10 5-1 10 1 15 3 5 5 8 9 10 14 11 3 16 2 22 5 1-2-6-4-10-6 9-2 18 2 19 1 8 5 11 3 16 6-15-11-24-19-40-29-2 1 6 17 2 19-22-38-41-22-62-59-2 1-4-2-7-2"/><path fill="#73807B" d="M241 131c11 8 20 29 39 31-11 0-21-8-32-9 10 6 10 22 23 25-1-5 12-3 16-1 2-4-2-3-3-6 7-1 8 0 11 3-2-2-6-4-7-6 9 4-3-5 1-9 7 0 10-2 13-2 6 2 8 5 12 6 0-2 3-4-3-8-18-17 2 12-34-21 5 8 4 18 9 23-21-12-21-14-43-28"/><path fill="#FBFAEA" d="M421 182c-1 7 2 13 0 20-6-4-6-10-10-14-24-4-10 17-9 29 6 7 11 2 17 12-1-7-5-13-7-18 7 5 11 11 16 17-1-3 2-7-1-9 4-2 4 1 5 2 2-5 2-12 4-17 0-6-1-12-3-17-6-4-8 1-13-2"/><path fill="#484245" d="M399 270c-7 9-8 5 7 5-3 1-1 7-12 5 0 15 13-4 10 9-25 4 3 2-20 10 7-2 12-6 16-5 0 4 1 8 8 6-2 6-7 7-9 9 7-5 9-3 15 0-7 6 10 5-6 11 8 2 7-6 11-8 0 5 3 14-2 11 5 1 3-1 8-5 4 2 0 5 2 8 0-3 1-5 2-7 12-2 20 1 19 7-3-5 9-4 12-5-4-1-4-2-4-7 2-6 7-6 10-8-22 1-14 5-33 3-5-3-10-9-14-14-1-8-6-18-11-22-2-2-5-3-10-3"/><path fill="#242A35" d="M210 414c-3 7 4 14 2 21 0-7 2 2 6 2 7 7 16 11 14 17-5 3-12 5-14 8-4-4-4-8-3-13-4 3 0 15 4 20 13 6 30 0 37 3-4-4-7-12-8-19 4-4 1-6 5-9-3 2-8 0-14-3-11-2-6-10-7-15-3 0-3 2-4 5-10 0-12-10-17-16"/><path fill="#EDDEC5" d="M436 141c9 20 9 51 11 67 0 4 1 5 0 6-3-3-5-8-8-6-4-17 2-29 0-45-1 25-2 48-7 64 3-3 3-6 4-8 7 8 14 11 20 11 2 0 2-3 5-4 1 4 2 6 3 8 8-8 13-3 17-20-2 3-1 8-5 8-6-5-6-10-5-16-9 4-4 12-6 20-1-7-1-12-1-17 5-14-1-26-1-39-10 16 6 17 0 38-4-1-10-4-8-10 0 4 0 8-3 10-6-24-6-47-15-66"/><path fill="#443E40" d="M209 278c-20 17-54 15-74 38 14-9 5 5 10-2 2 2 0 6 4 6-11 14-13-3-17 13 5-4 11-8 17-12 7-4 13-7 15-13 42-10 12-7 51-16-8 0-3-4-7-5 3-4 6-4 9-5-3 0-5-1-8-2 46 7 48-1-2-2l3 1h-1"/><path fill="#494041" d="M222 226c-2 5-10 3-14 4 2-1 8-1 3 3-6 1-10 0-14-2 6 3-3 10-5 12-17 1-30 3-43 6 11 0 20-2 29-2 0 15-17 9-23 19 3-1 4 4 9 2 9-5 22-15 32-21 22 0 81-19 26-22"/><path fill="#76574A" d="M151 262c-17 2-32 1-48 2 9 5 31 7 45 7-16 7-28 8-40 10-10 1-18-2-25-5 3 5 8 4 14 6-4 2 2 7-15 2 7 3 12 4 15 2 4 3 24 15 23 17 1-5 13-3 11-9-9-3-19-5-30-5 14-3 40-9 55-14 1-11 19-2-3-8-1-3 2-3 3-4-1-1-3-2-4-1"/><path fill="#503A36" d="M159 281c-19 1-42 4-55 8 10-1 19 1 29 3-7 11-21 15-30 19 0 1-1 5 0 6 12-7 26-11 39-13 15-11 31-20 18-24"/><path fill="#5E5A59" d="M115 216c12 9 18 13 27 22-9-4-19-7-28-12h-2 2c8 5 16 11 24 18-31-12-36-7-2 11 27-10 11-22 45-25-8 3-24-5-22 3-20-12-29-14-40-15"/><path fill="#484447" d="M197 302c17 8-31 23-20 27-1-5-1-5-4-2-11 9-24 28-28 30-2 4-2 0-3 2 1-5 3-7 4-10-4 3-7 7-12 8 3-10 7-15 15-26 1 7 11-1 8 6 10-13 23-25 36-33"/><path fill="#727D7B" d="M212 201c-2 2-5-1-7 1 18 8 34 17 55 16-113-4-32 12 33 3-16-4-26-2-36-6 6-4 21-1 25-1-23-3-33-5-39-1-6-1-7-3-6-4 3-1 6-2 8-1-5-1-12-4-11-7-9-1-15-1-21-1"/><path fill="#4D5E63" d="M225 295c-6 3-10 7-16 10-22 19 1 13-33 41 9-5 36-23 54-34-2-3-17 5-14-1 27-14 37-20 3-14"/><path fill="#2B272F" d="M248 268c2 1 22 12 30 16 1 5-1 4 0 9 15-2 24-9 37-14-21-4-37-11-63-11"/><path fill="#998E80" d="M357 320c-9 4-14 4-13 14 9 0 16-3 21-2 1 7 6 3 8 9-6 7-10 14-16 20 6-8 9-6 19-12 8-2 11 2 17 0 12-19-2-7 6-18-9 2-10 6-15 7-15-4-11-10-26-17"/><path fill="#5E5F5A" d="M299 159c-12-2-12 8-6 12-2 2-4 0-8 1 2 0 4 3 3 4 6 1 9 6 10 0 14 7 18 16 32 19-10-16 3-24-11-34-5-2-2-3-4 2 3 3 6 4 8 8-3-1-6 0-8 0 0 4-1 3 2 9-7-4-11-7-15-10 4-2 4-8 2-10l-2-1h-1"/><path fill="#EADEC9" d="M359 268c1 4-2 9-2 14-1-7-10-4-14-7-6-1-8 1-12 0 3 0 7 1 10 1 3 2 4 3 4 5-2 3-4 2-5 3h19c-4 5-10 4-15 5 7 8 1 4 10 2-4 7-8 5-10 10 17-3 24 1 35-5-4-3-1-2-9-3 2-5 7-7 9-11-4 0-7 2-12 1 6-10 15-12-8-15"/><path fill="#717670" d="M248 181c1 2 2 3 4 4-59-14-41 17 5 16 3 0-4-12 6-7 9 3 19 16 22 17-15-12-25-25-37-28"/><path fill="#506063" d="M221 340c-13 9-21 8-31 18 1 4-1 10 3 11-1-7 57-10 38-19-8 0-9-4-11-8"/><path fill="#ECE1CC" d="M358 176c-3 1 0 11 4 20 7 2 10 5 17 6 4 5 10 9 12 14 1 3-1 6-3 5-10-6-17-14-24-21 2 5 4 9 6 14 17 8 29 24 33 14 2-4-6 0-9-11-1-9-2-19-17-28 0 5 3 6 3 9-8-7-14-14-21-21"/><path fill="#5C5551" d="M400 296c-6 1-12 11-18 18 5 0 16-5 18-6l2 1h1v2c-12 2 0 11-5 13-5 4-6 5-7 7-1-3-2-5 0-7-2 3-4 5-5 9 6 1 14-9 19-3 4-2 5-7 10-11-4 23-15 10-14 25 5-5 13-13 19-23-1-1-2-4 1-8-4 0-3 3-4 4 1-6-13 3-3-7-7-2-5-5-13-1 2-4 5-5 6-6-8 0-6-5-7-7"/><path fill="#93A8A4" d="M435 231c-14 3-28 6-3 15-1-4-7-6-6-11 8-2 19-3 23 5-1 4-6 3-11 5 4-1 7-2 11-3 1 3-1 3-2 4 4-4 8-3 11 3 7 6 4 9 1 12-4 1-7-4-11-4 8 8-8 5 8 10 2 0 5-2 1-3 10-11 13-6 16-12 4 4 12-2 10 5-7-15-21-16-21-20-13-2-22-6-28-6"/><path fill="#5D5551" d="M426 319c-12 8 4 13 2 26 3-7 3-15 5-21 1 7 2 14 6 19 1-7 3-6 2-14 7 4 9 16 16 20 5 3 11 2 14 1-11-6-22-23-27-30-6 2-15-4-16 6-2-2-3-4-2-6"/><path fill="#65797A" d="M223 266c1 2-7 2-10 3-15 7-24 6-57 28 15-3 31-11 40-17 5-3 25-4 36-4 22-3 3-14-7-9"/><path fill="#130D17" d="M450 324c4 6 6 12 13 16-1-3 14 0 14-10 4 5 3 10 4 14 2 3 8-5 7 1-4 6-13 6-17 1 1 5 10 2 9 5 7 2 13 1 14-5l2-1-2 1c-1 3-2 4-5 5 1-6 4-12 4-16-15-8-27-8-40-12"/><path fill="#29252B" d="M354 316c-13-3-14 9-28 8-6 0-10-1-14-2 1 4 1 8 3 10-3 4-6 1-7 3-9 3-16 8-24 8-3 6 4-2 8 6-21 16-34 42-52 58 44-37 48-53 69-71 0-3 3 0 3-3 23-4 29-13 48-19"/><path fill="#D7BCA0" d="M375 122c7 38 11 39 22 84-3-15-6-27-8-39 4 7 11 3 15 8 3-2-16-32-28-50"/><path fill="#352A32" d="M494 305c-12 14 6 0-2 19 1-3 4-2 5-3 6 5 5 1 12 9 6 0 8 2 13 1 7-3 11-8 9-15-7-2-13 3-20 1-5-7-16-5-19-9"/><path fill="#CAB5A1" d="M481 215c-3 18-10 12-15 18-4 0-5-2-4-6-3 1-4 3-5 5-7-1-14-4-19-13-2 3 0 7-2 9-4-3-5-6-6-9 0 4 1 9 1 13 4-5 19 3 29 3 32 30 27 11 20-18"/><path fill="#433534" d="M442 279c7 3 10 8 8 14-1 8-4 12-13 10-8-4-9-12-9-16 0-6 8-7 11-8"/><path fill="#4F5759" d="M469 304c-8 2-20 17-7 17-2 2-4 1-5 2 9 0 24 5 30 3-1-3-1-7 1-9-9-3-17-5-20-13"/><path fill="#8CA4A2" d="M241 200c-14 10 30 11 39 12-3 3-20-1-23 3 17 3 34 5 49 8-4-10-14-6-23-11-8-2-14-4-20-7-8-5-15 1-20-3"/><path fill="#3F4347" d="M310 324c-8 5-15 10-22 15-8-7-11-6-20-9-6 2-11 4-15 8 2-1 2 4 1 4 9-2 11-7 19-8 0 2-6 6 1 10 13-4 41-5 38-18"/><path fill="#2B2930" d="M248 349c-3 0-5 1-6 3-1 4 8 4 2 8-9 6-18 2-26 3-10 2-11 5-10 7 5-1 6 11 10 4h2l2 2c-9 2 2 3 2 9 3-1 6-2 8-4-4 1-7-2-10-6 1-5 5-6 6-9 13 3 39-5 17-16"/><path fill="#5A4239" d="M413 332c-11 13-17 31-34 38 20-9 4 8 25-9 0 4 1 9-1 11 4-1 7-6 14-10 7-5-1-8 3-12-12 3-3 15-13 17 2-11 3-27 5-33"/><path fill="#565655" d="M240 247c-2 2-6 0-8 1-11 6-27 1-33 13 56-6 77-13 40-15"/><path fill="#322227" d="M417 363c-5 5-4 8-8 18-15 25-29 20-34 34 8 1 14-15 22-9-2-3 2-6 2-8 5 0 6 10 6 11 4-9 1-17 4-23 3-5 27-28 13-16-6 1-4-4-6-5"/><path fill="#F2DDBF" d="M411 136c-4 5 7 1 7 13-8-7 3 24 1 33 2 6 13-3 16 5-7-17-11-35-23-50"/><path fill="#2A272E" d="M332 361c-11 5-24 11-39 14-8 7-12 14-18 21 23-12 18 0 58-38"/><path fill="#737B77" d="M171 249c-21 4-42 7-62 14 17 0 35 0 51-5 6-2 15-8 13-10"/><path fill="#809998" d="M282 254c-21 8-37 5-46 10 8 3 39 2 40 0 3-4 21-2 7-10"/><path fill="#3B2123" d="M356 392c-31 24-64 26-93 51 16-6 59-34 83-33 9-7 1-5-2-7 5-3 7-9 10-10"/><path fill="#494446" d="M222 260c-17 3-33 5-48 10 11 2 15 4 16 4 23-7 46-12 33-15"/><path fill="#787D78" d="M184 158c11 5 17 8 24 16-46-23-16 7 9 9l-7-7c3-3 1-11 7-7-10-6-20-8-30-12"/><path fill="#809896" d="M485 259c-7 2-13 4-18 10-1 4 3 6 4 8 7 3 8-5 17-2 2-7 1-11-2-15"/><path fill="#665D58" d="M178 188c8 6 12 17 21 18-54-1-12 8 20 3-11-2-9-4-13 1 0-7-2-4-11-7 7 0-1-6 3-6-1-1-4-1-5-4 4 1 7 2 10 3-5-6-13-7-22-9"/><path fill="#463C3F" d="M117 411c-9 5-13 9-24 16 5-1 8-3 17-5-2 5-5 8-8 13 10-3 33-13 17-25"/><path fill="#312228" d="M154 406c-11 9 1 18-11 31 17-12 5 9 21-3 2 7 1 10 2 16 1-4 0-9 0-13 4 6 3 13 4 19-2-8 2-18-1-25 0-4 2-4 4-5-2-4-3 4-7-4-6 3-1 13-10 10-8-10 3-18 0-26"/><path fill="#5A8388" d="M188 358c-1 2-3-1-4 1-15 12-22 13-38 25 4-8 57-7 42-23"/><path fill="#26232A" d="M310 352c25-3-17 18-29 24 3-7 8-13 14-17 7-3 11-4 16-6"/><path fill="#738581" d="M350 135c11 16 16 24 31 39 3-7 1-19-4-26-5-2 2 3 0 6-4-1-5 2-10 0-2-2-2-4-3-6 4 0 6 2 7 3l-4-4c-5-6-11-6-14-11"/><path fill="#A7BFBC" d="M431 235c-1 1-2 0-3 1-2 5 5 6 5 10-15-12-27-3-8 8 3-5 18-10 17-14 3 2 3 2 8 1-5-6-11-8-18-6"/><path fill="#5A5D5C" d="M257 233c3 3 17 7 15 11 2 5-4 3-6 4 13-3 24 7 37 2-6-1-10-4-16-4 0-3 1-4 4-3-4-4-12-4-12-7-4 0-10-4-20-4"/><path fill="#FAF7E9" d="M363 197c5 7 13 13 19 21 4 4 11 3 9-2 6 3 6 8 10 10-1-6-5-11-8-16-3-4-5 0-3 1-8-9-17-9-25-13"/><path fill="#705F54" d="M402 330c-7 5 1 9-11 23-23 14-29 15-37 24 9-3 18-12 26-19 2 5-1 8-3 12 4-3 10-5 15-9 3-9 10-12 12-19l1-2v-2l1 3-2 1c-1 0-1 4-4 3 0-9 3-9 3-14"/><path fill="#465256" d="M278 354c-3 1-7 1-9 3-11 16-19 32-27 48 24-42 8-8 42-54"/><path fill="#5A5756" d="M212 225c-5 1-11 1-15 3-12 2-19 9-27 14 7 0 15 1 23 0 2-2 2-6 6-7-8-1-14 2-20 2 13-8 72-13 34-13"/><path fill="#2F3C47" d="M213 432c1 20 0 13 4 28 3-1 8-5 14-4 1-7-8-18-17-20"/><path fill="#737873" d="M192 211c-22 2-16 1-36 5 6 3 10 3 17 5 13-4 54-5 17-11"/><path fill="#A6876E" d="M351 146c11 15 17 26 19 33l2 1v2l2 1v-1c1 3 3 5 7 6-9-2 2-7-9-8 2-9 7-2 8-4 9 4 10 10 11 18-3-13-5-27-9-40 1 10 3 9 4 24-3-1-3-3-4-2l-29-29"/><path fill="#8D9E99" d="M408 234c0 3 4 7 6 10-6 0-9-2-13-3 1 2 2 4 4 5-4-2-8 1-10-1 4 3 10 3 13 7-35 9 46 0 31 2 0-5 4-4-5-6-4 1-3 8-9 7-12-4-10-15-14-19"/><path fill="#3C3F46" d="M136 365c-2 3-4 6-8 7-1 8-8 15-8 23 4-9 40-30 19-29"/><path fill="#4B5A5F" d="M204 371c-6 9-13 18-20 26 9-4 19-6 28-10-2 1 5-10-4-6-1-2-8-4-5-8"/><path fill="#EADAC3" d="M389 167c2 9 4 18 7 26 0-7 9-3 13-6 1-6-3-10-4-14 0 1 1 2 2 3-8-5-12-2-17-7"/><path fill="#C5B6A3" d="M293 243c10 9 35 9 43 14 0 3-11 2-7 2 20 6 9-14 30-4-18-11-42 0-65-12"/><path fill="#29272F" d="M304 318c-20 17-27-1-34 11 8 2 11 3 16 10 12-6 8-7 14-12v2l-2 2 3-1-1-2c2-7-2 1-4-4 10-6 27-6 5-4"/><path fill="#87A3A2" d="M492 295c-7 1-15 1-20 7 6 3 11 4 17 6 7-13 28-12 3-14"/><path fill="#6A7D7C" d="M481 254c-4 1-8 0-10 3 5 4 13-1 19 5 2 5-1 8-1 11-4 2-11 2-11 5-8 4-9-3-12-6-2-3 1-4 1-6-16-11-11 1-1 13 5 0 8 0 11 1 12-2 15-2 27-1-2-5-7-1-11-4-1-5-2-8-3-10-3-5 0-10-5-11 4 4-7 4-2 0"/><path fill="#9D9182" d="M349 301c-5 6-14 7-20 10 15 6 59-4 16-11"/><path fill="#493F3B" d="M316 151c7 10 7 11 13 25-2-12 19 18 23 26-3-7-7-14-8-23-11-11-18-19-27-25"/><path fill="#76746E" d="M142 197c7 3 14 8 21 11 8 1 7-3 12-4 8 0 13 2 19 4-17-8-31-9-50-11"/><path fill="#2B272E" d="M314 351c-5 5-11 6-18 7-6 7-10 9-11 14 8-4 35-15 33-21"/><path fill="#FAF9F4" d="M329 277c-10 5-21 6-30 12 8-4 67-5 31-14"/><path fill="#DFD8C8" d="M384 307c-10 1-18 3-25 11 2 3 6 4 9 7 7-5 9-13 16-17"/><path fill="#19151E" d="M279 344c-11 2-22 2-32 5 4 5 8 9 10 12-1-9 12-1 11-15 7-1 26-1 12-2"/><path fill="#7D5545" d="M114 341c-5 3-9 8-16 9-12-2-22-2-35-1 11 2 22 8 32 9 5-4 3-7 18-15"/><path fill="#596667" d="M271 298h-2c-18 9-25 18-30 21 16 1 17-13 34-18 4 0 3 6 1 9 11-2 7-5 0-14"/><path fill="#79847F" d="M316 138c7 18 20 30 32 42-5-18-19-20-30-41"/><path fill="#5D5552" d="M169 271c-10 9-20 5-32 10 12-2 80-3 32-9"/><path fill="#C3BAA9" d="M391 315c-9 3-13 8-16 8-10 4-2 2-4 8 4-2 6 4 9 4 6-9 22-25 1-9-1-3 5-8 7-9"/><path fill="#ACC4C1" d="M453 245c-21 2-4 11 5 16 0-3 4-3 4-4-3-6-4-9-8-11"/><path fill="#C9DDDC" d="M242 238c-8 3-16 6-25 9 12-4 61 3 25-11"/><path fill="#908577" d="M418 329c-4 7-8 14-8 23 1-3 14-4 13-13 2-5 1-7-3-8"/><path fill="#5B5754" d="M393 281c-7 1-12 4-18 8 5 0 12 2 12 5 21 1 21-17 10-5 1-3 0-5-2-8"/><path fill="#292228" d="M360 346c3 2-18 30-37 34 8 0 16-2 23-6 15-13 6-15 20-29"/><path fill="#3D3E45" d="M150 332c-6 8-11 16-16 24 8-2 32-21 16-22"/><path fill="#6E807F" d="M282 254c4-2 5 4 7 5-37 9 3 14 13-1-4-1-10-5-18-4"/><path fill="#706055" d="M362 333c-8 8-12 7-18 21 7-4 14-8 21-11 2 1 2 2 2 3 4-9-4-8-6-10"/><path fill="#CFBDAA" d="M352 267c-6 2-13 2-20 1 8 0 30 25 25 0-2-1-3-1-4-1"/><path fill="#381E21" d="M327 415c6 16 2 40 12 45-1 6-2 5-3 3-2-4-2-4-1-1 2 4 5 5 10 6-10-13-10-37-15-52"/><path fill="#7F7367" d="M376 351h-1c-10 11-14 18-17 22 3-10 53-27 20-23"/><path fill="#DABD9A" d="M436 142c1 17 1 37-2 34 1 6 2 10 1 14 3-9 2-20 3-29 2 14 4 24 7 34-2-17-3-34-8-50"/><path fill="#747C78" d="M211 244c-10 5-17 10-23 19 6-1 14-1 21-2-4 0-8 1-12 1 3-4 5-5 7-8 33-3 25-10-2-1 4-4 2-8 9-8"/><path fill="#DDC2A1" d="M411 137c1 20 5 41 7 62 2-17-2-32-4-48 0-9 4 4 3-1 0-4-2-8-4-11"/><path fill="#61625D" d="M218 168c-3-1-13 7-2 13 5 2 9 1 12 2-3-6-4-12-9-14"/><path fill="#3C3C41" d="M274 284c-5 3-17 12 2 7-6 4 1 5 2 10 3-1 11-6 16-8-5-3-11 1-16 1 0-4-2-7 2-8-3-1-5-2-7-1"/><path fill="#24232B" d="M246 413c5-1 1 6 3 7 1 0 5-4 6-3-4 8-9 13-13 18-3-8-1-14 3-19"/><path fill="#A19280" d="M396 202c-6 5 10 24 15 34 0-2-5-4-2-6 6 8 12 2 19 3-2-5-4-8-7-12 0 4 1 7 2 10-6-1-11-7-13-5-12-4-10-16-14-23"/><path fill="#5E322F" d="M395 404c-1 3-3 5-5 2-5 4-6 7-8 10-8 3-7-8-11-6 4 13-2 28 5 40-4-1 0-19 0-30 3 0 3 1 6-2 1-5 4-7 6-10 4 0 3 3 4 8-2-10 6 0 4-10"/><path fill="#302222" d="M327 177c2 6 4 13 7 19 4 3 8 2 11 5-2-4-6-14-15-25"/><path fill="#7A9392" d="M249 295c-7 4-17 6-22 13 7-4 48-10 25-14"/><path fill="#3E4247" d="M288 346c-6 1-12 1-16 4-4 5-7 10-12 12 4 5 6-11 17-8 7-2 3 5 1 7 4-6 17-10 11-16"/><path fill="#677675" d="M273 302c-8 2-16 9-23 17 7-4 17-5 24-10 1-3 1-6 1-8"/><path fill="#1F191F" d="m356 314-3-1c-19 6-43 2-60 14-3 7 35-9 60-13 9 2-6 4-8 7 4-3 22-9 15-9"/><path fill="#452F2D" d="M137 293v-1c28-2-1 12-9 14 1-6 4-8 11-7-1-1-3-2-4-1 1-2 6-3 4-4"/><path fill="#775B49" d="M374 177c1 4 12 16 20 28 0-10-6-13-6-18-5 2-5-14-10-10"/><path fill="#62615E" d="M209 215c-10 2-32 6-44 6 8 0 16 4 22 6 5-1 7-3 9-4-1-2-6 1-8-1 7-6 40-4 21-7"/><path fill="#444144" d="M266 192c15 17 16 10 33 22-2-4-6-8-9-12-8-5-15-4-21-7"/><path fill="#FAF5E8" d="M440 177c0 10-3 19 0 31 3-3 4 2 5 4 2-9-4-22-5-33"/><path fill="#423D3F" d="M304 252c-39-4 18 11 26 5-12-3-19-3-25-6"/><path fill="#F6EFDC" d="m340 292-2 1c-12 4-5 1-9 9 13-2 27-6 14-12"/><path fill="#50423E" d="M197 185c0 5 9 7 8 13-12-7-9-5-5 2 7-2 14-1 20-4-11-11-17-4-22-8"/><path fill="#4A4644" d="M356 156c3 3 0 7-3 6 6 9 8 15 15 22-2-10-6-18-10-25"/><path fill="#3C4249" d="M239 286c-5 2-10 5-14 8-7 4-10 7-15 9 5-1 8-6 12-8 16-2 43 0 14-9"/><path fill="#3E454A" d="M205 369c-5 17 14 6 5 17 5-3 5 4 12-1-8-7-8-11-16-14"/><path fill="#FBFAF6" d="M459 184c0 7-4 12-4 18 3 3 5 5 7 5 3-7 0-14 0-20"/><path fill="#3C2225" d="M373 409c-9 2-6 14-6 19 1 10 4 20 11 24-3-2-6-6-6-9 2-13-4-29-1-34"/><path fill="#824136" d="M389 408c-4 3-6 15-12 12-1 7 0 14-2 20 1 6 3 9 6 10 0-4-3-6-5-10 5-10 8-25 13-32"/><path fill="#87938D" d="M285 180c3 4 8 7 10 12 6 3 2-3 5-4 6-1 10 1 15 2-9-5-18-8-27-10"/><path fill="#5F797A" d="M470 302c-5 4 9 12 16 12 2-3 5-4 1-5-7-2-11-5-16-5"/><path fill="#3D4147" d="M195 304h-3c-1 4-9 5-8 9 5 5 30-10 13-8"/><path fill="#C4D8D7" d="M262 227c19-5 11 8 23 8 7 2 5-3 7-6-8-2-17-3-27-2"/><path fill="#737A76" d="M300 188c-1 1 1 6-4 6 4 5 9 10 11 15-1-6 0-17-4-19"/><path fill="#4E4644" d="M220 169c5 1 6 9 10 12 4 4 9 1 12 3-4-9-12-11-20-15"/><path fill="#57453C" d="M357 334c-12 4-34 6-52 14 13-2 29-9 41-7 6-4 10-2 14-6"/><path fill="#1D161D" d="M442 280c-4 1-13 0-12 6-1 5 0 12 5 16 7 1 11 1 13-3-2 3-4 3-8 2s-6-4-7-6c0-7 2-12 6-13 5-1 8 0 10 2-2-1-3-2-4-3"/><path fill="#2C252C" d="M304 265c1 4 9 5 8 9 6 2 11 1 18-1-11-4-13-5-25-8"/><path fill="#3D4247" d="M311 297c-5 1-10 1-14 3-2 3 1 5 0 8 13-3 11-4 16-12"/><path fill="#9C8F80" d="M341 285c-10 1-21 2-30 4 9 2 57-3 32-5"/><path fill="#3D2B2C" d="M138 309c-8 2-15 5-23 7 3 2 5 3 5 7 7-3 10-10 15-13"/><path fill="#6A7878" d="M299 230c-1 4-1 7 4 6-3 3 15 3 12-1-3-6-8-2-15-5"/><path fill="#736059" d="M187 230c-10 4-37 11-26 15 8 0 18-2 29-1-8-1-15-1-22-1 7-5 13-10 20-13"/><path fill="#C9AF93" d="M344 162c6 10 8 20 15 29-8-17 3-8-3-15-2-8-7-9-9-13"/><path fill="#4B383A" d="M147 416c-3 9-14 22-18 27 9 2 12-12 15-21 2 6 0 9 0 12 0-6 6-11 6-18"/><path fill="#B1C8C6" d="M260 226c-30 7 3 2 17 7-4-1 3-4 0-5-8 0-13 0-17-2"/><path fill="#434043" d="M261 194c0 4 3 6-1 9 9 2 17 4 20 6-5-5-10-11-16-14"/><path fill="#6D7D7D" d="M499 293c4 1 5 1 7 2-3 3-2 3-6 2 1 3 1 6 6 7 10-5 0 3 0-4 7 2 13-3 18 4-3 6-9 6-13 7 6 0 13-1 17-4-5-8-16-7-19-10s-5-4-8-3"/><path fill="#28272F" d="m247 415-2 1c-3 5-4 11-5 16 5-1 21-22 9-9-2-4-2-5-1-8"/><path fill="#3C3F44" d="M244 347c2 0-11 8-16 15 5 2 10-1 14-2 5-4-3-3-3-6 3-5 11-6 6-8"/><path fill="#413F46" d="M497 302c-12 9 9 6 12 14 9 2 15-3 22-1-6 0-27 3-34-12"/><path fill="#615953" d="M308 134c6 10 8 17 16 26-2-9-8-18-13-27"/><path fill="#7C7166" d="M349 343c-9 3-15 13-22 19 9-4 19-9 23-20"/><path fill="#5A5E5A" d="M349 147c-2 2 0 8-6 4 2 4 7 7 9 11 2-1 7-2 3-6-2-3-2-6-5-7"/><path fill="#889894" d="M489 258c1 5 5 9 3 16 4 0 7 3 10 1-3-6-6-12-11-16"/><path fill="#837A6E" d="M344 327c-5 2-12 5-16 9 7 2 12-1 17-1-2-2-5-4-1-6"/><path fill="#535455" d="M304 226c11 4 9 8 25 9-6-2-8-10-23-11"/><path fill="#6E7F7F" d="M253 236c-6-5 14 11 18 11 0-5-6-11-15-12"/><path fill="#5F7778" d="M289 305c-7 4-16 9-19 12 5-1 12-2 17-4 6-3 1-5 2-6"/><path fill="#546366" d="M237 275c-9 3-19 3-30 2 1 0-8 7-10 2-2 8-13 6-18 12 10-2 23-9 28-13 11-2 24 2 29-3"/><path fill="#8C5446" d="M489 322c-4 9 9 9 9 15-1 0 1-2-2-4 7 2 11 3 17 2-10-5-16-5-23-12"/><path fill="#1E1720" d="M281 270c12 4 19 4 33 8 8-1 14-4 21-5-1 4-34 2-52-3"/><path fill="#CFB59E" d="M460 166c-3 10-7 18-6 30 3-9 5-18 7-28"/><path fill="#76807F" d="M321 243c-6 1-13 0-18 2 7 0 46 9 18-2"/><path fill="#3F4549" d="M223 341c-3 1 1 7 3 9 4 2 6 0 10 1 0-4-8-6-10-9"/><path fill="#84A09F" d="M305 289c-4 6-16 8-22 13 9-3 28-5 25-15"/><path fill="#504F50" d="M206 233c15 1 0 13-7 10 2-3 4-5 6-6"/><path fill="#364148" d="M242 387c-2 5-6 10-8 15 4-5 18-7 11-14"/><path fill="#545A5E" d="M499 301c-5 4 7 8 10 12 8 1 15 1 21-3-4 0-12 2-18 3-9-3-5-10-12-11"/><path fill="#8AA09D" d="M252 182c7 4 13 11 21 13-9-13-8-6-19-13"/><path fill="#545659" d="M185 311c-9 6-14 12-19 20 4-7 21-14 20-17"/><path fill="#27232C" d="M162 389c3-1 0 5 5 6-3 4-5 3-6 4-4-1-2-5-6-3 3-7 5-2 4-6"/><path fill="#8F9A97" d="M194 254c-7 5-15 8-22 13 5 0 9-2 13-3 4-3 6-8 9-9"/><path fill="#E6E4D9" d="M307 189c4 2 13 10 17 11 0-2 4 1 5-1-6-5-16-8-21-9"/><path fill="#3F2927" d="M138 292c7 5-11 4 4 5-9 2-12 3-14 7 7-2 35-13 10-11"/><path fill="#526F71" d="M220 351c17 3-10 7-15 7 6-3 10-5 14-5"/><path fill="#594F4D" d="M101 322c-11 2-15 15-22 16 4 0 8-1 12-3 2-6 5-10 9-11"/><path fill="#302E33" d="M335 289c-6 5-29 7-25 15 12-10 12-7 28-14"/><path fill="#AB856E" d="M218 142c11 6 20 13 29 22-5-5-11-10-16-15 8-2 15 1 21 4-10-8-19-7-32-11"/><path fill="#26242C" d="M234 338c-18-1 3 12 4 10-9-2 7-9-4-10"/><path fill="#592D2B" d="M334 412c-13 4-29 8-40 16 15-5 20-8 40-15"/><path fill="#DAB89F" d="M208 244c-17 7-33 18-47 30 16-11 33-22 46-30"/><path fill="#948A7C" d="M399 229c-5 15 11 6 11 14 1-5-4-10-9-13"/><path fill="#78736C" d="M92 318c-7 5-16 9-22 15 5-6 19-4 21-13"/><path fill="#40494E" d="M268 373c-8 11-6 6-9 2 0 5 1 6 0 9-2 0-2-2-3-3-1 7-7 11-10 19 4-5 9-10 12-15 3-4 7-6 7-9"/><path fill="#454144" d="M299 264c-8 9 6 7 11 9-2-3-8-6-7-9h-3"/><path fill="#A3BEBC" d="M439 253c-3 6 11 12 11 8-3-4-6-6-10-8"/><path fill="#444446" d="M269 250c-1 5-13 2-17 4 6 1 45 1 17-5"/><path fill="#4C575A" d="M252 338c-5 2-11 8-16 8 5 2 8-2 12 0 3-3 7-1 5-8"/><path fill="#A0816F" d="M161 250c-12 0-24 6-35 4-7 5-19 5-27 10 20-6 51-13 68-15"/><path fill="#82958F" d="M329 148c12 10 5 17 14 17 0-3-1-5-1-8-4 0-7-5-10-7"/><path fill="#342D31" d="M242 254c-1 7 15 3 22 2-12-1-10 0-19-3"/><path fill="#585958" d="M104 396c-4 4-11 7-15 11 9 3 12-5 17-12"/><path fill="#605954" d="M266 130c8 7 8 14 13 17-2-8-1-13-11-16"/><path fill="#6A7270" d="M411 169c-3 9 0 14 5 23-1-11-2-16-4-21"/><path fill="#362724" d="M345 183c3 8 7 19 13 25-6-15-3-11-12-24"/><path fill="#717D7D" d="M334 229c-12 6 5 5 10 8-2-3-5-6-8-7"/><path fill="#514F50" d="M146 314c-2 3-12 11-7 12 4-1 7-3 10-5-5 2-3-5-3-6"/><path fill="#9D8A77" d="M351 174c-6 7-1 14 11 24-4-8-10-14-12-22"/><path fill="#576667" d="M475 256c-4 1-7 3-10 6 4 4 13-1 11-4"/><path fill="#2A2327" d="M341 341c-4-1-5 3-7 2 1 1-5 5-3 8 2-5 14-3 12-11"/><path fill="#4C575B" d="M297 301c-10 4-8 7-6 11 2 0 6 1 9-1-6 1-4-7-4-7"/><path fill="#424345" d="M282 220c7 5 16 7 24 9-5-7-17-6-23-8"/><path fill="#544A48" d="M396 316c-4 4-5 9-6 14 5-4 17-14 6-10"/><path fill="#849B9B" d="M296 227c-7 6-3 13 6 10-4 0-5-2-4-6 4-2 6 0 10-1-4 0-7-2-11-1"/><path fill="#3E4247" d="m464 277 6 6c19-5 20 0 36 0-9-10-29 3-41-3"/><path fill="#282932" d="M249 376c0 5-10 10-4 12 7-5 10-9 2-9"/><path fill="#727169" d="M414 320c-4 6-6 8-11 13 6 4 10-8 13-11"/><path fill="#4D4641" d="M306 163c2 1-1 6-3 6 3 4 8 6 12 9-3-4-5-9-8-14"/><path fill="#6C544D" d="M107 318c-14 3-25 12-39 16 12-2 24-8 38-16"/><path fill="#3E4246" d="M286 386c-3 7-7 8-13 14 0-3 23-9 18-14"/><path fill="#523939" d="M502 322c1 5-4 3 3 10 5 5 13 1 15 1-6-1-16-1-18-10"/><path fill="#F6DDB1" d="M377 126c10 13 20 27 26 43-4-14-14-31-24-42"/><path fill="#A69482" d="M317 240c7 2 14 10 21 9-6-3-12-8-18-9"/><path fill="#515B5E" d="M251 275c-1 3 10 6 2 7 7-1 12 0 17 1-7 0-11-7-17-9"/><path fill="#382C2F" d="M182 279c-7 1-13 1-19 3l6 3c5-2 8-5 12-6"/><path fill="#756355" d="M353 191c4 6 3 14 11 14 0-4-4-9-9-11"/><path fill="#513B36" d="M400 262c-16 0-9 5-43 4 15 0 45 2 45-4"/><path fill="#231D27" d="M172 344c5 4-8 6-11 9 2-5 5-7 9-8"/><path fill="#595655" d="M177 248c-3 3-7 5-10 8 6 2 11-4 11-8"/><path fill="#583734" d="M427 364c3 13-13 4-11 19 1-12 8-1 10-7 1-4 1-7 2-9"/><path fill="#C6DDDD" d="M311 222c6 2 12 6 17 7-1-7-10-5-14-8"/><path fill="#525455" d="M208 235c-3 2-5 4-8 6 4 1 16-1 10-7"/><path fill="#C7B59C" d="M366 171c8 10 5 21 11 26 0-2-2-10 4-8-7-2-11-10-14-15"/><path fill="#F5F8F8" d="M511 304c-1 1-4 1-4 4 5 3 16-3 6-5"/><path fill="#63493F" d="M425 351c3-2 3 2 5 2-2 3-3 2-6 6-2-4-2-4 2-6"/><path fill="#8A9F9E" d="M243 236c17-1 11 16 23 10-6-3-11-13-21-9"/><path fill="#AC8565" d="M130 195c9 4 20 8 30 13-10-4-17-13-27-13"/><path fill="#221F28" d="M217 326c9 0-11 10-8 8 0-5 3-5 5-7"/><path fill="#493B3A" d="M205 211c0 1 13 8 15-1-3 1-8 0-12 0"/><path d="M211 438c-2 3-4 3-5 5 0 6 3 3 5 5v-8"/><path fill="#523837" d="M126 399c9 1-2 8-5 9 0-5 2-6 3-8"/><path fill="#978C7D" d="M389 274c-6 3-12 4-18 7 7 0 14 0 17-5"/><path fill="#5F7273" d="M251 310c-6 4-11 7-15 13 13-1 8-8 13-12"/><path fill="#ECDEC9" d="M343 253c4 5 0 10-7 8 5 0 8 2 13 1 0-3-2-4-2-6 11-2 5-2-2-2"/><path fill="#B7B5AA" d="M324 312c-27 8 8 2 15 1-5 2-10-2-15 0"/><path fill="#504D47" d="M279 236c8 2 12 9 20 5-6-2-11-4-18-4"/><path fill="#565354" d="M141 305c-10 3-22 4-33 12 12-6 23-7 34-12"/><path fill="#312528" d="M205 457c-4 2 4 6 3 10-5 2-9 2-13 2h15c1-5 1-9-3-11"/><path fill="#AD876F" d="M469 192c-1 5-3 10-2 17 5-4 4-11 2-16"/><path fill="#C48462" d="M494 349c-4 10-16 2-22 8 6-2 20 1 21-5"/><path fill="#DAD6C7" d="M378 302c-4 2-9-1-12 2 9 4 13-4 15-2"/><path fill="#A28672" d="M197 182c9 5 12 5 19 10-2-3-6-4-9-6 5-2 10-2 14-3-7-1-16 0-21-2"/><path fill="#A09785" d="M389 243c1 3 7 5 8 8-28-4-7 3 5 3-7-13-2 0-12-10"/><path fill="#9D8273" d="M206 223c-19 4-34 10-52 18 16-8 49-17 58-19"/><path fill="#7C7770" d="M345 302c-11 4-24 2-35 7 12-2 29-3 38-8"/><path fill="#241D24" d="M349 356c4 0-4 9-5 10-1-4 0-4 2-8"/><path fill="#2A2226" d="M353 353c-8 1-12 4-16 6 3 1 6-1 10-2-2 3-3 6-5 9 6-3 6-10 9-13"/><path fill="#4B383C" d="M493 309c-3 7-5 6-6 14 3-4 5 1 5 3 0-5 2-12 0-15"/><path fill="#27242C" d="M162 389c-13 12 0 3 5 11 3-2-6-5-4-9"/><path fill="#6B7470" d="M331 134c8 4 7 15 16 18 1-14-9-1-14-19"/><path fill="#6A7E7F" d="M306 290c2 14 12-1 9 1 1-1-2-1-4 0"/><path fill="#A17C71" d="M477 335c-6 2 0 10-4 10 3 4 6 1 9 3 7-5-3 1-4-1 1-4-2-7-1-11"/><path fill="#575A5C" d="M293 264c-1 3-5 6-9 5 3 1 8 0 11 2-2-3 7-7 0-8"/><path fill="#4A585D" d="M269 336c0 7-9 5-13 10 3 0 9-3 13-3 2-2 1-3-1-4"/><path fill="#B48A6F" d="M260 125c15 6 29 18 42 29-13-14-25-21-41-28"/><path fill="#9D9181" d="M395 312c-6 3-7 6-15 13 8-4 16-10 18-14"/><path fill="#809596" d="M507 301c1 3 8 0 12 2 1 4-1 6-2 6 2 0 5-2 6-3-5-8-10-3-13-5"/><path fill="#5E5A54" d="M329 172c8 11 16 23 24 34-7-11-13-22-22-33"/><path fill="#76776F" d="M306 163c4 3 5 8 8 12-1-2-2-3-2-5 5 0 9-1 13 3-10-9-6-3-17-10"/><path fill="#6D6C66" d="M227 185c5-2 9 2 13 0-4 1-9 7-10 1"/></svg>