<svg xmlns="http://www.w3.org/2000/svg" width="600" height="600"><path fill="#655F52" d="M327 120c4-2 9 0 12-1 33 14 69 1 101 15 18 6 33 15 46 25 26 20 41 47 47 75 2 14 1 26 2 37-3 20-8 36-17 50-9-13-16-29-26-42-8-11-14-19-23-26-14-10-27-16-41-20-14-5-28-8-43-6 5 20 13 38 15 58-4 13-6 24-11 34-6 15-13 26-20 38-14 6-25 18-40 21-11 13-16 29-29 36 7 8 11 15 18 23 3 3 0 6-1 7 20 0 30-2 46 1 8 4 14 9 18 16-26 0-47 5-69 6-4 8-19 0-19 8-41-1-82 4-117-4 3-7 13-13 20-19 9 0 20 6 24 0 3-10 0-17 0-24-10-11-14-23-21-33-6-2-9-1-12 0-8 17-13 33-20 48-8 1-13 3-18 0-5-2-8-4-10-7-4 2-7 5-11 7-1-4-2-8 0-11-8 5-15 7-24 8-8 0-11-7-13-11-9 4-16 9-25 11-3-7-3-15-2-20 27-18 55-37 79-54-5-3-11-4-16-6 3-10 7-19 12-27-6-5-11-6-14-12 6-5 13-8 19-11 0-8 3-14 10-18-15-2-26-10-36-17 18-3 30 0 47-4 1-6 12-10 16-15-3-5-16-10-13-16 26-10 49-23 72-30 11-18 19-38 29-57 7-9 16-17 24-21 12-7 21-11 32-12"/><path fill="#F8CC12" d="M387 134c-10 16-11 38-23 54 17 2 33 4 48 9 14 3 24 8 34 13 8-5 9-16 10-25 1-12 0-20-2-28 6-1 10 2 18 9 4-2 7-4 10-5-12-11-26-18-38-20-5-2 7 2-4 6-17-7-33-12-50-13"/><path fill="#182130" d="m225 349 5-1c-13 13-29 19-40 23-18 4-33-1-44-4-24 17-53 37-77 53-5 5-2 12-3 15 10 0 17-5 24-10 5 6 7 14 15 13 11-1 17-6 23-12 1 5 2 10 1 14 15-21 31-41 44-62 7 1 12 2 17 3 10 12 18 22 22 31 7-10 12-21 17-32-6 0-13-2-17-6 5-11 34-21 14-26"/><path fill="#F5F2DF" d="M311 153c-6 3-13 7-18 14-11 23-21 44-30 66 10 4 18 12 24 21 9 10 12 19 14 30 10-10 18-26 22-40 6-15-1-28 5-39 0-2-2-2-4-3 8 1 16 5 23 10 2-4 1-7 2-10-18-5-14-11-26-18-3-12-8-21-11-30"/><path fill="#080F1F" d="M288 295c-2 10-5 21-8 31-11 27-40 43-42 72 7 1 16 0 24 0 5 7 10 9 13 14 6-6 12 2 18 3 7-11 16-21 24-31-13 5-26 11-39 16 11-18 30-24 41-39-7-19-17-40-15-55-4-3-9-5-14-10"/><path fill="#D7C9A9" d="M327 204c-1 15 2 30-5 44-5 18-14 30-20 38 1 8 2 13 3 17 11 10 22 16 33 27 13-29 9-65 17-95-7-12-22-29-27-29"/><path fill="#304E6C" d="M238 283c-19 8-34 18-53 29-9-1-12-8-17-12-17 9-32 16-40 21 5 4 7 6 9 7 13-4 25-7 36-12-7 8-17 11-26 17 15 9 30 13 43 21 17-12 31-24 46-35 15-1 15-1 0-1-3 0-8-3-10-6-21 11-38 22-56 31 10-12 23-21 33-31 14 0 26 0 34-10 3-5 2-13 2-20"/><path fill="#3F4957" d="M350 214c2 14 10 25 14 38 1 13 2 24 3 35-6 10-14 18-20 27-5 10-4 14-8 20 13-5 25-6 34-14 7-13 22-23 25-29-4-29-12-46-17-63-11-3-21-8-30-12"/><path fill="#DF3816" d="M456 156c3 19 2 40-5 56 19 11 38 31 48 51 4-6 9-9 11-14-1-14-5-26-9-38-6-11-11-21-18-30-10-10-16-17-26-23"/><path fill="#435455" d="M299 131c-10 5-18 11-27 19-10 22-21 44-28 64v2l-1-1-2-2c-12 0-27 10-39 14-5 8-9 16-11 23 2 2 5 2 8 1 10-7 29-19 41-35 4 3 6 5 7 8 0-3-3-4-3-6 6-5 15-8 18-5 11-28 31-52 35-80"/><path fill="#151D2C" d="M304 307c2 20 10 37 15 55-15 15-30 23-42 38 15-8 43-22 66-35 11-18 49-60-6-25-9-20-20-21-31-32"/><path fill="#53362A" d="M279 412c-11 11 14 16 12 29 2 5-2 8-4 13 3 5 3 10 5 15 27-6 58-10 86-7-4-6-7-11-13-16-21 0-26 0-48 3-6-3-1-7 0-8-7-10-12-19-21-25-5 2-10-4-14-4"/><path d="M237 401c-3 1-2 5-4 8 6 15 16 26 19 40 9 6 21 6 31 5 4-5 7-8 6-13-10-13-16-25-24-38-9-4-18-1-26-3"/><path fill="#A2EBF8" d="M242 237c-38 8-9 22 5 41l-6 3c8 3 18 1 25 0 4 2 6 4 8 6 3-6 3-14 0-19-3-11-10-19-18-25-5-5-11-6-16-7"/><path fill="#46768F" d="M233 261c-24 28-56 56 10 17-2 17-4 26-7 37 6 2 11 2 15 1 8-2 14-3 19-7 4-7 5-15 5-20-7-13-22-2-34-6 0-4 3-3 4-6-4-3-9-8-13-12"/><path fill="#1D2730" d="M391 201c5 11-11 5-5 11-42 5 41 1 46 14 17 6 28 12 37 23 12 12 17 15 24 26 1-2 3-2 4-4-8-15-19-27-32-37-14-13-25-14-40-23-11-4-21-7-30-10"/><path fill="#1E2630" d="M499 175c-2 4 5-2 10 11-3 11-8 9-12 13 9 18 15 40 19 59 8-2 12-8 15-14-2-19-5-26-13-43-4-10-10-18-17-26"/><path fill="#D26D26" d="M229 422c1 4-1 6-1 9-2 0-4 0-6-1 1 8 3 16-1 23 6 2 10 1 14-2-22 5-34 7-2 14 3-4 5 1 7-3 2 2 3 5 2 9 5-8 13-13 20-13 4 4 3 10 5 14 9 2 17 1 23 3 0-11-1-10-4-17-11-1-23 0-42-9-2-2-3 3-7 3 3-9-3-20-6-28"/><path fill="#C2F4F8" d="M341 121c-8 0-17 1-23 3-6 1-12 3-17 6-3 8-5 13-7 22 8-5 15-9 27-13 11-2 26-2 35 1 14-16-2-18-14-18"/><path fill="#192331" d="M178 395c-1 2-5-1-6 1-10 13-20 23-31 33 1 6 2 8 5 10 7 6 15 3 19 1 6-17 17-35 17-47"/><path fill="#171F29" d="M329 140c-19 5-27 9-37 18-17 28-24 52-34 70-8-4-9 3-17-11-9 12-25 22-27 32 7-4 16-10 23-15 10 1 17 3 24 5 4-25 22-54 30-74 8-9 15-12 20-14 6 0 4 10 5 9 3-8 8-16 15-20"/><path fill="#7E776E" d="M356 235c-5 25-7 51-10 77 7-8 15-15 20-23-2-19 0-38-10-52"/><path fill="#0D101A" d="M362 165c2 12-15 14-11 26 16 4 30 3 44 7 17 4 32 10 47 18 11 7 19 13 28 20 15 13 24 26 34 40-5-12-12-23-20-34-11-12-23-20-32-26-17-9-27-13-45-18-18-4-33-6-50-6 0-9 10-13 13-20 1 3-8 6-8 8-6-5 4-6 0-12"/><path fill="#293156" d="M278 312c-21 25-41 43-66 60 6 5 12 8 17 5 19-20 35-41 48-62"/><path fill="#304C66" d="M197 262c-8 4-16 7-27 5-7 3 6 2 3 6-11 1-21 4-33 2 1 6 3 12 9 13 4 3 12 3 18 2 7 0 14-5 20-7-1-6-6-10-6-11 7-4 10-8 15-9"/><path fill="#19202D" d="M264 249c3 1 3 4 5 6 6 6 6 11 9 14 5 11-2 18-2 27-2 12-10 19-19 21 0 9-7 17-9 26 9-9 24-27 30-30 2-2 4-7 5-11 2-12 4-22 1-31-2-8-15-28-12-17-2-1-5-2-5-4"/><path fill="#0B1223" d="m155 371 7-2c-1 18-46 42-61 61 0-5 0-9 2-13 18-15 33-30 50-44"/><path fill="#0C1220" d="M531 246c-2 5-11 14-16 12 4 17 4 40 3 60 7-14 11-27 12-41 2-9 3-19 2-30"/><path fill="#F4AE0C" d="M511 250c-3 4-6 8-9 11 1 8 5 14 6 20-5 0-5-5-8-7-1 0-4 1-4 3 7 13 13 25 19 37 4-21 0-42-3-62"/><path fill="#090F1D" d="M356 216c15 11 61 3 77 17 25 8 44 21 57 39-15-17-31-36-53-44-12-6-22-9-33-10-15-2-28-1-40-2"/><path fill="#659BAE" d="M217 250c-11 8-22 16-34 21 10 4 25 3 34-3 1 4 1 6 1 9 11-11 20-18 0-28"/><path fill="#639EB7" d="M199 277c-10 6-28 14-32 18 4 4 15 8 24 9 12-10 20-7 11-26"/><path fill="#091021" d="M174 378c-12 21-27 40-42 59 13-12 27-26 39-40 9-4 17-5 25-6-1-11-12-10-20-12"/><path fill="#283053" d="M225 348c-7 6-15 12-24 17-13 0-19-12-15-12-14 3-25 9-37 11 10 7 25 9 37 6 7 0 10-2 14-3 11-6 20-12 28-17"/><path fill="#2B3256" d="M145 331c-33 32-2 36 25 21-11-4-20-9-27-17"/><path fill="#0A0F20" d="M272 325c-11 18-28 39-41 55-5 13-17 26-16 38 3-3 5-6 6-10 4 1 6 1 8 2 2-7 6-22 11-35 14-15 23-32 32-48"/><path fill="#080F20" d="M156 371c-17 15-33 30-51 44-3 6-3 10-5 14 18-19 54-41 62-59"/><path fill="#2C373C" d="M357 196v19c16 0 30-1 33-10-4-2 4-2 2-3-7-2-20-5-34-6"/><path fill="#797C8C" d="M394 295c-17 23-33 46-48 69-13 9-25 14-36 21 12-4 28-13 44-20 13-25 29-47 41-69"/><path fill="#503027" d="M222 409c-1 3-3 6-4 9 3 6 2 12 8 12 3-2 1-7 4-9 4 11 10 20 7 29 3-2 7-6 10-1-2-15-10-27-16-37-3 0-5-1-7-2"/><path fill="#F8DE3C" d="m407 128-18 6h-2l-1 1v-5c-22 60-19 54 1-2 41 13 56 17 66 12 14 8 22 14 29 18-2 5-6 6-8 9-7-4-12-9-18-12 5 4 10 7 15 11 5-1 9-4 13-6-7-7-19-12-25-17-4-2-6-2-12-4-12-6-25-8-39-10"/><path fill="#563225" d="M214 458c-46 24 6 14 21 14 3 1 5 1 6 0 0-4 1-7-1-9-1 2-2 5-4 7-2-2 1-4 0-7-6 7-17-2-24-3"/><path fill="#070F1F" d="M225 338c-11 9-25 17-39 18 4 4 8 7 12 9 11-6 19-12 28-18-1-3 0-5-1-6"/><path fill="#192436" d="M172 318c-10 5-22 7-32 12 3 7 19 18 29 20-8 8-19 10-30 11 16 3 30-5 42-9-10-9-25-8-35-18 8-6 16-10 24-15"/><path fill="#182332" d="M236 320c-14 12-28 23-42 33 15-6 48-19 46-33"/><path fill="#425353" d="M385 128c-4 1-9 1-12 3-6 6-10 11-12 17 1 5 2 7 3 10 7 0 10-17 15-24 13-6 32-7 5-6"/><path fill="#722831" d="M350 142c10 2 2 9 6 13 1 9-1 14-4 19-10 9-20-2-27 0-4-2-5-4-5-7 0 3 1 5 2 7 5 4 9 7 13 8 8 1 14 1 19-3 4-4 6-7 7-10 2-12 0-21-9-26"/><path fill="#D03129" d="m350 144-1 1c-6 8 6 11 3 19 0 6-5 8-8 10-9 1-14-2-17-7-5-6 1-13-3-16-5 6-6 16-1 22 9-2 19 9 27 0 9-9 3-23 3-30"/><path fill="#827D70" d="M261 237c12 9 22 19 29 31 11 11 8 28 14 38-3-16-5-32-13-46-8-10-16-20-27-23"/><path fill="#C3F4F6" d="M194 230c-6 6-21 6-25 13 6 1 12 6 19 6 2-6 12-18 9-20"/><path fill="#3E4853" d="M284 262c2 8 5 18 5 31 4 4 7 7 11 8-1-14-5-28-14-39"/><path fill="#A6E8F4" d="M489 160c-29 11 1 16 9 23-1-11-1-16-10-20"/><path fill="#2A353C" d="M499 172c1 5 2 9 3 15-25-20-22-6-3 12 6-1 7-17 12-10-3-5-8-8-10-15"/><path fill="#CE6928" d="M196 455c-7 4-13 8-20 14 6-1 11 3 16 1 8-6 24-15 4-16"/><path fill="#462D26" d="M287 282c-1 8-2 17-5 24-10 21-17 40-30 57 10-8 17-19 23-29 7-17 12-33 12-50"/><path fill="#16202A" d="M174 247c4 3 9 5 13 8-35 15 6 14 24-4-13 5-23 1-34-3"/><path fill="#6B532E" d="M255 319c-8 6-17 11-26 17-3 4-2 7-1 9 9-8 24-15 28-23"/><path fill="#543126" d="M262 458c-7 5-11 12-16 17 6 0 12-1 18-2 1-5 1-9-1-13"/><path fill="#182435" d="M203 314c-11 9-22 18-32 27 12-6 23-13 35-19-1-3-2-5-3-7"/><path fill="#334245" d="M264 213c-2 0-16 0-19 7 3 5 5 5 10 9 3-5 6-10 8-16"/><path fill="#182332" d="M157 293c-12 2 6 13 10 5 5 6 10 10 14 13 5-2 8-3 11-4-8-2-15-5-22-8-5-2-13-4-6-7-2 1-4 0-5 1"/><path fill="#0F0C17" d="M341 151c6 2 8 11 2 15-4 3-8 2-10 0-4-6-3-12 1-13-3 0-4 3-5 4-1 7 1 12 6 13 5 5 13 1 15-3 1-8-1-14-6-16"/><path fill="#B5EDF5" d="M121 273c0 4 14 11 22 16-1-5-4-9-5-14-6-1-10-2-15-1"/><path fill="#181D26" d="M383 132c-11 15-8 23-15 32-5 0-3-4-5-7 3 15 0 17-4 23 15-8 16-34 24-45"/><path fill="#F6B50D" d="M249 332c-7 5-13 10-19 14 3 3 5 5 8 4 6-5 8-12 12-17"/><path fill="#1A232F" d="M342 152c3 3-3 5-3 6-4 0-7 0-7-3 0 4-1 7 1 9 4 4 8 3 10 1 3-5 3-10 1-11"/><path fill="#18202C" d="M350 186c-2 11 1 19 2 28 3 4 4 2 8 2-9-4 2-25-12-26"/><path fill="#18202E" d="M252 361c-2 3-6 9-11 13-4 11-7 20-10 29 8-11 13-28 20-41"/><path fill="#1A212A" d="M364 128c-3 3-2 16-10 14 1 2 3 4 5 6 1-7 17-18 6-20"/><path fill="#7A766E" d="M331 205c7 8 17 16 22 25-1-6-4-12-4-17-5-1-8-4-15-7"/><path fill="#28343D" d="M322 382c-8 7-17 19-23 28 10-4 16-17 24-29"/><path fill="#0B0D17" d="M380 330c-3 12-16 17-20 28 10-2 14-17 21-25"/><path fill="#182533" d="M216 271c-8 5-22 6-33 3 7 15 15-7 22 7 3-2 9-5 11-8"/><path d="M330 183c-4 5 8 7 12 7 4-2 7-3 6-6h-15"/><path fill="#303F43" d="M233 224c-10 13-22 19-33 27 4 4 8 1 10 0 4-9 13-16 22-25"/><path fill="#4B748A" d="M150 297c-3 4-5 8-4 13 6-4 20-6 6-12"/><path fill="#D9D2B1" d="M334 190c-5 5 10 6 13 9 1-3 1-5 1-8-4 0-9 1-13 1"/><path fill="#091222" d="M204 312c-1 3 0 6 2 8 7-3 11-5 16-7-6 1-11 0-16-1"/><path fill="#E6A2B6" d="M344 140c0 5-3 8-8 8-5 2-7 1-8-2-2 4 0 8-2 14 2-5 5-10 9-10 7-1 12-1 11-9"/><path fill="#0D1420" d="M258 317c-6 3-13 1-19 2 1 2 1 5 4 6 6-2 8-5 12-7"/><path fill="#2D2226" d="M238 305c-4 2-7 4-11 6 3 3 4 4 7 3 2-3 3-5 3-7"/><path fill="#2B3A3F" d="M258 241c3 5 9 8 12 13-2-3 3-4 1-6-7-6-7-6-11-4"/><path fill="#F3D64A" d="M259 459c-7 2-14 9-15 15 5-5 10-10 15-14"/></svg>