<svg xmlns="http://www.w3.org/2000/svg" width="600" height="600"><path fill="#936E65" d="M319 97c3-2 7 0 9-1 17 4 30 11 42 19 7 7 15 14 18 21 7 12 11 24 14 36 22 5 43 14 60 28 20 15 36 33 47 52 9-1 16 5 21 9 18 14 21 40 4 52 8 8 11 14 14 19 3 9 4 16 3 24-10 10-15 21-22 32-12 12-25 24-40 30-19 10-39 15-59 19-14 13-26 29-41 35-12 8-25 9-39 8-11 0-20-5-22-15-1-8-5-13-7-18 4-8 8-13 14-17-2-2-2-4-4-4-9 8-13 18-20 26-18-1-26 15-39 18-11 1-18 4-28 2-13-3-23-7-34-10-9-8-13-14-14-24 1-13 9-22 14-32-2-5-7-9-9-13-3-6-3-12-1-15-24 9-38 34-63 43-18 8-37 5-53 5 1-4 5-7 0-12-6-7-14-9-18-15-5-10-6-21-10-29-5-17 5-24 2-39-7-19-11-37-13-56 1-9 4-15 7-20 8-8 11-7 17-7-6-7-2-21-6-32 5-5 9-6 13-6 12 2 22 4 30 8 10 4 17 8 24 14 20 18 37 41 47 65 10 2 17-1 23-6 8-5 15-8 18-13-10-8-18-16-27-22-5-10-4-19-9-26-1-18 7-29 13-42 10-14 27-1 37-14 7 1 10 3 14 4 7-4 10-10 13-14-3-15 13-26 2-34 14-10 29-8 42-12 4-6 8-7 12-12 0-3-5-5-1-8l1-1h1l2 1"/><path fill="#F3FBF9" d="M425 184c-12 2-23 7-34 12-11 9-21 16-28 26-8 11-13 22-17 33-4 14-7 27-8 39 4 14 5 8 12 13 6-4 12-7 13-17-5 16 8 16 6 19 0-14-1-31 8-45 4-9 10-16 17-20 7-6 13-7 19-9 14-4 25 0 34 6 15 14 24 28 29 44 6-3 8 0 16-7-2-4-9-10-7-17 8-7 15-5 14-11 17 10-17-32-21-33-17-16-33-28-51-34"/><path fill="#271025" d="M343 341c3 8 5 16 7 24-8-4-10-12-19-14 3 1 5 2 6 5 1 4 2 7-1 8-6 6-13 5-20 6-5 8-9 10-13 17-6 2-7-2-8-4 8 1-2 18 9 12-13 14-27 21-42 26-14 3-27 3-37-3-5 9-12 14-9 24 4 16 26 2 24 18 18 4 35-16 55-11 9-4 14-10 22-11-2 4-6 9-8 14 8-10 13-20 20-28-7 2-14-16-11-7-12-17 3-3-11-22 7-6 11-11 16-16 3 5 5 9 7 13-1-5-5-10-5-15 3 7 17 24 9 27l-1-3 1 1c3 11 14 18 19 27-4 2-8 0-11-1h-2l-2 1c-4 4-9 9-13 15 5-6 9-12 15-15 6 7 2 16 0 19 4-1 11 14 21 14 20 3 35-7 51-14-4 8-9 14-17 18 64-41 6-24-29-30-9-3-14-13-22-18-3-5-5-9-6-12 12 2 18 12 26 9 6-9-11-1-6-8 8-4 20 6 22-1 5 4 9 6 13 8-4-3-7-3-12-8 27 12-21-21-15-12-13-26-10-17-22-53"/><path fill="#842922" d="M76 282c2 16 23 25 21 46 3 14-5 27-3 39 7 9 15 11 19 18 1-7 24-12 36-20-10 15-23 24-36 31 2 7 7 13 14 13 25-13 38-38 54-55 3-9 10-12 5-24 1 4-1 7-3 10-27-1-57-1-83 7 0-7-2-13-1-17-1-5-3-7-3-9 0-20-24-27-15-39"/><path fill="#4B556C" d="M464 267c2 12 4 29 0 41-4 15-10 27-20 37-15-1-31-10-53-9 18 10 30 15 50 16-3 11-2 23-7 24 1 7 5 7 5 12-10 7-21 5-32 3-18-3-33-8-48-13 4 4 5 10 12 12 20 6 38 11 58 13 9 0 14-3 20-5 0-4-3-4-4-7 26 13 55-14 72-3 27-21-12-21-23-16-6-2-6-9-1-7l2-1h-3c-9 2-17 7-25 11 3 6 3 4 11 2-5 5-10 7-14 10-9-3-17-5-22-12-5-13 7-24 12-33h3v2c-5 6-9 17-4 20 7-4 17-11 24-15 3-3 7 0 8-2 6-4 10-1 16-4 2 4 0 9 5 7 6-3 7-9 11-10-5 1-9 4-14 5-6-4-12-1-16-1s-6 4-7 3c-5-5-15 0-21-3 2-10 8-19 16-24 1-9 1-22-1-31-2-8-4-14-7-20"/><path fill="#937F78" d="M387 329c-1 8-9 6-12 6-4 11 4 15 9 18-8-3-13-2-18-5-22-3-16 12-5 31 18 4 33 10 50 12 11 1 19 2 27-3 0-5-4-5-6-8 7-6 5-16 10-26-11-2-21-2-29-7-11-4-18-9-25-16"/><path fill="#BD4020" d="M262 301c-3 3-9 3-11 7 0 2 4 5 2 8-7-1-9 4-14-1-38 31 37 28 48 43-2 4-11 1-20 3 22 9 10 2 25 1 6 3 4 5 3 7-5 2-10 1-14 1 7 0 13 0 15 5 12-8 39-11 38-14 2-6-3-8-6-10-11-1-17 2-23-3-7-21-24-17-29-39-4-3-8-5-13-7"/><path fill="#343451" d="M497 386c-14 8-34 12-50 5 1 3 6 4 4 7-8 3-13 6-20 5-23-1-42-6-62-12 12 17 31 17 46 28 13 6 25 8 35 13 11-5 4 0-10-4 21-7 38-13 55-21 22-11 30-25 3-19"/><path fill="#E04E23" d="M148 282c-2 3 2 10-6 10 6 3-1 3 5 5-15 4-27-6-40-8-5 1-7 2-9 4 1 3 5 7 5 12-3 4-7 8-11 2 3 4 4 8 6 12 10 7 15-3 23-3 8 2 12 7 15 10 10 3 17-2 26 2 1-3-2-4 3-7 11 4-1 11 6 8 6 3 9-1 12 1 3-10 9-28-7-21-7-12-16-21-24-27"/><path fill="#FA812E" d="M313 231c-14 0-26 7-25 23 3 12 9 21 12 32 10 2 17 0 27 3 3-23 15-32 19-51-4-9-20-6-31-6"/><path fill="#F97B30" d="M101 237c-8 6 7 12 4 19s-8 11-12 14c3 3-2 7 2 8-3 7-11 3-7 0-4 2-5 4-6 6 7 7 6 17 12 23 4 4 6 0 7-1 1-7-5-9-6-13 19-11 34 9 49 3-2-4 4-9 3-14 12 3 22 13 28 24 1-4 6-5 14-4-5 1-10-2-14-2-17-21-41-38-58-57-5-3-9-6-13-6"/><path fill="#DF5422" d="M348 128c10 11 19 27 21 40-9 0-12-2-18-1-4-5-8-9-11-14-1 6 3 9 3 13-9 1-16 3-22 5-9-10-15-19-20-28-4-1-5-4-7-1 6 10 13 20 19 29-5 6-8 5-12 8-7-6-15-24-21-19 6 7 12 13 16 20-7 5-10 6-16 7-5-4-7-9-9-13-7 5 1 9 3 14-3 3-2 4-5 5-4 0-5-3-7-4 0 3 2 6 4 8-4 0-3 7-6 7-3-5-13-4-12-9-8 2-6 4-3 8-17 7-15-4-27 6 2-1 3-2 5-1 5 6 5 9 4 16 1 13-14 9-12 18l-2-3v2c2 3 5 7 10 5 3-4 1-14 10-16-3 1-5-2-5-4 4-4 7-5 2-9 6-3 11-4 16-2 4-7 6-7 4-13 5 2 7 5 10 7 9-2 10-6 6-12 6 6 8 3 12 1 2-5-2-6-2-9 3 2 6 3 8 5 13-6 17-9 29-13 4-6-2-11-4-15 7 4 9 11 15 13-6 6-12 13-13 16 32-9 8-15 43-21 12-6 44 3 44-4-5-4-5-6-6-8 1 2 1 4 3 4-2 1-6 1-7 2-3-7-2-15-8-18 3 5 4 11 6 17-4-1-10 1-11 2-11-14-11-32-24-41"/><path fill="#361224" d="M186 331c7 11-2 15-3 21-15 18-26 36-44 50-6 4-9 8-14 8-7-3-12-8-14-12 14-9 28-19 39-31-12 7-33 10-35 20-5-8-16-11-20-18-4-11 2-21 2-31-2-1-4 0-5-1-3 5-5 11-7 17-1 9 1 14 3 19 21 9 15 33 34 40-4 0 29-15 49-19 2 1-6 6-9 9-11 5-12 6-2 1 42-31 51-40 23-75"/><path fill="#1E3058" d="M520 341c-6 0-8 6-13 9-8 0-3-10-14-3-16 1-30 13-40 18-5-6-2-16 4-22-8 7-14 17-17 26 3 12 14 13 21 17 8-3 14-6 20-9-6 3-13 5-16 0 3-3 12-9 17-10 13-5 24-8 37-6 7 1 13 3 16 8 1 8-4 11-5 16 1-12 38-47 6-13-3-11 12-14 7-23-22-16-15-1-25-6"/><path fill="#FA8A30" d="M374 173c-11 0-22 2-31 5-19 5-1 10-35 17 2 2-4 8-5 15 14-20 159-20 83-39-6 1-8 1-11 1"/><path fill="#222F53" d="M212 407c0 5-27 29-7 48 7 0 11-4 11-7 4 2 8 4 11 5-1 4-8 6-7 8-6 2-8-1-12-2 12 4 27 11 40 12 11 1 20-1 27-4 13-21 34-10 43-29-14 14-39 8-56 19-5 0-6 1-7 2-4-3-5-5-8-4 3-1 4 1 5 3 3 5 0 11-5 9-8-5-6-8-9-14-7-1-15 1-19-6l-3-2 1-1h-1l-1-2c-3-10 5-16 7-24 0-6-6-6-8-10"/><path fill="#3A506B" d="M58 329c7 16-5 21-1 37 4 17 7 21 8 30 6 9 11 7 13 12-2-4 10-6 14-8-5-15-1-7-10-11 0-7 7-7 8-3-1-13-13-24-5-39-6-9-15 1-23-2 0-5-3-9-2-13"/><path fill="#2C1C3A" d="M419 257c7-2 13 19 8 22 1 7 0 15-7 18-5 3-10 3-14 0-7-6-8-15-7-21 10-6 13-1 15-12-10-6-7-1-19 3-6 2-2 27-7 14 1-5 1-5 2-2-2 9-2 16 2 22 5 6 9 10 14 12 9 2 16 0 23-2 8-7 10-14 12-21 1-8-1-13-3-18-4-9-11-14-18-15"/><path fill="#2C3A5B" d="M59 326c5 14 0 17 1 15 12 2 22-1 23 6 1 2 2 6 1 8-1 7 1 12 2 18 5 5 7 15 1 18 6-5 1 7 7 8-8 1-14 10-19 6 6 1 12 11 16 12 0 6-3 0-2 5 10 5 17 1 27 3 10-4 23-8 28-14-6 4-17 5-25 2-17-10-12-32-31-38-3-7-5-12-5-18 1-17 15-20 11-25-5-4-1 8-5 9-11-6-23-12-30-13"/><path fill="#7C201B" d="M312 311c-1 5 0 11-2 16 0 10 6 18 3 24 3-2 8-1 13-1 5 2 11 5 12 9-3 6-23 8-38 15-7-4-18-3-28-2-2 3-2 4-1 7 9 1 18-4 25-1-12 9-17 9-17 19 7-2 17-8 21-11 5-7 12-8 15-15 8-3 15-2 19-7h3l1-1v-1l-1-2c2-4-2-5-4-7 9 1 10 9 14 13-1-12-13-59-11-44-10 5-15 0-23 2-2-4-2-8-2-12"/><path fill="#FA802C" d="M349 129c2 8-9 9 0 16-5 5-7 6-10 7-3 0-2 2-3 2-11-3-5-11-7-16-1 2-22-3-30 4 7 7 13 18 20 26 8 0 15-2 21-1 2-6-5-9-3-14 7 4 10 9 13 14 32 11 8-25 1-35"/><path fill="#F8832E" d="M412 244c-12 1-13 11-24 14-5 7-21 31-5 27 6-10 7-19 15-25 6-6 12-7 19-6 10 1 19 7 22 16 6 10 5 22 1 30 5 6 10 2 12 0 3-6 4-10 3-15 0-10 0-19-3-27-9-17-22 1-39-13"/><path fill="#35324D" d="M371 399c0 6 5 5 10 8-9 3-14-1-22 0-4 2 12 2 9 11-26-15-39-13-5 16-5-4-6-5-7-6 10 2 18 3 27 4 17 1 32 0 47-4-13-3-25-8-36-13-9-4-15-10-22-14"/><path fill="#4886AC" d="M506 307c-13 3-23 9-30 12 13-3 23-14 39-11 7 2 11 5 16 8-2 2-3 4-4 4 4 4 9 8 7 12-11 3-13-11-24-7-22 13-76 17-27 21 14-6 29-5 51-7 5 3 9 6 11 8 3 11-8 14-8 20 3-3 6-2 12-14 0-14-10-32-11-33-6-5-12-12-21-12-5-2-6 0-10-1"/><path fill="#ECF8F1" d="M302 198c-4 4-9 8-13 12-5 9-8 16-11 23-4 7-4 2-6 0 6 9-18 15-22 25 5 1 17-8 23-15 1 16-2 27-6 40 3-4 3-4 5-6 4 2 6 5 9 7 1 1 7-8 9-4 3-13-6-22-6-34 11-16 8-36 21-48"/><path fill="#1E294D" d="M336 426c-1 14-18 14-9 30 0-3 4-3 6-4 6 0 10 2 14 5 3 6 2 11 1 15-5 6-10 2-14 1 2 2 5 3 7 5 15-2 29 3 40-2 17-13 18-7 31-26-16 6-31 16-49 14-7-4-13-5-18-9-7-9 1-29-11-28"/><path fill="#B6E7E5" d="M500 250c-4 3 1 5-7 7 5-2 8 4 10 7-5 9 0 17-2 25-7 3-8 11-12 11-2-8 2-10 6-12 1-7-2-9-3-13 0 2 2 4 3 5-11 7-14 2-19 7 4 8-2 20 4 28 12-7 26-8 34-15-5-8 0-20-7-30 7 6-1-9 5-8-2-7-8-7-11-12"/><path fill="#F7C26F" d="M386 188c-10 1-16 8-24 4-15 4-23 10-35 12-7 2-14 2-17 6l-1 2h-3c-1 0-7 1-4-4-2 4-6 7-4 13 4-1 9-1 12-3 0 0-1-3 0-5 5-6 9-8 14-9 6 1 11-1 15 2-3 10-12 6-16 10 12 8 24-5 36 0 7-12 47-28 30-27"/><path fill="#FA7528" d="M269 251c-15 9-27 23-41 34-4 4 0 7-2 11 13 1 22-2 34-3 0-15 9-26 9-41"/><path fill="#6CC9DF" d="M503 308c7 0-2 10-2 13-4-1-5-4-7-1-1-5 1-7 3-8-13 5-28 9-34 24 12-4 16-1 29-2 2-8 9-10 17-9 28 16 23 1 17-13-8-4-14-4-22-3"/><path fill="#D65023" d="M227 337c7 7-4 6 11 11-35 13 25 10 31 19-10 1-25-4-40-5 6 8 32 7 49 8-4 0-2-2-4-3-9-3 0-5-10-6 11-3 18-1 26-3-20-6-39-15-61-20"/><path fill="#D4E9DE" d="M372 280c-6 12 5 22-1 32-2-9 0-3-7-5-4-3 1 5-5 8-5 0-7 3-11 3-1-9 2-6-1-13-1 0-4 0-4 1-2-3-1-9-3-11-4 14 5 23 2 36 15-4 29 7 43 1-3-8-8-14-10-20-4-12-2-20-2-31"/><path fill="#B93A1E" d="M224 366c-4 1-8 3-10 3l-1 2 1-2c3 0 4 1 6 5-15-1-4 24 9 18 14 0-13-4 6-9 13-3 27 0 38-3-2 1-4-1-3-4 0-5 1-6 6-5-18-1-36-1-50-6"/><path fill="#CEBFAA" d="M291 282c1 6 8 10 8 17-66-21-6 8 10 51-4-15-2-28-2-39-3-12-10-20-16-27"/><path fill="#FBF9F0" d="M328 205c-1 1-3 0-4 1-6 1-11 3-13 5-1 9 6 2 8 5-7 4-14 5-20 7-3 3-3 6-4 9 6-1 12-3 17-5 9 6 27 0 37 5 21-26-16-6-25-15-6-5 9-4 12-7 0-6-4-2-6-5"/><path fill="#6B9CA6" d="M183 218c-2 11 6 23 8 36 13 6 18 19 29 22-1-12-6-25-11-35-8-5-15-10-23-13-4-3-2-6-3-8"/><path fill="#B33A24" d="M240 215c-2 2-5 0-7 1 0 5 5 6 5 11-11 4-13 13-12 19 6 3 11-10 13 0-4 8-13 10-19 7 9 4-6 8 7 16 10-6 14-14 22-25-3-6 0-13 3-16-3-1-6-2-7-5-6-6 5-10-4-7"/><path fill="#D55326" d="M253 306c13 14 19 24 32 36-57-44-48-9 9 10-1-9-15-20-8-24 5 2 9-1 12 10-6-16-13-20-23-31 4 2 3 9 7 13-12-2-14-2-27-13"/><path fill="#3D3750" d="M466 292c-1 8-5 16-9 23-8 8-14 12-21 16-10 3-19 5-26 2-13 1-30-17-29-17 4 11 9 17 16 20 26-4 30 12 42 8 12-8 17-16 21-24 3-10 5-18 6-26"/><path fill="#7ABEC8" d="M70 301c-19-3-23 12-3 29 5 0 8 0 11-2-2-6-5-7-9-9 7-1 11 2 17 1-2-9-7-16-10-22-4 0-6 0-9-1"/><path fill="#B93119" d="M310 164c1 5 9 11 5 17-14 5-17 8-30 13-3-1-5-3-7-4 0 2 5 5 2 9-6 3-9 4-11-1-1 3 1 4 0 7-2 2-4 2-6 4-6-1-8-4-11-6-1 3-1 7-3 10 3 0 7 0 8 4-2-10 20 2 16-10 4 0 5 4 6 5 8-19 66-22 30-47"/><path fill="#B32E1A" d="M379 302c1 10 8 20 19 23 5-1 30 6 40-5-19-3-39-7-55-19"/><path fill="#5287A6" d="M506 362c-5 1-10 1-14 4 4 8 21-2 31 4 7 2 6 7 4 9-9 12-18 23-30 27-17 11-34 17-51 22 21 2 41-13 51-16 13-9 25-19 30-27-1-12 15-22-11-22-3-2-6-2-8-1"/><path fill="#B5331C" d="M185 325c2 7-3 5-6 5-16-4-25-3-43-1 0 5-4 7-7 10 19-2 35 3 52 0 5-3 5-7 4-12"/><path fill="#EFF9F6" d="M219 282c-8 6-15 11-24 15-4 7-3 11-2 17 11-2 21-9 30-14-1-5-2-11-4-17"/><path fill="#010025" d="M413 273c-16-5-17 11-8 22 6 5 14 4 17 0 6-6 5-12 6-16-4 1-6 3-8 3-6-3-9-5-8-10"/><path fill="#822320" d="M461 264c2 6 2 12 1 21-5-3-3 11-7 15s-7 7-11 5c-3-1-5-3-6-4-3 8-11 14-20 13 7 0 13 2 20 5 6-2 9-6 13-8 7 4 0 8-3 11 9-8 16-18 17-30 1-11-1-19-3-27"/><path fill="#AE351E" d="M279 388c-8 2-15 7-22 10-13-3-13-1-30 0 9 7 16 10 24 13 21-14 34-10 27-22"/><path fill="#41374C" d="M324 379c-5 5-9 10-15 14 1 5 3 8 4 11 14 11 26 3 32 18-13-13-15-25-20-41"/><path fill="#C5BCA9" d="M348 329c-11 4 1 15 0 21 5-4 14 1 16-5 7 5 12 4 18 9-3-2-7-6-9-9-2-8 2-14 8-10-11 0-21-1-31-6"/><path fill="#D35225" d="M238 316c21 9 39 18 58 36-13-4-26-8-37-15-9-6-15-12-20-19"/><path fill="#8BCBCC" d="M187 209c-3 6-3 9-2 16 8 4 15 9 21 14-2-9 2-19 5-24-9-4-14 1-23-5"/><path fill="#F9882F" d="M293 142c1 2 1 4 3 4-6-5-11 5-13 9 7 10 13 16 18 23 5-2 6-3 10-6-6-10-11-19-17-28"/><path fill="#E8FAFA" d="M65 214c2 11 26 2 35 11 15 12 32 12 43 26-8-11-19-22-31-27-14-7-28-10-42-11"/><path fill="#DF5121" d="M338 260c-4 8-7 18-9 28-12 0-18 1-26 1l9 18c4-1 8-5 14-3 5-26 7-7 14-48"/><path fill="#902118" d="M298 197c-4 7-14 6-16 15-5 1-4-4-8-4 3 11-15 2-15 7 6 13-19 16-8 30-8 10-16 17-24 24-3 0-3-3-6-4 2 3 3 6 4 9 23-26 52-58 70-73"/><path fill="#678C95" d="M48 264c-2 12 1 21 1 31 10 1 18 2 27 2-1-4-3-8-4-11-8-5-15-8-22-13-2-3-3-4-2-7"/><path fill="#7EB8C0" d="M323 100c-2 1-4 0-5 1 0 6 5 6 2 12-4 2-3-7-7-1 1 5 5 9 8 14-5-3-8-8-12-12-7 6 6 12 8 18 1-3 2-5 4-5 6-5-4-8-1-13 4 3 7 3 9 5 3 1 4-1 5-1-1-3-3-5-4-8 7 7 12 6 15 11-2-2 0-4 2-4-2-9-20-18-13-8-5-3-16-8-10-9"/><path fill="#B9361B" d="m331 285-3 18c-8 0-11 5-15 7 1 3-1 8 0 12 8 0 14 5 22 0-5-13-2-32-5-33"/><path fill="#AFE9E7" d="M66 219c1 5 1 10 3 14 18 14 27-11 42-1-12-10-29-12-43-12"/><path fill="#B1C3B5" d="M209 316c3 9-11 13-18 16 1 6 1 12 4 16 7 2 10-4 18-13 2-3 4-6 3-10-2-2-4-3-5-6 7-2 7-2 0-2"/><path fill="#B9BCB6" d="M513 258c-6 10-2 15 0 31 6 6 1 21 17 21-4-18-11-35-18-51"/><path fill="#F6AE6D" d="M338 126c-4 1-7 3-10 5 8 8-2 17 5 23 3-4 10-2 12-7-6-8 13-21-7-22"/><path fill="#4C4159" d="M395 288c1-3 1 1 3 0 4 9 14 13 22 12-1 9-8 7-12 9 15-3 10 4 14 2-3 5-9-1-14 2-6-2-26-21-12-24"/><path fill="#749CA3" d="M232 177c-9 4-16 8-25 4 7 2 8 11 14 18 15-3 27-9 11-22"/><path fill="#F9812E" d="M357 131c7 11 9 24 17 35 1 1 7-1 9 2 0-9-2-17-7-25-7-4-11-10-17-11"/><path fill="#608EA5" d="M252 295c-2 11-11 4-16 2-1 4 0 7-1 11-19 6-14 28-28 35-3 10 0 13 1 20-9-10 16-24 15-38 10-18 31-20 35-30"/><path fill="#A5CFC4" d="M201 185c-4 7-6 7-9 16 5 7 11 13 20 12 1-2 5-4 7-7-5-2-13-13-15-21"/><path fill="#CE4B22" d="M253 306c14 9 25 16 26 14 14 17-9 0 15 27-20-12-26-24-39-37"/><path fill="#6997A1" d="M316 103c2 7-9 8-10 14-8 3-14 6-22 5 1 6 2 11 6 14 6 0 14-11 24-2 0-6-5-11-8-16 9-14 22-1 10-14"/><path fill="#D85826" d="M293 379c-18 2-35 5-54 3-5 1-7 3-10 4 2 5 5 2 8 4-6 1-8 5-12 3 24-4 49-5 71-13"/><path fill="#F97828" d="M278 160c-3 4-4 8-6 12 2 6 4 10 6 15 8-2 12-3 17-7-5-7-9-13-15-17"/><path fill="#DCE6D4" d="M273 277c-4 3-6 9-7 14 17 1 25 12 32 4 0-4-8-8-7-16-2 0-7 3-9 7-4-3-6-5-7-8"/><path fill="#EA762F" d="M221 209c-4 3-7 6-8 10-2 8-2 16 1 20-3-8 16-3 12-14 1-8 0-11-4-16"/><path fill="#D1795C" d="M113 319c-4 6-2 22-1 23 5 0 11 0 17-3 2-3 3-4 4-5 2-7 1-7 2-1-4-8-19-4-23-12"/><path fill="#F48131" d="M283 215c-21 19-38 39-57 59 20-10 35-32 49-46 3-4 6-7 7-11"/><path fill="#C0E2D8" d="M222 302c-2 0-4 2-5 3-8 5-14 8-20 10-7 1-5-4-6-6 3 7 0 14 1 22 15-1 14-15 21-15 2-3-1-7 1-10 6 1 8 4 9 7 1-4-1-6 0-10"/><path fill="#5C5666" d="M317 410c1 2 2 5 4 7 14 7 15 9 31 13-4-7-9-9-13-16-5-2-15-5-19-2"/><path fill="#74ADB4" d="M188 245c6-1 12 0 17-1 6 1 2 5 6 5-2 2-3 4-5 4 4-1 6 4 8 1-5 6-13 3-19 3-3-4-5-7-6-9"/><path fill="#9A3326" d="M130 364c15 5-10 14-17 14-7 2-7-2-11-3 8-5 18-7 27-9"/><path fill="#5587A2" d="M332 453c4 8-8 8-1 15 2-1 10 6 14 3 3-3 4-7 2-11-5-5-9-7-13-7"/><path fill="#354D72" d="M205 397c3 4 9 8 11 13 6 2 21 10 32 4-17 1-24-20-40-15"/><path fill="#C46D54" d="M447 316c-7 4-14 9-21 11-15-1-27 3-36-6 10 7 21 12 34 12 11-2 27-10 26-18"/><path fill="#ABC9C0" d="M64 248c-22 11-1 14 11 18 4 0 5-2 6-4-5-21-12 4-19-13"/><path fill="#7D211D" d="M389 283c-24 2-12 26-1 39-5-6-9-13-10-20 16-4 21 13 33 13-8 0-13-7-19-12-4-8-5-14-4-21"/><path fill="#F78A31" d="M512 255c9 7 12 25 21 28 1-5 3-11 0-15-6-8-13-11-19-13"/><path fill="#711E1C" d="M298 391c-11 11-25 17-38 23 7 5 13-2 22-4 1-4 31-10 13-16"/><path fill="#F8B966" d="M258 247c-9 13-21 20-33 29-1 5 1 6 0 10 12-11 70-57 22-21-1-8 7-12 9-15"/><path fill="#C84A26" d="m302 354 1-2c7 3 15 1 22 0-5 7-18 7-22 7 0 1 5 2 1 8-9 1-13-10-4-13"/><path fill="#030120" d="M173 390c-12 14-33 10-46 22 8 2 14-1 23-4 8-4 17-7 22-16"/><path fill="#75B9CA" d="M491 258c-3 2-6 4-4 8 3 10 7 9 12 8 0-3 5-4 3-8-1-5-5-10-10-8"/><path fill="#92CCCD" d="M51 260c-2 3-3 6-2 11 8 5 15 9 21 13 2-3 2-6 4-7-9-7-21-7-25-15"/><path fill="#0D153B" d="M505 354c6-1 12 0 17-1 7 3 13 4 14 9 6-5-58 0-34-7"/><path fill="#AFE2E4" d="M335 103c2 3 5 3 9 4 5 7 3 10 2 14 4 1 5 2 7-1 3-6-4-8-3-10 15 16 22 23 36 34-8-7-2-14-10-19-9-8 1 2-2 4-9-5-16-13-21-19-7-2-12-5-16-6"/><path fill="#AE7363" d="M372 350c9 3 13 18 16 25-12-3-12-14-18-21"/><path fill="#A75649" d="M116 346c4-4 7 1 8 4 2 5 1 11-4 11-4 0-9 0-10-3 1-6 4-9 6-11"/><path fill="#77B1B8" d="M189 246c1 3 3 5 4 8 8 2 15 5 20 3-1 0-4-4-8-2 6-4 4-6 2-9-6 0-11 0-16-1"/><path fill="#9D3526" d="M132 366c-10 2-20 5-29 7 4 2 4 7 7 5 9-4 26-5 24-13"/><path fill="#B1BAB0" d="M259 170c-4 2-7 7-10 9-7 0-10-3-13-4 3 6 6 10 10 13 5-6 20-9 14-17"/><path fill="#525164" d="M356 426c6 10 17 8 27 10 14-1 31 4 35-6-19 5-41 4-61-2"/><path fill="#F7F8F9" d="M420 263c-5 1-6 6-7 9 1 5 5 7 8 6 6-1 6-6 7-8-1-6-4-7-6-8"/><path fill="#93AFAF" d="M68 232c2 5-2 7-1 8 6 6 4-3 9-1 1 9 11 9 17 14l-1 3 1-2c-11-9 3-6-5-15-6-3-12-3-17-5"/><path fill="#5B8A9D" d="M71 318c2 2 5 4 7 7-1 5-3 6-6 5 5 3 11 4 17 5 1-6 1-11-2-15-4 4-10-1-15-1"/><path fill="#C8E0DA" d="M73 242c-2 2-9 8-8 12 9 3 4-4 7-4 9 0 5 15 15 8-1-8-14-11-13-17"/><path fill="#040122" d="M351 367c4 8 5 19 14 25 4 4 7 5 10 7 13 14 24 17 39 22-12-10-27-10-37-22-11-12-21-17-23-30"/><path fill="#AFE1E1" d="M51 260c-2 9 16 8 21 14 4-2 3-5 4-7-8-3-15-4-22-7"/><path fill="#F27433" d="M266 180c-1 3-3 6-5 8-1 5 1 7-4 9-3 2-6-4-7-2 2 5 8 4 8 9 4-1 3-5 6-6-1-3-2-5-3-8 5 4 10 4 11-1-1-3-1-6-3-8"/><path fill="#F8B054" d="M113 239c15 13 29 29 46 43-10-17-27-32-45-41"/><path fill="#D55C37" d="M99 323c2 4-1 10 1 14 2 1 4 2 7 1 6-2 2-7 4-10-3-5-7-3-10-4"/><path fill="#89ACAC" d="M265 147c-5 5 0 12-5 21 2 1 5 0 5 3 2-3 10-9 1-14 5-6 7 7 8 1-3-4-5-7-7-11"/><path fill="#B23522" d="M511 254c9 15 15 32 21 49 1-5 3-9 2-15-11-8-13-23-23-32"/><path fill="#B12F1D" d="M447 244c5 9 9 18 10 28 0 13 2 26-7 32l-2 1 2-2c8 0 5-22 11-16 0-7 1-13 0-17 0-9-5-16-13-24"/><path fill="#E0F8F9" d="M326 99c8 4 18 6 27 10 6 8 14 14 19 20 0-8-4-13-11-16-11-8-22-11-33-14"/><path fill="#AF6E5E" d="M371 352c2 7 8 18 13 24 1-9-5-18-9-25"/><path fill="#CD4F28" d="M303 354c-9 0-10 13 0 13 5-9-6-1-3-8 7-1 19-1 25-5-7 0-14 2-21-1"/><path fill="#B63B1F" d="M223 340c-3 6-5 12-6 16 11-6 27-5 5-14"/><path fill="#3A2E46" d="M90 241c3 4 7 8 5 15-3 1-7 3-8 4 3-1 6 4 9 2 8-2 6-7 5-9-2-6-5-8-9-12"/><path fill="#6297AB" d="M217 408c5 6 9 12 17 11 11 2 18-1 27-2-10-2-19 0-28 0-8-1-11-5-15-7"/><path fill="#240E1D" d="M292 271c2 20 8 12 16 40 0 14 1 26 4 37-3-15-3-23-1-37-4-14-15-25-17-38"/><path fill="#CE856B" d="M248 215c-2 2-6 4-3 6 2 5 6 4 9 6-2-2 4-5 2-9-1-4-4-3-7-3"/><path fill="#8CD0DA" d="M382 130c1 3-2 7 2 9-2 5-3 2-4 0 5 10 10 14 17 24-5-12-6-20-14-31"/><path fill="#F17C33" d="M221 358c1 1-2 3 2 4 15-4 33 6 48 5-16-3-31-9-49-9"/><path fill="#DFB798" d="M363 291c2 14-14 13-16 24 10 3 9-6 15-9 0-6 4-9 2-14"/><path fill="#F6E7C5" d="M361 193c1-1 3 0 4-1 4 2 7 4 6 6-2 4-4 6-6 6-7-1-10-7-5-9"/><path fill="#30264A" d="M399 287c-10 3 3 10 11 18 5 2 7 1 9-1-6-3-17-6-20-16"/><path fill="#B3685A" d="M120 349c-4 0-9 2-9 8 3 4 7 2 9 3 6-3 5-11 2-11"/><path fill="#3C1F31" d="M83 307c6 8 7 20 14 28 1-7-2-12-3-17-2-6-6-6-8-10"/><path fill="#D45828" d="M291 394c-13 5-26 10-37 18 44-9 5-9 38-17"/><path fill="#2A2E50" d="M105 233c14 6 29 17 42 28-12-8 6-3-12-15-11-4-9-1-29-15"/><path fill="#F3B16C" d="M413 237h1c9 0 19 1 26 8-18-11-8 15-28-3-9 4-9 4 1 0 3 5 10 7 14 9 6 0 9 1 9-4 7 2 11 8 15 12-2-9-12-16-20-20-7-2-12-1-16-2"/><path fill="#8DC1C1" d="M204 181c18 23-10-1 16 27 7-8-7-11-3-15l2 2-1-2c-5-3-6-11-11-10"/><path fill="#FAEECF" d="M414 239c-6 1-11 2-15 5-10 7-17 14-21 24 6-7 11-16 17-20 6-9 44-6 20-10"/><path fill="#F5D9B9" d="M448 229c8-2 12 8 18 10-3 0-7 2-8 3-5-4-5-8-9-10"/><path fill="#BD6043" d="M211 237c0 6 7 9 8 15 7 0 14 2 18-2-1-12-10 4-17-4-5-1-8-5-9-7"/><path fill="#E19B78" d="M114 319c-2 9 21 7 18 13l1 2 1-3c-2-3-7-7-7-10-4-3-7-2-10-2"/><path fill="#21122D" d="M536 280c1 7-1 11 0 18 1-2 5-6 6-3-1 5-3 8-5 11 11-6 2-14 6-20 0-6-2-4-5-3"/><path fill="#71979F" d="M266 143c0 3-5 3-3 8-1-3 0-4 2-5 4 4 7 9 11 11-1-3 2-5 3-7-4-4-8-7-11-8"/><path fill="#87B7BC" d="M283 123c-5 2-2 6 5 14-1 10-12 3-5 7-8 2-11-13-16-10 0 4-1 6 0 8 5 0 7 3 12 4l2 2v-1l1-3c2-1 4-3 6-4-2-7-4-11-4-17"/><path fill="#8A2D23" d="M242 306c-1 2-2 5-4 7 6 7 9-1 14 2-2-5-4-9-9-8"/><path fill="#210E21" d="M336 284c-6 16 1 32 4 46-2-16-5-25-3-45"/><path fill="#A8E6E7" d="M279 126c2 5 6 8 8 12-7-7-15-2-21-7 6 1 8 9 12 14 5-1 6-4 9-5-1-6-13-14-5-16"/><path fill="#344E6F" d="M217 448c0 3-5 8-11 8-1 1 10-3 13 6 9-6 10-9-1-13"/><path fill="#3D304B" d="M76 290c3 11 6 19 14 21 1-11-10-13-14-19"/><path fill="#8F8F8A" d="M262 162c-3 5-8 11-13 16 3-2 5-6 9-8 1 2 5 2 5 4-4 7-9 9-14 13-8 2-12-8-15-12 3 5 4 12 9 15 8 5 12-9 20-12 8-9-9-8-1-15"/><path fill="#F2C69B" d="M318 241c4-2 9 0 9 4-1 4-4 5-5 6-6-2-6-5-5-7"/><path fill="#B37257" d="M264 178c-6 5-12 9-16 15 7-4 19-7 17-15"/><path fill="#565057" d="M99 230c-3 3-7 5-10 8 4 2 6 6 9 7-2-1-2-3-3-5 8-5 19-5 6-10"/><path fill="#E2B08A" d="M360 303c2 1-5 12-9 14-5-6 3-11 6-13"/><path fill="#DEF9FA" d="M276 126c-20 9 5 4 8 11 0-3-4-6-5-10"/><path fill="#E45B25" d="M147 264c10 11 17 27 29 36-10-12-17-23-26-36"/><path fill="#D55929" d="M263 391c-5 2-18 2-16 6 7 3 25-6 20-7"/><path fill="#D3A685" d="M294 295c3 4 5 14 0 19-3-4-3-11-1-15"/><path fill="#412D48" d="M409 256c-6 11 10 8 13 3-4 0-5-4-11-2"/><path fill="#313B62" d="M209 369c-1 4-3 8 0 12-5-1-5-5-5-8-4 6-5 12-2 18-2-1-2-4-1-7 1 4 11 5 13 6-2-2-4-4-5-6-2-6-2-10 0-13"/><path fill="#C6E2E1" d="M52 297c-3 6 11 7 14 5-2-7-9-2-12-6"/><path fill="#88CBD2" d="M350 111c5 2 7 9 1 11 6 3 11 2 15 5-1-5-9-9-13-16"/><path fill="#080225" d="M100 382c4-3 7 4 9 2 4 5 1 7 2 10-6-3-6-10-11-9"/><path fill="#F9F8EB" d="M364 194c-3 1-8 3-3 7 4 1 8 1 9-3 0-5-4-2-4-4"/><path fill="#649FB3" d="M492 273c2 4 6 7 6 12-4 6-10 6-8 12 1-5 6-4 8-7 2-10 2-19-5-14"/><path fill="#EA5D22" d="M232 296c-8 0-4 9-4 14 8-2 5-8 3-12"/><path fill="#C2B5AD" d="M392 291c1 9 8 14 16 15-3-7-12-7-14-15"/><path fill="#4D526F" d="M197 356c14 7 5 20 11 28-3-6-1-13 1-20-6 0 1-11-10-8"/><path fill="#858995" d="M426 431c-6 2-11 0-12 5 16-1 25-1 14-7"/><path fill="#15041B" d="M438 290c5 4-5 19-12 21 4-5 10-10 11-18"/><path fill="#27112B" d="M222 398c7 10 22 15 34 16-11-2-21-8-31-15"/><path fill="#62585D" d="M211 216c-2 5-4 11-4 16 1 3 1 4 1 5 7 13 12 26 15 37-5-13-5-24-13-34-1-9-2-15 1-22"/><path fill="#38314E" d="M334 119c-21 18 5-1 13 5-2-2-7-4-11-3"/><path fill="#B0DEDB" d="M191 201c-1 3-1 5-3 7 4 3 8 5 11 5-1-5-4-7-6-9"/><path fill="#4A7798" d="M248 456c-5 0-5 4-4 8 4-1 7 1 7-3 2-2-1-3-1-5"/><path fill="#979892" d="M198 347c-6 4 0 9 6 8 1-2 0-4 1-6-1 1-4-1-6-1"/><path fill="#121B42" d="M471 367c10-1-9 10-14 6 4-2 7-4 12-5"/><path fill="#060020" d="M326 377c2 9 5 17 8 26 1-9-4-16-6-25"/><path fill="#EE843C" d="M293 382c-18 7-47 5-52 14 17-6 33-7 49-13"/><path fill="#5F566A" d="M77 268c1 3-2 5-1 8-1 7-4 12 0 16-2-4 2-11-2-14 4-1 3 1 6 2-2-1-2-3-3-5 2-1 4 1 6 1-3-9 11-7-5-7"/><path fill="#A63A2D" d="M100 339c-6 9 15 7 10 2-1-3-6 0-9-2"/><path fill="#654E52" d="M380 202c-7 5-14 12-20 19-6 4-8 14-13 22 7-12 16-29 32-40"/><path fill="#F6A247" d="M306 212c9 4-3 10-7 8 1-3 3-5 5-5"/><path fill="#F8A655" d="M191 298c0 7-13 2-15 7 3 3 6 2 9 1 2-3 6-3 6-5"/><path fill="#2C1E34" d="M86 261c-13 11 10 0 8 6-1-2-5-9-6-5"/><path fill="#C28262" d="M215 308c6 8-3 12-2 13 7-1 8-8 6-11"/><path fill="#E7AB7F" d="M361 304c-5 2-10 4-13 10 8 2 6-6 12-8"/><path fill="#F2B064" d="M151 263c6 9 13 17 18 26-3-5-7-20-17-24"/><path fill="#6A5964" d="M245 191c-6 2-11 5-16 8 7 0 14-5 18-7"/><path fill="#D2F9F7" d="M487 303c2-1 5-1 7 0-2 6-12 9-8 2"/><path fill="#856D76" d="M86 269c-4 4-5 3-1 7-4 0-6 0-6-2 0 3 0 5 1 7 3-4 11-9 8-12"/><path fill="#D07B5C" d="M232 222c-5 2-1 11 4 6 1-4 0-6-3-5"/><path fill="#F69653" d="M110 260c4-3 10 5 3 6-3 1-6-1-3-4"/><path fill="#7D2C2B" d="M220 339c-4 5-6 11-5 18 2-5 3-11 6-17"/><path fill="#A9C2BF" d="M73 242c-2-5 9 6 15 15 4-8-15-8-11-18"/><path fill="#F0925E" d="M257 190c-2 1-9 3-3 7 5 0 6-4 4-6"/><path fill="#79292F" d="M526 291c4 6 4 19 8 21 4-6-2-10 1-16-1 3-1 6-2 9-4-5-5-9-6-13"/><path fill="#ED7836" d="M269 364c7 4 12 7 24 5-5 0-15-3-22-5"/><path fill="#F3A063" d="M91 272c-4 2-3 7-3 9 8 0 3-6 4-8"/><path fill="#040023" d="M101 383c2 1 6 6 7 11 4-8 0-9-4-12"/><path fill="#271422" d="M222 280c1 9 3 22 3 33 1-11-1-21-2-32"/><path fill="#EA702E" d="M240 199c-4 2-7 3-11 5 3-3 18 1 12-5"/><path fill="#2D2039" d="M369 399c4-2 7 4 10 5-4 3-9 0-8-2"/><path fill="#26142A" d="M211 364c-1 4-2 9-3 13 1 7 4 11 7 13-8-6-3-16-3-24"/><path fill="#F9F4E5" d="M416 243c-1 3 8 3 10 5 0-5-5-4-7-6"/></svg>