<svg xmlns="http://www.w3.org/2000/svg" width="600" height="600"><path fill="#A08795" d="M298 126h2c14 9 28 19 40 31 7-6 9-23 17-24 12 15 20 28 26 42 4 13 7 24 8 35 3 4 5 5 7 8 2-9 5-17 6-25 7 3 10 7 13 12 2 39 31 64 31 101 0 18 1 33-4 47-6 12-13 22-24 29v3-2c3-1 5-1 6 2 3 5-2 8-5 6-2 5 7 6 5 13 9 6 6-1 13-4 5 3 3 7 4 8 8-6 11-14 20-11 4 3 6 6 8 8 12-13 15-29 22-44 4 4 1 9 2 10 3-5 5-9 12-7 0 18-19 22-25 37 4-1 7 2 10 3 7 4 6 10 8 15 92 6 29 33-24 32-39 5-79 11-121 11-6 1 8-1 4 6-49 7-100 4-149 3-18-1-35-1-48-6 26-7 50-8 76-7-48-4-98-3-146-6-7-2-14-1-17-4 12-3 16-12 27-11-28-12-59-11-87-15 14-7 29-7 41-11-1-4-7-6-8-11-2-6-1-10 2-14 5-1 8-1 11 0 7 5 7 12 8 19 4 3 6 4 9 5-10-9-16-25-18-39-4-6-9-9-12-13-2-5-5-8-1-12 10 3 11 11 21 15 2 8 1 14 5 18 4 7 7 13 12 16 9-3 10-13 19-14 7 4 12 1 17-2 8 5 11 13 19 13 11 2 14-14 26-8 1-6-4-1-4-7 8 0 4-16 8-21-2-7-6-9-8-13-21-10-43-15-61-26 5-5 12-7 18-9-13-10-24-22-34-35 4-8 15-4 21-4-9-15-14-32-20-49 2-10 12-2 16-1-2-10-5-21-5-32 11-1 18 12 24 19 15 23 25 46 38 65 5-19 16-35 29-50 7 6 7 16 6 27 9-1 17 0 25 0-11-20-16-41-21-62 25 0 45 7 64 16-3-13-8-25-7-38 15 2 26 6 37 13 3-15 4-32 3-49"/><path fill="#F4E7DC" d="M334 196c-4 6-10 4-17 4-11 11-17 16-25 20-14-6-26 5-30 18 3-7 9-12 15-15 11-1 20-1 25 7 6 7-2 11-2 15v3l1 2-1 2c-9 3-17 4-15 14 5 3 8 10 14 12 0 2-3 6-1 7 12 2 10 5 19 7 8 7 12 14 14 21 2 8 2 13-1 17-5 10-13 13-21 12-1 3 2 4 2 6 12 10 27 9 40 13 18 3 33 2 50 3 10-1 17-3 24-7 6-5 8-10 13-13-8 16-5 14-10 25 10-9 16-21 16-35-3-4-2-7-3-8-1 1-2 2-3 4-6 1-9 1-10-3-2-7-3-13-2-19-13-1-29 2-45 6-2-3 0-4 0-5-5 0-6 4-13 2-7-1-12-5-16-7-24-18-35-44-50-57-1-5 1-7 2-10 11-3 18-9 25-13-1-7 5-12 5-19 5-4 11-2 13-1-2-2-2-5-3-7-4 0-6-1-7 0"/><path fill="#FBF6F2" d="M387 214c-2 5-7 9-12 5 0 11-11 13-13 23-13-7-25-6-33-16-55 17 0 40 9 67 13 10 21 17 37 18-1-7-3-15 2-19 4 1 6 1 6 3 3 8-2 11-2 17 11-1 19-4 30-5 6-1 2 3 8 2 10-1 6-17 13-24 5-2 7 2 8 4-3-18-10-31-19-44-10-13-19-22-30-30"/><path fill="#2E4865" d="M367 408c-5 1-9 2-13 3 5 0 8-3 14-2 2 4 3 8 5 11-27 3-48-4-62 2-4 8 1 15 0 23 4 0 15 3 9 5-34 0-88 6-115-4 7-7 41-4 62-4-18-12-17-20-22-24-9-3-14 2-21-1 7 1 13 5 20 5-9 6-19 6-31 8-3-2-1-2-2-4-4 12-14 11-21 11-6-9-14-17-16-27 1 5 6 15 3 16-18 5-33 7-47 17-1 4 13 1 10 5-19 1-39 4-55-1 93 2 189 8 288 4-16 0-31 1-45-1-1-2 4-2 5-3 28-2 48 6 76 3 112-3-16-13-21-14-13-8-17-18-19-28"/><path fill="#B57F8D" d="M249 300c-3 2 0 7-2 10-23-8-19 9-12 22 10-1 14 8 21 7 6 13 3 26 13 34 7 14 16 4 24 9 6 2 4 8 4 9 21 6 44 5 63 7 10-1 19 1 26-4 9 0 16-4 22-8-6 4-13 5-19 8-28 2-52-7-82-4-15-7-23-21-26-34-5-10 5-14 0-24 12 2 10 12 10 1-5-3-6-12-13-17-10-10-19-6-27-7-2-3-4-5-3-8"/><path fill="#B94768" d="M105 221c1 3 5 6 3 10-26-7-4 27 4 41-8 2-16 0-24 0 7 8 14 15 20 23 9 8 20 13 31 15-6-6-20-8-26-13 5-5 10-2 7-10 11 0 14 3 21 9 3 2 3 4 6 3 0-3-3-4-4-2 6-6-7-15 0-18 8 8 15 12 21 15-8-17-18-41-36-60 0 3 5 6 0 8-9-5-13-16-22-19"/><path fill="#A33B59" d="M191 259c2 7-3 11-4 16-4-2-3-5-4-6 1 2-1 2-3 2-3-2-1-3-3-5-3 1-1 4-4 7-5-6-6-4-8-9-7 22 2 18 1 32-8-4-15-8-22-16-3 5-2 8 3 13-10 7-15-9-24-4-1 6-7 6-12 9 20 12 18 16 25 23-1 6-7 4-10 3 7 5 18 6 29 11-2-4 4-7 1-13 5-1 5-1 9 0-2 1-3-11-7-4 1-4 1-7 3-9 5 2 6 7 9 11 4 1 5-2 7-2 9-18 13-37 15-56"/><path fill="#5E3F51" d="M241 359c1-1 8 0 3 2-11-2-17 3-23 10-2 14 12 12 17 19 1 5 2 7 1 11-3 4-5 6-10 3-41-43-19-32-11 15 5-7 16-2 25-4 1-20 8-36-2-52 5 8 10 14 10 23 2 0 4 0 6-1-3 8 30 25 42 34 0-5-3-11-10-14 18 2 37 4 56 3 14-1 24-4 33-8-12 2-24 4-36 5-24-2-44-9-62-13-19-8-26-28-37-34"/><path fill="#CB95A5" d="M265 210c-3 4-8 7-11 12-8 8-10 20-16 25 3 11-2 20-3 24 3 7 11 3 13 12 4 10 0 17 1 24 10 1 12 0 23 2 5 4 11 7 13 14-1-10 1-20 8-26-2 1-4 0-6-2-6-10-12-21-19-29-7 0-7-14-14-3 5-7-3-6-4-11 7-6-3-10 7-16-1-6-1-10-5-12 5-6 8-9 11-13"/><path fill="#C59FA0" d="M284 342c-11 9 3 17 3 29 7 8 13 14 21 17 34-3 53 8 77 5 15-3 25-7 34-15-5 3-10 6-16 7-14-1-26-2-36-4-24-6-45-11-62-17-6-5-8-4-11-8s0-8 0-11c-3 4-5-3-8-2"/><path fill="#64AECC" d="M168 375c1 2-1 7 0 10-6-2-10 0-13 1-3 2-5 7-8 8-14 2-16-6-24-13-7 4-11 4-16 2 6 6 9-1 14-1 6 8 15 11 20 15-7 2-13-2-17-6-20 6-20 2-39 10 2 4 13 11 8 12-14 1-16-4-23-2-5-6-7-14-13-18-1 8 9 10 10 18-3 1-5 2-8 3 11-4 21 2 31-1 7 2 11 3 16 3-28-3-31 3-44 4 9 3 0 1 32 3-6 2-8 3-13 2 8 5 16 3 23 5 0 3-17 0-8 3 9-3 23-1 32-2-4-2-26-4-22-9 25-3 45-2 68-3-12-3-27-2-39-4 11-4 29 0 38-5-22 0-44 0-62-3 7-6 20-2 29-7 3-1 5-2 7-1-1-1-2 0-3 0 8 0 6-14 15-12 4-2 4 0 7-1-1 4-5 4-1 9-6 3-13 1-16 4 7 3 14 4 20 3-3-5-2-12-1-16 4 6 3 12 4 17 3-13-5-17-4-27"/><path fill="#9F7C8E" d="M201 320c0 5 0 12-3 17-6 0-11 0-14-2 0 3 3 6 1 10-3 0-3-2-5-2 3 12-4 26-4 40 4 17 1 31 10 42-1-5-4-10-3-16 4-1 5 0 6 3 3-4 3-7 5-10 6-5 12-2 15 0-1-18-10-31-19-39 3-15 17-4 25-26-6-1-14-11-11-15"/><path fill="#59293E" d="M307 292c-6 1-12 3-15 9-4 7-6 13-5 21s5 13 11 15c6 3 10 4 16 3 6 0 9-3 13-6 2-8 3-13 2-19s-3-11-6-15c-5-6-10-7-14-9"/><path fill="#D66374" d="M313 147c-9 14-16 29-17 38 3-4 4-12 6-19 4-7 10-2 16-2 3 7 10 7 20 19 2 4-2 4-2 5 6 5 9-2 11 4-2 1-5 2-7 0 7 3 15 3 22 4 5 2 7 4 11 5 5 4 9 6 13 8 0-9-4-17-5-26-4-8-8-13-14-17-7-1-12-8-20-1 9 16 21 32 29 36-7-1-9-3-12-4l-3-1-1-1-1-3c-6-5-7-15-12-20-9-4-13-2-19-13 1 3 3 5 4 7-3 2-4 1-6 0-8-5-8-11-11-17"/><path fill="#E3B9BB" d="M277 204c-16 6-9 3-23 19 3 3 3 7 3 10-15 18 2 6-7 20 3 0 4-6 6 0 13 8 25 32 34 45 9-6 17-10 20-7-2-3-5-4-10-3-5-3-3-7-2-10-6-2-9-9-15-11 5-3 0-7 3-10-4 7-13 2-17 5-12-7-2-21-7-26 4-7 7-11 10-16 8-2 13 0 19 0 5-1 9-5 12-10-9-2-15-7-26-4"/><path fill="#7FCEE7" d="M43 348c23 20 18 36 38 62-5 0-8-2-11-4-7-10-2-12-7-19-4 0-6 0-9-1-3 3-3 6-4 8l-1 1v1l1 2 1 2c2 3 9 7 8 12-15 4-28 4-42 7 30 3 59 11 87 12-38-4 0-10-48-15 4-4 7-4 9-5-2-6-13-18-13-16-1-3 0-4 3-3 5 2 11 11 13 16 6 0 17 7 25 3-9-18-12-15-23-30 0-6-2-14-5-18-6-4-10-9-15-17"/><path fill="#63A3BB" d="M438 453c-75 4-105-6-140 6-26-1-40 0-57-1 16 1 32 1 47 0-2 3-6 4-12 3 0 5 10 4 7 10 24-1 53 1 73-4-5-5-13-3-20-5 36-3 107-3 109-11"/><path fill="#DABDB6" d="M302 341c-23 15 9 26 19 26 28 9 53 16 79 17 11-2 19-5 26-11 7-7-1-11 11-23-4 5-8 10-14 13-10 6-20 7-29 9-35 1-57-5-79-8-6-4-8-6-6-8 3-5 7-2 9-1-7-3-6-9-14-13"/><path fill="#F2B1AE" d="M350 199c-1 5-8-2-1 5-4 2-15-1-12 8-3-2-3-3-3-4v3c-2 4 1 9-3 10 2 6 6 8 9 10 4 0 10 8 20 8 4-2 5-3 5-5-3-4-9-3-10-7-1-3-1-5 0-7 5-3 10 2 14-2 3 3 6 8 3 10 3-4-1-8-1-11 7 2 9-7 10 0 4-4-2-8 1-9-9-4-20-9-31-9"/><path fill="#50869C" d="M232 458c-132 4 7 18 45 11 7-2-2-4-1-7l12-3c-21 1-43 0-64 1"/><path fill="#010202" d="M194 259c3 23-11 44-11 65 7-16 29-24 38-35-10-10-19-20-26-29"/><path fill="#88616D" d="M215 338c-7 22-24 12-25 20 19 27 13 16 45 52 6-8 3-16 1-20-7-4-13-7-17-14 0-7 7-11 10-14-9-1-17-3-24-6-1-7 5-10 8-15"/><path fill="#4B7D98" d="M419 417c-1 3-4 3-2 8 10 0 18 2 27 2-71 13 25 7 42 12 8 0 12 5 10 8 16-2 30-4 45-8-12 3-31-1-41 6 1-6-2-5-7-6 7-3 12-2 16-4-17-9-44-3-65-5-2-2-1-1 1-1 7-4 17-1 20-7-17 5-25-9-46-2"/><path fill="#C7A2A3" d="M265 408c0 8 1 15 3 23 7 14 22 5 26 16 5 0 2-5 4-7 6 1 6 6 10 7-9-6-9-22-5-23-9-6-16-10-22-13-6-1-4 6-9 6-6-2-4-8-4-10"/><path fill="#993858" d="m229 336 1-2c-52 35 28 14 26 36 4-11 2-16 3-22-4 0-5 4-7 1 1-16-11-6-12-14-6-2-4 4-8 0"/><path fill="#3E779A" d="M174 408c0 10-28 3-38 7 12 2 29-2 40 4-34 3-43 1-72 4 10 4 21 4 27 8-12 2-22 2-31 2 6 4 22 5 25 2 3 2 7 1 8 4-8 1-15 2-21 3 8 4 18 2 25 6 2-1-6-2-8-4-2-5 3-3 4-4-2-2-5-9 1-12 5-1 7-1 10 1 0 4 1 6 0 7 14-8 49 0 26-29"/><path fill="#C54B61" d="M310 158c-35 50 4 27 38 34h-1l-1-1-2-3c-1-3-3-5-4-9-1 4 2 6 3 10-2 3-3 1-6 1 2-14-20-20-17-22-6-3-8-5-11-5"/><path fill="#E79BA1" d="M280 224c-7-2-21 21-11 11 2 9 5 12 7 17 10 5 14-2 22 0-2-8 8-14 3-23-6-5-12-4-19-6"/><path fill="#A53358" d="M239 213c-2 6 2 10-5 13-5 5-8-4-12 3 1 9 2 17 7 25-4-3-7-1-10-3-5 3-3 13-7 12 1 3 2 5 4 7-1 7-4 1-5 1 2 4 6 6 9 10-3-18 44-71 25-60-5-1-7-2-6-7"/><path fill="#8DCCE4" d="M179 343c-5 8-8 17-9 26-4 16 6 20 2 36-7-3-15-1-22-4 1-5 7-4 11-5 0-4 2-8 5-7-14-6-20 14-23 10-10-4-17-14-24-16-4 4 3-2 4 3-2 3-3 4-6 3 9-3 13 9 22 10-9 6-20 3-28 7 20 3 42 3 61 1l2-1h1v2c2-11-1-21-2-31 4-12 6-22 9-32"/><path fill="#93C5D3" d="M494 362c-1 2-1 4-3 4-1 17-14 29-19 40-11-2-2-10-14-8-5 4-9 7-12 12-21 3-24 2-21 7 8-1 14 0 27 1-6-5 1-9 0-9 7 4 18 2 20 3 4-2 5-7 7-9 2 3 0 7 1 9 6 4 11 1 11-4 2 8-4 10-8 11 2-1 3 3 4 1 5-3 7-6 6-10-6-5-7-9-11-6 13-20 24-38 10-36"/><path fill="#CC6580" d="M101 187c1 11 1 22 5 31 20 27 20 14 31 25-10-18-21-37-35-55"/><path fill="#342436" d="M435 366c-8 7-15 15-24 20-14 10-29 14-44 19-24 8-55 3-75 1 10 8 14 22 18 34v5l1 3-1 1-3 1c-2-1-4-5-6-6-2 2-1 5-2 7 7-2 14 1 22-3-3-1-6 0-9-1-2-3-2-4-2-5 0-8-6-15-3-21 19-4 45-13 58-14l2-1h1l2 1v2c2 10 6 19 13 27-7-9-10-18-12-28 12-8 26-12 38-20 11-6 17-13 24-21"/><path fill="#6EA4B6" d="M487 403c1 2 10 4 7 11-3 5-7 8-10 6 1-3 8-3 8-10-2 5-7 7-10 4-6-4 1-10-2-9-3 2-3 6-6 8-4-1-16 1-19-5-3 3-5 3-4 5 0-5 8-4 9 1-4 5-15 4-15 5 8 4 13 3 20 0 1 3-1 3 0 5l-1 2-1 1h-1l-3-1c-6 0-9 3-16 3 16 1 31 0 46 0-9-1-21 2-30-1 29-4 54 1 31-26"/><path fill="#232742" d="M245 415c3 10 14 21 25 27-97-8-64 14 13 8 4 1 3-7 11 3-3-3-6-4-7-7-1 4-5 8-9 4-9-13-27-17-32-33"/><path fill="#BA4364" d="M181 240c-9 2-14 21-15 26 1 4 6 3 6 5 3-2 0-5 5-6 0 16 9-6 8 9 7-8 7-17 7-26-1 5-2 10-4 14-5-5 1-20-6-21"/><path fill="#BC4867" d="M243 205c2 0 4 3 1 5-4 2-10-1-14-4-1 8-12 4-10 12-3 10-1 16 3 23-2-3-1-8-3-11 6-8 8-1 13-3 8-5 1-15 10-17 4 1 7 1 8 5-1 6-1 8-2 12 13-12 18-22-5-23"/><path fill="#AC838E" d="M252 394c-2 4-3 8-3 12 4-6 2 0 4-9 2 8 6 15 10 20-3 6 1 9-4 13 10 7 15 13 22 18 3-9 10 1 14 2l3-1h-3c-5-12-19-3-27-18-4-3-3-10-3-12l-1-3v-1h1l-1-2c2-2-1-8 4-6 0 3 0 6 3 8 6 1 2-6 8-6 6 3 9 6 13 8-13-5-24-22-38-22"/><path fill="#9B3256" d="M222 297c-11 7-21 10-9 12-5 4-9 3-10 8 9 6 16 11 26 10-1-14-2-24-6-26"/><path fill="#693B4B" d="M434 286c-7 11-8 28-5 42 8 0 11-5 12-9 1-14 0-24-5-33"/><path fill="#B24D6D" d="M238 278c-5 4-1 17-11 19-1 4 0 7 1 11 6 2 15-1 18 0 2-11 5-22-6-30"/><path fill="#E0909D" d="M301 134c5 17-2 29-4 42 2-12 10-19 15-30 7 7 6 14 12 18 3 2 5 2 7 3-1-3-3-5-4-7 8 10 11 6 20 11 0-1-29-25-42-36"/><path fill="#E38B98" d="M311 193c-13 1-29 7-31 12 12-4 14 3 24 5 6-5 8-8 11-12 24 1 30-10-5-4"/><path fill="#CD6781" d="M207 196c2 10 6 20 9 30-2-10 8-15 12-19 19 12 12-14 34 3-12-8-25-11-36-11 3 9-10-4-3 9-7-4-10-8-13-10"/><path fill="#ECA9AB" d="M288 226c5-2 12 2 14 7-2 7-3 12-7 15-5-6-13-5-17-10 7-4 0-10 9-12"/><path fill="#C04763" d="M285 181c-1 3-4 9-10 2 1 4 2 5 3 7-5-1-7-7-10-6-4 6 2 19-2 19 9 0 15-7 25-9 0-8 2-16-3-12"/><path fill="#8F656C" d="M298 383c-18 19 25 15 40 20 15-1 28-1 39-4-23 0-46-1-70-5-10 0-12-4-11-11"/><path fill="#7A2F47" d="M288 320c9-3 6 12 15 12 9 3 14-1 16-8 4 0 7 1 8 3-1 6-4 8-7 10-4 4-9 2-12 3-11-2-18-10-20-17"/><path fill="#EDACAD" d="M290 227c-10-1-5 8-11 8 6 4 12 14 17 11 3-8 9-6 3-15-3-3-5-3-7-5"/><path fill="#EEDED3" d="M416 403c-7 0-13 12-21 15 2 4 2 11 5 14 6-1 2-6 2-9 6-3 8 7 10 6-5-20 8-9 3-25"/><path fill="#42728D" d="M369 409c-14 4-30 2-41 10 12-4 49 8 41-7"/><path fill="#4E7A91" d="M188 451c33 2 96 10 139 4-40-3-85 0-127-4"/><path fill="#60B2D5" d="M125 436c-2 3-13 0-18 2-13 3-17 1-20 7 12 5 30 1 45 3-7-2-15-2-22-4 7-4 36-5 16-7"/><path fill="#936271" d="M200 401c-1 2-3-1-4 1-3 4-4 7-5 10-3-1-3-3-6-3-2 7 5 15 1 22-4-13 40-35 16-29"/><path fill="#DE8D9E" d="M356 144c-3 6-7 12-11 17 8-3 16 1 22 4 5 4 10 8 12 14-13-24-16-33-21-28"/><path fill="#8B5C69" d="M431 289c9 1 7 13 8 19 2 9 1 16-4 20-5-10 7-15-8-38"/><path fill="#955B6C" d="M260 359c1 5 0 8-3 10 2 5 3 7 6 8-10-7-9-4-1 3 5 4 10 9 15 11 4-4 6-10 14-9-6-3-10 2-16 0-8-7-10-14-15-20"/><path fill="#420D1D" d="M436 348c-5 5-10 12-16 14-11 3-20 4-28 5-21 2-46-4-65-9 7 7 15 5 25 9 17 3 33 3 47 1 8-1 13-3 18-5 8-3 15-9 19-15"/><path fill="#453547" d="m303 410 1-1c9 1 19 2 28 1-5 5-10 8-16 9-9-1-14 3-15-8"/><path fill="#863B51" d="M206 403c-1 5-6 9-9 11-3 8 2 6 5 9 3-2 7 2 8-2 2-7 3-14-1-17"/><path fill="#B44161" d="M124 312c-8 1-13 0-20 4 6 6 43 10 27 6-6-2 0-7 1-6-2-1-3-4-7-3"/><path fill="#B8A5A7" d="M307 297c6-3 9 6 10 9 1 7 1 11-2 14-9-5-9-14-9-20"/><path fill="#D1647C" d="M270 175c-7-2-8 6-4 14-1-3 1-4 3-5 4 1 5 3 6 6 0-2 0-4-1-5 7 3 8-1 10-5-4-3-8-6-12-7"/><path fill="#D0637D" d="M189 227c-4 2-6 8-10 11 4 2 5 4 7 4 1 8 1 14 1 20 4-11 5-23 3-34"/><path fill="#D56D82" d="M268 236c-6 8-6 19 5 23 10-1 16-7 25-7-4 4-11-1-14 4-10-4-14-10-15-18"/><path fill="#3C7696" d="M221 418c-25 19 15 7 22 5-7 0-13-4-20-5"/><path fill="#EDBBBB" d="M338 260c3-2 8 0 9 3 0 6 2 12-2 14-5 0-9-1-9-4 0-5-1-8 1-10"/><path fill="#B3D5EF" d="M232 258c-1 2-3 3-2 6-3 10-4 19-3 29 4-6 13-42 4-31"/><path fill="#E1AEC3" d="M296 127c3 10 4 22 3 34 6-5-1-24 4-27 16 14 28 18 40 34-17-22-26-27-45-40"/><path fill="#A5C1DF" d="M197 318c-6 5-10 10-12 17 7-7 7 9 12 1 2-7 5-11 2-17"/><path fill="#6D334A" d="M210 404c5 3 3 12 1 16-4 5-6 3-8 6-2-6-10-1-7-8 2 9-7 16-9 15 9-1 17 4 22-7 6-7 3-17 3-23"/><path fill="#F3CEC9" d="M377 246c2-3 4 0 6-1 1 7 11 11 7 16-9 3-10-4-13-7s-3-6-2-8"/><path fill="#D76177" d="M412 207c0 6-7 8-8 14 4 15 9-2 9 8 2-3 1-6 2-9 4 3 0 11 4 12 2-14-2-13-7-23"/><path fill="#63404D" d="M398 395c-6 1-11 7-26 11 2 8 3 16 8 21-3-5-2-11-2-16 18-6 1 1 21-11-6 1-3-1-1-5"/><path fill="#A57882" d="M160 322c-11 18 7 14 16 13l2 1h2c1-2 1-4 3-4-2 2-4 1-5 4-10-3-10-13-17-13"/><path fill="#D588A2" d="M200 188c6 8 5 16 9 21 0-4-4-9-3-13 6 2 10 7 12 9-1-7 13-1 4-8 9 2 17 1 25 5-40-19-22 2-44-13"/><path fill="#F9E4DA" d="M369 219c-4 4-8-1-13 1-1 2-1 4-2 5 3 6 10 2 11 6 1 5 0 6-1 8 1-2 2-3 1-6 3-6 11-7 5-14"/><path fill="#E5B1C2" d="M355 133c-2 9-7 19-12 27 5-4 9-10 12-16 9 16 6-5 20 25-4-7-7-22-20-34"/><path fill="#4C3A4C" d="M303 409c-2 10 3 9 10 10 8-3 14-5 19-7-10 0-18 0-27-2"/><path fill="#DFC4BC" d="M416 390c-10 13-18 26-29 35-4 4-2 7-1 8l2 1 2-2-1 3-2-2c-1-1-2-2-1-5 6-2 4 0 10-3-3-1 2-4-2-4 6-8 12-11 16-18 7-3 7 3 6 9 1-7 1-13 1-19"/><path fill="#75ABBC" d="M422 395c-8 25 6 15 22 14 4-4 8-6 11-11-3 3-6 7-9 10-6-4-11-4-14 1-10-1-5-9-10-12"/><path fill="#9FC6D4" d="M442 439c6 2 24 0 33 5-9 5-20 6-31 7 14-1 29-1 43-5-14-8-28-6-41-8"/><path fill="#8F6371" d="M157 330c-5 3 0 5 2 7 5 4 8 8 11 11 5-2 7-8 10-11-9 1-12-3-19 1-4-2-6-3-7-5"/><path fill="#964660" d="M255 406c-3 1-5 15 3 22 5-3-1-6 5-8-5-5-6-14-9-14"/><path fill="#DEE5E7" d="M503 429c4 1 8 2 12 4-31 9 15 3 21 1-9-5-21-2-31-5"/><path fill="#67ACC7" d="M463 438c9 0 17 1 25 5-12 8-21 5-10 10 4-2 13-3 17-7-5-9-20-7-30-8"/><path fill="#466E85" d="M330 448c-2 5 46 1 60 4-17-1-34-6-55-5"/><path fill="#60B0CE" d="M53 414c0 9 18 1 23 6-9 1-30 4-28-4"/><path fill="#AB435F" d="M114 297c5 3 20 7 27 12-10 0-21-3-27-10"/><path fill="#34526C" d="M416 419c-1 4 1 9-1 13-20 9 20-4 27-5-7 1-15-1-25 0-1-4-3-8 0-9"/><path fill="#BA476B" d="M218 253c-10-1-10 6-13 11 2 4 6 5 9 8 2-2-2-6-4-8 6 1 2-9 8-10"/><path fill="#96CCDD" d="M534 427c3 0 13 3 8 8-11 4-45 5-41 2 10 3 81 0 33-11"/><path fill="#C65679" d="M89 219c2 4 3 7 5 11 3 1 5-2 11 0 3-1 3 2 5 3-2-2-3-4-4-7-6-1-10-5-14-7"/><path fill="#9ECAD7" d="M499 425c-79 5 23 4 31 5-7-2-22-1-35-4"/><path fill="#EFC7C7" d="M394 274c6-1 9 9 4 12-3 2-6 0-6-1 0-5-2-8 0-10"/><path fill="#869BC2" d="M181 355c-11 17-4 35-4 55 2 10 5 10 5 16-6-11-3-26-6-40-1-12 3-20 4-29"/><path fill="#8D6067" d="M413 388c-5 3-10 5-15 8-5 5 2 5 2 10 5-5 11-11 10-17"/><path fill="#9BC4D3" d="M425 451c-17 2-35 1-52 3 13 1 75-2 57-3"/><path fill="#8A646A" d="M387 405c-3 1-5 3-7 5-1 8-2 19 5 24l2 2-3-1c-2-4-2-10-4-14 7-6 8-8 6-15"/><path fill="#85617B" d="M207 324c-8 5 8 11 10 13 0-2 2-6-1-7-3-3-5-4-8-5"/><path fill="#96465C" d="M286 384c-4 1-2 3-5 6 5 3 11 4 14 1 1-4-5-5-7-7"/><path fill="#E59599" d="M339 262c-2 3-2 10 2 13 5-3 4-7 4-11-1-3-2-2-3-2"/><path fill="#DAB2CF" d="M255 166c3 11 7 22 10 33 0-10-4-19-7-28 11-2 19 2 27 7-8-6-18-9-28-11"/><path fill="#7B8386" d="M546 412c2-2 7 0 7 2 1 4 0 7-2 8-4 1-5-2-7-2-1-4 1-5 1-6"/><path fill="#F0B9B5" d="M377 247c-2 5 1 9 9 15 3-8-9-13-5-16"/><path fill="#CB6082" d="M209 252c-4 2-9 0-12 1 2 4 4 7 7 9-5-7 18-12 7-10"/><path fill="#CDA9A8" d="M308 356c4 10 23 8 32 13-5-2-17-9-28-12"/><path fill="#5E8FAB" d="M91 404c7 0 14 1 20 4-4 2-13 5-17-2"/><path fill="#F8F4ED" d="M310 299c-4 4-1 13 1 17 6-4 3-11 0-15"/><path fill="#7BAFC0" d="m501 366-2 1c3 4-3 3 1 11-3 4-5 5-8 7 3 1 7-3 9-5-1-7 14-13 3-16"/><path fill="#757F84" d="M474 339c1-1 3 0 4-1 4 3 5 4 4 7l-4 4c-6-2-6-5-5-7"/><path fill="#E5AEC4" d="M406 194c0 5-2 13-4 24 2-5 9-9 6-17 5 5 6 10 9 15-2-8-6-14-10-21"/><path fill="#BF8193" d="M260 290c11-3 7 11 0 12-6-7 5 0 3-8-3-1-7 8-6-1"/><path fill="#688F9B" d="M138 372c4-2 9 1 11 4-5 6-12 4-12-2"/><path fill="#F1CECD" d="M409 276c7-3 8 9 4 12-5-1-5-5-4-10"/><path fill="#D6B7B3" d="M301 426c-1 3 0 4 1 5-5 3-1 0-7 1 9 0 7 8 11 13 1-7 0-14-3-19"/><path fill="#A26E82" d="M183 380c3-4 9 4 3 11-6-3-4-9-5-10"/><path fill="#855E6E" d="M257 386c-5 2-8 3-6 10 2-5 5 2 7-3 14 10 26 17 37 25-11-10-35-19-37-32"/><path fill="#567C88" d="M28 378c5-3 10 5 6 9-6 2-7-4-8-6"/><path fill="#6E767D" d="M457 350c1-1 6-1 6 1 1 5-1 6-3 7-5 1-6-2-5-5"/><path fill="#DCE4E5" d="M452 440c3 2 12 1 12 5-55 8-17 5 12 1-8-5-16-4-22-6"/><path fill="#E4989B" d="M378 293c-3 4-3 9-1 13 6-2 8-9 3-12"/><path fill="#61818A" d="M54 319h2c1 1 4 3 3 5-3 6-12 2-9-3"/><path fill="#6E8387" d="M461 383c2-2 10 4 4 8-4 2-4-2-6-2-1-3-2-4 0-4"/><path fill="#608992" d="M79 376c4-3 10 4 6 8-5 1-8-2-8-5"/><path fill="#34617F" d="M167 437c4-1 10 0 13 1-3 4-26 1-15-1"/><path fill="#508AA3" d="M465 451c-8 1-17 0-24 2-2 4 51-2 26-2"/><path fill="#426C85" d="M416 422c7-1 16-1 22 1-6 2-13 2-19 2"/><path fill="#2B1F32" d="M210 390c3 9 4 21 4 30-3 7-8 12-12 14-6-3-12 2-15 1 6-2 9 0 12 2l3-1 1-1 1-2c7-4 8-11 14-15 6-3 10-1 13 0-5-1-11-4-15 2-1-12-2-21-6-28"/><path fill="#DAC1BE" d="M171 323c-4 3 3 6 4 10-1-3 5-2 6-2-2-3-5-7-9-8"/><path fill="#6DA2B7" d="M412 437c17 2 32 1 48 1-14-3-30-1-45-2"/><path fill="#B9E3EF" d="M134 404c3-1 9-1 11 1-4 4-29 1-12-1"/><path fill="#4781A0" d="M60 414c9 5 31-2 45 3-12-4-27-2-39-4"/><path fill="#5C7E89" d="M87 371c4-4 10 6 5 8-5-1-8-2-6-6"/><path fill="#5C7D87" d="M49 365c1-1 5 2 6 4-5 6-13 2-8-3"/><path fill="#EB9499" d="M342 195c4 9 22-2 37 12-11-8-23-12-37-11"/><path fill="#577C82" d="M74 341c2-2 7 2 7 4-5 5-11 4-8-2"/><path fill="#55848C" d="M92 342c1-1 5 1 6 3-3 8-13 2-9-2"/><path fill="#66797F" d="M106 358c3-2 8 0 8 3-4 7-10 4-8-1"/><path fill="#F8E1DA" d="M381 208c10 16-13 2-8 12 4 2 22-5 10-10"/><path fill="#8F4356" d="M393 403c-3 1-6 3-4 7 6-5 15 0 5-8"/><path fill="#597E87" d="M62 338c3-3 9 4 6 7-6 1-8-1-7-5"/><path fill="#CA4B62" d="M415 218c3 21-6 5-3 10 2 8 7 8 9 11 1-7-8-8-4-18"/><path fill="#577A81" d="M30 357c3-3 7 2 7 4-5 6-10 1-8-3"/><path fill="#717475" d="M51 437c2-2 5 0 6 1-1 8-11 5-8 0"/><path fill="#64797D" d="M517 328c2-1 5 0 6-1 2 5 1 6-1 7-3 1-7-2-5-4"/><path fill="#5C7580" d="M455 372c5-4 8 2 6 6-4 1-7-2-7-4"/><path fill="#556F78" d="M517 361c4-3 8 5 3 6-4 1-7-2-4-4"/><path fill="#623F5E" d="M214 326c2 2 5 4 5 10 4-3 6-3 9-1 5-4-14-8-12-8"/><path fill="#4A89A5" d="M340 417c5-1 11 0 15-1-5 3-11 4-17 3"/><path fill="#AA566F" d="M285 332c-5 7 5 8 6 11 4 0 6 0 6-2-5 4-10-14-12-4"/><path fill="#6D7C81" d="M16 353c4-2 5 9-1 7-3-2-3-7-1-7"/><path fill="#E18CA0" d="M259 170c1 5 3 9 5 13-3-2 0-5 0-8 3 3 7-6 11-1-5-2-9-4-13-4"/><path fill="#637C82" d="M115 368c4-3 10 5 4 6-4 0-5-1-6-4"/><path fill="#61737E" d="M534 345c2-2 6 1 5 3-3 6-10 1-7-3"/><path fill="#D1B1AE" d="M290 437c4-1 9 5 7 9-4-2-5-4-6-7"/><path fill="#5C8BA7" d="M93 404c3 7 13 6 18 5-6-4-11-2-17-4"/><path fill="#617C8C" d="M168 450c-40 5 7 2 15 0-4-1-10 0-17 0"/><path fill="#8FCCE0" d="M142 372c-9 3 2 10 5 6 0-4-2-5-3-4"/><path fill="#7E5E7D" d="M157 294c3-2 6 1 7 3-4 5-8 2-9 0"/><path fill="#D05063" d="M357 181c2 5 4 9 5 13 5 3 9 5 13 7-8-4-9-9-18-18"/><path fill="#C8A09D" d="m388 418-2 1c-2 3-3 6-3 9 1-5 18-15 9-12"/><path fill="#A95074" d="M109 259c2-2 5-1 6 2-3 1-6 9-7 0"/><path fill="#FAF2E7" d="M357 224c4-1 8 1 12 0-3 4-9 4-12 3"/><path fill="#7CB4C8" d="M31 379c-5 0-3 7 0 8 4-2 4-7 2-7"/><path fill="#547C92" d="M402 437c-8 2 24 2 30 3-8-2-18-1-26-4"/><path fill="#A05F73" d="M186 380c-4 3-6 5-2 10 2-1 5-6 3-9"/><path fill="#9C2E48" d="M292 183c1 3 0 8 0 11-10 3-27 17-28 5 6 12 19-5 28-3 2-14 4-7 0-11"/><path fill="#4D6F78" d="M99 368c3-2 7 0 8 3-3 3-7 2-8 0"/><path fill="#5D787C" d="M149 378c3-3 7 0 6 3-3 4-6 1-7-2"/></svg>