<svg xmlns="http://www.w3.org/2000/svg" width="600" height="600"><path fill="#585252" d="M338 117c0-2 1-1 3-1 12 4 20 15 25 24 4 0 7-1 7-5 7 0 4 11 10 7 9-3 0-13 5-16 11 10 16 21 14 33 12-3 26-12 39-8 16 1 29 8 37 17 1 7-1 10-2 13-7 19-20 34-36 43 2 5 2 10 3 14 7-2 7-8 12-12 2 9 1 15-2 20-3 9-8 14-14 19 5 5 6 7 11 6-12 11-25 16-38 20 1 1 6 6 5 8-15-2-28 3-38 8 7 8 7 18 6 28-3 14-9 25-15 37 5 20 34 23 33 47 0 15-6 26-15 36 15 4 29-1 42 5 7 4 7 11 1 14-26 1-54 3-78-3 0-12-4 3-4-8 5-8 11-14 13-21-14 8-29 15-44 21 2 1 8 4 6 10 1 4-1 7-3 8-21 1-41 3-60-1-18-9-44-3-60-13-17-4-41-16-54-35-14-17-21-35-25-53-3-18-3-35-1-50 2-16 7-28 13-40 9-19 20-33 34-43 12-9 26-14 41-10 9 2 16 8 20 14 8 10 12 21 12 33-4 2-5-5-7-7 2 8 4 18 0 27-2 9-6 16-12 19-7 6-16 10-24 8-2-5 4-6 6-8-4 0-9 0-12-3-8-4-9-11-10-17-7 9-11 17-12 27-3 13 1 24 2 34 2 10 6 17 9 24 8 14 23 25 34 33 2-10 2-22 6-31 5-17 9-23 16-34 10-13 18-21 28-29 14-16 41-18 47-31-8-3-19-3-27 1-4-6 6-11-1-12-7-5-12 0-17 2-3-6 0-8 1-11-4-3-9-5-12-8 0-7 3-3 5-3-7-8-10-17-11-26 8-4 11 5 18 6 0-6 0-12 3-17-8-5-16-8-23-13-8-7-13-13-18-21-6-10-10-18-12-27 1-9-3-18 2-23 16-9 32-11 50-9 16 2 28 11 39 22 4-1 5-3 7-2-5-8-2-18-11-20 8-2 14 0 18 4 9-3 12 0 11-11 4 3 6 5 8 7-1-5-2-10-5-15"/><path fill="#28232A" d="M316 297c-4 5-7 11-9 17-2-3 0-4-1-8-5 2-10 5-16 7-6 12-13 21-19 32 7-7 15-15 18-26 1 7-1 13-5 18-12 12-25 20-33 32-1 7 5 8 7 11-6 1-8-2-9-5 2 3-1 6-2 8-3 7-6 4-8 4-3-9-3-18-2-26-7 12-13 25-15 39 2 11 4 19 7 26 5 13 9 26 21 31 11 2 21-3 28-10 6-7 4-16 2-21 6 8 6 14 8 22-2 7-5 3-6 6 1-3 3 1 7-1 0 4-8 10-10 13 11-2 18-12 29-20-6-6-11-14-15-21 9-1-4-31 6-24-1-1-7-2-8-10-7-1-13 1-20 2-9 5-17 10-21 18-4-5 6-10-4-6 6-9 13-16 22-19-2-3-6-4-7-6 14 10 32 4 46 10 5 6 8 6 15 12 0-2-3-11-9-14-13-12-33-7-43-20 11-10 15-21 18-32 6 4 14 4 15 1-2 2 9 6 1 7 6 2 11-3 17 0 5-17 0-33-2-48"/><path fill="#473A3B" d="M327 189c-9 0-18 0-24 6-14 9-11 14-18 33 1 13-1 20 4 27 3 13 16 22 23 24 14-1 16 0 25-7 5-2 13-17 13-22 5-16 0-33-3-41-4-9-13-19-20-19"/><path fill="#524442" d="M316 198c8-2 17 1 22 6 7 7 11 14 12 21 0 13 2 25-4 33-5 8-12 14-19 16-10 1-18 1-23-5-10-6-13-14-15-22-1-13-1-23 4-31 7-8 13-16 21-17"/><path fill="#F5F0E2" d="M400 162c-3 13-15 19-25 26-4 8-4 15-6 21-2-6-4-11-5-17-7-9-7 4-12-12-17 3-10-5-20-4 9 6 17 17 19 27-6-8-10-17-19-22-10-5-23-4-31 1 0 3-1 6 2 7 8-4 22-4 31 0 7 5 12 13 15 17 6 3 5 15 11 18-10 5-3 48-29 60 20 6 9 12 28 8-8-5-15-10-15-17 7-12 14-21 15-32 4-5 10-4 12 0 1 8 2 14 5 18 3 7 5 11 7 15-4 8-10 12-15 15 5 7 13 4 17 1-6 12-17 2-23 11-8-10-21-2-27-10 6 9 16 15 25 21 14-14 39-15 48-30 22-6 4 6 36-11-7-3-11-5-16-6-7 10-16 14-27 14-12 0-20-9-24-17-3-11-1-21-2-30-7-4-11-11-9-18 3 1 4 3 5 6 10-12 10-27 24-36 9-5 19-4 26-1-1-9-9-18-19-22"/><path fill="#554644" d="M318 199c-9 1-17 8-23 16-6 9-6 19-5 30 2 9 4 17 12 22 7 7 15 7 23 6 9-2 15-7 19-12 7-11 5-23 5-34-1-9-4-15-9-20-7-7-13-9-20-9"/><path fill="#62534F" d="M403 204c-3 2-7 1-8 4-8 6-12 13-14 20-2 13-3 23 1 33 2 7 8 10 13 12 9 1 15 0 21-4 8-6 10-13 13-19 2-10 4-19 1-27-3-14-13-22-26-19"/><path fill="#1B1721" d="M188 402c-1 3-1 7-1 10-2 1-6 4-10-1 3 3 4 7 7 10-13-2-16 4-29 0 5 4 9 4 10 7-36-17-6 18 15 28 22 12 44 15 68 16-7-3-13-11-18-17-7-10-9-19-12-27-15-12-16-15-28-24v-1l-1 2v-1"/><path fill="#88776A" d="M317 214c6-2 13 0 16 3 7 6 10 11 12 16 1 11 1 18-3 25-4 5-9 9-13 11-9 1-16 0-20-5-7-5-8-8-10-16 0-9 1-16 4-23 5-5 8-9 13-10"/><path fill="#403333" d="M149 269c-5 7-9 15-10 23-5 18 1 33-3 42-2 12 13 16 15 14 3-3 9-3 13-13 5-17 8-34 17-48-11 4-20 6-21 4-6-10-9-8-10-21"/><path fill="#918274" d="M402 217c12-2 20 7 21 16 2 9 2 15-1 20-3 7-8 12-12 15-6 3-11 2-14 3-7-3-11-8-13-12-2-8-2-15 0-20 2-8 6-13 11-17 3-3 5-3 7-4"/><path fill="#958576" d="M319 216c-5 1-9 3-12 8-5 7-6 14-7 21 1 9 4 14 10 18 5 5 11 5 17 4 7-2 13-8 15-13 2-7 1-13 2-18-2-8-6-11-8-16-6-4-10-5-16-4"/><path fill="#A09282" d="M404 219c-3 1-7 0-8 4-6 4-10 8-11 13-2 10-2 19 2 25 3 6 6 7 9 8 6 0 10 0 14-2 7-6 11-11 12-17 0-8 1-14-1-18-3-8-8-14-16-14"/><path fill="#584843" d="M347 129c-2 7 3 18 3 27 7 14 16 25 17 39 7-12 19-19 24-32 3-6 3-14 1-19-1-8-9 5-14 3-1-2-3-4-2-7-4 5-11 3-8 11-4-9-17-10-20-21"/><path fill="#92867D" d="M322 217c5 4 19 8 20 20 1 7 0 13-2 18-3 5-7 9-11 10-6 1-10 0-13-2-4-8-13-10-13-19 0-7 0-12 4-16 4-5 10-4 13-7"/><path fill="#1D1921" d="M231 150c-2 3 4 2 4 3-4 6-12 3-12 7-2-8-2-8-3 0 3 13 8 24 14 34 13 19 42 30 42 31 2-5 2-21 6-27-2-4 2 7-7 0-4 0-4-6-4-7 3-3-5-3 1-6 2 3 9 9 5 6-2-2-1-4-4-5-4-5-7-9-10-9-6 7 3 10 5 15-2 4-6-1-8-2-6 5 3 7 4 10-4 3-5 2-7 1-11-8-18-18-22-28-1-9 0-15 6-18-5-1-4-3-10-3"/><path fill="#9D9287" d="M400 223c6 1 16-1 19 7 5 6 3 12 4 17-3 8-7 12-11 17-5 2-9 4-12 4-11-7-16-18-16-28 2-9 8-14 15-14"/><path fill="#F4F0E2" d="M191 247c-11 4-26 10-26 5-6 6-7 9-11 11 2-2 6 10 3 25 10-3 22-2 51-18-6-5-12-4-18-6-5 1 15-20 3-16"/><path fill="#F3EFDF" d="M363 327c-5 6-13 8-17 16-3 7-1 14-2 20-5 4-7-4-9-2-4 20 14 30 7 48 6-10 11-17 13-29-1-7-6-11-5-17 4-1 2 5 7 6 0-7 7 2 7-7 0-24-1-25 3-31"/><path fill="#7E9094" d="M282 223v16c-3-2-4-6-3-11-1 15-9 4-6 8 0 16 1 19 6 28-5 6-8 12-9 15 14-2 10-3 13-6 5 4 4 3 15 5-4 2-7 2-9 3-1 3 1-1 4 1-3 3-4 6-5 9 15-3-8 0 8-6 19 4 27 10 40 15-2-3-6-5-4-10-2-4 1-6 0-7 3-4 5-6 6-9-3 5-5 2-4 6-8 5-15-1-21 3-7-1-18-9-23-16-5-10-6-13-9-26 1-7 1-12 0-17"/><path fill="#758A90" d="M176 390c-2 3-2 7-4 10-15-1-22 1-28 0 1 0 1 2 2 4-6-1-9-4-13-6 2 8 6 16 11 23-10-2 29 0 36-8-4-6-2-3 1-1 2-8 2-15-3-20"/><path fill="#54433F" d="M194 237c-38 16-19 11 8 5 2 8-7 10-7 18 11 1 9 3 16 7-1 6-4 8-2 11 6 1 5 1 10 2 2-5 0-2-1-6 4-5 7-2 9-5-1-3-1-5-3-7 7 4 10 8 14 12-4-4-3-11-6-14-4-2-7-5-11-7 0-4 3-1 5-3-4 1-17-6-23-10-5-2-8-2-10-1"/><path fill="#574741" d="M267 137c2 4 3 8 5 11-5 4-11 7-13 7-8 1-4-8-8-11-17 2-16 0 2 10 10 9 18 19 24 29 2-12 14-22 24-29-2-3-5-5-8-6-4 2-8 2-20 1-3-4-3-7-5-10"/><path fill="#0F010F" d="M238 153c4 4-7 10-2 18 3 10 8 17 14 24 5 4 8 5 11 7 1-4-7-7-5-11 5-3 8 2 11 2-2-4-5-7-8-10-1-3 0-4 2-5 9 1 15 9 19 15-4-10-13-18-22-26-7-7-12-10-19-12"/><path fill="#95A3A5" d="M317 157c-12-1-39 41-8 16 21 1 29 2 44 8-8-10-15-13-19-24-6-1-11 1-15-1"/><path fill="#2B2328" d="M471 170c-2 2-6-1-7 3 0 6-1 11-4 16-5 6-8 12-14 14-9 3 6-12-7-6 0-6 9-6 3-11-5-3-8 3-11 5 3 6 10 21 7 31 9-3 9-6 25-20 6-21 8-17 13-33"/><path fill="#534440" d="M289 339c-2 5-3 14-5 15 5 4-1 7 7 8 9-2 23 9 27 2 7-4 1-8 5-11-2 0-6 4-7 2 2-5 3-7 4-10-6-2-12 4-20 2 2-2 8-5 2-7-1 3-4 5-4 6 1-6-2-6-8-8"/><path fill="#51423E" d="M292 366c6 14 29 19 35 38 2 3 3 5 4 7 2-9-5-18-5-25 6 11 9 18 13 25-1-15-3-24-11-32-9-8-22-11-33-14"/><path fill="#F2EAD6" d="M322 220c-4 2-2 7-3 11 4 6 6 0 7-1 4 2 3 7 4 10-2 10-9 17-16 16 2 7 8 8 14 7s9-6 11-10c3-6 1-11 2-15 0-14-14-13-17-19"/><path fill="#F8F2DF" d="M401 225c-2 0-1 1-1 3-2 4-1 6 0 7 5 0 1-7 5-8 4 6 3 12 4 16-1 6-4 8-5 12-5 4-9 5-12 2 0 3 1 7 5 8 6 1 10 1 13-2 5-5 8-9 10-13 2-6 2-11 0-14-2-11-11-12-18-11"/><path fill="#18141E" d="M222 401c-2 13-2 27 4 40 5 13 16 26 28 30 3-3 20-19 28-27-6 8-13 11-20 14-8 3-13 0-18-3-14-16-19-34-22-52"/><path fill="#29232A" d="M351 404c-4 18-14 34-26 48 17-3 34-10 48-22-7 5-15 6-23 6 1-9 4-15 7-21-2-4-3-6-6-8"/><path fill="#90A1A3" d="M357 318c-22 3-12 5-25 2 3 18 8 28 8 45 5-7 1-13 3-20 7-13 34-25 13-27"/><path fill="#1F1B23" d="M124 372c2 7 1 17 8 20 16 6 21 2 32 7-12-3-9-18-18-22-5-4-9-3-12-6 2 3 4 5 7 6-3 3-4 1-5 1-2-1-10-4-10-5"/><path fill="#17131D" d="M188 284c-6 2 1-2 3 0-2 4-3 8-6 11 4-2 8-3 13-2 5 0 7 4 9 6 1 6 0 10-4 12-9 3-11-8-17-3 1 3 2 5 4 6 8 4 9 5 11 2 6-4 15-9 15-13-1-6 2-16-7-18-7-1-13-1-19-2"/><path fill="#829599" d="M308 394c-3 2-4 1-6 0-5 5 3 24-3 32 4 6 8 11 11 16 3-10 5-9 5-18l2 3-1-2c-2-20-4-17-9-30"/><path fill="#798C92" d="M283 445c-4 13-25 19-26 31 14 2 28 5 38 2 0-5-17-12-24-10-1-5 8-7 14-10-2-4-4 2-6-2 5-4 1-5 3-9"/><path fill="#10040E" d="M316 225c-6 1-11 7-11 13 1 9 1 12 6 16 9-1 11-1 15-9 7-19-12-1-8-21"/><path fill="#5B4A43" d="M411 160c6 5 11 17 19 21 14-2 22-12 34-13 2-5-4-2-4-6-8 3-12 11-19 14 4-5-8-11-1-14-13 2-8 2-27-1"/><path fill="#453937" d="m289 338-1 2c-2 10-7 18-17 25 10 15 29 10 40 21 15 8 12 22 17 33 4-5 0-9 0-16-7-2-8-14-15-16-13-8-13-9-22-20 2-5 10 1 6-2-5-1-9-2-12-4-3-7-1-9 3-22 2-1 4-2 5-1h-1l-1-1"/><path fill="#7E9197" d="M333 420c2 8-6 4-2 10-8-3-9-4-8-8-5 9-3 14-11 23-7 7-12 14-19 17 4 0 8 2 11 0 13-8 24-22 31-32 2-9-2-1-2-8"/><path fill="#130B16" d="M318 294c7 8 4 22 8 24-2-3 2 2 2-4 2 8 1 15 2 18-1-5 1-10 1-18 8 10 20 2 27 1-12-8-26-12-39-19"/><path fill="#11040F" d="M394 229c-7 3-8 12-7 20 1 4 5 6 8 8 10-5 12-13 10-21 0 0-2 2-4 3-5-4-4-9-5-11"/><path fill="#99846D" d="M363 241c-3 9-4 20-7 29 7 4 13 3 18 4-3-11-6-23-8-33"/><path fill="#160812" d="M459 172c-7 2-14 6-20 11 1-1 3 2 4 2-5 12 5 5 2 17 6-2 9-8 12-12 4-7 6-13 3-19"/><path fill="#74868D" d="M127 344c0 5-7 10-2 25 3 2 5 4 7 5-3-2-4-4-6-8 17 8 9 0 19-1-4-4-5-11-7-16 0 3-7-3-9-4"/><path fill="#2F292D" d="M303 155c-7 4-13 9-19 16-6 9-7 19-1 25 3-16 24-40 25-39"/><path fill="#262028" d="M142 281c-8 14-14 29-17 46 3-5 6 17 12 15 1-17-4-34 4-61"/><path fill="#110611" d="M192 294c-3 1-6 1-7 4l-2 1-1 1h-2c-7 8-9 17-12 26 3-10 6-20 15-27 2 3 1 6 2 10 3 2 0 5 2 5 7 7 16 5 23 6-5 0-20 0-24-9 2-10 8 0 15 1 10-8 2-21-8-18"/><path fill="#907D6C" d="M284 318c-14 8-29 20-39 35 12-9 9 7 19-9 8-5 12-12 16-19-2 1-5 4-9 6 3-6 8-8 12-11"/><path fill="#18111C" d="M356 392c-3 3 0 9-4 9 9 11 16 23 23 26 3 8-3 15 3 15-1-5-1-20 3-39-3 5 2 9-2 13-17-10-19-17-21-22"/><path fill="#F8F4E8" d="M406 186c-1 1-3 0-4 1-29 25-7 3 15 6 12 7 17 17 19 27 0-7-3-14-5-21-4-6-8-10-13-12-5-1-7-2-11-1"/><path fill="#322A2C" d="M338 139c-2 13-2 11 0 19 7 13 23 20 28 35-3-17-20-28-19-48-6 11 0-12-3 7-2-5-7-7-7-10"/><path fill="#594842" d="M373 338c-2 2-3 4-1 7-3-1-5-3-5-5 3 6 3 12 2 19-1 13-11 22-8 35 3 9 10 15 17 20-2-13-9-22-15-25 1-21 17-39 8-48"/><path fill="#0F0710" d="M225 382c-5 11-6 24-5 36l-1 2v1l1 2-2 2c-3-3-7-4-9-7 18 14 15 45 43 54-20 0-34-1-49-6-12-3-20-8-29-12-10-6-16-14-23-20-23-37-23-34 1 3 2 1 6 5 9 8 19 13 25 16 44 24 15 4 29 5 44 4 3 0 4 0 6 1 5-13 21-16 26-29-3 7-18 16-25 25-10-1-16-7-22-14-9-11-13-23-14-35 1-15 0-28 5-39"/><path fill="#403534" d="M239 360c-2 7-1 16-2 23 2 3 4 3 5 5 12-5 0-19 11-24-5 0-9-1-13-3"/><path fill="#F4EFE0" d="M223 273c-2 10-1 26 5 35 3-5 3-11 5-17-1-8-2-12-4-16-2-2-3-2-4-2"/><path fill="#423635" d="m358 415-9 18c17 4 33-6 9-17"/><path fill="#29232A" d="M382 412c-3 11-7 29-1 23-14 19-5 12-10 23 3 0 6-1 8 1 5-12 6-1 9-9-2-3 1-17-6-13v-23"/><path fill="#8FA1A3" d="M381 468c-22 4 4 6 42 5-16-7-33-4-46-7"/><path fill="#3B3030" d="M167 360c-4 2-5 11-9 9l-1 2v-3c6 6 0 7 5 7-5 3-7 0-9 1 1 3 6 3 6 7 8-2 14 6 14-4 0 8-2 13-4 18 3-4 4-9 6-13v-2l-1-3c-3-6-5-12-7-18"/><path fill="#2E272B" d="M148 371c0-1 4 8-3 3 8 6 7 11 13 18 2 5 7 4 9 7 1-6 7-12 7-18 0 2-2 2-1 5-6-1-8-3-11-1-10-4-8-11-12-13"/><path fill="#ECE7D8" d="M165 340c-4 4-10 10-15 14 1 5 2 10 4 14 7-9 15-16 11-28"/><path fill="#9A846D" d="M377 315c-3 1-4 4-6 5-1 17 7 22 3 34 4-7 4-7 5-13 3-9 1-17-2-24"/><path fill="#1A151F" d="M255 238c-3 12 7 17 10 28 12 9-6-12 11-2-2-3-8-19-22-25"/><path fill="#839599" d="M367 443c-1 10-6 12-16 23 2 7 22 4 28 5l-1 1h-2l3 1 4-2c-6-1-11-4-16-6 3-8-5-19 4-20-1 0-1-4-3-2"/><path fill="#B09A7D" d="M362 260c1-1 3 0 4-1 5 5 9 8 10 12-10 5-28 2-14-9"/><path fill="#30292C" d="M314 139c3 5 1 10 7 15 4 0 9-2 12 1v-12c-15-8 3 8-18-4"/><path fill="#31282A" d="M356 260c-1 3-9 11-8 15 1 9 15-1 16 13 4-3 6-5 8-5-3-11-13-5-19-9-1-6 2-9 2-13"/><path fill="#3E3231" d="M433 223c-1 14 0 28-9 38-6 9-12 13-19 14-14 1-17-1-24-10 2 3 3 5 5 8 9 5 19 5 26 3 6-1 7-4 14-9 7-12 8-26 8-42"/><path fill="#F4EEDF" d="M368 463c13 6 34 0 49 4-13-6-29-6-45-5"/><path fill="#574641" d="M379 392c3 9 4 19 5 29 6-2 1-13 7-14-4-10-3-10-10-14"/><path fill="#91A0A3" d="M298 184c-6 4-11 9-13 15 2-2 3-8 7-7-3 8-7 13-8 19-3 11-1 23-2 33 1-10-1-22 4-30 3-10 8-16 15-21 0-5-1-6-2-8"/><path fill="#F2EBD6" d="M252 138c0 7 10 4 14 9-4 1-7-1-11-2-1 3 1 5 0 8 6-1 10-2 14-3-1-5-2-8-4-11-5-2-7-1-10-1"/><path fill="#2E272C" d="M218 147c4-1 20 3 26 8 12 7 22 15 28 25-6-11-16-23-28-29-7-5-16-5-22-3"/><path fill="#110B12" d="M364 372c-6 4-4-3-14 34-4 8-9 16-13 25-9 12-19 24-30 32 6 0 11-4 15-4-3 0-7 1-10 3 7-8 15-17 21-26l2-1 1-1v-1l1-3c5-8 9-16 13-25 7 7 15 16 23 22-4 9-11 12-18 16 10-4 20-11 23-22-1 2-1 4-2 6-11-8-18-15-24-25 4-4 1-7 3-10 4 6 8 11 12 17-3-6-8-10-9-16-1-11 5-16 6-23"/><path fill="#403330" d="M409 195c-2 2 1 5-3 6 6 0 11 2 16 4 5 5 7 9 8 13 3-4-2-9-2-12-4-6-10-10-16-11"/><path fill="#7F9196" d="M220 306c-5 3-7 7-14 12 1-2 4 0 8-2-7 7 2 8-8 11 10-1 24-18 16-18"/><path fill="#1C161E" d="M401 196c-8 5-15 10-18 21-5 13-5 23-6 37 1-9 1-21 5-29 4-17 19-20 20-30"/><path fill="#19111A" d="M322 311c3 18 8 36 6 48 4-5 1-11 6-13-8-6-1-35-13-32"/><path fill="#93A2A3" d="M393 423c0 10-7 11-3 24 4-7 16-23 5-21"/><path fill="#1C1620" d="M270 384c-5 5-18 11-22 18 4-5 33-14 23-16"/><path fill="#614D46" d="M453 235c-9 7-12 14-16 24 3-1 5-3 7-4 6-10 5-9 9-19"/><path fill="#292229" d="M185 283c5 2-1 3-2 2-4 6-8 14-9 21 4-6 20-18 15-22"/><path fill="#51423E" d="M272 340c-4 5-13 10-16 15-2 5-15 2-17 4 5 3 9 4 14 3 8-7 13-13 18-20"/><path fill="#1A141F" d="M349 408c0 1-9 23-14 26-9 10-13 20-27 28h1c6-4 12-4 18-7 4 0-3 0-2-1 10-15 19-29 24-45"/><path fill="#ECE2C9" d="M452 157c-5 1-9 5-12 8 6-1 35-5 13-9"/><path fill="#140B13" d="M328 353c-1 7-7 12-13 15 5 3 8 6 13 7-1-7-3-14 0-20"/><path fill="#AC957C" d="M273 139c-5 2-1 4 0 9 6-4 11 3 17-1-8-4-9-5-17-7"/><path fill="#95A8AD" d="M140 348c1 10 5 18 15 21-8-5-4-18-14-19"/><path fill="#A28C73" d="M368 376c-2 3-3 6-2 11 5 3 7 10 11 18-3-8-6-22-9-27"/><path fill="#1E1821" d="M242 401c4 3-3 14-3 19-3-6-3-13 0-18"/><path fill="#D6BF9D" d="M364 262c-8 7 2 11 8 9-1-2-1-5-3-7l-2-2h-1v1"/><path fill="#473936" d="M227 271c-2 1-5 0-6 1 0 4-1 7-1 9-13 4-9-8-17-3 6 3 12 7 15 13 0-6 5-11 1-17 4-2 7-3 9-4"/><path fill="#F3EDDC" d="M392 401c2 6 0 14 1 20 2 3 3 4 5 4 4-15-5-6-5-23"/><path fill="#13070C" d="M220 148c-2 19 4 34 13 48 12 16 26 22 41 28-15-6-30-14-39-29-10-14-16-28-16-44"/><path fill="#3C3031" d="M409 162c9 7 16 16 18 27 1-5 4 2 9-8-13 3-16-14-24-19"/><path fill="#221E26" d="M272 186c-3 4 2 8 0 15 0 1 11-8 8 1 3-6-4-10-6-14"/><path fill="#EEE9DD" d="M438 230c-1 12-3 23-8 34 3-4 6-9 8-14 0-8 2-14-1-18"/><path fill="#231F27" d="M220 150c1 2 2 5 1 9 5-1 7-1 13-6-4-1-7-2-11-4"/><path fill="#C6B08F" d="M432 154c-5 2-10 1-15 4 3 4 7 2 10 5 3-4 3-6 5-8"/><path fill="#8D9CA0" d="M298 392c-1 8 6-1 8 2 0 3-3 4-5 5 4-3 6-1 7-4 1 7 6 15 7 18 2 7 1 13 0 18 1-5 2-11 1-17-1-5 0-9-3-12-2-4-2-7-5-7-4-1-5-3-7-3"/><path fill="#99836E" d="M341 120c7 6 10 18 21 22-7-4-12-21-19-21"/><path fill="#827063" d="M258 349c-6 3-15 0-16 7 7 1 17-1 12-6"/><path fill="#7C6859" d="M325 339c-1 5-6 9-8 13 2 2 3 0 4-1 4 3-1 4 1 5 7-6 5-9 2-15"/><path fill="#9A836E" d="M396 154c-2 9-8 17-11 24 8-7 13-15 11-23"/><path fill="#1F1B23" d="M122 329c3 3 0 9 3 12 5-3 6 4 11 3-8-4-7-19-13-11"/><path fill="#110712" d="M267 382c2 3 5 4 9 5-26 14-37 31-3 2 8-1 20 0 29 1-10-4-24 1-33-7"/><path fill="#433634" d="M391 409c-3 2-3 6-2 12-7 5-7-2-6-6v21c6-17 7-22 8-22"/><path fill="#839498" d="M299 475c-1 9 14 3 13 1-4-1-7-2-10-1"/><path fill="#EDE8DA" d="M292 467c6 4 11 8 20 5-5-4-11-5-19-4"/><path fill="#52413B" d="M384 161c7 2-4 12-8 9 1-4 4-4 6-6"/><path fill="#7C8788" d="M321 164c3-1 7-1 9 1-1 5-16 4-11 0"/><path fill="#96826F" d="M249 138c-10 1-11 6-22 6 11-1 23 0 24-6"/><path fill="#13090A" d="M282 316c-13 8-25 18-36 31-11 11-15 21-20 31 6-10 11-21 19-30 12-13 24-24 37-31"/><path fill="#11080E" d="M364 291c-3 1-6 4-9 5 6 2 23 3 8-5"/><path fill="#31282C" d="M373 310c-3 1-9 6-8 6 1 7 11-2 10-4"/><path fill="#90A0A2" d="M333 356c-6 4-4 10-2 16-1-7 4-12 2-14"/><path fill="#493936" d="M210 259c3-2 8 2 9 5-6 3-12-3-7-3"/><path fill="#1A131D" d="M242 402c-5 2-5 12-5 16 2-4 4-9 6-14"/><path fill="#C6BFB5" d="M401 171c2-1 5-1 7 0-3 5-18 6-8 0"/><path fill="#A2AAA7" d="M379 218c1 3-4 4-5 8-4-1-7-2-6-5 0 5 3 8 7 9 3-3 2-8 4-10"/><path fill="#909EA0" d="M223 298c-17 17 14 2-3 22 2-3 3-4 5-5 2-7 0-13-2-16"/><path fill="#2F2628" d="M403 194c1 3-2 6-5 8 7 3 17-12 6-6"/><path fill="#F4F0E5" d="M412 460c7 0 10 8 19 5-5-4-12-4-17-5"/></svg>