<svg xmlns="http://www.w3.org/2000/svg" width="600" height="600"><path fill="#637B83" d="m371 107 1-1c7-1 12 1 17 5 3 4 7 5 7 8-4 3-5 5-8 4 6 7 10 11 17 13 5-5 7-11 11-13 16-9 25 4 30 13 1 10-7 11-10 17 6 4 11 10 13 17 3 8 0 17 2 25 14 21 44 26 51 53 4 12 4 24 1 34-4 11-9 19-18 25 9 16 16 30 17 47 3 16 5 32 2 46 0 18-11 29-12 44 7 13 9 24 16 34-30 3-59 1-87-1-3-11-5-23 3-31-1-6-3-7-6-9-12 7-24 11-37 15-2 4 3 5 3 7-4-1-5-2-6-3 3 1 6 10 4 6 14 12 10 10 11 14-6 5-13 3-18 4 2-3 8-2 12-3-6 0-14 3-17-5 0 2 5 4 3 6-29 0-28-2-58 0-3-2 0-5-3-7 3 2-1 5 2 6 7 0 11 1 15 2-3 2-8 0-10 1 10 10-9 9 4 11-30 1-58 3-84 0-3-2-6-1-5-4 11 4 23 2 34 3-11 0-23 1-32-4l-2 1-2-2c-4-1-3-5-5-8 0 2 1 3 2 4-28 1-59 4-86 0 0-8-8-11-5-19 1-5 5-8 7-11-15-16-27-34-36-52-6-20-6-39-5-59 1-15 4-28 11-39 10-21 23-38 38-53 0-5 0-11 2-13 12-16 26 1 37-14 2-5 4-12 11-14 6-1 9 1 13 3 11-3 19-5 24-14 6-2 13-4 16 0 11-5 8-17 18-20 4-1 6 1 7 3 9-6 11-13 14-18-7-8-21-9-21-19 5-7 10-13 16-17 12-5 21 5 27 12 14-7 28-5 38-14 0-2-4-3-4-6 6-7 12-8 18-10"/><path fill="#293A4B" d="M122 312c-8 12-9 27-11 41 3 19 10 33 20 46-2 11-10-4-12-7 10 12 5 23 17 34 4 3 5 5 9 6-5-10 9-2-1-15 4-1 4 5 6 2-9-11-5-16-22-30 11 8 20 14 30 18-1-4-6-6-7-10 5 3 8 7 12 10-3-5 2-7 0-13-3 0-4 1-7 0 4-1 7-6 5-8-3-13-9-23-9-35 3 12 7 23 13 33 6 1 7-7 10-25-1 13-1 24 1 33 0-4-1-10 0-14 3 13 5 24 12 33 11 17 18 25 31 39 6 6 6 3 14 11-2 7-5 16 2 21 5-6 8 2 14-10 9 1 11 15 18 16 6-6 8-14 11-14s6 2 8 0c-6 1-3-5-7-2-4 2-5 4-9 3-6-1-1-6-1-7-3 1-5 9-10 3 5 3 3 7 0 6-7-1-8-7-11-8 8-3 10-11 24-8-2 0-5-1-6 0 8-5 11-12 17-15-2 0 1-8-7-5 1-4 2-3 4-3-7 3-14 1-20-2-21-6-33-24-52-31-21-15-26-42-32-57 1-4 2-8 1-13l-1-2-2-2 3 3v1c1 2 0 4 1 6-4-6-12-5-12-6-2 0-2 6-5 4-5-7-9-8-8-21-5 11-8 13-15 15-1-3 1-3 1-5-3 3-7 1-8-2-7-1-6-16-8-13"/><path fill="#F3F6EA" d="M465 337c-6 15-22 5-31 11-32 25-70 30-101 52 7 5 13 2 20-1-2 4-6 5-9 7 16 9 36 10 57 9 18-2 33-9 47-16 9-8 11-16 15-24 3-13 7-27 5-38"/><path fill="#5D8B97" d="M225 268c-3 1-5 3-7 5-19 20-44 16-43 33 8 10 14-8 21 4 1 7-3 12-5 16 8 22 25 38 36 60 6 7 14 12 20 15 9 9 24 3 31 7 3-8 5-13 5-20-3-11-7-15-10-22-10-1-17-8-23-1-9 4-1 15-2 17-3 0-9-1-12-4 1 2 1 5 0 7-4-20-24-21-28-38-2-4-1-5 0-7 11 4 17 16 29 15 5-2 9-2 13-5 3-12-13 2-8-18-8 2-20 3-25 5 3-6 4-12 8-14-2-2-1-3-5-4 7-1 12 5 12 4-6-9-7-4-10-12 10-1 20 0 25 7 8 1 7-5 14-7 2-7-7-7-7-6-1-6-3-10-4-14-9-6-24-7-28-2 1-5-7-9-3-13 1-4 2-5 4-6"/><path fill="#568693" d="M337 217c-25 3-25 25-11 40 5 6 14 4 18 13 11 10 10 26 22 35 9 2 19 1 22-6 8-1 15 0 21 0 5 0 4-1 1-5 8-1 8 7 12 8 13 1 22 2 36 1 15 3 28-10 35-14 2-7-4-20 5-27-2 4-5 8-8 8-2-2-4 1-5-2 4 18-8 4 0 20-5 5-7 8-12 9-6-5-8-11-9-18-4 2-9 0-12 1-3-5 0-10-4-13-9 9-20 13-26 10-11-4-25-4-31-10-14-10-28-12-36-23-3 3 3 3 0 6-3-13-13-14-20-19-2-1-2 7-3 12-2-1-4-1-4-6 2-15 12-13 7-18"/><path fill="#6FAAB2" d="M357 233c-11 7 7 17 9 20 19 10 34 20 55 23 8 3 17-1 24-11 7 3 8 9 5 12 5 1 5 2 8 2 9 0 8-17 15-17 10-5 12 4 15 8 8 1 4-13 10-8-3-3-2-8-4-11-2 2-5 3-9 2-11-5-16-14-29-15-33-11-69 3-97-1"/><path fill="#182332" d="M152 342c0 15 5 28 10 42 2 4-1 9-4 10 4-3 6-1 6 4-2 4-1 6 0 9-6-3-9-7-11-11 3 9 8 14 17 16-9 6-18-3-27-7-2 5 6 10 8 12 0 2-3 6-4 0-1 2 0 5 1 6-7 2-1 6-5 11 13 4 10 10 12 16-1 5-5 4-10 12-3 5 4 18-3 16 26 5 55 4 79 1 4 1 5 0 6 2-1-4 0-3-3-8-6-3-2 3-5 2 1 0 4 0 5 4-23 2-53 3-73 0 1-5 5-11 10-12 10-1 11 3 12 11 6 0 11 1 15 2-2 0-6-1-4-5 1-5 8-8 8-8 7 1 11 3 14 8 1-16 12 0 10-9 0-8-6-12-2-18-20-14-27-22-35-37-5-17-7-33-4-49-2 6-3 15-3 21-3 1-3-2-5-4 0 2-1 4 0 5-9-10-14-26-15-40"/><path fill="#2A3B4C" d="M285 235c-1 2-3 5-2 6-20-8-13 23 2 42 15 24 36 37 52 51 35 2 28 13 42 10 17-6 26-2 46-8 14-6 5-8 26-13-2-2-5-3-2-6 6-3 11-3 15-4-43 3-83 10-108 10 6 6 15 10 26 13-24-2-37-18-57-19-21-15-21-26-30-45-4-11 1-26 4-29-4-4-8 3-10-1-4-1-2-4-3-6"/><path fill="#4B707F" d="M187 273c-37 17-54 20-16 47 1 3 8 1 9-7 3 3 1 3 3 5 3 4 6 4 8 0-2 6-5 10-9 12 10 19 13 45 33 61 13 12 25 21 39 27 12 7 25 6 35 6 2-8-1-25-4-36-1 8-4 13-6 20-8-3-23 3-30-5-25-10-30-34-45-50-5-9-9-21-13-27 1-4 5-9 4-14-8-12-12 6-19-4 0-4 0-10-3-11 6-2 9-5 12-6-6 11-1 7 2 13 2-1 6-1 7-3-8-10-2-14-10-28"/><path fill="#ACDCDC" d="M395 138c-8 3-8 7-16 8 1 6 7 8 11 7 2 0 1-1 2-2 1 1 3 6-1 6-11-8-15 5-26-2-3-9 7-8 11-9-10-4-20-4-30-5 2 21 24 37 29 53 23 0 38 0 60 6-7-4-13-9-22-8 5-3 12-2 16 0-7-8-13-15-18-24 3-6 11-2 15 1 4-4 4-7 7-9-3 0-3 4-4 5-2-3-4-5-3-8-7 2-12 2-18 0 0-4 7-1 10-4 0-3-14-13-23-14"/><path fill="#B0DEDE" d="M401 198c-39-1-32 11-7 12-5 3-7 0-9 3 0 2 5 3 3 6-8-1-14-4-21-4 5 7-5 16 8 20 11-5 7 1 22 0-5 1-6-1-8-4 16-5 39-4 60-3 1-2-1-3-1-4 6 3 6 10 9 10 12 4 20 9 28 17 8-6-1-7 2-14 4 2 7 6 8 11-4-9-9-16-13-23 0 2 6 4 4 6-11-7-21-12-30-16-8-1-14-4-20 0 3-5 9-5 15-6-12-7-26-10-41-11-3 3-7-3-11 0"/><path fill="#878D87" d="M294 322c-8 18 9 32 8 49 7 9 11 18 20 21 37-9 70-23 102-39-19 11-44 13-63 15-30-18-33-15-67-48"/><path fill="#395364" d="M149 295c11 10 4 25 6 36 4 14 11-3 22 8 0-1-1-4 0-6 2 7 1 11-1 15 6 11 10 29 19 43 15 17 35 23 50 38 13 12 35 6 39 15-8 12-26 19-35 25 4 0 2 6 9 7 2-6 2-2 10-8l2-1 1 1-1 2c-2 0-4 4-2 4 6 2 7-2 10-3-3 1-5 1-7-2 4-7 8-12 15-18 0-9 2-17 2-25-12 1-23-2-32-6-16-7-28-16-40-26-7-9-12-13-17-19-11-22-9-30-18-43 1-5 8-6 11-13-3 4-6 4-8 1-3-3-3-4-2-7-1 8-10 12-13 5-9-5-16-8-16-21"/><path fill="#334F60" d="M308 153c-3 2-6 5-9 7-3 12-6 23-8 33-2 0-1-4-4-6-8 8-9 17-18 24-5 12-1 18-3 28 2 7 2 15 7 19-1-6-4-11-5-16 4-7 10 2 13 0 1 0 2-3 2-8 6 1 4 5 5 7 4 3 5-2 10 0 7-9 17-16 24-21 4-5-3 2-5 2-1-7-8-11-12-14-2-2-7 6-10 1 5-15 12-28 14-43 1-6 25-19 2-6-2-2-5-3-6-5"/><path fill="#65686B" d="M298 309c-8 10 8 8 4 18 26 27 30 21 56 39 16 1 29-2 45-5 11-4 20-8 28-15-27-2-62 7-88-3-18-7-34-17-44-33"/><path fill="#6E6868" d="M309 411c-1 4-4 7-7 11-5-6-6 1-7-8 2 8-1 13-2 19 3 1 3-1 4-1-3 17-1 16 2 20 15 3 27 2 38 3 25-4 46-7 66-16-16 0-30 1-48 0-8 1-7-5-14-1-4-3 3-9-4-9-8 0-16 7-23 1-2-2-5 1-6-2 12-10 14-9 12-16-3 5-7 11-14 14-3 0-4-1-6-1 3-5 7-9 8-13"/><path fill="#8A8F8A" d="M325 403c-1 3-3 6-5 8-7 2-10-3-14-6-16 3-6 21-3 19 7-1 12-4 15-9 3 1-2 4 5 0-3 5-17 13-11 14 9 6 17-1 24-1s6 5 4 7c8-2 8 4 13 2 20 2 34 1 50 0 0 2-2 3-3 4l-2 1 1-1c15-9 15-8 26-15-17 0-49 6-72-5-9-1-14-4-19-6-7-3 0-5 1-7-4 2-7 5-11 6-5-5 1-3 0-9"/><path fill="#79A8B0" d="M229 210c0 3-12 9-3 12-1 1-3 3-3 6-23-2-59 9-25 3-3 8-10 9-9 16-5-1-6-3-4-4-1 0-1 10-10 4 4 3 7 2 8 5 14 4 13-20 27-17 7 0 11 0 17 6 4 5 7 11 4 15l1 3-2 1c-3 4-6 10-11 13-2 7 3 10 2 14 5-3 19-4 28 2 4 9 5 16 7 17 0 1 1-5 3-2 0-9-2-14-5-21-4 0-7 2-8-2-1-9 4-15-1-23-4 4-9 6-13 3v-2l-2-2c4-5 6-7 11-8-2-11 3-22 10-30-7 4-14 2-24 3-3-5 0-10 3-12"/><path fill="#4A7484" d="M313 228c-10 17 3 43 13 55 16 11 28 20 44 26 34 1 68-2 100-2 10-2 17-6 21-12-4 0-19 11-31 8-16 2-25 1-35 0-8 0-6-9-13-9 4 5 0 7-2 6-7 0-14-1-20-2-5 9-15 11-21 8-17-12-16-27-29-39 8 5 8 15 5 22-1-10-10 6-18-6 0-6-6-8-4-14 1-3 3-5 4-6-6-5-3-13-10-17-2-7-1-11-2-17"/><path fill="#76A8B0" d="m225 322 1 1c-5 3-6 9-8 12 8-3 16-5 24-1-5 14 9 5 10 12-5 8-10 8-14 11-48-35-22 5-1 24-1 0-2-2-3-3 4 2 11 2 13 5-2-5-4-9-3-15 2-3 3-5 5-6 11-4 19 2 24 6-12-16-27-37-46-46"/><path fill="#395262" d="M249 234c-3 18 5 26 9 42 8 18 14 35 18 52 4 16 4 34 7 48 2 6 3 11 7 10 8-9 4-2 11-13-3-14-8-26-13-37-2-10 3-4 1-9-10-12-17-34-30-49-8-22-6-26-10-41"/><path fill="#273647" d="M460 398c-7 11-21 24-23 42-10 0-5-6-9-4 1 2 4 4 5 6 11-1 14 3 26 1v3l-3-1c-5 6-12 5-21 4-1-2 1-6-11-8 4 5 6 10 0 17 12 6 7 9 17 17 13 4 8-18 23-10-7-5-14 6-19-1 4-10 12-15 18-17-2 0-5 2-7 0 6-3 10-4 13-6-2 3-5 1-7-2-6-7-7-13-11-19-3-12 25-24 9-20"/><path fill="#131D2A" d="M376 452c-23 4-47 10-72 6 3 5 9 8 8 11 1 5 0 6-4 4 7-1 22 7 36 3 2-5 4-10 8-12 8-2 12 3 15 7 4-3 5-9 8-8 20 11 3-1 2-11"/><path fill="#70A4AD" d="M264 302c2 2 0 5 1 7-5 6-8 9-12 10-59-26-3 17 14 33 6-2 3-10 5-15 0-12-4-22-8-33"/><path fill="#3E5865" d="M368 265c4-2 9 1 12 3 8 8 6 18 8 25-5 4-6-6-12-1-4 8 4-5 6 6-2 4-6 4-7 6-6 0-9-1-13-3-4-5-1-10 1-12-2 3-5 2-6-3-1-9 3-17 10-20"/><path fill="#2C3E4E" d="M265 235c-8 5 4 18-2 24 15 34 14 52 28 81-3-21 5-20 3-40-9-12-18-23-23-35-4-11-9-19-7-29"/><path fill="#92CACD" d="M328 155c3 1 0 5-1 7 6-2 11 4 14 11 9 7 12-9 17 2-6 5-6 12-10 18h20c-6 3-12 9-12 12 17 6 20 9 29 14 1-4-1-3-2-6 4-3 5-2 9-1-9-5-15-3-26-9 20-11 48-2 44-6-8-3-19-1-34-2 1-8-17-10-14-24-3-5-8-1-9-7 1 4-5 6-7 6-10-2-11-12-16-16"/><path fill="#1A2636" d="M299 279c6 13 7 25 24 38 22 0 36 17 58 20l2 1-3-1c-10-3-20-8-30-14 29-1 63-7 109-10 5-1 10-1 6 5 1-3 3-5 6-6-3 3-7-1-12 1-30-4-47 8-109 4-10-3-21-8-31-14-9-7-16-14-20-22"/><path fill="#365163" d="M309 233c-8 6-12 21-8 36 2 12 10 18 17 24 5 6 12 9 17 12-10-5-20-15-27-25-5-5 3-6-2-14 12 11 25 31 42 38 13 7 26 9 40 7-14 2-25-3-36-9-9-5-10-10-8-15l-3-2h-2l3 1h1c2 4-2 6 0 8-5-1-9-1-12-4-8-9-10-14-16-21-4-12-7-24-7-35"/><path fill="#496D7D" d="M483 397c-16 2-12 10-27 14 3 3 2 8 6 9s4-2 7-2c5 2 7 2 10 4 3 7-1 8-2 10 1 2 2 4 3 5-2 4-6 3-6 7 3-1 7-1 10-3 3-10 7-17 9-24-5-5-14-8-18-11 2-3 3-8 6-9"/><path fill="#3A5667" d="M461 401c-3 5-7 12-11 17 8 10 7 20 17 24-19 6 4 3-7 7-6 3-10 6-12 11-3 2-2 4 1 5 9 0 5 0 15-1-5-2-10 3-12-4 1-4 4-6 6-9 10-5 19-4 27-8-4 0-8 2-12 3 3-6 1-5 7-8-1-3-3-3-5-5 3-3 6-5 4-10-3-1-4-2-9-4 1-3 3-3 3-6-2 4-6 6-7 8-6 0-9-5-10-7-1-9 21-6 7-13"/><path fill="#B1BAB1" d="M337 398c-10-4-21 21-4 11 1 3-4 2-2 5 21 8 40 13 61 13 12 0 21-5 29-4 7-2 5 2 4 4 5-3 6-7 10-12-19 4-42 10-65 5-25-1-31-16-40-13-1-5 2-7 5-10"/><path fill="#2A3D50" d="M307 267c1 2 4 10-2 9 5 7 10 12 16 17 9 9 21 15 33 18 36 7 79-1 117-2-37-3-76 6-114 2-10-5-18-10-25-16-11-9-17-21-24-27"/><path fill="#3B5160" d="M263 196c-2 1-7 1-4 5-5-5-6-5-2 0 3 2 0 4 2 4-4 9-2 22-8 18-4 21 10-10 4 32 1 3 4 8 5 13 4 13 9 22 17 31-7-32-19-32-21-49 0-3 0-7 1-11 2 10 4 16 6 23 0-18-2-24-1-45 2 12-1-18 6-18-2-4-3-4-4-4"/><path fill="#CFD7CC" d="M456 391c-2 3-2 6-6 8-16 8-31 15-47 17-25 4-52-5-65-10 18 10 34 15 54 14 17 1 30-6 42-8 2 4 0 7-4 9 9-6 21-16 24-28"/><path fill="#5D8B96" d="M483 360c-4 3-7 1-14 6 1 5-4 11-2 19 1 4 8 3 6 6 8-2 10-4 12-9 2-8 0-20-2-21"/><path fill="#A0BAB7" d="M210 235c0 5-4 0-4 4-9 8-11 16 1 23 5 2 7-1 9-3h12c-4-1-7-3-9 0 5-8-6-23 0-22-3-2-6-2-8-1"/><path fill="#477283" d="M333 166c7 6 5 20 2 27-2-2-8 9-16 2 5 9-8 9-11 12 5 4 7 9 7 15 3-3 6-3 7-6-4 7 5 1 7 0 2-5-2 1-4 2-1-6 17-27 23-30-3 0-6 5-11 7 3-10 2-18-2-28"/><path fill="#656D72" d="M131 295c-5 5-4 15-5 20 1 3 3 6 5 12 4 4 8-2 9-4 2 1 1 3 2 5 6-2 7-7 9-11-4 3-8 1-8-1 0-17-8-8-12-21"/><path fill="#D2BFA2" d="M158 246c-18 21-34 40-43 61-8 26-9 51-6 75 0-2 2-2 1-5 3 1 4 2 5 3-2-10-6-19-4-31 0-11 0-22 4-30 5-16 15-35 22-42 5-7 15-24 18-16-2-4-4-9 2-12"/><path fill="#1D2938" d="M457 400c-4 6-9 13-16 18-7 8-19 15-22 15 4 7 11 8 17 11 0 4-2 3-3 4 9 2 18 2 24-4-16 0-14-6-22-4 3-7 8-13 6-20 11-5 9-16 19-20"/><path fill="#5D8B98" d="M497 382c-16 20-7-9-21 25 3 1 8 2 15 6 6-7 6-21 6-30"/><path fill="#CED6CA" d="M391 371c-21 9-42 17-62 25-12 0-18-10-24-16 0 4-2 8-1 13 5 5 11 7 15 10 7-2 8-3 14-5-1 3-3 4-6 6 3 1 5 3 8 2 14-4-11-2 0-7v-2h1c16-13 37-17 54-26"/><path fill="#527885" d="M273 368c4 4 9 17 3 24-11 2-18 1-25-5 5 0 8-5 15-5 4-6 9-7 5-11"/><path fill="#76AFB7" d="M332 162c-4 17 5-10 10 19 4 2 9 0 10-2-2 11-9 16-14 22 8-1 15-3 21-6-6 6-13 10-19 14 44 1-4 5 34 3-8-1-12-4-18-5-5-4 6-8 4-9l2-1-3-2v-1h1l-1-2c-4 4-8 6-11 1 1-5 3-8 5-11 1-4 3-5 4-7-3-6-6-2-8 2-9-2-11-9-14-13"/><path fill="#90C9CC" d="M349 214c-3 2 1 9 3 14 3-4 6-12 11-13-2 4-6 13-9 18 7 0 12 9 20 4-1-3-6-2-7-7-2-9 5-8-2-14 3-4 4 0 6-2-6-2-13 0-19-1"/><path fill="#395061" d="M194 255c-1 1-6 5-7 2 1 3-1 9-1 14 2 5 1 8 3 16 6-1 10-3 13-5-7-7-7-17-8-25"/><path fill="#4B6E7E" d="M250 224c-16 19 8 44-3 58 4 2 5-5 7-3 9 15 15 27 18 41-5-23-16-45-23-67-3-9-1-19 0-26"/><path fill="#283E50" d="M309 175c-3 7-9 24-13 33 8-1 13-3 19-6-3-5-5-15-6-26"/><path fill="#344A5B" d="M160 269c-9 5-18 13-20 22-4-1 17 2 24-8-2-3-4 1-7-3 3 0 8-2 3-10"/><path fill="#D8F0EF" d="M449 224c1 1 2 2 1 5-21-1-43-2-60 1 9-1 66 7 63-1"/><path fill="#99BFC3" d="M176 231c-8 14-12 23 8 15-5 1-7-1-1-4 5 1-1 4 4 4 0-7 8-8 9-13-9 5-13-1-19-1"/><path fill="#628A96" d="M292 448c-30 29 6 13 14 22 0-12-16-8-16-20"/><path fill="#78ACB3" d="M480 346c-7 4-11 10-10 18 5-2 11-7 16-4-3 7 8 10 2 27 4-17 8-35 7-34 1 4-4-3-4 5-4 0-6 1-8 0-3-4-4-7-5-10"/><path fill="#73AEB6" d="M347 214c-4 0-6 1-7 5 1-5-1-1-2-2-3 6-7 11-9 16 3-5 5-8 8-15 2 5-3 8 0 12 4 6 11 4 12 10 3-12-1-16-2-27"/><path fill="#030508" d="M460 390c-4 10-12 20-20 26-14 13-27 21-41 27-17 7-34 9-50 12-17 2-34 2-48 0 9 4 20 3 30 4 25-4 46-7 65-14 16-8 29-15 42-24 11-10 17-19 21-30"/><path fill="#61909A" d="M487 334c-7 10-13 10-16 19 2-3 4-5 6-7 5 8 4 11 11 12 9-10 2-22-4-20"/><path fill="#151E2D" d="M367 273c-5 4-9 9-7 13 4-4 10 1 16-1 4-1 8-1 6-6s-12-4-12-5"/><path fill="#4F4F56" d="M297 304c1 8 16 22 25 28 12 6 23 13 32 12-21-7-41-22-56-38"/><path fill="#6B7074" d="M460 317c-9 8-20 12-29 19-11 3-19 6-28 7 13 2 25-4 37-8 10-7 18-7 22-19"/><path fill="#61909C" d="M253 279c4 17 14 20 19 47 2 9-1 14 1 21-3 4-5 4-4 7-4-2-5-3-6-4l4 4c3 6 9 8 10 12-1-14-1-30-5-43-4-16-10-29-17-42"/><path fill="#E0E7E6" d="M489 323c-4 12 9 22 7 34 0 10-3 16-3 24 3-13 9 4 8-11-1-17-5-31-11-44"/><path fill="#9EB9B6" d="M171 252c-7 7-8-2-8 13 6-2 8 2 12 3 3-6 6-8 7-12-3-5-6-4-11-5"/><path fill="#5D8C98" d="M487 443c-10 2-13 18-19 12-1 2 41 13 17 0 3-2 0-7 0-10"/><path fill="#2D3E4D" d="M296 356c3 6 4 13 5 20-9 3-6 17-15 10 4 8 4 9 9 19 4-7 7-16 3-25 6 1 4 6 5 9 0-13-4-24-5-31"/><path fill="#98BFC3" d="M226 211c-20 7-11 8-28 20 10-4 14-2 22-4 9-4-5-11 10-17"/><path fill="#547A87" d="M250 363c-11 6-3 19 3 24l3 1c6 4 10 6 18 0 3-5 1-10 2-13-4-2 0-4-4-5 2 1 0 4 1 4-3 9-13 9-17 12-9-4-15-15-9-22"/><path fill="#AA917A" d="M115 375c5 16-6-5-4 9 0 6 1 11 4 15 1-2 4 4 2 4 6 14 14 27 24 36-12-21-1 5-25-38 4-3-2-10-2-16 4 2 7 9 11 10-4-7-7-13-9-18"/><path fill="#BCE5E2" d="M375 107c-36 19 20 5 14 13-1-4-4-9-10-11-3-1-4-1-5-1"/><path fill="#679AA4" d="M444 247c6 2 7 1 9 3 1 6 0 11-4 13-4-1-7-1-8-3-1-6-1-10 3-11"/><path fill="#B1B9AF" d="M303 394c-1 3 0 6-2 8 8 1 10 10 16 10 3-2 5-4 5-6-5-3-11-6-16-10"/><path fill="#4A7080" d="M482 445c-11 3-23 4-30 14 2 6 8 2 11 4-2-3-4-6-8-4 11-1 20-6 26-15"/><path fill="#2E3E4E" d="M196 257c-1 7 1 17 6 23 9-3 15-7 21-11-5 0-8 6-17 3 2-4-12-8-10-13"/><path fill="#141C29" d="M329 271c-4 1-1 8-2 7 6 6 12 5 18 6-1-2 1-6-1-9-7-6-9 0-13-2"/><path fill="#DFF5F0" d="M375 126c-12 13 9 10 15 9-1-4-4-6-6-8-4 0-6-1-7 0"/><path fill="#50464D" d="M356 463c-21 15 3 13 13 13-2-3-14-8-10-11"/><path fill="#4D6F7F" d="M287 450c-3 5-12 9-11 14-7 5 23 11 17 6 2 3 7 5 8 1-1 0-3-1-4 0 1-3-2-5 0-6-1 2-8 2-5 4-7-1-11-3-17-2 12-3 6-9 11-15"/><path fill="#C59383" d="M428 135c-4 3-6 6-9 9 2 5 4 4 5 7 5-3 7-5 9-8 0-3-2-5-3-6"/><path fill="#93C4C9" d="M335 135c-8 2-20 7-3 2-1 3-3 3-3 5 10 9 4 9 12 10-6-9 10-11-6-16l3-1h-1"/><path fill="#DEF0F0" d="M446 212c14 2 26 10 39 18 9 10 14 19 14 30 3-10-5-20-11-27l-1-1-3-2c-5-7-11-11-17-15-7-4-14-2-19-3"/><path fill="#527885" d="M191 292c4-2 5 4 4 6-1 6-5 6-7 8-5-3-6-4-7-7 2-6 6-4 8-6"/><path fill="#6397A0" d="M392 249c3 1 9 2 9 5s-1 5-3 6c-5 2-8 2-9-2s0-6 1-8"/><path fill="#CFE1DC" d="M217 238c4 6 7 11 2 17 4 4 6 0 7 1 1-4 6-6 1-12-2-4-6-6-8-6"/><path fill="#6597A1" d="M446 248c-3 2-6 5-4 10 0 3 4 3 4 4 6-2 7-7 8-10-4-6-5 0-6-2"/><path fill="#74B0B7" d="M414 168c2 11 15 15 20 21-5-6-2-11-5-20 0 8-9 3-12 2"/><path fill="#181F2A" d="M264 231c-1 11 4 24 8 31l1 3v2c5 10 12 20 20 30l2 2v1c1 6-1 10-1 15 2-4 1-9 3-13 5 7 18 17 23 22 13 9 23 15 35 19-26-9-36-25-58-41v-2l-1-2-1 1-1-3c-8-9-14-20-20-30-5-11-9-22-11-33"/><path fill="#5F8994" d="M251 218c0 5-6 9-7 13-2 8-1 13 0 18-5-1-7 4-10 5-1 3 0 5-1 6 10 3 6-10 10-8 6 7 6 19 2 27 7 3-2-7 6-8-4-13-9-24-7-38 2-5 5-8 7-12"/><path fill="#B68878" d="M298 140c-25 3-6 11 1 13-1-5 0-9-2-12"/><path d="M214 452c6 4 4 16 8 19 4-4 4-8 5-11-3-3-7-4-11-7"/><path fill="#010103" d="M323 173c-3 6-2 14 2 19 5-5 5-8 4-13-9 3 4-7-3-5"/><path fill="#171F2E" d="M480 263c3 6-20 10-12 18 1-5 9-3 13-8 3-5-1-7 0-9"/><path fill="#C2DAD6" d="M139 294c-1 4 4 9 4 14 0-1-1-3 0-4 3 2 2 5 2 8 2-10 4-1 6-2 1-4 3-7 1-9-6-4-10-4-12-4"/><path fill="#05060A" d="M296 254c-1 11 1 19 5 27l1 3 1 1 1 1c7 12 19 19 30 24 10 3 17 5 25 6 5 0 9 1 12 1 23-1 43-3 63-4-21 0-40 3-61 4-17-1-30-6-43-10-12-7-22-14-27-23-6-10-8-18-7-28"/><path fill="#79ACB4" d="M322 139c-12 4 2 14 10 10 0-3-3-4-4-7 1-1 1-3 2-4-3 1-5 2-8 3"/><path fill="#E5F3F2" d="M334 153c-3 2 8 6 8 10 8 3 8-4 14 2-7-6-13-10-19-12"/><path fill="#648F9A" d="M484 326c-2 4-8 7-11 11l-1-3 2-2-1 3v2c-6 1 0 6-4 10 8-8 12-8 17-21"/><path fill="#6D615D" d="M178 401c4 15 15 29 27 39-13-16-26-41-25-34"/><path fill="#E8F4F0" d="M465 321c-3 1-3 5-6 6 7 2 7 8 7 8h3l2-1c1-2 1-4 2-6-2 1-1 4-2 6-3-4 0-6 1-9-3-1-3-5-6-3"/><path fill="#365467" d="M322 164c-3 1-7 5-9 8-1 9 1 14 3 19 1 6 4 2 6 5-3-1-6-12-6-19 0-6 2-7 3-10 5-3 7-3 10 0-1-2-3-2-5-3"/><path fill="#60939D" d="M394 250c-4 1-4 4-6 6 3 6 6 5 8 3 4 0 4-2 5-4-1-5-3-1-6-5"/><path fill="#668793" d="M161 248c-7 10-1 13-20 22 6-8 12 4 18-4-3-8 5-16 2-15"/><path fill="#C6B59D" d="M294 171c-9 15-23 20-28 38 9-13 23-28 27-34"/><path fill="#4F7483" d="M466 387c0 3 1 4 5 8-5 5-6-3-9-4-8 8 5 9 10 6 4-5 9 1 13-9-9 13 0-5-11 5-1-4-4-4-6-5"/><path fill="#CBD5D3" d="M502 374c-1 11-7-5-9 8-2-3 0-3-1-6 0 4-1 6-2 9 1 3 4-4 6-6 4 0 1 7 3 6-2 21-4 41-10 46 12-24 10-31 13-54"/><path fill="#598D9A" d="M332 165c5 0 7 10 8 15 1 6-1 10-2 14 6-5 12-10 14-13-1 1-6 2-9-1-4-5-5-11-8-15"/><path fill="#646B72" d="M216 260c-2 4-5 6-9 6 3 1-1 4 4 4 12-2 19-9 5-7"/><path fill="#77AAB2" d="M480 280c-2 0-3 1-4 2s7 2-1 10c-4 1-7 0-7-3 1 2 2 3 1 6 6 3 9-2 11-3 4-5 2-10 1-12"/><path fill="#E4F4F4" d="M424 154c-17 6-13 5 2 1 0 4 0 7 2 8 2 0 2-4 4-5-1 18 6-10 13 18-2-9-5-17-12-20-4-1-6-2-9-1"/><path fill="#ACDAD9" d="M329 153c-5-2 10 7 10 14 5 4 9 2 12 1-1 2-18-10-19-16"/><path fill="#B2BAB0" d="M415 359c-28 13-57 25-86 34-14 0-20-11-25-18-1 2 0 6 0 9 0-2-1-4 0-5 6 6 13 16 22 16 31-11 59-22 87-35"/><path fill="#6F6159" d="M300 277c4 7 9 15 17 19 10 8 20 11 30 14-17-3-40-24-46-32"/><path fill="#74A6AD" d="M478 314c1 5-4 10-1 16-3 2-3 7-7 7 5-3 9-7 13-10 0-6-3-8-4-11"/><path fill="#D6E7E0" d="M221 241c6-1 11 10 5 12-7 3-4-6-5-9"/><path fill="#375062" d="M349 130c-2 9-15-5-7 9 13 0 22 2 33 3-44-6-8-9-22-9"/><path fill="#05080E" d="M328 266c-8 19 4-5 16 11-2-4-5-8-8-10-4-1-5-1-6-1"/><path fill="#4B6E7E" d="M273 323c6 16 3 41 7 51-2-14 0-35-6-50"/><path fill="#53484D" d="M375 464c-10 10 3 11 10 9-3-2-7-4-9-7"/><path fill="#C2D7D4" d="M244 198c-11 9-3 4 4 0 1 3-1 5-3 5-3 2 6-2 6 11 0-2 4-2 4-3-2-2-3-9-4-11v-1h-2c-2-1-3-1-4-1"/><path fill="#16202D" d="m321 169-2 1c-3 5 1 10-2 14 6 1 1-7 6-10 12-2 4 15 10 6 6-16-16-5-8-13"/><path fill="#3A5362" d="M296 471c-8 7-20-6 3 10 6-9-2 1 13-11-8-4-13 10-18 1"/><path fill="#D6F3ED" d="M364 127c-11 2-4 7 3 7 3-2 2-5 3-7-2-1-3-1-4 0"/><path fill="#05080E" d="M369 270c-6 1-9 6-9 10 1-1 1-4 4-5-2 1 31 2 5-6"/><path fill="#E3F2EE" d="M456 333c-3 1-6 3-9 4 1 4 8-1 4 6 14-4-2 1 10-9"/><path fill="#8D928F" d="M249 478c-5 1-3 6-5 8 3 2 5 1 7 2-3-3 0-5 0-8 5 2 8 3 9 7v2-2c-1-4-1-7-5-8-3-2-4-2-5-2"/><path fill="#77A6AE" d="M363 291c-2 3-4 6 0 8 6 5 12 6 15 1 4-2 3-7-1-5 0 5-7 9-11 4-4-2-4-4-3-7"/><path fill="#24374A" d="M376 268c4 3 8 9 8 14-7 6-17 3-23 4 10 6 12 5 22 0v-1h1l-1-3c1-5-2-10-5-13"/><path fill="#666A6E" d="M275 478c-2 3-2 6-1 7 4 1 8 5 13 3-3-3-7-9-9-8"/><path fill="#E5F5F4" d="M413 191c14-1 23 10 36 13-6-4-12-7-18-12-5 3-10-5-16 0"/><path fill="#8EC9CC" d="M410 166c2 7 5 0 13 6 4 1 6-1 5-4l2-1-1 2c-6 2-10-5-17-3"/><path fill="#486F7F" d="M312 149c-3 1-3 4-5 6 4 4 8 4 11-1 1 3 0 4-1 6 1-2 2-3 4-4v-3c-4-1-8-1-11-2"/><path fill="#7B7A79" d="M332 430c2-1 5 0 6-1 2 4 0 5 0 6-3 1-18-1-7-5"/><path fill="#87BABF" d="M365 158c2-1 5-1 7 0 0 10-15 8-9 1"/><path fill="#685D5B" d="M339 335c7 3 16 9 23 8-3-3-13-8-20-8"/><path fill="#908D85" d="M129 287c-4 10-9 20-13 31 2-4 3-8 6-11 2-5 5 1 3 6-1-9 3-15 1-15 8-9 6 1 10 1-3-7-5-6-8-4-1-3 0-4 1-5"/><path fill="#7B675F" d="M146 451c4 0-4 7-5 10-1 7 0 11 2 14-6-9 7-19 7-25"/><path fill="#C1D1CD" d="M459 467c-2 5 8 8 10 12-3-5-1-13-7-12"/><path fill="#2E3F4E" d="M160 264c5 7 2 19-3 15 8 5 13 2 17-2 1 1-5 3-8-1-5-7 5 1-7-11"/><path fill="#080C12" d="M344 479c9-1 19 0 27-1-8 2-16 2-25 2"/><path fill="#1F1E29" d="M296 133c-10 6-14 8-1 1 6 5 12 4 15 10-2-3-4-10-10-10h-2"/><path fill="#4B7584" d="M481 457c-3 1-5 3-6 6-1 4 1 5 3 6 3-1 4-4 6-5-2 0-4-2-7-1 1-4 2-5 4-6"/><path fill="#C5D7D4" d="M491 466c-10 2 4 8 6 11 0-3-1-6-4-9l1-1-1-1"/><path fill="#5E8D9A" d="M316 144c-11 7 4 9 8 8-1-4-5-5-7-5"/><path fill="#415261" d="M145 273c-4 12-10 8-13 18 7-2 9-8 14-17"/><path fill="#66666B" d="M453 470c-3 5 0 6 4 7 2 2 6 0 9 2-4-3-8-8-12-7"/><path fill="#202935" d="m249 476-3-1c-1 14-12-2-11 8-1 5 5 1 7 4 1-4 3-8 4-11 8-1 14 3 5-1"/><path fill="#182028" d="M290 128c-6 3-10 9-14 14 6 9 15 11 21 17 7-2 9-7 13-12-3 4-7 8-11 11-8-5-15-9-22-14 2-6 6-10 11-14"/><path fill="#5B8D9B" d="M342 197c-6 4-10 10-15 14 2 1 34-17 12-7-2-3-1-4 1-5"/><path fill="#666B70" d="M485 469c-3 2 1 5-1 7 3 4 8 1 11 3-4-4-7-7-11-8"/><path fill="#696A70" d="M195 472c-3 1-6 2-7 5 5 1 16 3 8-4"/><path fill="#616F76" d="M181 251c6 5-3 13 3 20 3-4 1-9 3-12-1-4-4-5-4-7"/><path fill="#75A4AD" d="M370 148c-5 6 4 11 7 4 0-1-2-4-4-3"/><path fill="#4D6B7B" d="M159 267c-6 5-13-1-14 12 5-3 9-8 14-10"/><path fill="#6A6565" d="M427 465c-10 22 3 3 9 6-2-2-5-4-8-3"/><path fill="#3E4955" d="M132 350c1 1-6 13 1 18-5-4-8-11-4-16"/><path fill="#3A5062" d="M288 396c1 8 3 19 3 27 5-8 0-18-2-25"/><path fill="#696569" d="M160 468c1 3-4 6-5 9 3 4 19-12 6-8"/><path fill="#C5DBDA" d="M166 231v1c1 2 2 3 2 5 4-1 10-5 1-7"/><path fill="#87A2A3" d="M162 232c-2 1-4 2-3 5 1 2 2 3 5 2 3-3 0-6-1-7"/><path fill="#5F4149" d="M298 140c2 0 4 2 5 3 3 5-2 12-4 12 6-3 8-7 12-9-6-3-6-4-11-5"/><path fill="#384C5D" d="M460 315c-3 1-11 0-12 5 4 5 8-2 12-5 5 4-1 7-1 10 3-4 8-9 4-11"/><path fill="#745559" d="M427 130c-3 5-6 9-8 14 3-3 4-7 8-9 10 11 10 3 2-4"/><path fill="#76ADB5" d="M323 154c-1 2-3 3-4 5 3 2 4 3 7 4 1-3 5-8-1-9"/><path fill="#41434A" d="M326 321c5 1 9 10 15 10-6 5-8-5-14-7"/><path fill="#95CBCC" d="M489 236c-8 11 5 4-1 18 4 1 3-10 8-3-2-5-4-10-8-13"/><path fill="#736760" d="M114 385c0 1 2 2 1 4 4 6 5 19 0 10 2 4 9 13 13 19-6-8-9-18-12-28 4 1 8 7 11 10-14-31 7 11-12-15"/><path fill="#DBEAE3" d="M222 242c2 3-1 13 2 11 6-3 3-7 1-11"/><path fill="#616C74" d="M235 206c-3 0 0 9 10 10-8 3 0-9-7-10"/><path fill="#5D8895" d="m414 130-3 6c1 3 2 2 6 3 2-3 4-3 4-4-4 3-7 1-5-5"/><path fill="#466F7D" d="m315 163-2 1c-1 5-4 9-1 13-5-6 16-15 5-13"/><path fill="#020306" d="M436 172c4 3 0 11 5 15 1-5 1-10-2-15"/><path fill="#C7D7D7" d="M500 259c3 7-2 21-5 27 6-6 7-16 6-27"/><path fill="#2B3B49" d="M301 475c-1 2-2 3-3 5-10-8-1 7 3 6 3-3-1-6 0-10"/><path fill="#0C1117" d="M476 480c5-2 10 2 15 0-4 3-9 3-14 2"/><path fill="#36414D" d="M213 414c12-1-5 4-4 10-2-4 1-7 3-10"/><path fill="#33363F" d="M211 469c-3 1-5 3-4 7 3 0 6 0 9 1-15-12 7-4-3-7"/><path fill="#4D4750" d="M192 469c-5 0-10 8-5 10-1-3 4-8 6-8 5 1 8 6 7 7-1-4-2-7-6-8l1-1-1 1"/><path fill="#E0E8E8" d="M480 310c-3 3 4 7 3 10 7 0 1-6-1-9"/><path fill="#ECF2F0" d="M494 468c5 2 3 13 10 11-2-5-5-8-7-11"/><path fill="#345062" d="M467 465c0 3 9 6 9 12 5-4 1-6 4-7-5 1-9-5-12-3"/><path fill="#75645C" d="M145 434c-9 7-11-3 4 13-3-4-5-8-1-10l-2-1-1 1v-1"/></svg>