<svg xmlns="http://www.w3.org/2000/svg" width="600" height="600"><path fill="#606E7A" d="m376 108 1-2c19 11 39 5 59 8 21 10 32 16 40 23 0 29-1 46 0 70-3 8-5 14-10 20-6-4-7-10-11-14-5 2-7 4-10 7 0 12 7 21 12 28 1 7-7 3-9 2 2 11 9 18 14 27 4 11 2 21 0 29-4 15-10 26-18 37-20 21-35 45-60 56-7 12-4 19-2 30-4 4-6 0-9 0 1 9 5 15 11 20 16 7 33 2 47 10 10 2 17 10 18 17-16 1-34 5-62-2 3 4 6 7 5 11-8-3-15-3-23-2 1 3 2 5 2 7-15-6-27-2-45-10-14 9-30-4-41 9-2-8 1-14 7-18 6-3 10-3 14-5-2-10-3-20-5-30-4 2-5 6-11 6-1-14 3-24 2-35-8 7-15 12-22 16-8 0-5-9-7-12-6 2-11 5-16 7-6 2-6-4-8-7-29 8-49 35-78 40-3 2-6 2-6-1 5-7 10-11 14-15-7 0-14 2-21 2-10-4 2-12 5-13-10-1-23 2-32 0 33-29 53-41 91-61-8-5 9-17 11-23-6-2-12 1-18-1 14-18 34-24 41-41-1 0-3-1-4 0 33-16 35-46 70-60 4-6 6-10 9-15-2-2-7 0-7-5 4-8 12-14 14-16-1-3-5-3-6-5 14-10 12-12 15-22-6-4-14-8-21-12 5-5 11-10 18-9-7-5-15-9-18-14 15-4 30-1 43-3-6-4-14-8-17-14 10-1 17 2 24 4 1-1 0-3-1-4 9-1 15 2 21-1-3-4-7-7-10-13"/><path fill="#111D2C" d="M375 300c-2 15-10 29-21 41-11-1-3-13-14-10-12 10-20 12-31 17-2-1-3-2-4-3-6 1-17 4-18 1 0-7 4-11 6-15 5-3 8-6 16-3-11 2-20-5-30 0-5-3-5-5-4-9-5 0-6 3-9 3-2-8-1-14 2-18-12 13-28 12-34 32 3-7 7-12 11-17 8 1 10-5 14-5 1 9 6 11 3 16-6 8-13 21-20 28-3 1-5 0-6 3-3-3-2-4-1-5-17 3-20 8-35 16l-20 10-2 1-2 2 3-1 1-2c6-3 12-6 19-9-3 7-7 14-11 21 2 1 4 0 5-1-15 17-33 24-48 39 11 4 20 0 29-2-6 7-13 14-17 20 12-2 21-7 31-12 23-13 42-33 60-52-1 7-3 11-4 20 11-3 18-13 24-20 1 2 5 2 5 4 4 0 4-2 5-4 5-4-2 3-3 4-3-2-4-3-5-4l1-2v-2c5-5 6-13 10-18 5-2 8-2 11-1-3 7-3 14-7 19 1-3 2 3 3 5-3-9 2-13 5-23 8-2 14-4 19-7 4 3 6 6 10 7 5-4 8-8 12-11-1 7-6 12-10 18 12-7 13-30 27-28 6-6 10-10 12-14 8-9 9-19 13-28"/><path fill="#757984" d="M370 323c-11 19-47 37-40 51-1-3 1-2 2-5 5 5 5 10 6 15 2-11 17 0 22-9 2 4-2 6-3 8 10 3 16 7 21 0 2 4 0 4-1 6 5-1 12 0 18-3 1 3-3 4-4 5 17-10 32-26 41-44-1 3-4 3-6 4-5-4-5-7-4-11 0 9-12 12-13 12-4-3-6-8-7-12 1 0-3 4-4 5-5-2-9 3-11-3-1-5-2-8-1-11-1 3-3 6-4 9-5 0-6 2-10 3-4-6-3-14-2-19"/><path fill="#ECF9F7" d="M363 195c-9 5-16 15-23 23 0 10 0 17-2 24 6-6 10-13 13-20 4 6 7 12 10 17 7-8 6-19 12-24 3 5 3 9 6 11-3 2-5 0-6-1-3 6-4 12-9 17-7-2-9-7-11-11-3 2-5 4-6 7 9 1 18 6 22 12 5 9 8 16 10 23 2 11-2 23-1 30 7 5 8-8 12 0-3-6-6-12-6-20-1-9 1-16 2-24 2 8 2 16 6 22 10 7 14-1 17-7-3 8-1 15 0 21 5 2 4-4 3-7 9 1 9 0 13 3-5-30-23-53-39-78-9-7-20 2-27 7 2-9 4-17 6-26"/><path fill="#3A5F87" d="M330 242c-5 1-10 1-14 4-9 3-16 8-20 15-6 17-8 34-9 51-7-13 2-26-4-36-12 5-27 9-38 18 6 1 11 0 16-1-11 2-15 11-20 20 6 3 13 1 16-2 8-6 11-12 14-17-1 8-5 15-5 25 4 0 7-1 9-3 1 4 1 6 2 9 15-1 29 1 39 0 5 0 7-4 10-5 3 4 6 3 8 0 1 2-1 5 2 7 5-2 7-6 9-9 4 2 6 5 7 8 5-6 3-14-1-18-4 4-9 10-14 14 2-5 5-7 6-10 0-6-1-9 0-13 2 3 0 16-7 20-11 0-5-8-10-9-5-2-2 3-5 3-4-1-4-4-5-6-3 3-6 4-7 6-4-3-4-7-3-12-3 0-8 5-9 1-1-9 0-15 3-20 10-10 11-23 20-34 8 3-3-7 13-6 3 0 2 4 4 5-2-1 0-6-3-6"/><path fill="#898A90" d="M403 204c-9 14-10 11-7 19 12 15 20 32 26 51 13 12 0 27 8 36 8-7 7-23 6-38 4 2 4 12 5 14 6-8-2-21 6-22-3-3 1-16-8-19 5 3 9-1 9-6-3 0-6-8-7-11-2 1 1 4-3 5 0-7 2-13 6-15-9-3-15-7-22-12-5 6-6 11-11 14-8-3-7-8-9-14"/><path fill="#4A5154" d="M312 432c-11 9-3 24-1 34-8 2 0 9-4 14 15-7 27-1 39 3 1-5 4-7 5-10 10 3 8 1 18 7-1-4 1-7 1-9-5-1-8-2-14-3 14 0 0-7 10-7 10-3 16 5 17 11 11 0 17 2 26 1-1-3 3-8-3-8 5 1 11-6 18 0 2-3 3-5 6-6-26 1-25-5-38-2-9-3-12-8-19-15-8 3-11 12-15 18-6 3-9 5-12 6-7-5-11-7-17-15-2-6-3-11-4-15-14 5 4-8-12-2"/><path fill="#4675A4" d="M344 240c-7 19-8-4-20 5-1 2-14 16-16 28-3 8-2 13-1 19 3-3 6-5 8-9 2 3 0 7 3 9 2 0 4 0 4-3 0 4 2 8 4 9 3-13 16 2 21-17l3 2-2-1c0-7 0-15-1-22 1-12 24-18-3-18"/><path fill="#646C7D" d="M361 376c-6 6-12 3-19 4-10 31 5 5-11 36 19-3 32-10 46-16-11 8-23 12-35 16-2 7-1 13-2 18 8-2 5-6 2-9 12 11 11-11 22 7 4-6 1-10 3-13 4 5 6 7 10 8-1-10-2-17 3-27 16-10 20-17-6-8 3-4 4-5 5-7-6 6-13 1-22 1 0-5 3-6 4-9"/><path fill="#EDFAFA" d="M381 112c4 3 7 11 14 11-4 3-8 2-11 4 1 0 7 1 5 4 16-1 31-5 46 1-14 1 2 4-11 6 4 6 13 1 16 8 6 5 3 11 6 15 4-1 6-4 10-5 6-3 8 6 11 4 3-9 1-17-2-22-5-9-12-13-19-16-25-10-41 1-64-11"/><path fill="#DDECE8" d="M404 297c-3 4-5 7-9 10-4-4-8-4-7-7 1 3-7 9-11 4-4 10-6 22-5 35 11 0 12-10 15-16 2 6 2 12 2 19 3 2 5 1 6 2 4-5 6-8 8-11 1 5 2 10 5 14 2 0 5 3 6-1 4-5 5-11 7-16-10-9-14-24-15-32"/><path fill="#1A2A41" d="M363 283c-4 7-11 14-12 24 4-2 5 11 8 10-3 8-1 6-4 11-1 0-6-4-7-7-13 9-20 8-25 21-4-6 1-10-4-14 6-8 8-5 12-3-10 1-22 1-23 3-6 1-2-1-6-2-3 3-13 7-16 21 5 0 12-2 18-4 3 2 3 4 4 6 4-4 9-6 12-7 4-3 13-6 19-11 6-3 5 3 9-1-2 6 0 8 1 12 13-7 18-21 25-38-6-10-8-12-10-21"/><path fill="#969D9E" d="M328 374c-4 7-11 10-19 6-6 7-11 11-15 14 2 6 1 10 4 12 5 3 14 8 18 4 7 1 7 12 14 15-1-16 4-34 7-37-2-8-3-11-8-12"/><path fill="#9C9B9E" d="M343 177c-2 1-4 2-5 4 1 1 4 0 6 1-7 4-12 9-18 13 7 6 11 0 16-1-8 6-17 13-22 22-2 4 8 4 9 0-6 10-11 17-15 27 6-3 14-3 20-5 4-7 2-15 5-21 8-8 14-17 21-23 3-2 7-2 8-1-2 10-6 17-8 24 6-4 12-8 18-10-3 0-4 2-7-1-2-6-3-11-1-14-2-1-4 0-8 0 4-13 3-8-4 0-6-1-11 2-17 0 1-7 10-12 11-13-3-1-5-2-7-3"/><path fill="#5E909E" d="M360 142c-36-7-38 4-10 12-9 0-16 2-22 4 3 4 12 4 12 10 11 5 13-8 18-1 3 2 0 3-3 4 2 3 9 3 8 5 5-1 12 0 15-6 0 2-2 2-3 0 9-6 2-15 5-22 0 5-8 5-16 2 0-4 1-6 2-8-3 0-6 0-7-2"/><path fill="#636977" d="M332 366c-3 3-6 4-13 10-5 1-7-1-9-4l-17 17c-6 2-8-2-8-4-3 3-6 4-10 6-3 0-5-1-6-3-7 7-14 15-21 20-8-4-2-13-2-19-7 8-14 17-23 23 6-1 12-2 16-6 2 4 4 7 6 10 8-5 20-8 20-19 1 7 1 17 3 23 8-4 14-8 20-13 3-5-2-7-3-9 4 1 5 3 6 5 3-6 2-4 1-13 12-17 35-4 40-26"/><path fill="#354052" d="M391 164c4 9 11 15 17 21 6 3 10 7 14 5 5 7-1 12 3 16 8-2 7-10 7-15 7-1 13 7 19 10 2-4 2-10 6-14 2 2 10 12 9 21 1-10-1-20-4-28-1 1-1 3-2 5-4-6-7-11-10-16-13 4-27 15-30 17-19-2-15-16-28-19"/><path fill="#7B7E86" d="M435 255c4 8 9-3 11 7-6 7 4 9 0 22-1 3-4 6-5 7 1-6 5-3-3-8 2 2 0 4 1 7 4 12-4 5 1 11-4 7-12 13-19 23 4 7 1 16 5 24 6-4 9-3 12-10 3-13 11-30 5-41 5 2 7 6 10 10 3-15-4-29-3-39-2 2-4-4-4-4-1-6-4-9-9-7"/><path fill="#EDF9F8" d="M389 170c-5 0-34 15-13 16-2 5-5 7-4 12 3-2 8 0 9-3 3 6 5 13 13 16 4-3 6-7 7-12 9 15 8 5 6 18 8-3 9-7 12-11-8 1-7-13-11-16-10-6-17 4-24-2 1-7 7-4 10-7-2-1-5-2-7-3-1-3 2-5 2-6"/><path fill="#233143" d="M257 315c-3 4-10 5-14 6-13 16-13 21-25 39 6-1 10-4 15-5-1 8 3 3 6 3 9-7 16-20 21-26 4-6-2-10 0-17"/><path fill="#5388B9" d="M358 245c-5 2-8 8-11 13 3 1 10-2 8 7 1-2 3-2 2-4 5 4 6 8 7 11-1 4-3 5-3 6-4-9-8-7-12-11 1 15 6 3-5 32 12-4 15-14 18-19 5 8 8 11 14 14-2-8 2-21-4-30-3-8-6-15-12-18"/><path d="M337 418c-6 0-3 7-4 10-2 2-3 1-4 0-2 7 1 13 2 19 4 8 8 14 15 16 4-3 9-2 9-5-3-10-6-17-7-24-4 2-5 5-10 4-1-8-1-14-1-20"/><path fill="#BFCAC7" d="M160 397c-11 6-20 18-30 25 8-1 16-1 24-3 18-11 46-29 4-21"/><path fill="#1E2A36" d="M337 353c-5 3-9 7-13 12-6-1-8-4-10-7-7 3-13 5-18 7-5 7-8 13-7 21 13-4 14-11 22-22 2 2-1 3-1 6 2 3 6 5 7 5 10-5 14-15 18-20"/><path fill="#112032" d="M304 276c-4 6-7 16-5 23 4 3 5-3 7-2-1 6 2 9 2 14 2-2 5-3 6-6 4 2 3 5 6 6 0-1 2-2 1-4 5 0 7 2 8 4 3-8 11-15 14-18-6 7-12-2-15 8-6-7-7-9-12-5 0-5-3-7 0-10-4 4-6 7-8 11-4-7-6-14-3-19"/><path fill="#273F57" d="M236 314c-8 7-13 10-25 22 7 0 14 0 17-2-7 14-14 19-15 24 3 2 4 1 5 0 1-16 33-35 21-45"/><path fill="#202939" d="M368 424c0 2-1 4-2 7-6-1-8-4-12-5 4 2-2 3-3 5 1 8 2 14 7 26 3-5 8-19 15-18-1-3-2-9-4-14"/><path fill="#0F1D2C" d="M454 272c3 9 3 21 2 32 0 9-7 2-8 0-3 17-6 34-16 47 11-11 22-27 27-46 0-12 2-23-4-30"/><path fill="#5790BD" d="M406 134c0 7 7 7 2 9 24 15 15 6 33 21 2-9-5-14-5-18-9 2-8-7-16-1-5-4-6-12-11-10"/><path fill="#172539" d="M287 325c10 2 2 12-1 16-11 3-14 2-18-1 1-5 2-9 5-11 5 1 8-1 12-2"/><path fill="#171F2C" d="m431 460 2 1c-6-1-9 6-5 8-6-4-14 0-17-1 0 4-1 6 0 7 6-1 12 2 17 2 5 3 3-2 0-6 26 14 17-8 4-11"/><path fill="#8B8D93" d="M386 275c0 9 2 22 8 31 6-6 14-11 11-17-8-1-17-8-18-13"/><path fill="#1F3041" d="M199 373c-18 10-23 12-36 21 7 2 16 3 22 0 5-6 9-13 13-20"/><path fill="#E1F0ED" d="M413 288c2 10-7 6-1 20 1 3 5 5 7 4 5-7 5-12 8-18-4-4-8-6-12-5"/><path fill="#68696F" d="M296 407c-1 10-2 20-3 31 7-6 13-13 15-20-1-7-8-6-11-10"/><path fill="#85CFDB" d="M392 170c-2 2-3 4-4 7 3 2 7 2 10 4l-12 4c5 6 11-1 19 2 9 2 5 19 16 15 0-4 2-7 0-9-12-2-20-13-28-21"/><path fill="#293442" d="M459 186c-5 4-5 10-6 16-3 0-4-1-5-2 11 9 8 13 18 23h-5l3 1 2-1-2-1 1-1h2c2-7 6-8 5-13-3-1-2 9-5 12 2-13-7-29-9-32"/><path fill="#19212A" d="M436 193c1 6-1 11 0 19l-3-1h1c9 9 19-5 23 1-4-8-13-14-21-19"/><path fill="#17263B" d="M288 324c-1 5-10 7-13 5-4 3-5 6-7 9 4 5 7 4 16 4 3-5 12-14 6-16"/><path fill="#1C2935" d="m283 364-2 1c-1 9-14 19-9 23 4 2 11-8 11-3 0-6 16-24 2-22"/><path fill="#1E2E40" d="M402 146c-1 2-5-1-6 1 3 11-10 7-6 16 3 3 6 7 9 5-7-12 23-25 4-22"/><path fill="#EDFBFA" d="M379 138c-2 2-6 0-8 1-2 3-3 6-5 8 11 6 42-12 13-9"/><path fill="#444F62" d="M456 156c-5 7 5 16 4 23 3-3 8-6 8-4-2-8-4-15-9-19"/><path fill="#030302" d="M424 159c-3 0-6 10-12 4 0 6 2 10 4 11 7 1 12-1 13-6 0-4-3-5-4-7"/><path fill="#3A4450" d="M309 423c-5 5-5 5-4 16 3 0 2-5 6-8 9 2 13 3 8 6 6 2 5-4 7-4l1-2-1 2c-6-4 0-9-4-9-2 7-10 6-11 0"/><path fill="#723E38" d="M410 149c-7 3-9 9-10 15 9 1 8-3 10-9 13 9 11-1 1-7"/><path fill="#87CFD9" d="M390 146c-4 2-7 3-10 6 4 5 2 9-1 13l-1 3c2 1 5 0 6 1-1-1-4 1-6-1 3-5 7-9 10-5-1-7 7-10 2-17"/><path fill="#446D9B" d="M341 300c-7 1-6 10-11 13 0 2 0 5 4 5 4 2 5-5 8-8 0-5-1-6-2-8"/><path fill="#18293C" d="M346 124c5 7 19 9 16 15 3-3 7-2 12-4-2 0 1-4-1-5-9 0-18-3-26-5"/><path fill="#F0FAF8" d="M366 178c-11-2-17 8-21 10 4 2 8 2 11 0 4-4 11-8 12-11"/><path fill="#8FD3DE" d="M408 131c-1 1-2 0-3 1-9 1-19 1-25 0 3 2 5 5 15 5 3-2 5-4 7-5 26 9 40-4 10-1"/><path fill="#2B4566" d="M326 319c-1 2-2 3-3 5-3 5 1 10-2 15 12-15 21-16 3-16"/><path fill="#171F2B" d="M371 460c11 11-17 7 3 9-3 3-4 6-3 10h7c6 3 8 1 11 4 1-4-4-7-5-10-1 2-1 5-3 6-3-2-7-2-8-1 0-4 0-10 8-7 0-5-4-7-6-8l-1-1h-1"/><path fill="#2A425D" d="M310 241c-15 13-22 22-37 34l1 4-1-3c2 0 3 1 4 0 3 1 4-1 5-1 2 4 3 6 4 9 0-3-2-5-1-9-3 1-4 2-6 2 18-23 22-23 31-33"/><path fill="#82858D" d="M425 307c2 4-3 5-1 9-6 1-9-1-12-2 3 5 4 11 9 13-7-7 13-8 5-18"/><path fill="#65656B" d="M310 414c0 5 2 10 6 13 5-4 7-7 3-9-1-5 0-4-7-5"/><path fill="#3E6993" d="M331 260c1 4 2 13 2 19-6-4-7-12-6-17"/><path fill="#1A2A3B" d="M413 148c7 6 17 13 20 24 5 1 6-3 8-4l2-1-2 2c-9-6-18-15-27-20"/><path fill="#243A57" d="M300 330c12-5 7 12-2 9-1-2-3-3-2-5l1-1v-2l2 1"/><path fill="#F4DB8B" d="M411 175c-11 4 11 11 14 4-2-3-9-1-11-5"/><path fill="#161C26" d="m299 470-1 1c6-5 11 3 7 8-13 5-8-12-12-6-5 4-7 8-8 13 6-4 11-7 18-6 4-3 5-13-3-10"/><path fill="#4978A1" d="M410 133c-9 2-11 2-15 9 3 5 9 0 13 2 5-3-7-5-1-11"/><path fill="#6B6F7D" d="M376 356c3 2 9 13 14 2 2 4 4 5 4 9-4-5-8-1-13-1-4-3-5-4-5-6"/><path fill="#383E44" d="M323 160c-7 5 15 11 20 13-5-2-12-13-18-12"/><path fill="#D7A563" d="M410 166c-2 2-6-1-8 1-1 4 1 6 2 9 5 0 6-3 8-3-1-2-2-3-2-5"/><path fill="#1B2D43" d="M310 246c-13 6-19 18-28 28 6-5 3 8 6 10 1-5 0-15 4-19 4-10 15-18 20-20"/><path fill="#2F4B6F" d="M323 324c10-3 7 10 1 12-2-4 1-7-2-9"/><path fill="#36404F" d="M466 175c3 2 7 23 3 34 7-8 4-24 0-32"/><path fill="#3E6378" d="M355 165c-14 7-10 13 3 11-8 1 0-9-3-8"/><path fill="#D8E4E3" d="M389 237c5-1 9 9 14 4 1 4-2 6-3 5-6-1-8-3-9-7"/><path fill="#222B3B" d="M300 470c-10 5 0 9 6 7 0-1-1-3 0-4-2-3-3-2-4-2"/><path fill="#253A58" d="M318 328c4 0-4 8-5 10-4-1-2-5-2-8 2-2 3-2 4-2"/><path fill="#263E5D" d="M302 331c-3 2-8 2-4 7 5 3 13-8 5-8"/><path fill="#1A212D" d="M353 480c-2 9 9 3 14 9-1-7-7-8-14-8"/><path fill="#345270" d="M296 253c-6 1-11 5-15 9 6 0 12-2 14-9"/><path fill="#232C39" d="M429 186c12 7-3 4 3 5-1 7 3 13-4 16 3 2 3 3 5 3-2-6 4-15 3-15 0-6 2-2 3-1-2-2-5-4-7-6"/><path fill="#142235" d="M358 291c-2 4-9 13-14 9 1 5 4 8-2 15 13-10 9-14 14-22"/><path fill="#3B658F" d="M330 260c-5 4-1 14 0 18 6-5-4-10 2-15"/><path fill="#7EAED1" d="M363 261c4 0 7 8 4 11-4-1-3-5-3-9"/><path fill="#48759C" d="M469 135c-1 5 3 12 3 19 4-7 0-12-1-17"/><path fill="#95C1DA" d="M353 259c-4 1-3 4-3 6 4 4 8 4 9 13-1-1-4-13-5-17"/><path fill="#1E2736" d="M354 474c-8 13-3 4 7 7 9 4-1 4 6 6 0-2-4-8-4-7-4-2-5-1-5-2l-2-1h-1"/><path fill="#314E74" d="M325 325c-2 3 1 6-2 9 4-1 9-8 3-9"/><path fill="#1C2739" d="M377 471c-12 5 4 9 5 4-2-2-3-4-5-3"/><path fill="#6EADBB" d="M384 162c-11 8 1 6 6 5 0-4-3-4-4-5"/><path fill="#888E94" d="M334 370c-3 2-6 3-8 7 2-5 4-3 6 0 3 4 7 8 5 12 0-7 0-12-3-17"/><path fill="#C5CACD" d="M451 160c-4 7 8 13 7 21-1-6-2-13-5-19"/><path fill="#C3E6EB" d="M447 126c2-2 7 1 7 4-3 4-7 1-7-1"/><path fill="#656878" d="M377 357c-1 13 11 3 15 9 1-2 0-4-2-6-2 2-4 4-8 3-3-2-4-3-3-5"/></svg>