<svg xmlns="http://www.w3.org/2000/svg" width="600" height="600"><path fill="#5D4F4B" d="m341 105 2-1c6 1 12 3 18 7-2-2-2-5-4-7 21 5 32 23 35 30 6 15 3 29 0 41 11 9 21 15 29 23 3 6 0 8-2 7-18-4-32-4-52-3-14 9-15 27-18 42-2 11 0 21-1 28 2 6 6 10 9 14-1 1-3 2-4 1 9 11 6 14 16 21 4 4 10 4 16 6 1 6-3 7-5 9 6 6 12 12 16 18-5-3-12-2-16-4 6 6 14 15 16 25-3 1-4-2-7-2-2 6 4 11 2 17 0 7-5 10-6 4 2 5 0 11-1 15-3 5-5 1-7 0-2 6-4 11-9 15-2 6-6 4-9 3-7 8-19 9-20 20 3 11 4 19 8 27 10 4 19 4 29 5 7 4 7 9 7 14-5 5-3-1-5-3 4 1-3 5 0 5-5 6-10 3-12 10-11-5-30-4-41-9-10 1 0-6-5-5-7 3-25 2-32 0-1 2 0 4-1 7-5 5-5-1-6-3 0 5-4 8-9 11-15-2-44-1-61-10-2-7 9-9 14-13 2-14 0-29-7-35-10-9-14-18-19-19-4-6-4-14-3-19-5 4-7 10-12 14-1-13 5-23 8-32-7 4-10 8-15 13-6-17 12-28 6-34-3 0-3 5-8 5 1-6 0-9 2-11 18-13 4-19 19-26-2-2 4-1-1-4 5-4 9-7 15-6-1-4-4-5-5-7 0-6 5-4 7-5l-4-8c8 1 14 2 20 3-1-2-3-5-2-9 4 1 8 2 12 4 1-4-1-6-1-9 7 0 13 3 16 7 0-4 2-5 1-9 3-4 3 0 4 0 1-3 4-5 4-8 3 1 4 3 5 5 1-3 4-5 4-9 7 2 5 8 8 11-1-5 2-8 2-13 6 3 3 11 7 16 0-3 3-4 4-6 3 1 4 4 3 8 9-1 6-9 15-12 8-12 15-36 14-58-13-22-22-19-27-41-1-9-1-22 1-22 11-13-2-6 9-17-5 3-5-2-5-4 4-3 6-7 9-7-1-2-3-3-7-2 7-6 15-8 22-9-1-1-6 0-7-4 8-3 16-3 21-1l2-1-2-1 1-1"/><path fill="#281E24" d="M250 331c-9 10-14 16-25 20-17 4-13 3-34 9-5 5-12 11-12 25 7-3 14-10 18-10-5 9-10 20-12 30 9-9 16-16 25-23 4-3 8 9 15 12 8-2 6-13 8-22 0 9-1 20 6 26 8 13 13 0 21 17 7 2 7-8 8-13 0 6 2 12 4 13s4 5 8 6l2 2-3-2c5-1 6-7 10-9 3 2 4 5 7 7 15 0 26 1 40 0-1 4 4 4 1 8-10 1-15 5-18 1 11 4 7 14 10 16 0-3 7-5 9-4 1-2 1-9 0-12 0-3 4-3 2-4 6 2 12-16 20-13 3 0 5 3 6-1-3 6-5-4-4 3-6-12-24-8-25-14-2 4-7 9-12 10 0-2 1-3 1-5-9 5-8-3-17-1 1-4 2-6 3-8-4 2-10 2-14 4-3-4-3-6-3-9-2-1-6 2-7 1-2-8-7-13-10-19-2-14 3-18 1-27 1 6-3 10-4 16-7-5-7-11-6-18-4 10 4 14 2 20-10 12-32 19-27 21 0-15 3-24 10-32-12 8-22 11-27 14 8-18 6-18 23-34"/><path fill="#413538" d="M358 204c-10-1-20 12-31 6 1 21-1 44-12 61-3 4-3-4-5 2 13-5-17 15-2 11-15 3-15 15-35 14 13-3 1 13 16 10-16 3-24 14-36 15-5 1-6 0-8-1l1-3 2 2-1-1 2-2c4-1 6-5 10-6-2-1-4 1-7 0-4-4-2-5-5-9 2 2 0 7 1 10-4-3-7-4-9-6 3 2 4 5 7 6 2 2 5 3 2 4-19 1-34-1-35-3-19 2-8 14-22 17-1 9 9 2 13 7-5 2-13-1-17 4-7 8-9 11-10 17 3-7 8 0 12-12 3 3-2 7-2 11l-2 1h2c5 2 14-8 21-1 4-7 6-15 13-20-3 5-8 12-8 18 16-7 27-13 36-26-8 10-15 21-18 33 12-7 25-12 34-25-9 11-18 23-19 39 1 4 13-5 18-8 20-22 11-30 30-48-17 1 13-13-7-7 8-13 23-8 27-21-1 1-5 3-6 2 6-10 5-15 7-22 10-13 15-22 16-39 7-2 15-6 20-10 0-9 6-17 11-22"/><path fill="#170D11" d="M234 372c-1 9-2 21-9 21-5-1-8-4-11-11-8 0-21 15-15 29 4 3 3-1 6-2 0 14 17 19 21 34-1-3-3-6 0-8 3 0 6 0 9-1 3 6 4 12 3 18 0-4 1-8 1-12 1-16 17 0 14-11 12 7 19 0 27 5 5 9 3 18 4 25-5 6-9 8-13 11 4 3 9 8 15 15 0-2 0-4-1-7 9 1 17 1 26 0-8-1-16 0-23-2-6-1-9-4-13-5 2-4 5-6 9-9v-4c0-8 1-15-1-22 3-3 6-2 8-1 4 6 1 13 3 17-3-5 0-11 1-14 0-8 5-8 8-10-2 10 10-5 10 3 2 0 4-2 6-4l3 1 1 1v1c2 3 2 7 4 10-1-3-2-7-4-10 5-2 11-4 15-3-4-1 0-8-10-8-13 6-18-3-31 2-5-3-6-6-7-9-4 3-6 11-12 9-8-6-11-5-9-17 0 4-1 7-3 11-7-2-13-4-14-11-2 2-2 4-5 3-7-3-10-8-13-13-3-8-1-14 1-19"/><path fill="#8C7876" d="M291 344c-9 7-13 12-11 27 4 8 6 7 6 18 5-1 8-1 11-2 1 4-1 6-1 8 7 1 13-1 18-4 1 3-2 5-3 8 9-3 8 9 17 0 1 4-1 5 0 8 6-5 9-10 10-15 7-8 5 0 9 1 5-4 7-6 8-8 5-13 0-7-6-14 0 1-5 3-6 7-3-1-7-3-5-9 1 7-10 8-10 8-3-23-11-6-7-24 0 9-2 20-10 25-4-1-4-5-6-8-3 1-5 3-8 5-7-8-1-19-2-26-1 2-6 1-4-4"/><path fill="#DED2B7" d="M319 296c-16 1-9 32-28 31-4 11 0 12 2 18 2 0 4 0 4-2 2 5 1 8 2 12 10 2 7 0 18 8 4-10-1-16 2-23 3 4 0 12 5 16 5-5 6-11 5-19 2 8 3 12 7 19 3-3 4-7 5-11 4 6 7 9 11 12 5-17 2-23-6-27 2 0 0 1 0 3-1 0-8 0-5-4-1 5-5 4-8 3 1-4-13-1-3-12-2 4-4 8-6 10-3-6-3-10-4-13-2 3-3 8-6 10-3-16 2-13 7-21-2-2-2-7-1-9"/><path fill="#2A1D22" d="M313 139c-24 23-7 16-9 42 0 0-1-4 2-4-2 6 7 6 5 22 5 1 15 5 14 11 13 4 31-10 41-9 21-3 40-2 51 3-15-9-42-13-64-13 11 0 15-22 30-16-1-5-5-8-6-11 1 5-4 10-9 11-1-6-2-12-6-16 1 8 4 14 1 18-5-7-8 22-36 17-9-4-16-12-16-20-8-14 10-29 3-32"/><path fill="#AD8F6E" d="M341 106c2 4 7 6 10 11-9-3-16-6-25-5-7 1 13 2 18 7-8-4-44 3-20 5-3 5-6 2-8 5 27-2 42 12 62 13 6 4 8 8 10 13 4-7 1-13 2-19-5-4-10-20-20-25-2-1 5 6 5 9-5-5-8-11-15-13 3 5 7 10 9 15-8-8-17-14-26-15"/><path d="M257 433c-5 4-16 1-16 11-1 10 1 16 2 23 10 4 19 1 27 3 4-3 7-5 9-7 5-9 4-20 1-26-9-2-16-2-22-5"/><path fill="#D4D1B5" d="M346 237c-3 4-4 8-3 13-3-2-4-3-3-6-5 3-7 2-9 9-10 23-1 31-12 34 2 12 11 1 10 11 6-3 3-7 5-9-2 12 4 7 5 13-3 2-9 5-11 6-3 1-4-1-3-2 1 4 0 8-2 12 1-3 1-5 2-8 6 5 7 12 11 12s6-3 7-5c3-3 4 1 6 1 3-9-3-15-7-22 4-2 2-8 4-9-3-16-2-33 1-47"/><path fill="#FAFAE2" d="M338 137c-8 1-17 5-21 12 3 2-3 12 0 17 1 8 5 12 10 16 6 6 13 4 18 5 4-1 5-3 6-3-8-1-17-3-21-11-6-10 5-20 2-24 3-5 8-3 11-1 10 5 20 7 24 15 3-3 3-8 1-12-3-8-9-10-13-12-7-1-11-2-16-1"/><path d="M319 432c-14 2-28-4-22 29 9 4 22 1 28 10 7-12 1-26-2-36-2 0-5-2-4-4"/><path fill="#3F2D35" d="M359 366c2 12-1 15-5 23-3 9-13 2-12 1-4 6-4 8-5 11 4-4 13 7 18 2-1 4 2 2 2 6-2 4-3 9-9 7 7 2 7-4 10-5 1 6 9-3 7 2 4-5 10-14 8-22 5 2 2 6 8 5-1-17-19-22-20-27"/><path fill="#935F4F" d="M230 454c1 6 0 11-1 16-37 14 20 18 32 18-5-12-26-20-26-35"/><path fill="#935F51" d="M337 447c-10 0 0 11-4 18-2 7-8 9-10 13 13 4 24 6 36 5 0-8-6-12-14-16 12 1 19 9 27 14-4-4-5-8-10-11s-10-3-14-4c-6-5-7-12-9-18"/><path fill="#321A24" d="M284 434c1 7 2 15 1 23s-7 10-10 13c6 2 10 6 17 6 6 2 17-1 20 2 0-4-2-7-6-9 8-1 10 10 16 4-3-9-27-6-26-11-3 1-4-18-4-25-2-3-4-2-5-3"/><path fill="#614B4B" d="M368 336c4 4 2 9 6 15-3 8-5 8-9 21 1 4 10 7 13 12 9-9-8-26 0-28 6-4 5 4 7 7 0-12 10-1 8-3-3-10-12-19-23-23"/><path fill="#B47D7E" d="M378 175c-38 22 31 11 37 25-6-8-17-15-26-23-5-1-7-1-10-1"/><path fill="#F1EDCD" d="M315 304c1 6-1 13-2 20 3-1 5-4 6-8 3 4 3 8 5 11 3-1 13 8 22 4 0 0 1-2 0-5 3 3 1 9 6 7-1-5 0-11-6-15-3-2-5 6-9 5-6-2-11-12-14-17-4 2-4 5-6 8-3-5 0-6 0-10"/><path fill="#BCA793" d="M349 283c0 5-5 10-5 14 2 2 1 4 2 5 3 13 7 23 9 38 3 7 10 10 14 14 3-14-9-22-14-32 3-2 4 1 8 0-8-10-7-16-16-18 4-7 2-15 1-19"/><path fill="#A18980" d="M356 342c-1 6 0 13-2 16-2 5-7-2-10-5-1 9-8 14-4 22 6-2 9-6 10-11-5 12 9 9 7 14 0-4 2-8 0-12 3-1 5 1 6 3 2-2 3-4 4-5 5-9-4-10-6-14-4-2-2 8-4 10-2-7 0-11-1-17"/><path fill="#2A201F" d="M267 300c-4 1-5 1-8 2-4 1-8 3-10 5 4 1 8 2 12 4-14 5-10 13-25 15 24-3 29-12 45-17 7-1 10-2 1 0-3-3-5-6-3-9-3-1-7-1-11-1"/><path fill="#584644" d="M216 298c-7 1 2 6 4 9-28-1 17 16 26 10-11-12-17-14-31-17"/><path fill="#67514C" d="m361 312-2 1c2 4 3 7 9 13-1 2-9-3-6 1 6 8 19 6 27 10-8-11-19-16-29-23 6 1 12 5 18 8 2-2 7-2 5-8-12-4-10 2-23-4"/><path fill="#4987BD" d="M333 148c7 8 22 8 28 21-2-2-5 2-13 2-5-6 2-12-6-14-4 3-5 5-4 9-1-3 0-5 1-7 2 4 2 10 7 13 6 5 10 3 14 1h2l1-1v-4c-2-4-2-8-7-11-7-6-13-10-20-10"/><path fill="#604C48" d="M239 287c4 6 0 6 5 13-21-20-20 1 6 13-10-12 8-7 4-15-5-4-8-9-12-10"/><path fill="#867B7D" d="M314 155c-8 10-1 25 6 33 5 5 9 4 12 6 8-1 13-5 17-7-6 2-15 2-20-1-11-7-17-17-14-29"/><path fill="#A18C85" d="M296 346c2 7-4 17 0 26 2 4 6-3 8-4 3 4 4 7 5 11 4-6 10-8 10-14-5 4-12-1-12-6 2 2 0 5 1 7-6-2-16-11-10-20"/><path fill="#B9A390" d="M330 348c2 6-8 8-5 19 0 5 3 5 4 5 10-4 10-14 12-21-2 2-2 5-4 7-4-4-4-8-5-9"/><path fill="#BCB29B" d="M331 283c-1 3-1 6-2 10-3 2-6 4-8 1 2-5-4-2-1-10-2 4-1 8-5 10 10-1 2 13 12 13 4-2 8-1 10-6-5-3-2-10-8-15"/><path fill="#655C5A" d="M374 150c2 8 7 16 12 24 3-4 5-6 5-8-7-1-3-17-15-13"/><path fill="#2C181F" d="M226 433c-1 15 0 10 2 18 0 0 4-1 9-3 1-7 0-15-9-13"/><path fill="#50393E" d="M371 346c11 14 1 12 14 34 1-5 6-6 2-13-2-8-10-15-16-19"/><path fill="#F3EFD0" d="m306 304-9 3c-4 4 4-1 4 1-14 10 2 5-7 16 7 1 13-14 12-19"/><path fill="#71484B" d="M378 179c2-1 5 0 6-1 5 3 10 6 10 9-6 2-15 1-17-5"/><path fill="#624E49" d="M256 282c2 1-1 11 1 18 6-3 12 0 17-2-5-2-4-6-6-9-2 2-2 5 0 7-10-5-9-13-9-12"/><path fill="#1B1216" d="M304 159c-7 3 0 2-5 11v2l1-3c2 28 5 13 12 30-5-11-6-29-11-27 0-6 1-9 2-12"/><path fill="#766261" d="M349 228c-10 7-15 5-18 18 2-1 8-7 10-3 0-8 8-11 7-13"/><path fill="#5E5755" d="M349 224c-4 8-11 7-15 8 0 22-17 33-20 46 12-11 14-29 21-43 2 2 15-12 15-7"/><path fill="#92786A" d="M336 133c12-1 33 13 39 13 6 5 13 1 13 16v2-3c4-6-4-10-6-15-2-3-4-2-5-3-15 0-27-9-39-11"/><path fill="#4B3030" d="M323 134c-9 4-14 4-16 4 2 4 4 3 8 1-1 3-1 5 2 5 0-2 15-5 7-8"/><path fill="#392C2B" d="M273 331c-2 4-6 20-2 27-6-8-4-18-2-24"/><path fill="#856258" d="M309 131c-5 5 11-2 37 5-11-2-22-10-34-5"/><path fill="#897B7B" d="M370 161c-2 4-3 7-2 12 7-1 9-7 4-12"/><path fill="#9F8D84" d="M287 332c-4 5-5 10-6 16 6 3 6-4 10-5-5 2-5-5-4-8"/><path fill="#DBD1B6" d="M273 275c0 5-3 9-3 13 4 3 6 3 8 4-2-5-3-9-4-14"/><path fill="#A59185" d="M321 274c-4 5-7 11-10 17 8 0 12-11 8-15"/><path fill="#85787A" d="M335 153c-4 4-5 9-4 15 0 6 4 9 8 10-8-6-7-16-3-23"/><path fill="#9DD0F5" d="M341 159c-5 5-2 12 2 15 6 5 14 4 17 1-4 1-8 3-13-1s-8-8-6-13"/><path fill="#020104" d="M349 161c-4 4-2 10 5 8 4-3-1-7-3-7"/><path fill="#6E3F3A" d="M250 471c8 4 17 9 26 9-11-3-13-9-24-9"/><path fill="#E7E2C2" d="M308 308c6-2 3 8 4 10-3 4-8-4-4-7"/><path fill="#756561" d="M377 144c-13 5 1 5 11 12 0-3-7-2-4-6-4-2-6-3-9-5"/><path fill="#1E0F11" d="M354 471c7 4 7 10 12 18 2-4 1-7-1-11-4-3-7-5-10-6"/><path fill="#634D48" d="M350 284c0 4 3 8 1 12 1-2 7 1 7 3 0-5-5-8-6-13"/><path fill="#C5BEA4" d="M332 291c5-1 1 6 0 7-6-1-5-6-1-7"/></svg>