<svg xmlns="http://www.w3.org/2000/svg" width="600" height="600"><path fill="#73665D" d="m455 99 2-2c19 0 36 5 52 15 41 23 27 69 37 104-3 16-7 27-14 37-7 7-12 13-20 14-1-9 2-22-5-29-4-8-9-11-14-15-6-1-9 2-13 1 3 17 8 32 8 48-5 5-9-4-13-2 4 23 4 51-2 70-4 3-6 0-8-1-3 9-6 19-13 27-6-2-11-6-14-9-20 16-44 25-59 49-4-1-3-4-4-5-7 5-5 13-8 20-5 9-10-3-11 1 0 9 3 16 7 23 4 6 10 10 14 12 9 1 17-1 22 8 12 3 19-4 27-5 9 4 15 7 19 13 4 4 7 8 6 12-25 2-49 1-73 1 2 6 0 11-6 9-15-1-30-2-44-4-1 4 0 7-5 8-12 1-18-5-28-10-19 0-34-4-52-3 3-6 7-18 15-21 9-2 18 11 23 2-3-21-24-36-20-34-4-7-1-8-1-11-10 3-19 6-30 4-5-1-4-4-3-7-5 0-10 2-15 0-6-3 0-5 1-5-3-5-9-1-13-3 6-9 15-18 21-26-1-4-6-2-7-5 6-5 11-7 16-10 0-10-1-18 0-25-7 6-11 12-17 16-8 1-13-3-15-8 6-13 14-26 22-36-25 15-49 39-72 58-5-7-13-8-15-15 19-21 35-43 55-61-19 15-53 27-75 35-10-1-13-7-17-13 24-23 49-36 76-52-33 8-63 23-97 32-8-1-13-6-19-9 0-9-6-18 0-23 21-8 40-14 61-17-20-4-40-4-60-8-3-10-6-20 1-27 30 2 58 3 85 6-27-6-54-12-80-23-3-5-2-11-3-15 5-7 7-12 12-15 50 5 97 19 147 22 0-9-22-15-31-22 5-9-9-9-9-14 4-4 7-5 11-4 14 4 26 10 38 15 7-5 16-4 21-1 13 7 23 15 34 19 22 3 39 14 59 15 7-2 3-5 1-6 9-6 16-14 21-21-1-3-5-4-7-7 6-7 11-11 16-15-1-3-3-4-6-7 9-13 25-23 38-30 17-8 32-13 48-15"/><path fill="#302523" d="M226 241c-2 5 1 4 0 8-8 2-6 2-10 4 0 4 0 9-1 13-1-3-3-5-3-8l1-2 1-1-1-1c-8 2-14-3-20 2-3 8 14-1 19-1-7 3-13 7-21 6-26-7-46-5-66-10-13 4-25 7-34 9-18 27-50 27-17 39 37-11 66-24 101-34-28 23-51 32-76 54 2 5 0 6 4 6 8-3 14-7 20-10-6 6-11 10-17 13 3 3 1 4 3 4 37-13 52-20 83-38-22 25-37 44-55 65 1 7 1 5 6 7 6-4 11-10 17-15-2 7-18 15-13 21 23-19 45-41 70-57l2-1-3-1c1-3 0-6 2-8-1 8 1 3 5 7 3-2 4-7 8-9-12 18-24 36-32 49 4 4 6 7 11 7 8-4 13-11 20-16 3-27 8-45 7-71 2 7 2 16 3 23 7-2 2-14 12-15 3 5-1 9 1 14 13-6 14 6 23 4 0 6 1 12 0 17 10 4 20 5 26 3 2 6 4 10 3 16 6 3 10 6 19 4 1 6 7 12 10 17 9 0 14-4 19-7 4 4 3 6 6 7 1 6 2 8 0 11-2 14-16 18-18 31 9 3 20 8 30 0-9 5-12 16-18 19 7-3 15-14 19-16 13-5-4 16 22-16-18 13-28 7-33 7 1-9-5-18 4-28 4-4 14 0 15 5 10-4 19-7 22-13 4 1 2 6 7 6-8-4 0-13-1-16-9 10-10 8-16 12-8 4-8-1-9-1-5-7 0-6 0-9-9 4-10 9-23 11-1-8-4-17 3-24-7 7-12 14-25 15-6-4-2-12-7-12 4-1 5-9 5-8h-23c-4-7-2-17-1-18-14-1-20-4-24-5-6-1-4-13-6-17-10-1-15-1-25-6 1-4 0-12 6-13-9-3-17 0-23-9-7 1-9 8-13 6-9-9 0-17-1-23"/><path fill="#6E594E" d="M418 196c1 5-3 11-1 12-5 9 5 1-2 18-13 12-15 13-30 17-2-2-4 3-6-1 0-4-2-9 1-10-8 0-22 4-27-2-3-4 4-8-2-8 6 1 10-16 15-17-6-2-11-6-17-7-3 4-4 2-4 5-44-12 1 14 4 26-1 14 12 18 11 29 5 6 10 4 14 7 2 4 1 7 1 10 0-3 0-6 1-8-1-4-3-5-2-7 4-2 1 5 6 3 2 6-1 14 3 14 2-3 2-8 0-19-13 1-9-4-20-6 1-6 2-8 4-11 10 1 17 10 25 12-2 3-8 2-6 8-1-4 4-4 6-7 11-12 9-9 23-29 5-1 7-5 10-6 0 14 11 23 11 35-10 10-20 13-31 14 3 1-1 4 0 6 3 0 6-1 8-3-4 4-10 10-14 6-1 4-2 7-1 11 12-7 20-11 31-19 3 8 4 13 3 19 3 0 4-3 5-3-3 6-10 9-4 15 25-7 29-23 45-34 7-11 0-28-3-41-18-5-50-22-53-18-1-4-7-8-2-10"/><path fill="#778585" d="M98 175c2 6 4 12 7 18-46 19 48 25 63 32 24 3 46 7 65-1-5-4-14-4-17-10l-21-3c8-2 18 0 25-1-2-4-3-12 1-12-42-5-80-16-121-22"/><path fill="#3F3D3E" d="M250 280c-5 12-18 28-13 45 3-8 11 3 17-10-7 11-14 19-15 30 5-1 10-4 15-8-3 8-7 18-4 25 3 4 8 4 11 9 7-4 7-13 9-19 2 12 7 22 13 31-1 3-4 3-7 4 3 7 9 13 11 17 8 1 14 8 20 3 0 3-2 5-3 8 1 0 1-5 6-7 7-13 8-23 12-36-7 8-15 14-23 19-7-13-2-34-3-39 3-5 1 3 3-3-3-1-6 3-9 1-4-3-4-5-6-7-1-4 0-7-2-10-6-6-4-13-14-12 2-2 0-14 6-21-6-2-9-10-20-4-4-6 0-10-2-15"/><path fill="#F6F5E7" d="M454 102c-3 2-7-1-9 2-15 17-25 23-25 55 11 8 17-2 21 8 6-2-5-14 0-21 2-7 7-13 12-14 12-1 22-1 30 4 13 9 10 21 19 29 6-9 7 4 14 0-2-17-16-21-19-39 5-2 0-8 2-11 9 1 15 5 20 12-12-13-24-20-38-24-10-2-18-1-26-1"/><path fill="#778282" d="M84 222c1 3 3 6 4 9 8 0 12 2 19 1-6 3-10 1-15 1-3 20 60 16 86 22 25-5 23-6 39-4 8-3 5-11 10-14 1 1 0 3 1 6 2 0 3-1 5-1-2 4-5 6-7 8-3 9 3 9 3 12 6-2 0-12 10-15-6-7-1-11-3-15-13-6-44 6-69 1-30 0-52-14-81-11"/><path fill="#B7A391" d="M297 264c-5 1-9 4-14 5 0 2 7 4 0 9-13-3 3-7-3-7-9-1-23-1-20 11 8 2 13 4 20 3 13 1 21 0 32-3-3 8-15 9-24 11-1 5-3 10 2 10 43-3 26 2 44-1-3 4-11 8-19 11-1 5-2 10-1 13 17 4 28-5 40-12 1-12 7-19 8-28-17 5-19 25-36 29 7-6 16-14 21-24-5-4-22 4-33 0 11-2 25-1 32-9-7 2-11-7-19-8-7 1-14 5-21 3-6-3-9-8-9-12"/><path fill="#53575B" d="M277 324c7 3 6 19 12 25 6 1 12-4 16-8-3 9-8 16-8 25 6 0 1 11 3 18 12-5 22-15 28-25-4 11 0 25 6 35 5-7 13-11 20-17 5-9 6-19 0-25-6 1-11 4-16 5-8-4-10-12-15-15-8-2-12-2-18-7-2-4-1-6-1-9-10 1-17-3-24-2"/><path fill="#DFD4C1" d="M441 104c-19 5-55 18-60 34 5-3 3-7 6-10 2 6 0 9-1 12 6-1 11-3 15-5 1 3-2 6-3 9 2 3 8 3 9 5 4-3 6-9 10-12 0 4-4 8-4 13-1 11 1 19 4 26 11 13 24 23 39 26 1-5 2-8 4-12-3 0-6-2-8-3-5-12-6-16-13-21-4-6-8 0-14-3-2-3-6-5-5-9-6-13 8-33 11-35 4-1 8-13 11-14"/><path fill="#322A28" d="M253 317c-3 4-8 9-13 6l1-2 1 1c-5 7-13 32-8 47-7 5-9 8-15 9 2 0 6 2 9 1-1 4-3 6-4 8 3-4 5 8 8 11-7 12-24 10-29 11 4 1 11 0 15-1-10 2 5 8-5 8 10 0 19-3 26-4-4-6-11-1-17-1 6-4 30-12 35-17 4-12 2-16 9-24-7 3-12-6-16-6-1-7-4-16 0-21-5 1-9 5-13 4 2-13 9-21 17-28"/><path fill="#322B29" d="M326 364c-4 8-12 14-20 20-4 4-7 5-8 1v-4l1 3-2 2c0 1 2 2 1 4 4-2 5-3 6-4 8-5 13-10 18-16-4 16-4 29-17 40-6-2-11-2-17-5-4-6-12-10-12-16-1-5 5-2 6-5-4-9 1-1-6-3-8 21-8 30-15 48 4 3 6 9 6 9 0-7 0-10 3-15-4 14 8 25 9 27 3-4 10-7 17-5-1-1-4-4-6-9 0-5 1-7 3-10 10-10 21-31 38-28-4-15-11-22-5-35"/><path fill="#CFBC93" d="M272 201c11 12 24 6 35 14 3 5-5 5-6 9 5 4 13 7 19 3-1 3-2 6 0 8-6 2-8 4-12 5-4-2 4-4 6-6-6-4-13-3-17-9-10-1-18-1-25 2 9 1 19 12 32 13-3 2-10 2-11 9 20 7 16 1 35-2 2-5 4-9 7-13-2-4-6-6-7-10 7 5 13 10 20 12 4-9-6-8-8-15-5-1-7 1-10 2-4-2-6-4-8-5 0-6 5-7 7-9-21 0-42-4-52-4"/><path fill="#BBA594" d="M385 197c-4 7-11 7-17 10-6 7-11 14-13 21 7 3 14 4 21 3 4 0 4-3 5-4 3 4-3 13 3 14 11-3 18-6 25-10 3-5 7-19-1-14-1-5 0-7 0-10-9 0-17-1-24 3-4-4 1-8 2-12"/><path fill="#B29D8B" d="M376 283c-7 7-18 11-16 24-2 3-2 4-1 6 6 0 9-2 12-4-12 9-20 7-31 20-3 5-5 9-2 16 18-2 24-16 36-27-4 9 3 12-8 20 11-13 8-11 20-19-1 4-3 8 4 9h2-2c-1-2-3-2-2-3 6 5 6-3 12-6-3 1-7 7-10 1-10-13-2-39-16-33"/><path fill="#A48C7D" d="M405 311c2 18-19 28-22 43 7 2 12 0 15-3 11-9 16-17 23-25 2 3 1 6 2 10-4 1-2-3-3-5-3 9-14 15-11 27 2 1 3-1 4-1 15-2 36-41 29-35-12-10-26 8-34-10"/><path d="M304 424c-7 0-13 9-9 14 5 10 13 18 22 25 3-2 4-4 7-6 7 1 9 6 16 4 1-12-4-21-9-29-25 11-8-13-26-6"/><path fill="#7D8C8A" d="M182 155c5 4 11 8 19 8-5 3-9 2-10 4 12 8 26 13 39 19 16 2 33-2 47 1-15-11-11-9-30-19-6-1-11-3-14 1v-2 2c6 4 17 6 22 11-26-8-48-22-71-25"/><path fill="#211A18" d="M271 354c-5 23-15 28-10 37-10 8-31 17-39 18 7 1 14-4 20 1-3 3-6 3-8 5-3-3-6 2-8 1 2 1 3-1 5-2 0 5-3 6-2 10 20 2 25-7 36-5-1-13 8-20 5-28 4-4 4-13 8-10-3-8-7-15-8-23"/><path fill="#513E37" d="M374 260c5 6 0 16 5 22 8 17 24 15 31 32 9 7 10 2 19-2 4 4 8 8 10 8 7 0 9-18 12-10l-1 3v-3c3-3 5-7 4-13-5 6-10 11-17 12-7-5-7-10-9-15-11 6-17-4-31-3-1-6 0-10 1-13-5-1-1 3-10 0-2-4-1-5-2-8 0 7-2 1-4 7-3-9-2-12-7-16"/><path fill="#A38C79" d="M433 224c20 9 11 33 33 42-4 9-13 16-18 21-10-6-8-6-13-18-2-10 5-15 10-20-8-6-12-19-11-20"/><path fill="#231D1B" d="M339 398c-4 4-7 8-12 12-2-2-1-3 0-4-4 2-7 5-10 7-4-1 1-3-1-5-9 11-12 6-21 17 6-6 16 0 23-3 0 3-1 6-2 9 15 1-12-3 14-6-6 9 4-1 10 4 2-5-4-1-2-7 6-8 8-1 9-6 2 4 0 6-3 8 3-8 41-35 17-21-8-5-18 1-22-5"/><path fill="#7B665A" d="M412 149c-5 8-9 17-10 27-40 2-9 13 10 11 0 3 0 9-2 13 5 1 8-1 8-6 3 5 2 8 3 12 5-3 17 5 35 11-6-11-30-13-35-32-7-11-13-22-10-35"/><path fill="#A86A4E" d="M354 432c0 11-15 25 1 36 6 0 10 3 15 5-1-1 1-2 0-4 16 5 21 5 44 7 10-2 7-13 14-11-4 0-12 3-23 4-8 2-1-2-9 0 6-2-1-5-1-6-2 3 2 1 3 3-12 5-14-7-22 0-1-2 0-3 1-4-1-5-4 1-7 1 1-2 1-4 2-4-6-4-8-7-15-13-3-8 2-6-3-13"/><path fill="#53515F" d="M461 133c-11 2-16 5-1 0-5 4-7 6-9 10 1-5 11-7 8-7 4-1 6-1 7-2 7 3 12 8 14 12 2 6 0 20-1 30-10-5-19 1-22-9-4-3-7-11-5-16 0 6-6-1-8 5 1 9 5 17 8 28 6 3 12 3 16 2 1 3-3 1-4 4 0 4 5-3 5 5 7-4 14-8 17-17 2-18 0-12-8-40-1-2-5-3-10-3-4-1-3-3-6-1"/><path fill="#A4684D" d="M288 446c0 3-3 0-4 2 2 11 2 18 13 19-16 1-7 8-24 5-11-6-8-6-2 4 4 1 12 4 17 2 16 5 8-14 21-13 9 3-8 2-4 10 4-1 5-6 10-4 5 3 6 9 12 8 9 2 14 3 20 2 2-3 7-8 9-9-7 3-16 2-26 3-9-5-16-10-22-16-7-1-10-1-14 1 2-3 5-5 9-5-3-2-5-6-7-8-4-1-5-1-6-1"/><path fill="#C0AA98" d="M423 222c-5 5-11 9-16 15 0 11-3 19 0 28 11-1 19-5 26-11-7-23-7-6-8-32"/><path fill="#BDA997" d="M247 246c-23 2 0 24 15 18 9 1 22-1 35-5-3-3-8-6-8-9-8 2-25-1-35 4-4-5 3-3 4-7-2-1-6-1-8-1l-1-1h-1"/><path fill="#352A29" d="M485 186c-3 2-4 4-7 7-5-3-3 4-7 1 0 3-1 5 0 7-1 5 1 7 1 11-19-4-15-14-12 9 11 0 20-12 33-3 4 3 16 13 19 21 0-10-3-18-7-25-4-5-8-10-13-11-8-3-14-2-21-1 0-4 1-8 4-8h3l-1 2c4 2 11-2 14 3-3-3-7-3-11-4 4-4 3-2 3-8"/><path fill="#EC9F8C" d="M500 129c5 16 17 18 19 35 7-1 11 13 15 4 2-9-1-22-8-30-9-12-14 0-24-9"/><path fill="#CEBB93" d="M325 251c-8 2-14 6-21 7-2 3-3 4-4 5 3 9 10 10 15 9 27-9 52-17 7-20"/><path fill="#423F3E" d="M366 360c-7 11-4 21-6 30 9 6 23-2 36-5-5 3-6-5-1-6-7 5-14 2-21 5 8-7 8-11 13-10 4-2 6-4 7-5 1-2-2 3-5 3-6 0-10-7-21-12"/><path fill="#CDBAA5" d="M382 133c-3 2-7 4-12 8 7 8 16 11 24 13-8 0-8 11-11 16 3 10 5-3 16 3 3-4 3-11 6-15-5 1-6 5-9 8 1-9 7-11 10-13 3-3 3-5 4-7-4-1 2 2-3 5-3-4-15-4-8-12-1 1-15 0-13 5-3-4-4-7-5-9"/><path fill="#AA9583" d="m375 320-6 3c8-4-10 12-8 26 5 7 10 2 13 0 23-17 34-40 12-18-4-4-1-8 0-12-3 6-8 3-10 7-6 1-3-7 2-7"/><path fill="#BCA694" d="M371 172c-7 5-13 15-22 20 4 9 16 9 22 8 10 2 22-17 7-13-4-6-4-10 0-13-3-1-4-3-6-2"/><path fill="#B98578" d="M470 282c-3 10-15 5-13 22 0 12 4 22 10 32 10-18 0-36 4-52"/><path fill="#A48072" d="M453 316c-5 7-8 15-13 22-1 12 2 18 7 21 8-7 11-16 12-29l-6-12"/><path fill="#ABB3A8" d="M75 171c-26 19 18 16 27 23-2-6-2-16-7-19-8 0-13-3-20-3"/><path fill="#C2AC94" d="M446 251c-3 2-6 5-9 7 2 15 4 17 6 25 10 1 11-14 19-15-8-7-8-9-15-16"/><path fill="#BEA997" d="M257 225c0 1-21 2-6 10-1 2-3 1-4 2 4-1 10 4 12 4 11 5 26 6 35 3-12-4-22-12-34-9 2-8 6-1 10-3-1-2-2-3-1-5-4-1-10 1-12-2"/><path fill="#CEB992" d="M340 236c-6 2-7 8-9 13 7 4 16 6 23 2 6 3-1 8-3 16 5 1 7 0 9-1 3-5-5-8-2-15-6-4-5-13-14-8 2-3 3-4 5-4-3-1-5-3-7-3"/><path fill="#6F392A" d="M372 470c-4 4 1 8 4 12 17 0 30 3 47 1-3-2-3-8-2-11-23 8-35 0-49 2"/><path fill="#D5C59D" d="M251 190c12 2 28-1 40 7-1 1-2 2-3 4 3 0 6 3 11 2 12 5-7-10 14-5-2 3-6 1-8 2 5 4 12 4 18 6 4-9-12-8-22-13-15-5-31-3-45-6"/><path fill="#A5ADA4" d="M63 185c1 4 0 7 1 11 6 4 12 6 18 7 6-1 12-4 17-6-11-5-22-7-33-11"/><path fill="#6B574B" d="M389 186c-2-1 7 1 4 5-3 6-7 10-9 15 10-1 20-3 29-2-5 0-3-10-1-18-6 5-14 1-20 1"/><path fill="#362B2A" d="M514 205c-2 6 1 10 2 15-13-25 5 30-3 39l1 1c-1 7 2 0 4 3-2-9 9-25 6-38 1-5-6-5-3-8-3 0-2 4-5 5 3-7-3-9-3-15"/><path fill="#A6ADA3" d="M57 230c-1 4 1 5 0 9 8 3 15 5 23 4 4-3 6-6 8-9-10-1-19-3-30-2"/><path fill="#773E2E" d="M306 467h-3c-2 3-3 6-2 11-8-1-15 5-17-4 1 2 2 3 2 5-5 0-9 1-13-3-3 1-2 4-4 7 12 3 26 0 35 5-1-5 1-11 5-14-1 2-6 4-6-1 1-7 14-6 6-7"/><path fill="#47271E" d="M345 418c-14 3 3 13-10 10 0 4 5 15 8 17 5 1 5-4 7-6 0-12 1-24-4-20"/><path fill="#615557" d="M509 169c-8 3-7 11-18 11 1 4 4 8 6 10 1-5 7-6 10-8 20 9 12-4 4-13"/><path fill="#493F39" d="M225 385c-7 10-15 15-20 22 9 2 19 0 25-7 0-6-3-9-4-13"/><path fill="#574B4C" d="M506 183c-2 2-6 4-7 9 9 6 5 8 13 10 3-6 7-9 12-11-1-4-9-9-17-8"/><path fill="#7E695C" d="m378 152-15 12c0 4 7 6 14 7 5-9 17-19 2-19"/><path fill="#4A3D39" d="M526 219c4 18-5 28-9 42 9-8 16-18 20-28 1-11-8 1-10-13"/><path fill="#6E5F55" d="M345 202c5-1 9 6 16 4l-7 14c-6-2-11-2-15-4 1-6 3-8 5-11"/><path fill="#322725" d="M161 226c-84-6 37 14 43 3-18 2-29-2-45-4"/><path fill="#A4ACA1" d="M60 219c-11 15 19 7 26 12-2-4-1-11-5-10-8 0-13-1-18-2"/><path fill="#C9B794" d="M350 259c-7 4-14 10-22 13 8 2 11 11 17 9 4-8 4-13 4-19"/><path fill="#693625" d="M350 424c3 4-2 9 2 14-3 3-5 9-9 9 1 5 2 9 1 14-2 6-6 3-9 5-2 1-4 5-2 6 27-1 9 2 27-3-9 1-12-7-14-13 1-7 3-12 6-17l1 1v-2c1-8 0-9-3-13"/><path fill="#D9D5AF" d="M230 195c-21 9 25 15 34 13-8-5-21-2-32-5 6-3 15 0 24-2-7-1-12-4-18-5l-3-1h-1v1"/><path fill="#756A64" d="M370 238c-16 15 7 19 16 15-4-6-10-6-14-14"/><path fill="#646C6B" d="M88 262c-10 3-20 7-29 10-5 3 0 8-2 12 3-7 18-4 30-24"/><path fill="#706158" d="m346 202-6 12c4 3 8 4 12 5 3-4 6-7 8-10-5-1-8-4-11-6"/><path fill="#5E5249" d="M423 471c-3 4-1 8 3 11 8 1 14-2 20 1-4-6-13-13-21-11"/><path fill="#B29D8B" d="M390 299c-8 4 1 14 2 19 6-2 8-6 11-9-3-7-7-8-11-9"/><path fill="#352E2C" d="M227 205c0 5-18 12 11 18-4 3-6 4-9 6 12 1 13-3 24-7-8 2-17-4-19-3-1-3-7-3-8-5 5-3 14-6 15-4-5-1-9-2-12-5"/><path fill="#F0B19D" d="M501 117c-2 0 4 12-3 9 11 7 17 7 19 5 6 3 7 3 10 6-6-8-15-17-24-19"/><path fill="#5D5148" d="M354 477c-5 4-4 6 0 13 6 3 12 2 18 3-2-4-4-7-6-10-7 0-9-5-13-4"/><path fill="#5C4E4C" d="M523 201c-5 1-10 5-8 8 7 8 11 11 14 13 1-4-1-7 0-13-4-1-3-4-5-6"/><path fill="#DAD2AB" d="M241 211c-30 4 25 13 31 10-6-5-22-3-32-5 9-2 21 0 30-3-9-1-18 0-26-2"/><path fill="#594C44" d="M254 472c-5 5-5 4-6 11 7-1 19 4 20-4-2-1-7-4-12-7"/><path fill="#B9744F" d="M422 361c-15 4-30 9-42 19 6-2 12 1 17-6 1 4-3 5-1 9 8-8 11-20 24-21"/><path fill="#7A6C6A" d="M518 168c-10 13 11 1 14 24 1-10 1-17-4-20-3-4-5-1-6-4"/><path fill="#453A3B" d="M485 183c1 4-1 6-2 9 2-2 5-2 6-1 11 7 17 15 21 25 5-3 0-10 4-12-5-2-6-3-9-8 2 4 5 7 6 11-6-9-16-16-24-23"/><path fill="#6A7070" d="M114 232c19 1 38 3 57 4-19 3-38 0-57-1"/><path fill="#D1C29C" d="M275 215c-11-3 16 10 27 4-6-7-16-5-24-5"/><path fill="#6A6B84" d="M459 136c-14 12 5 8 11 9 6 3 7 6 9 9-2-5-4-10-8-15-5-2-8-1-11-1"/><path fill="#796965" d="M531 191c-3 5-1 13 0 18 0 6-1 11-1 16 1-5 1-9 1-13 2-5 6-4 7-4l2 2v-3c-3-5 0-12-7-14"/><path fill="#6A7271" d="M131 199c18 2 36 6 54 7-17 2-34-1-51-5"/><path fill="#D0D0AB" d="M234 188c17 9 37 6 54 14-10-4-37-13-50-15"/><path fill="#67667B" d="M457 135c-2 1-10 1-4 4-7 1-3-4-7 1-4 4-4 6-2 15 6-2 8-5 12-9-7-1 1-9-4-5 2-4 5-5 7-6"/><path fill="#793E2E" d="M320 478c3 1 3 4 4 6 9 2 17 4 25 6 0-3-1-4-1-6-9-2-18-2-25-5"/><path fill="#5C5046" d="M311 472c-3 4-5 8-4 14 1 7 6 9 11 11-2-8-7-16-6-23"/><path fill="#755F53" d="M418 202c-3 3-9 2-13 3 8-1 0 13 10 10 0 6-2 8-1 12 1 0 2-15 8-12 0-5 0-5 1-2 0-4-14-6-4-9"/><path fill="#DF8D57" d="M432 357c-10 3-23 13-28 10 5-1 2 6-2 10 10-7 21-11 31-19"/><path fill="#85817E" d="M418 278c-6 5-12 6-20 10 6 3 11 2 15 0 0 1-2 5 3 5 2-6 3-12 1-13"/><path fill="#8A8582" d="M402 245c-10 6-2 20-2 28 5-6 1-16 3-26"/><path fill="#827E7A" d="M454 291c-5 9-18-1-21 13 10 2 17-6 22-12"/><path fill="#463D3C" d="M461 187c4 4-1 6-2 9-2 6 0 8-1 12 5 4 11-1 13 3-1-3-2-7-1-12 0 2-1 4 0 6-3-3-3-5-3-8-3 0-4 0-6 2-1-5 4-11 3-10"/><path fill="#4E3C37" d="M439 336c-7 9-16 25-29 25 10 0 17-6 26-9 3-6 0-9 2-15"/><path fill="#E39870" d="M472 285c-4 16 6 33-2 51 5-15 8-34 3-50"/><path fill="#A3A19D" d="M488 148c5 8 2 20 9 27 3-3 6-3 6-4-11-5-9-16-13-22"/><path fill="#C1AD99" d="M384 168c-15 17 12 10 18 5-7-2-16 2-18 0"/><path fill="#5E4E49" d="M540 210c0 6-5 4-8 3-1 5-1 11 1 14h-2l2 1c2 0 3-7 5 0 0-5 3-10 1-16"/><path fill="#858383" d="M421 282c-2 3-1 8-3 11 6 0 9 0 12-2 3-9-8-2-7-10"/><path fill="#C7BCAA" d="M418 177c3 6 7 13 13 17 8 6 15 9 23 10-12-4-25-13-35-24"/><path fill="#614B3F" d="M405 309c-3 4-7 9-12 11-3-3-4-5-5-8 1 3 1 6 3 9 6 0 10-10 13-6-7 13-11 22-19 32 6-10 16-18 18-29 1-5-2-6 2-7 5 3 8 6 11 8 23 2 18-11 1 0-3-3-7-4-11-9"/><path fill="#433938" d="M477 193c-15 12 7 5 13 8 7 2 11 6 14 10-3-3-3-7-10-11-5-5-14 0-18-4"/><path fill="#703D2B" d="M287 446c-2 1-4 1-6 2-1 5 6 20 1 23 6-2 4-1 11-4-2 0-3-3-6-3-2-5-3-17-3-13 1-8 20-4 4-6"/><path fill="#C9B594" d="M360 270c-13-3-10 10 0 10 7-5-3-5 0-10"/><path fill="#6C7473" d="M212 233c1 7-20 7-29 6 9-1 18-2 25-5"/><path fill="#DE848A" d="M464 148c-3 1-6 1-7 5-1 6 1 12 5 13-2-3-4-9-1-13 4-3 10-3 11 0-1-3-4-5-6-5"/><path fill="#786B5E" d="M312 475c2 6 3 19 10 22 4-17-8-6-9-20"/><path fill="#F7E0AB" d="M499 116c6-1 21 9 27 20 10 11 8 24 12 35 0-14-4-26-11-37-19-24 2 2-27-21"/><path fill="#C0AD91" d="M350 276c-1 3-2 6-1 11 11-3 11-6 1-11"/><path fill="#B8A190" d="M437 227c0 9 5 15 10 22-1-8-3-15-9-20"/><path fill="#42404A" d="M454 176c5 4 14 8 23 4-4 5-7 6-11 4-6-1-9-3-12-5"/><path fill="#6A544A" d="M333 397c-3 0-6 5-9 3-3 0-5 1-7 2-6 4 7 2 0 10 2-5 8-10 5-12 8 1 6 5 5 8 0-6 13-9 5-9"/><path fill="#C6B394" d="M373 271c-4 2-10 4-7 10 4-1 4 1 6-1 4-3 0-5 2-9"/><path fill="#5F4B44" d="M404 357c-17 15-2 11 21 1-7 3-15 7-21 1"/><path fill="#7B6F61" d="M354 475c5 6 17 9 19 19-2-17-5-5-16-20"/><path fill="#DAD2AD" d="M252 199c52 20 0-3 36 6-9-1-16-6-26-4"/><path fill="#7E7A76" d="M390 258c-7 2-1 13 0 18 1-6 0-12 2-17"/><path fill="#998778" d="M425 190c8 10 18 18 30 18-9-5-21-5-28-16"/><path fill="#C6B19D" d="M422 242c6 0 1 7-2 9-5-3-2-9 1-9"/><path fill="#686E6D" d="M273 304c-3 3-1 9-3 12 4 3 7 2 10 3-7 0-6-10-4-14"/><path fill="#CDB990" d="M332 212c-14 3-1 6 5 6-2-3-2-6-4-7"/><path fill="#DF9C71" d="M476 226c7 14 5 31 6 46 3-17-2-30-5-44"/><path fill="#291E1C" d="M217 267c5 0-1 12 3 16-4-3-6-9-3-13"/><path fill="#C7B198" d="M449 261c6-2 5 7 1 9-2-2-5-4-2-6"/><path fill="#BEAB91" d="M365 279c0 3-2 6-1 11 12-10 13-9 0-8"/><path fill="#7C7063" d="M262 469c-13 3 1 5 4 7 2-3 0-4-1-6"/><path fill="#322E2E" d="M240 237c-4 4-1 5 1 9 3-2 3-4 7-5 1-2-4 0-6-3"/><path fill="#E1955F" d="M461 333c-2 9-5 18-9 26 6-7 9-16 10-25"/><path fill="#816D60" d="M387 185c0 10-5 12 3 11-1-1 1-3 2-5 0-4-3-3-4-4"/><path fill="#503E39" d="M397 245c-1 3-1 9-7 9 4 4 5 20 8 20-1-1-4-18-1-27"/><path fill="#504038" d="M327 459c0 1-5 2-3 4s3 5 6 4c5-3-1-4-2-7"/><path fill="#020201" d="M465 155c-2 2-1 8 4 8 3-2-3-6 1-9-2 3-2-1-3 1"/><path fill="#CAB796" d="M367 265c-1 2-4 3-4 6 4 1 14-5 5-6"/><path fill="#606665" d="M70 276c-7 6-12 1-11 10 2-2 8-2 9-8"/></svg>