<svg xmlns="http://www.w3.org/2000/svg" width="600" height="600"><path fill="#77583F" d="m112 114 2-1c23 13 43 33 62 53 17-10 36-12 53-18 8-5 1-13 5-16 11 2 18 11 26 14 33-2 62 9 86 16 19 12 39 18 55 34 8 8 12 15 15 24 2 8 3 14 3 21 10 3 17 12 24 19 5 7 8 13 11 19 21-20 34-48 53-74 13-14 26-23 40-34 10-6 17-13 27-14-51 34-67 94-114 133 4 19-6 31-1 48-7 11-16 5-20 17 16 31 21 46 37 72 19 10 39 14 54 25-21-2-43 4-58-7-8-11-12-24-21-33-5-2-3 11-7 7-9-13-14-28-18-41-4 8-6 16-11 22-9 10-18 8-23 16-16-1-11-20-24-23-7 4-2 16-8 21-7-12-6-26-11-37-4 10-13-6-17 6 1 9 8 16 10 24 10 5 18 9 25 18-5 5-17 2-23-2 7 18 15 32 26 47-1 6 4 11 0 15-8-4-11-10-17-14-6 0-8 5-8 8-7 1-7-6-8-9-3 2-5 3-8 1 4-6 2-16 5-22-2-9-7-16-6-26-2 4-19-11-34-5-4-4-7-6-9-8-3-5-2-9-3-12-5-2-9-4-13-5-11 6-20 11-30 15-12 3-23 4-33 2-1 11 4 19 4 27 13 13 27 20 38 32-18 4-32-2-45-5-13-18-8-41-17-58-11-8-22-17-31-27-4 0-7 0-9 2-5 6-3 14-6 18-4-5-7-7-8-11-4 0 0 7-5 8-4-7-6-12-5-18-8-4-7 1-8 5-2-18-10 3-11-8-14 8-17 34-29 53-7 5-15 7-22 8-5-5-20 0-29 0 8-21 37-16 49-34 4-8 5-14 4-22-2 0-4 3-7 0 2-6 5-10 7-14-8-5-16-9-22-16-3-7 0-14 1-19 9-22 21-41 35-58 12-15 26-19 38-31-25-8-49-28-69-33-1-12-3-20-7-28-4 0-4 3-5 6-5-4-4-7-6-9-15-49 3-80 41-23 7 8 24 13 25 29-2-9-1-21 0-31 9 6 14 11 24 11 2-21-18-30-18-49"/><path fill="#2C1F1E" d="M363 214c-20 14-28 38-46 57 1 6 5 15 7 20-7 1-10 0-12-3-4-3-2-7-3-9-4 5-11 10-17 13-20-5-41-4-57-14-22-7-29-28-41-42-2-1-3 1-4 1 6 2 11 8 14 15-18 0-32-6-47-9 29 4 6 17 18 12 0 10-4 18-4 27 1-9 5-20 10-29 4-4 7-2 8 1 8 16 15 26 22 37 0 2 1 4 0 5-5-6-11-7-14-12 18 19 36 36 53 55-8-3 4 7 1 15-6 5-14-6-14-5-17-12-32-32-46-41-6 0-1-13-5-19-3 12-1 27 2 39 2 15 5 27 8 38 2 11 3 21 5 30 0-1-1-3 0-4 2 2 4 4 5 6-5-9-8-19-10-29 3-8-5-14 0-20 14 8 25 19 38 25 11 3 33 11 35 2 4 5 0 9-1 12-6 6-12 10-17 13l-2 1 2-1c5-3 10-6 14-10 5 2 9 2 12 3-3-1-6-2-9-4 1-6 7-9 4-13 10-2 21 0 28-6 4 4 5 8 7 13-4-9-6-18-11-25 0-11 14-2 9-16 13 11 13 24 20 34-1-6-8-12-5-18 6 5 12 9 16 15 0-3 0-8 2-11 5 2 13 8 9 12 2 0-1-2 1-3-4-8-15-14-15-23 10 7 19 11 24 20 0 9 8 13 6 21 6 0 8 3 12 4-5-4-9-11-10-18 7 3 13 7 15 14 2-8-2-13-4-19 11-1 20 1 26 3 5 5 5 9 4 14-1 9-4 15-8 21 3-4 8-8 10-13 4-10 5-18 6-26 1-5 4-2 4-5 9-2 14-6 20-11-5 4-11 9-17 11-9 2-16 4-23 4-14-2-25-5-34-10-8-4-17-8-18-15 6-9 12-16 19-18 11 11 22 20 35 26 8 5 15 7 22 1 11-6 17-16 22-25 1-4 1-7 3-8 0-11-3-19-4-27 4-2 7-2 8 0 2-5-7-12-9-9 2 11 3 22 5 33-2 13-8 20-17 27-6 5-12 6-18 6-13-2-16-8-25-10-8-6-12-15-15-20 0-19-3-36-11-49-1-11 7-18 13-24 7-4 13-1 16 1-4-3-8-5-14-4-9 6-14 15-18 24-6-1-11-2-16-1-5 2-11 2-14 6-5 10 5-9 12-5 8-2 13 0 18 2 11 14 11 34 11 48-8 1-12 11-22 7-4 6-3 15-9 17-10-6-20-12-24-20-1-11 1-19 2-26 1-4 3-3 4-4 2 4 2 6 2 8 6-19 1-12-1-26 13-17 25-31 40-39 10-2 17-4 26-3s16 6 23 8c-4-8-16-17-19-25-3 6-11 4-18 4-6 0-9-2-13-4"/><path fill="#F2D185" d="M237 136c-2 5 4 2 1 12-15-2-57 51-27 23 5 9-7 21 5 30 5 3 1-4-1-5 9 1 15 4 20 11-4-5 6-8 9-8 8-3 19 9 23-1 4 3 5 5 7 6-4-3 2-5 4-4 4 3 4 5 2 7 2-6 0-16 8-21 4-8 12-10 14-15 6-1 11-1 15-2-4 1-9 1-14 0-9-1-15 2-20 6-1-4 2-4 2-6 7-4 14-4 19-2-21-8-48-16-66-30"/><path fill="#A07452" d="M42 124c-1 17 1 32 3 46 0 6 7 9 6 3 9 15 5 21 13 27 22 17 53 30 88 38-22-9-44-16-65-27-9-6-17-11-23-19 0-3 4-1 5 0 12 4 18 15 27 19 5-1-4-2 2-4 51 31-5-4 68 30 2 3 5 5 18 7-7-4-16-6-22-10 6-1 12 2 19 3 1-3-2-4-3-6-9 5-20 0-28-3-6-6 1-7 2-3-17-10-33-33-49-39-4-4-3-8-5-16-17-14-33-23-55-45"/><path fill="#EDAF5E" d="M303 171c-4 7-14 10-17 19-4 5-4 11-2 14-3-9-19-1-3 12 8-1 18 10 28 5 10-2 20-1 25-10 6-10 3-19 1-27 6 2 10 3 13 8-9-11-16-13-29-21h-14"/><path fill="#2D2321" d="M130 261c-14 18 2 25-8 45-4 18-9 33-14 49-3 5-3 11-5 15 3-4 1-15 10-12-2-1-4 0-6-1 3-10 7-16 8-24 8 5 10 14 18 16-3 8-13 6-13 12 9 1 14-1 21 1 7 3 8 8 12 11-1 4-2 5-4 5 2 0 3-1 5-2 10 12 22 20 34 27-5-2-39-26-43-46 1-5 4-2 6-2 8 2 23 3 23-2-5 5-14 1-20 3-12-5-23-6-30-15-4-9-4-17-3-23 6-1 12-1 17-3-6 2-10-3-14-8 1-8 1-15 3-21 15 15 30 30 44 46 0-15-3-28-3-43-1 3 1 6-1 8-10-6-19-22-29-20 0-7-14-1-9-14"/><path fill="#BC6638" d="M380 249c11 3 19 12 26 22 8 13 8 27 10 40-10 0-19 8-26 12-7-1-13-2-17-5 4 12 21 17 32 25 0-3-3-2-5-3 6-3 10-10 14-11 2 2 3 5 4 8 2-8 1-20 3-28 13-1 3-30 13-20-14-13-2-24-28-37-1-2-6-4-7-2 8 3 11 14 15 20-9-3-21-20-32-21"/><path fill="#7E6654" d="M115 118c3 13 21 29 19 47 9 1 15 3 20 8 8 1 13 0 17-4-11-10-26-35-53-48"/><path fill="#7B6352" d="M108 157c3 8 0 20 4 28 7 13 8 9 18 17 6-8 18-15 22-25-11-7-30-7-43-19"/><path fill="#352825" d="M132 255c-9 8-14 35-18 40-1 15-7 31-13 47-3 9-8 5-9 12-3 6 1 8 0 12-3-7-2 1-6-1 0 7-9 2-7 9 6-4 0 3 4 3 0 6 0 10-2 14 1-4 2-7 4-10 3 9-4 18-6 26-2 1-5 1-6 2 2-1 5 3 5 1l2-2 1 2c-1 3-1 8-6 9 7-2 4-4 6-10 5-13 6-25 18-29 14-47 24-89 30-123"/><path fill="#412E28" d="M266 290h-1c28 0 30 16 4 28-12-11-16 6-29-2-7-2-14-6-13-13 5 2 11 5 19 3 7-4 13-10 18-15"/><path fill="#A34A28" d="M202 236c-3 10 16 23 24 31 15 7 28 12 40 17 8 2 14 1 19 3 5-2 6-5 9-5-4 1-6 2-8 0 5-6 12-9 17-14-8-7-13 0-32-16 4 6 6 12 12 12-2 2-3 5-4 5-15 12-28-8-35 1-16-5-27-12-36-23-3-3-2-6-3-7 4-2 6-4 9-3-3-1-6-1-8 0"/><path fill="#D18344" d="M252 222c5 2 13 3 10 9-2 4-3 8-6 10-4 2-6-3-6-4-1 3-3 5-7 7-6 2-11 3-17 2-5-1-8-5-4-8-27 2 21 19 26 25-2-3-9-3-11-9 9 1 15 5 25 4 22-7-3-2 12-10 9 7 4 9 10 10-4-4 2-7 1-8-6-14-15-22-29-27h-2"/><path fill="#E8A556" d="M379 252c-8 2-13 10-16 16 4 7 4 12 8 13-1-4-4-8-6-11-1-6 3-9 5-11 7 6 8 14 13 22 4 1 7 2 9 5-13-3 3 13-9 10 5 0 10 1 13 4-6 4-12 4-16 5-5 8 0 11 4 16 0-12 23-21 19-35-3-15-12-28-22-35"/><path fill="#5A4B3E" d="M297 316c19 11 1 9 18 29-5-1-9-1-8-5-1 5-2 9-3 13-6-2-9-6-12-8 2 4-2 8-3 12-4 3-6 7-10 4-2-3-5-4-6-6 5-10 10-18 13-26 3-6 10-4 8-10"/><path fill="#3F2520" d="M197 349c-5 6 4 13-1 18 3 13 6 22 11 30-3 4-3-3-5-4-3 8 1 7 0 14 8-2 27-2 38-8 10-7 21-5 27-15-11 0-21-2-29-5 0 4-3 8-6 9-15 0-12 3-23 6-6-9-7-18-10-25-1-6-5-14 1-18"/><path fill="#382925" d="M192 301c-6 8 0-1 0 7 11 7 25 24 36 33 7 7 15 14 21 12-4-11 5-7-1-13-2-4-4-6-5-7-4-6-9-9-11-13 3 4 5 7 8 11-1 2-2-1-4-1 1 3 4 4 4 6-7-6-11-12-18-16-7 4-15-13-29-17"/><path fill="#3F2621" d="M116 334c-1 3-3 13-5 12 3-1 5-1 6-2 6 1 10 3 13 5-4 6-9 6-12 6-2-1-4-2-8-3 4 7-2 6 9 7-3 7-13 8-14 5 11-1 14 6 22 6-1 3 6 2 2 6-1-4-5 1-9-1 4 7 3 5 6 13 3 7 3-2 2-3 7 1 8 4 10 10 2-7 3-10 6-13 4-6 7-6 9-6-3-4-6-9-9-13-10-2-16 0-25 1-1-10 10-7 12-14-7-3-8-10-13-15"/><path fill="#BC6335" d="M217 237c-16-3-10 13-1 17 20 19 33 8 46 18 8-1 14-2 20-6-6-2-8-7-13-10-6 9-23 1-30-2 1 3 11 8 2 7-10-8-20-14-30-17-2-10 9-3 11-8-2 0-2 2-4 0"/><path fill="#DB8443" d="M336 184c1 4 3 9 2 14-1 9-2 14-8 18-6 5-13 4-18 7-13 4-23-7-32-7 5 7 12 25 22 23 15-3 19-18 32-21 7-14 28-26 3-33"/><path fill="#D78845" d="M196 193c-30 32 16 28 52 26-8-5-20-9-23-15 0 1 2 2 3 5-14 3-22-10-31-4-2-3 6-4 3-8-2 0-7 0-8-1"/><path fill="#D68746" d="M376 251c12-3 25 21 28 32 4 18-24 30-21 39 0 0 2 1 5 0 9-5 17-10 26-11-1-13-1-27-8-38-8-12-16-19-25-23"/><path fill="#665047" d="M370 336c4 4-4 11 0 16-48-18 12 16 32 13 10 1 12-3 15-2 6-3 19-11 21-21-5 6-13 14-26 17-10-1-22-12-27-11 8-2-12-2-14-12"/><path fill="#C36133" d="M349 196c-6 18-22 26-35 38-6 4-12 6-17 6 5 4 8 12 14 12 11-7 17-16 17-27 10-9 21 1 27-10 1-3 2-13-4-17"/><path fill="#B6683A" d="M187 217c-9 3-6 13 0 18 26-4 45-5 65-15-19-3-45 6-64-2"/><path fill="#654F42" d="M146 310c-1 0 6 6-1 17-7 6-9-5-16 1-5-5 0-8 3-8-2-1-5-1-6 1 0 11-1 18 8 23 2-2 0-8 4-11 3 3 10 3 14 12 0-5-3-8-4-12 7-2 11 6 12 9 7 3 2-8 6-7 0-10-11-17-16-25"/><path fill="#392A2A" d="M449 395c-4 1-4 5-3 9 17 21 23 28 28 40 22 7 20 4 49 8-31-14-26-7-52-22 0-7-16-22-21-33"/><path fill="#FCF0B0" d="M231 169c4-2 13 4 13 10-1 7-5 11-10 13-7 5-15 3-19-4-3-8 3-11 7-15 3-3 4-4 6-4"/><path fill="#F4CA74" d="M307 186c6 0 13 5 14 11-1 8-6 14-14 14-8-2-14-8-14-15 3-7 7-9 13-8"/><path fill="#FCF2B5" d="M232 170c-3 1-7 0-8 3-6 4-11 8-9 14 5 8 12 9 17 4 7-2 10-6 11-10 1-6-5-11-9-10"/><path fill="#783520" d="M220 231c-3 6-13 1-23 9 10 9 12 18 20 23 10 8 18 13 28 18 16 5 31 6 45 10 8-4 13-8 17-11-1-6-1-11-3-15-1 8-12 10-17 16-2 2 3 1 5 0-6 10-16 5-23 5-15-6-28-11-41-17-12-8-19-18-27-26-1-12 17-4 19-10"/><path fill="#E5A659" d="M212 171c-16 18-18-1-20 26 5-2 6 0 8-2 4 5-2 7-3 8 9-5 17 8 30 5-11-14-3 0-15-9-6-10 1-18 2-25"/><path fill="#9E5131" d="M430 285c2 20-16 29-9 52-6 2-4-6-6-7-5 1-8 7-13 9 8 2 10-2 17 3 2-7 3-13 2-20 4-3 8-4 11 2 3-2 6-4 7-6-2-12-3-22-8-31"/><path fill="#F5CD77" d="M309 187c-4 3-12 0-14 7-1 8 4 14 10 16 9 1 14-5 15-12-1-6-4-9-9-11"/><path fill="#483A33" d="M308 347c-3 11-1 8-7 21 6 5 9 14 15 21-2-2-4-4-4-6 12-1 22 17 17 17-4-12-11-30-18-52"/><path fill="#3C2A25" d="M266 289c-5 5-11 14-19 17-9 2-15 1-19-4 0 10 10 12 16 15 9-6 15-4 25 0-9-2 1-3 3-5-5-4-9-7-12-13 1-4 3-7 5-8 11 2 14 3 3-1"/><path fill="#9F4828" d="M358 208c2 8-6 10-10 13-7 0-15 0-18 5-3 6-1 12-7 14-5 7-9 12-14 14 1 2 2 5 4 7 12-6 19-19 23-31 5-3 7-7 10-7 5-5 8-5 10-4 4-3 2-6 3-8"/><path fill="#363331" d="M129 282c8-3 21 20 33 29 5 7 10 11 10 17-16-13-31-28-44-43"/><path fill="#886248" d="M62 188c5 10 15 16 23 20 14 12 83 32 57 30 9 0 14 4 22 3-29-16-71-30-99-51"/><path fill="#362A27" d="M129 282c11 7 26 23 37 35-7 4-12-9-18-9-14-11-6-11-10-12-4 0-3 4-4 7-5-4-4-7-9-8 0 3-1 7-1 11 3 3 5 7 7 8 8 1 12-1 15-6 9 7 17 12 24 20-6-17-27-36-38-46"/><path fill="#352724" d="M144 263c-1 2-3 4-2 8-29-4 13 8 23 25 3-14-12-21-18-31"/><path fill="#6E3727" d="M200 351c-2 11 2 22 5 32 8 0 16 4 19-3 5-6-6 3-7-5 2-3-1-4 0-5 8 2 13 4 18 7-9-5-17-11-26-18 6 5-7 5-4 13-5-6-5-13-5-18"/><path fill="#EDAC59" d="M245 198c-26 13 23 10 25 22 0-7-3-13-4-19-5 6-14-4-20-2"/><path fill="#2D2928" d="M187 317c24 14 40 41 66 50-10 5-15-6-24-8-15-12-27-27-41-38"/><path fill="#3B2F2B" d="M350 268c7 2 11 8 14 14 2 6 1 11 1 16-3 9-9 15-16 19-5 5-11-2-14 2 6 3 5 3 12 7 5 0 15-4 20-7 0-10 2-22-2-32v-2l-1-2c-3-7-4-13-12-13"/><path fill="#402722" d="M303 373c-12 10-18 2-29 5 0 4-3 6-4 10 3 6 5 1-1 1 13 5 24-4 29-4 10 0 6-10 5-9"/><path fill="#372622" d="M183 251c-3 6-6 11-7 17 2-9 8 4 12 0 5 4 8 8 10 12-5 1-8-2-11-5 7 7 16 13 23 19-3-8-15-26-24-44"/><path fill="#4E392F" d="M374 234c-10 8-23 8-31 21 6-4 12-10 19-10 10 3-1 7 4 7 2-3 5-8 9-10 8 0 13 2 17 5-2 0-2-5 0-5 26 3-6-11-14-7"/><path fill="#4E372D" d="m266 293-2 1c-2 0-2 2-3 4 3 6 6 10 13 13-3 3-4 5-8 4 4 1 8 0 7-3 23-15 13-16-5-20"/><path fill="#4D3831" d="M129 318c-10-1-6 11-4 16 1 6 5 10 9 11 10 3 17 7 28 4 6-1 3-7 8-8 1-4 1-6 0-9-6 3-2 11-10 13-7-19-5-4-9-10 0 4 2 4 4 10-10 2-6-7-11-9-1 1 5 2 2 4-5 4-8-1-9-4 1 4-1 7-1 10-8-4-11-9-10-14-1-5-3-9-1-11 3-3 7-2 9-3-2-1-3-1-4-1"/><path fill="#E3A456" d="M251 224c-3 2-6-1-8 2-6 2 8 8 0 13-12 12-20-3-21 0 2 7 8 7 12 6 8-1 14-4 16-9 1 1 2 6 3 4 11-6 11-16-1-16"/><path fill="#3A2C29" d="M285 395c2 0 4 0 5-1-1 3-5 1-5 3-2 13 4 8 6 16 1 3 25 6 31 5-6-3-4-6-6-10-4 3-10 2-14 0-9-4-5-6-10-12-2-1-4-2-5-1"/><path fill="#65503D" d="M181 280c-3 9-4 22-8 30 10 23 14 58 14 68-1-27-12-82-3-95"/><path fill="#392B28" d="M184 295c-4 31 7 63 9 92-4-2-6-7-9-10 3 8 13 15 14 31 4-31-14-72-15-110"/><path fill="#372722" d="M160 244c4 8-8 15-10 17 8-1 18 0 22 6 3-4 4-7 5-9-6-4-5-13-16-13"/><path fill="#402922" d="M277 225c1 2 3 3 2 6-3 2-2-5-3 0 11 19 24 33 32 34-3 11 4 10 6 24 1 2 4 1 7 1-4 5-7-17-13-30 1-1-3 2-4-2-1-3 0-11 3-4-3-4-5-3-7-8 1 3 5 5 3 8-4 2-5 0-6-2-7-4-7-13-4-15-3-2-4-5-7-7 6 2 7 12 3 14-5-7-8-12-10-18"/><path fill="#572D23" d="M219 369c-9 11 10 6 8 11-3 11-29-2-20 12 4-2 7 2 11 0-3 2-3-4-1-4 5 1 9 3 14 0 4-2 5-6 4-10 5 0 7 2 9 3-4-3-4-5-8-5-6-1-11-3-15-6"/><path fill="#4D3D34" d="M191 371c-4 8 0 10-3 14 5 17 8 44 14 46 2-4 0-13 0-21-1-34-8 21-12-43"/><path fill="#F2E4B3" d="M209 158c-13 3-26 7-37 14 6 5 13-1 18 0 8-2 24-8 22-16"/><path fill="#CF8E50" d="M345 181c7 6 15 15 19 22-2-5-2-11-5-14 3 0 8 0 10 3 9 6 7 16 1 13 17 4 6-14 14-11-4-3-8-9-13-10-9-1-14 5-25-1"/><path fill="#3A2D29" d="m345 281 1 1c-8 11-11-7-10 13 0 6 5 3 7 6 6 1 9 0 11-4 2 6-4 9-9 7 0 0 1 2 2 2 6-1 8-5 10-7v-1h-4c3-6-3-13-9-15 4-8 7-2 10-1l1 2-1-2c-2-3-5-4-9-3"/><path fill="#372B2E" d="M430 358c-7 15 17 29 11 48 0-5 1-14 9-14-7-11-14-23-17-34"/><path fill="#954F33" d="M80 332c3 4 1 8-3 11-5-8-3 1-11-3 1 6 5 16 13 15 4-4 7-8 9-12 1-7-5-6-6-9"/><path fill="#786053" d="M367 330c2 2-14 3-14 16 2 4 5 6 9 6-4-4 4-2 5-1 1-7 6-16 1-20"/><path fill="#743C29" d="M427 319c0 3-2 2-3 1 1 10-6 18-1 24 3 2 19-23 12-22-5 1-5-1-7-1"/><path fill="#D5C092" d="M270 149c26 11 54 22 78 19-16-6-49-7-75-20"/><path fill="#F3E6B8" d="M93 274c-6 10-19 20-19 32 4-4 11-9 15-13 5-7 7-12 5-18"/><path fill="#793823" d="M359 219c-6 0-14 5-21 10-5 10-7 19-15 25-4 4-7 12-12 8 2 1 4 3 5 5 11-9 22-23 19-30 10-6 15-13 23-17"/><path fill="#3A2924" d="M376 233h-3c-6 2-12 3-18 6-11 9-20 18-29 29-3 5-4 10-3 15 0-5 13-26 28-37 8-5 16-8 22-12 20 0 27 0 2-2"/><path fill="#3E2923" d="M565 165c-11 5-22 17-32 21-3-3-4 1-5 1 1 0 2-1 3-2 3 3 3 5 2 6-3 4-9 12-14 15-3 3-5 4-6 2 1-3 1-6 2-8-1 3-3 3-6 4l-1 2-2 2 3-1v-2c2-3 5 0 2 2 2 5-1 6-1 10-12 12-7 17-16 31 11-18 8-18 22-35 9-16 19-10 15-18 10-14 27-21 34-30"/><path fill="#493930" d="M192 290c-1 4 1 6 1 9 13 6 23 24 28 17 8 8 14 13 17 21-3-11 7-2-12-21 10 7 1 7-3 2-11-9-21-18-30-26"/><path fill="#AA9979" d="M96 287c-5 8-10 18-18 24-4 3-1 6 0 8 8-11 16-14 20-27 1-1 2 0 3 1 0-4-2-2-3-6"/><path fill="#F2C576" d="M371 259c-2 2-4 4-5 7 17 17 12 20 19 30 1-3 1-5 0-7 3-2 5-3 7-2-3-5-7-2-10-4-5-9-5-17-11-22"/><path fill="#493A33" d="M348 268c4 2 9 6 11 10 3 11 3 24 3 28-5 2-9 9-15 10-9 5-15-5-18-4 2-1 3 7 8 7 8-3 18-2 23-1 5-15 3-15 4-35-3-7-8-12-15-14"/><path fill="#BE996A" d="M158 177c-7 4 0 9-2 14 9 4 14 0 22 0-4-8-12-9-18-12"/><path fill="#6E3A2A" d="M150 362c1 3 3 6 5 9 0-2-4-5-2-8 8 4 9 10 13 13 4 2 5 2 8 1 1-5-1-8-1-15-12 0-10 8-21-2"/><path fill="#644E40" d="M343 439c-12 0 1 11 2 18-3 1-6 1-9 2 8 0 15-3 23 1-5-4-10-14-12-19l-1-1-1-1"/><path fill="#655849" d="M102 299c-9 6-14 21-20 27 4-3 15-7 18-15 0-2 7-12 3-10"/><path fill="#965836" d="M163 206c0 7 5 10 8 14 6 0 11-4 12-9-2 3-11-9-18-3"/><path fill="#392B27" d="M122 316c-1 2 1 3 1 4-1 11 0 20 6 26 14 6 27 11 42 8 5-6-3-14 2-21 0 7-6 10-7 16-9 3-19 2-23 0-8-1-13-4-16-9-4-6-5-12-6-17 1-5 3-6 6-5-2-1-3 0-3-1"/><path fill="#783F29" d="M396 209c0 4-2 5-3 8 8 8 12 14 15 20-1-5 0-11-1-16-1-7-5-8-8-11"/><path fill="#793B29" d="M380 376c4 2 11 7 14 12-4 11-10 17-7 25 6-7 10-13 12-20 0-11-10-14-16-16"/><path fill="#302C2B" d="M193 321c11 10 18 23 31 32 11 6 17 16 27 15-22-7-36-33-57-44"/><path fill="#493730" d="M85 382c-2 8-11 18-15 33 0 2 2-1 2 1 7-7 8-20 16-33"/><path fill="#302321" d="M321 347c7 1 11 9 14 13 1 5 1 8 2 11-9-8-15-13-15-21"/><path fill="#F5EAB9" d="M339 271c-2 2-5-1-6 3-3 6-3 14-3 20-6-9 22-22 12-24"/><path fill="#EEDFB1" d="M283 150c14 10 34 8 49 15-13-10-31-11-47-15"/><path fill="#803E26" d="M386 208c-6 1-14-1-16 5 10-1 6 7 12 5 0 1 17-9 6-11"/><path fill="#63503E" d="M187 282c7 14 31 29 45 42-14-13-32-31-42-41"/><path fill="#F2E4B3" d="M150 185c-5 6-10 11-13 17 6 3 10-2 12-4 7-5 3-9 3-12"/><path fill="#5E4C3F" d="M315 384c-6 2-2 1 3 14 1-2 4-6 5-4-1 3 0 6-1 8 2-3 5-3 7-4-1-9-8-12-13-14"/><path fill="#BEA174" d="M335 167c-16 4-6 2 2 10 8 1 8-6 19-3-4-5-12-4-21-7"/><path fill="#3A2925" d="M66 415c7 7-8 7-7 11-9 1-14 3-18 6 15 1 14-2 24-1-1-7 14-4 3-14"/><path fill="#B09873" d="M157 203c-5 7-13-4-17 5-3-1-6-2-6-3 0 1 3 2 3 4 11-5 6 0 9 4 10 4 19-2 10-9"/><path fill="#DDA157" d="M359 188c4 3 4 10 6 14 4 3 8 3 10 2-1-11-8-14-15-15"/><path fill="#AC7950" d="M160 191c-8 4-2 10 1 16 4-2 8-12 14-9-5-4-9 2-12-6"/><path fill="#654C3D" d="M211 450c-12 15 6 14 20 13-8-3-17-12-24-9"/><path fill="#433832" d="M364 303c3 1 1 12-1 14-5-1-5 4-10 3-1-7 6-10 9-14"/><path fill="#4E382C" d="M179 265c-10 10 4 3 0 13-1 2 2-6 6-3 7 6 3 1 13 6-4-11-10-12-19-15"/><path fill="#745C4B" d="M148 315c-8 8-16 1-21 9 9-3 11 7 17 2 0-4 6-6 1-8"/><path fill="#493A2F" d="M112 303c-5 17-13 34-21 51-3 6-6 9-6 14 0-9 3 0 4-5 5 0-1 1 2 2 1-6-2-3-2-10 3-8 8-5 10-11 6-14 10-26 12-40"/><path fill="#382926" d="M289 346c-3 2-5 6-2 9-6 0-8-4-10-7-3 5-3 9 1 11 8 5 14-9 13-14"/><path fill="#984D30" d="M381 377c11 6 0 17 5 25 0-5 11-3 7-12-1-7-8-7-10-12"/><path fill="#7C6152" d="M315 311c1 3 0 6 2 8 2 4 4 6 6 8 6 5 9 8 13 9 2-4 4-7 8-9-6 1-13-5-17-8 1 1 3 3 4 5-2 4-3 5-6 4-6-5-10-9-9-16"/><path fill="#322523" d="M323 347c-1 10 5 15 12 23 3-11-6-15-10-21"/><path fill="#655244" d="M328 407c3 9 8 17 9 26 1-1 3-2 5-3-6-7-6-17-7-21-3 1-4-3-6-1"/><path fill="#D0BE96" d="M98 269c-6 5 1 16-7 22-5 6-12 11-15 16-3 0-2-3-4-4 0 3-3 5-4 8 2 4 5-6 7 3 5-6 12-12 16-21 3-3 4-4 4-6 3-1 3 1 4 1 0-1-6-7-1-17"/><path fill="#523128" d="M102 365c-1 4-6 19-1 6 5-1 22 5 28 4-1-7-10-4-12-7-7 1-13-3-13 4-5-4 0-4-2-5"/><path fill="#5B4B47" d="M453 321c-11 1-2 15-4 20 6 1 7-13 4-18"/><path fill="#AC6C42" d="M174 197c-18 15-2 4 6 12 3-2 4-4 3-7-2 1-6-4-10-3"/><path fill="#53372B" d="M269 204c5 14 13 25 19 39-4-21-7-15-17-38"/><path fill="#452822" d="M376 370c15 12 23 9 29 7-1 2 0-2-2-2-8-2-16-4-23-5"/><path fill="#3B1E18" d="M232 281c4-2 7 3 11 3-1 5-1 8-2 10-6-1-8-5-8-11"/><path d="M308 394c-3 2-8 1-11 3 0 7 24 9 12-3"/><path fill="#513A32" d="M45 424c-5 3-11 3-16 7 7 1 44-8 17-7"/><path fill="#A04D2E" d="M352 373c7 9 3 25 7 36 2-9 2-18 1-25-6 2-3-7-5-9"/><path fill="#2E2C2C" d="m299 307 1-1c2 1 4 3 5 5-2 9-22 5-8-3"/><path fill="#9A4C2C" d="M385 205c-7 3-20 2-22 3 1 1 1 3 0 4 5 5 10 5 14 6-1-3-5-2-7-4 0-3 1-2 0-5 7-3 32-1 16-5"/><path fill="#FBEFA6" d="M365 266c6 10 9 19 11 29 3 4 3-1 7 1-1-1-2-5-5-5-1-5 2-6 6-5-12 0-10-13-15-18"/><path fill="#6A5347" d="M114 230c8 3 20 12 33 12-12-6-14-8-31-12"/><path fill="#C08854" d="M172 192c-15 7 6-1 9 10 3-2 5-4 6-5-6-1-8-7-13-5"/><path fill="#F1CB79" d="M241 225c-7 3-4 6 1 8-7 12-13 0-14 3-3 3-3 4-2 6 6 0 13-1 17-4 2-7-5-8-4-10"/><path fill="#937A67" d="M321 306c1 3-1 8 1 12-5 3-6-12-5-2 1 6 6 12 10 12 3-8-8-17-5-20"/><path fill="#2B2727" d="M279 328c4 1-1 11-3 14-3-6-8-3-6-10 3-1 5-2 7-3"/><path fill="#52362C" d="M511 211c-2 5-3 10-7 13-5 1-8 8-10 3 0 6 3 1 5 3 0 6-1 10-3 13-4 5-11 11-14 6-6 0 6 12-14 18 17-15 29-18 30-22 0-2-1 1-2 0 2 0 4-10 3-13 5-6 11-10 11-19"/><path fill="#49372F" d="M178 347c-1 9 5 20 2 30 4-6 6 1 5 1 0-12-4-29-6-29"/><path fill="#57352C" d="M148 361c4 10 13 19 22 27 3 3 5 4 7 5-2 0-1-13-2-14-4-1-4 1-6-1 0 4 6 9 3 11-9-10-26-23-21-30"/><path fill="#45241C" d="M144 355c2 3 3 6 5 9 0-1-2-2-1-4 9 0 14 2 21-1 7 1 5 6 6 9-1-3 1-8-1-11-11 2-20 1-28-2"/><path fill="#3D2B25" d="M491 252c-6 1-25 27-28 22 3 5 5 5 6 2 12-14 20-23 23-22"/><path fill="#9A775D" d="M435 279c-5 8 2 23 6 31 1-11-5-21-6-30"/><path fill="#533C30" d="M155 263c-1 0 7 1 9-1 3 6 0 7-1 8-4 0-5-1-6-2 1 1 7 7 10 11 1-4 2-9 6-11-4-4-10-7-15-5"/><path fill="#6C493B" d="M153 365c5 8 11 16 18 23-4-9-9-17-15-23"/><path fill="#C16234" d="M287 250c-5 1 0 12-5 9 3 2 10-2 8 7 4-1 5-4 7-3-4-5-7-8-9-11"/><path fill="#8F4B30" d="M201 353c0 5 0 13 3 18 0-4 2-8 7-9-4-5-6-6-8-9"/><path fill="#493934" d="M341 413c1 2 0 4 1 6 9 1 16 5 22 9 1-6-9-6-21-14"/><path fill="#3F332F" d="M309 349c5 1 4 12 8 16-6-6-7-2-12-3 3-5 6-7 3-11"/><path fill="#2A1E1D" d="M347 280c-4 3 13 12 7 17 5-9 2-15-5-17"/><path fill="#4F3C37" d="M348 348c9 9 20 12 31 16 13 3 27 4 37 1-9 2-19 2-28-1-15-3-28-8-37-16"/><path fill="#4C3B33" d="M400 376c-1 2-1 4-1 6-16-9-9-3 3 6-5 2 0 6-3 7 2-1 3-7 6-4 1-5 1-11-4-15"/><path fill="#453A37" d="M253 394c-14 8-31 14-48 12 8 2 18 2 26 0 5-4 21-9 25-13"/><path fill="#54382A" d="M170 236c8 5 20 5 26 11-44-10-26 0 3 3-4-5-5-7-7-11-5 5-15-1-20-2"/><path fill="#372B26" d="M353 446c2 5 8 10 8 15-6-5-12 5-18-1-6 2-6 7-10 8 5-7 16-1 21-6 19 14 13 8 7-1-1-5-4-9-6-14"/><path fill="#3F403D" d="M130 287c19 10 10 13 32 31-7-14-18-19-28-33"/><path fill="#6E6D6C" d="M444 331c2 7-21 22-4 13-10 12-17 18-25 19 18-8 22-13 23-11 10-9 4-12 8-20"/><path fill="#2E2223" d="M399 348c5 2 14 2 19 5-8 3-14 0-19-3"/><path fill="#FAE291" d="M278 180c6 2-6 10-3 18-5-5-1-11-2-14 0-2 1-2 2-2"/><path fill="#7D6752" d="M328 287c2 9-4 17 5 22 4 5 8 4 11 6 7-1 10-4 13-6-13-7 5 6-19 4-7-6-10-15-10-23"/><path fill="#45251F" d="M334 351c3 8 14 12 23 17-5-8-14-11-21-17"/><path fill="#614F42" d="M326 295c-5 3 1 14 4 18 0-1-2-1-2-3 5 3 7 5 10 6 7 2 10-1 13-3-4 2-9 3-14 1-7-5-13-11-9-17"/><path fill="#493D36" d="M347 287c5-3 9 7 4 9-6 2-7-4-5-7"/><path fill="#3C1F19" d="M233 282c2 4 0 11 6 11 2-3 3-4 4-6-4-3-6-4-8-5"/><path fill="#723E2C" d="M367 379c5 11 14 15 15 30-2-5-1-22-12-30"/><path fill="#644C42" d="M315 319c2 10 14 15 21 20 5-3 6-7 9-10-4-1-6 5-8 9-10-5-16-11-21-18"/><path fill="#313130" d="M300 307c-3 2-5 4-6 7 7 3 15 1 7-7"/><path fill="#D48446" d="M381 297c-8 11 11 5 14 4-5-3-8-4-13-3"/><path fill="#D4A164" d="M343 179c8 8 16 6 25 4-7-2-13-4-23-3"/><path fill="#A45935" d="M398 249c9-2 18 10 26 16-1-3-6-7-5-11-5-3-11-5-17-6"/><path fill="#736552" d="M99 296c-3 6-8 14-14 19-4 4-6 8-2 11 4-11 16-30 21-28"/><path fill="#483A37" d="M307 384c-13 2-18 9-37 4 3 4 10 4 19 3 7-1 13-2 18-6"/><path fill="#D2BC8F" d="M212 162c-9 10-24 10-35 14 6 3 9-1 19-2 6-2 11-6 13-11"/><path fill="#44271D" d="M73 317c-5 6-14 21-2 3 8 5 12 14 21 17 0-2 3-4-3-5 5-3 6 1 5-4 1 4-5 1-7 3-3 0-11-8-14-12"/><path fill="#281F1C" d="M203 413c1 6 2 13 4 19-4 1-7 2-9 6-2-3-4-3-3-6-2 5 1 8 2 12 0-1-1-3 0-4 2-6 6-4 8-5l3 2 1 1 2 1c1 2 3 3 4 5-4 4-8 4-7 8 3-4 10-9 15-2-6-3-8-7-12-11-2-9-6-16-7-25"/><path fill="#B4997C" d="M352 252c-3 1 1 12-4 12 1 0 4-1 6 0 1-1 8-9 0-12"/><path fill="#F0DFAB" d="M117 256c-7 2-11 9-11 16 8 0 4-10 9-14"/><path fill="#B19467" d="M114 215c16 11 34 17 52 24-16-10-34-12-50-23"/><path fill="#2D2929" d="M280 329c-3 0-6 2-8 3-3 6 2 2 2 8 3-2 4-6 6-9"/><path fill="#947C61" d="M331 302c2 4 4 8 9 10 5 1 9 0 13-2-8-4-11 2-21-7"/><path fill="#453A38" d="M429 371c4 11 8 21 11 33 3-13-6-21-10-31"/><path fill="#73442A" d="M189 186c2 10-5 16-5 26-3 6-7 8-10 11 6-1 7-5 13-14-3-8 8-13 2-21"/><path fill="#8D644D" d="M61 198c1 4 2 7 5 11 5-3 10-1 13 2-5-5-11-10-16-11"/><path fill="#D2A56A" d="M173 184c4 3 7 9 12 10 1-3 1-4 2-5-4-3-8-2-11-5"/><path fill="#563226" d="M340 364c-4 6 0 10 4 13 2 0 2-10-4-11"/><path fill="#BB6839" d="M382 193c0 17-12 14 10 10-5-4-6-7-10-8"/><path fill="#4E3D34" d="M100 314c-5 7-13 9-13 15 0 0 2 1 5 0 3-7 6-9 6-12"/><path fill="#BD9F75" d="M207 167c-6 10-15 7-24 11 3 2 5 2 8 3 7-5 13-11 18-14"/><path fill="#4E392F" d="M216 447c-1 6 17 14 23 18-7-3-16 1-25-1 12 4 14 1 25 4 2 1 4-3 6 1-2-1-3-4-4-2-9-5-16-12-23-18"/><path fill="#ECDAA6" d="M134 245c-10 3 4 2-1 11 5-8 9-2 1-10 8-2 8 8 12 2-4-1-6-4-11-3"/><path fill="#FBF2B2" d="M235 231c-2 1-3 3-4 5 5 5 15-3 5-5"/><path fill="#F4DE9B" d="M160 177c10 0 17 7 27 9-7-5-15-10-26-8"/><path fill="#7F5E49" d="M85 215c13 5 18 15 33 14-11-6-21-8-31-13"/><path fill="#3F413D" d="M124 290c-5 16-9 32-13 48 2-6 10-27 13-46"/><path fill="#B16A41" d="M80 331c-2 10-14 5-13 7 5 1 8-2 8 7 4-5 7-8 4-12"/><path fill="#422622" d="M321 359c-3 7 1 6 3 14 7 0-1-10 6-6-3-2-5-4-8-7"/><path fill="#271D19" d="M575 159c-9 15-29 23-42 36 11-10 31-21 43-35"/><path fill="#473C39" d="M446 293c-2 4 1 6 0 9 2 7 2 13 3 18 4-5-1-10-2-15 3-4 5-6 6-9 2 1-7 7-4-3"/><path fill="#623526" d="M115 348c-4 3 7 6 9 5 1-5-4-7-7-5"/><path fill="#573528" d="M256 220c6 6 21 11 22 10-4-8-13-3-20-10"/><path fill="#3C2C26" d="M103 270c1 4-1 16 1 25 4-2 4-7 5-11-2 6-2-2-4 0-1-4-2-9-1-13"/><path fill="#33302E" d="M298 319c-10 6 10 3 7 9l1 2 1-3c-1-2-1-4-2-7-2-2-4-1-5-2"/><path fill="#9E7353" d="M419 256c5 3 5 13 8 13 1-7-1-11-6-13"/><path fill="#281F22" d="M446 393c-1 2-3 4-3 6-1 8 0 13 1 18 4-8 1-11 0-19 3-7 14-1 4-5"/><path fill="#F9E49C" d="M293 166c-11 3-18 15-1 2 11 2 24-2 32 4-9-6-19-3-29-6"/><path fill="#AC9675" d="M331 297c0 7 8 12 14 11-6-4-7-8-12-8"/><path fill="#4B3933" d="M109 358c-8 9 7 7 8 3-2-1-4-1-7-2"/><path fill="#2A1F1A" d="M80 413c1 2 0 5-2 6-5-1-8-1-10-5 1 6 3 3 5 5 1 5-3 10-7 11-14 9-19-1-34 4 16-4 18 7 33-3h3v-2c4-1 5-6 8-8 3-3 4-5 5-6"/><path fill="#995334" d="M392 198c5 8 6 13 15 17 0-11-9-8-13-14"/><path fill="#816A4C" d="M112 289c-4 11-6 24-9 33 3-11 9-20 9-31"/><path fill="#DEA35C" d="M381 272c2-2 8 3 5 6-5 2-5-2-6-4"/><path fill="#D6C395" d="M153 193c-3 10-15 14-18 10 8 3 11-2 19 2 1-3 1-4 1-5 1 4-3 6-5 3 0-5 6-6 4-7"/><path fill="#9B7E5C" d="M156 246c-1 5-10 11-11 8 2 2 5 4 8 1 4-3 3-7 6-9"/><path fill="#6D574B" d="M123 234c6-2 11 4 17 3-5 2-10 2-15-1"/><path fill="#7A624E" d="M404 207c6 11 9 22 8 34 4-6 3-6 4 0-2-12-4-23-10-33"/><path fill="#663829" d="M415 372c0 10-3 18-6 27 4-8 10-16 6-24"/><path fill="#F9EFBC" d="M216 196c4 6 12 6 17 11-4-6-9-9-14-11"/><path fill="#A46E4E" d="M494 233c-4 4-5 10-9 13 6-2 11-11 11-13"/><path fill="#4D3B32" d="M300 329c-4 0-1 13 2 17-3 3-4 0-6 0 2 3 5 2 6 4 0-7 0-14-3-19"/><path fill="#614E40" d="M357 276c2 7 2 12 3 20-3 5-7 10-11 11 3 0 5-2 7-5 4 4 3 6-1 9 3-3 5-5 6-7-2-10 0-18-3-26"/><path fill="#403330" d="M284 398c2-2 6 0 8-1-1 3-8 11-8 3"/><path fill="#3C302D" d="M311 347c1 3 0 6-4 13 4-1 5 0 7 5-4-8-1-15-2-16"/><path fill="#2C2424" d="M287 368c10 0-5 9-8 4 0-2 4 0 6-3"/><path fill="#896042" d="M145 216c4 6 15 6 17 10 3-1 5-3 8-4-3-7-18 8-25-8"/><path fill="#582E22" d="M115 342c-3 29 3-9 13 13-2-7-5-9-7-10"/><path fill="#644C3B" d="M158 264c-5 1 0 4 2 5 2-2 5 0 5-2-2-6-3 1-5-3"/><path fill="#7C6858" d="M61 348c-12-1 8 11 6 5 0-2-2 1-4-4"/><path fill="#6D564A" d="M379 350c3 1 11 1 10 8-1-5-6-2-10-5"/><path fill="#A6CAC0" d="M427 249c4 6 9 13 15 18-4-8-8-11-13-18"/><path fill="#F3DFAE" d="M236 134c9 9 37 22 57 27-18-8-39-11-54-27"/><path fill="#7C6555" d="M438 306c3 9 1 11 6 10-3 10-4 12-10 18 5-3 9-8 10-13-2-7 0-12-6-12"/><path fill="#703726" d="M350 366c-1 6 11 13 12 22 3-7-9-9-5-16-2-2-2-4-3-3"/><path fill="#CFB896" d="M350 254c-4 2-7 4-11 7 15-9-7 10 10 0 2-1-1-5 1-7"/><path fill="#826748" d="M124 261c-8-1-7 9-10 14 3-11 7-1 9-13"/><path fill="#7E664F" d="M338 442c-2 7 3 11 0 16 2 1 4-2 5-1-1-3-3-8-5-12"/><path fill="#4F3D31" d="M182 292c-2 22 1 43 6 63-3-19-9-45-4-62"/><path fill="#DABF8B" d="M41 120v19-15c14 10 24 19 36 29-14-12-23-21-36-32"/><path fill="#503B2E" d="M129 259c-8 5-15 29-15 31 6-9 7-22 14-31"/><path fill="#494D48" d="M134 289c6 6 11 13 18 18-4-6-10-12-15-18"/></svg>