<svg xmlns="http://www.w3.org/2000/svg" width="600" height="600"><path fill="#6C6534" d="M349 103c16 3 31 9 45 14 20 2 37 0 51 7 9-1 14-7 23-4 21 5 35 24 38 42-7 27 5 54-2 78-9 7-15 13-23 17-17 3-32 1-45-2-7 5-11 8-15 11 1 9 2 15 1 23-3 14-15 18-16 29 7 27 21 46 32 67-7 6-14 8-18 7 2-8-4-15-9-20-3 6-8 13-15 14 0 7-6 13-4 18-7 6-20 12-29 16-1 7 4 9 7 11 15 5 32-3 42 6 10 5 21 10 22 21-19 1-36-4-54-5-1 8-2 16-8 20-9-4-12-12-19-15-8 1-9 5-15 7-2-8-8-13-15-14-14 2-26 3-40 2-2-5 0-8 3-12 10-1 22 2 25-8 3-7 6-12 4-19 0-4-3-5-5-4-21 11-46 7-67 10-5 3-8 6-12 8 3 11-6 15-4 21 15 3 20 14 32 20 2 8 4 14 2 19-6-2-18-9-26-14-3 4-2 13-5 20-12-4-16-12-25-18-1 6-2 12-5 17-11-4-13-13-18-22-13-4-9 13-17 12-3-17-12-29-14-44 3-15 7-27 16-36-19-9-34-20-48-35-16-16-20-39-26-57-1-24-4-51 5-71 4-24 21-41 37-56 10-10 20-14 31-17 12-1 20-1 30 0 7 2 13 4 18 8 7 7 11 12 14 18 3 14 1 27-4 37-7 15-15 25-29 30-8 2-17 3-21-3-8-9-9-19-8-30 2-7 6-11 11-14 6 0 10-1 12 1 6 3 8 8 9 12 3 2 5 0 6-2 4-6 7-11 7-17-3-8-5-14-11-16-11-7-25-6-34-1-15 7-26 16-33 29-5 12-8 23-8 36-5 18 3 29 5 42 7 11 9 20 17 27 9 7 18 9 29 8 10 0 13-10 17-15s2-10 3-13c4-4 6 2 7-3 7-5 3-12 4-19 3 0 5 2 7 3 5-6 8-10 6-17 8 1 13-3 17-10 1-7 5-11 3-17 6 1 6 3 10 5 7-3 9-10 12-15 6 6 12 0 16-3 5-3 4-7 6-10 5 2 10 4 14 1 8-1 11-7 14-11 6 5 9 7 17 3-28-18-6-26-33-42 1-5 7-3 9-4-4-9-8-17-12-25 10-4 23 3 35 5 1-6-4-9-4-14 9-2 13 2 19 2 1-7-7-3-10-7-3-8-9-13-8-20 10 5 25 1 29 11 0-3-3-6-4-11"/><path fill="#2A2016" d="M315 170c1 3 4 3 5 5-5 0-8 0-10-2 29 29 2 12 26 33-6 2-2 10-10 11-6-1-11-1-15 2 5 4 16-3 18 4-5 9-8-2-14 1 8 9-6 13 0 17-13 17-29 19-41 41-11 2-18-5-28-2 8-1 13 2 20 3-17 12-22 34-30 47-5-2-7-4-10-7 3 1 4 5 6 7-4 7-10 12-14 14 5-3 10-8 15-12 6-3 7-12 13-15-5 12-4 21-6 39 9 13 15 25 14 41 0 8-5 12-7 17 6 1 10-5 17-3 0-13 0-28-1-38 2-12 3-16 10-23-6-7-11-14-15-20-5-7-6-13-5-20 4-14 15-20 25-29 15-16 37-18 48-35-1 8 1 7 2 11 3-6 11 3 15 6 8 6 13 12 12 21 2-4 1-9 3-12 1 1 3 2 3 3 0-2-2-5 0-7 4 4 6 1 9 1-1 17-13 32-20 36-8 5-2-3-2-5-3 4-8 10-13 12-13 2-21 8-31 10 3 5 9 4 14 6 16-10 31-17 41-30 7-9 11-17 13-26 2-10 2-19-1-26 20-1 45 4 65 8-29-7-59-14-85-23-7-5-10-9-11-14-2-10-1-19-3-27-7-7-14-13-20-18"/><path fill="#6E351C" d="M366 138c-16-1-3 12-6 18 2-3 6-5 8-9 6-3 11-4 16-3-7 4-14 10-16 17-6 24-1 38-10 28 11 12 18 17 25 19 12 1 21-2 27-8 4 3-3 5-5 7 3 0 8 2 11 0 8-6 6-15 6-24-2-12-7-21-13-30-7-5-11-10-16-13-10-3-18-2-27-2"/><path fill="#3B3E23" d="M248 280c4 1 2 10-2 12-6-4-10-5-12-9 3 4 7 7 10 10-4 8-12 8-18 9-9 6-4 15-11 27-4 5-9 6-12 10-5-3-1-3-2-5 0 13-18 1-13 10-7-2-4-7-6-9 2 4 1 13-5 10-10-6-18 1-27-9 1 4 3 7 4 11 4 4 5 4 8 7-4 1-6 2-10 0-4 3-3 8-3 12-10-5-19-11-24-18-8-5 4 0-7 2-1-5-4 1-4-6-4 6 1 10 4 15 4-1-2-10 5-6 0 6-1 9 0 13 8 9 16 18 25 23 6 6 13 8 21 12 4-1 6-4 7-4 7-1 4-3 5-7 0 3-1 4-3 5 0-6-8-9-13-8-2-2-1 1-2 3-6-5-1-11-6-14 10-4 4-19 10-17 4-8 14-8 16-14 2 9 7 1 11 7-3 4-5 6-7 8l6-6c17-8 2 0 8-10 4 7 19-2 27 5 4 2 7-2 10 6 3-16 2-26 7-33 0-5-3 0-4 1-2-1-2-2-1-3-1-19 44-39 8-39"/><path fill="#3F3129" d="M254 309c-1 7-1 14 4 18 5 9 10 16 15 20-7 10-7 15-9 26 2 9 1 25 1 35-10 8-21 4-21 9 15 2 27-1 43-1 9-2 19-5 29-12l2 2h3c1 10 1 18-2 27 3 1 7 4 8 6v2l1 2-1 1-2 2c-1-6-4-10-9-12 1 0 6 3 4 6-8 3-13 6-19 6-2-2-3-2-5-3-2 0 3 4 3 5-4 2-7 3-11 2 0-2 2-3 4-4-2 3-10-2-10 6 22 3 29-5 47-2 3 4 7 5 6 10 1-4 0-7 3-10 0 1 10 2 5 8 3-3 6-6 10-6 5 3 7 6 9 9 2-4 3-9 8-9-2 3-7 8-4 13-5-2-9-9-14-9 8 2 9 11 18 13-13-15 11-3 1-15 1-5-1-9-3-12-7-4-10 5-11 5-10-2-8-13-12-7 4 2 3 9 1 11-5-6-6-15-10-13-2-2-6 8-8 4 4-10 2-21 11-27 6 0 6 6 10 8 5 0 9 2 10-2-1 3-4 3-5 1-5-4-10-5-12-9-3 2-7 1-9 3-5-11-7-2-13-10h-2l-3-2c4-3 8-4 12-7-2-7-9-10-14-11-1 5-3 9-6 12-3 1-3-7-6-4 2 1-8-13-7-27-2 5-8 8-10 13-4-1-4-3-6-3-3 2-5 4-8 6-3-14 6-12 13-30-22-16-15-25-31-41"/><path fill="#AE933B" d="M417 161c11 6 4 14 9 23 3 3-1 19-2 24-13 2-25 1-36 3s-35-23-25-5c11 6 21 10 31 14 24 5 41 12 62 16 16 2 31 3 44 4 1-13 4-23 0-38-2-3 0 23-13 18-12-3-22-10-36-11-4-4-2-11 0-14-3 2-4 7-6 10 4-10-10 1-7-15 0 8 0 10-3 15 2-10-3-31-7-40-2 0-6 1-8-2"/><path fill="#833F21" d="M382 146c8-2 15 2 22 5 7 7 12 12 13 19 0 5 2 8 0 10-3-11-5-19-13-25 7 8 11 18 11 29-2 6-3 9-4 13-10-1-12 4-19 7-4 4 1 1 3 3-9 2-14 1-19-2-6-6-10-11-11-17-1-11 0-19 3-26s7-13 12-15"/><path fill="#B7A876" d="M368 290c-6 4-6 8-6 12-10 7-24 16-34 22 2 5-2 8 1 10 9 6 20 4 25 13 5 10-15 1-15 7 9 2 18 5 23 3 7-9 15-14 20-23 10-24 21-47-16-39"/><path fill="#366647" d="M310 213c-3 5-6 8-11 10-5-1-14 4-14-2-1 12-12 20-14 26-4 4-12 3-13 0-4 3 2 6-4 7 1-12-6 3-11-6-1 3-1 5-2 6 3 0 5-2 6-1-6 9-13 14-16 22-9 5-6-4-8-7-1 4 1 11 4 11-1 9-8 14-12 19-12-2 6-10-5-10 8 16-16 35-8 50 4-4 8-5 12-8 15-28 1-28 14-46 7-2 15 10 21 4 2-11-12-5-17-9 9-1 19-2 26-2 20-9 18-15 27-20-1-1-1-5-3-7 7-6 4 13 11 1 10-7-8-8-1-15 3 0 6-2 7 0 4-5 7-15 10-20"/><path fill="#8D8D49" d="M197 168c2 3-3 5-1 7 4 4 8 5 11 9 4-2 6-3 9-4-1 4-6 6-6 8 4 9 7 12 6 20-3 0 0-3-3-2 1 13-7 15-9 25-13 0-5-14-16-16-6-1-12-2-14 2 1-1 3-1 5-2-4 10-9 19-8 30 0 5 1 9 5 11-3-3-1-7-4-10 15 14 23-6 26 7 16-13 16-18 24-31 4-12 0-27 0-34-5-11-13-14-23-19"/><path fill="#5C4626" d="M326 170c-3 3 2 5 1 8 3 3 8 8 12 8 0 12 1 23 3 33 3 7 8 9 12 11 37 5 71 16 95 24 17 0 30 4 40-6-40-3-94-19-134-30 9 1-15-17-13-35-7-4-9-11-14-12"/><path fill="#E7DD8A" d="M402 122c1 1 3 2 5 3-17-9 0 13 5 11-1 6 7 10 9 14-1 2-3 0-5 0-3 3 1 6 2 8 6 1 3 8 8 4 1-4-3-6-4-8 11 8 11 12 13 21 1-8-4-18-7-25-6-11-14-17-22-22 21 10 23 11 53 21 4 8-5 12-7 14-7 0-11-3-15-3 1 11 6 23 8 35 7-8 8-18 16-23 11-1 18 6 26 8-3-2-14-8-14-17-1-5-2-10 1-12 3 1 6 1 7 4-8-10-22-9-26-23-1-2-6 10-16 2-20-1-8-15-9-10-8-1-12 9-27-4"/><path fill="#301F18" d="M364 361c-19 22-24 26-47 44 12 13 20 1 40 19 33-17 37-34-2-20 10-18 7-21 16-34 1-5-4-8-7-6"/><path fill="#B09534" d="M272 294c-7 4-2 9-5 14 3 6 7 9 9 13 9-3 15 1 22 2-2 12-6 15 0 26 2 4 6 1 9 3-4 3-9 0-12 3 6 9 8 24 10 31 6 2-1 2 4-2 3-8-2-17 1-23 8 5 19 7 22 15 5-3 2-3 1-5-10-10-7-12-15-22 7-4 19-1 23-4-6-5-25-7-29-10 1-8-9-5-14-11v-2l1-1h1c3 6 6 5 0 0-8-7-17-8-25-11 5-4 7 0 11-1 2-2 0-4 5-5 0 2 5 1 3 5 4-3-2-4 4-5-7-8-17-3-24-10"/><path fill="#5D4A22" d="M196 382c0 9-9 9-6 16-6 4-11 6-16 9 2 6 3 10 5 14-3 0-6-4-7-6-1 2-2 6 2 9-4 1-6-1-7-3-8 19-4 30-5 40 2-2 6 0 8 3-6-3 3 7-5 19l-1-5h2l-1 1-1 2c10-4 5-21 13-27-1 7 8 13 10 20 5 3 6-2 9-2-8 1-7-12-12-16-1-5 2-6 4-5-3-1-6 0-8 3h-2l-1-1h-3c0-6-5-8-8-11 1-6 9 2 9-8 15 5 21 9 32 9-1-7-12-8-20-10 6-9 1-5-1-16 13-2 24-2 33 0 7-5 15-2 20-6 2-3 3-3 4-3 3 7-7 13-12 18 16-11 24-28 15-20-4-1-5 2-6 2-10 5-20 3-29 4-10-10-13-15-16-28"/><path fill="#515320" d="M97 265c-1 5-3 9-2 15 9 2 10-4 16-6 1 18 1 28 1 43 2 3 5 3 8 2-14-2-15-8-22-4 3 15 8 29 16 42 1-5-3-2-3-10 4-11 5 7 5-2l2 3v2c9 10-6 10 3 14 1-5 4-11-3-14 3-2 4-3 6-5 6 9 16 15 22 20 1-5 1-9 5-11 5 1 7 0 10 1-4-5-5-1-8-2-6 1-6 7-9 6-1-10-1-20 3-27-6 5-3 16-8 22-4-3-9-4-11-7-1-5 0-7 1-10-1 3-4 9-7 4-4-6-8-12-9-18 11-2 12-5 22-1-4-7-6-11-8-15-2 11-8-13-12-1 0-8 2-8 9-6-2-9-8-14-6-23-9-7-16-9-21-9"/><path fill="#D0BA55" d="M481 127c4 5 12 10 13 18 5 14 7 25 9 39-4-4-5-11-8-17 5 10-14 1-6 15 1-1 3 3 5 4 0 6-1 10-3 14-8 0-12-5-17-6-1 4-1 8-4 9-7-4-12-10-15-13-3 5-6 9-5 15 14 4 25 10 36 18 10-3 13-13 11-23 4-1 7 9 5 14 4-23-2-7 1-29-6-35 3-16 1-16-5-8-8-37-21-40"/><path fill="#6F7B1D" d="M331 259c-6 1-6 7-9 9-3-2 2-5 0-7-9 4-9 13-15 14-3-1-1-2-2-4 0 9-6 5-6 14-4 0-9 7-11-4-3 10-15-2-16 7 7 10 21 4 25 11 7-5 3-13 6-19 2 3 1 6 2 10 4 1 7-3 10 0 3-5 5-9 5-13 1 0 11 3 13 11 10-6 15-32-3-27"/><path fill="#442E28" d="M372 246c2 4 3 10 2 16 7 4 10 10 15 14 19-5 25-10 39-22-17-4-39-7-53-7"/><path fill="#776E2F" d="M357 123c-15 8-12 34-14 52 5-2-1 22 11 33 32 14 66 20 99 29-29-10-61-14-90-30-5-21-10-53-15-73 13-1 23-4 32-2 12-1 22 12 28 11-5-7-16-11-25-10-4-1-5-3-7-2-1-4-4-6-1-8-2 2-2 5-4 5-8 1-29 2-14-5"/><path fill="#A99129" d="M227 366c-5 9-12 10-20 13 1 12 4 21 13 27 8 0 11 3 17-1-1-3-3-6-4-9 12-3 9 10 14 5 6-32-7-42 4-3-10-19-18 0-25-11-4-9 5-19 4-17"/><path fill="#42321C" d="M244 408c-6 6-15 6-23 9-11-1-22-1-32 1-2 3-2 6 2 7-3 3-4 7-7 2 20 11 24 9 38 24 2-6 8-11 6-20-12-2 7 4-15 8-2-3-4 1-7-3 13-10 19-8 29-13-3 0-7 0-8-4 12-12 16 1 19-11"/><path fill="#827121" d="M263 294c-2 5-6 9-8 14 5 9 12 13 15 19 7 9 6-5 15 0 5 6-1 15-6 9 4 6 7 4 9 0-3 7 1 12 4 11-5 8-12 17-11 23-3 1-5-1-7-1 3 4 2 5 8 7 6-6 10-15 12-14 3 9 9 19 6 27 5-7-1-24-6-31 2-8 8-5 11-5-7 4-11-8-10-8 9-19-8 4 4-24-8 0-14-1-21 2-11-9-14-19-15-26"/><path fill="#292618" d="M186 345c-23 11-20 17-26 30 3 3-2 9 2 13-1-8 5-2 7-1 7 0 8 4 8 7 6-5-2-16 4-23 3-8 7-12 12-16-4-10-5 2-10-9"/><path fill="#294228" d="M309 220c-5 6-6 16-11 20-3 3-3 1-6 2 5 0 8 7 2 8-16 9-11 14-30 26-10 3-20 2-32 3 12 2 27-5 37 5 2 0 22-28 31-29 0 1-2 0-2-2 2-6 5-8 8-14 4 1 7 0 9 3-4 3-6 6-8 8 2-2 6-3 7-7-6-6 9-10-2-18 21 6 17-10-3-2"/><path fill="#839E39" d="M462 172c-1 8-8 7-7 15 3 7 9 10 15 13-1-4 0-7 3-9 7 3 9 6 14 8 3-5 7-9 3-14-18-9-16-10-27-13"/><path fill="#6E6930" d="M137 320c1 3 5 5-2 8-40-15-4 18 1 23 6-6 5-15 10-20-4-4-6-8-8-9"/><path fill="#4C997C" d="M202 352c-9 1-11 11-17 15-5 9-4 21-1 28-6 2-10 4-14 7s-5 5-6 8c-3 9-9 19-8 29 1-12 8-24 14-34 4 3 9-5 13-5l2-1v-1l-1-3c4-1 2-5 3-8 1 1 4-1 6-2-1-22 5-16 11-33"/><path fill="#414319" d="M110 279c-21-3-15 12-12 36 5 4 2-5 7-4 2 3 5 4 5 6 3 4 6 3 9 3-3 1-5-1-7-1 0-5-3-9 2-11 1 8 7 11 12 14-6-1-9-9-11-14-3 2-3-2-4-2 7-7-7-23-2-31"/><path fill="#5C4F24" d="M342 262c7 7-3 15-4 20-4 4-2 9-7 5 1 7 12 5 14 4 1 4-1 6-3 7-6 5-12 6-17 8-5-2-9-4-12-5-8 13 11-6 7 8-11 0-23 7-32 3 11 5 5 2 15 7 10-7 24-4 38-13 4-4 8-8 10-12 0 1-2 1-3 2 0-1 0-3-2-4v-3c1-5 0-13 2-18-3 2-1 7-6 7 1-6 6-11 2-13"/><path fill="#624F19" d="M253 308c11 17 11 31 28 44 2 7-2 13-6 17 1 0 2 1 4 1 0-7 7-14 11-22-1-3-7-6-1-10-2 0-4 6-7 3-7-7 11-1 2-12-12 9-7-9-12-2-6-5-13-10-17-18"/><path fill="#5F4829" d="M340 414c-7 6-9 15-7 18 7 1 18 7 21 14 6-4 7-8 10-9-11-14-9-9-24-22"/><path fill="#8C6C23" d="M178 435c-12 9-14 3-2 17 9-1 14-6 18-2 0 4 4 5 5 9 12-10 4-2 14-10-11-11-17 0-32-14h-2"/><path fill="#846A25" d="M198 372c-6 15 3 27 9 36 8 4 16 2 22 3 8-5 15-2 19-7 3-1 1 1 0 2v3l1-3c2-4 5-9 3-15 0 4-2 7-3 9-11 4 1-6-15-3 0 3 6 6 5 8-8 5-11 2-18 2-7-4-12-10-13-17-2-5-5-10 0-12-4 5-9 1-9-4"/><path fill="#CF6926" d="M388 148c-6 0-7 5-10 5-2 6-4 10-6 17 3 11 5 9 8 15 1-10 0-22 8-25-3 1-6-3-9-2 2-9 13-5 13-5 0 6 7 1 8 7 0 12 2 22-3 30 1-3 3-8 4-10 4-2 6-5 10-2-1-9-2-19-11-25-4-4-8-4-10-6"/><path fill="#998557" d="M328 351c-9 12 18 16 16 28 12-8 13-16 20-23 0 2-3 1-4 2-33 3-6-12-29-6"/><path fill="#978257" d="M385 275c2 4-1 11-7 10-5 1-5-3-4-6-3 4-6 8-8 11 5 7 27-1 22 8 13-7 28-30-3-18"/><path fill="#4A6E2D" d="M137 187c-5 4-14 8-18 17-6 8 4-2 7 11-2-1-5-1-8-3-1 3 2 6 4 7 11-2 10-11 19-16 1-7-1-11-3-15"/><path fill="#482F20" d="M404 311c-17 16-8 19-25 36-4 2 1-5-2-1 1 13 21 10 20 24 5-15-9-27-2-37 2-9 5-15 9-21"/><path fill="#7C2F19" d="M368 164c-2 6-3 13-2 21s5 14 11 18c4 4 7 4 10 5-6-1-9-7-15-11 10 5 13 2 22 4 2-2 11-13 17-10 1-2 2-3 1-6 2-3 2-5 1-8 2 7-5 3-8 3 4 3 6 1 8 3-9-2-19 11-18 13-12 6-15-8-21-5-2-16-7-18-5-26"/><path fill="#717C23" d="M215 347c-3 8-12 8 4 7-4 1 5 5 0 9 3-2 0-5 2-7 3 7-3 13-6 10-4 5 5 1 5 8 0-3 4-5 5-7 9 3 11 4 17 8 3-4 3-9 2-12 2 7-7 1-9-1-5-3-5-8-7-10-4-4-7-4-10-5"/><path fill="#5E411C" d="M372 438c-2 1 3 11 6 11-2-2 3-2 9-3 7 6-4 3-2 3 8 3 17 4 22 5-6-7 10 4 6-4 3 3 3 8 5 8 1-5-5-9-1-11l3 1-2-1c-1 3-3-3-2 1-13-9-41-8-40-10"/><path fill="#939346" d="M115 209c-6 6-8 14-11 22 6 6 11 4 17 6 1-6 4-10 5-14-5-2-13-5-11-13"/><path fill="#7D9B40" d="M475 128c-2 3-5 9-8 10-29-21-6 4 4 7 9 4-1-2-3-5 8 9 13-6 17 6 4-2 0-3 2-5 3 13 9 24 7 22 3-5 2-12-1-17-2-9-8-13-12-17-3 0-3-2-5-2"/><path fill="#D1B33A" d="M229 370c-2 4-3 10-4 15 8 11 16-7 21 10 4-7 2-14 0-20-7 1-10-3-15-3"/><path fill="#3B3D1D" d="M341 135c-6 8-6-1-5 16-4-1-3-5-7-3 5 1 0 4 4 5-6 0-10 0-14-2 5 1 8 2 12 3 1 8 2 14 3 19 14 7 8 32 20 35-13-4-11-48-13-37 0-29 4-8 2-40"/><path fill="#677A24" d="M106 253c-6 0-8 5-9 10-1 4-3 6-2 9-1-3 1-5 0-8 6 5 14 3 23 13-1 5 1 10 4 12-2-4-4-14-1-11-6-7-5-15-6-19 2-3 3-2 4-3-2-5-5 0-12-4"/><path fill="#604B30" d="M312 366c-1 6-1 13-1 20 7-3 14 4 16 9 6-4 9-7 13-9-6-11-14 1-27-13-1-1 0-2 0-4 7 4 11 8 16 10-2-5-10-8-15-11"/><path fill="#939144" d="M103 233c-3 10-4 16-6 24 4-8 13-4 20-4 2-5 4-9 4-13-7-1-13-1-16-5"/><path fill="#3F341D" d="M364 363c0-1 10 0 8 7-9 13-6 16-14 28 14 8 20-5 29-1 3-5-14-1-20-1 0-5-1-10 1-14 6-6 11-10 16-12-4-5-11-7-17-8"/><path fill="#492F23" d="M362 268c-2 2 0 6-1 8-1-1-3-2-3-3 0 17-11 26-11 32 6-3 11-6 15-15 4-7 12-23 2-19"/><path fill="#AB8D35" d="M406 332c-7 12 2 22-2 33 5 3 7-4 10-6 5 6 10 6 14 10-4-5-9-6-12-12-3-9-3-17-10-22"/><path fill="#4B3325" d="M344 226c30 15 70 20 103 30 7-1 14-1 21-1-9 1-19 1-27-2-22-12-62-16-95-25"/><path fill="#84B44E" d="M426 142s8 20 21 19c2-3-4-7-1-10-2-5-6-4-9-5 3-3 3-1 6-2-6-2-10-2-13-4"/><path fill="#60482A" d="M415 361c-8 9 3 1-10 13 2-2 4-5 5-5 9 5 8 13 14 16-2 2-3 3-5 4 2-1 5 1 7 0 10-7 0-5 3-10 1-10-11-6-12-17"/><path fill="#91A437" d="M474 152c0 4-2 13 5 19 6 7 8-1 12-1-3-6-7-15-16-18"/><path fill="#436C32" d="M183 167c-7 2-15-1-19 4 3 4 4 8 6 8-5-5 49-6 13-13"/><path fill="#898E49" d="M162 175c-8 4-15 4-24 11 4 8 5-3 9 8 6-1 5-6 2-11 4 5 11-1 15-2 2-4 0-4 1-7"/><path fill="#5E4F28" d="M360 135c-2 4-8 1-10 5 5 15 7 29 8 44-1-11 7-20 10-29 14-13 0 5 9-5 5-6-4-3-9 0-5 7-10 11-10 17-4-8 0-19-5-27 3-4 8-3 10-4"/><path fill="#405D4E" d="M195 367c-1 4 0 10-1 17-2 1-6 6-7 1 1 7 0 10-2 14-6 7-18 8-14 1 1 11-16 25-14 39-4-8 2-18 4-28-6 17-7 24-8 40 6-12 7-25 14-34 4-12 15-13 22-19-4-8 6-7 4-13 4-6 2-13 2-17"/><path fill="#889E50" d="M373 111c26 7 1 7 24 9l1 2v1c9-8 24-1 35-1 0 4-6 0-7 6 9 2 16 9 25 7-13-9 3-10-12-11-2-2-3-2-4-2-12-3-26-4-38-1-7-3-13-7-20-9"/><path fill="#486D39" d="M320 145c2 1 5 0 6 3 0 4-5 6-8 4 2 3 1 8 7 10-5 4-8-3-11-5 1 5 11 8 10 14-1-5 5 0 7 1 0-11 2-20-4-22l1-2-1-1c-1-2-2-1-5-2"/><path fill="#98B970" d="M303 141c-8-4-1 15 10 26 3-8-4-11-6-20 8 2 6 0 10-2-6-2-12-5-15-5"/><path fill="#797639" d="M192 180c9 3 24 32 22 26 3-6-1-9-5-16 0-5 5-5 6-9-3 1-4 3-6 4-5-4-8-6-12-7"/><path fill="#808051" d="M229 283c-3 5-2 16-10 14 11 0 37 1 10-15"/><path fill="#1B0206" d="m385 167-3 9c5 6 5 9 8 12 5-4 7-9 6-14-2-5-7 2-9-5"/><path fill="#C5A848" d="M297 334c6 0 7 1 10 4 1 6 2 9 3 12-2 2-10 1-11-3-2-5-7-11-1-10"/><path fill="#624C26" d="M399 333c-8-1-2 9-4 10-1 6 2 6 4 13 3 15-6 13-4 27 5 2 8-3 10-4-9 1 0-16-4-21-7-5 0-18-3-25"/><path fill="#4A6E39" d="M212 348c-5 0-9 3-13 4 2 1 3-3 5 0 1 6-4 7-5 10-1 7 0 11 3 14 5-2 9-4 11-7 0-6-8 0-8-5-1-13 9-12 8-17"/><path fill="#6A4511" d="M218 454c-1 4 5 8 5 12 15 4 23 16 32 18-3-3 0-5 0-7-2 1-1 3-2 5-4-12-26-13-24-25-2 4-11 4-10-2"/><path fill="#3F524E" d="M316 406c7 3 3 18 2 24-7 6-17 17-28 10 1 0 2 3 3 4-1 2-3 4-5 4 4 2 11 1 8-3 4 2 13 1 22-6 1-3-2-4-3-4 5-2 4-9 5-13-2-5 4-15-2-16"/><path fill="#28070A" d="M396 171c3 5 1 13-3 17-8-2-7-6-12-11 2 6-2 13 4 19 5 1 7 0 8-3 5-7 7-16 6-23"/><path fill="#364D20" d="M176 172c5 15-20-4-4 12 5-1 11-2 19-1 2-2 1-5 2-6-4 1-8-3-12-2"/><path fill="#6D7D4B" d="M250 259c3-2 8 0 8 4 4 8-5 9-4 10-10-1 0-2-8-2-1-5 1-7 3-10"/><path fill="#6C6831" d="M148 331c-4 7-6 19-4 27 3-2 6-9 11-6-6-4-5-21-4-21"/><path fill="#3A3924" d="M301 171c7 2 13 7 17 14-3 0-5-4-9-6 5 4 7 9 14 11-2-1-1 9-7 4 5 7 12 12 16 17 3-6-2-14-10-18 4 1 7 0 3-1-7-9-16-20-20-21"/><path fill="#9EC35B" d="M431 141c-5 1 4 8 4 11 7 0 0-6-1-7 4 1 7 0 10 1 0 10-5-4 6 16 5-2 5-2 7-8-4-6-8-6-11-8-6-1-14-3-15-5"/><path fill="#684110" d="M207 455c-3 1-5 2-6 5-6-10-2 5-2 8 8-4 15 18 22 12-2-1-2-4 1-7h-1l-1 1v2l-2-1c-6-4-9-10-14-14 0-3 0-6 2-6"/><path fill="#7F6A31" d="M395 325c6 18 3 23 8 37 0 7-3 11 0 15-7-4-6 0-8 5 2-2 5-1 6-4 8-2 3-3 7-8 0-3 3-4 3-6-2 0-2 3-3 4-3 1-5-1-5-2 4-14-6-25 2-34-1 1-8-2-4 2-4-2-5-4-4-7"/><path fill="#D7C751" d="M225 195c2 10 0 21-2 29-5 14-16 25-26 33 11-5 19-13 26-27 4-11 6-24 4-33"/><path fill="#AD8826" d="M207 455c-3 12 22 17 16 20 2-7-6-14-6-18 1 4-5-1-6-1"/><path fill="#381B0A" d="M350 205c2 3 4 7 6 8 17 4 30 10 43 14l3 1h1l1 1c31 2 56 18 89 14-33 2-59-11-88-16-20-7-38-10-54-18"/><path fill="#D6BC42" d="M299 322c1 8 17 4 11 13 12 1 29 10 36 7-14-1-26-14-47-18"/><path fill="#9ABB86" d="M178 216c-4 3-6 0-10 7-3 6-1 13-1 16 0 5 1 6 2 7 2 7 5 11 10 13-5-2-8-6-10-10 1-12 3-22 9-31"/><path fill="#CBBC5F" d="M397 126c0 2-1 3-2 5 17 7 14 15 34 28-4 7 4 4 5 24 3-9-3-11-4-23-18-17-18-22-32-33"/><path fill="#395B2D" d="M152 333c-1 8 5 7 10 8 6-4 10 6 19 3 1-3 0-5 1-6-13 1-17 1-29-4"/><path fill="#DBC144" d="M420 274c-10 12-1 21-12 33 6-5 9-7 10-14 3-7 5-15 2-18"/><path fill="#A8461C" d="M384 148c-16 3-6 15-15 12 3 11 0 21 8 32 5-11-7-12-5-26 2-10 5-16 15-19"/><path fill="#E6D33F" d="M152 196c-12 8-20 20-26 31-3 16-10 34-4 50-1-18 1-30 4-43 5-14 12-27 24-36"/><path fill="#796E38" d="M172 243c6 9-2 11 9 16 8-1 14-2 19-7-1 1-3 0-5 1-1-2-2-4-1-5-3 2 0 4-1 7-6-3-16-3-20-10"/><path fill="#A4BE81" d="M326 107c4 3 14 11 21 14 3-2 3-5 4-7-8-3-12-4-23-7"/><path fill="#787635" d="M167 180c-4 2-12 8-16 4 2 4 3 10-2 10-7-8-5-1-9-4 3 2 3 6 4 10 7-6 16-12 25-15 0-2-2-2-2-4"/><path fill="#3F9772" d="M221 278c-3 3-7 18-12 17 2 1 2 4 5 4 3-6 19-19 9-21"/><path fill="#9CBC88" d="M164 169c-10 3-24 7-30 16 11-7 23-6 31-14"/><path fill="#41977A" d="M278 230c-1 3-7 7-12 14-4-2-5 1-7 2 9-9-2-1 3-11 1 8-14 10-9 16 5-1-7-3 4-4 6 4 8 2 15-1-3-4 8-9 9-16"/><path fill="#D0B352" d="M300 336c-6 2-3 6-1 9 2 5 5 4 6 6 4-4 2-8 3-10-3-4-5-4-7-5"/><path fill="#856F34" d="M384 373c-22 5-9 23 6 18 0-7-12-3-14-10 3-2 1-8 8-9"/><path fill="#816C2A" d="M413 272c-5 14-7 26-12 36 11-2 9-17 12-34"/><path fill="#AF954F" d="M404 291c-10 8-6 8-13 25 8 5 4-13 10-4-9-18 16-16 1-19"/><path fill="#A6893A" d="M392 374c-25 1-3 12 1 18-2-5-1-11-3-17"/><path fill="#A98326" d="M190 448c3 4-2 3-4 4 0 8 6 10 9 13 1-5 2-15-2-15"/><path fill="#9A8040" d="M305 295c-14 7-4 16-19 10 15 10 11-1 19 3 4 2-4-14 2-13"/><path fill="#48A377" d="M208 298c-6 6 0 18-15 20 4 1 4 4 5 5 8-6 14-22 12-22"/><path fill="#DBCD3D" d="M123 282c0 14 9 29 19 42 7 4 13 8 18 11 7 4 9-2 15 0-12 0-20-3-33-12-8-10-17-27-18-39"/><path fill="#483F2E" d="M172 409c-1 4-5 6-6 11-7 10-5 23-10 32 8-9 3-19 10-30 3 0 5 2 9 4-3-3-6-7-5-11 3-2 5 6 8 7-1-4-3-8-4-13"/><path fill="#56532D" d="M369 132c-18 1 10 2 20 5 8 6 15 9 20 16-2-9-5-10-18-17-7-3-11-3-19-4"/><path fill="#624614" d="M293 363c-1 5-7 8-9 13-23-16-2 5-4 3 6-3 10-10 13-9 1 5 9 13 4 21 5-8 0-19-1-27l-2-2 1 2-1 1"/><path fill="#997F45" d="M333 293c-5-1-12 7-16 9 5 2 35-9 18-8"/><path fill="#426848" d="M326 131c2 4 2 12 7 18-2-14 6-7 6-14-11-7-1 6-14-3"/><path fill="#95C392" d="M192 321c-2 4-6 8-9 11 7-4 9-2 14-1 2-5 0-12-3-10"/><path fill="#928F47" d="M375 122c-8 2-15-1-21 5 7-2 17 3 19-4 1 2 1 3 3 5 26 6 13 6-3-5"/><path fill="#CFD489" d="M462 120c-23 7 2 15-4 3 11 4 11 0 23 4-6-6-13-7-19-7"/><path fill="#898317" d="M222 390c12-5 5 6 1 10-4-3-6-5-7-7 2-4 3-3 5-3"/><path fill="#8C671D" d="M230 456c-3 13 21 13 21 24 2-7 7-4 4-9-1 1-1 3-2 5-3-11-20-9-23-19"/><path fill="#525523" d="M381 373c-5 3-10 5-12 11 0 4-3 8-2 10 8-1 15 1 22-2-5 1-16-1-16-3-7-6 2-13 8-16"/><path fill="#33251A" d="M223 427c-4 3-12 7-16 9 5 3 8 2 16-1-5-3 6-8 2-8"/><path fill="#927934" d="M458 214c6 1 13 7 11 10-5 1-6 1-10-1-2-3-1-5-2-6"/><path fill="#A0A032" d="M299 275c-1 2-6 0-8 3-3 3-2 4-1 5 3 4 11 0 11-8"/><path fill="#AF8928" d="M231 457c2 6 23 13 21 18-4-9-10-15-17-18"/><path fill="#4A2F17" d="M199 469c12 3 6 9 30 24-2-6-3-10-4-13-2 6-5 0-7 2-6-4-10-10-15-14"/><path fill="#7A9365" d="M274 247c1-2 4 3 5 4-3 5-5 6-7 8-4-4-5-10 0-11"/><path fill="#876C1F" d="M312 361c-3 2-1 7-2 12v-8c8 6 19 7 22 15 2-3-11-15-18-18"/><path fill="#86BE58" d="M427 141c3-2 6 1 9 1-4 2 3 6 4 10-6 4-8-5-11-8"/><path fill="#678132" d="M484 138c2 2 5 5 3 9-28-13 0 5 8 15-11-5-3-16-9-23"/><path fill="#4A2E1B" d="M368 159c-5 5-5 12-9 17-2 13 1 9 6 19-4-11-4-28 3-36"/><path fill="#796344" d="M375 267c2 3-4 5-2 10 3 6 9-8 13-1-3-4-6-6-10-9"/><path fill="#8F691F" d="M184 452c3 5 5 20 13 20-2 1-5 3-6 5 3-3 7-1 9 0-1-4-1-8-3-15 1 2-1 3-1 4-5-3-12-8-11-14"/><path fill="#335D3C" d="M187 334c-6 1-3 4-4 9 7-2 4-2 3-6 4 7 9 3 11 0-4-3-4-3-10 0"/><path fill="#E2CA47" d="M404 321c-2 13 14 21 11 35l2 2 1 2c6 4 14 9 15 18-2-10-7-14-15-18-2-19-7-23-13-37"/><path fill="#46351C" d="M370 135c-2 2-7 1-10 3h-2l-1 1h-1l-3 1c6 7 2 18 5 26 0-6 5-10 8-16 6-5 12-4 17-5-6-1-10 1-15 3-4 5-6 7-7 10 2-8-8-12-3-20 30-4 44 4 8-4"/><path fill="#61AB62" d="M463 128c-11 5-3 6 4 9 1-3 2-4 3-5-4-2-3-5-6-4"/><path fill="#EFE9E2" d="M395 157c-6 4-3 10 2 11 5-2 3-8-1-10"/><path fill="#394C4A" d="M336 440c5-1 2 11 0 13-4-3-4-8-2-11"/><path fill="#5B5D13" d="M321 277c0 4-2 8-4 12-5-1-8 3-11 3-2-5-3-8-2-11 1 4-3 8-1 13 4 0 8 3 13 1 2-6 4-11 5-16"/><path fill="#64431C" d="M436 168c2 9 1 20 4 30 3-10-1-19-3-28"/><path d="M372 351c3 7 20 10 20 22 1-3 3-4 2-7-5-6-15-7-19-15"/><path fill="#977F47" d="M348 272c0 6 1 12-1 17 2 1 5-2 6-3 1-6-2-8-3-11"/><path fill="#392219" d="M393 327c-2 2-6 4-8 5 0 3-10 11-7 14 1-3 12-13 15-19"/><path fill="#546D3E" d="M327 109c2 6 4 10 7 17 9 1 7-6 14-1-5-3-11-9-16-10 3 3 6 7 5 11-6-7-7-9-9-15"/><path fill="#AB904A" d="M326 293c-9-2-8 9-20 4 0 2 3 5 0 7 6-3 28-11 23-13"/><path fill="#4B7238" d="M357 108c2 4 6 8 10 9-1 2-3 2-5 3 6-2 12-3 19-2-8-3-15-6-22-9"/><path fill="#7B7C0F" d="M223 390c-1 2-6-1-6 3 2 3 4 5 5 6 2-5 10-10 3-9"/><path fill="#372310" d="M243 413c-4 1-11 1-15 7 7 3 11-1 13-6"/><path fill="#634312" d="M343 344c-1 10-17 0-21 6 0 3 2 5 2 7-2-2 0-6 2-6 19-2 20 2 17-6"/><path fill="#80663A" d="M345 291c-5 10-15 8-23 13 7 0 18-3 24-10"/><path fill="#879058" d="M252 260c-5 3-1 6-4 10 4 1 5 2 8-1 2-2 1-4 2-5-1 1-4 2-6 1-4-7 9-5 1-6"/><path fill="#846928" d="M383 436c8 9 21 3 29 11 3 1 4-2 5-1v-2l-1 3c-6-5-20-8-31-10"/><path fill="#40230F" d="M176 457c-2 4-2 8-3 12 3-1 8-2 10 3 1-5-6-8-7-12"/><path fill="#227689" d="M315 407c3 8 2 16-1 23 4-5 6-17 3-23"/><path fill="#4E3419" d="M382 448c-16 5 22 5 34 9 0-4-2-4-1-7-14 10-36-5-30-2"/><path fill="#85993D" d="M316 264c-6 3-11 4-15 9-1 1 0 2 1 3 2-11 7 7 14-14"/><path fill="#5D1D12" d="M372 195c3 5 11 9 13 12 2-2 6 1 10 1 0-11-8-3-22-12"/><path fill="#4B9C79" d="M247 254c-15 1-12 21-23 21 9-3 13-14 22-19"/><path fill="#5D935F" d="M310 150c3 5 8 11 13 14-7-5-2-15-12-13"/><path fill="#F0963E" d="M388 152c-2 0-2 2-3 2-10 9 3-1 0 11 4-8 15-13 3-11"/><path fill="#405836" d="M305 237c-14 8-4 4-1 10 5-3 4-6 9-6-2 2-1 5-4 5 1 0 3-2 4-3-3-6-9 1-9-5"/><path fill="#A48D35" d="M230 351c1 8 5 11 12 14-1-5-6-10-10-12"/><path fill="#657823" d="M127 300c-28 2 7 4 5 17-1-5-4-10-7-16"/><path fill="#BEA648" d="M448 214c7-3 5 5 7 9-5-1-7-3-8-6"/><path fill="#513E25" d="M233 334c4 1 7 5 6 8-6-1-9-2-7-7"/><path fill="#846930" d="M381 223c12 6 32 10 45 11-14-2-28-5-41-11"/><path fill="#8D671A" d="M205 457c-3 9 19 17 16 21 7-5-3 2 2-6-8 1-13-9-18-13"/><path fill="#B09540" d="M430 256c-9 4-16 14-22 22 6-8 16-17 22-21"/><path fill="#403522" d="M417 447c-1 3 3 6 4 9 3 2 6 1 8 3-2-8-7-3-12-11"/><path fill="#34491F" d="M327 246c-3 5-6 9-12 12 5 1 10 0 15-3-3 2-2-1-5 0 0-4 3-5 3-6"/><path fill="#AA8F34" d="M419 271c-8 7-8 18-8 29 1-8 2-19 9-28"/><path fill="#7E6C2C" d="M406 146c4 7 13 17 15 28 1-10-9-17-11-28"/><path fill="#294B33" d="M302 236c7-2 2 12-2 9-3-4 1-4 1-6"/><path fill="#93B67C" d="M352 104c5 2 0 6 6 11 0-3-6-7-2-8 11 4 23 10 34 10-17-3-18-7-31-11-4 0-4-2-5-1"/><path fill="#556021" d="M213 371c-2 2-7 5-9 7-2-1-4-1-3-2-1 1 0 3 2 3 5-5 25-4 12-9"/><path fill="#8B702D" d="M422 177c3 8 5 21-1 29-7 3-14 2-19 3 6-1 13-1 20-1 3-15 6-22 1-28"/><path fill="#8C8B4D" d="M267 291c0 2-3 2-3 3-1 7 2 9 2 14-5-8 9-16 5-16"/><path fill="#536331" d="M352 132c-10 16 8-2 14 3-3-1-8-2-12-2"/><path fill="#BEA65E" d="M322 280c-3 0 5 1 6 6-5-6-4 7-9 6 6 1 7-1 12-1l-1-2 1-1h-1l-2-3-3-3"/><path fill="#434E1A" d="M112 307c7-2 5 9 11 11-6 0-8-5-9-9"/><path fill="#543D22" d="M340 438c2 4 2 9 5 11 3-3 2-8-1-10"/><path fill="#9EAB76" d="M274 249c-5 1-4 2-3 7 3 0 9-4 4-8"/><path fill="#718839" d="M215 349c4 0 9-2 11 3-4 2-7 0-10-1"/><path fill="#393D18" d="M382 275c-5 3-7 4-5 10 4-1 5-3 7-10"/><path fill="#797D3F" d="M189 224c3-2 8-1 6 4-8 0-1-1-9-2"/><path fill="#9EBB76" d="M304 268c-5 3-11 4-15 7 7 1 10-2 14-6"/><path fill="#A88B31" d="M387 436c9 4 23 2 27 11-6-9-16-10-25-11"/><path fill="#362617" d="M369 458c-2 4 1 8 2 11 1-3 4-7 0-10"/><path fill="#866A36" d="M300 306c-1 4-6 7-9 6 6 2 30-5 10-4"/><path fill="#3B5958" d="M336 441c-3 1-3 8-2 12 4-4 4-7 3-12"/><path fill="#323E46" d="M325 418c4 0 0 9 0 12-2-3-4-7-2-10"/><path fill="#4F300C" d="M313 371c0 4 12 7 16 11-5-4-9-8-14-10"/><path fill="#4C2D13" d="M179 455c-5 0-4 4-6 8 2-2 1-5 4-6 7 13 14 29 19 33-5-12-13-18-19-35"/><path fill="#4C3323" d="M341 307c-15 9-30 6-39 13 12 0 24-8 37-11"/><path fill="#769855" d="M312 156c7 7-1 17 11 14-1-2-5-8-10-11"/></svg>