<svg xmlns="http://www.w3.org/2000/svg" width="600" height="600"><path fill="#6A8696" d="m401 109 1-1c25-1 48 1 69 8 23 7 43 17 59 31 47 36 42 98 60 145-11 14-21 23-30 30-6 5-10 7-17 6-5 17 2 33-1 51-2 18-5 33-12 47-6 13-11 24-20 34-8 8-15 14-24 18-12 4-27 4-37-1-15-11-24-25-26-40-29 10-57 15-86 20-10 12-22 24-35 30-12 6-24 1-37 3-16-8-29-24-39-36-19-4-35-10-52-16-13-7-23-17-34-23-16 7-29 15-46 15-12 0-23 0-31-5-12-5-21-11-28-20-6-7-8-12-11-18-6-20-8-40-14-57 2-8 7-8 12-7 6 1 7 4 10 6 4-14 3-28 8-40 7-4 15-3 18 0 10 6 14 14 19 20 1-4 3-13 11-12 15 16 15 37 24 53 7-24 10-49 21-70 9-22 21-41 36-58 19-21 36-38 57-51 27-18 51-32 80-43 30-10 60-18 92-20"/><path fill="#658DA1" d="M388 125c-8 8-20 7-30 10-10 8-8 13-34 22-5 8-10 16-15 22 1-8 4-15 9-22 12-12 22-16 32-25-27 7-54 15-78 30-19 12-37 27-49 45-3-9 8-18 10-26-36 27-72 73-93 95-5 9-11 16-9 26-2 13 0 25 2 35 1 9 4 14 7 19 3-2 8-5 11-6 8-1 13-1 17 2 14 6 18 19 26 26 15-4 25-11 35-20 11-13 15-26 20-39 3 8-1 16-1 25-2 10-8 17-12 26-2 8 1 14 3 19 7 17 15 31 24 44 10 6 17 10 25 12 9 1 15 0 20-1 15-2 25-9 36-17 4-22 7-43 4-63 5 2 3 11 6 17 2-17-3-31 2-46 4-10 13-18 22-18-3-6-7-10-8-15-1-7 2-11 5-15 23-15 50-5 68-22 34 12 66 16 101 17 9 2 16 5 21 10 3 12-4 20-8 28 10-9 22-17 21-30-12-33-7-66-24-97-6-11-14-19-23-27-13-9-22-20-34-25-17-7-34-7-49-13-20-3-39-3-58-2"/><path fill="#DAE1D9" d="M381 320c-2 1-4 0-5 1-10 2-16 8-18 15-5 35-5 69 37 71 7-9 11-22 15-34-1 13-5 25-13 36 9 3 17 5 24 3 8-2 14-4 19-6 9-8 12-18 17-27-1 8-4 16-9 24 12-5 23-11 34-17 10-9 15-18 22-27-3 8-8 16-14 24 10-4 19-13 25-23 5-8 8-14 10-21-12 6-20 18-30 25-11 5-20 5-29 4-32-11-59-27-84-48"/><path fill="#3A4C63" d="M233 374c-5 11-12 22-13 35 0 19 3 34 12 47 15 9 17 24 36 31-1-7 11 0 25 0 9-3 16-7 22-12 15-15 24-30 29-46-11 8-22 15-35 16-10 3-20 3-27-1-10-4-18-8-24-16-11-18-22-34-25-53"/><path fill="#B0CACF" d="M398 112c-6 0-11 2-16 2-31 4-58 12-83 22-24 9-43 20-63 32-18 12-34 25-49 39-18 21-33 39-44 61 26-30 57-61 88-89 9 3-5 13-5 20 15-19 35-31 54-44 30-16 61-22 90-31 7 3-15 7-20 13 12-5 25-8 37-13h40c25 2 46 8 68 14 18 10 31 22 47 34 31 58 24 26-2-12-10-8-24-19-38-26-18-11-36-16-55-20-17-3-32-3-48-2"/><path fill="#3A4C63" d="M513 371c-30 15-55 50-86 63 2 15 9 29 23 38 9 2 13 5 33 6 19-11 33-30 41-48-8 8-18 12-31 10-8-3-13-10-14-16 1-24 33-30 31-53"/><path fill="#3B4C63" d="M445 269c-47 5 19 26 26 42 18 5 34 3 50 3 10 1 15 10 22 11 6 1 8-1 10-3 5-7 9-13 11-19 1-6 0-9-2-11-7-6-14-7-20-8-19-1-33-4-49-4-16-3-28-9-41-11-4-1-5-1-6 0"/><path fill="#909198" d="M141 362c-4 8-3 20 0 28 4 13 10 22 17 31 7 8 15 11 22 15 15 6 29 10 43 13-2-9-5-15-6-23-1-13 0-23 3-32-12-1-21-6-29-13-9-1-19 1-26-3-10-3-15-9-22-13"/><path fill="#3A4C63" d="M129 300c-7 19-8 41-16 61-1 10 0 19-2 27s-4 16-11 18c-7 5-14 5-22 4-11-2-19-5-27-10-15-13-22-29-30-43 2 14 5 27 12 40 7 9 13 14 21 20 10 6 20 10 31 10 20 1 34-6 48-15 10-2 15 4 20 8-6-10-14-20-16-32-3-11-2-21 3-28-6-10-8-18-10-26-2-12-1-22-2-32"/><path fill="#909198" d="M486 382c-14 16-35 17-48 32-2-2 0-3 1-5-13 5-29 8-43 2-4 5-7 8-11 11-1-2 5-8 8-11-13-6-27-11-37-23-6 23-7 45-18 64 32-4 62-11 89-23 24-8 40-27 57-45"/><path fill="#648CA1" d="M16 330c1 23 18 48 33 67 10 5 17 9 25 11 12 1 23 1 29-6 8-11 8-25 8-36-3 3-5 8-9 10-6 5-12 5-19 4-22-8-33-31-51-43-4-4-8-6-11-7m515-4c-3 2-6 5-9 7 1 21-17 33-17 52-10 12-23 18-29 29-1 11 2 19 9 24 14 4 26-2 34-10 5-15 7-29 11-42 3-22-5-44 4-60"/><path fill="#648CA1" d="M48 298c-8 7-10 15-9 26 3 11 10 20 15 29 7 9 14 16 21 20 8 4 17 4 22 3 5-4 6-6 8-9-5-2-9-5-12-9-7-11-9-22-13-32-8-12-18-25-30-29"/><path fill="#746875" d="M417 281c2 11 1 24 7 33 4 11 12 18 20 21 14 4 28 6 39 1 12-4 21-11 29-18-13-1-26 1-37-5-22-6-33-32-56-32"/><path fill="#919198" d="M384 320c10 7 19 15 30 21 19 10 35 23 54 26 11 1 20-1 27-5 11-9 19-18 29-25-9 1-18-1-26-3-13 6-24 10-37 8-26-8-48-19-75-21"/><path fill="#3A4C63" d="M392 281c-19 2-29 24-9 36 15 1 28 8 42 9-8-14-10-29-11-44-6-4-28 5-22-2"/><path fill="#8B9499" d="M431 180c3-2 6 1 9 0 6 3 10 5 11 9 12 16-7 35 8 44-13-2-24-1-34-2 2-9-6-17-3-26 1-9 4-16 11-21-6 2-12-1-3-4"/><path fill="#658CA1" d="M84 304c-2 4-2 8-4 12 6 11 7 21 11 30 2 10 8 16 16 16 4-13-8-26-9-40-5-7-7-13-13-18"/><path fill="#D9E0D9" d="M155 352c-25 5-2 20 7 23 9 5 19 3 26 4-5-8-8-18-18-24-6-2-10-3-15-2"/><path fill="#3A4C64" d="M245 336c-5 10-13 20-22 30-10 6-18 11-27 13 7 8 15 11 25 12 6-19 23-33 22-54"/><path fill="#FCFCFC" d="M439 185c-8 1-12 9-13 15 0 10-2 21 6 25 3 0 4 0 6 1-4-9-3-17 0-23 2-7 5-12 10-13 0-3-4-5-7-6"/><path fill="#4B667C" d="M300 221c5 18 21 37 35 51-12-4-22-11-27-21-6-9-8-18-10-26"/><path fill="#7795A0" d="M287 208c3 10-37 14-44 30 5-12 8-17 20-23 7-3 12-5 18-6"/><path fill="#394B62" d="M519 318c-6 3-12 9-17 13 6 3 15 3 22 1 13-7 9-12 0-2 1-4 3-6 6-7-3-4-6-5-10-4"/><path fill="#464649" d="M446 195c-4 4-6 10-7 16 2 2 4 1 6 2 1 5-2 6-4 5-1 3 0 6 1 7 8 1 8-6 9-10-1-8 4-19-3-21"/><path fill="#ABC6CE" d="M46 291c-4 2-4 5-5 9 3-1 5-6 10-4 9 2 13 9 19 14-2-7-7-13-13-17-4-3-6-3-10-2"/><path fill="#3A4D64" d="M301 230c1 9 5 17 10 25 6 7 12 11 17 14-9-12-20-24-26-37"/><path fill="#A9C4CD" d="M571 245c-1 16 15 31 9 49 5-6 1-15 2-18-3-11-7-20-11-28"/><path fill="#3E5560" d="M519 250c5-3 9 5 9 8-6 1-6-3-8-5"/><path fill="#384C61" d="M38 325c-1 2-2 4-1 8 5 5 8 9 12 13-5-6-8-13-11-20"/><path fill="#A0BBC8" d="M428 229c8 1 19 0 27 4-7-5-15-5-25-4"/></svg>