<svg xmlns="http://www.w3.org/2000/svg" width="600" height="600"><path fill="#5F6156" d="m235 139 1-1c23-1 45 1 65 7 16 6 32 8 45 16 10 5 19 11 27 17 22 17 34 42 52 53 19 23 1 51 18 69 18-8 34-16 48-31 21-20 27-46 49-65 3 10 0 17-3 23-7 15-14 27-25 37-12 14-19 22-34 31s-20 7-31 16c-1 3 0 5-1 9 12 10 26 5 37 11 13 6 21 16 31 24 3 7 8 10 10 16-2 9 6 17 2 24-5-13-18-15-21-31-16-12-35-26-58-31-2 9-9 18-13 26 11 13 5 32 9 43 7 8 15-1 19 4 11 5-2 9 9 12 9 1 17-2 24 1 10 1 13 11 18 12-18 6-36 1-51 4-1-7-5-11-8-13-8-6-9 3-18-2-7-3-10-8-11-14-10 0-17-2-24-7-8-5-9-15-15-20-5 0-5-2-8-1-1 5 2 12-5 12-5-4-9-10-12-13 0 12-4 20-5 32-6 7-5 16-12 24-4 1-5-2-8-2 1 8 6 15-3 23-6 9-23 5-30 5-6-2-4-6-3-7 7-10 17-11 21-18-8-7 6-15 2-22-7-2-10-9-15-13-4-8-7-15-8-23-5 2-9 1-12 2-4 6-6 12-10 17-4 15 17 8 15 21-12 3-19-4-26-1 0-12-3-19-11-25-6-3-12 2-16-3-6 7-12 10-19 10-9 2-16 0-22-4-10 4-18 7-28 5-6-2-12-4-14-9-4 5-7 11-11 14-8 7-15 12-25 10 0 14-18 10-20 20-15 1-28 1-41 1-1-3-5-2-4-5 3-4 6-6 9-7 8-7 17-4 25-5-1 0-3-1-2-4 7-2 13-2 17-6 6-15 11-31 26-38 11-7 22-11 33-7 2-11-14-24-9-39 5 5 9 10 12 15-3-5-7-10-11-14-7-6-6-17-12-21 2 25 8 6 3 42-11-5-18 4-25 5-10 3-17 0-23-4-11-8-17-19-18-30-12-36-1-70 17-96 10-15 17-24 30-36 21-14 41-25 60-36 16-6 30-8 44-10"/><path fill="#231E23" d="M300 193c21 16 25 40 35 50 0 5 2 5 1 6 7 2 13 1 18-1h2v1c-19 8-16 23-32 31 0 5 0 10-8 24-9 0-16 2-19-4-10-18-17-34-25-51-9-8-17-11-24-16 13 16-6 4 24 23 3 20 12 37 21 54 0 4-1 6-2 8-17 6-32 13-47 17-7 1-7-1-6-5-3 6-8 10-15 10-16-6-24 9-41 5-15-3-27-23-30-27v-3 3c6 10 8 18 18 38-7-5-8-8-10-12 1 3 3 7 7 9 11 1 19-4 30-1 12 3 21 6 30 13 5 7 10 11 10 17 0 5-3 9-5 10 10-10 6-5 18-19 4 2 6 2 10 3-4 6-8 10-11 12 5-1 7-6 13-11 8 4-2 9-4 9 6-5 6 14 15 4 5-8 8-12 15-14-4 2-7 4-11 3-6-1-12-4-14-8 7-4 15-2 20-7 6 6 10 6 14 8-3-3-6-6-9-10 11-2 4-3 12-8 2 6 3 9 1 14 2-14 4-28 10-35 7 13 19 26 28 39l2 2-2-2c-1-3 5-4 7-2-6-9-13-18-16-27-4-14-3-25-1-38 3-15 9-28 18-39 6-2 9 4 12 6-4-5-9-9-16-12 4-6 8-8 11-10 6 3 9 8 13 10-4-3-7-8-11-10v-2l-2-2c-3-4-4-9-6-14 2 5 3 9 5 14-4 4-13 8-16 0-5-8-4-17-8-24-11-10-17-20-27-28"/><path fill="#5F2F18" d="M171 258c-1 3 1 7-1 10-8 3-8-2-14 1l-3 9c-3 0-3-2-5-2-7 9 0 37 15 54 8 11 18 14 29 13 17-8 22 0 38-5 4-23 35-41 39-56l1 3-2-3c-3 0-1 10-7 11-5-3-3-5-6 1 2-8 6-20 3-25-7 4-13 8-15 9-5 1-4-3-6-4-10 5-14 13-20 19-2-5 1-7 2-10-3-4-3-8-7-8-5 6-11 13-15 18-2-9 3-15 4-22-10-2-8-13-14-13 0 14-12 25-13 39-2-14 3-23 4-34-1-4-4-6-5-5"/><path fill="#472211" d="M204 286h2c3-2 9 1 6 7-5 6-8 12-11 17-4 0-7 1-9 3-2 4-2 7-3 10 3-3 9-7 11-11 27-9 67-29 30 25-11-11-28 2-45 2-7-2-11-3-14-6-4-10-1-18 5-23 11-7 21-11 26-23"/><path fill="#93E0D8" d="M251 170c3 4 14 7 20 10-1 2 1 6-1 10-9 8-16 3-15 13-4-7-4-7-2-11-1-5-4-8-6-5-8 5 1 12 1 16-6 2 0 4-3 6-4-4-2-5-4-7-3 1 1 4-2 6l-12-15c7 11 11 21 15 31 19 14 16 11 29 22 9-11 13-18 20-33 0-8-8-1-12-9 4-4 8-5 8-9 6-1 10 7 15 6-4-5-1-9-7-10-16-6-28-16-43-20"/><path fill="#452010" d="M204 285c-5 12-15 19-27 22-6 8-9 16-5 24 3 4 7 5 10 6 20 1 37-12 49-4 35-52-2-27-28-21-3-8 7-14 9-21 0-7-5-3-5-4"/><path fill="#6FC0C3" d="M264 148c4 5 11 1 15 6-1 4-7 6-6 11 21 11 21 18 51 39 7 1 13-2 20-4-2-2 1-3 1-4 4 2 2 5 8 3-10-22-39-28-25-31-24-9-41-19-62-20"/><path fill="#A0582C" d="M149 239c-1 6-8 27-2 48-3-17 9-3 7-19 6-2 9 1 13-2 2-3 3-5 3-8 4-2 7 0 8 2-1 14-6 26-6 40 1-12 14-28 12-42 11-2 7 13 17 11 0 9-4 15-6 21 5-3 12-9 16-16 6 0 6 4 8 8 0 4-3 6-4 9 7-6 13-13 20-16 5-1 4 3 7 3 4-2 10-8 15-10 4 9 1 19-4 26 8-7 7-16 10-26 11 5 14 14 15 22-4-12-6-23-11-32-1 5 4 8 5 12-3 1-5-1-6-2l-2 1-2-2c2-7-7-7-1-15-12 9-22 8-30 21 1-14-12-10-11-21-4 5-6 7 1 8-10-2-10 15-17 20-4-7 2-20 0-27-7-1-14-2-20-1-2 7 2 15-3 20-3-2 1-7-3-10 1-4-6-9-2-11-11 1-19-6-26-13"/><path fill="#623821" d="M118 255c-5 3-10 3-15 4-2 5-5 13-3 21-4 7-5-2-6-3 0 2-2 2-1 5 0-4 17 30 34 36 3 10 2 16-2 21-7 5-18 7-21 0 2 6 14 5 18 3 2 4-1 6-6 7 7-3 15-4 19-10 1-22-6-38-5-58-2-5-10-9-15-20-2-2 2-3 3-4"/><path fill="#E7C48E" d="M195 172c-14 10-25 22-33 36 10-15 18-26 34-37 6 2 5 6 1 7 3 1 3-3 5-3 6 4 10 8 12 11-5 6-12 8-15 11 1 7-16 13-13 15-4 0-9 9-10 1-3 4-2 7-2 10 5 4 9 9 14 10 22 5 12-5 31 0 5 3 7-22 5-33-5-13-16-24-26-28"/><path fill="#78BFB7" d="M288 195c-4 5-2 7-3 13 4-1 6-1 9 4-10 18-12 24-22 34 10 17 1-5 13 7 0 4 5 7-2 9 14-6 20-15 29-27-2-2-1 3-5 3 0-4 0-12-5-8 3-5 8-6 6-13 4-4-9-33-6-15-5-2-9-4-11-7"/><path fill="#432110" d="M268 273c-5 5-6 10-10 16 5 7 8-4 8-7 8 2 1 5 1 7-6 9-13 12-18 19-7 11-16 25-10 23 5-10 34-10 48-18-8-33 1-8-19-41"/><path fill="#CD9361" d="m192 172-2 1c-9 7-17 15-22 25-7 11-12 21-17 31 1 4 19-15 24-25 3 1 1 1 0 2-1 4-3 4-2 6-1-2 1-2 1-4 0 4 2 5 5 8 2-6 17-9 18-21 5 1 8-5 13-4 1-9-4-20-11-11 0-4 2-8 0-8-5 2-7 3-10 5 0-3 6-6 6-7"/><path fill="#35647E" d="M200 155c-16 7-32 14-48 22-8 9-11 20-15 29 3-5 10-9 11-8 3 7 7 4 12 4 15-33 50-37 43-44"/><path fill="#71BFBF" d="M211 161c-9 14 8 0 19 7-1 2-3 2-6 4 0 3 0 3 2 4 0-3 9-1 11-1 0 8-5 3-5 9-5 2-12 1-14-4 8 10 13 15 20 28-1-4 3-10 8-9-4-3-6-11-2-12 5-4 9 0 10 2 1 5-3 5-3 6 8 2 13-1 19-3-3-6 3-6 1-9-8-6-18-9-21-13 9 2 18 6 25 10-7-4-15-8-23-12-7-1-10-4-14-4-4 2-4 2-3-1 3 3 9 7 4 7-11-3-18-9-28-9"/><path fill="#21373F" d="M325 228c-9 19-11 43-15 65 1-10-13 2-18-7-3 7 11 20 14 17 1-7 8 6 13-5 2-13 5-26 11-46-2-11-1-14-5-23"/><path fill="#CD8A4A" d="M230 244c-12 4-23 7-37 6 4 1 10-1 12 2 1 9-2 20-3 27 8-4 8-23 17-16-7-2-3-9-1-13 0 18 14 6 14 21 6-12 17-10 26-19 0 7 5 7 5 15 1-6 3-13-4-16-8-11-20 1-21-6-3-1-5-2-6-1"/><path fill="#2D363A" d="M130 232c1 18 0 37 2 55-4 33 19 26 10 53-5-80 0-88 2-93-9-13-9-2-11 2-2-5-2-10-2-15"/><path fill="#E2F4C6" d="M330 157c16 11 30 25 40 41 16 3 26 16 33 17-6-12-18-24-30-33-13-12-27-18-41-24"/><path fill="#241E25" d="M176 358c-5 8-25 0-13 9-3 11-7 18-11 25 7-5 5-16 12-20 5 1 6 2 7 3-3 4-3 8-6 7-2 4 0 6 1 8 16 3 14 0 26-4 4 1 4 6 1 6 6-5 11 5 17 3-6 0-12-4-16-10-5-9-10-16-11-25-3 1-4-3-5-1"/><path fill="#345059" d="M150 198c-4-2-10 10-14 9-4 12-5 26-4 42 1-6 2-12 8-15 8 3 2 9 4 14 2-14 8-28 15-41 6-9 5-9 1-1 1-11-7 2-11-8"/><path fill="#D1F1D1" d="M235 140c-66 17 52-6 61 15 18 5 41 10 44 19 7 10 21 18 24 30-4-12-11-23-20-33-12-9-23-14-33-20-18-5-33-9-50-10h-24"/><path fill="#2D3239" d="M206 362c-3 9 4 9 1 15-22-16-12 11 3 13 10 2 17-1 22-6-1-14-13-18-21-22h-3"/><path fill="#373033" d="M424 356c0 5-1 11-4 15-4 0-6-5-7-10-9 10-7 11-12 20-1 9 4 10 7 13 4 8 19 1 19 6 4 1-3-4 6-5-2-9-9-8-13-11 4-11 9-9 0-9 4-7 2-13 5-17"/><path fill="#3D2317" d="M95 284c-1 4-3 9-3 14 2 15 19 16 19 29-5-6-12-13-21-17-1 4 0 8 3 12 8 17 5 1 16 23-5-6-7-13-9-18 3-4-1-4 1-5 6 1 7 8 10 10-4-25 11 9 2-17 11 17 10 7 14 12 3 11-21 18-10 15 4-3 8-4 9-6 0-4 2-4 1-6 0-4-1-5-2-7-8-15-27-20-29-38"/><path fill="#549AA8" d="M211 160h-1c-22 9-5 11 6 20 3 4 6 7 8 9 1-3-5-4-6-8 3 2 9-6 13 2-1-5 6-2 7-5-5-2-11-5-11 1-15-9 12-10-1-11-9 1-10-1-19 1 3-4 5-3 1-9 11 1 28 5 29 11 2-1 1-4 1-8 21 5 36 16 51 23-15-10-29-20-46-24-11-1-20-2-28-4"/><path fill="#4B98C0" d="M233 147c-29 9-9 4 13 8 16 7 30 13 43 22-2-8-11-6-15-11-3-10 4-6 4-12-4-4-10-1-14-5-11-1-21-1-30-1"/><path fill="#98A287" d="M139 181c-2 1-4 1-5 2 2-1 6-4 9-2-25 16-46 56-54 62 15 9 22-22 24-10 5-11 3-22 10-29 2 2 0 4-1 7 0 8-3 14 0 20v-18c5-13 17-17 20-30 1-3-1-2-2-3"/><path fill="#282122" d="M375 323c2 5 7 9 9 14-3 18-12 31-8 50l-1 2h-1l-3-1c-2-5-4-9-9-12-3-17 5-31 4-41-2 0-3 28-7 38v2h4c3 4 6 8 8 13l3 1h1v-3c1-3-1-8 1-12 8 2 14 8 21 7 1 7 5 12 10 13-2-2-5-3-6-5-6-9 6-13 2-16 6-5 10-19 21-17 1-7-2-12 3-15-8 8-14 18-21 27-11 3-20 0-27-3 0-8 4-15 7-21l-2-3v-1h1l-1-2c1-5-6-8-8-13"/><path fill="#E5C38D" d="M362 272c4 5 7 10 8 17 2 10 3 23 6 29 2 7 6 12 9 15-3-10 9-18 1-29-3-5-14-5-15-14 0-8 7-1 10-2-3-11-9-13-16-15"/><path fill="#3C6B72" d="M343 205c-17-1-17 17-8 22 11 3 6-9 7-16 11 4 20 4 24 8 1-6-1-10-4-14h-18"/><path fill="#4E2C1A" d="M100 275c10-5 3 5 8 9 3 0 5 0 7-1 5 2-1 7 2 8 3-2 2-4 3-6-1 11 6 17 3 25-8-2-10-6-16-9-6-10-5-16-7-24"/><path fill="#223E49" d="M310 252c-2 3-5 13-7 12-7 2-11 8-15 3-3 6 0 11 3 15 4 3 6 5 8 5 5-1 7-3 8-5 6-11 2-21 3-31"/><path fill="#4A281A" d="M383 334c13 10-17 31 5 34-7-6-1-12-1-18 4 2 4 6 4 7 1-3 5-8 9-7-1 5-4 13-2 14 10-6 17-13 22-21-8 1-15 0-22-1-2 5-7 5-8 6-12-9 6-10-3-11"/><path fill="#292D36" d="M368 343c-8 8-2 21-5 32 1 2 4 2 5 6 1 2 24-32 4-41"/><path fill="#4A6A76" d="M353 275c-3 1-6 4-7 7-5 6-6 11-8 16-2 6-4 10-4 14-1 9-1 14 2 18 2 11 14 3 13 15 1-6 0-10 2-14-11-9-1-26-15-30 4-8 6-13 8-18 4-5 6-8 10-9"/><path fill="#404C53" d="M317 342c9 15 7 33 12 48v3l-1 1c-5-2-4-6-5-10-5 6-13 3-15-2 0 9 5 8 8 11 4 2 6 1 8-1 4 5 2 8 0 10-12-1-9-12-12-1 3 1 6 3 9 6 10-5 4-4 6-10 5 2 7 3 11 4-3-3-11-3-8-9 6-3 3-11 1-20 3 0 4 1 6 2 0-6-12-17-19-30"/><path fill="#2D2F33" d="M277 343c3 0 5 8 8 11-6 7-12 10-20 9-6-4-8-9-11-13 9-2 19-2 23-4"/><path fill="#3E4E56" d="M334 309c-3 10-4 21-2 32 3 10 7 20 15 23 0-6 3-11 4-17 0-6-11-9-16-14-3-7-3-16-1-22"/><path fill="#2E2F35" d="M160 363c1 12-12 18-18 26-9 8-16 9-20 8-4 4-2 6 0 6 6 4 11 2 16 0 8-5 11-12 15-17 4-4 7-13 8-20"/><path fill="#709A94" d="M383 261c5 10 15 19 16 32 4 4 8 3 10 5 6-5 2-11 1-16-7-10-19-12-25-20"/><path fill="#562713" d="M189 277c-8 15 17-4 1 20-5 4-11 4-14 10-3-8-1-13 0-19 2-6 5-3 7-6 0 3-2 0-4 0 2-1 4-2 5-1"/><path fill="#572715" d="M168 288c6 6-2 26-4 35-8-6-11-13-12-20 2 1 5 0 7 1-1-7 4-10 8-12"/><path fill="#6E482A" d="M429 297c-6 6-2 12-8 20-6 3-11 0-14-2 1 15-4 8-3 16 2 0 3-2 7-1 3 3 1 3 3 5-4 7-2 5-8 8 6 0 13-4 18 0-12-5 4-22-3-17 3-9 9-14 6-23 3 1 2 5 4 7 0-5-3-8-2-12"/><path fill="#4B2919" d="M101 274c2 10 1 17 6 25 7 4 9 8 14 10 8-5-4-9 1-22-2 2-1 4-2 5-7-1-2-5-4-7-3 0-5 0-6 1-7-3-3-12-6-11"/><path fill="#2C4B55" d="M315 232c-3 9-11 16-13 23-5 7-15 4-17 12-3 8 7 17 9 26l-3-6c6 1 12 5 15 0 3 3 4 4 3 7v-8c1-7-11 9-16-3-5-4-9-10-6-15 4 3 9-3 14-3 5-5 6-9 8-12 2 6 3 13 3 20 0-6 2-24 4-38"/><path fill="#191414" d="M416 241c-1 4 0 10-1 14-11-1-17-9-24-9-9 0-13-7-17 2 1 1 1 3 2 5-1-3 1-5 5-4 17 4 22 10 31 11 27 27 1-4 5-17"/><path fill="#9EDAC1" d="M303 157c43 13 9 20 37 17 2 6 5 17 10 21-4 2-3 5-19 11 9-1 20-7 31-3-3-11-15-19-20-30-15-8-18-10-34-15"/><path fill="#8FA989" d="M88 245c-3 4-14 27-2 6-4 51-10 6-7 39 2 17 3 32 13 44-2-16-13-28-9-47 5-7 1-19 6-25 3-6 7-4 9-5-4 0-7-2-10-4 2-2 4-4 1-8"/><path fill="#2F2D2F" d="M232 346c2-1 4 6 6 7 2-4 11-2 14-3 4 5 7 9 10 12-6 4-14 4-19 3-6-6-9-11-12-16"/><path fill="#273540" d="M350 265c-9 8-14 20-18 30-4 16-5 32-1 45-2-9-1-17 1-26 2-13 6-22 11-32 4-5 8-10 12-12 6 4 8 8 12 11-3-5-5-7-10-9-3-4-4-5-5-6"/><path fill="#333841" d="M312 316c4-3 10 3 11 6 1 7 3 15 0 19-4-5-3-11-8-15-10-2-9 8-8 12-4-1-6-2-5-5-1-7 4-12 8-15"/><path fill="#30150F" d="M114 317c10 26-10-10 1 16-7-2-13-16-14-9 2 8 3 16 9 18 8-2 15-5 16-11-1-5-4-1-10-14"/><path fill="#2D3837" d="M382 225c-13 13 16 16 13 21 6-5 8 4 14 5-1-7-14-20-25-23"/><path fill="#3D4952" d="M189 358c-1 3 1 11-2 11 3 6 6 14 15 18-6-3-9-9-11-13 6-2 10 3 15 3-2-8-2-9 0-18-4-1-9-1-16 0"/><path fill="#CDE4BD" d="M141 182c-8 1-18 8-24 17-11 13-21 25-26 38 13-19 30-38 49-54"/><path fill="#AB8664" d="M142 185c-2 12-15 16-19 25 0 10-1 20 0 26h4c3-17 5-34 15-48"/><path fill="#522512" d="M187 278c-1 2-3 4-6 3-3 6-6 15-7 23 10 2 32-29 13-18-1-3 3-4 2-5"/><path fill="#4F6F71" d="M385 258c-10 3 21 13 26 24 3 7 4 12 3 18-5 5-8-4-13-3 6-1 10 10 16 6 1-14-7-24-11-36-9-11-8-7-18-10"/><path fill="#2D3136" d="M278 344c-1 8-15 2-21 5 1 7 6 10 13 13l3 1-1-1c3-6 18 0 6-17"/><path fill="#73725A" d="M114 255c-9 3-20 0-25 8 0 19-12 34-1 50-7-19 4-17 0-39 3-2 5-4 5-6 0 3 3 12 4 12 0-7 3-17 5-21 2-3 6-2 10-4"/><path fill="#522413" d="M168 290c0 7-11 6-7 15-4-1-6-1-7-2 0 7 2 13 7 18 6-8 7-21 9-32"/><path fill="#444C53" d="M158 368c-6 22-26 13-34 24 4-6-9-6-4-11-3 3-4 8-6 13-1 4 2 5 2 8 4 5 9 7 14 4-4 2-13-2-11-7 7-3 13-2 21-10 6-7 13-11 17-18"/><path fill="#C29360" d="M377 298c4 0 8 6 10 5 8 12-5 20 1 30 9 3 15 10 13 8-2-8-11-20-6-33-4-2-4-4-5-3-5-4-8-5-11-6"/><path fill="#6C4123" d="M280 293c3 4 7 9 9 13 1 5-2 7-3 9-16 7-32 6-43 17 15-2 30-9 45-14 7-10-3-17-5-24"/><path fill="#6E9F95" d="M307 201c0 9 4 12 2 20-1 7-5 3-5 8 4-3 4 4 3 6 3-3 6-1 8-4 4 1 1 3 3 6 0-4 0-8 3-11-3-8-9-16-12-22"/><path fill="#8C5837" d="M128 242c-8 2-8 12-17 15 3-1 5-2 7-3 2 5-4 4-4 8 7-6 6 23 13 9 0 6 2 8 1 12-1-12-6-40 1-39-1 1-1 0-1-1"/><path fill="#9EE4E8" d="M311 338c-6 5-4 15-5 23 4-2 7 4 8-1 4 5 5 8 7 12-2-11-4-22-9-31"/><path fill="#10080B" d="M329 238c4 3 5 8 6 12-4 14-8 26-11 38-1-17 48-47 15-36-4-5-5-9-7-13"/><path fill="#536772" d="M158 368c-7 8-18 9-26 16 0-2-6-8-4-9-15 9-1 9-5 18 2-2 4-5 7-8 9 5 22-6 27-14"/><path fill="#2C2B2E" d="M290 337c5-3 3 10 5 2 2 7 2 11-2 13-11 1-20-20-4-13"/><path fill="#3E3139" d="M86 422c-9-2 0 9-18 8 4 2 8 0 10 2-6 1-8 2-11 2 2-1 6 0 9 0s4-3 6 0c3-2 2-5 1-7 4 5 9 5 15 4 10-14-13-6-10-11"/><path fill="#659098" d="M353 276c-8 5-11 14-14 21 6 8 7 14 7 26-5-10 7-23 1-35 4-5 6-13 8-13"/><path fill="#33363A" d="M332 371c7 14-2 17-2 24 6 1 12 7 8 7 4-3 4-10 7-3-5-9-3-19-11-26"/><path fill="#2C2F34" d="M232 346c0 5 5 8 5 8 4 4 5 6 7 7 6 4 12 1 17 1-3-3-5-6-7-10-6 0-14-2-14 3-4-2-5-5-6-7"/><path fill="#5D3620" d="M386 339c4 3-2 9 4 9-5 7-2 11-5 15 3 6 9 4 13 5 5-6 11-10 14-15-4 5-9 11-14 12-2-5 0-9 1-13-4 0-6 3-7 7-1-3-3-5-2-9 0-4 5-4 5-8 0 2-2 5-5 4-1-2-1-4-2-7"/><path fill="#2B3538" d="M343 218c0 5 3 9 4 13-8 1-5 9-10 11 0 2-1 5 3 6 6 2 9 1 13-1-3-10-3-8-6-13 0-6-3-11-3-14"/><path fill="#31342F" d="M113 240c-7 3-9 6-18 7-1 0-2 4-4 5 11 10 12-14 29-2 1-8-1-12-7-8"/><path fill="#2A3434" d="M230 216c1 8 1 19-7 23-18 4-33 0-49-3-6 1-7 1-8 8 4 3 2-7 7-7 11 4 25 4 33 7 7-1 21-5 28-5-2 1-2-1-5 0 9-6 3-15 1-21"/><path fill="#63929B" d="M369 295c-5 11-5 5-2 22-3 4-5 8-9 10-2 2-6 4-8 1 6 2 0 4 1 7 0-2 3-4 5-6 5 0 11 2 12 6 5-12 1-25-1-38"/><path fill="#221C1C" d="M130 279c1 13 3 26 6 39 2 9 3 18-1 23-8 4-15 10-24 8-11-3-19-11-24-20 3 9 12 15 20 19l2 2h2c8 2 15-4 22-7 5-4 13-1 13-4l1-2v-3c-1-7-1-12 2-17-1 2-1 4-2 6-1-8-3-11-2-17-1 6 1 9 0 15 1 5 2 8 1 13 1 4-3 9-5 4 3-5 3-9 2-14 1-6-5-7-5-4-5-14-7-26-8-39"/><path fill="#353230" d="M381 370c6-1 13 2 18-1 3 4 1 5 2 8-5 4-9 3-13 1-4-1-7-2-6-6"/><path fill="#6B8866" d="M379 205c2 5 14 17 19 22 4 6-1 3-2 3 4 2 8 3 11 6-6-15-17-21-24-31"/><path fill="#2C2A2E" d="M164 337c3 10 16 10 26 11-12 3-15 2-15 7-9-4-11-10-13-14"/><path fill="#231F1F" d="M173 230c-5 2-22 8-9 15 1 1 0-10 8-9 10 0 19 2 28 3 5 1 9 0 14 1 8 0 12-3 14-9-8 11-15 6-26 9-11-2-19-4-26-9"/><path fill="#4E4945" d="M425 375c0 2-2 2-5 6 7 4 12 6 13 13-2 5-10 3-8 7 2-5 8 0 8-6 1-3 1-4 1-5 2-9-2-14-8-14"/><path fill="#687859" d="M421 243c0 6-1 12-3 8 8 16 7 8 12 24 1-11-1-22-7-30"/><path fill="#1D1C1B" d="M367 205c10 10-3 21 5 31-5 1-9-6-12-10 3 4 6 9 9 14h1l1-1v-3c5-3 6-13 4-20 0-5-2-8-4-10"/><path fill="#E4D893" d="M416 268c6 8 8 17 9 28 3-5 5-5 8-7-4-8-8-15-15-20"/><path fill="#4D6873" d="M320 373c-10-1-1 8-12 1-2 5 1 9 5 11 5 3 6-4 11-2-1-3-4-5-3-9"/><path fill="#8FA979" d="M383 204c8 10 18 17 28 31-2-9-5-14-4-18-4-6 0 1-10-2-1-7-8-6-12-10"/><path fill="#9CDADA" d="M356 279c-7 8 2 17-8 24 7-6 14-6 16-11 1-2-1-4 0-8-1 5-7 3-8 0-3-4 4-5 2-4"/><path fill="#313237" d="M280 365c-3 6-10 2-15 4 3 10 18 1 20 7 4 2-3-4-4-5 12 1 19 3 3-5h-1"/><path fill="#C9E4C0" d="M182 159c-13 2-26 8-36 16 12-5 33-12 40-17"/><path fill="#2C2E32" d="M292 338c-12 2-14 1-6 13 7 3-2 0 10-3 0-11-1-2-4-8"/><path fill="#3F4D4D" d="m402 298-1 3c-3-4-11-2-4 7-5-7 3-6 4-8l1-1v1l1 2-1 2c0 1-2 2-1 4-2-2 2-3 0-5 3 2 4 5 5 6 8 4 12-3 13 1-2-2 0-5-1-7-5 7-9-4-15-5"/><path fill="#394F4D" d="M223 191c5 14 16 38 7 48 7-8 6-15 6-22-3-6-7-20-12-24"/><path fill="#90663F" d="M372 287c-1 12 15 11 20 19-1-6-4-9-8-13-3-3-6-4-9-5"/><path fill="#6D8E98" d="M142 368c0 9-5-1-8 2-9 4-2 9-3 12 11-3 41-23 9-5-4-2 5-5 5-7v-2l-1 2v-1"/><path fill="#407572" d="M236 219c2 6 1 12-2 17 6 2 12 2 17 4-8-7-13-13-13-21"/><path fill="#484E51" d="M349 232c1 11 18 24 22 29-1-1 1-1 3-2-4-13-12-8-26-26"/><path fill="#353738" d="M510 361c-4 3-2 10 1 16 3-1 7 1 9 0-4-4-6-11-8-16"/><path fill="#2F3132" d="M487 336c-2 0-2 2-3 4 0 6-5 6 1 9 3 0 7 4 11 2 2 2 1 4 0 6l-1-2 1 1c2 3 13 3 8 6 3-4-6-10-6-12-4-4-10-5-13-9 0-2 0-6 2-4"/><path fill="#6A8D95" d="M305 360c-1 6 0 10 2 14 8 1 3 2 11-2 3 6 6 10 8 14 0-5-3-8-3-12 1 3-3 0-3-2-3-10-15 0-16-10"/><path fill="#4C6C78" d="m357 275 8 8c1 5 3 7 2 11 5 16 5 36 0 45 3-5 10 2 13-1-11-11-9-28-12-42 0-6-2-8-3-10-1-6-4-8-7-10"/><path fill="#2D3031" d="M449 325c6 2 0 4 0 5 4 4 8 2 7-1 8 6 16 12 24 13-2-10-16-8-22-12-4-1-7 0-6-4"/><path fill="#593E2A" d="M90 292c3 7-2 7-2 14 8 7 18 12 22 22-3-14-20-18-19-34"/><path fill="#919980" d="M535 212c1 6-12 14-8 28 1-4 10-18 11-28"/><path fill="#373836" d="M433 332c-5 1-3 1-7 11 1 3 3 9 0 15 4-9 9-17 8-28"/><path fill="#2F3439" d="M452 304c-4 1-9 1-12 3-7 3-9 6-17 14 11-5 22-15 33-18"/><path fill="#66351D" d="M194 310c14-1-1 11-3 15-2-4-2-8-1-12l2-1h1"/><path fill="#432C20" d="M354 252c-9 2-14 9-2 11-3-5 6-6 9-5 5 3 3 5 7 8-3-2-2-6-5-7-3-4-4-6-6-7"/><path fill="#3E6E75" d="M261 167c8 4 28 17 34 19 11 9 20 17 26 27-6-10-15-19-24-26-3-4-5-3-6-6-10-9-26-11-27-13"/><path fill="#936039" d="M395 327c8 5 6 9 9 14 8 3 3-5 8-2 0-3 1-5 0-7-6-1-12 2-15-4"/><path fill="#8D9F96" d="M345 214c4 3 4 16 11 21 3 5 4-4 7 2-4-10-18-17-13-23"/><path fill="#281C1C" d="M453 408c3 1 8 1 10 5-32-2-23 5-1 10-4-1-8-5-11-6 5-7 14 2 13-6-2-1-5-3-8-4"/><path fill="#32647F" d="M227 154c-26 6 6 2 35 13-5-6-22-9-30-11-6 0-9-2-14-1"/><path fill="#3B2B27" d="M240 372c12-5 8 10-1 10-1-3-1-5-2-8l1-1h1"/><path fill="#7FABA1" d="M398 278c7 8 10 8 13 9-6 3-8 3-6 7-3-6-7-8-8-12"/><path fill="#433032" d="M112 401c0 5 2 9-3 12-5-3-4 8-11 5 11 7 13-3 18-8 0-2-1-4-2-6"/><path fill="#4A6B67" d="M378 208c1 5 4 10 7 15 9-2 9 8 13 7-5-6-12-15-18-21"/><path fill="#687371" d="M346 219c2 16 18 30 24 29-5-16-19-5-22-28"/><path fill="#703E26" d="M172 216c-1 3-3 6-3 9-6 4-16 12-20 8 9 6 14 1 19-4-1-11 6 0 3-12"/><path fill="#23201D" d="M451 324c-6 1-6 1-6 9 3-4 3 0 7 0 2-1 4 4 6 0 6 5 12 8 19 11l1-1h2l1 2v2c1 2 5 3 6 4 4 3 7 0 8 4 1-5 5-10 10-6-2 0-2-2-4-3-2-4-6-7-10-9 4 2 7 5 11 7-5 4-7 12-13 7-4-1-6-3-7-5 3 1-1-4 1-6-2 1-3 2-5 3-8-3-14-7-19-12 2-4 7-2 10-3-3 0-7 2-9-2l-1 1-1 1v2l-1 1c0 2-2 3-3 2-4 0-4-2-6-3 12 0-5-4 6-6v1l-1-1"/><path fill="#717369" d="M377 258c-9 3-11 6-2 12 5 1 3-4 6-5-4-2-2-3-4-6"/><path fill="#826240" d="M235 381c-2 5-7 11-13 11-10 1-16-2-22-5 5 7 13 8 22 7 7-2 13-5 14-11"/><path fill="#2C221D" d="M282 406c-17 8 0 12 9 9-13-4-7-9-7-7"/><path fill="#100709" d="M374 233c-2 3-5 9-1 12 5-6 10-1 16 0-5-3-11-5-13-11"/><path fill="#4C4D41" d="M431 320c1 5 0 9-1 13 1-1 1-4 3-4-1 40-10 14-7 30 4-5 10-12 13-20-6 1-2-18-8-15"/><path fill="#46302F" d="M438 397c-4 2-7 4-6 8s5 6 6 8c2-1 5-2 7-3-3 0-6-3-9-4 0-5 3-4 1-8"/><path fill="#5D4431" d="M250 376c-2 3-5 7-9 8 6 7 21-4 10-7"/><path fill="#241A1B" d="M346 410v1c2-1 6-1 4 3-1 7-4 12-6 18-5-4-2-9-2-13-2-1-2 2-5 1 1 11 5-4 3 10-4-2-7-4-8-8-9 7-15 7-11 2 2 15 3-8 12 2-2 8 4 14 4 18-1-4-4-8-2-14 3 0 5 2 7 4 6-6 6-13 9-18 2-4-1-8-3-6"/><path fill="#756D4F" d="M161 379c-7 8 4 15 10 16 10 1 16 0 22-4-6 2-13 3-22 2-6-2-10-7-11-11"/><path fill="#323134" d="M383 370c-2 7 6 8 10 9 0-4 1-5 5-7-4 0-10 0-13-2"/><path fill="#573E3E" d="M459 416c-1 9 3 0 3 12 2-1 6-2 10-5-4-2-7-6-12-6"/><path fill="#A5B493" d="M292 229c2-1 6-1 7 2 2 4 1 5-1 6-3 0-6 1-6-2l-2-2v-1h1"/><path fill="#201617" d="M308 394c2 5 5 9 10 13l3 2h3c2 1 3-5 8-5 3 3 6 0 8 2 4 1 2-5 6-6-2 4-17-1-25 9l-13-13"/><path fill="#432822" d="M356 302c-3 1-5 3-5 6-1 6-3 12 1 16 6 1 10-1 11-6l1-1-2 2c-1-3-2-6-5-6 0 3-1 5 3 8-4 3-8 3-9-1-6-17 13-16 8-18"/><path fill="#201A1B" d="M142 246c-2 17-1 52 4 59-2-20-6-38-4-57"/><path fill="#464F51" d="M362 336c-10 5 0 11-6 29-3 1-5 1-7 4 2-3 8-4 10 1 6-20-9-33 5-30"/><path fill="#BE905F" d="M363 264c-12 10 15 8 13 14-2-4-7-9-11-13"/><path fill="#F3EAB1" d="M433 292c-3 4-1 10 0 15 3-4 5-1 5-4 0-5-2-8-3-12"/><path fill="#363235" d="M398 301c-1 6-1 13 1 22 6-8 2-14 0-19"/><path fill="#B1D1AF" d="M86 254c-7 7-7 18-6 29 3-10 3-20 6-29"/><path fill="#313135" d="M299 356c-4 2-3 6-11 5 7 13-1-6 15 9 0 3-1 4-2 5 2-1 1-3 2-4-4-3 0-11-3-14"/><path fill="#8D4B21" d="M232 291c4 7 9-1 15 2-3 4-5 6-7 6-5-2-8-2-10-4"/><path fill="#241615" d="M354 305c-3 4-5 16 1 18 1-5 0-11 1-18"/><path fill="#66A192" d="M236 139c23-2 43 2 62 7 33 16 24 3 58 21-18-12-38-14-55-22-5-1-7-2-9-2-19-3-36-5-54-4"/><path fill="#D8A971" d="M180 219c3-2 5 5 7 10-5-1-8-1-10-3l-1-3v-1h2"/><path fill="#30353E" d="M312 392c3 3 4 11 11 11 3-3 3-7 2-9-4 3-10 2-11-2"/><path fill="#47776F" d="M173 239c-4 12 13 7 14 1-2 2-6-1-11 0"/><path fill="#5D3B27" d="M361 258c-4 0-7 2-10 3 4 8 18 1 12-2"/><path fill="#2A373C" d="M377 249c-5 12 5 8 12 6-2-5-5-5-10-6"/><path fill="#536771" d="M183 354c2-1 4-1 6-1-5 1-1 6-1 8-1-1-1-2 0-3 10-1 18 0 26 3-9-5-18-8-30-7"/><path fill="#364D4A" d="M109 248c-3 1-7 3-9 5 7 4 26-6 9-5"/><path fill="#362924" d="M220 351c5 2 11 6 17 9-7 1-12-2-17-6"/><path fill="#667A6D" d="M397 257c10 7 13 19 19 28 1 9 5 15 3 23 0-10 1-21-5-29-4-9-10-15-15-20"/><path fill="#586851" d="M420 250c6-1 8 7 9 11-5-2-9-4-9-8"/><path fill="#4C3741" d="M82 423c4-1 10 0 14-1-1 6-9 7-11 4"/><path fill="#746E60" d="M385 274c-1 2-3 3-5 4 3 5 4 8 8 9-1-7 8-4-2-11"/><path fill="#323938" d="M423 298c1 5-1 9-3 12-1 4-19-1-16-3 4 8 13 11 16 5 3-3 2-8 4-11"/><path fill="#24242D" d="M331 352c3-2 9 7 5 9-4-1-10-7-6-9"/><path fill="#3F3434" d="M474 420c-3 8-10 5-7 12-10-11-8-11-5-1l1 1h1l1-1c7 6 3-6 6-4 5 8 13 2 21 4-6-1-14-2-19-3-4-5 2-2 0-6"/><path fill="#314146" d="M138 243c2 2 2 15 0 16-2-5-4-10-1-13"/><path fill="#82B7BA" d="M354 277c0 3-3 5-4 9-2 5-1 8 0 11 5-4-2-11 4-15 2-5 5-3 6-2-2 0-2-4-4-4"/><path fill="#9CE3DE" d="M279 173c19 6 32 31 50 36-5-1-32-29-47-35"/><path fill="#E8C391" d="M229 243c-24 3 19-1 19 3 9 2 12 4 16 7 4 6-1 13 3 14 0-4-2-7-1-13-6-4-10-7-15-9-8 0-14-3-21-3"/><path fill="#2B2A2F" d="M164 339c1 6-1 3 10 14-1-1 4-5 14-3-7-3-20-1-22-9"/><path fill="#C37E4A" d="M172 250c2 1 4 0 6 1-2 4 6 14 1 20 6-5 1-12 2-17-1-3-3-4-7-3"/><path fill="#909B8A" d="M503 258c3 3 0 10-6 7 4 1 10 1 8 5 2-3 5-4 6-6-3-2-4-5-6-5"/><path fill="#394B55" d="M373 315c-2 9 3 16 9 22-6 3-12 0-13 4 6 3 10 2 15 0l-1-1-1-3c-6-5-5-11-10-20"/><path fill="#32242B" d="M169 362c10 6-2 6-7 8-2-6 2-6 6-5"/><path fill="#609589" d="M184 242c-5 7 11 5 14 3-3-2-7-3-12-2"/><path fill="#4B4A47" d="M486 423c-3 1 3 1 2 0 4 1 9 2 14 8-47-14-11 5-1 1 0 2-2-9-11-8"/><path fill="#2B3737" d="M359 222c2 5 6 8 11 17 3-5-3-9-2-14-2 5-4-3-9-1"/><path fill="#3C7B9D" d="M193 158c16-4 1 9-4 7 1-4 2-5 3-6"/><path fill="#BDB287" d="M294 229c-6 4 1 11 5 6 1-3-1-6-4-5"/><path fill="#F2EDB3" d="M442 314c-7 3-1 10 0 15 3-5 0-9 0-13"/><path fill="#2D3039" d="M314 317c-4 2-9 4-10 9-4 5-2 9 0 11 4-6-7-6 3-15 3-3 6-3 8-5 4 3 4 5 7 7 0-3-2-7-6-8"/><path fill="#384C4D" d="M336 230c-5 16 4 8 9 2-3 0-5 0-8 1"/><path fill="#524B45" d="M390 283c-2 2-3 2 0 5-13-12-2 8 4 8-8-2 4-8-3-12"/><path fill="#251E21" d="M95 415c3 3-2 8-5 6 3 0 7-2 11 2 1 4 0 6-1 9-8 1-14 0-15-6 1 4-2 7 4 5 4 1 6 1 8 1 19-8 0-13 2-16"/><path fill="#D5A56C" d="M180 219c0 2-3 3-3 4 3 4 5 5 7 6-1-3 0-7-1-9"/><path fill="#7B7256" d="M394 390c6 6 16 12 25 13-10-6-16-8-22-11"/><path fill="#504047" d="M111 404c-7 9-13 4-7 11 4-1 8-2 8-10"/><path fill="#49474C" d="M323 441c4 5-2 9-5 13 3-2 4-5 7-4 0 2 1 5-2 6-5 4-9 0-9 1 5 1 9 3 11-1 2-6 4-15 0-13"/><path fill="#D3D194" d="M436 316c-2 8 13 22-1 32 5-5 7-9 8-14 2-7-5-3-5-17"/><path fill="#333335" d="M352 368c-3 1-7 2-5 6-1-4 3-6 5-5 6 0 3 6 7 6-2 8-9 6-12 9l-2-3v-2l1 3 1 2c2 1 6-6 10 0 5-4 0-10 1-15-1-1-2-2-5-1"/><path fill="#C5B385" d="M293 230c2-2 8 0 6 4-3 4-7 1-7-2"/><path fill="#66BAD2" d="M224 153c21 1 48 16 61 22-9-6-22-11-32-16-10-3-19-5-27-6"/><path fill="#C8D0AF" d="M263 222c2-1 5-1 7 0 0 8-7 8-8 2"/><path fill="#C9D7BF" d="M349 216c9 11 17 23 24 35-6-12-14-24-21-36"/><path fill="#4B6670" d="M314 340c7 14 8 26 12 39-3-11-2-26-10-36"/><path fill="#CFCC90" d="M431 366c4 8 7 16 5 27 4-9 1-18-3-25"/><path fill="#5B5241" d="M94 269c-5 6-6 16-5 23 0-10 7-17 5-20"/><path fill="#995427" d="M232 293c0 4 9 7 12 2-2-6-7 5-10-1"/><path fill="#80BDBE" d="M367 293c-4 1-4 5-9 4 4 4 6 4 7 4 2-2 2-4 1-7"/><path fill="#336473" d="M309 243c-5 6-12 12-17 17 13 2 8-12 15-15"/><path fill="#372B25" d="M278 411c3-1 8 0 11 2-4 2-8 2-12 1"/><path fill="#4F4D4E" d="M482 290c-6 4-29 10-20 3-1 3-5 4-3 6 10-1 13-4 24-9"/><path fill="#292A34" d="m162 375 2-2c4 2-4 6-1 10 2-4 17-5 1-10"/><path fill="#975A37" d="M179 204c-10 8-14 31-29 28 10 7 10-10 17-7 5-14 5-3 11-21"/><path fill="#6F7B6E" d="M521 245c-8 5-7 9-7 15 4-1 4-9 6-13"/><path fill="#766C46" d="M105 342c-2 4 8 7 12 5 0-5-7 0-11-4"/><path fill="#81B8BE" d="M305 354c1 4 0 7 1 11 4 1 8 0 11 1 0-7-5-3-10-3-1-2-1-4-2-7"/><path fill="#945C2D" d="M249 274c3-2 7 1 8 3-4 5-7 2-8 0"/><path fill="#3F534C" d="M328 241c3 3 3 7 4 11-2 6-8 23-11 33 4-10 8-21 11-31 1-7 0-10-2-13"/><path fill="#529BA4" d="M278 249c0 3 2 10 6 11-3-1 3-7-5-10"/></svg>