<svg xmlns="http://www.w3.org/2000/svg" width="600" height="600"><path fill="#56646E" d="M312 88h1c19-4 41 12 50 6 15 10 26 18 35 28 4 6 6 12 7 17 0 6 1 11-3 17 6 6 7 7 11 15 2 7 2 12 1 18-3 7-5 11-10 14-2-4-2-6-3-10-4-3-7 0-10-2-1 2-2 4 0 5-2-5 4-5 7-3 4 4 3 8 5 11 8-7 11 1 7 5 7 2 7 2 3 1 1-5 14-8 22-9 5-2-4-5 2-7 5 2 7 6 9 9-2-7-9-13-14-19 8-3 22 8 29 5 10 5 12 24 23 28 0-2-2-9 3-7 3 7 5 12 7 17-2-5-4-9-6-14-1-6-4-8-3-12 8 5 11 13 13 21 0-3-2-6-3-9 3-1 4 1 5 2 5-13 10 27 5 33-2 13-4 23-6 32-6 10-10 18-17 24-20 20-40 41-59 63-10 3-18 13-27 15 2-12 6-21 9-31-1 3-4 14-7 10 2-6 4-10 8-13-12 11-21 25-34 34-8 7-15 13-23 12-4 9-11 19-14 30-4 18-10 29-4 40 16 6 32 9 48 9 8 7 12 15 14 22-6-3-9-6-13-9-7 5-13 2-18 3 1 4 2 7 1 12-6-14-18-2-27-10 0 2 0 3 1 5-5-2-8-4-10-5-12 7-23 0-35 3-6-2-4 4-6 5-19-9-37 6-55-2-2-2 1-4 2-7 10 6 1-7 17-3 3 0 5-1 6-2 0 1-3 2-6 1-1-2 0-3-1-6 4-8 13-6 13-14-10-34-23-29-32-72-9 17-8 35-21 46-2-19 2-32 5-46-1 5-3 9-4 14-3 3-5 2-6-1 4-6 5-11 7-16-14 26-25 53-43 76-9 3-8-6-6-9 1-19 7-33 12-48-2 4-2 8-4 11-4 1-7 1-7-4 6-8 9-15 14-22-13 15-20 33-33 48-10 8-17 20-27 24-5 2-14 3-10-3 5-9 10-16 15-24-2 4-5 6-7 11-7 0-3-3-3-4 8-13 16-23 24-33-18 23-37 47-61 60-6 3-13 4-12-3 4-10 7-22 14-29-2 1-6 9-7 2 3-3 6-7 9-9-13 10-27 20-43 25-1-10-1-17-1-24 24-30 41-38 63-65-3-10 3-17 5-25 0 2-2 6-5 1 3-2 5-8 7-6-1-2-3 3-5 4-9 7-16 15-24 18-5 3-9 2-11 1-3-3-4-7-3-12 4-12 12-20 18-30 6-9-20 12-45 11 0-6 9-10 12-14-7 2 2-5-12 1 24-14 17-25 37-36 8-5 19-9 28-16-1-4-4 1-4-1 4-5 10-8 9-14-3 1-6 0-9-1 4-4 6-5 9-6-3-4-6 0-6-5 13-10 16-27 27-37-3-12-8-28-1-40 4-5 5 2 7 3 1 12-3 20 5 24 4-8 1-24 9-32 10-8 0 10 10-1 1 8 1 13 2 18-1-5-2-10-1-16 0-5 0-8 3-10 5-15 18-21 27-29 4 18 13 12 15 19 7-7 15-11 23-16-10 16 1 22-7 48 6 4 12 10 16 13 1-7 2-3-5-20 1-5 4 0 5 0 7 7 10 16 14 22 5 8 0 17 3 25 9-11 13-21 19-34 0-13 11-24 7-39 3-8 13-11 14-15-4-5 1-11-6-14 8-2 14-3 19-1-1-4-3-6-5-9 9-4 12-2 18-4-1-2-4-4-6-6"/><path fill="#18243B" d="M262 243c-1 19-30 17-30 40-7 0-10-2-11-4-2-7 1-9 2-12-4 3-2 5-2 10-1 3 0 4-1 5-3 3-5 4-7 5-8-5-7-16-5-21-3 5-6 14-15 14-5-1-6-4-5-7 0-6 3-8 4-10l1-2 1-1h-2c-2-1-6 1-8-1 2 2 6-1 8 1-1 5-4 8-6 9-6 2-11-2-11-5-1 2-5 1-5 4 12 7 15 12 29 15-4 5-3 9-6 12 5 6 2-7 7-10 0-5 3-6 4-8 2 2 3 10 8 11-2 5-5 10-9 13 6-3 8-9 11-13 7-3 4 3 6 4-5 8-9 13-13 19-7-3-8-9-6-13-4 4 1 10 0 15-7 11-10 21-15 31-4 6-8 7-10 1 1-8 4-15 5-22-16 9-8 25-39 58-7 0-12-1-14-6 1-13 6-23 10-33-6 11-15 21-22 30-4 2-15 3-15 0-6 17-20 32-31 46-2 12 5 15 3 17 6 6 31-23 41-38 0 9-2 7 4 9 1-3 7-5 6-4 6-1 14 8 18 0-2 6-4 10-8 13 10-4 14-16 21-26-10 17 14 17 3 33 11-24 20-21 26-39 2 6 0 14-1 21 9 6 10 3 13 14-4 2-1 6-5 9 3-2 3-5 5-7 7-10 10-27 18-29 2-21-14-33-11-56 11 4 5 18 17 16 7 32 17 31 22 65-1-4 5-8 1-9 3-5 2 0 5 0 5-2 6-8 8-11l1-2-2 1c-1 2-2 5-3 7-2-4-4-7-3-11 7-7 6-14 12-21 3 2 6 5 7 6 7-1 11-4 14-8-4 2-7 6-11 8-6-7-3-13-2-19-3 6-7 14-16 15-10-8-15-19-18-28 16-17 16-7 33-21 9-11 1-28 19-40 0 9-1 13-2 29 0-2 2-8 5-5-3-28 26-52-17-32 5-1 1 1 1 7-7-13-17-24-12-37"/><path fill="#192337" d="M416 214c-5 12 22 2 28 12 0 6-2 11-6 12 0-8-11 11-9-5-4 5-5 10-11 8-4-4 4-5 4-10-4 3-8 7-15 6-1-4-10-11-4-14-2-1-4 4-9-9 11 22 12 36 32 62-4 7-6 11-7 15-4-8-8-14-9-19-1 16 6 27 3 45 0 3-2 3-3 4-5-4-6-9-8-14-1 11-2 18-6 24-4 7-10 22-17 29 2-5 8-6 8-8 10-2 4 7 5 7-3 6-7 10-10 15 2-5 8-9 10-14 8-11 17-13 21-22-7 13-3 22-1 31-1 1-2 6-6 6 3-1 5-2 6-5 6-6 8-4 12-5 16-14 18-29 27-36 7-11 10-21 11-32 3 6 2 12 0 16 3-4 5-8 8-13 4 2 3 5 2 7 3-3 5 4 7 0-7 1 2-10 3-13-2 1-3 2-4 5 0-9-5-14-2-23-8-15-16-27-17-36-1 2 0 6-2 8-2-14-6 5-11-5-1-6-1-9 2-11 8-3 10 8 10-1-12-11-28-10-43-14"/><path fill="#273B56" d="M294 274c-6 9-25 28-21 49-18 11 1-9-13 0-3 1-3 6-1 6-9 2-6 7-15 5-5 4-6 7-7 10 3 7 6 20 14 26 11 0 14-8 16-14 2 6-1 11 2 17 6 0 9-4 13-6-3 5-7 9-11 10-7-1-8-10-11-3s-6 11-9 16c-2 5 0 7-1 11 3-2 4-8 6-6-1 6-4 10-7 12-2 0-5-1-5-2 3 3-1 8 2 10-7-4-6-10-8-15 2 17 12 20 10 37 4-9 6 7 9 7 0-4-4-8-3-14 7 4 7 9 9 13 3-6 6-11 10-16 4 0 5 3 5 4 0-10 8-24 3-24 8-11 14-16 21-22-3-9-7-8-12-15 4-5 15-26 31-33-1-6-1-6 0-3-4 7-9 11-14 13-9-4-9-12-10-20-1 9-2 25 3 28-7-3-4-10-7-14-3-3-4-1-7-1 0-8 4-14-3-16 7-1 7 2 8-4 2 1-5 3-3-5 3-4 7-6 10-9 2 6 0 12 0 18 4-9 6-25 11-28 3-6 0-8 0-11-4 3-2 9-6 12-10 15-14 5-18 17 0-22 5-25 8-40"/><path fill="#5C585D" d="M300 125c-14 7-11 25-21 32 4 1-2 5 3 6-3 2-5 3-6 4 2 5 2 13 0 18 2-1 4-2 5-3-9 12-10 21-20 30 2 0 3-1 6 0-7 12 8-7 2 15 5 2 10 0 13-1-4 3-8 5-11 8-1 3 0 4 2 5 5 8 11 6 18 5-3 5-7 6-11 9-2 6-2 13-1 16 5 1 7-1 10 0-2 0-5 0-5-3-1-5-1-11 2-13 4-5 7-7 10-9 6-2 5 2 6 4 3-5 7-9 11-12-10 10 8 17-13 31 3-3 7-4 8-7 3 3 3 5 2 6-10 14-13 0-15 17 10-2 5-7 14-12 2 20-2 19-13 74 8-2 9 4 12 0 7-4 12-7 12-14 1 6 1 12 1 18 2-5-1-12 2-16 7-6 14-3 18 1 5 1 4 3 7 3-3-2 4-2 1-6 4 13-3 19-4 38 14-7 24-15 31-23 4-12-6-18-2-23-4-4 0 0-3 5 0-5-1-9-2-13-1 1-6 2-7 4-2-1-2-2-1-3 1 7-7 11-18 19-4-10-3-11-7-15-6 6-11 0-13-1-2-7-8-15-1-18-4 3-8 10-14 10 1-10 8-14 11-22-1 2-3 3-4 4-1-22-7-48 7-60-3-5-8-5-6-10 1 6-6 8-8 11-7 2 1-8-6-3 2-3 5-3 5-4-4 0-6 1-10 2 1-7 2-13 5-18-1-5-8-3-3-13-4 5-3 10-5 15-4-1-7-2-10-1 5-8 3-17 8-23 8-6 9-5 13-8-4 2-10 3-15 3 5-6 2-7 13-14-1-2-5 1-5-3 5-7 11-8 17-8-5 1-9-2-13-1-5-3-6-7-10-9 5 0 5-4 10-4 0-5-8-11-2-19"/><path fill="#1F2739" d="M380 317c-12 7 7 10-3 29-15 14-24 22-31 34-5 5-11 8-15 11-5-2-8-7 0-10-3 3-8 6-8 0 2-5 6-8 8-11-1 5-9 4-6 9 2 10-5 12-11 15-4-16-1-8-9-24 3-4 5-3 6-4 5 4 3 11 7 13-2-19 9-15 1-44-3 10-13 13-18 19 1-3-1 1-2 0-4-9-4-18-2-25-3 2-4 7-7 9-2-6-1-10 0-14-2 3-3-2-4-2-3 17 13 14 9 34 0-5 3 2 4-3-3 13 0 18-8 17 12 5 3 9 13 13l-20 20c4 4-7 23-4 32 10-6-7 5 1-10 3-1 7 1 11-3 5 3 8 3 8 9 6-7 13 8 17 3 2 2 0 2 1 5l-1 2v-3c8-7 10-18 8-20 8-9 4 3 7-2 4-7 10-20 16-30-3-1-6 3-10 5 21-20 31-23 48-45-5-9-7-18-6-29"/><path fill="#E1ECEE" d="M333 90c-1 10 11 8 15 13-30-9-50-3-5 9 0 7 3 13 8 17-10-1-13-18-27-19 5 1 0 5 5 10-3 0-8-1-12 1 16 11 37 11 52 24 8-1 14 0 18-5 1-6-1-9-3-12 5 3 7 7 8 11 5-2 6-7 10-2 0-5-1-8-4-12-11-11-21-21-32-27-10 3-21-6-31-6"/><path fill="#E2E9E6" d="M368 230c-1 2 1 6-1 9-10-20-18 5-16 11 5 4 5-2 7-5 2 5 5 9 8 11-7-5-13 3-19-3-1 13 1 29 5 42 7-5 15-13 18-21 1 6 1 14 4 20 4 3 6-6 9-8-1 14 11 0 11 11 1-24 0-25-3-52-7 4-11-2-15-3-1 4 1 6 1 9-3 3-3 0-4-1 0 2-1 3-2 4 0-7 0-16-2-23"/><path fill="#7A4425" d="M322 434c-3 3-4 8-9 11-3 1-5-1-6-2 0 5 6 17-1 23-8-2-9 6-15 6-4-1-4-4-6-6 2 2 2 5 3 7 3 4 5 4 7 7 5 1 8 5 11 2-3 1-6 0-9-2-4-2-6-4-7-5 7 5 16 6 26 5-9 3-3 0-4 9-9 0-14-3-21-1-3-3-7-4-7-7-3 0 0 4 0 5-3 1-4 4-6 4-3-2-8 1-11-4 2 1 2 9-6 10-13 7-17-3-22-2 8 5 15 6 20 2 10-4 14-1 20 3 3-5-2-10 4-11 10 6 25 2 35 6 10-2 2-10 5-13 11-2 12 11 20 12 5 1 5-1 8 0-3-4-2-10 1-12 12 12 30 8 20-7 3 3-2 7-6 5-3-8-17-5-26-8 6 9-14 0-19 1 2-11-6-11 1-20 7-10 4 10 5-4-1-5 0-3-5-12"/><path fill="#2A3644" d="M116 397c-11 10-16 25-30 32-5 8-1 15-10 31 8 2 15 3 18-3 14-18 71-60 30-53-4-2-3 2-6 3-2-3-6-3-2-9"/><path fill="#DADAD9" d="M325 492c13 8 13-1 28 4 11 33-64 8-88 18-3-6-1-2 3-4-9-3-2-4-9-10 26 9 35-14 66-4"/><path fill="#FEFFFF" d="M329 497c-29-9-45 11-67 0 5 8-2 12 6 12-1 3-4 3-6 2 27-8 98 15 98-13-19-6-24 4-30-3"/><path fill="#5B7A85" d="M103 270c-10 5-20 10-30 14 10 5-12 6-14 12 0 6 2-2 7 0-1 4-18 15-7 11 7-7 18-15 28-22 6-4 9-5 14-4-19 13-42 30-54 47 21-3 36-18 52-32 11-14-4-18 8-28"/><path fill="#31577F" d="M131 311h-1c-18 15-20 29-29 45 6-5 12-8 17-15 2 9 4 15 4 22 5-11 45-55 17-45 1-6-8 2-6-7"/><path fill="#B2A791" d="M353 173c-11 5-24 10-34 19-7 2-6-7-8-5-7 5-13 10-11 19 4 8 9-8 18-6 1 2-1 11 1 11 5-3 7-6 11-7 4 5 5 13 4 20 0-5 2-8 4-11 2 16 17 1 16 12 1-6-5-10-6-17-4 2-5 5-9 4 8-8 9-16 7-23-5-4-10-4-12 1 2-10 10-9 16-12 0-3 2-3 3-4"/><path fill="#325A84" d="M98 309h-2c-14 10-21 24-30 36 6-4 14-4 19-10 2 7 4 11 6 15 10-10 42-36 14-39-3 3-3 5-5 5 0-2 3-5-1-8"/><path fill="#D1CCBB" d="M313 153c2 4 7 7 11 7-3 3-10 3-14 2-10 17-5 20 6 30 13-7 21-16 34-17-3-4-9-4-13-5 9-5 15 0 21-3-17-2-26-11-42-15"/><path fill="#E0A042" d="M275 452c-17 10 1 23-10 30-18 3-34 10-11 16 3-1 7-3 10-4 8-5-5-6 2-9 4 6 9 2 12 4 9-2 1-6 5-10 1 4 5 5 7 7 8-2 16 5 22 1 3 2 5 1 7 2 4-1 2-5 3-6-4 0-9-1-9 3-3-6-13 1-16-5-15-6-9-24-20-29"/><path fill="#323746" d="M353 336c-4 13-9 15-17 22-8 4-10 9-18 7-1 5-2 12 3 13-10-1-5-17-12-10-2 5-2 9 0 12 2 1 2-1 3-2-1 6-3 11-1 14 3 1 8-1 12-4-1-3 0-6-1-7 6 2 4 5 7 9 15-4 15-14 23-19 1-3 3-3 1-5-2 1-11 5-10-3 1-1 5-15 10-24"/><path fill="#213755" d="M460 196c5 3 6 9 3 14-7-4-14-3-17-8 3 7 0 8-2 9 4 1 8 2 11 6v4l-3-1c-1-5-11-6-17-7-4-9 4-2 5-4-6-5-12 2-21-1 4 0 7 1 10 2 3 2 4 4 3 7-3 3-6 2-9 3-3-4-4-4-3-1-6 2-12 0-16 6-1 4 1 7 3 10 6 2 11-1 15-4-1 5-5 7-7 11 5-2 10 0 13-9 3 3 1 3 2 6 5-5 5-4 10-1 6-7 5-13-1-15-7 2-11-3-19-2 7-1 11-2 14-3 10 3 16 11 23 10-1-2-1-5-3-8 7-11 13 8 12-3-2-8 0-14-3-20"/><path fill="#213C5C" d="M195 246c-8 4-10 3-17 5h-2l1-1c8 7-7 7-2 10-3 4-4 5-5 7-4 3-8 1-10 2-4 0-9-9-3-13-2 2-8-1-10 1-6-2-9-6-12-8-4 6 6 4 8 8-4 9-8 15-12 21 4-5 6-11 11-16 5 4 7 12 4 16 0-1 6-5 7-9 3 5-8 15 1 19 4-5 7-11 11-17 5-2 8-2 10 1 1 11-6 19-11 26-8 7-9 15-15 16 0 0 2 1 3 0-12 22-14 28-14 40 2 1 11-6 12-3 11-13 15-20 24-36-4 7-8 12-14 17-5-3-8-6-13-1 3-7 5-11 7-14 7-16 19-23 23-38 7 4 10-1 15 8-10-9-14-15-23-20 2-2 4-2 4-5 21-2-1-11 24-17-1 9-5 16 1 22-9-20 9-1-2-22"/><path fill="#D38D35" d="M388 154c-2 1-4 1-4 3-45 16 17 24 24 39 4-6 5-12 4-18-2-9-6-16-12-21h-2l3 1c0 4 4 6 7 16-11-4-15-15-24-15 2-4 4-6 7-5h-1"/><path fill="#5C555A" d="M354 175c3 3 3 7 8 8-8 2-9 10-13 17 1-2 5-2 5 3 1 8-1 15 1 22 1-5-3-11 3-16 6-1 12 5 17 12 3-6 3-17 8-19-2 0-5-5-4-14-9-6-17-7-23-12"/><path fill="#345474" d="M130 209c-8 8-15 23-16 24 5 9 12 3 17 21-3 2-5 6-5 8 2-2 4-5 8-7 5 0 5 4 5 5-6 17-7 19-17 28 9-3 22-4 25-12-1-6-1-11-3-12-4 1-4 4-6 6 0-6 3-8 4-12-3-3-6-3-8-4 2-8 1-14 5-18-5-13-10-19-9-24"/><path fill="#303B46" d="M157 388c-8 12-15 24-20 36 4 5-14 20-6 29 12-11 21-22 27-34 5-9-3-10-4-18 0-4 2-7 1-12"/><path fill="#8CD5EC" d="M178 129c-9 10-18 19-19 31 0 14 1 25 3 35 4-1 9-3 11 4 1-15-4-35-7-51 5 3 6 11 7 17 2-10 0-27 6-36"/><path fill="#85796F" d="M302 115c-6 4-2 18 0 31-4-1-5 4-9 2 3 3 5 6 6 9 24-2 7 5 20 3-7-4-11-10-10-16 11 0 16 9 26 9-6 0-17-4-15-12 16-7 36 6 51 12-14-4-20-13-32-18-9 3-16-1-22-2-9-2-6-14-13-5 3-6 3-10 3-12-4 0-4-2-6-2"/><path fill="#020000" d="M290 430c-4 0-6 2-9 6 3 14 3 22 7 34 6 1 11-6 18-5 0-26-10-20-13-39"/><path fill="#7FCBEC" d="M215 194c-2 8-3 15-2 24 13 5-1 20 12 28 6-16 9-29 10-44-5-3-12 10-13 16-2-4 0-9 1-13-1-6-4-8-5-11"/><path fill="#D3CFBC" d="M345 289c-6 13-6 34 1 42 10-6 13-15 15-25 4 2 1 6 2 9 2-1 4-3 5-5 5-24-9-23-18-7-6-3-5-8-6-12"/><path fill="#243D5C" d="M141 178c1 7 1 13 2 17-4 0-3-2-5-6-2 5 1 9 2 11-5 7-9 5-7 2-3 2 0 10-4 18 0-2 2-3 2-4 3 11 4 4 9 13 5-10 11-13 20-15 3 3 3 6 6 7-7-6-4-20-6-23-8-2-4-3-9 4-7-7-6-15-10-21"/><path fill="#323E47" d="M183 384c-2 16-7 46-16 69 19-17 20-16 27-35 0-8-4-10-11-12 0-8 1-15 3-21"/><path fill="#4D5D5F" d="M73 400c-12 11-14 30-37 42 1 7 1 10 0 16 13-3 22-11 33-16-3-1-5-3-7-5-2-9 3-13 0-18 2-5 8-14 12-18"/><path fill="#2C4C6F" d="M278 374c12 2 21 6 4 19-3-2-2-4-1-7-7 4-12 9-17 12-3-3-5-5-4-9-3 2-5 6-7 8-3-9 3-13 6-18 8-1 12 0 18-3"/><path fill="#E4E7E0" d="M326 244c-2 2-6 4-8 6-2 18 0 20 2 33 10-2 15-14 18-22s-2-5 0-11c-5 6-10 2-10 10-3-7 1-11-1-15"/><path fill="#507485" d="M117 221c-8 7-3 11-16 19 3 0 7 2 9 0-7 9 5 7-7 23 5-3 6-8 9-10 2 3 2 5 1 8 2-2 5-2 6-5 2 2 1 4 2 7 5-1 6-7 9-9-3-15-12-13-16-20 1-8 6-9 2-12"/><path fill="#8CD7ED" d="M192 136c-2 2-8 12-8 25-2 10-1 18 1 26 3-2 7-6 9-10-1-15-1-32 1-41"/><path fill="#904A23" d="M274 427c-3 7-7 13-8 20-6-3-7-7-9-10 4 10 7 21 9 32-6 7-4 14-9 18 7 2 7-7 11-9 3-9-6-14 1-22 4-4 6-5 10-4 3 2 4 4 5 5-3-9-4-20-8-29"/><path fill="#2E4F73" d="M280 374c-6 6-12 5-18 6-6 5-11 8-9 15 2-2 4-5 5-8 2 5 3 7 4 10 7-3 12-8 17-12 3 3 0 5 4 6 12-10 9-13-3-15"/><path fill="#45769F" d="M176 288c-4 1-2 10-6 8-12 46-6-14-15 39 9-7 13-13 15-17 5-7-1-7-1-12 3 7 12 2 16-1 2-15-6-10-8-15"/><path fill="#7DD0ED" d="M478 215c-2 7 3 10 5 15-7-6-13-11-15-10 4 15 9 27 14 40 4-8 6-18 0-25 4-1 4 2 6 4 0-2 2-3 1-6-2-7-5-13-9-18"/><path fill="#273A50" d="M204 336c-1 30 13 6 8 44 2-7 0-12 2-15 3 10 4 17 6 24-1-2 0-4 1-6 1 14 3-1 7 11 0-3-4-5-2-7 14 11-1 9 10 16-3-12 3-3-6-18 6-1 4 4 6 4 1-1-2-2 1-4-4 0-6-9-13-8 0-11-8-17-5-23-11 0-6-13-13-17"/><path fill="#517A95" d="M170 204c3 15 2 24-5 30 4 5 4 5 1 2 4-3-2-6 6-9 7 3 0 9 4 7-1 6-4 1-4 6 2 0 3-1 4-4 2-6 5 3 9-2 3 4-2 17 6 13 6-4 5-10 8-14-4-3-6-1-8 0-1-3 1-6 0-10-3 1-7 1-10 0-8-11-5-12-10-14"/><path fill="#2D4E71" d="M170 306c7 8 2 18-6 25-6 11-7 16-18 22 1 7 1 15 0 21 11-21 39-57 30-68"/><path fill="#2F3E4B" d="M96 378c-3 6-7 9-11 14 14-21-16 14-22 16 5-5 12-10 19-17-8 9-13 17-18 25 1 8-6 22 3 23 16-3-3 1 10-9-3 0-4 5-8 4 1-10 3-9-1-13 10-15 22-26 27-40"/><path fill="#D4D0BD" d="M340 259c-2 5-4 11-8 15 3 1 5-6 7-8 6 5 4 10 5 16-2 10-5 7-7 11-7-3-7-10-5-14-1 2-2 4-5 5-4 11-1 23-1 33 9-1 12-16 15-23 0-5 2-7 1-10 4-8 0-15-1-22"/><path fill="#4F7D9C" d="M162 231c-8 6-12 3-21 7-3 5-2 7-3 10 7 4 15 4 20 3 6-7 5-13 5-20"/><path fill="#6998AB" d="M118 344c-5 5-12 10-17 15-3 7 0 9 1 11 7 4 13 1 16-3 1-9 3-16 0-21"/><path fill="#37536C" d="M499 252c-1 9-5 16-9 24-4-5-5-10-5-14-4 5-5-7-7-5 1 16-2 15 0 28 1-2 2-3 3-4 1 3 3 5 4 7 3-2 5-3 7-7 4-11 10-22 10-27"/><path fill="#315172" d="M170 271c-10 0-11 21-19 17 7 0 4 9 10 12 5-7 11-13 13-21 2-5 1-8-3-9"/><path fill="#3A5770" d="M214 141c-2 4-5 7-6 11-4 6-5 11-6 16-4 1-3-2-4-4-1 4 0 9 0 12 1 18 7 24 9 30 4 1 6-9 5-14 2 1 4-1 8 1-11-9-7-10-15-10-1-8-5-17 1-25 1 5 3 7 4 9-1-3-4-7-2-14 1-5 7-6 6-10"/><path fill="#555F59" d="M141 419c-11 16-26 30-34 47 10-1 17-4 23-10-4-3-3-9-1-12 4-10 9-19 10-23"/><path fill="#7FCEEB" d="M184 192c-6 5-9 13-7 22 1 7 7 8 11 7 2-10 3-21-1-28"/><path fill="#3B71A1" d="M134 256c-8 5-14 16-20 23 2 0 4 7 8 8 5-10 19-21 15-32"/><path fill="#907F71" d="M319 201c-7-4-16 14-17 4 5 7-6 14-4 22 8-5 11 2 13-7 4 1 3 4 4 5 4-3 2-18 3-25"/><path fill="#FAFEFB" d="M394 193c-6 9-2 15 2 22 6 8 11 4 16 2 6-7-9-7-1-13-2-6-4 2-8 2-3-5-1-14-8-12"/><path fill="#57625C" d="M84 438c-13 8-15 23-20 35 11 0 18-6 25-11-3 0-8 1-11-1 0-9 3-15 6-21"/><path fill="#545C57" d="M180 398c-7 22-16 43-18 66 12-3 16-18 24-27-6 5-10 16-17 17 1-19 9-36 11-54"/><path fill="#6A9AAF" d="M143 355c-4 2-8 3-10 7-3 6-6 13 1 16 4 0 7 2 9 0 1-9 4-17 2-24"/><path fill="#84776E" d="M303 169c3 3-8 5-8 11-6 6 8 1 11 0-4 5-4 4-12 8-6 7-4 16-10 21 4 1 6 2 8 3 2-5 3-9 5-12 2 2 0 5 1 6-1-7 3-15 11-17-2 0-3 1-4 2 0-5 0-7 2-9-4-2-7 1-11 1 1-6 11-11 9-13"/><path fill="#92C7DA" d="M230 167c18 15 4 37 10 52 2-11 10-17 7-28-3-9-8-16-13-22"/><path fill="#CFCAB4" d="M391 310c-3 4-7 8-8 13-1 8 1 14 4 18 4-5 8-10 9-15 1-7-2-10-3-14"/><path fill="#8B7B6D" d="M328 231c-3 6-7 8-12 11-4 10-3 23-2 33 0-9 0-18 2-26 4-3 7-5 10-7 4 2 3 6 4 8 6-2 6-4 9-6 3 1 2 4 3 4 7-5-4-18-5-5-2-4-6-4-7-11"/><path fill="#85C4DF" d="M205 164c-2 5 1 11 3 14 8 9 15 15 19 23 2-4 8-5 3-9-6-12-18-15-23-26"/><path fill="#1E3557" d="M205 277c-1 1-3 3-3 5-3 6-5 10-4 15-3-3-3 1-6 0-8 11-15 21-21 35l-1 2h1l-1-2c6-6 2 5 2 6 7-12 11-10 14-29 10-4 0 12 1 16 6-6 2-21 10-24 4-5 1-15 5-18 5-1 5 4 10 6-5-2-6-7-8-10"/><path fill="#8B7D71" d="M352 171c5 11-11 8-17 14-4 6 6-5 9 1 5 3 2 7 4 9-2 10-7 16-13 20 5-5 9-3 11-9 3 5 5 8 7 11 0-6 3-21-6-15 5-8 5-18 15-17-7-3-9-11-7-13"/><path fill="#76C7EB" d="M461 230c2 4 6 8 10 13-2 2-5-4-9-6 2 13 7 23 14 33 0-7 1-14-1-20-4-9-4-17-12-20"/><path fill="#979487" d="M328 335c1 3-2 5-3 3-2 5 3 1 6 15 2 2 1-7 5-5-2 5 2 6-3 9 5-3 10-7 14-12-13-15-2-2-17-11"/><path fill="#D1D0C4" d="M318 108c6 3-2 4 7 9-16-8-28-8-4 0-3 3-4 2-5 3-5 1-6 2-8 3 24 8 45 16 60 22l3 2h1l2 1 2 1c4-1 9-1 12-4 2-4 0-7 2-9-2 9-11 9-18 10-18-13-40-13-57-24 5-3 10-4 14-1-9-8 4-6-11-13"/><path fill="#8B877E" d="M331 331c-3 1-5 2-8 3-1 11-1 20 2 27 9-2 9-8 10-13-2 1 0 7-6 4-3 0-4-12-1-15 12 1 10-1 19 3 0 8-7 13-11 17 22-14 12-32 10-21-3-1-7-2-10-5h-3"/><path fill="#7C4523" d="M354 171c32 7-20 6 52 22-2 0-2 4-3 9 2-1 3-2 4-3 0-8-7-5-8-12-23-8-34-20-43-14"/><path fill="#A89E8C" d="M296 247h-3c-3 6 2 13-2 18 5 1 8-1 12-3 14-19 3-8-5-15"/><path fill="#85766E" d="M381 206c-1 5-3 11-4 17 5 2 9 16 9 8 5 6-1 6 1 11 2-5 3-5 7-1 3-16-11-23-14-33"/><path fill="#655D5D" d="M396 231c-5 12-5 12 1 37 10-5 6-10 9-18-6-4-8-11-12-18"/><path fill="#343E46" d="M215 388c0 13-3 28-5 42 10-4 11-23 16-32-2-1-3 4-6 5-3-4-4-8-5-13"/><path fill="#363E44" d="M388 352c-7 5-13 15-26 24 4-5 11-4 12-5 2 4-5 5-1 10h-2l1-1c10-9 29-24 17-28"/><path fill="#2C4C70" d="M188 306c-2 12-10 26-8 39 9-8 10-16 14-23-3-3-1-8-2-12 0 6-2 12-5 18 0-8 2-14 4-20"/><path fill="#4077A4" d="M434 184c10 8 14 21 27 24 1-6-1-10-3-14-9-4-16-7-22-10"/><path fill="#243855" d="M274 243c1 3 5 7 12 3-8 5-10 12-8 20-6-5-10-12-17-15-1 10 7 19 11 29 5-7 5-13 6-25 21-13 6-8-4-11"/><path fill="#2F5275" d="M114 253c-7 4-6 11-14 11 13-6-4 10 6 4 0 5-2 8-4 12 1 1 5 0 3 4-5-8 15-10 15-20-1-1-1-5 0-7-3 3-5 4-7 6 1-3-2-7 0-8"/><path fill="#373E4E" d="M272 205c0 13-11 3-15 13 1 16 7 9 12 14l-1 3c2 2 1 3 3 4-2-1-1-2-1-3 3-6 7-8 12-8-4 1-9 2-13-2 1-7-3-14 4-19"/><path fill="#D3D0C1" d="M385 284c-2 4-5 8-8 12-6 1-4-4-6-6 1 3 2 6 3 8v1l2 1v-1l2-2 1-1 1 2c-5 5-8 13-6 21 6-7 7-14 9-21 3-1 4 3 7 5 1-1 5-1 3-4 1-4 1-4 2-1-1-8-7-3-10-5-1-3-1-5-2-8"/><path fill="#B3B1AC" d="M377 487c7-1 7 7 7 12-10-10-13 6-19 4 2-6-2-10-2-13 5-1 11 2 12-1"/><path fill="#6EA0B4" d="M85 339c-5 8-12 16-18 23 9 0 15-3 20-10 2-5-1-7 0-11"/><path fill="#6FC0EB" d="M154 292c-6 7-11 14-15 22 6 2 12-3 16-7 1-6 2-11-1-14"/><path fill="#33587D" d="M179 277c-2 4-2 8-5 11 1-2 3-1 4-1 1 5 0 6-1 7 2-2 3-5 6-6 1 11 2 6 6 13 3-5 5-10 6-17-2 0-4 2-5 3 1-14-13 4-7-11"/><path fill="#75C2EA" d="M209 224c-3 2-7 6-8 10 4 6 6 10 10 10 5-5 4-15 0-19"/><path fill="#ABEFF7" d="M163 154c5-1 7 17 4 28-7-5-7-18-5-26"/><path fill="#323B41" d="M413 339c-6 9-12 31-16 40 5-2 13-5 14-10 4-6-3-5-3-14 0-5 2-12 5-15"/><path fill="#1C3251" d="M254 261c4-2 7 5 6 7-4 7-8 9-13 9-2-1-6-3-4-5 4-5 6-7 10-9"/><path fill="#E1E3D9" d="M340 265c-2 6-7 10-8 16-1 5 1 10 3 11 3-5 6 0 6-8 1-7 2-11 0-17"/><path fill="#78C9EB" d="M491 238c0 11-7 23-3 34 3-5 5-10 8-14 1-9-1-14-3-19"/><path fill="#71C2EC" d="M148 280c-5 11-14 21-13 34 5-7 10-14 14-20 1-6-1-8 0-12"/><path fill="#454D4C" d="M376 371c-6 1-19 6-25 21 10-1 21-11 22-15 6-2 3-1 2 0-8-3 3-5 1-5"/><path fill="#D7D0AE" d="M405 257c5 10 9 20 13 30 1-5 3-11 2-18-4-12-7-5-13-10"/><path fill="#DDA44A" d="M324 448c-6 15-4 10-1 22 5-1 10 5 18 3-3-5-9-2-11-8-3-6-5-10-5-15"/><path fill="#A49D8E" d="M303 282c-3 1-5 2-8 3-1 8-3 13-2 19 5 0 8-5 10-9 1-6 0-9 1-12"/><path fill="#6FBCE5" d="M139 285c-4 2-8 4-14 3-6 7-9 12-14 17 11-1 19-12 28-19"/><path fill="#14243C" d="M147 280c-10 10-18 18-29 27 4-3 8-4 10-1-7 14-23 27-23 37 10-25 31-37 39-62"/><path fill="#70BBE4" d="M112 282c-3 8-9 14-7 24 6-4 10-9 13-15-2-1-3-5-4-6"/><path fill="#8BC5D9" d="M219 145c-3 2-9 4-8 9 0 8 0 16 6 19-2-9 1-19 2-27"/><path fill="#7AC3E8" d="M196 197c-1 7 1 13 1 20 5 2 6 1 8-1 0-7-1-15-7-19"/><path fill="#2C4E70" d="M179 167c-2 1-4 8-7 4 0 8 4 15 7 23 6-6 2-17 0-25"/><path fill="#96C8D9" d="M247 211c-2 7-1 20 7 24 3-7-1-16-5-23"/><path fill="#E5E8E2" d="M369 217c-1 6-1 9 3 14 4 4 9 11 11 8 1-9-8-14-13-19"/><path fill="#38393E" d="M292 424c-6 5-12-3-11 8 0-6 7-5 10-8 3 3 4 5 6 4 5 18 7-7 8 18 5-1 8 0 10-4s2-6 3-8c0 1-2 1-2 2-12-10-16-2-21-12"/><path fill="#2F4C68" d="M143 169c-3 12 4 23 7 31-1-8-2-26-5-30"/><path fill="#5E5859" d="M338 143c-12-1-28 0-4 10-4-1-6-2-9-3 2-1 12-7 13-8 10 2 18 9 26 12 13 4 20-5 29-5-2 0-21 4-24 4-12-2-17-10-26-12h-3"/><path fill="#FCFEFE" d="M155 160c-6 0-4 11-4 18 1 8 2 13 5 17 0-11 0-24-1-35"/><path fill="#1D3454" d="M255 262c-4 3-13 8-10 15 7-1 11-3 13-7s1-6 0-8"/><path fill="#294667" d="M269 331c3 1-1 11 1 15-2 5-5 8-7 8-1-7 2-13-1-17 2-4 4-4 4-6"/><path fill="#697E7A" d="M55 419c-4 4-19 11-19 21 9-5 20-14 22-22"/><path fill="#263C56" d="M217 286c-17 25-11 7-12 12-6 5-3 8-3 10 7-2 18-13 16-20"/><path fill="#6B98AD" d="M245 232c-2 18-13-7-13 16 3 3 9-1 13-3 3-3 3-8 0-10"/><path fill="#DAD3B7" d="M404 264c-2 1-5 0-6 3 1 8 5 13 9 18 2-9 1-16-2-21"/><path fill="#F6E58D" d="M386 155c-1 3 14 11 19 19 3-8-9-11-3-14-5-3-8-5-12-6"/><path fill="#545B60" d="M471 302c-4 4-5 9-8 14-2-3 0-6-1-10-2 14-12 27-18 33 19-30 11 5 30-37"/><path fill="#E4E4DA" d="M326 212c-1 2-2 3-3 5-1 7 1 8 4 13 4-5 9-16 2-18"/><path fill="#2B3F54" d="M469 268c-2 32 12-10 8 33 27-31 23-32 5-9 0-7 4-11 2-17 1 15-2 3-5 10-1-12-6-12-8-15"/><path fill="#FAFAFA" d="M377 488c-2 6-8 3-12 2-1 5 3 8 1 11 6 2 3-5 10-5 3 0 5 2 7 2-1-4 1-9-4-9"/><path fill="#294667" d="M277 358c4-1 2 5 6 3-4 7-8 12-12 14-5-7 3-17 5-14"/><path fill="#83CAE4" d="M188 122c-7 6-8 16-9 25 6-6 13-13 10-24"/><path fill="#1E304B" d="M448 232c-2 2-2 8 0 11 0 4 5 2 4-2 3 2 5 4 4 7 1-10 3-10 4-14-2 4-4 0-10-3"/><path fill="#4C7694" d="M163 250c-2 4-7 5-7 9-1 4 0 7 2 8 4 1 6 0 8 1-4-8 3-10-2-15"/><path fill="#AEF1F8" d="M163 154c-2 8-3 22 2 28 3-9 3-28-1-25"/><path fill="#355470" d="M130 177c-4 17-7-4-6 9 4 5 6 23 9 16 7 2 7-3 5-5-2 0-5-1-7-5-2-6 0-9 0-12"/><path fill="#4B779B" d="M194 263c-2 4-6 9-4 15 7 1 11-1 13-5-1-1-8-4-9-9"/><path fill="#D6CEAC" d="M409 291c2 7-2 11-5 16 1 6 4 9 5 13 4-10 3-18 1-26"/><path fill="#8F8578" d="M400 280c-1 8 1 15 2 22 6-2 6-8 7-12-5-1-5-6-7-7"/><path fill="#6F9EB3" d="M82 340c-5 3-11 3-16 6-2 5-4 9-2 13 7-6 11-13 17-19"/><path fill="#B0A794" d="M310 145c3 2-3 4 3 8 3 4 5 6 7 7-2 1-5 1-7 2 3 0 6-1 10 0l1-2h-1v1l-3-1c-2-1-4-3-6-6 0-4 4-2 6-3 14 5 22 12 34 14-15-3-27-17-42-20"/><path fill="#4679A4" d="M200 241c0 4-3 16 4 17 5-3 6-5 5-9-4-2-5-5-8-8"/><path fill="#203856" d="M122 305c-4 3-8 4-16 6 4-1 6 0 8 2 7 2 3 9 3 8 6-3 25-22 6-7 0-3 4-5 4-8h-1l-1 1h-1"/><path fill="#EEF5F4" d="M139 413c-9 13-20 24-28 36 9-10 20-18 27-34"/><path fill="#A6A090" d="M396 294c-3 18-9 6-13 30 1-6 4-10 8-13 5 2 5 6 7 10 2-7 2-24-2-25"/><path fill="#D1CBB7" d="M385 209c2 12 14 20 16 33 1-13-9-22-14-33"/><path fill="#28476A" d="M275 301c4-2 6 6 8 0 1 7 0 11-1 16-3-8-4-9-9-13"/><path fill="#557689" d="M204 147c0 4-5 5-6 8-2 7 1 9 2 12 3-4 3-3 8-2-1-12-3 3-6-3 1-6 10-18 5-12"/><path fill="#897D75" d="M294 247c-8 3-12 13-8 20 2 1 4 0 6 1 0-5 0-13-1-20"/><path fill="#E8EAE3" d="M353 222c-7 1-9 7-9 13 0 2 1 1 3 5 6-4 4-11 6-16"/><path fill="#5797C6" d="m212 258-2 2c1 3-1 7 3 9 10 0 13-15 0-7"/><path fill="#D7D4C5" d="M367 214c-5 0-8 3-9 8-1 3 1 4 1 5 2-1 3-3 4-5 1 5 2 9 2 12-5-8 0 5-9-5 3 2 6 6 7 9 4-8 4-8 3 1l-2-1 1-1v-3c-1-4 0-6 0-9 4-1 1 4 5 5-3-2-5-15 0-12l-3-3"/><path fill="#314C69" d="M203 283c-3 6-4 11-1 14 4 0 6-3 7-5-2-2-3-9-4-8"/><path fill="#577F95" d="M196 177c0 4 1 6 1 7-1-3-11 9-18 10 11-8 11 9 20 0-1-4 0-10-2-15"/><path fill="#23354D" d="M469 268c3-2 4 5 6 6 0 6-1 9-3 12-4-4-3-10-4-15"/><path fill="#262024" d="M341 143c1 3-3 5-1 10 2-12 12 6 5-6 10 6 8 3 13 6 0 7-5 9-8 8 4 1 8-1 10-5 3 1 5 0 6 1 7 4 7 1 12 2 5-3 5-8 11-8 4 2 8 2 10 5-2-2-6-5-8-5h-5c-4 6-10 6-18 5-10-2-17-9-26-12"/><path fill="#D7D3C2" d="M332 203c-9 5-15 12-14 23 2-3 2-11 8-13 7-2 9 2 7 6 2-6-2-9-2-14"/><path fill="#2A486A" d="M270 332c-3 2-4 0-6 3 0 4 1 10-3 17 11-1 6-13 8-19"/><path fill="#AFA593" d="M336 272c-18 19-6 8-23 30 2 6 6-3 7-4 3 4 4 9 5 13 0-6-1-13-2-19 4-9 8-12 10-17"/><path fill="#365777" d="M208 221c-8 9-10 4-16 10-6 8 8-9 8 3-8 20-12 9-11 24 10-5 4-12 7-14 2 2 2 5 3 8-2-13 1-12 1-16 0-7 4-9 6-13"/><path fill="#2A4E76" d="M168 298c-11 7-14 20-19 31 6-6 6 4 10 4-4-1-4-6-3-9 2-10 6-18 10-25"/><path fill="#385C7C" d="M445 212c10 10 16 13 23 17-2-5-1-7-7-11-6 1-8-1-11-4"/><path fill="#555861" d="M300 305c-3 3-8 6-10 9-3 12 8-3 1 9 2-3 3-4 6-5-2 23-9-1-7 18 5-5 6-11 8-16-1-6 2-9 1-13"/><path fill="#749BA9" d="M249 241c2 6-4 9-1 13 4 2 9-1 10-4-3-3-4-6-6-7"/><path fill="#2A4869" d="M277 358c2 5-10 4-7 15 8-2 15-14 7-14"/><path fill="#8A8376" d="M384 297c-1 10-4 17-3 27 5-7 5-21 12-17l1-3-2 2c-3-2-7-2-9-7"/><path fill="#5A9FCD" d="M215 247c-2 3-2 10 3 11 5-2 6-5 7-6-4-2-5-7-8-5"/><path fill="#D5D1C1" d="M339 214c-11 11 11 10-1 23 7-3 4-13 14-16-2 1-4 1-4 3-7-2-6-6-8-9"/><path fill="#2E5075" d="M427 211c-7 2-6 0-10 4 1 3 18 8 14-4h-2"/><path fill="#ADA595" d="M301 110c-16 0 2 2 5 6-1 3 5 5-1 7 3-3 9-3 12-5-10-4-10-8-15-9"/><path fill="#AEA48F" d="M311 126c0 9 19 7 32 9-9-5-22-2-28-10"/><path fill="#537C99" d="M181 258c-7 2-5 11 3 9 4-1 5-2 6-4-4-1-6-2-7-5"/><path fill="#6DB4DF" d="M228 257c4 4-6 2-2 10 2 4 5 2 7 3 4-3 4-5 3-9-14 3 1-3-7-2"/><path fill="#B5AC9B" d="M308 160c-14 8 8 12-16 23 5-2 9-2 11-4-7-2 14-10 6-18"/><path fill="#305277" d="M266 234c1 8-1 17-4 15 9 3 5 5 11 14 0-13-7-11-6-27"/><path fill="#4C7693" d="M154 218c-6-1-11 8-7 13 7 0 8-8 6-11"/><path fill="#476E84" d="M127 164c-3 6-3 14-3 20 3 2 3-3 6-7 0-4-1-8-1-12"/><path fill="#1C2E49" d="M252 376c5 1-9 16-12 16 3-2 1-10 11-14"/><path fill="#69A8C7" d="M177 139c-3 9-1 19-3 27-3-6-3-13-7-19 6 6 1 17 6 22 4 0 5-2 6-5-1-22 1-17-4-21"/><path fill="#8AC1D5" d="M218 130c-6 7-19 12-21 22 16-29 11 6 22-23"/><path fill="#6BB8E5" d="m211 274-1 2c-1 2-3 4 0 6 9 5 12-14 2-6"/><path fill="#77BEE2" d="M502 215c3 13-5 24 0 37 4-12 2-24 0-34"/><path fill="#4D7793" d="M178 237c0 3-5 5-3 9 3 3 5 3 7 2 2-4 2-8-2-9"/><path fill="#4E7A98" d="M169 243c-3 2-2 7 0 9 2 4 4 4 6 5 5-6-6-6-3-14"/><path fill="#70B5DA" d="M163 203c0 7 2 14 5 19-2-6 6-14-3-18"/><path fill="#BE7E3A" d="M318 481c5-3 5 4 4 6-3 3-8 3-10 2 0-5 2-7 4-6"/><path fill="#1C314D" d="M236 283c3 1 8 9 12 12-8 0-12-5-14-10"/><path fill="#ACA08D" d="M345 240c-1 2 5 4 1 7-4-5-3 5-7-3 4 11 2 25 8 35-2-9-3-18-3-28 5 0 5 5 11 3-8-1-9-8-8-13"/><path fill="#48708D" d="M161 215c-7 1-6 9-3 13 4-2 4 0 6-3 0-3-2-5-4-8"/><path fill="#F9FDFD" d="M175 400c-3 8-11 13-10 21 7 0 8-14 10-18"/><path fill="#56778A" d="M235 220c0 6-5 15-3 23 3-7 12-16 2-23"/><path fill="#54778E" d="M231 246c-2 3-4 9 3 10 3-4 10-2 12-10l2 3-2-3c-6 2-12 7-16 1"/><path fill="#323844" d="M363 156c-19 10 7 7 5 3 3 3 0 5 5 4 2 0 4-2 4-5-6 6-5-2-14 0"/><path fill="#9AD2DF" d="M88 286c-14 10-30 26-43 40 12-16 31-25 44-39"/><path fill="#2E323D" d="M336 402c0 6-8 13-9 15 1 5-5 15-3 20 7-25 5-16 14-35"/><path fill="#DBD6C8" d="M315 265c1 9-1 17 1 24 5-3 9-7 14-10-3 4-7 2-9 5-2-5-4-12-5-16"/><path fill="#315379" d="M435 202c-27 8 5 1 11 8-2-4-6-6-10-7"/><path fill="#D3D0C0" d="M398 136c-1 2-5 5-6 4 1 0 0 2 1 3 6 1 17-4 6-7"/><path fill="#435D6E" d="M102 293c-5 6-15 15-22 21 3-1 6 2 9-3-4-5 21-18 13-17"/><path fill="#172842" d="M133 217c2 7 5 13 8 19 3 0 5-2 7-2-3-21-7 5-15-17"/><path fill="#6AB5E1" d="M223 270c-2 4-1 10 4 11 4-3 4-5 5-8-2 2-5 0-6-1"/><path fill="#3E3E45" d="M342 142c-19 9-16 5 2 18-3-1-5-4-7-5 3-3 0-9 4-11l-1-1"/><path fill="#1F334F" d="M264 320c8 0-2 8-4 9-6-4 0-8 3-8"/><path fill="#2C4D71" d="M276 302c-3 6 8 4 2 15 3-6 6-9 5-14 0 3-4 1-4-1"/><path fill="#CCCBC1" d="M382 265c4 1 8 8 10 12-7 0-9-5-10-10"/><path fill="#7CA4B2" d="M249 203c-5 4-4 10-6 15-6-1-8-7-7-11-2 10 10 17 11 24-4-10-2-20 2-26"/><path fill="#5A8CAB" d="M170 228c-1 5-3 5-2 9 7 1 9-5 5-9"/><path fill="#375977" d="M156 216c-4 3 0 8-2 11-3 6-5 5-8 4v-2l-1 2c21 6 31-10 15-3-6-1-4-6-6-9"/><path fill="#7BA8BA" d="M225 180c2 8 10 10 6 19 3-4 6-4 4-10-4-5-6-4-8-8"/><path fill="#94C3CB" d="M290 130c-3 1-5 2-8 4-3 6-2 9-1 11 1-2 6-11 10-16"/><path fill="#40414D" d="M379 187c1 4 2 9 2 13 4-4 2-4 9-7-4-3-7-3-9-5"/><path fill="#E5E5D9" d="M335 225c1 4 0 9 2 13 0-4 8-12 0-14"/><path fill="#33363F" d="M350 486c0 6 9 6 10 12 3-8-4-11-7-12"/><path fill="#A9EEF7" d="M189 147c5 2 4 8 3 13-4-2-5-5-3-11"/><path fill="#726C6B" d="M295 161c11-1-1 10-5 6-1-3 2-4 3-5"/><path fill="#508FB8" d="M169 298c-3 6-9 13-8 20l-1 1h2c1-8 7-13 8-20"/><path fill="#716767" d="M393 247c7-5 12 5 4 8-1-3-3-4-2-7"/><path fill="#48779C" d="M197 257c-1 3-1 6 1 7 3 3 6 3 8 2 2-8-7-1-8-8"/><path fill="#313640" d="M256 475c-4 2-4 5-5 9 6 2 10-10 7-9"/><path fill="#8ECEE2" d="M240 225c4 5-7 13 2 15 1-9 5-7-1-13"/><path fill="#615F60" d="M291 112c8 8-6 1 4 9-3-5 5 0 6-2 0-6-5-5-8-8"/><path fill="#7C7D73" d="M492 287c-7 4-10 12-14 18 7-4 12-16 15-19"/><path fill="#5F7A80" d="M237 404c2 11 7 22 10 33 0-12-6-21-10-31"/><path fill="#395A7A" d="m168 257-1 2c-3 1 0 4 1 7 3-1 11-10 1-7"/><path fill="#3F3D46" d="M339 307c-4 4-5 9-9 14 1-1 3-2 5-3 3 1 2 3 3 4 1-4 1-9 0-14"/><path fill="#DFE7E1" d="M250 232c-2 9 4 9 9 13 2-8-3-4-8-11"/><path fill="#3C5568" d="M209 348c-1 8 0 15 2 21 3-6-1-12-1-18"/><path fill="#ACA291" d="M389 134c2 3 3 13-3 13-34-3-17-2-37-7 8 4 12 9 22 9 6 1 10-1 14 0 7-2 7-10 4-13"/><path fill="#D0984B" d="M366 473c-10 3 5 10 7 2-2-1-4-2-5-1"/><path fill="#363844" d="M371 307c-4 18 6 18 7 36 6-29-10-7-6-33"/><path fill="#D5D4C7" d="M370 235c2 5 2 14 0 19 1-1 2-3 1-6 3 2 4 3 4 5 0-5-1-8 0-12 6 2 11 6 16 4-4 1-14-2-19-9"/><path fill="#83746C" d="m358 211-1 2c-2 2-2 6 0 8 2-2 2-6 6-8 3-2 4 1 6 1-2-7-8 1-9-4"/><path fill="#7C716E" d="M308 273c-4 2-4 5-6 8 4-3 2 6 3 8 1-5 3-11 5-16"/><path fill="#1F3652" d="M236 283c-3 5 5 12 9 12 0-4-6-6-7-9"/><path fill="#203855" d="M194 198c-4 10 2 20-1 31 5-3-1-19 1-29"/><path fill="#E5F8FB" d="M484 211c1 8 7 13 9 23 0-8-5-15-6-23"/><path fill="#A99C88" d="M312 220c-1 4-5 7-6 11 6 0 9-4 7-10"/><path fill="#726666" d="M289 218c0-2 1-1 3-1-6 6 2 2 0 6-6 0-13-4-5-5"/><path fill="#B3AB99" d="M309 263c-4 2-8 4-8 9 5-1 9-4 9-8"/><path fill="#2A323D" d="M415 327c4 0-3 9-5 10-1-3 1-6 3-8"/><path fill="#192438" d="M267 231c2 13 14 15 8 34 0-8 3-14 10-17-2 0-4 1-7 0-4-6-10-9-11-15"/><path fill="#DEEFF3" d="M192 136c-4 2-5 9-10 10-3 5-3 11-1 14 0-9 5-15 9-23"/><path fill="#1E3959" d="M101 303c-6 4-11 9-16 13 2 3 8-8 12-8 3 0 4 1 5 2-5 11-11 18-17 26 6-7 11-16 18-23-3-3-1-8-5-8"/><path fill="#30343F" d="M384 479c-14 2-5 2 8 14-1-8-9-9-11-13"/><path fill="#867A6E" d="M370 280c-4 4-7 8-11 13 1-2 3-4 5-5 4 4 8 8 6 14 4-8-4-13 0-20"/><path fill="#CED1C9" d="M338 115c-5-2 7 12 12 17-3-6-8-11-10-18"/><path fill="#27415A" d="M203 173c0 13 10 10 19 24 2 4 4 8 1 11 1-1 4-2 4-3-2-3-2-5-3-7-7-9-17-14-20-23"/><path fill="#4B768E" d="M87 336c-7 4-12 15-18 20 7-2 12-16 18-18"/><path fill="#8E7F6F" d="M346 277c-5 14 2 7 1 25 2-5-1-16-1-22"/><path fill="#837A74" d="M318 292c-2 3-4 6-5 8-5 3-5 5-6 9 5 1 7-2 9-5-1 3-3 0-2-2-1-4 2-5 3-7"/><path fill="#656465" d="M313 89c1 2 6 7 11 7 6-3-5-4-9-7"/></svg>