<svg xmlns="http://www.w3.org/2000/svg" width="600" height="600"><path fill="#564D49" d="M427 108c13-2 26 0 37 2 16 5 41 12 36 32 6 7 18 15 20 26 4 10 3 18 2 26-2 10-6 15-13 20 0-8 0-16-4-21-6 0-13-2-18-4-11 10-13 24-21 32-2 13 14 14 15 26-3 8 9 24 7 35-10 10-10 21-15 32-3 15-6 27-9 40-11 9-8 24-16 32-6-11-7-22-7-34-6 16-12 29-19 42-3 3-5 5-8 4-1-2-1-4-2-7-4 4-8 10-14 9-2-2-1-4-2-6-7 11-7 23-10 35 0 7 1 14 7 17 26-4 43 10 64 12 6 2 9 5 10 8 0 5 0 8-2 10-2-5-5-8-7-11-2 4-3 8-7 9-12-2-18-8-30-6 5-1 9 3 11 6 2 5 1 11-2 13 0-3-4-6-3-8-2 6-8 5-14 4-8-4-5-14-14-15-12-3-10 12-17 14-5-3-10-1-10-5-6-5-4-12-2-15-4 6-11 7-14 2 0 7 9 8 10 13 1 6 1 10-3 12-4 0-1-5-3-7-5 1-9 3-11 0-7-8-14-12-24-13-2 5-12 8-13 15-3-7-11-10-10-18-3 2-4 5-8 6-5 2-9 1-11-2-5 2-4 7-5 11-6-5-6-12-2-15 10-6 15-11 23-16 1-6-1-9-1-14-12-4-18-15-22-26-3 3-3 6-6 7-6-5-7-11-10-16-2-1-5 4-7 5-5-11-11-12-18-13-19 23-41 45-66 62-1-8 4-17 7-25-14 11-31 24-46 36-3-7 3-14 6-21-10 6-21 10-33 12-5-2 3-7 5-10-5 1-10 3-14 4 13-15 29-28 44-40-9 6-20 12-29 18-12 3-24 5-33 5 21-16 42-27 64-41-11 6-24 12-37 16 16-13 32-22 44-30 21-32 34-72 58-105 26-33 55-65 88-89 14-10 28-13 43-16 12-14 31-29 43-40 12-8 23-14 34-19 6 0 9-2 13-1"/><path fill="#1D212B" d="M313 282c-7 7-21 12-29 14-7-2-12-2-15-5s1-3 2-5c-18 10-26 10-41 24-8 0-14 5-19 0 4 3 5 9 8 12-6 5-17 9-25 13 3 10-12 9-9 15 3 7 17 4 24 5-14 16-19 6-24 12 2 3 5 5 9 8 9-7 15-13 22-18 3 3 3 7 5 10 8 4 16 7 23 5 5 10-8 13-5 17 5 0 15-12 26-7-1 10 18 0 19 10 0-1-1-5 2-5 15 5 23 2 32 8 0-2 0-7-2-10 5 4 5 10 3 14 4-4 10-11 12-15 0-6 4-10 2-13-3 2-10 3-12-1 4-3 4 1 7-1 2-6 10-14 6-20-19 5-21 15-43 22 11 2-7 9-3 10-9 0-10-1-16-1 7-21 5-20 10-45-1 2-3 6-5 7-6-4-6-8-5-13 4-4 6-8 10-10-11-4-13-2-24-9 9 1 12 3 26 6 9-8 16-5 34-19-4 4-7 8-11 11-5 8-6 14-6 21 13-14 42-40 10-46"/><path fill="#BCB2AA" d="M463 176c-4 8-16 7-27 17-5 5-8 10-10 15-2-2-1-5 0-7-19 0-37 2-56 3 2 6 10 6 15 5 0 3-2 4-6 3 2 2 3 3 2 4 7 1 12 0 16-3 0 2-2 4-3 6 22-7 28 9 42-4-5 2-4 9-5 15 2 1 4 0 6 1 2-5 2-10 1-13-1 10 11 2 10 8 0 8 0 13-6 15-5 4-5 2-5-1-1 3 0 7 0 12 1 6 6-2 7 5l2 1 1-2c3-1 2-4 2-7 1 3 1 8-4 7-3-3-4-7-3-13 8-2 9-23 24-29-12-1-10-4-24-3 22-2 47-17 18-34"/><path fill="#101421" d="M332 293c-10 13-13 29-21 43 2-2 2-5 4-7 1 2 2 3 5 4-2 5-1 10-3 13-4 8-10 1-16 4-10 14-9 0-18 21-5-4-4-8-6-12 1 5-2 10-3 16 29-4 39-19 59-27 7 7-2 14-2 21-2 3-8 1-10-2 0 7 9 5 12 2 1 10-3 18-5 24 14-17 13-34 28-47 3 4 9 3 14 2 0-2-9-12-8-14 6-8 0-11-5-12-3 3-6 6-9 7-7-1-8-8-16-6-2-3-4-7-2-9 3-6 8-7 12-9-1-7-5 0-10-3-1-3-3-6 0-8"/><path fill="#3B4B58" d="M383 133c-7 9-43 16-20 30-3 1-4 2-6 3l2 3-1-3c1-1 4-3 7-1 12 9 20 17 18 23 6 1 11 9 16 9 10 8 29-1 31 0 2-4 4-8 7-13-2 12-16 2-24 5-9-3-16-7-20-13 3-12 12-17 11-30 7-2 9 8 13 11 0-4 0-10-1-13 2-3 5-4 8-5-4 2-9 2-12 5-11-4-17-10-25-12"/><path fill="#11121E" d="M249 340c-3 5-12 6-18 3-5 5-10 8-14 12-8 8-14 14-21 19-6-1-10-4-14-6 7-2 12-3 18-4-7 1-13 2-21 1-1-3-3-5-4-7-5 8-9 23-19 31 13 0 14-6 24 1 8-8 14-12 21-18-1 7-3 15-7 20 17 4 16-1 27 4 9-5 14-9 21-12 2-5 1-8 1-11-8 1-14-1-20-4-4-4-5-8-6-11 1-4 3-4 5-5 2 5 6 9 8 13 5 0 13 0 15 3 1-10 4-21 7-30"/><path fill="#0E1320" d="M460 249c-2 19-12 35-14 54-5 13-12 23-18 34 4 0 6-8 9-13 7-4 15-5 21-4 7-5 12-5 15-11-3-16 2-25 6-38-15-7-8-19-20-17"/><path fill="#4A211C" d="M200 373c-9 8-16 22-29 28 0 5 1 7 0 11-8 12-27 20-28 29-4 3-7 7-5 10 13-21 138-69 59-54-6-9-2-17 2-21"/><path fill="#54312E" d="M459 323c-14-2-18 15-33 18-3 12-15 20-21 29-4 1-6 1-9 2 5-2 6-7 7-12-6 2-11 5-8 11-5-1-8-2-13 1-3 7-4 13-5 19 5 2 10-1 11-6 8 4-1 2 2 8 6-5 1-8 0-11 6 2 9 7 18 9 7-8 8-17 11-26 16-6 14-13 29-19 3-7 2-15 8-19 3 0 2 3 5 2 9-7 10-7 1 1-4-1-5-4-4-6"/><path fill="#734732" d="M395 268c-3 2-4 6-6 8-7 2-11-1-11-6-8 5-12 17-20 12 1 8 2 12 6 17-1 6-7 10-4 16 5 1 9 3 11-1 0-7 2-11 5-16 5-1 9 1 12-1-1 10-7 15-2 23 5 1 6 2 8 3 7-4 12-23 14-16-13-16-3-19-16-37"/><path fill="#2B2F34" d="M256 379c-25 20 11 16 10 29 10-4 2-11 2-17 13 17 10 10 19 37 3-7 9-5 7-11-3-1-5-1-8-2 3-1 8-1 10-2-8-5-12-11-12-17 3 5 7 9 11 12 5-1 13 7 19 0-7 0 4-10 1-14-7-2-16-2-29-6-4 0 2 4-1 7-1-12-23-2-18-13-4-2-8 4-9 2"/><path fill="#2C2D34" d="M316 246c-2 5 4 14-2 18-8 3-14 0-17-5-1 6-2 12-1 16-4 2-7 2-9-1-10 11-13 5-19 17 5 3 13 1 18 4 11-4 20-10 28-13 5 4 16 8 11 16 12-25 17-56-13-10 2-16 12-15 13-27-3-12-9 2-8-16"/><path d="M332 409c-3 18-27 10-16 33 19 6 41 2 56 14-3-10-8-19-12-28-7 5-9-6-19 8-2-11 0-19-7-23"/><path fill="#404B53" d="M365 201c1 4 4 9-3 10 4 2 6-2 8 0-4 6-5 12-11 13-2 4 2 4 2 6 8 1 15 12 22 10 11 6 4 9 2 6 9 1 9-8 22-13 0 6-8 9-5 18 6-4 8-9 12-13 13-12-11-5-2-18-13-2-10 13-22 16-7-12-9-19-13-24-6-3-12-5-11-10"/><path fill="#30282C" d="M191 381c-2 4-6 5-9 8-13-7-17 6-30 0-22 14-42 28-63 41 13 0 30-7 53-25 2 2 9 2 14 2 6-4 23-9 34-24"/><path fill="#BBE9E2" d="M434 108c-52 6 17 6 22 21 16 2 25 0 33-6-8-7-18-12-29-13-12-1-18-1-27-2"/><path fill="#23202A" d="M356 255c-2 2-7 2-10 1-2 4 2 4 4 5-2 2-3 0-5 0-5 8-2 15-3 21-2 1-3 3-4 3-1 4 2 6 7 6-1 5-6 9-3 13-4 3-9 5-11 11 0 10 14 6 13 13 11-3 8-7 14-8-5-9-1-5-14-9 0-11 7 0 10-2-3-1-9-1-7-7 2-5 6-7 0-7 6-2 7 0 11-1-6-3 1-15-7-14-1-10 6-19 6-23"/><path fill="#48231E" d="M312 302c-11 11-28 11-38 26-1 5-2 9 1 11 6-1 9-6 11-10 1 6-7 11-5 22-1 7-2 12 0 17 14-21 12-46 29-65"/><path fill="#2F4C5B" d="M248 235c-2 1-5 1-6 4-3 5-4 14 2 14-7 11-14 18-19 27 10-3 23-8 27-10 9-5 13-12 18-17-10 3-12-6-18-5 3-8 7-15-3-12"/><path fill="#303136" d="M383 319c-3 1-5 3-6 6 11 5-2 17 4 27-8 6-13 23-20 33 9-4 13-11 15-17 4-1 3 1 4 2-4-6 10-14 3-18 9-8 21-3 24-3 2-9-2-13 4-14-6 4-10 6-15 8 1-6-3-12-2-17-3-6-7-2-9-7"/><path fill="#6D4836" d="M263 262c-3 8-12 10-17 13-8 3-14 5-20 8-4 4-6 6-8 9 4 5 10 5 12 2 0-3 0-6 2-9 3 2-1 4 1 6 6 1 8-1 11-2-2-3 0-9 1-12 2 2 0 4 0 6 8 0 21 1 22 5 3-3 6-4 5-7-1-6 3-19-9-16"/><path fill="#EFE2C3" d="M473 212c-11 0-12 12-19 14-7 9 1 15-10 20 0 4-1 11 3 10-3 5-4-4-7 0-3 10-9 13-7 22 8-6 15-14 20-11 3-15 8-28 10-43 5-5 5-9 9-12"/><path fill="#17131E" d="M251 335c1 4 19 1 0 7-2 10-4 19-6 28-2-3-10-3-13-2-7-4-8-18-12-14 2-6 14-11 6-16 5 2 7 4 9 4 9-1 11 0 13-4"/><path fill="#1E212B" d="M407 307c-3 5-7 16-13 17-4 3-6 6-9 8-5 2-11-1-10-4-6 5-11-3-13 3 3 4 3 10 10 14-4 6-4 12-8 20 18-9 9-13 19-33 5-2 7-5 8-8 3 6 7 14 5 19 8-3 14-11 18-18-1-1-3 0-5-1 0-7-3-11-4-15"/><path fill="#050E1E" d="M299 211c0 2 2 3 1 6-9 3-15 10-18 17s-4 16 4 20c3 0 14 5 18-1 1-4 0-5-1-7-4 0-7 1-11 0-2-5-5-9-7-14 5-4 16-3 14-12 7 3 13 6 19 8 1-4 2-21-2-9-6-5-10-8-14-9"/><path fill="#312D35" d="M347 241c1 5 0 9-1 13 3 2 8 2 10 0 8 7-5 8-2 16 4 1 6 5 8 2 1 4 3 9-1 9 11-3 3-10 11-16 3 1 6-1 8 0 0 3-2 9 1 10 10 1 11-9 16-9-1 0-8 3-11-3-1-6 2-9 3-13-8 2-16 12-28 9-6-3-1-5-1-7-7 2-11-4-10-11"/><path fill="#944F40" d="M402 117c-3 5-22 7-4 10-4 1-11 1-7 3 6 5 12 7 17 11 9-1 14-5 21-5-5-6 1-9-24-18h1-1"/><path fill="#42636E" d="M403 160c-11 6-13 22 5 25 9 3 17 3 25 4 3 1 0 2 1 4 2 0 2-4 4-4-1-1-2-1-3-1 3-11-19-7-23-16-6-3-8-6-9-10"/><path fill="#915D39" d="M410 275c-1 8-9 12-11 19 16 2 3 21 18 20 2-3 3-5 4-7 5-1 4 2 5 3 4-3 4-9 3-12-3 2 0 7-3 8-6-5-8-9-13-7 1-3 2-6 1-9 7-1-2 8 7 6 5-4 4-8 5-13 1 3-3 6-6 3-6-1 0-6-1-9 1 6-4 1-8 1"/><path fill="#F6F2C9" d="M461 337c-2 5-4 9-7 14-4 0-3-2-4-3-4 0-5 3-8 4-1 7 0 23 5 31 10-14 7-23 17-31 2-10 1-8-4-14"/><path fill="#6FACBD" d="M302 181c-21 5 5 14 10 20 12-1 17 0 20-7-7 0-11-13-22-12-3-1-5-1-8-2"/><path fill="#859C85" d="M407 114c-9 2 17 10 22 16 18 3 20 8 30 1-7-6-15-10-26-12-9-3-16-4-23-5"/><path fill="#404A50" d="M220 259c-6 6-12 13-16 20 3 1 5 3 4 5-1 7-4 10-5 14-5 5-14 3-16 9 11 0 24-7 32-19-6-8 0-19 4-27"/><path fill="#9C8F8E" d="M483 145c0 3-3 0-3 2l-1 2h-1v-1c-11 7-6 18-9 21 5 2 11 4 16 5 4-3 6-4 9-5 3-9-9-14-13-19 0-5 4-2 5-4"/><path fill="#966842" d="M209 301c-8 5-13 7-23 9-4 9-10 15-12 22 12-4 22-10 30-14 6-5 2-11 3-16"/><path fill="#7FC1BE" d="M406 146c-1 7-4 14 1 21 8 8 18 12 28 13-7-13-22-21-27-35"/><path fill="#5A6867" d="M342 184c10 2 11 11 19 7 0 4-6 6 0 10 10 2 25 1 34-1-2-4-6-6-9-10-21 2-15-5-44-5"/><path fill="#2C2C33" d="M367 402c-8 1-11 8-10 23 11-2 12 16 25 6-1-3 2-7 2-11-1 2-5 5-8 9-6-7-10 1-12-9 2-3 9-3 9 4 4-5 10-8 8-12-2 2-3 3-4 5-5-20-7-5-8-15"/><path fill="#4D6677" d="M301 221c-2 5 2 5 5 7-7-3-12 4-18 4-1 5 2 7 3 10 2-1 1-3 2-4 2 4 9 4 10 1 1 7-8 1-9 4 5 1 9 0 12 2 7-5 5-9 2-12 7 1 3 11 7 2 1 9-2 14-8 18-5 5-12 5-17 3 4 3 11 4 16 1 7-6 10-11 12-17 2-13-9-13-15-18"/><path fill="#201923" d="M153 416c-4 3-7 6-11 9-2-3-12 0-17 1-10 6-21 16-28 21 14-3 27-5 39-15-1-1 3-4 4-4 5-5 8-8 10-11"/><path fill="#26252B" d="M380 365c1 4-4 10-13 20-8 2-10 4-13 4-9 11 3 11 2 24 1-7 6-10 8-10 7-6 8 0 5 3 5-17 8-26 13-41"/><path fill="#6F4B3D" d="M307 432c-2 1-7 1-7 4 3 4-1 16 8 12-10 4-6 14-20 10 9 6-9 9 0 13 11 1 10-7 14-8 3 1 0 13 6 11 3-9-6-8 0-24 7-5 0-14 1-17"/><path fill="#0B101D" d="M370 351c-2 2-6 0-8 1-4 4-5 7-7 9-2 6 2 8 4 8-2 6-3 10-7 14-7 5-7-6-8-4-1 6-3 10 1 11 2-7 12 2 14-6 3-5 32-50 7-15-3-7 2-12 2-17"/><path fill="#4B3631" d="M232 290c5 5-5 7-7 8-4-1-7-6-8-5-4 6-13 11-8 16 1 4-1 5-2 7 3 2 4 0 6 1 0-4-2-5-4-6 11 0 21-3 28-7-2 1-3 2-5 2 8-12 9-15 0-13"/><path fill="#643F37" d="M328 458c-5-1-5 7-10 2-8 10-4 23 4 4 13-3 20 14 32 18-5-15-8-18-21-23-1 0-2-3-3 1"/><path fill="#F7F2D6" d="M441 224c-3 5-6 10-4 15-1-3-9 4-9-2 0 8-8 14-5 22 10 3 12-11 12-17 4 2 8-2 10-5-1-6 6-13-2-13"/><path fill="#2D3340" d="M496 169c-18 8 3 6-7 15 2 2 6 3 7 6-5-4 2-8 1-10 8 5 13 11 15 18 1-1 2-3 3-5 3 7 2-1 6 0-1-2-1-5 0-7-11-10-16-5-24-15"/><path fill="#101622" d="M218 406c-8 3-16 7-24 10-10 6-15 11-17 20 2-7 4-7 5-9 16-4 11 8 12 4 12-7 18-16 23-25"/><path fill="#F4C756" d="M451 267c-9 4-13 11-15 23-3 0-2-3-6-1 1 4 3 6 0 13 4-3 5-6 4-11 5 0 6-1 5-4 5 13-4 6-4 16 5-1 6-5 10-7-1-11 11-22 7-29"/><path fill="#69463E" d="M410 452c-9 2-1 6 3 9-1 3-2 2-2 4 20-2 26 2 35 4 0-3-1-6 1-8-13-3-30-7-36-7"/><path fill="#C37E3B" d="M436 255c-8 8-15 12-18 31 14 2 3-5 19 1 3-15-5-1-6-12 0-9 7-13 6-20"/><path fill="#F1EBE0" d="M462 132c6 4 7 9 10 15 5-2 13 0 14-5 5 5 11 5 13 9 4-4 1-8-4-9-12 0-17-16-31-10"/><path fill="#57717F" d="M320 215c4 2-3 13 2 18 2 2 2 0 3-1 5 3 8 5 6 9-8 12 0 32-19 37 6-1 10-2 13-5 4-11 7-21 9-30-4-9-5-15-4-25-3 5-6-1-8-2"/><path fill="#704B3F" d="M360 215c-8 2-24-1-14 10 2 6 2 10 1 14 4 2 7 0 9 2h3l1 2h2c0 2-4 8 2 6 4-3 8-8 12-7 1-5-4-3-6-5-4 2-6 4-8 4h-4v1l-1-2c-11-10-1-7-12-13 2-6 14-6 13-2 3-2 6-5 9-10-1 3-4 3-5 0"/><path fill="#F8F1BE" d="M326 208c2 4 7 6 8 10-2 15 5 30-4 42 5-11 12-21 14-33-2-10-10-17-17-18"/><path fill="#1F242D" d="M342 382c-10 3-8 11-17 14-3 5-3 9-7 11 2 4-1 7 1 9 8-1 2-12 7-17 3 0 9-11 10-3 1-3 4-5 4-8 2 8-4 13-5 20 3 4 4 9 7 7 3-11 3-19 0-28l-1-1 1-1v-1"/><path fill="#2B2F3B" d="M351 156c-5 6-11 12-18 15 22 10 39 5 20-16"/><path fill="#273339" d="M184 347c-10 1-8 11-5 16 12 0 24 2 30-8h-21c-4-2-4-4-5-7"/><path fill="#322A2B" d="M169 405c-13 6-20 16-31 26 12 1 20-7 27-15 7-3 2-6 4-9"/><path fill="#654235" d="M274 255c0 4-3 8 0 15 3 2 7-2 10-3-11 8-3 8-4 12 5-2 5-7 6-11 0 5 3-2 6 2 2-4 0-8 2-10-7 0-12-4-19-3"/><path fill="#F8F2BE" d="M433 365c-7 5-10 11-17 16-4 7-3 10-2 16 10 0 16-22 21-32"/><path fill="#482B29" d="M360 290c1 9-11 4-11 11-1 6 5 7 9 6-27-2 0 5 1 12 3-2 7-2 9-1 8-6 10 7 14-1 3-7-8 5-11-7 1 3 1 5-2 7-4 0-8 0-10-2-1-4-1-5-1-6 3-4 4-6 6-8-2-4-5-6-4-9"/><path fill="#536565" d="M358 165c6 7 6 10 4 17 8 4 14 4 19 6-2-5-3-11-6-15-6-3-9-7-12-8"/><path fill="#785138" d="M207 317c-8 6-20 11-32 16 12 5 54-12 34-16"/><path fill="#090C19" d="M146 431c-15 5-30 11-43 23 17-2 31-10 44-21"/><path fill="#3B3238" d="M403 255c-6 9 5 8 1 16-1 4-4 4-6 5-2 2 0 5-1 7 3 3 5 2 6 3 4-12 23-30 0-29"/><path fill="#3F444E" d="M502 151c-1 2 1 3-1 4-2 6-3 10-6 14 9 10 14 7 25 15 2 3 2 5 1 6 1-5 1-9-2-13-4 4-14-15-17-19 1-9 7 3 9 0-3-3-5-4-7-5"/><path fill="#835E4C" d="M331 449c7 10 17 7 27 16 8 1 8-6 12-6-10-2-21-11-35-8"/><path fill="#11111C" d="M146 408c-7 5-15 11-22 16 7 0 17-4 18 1 5-9 27-17 4-17"/><path fill="#2F333E" d="M475 252c2 9 8 25-1 35 4 3 3 3 7 4 4-3 6-7 6-10-2-10-5-29-12-26"/><path fill="#522924" d="M175 334c-3 6-5 11-9 17 9 0 16-5 24-8-11-10-2-7-11-9"/><path fill="#E39570" d="M293 188c-24 14 5 19 16 13l-15-12"/><path fill="#86867D" d="M411 339c-2 10-6 19-9 28 8-5 15-12 19-19-3-4-6-6-8-8"/><path fill="#4E6370" d="M347 238c-1 2-1 4-1 6-3-5-5-3-7 1-3 15-3 31-7 44 8-15 13-32 15-49"/><path fill="#B3ACA4" d="M344 190c-13 1-4 8 2 8-2 3-6 4-6 7 8 2 13-2 18-4-3-6 4-7-8-9-2-2-4-1-5-2"/><path fill="#4F6F7F" d="M303 204c-1 1-3 0-4 1-8 20-20 6-19 25 5 0 8-13 18-12 0-4 0-7 1-9 7 0 11 3 15 6 6-8-6-6-9-12"/><path fill="#1F1C25" d="M175 349c-2 6-17 24-24 36 7-5 12-4 12-4 6-18 16-18 13-31"/><path fill="#C57057" d="M273 205c-19 10 4 10 11 9 5-3 7-5 9-8h-19"/><path fill="#1C1C27" d="M318 322c-2 14-13 14-17 25 6 0 11 5 15 2 7-13-2-16 1-24"/><path fill="#030B1A" d="M264 234c1 6-6 4-7 8 2 6 6 10 9 11 6-2 7-4 9-6 0-6-8-6-9-12"/><path fill="#312428" d="M270 330c4 0 0 9 4 11-2 4-3 8-8 11-7-5-2-11-4-15 1-3 7-9 6-4"/><path fill="#6D4634" d="M381 433c-19 9 6 3-10 12 8-1-1 7 5 10 6 1 14-2 14-6-3 0-7-4-8-1-4-5-1-8-3-12"/><path fill="#1A1823" d="M353 327h1c5 4 7 8-2 11-1-3-3-4-2-6-7 3-4 13-16 15 2-6 3-10 5-13 7 0 7-5 11-6"/><path fill="#263340" d="M239 249c-7 5-14 14-15 17-3 6 8 3 2 10 5-7 11-14 16-20-2-2-2-4-3-6"/><path fill="#895F4D" d="M388 298c-3 2-7 0-9 1-5 4-6 7-7 11 4 3 6 6 9 4l7-14"/><path fill="#8C5A42" d="M345 223c5 11 6 6 12 16 4 2 7 0 10-1-2-5-11-5-10-14-3-1-5-1-8-1"/><path fill="#6B483C" d="M394 453c-3 6-13 4-8 14-1-6 10 2 14-3 5 5 12 3 7 11 0-2 2-10 7-4-7-2-8-13-11-6 3-8-10-6-1-12-3 1-4 4-6 0"/><path fill="#B24D2C" d="M469 325c-5 12-12-1-15 6s-3 12-2 18c4-5 6-9 8-14 3 1 1 6 4 4l1 3v-3c2-3 3-7 2-12"/><path fill="#212734" d="M468 277c5 6-8 20-15 23 0-6 3-11 6-16 2-3 5 0 8-4"/><path fill="#B6ABA6" d="M486 142c0 3 0 6-5 5 6 7 11 12 15 16 3-3 2-6 4-9-4-3-8-7-12-11"/><path fill="#724836" d="M204 277c-5 9-9 17-14 26 4-1 7-3 11-3 4-8 10-19 1-20"/><path fill="#814A2E" d="M392 250c-2 4-5 7-4 13 3 1 3 3 6 2 5-3 7-7 8-11-3-4-5 0-8-5"/><path fill="#0C0F1A" d="M438 139c-13 6 4 9 1 18 6 1 8-2 9-3-3 0-4-1-5-2-4-8 4-7 1-7 2-2 4-2 6-1-1 10 4 10 3 15 1-5 1-10 3-12-3-1-3-3-4-2-5-4-9-4-13-5"/><path fill="#946751" d="M374 243c-4 2-10 6-10 11 11 5 28-7 10-9"/><path fill="#A6482D" d="M157 375c-15 10-30 18-44 27 11-5 22-8 33-14 4-5 7-8 8-12"/><path fill="#F5BF63" d="M426 149c-11 2-5 9-1 16 7-1 9 4 14 2-7-2-10-10-10-17v-1h-1"/><path fill="#263038" d="M348 402c-3 1-2 4-4 5-1 6-1 8 2 10 5 2 5-4 7-3 6-7 1-14-4-11"/><path fill="#374A5B" d="M272 226c-4 2-10 5-4 10 12 4 6 20 20 21-18-7-2-27-17-29"/><path fill="#F7F8F7" d="M332 183c-14-2-8 8 1 10 4-5 10-3 13-5-4-2-8-6-13-6"/><path fill="#945B40" d="M309 413c-3 2-7 4-11 0 2 6 3 11 5 15 10 0 7-10 8-15"/><path fill="#404350" d="M466 171c-3 15 17 5 24 13-9-12-13-6-20-11"/><path fill="#23252D" d="M397 346c-3 1-5 3-7 5 5-3 3 5 5 6-1 5-3 9-5 11 2-5 10-8 15-13 0-7-6-5-8-8"/><path fill="#453536" d="m300 330-1 2c-3 8-5 16-6 24 5-8 19-23 9-25"/><path fill="#483838" d="M427 313c-1 1-3 1-2 3 9-5-9 14 2 16 8-8 10-25-1-16"/><path fill="#6EA2AC" d="M490 126c-21-1-7 14 5 11-2-5-2-8-4-12"/><path fill="#141C28" d="M183 426c0 2-1 7-3 2-1 8-6 7-1 12 2 2 28-12 6-13"/><path fill="#8B8083" d="M479 198c-11 6-20 10-36 12 16 2 5 1 24 3 7-3 7-9 10-13"/><path fill="#34363F" d="M459 163c-5 9-18 12-28 8 3 5 6 7 7 10 6-5 38-22 19-14"/><path fill="#39292A" d="M356 350c-2 0-3 1-4 2-5 12-14 21-10 28-4-13 18-18 17-30"/><path fill="#AEE2D9" d="M334 196c-17 9-9 5 7 16-3-3-2-4-5-3 2-4 4-8 7-9-4-1-6-6-11-4"/><path fill="#624439" d="M391 353c-7 1-7 10-10 15 7 3 8-2 10-5 4-4 1-7 2-9"/><path fill="#F9F8F5" d="M467 165c-8 3-15 8-18 17 9-1 16-8 19-17"/><path fill="#513A33" d="M256 283c-4 2-10 3-7 10 15 4 24-12 3-7"/><path fill="#B58C54" d="M430 222c-8 1-12 7-11 16 2 2 3 1 5 2 4-4 3-11 5-16"/><path fill="#39292C" d="M270 332c-7 2-8 11-6 17 8-2 8-10 6-15"/><path fill="#72402C" d="M370 318c-2 3-8-3-10 4 9-6 2 9 10 6 6-3 12-11 2-11"/><path fill="#080D1C" d="M342 176c7 2-1 4 2 7 7 3 14 0 20 2-3-9-11-7-20-9"/><path fill="#AB9674" d="M415 240c-2 3-5 12 0 15 9-8 6-3 11-12-5 2-8 4-9-4"/><path fill="#1C1A24" d="M354 327c-8 4-6 7-13 7-3 4-4 7-6 10 11 0 6-10 14-12 2 1 1 3 2 4 8-1 8-4 2-7"/><path fill="#070F1C" d="M313 251c-3 6-8 8-14 9 3 4 7 5 12 4 4-2 4-8 4-10"/><path fill="#699CA9" d="M282 217c-6 1-12 2-17 5-5 4-7 8-6 12 7-7 15-10 20-17"/><path fill="#0F1726" d="M239 238c-6 6-16 12-13 23 5-8 14-13 12-21"/><path fill="#626872" d="M468 181c5 3 3 12 11 14-3 5-9 3-4 8-2-2 2-4 3-7 4-2 4-6 6-9-4-3-10-2-15-4"/><path fill="#535C66" d="M262 215c-1 2-3-1-4 1-7 20 11-1 16 2-3-2-7-2-11-3"/><path fill="#855E48" d="M310 438c3 5 3 8 0 11v3l-3-3c-2 1-6-1-7 3 3 7-2-6 8-1 2 5-2 8-1 13 7 2 5-4 7-10-5-3 7-11-3-13"/><path fill="#0F131E" d="M376 394c-3 1-6 3-4 7 6 8 19-11 5-7"/><path fill="#A0B5A0" d="M465 132c-21 2-11 4 7 14-3-5-6-9-9-14 2-2 6-1 9-1-3-1-6-1-8 0"/><path fill="#4A332C" d="M361 387c3 1 5 4 9 7-1 2 0 6-2 6-8-1-7-6-6-10"/><path fill="#2B333E" d="M469 281c-10 1-11 8-16 17 7-3 12-10 15-16"/><path fill="#4F2D28" d="M338 289c3 4-4 5-5 3 2 2-3 6 1 9 6 3 15-11 5-10"/><path fill="#2B191B" d="M176 371c7 2-5 14-9 14 0-4 3-8 7-11"/><path fill="#4A494D" d="M323 172c-3 5 10 7 19 11-6-7 2-5-17-11"/><path fill="#3B5263" d="M296 231c-8 3 1 8-5 13 3-1 3-5 5-3 9 5 7-7 15-8 5 11-14 11-3 19 4-4 6-9 7-14 1 5-6 1-3-3v-2h-3c-5 2-5 11-12 8-3-3-7-6-4-8"/><path fill="#9C442C" d="M341 418c1 4 0 12 1 14 4-4 6-3 7-6 2-6-3-5-6-6"/><path fill="#DE794E" d="M452 163c-9 7-17 6-27 2 7 7 23 8 28 1"/><path fill="#837B78" d="M339 204c6 6 3 7-1 9 8 5 12-1 17-1-12 0-1-9-15-5"/><path fill="#5D6769" d="M502 156c5 6 7 16 16 20 3-2-2-9-4-15-5-1 4 7 2 11-4-5-7-11-12-15"/><path fill="#1A202C" d="M357 369c-1 1-2 0-3 1-4 3-5 6-6 13 5 1 12-13 10-13"/><path fill="#F7EFBD" d="M399 388c-4 3-2 8-1 11 7 0 14-8 1-9"/><path fill="#20232D" d="M388 388c-1 1-1 4-4 4 0 4 2 5 2 7 12-9 11-11 1-6"/><path fill="#E7B561" d="M136 398c-20 11-40 23-60 33 20-9 39-20 57-32"/><path fill="#121925" d="M290 372c-5 5-15 3-19 8 5-2 12-2 16 2-1-3 9-8 6-9"/><path fill="#CE8A31" d="M426 290c-1 3-2 5-4 8s1 4 1 6c2-6 11-12 6-13"/><path fill="#AC7E4B" d="M393 224c-1 1-2 0-3 1-3 2-2 4-3 5 5 9 16-8 8-5"/><path fill="#27202A" d="M446 321c-7 5-11 6-14 16 9-2 11-11 15-16"/><path fill="#454750" d="M448 460c-5 10 7 0 10 4 4 4 7 7 5 11 4-6 1-11-3-12-4-3-7-2-10-2"/><path fill="#39353E" d="M419 260c-4 1-3 9-2 12 3 0 8-9 5-11"/><path fill="#36242B" d="M468 316c-2 1-4 6-9 6 0 2-1 4 0 6 8 0 9-7 9-11"/><path fill="#CC6E2C" d="M386 402c-1 3-2 6-3 8 1 5 1 7 2 10 2-5 6-14 4-17"/><path fill="#5D504E" d="M417 326c0 3-4 3-5 7 3 3 7 3 10 5 0-6-3-10-4-12"/><path fill="#B58951" d="M323 236c-3 1-2 4-3 7 2-2 4 3 7 3 2-2 3-3 3-5-2-3-4-4-6-5"/><path fill="#F4A247" d="M422 310c-3 5-6 9-11 6-1 2-1 3 0 5 7 3 11-4 12-8"/><path fill="#966032" d="M415 218c-1 2-4 4-3 7-1 3 3 3 3 4 4-2 5 0 6-4-2-1-4-4-3-5"/><path fill="#4D322E" d="M373 265c-7 4-2 10-5 13 5-6 18-9 7-13"/><path fill="#A36C4B" d="M251 226c-6 0-8 7-11 9 4-1 22-7 13-10"/><path fill="#1D2733" d="M221 270c-2 4-6 8 2 12 0-5 3-7 4-10-4 0-1-3-5-2"/><path fill="#6D645E" d="M410 335c0 6 8 6 11 11 5-8-5-8-8-11"/><path fill="#311E1F" d="M159 424c-8 6-11 7-17 14-3 4-4 6-5 9-3 6-5 10-8 15 5-1 7-5 11-6 6-5 10-8 14-11-4 3-12 8-12 8-5 0-5-3-5-4 5-13 10-15 22-26"/><path fill="#3D3132" d="M244 290c-6 2-9 13-14 15 8-2 15-6 14-14"/><path fill="#BBAEA6" d="M312 178c2 6 14 7 20 3-6-1-11-3-17-4"/><path fill="#1D212E" d="M341 168c-21 6 3 8 11 8-5 1-7-6-12-7"/><path fill="#1F181D" d="M261 337c3 7-4 19-4 27-1-8 2-15 3-23"/><path fill="#8C5E46" d="M321 450c-4 3-5 12-1 10 3-6 10 0 11-3 0 3-4-1-7-6"/><path fill="#221F28" d="M313 409c-1 6 1 14-2 20-9 4-12-6-13-10 0 4-2 10 1 13 4-1 7-1 10-2l2-1h1l-1-2c2-5 3-11 3-17"/><path fill="#0E1322" d="M353 273c-1 1-2 3-1 6 4 0 6 2 9 1 2-7-4-5-7-7"/><path fill="#1C202C" d="M361 203c-4 1-10 1-10 6 2 3 5 0 8 2 3-3 2-5 3-6"/><path fill="#383A48" d="M466 153c-3 4-7 5-7 13 3-2 7-3 8-4 4-4-1-6 0-9"/><path fill="#1D1620" d="M333 324c1-1 3 0 4-1 2 4 1 6 5 7-4 4-13 0-10-4"/><path fill="#E38C2C" d="M429 362c-2 1-5 6-8 5-1 4-3 7-4 10 5-4 12-11 15-15"/><path fill="#D0762C" d="M328 403c-5 4 1 14-7 17 4-6 23-21 8-14"/><path fill="#E6B663" d="M310 436c2 3 6 6 6 10 9 0 8 7 15 6 10-9-20-1-18-17"/><path fill="#171A26" d="M224 336c4 4-11 12-18 10 6-1 11-3 15-9"/><path fill="#2B2027" d="M397 267c-1 1-3 7 0 8 4-1 5-2 7-2 0-6-2-6-6-5"/><path fill="#EBD9C9" d="M432 133c6 6 18 6 25 12-7-5-13-11-23-11"/><path fill="#E1A760" d="M388 453c-3 5-9 3-14 5 4 2 6 6 10 5-5-8 8-4 7-10"/><path fill="#8D6A5A" d="M276 199c-4 5-9 9-14 12-1-14 49-1 14-11"/><path fill="#483F3D" d="M356 242c-7 4-4 11 3 8 1-2 0-4 1-6l-1-2-1 1"/><path fill="#282329" d="M218 322c6 1 12 4 18 1-3 4-9 2-9 8 0-5-2-5-7-7"/><path fill="#8B633F" d="M274 249c-2 5-7 9-10 13 3 2 6 0 8 2-1-4 1-8 2-12"/><path fill="#84BEC2" d="M450 177c-5 3-10 4-13 10 7 1 11-4 12-10"/><path fill="#413B3D" d="M398 278c2-2 5 2 8 0-1 8-8 9-9 2"/><path fill="#121A25" d="M190 434c-3 5-8 7-14 5 0 4-3 5-4 9 7 0 14-10 20-14"/><path fill="#72A2B1" d="M309 205c5 3 12 3 17 7 4 5 6 8 6 12 2-4-1-9-4-12-6-7-13-5-17-7"/><path fill="#202633" d="M516 193c-4 4-5 15 0 11 4-7 5-11 0-8"/><path fill="#2A2327" d="M176 396c-8 10-19 5-19 12 4 3 7-3 11-3 2 1 1 3 2 5-1-5 0-10 6-12"/><path fill="#563E32" d="M258 269c0 4 6 12 13 5-3 5-5 6-9 5s-5-3-4-7"/><path fill="#50352D" d="M273 265c-1 3 1 7-1 10-5 3-11 5-12 0 0 5 7 4 9 2l3-2 1-1 2-1c0 4-2 8 3 8-7-8 17-19-5-8-1-4-1-5 0-6"/><path fill="#7F4138" d="M391 124c-5 2-11 4-11 8 5-2 11 0 17 3-4-2-7-3-8-6 7-3 15 2 0-4"/><path fill="#47454B" d="M352 470c7 11 10 6 11 18 7-10-11-16-6-18"/><path fill="#552E27" d="M408 475c0 3 3 6 6 7 5 1 9-1 10-3-4-1-10 3-15-3"/><path fill="#262C35" d="M335 394c-3 1-6 4-7 4 1 1 2 3 3 5 3-2 7-5 4-7"/><path fill="#211822" d="M326 324c8 0 4 7 14 7-1-8-4-6-11-7"/><path fill="#A45045" d="M459 140c3 5 6 9 11 12 2-7-3-6-8-10"/><path fill="#667873" d="M385 399c-2 3-7 6-11 5-2 3-1 5 0 6 4-4 10-3 10-10"/><path fill="#E7B561" d="M402 448c-23 6 4 3 9 2 1-2-4-2-7-1"/><path fill="#705441" d="M391 218c-2 1-5 0-6 2 2 1-2 4 0 7 1-6 11-3 7-10"/><path fill="#191F2D" d="M475 255c-1 4-4 7-5 11 3 1 6 1 7 1-1-3-1-7-2-10"/><path fill="#D4CAC1" d="M459 196c6 1-8 7-11 5 1-3 5-3 9-4"/><path fill="#452826" d="M415 261c3 6-8 11-4 14 4 2 5 1 6-1-2-3-1-8-1-13"/><path fill="#3D4248" d="M171 351c-7 4-9 15-16 20 5-2 11-12 17-18"/><path fill="#513A34" d="M294 260c4 18-12 5-7 12 2 4 4 4 8 3-2-3 0-8-1-11"/><path fill="#7E4139" d="M461 242c-2 5 2 8 2 14 5-3 0-12-1-13"/><path fill="#9B6D46" d="M322 243c-4 3-5 7 1 10 3-4 4-7-1-8"/><path fill="#33343D" d="M377 237c-2 6 0 11 7 9 1-9-3-2-8-6"/><path fill="#D5CA9C" d="M314 323c-4-2-5 6-7 14 4-5 8-12 8-14"/><path fill="#D97B3B" d="M420 145c0 2 0 4-1 5 5 0 6-4 10-2-1-3-5-2-7-4"/><path fill="#463332" d="M354 359c-1 6-8 9-9 12 6 6 5-6 10-4-3-1-3-4-1-5"/><path fill="#58352D" d="M437 464c-16 2 9 7 15 8 1-6-13 2-17-8"/><path fill="#DB8219" d="M441 304c-4 5-12-4-9 8 4 0 5-4 7-6"/><path fill="#1F2430" d="M494 179c6 3 1 5 1 9 4 3 7 1 8 0-2-3-4-5-7-6"/><path fill="#4D3530" d="M387 464c1 7-5 6-6 2-1 2-1 4 0 6 9 3 5-6 8-7"/><path fill="#648096" d="M320 210c1 11-2 4 7 8 2-3-2-6-5-7"/></svg>