<svg xmlns="http://www.w3.org/2000/svg" width="600" height="600"><path fill="#6E7B87" d="m369 99 2-2c13 2 25 3 37 7 28 8 50 23 68 44 8 9 11 17 15 25 6 27 9 52 11 78-2 16-12 26-19 36 6 41 49 53 53 92 1 6 1 9-1 13-6 5-8-3-8 5-17-13-22-1-38-15-1 12-3 24-9 35-6 15-14 26-25 36 8 2 15 7 22 8 9 8 19 11 24 21-13 5-27 8-43 9-31 2-57-4-85 1 12-6 25-6 39-4-5 0-11-2-17-2 1-3 8-5 9-7-25 12-67 11-39 14-39 0-66 2-93 6-23-5-53 2-83-4-2-15-17-20-23-32-6 0-9-1-11 1 1-4 4-3 6-5-5-8-9-15-12-23-5-15-7-28-8-42-16-9-35-6-50-14-10-5-18-12-22-20-3-34 4-67-10-99 6-5 8-2 8-5 9 7 12 18 21 22 14 6 28 6 38 15 9 6 15 14 17 21 4 8 5 15 4 23 7-22 16-42 28-61 15-23 40-41 55-60 13-20 14-41 27-58 8-15 20-27 32-36 14-9 26-14 38-18 14-3 26-6 39-6"/><path fill="#799EAD" d="M300 137c-5 8-4 8-12 8 6 3 8-4 12-2-4-1 0 9-8 9-12 3-10-3-16-1 1-6-13 2-4-6 3-4 3-4 0-1-15 23-33 57-32 79 7-9 6-20 11-29 1 14 11 23 18 31s9-6 15-4c5-11 2-24 8-34 17-7 12-12 27-13 5 4 10 1 19 16 9 25-2 12 8 36 4-1 12 1 17 9 3 8-1 15-8 16-3 0-6-3-7-2-3-6-5-11-6-16-3 5-5 11-11 15 8 5 14 9 21 10 14 2 23-1 35-2 7-1 12-4 11-9 0-11-14-5-12-15 5-6 11-5 17-6 7 1 11 4 11 7 1 8-7 5-9 9-1 6 0 8 3 9 13 9 27 12 37 14 11-6 20-3 22-9-8-4-14-14-16-24-2-18 5-30 3-44 3-6 8-7 11-9 9-3 17 2 21 7-3-5-8-10-14-14-8 1-15-3-21-2-6 11-17 12-22 18 4-3 4-8 3-13-4-1-6-3-8-8-12-13-41-7-47-16-2-1 5 5-1 6-3-2-6-1-7-3 0-4 2-4 5-3l2-1-2 1c-3-1-6 0-8 1 3 4 6 4 8 6 8 4-1 3 9 1 4 4 5 7 4 11-9 7-29 11-26 16-5-6-17-7-17-17 3-9 10-14 15-18-10-3-20 11-30 5-10 1-15-5-16-11-8 5-4-5-9 1-4-3-2-6-2-9"/><path fill="#537087" d="M239 224c-4 13-3 30-15 33-3 5-4 8-6 9 0-10-5-11 0-19-12 10-27 26-36 39-33 52-21 52-2 82 5-1 3-8 6-11 1 7 1 11 0 15 7 2 20 21 21 28 10 11 17 14 17 8-10-8-17-21-23-33-5-13-8-24-8-36 0-17-2-33 3-45 2-7 4-12 7-16 4 2 2 5 2 7 4-4 6-10 12-12-10 17-8 39-10 58-3 13 0 22 6 29 0-3 2-5 3-8 3 5-1 8 1 10 5 6 8 8 11 11 4-2 4-6 6-9 1 5 1 8 0 11 5 2 7 6 10 6 10 4 8-3 10-8 2 3 3 7 3 10 7 0 14-1 19-6 6-9 5-18 4-26-5-14-8-27-12-39 10 6 13 17 18 27 5-7 9-15 6-23-14-17-36-21-50-36-3-7-6-11-7-16 2-12-2-21 2-31 6 17 14 31 29 43 17 11 31 20 49 24 27 9 53 15 82 13 23 0 43-5 60-16-14 4-29 9-45 11-32 1-58 1-84-8-18-6-34-13-48-24-12-12-21-22-26-35 1 3 1 7-6 11-5-8-9-16-8-26"/><path fill="#C0B8AF" d="M296 308c1 9 2 28-8 39 5 13 10 22 10 33 3 14-4 24-2 33 11 5 20 7 31 8 33 4 56 4 84 2 9 2 17-3 22-1 12-3 21-6 27-15 1 3 1 4 3 6 3-4 6-5 7-8 5-7 5-15 3-22-4 2-6 6-9 6-6 1-10 0-11-4 8-8 20-14 23-26 3-14-9-18-13-28-6 6-13 6-18 10 4-2 9-4 14-6-11 12-2 31-12 42-4 6-8 10-12 12-6 2-12 2-15 0-3 9-3 15-5 24-5 4-8 9-14 7l-8-8c-7 9-12 11-19 11-7-3-12-7-14-12-4-4-2-8-3-10 4 5 14 6 27 4 7 2 1-6 3-9-9-1-18-12-20-21-3 4 4 12-6 19-7 0-15 2-20-2-7-3-13-7-14-12 1 4-1 9-6 10 9-15 2-18 2-32-1-5-5 0-6 0-3-7-10-16-4-20-8-4-10-13-15-18 11-6 14 21 30 21 11 4 15-5 21-9 4 7 2 12 6 18 5 8 13 8 20 10 5 2 2 11 7 14 5 0 17 4 20-1 2 1 1 3 2 5 0-6 0-10-5-12 5-2 7-7 10-7-14-8-21-15-30-25 22 12 22 3 32 19-13-2 16-14 15-11-1-2-4-6-4 0-3-4-3-7-2-9 7 4 11 10 18 7 7-2 8-8 7-14 5 3 7 6 11 1 3-5 3-9 5-12-13 3-24 8-36 10-18 4-36 2-53 3-27-3-51-7-71-19"/><path fill="#9BC0C6" d="M365 108c-9 1 1 6-5 10-4 3-8 1-10 2-11-3 1-12-5-10-16 6-47 12-41 28 7 13 9 1 15 17 14 7 27-5 41-5-6 5-12 11-13 18-3 11 10 11 8 17 7-7 23-10 31-12 1-7 1-9-2-11-8 0-15-1-20-6-1-5 0-6 2-7 16 3 28 10 45 9 7 8 19 12 25 22 11 0 9-13 18-12 15 0 27 9 31 14-5-16-14-30-26-44-5-4-9-1-12-3 2 4 7 0 10 2 6 6 10 10 11 15-7 7-9-4-15 0-5-3-10-5-11-10-2-5-4-10 2-10-8-8-24-16-38-20-14-3-26-5-40-4"/><path fill="#3D5069" d="M217 274c-6 2-8 8-11 12-2-2-1-5 0-7-5 4-7 8-9 12-5 15-3 31-4 45 1 15 4 26 9 36 6 14 12 27 24 35-3 1-7 4-6 5-15-7-20-34-36-38 2-6 2-10 3-14-1 3-3 5-4 7-5 4-3-7-8-1-8-17-3-16-16-30 2-4 2-6 3-13-5 13-15 23-14 40-4 34-4 38 4 58 5 10 23 30 39 39 15-1 31-6 46-6-1-9-2-15-3-22 0-7 3-12 6-16-10-5-18-12-24-20-8-13-16-25-17-37 2-5-7-37-3-57 4-6 10-11 12-15 1 10-7 39 0 29-3-15 4-28 9-41"/><path fill="#71656D" d="M479 399c-23 32-27 23-31 40-9 1-13-1-16-2 4 4-7 4-10 6-19 0-37 8-54 6-2-3 2-8-1-12-4 3-6 9-10 10-23 11-29-5-49 9-25-2-47-5-68-12 4 6 7 12 14 17 14 6 29 9 37 21 9 2 18-1 20-9 4 9-8 14-13 14 26 3 51 3 74-1 24-4 52-17 72-33 11-9 17-18 22-27 6-8 8-16 10-23"/><path fill="#A69C95" d="M476 392c0 11-7 16-12 21-3 0-5-3-3-5-7 9-16 12-26 14-13 2-35 3-49 3-22 0-51-1-73-5-6-3-14-4-16-6-6-6 1-11-1-16 0 10-6 18-13 26-6 4-11 3-16 3-9-1-14-6-20-10-9 5-9 14-8 20 17 13 40 16 62 17 25-13 31 2 53-8 7-1 9-6 11-9 6 2 3 8 2 11 19 2 36-6 53-8 14-6 13 0 30-7 1-13 15-9 23-28 2-4 3-7 2-11"/><path fill="#E8E4D6" d="M459 336c-7 2-13 6-20 8-7 1-11-1-16-2-1 4-5 8-8 9-8 2-13-4-15-8-3 1-6 1-10 0 6 7 16 11 21 17-11 8-2 22-13 29-9 2-13-2-17-7-5-7-6-13-5-20-8 2-15-2-20-5-6-7-7-13-8-19-5 4-8 9-15 7-8 2-13-3-18-5-6 3 0 11 1 15 3 0 5-1 6-2 0 11 6 18 7 28 1 5 5 6 7 8 8 4 15 6 22 4 5-7 6-14 7-21 5 7 7 14 13 18 7 6 12 6 16 7 8-1 15-7 16-15 8-3 8 5 10 7 9 1 14 0 19-3 19-12 8-35 19-49"/><path fill="#628599" d="M330 250c-6 3-5 4-11 7-8 1-16 0-20-1-9 11 14 17 23 23 18 5 33 11 49 13 22 1 42 0 60-3 18-4 33-8 45-20-3-6-9-13-3-19 0 8-19 12-29 18-18 3-30-4-44-6-14 8-30 8-46 7-6 0-10-2-14-3-5-2-3-5-1-5 18 3 36 2 51-4-13 0-23 4-36 2-9-1-15-6-22-9"/><path fill="#40526A" d="M256 237c5 22 19 9 27 25 5 2 5 5 5 6-6 7-7-4-7 2 6 6 12 10 17 13 30 14 36 21 65 24 15 1 32 1 46 0 12-5 42-9 55-20 5-7 24-23 28-31 1-3 1-4 2-5-7 8-15 17-23 24-11 8-20 12-30 15-23 5-46 5-69 4-19-2-35-8-51-13-26-7-38-31-61-40"/><path fill="#5E7F95" d="m238 307 1-1c7-1 17-1 22 5 7 5 10 10 11 15 0 9-4 24-9 26-8 4-28-1-39-7-4-6-10-7-8-13-5-16 7-25 19-25"/><path fill="#5E7F95" d="M239 307c-13 0-28 8-23 24-1 6 4 7 6 12 14 7 38 13 40 9 5-3 9-16 9-24-1-7-3-12-8-15-7-6-15-8-23-6"/><path fill="#313C54" d="M152 419c3 15 10 28 18 41 6 7 13 16 19 16 1 7-2 13 4 17 15 3 30 2 45 2 2-3-3-4-3-6 5 1 6 4 7 6 12 1 21 1 31 1-5-6-26 0-35-7-5 4-23 2-31 0-5-5-2-9-2-12 7-6 13-2 12-9 11-3 20-2 28-4-9 0-18 1-26 3-2 2-3 1-4 2 8-8 20-8 32-7-5-7-7-13-10-19 0 3 3 7 1 11-17 1-33 6-44 9-14-8-20-15-28-22-9-14-9-9-13-20"/><path fill="#537187" d="M91 287c9 9 18 20 21 32 1 8-4 13-8 17-1 7-4 12-1 17 3 9 14 11 14 16 23-6 21 3 18 3 7-3 7-11 8-16-6 2-11 4-17 4-7-1-8-6-11-8-3-17 16-21 18-33 4-5 3-11 0-13-10-8-22-12-33-16 4 6 10 10 12 17 4 6 4 11 3 17h-1l-2-1 1-1v-3c-3-5-3-11-6-16-6-7-11-10-15-15"/><path fill="#40526A" d="M70 331c-1 6-3 14 0 20 2 7 4 10 7 14 9 7 17 10 25 14 14 7 27-5 38 3-2-3 2-6 2-11-9-6-15-1-22 0-9-12-9-5-17-10-6-7-4-14-5-19v6c-4-3-5-7-10-7 2-5 4-6 5-7 3 2 3 4 2 5 3-1 1-4 2-6l-1-1h-3c-5-1-4 7-11 6-6 2-8-4-13-5"/><path fill="#746870" d="M289 352c0 14-3 27-11 38-7 6-11 12-17 15-6-1-8-6-12-1-1 6 3 9 5 13 7 4 13 6 19 7-11 5-22-9-27-9 8 7 17 13 29 11 8-2 12-9 15-14 6-10 7-21 6-32s-4-19-7-27"/><path fill="#6E636E" d="M250 273c9 16 33 25 45 33 0 1 3 0 5 2 19 9 37 13 55 16 25 3 48 4 69-1 14-3 26-6 36-12-6-4 10-6 9-12-15 8-32 15-51 17-25 2-50 5-73 2-17-1-30-6-42-11-20-9-37-18-51-34"/><path fill="#678DA0" d="M79 281c-20 1 3 23-6 36 9-2 18 2 23 9 1-9-5-18-14-20 2-2 5-3 7-2 11 9 14 19 13 31 5-2 6-6 9-8 0-7-1-14-4-18-6-12-16-21-24-26 0 0-1-2-3-1"/><path fill="#567085" d="M249 209c0 20 1 28 8 31 1 1-2 0 1-2 23 12 32 22 39 30l22 11c16 6 30 11 44 13 30 3 59 2 84-5h2v-2l2 1 2-1c8-4 16-9 23-16 7-8 13-13 17-19l1-2-2 2c-2-3-2-9-6-12-3 7-10 9-14 14-2 8 3 11 6 15-10 11-20 15-30 18-26 9-55 10-83 8-23-7-45-12-63-25 2-13-10-15-15-33-3-1-4-3-7-2-7 5 3 7-1 11-12-10-25-18-27-32"/><path fill="#344159" d="M208 286c-1 7-7 10-11 13-3 23 3 47 2 59 1 10 8 21 12 29 7 16 24 23 31 31 2-3 4-6 5-7 2-1-3-4-2-7-10-12-14-16-26-16-3-15-17-16-18-29 4-47 3-29 7-72"/><path fill="#2B222F" d="M313 188c-3 1-5 2-8 3 5-2 13-3 18 0 8 5 10 12 13 17 3 12 3 23-2 32-6 8-12 12-21 11 0-3 4-2 7-3-6 2-12 2-17-2-6-3-11-7-13-11-3-12 2-18 6-24 0 9 10 11 13 17 9 2 19 1 21-5 6 9-11 27-4 21 6-10 11-20 7-30-1-6-4-9-6-12 0 4 1 8-1 10-3 5-7 10-11 7-5-5-6-9-5-14 0-5 3-7 4-10-6 1-11 3-16 7-3-2 6-10 2-6-9 10-11 21-13 31 0 9 5 13 8 18 9 6 16 9 26 7 9-3 14-10 17-16 2-8 1-14 2-19-2-10-6-16-10-23-5-6-10-7-16-6"/><path fill="#2C344B" d="M486 332c6 12 1 29 5 43 4 2 9 8 12 11-1-5-4-12-7-18 6 9 22 19 28 26-4-15-14-38-31-48 22 8 25 30 37 44h3-2c-1-5-1-9 1-12-9-6-27-35-44-45"/><path fill="#E3E8E3" d="M366 103c-3 2-7 0-9 1-16 2-29 5-40 10-19 8-37 17-34 29 3-2 6-7 9-11 4-3 7-2 8 1-1-4-4-3-7-5 19-1 32-18 49-18 16-1 25-4 41-3 13 1 23 4 32 8 21 13 34 16 54 32 6 12 12 21 16 31 5 13 5 26 8 37-3-20-4-41-15-58-7-10-15-17-23-23-12-11-24-17-36-22-18-7-34-9-51-10"/><path fill="#4E3F49" d="M465 191c-3 1-4 3-6 5 2-4 8-6 11-2 9 8 13 17 14 27 1 9 0 15-3 20-2-10 2-20-4-28 0 2-2 4-4 7-6 0-8-4-9-6-2-6-3-9 0-13-1 3-8 11-8 4-2 9-6 18-2 28 2 8 7 16 16 14 6 1 9-2 11-6 5-7 4-14 4-21-2-9-5-16-10-22-3-5-5-8-8-8"/><path fill="#2D364C" d="M449 457c-12 11-30 17-51 28 32 6 65-2 81 0 0-12 14 7 11-8 3 7 9 5 2 0-3-2-4-3-5-4 3 2 5 6 1 9-4-3-6-5-8-7 2 2 3 3 3 5-8 1-12 2-16 3-7-3-9-8-12-10 1 4 7 5 6 9-9 1-17 3-24 1 3-4 8-14 13-13-4-3 6-7 7-10-2-1-2-3-5-2"/><path fill="#3E5068" d="M485 309c2 8-6 13-12 16-9-2-7-11-11-3 4 5 14 9 16 25 3 19-5 34 3 52 6-29 5-24 4-70 5 1 7 4 7 7 7 6 13 10 17 16-4-6-10-9-14-15-2-7 0-8 3-7-5-6-11-11-12-20"/><path fill="#658598" d="M252 194c-4 7-4 17-7 25-2 13-6-2-6 2 2 12 3 22 8 30 7-2 4-6 8-3-3-6-9-27-6-37 4 12 13 15 20 25 6 0 6 5 8 7 0-4-3-6 1-9 2-4 6-2 7-1-1-5 2-8 2-13-5-1-12 11-20 6-1-6-18-16-13-31"/><path fill="#3E4E66" d="M135 308c3 6 0 11-2 15-6 8-12 12-17 18-2 9 2 16 7 17 9 1 14-1 20-4 0-5-5-2-7 0 3-8 4-14 4-20-1-9 0-17-4-23"/><path fill="#678FA3" d="M230 469c-19 3 11 9 9 20 12 1 19 0 25-5-2-5-4-7-15-14-6-2-12-1-17-2"/><path fill="#73585F" d="M456 220c3 1 7 6 13 5 6 2 7-4 9-4 4 11-2 19-4 24-7 5-14 0-16-6-3-6-6-12-3-17"/><path fill="#303951" d="M478 289c-3 7-7 19-17 21 4 5-1 14-5 19 2-2 5-9 7-10 5 0 2 2 7 4 4 0 8-2 11-6 5-9 3-19 0-26"/><path fill="#A8BABD" d="M239 211c-10 20-40 41-54 63-12 20-24 36-29 56 9-19 17-38 31-54 13-14 24-28 37-40 8-6 1 6 4 4 7-10 10-18 12-27"/><path fill="#2E3B52" d="M153 394c2 5 5 18 12 19 7 3 12-1 14-5 0 7 1 14 4 18 7 9 14 11 21 14-7 3-13 3-17-1-9-7-12-14-12-23-4 6-12 4-15-1-7-5-7-12-9-17"/><path fill="#40526A" d="M237 234c-2 10 0 21-1 32 5 9 8 16 15 20 8 7 16 7 22 14-7-7-14-9-20-17-9-13-16-26-14-41 6 16 15 25 27 36 5 3 7 7 11 9 30 22 9 0 62 25-3-6-55-16-70-34-14-11-23-22-28-34 0-5-2-6-3-8"/><path fill="#506C83" d="M78 319c-7-1-5 7-8 12 5 2 4 6 8 6 3-2 11-9 19-6 0 4 1 7-1 9-1-1-1-3-2-6-2 3-4 1-4 6 5 0 4 5 7 7 1-5 0-10 1-14v-4h1l-2-1c-4-6-10-10-18-9"/><path fill="#6C91A2" d="M342 214c-3 11 1 20 4 29 1 5 8 7 11 7 7-4 7-9 6-14-1-7-17-12-16-10-5-3-4-5-5-10"/><path fill="#AE7D7E" d="M292 227c-4 9 8 18 16 20 9 0 17-5 17-12-4 3-23-6-25-2-4-1-4-3-5-4 1 2 1 4 0 5-2-2-4-3-3-6"/><path fill="#4D333E" d="M296 211c0 4-4 7-5 9 1 5 1 9 3 14 0-4-1-6 0-9 2 3 4 5 3 8 5-8 21 6 27-4 2 5 2 9 0 12-5 5-8 7-13 7 0 4 11 3 16-1 3-8-7 5 6-25-5 7-15 9-21 8-7-7-16-9-15-17"/><path fill="#ADA39C" d="M360 399c-3 0 2 9 3 16 4 4 10 8 17 6-5-3 11-6 7-14-5 1-13-2-18 0-4 0-11-5-7-8"/><path fill="#668CA1" d="M459 460c-12 6-3 13 3 17 8 1 12 2 17 1-12-15 6-5-15-18h-4"/><path fill="#658496" d="M467 179c4-1 6 1 8 4-5 1-8 0-12 2 2 0 6-1 14 4 13 14-9 0 9 11 5 13-3 35 6 48-2-13-1-38-6-57-4-10-10-11-17-13"/><path fill="#67889B" d="M309 181c-2 2-6 0-8 1-15 11-14 24-1 6 8-1 16-5 24-1 13 7 15 24 18 22-4-9-7-22-19-26-5-1-8-3-13-2"/><path fill="#9AB9BE" d="M295 132c-4 3-8 9-14 12-2-2 6-8 1-9-6 5-8 9-11 13 6-2 7 6 19 3 7-1 6-3 8-7 6 1-1 6 1 5 5-2 1-3 0-7-2 4-8 6-13 4 10-1 21-15 12-14"/><path fill="#657F90" d="M238 226c-3 6-6 13-11 19-2-2-3-4-2-5-7 3-11 8-16 12 2-1 5-3 9-6-5 9 2 11-1 20 7-5 9-14 15-16 2-8 2-16 5-22"/><path fill="#6D90A2" d="M358 190c11 3-2 11-1 16-6 5-10 2-14-1-3-7 4-8 7-13 3-3 5 0 6-2"/><path fill="#C99392" d="M301 232c5 0 11 3 17 1 3 1 5 4 4 5-3 8-9 9-14 8-7-2-9-8-6-11"/><path fill="#85A8B2" d="M441 133c-1 5 1 12 7 14 15 5 11 3 18 3-1-4-4-7-8-10-6-2-10-4-14-7"/><path fill="#181C29" d="M122 293c9 5 18 16 19 27 1 15-2 25 6 28-7 23-3 31-2 51-3-3-1-7-3-8 1 13 3 26 7 38 2 3 2 5 3 6 6 18 19 35 30 45 8 3 3 14 9 14-5-5-2-11-2-17-1 5-4 2-6 1-13-10-28-30-32-47-4-12-6-21-8-30 0-26 3-51 9-69-3 7-1 5-5 20 0-22-4-25-5-36-2-1-7-19-18-22"/><path fill="#161B2D" d="M454 454c-23 14-42 18-58 31l1 1 8-1c-1 7 12 1 49 5-3-4 12 0 9-2l-1-2h1l2 1-3-1c41 7 44-14 3-26 11 4 19 9 26 16 1 4 1 6-2 7-3-3-11 7-23 3-2-2-3-4-4-6 0 2 3 5 1 6-23 1-45 2-64-1 20-11 36-19 53-29h5"/><path fill="#191D2C" d="M486 336v39c1-1 0-3 1-5-1 10 14 17 17 18l2 1v-1l-1-2v-1l1-2h2c4 5 8 9 13 11 5 3 5-1 4-3 4 1 5 2 7 1 3-15 0-19-3-29 2 9 5 18 4 28-16-14-18-37-39-46 17 10 24 32 31 45 1 3 0 5-3 4-7-2-15-14-17-12 0-5-3-6-7-14 1 6 6 11 6 18-4 0-8-2-10-6-9-12-3-29-7-41"/><path fill="#334058" d="M279 374c-5 8-13 12-22 11-3 16-1 2 2 15 6-3 10-6 15-9-7 2 5-10 4-14"/><path fill="#AF9896" d="M323 197c-3 2-9-1-9 4-3 6-2 11 0 15 6 1 8 0 9-3 3-5 3-12 0-14"/><path fill="#323E57" d="M233 370c-2 4 2 10 1 15 3 2 8 12 14 14 5-4 4-9 4-14-5-1-10-2-15-4-5-3-3-7-4-9"/><path fill="#1A1E2F" d="M244 259c1 4 0 8 3 10 8 3 23 22 36 26 18 11 35 17 54 20-14-2-29-8-44-15-19-9-31-27-48-38"/><path fill="#6C8FA1" d="M360 191c-3 2-7-1-7 2-5 5-13 6-9 10 4 5 7 6 11 4 0-7 8-8 6-15"/><path fill="#ADA39D" d="M408 391c-2 5 1 7 2 10-5-3-9 1-15 1-3 4 0 7 2 9 5 4 12 2 14-1 2-8-3-11-4-16"/><path fill="#384358" d="M262 251c6 7 12 16 21 22 6 5 10 8 14 11-4-3-8-7-12-10 0-5 5-4 1-11-12-6-16-15-22-9"/><path fill="#36455E" d="M91 357c5 15 25 16 34 19-10 4-15 4-20 2 6-5-16-5-13-17"/><path fill="#65879D" d="M502 338c-1 10 19 20 23 30-2-12-9-22-20-29"/><path fill="#354157" d="M492 257c-6 10-22 24-30 34 8-9 19-8 15-4 6-12 19-22 15-28"/><path fill="#13192C" d="M205 323c-3 11-5 26-3 39 12 26 33 24 46 46 1-8 10-16 6-29-2 7 3 17-6 21-6 0-7-3-10-7-5-6-4-12-6-17-1 3 1 9-5 11-4 0-6-1-7-4-5-16-10-6-4-26-2 5-2 10-4 13-5-1-6-5-8-8-3-14-1-27 1-38"/><path fill="#BDA6A2" d="M315 198c6-4 12 4 10 9-1 6-4 6-7 7-4-3-6-6-6-9l1-3v-1h2"/><path fill="#7F7377" d="M377 367c0 7 3 12 7 18 6 1 12 4 15 0s4-6 3-9c-6 5-13-1-20 2-3-3-4-6-5-9"/><path fill="#678EA2" d="M262 473c7 6 13 19 24 15-3-4-4-8-9-11-10-9-6 4-14-4"/><path fill="#2F3B53" d="M153 395c0 6 1 14 5 18 5 6 15 8 18 0 0 11 3 18 8 25 7 4 13 4 19 3-9-6-12 0-22-10-4-5-5-10-4-16 5-7 1 12 3-6-2 4-9 7-14 6-7-5-11-7-13-18"/><path fill="#191C28" d="M475 382c4 13 3 27-4 38-8 15-17 29-31 38 7-3 16-4 20-13 12-12 19-28 22-40-4 16-12 30-24 42 7-13 16-24 19-37 3-10 1-19-1-27"/><path fill="#3E5169" d="M268 312c0 2 2 4 3 6 4 17 15 32 10 50-2 6-6 11-11 13s-8 4-13 3c-2-4-1-6-1-9 1 1-1 5 0 7 5 3 9 2 13 1 6-1 9-13 12-5-2-3 1-5 1-9v-1l1-1v-1c2-18-2-33-11-46 2-2 4 0 5 1l1 3-1-3c-2-3-3-6-7-8"/><path fill="#181E30" d="M491 267c-5 11-16 16-24 21-14 9-27 12-40 16 13-4 26-7 37-14 8-4 13-7 17-11-2 3 1 5-2 5-15 16-39 24-52 28 18-3 32-10 45-20 0 7-4 14-11 16 10-3 13-11 15-17 4-5 5 0 6 1-1-3 1-7-3-5 8-4 2-8 12-18"/><path fill="#161F32" d="M388 233c1 4 11 3 12 12 1 4-1 4 0 7-5 6-10 9-14 11-32 6-33 6 1 1 3-3 8-4 12-8 6 3 11 6 16 8 11 2 20 5 29 3-13 0-24-1-34-6-7-4-11-8-9-15s9-9 12-10c-5-1-9 0-10 5-2-6-8-8-12-8"/><path fill="#81A3AC" d="M395 122c4-1 9-1 11 1 4 3 6 5 6 7-4 5-7 2-9 2-4-3-8-4-8-7"/><path fill="#313A4F" d="M240 243c-1 15 6 27 13 38l1 3 2 1c10 13 30 16 38 29 0-2-5-6-3-9-22-3-14-17-36-17-8-22-7-15-12-27 11 9 14 7 22 17-11-11-21-20-24-34"/><path fill="#151A2C" d="M258 466c-1 1 18 4 22 9 9 6 8 15 15 18-8 3-13-1-17 0-5-4-7-8-10-12 3 5 6 9 7 14-12 2-21 2-30 2-7-6-11-14-16-19-6-3-9-4-13-5 3 1 7 2 11 4 6 6 10 12 13 17-15 2-30 3-42 1 13 2 27 1 40 2l3-2v1h2v1c16 0 11 1 29 1 6-8 18 1 25-4 7-6-6 3-7-8 13 3 9 3 2-1-7-12-20-15-31-19"/><path fill="#DFA9A5" d="M304 235c-6 6 2 10 7 10s8-2 10-5c-6-2-9-7-16-3"/><path fill="#5D8096" d="M217 477c2 4 0 7 0 9 5 3 11 5 16 3-3-7-10-9-14-12"/><path fill="#5B6D80" d="M291 296c19 12 41 17 63 20-20-5-42-13-60-20"/><path fill="#A69D98" d="M320 355c1 7-14 26-1 33-8-4-10-7-10-11 6-8-1-14 8-19"/><path fill="#7C7073" d="M411 387c0 1-2 1-2 2-1 12 8 11 4 22-3 0-7 6-11 4-5 0-8-7-9-6-5-8 1-11-5-8-1 8 4 1 1 11-2 7-6 4-10 8 5-2 7-2 10-6v-4h2l2-1c2 3 4 5 6 6 5 0 7 3 10 0 3-9 13-29 1-26"/><path fill="#3B4A63" d="M216 363c1 5 2 11 2 16 1 3 3 3 3 5 1-2-1-2-2-4 5-6 6 2 9-1 1-2 2-3 4-4-6-2-10-6-15-10"/><path fill="#54728A" d="M212 476c-5 1-7 6-6 10 6 3 11 2 15 4-2 0-3-1-4-2 1-4-2-10 0-12 0-1-2 0-3-1"/><path fill="#35435C" d="M92 359c-2 13 20 13 12 19 10 4 21-4 34 0-14-2-16-2-30-5-7-3-13-6-15-12"/><path fill="#7B6F77" d="M475 364c-1 11-16 13-17 23 8 0 11-3 14-7 0-2-3 4-5 3 3-6 7-11 8-17"/><path fill="#473743" d="M456 220c-2 4-2 9 0 12-1-1 1-2 0-4 4 1 3 2 4 4 3-6 15 1 17-7 3 10-1 16-8 19 1 4-1 3 4 1 3-8 8-10 5-17v-4h1l-1-3c-1 5-5 5-8 6-5 0-9-2-12-4"/><path fill="#1A1C21" d="M242 195c0 25-60 62-61 82 11-19 32-39 49-55 6-9 11-17 13-26"/><path fill="#161A2B" d="M244 416c-7 5-9 12-8 21 2 10 7 17 11 24-11 1-22 1-31 6 11-3 25-5 38-1 3 0-11-12-17-27-1-10-1-18 7-22"/><path fill="#9DADAF" d="M318 157c5-1 14 1 13 6-4 6-13 2-14-3"/><path fill="#4D677F" d="M497 330c-6 2-2 9 4 12l2 2-3-2c0-2 3-3 3-6 6 4 10 7 13 11-6-10-14-14-19-17"/><path fill="#E9E8E2" d="M464 195c-3 2-4 5-5 9 1-4 5-9 9-7 0 21 13-1 13 23-1-8-2-14-6-20-4-4-6-6-10-5"/><path fill="#557086" d="M67 264c-2 7 0 14 2 19 0-3 6-1 8-3-4-4-7-9-9-13"/><path fill="#5A505A" d="M333 452c4-1 2 8 8 7 7 3 9-8 12-5-2 7-8 9-11 10-6-3-9-6-9-9"/><path fill="#232121" d="M352 102c-17 1-32 7-47 13l-1 2-3 1c-14 5-38 29-36 32 9-13 23-24 36-31 15-11 51-18 57-18"/><path fill="#3F5068" d="M204 335c1 11-2 24 7 32 2-9-10-18-6-31"/><path fill="#242120" d="M412 108c17 5 32 13 46 25 16 15 27 28 31 43-5-15-13-27-25-38-16-15-32-24-49-30"/><path fill="#141E31" d="M257 246c6 11 15 22 27 30 13 10 25 15 38 20-12-5-24-10-35-18-12-10-21-20-28-31"/><path fill="#354057" d="M141 334c0 6-1 12-5 18-2 2-12-3-13 2 5 1 8 1 11 0 3-4 5-1 5-4 5-2 6 1 5 4 3-13-7-6-3-19"/><path fill="#9C9291" d="M415 384c-5 1-3 2-4 5-1 4 3-4 6 0-3 9-3 13-2 22-4 4-6 7-9 7-7-1-10-4-14-7-1 4-5 7-9 8 4-1 6-4 7-6 6 0 8 3 11 5 5 3 8-1 12-3l1-2 1-2c-1-8 2-13 3-21 0-3-2-4-2-5"/><path fill="#DEB1AE" d="M474 232c-2 6-12 0-11 8 7 3 11-1 12-6"/><path fill="#786E73" d="M462 323c-10 12-16 6-15 13 5-1 11-3 15-7 1-1-1-2 0-4"/><path fill="#050710" d="M94 379c15 7 33 4 48 11 1 6 3 9 3 13-3-7 0-16-3-23-1 2-1 5 0 8-15-6-32-3-45-9"/><path fill="#44586E" d="M402 247c-2 5 2 9 6 10 7 5 13 6 19 7-8-4-20-8-26-14"/><path fill="#3D4E66" d="M450 470c-25 14-4 14 10 12 0-2-12-1-18-3 0-3 3-6 5-9"/><path fill="#84A7B0" d="M399 122c-2 7 8 10 10 11-2-5-5-10-7-11"/><path fill="#5A768A" d="M467 183c-21 21-1 2 7 7 4 3 9 6 10 10-1-4-7-14-16-13l1-1h-1"/><path fill="#537188" d="M265 481c4 6-11 9-16 10 6-1 29 4 17-9"/><path fill="#BAB2AA" d="M408 388c-2 8-14 8-15 14 7-2 11-4 14-1 0-3-2-7 0-11"/><path fill="#877B7B" d="M305 431c3-2 0 11 9 7-3 2-3 6-6 4-4-3-5-5-4-9"/><path fill="#7D585E" d="M475 229c-3 4-10 0-14 2-2 3-3 1-2 0-2 4-2 6 1 8 3 4 4 8 8 6 3-2 8-5 9-10-2 5-6 8-10 9-6-2-5-7-5-10 6-5 20-1 15-5"/><path fill="#857B78" d="M285 431c4 4 12 8 18 1-3 8-8 6-11 6-4 0-5-3-7-3"/><path fill="#191E29" d="M70 357c0 5 9 11 14 17 14 9 8 3 15 5-10-4-21-10-28-20"/><path fill="#E5E7DF" d="M348 111c-4 7 7 6 10 4 0-5-4-3-7-4"/><path fill="#090A0F" d="M495 216c2 12 5 22 3 35-3 14-11 26-18 35 7-9 16-18 17-30l2-1v-1l-1-3c3-11-1-23-3-33"/><path fill="#070712" d="M291 488c9 7 33 2 50 4l-48-3"/><path fill="#5B7F96" d="M448 472c-9 7 4 7 8 6-2-3-4-4-6-6"/><path fill="#39465E" d="M124 351c5-1 9 2 11 1-8 4-9 6-12 1"/><path fill="#698694" d="M435 192c4-3 8 4 4 7-5 1-7-3-5-5"/><path fill="#D4E2E1" d="M306 178c2 2 13-1 16 3 8 3 14 9 17 14-2-4-5-9-10-12-7-6-13-6-21-5"/><path fill="#F3ECE6" d="M319 201c-1 3-3 7-1 9 6 0 6-5 4-9"/><path fill="#151B30" d="M179 412c-2 4-2 11 0 14 5 7 10 11 16 12-5-3-11-6-13-12-3-5-4-8-4-12"/><path fill="#344158" d="M231 375c-3 10-4 3-10 3 0 6 7 7 6 9 3-2 4-5 3-10"/><path fill="#46586E" d="M392 258c-14 6-31 8-47 6 8 2 18 1 27 1 8-1 14-4 19-7"/><path fill="#7A6F70" d="M303 321c1 8 8 12 14 17-4-4-8-10-12-15"/><path fill="#E7E4DE" d="M314 191c-19 8-6 2 5 2 9 4 13 12 15 18-2-7-5-15-13-18-3-1-4-2-7-1"/><path fill="#3C4D64" d="M238 466c-8 1-16 1-21 5 5-8 57-1 21-6"/><path fill="#090B11" d="M185 267c-15 20-25 41-33 63 8-21 19-42 32-60"/><path fill="#4E687F" d="M468 327c-4 4 3 9 5 12 0-4-1-7-3-10"/><path fill="#AA8B88" d="M316 198c0 2-1 3-2 4 0 6 0 8 2 11 3-2 6 1 6-2-1 3-3 1-4 0-4-4-1-7-2-9 7-5 9 2 8 5 1-4 0-10-6-8"/><path fill="#998E8D" d="M407 360c-1 4-5 4-7 5 6 5 10 0 9-5"/><path fill="#7197A5" d="M400 221c3-1 8 1 11 1-2 0-22 3-13-1"/><path fill="#171827" d="M282 378c-2 6-6 11-10 16-6 4-12 9-17 8 7 6 8-5 11-3 7-6 13-12 16-20"/><path fill="#9B939A" d="M469 200c-4 3-3 10 0 13 4 0-2-6 1-12"/><path fill="#435369" d="M476 284c-6 7-21 10-18 14 6-3 12-7 19-12"/><path fill="#070816" d="M446 455c-11 8-22 15-34 21 11-6 22-11 33-19 17 0 16 0 1-2"/><path fill="#364560" d="M128 375c3-1 7 1 10 1-2 2-15 2-12-1"/></svg>