<svg xmlns="http://www.w3.org/2000/svg" width="600" height="600"><path fill="#747864" d="M286 112c10 1 23 0 33 0 33 8 64 5 97 6 11 4 21 7 28 13 7 5 13 9 16 15 7 8 8 17 11 24 13 10 20 23 30 24 3 26-4 47-1 69-10 5-17 6-23 7-6-4-12-5-14-9 4 8-2 18-2 27-2 6-4 11-9 12-15-16-18-36-34-50-9-11-21-16-28-23-9-9-13-17-14-27-14 0-25 3-35 9-11 4-17 11-25 16-8 8-11 19-12 29 15 14 33 18 47 31 17 14 26 29 33 47 16 7 29 19 38 32 9 14 10 31 6 44-5 15-14 23-24 32 8 2 16 8 23 12 0-12 1-22 7-31 4-9 10-14 16-19 9-7 18-10 27-12 12-1 21-3 29 2 16 6 31 17 35 30 4 12 4 22-1 31-4 10-10 16-17 22 2-1 4 2 7 3-26 7-53 8-81 9-6-2-10 0-13-2 6-5 11-5 17-4-8-3-14-7-21-5-13-1-21 2-30 5 3 1 14-2 14 3-24 0-43 1-65 2-9-9-20-8-29-10-40 1-75 7-115 4-19-4-37-7-55-9-24 0-43 3-65 0-12-4-22-8-30-16-1-8-5-12-3-19 3-12 9-21 18-26 10-3 19-2 23 6 7 10 4 21 5 31 8 3 11-2 16-7-7-9-13-15-19-23-6-10-12-17-16-26-11-20-18-40-21-61-3-19-3-37-1-54 9-54 40-101 87-126 23-16 45-25 72-31 22-5 44-8 67-6"/><path fill="#232D32" d="M60 277c0 6-3 14-1 23-1 11 1 19 1 28 3 16 8 28 11 42 7 17 15 30 25 43 10 14 20 25 33 34-1 6-1 10-5 11-16 5-22 0-33 9-5-15-16-5-22-17 0-8 2-13 6-18 7-3 9 3 9 6 7-1 5 2 10-1 0-4 2-9-2-13-3-6-9-6-14-5-9 6-18 13-22 20 1 8-2 16 6 19 15 11 28 14 46 12 8 0 11-1 18 0-3-3 12-9 14-14 12 7 22 11 32 15 11 4 23 5 33 8 50 7 94-11 138-1-7-1 1-4 1-7-14 0-25-3-37-6-17 4-31 9-47 11-20 3-39 3-57 2 7-5 16-1 23-2-1-3-7-1-6-5 12-4 9 7 19 3-6-3-11-8-14-12 8 3 14 8 20 12 3 1-3-3-5-5 13 1 12-11 20-13 9-1 16 5 22 7-12-8-26-12-35-23-8-12-11-23-19-32 5 10 10 17 13 27-10 5-21 3-30 2-7 4-9 10-15 12-7 1-10-4-14-7-1-4 1-5 0-7-11-4-25-7-34-14-8-7-12-15-17-16 3-5 5-8 6-12-6-17-18-28-29-39 0-8 1-14 4-18-2 4-5 8-6 12 0 20 4 39 4 51-8-6-18-13-22-19 6-15 7-29 11-42-3 3-4 9-5 13-4 2-7 3-9-1-1-11-22-31-21-53-3 2-3 4-5 4 2-8-1-16 2-22"/><path d="M257 182c-19 5-37 12-51 24-16 14-29 32-34 51-5 24-2 48 6 66 4 10 8 18 13 23 11 10 23 13 36 14 3-8 5-14 8-21 6-8 10-11 17-14-11-9-22-20-26-32-6-13-6-25-5-38 2-14 7-25 12-35 7-15 16-26 25-37"/><path fill="#EEF2DE" d="M288 113c-17 0-34 0-49 3-19 4-35 7-50 13-17 5-29 13-43 20-9 24-40 25-48 51 4 3 5 1 11-2 0 3 1 5 0 6-10 12-15 31-27 32-3 15-3 30-1 42 2-2 10-12 21-14 7 4 5 12 8 16 1-4 1-9 1-14 9-13 15-12 18-22l2-1-2 1c-4 3-3 9-8 8 4-11 12-17 15-25-1-9-10-9-14-14 3-4 3-10 5-14-4 6-5-4-9-6 2-5 5-6 6-9 8-1 6 7 8 10 3-2 6 1 10 1 5 0 6 3 5 5 13-11 25-30 42-35 1-6 4-9 5-12-4-3-5-1-9-1 1-4-5-5 0-6 10 2 15-3 20-9 8 3 6 10 18 6 29-1 54-7 83-4l8-8c-2-4-5-6-8-7 16-5-8-13-14-10"/><path fill="#C8D5C1" d="M125 184c-1 2-2 3-3 5 1-2 3-3 5-4 1 3 3 4 3 6-3 4-8 8-11 1 3 3 5 11 8 6-1 6-2 11-5 14 6 4 16 9 15 16-14 14-10 28-24 35-2 8-1 14-2 19-4-6-4-13-7-17-13 2-20 11-22 16-1 3-1 6 0 9 5-9 9-16 17-22 2 5 11 11 6 18-6 6-14 12-16 6 0 7-2 10-3 13 4 12 9 21 13 30 5-4 8-11 14-13 4 13-4 19-2 29 11 12 22 20 33 27 11-4 12-19 24-21 3 6 5 6 8 9 1 0-1-1-2-3 6 1 5 7 10 4 4 7 3 10 8 12 7 3 10 7 18 7 5 0 8-1 8-5 6 2 10 3 12 7 12-5 15-13 27-15 5-2 2-4 2-6 9 8 11-2 16 0 1-3-1-6-1-9-13-3-6 6-33 4-16-1-33 1-53-3-5-6-20-9-26-19-19-23-23-51-33-76 0-4 4-12 6-7 1-17 10-36 2-41 4-5 8-7 13-8-1-4-2-7-1-10-1 1-1 2-1 3-2-1-1-5-4-5-6 0-9-3-13 1 0-5-2-9-2-13"/><path fill="#F5F5D8" d="M330 115c2 6 8 9 14 9-24 9-43 22-62 37-32 22-30 55 1 36 11-5 20-20 34-30 0-5-10 0-9-6 18-11 40-5 53-23 12 7 22 3 35 3-3-3-6-5-10-7 5-6 11-7 15-8 17 0 25 12 39 19-12-1-25-5-37 0-3 5 1 6 4 8 16 5 36-1 48 9 5-3 6-5 5-9-5-10-7-16-15-20-9-7-18-10-28-12-29-5-58 2-84-6"/><path fill="#473430" d="M350 398c-2 8-2 16-1 25-12 11-29 9-40 17 8-9 8-25 4-37 1 3 2 5 2 7-8 6-16 6-21 9-2 19-2 27-5 44 4-12-7-21-15-28-7-6-14-12-20-21 1 5 10 8 8 14-8-2-8-1-11 5-3-6-9-2-13-11 3 6 4 12 9 16 10 13 24 16 35 24-6 0-13-6-20-5-3 7-24 11-20 14-8-4-15-9-22-13 7 4 12 11 20 15-26-9-1 9-39 2 20 3 39 3 56 0 19-2 33-7 47-12 15 4 26 7 39 7 1 6 0 2-3 2 6 4-2 4 5 7 0-12 7-22 17-29-7-1-16 1-23-1 11-21 38-32 9-49"/><path fill="#6E763F" d="M235 150c-7 0-13 7-19 6-1 6-7 9-11 10-5-1-9 0-11-2-3 4-7 7-2 10-9 5-13 6-21 11-3 5-1 8 2 11-5-3-7 6-13 3 3 4 6 7 8 10 5 0 7-3 8-5 4 0 5 3 6 5-9 2-15 12-17 21-7-3-9-26-15-20-1 14-15 34-11 53 1-2 5 2 8 4-2-3-6-7-4-12 7 8 8 6 11 11-3-35 17-10 8-33 5 11 10 20 7 30 2-7 4-14 7-21-3 3-1 5-5 7-3-4-6-9-3-12 5-4 6-9 11-10 2 4 1 7 0 11 8-22 29-34 45-48-3-2-10 4-10-1-1 7-4 8-10 11-1-5-3-7-10-7 3 5-9 10-8 14-4-15 5-13 5-27 4 1 7 4 10 0 6-6 15-7 17-15-1 7 6 0 15-1-1-4 7-12 4-15"/><path fill="#263332" d="M378 350c-6 11-12 12-18 22-2 10 7 4 9 14-3 3-5 3-8 4-7 0-12-4-18-4-6 10-17 15-26 22 3 21-11 30-6 40 1-3-1-9 1-11 14-4 25-6 35-12 0-11 0-19 2-27 6 8 9 15 16 19 4-12 8-28 7-43 4 4 4 7 6 10 2-6 10-8 8-16 2 3 7 3 8 6 13-5 1-9-3-14-3 2-3 4-3 6-5-3-5-12-9-14"/><path fill="#516F71" d="M140 392c-6 8 3 12 8 16l-2 1h2c7 2 29 10 42 13 3 4-2 10 6 12 4 3 8 0 10 3 4-6 12-11 6-16 9 2 17 1 22 4-2-9-7-16-11-23-18 1-35-2-50-8-2 6-8 9-11 14-1-4-7-7-6-10-6-3-10-3-14-5"/><path fill="#415549" d="M356 308c5 13-3 16 2 28-2 7-12 3-11 10-2 8 1 15 3 18-2 1-3 2-5 3 9-1 2 2 12 1 1 8-4 10-6 15 10-13 17-22 26-32 6 0 7 10 10 14 0-2 1-7-1-10 11-1 4 10 15 12 4 1 5-2 9-1 1 9-11 13-5 21 0-3 3-6 5-7 2 8-2 11-4 15-4-5-3-7-6-10 2 2 2 6 4 8 1 10-3 16-7 21 12-3 8-19 19-21 2-9-4-14-2-22-6-7-11-12-18-11-14-13-11-34-23-48 6 7-11 3-9 11-4-3-4-9-7-12"/><path fill="#D0D7BA" d="M327 299c-6 8-8 8-15 13-5 13-3 12-6 19-6 3-13 6-19 11-4 3 2 6-2 8 11-1 20 3 26 11 10-8 20-29 32-30-2-4-3-7-5-10 32 3-3-11-9-21"/><path fill="#375253" d="M109 355c12 11 23 22 27 36 3 7-5 10-4 13 7 4 13 17 20 18 11 6 20 9 31 11-3 6 1 10 6 13 10 5 13-5 19-8 12-1 22 1 31-2 0-4-1-6-3-9-6-4-12-4-18-5-1 2-5 10-10 14-4-1-8 2-11 0-8-3-8-9-4-12-16-3-38-13-45-14-1-4-9-5-10-10 1-3-2-6 0-8 7 1 12 3 17 3 1 6 6 9 6 11 3-4 9-6 10-12-7-2-12-4-17-7-4-4-1-7-1-9-2 1-1 4-4 5-14-6-27-14-37-27"/><path fill="#3E4F4F" d="M444 431c-4 0-4 5-7 6-5-2-4-2-7-2-7 20 6 27 19 36 3-1 7-5 6-10 4 8 7 13 16 14 2-1 3 0 5 0 7 1 14 1 19 2 13-6 23-6 25-13 4-2 7 0 8-1 2 3-1 5-1 6l-1 2 2-2c7-7 12-14 14-23 0-3-6-1-8-3 3-3 5-7 7-8-2 1-4 5-7 5-3 5-5 4-4 1 0 5-2 9-4 13-5-1-9 2-8-4-4 0-5 7-9 9-5 2-10 1-14 1 2-2 4-6 5-7-9-2-8 5-13 7-2-5 3-11 6-8-2-2-4-2-7-2-5 2-8 7-8 10-1-3-6-1-8-2 3 4 7 6 12 7 8 2 15 2 20 0 3 5-6 2-3 7-8 1-15 0-22 0-8 0-16-4-20-11-3 3-5 7-8 2s-4-9-6-13c3-6 8-9 10-13 4 7 6 13 10 18-3-10 7-16-2-20-2 1-4-1-6 2-4 4-8 6-11 8-4-2-7-2-7-5 1-5 9-4 6-7"/><path fill="#564030" d="M377 176c0 2 2 4 3 5-6 6-13 6-18 8-6-5-8-9-11-5 1 5-3 10-3 15-1-2-2-5-1-8-2 1 1 4-2 4-4-1-5-4-6-6-3 0-10 5-11 12-1-7 0-12 0-17-1 2 0 4-2 6-7 0-14 5-19 9-7 9-11 23-11 26 19 1 38-21 81-28-2-7 9-16 1-18"/><path fill="#A26035" d="M164 235c3 16-5 32 0 48-11-10-6-10-20-24 9 16 19 31 18 51-4 2-14 0-11 8 5 11 12 20 21 28 9 6 17 9 25 10-11-12-21-26-23-39-5-12-4-25-10-33 3-16 8-31 0-46"/><path fill="#503930" d="M231 282c3 12 0 26 11 31 11 11 27 19 39 27 5 1 7-2 10-3-10-10-5-26-10-37-6 0-3 10-7 14-8-8-10-18-14-27-4 12-8 20-6 32-1-15-18-22-21-35"/><path fill="#F7F6EB" d="M404 162c-12 6-27 21-22 34 4 3 12 6 13-1 5 3 8 6 12 8 3-3 2-5 3-6 0 4 5 4 7 6-2 2-7-4-5 3 4 2 10 13 11 4 0 8 10 12 14 16 1-6-1-10-2-14-3-5-9-6-10-1 5-5 4-12 0-19-14-3-15 2-30-2 6-4 15 1 19-3 1-7-5-14-12-10 4-5 8-11 5-14"/><path d="M387 378c-6 21-20 39-37 56 8 2 13 1 17-1 12-4 22-10 28-18 5-7 8-12 9-18-2-10-10-15-15-18M487 424c-11 5-28 17-21 33 16 5 16-15 30-12 8 2 5 9 2 12 3 2 7 3 10 3 6-6 7-12 9-17-1-7-5-10-9-13-7-4-12-6-19-5"/><path fill="#27363C" d="M487 407c-1 1-3 0-4 1-3 13-32 12-16 33 3-5 8-13 14-16 9-2 16-2 21 1 7 1 9 6 13 8 5 11-3 17 5 17 1 0 5 5 6 3 7-12-2-23-2-30-1 1-3 1-5 2-3-8-1-10-11-15-7-3-14-3-19-5"/><path fill="#5B7E65" d="M250 245c-14 4-28 17-9 30 12 10 26 13 37 21-8-13 6-29-10-37-4-1-7 5-12 5-8-7 1-13-6-17"/><path fill="#516E64" d="M295 382c-17 8-34 14-51 18 17 11 12 19 29 24 8-2 12-6 17-7 3-13-1-33 9-36"/><path fill="#DFDFB3" d="M323 155c-4 3-9 3-12 7 1 3 5-1 6 4-5 5-10 11-15 15-10 11-11 17-18 21-9-2-19-2-22 2-5 0-6-5-7-7 1-8 10-14 11-20-7 6-23 23-22 30 3 2 12 10 19 10 2 9-1 16 1 23 4-3 7-4 11-5 9-10 9-33 26-52 6-7 11-11 17-15 6-10 24-16 6-12"/><path fill="#576D60" d="M386 341c0 8 10 11 10 17 7 0 10 5 15 7 3 11 6 18 8 26-12 15-20 27-36 35-7 5-13 7-18 11-8 0-11 2-16-1-6 2 2 8-6 11 13 2 27-2 32-4-1-1 7-4 2-8 16 3 23-18 35-19 5-6 7-12 8-18 6 0 7 9 7 12 5-17-16-27-13-43l-3-2 1-1h-1l-1-2c-6-9-15-15-22-19"/><path fill="#BCC5A5" d="M286 343c-17 12-37 18-57 18 9 6 22-7 30 3 5-8 6 1 8-8 10 1 8 8 9 7-12 2-2 8-16 6 3 1 0 2-1 4-14 4-16 10-23 13-6 5 2 7 3 10 8 2 12 0 17-1-3-2-7-3-9-7-1-6 3-6 5-10 11 0 17 6 23 11 13-4 53-28 19-10-5-4-10-7-14-11-3-5-1-9-2-11 7-2 11-3 15-5-2 1-6 3-8-1 2-3-1-5-1-7"/><path fill="#394A4B" d="M76 280c-6 1-3 16-5 23-4 2-6-8-7-4 11 36 17 40 22 52 9-2 8-10 12-13-12-19-16-38-20-57"/><path fill="#BBD07D" d="M427 157c4 1 5 4 1 6-24 1-19 12-13 17 5 7 13 13 20 9 5-1 8-2 12-1-2-5 5-6 4-10l-3-3c5-1 0 0 1-4l2 1 1 1 2 2-1-1-1-1v-2c5-2 10-3 10-8-4 5-13-5-19-4s-7 2-6 5c-11-7 5-6-8-8"/><path fill="#CEAD3D" d="M338 280c-2 1 2 7-3 8-8-2-13-9-22-7-6 1-9 4-12 7 2 0 4 6 5 7 8 0 15 5 20 1 8 9 17 16 26 19 2-5 3-12 1-17 21 4-7-14-11-17"/><path fill="#AFBCB2" d="M173 361c-5 8-2 22-1 31 17 7 33 9 50 8-2-5-3-10-4-14 3-6 5-1 6-1-1-1-5-5-6-2-9 7-18 1-26-2-4-2-5-14-12-12 2-5 3-4 4-3-7 4-4-8-12-2"/><path fill="#493D3C" d="M391 455c-2 2-6 0-8 1-6 0-22 6-25 14 2-4 13-4 17-7 1 4-6 5-11 7 18-1 24 8 45-4 0 5 2 6-1 9-18 6-36 10-56 8 15 3 30-1 47 1 7-4-5 1-7-2 9-2 46-11 16-26-5-1-10-1-15-2"/><path fill="#344951" d="M94 427c4 3-1 8 2 10-5-1-9 4-10 0-4 5-4 10-5 14-25-1 8 5 8 13 15-8 24-1 40-11-1-9-9-10-12-13-6 11-17 8-22 16-3-16 11-12 0-29"/><path fill="#C0A734" d="M284 222c-2 6-7 10-8 16 1 2 3 4 4 7 0 6-6 8-5 12 3 7 3 14 11 17 5-6 4-15 3-20 2-3 3-6 6-6-3-10-4-17-8-24"/><path fill="#1F3A38" d="M229 263c0 13-11 11-3 28 2 5 4 8 5 12 1-8-1-14-1-21 7 13 22 21 23 35-2-10 3-19 4-28-6-3-11-3-13-9-4-3-12-8-15-14"/><path fill="#4A352C" d="M105 332c-11 13-8 32-17 45 5 9 14 16 20 21-1-18-1-40-6-55-3-5 1-6 1-9"/><path fill="#677D5E" d="M140 263c-3 3 0 9-2 14 2 12 4 26 9 34 4-2 8-7 11-5 1-6-1-9 0-15-4-11-10-25-17-27"/><path fill="#435445" d="M268 333c0 3-6 6-8 9h-14c2 2 4 4 1 6-11 7-4-6-10-2-5 4-7 8-6 13 18 0 20-6 29-4 8-4 34-17 24-13-5-5-11-5-14-8"/><path fill="#7B8E79" d="M346 337c-16 22-36 35-48 42 5 3 10 6 12 11 2-2 5-2 7-4-2-2 5-7 2-12 8-6 23-6 22-16 1-7-1-13 3-18"/><path fill="#4B6567" d="M455 438c-13 6-12 17-4 26 3-1 3-3 5-3 4 5 10 8 15 10 9 4 14 2 20 3-1-1-4 1-6-1 11-2 12 0 16-7-4 1-18 4-25-2-10-7-19-12-21-25"/><path fill="#463B3B" d="M431 457c4 4 2 11 6 15 4 2 8 3 10 5 9 4 10 5 19 4-4 3-7 4-11 3 22-1 42 1 63-6 1-5 9-6 9-12-1-5-3 0-5-1-5 10-11 4-18 12-24 2-26-1-43 0-1-6-2-9-6-12-1 3-2 8 3 10-5 0-13-3-9 3-10-6-12-16-16-21"/><path fill="#345049" d="M365 164c-9 1-17 4-24 10-1 5-3 10-1 14 8 2 7-4 10-9 15 5 41 6 17-15h1-1"/><path fill="#31151D" d="M398 205c-3 8 4 3 0 11 12 13 5-5 25 15 9 17 24 26 36 37 4 3 2 7 3 9 2-7 3-14-2-21-13-12-32-32-35-23-10-12-25-16-24-27"/><path fill="#7F8247" d="M325 173c-14 5-21 16-33 27-2 6-4 10-3 14s2 7 6 8c1-6 11-22 13-26 2-3 12-6 21-25"/><path fill="#C0D5C4" d="M495 389c-49 7-4 9 12 14 8 3 8 6 9 11 5 0 4-5 8-6-5-12-17-16-28-18h-3"/><path fill="#B6BF99" d="M245 201c-9 11-8 16-13 30 11 0 16-2 21-2 7 1 11 4 10 13l2-2 2-2-1 3h-2c-4-7 0-14-1-21-7-2-20-12-18-11-3-2-2-4-1-6"/><path fill="#5B766C" d="M318 379c3 5-2 8-7 12-3-2-6-8-9-7 6 6 12 13 13 22 21-5 38-32 1-25"/><path fill="#8C5236" d="M226 399c5 9 11 18 15 28 10 0 3 4 11 5 2 2 9 0 13-2-3 0-8 3-12 2-3-8 4-2 9-6-9-10-14-19-23-25-3 2-9 4-11 1"/><path fill="#90A182" d="M238 213c-2 4-5 7-6 12 0 10 1 18 4 25 4-1 8-4 12-6 4 3 6 5 6 7 4-3 6-5 8-8 2-11-6-12-7-13-9 1-11 0-21 5-4-4 1-15 3-20"/><path fill="#3F5C4C" d="M277 270c-1 8 0 13-1 19 5 10 14 12 18 20 5 7 7 13 4 19 6-7 10-18 8-29-17 7-5-13-17-3-1-5-6-9-8-12 2-3 3-6 7-7-4 4-7-2-9-5"/><path fill="#4F3B32" d="M407 366c-3 4-9 4-10 8-4-2-9-2-10-4 2 8-8 8-8 16-3-4-5-7-5-10-1 13-2 28-10 37 12-10 19-23 22-37 12 11 18 8 18 19 4-5 7-8 7-12-4 0-4 2-5 5-2-3-4-5-5-7 5-5 9-9 8-14"/><path fill="#242E2E" d="M247 405c13 19 28 27 41 45 1 5-4 11 3 12-2-19 3-32 2-56 1 4 0 7-1 10-8 5-15 8-21 11-11-5-15-13-23-19"/><path fill="#D6D9B3" d="M294 251c-6 4 1 18-2 25 11 1 19-9 33-3 0-7-22-11-28-19"/><path fill="#5C292E" d="M405 219c10 12 27 33 28 40-1-9-16-25-20-32 17 20 28 30 35 48 4 3 12 8 12 8 2-4 0-10 0-15-22-9-29-35-51-48"/><path fill="#667B38" d="M339 368c-2 1-4 0-5 1-9 1-13 3-13 10 9-1 19 1 25 6 17-12 8-18-6-17"/><path fill="#536E64" d="M462 396c-8 3-15 9-21 16-7 7-8 14-12 20 8 6 15-2 28-2 3-6 7-9 10-13-5 7-11 7-19 15 1-10-5-7-6-18 4-4 6-7 9-9 5 0 6 2 8 0-1 4-2 5-3 7 1-2 2-3 4-4 5-3 7-15 2-10"/><path fill="#AC9434" d="M297 356c-21-2-20 11-2 18 6-2 11-5 16-7-2-6-7-9-10-11l-2-1h-1"/><path fill="#5B7068" d="M87 208c-9 7-11 20-16 29 6 8-1 26 2 43 5-18 3-50 14-69"/><path fill="#839288" d="m374 444 5 5c-24 0-3 3-23 9-6 3-7 10-6 15 8 5 10 7 21 7 4-8-11-1-13-9-1-4 1-6 2-8 17-11 58-14 22-10v-1l-1-1-2-2c-1-2-1-2-3-3"/><path fill="#BBC5A6" d="M342 332c-2 1-10 3-17 16-3 5-15 9-11 17 10-3 16-12 24-18 5-7 9-12 5-17"/><path fill="#A6BEA3" d="M100 268c-8 6-12 14-16 23 1 5 0 9 2 12 1-2 2-4 1-8 4 0 14-3 18-12 0-6-4-10-5-14"/><path fill="#C1C79A" d="M326 273c-10-3-33 4-28 10 9-2 15-4 23-3 5 2 7 5 10 7 9 2 2-9 9-9 8 5 13 10 19 14-6-4-12-9-18-13-6-3-9-6-13-8"/><path fill="#BB523A" d="M455 235c3 3 1 8-1 13 7 7 11 13 16 18-2-3-2-5-1-8 3 3 4 7 6 3-4-3-6-8-6-11 3-6 7 4 9 7 0-4-2-7-3-10-6-6-10-12-17-13"/><path fill="#1B3733" d="M282 300c4 10 1 25 9 34 7-5 9-12 6-17-2-9-7-13-12-17"/><path fill="#935637" d="M299 386c2 3 8 3 6 9-4 6-10 0-10-3-1 8-1 16-1 24 7-1 13-2 19-5-2-9-4-19-12-24"/><path fill="#A4B5A0" d="M400 441c-7 1-31-1-18 10 11-2 17 3 24 0 0 4 10 3 13 4-16-18-8-8-17-10"/><path fill="#759169" d="M286 141c-13 0-22 3-33 4 9 4 11 2 18 0 1 5-2 3 5 8 9 3 52-16 9-12"/><path fill="#2B5247" d="M270 157c-8 1-17 3-24 5 3 10 0 10 5 12 3 5 1-4 3-6 3 6 6 3 10 5 5-8 13-8 7-17"/><path fill="#A8C1AF" d="M472 390c-21 28-3 16 18 14 12 2 20 5 28 11-6-3-2-8-9-9-13-4-26-10-37-7-6-2-1-4-1-5"/><path fill="#5D221D" d="M467 237c0 2 11 9 11 16-2 7 0 8-4 10-3-2-6-4-6-7 2 4-1 7 5 9 7 5 17 2 23-2 5-8 3-16 0-21 1 17-11 3-14 19 1-5-4-2-2-7-2-5-5-11-11-16"/><path fill="#568570" d="M379 150c-33 3 21 15 30 8-7-5-12-6-24-9-3-1-4-1-5-1"/><path fill="#395635" d="M231 165c-12 3-22 10-32 18-4 0-4-2-6-3-3 3 1 10-5 11 16 0 25-16 41-17 0-4 3-6 2-9"/><path fill="#E6EBA8" d="M403 127c-5 2-10 1-15 4 3 5 7 7 10 10-41 4-17 3 5 8-5-2-2-7 2-5-6-2-16-7-15-12 44 2 33 13 44 13-3-7-16-12-21-18-4 0-6 0-9-1"/><path fill="#97773B" d="M163 361c-6 5-7 14-10 21 6 4 10 8 15 7-1-9 1-21-2-28"/><path fill="#93A694" d="M122 336c5-2 10 0 14 1 6 1 11 4 12 8-1 5-4 5-5 6-9-3-22-3-22-13"/><path fill="#333C50" d="M140 456c-4 7-16 11-11 13-10 0-14 4-21 2 5 1 13 1 17-1 28-2 68 9 12-14"/><path fill="#507371" d="M80 410c-1 1-3 0-4 1-15 3-9 15-20 21 6-5 15-10 21-15 9-2 17 4 19 12 4-6-1-15-7-17-4-4-6-1-8-2"/><path fill="#705A3A" d="M68 248c-4 14-6 29-6 44 5 5 5 9 8 11 5-71-2 11-2-57"/><path fill="#74724D" d="M245 168c-4 2-11 10-16 8 1 3-3 10-4 15 8-3 15-6 24-9 1-4-3-8-3-13"/><path fill="#97A72F" d="M470 183c-1 2-7 1-6 5 5 5 7 8 11 11 3 6 6 8 7 11-1-3-4-5-6-8 4-2 5-6 9-2 0-4-1-7 1-9-2-8-8-10-14-8"/><path fill="#352E2C" d="M339 441c-1 2-2 9-2 19-5 1-7-3-9-5-3 5-6 7-7 10 0-5-7-1-9-4 7-7 15-12 23-18"/><path fill="#CBDEC4" d="M102 192c-5 5-7 12-9 19 4 4-1 11 3 9-3 18-14 0-14 16 12-2 16-20 27-29-1-4-1-5 0-6-5 2-7 0-12 0 1-3 1-6 4-7"/><path fill="#190B10" d="M396 199c0 5-1 10 1 13-2-1 0-10 4-7 3 15 21 19 28 30 1-3-4-6-3-7 9 5 15 11 22 15-19-13-31-31-50-43"/><path fill="#8C9669" d="M255 379c-14 5-6 14 4 15 3-1 4-4 16-4-6-5-11-11-18-11"/><path fill="#244538" d="M228 175c-11 3-21 8-29 16 3 1 6 4 4 8 8-3 9-9 11-14-1 9 7 0 10 1 3-4 3-8 4-11"/><path fill="#88A87F" d="M371 144c1 8-7 8-12 9 2-2 8 3 4 5-13 2-19 0-30-1 5 3 5 9 7 14 9-6 18-9 28-10 1-2 1-4 2-6-2 4-3-2-5 0 4-4 9-3 13-6 28 6 30 4 0-3-3 2-7 4-8 1"/><path fill="#8A4B4D" d="M414 228c20 16 26 56 39 61 2-2 4-3 3-6-14-13-22-34-39-55"/><path fill="#BFBF81" d="M313 114c-13-2 4 7 9 4-1 4 1 8 0 10-3 1-9 5-8 9 8-4 17-8 26-12-4 1-9-4-10-8-7-1-11-3-16-2"/><path fill="#B39F3D" d="M159 199c-17 2 4 20 2 29 5-5 3-8 4-12 5-5 4 3 2 4 1-5 5-9 9-13 4-2 3 1 4 2 2-3-2-3-2-5l-1 1-1 2c-3 1-4 4-6 5-4-5-8-8-10-12"/><path fill="#BB4C24" d="M333 160c-6 15-3 4-5 43 1-8 7-17 11-13-3-10 1-22-6-32"/><path fill="#646745" d="M352 297c5 4 3 14 3 21 2-3 0-7 1-9 5 3 5 10 6 12 0-6 14-4 9-9-4-8-11-10-6-12-5-2-8-3-12-2"/><path fill="#E8E073" d="M391 132c-2 4 7 6 9 10 13-1 22-2 31 1-11-7-24-9-38-11"/><path fill="#D7E4B2" d="M205 137c-2 13-37 9-9 15 14-8 27-1 39-8-8 3-14 0-23 1-2-3 0-8-3-7"/><path fill="#314331" d="M316 218c-3 4-13 4-19 11-3 1-3 3-2 6 4 2 6 3 9 4 6-8 10-15 13-20"/><path fill="#97AE3C" d="M460 169c-17 4-3 6 1 13 7-2 12-1 17-2-4-5-8-7-15-11l-2-1h-1v1"/><path fill="#759131" d="M485 192c5 15-7 3-8 10l1 3-2-1c-2-3-1-5-6-6 1 1 1 4-2 5-16-8 0 8-13-2 7 4 11 10 16 14 4-1 12-4 5-9l2-1h1c4 2 5 8 3 7-1-10 6-4 3-18"/><path fill="#F6F3E8" d="M444 201c4 9 13 16 17 25 5 1 6-2 8-3-4-12-15-13-23-20"/><path fill="#547D79" d="M536 415c1 2 4 6 2 9-13 9-6-10-11 1 2 6 2 12 4 17 4-3 7-5 10-8 2-8-1-12-3-18"/><path fill="#93AC47" d="M459 188c-3 7-12 1-16 5 5 1 10 6 15 9 13 6 15-5 4-12"/><path fill="#7A9389" d="M464 405c-8 7-15 14-18 23 8-2 13-6 17-8 4-5 1-8 1-10 15-1 12-3 1-1-2 2-3 1-4 2-2-3-1-4 0-5"/><path fill="#BFD18E" d="M236 145c-12 6-21 1-39 6-2 5-5 8-6 12 14-12 35-7 50-18"/><path fill="#698254" d="M252 145c-3 9-14 4-8 15 10-2 18-4 28-5-4 2-13-3-16-9"/><path fill="#7DA694" d="M413 363c2 13 9 25 16 36 1-10 0-19-4-26-4-6-2 2-5 2-4-4-6-7-7-10"/><path fill="#829681" d="M124 336c-3 4 2 9 5 9 7 1 11 6 16 4 2-6-3-9-5-10-6-1-10-2-13-3"/><path fill="#302C2B" d="M340 440c-9 8-19 14-28 20 2 3 9-1 9 5 2-3 2-7 4-10 6 0 6 8 11 4 1-6 0-13 2-16"/><path fill="#DAD5C3" d="M380 194c1 1-6 12 0 10 3 1 0 3 2 6 10 8 21 13 29 23-5-9-10-10-14-14-3-7-5-10-3-17-4 5-10-2-12 2-2-7 6-1 10-4-4 0-12 1-12-6"/><path fill="#9FC6AF" d="m111 177-16 16c-2 11-7 21-11 34 4 0 6 6 9-1 4-6 0-9-2-14 3-14 12-23 18-34"/><path fill="#1E3B33" d="M261 289c5 8 6 17 12 25 3-6 3-11 4-17-5-3-9-5-14-7"/><path fill="#B7AC54" d="M429 195c3-1-1 10 6 12 0-2-4-7 0-8 1 5 3 8 9 11 2-6-3-4 0-11 8 8 17 8 27 18-8-9-16-15-25-20-11-4-14 8-14-3"/><path fill="#B8C883" d="M362 141c-3 1-6 2-8 6-7 4-13 6-18 8 9 0 15 5 24 2 5-8-14 3-7-9 7-4 30-4 9-8"/><path fill="#DDE4B9" d="M190 166c-14 4-25 17-35 28 1 0 2 3 4 3 8-13 21-21 30-30"/><path fill="#41534E" d="M421 398c-1 6-3 12-6 18-3 2-5 2-8 1 4 0 7 2 10 3 2 4 0 5-2 6 4-4 8-7 10-11 1-8 0-14-3-17"/><path fill="#AC4C30" d="M373 157c-2 1-2 4-1 7 3 6 4 14 9 16 2-3 5-4 5-5-5-9-8-14-12-16"/><path fill="#53473B" d="M412 419c0 3-5 1-6 3-1 3 2 6 0 9-5 12-26 1-17 7 6 1 10 3 15-1 3-2 19-14 10-18"/><path fill="#6C9B8F" d="M526 403c0 5-4 8-5 12 2 0 6-2 8 0 6 5-4 8 2 10 4-1 7 0 6-5-1-7-4-11-9-14"/><path fill="#B09C32" d="M271 237c-2 3-4 4-6 5-4 5-7 8-10 10-1 4-3 7 0 9 6-1 9-4 13-5-1-5-1-9-4-11 3-1 4-4 5-5"/><path fill="#7FA58C" d="M255 325c0 4-8 6-10 14 4 0 9-2 12 1 9-5 5-12-1-13"/><path fill="#B8B53F" d="M207 155c-3 4-13 0-15 8 5 1 10 3 13 2 7-1 12-12 4-11"/><path d="M77 432c-6 3-5 10-7 15 5 1 7 1 9 1 0-6 6-13 0-17"/><path fill="#678185" d="M142 395c4-2 8 2 12 3 4 6-3 0-4 3 3 3 5 4 8 6-21 2-20-15-9-8"/><path fill="#C2844A" d="M221 384c1 5 2 9 4 14 3 5 7 6 9 3 2-7-6-12-11-17"/><path fill="#CDE3AC" d="M137 156c-13 9-26 18-33 33 7-18 30-14 33-33"/><path fill="#6D6C6C" d="M351 462c-11 16 5 24 20 20 12-1 26-4 36-8-18 6-25 2-44 7-5-10-5 3-13-5 1-6-3-5 0-12"/><path fill="#44502E" d="M361 374c-28 18 9 13 5 12 0-8-5-4-7-9"/><path fill="#8B9F85" d="M307 297c1 8 1 15-2 21-2 9-8 13-12 18 8-9 33-39 19-38"/><path fill="#C2D4A1" d="M133 199c3-1 8-1 10 1 4 2 3 4 4 5-4 5-8 3-11 4-3-3-3-5-4-7"/><path fill="#4A5B3F" d="M161 241c-5 8-4 15-5 27 2 3 2 5 3 7 1-10 2-22 4-32"/><path fill="#6C6D36" d="M292 235c2 3 3 7 3 11-1 4-7 6-6 7 4-6 9-3 13 1 1-5 2-9 4-12-5-3-10-3-14-5"/><path fill="#434C44" d="M403 421c-5 6-10 10-17 13 5 3 11 3 16-1 4-3 4-7 2-9"/><path fill="#E1EAD8" d="M385 335c3 10 18 12 24 22-6-11-11-18-23-22"/><path fill="#555732" d="M179 226c-3 5-9 8-12 12 1 4 1 7 3 10 4-6 11-11 9-20"/><path fill="#6D6E3F" d="M229 235c-6 10-7 21-8 32 4-5 9-8 13-12v-5l1 3-2 1c-1 4-6 4-4-1-1-6-3-16 1-17"/><path fill="#C0A13F" d="M343 320c-8 2 6 11 4 17 3-2 4-5 6-7 0-6-5-9-7-10"/><path fill="#445D56" d="M453 406c-4 1-6 4-8 7-1 4-1 7 0 10 1-6 20-17 10-17"/><path fill="#9C924C" d="M320 167c-10 9-23 20-28 32 9-13 21-17 29-30"/><path fill="#8C9889" d="M402 442c2 7 16 0 19 12-10 6-17-8-17 0 9-2 14 9 24 9-6-11-9-18-25-19"/><path fill="#607663" d="M345 339c-8 16 2 18-9 29 4-2 10 0 13-4-4-4-7-15-2-22"/><path fill="#258284" d="M446 214c1 3 3 7-1 11 1 4 7 6 10 3 0-6-3-10-7-14"/><path fill="#6D7446" d="M288 277c-2 5 10 12 9 17v3l-1 1h1c4 2-1-4 6 0 2-4-2-6-6-1 1-6 3-9 5-12-4 1-7-5-12-7"/><path fill="#C8DEC3" d="M314 118c2 4-5 3-6 5 2 2 5 4 7 7v1l-1 1v2l-1-1 1-1h2l2-3c1 1 3 0 4 1-1-8 3-13-7-10"/><path fill="#2E3936" d="M350 179c3 12-13 8-7 15 4-4 6-9 7-14 5 2 7 5 9 8 8-2 14-2 17-7-7 2-17 2-22-1"/><path fill="#AB9C5B" d="M243 160c-9 0-10 9-13 15 7 0 9-5 12-9 1-1 2-3 1-5"/><path fill="#E4E6CC" d="M328 306c8 2-2 18-3 23-2-7 0-13 1-20"/><path fill="#B2C09F" d="M326 297c-1 3-5 2-8 3-3 6-6 8-6 13-5 10-11 17-18 23 4-2 8-3 13-4 2-9-2-4 3-18 5-6 11-8 14-13 4-4 6-1 7 1-1-2-2-3-3-4"/><path fill="#D2AA94" d="M424 221c10 7 27 25 28 21-1-13-18-8-26-21"/><path fill="#546C54" d="M287 279c-10 2-1 8 2 15 2 0 4 0 6-1-1-6-8-9-7-13"/><path fill="#48434A" d="M431 458c-2 16-11 15-19 18 6-2 15-1 22-3-1-4-1-9-3-12"/><path fill="#F4EEE2" d="M497 192c2 9-6 13-4 21 2-4 7 3 7-3 1-7 0-11-2-15"/><path fill="#E4EAAC" d="M412 156c-3 7 1 7 17 7-3-10-11-3-17-7"/><path fill="#3C352B" d="M323 200c2-1 4 4 5 6-1-3-7 8-12 8-1-4 1-8 5-12"/><path fill="#294722" d="M491 215c2 9-4 1-6 4 1 3 2-1 3 1 1 6 3 8 2 12-1-1-4-3-4-5-3 3 4 17-3 10 3 3 4 7 6 10 2-2 1-9 2-13 0-8-1-11 1-16"/><path fill="#304E44" d="M231 258c-5 5-11 11-9 19 1-6 7-2 4-13 15 13 17 19 30 22-6-4-13-7-19-12-4-6-6-10-8-13"/><path fill="#A7BC9B" d="M133 255c-2 3-3 5-5 7 2 7 7 10 8 14-2-5 3-17-1-19"/><path fill="#BFD29D" d="M135 199c-4 3 1 6-1 7 4 1 8 2 11 2 2-8-4-9-8-8"/><path fill="#9CC2A9" d="M416 359c-1 1-2 3-3 5 2 3 3 7 6 10 2-2 3-7 4-5-1-4-3-7-5-10"/><path fill="#C37A63" d="M457 240c1 0 5-2 8 0 0 4 1 6 0 8-7 2-14-1-8-6"/><path fill="#6B8489" d="M147 397c-7-1-8 9 11 11-3-1-5-3-6-4-5-5 1-5 3-3-4-4-7-3-10-5"/><path fill="#909D59" d="M189 171c-6 4-12 8-17 14s-8 10-11 14c5 2 6-7 9-3-2-4-2-7 2-9 7-9 14-10 19-14"/><path fill="#2E4B49" d="M381 162c0 4 5 5 6 8 3-1 6-3 8-5-3-3-8-2-13-2"/><path fill="#91703A" d="M111 327c-3 4-5 9-9 13 2 2-1 4 1 4 4-4 8-9 9-15"/><path fill="#373134" d="M378 464c-6 1-11 3-16 5 16 10 32-2-1 3 9-4 15-7 18-8"/><path fill="#D19661" d="M298 386c-4 4-2 10 4 11 5-6 0-8-4-10"/><path fill="#543F3B" d="M382 215c17 24 29 16 41 39-11-21-25-22-39-36"/><path fill="#597561" d="M263 329c2 4 0 8-4 10-8-1-14 2-20 3-4 2-5 4-6 6 8-10 34-1 33-18"/><path fill="#C7B94B" d="M365 145c-3 2-12-1-12 6 5-1 21-3 15-7"/><path fill="#43513A" d="M328 178c-4 7-13 10-17 18 4-3 9-8 13-5 3-5 4-8 3-12"/><path fill="#DCD4C5" d="M476 229c-4 2-7 4-1 12 3-2 3-5 5-6-2-2-3-7-3-5"/><path fill="#75A494" d="M96 194c-4 3-7 8-11 13 6 2-4 14-2 20 4-11 7-21 12-32"/><path fill="#767558" d="M256 169c-1 4-2 7-3 11 4-1 8-2 11-3-3-4-7-3-8-7"/><path fill="#AA9238" d="M230 237c-2 5-2 13 0 18 7-1 0-12 1-16"/><path fill="#8F985C" d="M328 163c-5 1-9 5-7 11 5 0 8-4 6-10"/><path fill="#EEE8D9" d="M472 223c-2 3-4 5-6 6 2 4 4 6 5 9-9-10 11-6 3-12"/><path fill="#35691D" d="M486 217c-2 3-10-3-9 6 3 3 3 1 5-3 6 4 4 8 8 12-3-3 1-14-6-10 1-9 9-1 5-4"/><path fill="#85925C" d="M289 208c-2 4-3 8-5 12 4 3 7 5 8 8 4-9-8-11-4-18"/><path fill="#1F0F16" d="M406 208c3 0 8 5 8 9-4 0-13-7-8-7"/><path fill="#343033" d="M133 425c5 5 7 16 11 22-6-6-8-12-11-19"/><path fill="#56635E" d="M488 447c-8 3 11 3 10 5 2-7-4-5-7-6"/><path fill="#DDCEBD" d="M424 217c8 10 6 11 18 13-2-8-10-1-15-13"/><path fill="#F9F2B3" d="M275 239c-6 3-6 8 0 11 5-3-1-6 1-9"/><path fill="#D0DD8D" d="M126 186c-2 1-7 3-5 8 5 1 10-2 6-8"/><path fill="#DAD0BF" d="M496 213c-6 2-3 9 2 10-1-4 4-10-1-10"/><path fill="#E9E9D0" d="M328 307c-2 7-3 14-5 20 4-5 6-12 8-19"/><path fill="#869F79" d="M461 148c3 9 2 11 1 20 10-5 1-13 0-18"/><path fill="#535F59" d="M492 460c12 1-3 12-6 3 2-2 3-2 4-2"/><path fill="#303129" d="M324 200c-3 4-8 8-8 14 5-3 11-7 8-12"/><path fill="#DFE6C3" d="M265 140c-9 0-18 4-26 5 9-3 63-6 27-5"/><path fill="#284045" d="M111 382c4-1 7 8 9 11-5-2-8-5-9-9"/><path fill="#303436" d="M438 464c9 15 7 9 17 11-2-9-6 1-15-9"/><path fill="#496469" d="M98 443c-4 2-8 6-5 11 4-2 5-6 11-4-5 1-5-3-6-6"/><path fill="#B3C99B" d="M146 210c-3 1-5 2-8 4 1 6 3 7 5 10 4-6-2-13 4-15"/><path fill="#754230" d="M265 429c7 2-10 6-14 6 3-4 7-4 11-6"/><path fill="#6D895E" d="M271 147c-4 1-11 0-9 6 9 4 7-7 11-6"/><path fill="#CBCF82" d="M189 170c-16 8-28 29-41 29 15 0 23-21 39-28"/><path fill="#DBD06F" d="M275 236c-10 2 0 2-9 9 2 2 2 6 4 9 6 0-9-14 6-18"/><path fill="#928E6C" d="M273 156c3 6 3 11-3 12 6-3 17-10 5-12"/><path fill="#385556" d="m64 419-2 1c-3 4-7 11-8 18 13-13 24-22 2-3 2-7 9-10 7-16"/><path fill="#544945" d="M404 461c1 0 5 1 7 2-2 6-13 1-10-1"/><path fill="#829964" d="M248 146c-11 1-20 5-29 9 10-12 26 1 32-9"/><path fill="#9DAE9D" d="M373 445c-1 3-4 2-6 3 3 5 16 2 8-1"/><path fill="#D0E3C9" d="M403 344c22 28-18-8 11 19-1-3 1-3 0-5-2-5-6-8-8-11"/><path fill="#8BA16B" d="M149 210c-1 2-3-1-4 1 1 11-6 23-6 34 5-14 7-29 11-36"/><path fill="#747E7F" d="M383 475c-1 2-7-2-8 3 5 2 18-1 11-4"/><path fill="#D2C27E" d="M239 152c-1 4-5 9-6 16 0-10 15-6 7-17"/><path fill="#BEABA1" d="M481 236c-3 0-4 9-7 5 0 1 3 2 3 3 5 1 6-4 6-6"/><path fill="#A4B5AE" d="M111 352c10 14 24 23 38 30 2-4 1-7 4-8-2 1-2 6-7 6-13-8-24-15-34-25"/><path fill="#895F44" d="M453 432c-2 2-11 1-9 7 8 2 5-7 12-7"/><path fill="#DAA36F" d="M298 389c1-2 5 1 6 3-4 5-9 4-7-1"/><path fill="#E0E7CC" d="M137 229c4-1-1 7-1 10-3 0-5-5 0-8"/><path fill="#D2CAC0" d="M492 224c0 3 0 6 1 9 4 1 7-9 2-9"/><path fill="#698C36" d="M452 176c-3 2 10 4 1 10 7-1 6-1 9-3-3 0-4-5-7-6"/><path fill="#B4C2A7" d="M177 352c5 2 11 6 12 10-1 1-1-2 0-3 16 3 22 3 33 2-14-2-29 0-43-9"/></svg>