<svg xmlns="http://www.w3.org/2000/svg" width="600" height="600"><path fill="#89725C" d="m348 106 2-2c9 5 19 9 28 17 13 14 29 30 40 42 6 0 7 1 10 4 0-4 7-7 9-12 8 9 9 9 13 19 21-17 98-102 75-15-2 12-8 27-13 39 6 5 11 2 16 8-9 9-19 20-28 21 3 11-1 21-1 29 3 8 10 16 14 17-8 4-12 4-17 11-2 7-7 14-13 17-10 6-25 6-34 9 5 11 7 21 15 28-3 2-6 0-9-2-2 8-1 17-3 24-6 4-3-5-8-6-6 22-24 19-28 41-4 21-3 44 0 68 6 1 15 1 20 5 6 3 8 10 9 11-1 2 0 6-3 8-3 1-4 4-6 1 2-3 3-4 3-6 0 2-1 3-2 5l-1 2-2 1c-19-1-26-2-41-5-10-26-11-59-19-81-12 6-10 6-26 11-5 16 1 33 0 52 10 0 19 8 22 12 0 6-1 11-7 13-3-2-25 2-35-1-8-6-18-8-31-8-6-11-7-20-9-29 3-9 10-13 11-20 1-5-1-6-2-8-17 12-10 18-27 31l1-2-1 2c-2 9 16 4 16 14 6 8 3 3 1 14-8-2-13 3-23 2-8-3-20 0-22-5-1-8-1-14-3-19-7 3-19 5-29 7-20 2-34-1-49-3-12-3-23-6-31-12-13-6-23-17-32-27-13-16-21-33-23-53-2-26-9-49-4-75 7-9 12-34 20-47 9-3 26-34 39-40 3-4 8-4 8-2-1 9 3 15 1 20 14-8 27-17 41-20-1 5-3 7-5 9 19-5 37-6 57-5 2 2 1 4-1 4 23-1 42 2 62 6-38 32-44 55-78 81-11 9-11 15-15 23-3 6-2 11-2 16 2-3 6-7 8-9-3 15-2 30 5 42 10 7 22 11 25 17 7-9 0-24 6-35 5-13 12-22 21-26 0-5-2-12 3-13 6-4 10-6 15-7 18 3 34 6 52 4 8-2 14-6 20-10 0-6-3-9-4-12 3 2 7 2 8 3 3-3 7-6 8-10-12-11-28-19-47-19 6-9 14-12 22-14-3-5-7-6-7-12 5-1 9 0 12 0-8-18-20-34-26-52 8-3 16 2 20 4 0-14 0-28-1-41 2-17 2-33 8-47"/><path fill="#6B7264" d="m140 285-2-3c-16 24-19 22-24 21-3 10-4 15-5 20 1-6 8 4 10 6-3 9-3 18-2 26-9-6-2-3-13-7 2 5 2 6 5 12-4-2-7-5-8-8-2-7 5-8 6-4-3-10-2-20 0-28-4-7-9-10-10-17-7 9-8 20-7 30-8 4-15-6-17-10 2 20 10 29 6 54 6-8 6 13 13 15-2-3-5-7-6-11 3-2 3 0 5 0 0-8 6-15 8-21 5 4 8 8 11 12 0-5-4-7-5-11 2-1 3 4 4 1 3 0 7 0 10 2-2-2 3-3 3-4 6-5 22 8 28 13 3-2 1-3 5-8 14 11 7-6 16 2-2-2-4-4-4-6 7 3 8 7 13 9-3-3-6-6-8-9 8 6 9 0 15 0 7-10 7-23 11-35-1 0-1 3-3 5-2-8 1-16 1-20 4-4 1 6 3 0 0 6-2 9-3 12 39-37 13-26-22-12 5 3 5 10 3 14-1-8-2-15-7-22-10 0-12 8-16 16-4-3 1-8 3-11-3-4-3 1-8-1 3 4 1 9 0 14-4-13-4-30-8-38"/><path fill="#4E4043" d="M111 322c-3 9-1 19 2 27-4 1-6 0-7-3-5 0-5 2-4 4 14 16-2 7 10 21-5-2-8-7-11-11-4 6-9 14-9 20-2 1-4 0-5-2 1 6 4 11 7 15-8-3-11-20-13-18 3 20 7 36 19 51 16 16 29 31 47 36 22 4 42 8 64 6 11-2 20-4 28-8 0-5-1-8 1-10-8-1-13-6-16-12 0 2 2 4 3 5-6 2-10 1-14-1-6-4 0-5 1-7-2-2-5-2-7-4 2-3 4-3 4-6-7-3-7-11-19-12 9 4-1 6 9 9-4 1-7 3-10 4 2 2 5 4 8 6-7 3-9 6-7 12-14-1-26-4-36-10-28-13-20-26-30-31-8 1-13-3-17-3 7 16 18 30 32 37-9-1-16-9-22-16-7-8-12-15-15-22 11-2 20 2 28 5 3-7-3-12-6-22 9-1 1-13 4-21-4 2-10-5-10 5-7-3-12-6-14-11-3-3-5-6-3-9 7 6 11 5 13 9-1-8-1-17 3-23-3-5-5-7-6-8"/><path fill="#EDEAC3" d="M173 217c-13 7-53 23-16 20-7 7-11 9-15 12 1 6-3 9-1 12 11 5 15 8 24 10 7-5 10-10 16-11 14 6 36-5 37 6 28-15 53-18 71-38-17-3-34-5-51-6-11 1-18 5-25 8 3-7 10-5 16-13-13 0-25 2-36 3-10 1-16 3-22 7-8 7-10 16-15 21 5-11 9-22 18-30"/><path fill="#AD9371" d="M97 255c0 7 4 19 7 28-4-2-5-8-7-14 3 18-7 6-2 17-5-1-6 4-9 3-4-2-2-6-3-8-1 18-22 41 2 54 5-9 3-23 10-30 5 2 6 7 12 11 3-7 4-14 8-21 5-1 2 4 5 5 5-7 13-15 20-19 7 6 7 16 9 24 7 0 14 0 19-7 4 4 6 7 7 10 16-2 27-11 41-12 7-1-2 5-2 7 8-8 18-15 27-22-4-2-9-3-15-2-7 1-10 6-14 9 0-4 4-5 5-9-6 3-13 3-19 6 3-5 10-10 15-15-7 0-13 3-19 4 0-3 3-6 6-8-12 7-26-2-35 7-7 2-13-1-17-4-7 2-15 1-20 5-7-7-18-5-22-10-5-2-1-10-7-10"/><path fill="#402323" d="M351 296c-1 4 5 8 5 11-9 3-19 15-29 15 8 0 14-2 19-8 8 8 13 4 21 6-2 3-5 5-6 7-4 4-4 7-6 9-2 10-4 17-3 26 8 3 17 5 20 13-21 37-18 0-26 24l-2 1v2c-1 9 0 17 1 25-6-4-13 0-18 0 6-1 13-3 17 4h1v-1l-1-3c4-2 2-6 1-12 9-2 12-6 20-5l1-2h-1v2c-7-3-12 3-17 2-3-4-2-7-4-9 12-4 25-19 33-29 6 3 11 5 16 7 8 1 15 3 21-1-10 14-34 24-39 25 7 9 8 27 11 41 5 1 10 9 15 11-1-2-6-4-4-8s3-6 5-9c5 2 9 5 11 8-1 7 3 15-2 17 1-1 3-1 4 1-1-5 0-11-2-15-2-19 0-41 1-54 6-22 17-22 28-37-3 4-6 10-11 12-3-6-3-14 2-18-7 10-18 14-30 21-2-7 0-11 2-16-6 4-8 7-13 10-7-8-3-20-5-26-1-2-1 9-9 11-8 5-17 7-24 8-2-13 0-24 6-32 5-8 10-10 17-12-7-2-13-3-18-7-16-18 7-6-8-14"/><path fill="#3D2424" d="M276 333c11 11 14 25 18 38-1 14-4 9-3 33 1-3-15 33-23 42-2-1-3-3-4-5-9 0-13 5-19 7 4-1 9-5 16-7-3 6 4 13 1 18-7 3-8-6-10-8 1 3 2 5 3 8 5 4 10-2 12-1-2 3-1 6-4 5-6 2-9 4-13 6-4 6-2 11-3 15-6-10-5-21-8-29 3-15 18-24 16-37-5-7-9-13-12-19-5-2 5 3 1 6h-3v1h-3c-6 2-11 7-16 11v3l1-2c4-6 9-10 16-11 9 2 7 7 14 11 0 8-1 13-6 17-13 7-4 12-14 11 2 0 4 2 7 1 1 4-1 4-1 5-3 9 5 15 3 30 2 3 4 2 5 3 0-5 0-9 2-13 5-4 8-7 12-7 6 3 10 7 12 10 0 5 1 8-2 9 3 1 1 4 7 2-7 3 0-21-15-20 3-2 5-2 6-3 14 0 15 19 13 21l3 2h1l-1-2c4-1 2-5 3-8-1 2 1 8-4 9 1-7 0-14-4-17 5-3 8 10 6 0-4-3-9-4-15-4l-2-1-1 1v-5c16-16 15-24 27-35 4 2 5 4 7 6-2 11-11 16-10 22-1 9 1 17 5 28 14 3 18 2 29 9-1 2 4 1 4 2-2 0-1-6-2-8 0-6 2-9 6-11 7-5 18 1 19 6-1-3-3-5-6-6 5-2 8 1 9 5 0-3-5-8 2-6-4 1-6-2-11-1v-18 16c-5 1-9-1-12 3h-2l-1 1v2l-1 1c-3 1-2 4-4 6 0 4 0 5 1 7-4-1-5-2-6-3-8-20-9-42-12-61 5-2 9 0 13 1-4-1-9-2-13-4-2-15-1-9-4-13 7-8 12 10 18-1-2 1-3 2-5 3-10-6-13-10-18-17-4-7-5-14-6-20-4-14-8-28-17-38"/><path fill="#ECEBC8" d="M458 263c-7 1-12 4-17 7-1-3 3-6-6-6-10-1-15 6-23 7-11 2-19 0-27-1-2 2-4 4-4 6-11-2-19-4-27-6 23 12 54 30 89 30-1 1 3 1 7 0-11-2-22-5-33-8-4-4-8-4-9-8 23 12 50 13 74 14 11-11 9-10-3-6l-9-9c1-6 5-10 10-10l-10-10c-5-1-8-1-10 0"/><path fill="#D97C4E" d="M310 322c-3 3-3 9-5 13-19-1 1 5-26 0 10 8 17 32 20 49 2-6 10-18 21-19 7-2 12-1 16 3 3 6 3 13 1 17-6 9-10 13-15 19-12 2-11-10-19-12 4 7 10 12 16 17 8-4 14-7 19-10 1-9 2-15 5-20 2-5 4-11 8-11-5-7 1-16 0-23-8 0-14-3-20-4 0-7 2-12 5-16-8-1-18 3-25-4"/><path fill="#7EA498" d="M162 372c2 6 2 13 7 17-3-2-11-1-20-12-5-2-3 4-11 0-1 3 1 4 0 6-7-8-2 2-1 12 7 9 14 16 22 22-2 5-7 9-12 7 6 6 13 10 20 14 16 5 8 0 19-2-2 1-3-1-5 0 1-5 5-3 7-4-1-4-3-5-5-8-3-8 4-11-2-18 6-1 5-11 7-13 5-2 8 0 11 1-18-10-21-14-34-21"/><path fill="#A5563A" d="M270 337c1 5 5 7 9 9-13 0-27 9-33 14-1 5 0 7-1 8 3-5 8-9 15-7-5 1-9 2-11 6-3 4-5 8-5 11 2 18-1 22 8 34-1-6 7-8 2-18 4 2 3 9 6 11 2-5 5-8 6-11 3-12 1-23-5-30 5 3 8 7 9 12 2 11-1 18-3 25 10 1 14-1 22-11-4-16 8-13 1-26-1-6-9-20-17-25"/><path fill="#D5C49C" d="M119 225c-5 13-29 26-13 37 5 6 15 4 20 9 7-2 15-1 20-5 6 5 12 8 17 8 11-11 25-2 35-11 1 5-3 7-4 11 10-6 19-5 26-8-2-12-34 4-40-7 4-5 12-10 17-18-21 3-29 13-37 6 5 10 14 6 12 17-1 5-6 9-12 7-6-5-15-3-20-10-1-11 6-17 13-20-1-3-6-4-4-6-13 4-17-1-29-1-1-2 3-6 0-7"/><path fill="#F7AF69" d="M422 190c-3 2-7 2-9 4-4 9 2 18-8 22-15 7-30 1-16 20 31 0 30 2 41 0 9 10 16 11 20 16 1 7-8 3-3 11 6-5 20-1 22-7 0 2-2 3-5 2-9-7-24-15-33-26-2-6 1-9 2-12 10-5 20 8 30 8 8-2 12-8 17-10 2-3-2-3-2-5-5 5-9 10-15 13-12-6-22-12-32-19-6-5-6-11-8-16"/><path fill="#62736D" d="M206 389c-1 3 8 8 1 10-22-18-24 10-24 23 3 5 5 6 7 9-10 3-3 7-12 10 4 1 7 3 12 2-3-5 3-9 9-10-3-2-7-4-9-6 2-3 6-4 9-5-8-5-1-5-8-10 15 1 13 11 20 12 0 3-1 6-4 5 3 4 6 3 8 5 0 4-7 4-2 5 5 5 9 3 14 5-5-6-8-14-7-24 5-11 17-13 21-19-6-5-12-6-14-12h-2l2 1c-2 4-11 2-15-1 1 2 1 4 3 4-4-1-6 0-7-3"/><path fill="#F9BC6D" d="M348 107c-4 14-6 29-7 44 1 9 1 15 1 22v-19c1-5 4-2 4-5 5 4 6 6 5 10-3-18 9-35-4-48 18 28 53 39 63 71 6-1 10-3 13-4-10-21-29-38-47-55-9-7-17-12-25-16"/><path fill="#E3DFBC" d="M357 304c5 10 17 12 27 11-8 5-18 7-23 16 7-4 10 6 20 4 5-2 9-2 12-5 0 5-3 12-3 19 7 2 13-2 22 0 5-8 6-17 7-23-9-7-17-12-27-16-13 3-23-2-33-5"/><path fill="#D68151" d="M383 224c-31-2-36 21-13 37 12 6 26 9 42 8-7-4-13-9-17-16-7-14-10-16-12-29"/><path fill="#76372B" d="M253 362c-7 2-10 9-9 15-1-3 1-6 2-9 4-5 8-7 13-6 8 6 9 15 10 23-1 9-6 13-6 20-7 0-6-7-8-10 5 14-9 14 3 28-5 10-11 17-15 25 0 3-1 5 0 6 3-2 5-4 8-5 5 1 3 6 6 7-1-6 4-3-2-11-5 1-11 9-13 5 8-4 13-10 19-11 6 4 7 12 9 12-4-3-1-7 0-12 6-8 11-14 13-22 3-25 7-3 8-29-3 8-9 9-12 13-2 0-8 3-10 1 0-9 3-21-2-31-2-4-4-7-7-8-3-2-4-2-5-1"/><path fill="#F8A559" d="M526 118c-22 13-44 28-64 46 3 8 10 10 15 15 14-21 38-36 48-60"/><path fill="#7E6B59" d="M392 300c-21 4-26 10 0 7 14 7 28 20 44 19-1 16-7 19-12 30-3 2-4 5-5 5 1-4 0-7 1-9-3 9-9 9-12 18 9-4 20-9 25-20-2 6-4 13-3 21 9-5 11-15 12-23 3 3 5 6 7 9 2-8 4-16 1-23-21-10-36-28-58-33"/><path fill="#4C4847" d="M357 126c-3 16-3 31-1 47 0 9 1 16 4 22 2-1 7-1 8-1-5-8-7-7-12-19-1-7 5-4 5-6-5-8-4-15-4-33 6 12 22 34 25 39 9-1 11 12 19 13l1-1h2l1-2c4-1 2-4 0-6v-1l1 2c0 1 2 3 0 6-2-3-2-6-4-7 0 1 0 6-2 6-5-1-5-4-8-5 6-4 5-12 9-8-4-7-8-12-19-22-3 4 1 7 1 10-5-3-5-6-4-11-7-8-13-14-19-20"/><path fill="#7D9F91" d="M358 139c1 7 0 14 3 20 2 7 6 12 11 11-5 3-11 1-15 2 3 8 8 16 14 24-1 4-3 0-7 2 2 4 6 8 10 9 2-10 16-11 24-16-5-6-11-11-16-10-7-11-16-28-23-40"/><path fill="#F2F1CD" d="M437 220c-15 14 20 30 24 29 1-4 2-9 1-16 3 4 2 11 3 16 7-3 15-9 19-16 0-5-3-8-4-10-5 3-11 6-16 8-9-3-17-6-24-11"/><path fill="#474C4B" d="M200 346c-6 3-11 7-10 17-8-1-10 5-16-3 0 4 3 6 4 9-4-2-6-5-9-7 4 9-2 2-3 3 7 11 26 22 35 28-2-5-1-10-1-14 4 2 9 2 13 6-8-3-9-22-16-25 1-5-2-10 1-12"/><path fill="#AFD7B9" d="M429 183c-5 0-2 9-1 13 5 7 10 0 12-2 8 1 13 10 16 10 10 8-4 15 4 17 4 1 9-3 12-6 3-4 5-7 3-10-5-5-9-9-13-11-31-22-16 5-31-12"/><path fill="#70342B" d="M520 136c-13 8-10 23-18 33 3 6-1 10-1 13 2 1 8-1 8 1-6 12-12 21-17 31-1 3 0 4 1 3 11-9 18-21 22-33l2-2-3 3c4-25 4-29 5-47"/><path fill="#C06D48" d="M321 367c-5 2-12 4-14 10 0 5-2 9 0 11 5 7 4-2 8-1 0 6-4 10 1 14 12-9 6-11 19-13 3-12-1-23-12-21"/><path fill="#3B3B42" d="M508 150c-11 13-23 26-28 42 1 8 6 13 9 20 8-9 8-17 14-24 0-6-4 0-6 1 1-6 3-9 4-13-2-2-3 0-4 0 6-8 7-17 10-25"/><path fill="#5F2E29" d="M355 365c-10 7-17 24-14 43-9 4-16 7-21 14 6-5 12-9 18-12 3 5 1 10 4 13-3 2-5 1-8 2 4-1 6 0 8 3 0-9 0-20 1-29 4-2 7-10 10-13 0 4-1 6-1 10 3-2 8-7 12-11 14-12 1-19-11-21"/><path fill="#A3896A" d="M279 238c-15 18-49 18-55 28-4 1-10 7-17 12 9-2 21-4 30-1 16-11 28-26 41-36"/><path fill="#5C4846" d="M403 304c21 8 43 33 56 30-6-6-7-15-13-23-14-3-28-3-40-7"/><path fill="#81A99B" d="M350 245c-4 1-10 2-12 3 4 5 12 9 17 14-5 1-6-2-8-3-5 2-11 5-5 6-25 2 33 3 37 8-3-5-8-8-13-9-5-8-5-16-14-19"/><path fill="#5A3E3D" d="M412 466c-7-2-13 8-9 18 9 2 18 4 25 3 4-7 0-12-2-15-4-4-8-5-11-6"/><path fill="#DA8250" d="M345 149c-4 13-4 33-2 46 4 1 14 2 17 9-9-15-6-36-11-53"/><path fill="#DCCFA8" d="M188 240c23-4-8 19-12 22-6 0-9-2-3-6-6-4-10 5-16 0-1-6 4-9 6-11 5 1 9 3 4 6 7-5 13-8 20-10"/><path fill="#C4B996" d="M420 325c0 7-3 17-7 24-2-2-4 2-5 1-6-6-14 5-17-2-1 9-2 14 1 17 1-13 13-2 14-14 1 7 0 13-1 20 8-9 18-29 19-22 7-9 2-18-2-23"/><path fill="#A35035" d="M233 409c-3 3-8 5-10 9-1 11 1 19 6 25 3-5 6-3 0-10 3-4 4 0 6-2-1-1-4 0-4-3 7 0 12 2 16-2 2-8-4-15-12-16"/><path fill="#5F4341" d="M336 470c-5 3-8 7-6 18 7 1 14 4 20 2 5-6 2-14-2-17 11 2 5 18 6 17 5-8 2-13-1-18h-2l-1-2-1 1-2 2c-3-2-7-4-9-2"/><path fill="#403235" d="M295 390c11 4 12 17 12 26-8 3-14 6-17 14 1-12 3-25 5-37"/><path fill="#766556" d="M379 374c-12 12-3 1-6 13 4 3 9 3 13 4-6 7-12-1-17 6-1-5 6-4 3-6-4 2-8 3-10 6-6-3 0-5 1-7-2 2-5 5-8 7 2 1 4 2 5 1 18-3 12 9 18 3 16-7 24-23 0-24"/><path fill="#241A1F" d="M393 235c-5 3-7 2 8 6-3 7-1 13 2 17-3-3-1-8-2-11 3-4 6-4 8-3 2 4 0 9 2 13 9-4 6-4 8-11 6 2 8 5 9 7 0 5-4 5-5 9 6-7 14-1 21-2-19-21-7-4-23-19-17-3-12-6-29-4"/><path fill="#5B3F3F" d="M259 467c-7 1-13 9-9 15 7 2 16 6 22 2 1-7-1-11-4-15-4-2-5-3-7-3"/><path fill="#361F1D" d="M521 132c-15 13-12 19-20 38l-2 1-1 1v2h-1c1-1 3 0 4-1 0 7-2 10-4 13 2-1 7-5 9-1-18 21-2 8-16 29-4-8-10-14-13-20 6-14 13-24 21-33-10 9-17 20-20 29-9-1-13-5-20-6 11 1 16 13 19 21 0 9-6 13-10 18 3-5 10-9 11-15-1-5-5-10 0-9 8 11 14 21 19 31 4 9 1 16 0 23 1 6 2 9 6 11-3-2-4-5-5-8 4-11 0-22 0-30 0 3-4 1-2-2 5-7 8-14 12-21 6-1 9 1 13 0-3 1-7-1-11-1 4-9 5-15 9-23-6 14-12 27-22 38-3 3-6 1-7-1 6-12 12-21 17-30 4-5-4-1-6-2-1-4 1-6 2-8l-1-3 1-1h-1l1-1c2-23 18-39 18-33"/><path fill="#C6F2CF" d="M442 197c-29 3 6 13 13 22 7-4 3-8 1-13-4-4-8-9-14-9"/><path fill="#703A30" d="M497 232c-4 6-14 9-20 17 6-3 11-8 17-10-3 6-2 13-6 17-4 6-6 11-11 8 1 3 3 5 5 7-2-6 17-7 15-2-5-14 4-26 0-36"/><path fill="#363740" d="M509 203c-3 8-11 15-13 22 13-3 50-27 13-20"/><path fill="#44363A" d="M297 392c-3 12-5 24-8 37 3-7 10-10 17-11-2-10 1-20-9-25"/><path fill="#B9633D" d="M345 194c-2 10 5 21 11 28 5-2 8-5 11-6-6-10-7-17-21-19"/><path fill="#9C7051" d="M339 323c-2 6-4 8-6 15 6 1 10 5 19 3 4-6 3-10 0-16-4 1-7-1-10-2"/><path fill="#786A5B" d="M340 270c19 6 37 25 62 29 12 4 22 6 32 7 14 1 24-1 35-3-17-3-38 5-57-2-14-6-28-7-40-15-16-9-3-7-21-15 2-2 3-1 4-2-4 2-9-1-13 1"/><path fill="#DD884E" d="M462 165c-5 4-11 9-12 15 9 2 14 3 21 7 3-3 5-6 8-8-3-1-15-5-15-12"/><path fill="#62473F" d="M311 422c0 6 2 13 2 18 11 2 8 12 20 22 2-5 7-6 9-11-2-2-1-5-4-6 5 4-3 9-4 14-4-4-6-7-8-9 2-12 4-6 6-11-5-3-6 0-8-2-16-13-9-14-9-13"/><path fill="#7E3B2B" d="M236 408c-2 0 18 7 13 18-6 4-11 4-16 2 1 1 2 3 3 3-2 2-3 1-4 0 5 9-1 8-1 13 1 1 3 0 5 1-2-3 20-10 15-23-4-8-4-11-11-14"/><path fill="#CE7445" d="M265 336c-3 3-13 5-15 15-3 3-6 8-6 14 1-3 1-7 4-8 9-3 19-13 29-11-4-2-7-7-9-11"/><path fill="#ECE6BC" d="M135 212c-11 10-22 17-13 19 3 5 7 1 13 4 3-8 1-14 0-20"/><path fill="#616763" d="M134 406c-2 7-2 11 12 18 3-1 8 0 11-4-3-7-10-7-24-14"/><path fill="#8A5742" d="M340 402c-7 3-13 7-20 10-5-2-7-4-10-7-1 5 1 8 1 12 3 4 5 4 8 5 5-11 20-9 21-18"/><path fill="#726257" d="M388 449c2 12 3 24 8 34 5-10 0-13 8-15-1-8-8-12-14-17"/><path fill="#454343" d="M331 195c10 19-2 12 17 38-2-13-1-21-6-31-2-5-7-5-9-7"/><path fill="#66776F" d="M355 345c-7 28 10 2 28 7-8-3-17-5-25-9"/><path fill="#342722" d="M494 241c-5 1-8 4-12 6-4 5-6 9-6 15-3-4-4-6 1-13-5 2-7 7-7 13l12 9c-3-2-5-4-7-6 6 0 8-4 11-7 5-6 4-13 7-17"/><path fill="#9FD0BB" d="M295 318c-19 9-6 19 7 14 2-4 3-8 5-11-5 0-8-1-12-2"/><path fill="#463436" d="M298 460c26 3 9 4 5 21 0-1-3 2-4-1-3-3-3-7-5-10 3-3 3-6 6-7"/><path fill="#5E4B47" d="M357 394c-32 25 18 14 17 7-6-3-14-3-21-2"/><path fill="#C8B58E" d="M93 257c-2 10-11 16-8 32 10 3 6-12 10-10 0-7 2-13-1-20"/><path fill="#D47C4E" d="M478 201c2 14 3 18 10 29-4 10-9 11-15 18 7-6 15-10 20-18-3-11-9-18-14-27"/><path fill="#7C4D3F" d="M252 368c6-2 11 6 9 11-2 6-5 7-8 10-4-5-6-9-4-14 0-3 2-3 2-5"/><path fill="#7F7061" d="M313 445c4 13 4 29 12 43-1-4 3-9 2-11-4-10-6-24-13-31"/><path fill="#CFC4A0" d="m393 314 1-1c6-2 8 6 6 10-7 2-12 5-18 4 1-6 5-10 9-12"/><path fill="#9B8F78" d="M249 452c-1 3-4 3-6 5 0 10 0 17 1 24 1-6 4-13 10-16 1-5-2-8-3-12"/><path fill="#65756D" d="M322 194c2 10 10 22 18 30-15-25 3-8-11-29-1-2-3-1-4-2"/><path fill="#402020" d="M354 280c7 4 13 7 20 11-2 5-3 4-4 3 2 8-4 6 5 8-7 2-10 1-13 2 10 3 20-2 28-6-13-6-19-9-34-18"/><path fill="#AAD0B2" d="M438 159c-5 2-4 6-7 8 7 7 8 13 16 11-1-7-4-13-8-18"/><path fill="#4A393C" d="m302 461-1 2c-3 1-3 4-5 6 1 5 1 12 7 12-2-15 23-19-2-18"/><path fill="#6B897F" d="M145 344c3-1 5 8 3 11-4 0-7 3-14 3 1-5 3-9 8-14"/><path fill="#DE8853" d="M278 318c0 2-8 4-10 7l-2-1h-1c-1 1 1 5 1 8 0-2-1-4 0-7 10 2 13 10 16 6 1-8 17-18-4-12"/><path fill="#754C40" d="M254 369c-5 4-7 13-1 17 2-1 5-1 6-5 2-6 0-11-4-12"/><path fill="#A49377" d="M416 323c7 1 12 9 13 15-6 19-11 4-9 22 6-13 12-16 15-28 1-11-11-4-16-8"/><path fill="#4A3031" d="M392 433c4-2 9 0 11 4-4 6-6 9-8 13-7-4-4-8-6-14"/><path fill="#C9C3A3" d="M371 280c-1 4 12 10 29 15 6 2 16 2 18 5 6 1 15 5 20 0-12 0-27-3-36-5-5-2-19-9-27-14"/><path fill="#342528" d="M131 363c-2 6 4 19-5 17 4 11 10 19 6 22-7 0-16-4-25-5 13 3 26 8 39 12-5-3-8-8-10-12-4-12-5-22-6-32"/><path fill="#573B3D" d="M267 458c-4 3-8 3-4 6 5 3 8 4 9 7 4 5 3 9 3 13 2 0 4 1 5 0 2-5 2-11 0-13-5-6-10-7-15-7-1-2-1-2 0-4"/><path fill="#6C3529" d="M267 327c-1 2 3 5 1 8-22 14-24 16-1-3 8 6 16 16 21 24-2-9-6-20-18-29"/><path fill="#604E49" d="M414 381c-5 4-12 2-17 1-2 3-7 8-6 14 8-2 14-7 22-14"/><path fill="#86533F" d="M340 411c-6 3-13 5-17 12 5 4 11-1 17 1-1-4 0-8-1-11"/><path fill="#C8BB96" d="M394 314c-5 3-10 6-12 11 7 2 11-1 16-2 2-5 2-10-3-10"/><path fill="#C8C09E" d="M365 329c-18 9 4 17 15 8-6-1-11-4-14-6"/><path fill="#715144" d="M312 424c2 1 8 5 10 12 3 2 11-1 14 0 1-2 0-4 1-8-23 1 3-5-24-2"/><path fill="#985D43" d="M391 242c2 8 6 17 15 22 7 6 12 3 17-1-4 3-11-1-17-2-10-5-4-17-15-17"/><path fill="#5A3E3F" d="M355 471c4 5 6 12 4 17 3 1 5 2 7 1 2-4 2-9 0-11-4-4-6-7-9-7"/><path fill="#955F48" d="M319 371c4-3 7 2 8 5-1 5-3 8-6 10-4-3-5-5-6-7 2-4 1-5 3-5"/><path fill="#49393A" d="M141 439c10 5 36 6 29 8-22-2-4 3-29-5"/><path fill="#B2AF95" d="M313 442c7 8 10 16 13 26 0-3-3-4-1-7 4 0 5 4 9 3-2 3-1 4-1 6 2-1 4-3 8-2 0-6-2-7-1-11-3 2-3 6-6 7-9-8-13-16-18-20"/><path fill="#4C3233" d="m392 436-2 1c1 4 0 9 2 11 4-4 16-14 3-15"/><path fill="#6D8B81" d="M145 345c-9 0-6 10-13 11 9 0 11 1 14-2 3-2 2-5 0-8"/><path fill="#464847" d="M156 366c-4 4-6 8-6 9 7 1 7 11 11 10 1-9-1-6-3-16 3-2 4 0 5 0l1 2-1-2c-2-2-4-2-5-2"/><path fill="#9AC4B1" d="M133 363c-1 8 1 14 2 21-1-10 6 6 1-7 10 3 6-3 12-1-5-4-11-9-14-10"/><path fill="#708E85" d="M201 382c3 4 2 10 6 15 4-2-3-5-2-8 4 2 6 3 8 5-2-2-1-4-4-5 7 1 11 3 16 1-7-3-14-5-21-8"/><path fill="#593C39" d="M337 427c-1 3 4 13-1 11 3 7 11 5 10 14-1-7-2-10-1-19-2-4-5-5-6-6"/><path fill="#B86C48" d="M365 230c8-2 6 9 7 12-18 3 5-7-9 0-1-13 6-7 5-8"/><path fill="#B4B093" d="M332 440c0 4-5 5-5 8 3 4 5 6 6 8 6-5 5-10 1-14"/><path fill="#39251F" d="M395 162c4 7 10 13 13 21-12 11-24 20-35 30-5 3-8-3-9-4 2 2 2 4 3 6-4 4-7 8-12 10-7-8-9-24-16-29 7 8 8 20 13 28-3 8-3-3-5-5 0 4 4 8 3 12-5-2-7-3-10-5 2 1 4 3 7 5 3-1 4-3 6-4 7-4 10-8 15-10l2-1 1-1 2-2c12-8 23-20 35-28-1-9-7-14-11-21"/><path fill="#484A4C" d="M499 263c4 4-3 9-5 8 3 2 6 6 3 9 2-5 7-5 12-6-4-4-5-7-7-10"/><path fill="#6B4133" d="M348 317c-6 1-10 6-15 5 1 1 4-3 5 2-4 6-5 10-7 15 0 2 3-10 6-13l2-2 2-2c3 1 6 2 11 1 2 4 2 6 3 9-1-6-1-12-5-16"/><path fill="#3B2520" d="M423 183c-24 21-52 36-76 55 24-19 53-32 76-55"/><path fill="#3E2D35" d="M151 448c10 1 21 6 31 8-10 1-19-3-29-6"/><path fill="#92684F" d="M408 198c-10 8-20 16-30 23 14-3 25-17 29-22"/><path fill="#826D58" d="M392 336c-9 3-19 6-29 6 6 1 11 3 16 1 6 0 9-2 11-5"/><path fill="#D48351" d="M420 234c0 4-1 1 6 7l2 1-2-2c0-2 4 1 4-3 3 5 17 12 14 19 3-2 4 1 5 1 0-9-11-10-17-20-6 1-8-2-10-3"/><path fill="#423D2D" d="M481 251c4-3 5 4 4 6-3 4-5 8-9 6 0-4 4-5 5-10"/><path fill="#130E12" d="M473 278c-5 4 4 9 6 12 6 0 9-2 12-5-3 0-5 6-10 4-4-1-7-4-8-6 6 4 12 5 16-1-5 0-10-6-13-1l-2 1-1-1"/><path fill="#595C57" d="M398 170c4 7-5 4-5 7 3 4 3 7 5 8 5-1 1-6 2-7 4 1 5 4 4 7 1-5 0-9-3-13"/><path fill="#B38460" d="M408 204c-5 5-11 10-16 14 6 0 17-3 17-13"/><path fill="#F29C51" d="M526 123c-7 16-6 34-5 41 9-30 0-19 4-38"/><path fill="#543A36" d="M385 205c-4 3-8 5-12 8-1-5-7-2-8-8 0 6 5 2 7 7v3h2c-2 3-4 5-7 7 15-10 31-15 13-14"/><path fill="#51312F" d="M348 314c-8 7-1 0 4 2 3 6 3 11 5 14 3-4 6-6 9-9-4-4-11 3-13-2l-2-3-1 1v-1"/><path fill="#563A3E" d="M426 468c6 5 9 13 6 20 5-2 5-6 4-9-1-6-4-10-7-11"/><path fill="#604E48" d="M404 441c-2 1-3 3-4 5 3 8 14 4 12 12-5-16-3-11-4-15"/><path fill="#7E6F61" d="M491 272c-13-1 0 4 3 9 0 0 2 0 2-2-1-3 0-7-3-8"/><path fill="#6B897F" d="M156 343c2 1 4 3 6 8-1 4-3 0-4 2-3-2-4-4-3-8"/><path fill="#A8A48B" d="M321 457c1 2 2 5 3 7 1 5 3 8 4 10 2-4 4 1 4-8-4-1-9-10-6-1-2-3-4-4-3-7"/><path fill="#6E8C7E" d="M366 352c-4 2-8 3-10 6-1 5 22-5 9-5"/><path fill="#B89F56" d="M425 251c-4 4-6 3-9 9 5 5 10-4 10-8"/><path fill="#673123" d="M368 290c-6 1-8 15-13 11 1 2 3 0 4 1 0-4 5-9 8-12-2 3-1 8-5 11 3 1 7 2 10 2-9 2 0-5-4-7 6-2 6-4 1-6"/><path fill="#583C3E" d="M433 469c7 3 7 13 6 18 4-3 5-5 4-8-1-5-4-8-8-9"/><path fill="#6E4435" d="M373 215c-11 4-7 4-15 8-3-1-4-2-5-3 0 6 3 7 4 8 4-5 12-7 14-12"/><path fill="#271B18" d="M478 275c6-2 12 4 11 7-4 9-11 3-14 3 8 7 12 0 17-1 0 6-2 10-4 13 2-4 5-7 6-10l1-2h-2c0-8-8-10-11-10"/><path fill="#AB6241" d="M367 230c6 13-5-3-3 10 1 4 5 2 6 3 1-5 0-10-1-12"/><path fill="#BE865B" d="M418 184c-8 3-13 6-23 13 5 1 13-6 24-13"/><path fill="#583735" d="M261 442c-4 1-8 2-12 5 3-1 6-3 8-4 8 12-6 13 0 15 11 0-1-11 5-15"/><path fill="#74675B" d="M401 445c-7 5 0 8 4 11 1-1 4-2 4-3-4 2-5-4-9-5"/><path fill="#998C70" d="M375 380c-15 10 5 6-7 16 7-4 27-1 3-8 0-3 1-4 2-5"/><path fill="#562826" d="M394 425c10-3 1 6-2 7-4-2-3-5 1-6"/><path fill="#382527" d="M108 405c6 11 16 24 29 32l2 1v1h2l2 1c4 2 8 6 13 7 5 0 5 0 2 1-7-6 8-1 12-3-9 0-19-1-28-5-14-9-25-22-33-33"/><path fill="#616C67" d="M448 185c8 5 18 6 24 16-6-6-11-16-22-16"/><path fill="#9B8365" d="M80 295c5 2 1 13 3 18-2-5-3-10-4-15"/><path fill="#A6C9B6" d="M422 166c4 3 6 10 12 11 1-6-7-7-10-10"/><path fill="#7C584A" d="M322 373c-4 1-4 6-2 8 4-1 6-5 4-8"/><path fill="#7A3E30" d="M490 166c-6 7-12 16-15 24 6-8 9-16 16-22"/><path fill="#2E1B1B" d="M396 299c15 9 37 5 52 12-4-4 5-2 7-4-19 3-39-2-56-7"/><path fill="#33231F" d="M355 123c2 4-1 8 0 10 1-2-1-5 1-7 9 7 17 15 24 22 4 13-4 12-4 19 3-8 9-4 3-19 7 5 10 8 13 11-4-2-5-8-9-10-10-8-17-16-24-23"/><path fill="#9A553B" d="M427 239c1 11 10-2 15 17 0-6-4-10-6-14l-3-1-1 1v-1"/><path fill="#79998E" d="M203 341c-1 2-2 5-3 7-3 7 4 7 2 14 1-7 0-14 2-19"/><path fill="#743D2D" d="M320 366c6 0 11-2 14 4 4 5 2 10 3 13-10 11-11 12-19 21-7-5-7-9-4-14-3 1 0 3-3 3-3-3-7-4-5-8-1-8 2-15 9-17-4 2-8 6-10 9-1 4-1 5 0 7-1 2-1 3-1 4 3 2 3 6 5 6 2 4 3 8 6 9l3 1h1l2-1c4-7 11-10 15-17 1-7 1-10 0-15-4-6-9-6-14-5"/><path fill="#C4D59E" d="M342 258c-12 5-10 4-17 9 7-1 16-3 19-9"/><path fill="#4D4946" d="M391 196c-8 1-12 6-15 13 6-5 11-10 16-14"/><path fill="#695347" d="M73 335c1 10 4 20 7 29-3-10-1-22-7-27"/><path fill="#8D422D" d="M247 430c5 0-5 12-8 7 1-2 4-2 6-5"/><path fill="#341D18" d="M408 466c-4 2-6 4-8 8 0 4-1 7 1 9-9 1-9-8-11-12 1 3 2 7 3 11 3 4 7 3 11 4-1 0-5-6-3-11 1-4 3-6 6-8"/><path fill="#BAE3C3" d="M458 208c5-5 11 2 5 6-4 0-1-4-3-5"/><path fill="#4E4E4D" d="M453 185c9 0 14 9 19 14-7-9 1-7 2-7-9 1-12-8-18-8"/></svg>