<svg xmlns="http://www.w3.org/2000/svg" width="600" height="600"><path fill="#697460" d="M334 116h2c6 7 14 12 20 21 3-8 4-16 6-23 6 13 19 21 24 33 3-2 6-4 6-8 2-7 1-12-1-17 16 6 31 22 37 39 7 4 14 4 18 11 6 12 9 23 10 35 6 1 21 10 31 4 10 8 5 29 11 39 1 5 1 12-3 10-3 3-6 4-9 5 3 0 6-2 7-4 3 3-1 4-1 7-7-1-11 9-16 12-7-11-11 8-19-4-4 4-9 6-13 9-5-4-7-6-10-9-1 5 0 10 0 14-2 0 3-4 7-4 1 6 2 10 5 14 4-2 6-8 9-5 0 5 1 9 1 12-1 3-2 4-4 5 5-4 5 5 2-4 4 1 5 2 4 5-3 3-7 5-9 9 3-6 5-1 12-3 15 9 26 12 39 20 4 8 4 13 1 18-5 2-4-3-7-4-1 3 4 4 4 7 0 10 2 18-2 24-4 2-3 7-6 5 0-8-3-12-4-17-4 0-6 0-9-1-3 8-5 14-10 19-4-6-2-14-11-16-10 3-22 2-31 1 1 0 1 6 4 6 2 9 4 15 4 22 0-7-2-14-5-20 3 1 4 4 6 7 2 11 1 21-1 29-6 11-12 20-20 28-5 3-7 4-9 6-3-3-11 3-15 4 4-4 18-1 11-5 13 3 21 7 32 8 10 7 21 11 21 24-9 5-7 0-7 0 0 3-4 6-1 7-6 2-11 1-15 1-4-2-8-5-6-10 0 2-1 4 0 6-7 1-12 1-17 0-1-3-1-6-3-7-2-6-4-11-8-12 4 1 6 6 8 9 2 6 2 12 0 15-36 2-25-7-71-3-5 0-9-17-12-19 2-6 3-11 7-14-21 5-44 4-65 2-3 3-3 5-5 5 11 5 23 4 31 11 3 5 5 9 6 13-7 8-19 8-27 7-2-2-3-3-5-4 3 0 0 3 2 3 0 6 4 9 2 12-25-3-31 0-59-3-12 3-25 2-35 7-1-6 0-13 2-18 4-8 9-12 13-16-1 3-7 5-10 5-4-3-6-6-8-7 2-2 4-4 7-3-2-5-2-8 0-11-19 4-38 7-56 1-9-2-16-5-22-9-8-6-12-13-15-20-7-12-5-25-5-38 2-10 6-18 10-25 5-12 18-25 22-28 0 13-3 16-4 28-2 11-2 21 2 29 4 7 3-3 7-4 3 5 6 9 8 13 4 1 8 1 11 1-1-4-5-7-8-10 8-4 17-3 23-5-5-5-14-8-17-14 11-4 19-7 29-6-9-12-20-21-29-31 15-3 31-2 44 1-13-9-18-12-32-18 18-2 34-3 49-4-1-6-3-10-5-16 6 0 8-3 6-8 5 3 8 5 13 4-8-7-14-13-22-18 14-4 26-8 39-7-3-9-8-16-12-23 13 0 23 2 33 4 5-9-3-14-5-20 9-2 16-1 22 2-10-5-13-18-22-24 15-2 27-5 38-2-1-4-5-3-10-6 0-4 3-5 4-6-12-3-14-18-22-24 16-5 31-6 45-8 1-12-8-17-15-25 15 3 29 6 42 9-1-11-1-23-5-33 7 2 13 3 19 5-1-2-3-5-4-8"/><path fill="#25212F" d="M412 330v2c2 8 1 17 1 26 1 4-2 6 1 8-6 16-18 40-24 46-20 23-32 30-63 46-2 6 0 10-5 15l2 3v-5c0 13 12 7 11 17 17 3 1 2 9-1 10 2 17-2 24 2-8-6-15 2-21-2-7-6-6-8-13-12 9-11 15 1 23-4 1 10 11 0 18 7-1-3-2-4-3-5 1-4 4-7 6-8 6 0 11 1 14 4-6 5-8 14-14 8 4 4 8 7 4 12-5 0-9 0-12 2 5-1 11 2 14-1 1-8 2-14 7-18 1-3 6 0 2-3 12 7 11 9 14 17 5 2 10 2 14 1 3-6 5-13 8-19 8 3 12 9 14 14-8-8 0-17-12-18-9-1-23-10-30-10-3 1-7 4-11 4 25-28 4 6 29-22 16-8-14-2 3-19 7-3 8 6 5 7 8-11 5-26 1-39l3 3-2-2c0-2-5-12-9-13 8 1 19 2 26 1-9 3-5-10-13-14-4-2-5-1-4 2 3 6 5 10 11 10-7 0-13 2-16-2-7-1-7-20-9-11 0-10-2-19-2-27 7-4 11-3 0-4"/><path fill="#8D7B69" d="M351 294c-5 6-14 6-20 9 4 7 6 11 11 14 8-1 15-3 21-7-5 7-12 9-18 11l18 21c7-3 14-8 19-16-2 10-10 15-16 18 7 12 10 20 15 29 2 9 3 16 1 23 2-1 4-1 6-2-14 7-14 29-29 38 16-3 26-18 33-28 2-6 1-8 0-10 5-7 10-11 12-17-2-6 1-15-5-17 1-8 5-14 6-21-20-13-31-28-52-42"/><path fill="#2F3847" d="M451 323c-24 6-49 1-33 37-1-7 3 12 9 10 6 1 6 3 11 3-6-1-7-6-9-10s0-6 2-5c5 6 7 6 11 14 3-1 7 0 10-2 0-4-8-7-4-9 7 4 8 9 13 12-1-4 0-7 2-10 4-2 5-4 8-3-3-6-6-12-11-16 8 7 12 4 20 3 2 3 0 3-1 4 1-1 3-1 3-2 1-3 1-1 2-2-2 6-5 9-8 11 0 4-1 7 1 9 10 6 3-11 13-11-2-3-4-5-5-6-1-4-3-4-5-5 4-1 7 1 10 3-1-4 0-8 2-10-14-3-26-10-38-3 2-5 8-5 13-6-4-4-8-3-11-6l-3-1h-1v1"/><path fill="#303D48" d="M213 370c21 10 22 36 32 42 0 10 4 19 3 27-4 0-13 6-15-5-2 7-1 14-2 20-6 2-7-3-14-3 6 1 13 4 13 9-3 6-7 4-9 5-11-5-2-8-6-10-12-6-10 1-16 2-12-15-11-16-25-26 0 2 4 2 3 5-2 0-3 3-5 1 2 12 11 23 20 31 9 1 15 1 23 2-8 3-16 1-22 4 11 7 2-4 17-1-1 4-6 7-2 11-4-4 0-8 3-9 8-4 11 2 15 2-2-4-8-2-12-4 12 0 26-14 37-8-2-2-3-3-3-5 7-6 14-9 13-17 2-19-2-34-8-48-12-9-24-22-37-25"/><path fill="#531F20" d="M340 249c1 5 0 8 0 12 0-2 7-1 9-3 2 0 6 16 5 14 2 0 5 0 8-1l2 1 1 1v1c0 3-1 6 1 8 2-1 9-2 9 0-4-1-6-1-8 0-1-3-3-5-2-8 14 1 22 18 35 23-1 6-6 5-8 8 3-2 5-3 8-4 4 2 5 7 4 10 0-2 4-4 4-3-3 4-4-4-5-6 12 2 15 5 17 11 4-4 7-7 11-10 4 3 4 7 6 10 3-3 4-5 6-8-3-15-15-14-28-31-4-2-10-3-14 3-6 0-10-7-13-10h3l-3-1c-1 1-3 3-5 3-5-2-9-6-12-10-3 0-5 2-7 2-6-13-15-2-23-8"/><path fill="#F8F9EB" d="M304 270c1 3 1 6 2 9-4 3-7 3-10 5 1 5 4 9 9 12 1 7-6 9-6 13 6 5 11 8 17 12-7 7-11 12-15 17 8 8 8-11 19-5 6 3 12 6 9 14 12 1 21 0 30-3-4-8-9-15-15-22-10 1-18 3-26 1 8-2 15-3 21-5-5-5-7-10-10-15-8-1-16 1-21-3 6-1 12 0 19-1-5-11-11-16-20-18 13 4 6-7-1-11"/><path fill="#E2EBC8" d="M300 400c0 3 0 6 1 9 1-2 3-4 5-5 3-2 5 0 5 1-31 28 25 36 42 28 13-9 20-20 24-30-14 4-31 4-48 3-9 0-15-2-21-4-4-1-5 0-5-1"/><path fill="#6FB392" d="M209 372c2 1 8 8 0 10-5 2-8 2-11 0-1-3-3-3-3-6-2 2-6 4-8 6 3-1 10 1 10 5l-8 12c-7-1-4-7-11-6-4 7-7 15-7 23 0-5 5-8 9-10 4 6 7 12 6 18 5 2 9 4 14 5 0-3 2-6 3-9 6 1 8 4 11 6 5-2 0-11-1-17 10 6 17-9 21-4-5-13-11-29-24-34"/><path fill="#62B499" d="M395 163c2 4 4 2 6 6 1 6-4 5-5 8 3-5 4 2 6 3 0 5-3 2-2 5-5-3-6-6-10-7 8 15 20 25 35 27-1 9-7 9-10 8-7-5-14-7-16-14-6 0-10-1-14-2 4 10 0 3 10 24-1-3 0-6-2-7 4-3 9-1 9-5 9 3 2 6 11 5-1 4-4 3-5 4-4 4-1 4 1 7 12 3 19-3 26-7 13-2 19 5 27 8 6-1 9-5 12-7-11 1-16-8-20-4-9-5 0-7 1-4-7-6-11-2-19-6-8-6 4-7 3-8-5-4-12-3-13-9-4-7 5-7 2-10-15 1-18-18-32-13"/><path fill="#6D945D" d="M482 216c-11 3-9 5-17 11-9 0-15-5-26-4 5 2-3 6 15 14 0 6 3 9 3 13-2-3-6 6-9-2 5 8 5 14 8 18 10 3 27-3 37-9 2-7-3-13-8-20-1-12 11-13-2-23"/><path fill="#857464" d="M289 392c0 4 4 8 3 12-7-1-12 0-17-1 0 5 2 10 4 14-16-5-17 3-11 18 6 3 12 7 19 9 16 5 31 5 47 4 8-1 11-6 18-8-9 8-20 1-29 1-16-3-26-12-38-18-9-13 12 4 16 4 0-9-3-18-3-27-3-3-6-4-7-7"/><path fill="#E7F2D2" d="M376 366c-13 6-28 7-42 9 1 10-1 20-8 26 19 3 37 1 53-4 4-11 1-21-2-30"/><path fill="#83AE72" d="M438 222c-5 6-13 10-17 15-16 3-6-4-12-2-7 2-10 8-16 6-8 0-3-10-7-10-13 5-24-2-22 1 1 0 10-1 15 2 0 7 7 8 10 12 6-1 12 0 13-3 4 12-4-2-2 13 2-8 10-5 14-10-2 12 8 5 13 11 0 1 2 6 0 7-6-1-6-8-14-5 3 1 2 4 2 5 33 20 59-6 19-27 2-7 8-7 10-4-15-1 7-12-8-7 6-5 8-5 11-3l3 1-3-1c-2-1-4-2-8-1"/><path fill="#ADDDA4" d="M314 233c-25-7-17 15-6 27 25 7 42 27 61 42 8-3 12 5 17 4-17-16-33-26-50-41-9-12-15-23-23-33"/><path fill="#419976" d="M292 252c-13 3-7 8-18 8 5 4 11 4 12 5 5 10-4 12-3 19-8 2-9-5-15-3 0-5-4-7-4-12-3 6 4 10 0 15-6 1-5 2-25 2 16-4 18 4 27 7-5-1-1-5 0-5 1 1 8 3 18 7 6 5 8 9 10 14 2 25 5 13 2 28 8-5 12-8 16-14-5-4-13-11-15-11 4-9 1-8 6-14-7-7-7-7-13-15 4 0 7-4 13-4-1-2-3-12 0-11-5-4-7-11-12-15"/><path fill="#5B8F67" d="M287 343c-1 1-3 0-4 1-6 3-13 4-19 7-5 7-6 12-7 18 1 4 3 6 4 8 0-2 2-3 4-4 6-2 9-1 11 3 2-5 0-6 1-10 6 0 10 5 14 5 3-3 6-5 8-6-2-2-1-5-2-7 6-1 12 2 17 4 4-6 5-9-3-15-12 5-14-6-22-4"/><path fill="#2A2B3D" d="M388 419h-1c12 8 28 15 8 31-5 0-8 3-14 2-4-2-4-5-7-6-6-3-7 2-10 5-3-3-5-5-5-7 9-9 22-19 27-25"/><path fill="#EFFADD" d="M363 346c-10 5-23 7-35 5-2 2-1 5-2 7 1 5 3 8 5 11 16 0 60 1 32-23"/><path fill="#2B2D3E" d="M389 417c-8 9-20 19-30 25 2 4 2 6 4 6 3 0 2-4 6-4 6-1 9 4 10 6 9 2 18-2 20-2 0 0 12-25-6-22-3-2-6-5-4-8"/><path fill="#3F6B52" d="M341 170c-28 14 22 6 19 18 17 11 25 25 34 37-1 3-5 3-7 3 4 3 0 9 7 10 8 1 11-7 19-5 5-2 13-2 7 2 2-3 2-8 7-10-3 4-19 2-24 5-15-16-19-35-37-48-7-6-13-8-20-10-2-2-3-2-4-1"/><path fill="#2B3441" d="M379 467h-2c-6 3-3 7-2 9-17 1-16-5-29-3-3 1-11-4-10 2 8 2 4 7 8 11 13-1 24 2 36 3 5-5 1-8-2-10 7 4 21-15 2-13"/><path fill="#76B282" d="M253 290c-1 4 4-1 5 8-4 12-12 12-22 28 20 2 14-11 36-1-5-11-1-12-4-23 14 2-7-13-12-12"/><path fill="#387259" d="M214 315c-12 5-7 21-20 26-6 9 11 13 0 15 2 4 6 2 7 4-1-4 5-6 6-5 5 3 13 10 9 13 2-18-4-33-2-52"/><path fill="#1F1924" d="M171 381c-9 21-9 18-17 34-7 3-8 14-16 10-3 8 8-2 14-6 1 10 0 18 1 26-10 5-27 6-38 3 10 3 21 3 30 1 13-3 16-6 25-10-6-14-1-34 0-34 1-1-5 5-5-4 14-14-4-2 5-19"/><path fill="#629364" d="M232 475c-3 7-8 2-15 1-6 1-9 5-8 9 1 9 12 12 15 11 3-4 4-8 5-12 4 5 6 14 12 14 8-11 7-23-7-22"/><path fill="#548F67" d="M254 322c1 12-24 0-27 13-3 8-5 17-1 24 0-1 0-3-1-6 3 4 3 6 5 9 12-2 17-8 24 0-6-4-11-8-18-13 7-7 5-5 13-9-1-3-4-5-3-9 5-5 19-10 9-9"/><path fill="#1F1925" d="M278 371c2 2 1 5 1 8-3-2-5-4-6-5 2 1 6 7 6 7l1-2h1v2l-1 1c0 8 3 8 4 16-11 0-16-16-39-11 5 0 15 9 18 30 3-3 10 1 13 1l-3-15c6-2 11-1 16 0-2-6-2-13-5-17 4-1 7-4 11-2-4-11 4 1-6 0-7-1-9-7-10-11"/><path fill="#9B8973" d="M318 270c-14-1-2 5 0 12 9 2 16 3 24 2-7 5-14 3-20 2 2 4 4 9 6 13 8-1 15-1 21-5-5-8-10-14-16-19-6-3-10-4-14-6"/><path fill="#EDF3DA" d="M346 187c-7 0-16 5-13 14 2 9 8 19 17 19-2-10-1-22 4-29-3-3-4-5-7-4"/><path fill="#98C388" d="M368 233c6 6 5 10 0 14 6-7 7 3 17-2 6 4 8 12 6 15 3 1 10 0 18-2 6-5 14 4 17 6 8-12-15-4-11-16-16 10-6-13-24 1-10-8-5-6-12-14-3 0-5-2-9-1"/><path fill="#ABD7A6" d="M309 218c5 10 42 28 66 35 0-4 3-6-1-7 0 1 1 6-6 3 3-7 5-9 0-15-3 2-4 3-6 2 1 5 8 3 5 10-5-7-8-3-16-2-8-16-13-15-19-24-3-3-4 3-7 0-3 6 8 4 8 7-11 3-11-7-16-9"/><path fill="#3A6956" d="M320 178c-5 8-17 8-17 18 8 3 7-9 19-2 5 5 8 19 0 11 10 14 11 10 20 20 6-4-15-13-12-23-2-9-4-15 3-20-4-3-9 0-11-2"/><path fill="#201723" d="M386 319c3 2 3 4 1 7 6 4 12 5 19 10-1 10-3 15-7 21 7 5 6 13 8 18 5-13 6-30 2-44l-22-11"/><path fill="#2E3C44" d="M82 404c-3 6 5 17 1 19 3-3 3 3 7 4 6 10 8 11 15 15 10 6-5-2-10-7 10 0 16 6 23 6 8 0 12-1 16-3 3 3 5 5 8 7-10 2-15 4-21 3 11 0 23 1 30-2-1-6 1-9 2-13-2-6 0-9-1-13-2 3-4 2-5 5 1 2 1 5 5 5 0 6-1 9-3 12-16 4-2-10-11-10-11 3-20 4-31 3-5-4-12-3-16-6-6-8-9-15-10-23"/><path fill="#664940" d="M268 436c0 11-4 1-3 19 18 3 37 1 53-2-10 1-26-6-32-4-8-8-17-3-17-12"/><path fill="#BCC47D" d="M395 125c7 10 10 22 13 34 5 2 8 3 13 2-1-5 0-9-4-14-5-9-12-15-19-21"/><path fill="#C5C57E" d="M362 123c-3-2 9-2 1 30-1-4-1-7-2-10-2 4-4 18-10 14 6 3 6 0 8-6 0 7 5-2 3 8 2-3 3-4 2-7 0-3 0-4 1-5 1 3 3 6 2 11 4-1 2-5 3-7 3 1 1 7 4 7 4-10 6 0 2-17 7 8 5 15 9 10-8-14-13-18-20-31"/><path fill="#588A60" d="M221 422c-13 7-16-3-1 10 0 8-11 9-4 13 3 6 6 5 13 3 0-6 2-14-1-19-2-4-4-6-7-5"/><path fill="#C4C47E" d="M276 173c15 1-47 4 27 20-11-6-15-8-18-11 4-1 7 1 11 1-9-2 3-5-1-8-8-1-15-2-22-3"/><path fill="#2D3D43" d="M411 463c9-2 11 2 17 3-2 6-4 10-5 14-7 0-12-2-17-5 0-6 1-8 3-11"/><path fill="#406A53" d="M177 428c3 11 16 13 18 26 6-3 15 0 23-4-3-6-8-8-12-9-2 2-7 1-11 3-1-11-14-3-15-14"/><path fill="#CBC27A" d="M288 148c15 6 8 24 22 28 1-3-7-9-10-14 8 3 13 7 19 11 6-3 6-7 12-10-2-2-4-2-6-3 7 0 5-1 3-3-3 1-6-2-8-1-3-1 3 4 5 1 3 9-8 3-4 10-12-6-21-14-32-18"/><path fill="#B4BC78" d="M253 216c-15 1 12 11 16 13 6 0 8 2 9-7-7-4-12-9-23-6"/><path fill="#5C8C62" d="M262 469c-20 9-9 7 2 18 5 2 8 0 10-5 1-9-4-11-12-11"/><path fill="#1D1923" d="M234 291c-3 3-3 9-6 13-3 5-4 3-6 5-2-3-3-5-2-6-2 8-11 10-13 17 2-1 3-6 7-8 2 19 6 37 5 54-2 3-4 2-5 3 3 0 6-1 10 0-8-28 0-35-4-50 3 5 5-10 8-12l1-2 1-1v-1h1c1 0 0 3 1 3 6-2 11-3 15-5-4 1-8 3-12 4-5-4-4-8-1-12"/><path fill="#346856" d="M282 222c-4 7-2 17-3 18 9-3 2 4 9 2-2 10-17 11-15 21 10-6 5-7 17-12 5 7 14 13 13 20 1-11-15-19-14-33-4-7 2-9 2-12-3-3-5-2-7-3"/><path fill="#3E7058" d="M257 334c-2 3-7 5-9 1 4 7-12 10-2 21-4-1-3 7-9 7 2 1 3 3 4 5 4-1 8-2 11 1 1-4 3-6 3-8-4 4-5-1-7-3 2 0 5 0 8-1-11 1-7-7-11-4 4-9 7-9 8-9 6 0 3-1 7 2-5-3 9-8-1-12"/><path fill="#7C663F" d="M141 378c-11 4 15 9 19 19 6-7 6-14 11-18-5 5-22 3-32-1"/><path fill="#867664" d="M85 426c2 8 7 15 13 22 6 3 9 5 13 7h3l2 1 1 1c19 2 39 0 54-7 0-3 0-5-1-7-15 3-13 9-23 12-13 0-24 2-33-1-16-3-20-17-28-25"/><path fill="#B4B876" d="M140 343c13 2 20 12 30 17 4-2 7-10-1-9 5-2 9-2 14-2-13-4-27-4-40-7"/><path fill="#BABD7A" d="M217 256c7 6 20 9 26 19-7-6 12-2-3-10 8 1 13 8 15 0-10-4-20-8-36-9"/><path fill="#6A996A" d="M200 478c-8 5-13-2-12 4 0 6 4 6 6 14 5 1 8-2 10-4 1-6 3-12-3-14"/><path fill="#31464B" d="M413 464c-4 1-6 5-7 8 6 5 11 7 15 9 3-5 4-9 7-12-5-3-9-5-13-6"/><path fill="#31404B" d="M227 358c-3 8 3 15 10 20s14 6 19 4c-4-4 0-13-6-14-5 1-10 7-16 6-17-16 6-5-8-14"/><path fill="#7FB3A8" d="m407 182 1 1c8 1 12 11 9 12-3 3-6 4-10 3-5-5-12-11-4-15"/><path fill="#6A5437" d="M245 240c7 1 3 18 12 21 6-3 10-7 13-11-6 0-24-12-21-11"/><path fill="#77AB9B" d="m199 392 1-1c6-1 11 3 11 3-3 5-5 9-8 11-12 2-16-12-6-14"/><path fill="#E9EFD4" d="M315 377c3 4 3 9 5 14-6 2-10-1-15-3-1 4-3 5-3 7 7 4 12 5 18 6 4-4 5-8 4-13-2-5-5-7-7-10"/><path fill="#46271A" d="M155 326c9 5 22 10 29 17 3 3 9-5 12-12-13 3-26-3-40-4"/><path fill="#5D8D61" d="M186 421c-15 15 7 13 9 22 4-1 6-1 9-2-1-3-5-5-3-10-5-3-12-3-18-6"/><path fill="#426A56" d="M231 412c-7 8 7 38-8 41 9-3 7-12 8-18 5 8 12 5 16 4 0-5 0-11-1-17-4 3 1 15-8 11 1-8-10-5-6-23"/><path fill="#82B484" d="M309 200c-22 21 6 10 13 20-4-6 5-2 7-4-5-17-17 1-22-13"/><path fill="#8B7266" d="M431 469c-3 5-6 10-6 16 5 5 11 3 15 4 1-16-4-6-7-20"/><path fill="#32564F" d="M96 435c6 5 13 10 20 12 10 1 14-1 24-2-2-2-3-4-4-6-6 2-10 3-16 2-10-1-11-3-22-6"/><path fill="#2F4345" d="M194 342c-9 7-13 17-16 27l-1 2v-3c3 0 2-4 4-4-1 3 3 4 1 8 2 0 5-3 5 1 0 1 1 1 2 1 4 0 6 0 6-1-2 1-5 2-8 1-1-6 1-10 2-14 3-3 5-6 7-6-3-2-5-5-3-11"/><path fill="#54926E" d="M255 291c-6 15-23 14-28 28 5-14 15 4 23-10 0 0-2 1-3 0 3-7 8-4 9-9 4-2-5-4 0-8"/><path fill="#BBBD79" d="M300 192c-9 3-17 8-26 12 8 2 15 2 22 4 5-6 1-8-4-6 5-2 8-5 7-10"/><path fill="#2C3940" d="M272 294c6 4 12 9 14 17s3 17 0 23c3 5 6 6 10 5-5 1-4-6-9-2 3-10 8-18 6-28-4-10-13-11-20-14"/><path fill="#EEF4D9" d="M368 200c1 8 0 14-2 20 6 3 12 3 18 3-5-8-10-14-14-20"/><path fill="#635552" d="M388 346c6-2 9 6 9 10-7 11-14 3-20 9 4-5 9-9 10-17"/><path fill="#998549" d="M395 128c5 11 1 12-6 23 1 7 7 6 11 7-5-36 13 8-4-31"/><path fill="#8A7B67" d="M320 373c-14-1 7 9 5 15 1 7 0 10-2 14 7-5 11-16 8-24 2-3-7 1-9-5"/><path fill="#549B75" d="M404 211c-14-2-11 10-5 16 8 1 13-1 20 0-8 0-11 0-15-5 6-1-2-5 8-6-4-1-7-1-5-6"/><path fill="#CD6158" d="M366 275c1 2 0 4 1 6 3 0 5-3 8-2 2 5 1 10 1 15 4-1 6-2 8-3 5 4 5 8 7 11 3-1 6-1 8-2-9-6-15-14-22-21-4-3-7-2-9-3"/><path fill="#C4C47E" d="M101 379c-4 6-7 11-11 16 9 3 4 1 12 10 5-9-2-16 0-23"/><path fill="#3B6B5B" d="M180 366c-3 7-12 19-7 23 5-5 10-9 16-13-5-1-2-7-8-2 2-5-2-9 2-8"/><path fill="#393944" d="M398 412h1c5-2 8 3 11 5-6 7-24 11-14-6"/><path fill="#948851" d="M222 279c5 3-6 3 0 5-10 0-20 4-29-2 7 6 16 6 22 12 11-8 16-2 9-14"/><path fill="#92836C" d="M300 367c7 0 5 10 11 13-6 1-9-4-14-6-1 0-2 2-1 4 6 6 12 8 19 10-2-5-2-11-5-16-5-3-5-4-8-5"/><path fill="#346659" d="M259 266c-2 6-14 12-7 16 13 11-3-6 12 1-7-12 7-15-2-15"/><path fill="#573721" d="M254 176c-4 4 26 15 22 24 3-6 3-1 11-7-9-7-25-11-32-17"/><path fill="#D8E2C0" d="M250 484c-2 6-5 13-3 20 3 0 4 0 6 1-2-2-3-9 0-11 3 5 9 3 9 12-2-8-3-17-9-22"/><path fill="#5B9D71" d="M274 298c4 7-5 1-5 4 3 10-2 14 7 18-4 5-6 5-9 4 3 1 5 1 6-2 4-3 4-5 5-6 0-8 3-12-3-15"/><path fill="#221D29" d="M262 432c8 18-13 21-12 32-6-4-15 6-23 5 10 1 13-4 36 0-4-1-8-1-8-4 7-9 8-20 9-30"/><path fill="#51AD99" d="M428 168c6 6 6 14 12 19 2-1 5 2 6-2 2-3 1-6 0-8-7-2-15-4-16-7"/><path fill="#41675E" d="M277 301c5 3 3 12 1 17-5 15-21 0-23 8 9 0 15 2 22 3 6-6 6-12 5-18 0-4-2-6-3-9"/><path fill="#DAE4C3" d="M187 488c-5 5-7 11-8 18 5 2 7-2 11-1 2-6-1-12-3-15"/><path fill="#99C38C" d="M373 300c0 14 21 4 25 18 8 3 12-2 16-1-20-5-22-10-36-13"/><path fill="#BBF0E6" d="M270 266c2 5 6 11 9 16 3-4 5-9 6-13-4-2-8-3-12-3"/><path fill="#3D8A69" d="M209 354c-14 6-4 6-8 17 9-3 24-4 6-15"/><path fill="#8F7768" d="M492 358c-4 2-6 4-7 9 5 5 7 10 8 14 6-15 1-11 0-23"/><path fill="#0D0508" d="M388 320c6 4 15 5 22 8 2 13 3 23 1 33 0 11-9 24-8 24-7 18-17 34-32 45-9 12-33 20-48 24 10-1 20-5 31-10 13-8 24-18 33-28 8-11 12-19 17-28 3-8 5-14 7-19 3-3 5 0 7 1 1-1-5-2-5-4l-1-2 1-3c-1-10 1-21-2-31 33-2-17-1-20-10"/><path fill="#355857" d="M257 470c-2 1-3 3-6 4-7-7-23-2-35-2 13 11 17-4 33 9-2-2-2-4 1-6 4-2 6-5 9-6"/><path fill="#355D4F" d="M147 426c-3 1-6 3-9 4 11 2-2 9 4 12 7 1 8-4 9-6 1-7-4-5-4-9"/><path fill="#6E5433" d="M141 345c7 7 16 16 24 26 3 0-5-6-7-9h5c3 4 6 6 9 9 4-5 2-7-2-8-3-2-2-3-9-6 0 2 4 4 2 6l-2-1-2-2c-7-10-13-12-16-14"/><path fill="#53966C" d="M268 331c-3 2-7 0-9 1 3-5 3 14 2 14 9-4 16-13 9-15"/><path fill="#E8EFCA" d="M349 228c-1 8-8-4 0 12 4-1 6-1 8-1 1-4 2-6 3-8-5-1-7-3-9-4"/><path fill="#456754" d="M209 492c1 3 1 6 2 9 6 3 12 3 16 1 2-4 0-7 1-9 0 1-2 2-1 4-6 1-12-1-15-5"/><path fill="#EEEEAB" d="M323 123c1 11 4 7 8 16-2-2-2-5-4-7 5 3 7 6 9 9-2-3-4-7-6-11 13 12 10 14 15 10-4-5 6 1-3-7-7-4-12-7-17-9"/><path fill="#9A9058" d="M200 301c-3 4-2 3 3 11-4-2-7-4-11-5 4 6 6 14 8 15 5-2 6-5 7-6-3-5-6-9-8-13"/><path fill="#B6B878" d="M87 399c4 4 2 18 11 16 1-4 2-5 3-7-4-4-9-6-12-9"/><path fill="#DEE7C5" d="M391 474c-1 5-4 9-4 14 2 4 6 2 8 3 3-4 0-10-2-14"/><path fill="#8A7667" d="M468 364c0 2-3-1-2 2-3 8 2 11 2 16 3-4 8-15 2-19"/><path fill="#6BB187" d="M343 162c-20 5 10 9 14 2 2 7 14 8 16 14-20-11 10-10-7-11-4-1-5-2-6-3-7 1-11 0-16-1"/><path fill="#E8E59A" d="M329 131c-7 6 3 13 0 23 3 1 4 3 7 2 0-11-7-16-6-22"/><path fill="#E1E096" d="M298 150c12 15 14 3 20 16 8 3-4-6 7-4-7-5-16-9-23-10"/><path fill="#6D5335" d="M254 224c3 10 13 11 19 17 1-3 3-3 2-5-6-4-12-9-19-10"/><path fill="#6B9276" d="M190 413c4-1 8 3 11 4-2 5-6 7-8 8-5-4-5-6-4-10"/><path fill="#201F26" d="M288 232c4 13 10 25 20 35 2 1 4 1 6 1-10-7-15-17-26-34"/><path fill="#7B683D" d="M122 421c-12 16-2 11 12 8-5-3-8-5-11-7"/><path fill="#72A99B" d="M217 384c8-2 2 3 8 1 1 5 1 8-1 9-4 2-6 0-9-2 0-4-1-5 1-5"/><path fill="#745C3C" d="M198 287c6 5 12 13 18 18 3-5-1-8-1-10-8-1-5-6-16-8"/><path fill="#B4B46D" d="M108 403c-2 4-5 8-6 14 2 2 1-3 2-3 3 1 0 3 3 4 0-2 0-4-1-7 5 3 2 10 8 8 4-5-3-10-5-15"/><path fill="#DCE2C2" d="M98 441c4 8 13 11 19 11 13 1 26 3 35-1-8 1-17 2-27 1s-18-5-26-9"/><path fill="#968B73" d="M278 484c-5 2-3 6-5 9 6 2 9 0 13 1-2-5-4-8-7-10"/><path fill="#8AAD7B" d="M343 282c11 9 21 23 33 28 6 1 14 3 19 7-15-9-28-12-50-34"/><path fill="#897967" d="M286 384c2 6 8 9 13 12 3-3 2-6 2-9-5-4-9 2-13-2"/><path fill="#353B45" d="M389 436c9-1 2 8 8 3-3 6-5 8-8 8 2-4-5 1-5-7l1-2 1-1h2"/><path fill="#8B7967" d="M393 472c3 5 6 17 9 19 2-9 0-15-6-19"/><path fill="#0A060B" d="M222 334c-2 11-2 23 4 34-7 2-12 2-17 2h18l1 2 1 2c4 5 10 8 15 11 5 1 6 3 7 6 7 11 10 21 12 32 2 13 2 24-2 33 4-10 5-21 2-30 0-6-1-9-2-11-2-9-4-16-7-23l-5-5c5-1 8-2 10-3 9 6 15 12 23 13-14-2-17-16-20-11-4-7-7-8-6-12-1 3 1 5 2 8-3 3-8 2-11 3-8-2-13-7-17-12-8-11-10-25-7-37"/><path fill="#20191E" d="M285 212c-9 6-2 0-3 10 2 0 7-1 10 0-3 10 3 6 3 15 0-11-3-7 2-22-4 5-17-1-12-2M492 339c-2 2-2 7-1 10-4-2-7-4-10-5 2 0 2 2 3 2-2 10-20 13-23 25 8-14 15-7 22-23 4 3 6 5 8 7-3 2-5 4-6 7-2 3-1 6-2 7-6 3-9-6-7-1 2 0 4 2 5 3 6 0 7 3 8 6 0-5-7-9-4-13 2-6 5-7 8-8l-4-4c6-2 7 3 10 5 1-15 1-15 2-1-5-6-14-9-9-16"/><path fill="#7B693D" d="M140 400c4 2 8 4 11 7-2 3-6 2-9 4 6-4 13 5 7 7 2-8 5-6 4-9 2-4 6-3 6-8-6-2-13 1-18 0"/><path fill="#A9E4D8" d="M203 394c-3 2-10-1-9 5 3 8 21-5 11-5"/><path fill="#344D56" d="M243 455c13 1-9 14-12 10-1-8 4-4 11-6"/><path fill="#77613D" d="M125 413c5 3 8 8 12 10 5 3 7-1 9-3 2-4-9-2-19-7"/><path fill="#694940" d="M174 450c-15 7-32 9-50 8 11 3 20 2 31 1 13-2 16-3 16-8"/><path fill="#35201A" d="M322 230c-6 9 4 11 5 18 3-2-7-8-6-13 6 4 8 11 17 9-1 4-3 3-4 4 1-1 2-1 4 0 0 6 1 10 2 13v-11c3 3 6 8 10 3-10-4-19-21-29-19"/><path fill="#E0F8EF" d="M387 162c-9 4 3 11 7 11 0-5 3-7-2-9l-2-2h-1v1"/><path fill="#BABF80" d="M185 325c-8 1-17 0-25 1 3 2 46 6 30-4"/><path fill="#A5A082" d="M182 484c-6 5-7 13-8 20 4-6 10-13 11-20"/><path fill="#C6CEA6" d="M316 194c-4 3-7 8-3 12 4 0 6-2 8-3 0-5-4-5-4-7"/><path fill="#7B683E" d="M93 420c4 6 9 12 19 13 3-5-19-11-16-14"/><path fill="#818C73" d="M210 430c-7 0-9 6-1 9 4 0 4-1 5-3 2-3 1-4-1-5"/><path fill="#BEEDE7" d="M246 289c-3 1-8 1-9 6 4 1 6 4 10 3 0-3 5-9 1-10"/><path fill="#2E484A" d="M272 253c-4 5-11 10-15 16 2 4 18-8 18-17"/><path fill="#397562" d="M293 323c-1 4-6 7-6 11 5-2 5 7 10 4 2-3-3-4-4-8 4-4 5-2 7 0 0-8-6-4-7-5"/><path fill="#61BFA3" d="M384 178c-15 0-5 6-1 13 1-4 3-6 4-8l-1-3-1-1"/><path fill="#E7F6E1" d="M254 346c-3 1-6 3-6 7 3 3 5 2 6 3 5-3 6-11 2-10"/><path fill="#98856F" d="M391 264c1 6 10 9 7 11 2-2 7-3 7-5-2-6-9-4-12-5"/><path fill="#281614" d="M432 270c1 4-4 6-6 9l4-4c5 14-6 3 1 11-3 0-4-2-6-3 5 6 8 8 15 5 0 4 0 5 1 7-4-2-5-3-6-4 2 2 2 4 4 4 3 4 5 6 6 9-2 5-4 7-7 9-2-2-3-4-4-6 0 3 1 5 2 7 7-4 7-7 11-10 3-2 3-5 4-6 0 1-2 2-3 4-6-4-8-7-7-11l-1-2-1-1c-3 4-5-1-7-1 1-3 1-8 0-10v-1l1-2c4 2 6 8 10 9 6-2 11-5 13-7 2 0 3 1 4 2-1-7-19-4-4-5-4 5-8 6-11 9-5-2-16-10-10-12"/><path fill="#659267" d="M384 228c-28 0-22 6 1 2 7 0 0 9 7 10l2 1v1c20-16 14-1 28-7-1-6-20-1-26 6-9-2-6-10-10-13"/><path fill="#756136" d="M225 262c12 10 16 23 8 16 7 7 9 0 11 0-5-5-10-11-17-14"/><path fill="#2F323D" d="M279 372c0-2 4 15 15 10 0-9-7-5-13-10"/><path fill="#B8B578" d="M153 397c-7 1-13 2-20 1 4 4 7 8 11 10 11-1-5-5-7-7 6-2 23 0 18-5"/><path fill="#ADAF6F" d="M218 280c-8 0-16 2-23 3 11 3 30 2 25-3"/><path fill="#386058" d="M283 339c-5 1-10 0-13 4-9 3-6 8-10 13 9-10 13-13 26-18"/><path fill="#334145" d="m230 489-2 2c1 3 1 8 0 10 3 0-1-6 1-10 1 3 3 5 3 8 3 6 8 3 10 6 8-8-12 0-11-18"/><path fill="#745B3A" d="M201 301c-2 4 4 8 5 11 5 1 6-1 8-2-3-5-22-5-7-8h-4"/><path fill="#F3F4D2" d="M300 216c-1 3-3 6-3 9 4 1 6 2 7 3 7-7 0-7-4-12"/><path fill="#4F9771" d="M230 404c-3 6-9 9-15 5 1 4 0 8 2 11-1-4 2-6 4-8 6 1 8 3 9 8-5-9 4-12 2-15"/><path fill="#8D7465" d="M452 300c-2 8-9 6-10 15 4 0 7-2 10-3v-10"/><path fill="#577F68" d="M260 357c3 2 4-1 8 1 1 5 0 8-3 8-10 0-4-6-3-6"/><path fill="#384048" d="M391 437c-3 0-8 3-4 7 1 2 5 2 6 1 4-3 2-7-1-8"/><path fill="#7D8C67" d="M373 309c11 9 27 15 43 14-12 1-29-8-40-14"/><path fill="#897767" d="M277 475c0 6 10 10 13 15-1-7-5-11-10-15"/><path fill="#796340" d="M276 206c6 3 12 7 18 10 3-3 4-5 4-7l1-2-2 1c-4 4-8-1-19-1"/><path fill="#75AA8A" d="M261 305c2-2 5-1 6 2 1 9-14 5-7-1"/><path fill="#38524F" d="M243 445c2-3 8 3 5 5-4 5-6 1-8 3-1-3-1-5 1-5"/><path fill="#8F7866" d="M319 358c-3 7 0 12 7 13 0-4-2-8-4-12"/><path fill="#D5E0BA" d="M250 492c-4 15 0 1 3 10 2 3 6 3 9 2l1-2-2 1c-3-8-8-6-11-7"/><path fill="#474955" d="M398 414c-3 1-2 4-2 7 5-1 8-1 10-2-1-3-1-6-7-5"/><path fill="#CBF2ED" d="M405 184c-6 6 6 4 4 10 4 3 3-2 5-2 0-4-4-5-6-7"/><path fill="#A1DDC9" d="M236 407c-2 3-1 7-2 10 3 2 4 0 6 1 3-4 0-7-2-9"/><path fill="#4B8F7E" d="M449 184c0 3-7 5-8 4-2-1-4-1-3-2 1 3 2 7 4 10 7 0 6-6 7-10"/><path fill="#326360" d="M389 178c6 9 14 23 15 28 1-10-8-18-13-27"/><path fill="#968270" d="M407 264c-3 5 11 9 13 10 0-1 1-2 2-3-4-1-9-3-13-6"/><path fill="#519873" d="M367 169c0 4 8 10 12 7-3-4-3-6-10-8"/><path fill="#A1DCC8" d="M181 410c-7 0-6 6-7 11 4-3 10-4 7-11"/><path fill="#8FDAC5" d="M222 413c-5 3-2 9 2 9 6-1 3-8 0-9"/><path fill="#F1F0DD" d="M431 307c-3 2-5 4-8 6 8 4 17 4 8-5"/><path fill="#1F1B25" d="M301 359c7 5 5 9 11 11 2 1 6-1 8 1-3-3-5-4-3-9-2 5-10 1-13-1"/><path fill="#252737" d="M447 336c4 2-10 12-5 19-5-5-1-12 2-16"/><path fill="#DA7425" d="M362 200c3 5 4 11 0 16 0 0-4 3-6 1-2-6-1-9-4-11 0 5 0 9 3 13 4 0 7 4 8 2 1-9 5-16-1-19"/><path fill="#887162" d="M440 470c0 4 4 11 7 13 1-5 0-10-4-12"/><path fill="#090403" d="M440 233c-3 13 13 3 12 14-1-6-4-12-11-14"/><path fill="#3D464D" d="M387 438c2-1 6-1 8 0-2 8-9 10-10 2"/><path fill="#91854D" d="M84 396c1 7 1 22 7 18-1-5-4-12-5-17"/><path fill="#694F38" d="M258 178c3 12-2 2 8 14 5 2 11 8 15 5-5 2-17-13-24-18"/><path fill="#334349" d="M194 497c1 2 0 5 2 6 4 1 7 0 9-1-5-1-2-7-10-3"/><path fill="#BDF1EB" d="M388 185c-4 3-3 11 4 9 3-3-1-6-2-9"/><path fill="#2D3F47" d="M246 469c-13-1 3 3 3 6 5-2 5-5 7-6-3-1-5 0-8 0"/><path fill="#A9E0D7" d="M233 316c-1 5-2 2-3 2-1 5-4 7-1 10 2-4 9-11 7-12"/><path fill="#1D171E" d="M178 458c2 3 10 12 13 11l1 1h2c5 3 13 1 19 2-7-2-12-2-20-1-6-5-12-16-14-10"/><path fill="#686F6F" d="M228 293c-9 2 1 4-6 12 6-1 8-9 8-12"/><path fill="#4D3220" d="M131 340c37 21 7 12 38 31-5-2-8-3-9-6 1 3 4 4 5 6 3 0 5 3 8 1-13-8-28-29-38-31"/><path fill="#71593B" d="M189 471c-3 5-11 1-16 3 2 2 6 2 9 4 4-1 5-4 8-5"/><path fill="#CBD2AB" d="M268 374c0 4 2 9 5 12 1-3 3-9-2-11"/><path fill="#623F4D" d="M428 420c-4 2-11 2-9 9 5 0 7-4 8-7"/><path fill="#4F3222" d="M231 277c9 7-14-1 3 12 2-3 1-6 3-7-3 0-3-4-5-4"/><path fill="#467E5B" d="M212 347c1 5 6-3 6 8-6 2-8-2-7-6"/><path fill="#90BD81" d="M401 246c2 0 6 9 0 11-3-2-4-8-1-9"/><path fill="#B0B57E" d="M254 241c6 1 16 10 18 6-5-4-11-6-16-7"/><path fill="#2F373C" d="M170 385c8 11-8 6-3 20 2-7 10-13 4-18"/><path fill="#5B976C" d="M237 331c2 1 2 3 8-1-9 9-12 8-10 3"/><path fill="#C0C07D" d="M116 400c-3 4-2 10 3 13 2-5-2-8-3-12"/><path fill="#49181B" d="M321 235c0 4 4 6 6 9 3 4 7 2 9 3-6-1-9-6-12-12"/><path fill="#706158" d="M294 404c11 12-4 2 4 10-6 0-7-4-5-6"/><path fill="#F5F4E6" d="M359 274c-12 0 0 4 4 8-1-2-1-5 0-8h-2"/><path fill="#405E50" d="M278 368c-3 1 7 6 14 7 2-3-9-5-12-8"/><path fill="#355159" d="M245 457c-10 8-15-1-13 8 4-1 14-4 15-9"/><path fill="#BCB97F" d="M159 376c-5 1-11 0-16 2 6 3 39-3 17-2"/><path fill="#9EC9BF" d="M91 376c4 8-5 2-4 8 5 4 15-7 5-6"/><path fill="#877765" d="M367 197c8 8 12 17 19 25-3-8-9-16-16-24"/><path fill="#95826D" d="M435 273c4 3 9 6 14 5-2-3 3 1 4-3-6 0-11-1-16-2"/><path fill="#8B7566" d="M495 339c-6 5-1 10 3 12 1-4 0-7-2-11"/><path fill="#938951" d="M145 346c7 3 12 11 17 16 3-5-5-12-15-16"/><path fill="#E1E098" d="M361 138c-2 2-7 10-8 20 5-5 5-11 8-16 1 3 3 5 2 9 1-5 0-9-2-12"/><path fill="#BADAA8" d="M359 166c-22 3 8 4 11 13-2-8-14-8-12-13"/><path fill="#958772" d="M256 483c3 4 5 13 9 22 0-7-2-16-7-21"/><path fill="#D2F2E5" d="M315 336c-3 0-6 2-4 6 3 0 15-7 5-7"/><path fill="#88B89B" d="M193 359c-1 3-1 8 0 11 3-3 5-3 7-4-3-3-4-7-5-5"/><path fill="#ADAB8A" d="M267 375c-5 7 7 11 10 18-6-38 4 12-12-18"/><path fill="#918550" d="M154 409c-1 4-2 2-2 5-4-5-12 4-22-1 5 3 11 2 16 4l2-1 2 1 1-1 1-2c2 0 2-3 3-4"/><path fill="#907E68" d="M337 181c-13 21 1 2 11 4-3 0-6-1-9-2"/><path fill="#91BE82" d="M394 250c5-1 6 9-1 7-1-2-2-4-1-6"/><path fill="#261312" d="M152 327c11 5 27 15 36 19-13-8-22-13-33-18"/><path fill="#2C3D45" d="M317 180c-5 1-9 2-13 4-1 2 1 2 1 3 5 0 8-4 11-7"/><path fill="#1E141E" d="M403 381c-1 7-9 8-9 16 5-4 8-8 9-14"/><path fill="#42A084" d="M388 175c4 5 5 4 13 9-4-11-6-4-12-9"/><path fill="#5D8F63" d="M96 363c0 2-1 3-2 4 4 10 15-8 4-2"/><path fill="#CEC47A" d="M346 134c11 21-9 9 2 22 0-6 8-9-1-19"/><path fill="#241A15" d="M336 181c-14 9 14-6 19 5 6 9 17 8 26 24-8-12-17-20-24-24l-1-1-3-1c-2-2-10-3-17-2"/><path fill="#3A5650" d="M243 445c-1 2-3 3-4 5 5 5 12 0 6-5"/><path fill="#E2E6CA" d="M318 438c10 0 23 7 33 1-11 0-22 2-32-1"/><path fill="#261A18" d="M95 423c1 9-17-3 13 13 1-2 2-2 4-1 9 0 16-2 23-4-6 3-22 5-21 1-10 2-16-3-20-9"/><path fill="#9E9659" d="M184 349c-4 2-9 0-13 1 1 2 2-1 3-1 3 5 0 9 0 13 4 1 9-11 0-10 5-3 6 1 7-1"/><path fill="#4E7352" d="M103 365c0 4-6 10-9 3 1 4 1 7 4 7 1 7 4-2 5-8"/><path fill="#688484" d="M475 348c0 5-3-1-4 2 0 10 16-4 5-1"/><path fill="#4F7D5E" d="M243 423c-5 7-9 2-5 8 7 4 4-2 4-6"/><path fill="#CEEFE8" d="M417 205c-10-4-3 8 2 5 1-3 0-4-1-5"/><path fill="#89AF7D" d="M417 317c-23 4 3 3 10 3-3 1-6-2-9-3"/><path fill="#422019" d="M180 461c-1 4 0 11 6 10 3-3-3-5-4-7"/><path fill="#E3E29A" d="M341 139c2 2 1 11 8 12 3 0-7-14 1-9-8-6-2 3-8-1"/><path fill="#737A77" d="M220 453c1 3 3 6-3 5 3 3 5 4 8 3 3-6-2-4-3-6"/></svg>