<svg xmlns="http://www.w3.org/2000/svg" width="600" height="600"><path fill="#90493D" d="M153 106c6-2 13 0 18 1 18 5 33 16 45 29 17 18 8 40 17 58 0 12-1 21-4 30 6 11 3 29 4 34 20-12 39-21 58-34 9-3 16-5 23-6 11-1 18 2 25 3 4-18 7-37 4-54-9-11-24-5-32-14-9 3-15 8-19 13 0-9 4-16 9-23 12-2 16-13 26-14 7-1 13-3 16 3 3 9-1 13-8 15 6 6 14 9 15 16 2 22-1 40-5 58 6 2 10 5 14 7 19-18 36-34 46-54 0-12-16-9-14-21-8-4-12 3-16 5-7 2-3-2-2-4 5-9 12-13 18-17 8-2 14-6 20-1 5 2 3 6 4 8-4 5-6 6-9 8 0 9 12 15 5 24-11 20-31 37-44 52 7 7 16 13 21 23 7 8 8 15 9 22 6 18-9 23-10 36-5 11-13 17-19 23 16-2 30-8 45-8 10 3 12 10 21 6 2 6 3 9 6 13 12 8 22 11 33 15 0 10 0 17 4 23s9 11 15 11c-5 22 8 44 10 64 1 9-1 15-4 20-4 2-11 5-13 0 6-9 5-22 2-30-14-20-31-38-43-51-5-3-7-2-8-1-2-4 0-9-2-12-7-1-10-6-16-7-10-8-14-18-20-25-8 2-12 6-18 7-2 2 2 5 0 9 7 4 14 4 22 3-1 6-7 11 0 16 5 5 14 9 19 4 3 14 16 19 26 24-5 21 15 32 9 52-1 9-5 15-9 21-6 0-11 2-14 0 3-10 5-17 6-25-4-5-5-7-8-9-14 0-24-5-33-13-2 9-3 17-5 23-2 4-5 3-6 4-5-8-12-16-12-27-5 2-8 2-12 1-1-2-3-3-3-4-2 17 4 36-6 52-3 6-7 4-11 4 6-22-5-46-7-61 1-13-8-15-15-17 1-6 2-9 1-14-1-10-15-7-11-18-3 3-5 5-8 7 16 7 5 17 17 24 8 2 1 7 4 11 4 3 8 3 10 5-9 9 7 23 1 33-20-18-36-43-48-67-9 4-15 5-22 4 3 23 11 44 14 65-4 4-7 4-9 2-10-9-17-18-23-27-6-13-6-28-7-41-8 7-13 10-17 13-7 3-12 0-17 0 8 21-15 18-7 35-10 0-3 14-15 11-1 12 4 21 10 28-5 6-13 3-18 5-9-17-17-33-19-50 1-15 5-26 9-36 4-11 9-20 17-25-2-3-3-6-5-8-10 2-7 13-16 15-2 8-2 14 1 19-19 8-7 34-23 42-3 11 1 20 4 27-6 0-6 7-13 5-14-14-10-35-22-49 3-11 2-21 7-29 9-28 36-45 44-67 7-7 15-8 21-5 4-9 7-21 14-29-7-1-12-7-16-11 11-7 21-14 29-22-12 1-28-2-39-9-4-2-5-3-4-5 7-3 13-3 17-7-7 0-13-3-18-6-9 2-14 9-20 11-2-11-6-19-4-30-4-1-5-3-6-5-1 4 4 8 1 12-9-4-15-10-18-16-2-19-9-37-5-54 3-13 9-23 14-33 8 24 21 43 36 61 4 5 8 8 12 10 6 1 10 1 11-2-5-8-4-29-17-37-9-13-73-58-17-42-6-1-8-6-6-8 4-1 5-1 7 0"/><path fill="#3A1E24" d="M261 302c9 8 2 19 1 29-4 0-6-3-8-6 5 13 15 18 17 26-5 8-13 4-18 6-2 3-4 6-5 9-5-1-9 1-12-1 12 7 22 20 37 19 4 3-1 4-2 5 7-2 17 0 23 2 6 14 15 25 23 36 3 7 8 10 11 7-9-13-15-28-26-43 1-6 6-8 8-14-1-6-3-11-7-15 0-8-2-16 5-17-6 0-12 13-14 13-6 3-12 8-17 2 0 6 5 9 9 8 5-2 8-3 13-3 1 4-3 8-5 10-7 1-10 1-14-1-5-4-7-8-8-11 10-12 22-23 32-30-9-17-27-7-41-31"/><path fill="#721B18" d="M369 266c-4 6 1 17-4 22-12 1-25-1-33-1-11 15-23 6-11 13-15 0-21-6-26-13-5 1-7 5-12 6-2-3-4-5-4-7 0 3 2 4 1 8-6 1-13 5-18 1-1 1 2 3 2 4-4-1-4-3-6-3 2 1 1 4 3 5 1 4 2 6 3 8l-3-6c9 7 18 16 27 18 5 0 5-3 7-6 2 3 6 3 4 6 9 1 14-2 19-4 0-4-5-4-6-6 12 3 20-7 30-6 12-1 23-1 28 9 9-13 26-22 8-11-3-3-2-6-6-7-5-9-5-20-4-29"/><path fill="#CB2E1F" d="M210 165c-2 5-1 11-2 16-6 11-12 1-17 12-5 4 1 9-3 13-12 2-19-10-26-13 1 7 8 9 11 16 2 3 1 4-1 5-5 0-7-4-11-5 8 9 1 10 2 14 9 8 21 12 32 10 7-9 19-9 26-17 4-14 4-48 0-32-9-5-7-15-10-18"/><path fill="#3E1622" d="M340 305c-3 10-25-1-23 10 5 7 3 10 1 13 5-1 11-1 16 2 0 4-1 6-2 8 6 0 9 8 17 5 4-2 7-3 9-6 3 12 7 21 17 25-7-8 20-11 26-16 6 11 21 14 22 27-1-10-12-17-17-25-2-7 2-10 6-12-15 0-30-6-43 4-4-6-3-9-7-7 5-6 8-13 6-19-6-5-12-5-16-7-5 2-9-1-11-2"/><path fill="#CA3020" d="M314 225c-9 1-16 5-22 13-8 8-7 15-3 22-6 7-12-3-12-4-2 3-3 8-6 9-1-1-2-3-1-4-3 3-6 8-10 8-1-7-2-9-2-14-3 4-3 9-4 13 2 7 4 11 6 15 6-8 14-12 18-12 2 5 9 2 12 3 2-5 1-10 5-13 7-13 13-8 14-15 10 6 15 6 25 18-3-3 2-9 6-5 3 8-5 7-4 10 8 1 19-2 24 1 1-7-7-31-9-13-7-8-8 8-15-2-8-10 5-14 2-24-7 2-20-3-22-6"/><path fill="#ED8D4E" d="M192 122c-1 3 0 8-5 9-4 1-6-1-8-2 0 8-1 13-4 21-1 3 2-5 4-1-5 13 16 25 11 37 0-8 10-4 15-7 4-7-1-14 5-20 4 6 3 13 8 16 3-5 4-20 8-10l-2 1v2l1-1v-2c-1-8-2-12-7-20-6-10-15-17-23-23"/><path fill="#363543" d="M224 353c4 26-4 32-8 45-9 12-13 2-15 4-2 9-6 17 0 22 0-4 0-11 3-14 5-1 8 1 11 1 3-4 15-3 19-12-2-2-14-3-10-8 9 0 15 2 21 3 1-4-6-8 0-10 8 9 29 6 31 11 5 2 9-1 14-1 11 24 23 32 42 70 2-14-4-20-2-29-5 3-10 1-13-6-9-13-17-24-22-36-7-3-17-5-24-2-1-3 2-3 3-6-18 1-29-16-44-22 0 3 0 7-2 10-4-7-1-17 0-15"/><path fill="#952620" d="M239 304c-1 4 1 6 2 8 0 5-1 6-2 7-8 1-10-2-20-4-3 6-7 9-10 13-6-6-14 4-12-8-6 17-18 10-21 26 22 5 41 3 58 3-4-3-4-21-14-18 8-5 16 0 22-10 1-1-2-3-2-6 17-2 15-16 0-7"/><path fill="#ED9561" d="M127 128c-5 9-10 18-13 27-2 13-2 25 0 34-1-2-1-8 0-13 3 10 16 4 19 13 11 0 0-7 5-12 5 2 4 8 10 8 5-19-17-28-20-56"/><path fill="#F29D57" d="M198 130c9 3 18 14 18 24-11-4-6 22-21 17-8-3-11-11-16-15 1-8 3-13 6-17 4-4 7-6 10-8"/><path fill="#B55239" d="M359 342c-3 4 0 10-2 15 6 17 22 14 26 32 2 13 0 15 3 23-1 6-10 4-8 8 4-2 8-2 13-1 2 3 1 6 2 10 14 2 30 1 41 9-4-11-12-7-21-11 2-5 3-8 2-12s-5-6-6-9c-10-3-15-11-23-7-1-9-2-16-7-21-4-11-13-15-19-21-2-7 1-9-1-14"/><path fill="#F3A058" d="M199 132c-5 1-8 2-11 6-5 5-7 10-7 15 4 7 6 15 13 18 7 1 7-6 12-3 0-1 1-7 2-10 3-8 5 1 6-1 2-13-7-20-13-26"/><path fill="#DD7860" d="M156 349c-3 4-24 21-27 37-3 14 11 13 15 19 3-1 1-16 8-20 3-9 10-2 7-9 4 1 6 2 5 5 0-4-1-7-2-10-4 0-5 3-7 6 0-3 0-8 3-9-4-5-3 3-8 1 10-29 7 10 10-24"/><path fill="#9E2824" d="M423 334c-10 0-20 8-11 18 5 6 10 10 16 11 9-1 8-14 18-12 8 7 12 14 18 19 2 6-6 4-7 3 0 8 2 13 9 16-4-15 4-19 0-22-8-3-13-10-19-14-5-8-14-10-14-19-4-1-6-1-9-1"/><path fill="#952421" d="M359 339c-7 11-20 5-25 4 5 3-4 8-8 11-9 4-10-8-12-8 0 9-5 11 0 23 7 2 15 0 22 2 11-2 0-12 8-15 5-1 8 0 10 1 4-5 1-11 4-15"/><path fill="#843F3D" d="M416 411c1 3 1 9-2 15 5 2 11 3 14 3 4 4 8 6 9 8-14-6-30-5-45-6 1-4-1-8 0-11-36 16-2 9 23 22 4 6-7 2-1 4 7-2 5-7 6-11 10 1 15 8 18 14 6-4 10 11 14 1-15-15-29-40-35-34"/><path fill="#BE5031" d="M180 389c-2 1-4 2-5 3-4 10-14 22-7 34 5 0 13 2 16-1 10-10 12-19 19-29-4 2-6 9-13 7-5 2-8 1-11 0-2-2-3-4-2-5 26-1 28 0 1-8"/><path fill="#722024" d="M321 342c-1 2-24 1-13 3 1 23-8-6-4 15 2 4 4 7 5 10 5 5 3 11 4 16 3-2 7 2 9 3 4 9 5 13 4 22 3-4 7-3 11-1 2 10 7 16 6 21 5 0 3-6 8-6 7-1 8 4 7 7 0-5 5 3 3-5 8 2 14 2 20 1-1-6-13-9-18-15-2 4-1 8-3 11-1-7-2-14-4-21-4 5-7 10-10 15-5 0-5-4-7-5-5-4-7-6-10-7-2-5 2-8 0-11-17-5-8-19-18-24 0-10 0-16-1-22 5-5 9-6 14-7"/><path fill="#D84F3B" d="M150 179c3 8 6 16 9 19-3 3-17-16-16-8 5 8 9 15 15 19-8 0-13-11-23-12 1 2 0 5 0 8 4-1 4-8 9-1 1 6 4 6 7 8-4 1-5 5-7 6 5 3 12 4 13 10 7-1 5-9 6-10 3-4-3-5-3-9 6 2 9 4 13 4-2-10-12-13-13-21 5 1 6 2 9 4 5 5 9 8 12 10 7 2 8-2 7-6 2-8-12 6-17-3-8-5-13-12-18-17"/><path fill="#B0443A" d="M442 352c-5 1-3 7-7 9-5 1-2 3-5 3-29-16-7-5-1 8-1-1-1-3 0-5 2-3 3-4 3-6 5 3 8 4 9 9-5-1-6-8-9-2 5 7 14 9 18 15 6 7-2 2-4 2 6 1 11 7 9 13 2 0 6-3 13-1 1-8 0-18-1-26-3 6 3 18-2 19-10-6-7-11-9-17 3 0 5 1 7 1-5-7-9-14-15-21h-2l-1-2-1 1"/><path fill="#E27354" d="M145 169c1 5 3 9 4 14-5 5-8-3-9-5-4 6 5 11-5 12-5-10-19-2-20-14-2 14 3 23 6 33 6-2 7-7 13-3 1-6 0-8-1-10 11 2 17 10 23 14-5-5-9-12-12-17 0-4-4-5-2-6 8 6 15 10 18 14-23-31 9-10-14-31"/><path fill="#99221D" d="M279 270c-2 1-1 7-5 2-3 6-11 6-12 13-5-5-6-10-8-14 0 8 1 19 6 24-2 0 6 0 19-1 1-5-1-6 0-10 1 3 2 5 3 8 4-2 7-2 9-5 4-2 5 1 6 3-4-13-4-17-19-17"/><path fill="#2A1B28" d="M252 400c-1 12 2 23 6 34 3 10 4 18 10 24 5-21-4-35-6-51 2-9-4-8-9-7"/><path fill="#4D2A35" d="M150 414c-6 9-1 24-11 30-2-1-4 1-5-3 1-1 4-10 7-11-8 8-9 6-18 11-4-5-8-9-10-13 10 15 5 37 22 49 2-3 8 0 6-4-2-5-12-1-7-9 0 1 3-3 4 0 1-4-4 2-4-3 3-5 3-10 5-14 14-8 3-22 11-31"/><path fill="#8B4446" d="M124 387c-4 10-8 19-11 29 10 3 13 14 17 13 4 4 5-4 10-5 1-5 1-9 2-14 4-4 10 4 11-3-4-5-4-10-3-15-3 7 3 12 2 16-9-7-14 8-21 1-8-6-8-12-6-19"/><path fill="#E3493A" d="M305 224c-13 0-31 13-42 25-14 16 0 1-5 18 6 1 9-4 10-8 3 2 2 4 3 6 4-2 2-8 5-10 1 2 7 10 11 3 0 2-10 3-6-12 7-9 12-20 23-22"/><path fill="#F0BB90" d="M126 110c10 23 1-1 33 30 4-2 11 0 16-4 1-8-12-6-11-14-11 0-21-9-33-10"/><path fill="#96231D" d="M367 266c2 5-6 1-3 7-8-6-20-1-26-2 0 8-4 12-5 18 6-6 20 0 30-2 6-4 2-13 4-19"/><path fill="#4B2C3A" d="M177 443c-1 3 1 5-1 7-17-3-14 6-4 27 5 7 8 13 17 10-1-8-6-14-13-19 2-7 4-1 5 1-4-4 0-10-3-15 4 0 12 1 10-2-3 4-6-6-7 0-4-3-4-5-5-6"/><path fill="#403539" d="M251 332c-4 1-3 6-6 8-19-15-2 12 2 14 9 0 17 3 22 0-1-12-11-14-16-22"/><path fill="#4B2634" d="M334 318c13-5 6 10 14-2 8 3 15 6 13 13-5 7-10 6-16 7-11-9-25-12-12-18"/><path fill="#CA5C37" d="M362 368c2 1-3 3-2 5 2 10 12-2 15 11-2 5-4 21-13 23 7 4 14 4 18 2 3-9 4-22-1-23-6-11-8-12-15-17"/><path fill="#9A261F" d="M472 372c-7 2-1 15-3 25-2 2-3 0-4 0 7 1 8 9 11 14 5-9 9 0 12-7-2-2 1-5 2-9-10-4-17-14-18-22"/><path fill="#6B2921" d="M256 307c-5 0-8 11-14 6 0 5 2 8 3 11-7 6-16 4-24 4 7 8 15 5 22 11 3-2 4-7 8-8 5 5 9 7 13 10-5-4-7-9-12-9-1-6-5-7-5-10 12 14 1-2 13 9 2-12 10-22-4-6-6-7-3-14 1-18"/><path fill="#F3C08D" d="M146 108c2 5 18 7 22 16 7 1 15-3 21-8 12 8 22 16 28 26-9-15-23-24-36-30-10-5-22-2-32-5"/><path fill="#A9756A" d="M199 232c-1 7-8 5-13 5-9 0-17 2-22-3l-2 2-3 1c-5 3-9 9-15 11 6-1 10-7 16-10 9 3 16 7 25 7-5 6-11 9-17 11 9 4 18 7 27 8-2-6-9-3-11-8 2-2 4-2 6-3-2-5-1-11-2-8h-2l-1-2c11-8 8 3 13-9"/><path fill="#CF6033" d="M172 401c5 4 6 5 16 3-2 3 4 7 2 9-1 6-5 9-8 11-5-1-9 1-12-2-3-7 1-12 1-18"/><path fill="#DC5C24" d="M210 298c-2 2-11 11-13 6-2 15-6 0-4 11 1 6 7 4 12 8 4-7 11-11 13-18 27 3-2-1-8-5"/><path fill="#2F3347" d="M243 399c-1 16 12 40 19 55 12 10-1 4 5 8 3 5 8 3 10 3 0-5-1-7-5-7v-3l-2-3c10-9-4-12-1-24-5 8 8 16 1 25 2 5-3 7-5 3-8-18-14-36-14-55-3-2-5-1-7-2"/><path fill="#351E28" d="M226 355c-2 4-7 9-12 7 6 11-12 25-1 39 7-13 3-16 10-18 5-11-4-20 2-26"/><path fill="#BC3723" d="M220 306c-3 6-11 11-13 18-5-1-7-5-11-2 1-10-6-1-4-10-5 7-6 14-7 20 5-5 6 0 9-10 7 1 10 4 13 7 5-5 8-9 11-13 22 9 22-10 2-10"/><path fill="#8C332D" d="M407 396c12 7-5 9 15 21 0 0-1-2 0-4 4 11 12 7 20 12-1-12-23-20-27-31-1 4-5 1-8 2"/><path fill="#781A1C" d="M461 398c-2 1-3 3-4 5 4-3 7-4 11-1 3 13 3 7 5 17 5-4 9 16 13 9-1 4 1 10 3 11-4-13 8-17-2-33-4 4-7-2-10 7-4-9-8-14-15-15"/><path fill="#5B6B68" d="M329 265c-13 6 0 7-10 21-18 0-9-15-23-14 0 3 1 8 3 11-1 6 23 8 29 3 3-2 4-15 1-22"/><path fill="#DE5230" d="M249 262c-15 0-21 7-11 23 1 8-6 8-2 16-1-5 2-8 6-6 4 6 13-3 13 9-1-7-8-13-7-20-3 3-10 9-11 3 2-6 7-15 10-15 0-4 1-7 2-9"/><path fill="#ECA26D" d="M161 118c4 6 9 9 18 17-19 6-32-4-5 16 3-5 4-11 2-13 3-5 1-6 0-8 4-1 6 1 10 0 7-1 2-8 8-9 8 6 16 11 20 17-6-8-14-15-26-20-6 1-5 5-7 7-7-3-12 4-19-7"/><path fill="#CE5C3B" d="M353 361c-3 4 3 0 5 4-8 3-11 8-17 12 4 11 1 10 4 14 8-3 11-9 15-8-5-6-3-12-1-16 0-5-3-5-4-6"/><path fill="#3D5176" d="M244 385c-2 4 5 5 3 9-54-6 17 12 29 2 1-6-20-1-29-11"/><path fill="#6C271B" d="M329 140c-9 2-21 5-10 14 10 2 17-2 23 4 7 9 5 28 3 42 2-10 3-21 2-33 4-12-14-12-15-22 0-3 1-6 2-6-1 0-2 0-3 1"/><path fill="#C5613D" d="M398 404c6-2 12 3 15 7-1 10-9-3-14 0 1-1 7 3 8 8 0 3 0 7-4 8-8 2-7-5-8-9 0-5 0-9 2-12"/><path fill="#D46433" d="M172 403c1 5-4 11-2 16 4 4 7 3 9 5 5-3 9-5 10-8 2-6-4-8-3-10-5-2-13 3-11-4"/><path fill="#681D17" d="M298 338c-8 6-16 14-24 21 7 4 13 3 20-1 1-2 12-10 4-18"/><path fill="#EE926D" d="M138 370c5 1 9 0 14 2-2 8-7 11-3 17-3-8-12 4-16-4-1-6-1-11 4-13"/><path fill="#6A1B0E" d="M398 145c-4 1-9 2-12 4 10 3 8 15 22 17-1 12-8 18-12 26 5-5 9-11 12-18 2-7 0-11-4-16 5-10 11-16-6-13"/><path fill="#462638" d="M345 321c-3 3-12-2-18 3 4 5 15 2 16 9 14 8 26-13 3-12"/><path fill="#7E3736" d="M168 404c-5 7-6 17-5 25-2-1-3 5-2 7 0-1 0-3-1-6 11 0 9 9 13 11-3 2-9 0-8-2-1 4 0 5 1 6 2 0 7-4 8 5 3-2 1-5 2-8l-2-2v-1h1l1-3c1 4 4 3 6 1 3-5 4-10 7-14-3 7-14 3-20 5-7-7-5-15-2-22"/><path fill="#6B1A22" d="M184 336c-45 8 0 10 12 29-2-8 7-5 9-12-1-1-2-4-4-4-2 3-2 5-3 8-2-4-2-6-1-8-5 5-14 0-19-1-3-6-1-10 3-12"/><path fill="#481F29" d="M346 435c1 5 7 10 4 15 1 15 0 29-6 40 3 1 4-1 7 0 3-6 4-11 5-15-2-9 2-22-8-38"/><path fill="#DD7A44" d="M144 220c-4 8 1 17-1 25 5-2 10-6 12-10 4-8-2-15-9-13"/><path fill="#EB7E33" d="M234 277c-5 15-12-2-12 16 9 9 1 7 8 14 4-6 7-17 5-27"/><path fill="#B5866C" d="M134 122c11 11 24 18 34 31 13 7 14 32 19 32 1-13-6-24-15-32-12-13-24-20-36-29"/><path fill="#441623" d="M378 254c-11 6-9 19-10 29 2 9 6 16 14 15 3 0 4-1 5-3-5 1-10-3-12-8-4-7-2-15-3-21 3-8 9-8 13-7-1-2-3-4-5-5"/><path fill="#6C2119" d="M228 348c-4 5 1 7 2 14 6 3 12 2 17 3 3-3 3-6 4-8-1 0-12-5-22-8"/><path fill="#8F2629" d="M336 396c-1 10 2 16 8 22 6-5 8-15 12-17-7 8-11-4-19-4"/><path fill="#93362C" d="M359 350c0 14 21 16 23 31 4 5 3 11 5 15 8 0 13 5 19 5 1-8-33-29-47-50"/><path fill="#F19871" d="M140 371c-6 2-7 7-8 12 5 9 16-3 14 7 0-6 2-10 5-17-3-3-6 0-9-2"/><path fill="#392C48" d="M311 268c-4 2-5 6-4 11 2 4 6 6 9 5 6-2 7-6 6-10-3-12-6 0-11-6"/><path fill="#AC4837" d="M227 234c-2 8-3 18-14 16-5 1-11 0-13-3-4-2-5-4-3-5-2 3-1 8-2 11 10 10 5-5 18 4 5-2 9-7 15-8 3-5 0-8 0-12"/><path fill="#42343F" d="M377 436c-1 6 16 15 10 27 7-4 6-16 7-23-6 0-8-5-14-3"/><path fill="#3F2740" d="M176 353c-6 6-10 10-11 17 1 6 4 3 8 2 3-4 5-10 5-12 17 10 21 13-2-9"/><path fill="#491924" d="M454 456c-2 5-8 13-12 12-1 5-3 10-4 15 7 3 8-1 10-5 5-7 6-13 5-21"/><path fill="#FAF2CF" d="M233 256c-15 11-30 26-38 41 5-16 39-28 38-40"/><path fill="#D4714A" d="M330 377c-5 0 4 8 2 12 5 3 7 3 11 4-3 2-5 2-8 2 8-2 13 7 19 1h4v2c-2-5 1-8 3-12-4 0-3 7-4 9-4-2-12-2-15-6 7-1-7-2-2-11 0 7-5 2-7-1"/><path fill="#D75032" d="M220 232c-8 3-15 12-23 10 8 8 18-2 25-2 4-3 6-10-1-8"/><path fill="#9A312B" d="M203 365c-5 4-11 8-16 12 8 2 10-12 18-9 3 4-4 19-2 25-10 5-15 10-23 3-1 3-3 4-2 6 9 3 20 1 24-8 1-8 10-25 3-30"/><path fill="#EC8132" d="M220 285c-4 3-9 7-12 10-5 0-6-3-4-5-4 5-6 10-8 15 1 0 9-1 13-8 1 3 8 9 10 5-2 0 0-11 1-15"/><path fill="#A7524B" d="M131 379c-8 5-4 11-6 19 1 6 5 12 10 12s6-6 10-4c-5-5-12-6-17-10-1-7 1-11 2-15"/><path fill="#B4291E" d="M418 335c2-1 5 0 6-1 3 5 8 5 9 9-2 4-5 4-7 6-8-2-14-9-9-14"/><path fill="#651F24" d="M365 235c-7 5 10 14 10 20 1-1 2-2 4-2 6 0 6 7 9 7-1-5-9-18-22-25"/><path fill="#772A29" d="M379 370c7 11 15 18 27 22-3-2-6-5-8-9-2-5-2-9 2-10-6 4-13-1-20-2"/><path fill="#40304A" d="M379 271c-2 3-2 5-3 8 1 6 5 8 7 9 7-2 8-6 7-10-2-9-5 5-9-5"/><path fill="#B9452F" d="M201 367c-7 13-14 9-19 15 5 1 7-2 9-3 2 6 10 5 12 11-5-7 6-17 0-21"/><path fill="#3E5572" d="M242 400c-1 14 2 25 7 36 6 11 12 18 16 27-6-14-23-43-23-61"/><path fill="#40212C" d="M151 411c-8 8-6 16-18 20 0 9 4 1 7 0-3 5-8 13 0 13 8-6 2-22 10-31"/><path fill="#AD4B42" d="M227 211c-6 12-23 12-30 22-12 3-21-1-28-4-4 2-4 4-5 4-11 7-7 0-15 11 4-4 8-7 13-9 11 4 22 1 32 2 1-10 27-12 33-24"/><path fill="#481C25" d="M325 399c1 5-1 8-2 12 6 2 9 4 13 7 4 7 4 15 2 20 3 4 4 7 8 7-5-10-5-21-9-30-2-8-7-3-10-3-2-5-2-8-1-10"/><path fill="#C33017" d="M320 330c-6 0-11 3-15 6 7 7 11 0 18 3 3-7 8-9-2-9"/><path fill="#40556D" d="M291 395c6 23 26 41 35 62 2 4 5 6 8 4 2-11 0 7-7-2-9-25-27-46-34-62"/><path fill="#412D45" d="M399 347c6 9 13 23 24 27-2-13-16-17-21-27"/><path fill="#651A1D" d="M438 450c1 6 5 11 4 18 6-5 11-8 11-15-2 0-3 1-2 4-5-3-6-8-11-6"/><path fill="#B72A1E" d="M420 336c-8 1-3 10 4 10 3 0 5-1 8-1-2-5-4-6-6-9-3-1-4-1-5-1"/><path fill="#636B6D" d="M392 267c1 2 0 4 1 5-7-5-8 4-13 0 6 11 7-5 11 3 2 7-1 12-5 14-9-4-12-10-13-17 0 6 1 11 3 17 7 4 12 2 15-2 5-6 6-13 3-18"/><path fill="#DF7336" d="M177 408c11-5 11 11 2 13-1-5-8-2-6-8 3-1 0-4 3-3"/><path fill="#3E1F2F" d="M157 382c-1 3-4 4-5 6-3 6-2 11 1 14 4 7 6-19 8-20"/><path fill="#343640" d="M274 365c1 4 5 8 9 9 8 2 13-1 16-6-9-4-12 8-23-3"/><path fill="#C6371F" d="M243 295c-6-1-8 5-3 10 6-2 8 0 13 0 1-4 0-5-1-7-4-2-6 4-9-2"/><path fill="#771E21" d="M443 348c8 5 16 17 22 14 4 6 3 10 4 13 3-5-1-9 1-15-10-3-18-6-24-12"/><path fill="#B54C45" d="M141 202c-5 8-20 0-16 14 0-6 5-12 10-8-2 3 13 8 6 14 1-4 5-7 8-9-6-1-4-9-8-9"/><path fill="#482225" d="M192 424c-3 4-6 8-6 13 3 6 8 7 10 9-1-4-4-6-4-9 1-10 2 0 5-8-3 1-2-4-3-5"/><path fill="#7C3A42" d="M112 422c-1 7 8 13 10 16 5 1 5-3 8-3-7-2-10-9-16-12"/><path fill="#4A303D" d="M320 316c-2 5-7 5-10 8-5 0-9-1-12-3 0 2 2 4 1 7 6 6 11-2 18-1l2-1h-3c0-9 6-4 4-7"/><path fill="#DDD2A4" d="M312 256c2 3-1 12-11 3 0 11 9 6 13 7 11 2 9-13 3-8"/><path fill="#C55638" d="M400 413c-5 4-4 5-3 9 0 5 3 5 4 4 5-1 5-4 6-5-3-4-2-8-6-8"/><path fill="#951E13" d="M353 426c-6-1-3 4-7 5 4 1 5 6 6 8 5-1 9-10 3-14"/><path fill="#4E161F" d="M463 401c-12 0 1 11 5 13 3-5 3-9 1-10-2-3-3-2-4-2"/><path fill="#602124" d="M343 432c7 16 4 32 7 35-2-10 3-20-5-31 11 2 6 20 12 16 1-3 1-8 1-13-3-2-3 2-4 2-4-3-4-7-7-8"/><path fill="#C83B2B" d="M220 241c-6 3-12 6-18 7 6 2 9 3 14 1 5-1 10-6 5-9"/><path fill="#CF562F" d="M193 379c-8 7-13 1-17 11 6-8 8 3 13 5 4-1 5 1 6 1 10-15 6-4-4-1-11-12 9-13 1-12"/><path fill="#421C24" d="M327 260c6 5 8 16 3 24s-12 11-21 9c-6-2-11-6-12-11 0 3 2 5 3 8 7 5 13 6 20 5 4 0 6-3 9-4 7-10 5-23 0-30"/><path fill="#A01F18" d="M329 223c7 6-3 4-11 2 6 3 10 5 15 7 8 2 10-13-1-8"/><path fill="#3A1E28" d="M181 440c-8-1-3 5-2 9 4-4 6 6 9 0 2-3-4-7-5-10"/><path fill="#F8D290" d="M233 264c-9 6-17 13-24 18-9 8 0 2-4 12-2-7 11-16 17-21-1 6-5 12-10 18 18-22 3 5 19-18 0 0-4 3-5 1 2-5 4-7 5-9"/><path fill="#4D5E70" d="M374 437c5 10 8 24 15 28 4-3 3-6 4-7 0 4-4 1-4 6-3-5-4-10-3-15-7-1-7-9-10-11"/><path fill="#93251E" d="M360 233c-2 2-2 5-5 6 4 7 7 12 10 16-7 2-7-5-12-7 5 10 8 14 17 14-6-3-14-26-4-28"/><path fill="#E17737" d="M179 409c-2 1-3 2-4 4-4 6 4 2 2 7 7-1 11-12 3-12"/><path fill="#745A62" d="M423 434c-10 18-4 7 14 12-4-5-8-9-14-9"/><path fill="#BB4445" d="M169 346c-7 4-8 11-11 18 8-1 10-15 13-17"/><path fill="#922722" d="M346 226c0 3-2 6-1 11-1-6 6 0 7 1 2-1 3-3 5-4-2-5-6-6-10-8"/><path fill="#E0602E" d="M223 161c-1 5-1 11-5 15-2-2-2-4-5-4 2 3 1 7 3 11 11-5 5-12 9-19"/><path fill="#D17342" d="M369 378c-3 2-2 6-5 12 3-8 10 7 5 8 2-5 2-11 6-11-1-6-1-8-5-9"/><path fill="#DF9A6A" d="M342 357c12-1-2 5 1 12 1-1 2-2 5-1-3 5-9 5-10 11-5-2-9-6-13-1 9 3 1 17 13 15 5 3-13-3-9-15 2-3 5-1 8 3 4-8 12-12 18-16-8 3-4-8-8-9"/><path fill="#844446" d="M201 235c-15 8-6 14-12 22 1 1 6 2 6 7-1-8-2-20 3-27"/><path fill="#BA3820" d="M330 341c-2 1-5 1-7 3 0 1 2 0 4 1 1 4-2 6-3 7-3-2-5-1-6-2l-1-1 1 1c2 3 3 5 7 4 11-6 5-13 8-13"/><path fill="#CF7746" d="M399 404c-6 7-5 21-1 4 7 2 12 7 16 6-5-6-8-9-13-9"/><path fill="#6B1D1C" d="m310 254-3-1c-2 2-6 2-9 4-3 7-5 11-6 16 1 8 4 12 8 16-6-5-7-16-5-24 3-3 8-9 12-11 11-2 18 3 24 8-4-6-11-11-18-9"/><path fill="#451C23" d="M180 360c-4 4 0 10 5 14l5-5c-6 6-6-7-8-10"/><path fill="#893325" d="M260 304c-4 4-9 11-5 18 2-3 7-1 7-4-2-4-2-7-4-7-1-4 1-5 2-7"/><path fill="#811D1B" d="M204 330c5 2 7 13 13 16-9 0-11-8-14-13"/><path fill="#DF4924" d="M298 241c5-5 11 2 5 6-3 4-6 2-8 0 0-3 2-3 1-5"/><path fill="#E9BC8A" d="M344 368c-5 12-16-3-21 8 5-2 10-2 13 3 2-6 11-8 11-11"/><path fill="#CC7F58" d="M433 424c1 4 10 13 14 14-1-6-7-11-12-14"/><path fill="#814433" d="M312 146c-8 2-14 9-18 16 4-5 8-8 13-11 16 4 12 8 6-5"/><path fill="#45212C" d="M495 462c-2 4-2 10-5 14 10-3 12-19 6-10"/><path fill="#2D2A3A" d="M283 377c16-3-4 11-9 5 2-3 5-3 7-5"/><path fill="#783843" d="M474 415c-23-1 8 4 4 21 5-15-8-13-6-21"/><path fill="#F29D70" d="M266 241c-3 4-7 9-11 8-12 11-15 7-22 14 6-2 12-5 19-12-1 12-7 25 1 15 1-6 2-17 12-22"/><path fill="#70493A" d="M389 297c-8 6-16 10-17 22 5-8 13-12 16-20"/><path fill="#F19C5F" d="M253 273c-5 1-6 15 0 21 2-8-2-15-1-20"/><path fill="#EC6F4A" d="M253 251c-9 12-19 7-23 21 5 8-2-7 5-8 3 3 14-7 15-2 0-3 2-5 3-8"/><path fill="#F1A25B" d="M224 272c-10 9-21 16-6 10-7 7-9 12-12 14-2-5-2-5-1-2 5-3 9-4 14-10 2 6 0 11 1 17 3 2 6-1 9 1-2-3-6-1-9 0 0-9 1-15 2-22v1h-2l1 2-3 1-1 1v2l-1-2c3-3 4-7 7-10"/><path fill="#A65534" d="M387 204c-10 8-17 17-25 26-6-2-10-2-14-4 3 2 7 2 11 4-4 6-8 10-10 13 13-11 30-33 36-37"/><path fill="#882526" d="M493 425c-4 0-4 3-5 8 4 10 4 5 8 6-1-4-2-8-4-12"/><path fill="#946A63" d="M197 256c0 15 3 1 12 11-2-2 0-5 4-8-4 2-9 1-15-1"/><path fill="#741B1A" d="M354 241c-1 2-2 3-3 5 4-3 7 9 11 11-1-6-4-10-5-15"/><path fill="#D07055" d="M433 361c-2 5-4 7-5 12 2 1 14 2 14 13-1-9 3 1 7-2-4-4-8-8-15-9-3-5-3-9 0-11"/><path fill="#472D3B" d="M346 304c-34 12-13 4 4 1 6 3 11 2 15 5 5 4 6 8 3 11 1 0 3-1 2-3-1-5-6-12-11-12-4 0-6-1-7 0-4 0-6-1-7 0"/><path fill="#E4572E" d="M208 178c-3 6-11 2-16 4 4 1 6 4 9 5 5-1 7-5 7-7"/><path fill="#E35432" d="M178 332c-5 8-15 1-18 6 5-2 11 3 18-3"/><path fill="#B5A29F" d="M229 206c1 5-2 8-3 11-5 5-10 7-14 10 3-1 14-8 14 0 1-6 5-12 5-18"/><path fill="#DE7547" d="M211 230c13-5-1 8-13 9 7-6 45-9 18-10"/><path fill="#982724" d="M312 372c6-2 6 5 6 8 2 7 19 15 9 26 5-7 2-11 1-17-5-1-7-5-9-7-3-5 1-6 3-8-2-3-5-3-8-2"/><path fill="#F7C399" d="M269 239c-11 9-23 9-35 22 11-6 23-13 33-20"/><path fill="#78353F" d="M487 440c2 4 4 7 5 12 7-7 4-4 4-9 0 4-5-2-6-3"/><path fill="#442631" d="M286 327c4-1 11 2 9 7-4 0-6 0-10-5"/><path fill="#5B2924" d="M264 358c5 2-1 11 2 16-5-3-2-9-4-14"/><path fill="#EEBD92" d="M204 271c-6 8-13 11-21 16 7-3 19-6 23-14"/><path fill="#823C39" d="M213 373c-2 4-5 8-5 13-3 10-9 14-3 14-2-4 5 0 6 2-2-10-4-8-5-14 3-6 4-11 7-14"/><path fill="#8DAABE" d="M390 299c-6 11-14 20-22 31 9-6 16-18 21-30"/><path fill="#DBD0A6" d="M377 259c15 11-2 4-2 11 4-1 8 0 10-2-5-5 3-8-3-7"/><path fill="#EA9F68" d="M206 272c0 8-14 12-20 15 6 1 11-4 17-4-1-2 7-4 3-10"/><path fill="#E15125" d="M299 240c-1 2-2 4-3 5 4 7 13-5 6-5"/><path fill="#F1ECCE" d="M306 255c-5 12 7 3 10 0 0 0-3 0-5 1"/><path fill="#802619" d="M304 311c16 0-2 6-6 4 1-4 3-4 6-3"/><path fill="#F2BC9B" d="M313 219c4 4-5 4-8 6-8 4-14 8-17 15 4-5 9-11 14-14 11-6 44-6 11-7"/><path fill="#4F2D2C" d="M274 336c3-1 2 9 1 11-4-3-6-6-2-9"/><path fill="#70242B" d="M208 366c3 7-2 13-3 20 1-6 10-13 6-20"/><path fill="#5C323C" d="M446 390c-4 3 7 7 6 12 2-5 2-10-4-10"/><path fill="#4C323D" d="M341 443c4 6 6 13 5 22 3 11 0 20-4 24 4-4 5-11 6-17-1-3-1-4 0-5-2-8 2-20-6-22"/><path fill="#585659" d="M232 337c0 4 3 8 6 10-1-2 2-9-4-10"/><path fill="#A85D4E" d="M184 289c2 2 9 7 9 5 3-8-5-4-7-6"/><path fill="#62292E" d="M162 430c-2 11 1-2 6 4 2 8-8 2-7 6 0 7-3 7 3 7-2 0 1-4-1-6 2-3 9-1 7-3-1-6-5-5-6-7"/><path fill="#BA513B" d="M364 261c-4 1-1 7-2 10 1-3 9-4 4-10"/><path fill="#8E8A75" d="M299 264c-3 4-2 9 4 10 7-6-4-3-4-9"/><path fill="#676673" d="M380 309c-5 8-10 14-15 20 7-4 11-11 15-19"/><path fill="#626165" d="M189 449c2 6-4 7-9 4 4 13-3 18 4 19 0-3-4-7-2-13 2-7 12-3 8-8"/><path fill="#99221A" d="M303 337c-3 7 5 5 9 5-2-3-4-4-7-5"/><path fill="#D17449" d="M350 356c-1 3 1 4 1 6-2-4 5-2 7 1 1 7-3 12 2 16-5-3 1-7 1-15-2-5-7-5-9-7"/><path fill="#F6B489" d="M141 373c2-1 5-1 7 0 0 7-7 8-7 2"/><path fill="#858186" d="M423 445c-25 7 8-4 12 7-1-7-7-7-11-6"/><path fill="#E17A42" d="M248 288c4 4 5 13 9 16-2-16 0-8-8-14"/><path fill="#662727" d="M192 419c-2 4-5 9-7 13-2 3 1 7-3 7 4-1 3 5 7 3l1 1h2l-1 1-2-2c-3-2-4-4-3-8 1-5 3-8 5-10 2 0 5-1 4 2 0-3-1-4-2-6"/><path fill="#843830" d="M421 391c-4 5-9 1-12 1 12-2 14 20 13 0"/></svg>