<svg xmlns="http://www.w3.org/2000/svg" width="600" height="600"><path fill="#8E7B67" d="M454 113c2-2 6 0 8-1-3 2 20 3 21 8 12 7 23 17 28 27 21-3 6 76 22 108 4 24 10 44 13 64-2 10 3 22-1 27-2 8-2 11-7 17-3 2-6 1-7 2-18-39-45-61-63-96-5-10-21-25-33-37 8 10 21 18 27 29-12 21-19 43-29 58-13 24-29 45-49 64-10 10-24 16-31 23-8 3-32 14-35 17 0 6-4 13-11 16 2 0 2-2 3-2 7 8 14 7 20 11-8 0-20-11-16-10-1-2 1-4 3-5 4 1 8 3 10 3 5 4 7 7 7 12 18 4 22 10 36 20 0 3 7 7 6 11-5-3-8 1-28-1 3 2 5 2 3 5-7 1-14 0-19 2-8-3-15-1-20-7-10 1-31 0-44-3-5-13-1-24 3-33-5 1-7-5-8-9-16 3-34 9-49 3 9 8 24 20 26 28-14 1-30 3-36-5 2 2-2 3 1 5-3-4-8-2-12-3-1-2-2-4-1-5-1-6-4-8-7-10 3 2 5 4 6 7 0 6 2 10-3 12-9 1-21 0-23-8-1 5-12 2-15 1-1-11 5-18 9-25-9-19-13-36-16-54-3-20-1-40 2-57 5-15 10-26 8-38 7-13 18-25 28-34 8-13 36-18 35-29 22-10 36-14 55-20 3-2 4-8 14-10 22-9 47-14 71-18-2-1-4-5 1-6 13-3 27 0 40-2 8-10 18-14 23-23-4-1-10 0-15 2-4-4 2-6 4-8-1-4-5-7-7-10 23 1 38-11 54-12"/><path fill="#2F1F1D" d="M260 281c-18 15-38 24-60 54-7-6 1-13 1-19-13 33-32 45-40 71-12-6 0-47-4-53-7 15-13 26-11 41 2 28 3 30 14 57-6 5-11 27-10 23 5 4 10 3 13 4 4-3 5-12 8-13 1-5-6-6-12-7 12-9 26-7 39-8-4 1-9 1-12-1 4-3 4-10 9-12 20-24 33-26 50-36-4-9-7-16-9-41-7 3-2 16-5 23-3-18-6 7-9-13-1 4 1 8-1 11-3-10-6-18-9-24 10-23 30-40 48-56"/><path fill="#533B31" d="m415 350 1 1c4 6 5 10 6 17-2 29 5 37 3 58 9 7 27 11 37 15 9 5 18 11 23 18-24 14-15 2-39 8-26-2-54-6-59-5-4-4-2-1 0-2-10 5-6-15-7-6 1-13 1-15 5-20-9 4-10-11-10-5-21-27 14-51 39-77"/><path fill="#A68764" d="m86 331 2-1c4-1 11 2 15 4 14 8 28 25 38 25 1 18 4 34 8 49-7 10-16 14-25 16-17 1-25 0-37-7-15-6-22-21-33-29 6-9 19-1 15-13-20-6-21-25 0-26 9-4 18-3 25-6-3-3-7-6-9-10"/><path fill="#6D6963" d="M414 153h-2c-23 30-57 66-90 95 6 9-19 21-19 34-3 19 6 2 0 17 6-12 15-23 25-34 10-8 27-20 34-23 22-10 34-12 58-14 2-18-8-29-13-43-1-11 1-19 4-26 3 8 3 18 11 20 1-2 0-5 3-7-1 3 2 8-1 10 10 2 18 25 34 23 1-26-23-69-48-47"/><path fill="#493732" d="M343 227c-22 13-44 34-66 41-7 6-6 4-10 9-19 16-40 34-53 56-1 8 6 18 6 27 1-3-1-7 1-10 3 20 6-5 9 14 3-9-3-23 5-25 4 21 9 39 18 56 7 9 18 18 27 25 9 2 24 1 27-2 8-13 13-26 12-41-9 3-17-1-26-1-13-4-24-7-32-14-13-8-15-22-22-30-2-6-1-9 0-12 8-20 23-35 37-49 15-11 12 2 32-15 11-7 21-16 33-28"/><path fill="#F0EBD2" d="M412 232c-14 2-29 3-41 9-16 6-28 16-39 26-4 3-6 5-7 7 1-2 3-4 5-5 3 3 5 8 2 11 4 5 16 8 21 16 1-1 1-4 4-5 2 1-1 2 0 4 13 3 23 3 31 1 8-10 14-19 19-29-1 8-5 15-10 23 4-2 2-3 5-8 4 1 17-1 17-1 4-5 6-9 8-13-2-14 3-38-13-37"/><path fill="#D6C199" d="m320 279 1 1c-6 8-34 38-7 28-1 2-5 5-7 8 8 0 8 16 19 10-4 7 11 3 0 13 3-1 7-1 9-3 4 3 0 5 2 7 5-1 6-2 9-3 3 6 13 1 15 8 5 0 11 1 13 1 1-4 6-6 11-9 1 5-2 8-4 12 5-6 8-14 14-20-4 8-8 17-15 24 11-19 22-23 25-27 12-4 9 2 18-3 8-10 9-15 19-33-4 5-8 12-13 17-4-1 3-20-2-19-7 6-14 3-19 17-5-1-1-2-3-4-13 10-26 7-27 10 0-3-25 4-34-1-1-2 1-5 3-8-2 3-3 5-5 8-4-5-17-10-14-19 0-3-2 1-6-1 3-5 1-9-1-13"/><path fill="#5F5352" d="M326 243c-18 20-17 10-33 25-8 3 1-5 2-6-5 2-14 14-18 9-15 15-29 29-37 46-5 17 9 22 10 35 10 12 18 14 30 19 13 5 27 8 38 3 1-1 0-2 1-5-3 5-7 1-11 4-11 2-20 0-27-4-8-7-17-12-15-22 6-13 2-18 11-25 7-4 16-1 22-2 3 4 6 6 8 8-2-7-5-12-10-17 4-9 5-14 8-18-1-3-7-4-4-13 1-10 28-27 22-34"/><path fill="#F6F2DD" d="M451 117c-5 1-10 2-14 6 11 3 23 6 34 12 9 9 19 14 26 20-4 21-5 43-6 64 2-8 1-18 3-26 8 9 9 25 12 38-4 7-6 13-8 19 2-6 4-13 9-18 3-3 5-3 5-5 6-2 10 1 14 3-5-24-5-50-12-73-6-14-16-26-28-34-10-7-22-7-34-6"/><path fill="#B89369" d="M381 177c-19 4-14 12-45 22 9-5 7 0 11 2-9 6-17 13-27 18l-1 2 2-2c3 0 11-8 11-3-12 13-28 19-39 34-2-4 4-8 7-12-4 4-9 8-10 11l2 3-1 1h-2l-2-3c-12 18-33 17-45 23-11 10-18 17-24 26-10 10-1 13-10 23 27-34 52-36 80-70l1 1v2c-2 1 0 2-4 7 20-15 41-26 59-40 14-15 38-33 42-46"/><path fill="#E8E0C4" d="M468 187c-1 3-5 6-8 3 4 23 7 36 8 55 6 0 15 24 25 20 5-16 2-17 12-33-3-14-4-29-10-39-2 9-1 19-5 26-6-6-2-15-2-22-10-4-8-9-19-8"/><path fill="#716B63" d="M278 321c-6 10-13 16-11 36 8 8 14 14 23 14 13 4 20 1 26-1 2-9 0-18-3-25-2-10-7-17-12-24-8 2-15-3-21 2"/><path fill="#DCC494" d="M295 199c-21 5-50 16-73 22 5 0 11-1 12 3-19 7-37 17-52 29-8 8-19 15-23 28 5-4 8-9 12-14 3 4 1 4 2 7-3 4-5 8-5 11 1-3 1-7 3-10 12-9 23-23 35-28-4 4 9-2 5 6 41-21 21-14 39-26 9-1 3 4 12-1 14-5 27-12 40-18 6-4 5-14-10-8"/><path fill="#E6DCBD" d="M333 268c-16 6-8 14-10 24 5 4 12 19 22 21 9 3 25-1 29 0 1 0 2-1 4-2 2 1-1 2-1 4 5-5 15-3 28-12 1 2 2 4 1 5 7-15 17-12 22-18 0-8 0-16-1-18 0 4-4 1-6 9-6 2-15 3-18 2-7 15-6-3-13 15-5 1-8-2-13 1-7-4-23 2-20-8-3 3-1 4-5 5-6-6-17-12-19-15 3-5-5-11-1-14"/><path fill="#7C5C4D" d="M245 385c-13 6-26 11-35 21-7 4-12 6-18 17 8-4 21 1 30 3 6-1 10-4 15-6-1 3-4 5-7 6 6 3 12 7 20 4 1 3-12 4-3 3 6 1 9 0 13-1 5-17-9-32-14-45"/><path fill="#CBAD7D" d="M343 196c-5 4-16 7-27 11-15 11-50 22-72 38 10-7 31-14 39-12-25 20-19 19-56 52 22-26 49-14 67-43 14-4-13 9 10-9-9 3-14 8-21 7 21-9 28-17 43-21-8 1 20-13 19-23"/><path fill="#F1EED8" d="M437 139c-8 0-16 4-18 12 5-2 9-3 15-2 5 2 9 6 10 9 14 24 18 50 23 74-3-13-5-27-8-41 4 0 7 0 8-5 14 2 8 7 21 8 1 8 0 15-1 21 2-10 4-22 1-33-4-2-10-4-11-8-5-10-1-23-12-26-9-7-17-10-26-10"/><path fill="#876451" d="M321 351h-1c3 7 3 15 6 28-25 63 20 26 40 15 12-9 14-10 22-20 5-4 8-8 11-13-3 4-5 8-10 11-3-1-9 3-15 0-5 6-11 8-18 10 2-8-8-1-11-3-1-4 2-5 2-7-2 2-5 3-3 4-6 7-10 11-14 16 2-6 7-10 9-14-5-2-5-3-10-3-5-9-5-17-8-23"/><path fill="#CBB184" d="M306 318c6 12 22 27 23 36 9 4 13 8 26 12 5 0 8-4 12-7 0 2-1 4-3 7 6-1 15-8 18-19 4 5 7 3 9 5 5 2 11-2 17-4 8-7 14-17 19-26-19 3-34 22-56 26-11 0-15-3-25-5-3-1-4 0-7 1-5-2-2-4-2-6-4 1-8 1-10 3 9-12-5-6-3-13-6 4-11-8-14-10"/><path fill="#2C1D1B" d="M410 355c-10 16-28 30-39 39-5 9 4 13 4 22-2 3 0 8-1 10 2-2 0-5 1-9 8 0 13 2 20 1 9 0 18-6 20-8-1-2 3-6 2-9-11-3-13-12-17-16 1-13 8-21 11-30"/><path fill="#D7BE8E" d="M282 234c-19 0-41 12-51 19-6 5-12 8-17 13-7 9-7 13-13 25 10 6 24-21 30-16 54-38 22-19 49-41"/><path fill="#856352" d="M425 233c7 22 6 49 4 73 12-13 24-36 30-43-4-9-11-14-16-21-3 3-3 5-5 7-1-3 1-5 2-8-4-8-10-5-13-8"/><path fill="#342220" d="M309 439c-10 4-25 8-38 4-3 13-4 9-6 29 12 8 27 3 46 7 3-3 3-11 6-15-3 2-3 6-5 9-8-5-18-12-25-17 3-9 20-8 22-16 5 3 5 3 1-1"/><path fill="#BD9668" d="M67 369c2 5 13 10 17 16-3 1-6-2-11-3 0 2 10 3 6 6-45-7-2 12 18 19l3 3-3-1c-1-1-3-3-5-3 8 2 14-1 19-3-8-3-16-8-23-14 9 3 16 8 23 11 7 1 9-4 13-6-28-15-26-9-57-23"/><path fill="#53362D" d="M496 262c1 8-2 18 0 27 12 12 19 27 27 35-8-21-17-27-21-42 20 23 22 51 37 68 3-11 5-22 4-30-3 2-10-1-14-1-6-25-21-35-33-54"/><path fill="#33221F" d="M413 431c-7 3-23 6-34 3 11 15-3 8 2 25l-2-2c9 8 25 3 36 5 0-20 11-16-6-24 0-4 1-5 4-6"/><path fill="#9C7556" d="M191 300c-5 6-9 12-13 17-8 2-3-7-1-13-5 8-10 15-14 23-4 11 4-4 5 1-8 15-9 35-10 54 15-25 15-57 35-81"/><path fill="#331D18" d="M495 267c-1 8-2 14 0 21-3 29 3-3 1 28 0-11 10 4 14 8 18 29 13 25 22 40 1 0 4 0 5-2 3-2 6-14 7-33 0 7-1 13-3 19-4 1-6 0-7-2-7-12-11-23-15-35 8 23-8-2 4 23-28-38-13-28-25-42-3-10-4-17-3-23"/><path fill="#5D5150" d="M426 182c-5 4-2 15 1 20 13 11 22 23 34 30 1-10-1-18-3-25-3-2-11-3-16-8-6-6-11-13-14-16"/><path fill="#4B3934" d="M424 199c2 5 1 12 5 15 12 20 27 31 38 52-2-11-1-24-4-34-15-4-25-22-38-31"/><path fill="#805948" d="M516 230c-6 3-11 10-14 16-9 24 5-4-3 21 13 7 20 16 35 32 5-5-7-26-7-33-2 4 0 9 1 14-12-19-12-3-23-36-2 0 0-4 2-1 4 3 5 10 6 9v3l1-3-3-15c7-12 8 4 9-6-1-3-1 0-3-1"/><path fill="#CDAA76" d="M111 347c1 2 3 4 6 6-19-11-40 7 0 19 7 6 9-9 17-4 0-9-14-10-20-20"/><path fill="#6C493C" d="M502 254c-3 4-4 4-5 12 14 18 27 29 31 52 6 6 8-4 12 3 2-8-1-16-3-25-17-4-23-24-38-29 1-5 1-9 2-12"/><path fill="#96735A" d="M408 351c-14 7-23 4-26 7-4 3-7 7-11 11-3-2 2-4 3-7-3 3-6 6-9 10 9-14-12 6-1-9-4 3-15 15-14 6-2 5-7 11-13 15 17-17 19 9 36-14 8 6 12-1 16 2 6-5 9-9 17-18"/><path fill="#86563F" d="M420 411c-14 14-30 6-46 9 9-3 5 12 9 12 8 2 13 0 19 1 7-3 13-3 17-9 3-8-4-5 2-11"/><path fill="#825640" d="M265 424c-4 6 3 15 8 16 12 1 28 4 36-6-3 3-8 3-11 3-2-3 2-5 3-6-12-4-24-4-33-8"/><path fill="#C4AA83" d="M373 170c-2 2-6 0-8 1-7 2 8 0 6 4-10 2-17 3-23 5 9 2-12 4-12 9-18 2-34 2-47 7 16 0 32-3 46-5 4-3 32-9 49-16-1 13-17 25-27 36 19-20 55-51 18-40"/><path fill="#473733" d="M178 432c-17 5-20 6-4 11 14-3 25 3 44 1-7-6-1-9-18-11h-21"/><path fill="#2A1B19" d="M261 434h-1c23 19-10 15-21 13-6-6-4-5-13-6 11-2 20-5 31-6"/><path fill="#CDAD7C" d="M56 357c0 12 14 11 20 17 29 16 18-1 34 11-2-1-3-3-4-4 15 6-11-9 5-4-12-6-20-12-30-19h-2l1 1c3 1 6 4 8 6-5 5-7-3-12-4 6 3-1 9 6 11-10-4-20-5-26-13"/><path fill="#42302B" d="M416 375c-7 1-22 0-13 14 6 4 8 15 16 10 0-5 3-14 0-21v-2l-1 1"/><path fill="#605554" d="M412 159c-3 7-5 15-4 24 0 12 12 19 12 29-2-10 0-19 1-30-7-4-8-13-9-20"/><path fill="#31201E" d="M258 434h1c-6 4-21 1-21 6-4 8 3 6 9 6 18 5 29-1 11-13"/><path fill="#CDAF7F" d="M216 265c-9 6-17 16-26 21 4 0 6-7 9-2 1 8-4 14-5 17 3 0 4 3 15-2 1 1 0 3-1 5 25-31 26-33-9-7 5-12 7-23 14-31"/><path fill="#9C7057" d="M520 230c0 9 4 23 5 34-6-12-7-17-7-30-3-2-4 1-6 1 1 7 2 12 3 17-5-4-4-4-7-9 7 13 10 23 18 37 0-5-1-9-2-13 7-5-3-25-1-35"/><path fill="#CDA77D" d="M422 126c-31 6 12 8 19 7 14 4 22 9 30 16-2-5-6-5-8-9 0-4 4-1 1-5-7-4-7-3-12-5-3-4-12 1-30-4"/><path fill="#42302B" d="M310 440c-2 9-20 7-22 15 9 6 16 13 24 17 1-2 1-6 3-9-5-5-10-9-16-12 3-4 8-6 12-10"/><path fill="#B49067" d="M199 281c-24 19-20 26-33 48 7-17 16-12 25-30 3 1 12-12 6-16"/><path fill="#604D4A" d="M169 297c-9 0-9 18-21 18-4 14-3 25-4 34 2-10 1-22 8-29 1 11 8-6 6 7 8-8 10-23 12-30"/><path fill="#9D785D" d="M308 323c6 12 12 25 16 33 0 16 11 19 17 21 2-3 6-3 2-6-6-3-7-12-17-13-4-4-1-5 0-7-5-12-12-18-16-25"/><path fill="#86624E" d="M426 446c-21 10-6 24 15 19-5-5-10-12-17-17"/><path fill="#946E55" d="M318 466c-2 1-3 7-3 12 10 3 20 3 30 4-8-7-17-12-26-16"/><path fill="#9C7355" d="M72 403c7 9 16 11 27 17 5 2 10 3 15 3 8 0 13-1 18-3-5 2-10 3-15 3 0-7 1-6 6-8-19-2-13 2-53-12"/><path fill="#352421" d="M189 442c-5 5 4 11 3 16 4 3 11 0 11 6 2-9 3-11 6-17-5-6-11 1-19-6"/><path fill="#D5BD91" d="M63 355c-3 1-6 1-6 4-7 0 3 7 5 9-2-3-8-5-8-10 8 7 17 10 25 13-6-5 5-6-5-10 7 0 10 7 13 4-8-6-6-8-16-10-3 0-5-1-6 0"/><path fill="#9E7655" d="m188 315-2 2c-4 11-11 29-11 41 4-9 34-51 9-33 0-2 2-5 3-8"/><path fill="#4D3732" d="M153 320c-7 7-6 20-8 30 0 6-1 9 0 13-3 11 1 22 3 31-2-9-4-19-4-29 4-14 8-25 14-35 2-15-4 2-5-9"/><path fill="#B79166" d="M212 295c-7 13-12 3-15 9-2-2-1-4 0-6-11 16-6 10-13 28 4-10 6 0 9-9 6 0 3 3 2 5v3-3c6-7 11-15 15-23"/><path fill="#2E1E1C" d="M423 183c-3 14-4 31 1 46-3 1-4 1-5 2 1-1 2-1 4 0 4 1 10-1 12 3-5-8-9-19-11-32 0-5-3-12-1-18"/><path fill="#BA9366" d="M112 376c-8 2-7 9 7 12s8-2 16-6c-11-6-12-1-23-6"/><path fill="#6B4E43" d="M197 420c-16 7 1 11 12 11 5 0 8-1 12-3-8-1-15-7-25-5"/><path fill="#9B7356" d="M140 389c-11 1-18 5-25 13 5 2 11 2 16 0 11-3 4-5 10-13"/><path fill="#AA7E57" d="M232 244c-9 2-33 26-32 17-4 4-7 11-11 17-2-3 0-5 1-7-2 3-3 4-4 6-1 4-1 6 0 9 17-16 26-31 47-43"/><path fill="#9A7255" d="M143 400c-15 11-33 2-48 7 5 1 22 6 34 4 17-4-3-1 13-10"/><path fill="#624E4A" d="M304 441c1 29 8-2 28 15 0-10-11-8-19-12"/><path fill="#6C4E43" d="M237 425c-50 8 13 18 11 5-6 3-10 1-17-3"/><path fill="#CB9667" d="M454 130c17 7 5 12 29 29-11-1 2-12 3-10-11-10-21-15-31-19"/><path fill="#D3C098" d="M346 180c-12 1-32 7-46 11 11 0 21-3 34-1 1-7 24-9 12-10"/><path fill="#7F5C4B" d="M449 449c-6 0-5 8-3 11 9 2 16 2 23 3-1-7-7-1-20-14"/><path fill="#AE714C" d="M313 419c-8 6-18 5-27 8 23 0 4 15 28 5-5 0-3-3-1-12"/><path fill="#6A4833" d="M208 453c-8 14 19 9 27 11l-22-11h-3"/><path fill="#94715C" d="M470 263c1 6 2 13 6 17 10 19 3 0 14 13-1-11-14-19-17-29"/><path fill="#372521" d="M245 371c10 32 3 16 23 51 4 0 7 3 10 0 9 2 15 0 22-1-5 2-14 2-20 1-6-7-16-13-21-20-8-11-9-21-14-29"/><path fill="#DBC59A" d="M89 334c5 6 19 22 25 19 1-7-10-15-24-19"/><path fill="#87614B" d="M144 399c-4 4-3 3-9 8 8 5 0 2 9-1 1 3-1 4-2 6-5 0-11 4-23 2 2 1 4 0 6 1-5 3-7 1-8 6 11 0 19-2 22-6 10-3 7-11 6-15"/><path fill="#C2A682" d="M469 254c2-1 13 26 24 24-2 0 0-2-1-5-10-5-13-17-22-20"/><path fill="#473430" d="M314 450c8 2 20 10 33 25 0-4 1-9 3-12-11-3-23-11-35-13"/><path fill="#8F6953" d="m323 472 1 1c2 4 10 1 15 6-6 4-34 0-19-7"/><path fill="#815A4D" d="M414 352c-2 6-5 11-7 17 4 1 9 2 12 2-2-10-2-11-4-17"/><path fill="#AA7848" d="M175 444c2 5 5 16 12 15 2-2 2-7 1-9-8-2-3-6-11-6"/><path fill="#946E54" d="M352 466c1 2-2 6-2 8 8 4 16 2 22 3-9-4-8-6-19-11"/><path fill="#E9E2C7" d="M501 152c5 12 7 28 8 41-4-12-6-25-8-38"/><path fill="#90856B" d="M300 344c4 1 10 9 7 15-5 0-8-4-9-6 0-4-1-6 0-7"/><path fill="#BE9769" d="M130 361c3 1 6 3 4 6-6-3-9 7-13 7 4 2 8 4 12 4 3-3 0-7 2-9 4-5 0-6-3-7"/><path fill="#EAE5CC" d="M478 180c3-1 6 3 8 1 2 5 3 10 3 12-6 1-10-7-6-9-1-1-4 0-5 3l-2-3v-1h2"/><path fill="#74564A" d="M248 394c3 1 5 9 7 12-3 4-6 6-8 9 11-14-1-9-1-18"/><path fill="#A37A56" d="M212 309c-8 9-11 9-14 25 6-9 16-17 13-23"/><path fill="#6E4B36" d="M169 452c0 1-3 6 2 7 3 5 6 4 12 7-3-7-8-13-12-13"/><path fill="#B39475" d="M470 256c2 12 18 23 22 37 0-5 0-10-2-14-9 0-14-14-18-22"/><path fill="#FAF4D7" d="M88 332c20 2 31 26 51 30-17-8-30-28-49-30"/><path fill="#725548" d="M246 387c-4 5 0 3-10 3 11 1 12 15 14 11 1 5-1 9-7 15 5-2 8-9 13-8-2-1-2-3-3-5-3-4-10-14-6-14"/><path fill="#B3906C" d="M344 363c-14 5 5 9 10 7 0-6-5-4-7-8"/><path fill="#B99065" d="M187 266c-7 6-10 7-15 15-7 6 4 3-1 9 7-10 11-17 15-24"/><path fill="#865D3E" d="M211 447c-5 8 23 13 26 14-2-5-12-2-24-14"/><path fill="#46322D" d="M432 436c-5 7 0 0 7 12 6-4 7-1 13-6-9 5-9-4-20-6"/><path fill="#845B3E" d="M174 446c-13 9 8 5 9 19 7-7 7 2 6-10 1 3 0 4-1 6-8-1-11-9-13-13"/><path fill="#CDAD7E" d="M200 250c-10 12-16 12-25 24-7 1 1-8-5-5-6 12-15 9-14 18 11-20 17-11 17-8 12-11 14-11 26-28"/><path fill="#8C6751" d="M324 473c-25 5 12 9 13 7-3-5-11-2-14-6"/><path fill="#EEDFB0" d="M330 181c-16 3-32 7-48 13 18-3 36-9 51-13"/><path fill="#A07147" d="M213 447c7 2 19 15 21 9-4-4-11-12-19-9"/><path fill="#D9BF94" d="M74 349c3 3 11 3 16 9 4-2-2-7 5-5-9-3-8-4-19-3"/><path fill="#7C574C" d="M417 434c-2 7 8 12 13 9-3-3-5-9-11-7"/><path fill="#2B1E1A" d="M482 157c2 7-1 11 5 16 4-1 5-5 6-7-4-4-7 4-9-6 4-3 5 0 7 1l2 2-1-3c-3-2-5-2-8-3"/><path fill="#74564A" d="M245 388h1c7 6-5 12-11 4 6-5 6 6 9-3"/><path fill="#E4E0C9" d="M488 127c8 4 11 17 14 25-4-7-9-14-13-21"/><path fill="#D4B481" d="M257 226c-8 3-16 7-22 12 2-6 27-2 21-11"/><path fill="#C9AE81" d="M298 197c3 0 6 0 9 1-14 19 8 3 13-1-6 1-13 1-19 1"/><path fill="#F8F4DE" d="M450 279c-12 26-25 52-43 75 19-22 31-47 42-73"/><path fill="#684C43" d="M406 369c-9 13 13 2 13 6-2-3-8-4-11-5"/><path fill="#7A6156" d="M334 452c0 4 14 8 17 9-2-3-9-9-14-9"/><path fill="#B78C62" d="M241 238c-13 9-34 25-49 42 14-16 39-32 48-40"/><path fill="#B3926C" d="M323 344c6 5 2 8 1 13 14-4 4 11 18 4-10-6-12-5-17-14"/><path fill="#B1926D" d="M410 347c-11 11-28 1-30 11 4 0 22-4 29-8"/><path fill="#9C7456" d="M138 364c-2 4-3 11-3 15 1-1 2-2 5-1 1-6-1-9-1-13"/><path fill="#6B4D46" d="M420 431c-7 3-9 5-1 10-1-2-5-4-3-6 7-2 11 3 15 8-3-6 5-7-10-12l2-1h-1v1"/><path fill="#E9BF8A" d="M517 139c1 5-7 11 0 16 1-1-1-4 1-6 1 8 3 11 2 17 0-5 1-10-1-14 1-6 0-9-1-12"/><path fill="#EAE5CC" d="M479 182c-3 1 6 5 8 12 1-6 0-14-6-12"/><path fill="#86624E" d="M141 382c-4 6 3 8-4 18 9-5 5-12 5-17"/><path fill="#6F4B32" d="M317 436c-5 7 9 8 11 7-2-2-5-5-9-5"/><path fill="#9C8F6E" d="M301 348c-4 1-1 9 5 9 0-3-1-6-2-9"/><path fill="#C59F71" d="M61 387c4-2 9 0 13 1-3 6-8 2-12 2"/><path fill="#412D28" d="M245 372c4 2 5 12 8 17-5-4-6-10-8-15"/><path fill="#F3E5B3" d="M266 205c-12 5-25 7-39 13 15-3 30-9 43-13"/><path fill="#CEAE7B" d="M211 248h-2c-9 8 1 5-3 9 20-13 12-4 2-7"/><path fill="#8F6A51" d="M352 471c4-2 7 3 10 3-3 2-11 4-11-1"/><path fill="#7F5E4A" d="M461 447c8 4 10 16 21 12-9-5-9-7-19-11"/><path fill="#9B7358" d="M142 380c-5 0-7 4-11 6 7 6 9-7 11-4"/><path fill="#967056" d="M447 448c2 2 18 10 24 15-4-3-11-12-21-15"/><path fill="#F2E3B2" d="M312 210c-20 5-38 15-48 21 16-8 31-15 48-21"/><path fill="#B78E64" d="M67 399c2 3 5 5 7 8-5-9 12 3 16 1-6-4-15-5-21-9"/><path fill="#AF855C" d="M282 256c4 0-5 8-7 10-4-4 3-5 4-8"/></svg>