<svg xmlns="http://www.w3.org/2000/svg" width="600" height="600"><path fill="#605955" d="m428 107 1-2c26 2 44 3 63 13 27 14 44 34 48 59-11 22 3 39-11 58-5 6-9 12-15 12-2-6 2-10 3-16-4-10-12-8-17-17-10-2-17 0-23 2-11 4-15 16-18 25 1 8 6 10 7 16 1 7-1 12-3 17-32 44-63 80-97 120-11 8-6 28-15 32-1 6 2 9 4 13-4 3-7-2-8 0 2 10 8 13 10 20 10 3 19-5 27-9 9-2 13 2 16 7 4 8 6 18 3 26-4-7-5-16-11-20-5 5 1 16-6 23-4-1 1-5-3-8-16 3-30-2-45-3-2 6-3 11-5 16-5-4-2-11-5-15-6 11-19-1-27 5-1 4-2 8-3 11-6-2-4-8-6-11-13-4-27-1-37-1-5 0-6-5-4-7 5-7 11-9 16-6 6-7 3-13 2-18-5 2-11-10-20-8-5 1-1 9-5 13-4 3-8 2-11 3-10-7-12-19-13-29-2 9-4 19-8 29-4 5-9 9-14 10-6-5-4-11-5-16-2 2-4 6-8 9-4 1-7 4-10 2-2-15 2-26 4-37-11 18-17 41-32 57-7 0-6-7-7-10 3-15 8-26 11-38-8 12-17 24-26 32-6 5-11 8-16 9-2-22 9-39 12-57-10 9-20 18-33 24-6 4-13 7-18 7 5-14-6-12 3-25-3-1-11 7-13-2 30-21 30-40 47-59-7 6-16 12-27 16-8 2-16 9-22 6 11-8 20-15 28-21 17-19 32-35 46-54-2-7 1-21 7-27 18-27 27-57 53-82 17-24 37-43 61-58 15-9 28-17 43-23 10-4 19-9 29-7 6 3 10 5 12 10 2 18-2 33-1 50 3 6 7 12 14 10-4-7-11-12-14-15 10-4 24 10 35 0 7-7 14-9 21-13-2 1-6-1-7-3 10-6 18-9 26-12-1-3-10-3-7-9 8-3 15-3 22-4-2-3-5-5-7-7 8-4 16-2 22-3-3-4-8-5-13-8"/><path fill="#363D47" d="M331 187c-1 9-8 16-11 24 9 12 11 13 17 24-4 15-16 19-22 30 4-1 9-3 10-7 1 4-1 8-1 12 6 0 11-1 16-3 4 4 5 8 7 12 6-5 10-7 15-7-1 4-7 8-9 13 2 1 5 2 7 0-7 7-16 9-25 10-9 0-13-7-17-11-2 3-2 6 2 6-7 3-11-1-15 1-19 26-27 18-41 41-5 8-7 16-9 25-5-11-22-8-30-15-13 8-13 14-18 26-7 2-12 3-18 4 11 0 8 5 19 5-1 14-6 18-5 35 4-11 12-12 17-22-1 0-4 1-6 0 13-3 23-4 33-6 5-6 5-11 4-18 5 0 3 5 4 9 8-5 16-14 21-20 12 4 24 4 34 7-1 10-8 14-3 21-5 5-6 10-10 10 2 4 4 7 2 10-3 5-5 8-8 9 1 3 4 4 7 6 3-22 22-38 26-60 3 7 8-5 9-2-3 7-8 10-10 14 19-2 34-16 50-21 25-22 23-21 50-49 7-24 26-37 37-82 10-3 16-5 23-7 55 12-17-16-31-6 2 0 8-2 6 3-13 13-17 29-23 43-3 5-6-1-6-3-3 14-16 15-20 30-9 0 4-15-5-11-11 3-15 10-25 10-2-16-3-37-9-40-1 0-4 2-7 3-2-3-10-5-4-10-6-2-12-1-15-7 3-3-3-6-1-8 2 2 3 4 4 6 2-1 2-12 7-10-1-2-2-3-5-2 3-2 5-2 6-3-7 1-1-7-1-10-1 6-6 13-10 6-6-3-15-3-13-13"/><path fill="#130F14" d="M170 367c-6 10-13 21-20 29-12 9-19 9-28 14-7 1-8-4-8-6-11 10-24 21-37 28-2 4-2 7-4 9 5-3 15-6 21-11 0 5-9 10-15 14 17-7 33-19 48-33-6 20-16 42-17 62 24-13 35-36 47-53-3 19-14 38-14 60 22-23 29-52 43-78-1 11-6 24-7 37 1 6 7 6 8 12 5-3 4-9 7-12-2 32 7-2 5 25 5-2 8-4 9-8 7-11 6-23 11-33 4 11 5 24 13 31 6 1 7 0 9-2 3-8 4-14 3-21 4 4 8 10 13 10 8-13-6-8-6-24-5-10-1-20 0-29-9 1-18 1-26 2-9 7-17 16-21 25-2-9-5-16-1-24-6 3-9-5-10-10-6 0-10 3-16 2-1-8-12-3-6-15"/><path fill="#1C1C27" d="M333 160c-4 10-6 22-14 32-7 6-14 10-15 4-4 4-3 7-6 8-6 9-14 12-17 18 6-1 11-11 15-17-1 5-3 12-9 16-3 3-4 7-7 4 5 3 12-5 18-5-6 8-7 6-3 14 5-7 8-13 11-20-2-2-4 2-8 0 8-5 14-11 17-12-8 11-12 32-23 39 9-10 33-43 23-41 5-3 7-5 10-4-32 59-19 48-44 96-13 9-23 14-27 27-9-12-13 9-21 5-4 5-8 11-12 18-10-6-10 5-18 5l-8-8c-13 4-18 12-22 20-5-5-6-8-8-10-3 2-6 4-8 5-9-3-5-10-9-8-6 13-18 26-28 38-8 8-14 15-24 19 11-3 19-9 28-14 0 5-5 9-12 15 6-4 1 5 5 5 13-5 24-5 35-16 7-9 12-18 17-26-1 11 5 7 8 14 6 2 10-1 15-2 3 5 3 12 10 10 6-1 2-8 4-10-31-2 3-14-23-7 10-4 22-6 20-4 8-12 9-19 21-27 9 7 21 3 30 13 0 6-2 11-1 17 2-23 4-26 4-41 4 1 2 5 1 8 14-23 26-22 46-47 5-3 9 1 13-1-4 0 0-4 0-6 5 3 9 10 16 8 10 1 19-1 26-5-2 1-6 1-9 0 4-7 9-10 12-15-6 0-10 6-13 6-6-2-5-7-8-10-6 2-11 3-16 4-2-5 0-9 1-13-3 4-7 7-11 9 5-14 17-18 19-31-5-12-6-16-15-26 2-5 6-8 10-19 1-11 2-21 5-30"/><path fill="#14121B" d="M325 196c-10 1-15 13-26 17 3 2 6-3 8-1-8 15-20 38-32 58-10 2-10-5-9-5-20 20-44 25-58 49-9 4-18 9-24 5-6-7 1-12 2-17-10 2-15 8-43 24 9-12 16-25 24-37-15 15-18 20-25 34 7 3 15-1 21-3-9 10-17 15-27 22-1 4 3 5 5 6-11 3-3 16-15 19 3 0 4-3 6-4-2 5-5 9-9 10-1-3 2-2-2-5-9 7-19 17-29 24 24-17 13 3 24-5 14-15 24-28 32-42 3 2 2 5 7 7 4 0 7-2 10-4 2 2 5 4 5 10 6-8 13-16 24-20 4 3 6 9 13 7 16 0 23-23 39-28 2-1 4 4 5 1 6-15 20-17 29-26 26-52 45-92 37-84"/><path fill="#FAF9F3" d="M341 170c6 11 7 7 15 12 6-2 12-5 19-4 5 0 10-1 12 3-5 19-8 38-12 57 5-2 11-4 13-8 5 0 0 2 0 4 11-1 11 5 20 0 11-8 12-22 22-30-5 3-4-17-11-8-5-6 1-8 2-10-2 0-5 1-8 2 3-7 6-7 4-10-6 0-12 2-19 2-2-2-1-4 0-6-26 0-29 1-56-3"/><path fill="#283243" d="M369 363c-9 7-17 19-29 20-3 15-16 13-18 26-7-4-13 4-16-2 1 4 0 9 2 13 6-5 5 7 8 1 2 13 6 20 7 27 3-2 3-4 4-6 5 3 7 5 10 6 1-6-2-12 0-18 6 2 10 6 14 7-3-6-6-12-5-21 5-19 16-35 23-51"/><path fill="#4C5764" d="M334 177c-2 12-4 8-1 20 7 4 11 5 14 7 4-2 5-5 6-7 1 2 1 5 0 8 8 0 14-2 20-4-22 12-28 20-30 19 17 9 19 21 31 18 4-9-4-14-3-25 5-12 16-20 15-32-7-4-14-2-19 0-8 1-10 6-11 12-1-2-1-4-2-7-6 0-14-2-14 0-2-2-3-4-5-6"/><path fill="#171929" d="M380 347c-37 15-20 17-56 24-2-5 7-9 9-14-2 1-8 8-8 1-2 15-11 32-19 41 1 3-2 7 0 12 0-2-1-4 0-5 2 6 10-2 13 4 11-27 44-32 57-61"/><path fill="#D67B4B" d="M290 133c-5 1-9 3-13 6-2-3-5-2-7 0l-1-3 1-1h2l-1-1c-9 6-19 11-27 18-17 13-36 32-49 46 11-7 10-12 21-19 2 2-6 6-6 10 19-17 16-12 31-22 4 3-1 4 1 7l-2 1 2-1c4-11 11-18 22-26 1 9-19 11-16 26 12-6 22-20 24-30 4 3 1 5 2 8 2 0 4-1 5-3 1 3 2 7 1 10 3 0 5 0 5-2 12-12 4-16 7-25"/><path fill="#D6CEAF" d="M277 357c-4 5-8 9-6 17-4 0-2-4-3-6-5 3-7 8-11 12-1 7-1 12 1 16 5 10 3-13 4-18 5 13 0 18 5 30 2-2 5-6 7-7 6 2 9 7 13 9 3-5 4-9 3-15-3-6-12-7-10-14 5-8 8-14 11-19-4-3-9-3-12-5"/><path fill="#F1EBC8" d="M218 259c-5 6-13 15-20 22-6 14-12 24-16 35 15 4 27-7 37-15 5-8 9-15 13-21-4-2-7 6-12 8s-6-2-7-3c12-23-11 1 7-29"/><path fill="#B95744" d="M434 139c-16 2-32 5-45 13 5 3 9 3 17 2 0 3-4 5-5 7 6 1 11 1 15 3-8 0-12 8-18 12 10 0 20-1 28-2 7-8-13-12 2-23-6 2-7 5-9 8-4 0-9 0-9-5 3-4 6-7 9-9 9 9 15-6 30-4 3 9-8 12-6 21 6-4 21 1 23-8 2-5-9 0-13-2 1-5 9-2 14-5 6 13 14 11 1 0-3-2-5-6 0-6-3-2-7 1-10-1-7 7-13-6-23-1"/><path fill="#5E493D" d="M247 190c-3 1-9 7-12 5 1 4-6 19-15 32 4 5 9 4 14 8 8-2 15-10 24-14 19-25-7-22-3-7 1-7-9-16-4-21-2 2-5 2-2-2"/><path fill="#E4BE44" d="M432 108c8 5 17 12 26 16-3 2-6 2-8 3 4 4 6 9 9 12 11-1 17 2 26 3-3-4-2-5 2-7 8 0 14 2 20 3-8-11-21-11-30-20-16-3-27-11-43-10"/><path fill="#1D2126" d="M338 430c2 22-7 17-1 43 15-3 36 11 48 0-11-18 7-6-3-19 1 4-15 5-21 11-11-10-18-26-20-33"/><path fill="#867C71" d="M195 225c-13 5-10 1-23 16-7 13-21 23-24 37 7-3 12-5 17-9 8 8 12 3 14 5 3-1 6-6 9-8 0-8-3-14-1-22 2-7 4-13 6-18"/><path fill="#ECB058" d="M306 119c-13 4-25 9-36 17 8 7 13-5 23-5-3 9 5 16-6 26 7-2 11-5 16-7 2 4 2 7 3 10 7 2 10-12 14-5 3-6 3-10 5-12-12 0-11-19-18-22"/><path fill="#1C1E20" d="M454 247c-1 8-6 19-8 24-7 11-24 40-37 52 5-5 8 7 13 0 8-10 24-30 33-44 3-8 8-12 7-19 0-6-1-10-6-13"/><path fill="#FAF7E9" d="M250 232c-11 7-27 14-33 29-2 10-9 17-2 27 9 0 12-11 16-12l1 3 1-2c6-15 13-28 17-43"/><path fill="#574239" d="M306 164c-9 3-1 15-11 26-4 1-6 3-8 4 0-4 6-10 5-9-2 4-10 6-6 10-14 7-7-4-16 4 0 10 0 17 6 22 11-8 32-28 41-45-4 3-6 1-5 0-4-3-5-6-5-10"/><path fill="#989183" d="m225 346-1-1c32 8 26 37-7 31-5 3-8-2-8-7 4-9 9-14 13-23"/><path fill="#0D0D14" d="M424 320c1 4-6 5-4 5-4 2-6 0-8-3-13 14-23 22-36 32-2 10-9 24-10 33 27-17 35-57 58-63"/><path fill="#F9F8ED" d="M471 158c-12 8-43 3-42 17 2 4 8 7 4 13 3 0 5 2 8 1 12-5 19-18 27-26 15 5 17 3 4-6"/><path fill="#8D7B69" d="M275 154c-8 3-14 17-21 19 5 1-4 7-4 19 6-2 11-5 17-7 5-4 6-9 8-12 0 4 0 8-1 13 27-1 20-17 2-12 6-6-5-8-1-19"/><path fill="#1E2027" d="M152 305c-6 4-11 6-15 12 1 1 6 5 1 6-5 6-4 9-10 12v1h2l-1 1v-3c3 2 6-1 9-3-8 8-15 15-22 24 5-3 12-10 18-10-10 12-12 19-20 29 15-19 3 12 20-12-3 2-2-14 8-13-3-2-8-2-8-5 11-9 19-15 29-21-7 1-16 4-22 2 2-2 9-3 15-7-2-1 0-4-1-6-3 2-6 4-8 5-1-8 4-6 2-10"/><path fill="#735A49" d="M229 175c-3 2-6 5-9 7-9 17-21 9-29 26-8 6 0 11-2 14 11 1 16-7 27-16 12-9-3-7 4-22 1-5 5-2 3 0 0 4-2 8 0 9 5-4 5-8 8-9-2 1-6 6-8 1 1-6 4-8 4-9"/><path fill="#EFE8CE" d="M469 164c-8 8-16 18-22 25-6 2-10 2-13 0-1-3 0-4-2-7-3-3-3-8-8-6 8 0-5 11-6 14 7-4 8 15 12 12-3 8-9 13-11 20 12-10 23-29 43-35-3-5 5-8-3-9 5-6 7-8 9-12"/><path fill="#6B656A" d="M401 268c9 4-4 15 3 17-8 10-16 14-25 17-1-6-3-11-2-17 7-6 16-8 22-15"/><path fill="#0E0F19" d="M324 365c-12 24-27 47-31 75 2 7 8 15 16 21 3 0 4-3 6-2-9-12-9-24-15-34-1-21 17-41 23-58"/><path fill="#D66E4E" d="M442 143c-6 1-10 3-14 7 1-8-15-3-16 2-2 7 4 6 6 7 2-4 4-7 8-9 0 4-3 7-3 12 3 2 6 3 5 5 4-2 11-2 14-7 0-7 15-17 2-18"/><path fill="#2F3338" d="M126 389c-11 6-24 13-35 16-10 10-16 19-20 28 21-10 38-27 54-42"/><path fill="#FAF9F0" d="M490 137c-6 1-3 6 0 8-40-11-4 9 7 19 1 0 2-11 11-7-4-10-9-14-14-19"/><path fill="#373233" d="M328 132c2 14-14 43-14 44-1 8-5 15-12 20 5 3 7 3 16-4 6-9 10-17 11-27-1-10 0-21-1-31"/><path fill="#683D34" d="M426 120c-8 1 5 4 4 8-11 1-36 4-13 12 10-2 21-4 28-3-3-2-9 2-10-3 15-7 11-3 17-11-5-5-15-3-25-4"/><path fill="#F3EBC4" d="M196 257c1 0-4 9-7 5 0 11-25 27-22 38 14 1 15-19 35-29-4-3-5-10-4-13"/><path fill="#4C4841" d="M523 197c-5 12-7 12-12 14 2 8 8 17 10 20 7-3 8-10 10-15 0-8-1-13-6-16"/><path fill="#4B3D37" d="M278 226c-6 5-4 15-4 22-2 9-1 10 5 10 4-7 11-14 11-23-2-10-10-2-11-6"/><path fill="#7B6F73" d="M440 214c-4 5-6 11-11 17 5-5 0 6 1 8-6 3-7 7-9 11-3-3-1-3-2-6-3 1-8 3-12 5-5 4-4 9-3 12 5-4 7-8 10-12 3 0 0 6 5 3 3-5 5-2 7-3 1-3 3-5 4-7v-2h1c1 3 0 8 3 10 2-8 5-14 8-19-7-4 1-16-3-15"/><path fill="#A29182" d="M302 152c0 4-21 3-24 19 8 1 11 2 17 6 5-7 8-15 8-23"/><path fill="#C4BAA0" d="M274 400c0 2-5 9-6 10 3 10 9 14 19 28 0-9 1-15 0-23-8-5-6-11-12-13"/><path fill="#FBF8EC" d="M260 225c-8 11-8 25-10 38 6-1 12-5 14-10 1-11-1-18-3-25M194 231c-1 4-5 7-5 11-1 9 0 14 2 19 6-7 12-13 17-21-5-2-11-5-12-10"/><path d="M304 423c0 9 9 21 12 30 7-2 14 2 17 6 1-5-1-9-3-14-3 3-2 10-7 7-4-9-6-17-8-25-4 0-4-6-9-1"/><path fill="#DF814D" d="M319 116c-21 1-2 8-5 18 5 7 5 8 11 6 1-7 5-15-1-21-1-4-4-1-5-4"/><path fill="#D6CDB7" d="M464 172c-6 6 2 7-1 15-7 3-13 5-19 10-10 16-21 14-26 29 9-15 0 12 16-10 7-5 3-11 12-16 7-7 18-5 21-9 1-5-5-11-5-16"/><path fill="#8F4E43" d="M399 155c-6 4-17 6-23 12 19-5-1 9 17 5 10-2 36-12 8-8 1-5 1-8 4-9-1 1-4 3-6 1"/><path fill="#D7CDB1" d="M397 237c-5 7-7 1-14 3 7 0 7 7 8 6v3l-2 2c-3 2-7 7-12 6 2 1 1 4 2 5 14-12-1 15 12 0 5-5 8-10 14-14-4 2-9 1-13 3 7-6 25-9 5-13"/><path fill="#D0C8AA" d="M227 358c-3 1-6 0-8 2 2-2 2 5 4 5-11 3-2 9-5 11 16-5 29-3 20-18-4-1-7-1-9 0"/><path fill="#07060D" d="M399 346c-6 11-14 22-26 32 0-11 7-19 12-27 4-5 6 1 9-2"/><path fill="#D5CDAF" d="M253 393c-2 7-5 17 0 25 0-2 2-2 2-3 2 3 0 9 5 9 2-2 3-3 3-5 4 1 2 4 3 6 4-1 5-3 4-7-3-6-6-10-8-14-7 6-5-10-7 4-2-7-2-11-2-15"/><path fill="#C0B3A2" d="M467 172c-3 1-7 5-2 6 1 7 5 9 4 13-6 5-20 3-26 13 6-1 4-4 7-6 12-1 21 2 29 0 0-4-9-1-7-6 15 4 6-19-5-11-5-4-3-7-1-7"/><path fill="#1F2430" d="M404 297c5 0-1 7 0 9 3-1 6-3 9-5 1 2-2 5-1 6-6 7-9 13-14 17-4-7 1-18 5-24"/><path fill="#F1EBCD" d="M139 307c-14 18-33 36-42 49-5 3 1 2 2 6-6-4 32-38 42-54"/><path fill="#040305" d="M525 159c-1 2-3 4-2 7-4 0-4-2-6-3 2 6 4 11 3 18 3-2 9 1 10-2 2-12 2-21-4-19"/><path fill="#07060D" d="M389 348c-3 0 0 2-3 2-5 8-11 16-14 24 12-7 36-35 14-22"/><path fill="#585D66" d="M450 204c-2 2-5-1-7 1-9 10 5 22-3 32 0-14 28-35 8-33"/><path fill="#F6ECC0" d="M202 220c-2 3-7 4-8 9 5 3 7 9 16 6 3-2 5-6 6-11-4 2-6 3-9 1-4-1 0-2-2-3"/><path fill="#FAF8EB" d="M215 249c-4 1-10-1-12 4-6 4-4 9-3 14 7-2 16-11 14-17"/><path fill="#383633" d="M276 425c1 4 1 10-1 13-3 2-5-4-6-3 0 6 3 8 2 13 2 4 5-3 7-1 14 0 9 16 13 12-6-6-2-17-8-24-4 0-2 2-6 7-2-7 6-11-1-14"/><path fill="#BFAC99" d="M289 372c-3 4-4 10-8 13 7 4 6 6 13 7 8-7-1-14-4-18"/><path fill="#2A1712" d="M170 387c5-2 7 4 3 6 7-12 1 19-4 19-6-9 0-13 1-23"/><path fill="#F9F8F0" d="M182 219c-10 5-19 23-25 37 15-15 3-11 26-28-6-2-3-5-2-9"/><path fill="#947263" d="M498 123c-20 1 6 4 9 13 5 8-7 0-10 2 2 3 7 6 8 10 5-4 9 0 5-8 7-3 10 5 15 6-8-8-20-18-27-21"/><path fill="#9C8C7E" d="M254 174c-6 3-11 7-17 8-3 5-8 8-9 12 10-3 21-8 25-19"/><path fill="#1C1B22" d="M321 198c-5 12-16 32-27 44 7-13 15-28 23-42"/><path fill="#EDB461" d="M230 197c-5 4-11 8-17 13 1 6 8 6 7 11 2-6 16-22 9-21"/><path fill="#6A5143" d="M270 187c-7 4-17 7-20 7 0 3 3 6 3 10v4l2 1-1 2c-5 3-10 6-14 9 5-2 10-9 16-9 0-2-2-3-1-5 6-1 9-8 15-19"/><path fill="#545862" d="M402 270c-4 1-2 14-10 20-5 11-13-1-14 11 10-3 18-7 25-13-8-5 3-11-1-17"/><path fill="#1B1F2C" d="M406 297c-6 7-11 19-10 26 6-4 12-11 18-17-1-6-2-3-10 2-1-4 0-7 2-9"/><path fill="#16151A" d="M135 319c-6 8-18 20-20 25 8-7 23-15 23-25"/><path fill="#52585F" d="M250 247c-5 8-7 19-5 29-5 3-8 7-11 10 6-3 12-6 17-10-6-9-1-19-1-27"/><path fill="#654E41" d="M244 203c0 7-17 25-18 24-7-2-2-6 0-10 5 1 7-5 10-9-1 6-4 10-7 13 4-5 8-10 12-16"/><path fill="#FAF8EE" d="M96 359c-9 11-23 14-25 19 8-2 38-12 26-17"/><path fill="#F0EBC3" d="M165 271c-7 3-8 13-5 20 5-4 11-6 13-12 0 1-1 3-4 2-4-3-3-6-4-9"/><path fill="#E3CE94" d="M160 276c-4 3-8 5-12 6-4 7-12 11-12 18 8 0 12-15 19-20 3 3 1 8 3 11l1 2v1c11-9 10-7 0 0-2-7-2-13 0-16"/><path fill="#393E45" d="M248 246c-5 13-12 30-20 44 5-3 9-9 16-13-2-11-1-22 4-29"/><path fill="#504134" d="M321 456c-6 1-15 14-22 12-4-1 2 3 0 7 9-3 21-11 25-21"/><path fill="#523F37" d="M324 115c9 13 4 32 6 48 3-11 4-20 3-34 2-9-7-3-7-15"/><path fill="#784439" d="M450 128c-25 6-4 8 4 14 3-7-2-10-6-12"/><path fill="#151015" d="M483 169c2 2 7 4 9 6-2 2-4 0-6-1 3 2 3 6-1 5 2-5 7 0 8 0l2-2v2c2 2-4 4-2 7 5 4 12-9 16 0-8-17-16-11-23-15"/><path fill="#C4B396" d="M405 244c-1 7-12 21-20 24 0-2-1-5 0-7-2 0-4-1-5 0-2 4-1 8-2 11 4 3 8 0 12-1 2-11 18-24 17-26"/><path fill="#2C1812" d="M172 388c-1 3-2 6-3 10 0 3-6 8-2 14 3-1 5-5 8-6-8-1 9-22-2-16"/><path fill="#8B7166" d="M512 193c-2 4 1 7-1 12-3-8-9-3-13-6l-3-1h-2l3 1v3c-8-2-20-3-31 0 12 4 25 0 31 0 4 6 3 1 10 5 8-1 7-8 5-12"/><path fill="#B78E71" d="M502 190c-7 0-5 3-8 7 6 4 13-1 16 6 1-9 5-1 0-10-1 3-3-2-7-2"/><path fill="#262624" d="M321 461c-4 6-1 11-11 14 18-3 29-2 7-12"/><path fill="#555862" d="M430 239c1 3 0 4-1 5-3 9-18 5-16 17 2 1 4-1 6-1 5-5 9-8 10-13 1 2 2 4 4 6 4-10 6-15 1-1-4-4-4-7-3-11"/><path fill="#F3DC97" d="M211 213c-2 2-6 4-8 6-1 13 15 0 14 7 0-2 2-3 1-6s-3-3-6-5"/><path fill="#4F535F" d="M307 363c-1 4-5 7-8 11-5 1-7-1-8-3 1 3 3 6 6 8 8-1 12-9 12-17"/><path fill="#675043" d="M243 200c-6 15-19 15-20 28 7-4 21-21 21-26"/><path fill="#1F1D23" d="M270 221c0 15 5 33-4 46 1 1 4 3 6 1 3-1 5-3 7-4-2 2-4 2-5 2-8-15 5-37-3-44"/><path d="M291 446c-3 9 6 16 12 20 4-6-8-12-10-18"/><path fill="#9F8785" d="M392 279c-5 1-9 3-13 5 1 3-1 6 0 8 5-2 12-6 14-11"/><path fill="#B25D3F" d="M322 156c-6-2-10 9-13 7-2 3 0 8 1 12 5-6 10-11 10-19"/><path fill="#121419" d="M383 453c-2 2 3 4 3 6v2l-1 1h-1l-2-2c2-1-2-2-2-3 3 2-18 12 3 12-3 0-4-3-5-3 0-4-1-6 4-5 3 4 3 13 4 18 3-5 0-12-2-16 3-3 6-4 9-2 5 5 7 10 9 15 0-5-1-9-2-14-6-4-12 0-16-7"/><path fill="#535460" d="M283 408c1 3 5 4 6 6 0 9 2 17-1 23 6-4 7-11 8-18-7-5-5-7-11-8"/><path fill="#E8D7A4" d="M168 291c-3 6-10 12-9 19 7-1 11-5 15-10-5 4-3-3-6 2 1-5-4-6-1-8"/><path fill="#C0B3A6" d="M516 164c-4 4-14 2-15 8 6 8 10-3 15 0 2-4 0-4 1-7"/><path fill="#545960" d="M265 211c0 4-2 7-3 10 4 5 1 9 7 16 1-9 0-17-3-24"/><path fill="#827376" d="M399 273c-13 3-1 15-23 23 8-5 10 3 14-4 5-6 7-12 9-17"/><path fill="#18181F" d="M253 302c-2 6-20 8-29 9 11-6 17-6 25-8"/><path fill="#595F5F" d="M132 347c-5 2-9 4-13 7-7 9-9 18-15 26 9-10 14-21 27-31"/><path fill="#1E212B" d="M412 253c-2 7-9 11-14 16 3-4 8-7 8-3 2 3 1 7-1 10 8-1 6-14 16-14-3 0-6 1-8 2-2-4-2-6-1-9"/><path fill="#F4F6F4" d="M105 391c-15 9-28 19-42 30 14-10 30-17 42-31"/><path fill="#DEDACF" d="M409 206c4 6-13 11-18 8-3-3-1-4-1-5 3 6 11-1 15 0"/><path fill="#DAA964" d="M156 284c-4 9-17 16-11 21 0 2 10-17 13-7-1-5-1-8-2-11"/><path fill="#F0E8CF" d="M387 242c6 6-8 7-10 3 2 3-1 8 1 11 6-2 16-7 10-13"/><path fill="#4F5762" d="M532 163c4 6-1 22-4 21 2 3 0 8 3 7 0-8 13-18 1-27"/><path fill="#EFE9CF" d="M511 156c-11-1-11 6-13 11 4-5 9-3 13-3-3-5 4-5-1-7"/><path fill="#7E7479" d="M382 198c-4 4-8 8-8 14-2 7-2 12 2 15 3-10-1-20 5-27"/><path fill="#A7958C" d="M472 170c-4 1-6 3-8 6 9 10 5-7 12 5 0-3-2-5 1-7-3 0-4-3-5-4"/><path fill="#7F7375" d="M519 173c-6-1-7 4-13 5 2 5 8 3 11 4 2-3 2-5 1-8"/><path fill="#DCE0E2" d="M416 310c-6 7-20 23-33 34 16-11 24-21 35-35"/><path fill="#A8948F" d="M417 234c-3 4-1 9-12 11 3 7 8-3 16-2 2-5 7-11-3-4-2-2-2-3-2-4"/><path fill="#8E7265" d="M523 182c4 0 2 5 3 6-4-8-8 6-12 0 0 3 4 4 4 7 3 0 7-2 10-4-1-3-1-6-3-8"/><path fill="#383637" d="M517 151c-1 3-1 6-5 4 2 4 3 3 7 6 5-5 12-11-1-9"/><path fill="#E79A53" d="M242 168c-5 4-14 5-14 14 7-3 12-7 14-12"/><path fill="#8AA3A0" d="M105 369c-3 4-7 7-10 10 1 1 2 4 4 4 3-3 8-7 6-12"/><path fill="#854F44" d="M464 112c12 0 18 13 31 10-13-8-18-8-28-10"/><path fill="#393332" d="M296 220c-4 5-18 7-16 10 2-4 8-3 9 1 2 3 1 5 2 9 8-11-6-10 10-20"/><path fill="#D9DDDF" d="m359 387-6 15c4 4-4 14 0 18-1-15 14-33 6-30"/><path fill="#16171B" d="M375 460c2-1 5 0 6-1-4 2-3 8 2 10-5-1-7-1-11 0-1-7 8-5 2-6"/><path fill="#A79288" d="M404 249c-4 7-8 13-12 19 12-3 10-9 12-18"/><path fill="#524644" d="M513 144c3 3 2 6 2 9-9 5 6-5 12-1-1-3-5-4-7-8-2 3-3 0-4 0"/><path fill="#A97E56" d="M280 461c-7 3-8 9-13 11 4 2 10-10 12-1 5-6 3-7 3-11"/><path fill="#171B22" d="M387 451c-7 6 8 8 11 9-2-4-5-7-9-8"/><path fill="#35332E" d="M274 471c-3 4-9 1-13 3 4 2 5 5 9 5 4-1 6-4 5-6"/><path fill="#C8BBA1" d="M270 423c-1 2-2 3-3 5 1 3 4 5 6 8 2-4 2-7 0-11"/><path fill="#291612" d="M169 387c3 3-6 14-11 16-2-4 8-6 9-15"/><path fill="#B56742" d="M244 157c6 8-4 8-11 13-1-5 7-6 9-11"/><path fill="#C3B4A5" d="M436 216c-4 7-14 8-15 16 8-2 11-8 14-14"/><path fill="#745C51" d="m525 197-1-1c-15 18-7 1-17 14 7-3 11-1 15-12 5 2 6 4 9 6-1-2-1-5-3-7"/><path fill="#3C342B" d="M289 464c-6 1 3 11-6 11 1 4 6 2 10 3-2-6-5-9-4-14"/><path fill="#241615" d="M197 421c6-3 6 7 3 10-3-1-6-5-4-8"/><path fill="#222324" d="M176 444c7 4 8 10 5 14 4-3 8-2 8-6-4-3-4-5-8-9"/><path fill="#50403A" d="M481 160c1 10 10 3 14 8-3-7-6-6-12-8"/><path fill="#3A332C" d="M320 460c-4 11-16 13-20 18 4 1 6-4 9-1 6-5 9-10 9-14"/><path fill="#EDE6CD" d="M265 242c4 13-8 20-15 25 5-2 8-2 12-4 4-7 4-13 3-19"/><path fill="#221D1F" d="M185 287c-13 10 14-6-8 14 9 0 21-18 8-11"/><path fill="#725952" d="M514 137c-7 21-5 8 9 7-3 2-4-3-8-3"/><path fill="#F9F4E4" d="M381 239c-10 3 0 10 6 7 0-4-3-3-4-4"/><path fill="#775B50" d="M473 150c3 2 5 6 5 10 5-2 8 1 10 0-1-7-11-3-14-9"/><path fill="#998F83" d="M175 251c2 3 3 13 2 18-2-5-2-10-2-15"/><path fill="#C5BBA1" d="M216 361c-8 8 1 9 7 5-4 0-1-6-6-4"/><path fill="#BE6943" d="M233 164c5 1-9 10-12 12 3-5 6-7 9-11"/><path fill="#C9B89F" d="M305 363c-2 1-10 5-13 7 1 2 2 4 4 2 5-3 7-5 8-8"/><path fill="#3B3B36" d="M518 230c0 3 0 11-4 12 6-4 17-13 5-10"/><path fill="#D3C6A7" d="M305 362c-5 2-14-3-14 6 2 1 12-6 13-4"/><path fill="#EEE9D0" d="M417 227c-3 5-9 10-15 10 1 2 3 4 5 4 5-4 6-9 9-12"/><path fill="#9C7857" d="M279 448c0 7-5-2-3 5-1 7-4 7-7 15 8-5 10-9 13-11-4 2-3-5-5-2-1-6 1-3 2-5"/><path fill="#262321" d="M289 466c2 8 9 13 6 23 3-5 2-10 3-15-2 5-5-6-7-5"/><path fill="#291612" d="M187 389c3-3 3 3 5 3-1 2-2 8-5 6 4-4-2-2 0-8"/><path fill="#232932" d="M416 277c5 3-5 9-9 4 1-4 4-2 6-3"/><path fill="#D8CCB7" d="M426 177c-5 0-7 5-12 7 7 2 10-3 13-8"/><path d="M227 349c-11 3 2 9 5 4-2-2-2-4-4-5"/><path fill="#14141F" d="M308 229c4 1-4 9-4 13-3-4 0-7 2-10"/><path fill="#1B1B22" d="M247 301c-6 8-10 2-23 10 9 0 41-9 19-7"/><path fill="#181416" d="M198 275c-4 6-12 9-13 15 6-1 10-6 12-13"/><path fill="#232A37" d="M382 322c3 1-1 8-2 11 0-4-5-5 0-9"/><path fill="#343A3E" d="M133 345c-2 9-24 23-21 31 9-10 11-20 23-30"/><path fill="#D17749" d="M288 187c-7 1-13 4-17 9 10-6 9 1 19-11"/><path fill="#A19983" d="M165 270c-3-6 4 12 9 7 0-5-5-4-6-8"/></svg>