<svg xmlns="http://www.w3.org/2000/svg" width="600" height="600"><path fill="#5E5D60" d="M460 108h2c13 21 25 48 37 67 4 7 4 2 3-1 6 3 4 14 11 11 4 16 6 31 13 44 3-8 5-17 7-26 9 23 5 58-3 84-2 12-6 22-18 26-2 8 3 15-4 21-1 9 10 9 7 18-8 10-18 15-29 19-20-9-38-18-60-20-16 10-7 32-16 44-4 7-13 15-19 19 0 17 2 29 5 41 5 7 8 12 12 15 6 1 8-3 12-4 6 3 12 2 14 7 6 3 6 8 7 11-4 3-5 5-8 4-16-1-33 3-44-7-13-13-27-25-35-38 6-5 1-7 0-15-2-11-8-11-13-18-1 2-6 0-7 2 2 15-11 25-7 41-5 1-4-4-8-5 0 5 0 12-6 6 5 9 12 9 17 14 11 2 19-4 28 2 4 3 6 6 8 8 0 5-2 8-4 10-15 2-26-1-40 1-17-3-34-17-44-24-10-4-8-10-13-17-4-6-1-10-4-17-9 9-21 1-25 15 4 7 7 13 11 19 10 2 18-6 25 1 6 5 13 13 8 20-15 5-32 8-48 2-18-30-29-41-41-68 2-9 4-22 1-31-17 3-40 3-57 3-19-4-31-14-44-21 0-7 9-1 6-8 16 1 25 10 37 11-10-7-19-11-26-21-17-21-31-39-40-62 2 1 6 2 9 4-7-23-17-45-18-70 9-11 1-32 6-40 8 17 10 26 14 44 2-19 3-41 8-56 3-12 8-21 15-28 3 14 0 13-3 32 7-10 14-31 32-45 12-3 31-24 50-21 8 0-1 2-2 4 21-7 54-9 76-5-11 8-29 16-39 23 19-2 32-6 53-4 17 0 27 3 41 8 7 7 12 6 17 13-14-2-24-1-34-2 9 3 18 11 27 17 6 6 12 14 17 20-11-3-27-9-41-9-21 0-36 1-53 8 10 1 28-7 41 1 0 5-11 6-16 9 8 2 13 10 18 13 8 8 3 17 7 23-14-4-28-12-43-12-8 0-19 0-26 5-2 6-4 5-8 7 0-1 9-1 11-4-8 11-10 25-15 34-4 7-4 14-2 20 2-3 5-8 8-13 4 5 2 11 5 16 9-2 15-2 25-3 0-4-1-4-3-5 14-2 29-2 40-3 15-4 33 19 50 18-8-10-13-21-17-30 0-5-2-8 4-4l1 2-1-3c-2-8-10-18-10-26-2-6-1-8-1-11 4 3 6 7 9 10 0-10-3-21-5-32 6 10 19 24 32 28 1-21 1-37-3-58 10 7 12 21 21 29 5-17 7-39 5-58 13 13 20 23 25 37 1-11 2-20 1-28-2-15-13-25-18-34 18 9 30 22 50 28 11 12 15 18 23 32 2-12-4-21-4-32 5 5 18 24 23 28-1-26-5-40-10-59"/><path fill="#170E13" d="M206 200c2 6-8 5-10 2-4 5-16 11-18 22-10-6 1-10 0-15-3 2-5 3-8 9-3-2-1-3-1-4-2 1-2 4-5 4-7-7-17-5-27-2-5 10-7 22-5 36-6 4-2-17-4-16-1 11 2 23 3 33-7-13-5-33-9-47-3 3-4 8-5 13-10 2-18 12-24 1-3 7-1 10-3 14 4-2 11 41 22 47 0 8-2 11 0 22 9 12 17 13 29 23-4 6-6 0-6 3-10-2-17-7-24-12 2 1 3 2 5 4-4-1-7 8-8 7 6 11 17 17 25 22 17 9 40 22 57 21 2-4-2-5 0-6 1 7-6-1-9 1-9-4-12-2-19-6-1-3 3-1 1-5 2 4-5 1-3 5-10-6-28-13-39-23 11 7 34 10 40 13 1-1 4-5 4-7 17-14 8 8 25-11-3 20 4 15 5 28-1-13-1-21 5-30-4 3-4 7-6 11-3-1-5-6-1-11-4 2-9 7-12 7 2-5 4-9 7-11-6 3-10 6-15 10 1-5 5-9 10-13-9 7-17 15-21 21-1-7 10-20 17-27 0-3-4 10-17 4-5-1-8-2-10-3 3-4 5-5-1-8 6 3 21-2 20 7 4-6 2-6 9-9-5 1-11 1-15-1-3-3-4-3-6-5 20-8 20-14 41-24 3 0 7-1 9-2 5-3 8-4 11-5 1-7 0-6-4-13-2 8-3 10-5 16-4 1-7 4-10 3-8-2-10-8-10-15 2-10 12-4 7-10 4-2 6-1 8 1 7-11 0-27 0-33 6-7 11-9 15-19 11-6 12-5 22-10 4-10-30 0-39 6-1-3 4-6 8-9-3-4 1-3-4-2"/><path fill="#0A0209" d="M319 367c-4 8-3 15 3 19-42-34-41 8-60 45 6 2 8 25 23 33 9 7 17 12 25 16 0-1-3 0-4-3 15 11 3-5 15-1-1-1-3-1-3-3 7-2 1-5 3-8-3-4-8-8-12-13 20-8 18-37 29-45 6 2 8 14 9 3 13 24 8 34 24 52-3-2-8-12 0-8 9 10 19 19 25 30 10 2 24 6 34 2-3-19-23 3-28-16-7-9-6-15-11-22 3-9-5-22-1-30-7 4-19-9-19-3-6-3-8-6-11-10 0 2-1 4 0 6-4-2-11-8-7-2-15-19-28-21-34-42"/><path fill="#E4EEEF" d="M394 137c10 18-4 37 5 46 8 7 8 1 12 0 8 28 24 33 40 61 0-6-2-13 2-15 11 24 17 22 32 57 0-23 5-57-2-112-1-12-13-15-14-32 1 23 4 33 2 61-23-79 10 10-11-47-3 3-7-14-11-13 5 28 5 53 4 86-9-8-16-47-30-70 1 12-9-6-11-13 2 4 4 9 6 14-1 4-6 3-5 10-7-9-16-19-17-30"/><path fill="#33343E" d="M293 308c-14 3-17 7-24 7-2 6 4 4-3 10-8-3-5-6-13-3-8 0-13 4-20 5-11 4-5 15-13 19-8-3 3-8-7-3 3-6 5-8 7-10-6 5-10 11-16 16 0 1 2-1 3-2 5 11 3 25 0 36 3-6 7-6 8-15 4 15 15-1 14 17 5-5 9-10 11-10-1 9 2 16 7 21 6 0 12-3 25-9 1 1 1 2 3 4 2-5 0-12-1-17-3 0-6-2-8-4 1-8 6-7 0-15-4-6-11 1-15 0 4-3-8-7 7-11-13-3-1-7-13-6 18-8 26-7 48-14 8-7-3-9-3-15"/><path fill="#5E4B45" d="M369 316c7 3 12 3 15 5-5 6 4 12 9 12-9 14-23 27-27 43-6 8 6 19-1 28-9-6-15-11-21-25 1 10 3 15 7 19 8 6 20 12 30 17 8-9 8 1 18-9 7-3 7-11 10-16 1 1 1 2 2 4 5-11 2-28 8-37l1-1-1 1c-8 6-16 14-21 27-3-17 1-38 0-45 0-3 2-2 3-3-7-10-12-16-17-13-4-4-8-5-11-7"/><path fill="#170F14" d="M276 336c-2 2-9 1-11 1-6 3 14 14 15 31 0 3 1 5 0 6-3-3-4-4-4-6 1 10 2 21-1 31-10 3-7-2-20 4-1 1-2 3-3 6 2-13-7 4-5-8-2 3-6-1-8-2 4 1-2 5-2 6 1-4-4-7-12-10-8 4-7 4-17 13 1-12-8 11-6-3-6 6-3 9-4 14 6 4 16-7 20-13-3 5 2 13-3 15 6-3 2 4 4 4 8-3 14-9 16-8 0 5 3 10-7 17 11-8 5 4 11-4-1 3 4 4 1 6 11-17 12-1 23-10 11-19 16-34 20-51 33 12 48 17 14-17 4 3 1 2 0 3 3-13-8-3 0-15-2-5-15 4-21-5 4-1 9-2 14-4-4 0-14 4-15 0"/><path fill="#E6EFEF" d="M372 158c0 16-4 25-5 38-5-2-5-4-8-8-3 1 1 5-5 4 1-14 1-11-9-28 4 26 4 38 2 60-5 1-3-4-8-2 5 6 8 3 9 13 0-16 7 11 2-9 12 29-4 9 14 36 1-2 3-5 4-9 3-3 6-1 7 1 2-2-1-5 2-8 3 2 3 6 5 8-3-9 2-35 3-70-4-17-13-14-12-24"/><path fill="#0C040A" d="M221 404c-4 4-7 8-12 12-31 5 19 56 19 65 25 13 33 6 48 8 2-7 0-10-2-14-1-1 3 13-4 12-3-6-12-13-15-18-1 1 6 6 7 10-9 1-14-8-21-3 2-6 3-7 7-9-9-1-6-18-15-24 4-6 8-8 7-11-6-2-2-1-13 4 10-9 7-13 9-19-4 0-9 6-16 10-1-7-6-10 0-22"/><path fill="#2E303C" d="M413 203c2 4 0 5-5 2 9 6 13 17 20 24 9 19 14 37 15 54-9 3-12 8-18 14-3 0-7 1-8-1 5 10-3 7-1 16 12 10 6 13 14 16 13 6 17 2 26 8l3-1-2 1c-6-3-12-5-13-11 4-1-7-11-3-19 0-9 8-14 0-19 9 0 15-5 23 0-2-3-5-3-6-5 4-1 2-11 3-14-14-24-27-46-48-62"/><path fill="#191015" d="M429 238c1 11 0 23 4 37-8-1-14-5-16 0-7-5-7-10-10-15 2 4-3 6-5 5-22-29-7 2-4 12-5 6-4 0-9-1 6 7 5 13 9 20-7 2-15 0-21 4 4 2 8 5 12 7-8 6-7 5-19 6 11 6 23 4 35 12 22 13 68 39 81 46-9-8-20-22-28-32-9-3 1 8-11 4-23-11-30-21-49-22-2-8 4-3 6-4 1-6-2 2-8-2-3-5 6-2-3-8 6-2 10 0 14 1-2-3-4-4-6-6 8 1-3-9 9-3-2-4-6-8-5-12 6 0 9 4 12 6-1-6-6-9-1-13 9 7 2-9 13 5-1-4-3-7-4-10 7 11 9 0 15 3-2-24-9-31-9-38"/><path fill="#464E5A" d="M219 155c-6 3-15 7-21 2-19 9-36 26-49 41-1-2-18 8-24 6 0 2-3 5-3 8 3-9 18 6 20-12 7 1 15 5 12 10 8-9 11-9 18-19 7 2 13 1 19-6s-9 0-12 3c5-9 11-13 17-16 15 1 40-5 53-3 10 2 25 1 23 8 25-18-49-10-49-14 1-2 2-1-2-8"/><path fill="#5F6E7B" d="M204 136c-10 3-41 22-22 6-11 8-16 13-21 19-4 0-9 2-9-2 8-8 15-15 22-21-8 6-15 13-23 20 1-5 7-10 11-14-2 2-5 4-7 7-13 12-28 38-30 41-1 1-3-1-5-2 5 4 0 5 6 4-3 4-6 13-9 22 3-3 5-7 8-12 8-1 22-9 24-8 14-18 27-27 45-42-17 6-31 21-45 36 1-4 4-9 8-13 37-33 50-33 42-39"/><path fill="#E3EDEE" d="M286 274c14 3 27 8 37 18-3 5-8 6-12 9 0-1 4-1 4 2-12 10-10 18-16 30 0 6 12-9 15-1 4 2 0 8-2 12 4-2 9 1 5 5 3-2 5-9 6-9 3 3 1 4 2 7 0-2-1-3 1-3-4 10 6 7 7 6 4-8 10-15 9-23-6-9-15 2-21-3 15-23 0 4 21-18-4-5-7 5-8-3 28-4 2-6 21-9-5-1-11-3-17-4-7 3-17-3-10 4-14-12-27-18-40-20"/><path fill="#251F25" d="M207 349c-6 2-5 8-8 13-7-3 8 45-5 52 4-1 2-5 8-10 1 3 1 5 0 7 5-6 15-12 21-17 8 2 14 4 13 10 2 0 2-2 3-4 9 1 9 5 12 7 1-2 3-4 4-6 14-7 10 3 17-3 5-10 3-2 0-9-10 4-21 7-23 7-8-4-10-13-8-20-4 4-7 5-8 9-5-17-14-1-17-16-2 6-4 11-7 11 1-10 1-22-4-30"/><path fill="#090109" d="M405 207c-7 14-6 34 1 48 3 8 5 13 8 18 8 0 6-3 17 1-4-14-1-25-2-36l2 2-1-3c-5-10-13-22-24-30"/><path fill="#434F5C" d="M240 294c2 2-2 3-3 2-51 11-53 26 2-4-9 8-7 13-5 15-3 6-8 4-11 6 5 3-9 7 1 4-9 8-17 14-24 22 19-14 3-2 36-27 0 6 9-1 8 7-10 1-16 8-22 13 10-3 16-9 30-12 9-2 8 1 12 4 10-6-2-1 2-9 7-3 28-7 36-14 26 7-74-7-53-5"/><path fill="#E4EEEF" d="M230 108c-37 6-48 8-59 3-21 3-28 24-38 22 0 1-2 5-2 8 4-3 9-8 11-10 5 5 11 5 19 11 19-15 71-31 75-33"/><path fill="#D5DFDE" d="M383 116c10 8 15 37 29 52-1-3 4-7 6-5 0-3-3-6-4-9 5 10 13 9 14 14 7 10 17 53 23 55 3-3 1-10 0-18-1 1 1 5-1 8-4-18-5-35-15-47-3-5-6-5-8-4-4-12-19-23-19-28-7-6-13-11-21-17"/><path fill="#251E23" d="M259 184c-10 0-16 2-26 5-5-4-18 1-19-3-6 5-11 7-19 14-4 3-6 5-8 7 3-2 7-1 6-6 7 6 13-2 16-1 3 8-7 11-9 17 4-4 8-7 12-11 11 2 20-6 29-5 1 12-11 10-18 16 13-4 41-12 39-20 3-3-3-2-2-7-4-1-6 0-9 0 2-4 11-2 10-5"/><path fill="#231E25" d="M441 271c4 13-5 4-7 10-4-2-6-4-8-6 2 4 4 7 5 9-12-9-6 1-17-3 0 4 4 8 5 12-5-1-8-5-11-6-2 5 1 8 3 12-12-5-1 4-9 2l6 6c-4 2-8 0-12-1 0 3 7 7-1 7 13 11 33 15 51 31 12 1 1-10 11-5-3-5-3-2-4-5-6 0-14-2-20-4-7-5-7-7-20-17 1-9 8-7 1-18 4 2 8 1 10 2 7-6 8-9 15-12 7 6 7 11 2 17 8-10 6-15 7-18-1 1-4 4-6 3 0-5 2-10-1-13"/><path fill="#32343E" d="M231 297c-17 5-32 18-51 19 30-9-4 13 18-1-7 9-18 12-15 17-9 5-8 10-14 14 4-4 8-7 11-11 2 2-1 4-2 6 2-3 5-5 7-7-3 6-6 10-9 13 8-6 16-11 24-16-1 2-1 5-4 6-5 6-10 8-12 12 3-2 9-5 11-9 3 3-3 5-1 9 11-8 14-20 29-31-7 2 2-4-2-4 3-3 8-3 12-4-1-9-9-3-14-3 4-4 11-4 14-8"/><path fill="#76635B" d="M368 314c-7 0 4 3-4 4 5 4 16 8 17 11-6 8-12 14-15 22-2-2-3-4-2-5v-5l1 3-1 2c-6 12-7 30-4 41-2 3-4 0-4 4-5-12-15-15-16-27 5 15-1 16 4 25-5-8-4 8-11-9 5 15 10 13 16 20 2-3-4 0-5-9 2-4 0-7-1-11 8 12 13 17 21 24 6-8-4-19 0-27 5-17 19-30 25-43-7-10-7-13-23-19"/><path fill="#B1A99D" d="M512 198c-4 35 1 75-12 106-5 1-9-8-11-9 1 10 1 19 5 26 8-4 8-11 9-18 5-20 7-44 8-66 8 10 5 26 6 40 2-6 2-14 3-22 2 10 0 17-1 24 5-10 3-26 8-37 3-2 5 1 6-3 0 20-1 17 4 12-1-3 0-9 1-15-1-5-1-8 0-10-1 2-1 5 0 8-5-2-3-7-4-11-3 0-3 11-7 17-2-14-11-28-15-41"/><path fill="#E6EFF0" d="M503 182c1 22-10 39-13 59 1 18-4 39 4 49 11-33 6 12 13-52-2 1-2-3-3-8-1 2 0 5-3 7 1-19 4-36 2-55"/><path fill="#0A0209" d="M384 319c8 3 16 7 23 13 0 3-4 1-5 0 1 11-8 26-3 45 5-11 11-21 25-26-2 0-5 1-7 0 13 1 15-5 23-1 11 2 20 9 29 12-28-12-52-34-82-43"/><path fill="#94A8AE" d="M255 139c-33-1-35 12-6 18 13 0 27 2 39 6-6-2-12-3-17-4 3-2 6-4 9-5-14-4-29-6-45-6 23-2 42 1 60 8-17-10-1-3-20-19-7 2-14 2-20 2"/><path fill="#2E2021" d="M99 372c-3 1 28 20 42 17 16 1 29 2 40-1-18-10-34-6-58-16-9 0-7 3-19-1"/><path fill="#252026" d="M293 308c-6 5 11 9-1 17-15 6-35 7-44 10 12 3-5 6 10 7-15 8-4 7-7 13 4-1 8-3 12-5 15 11-1 15 6 22 5 2 7-3 4-4 4 1 5 3 6 4 0-4-1-8-2-11-7-12-16-21-14-21 4-7 17 1 26-5-2 5-8 5-13 7 5 0 7 4 15 2-1-3 3-2 3-5-1 3-7 4-10 4 8-2 9-9 13-13-2-3-4 1-7-1l1-1 1-3c4-2 3-4 6-5-5-3-1-9-6-12"/><path fill="#94867C" d="M381 259c4 16-6 3-4 11-15-4-34 0-51-2 3 2 2 6 1 5 9 3 18 13 28 14-1-1-2-2-1-5 16-3 21-2 26-1 3-3 8 0 2-9 9 4 5-4 2-10 3 3-2 6-3 0"/><path fill="#34333C" d="M227 171c-15 5-27-4-35 5-7 3-10 7-13 9 3-1 18-8 16-2-8 8-16 13-21 7-6 10-13 13-17 21-3-3-3-7-9-9-3 0-5-1-6 0-2 5-4 7-6 8 0-1-8 2-12-2-5 5 4 5 3 19 6-4 11-19 15-22 2 5 14-1 11 5l2 2h2c3-3 9-4 9-8 5-1 3 3 3 4 38-20 6-3 64-43"/><path fill="#D3DDDB" d="M373 145c0 4-2 9 1 16 3 12 11 9 10 23 3 21-7 52 3 47 2-13 6-37 5-49 1 3 0-10 5-1l1 2-2-2c-8-15-10-25-21-35"/><path fill="#D3DDDD" d="M339 301c0 5-4 14-18 18 7 7 14 0 21 3 2 11-1 16-5 24 10-3 19-11 23-22 0-6-7-6-13-6 4-2 7-3 10-4-5-3-9-5-13-4 9-4 3-7 1-9"/><path fill="#7E6D65" d="M326 272c10 24 41 16 54 37 3 1 4 0 5-1-7-3-13-8-18-15 7 1 17 5 26 3-3-6-4-11-6-16-11 3-12 0-33 4-1 2 3 3 0 5-11-3-18-13-26-14"/><path fill="#0A0208" d="M457 287c-10 1-5 1-8 7 4-4 8-5 15-2 2 2 5 2 6 5-4 1-3 6-5 8 12-4-2 18 15 11 0 9-1 13-4 17 3 0 3-6 5-9 7 11 20 7 26 17-1-4-3-6-3-10 6-11 5 5 7-20-6 6-8 12-15 15-6-16-18-20-29-37-5-1-6-2-8-3"/><path fill="#E7F1F2" d="M447 296c-2 3-5 6-5 10 1 7 2 12 6 16 5 5 18 4 26 9 2-2 1-4 2-5-2 1-4 2-5 3-4-3-6-5-7-7-2-8-1-15 1-20-5-5-10-6-16-5"/><path fill="#B3ACA1" d="M324 238c-12-2-4 11 8 26-5 0-9-2-11-6 0 4 3 6 4 9 9 0 33 1 41 0-5-6-8-11-11-17-5 6 0 5-11 8-12-9-12-13-21-21"/><path fill="#0B0209" d="M191 348c-20 21-8-6-25 11-4 7-1 11-3 16 8 3 17 6 26 8-1-2-3-8 2-33"/><path fill="#D4DDDC" d="M317 197c0 11 7 25 7 37 7 6 12 10 24 17-6-4-1-7 0-4 3-1-2-8-2-10 1 1 1 5 3 7-5-2-5-6-7-9-2-13 7 7 3-8-10-6-22-16-27-29"/><path fill="#3E3030" d="M73 261c5 20-10-6 5 27 5-3 10 0 13 2-3 3 5 14 9 18-4-7 1-8-5-17 11 1-1 0 7-4 0-3-1-7-2-10-6-2-11-4-20-6-1-3-6-5-6-7"/><path fill="#847269" d="M514 252c-2 17-2 34-7 50-3 7-4 19-10 20 7-9 18-10 26-18-2-2-3 0-4 0 2-7 7-9 9-13-1 1-4 3-6 0 13-52 2-25-8 9-1-17-1-30 0-47"/><path fill="#D7DEDC" d="M461 108c7 26 12 51 26 68-3 49 3 11 1 60 1 5-1 10 1 15 1-18 4-29 3-49 0 12 0 24-2 34 1-20-1-39-4-56-1-11-4-19-5-27 6 3 8 10 12 16-11-20-20-40-31-59"/><path fill="#262128" d="M116 197c-2 7-3 14-5 21-1-4-8 1-11 0 2 12-8 11-10 19 9 6 15 2 25-4 1-19-1-23 0-32"/><path fill="#D1DDDF" d="M142 133c-2 2-7 6-10 9-1-3-2-6 1-8-5 3-9 5-11 8-3 4-5 6-6 8 0-2 5-3 5-5 6 1 6 4 4 8 5-3 8 0 11 0-4 0 1-4 2-6 5 1 5 3 8 0 1 4 0 5-1 6 31-11 0-17-2-18"/><path fill="#C4C8C0" d="M361 319c6 13-23 26-24 31 5-1 9 2 12 4 7-3 10-7 12-15 2 3 1 6-1 8-1-10 24-24 1-26"/><path fill="#11090E" d="M151 336c6 2 4 2 20 6-7 6-9 13-14 16-7-2-11-4-14-6 6-6-7-16 7-15"/><path fill="#766660" d="M70 295c4 8 9 17 14 25 5 3 6-1 8-3 4 1 9 2 10 5 7-10-9-16-11-25-5 1-5-3-7-3 2 8 6 13 10 18-12-8-16-12-21-16"/><path fill="#30272A" d="M73 231c-2 14-5 4 1 29 3 10 10 13 14 15 5-6-10-33-12-42"/><path fill="#CEDBDC" d="M240 110c-17 5-38 10-55 22 11 5 30-6 36-6 4-2 10-7 22-10-16 4 2-4-23 2 9-4 21-7 22-8"/><path fill="#231F26" d="M454 237c-2 3 1 8-1 11-17-20 5 9 8 17 1 7 1 14-2 17 7 4 6 6 12 9 0-1-3-2-2-3 3-2 7-9 9-4-1-5-2-8-2-12l2 2-2-3c-2 0 0 5-3 7-3-14-16-27-19-37"/><path fill="#B2ADA1" d="M487 159c0 45 9 23 6 63 3-11 8-20 8-32-1-12-8-17-12-26"/><path fill="#2A1F20" d="M115 322c1 3-1 4 1 6-4 1-8 3-11-1 3 8-14 10 2 20 2-6 5-7 7-12 6 3 12 7 18 10 5-5 6 4 7-3-7-6-16-11-25-17"/><path fill="#262026" d="M194 191c-8 4-12 4-24 19-4-2 0-5-2-7-3 5-8 9-13 10 0-8-10-2-12-9 2 3-8 6-7 12 2-3 11-1 16-5 4 12 20-1 17 6 8-5 15-10 24-27"/><path fill="#0F070C" d="M203 267c-4 5-5 0-10 11-1 5 1 12 4 12 5 2 14 3 14-3 1-3 2-9 3-9-2 1-2 4-1 7-2 4-5 1-5 0-4-12 2-23-5-15"/><path fill="#0F070D" d="M146 339c-10 1 7 6-2 13 3 2 7 3 10 4 8-1 9-8 14-11-6-4-13-6-20-7"/><path fill="#C4C7C0" d="M313 220c-1 6 0 14 4 19 6-3 5 3 4-4 8 6 13 14 20 20 5 5 7-4 11 2 8-10-4-13-5-23 1 3 2 7 3 11-5-3-5-9-7-15-2 5 2 10 5 16-4 0-5-3-6-6 1 4 4 7 6 10-12-4-19-12-24-16-5-5-8-9-10-12"/><path fill="#B7C7CB" d="M123 143c-22 26-6 11-2 11 3 4 1 8 0 12 2-2 3-6 5-9 3 2 1 3 1 4 3-7 7 5 11 2-1 4-2 6-3 9 5-8 11-15 17-22-2 3-4 4-6 4-2-2-1-3 0-5-1 4-4-2-7-2-4 10-9 4-12 7-2-4-1-6-4-8"/><path fill="#C5C9C3" d="M393 180c1 5-3 20-1 33-6 39-10-1-7 38-1-5-1-7 0-11 3 14 1-10 6 3-1-10 0-19 1-28 3-11 3 4 2 7 0-9 4-16 6-24 1-9-3-13-5-18"/><path fill="#82B4C7" d="M261 281c-43 0-31 8-6 1-12 9-21 5-20 12 9-3 22-1 32-6 6 2 11 2 15 4-4-2-9-2-13-4 4-4 9-2 13-2-7-4-16-4-25-5"/><path fill="#191115" d="M476 273c3 2 1 7 4 12-7-7-11 5-10 7 6 6 11 13 18 20-4-11-3-26-11-38"/><path fill="#998B80" d="M528 241c0 4-3 6-3 10 0 8-2 11-1 17 1-5 3-11 6-12-1 13-1 25-6 35 6-3 7-18 11-28 0-12-3-3-3-26"/><path fill="#3B434E" d="M249 339c-14 10-35 28-34 31-3-9 5-16 12-22 5-8 10-5 14-6"/><path fill="#B3AEA3" d="M412 137c11 9 24 24 31 35 2 2 7 22 7 33 5-19-5-30-6-42-5-3-7-13-12-16-7-6-13 2-18-10"/><path fill="#B1A89C" d="M336 349c0 13 10 19 17 25 0-7 1-14 4-21-6 4-11-1-16-1-3 2-4 0-3-1"/><path fill="#1B1217" d="M238 175c-8 2-16 6-23 10 10 6 57-8 23-11"/><path fill="#2C1F20" d="M103 287c-13 4 0 20 5 30 0-10 6-14 1-21 0-3-3-4-4-6"/><path fill="#76A8C0" d="M478 337c-34 1 11 10 18 16 1-3-1-7 1-9-7-2-12-3-15-8h-3"/><path fill="#474C57" d="M106 188c-6 13-6 2-11 13-2 8-5 15-2 21 3-12 12-18 12-25 4 3 3 10 5 17 2-6 2-11 3-17-3-2-6-2-6-8"/><path fill="#5D6B77" d="M120 164c-2 5-2 10-4 16-3-2-1-8-1-12-1 4-1 8-3 12 0-12-4 12-6-5-3 9-9 16-13 24 6-9 7 0 12-10 4 3 3 6 8 7 9-12 2-15 6-32"/><path fill="#0F060A" d="M337 467c-37 21 4 26 26 19-3-5 1-8-4-10 1 1 1 6-1 8-6-2 0-8-8-10 5 3 2 9-1 12-8-2-14-3-21-3-2-6 4-9 7-14"/><path fill="#D6DDDC" d="M504 209c-8 34 10 16-1 67-7 20 3-27-8 20-3-4-2-7-3-9 2 4 3 9 5 9 5-21 9-6 10-30 1-20 3-41-4-55"/><path fill="#C7C5BB" d="M305 336c-1 6-4 11-5 17 5 4 2 5 8 0 0 6 4 14 7 16 2-7-2-13 1-18-8 1-5-14-12-6 1-4 4-8 1-8"/><path fill="#7B8D97" d="M226 144c-32 9 15 12 17 19 1 0 2-2 3-2 6 0 10-1 13-2-3 1-11-1-10 2-7-10-14-7-23-11-2-3-2-6 1-6"/><path fill="#36343C" d="M106 197c-2 10-10 16-16 33 9 2 6-8 8-13 5 1 11-4 13 1 2-4-6-8-4-24"/><path fill="#C5C6BE" d="M507 182c-6 20 0 37 2 53-1-12 3-32 2-38-2-6-3-10-4-13"/><path fill="#5E4D47" d="M104 315c4 2-2 5 0 6-4 0-7-2-11-3-2 1-3 7-7 3 3 4 3 8 7 9-3-13 33 5 13-14"/><path fill="#86B9CA" d="M263 275c-28 4 29 5 34 12-9-5-20-11-17-13-4 1-9 1-14 1"/><path fill="#5C6A76" d="M217 148c-29 4-15 17 4 5 4 3-1 6 4 7-3 3-6 3-9 5 14-8 19 2 19 0 2-9-11-3-8-12-4 0-5-1-5 1-4 0-7 0-10-1 0-2 1-5 2-5"/><path fill="#D6E0E1" d="M411 183c-5 12-18-6-8 12 4 2 8 6 13 8 5-2-3-11-4-18"/><path fill="#97ABB1" d="m127 159-1 2c-8 8-7 17-5 23 0-11 9-5 6-11 10-5-2 3 6 1l2 1v-2c7-9 7-9 0 0-3-4 2-3 3-10-5-4-12 1-11-3"/><path fill="#271D1F" d="M115 349c15 10 29 20 46 24 1-4-4-5-2-9-14 2-32-10-42-15"/><path fill="#584A46" d="M264 197c1 2 4 3 5 6-4 1-6-1-9 0 0 3-2 3 2 8-14 5 14 5 8 2 6-6-1-9-1-16h-2"/><path fill="#988A7F" d="M360 343c-3 11-7 21-5 33-7-5-6-9-14-8 2 10 12 11 14 21 3-8 1-34 4-42"/><path fill="#170D10" d="M333 473c-15 15 8 7 13 13 5-14 4 6 5-7-5 5-7-12-18-3"/><path fill="#C2C7C1" d="M408 135c12 13 17 26 31 32 7 16 9 29 11 43-2-12-2-25-8-36-5-11-14-20-21-28 0-2 6-4 6-2-15-13-4 10-18-11"/><path fill="#6C96A6" d="M268 286c4 3 10 2 14 5-13-6-21 3-34 2 27 7 53 5 24-9v1h-1v1"/><path fill="#0F070C" d="M150 323c2 1 3 4 6 4-3 2 1 7-5 5 6 3 10 4 14 5-1 1-2 1-3 2 4 1 14 1 3 0 6-1 9-1 10-5-6-4-11-8-24-9"/><path fill="#3F4854" d="M245 342c-6 3-12-2-16 6-9 7-16 14-17 24 10-20 7 4 18-24 7 1 13-6 17-7"/><path fill="#C3C7C1" d="M91 162c0 10 4 5-6 39 9 0 6-14 12-18-3-7-2-15-3-25"/><path fill="#988A7F" d="M512 239c2 16 3 31 1 58 3-6 6-12 8-18v-5l1 3-1 3c-6 4 2-16-1-22 1 7-1 15-3 22-2-17 0-30-4-44"/><path fill="#B2A99D" d="M371 301c-5 2-16 1-21 7 4 0 14 3 10 7 2-3 11-9 13-13"/><path fill="#5A6D7C" d="M468 346c4 4 9 10 14 13 7 1 13 3 18-2-12 1-25-6-29-10"/><path fill="#64717B" d="M264 159c-38 9 8 2 20 8 0 6-7 2-4 8 1-2 6-6 12-5-12-12-21-4-28-10"/><path fill="#181015" d="M482 323c0 3-3 7-3 9 5 1 24 5 35 15-8-12-20-11-30-21"/><path fill="#D5DCDA" d="M319 325c-3 9-8 5-13 6 0 6 3 8-2 12 8-5 4 9 12 5-2 7 1 10 1 14-1-6 1-11 0-16-2 0-5 2-6-2 6-8 2-11 7-16"/><path fill="#3B4551" d="M258 352c19 1-11 10-12 16-1-5 1-10 6-11 2-4 4-1 4-4"/><path fill="#252229" d="M156 238c4 8 0 20-4 21-2-4-4-10-1-13 3-11 3 3 2 5 1-3 2-6 1-10"/><path fill="#788991" d="M280 155c-26 10-5 3 21 8-6-4-11-6-17-8"/><path fill="#97887D" d="M338 356c-7 1 0 20-2 27 3 8 6-1 12 16-9-13-10-33-9-40"/><path fill="#D7DDDA" d="M102 147c-2 2-4 5-6 7 2 13-3 26 1 24 0-9 5-20 6-30"/><path fill="#170D11" d="M320 465c9 9-12 5 4 12-5 0-7-1-10-2 3-1-1 5 4 5-25-10-7 1 5 7-5-2-1-6 0-8 2-4 3-5 5-6-3-2-5-8-6-7"/><path fill="#EAF1F1" d="M248 127c-65 23 9-1 31 4-10-1-23-2-34-1"/><path fill="#B8C8CA" d="M224 119c-6 4-14 5-21 10-3 3-9 5-8 4-7 0-5-3-12 0 2 3-7 4-8 7 15-4 34-8 41-14-3 1-13 9-15 5 9-5 15-8 22-10"/><path fill="#231F24" d="M401 212c-6 8-1 10-7 23 5 4 7 35 10 28-2-13-9-32-3-49"/><path fill="#191012" d="M364 449c16 31 18 15 29 33-5-9-16-22-23-29"/><path fill="#C6C8C1" d="M485 273c7 16-2 11 1 19 7 1 8 13 13 11 3-13 4-12 5-21-2 5-3 11-5 17-6-4-12-12-11-23"/><path fill="#98ACB3" d="M175 140c-6 4-11 9-17 13 10-5 45-19 14-9"/><path fill="#6B90A4" d="M467 343c8 5 16 13 32 11-13-1-23-11-28-11"/><path fill="#E9F1F0" d="M295 134c11 5-9 5 35 17-13-7-23-18-38-17"/><path fill="#4F6C7D" d="M196 307c-12 3-15 2-30 11 10-1 34-6 30-11"/><path fill="#413230" d="M100 323c1 2-1 8-6 8 3 6 4 6 7 9l-2 1h2c-6-6 4-5 4-10-2-6 4-3-4-7"/><path fill="#27232B" d="M201 331c-18 10-9 8-21 21 13-6 17-9 18-19"/><path fill="#B1ABA1" d="M394 210c-2 9-3 19-2 30v2h-2c-1 0-5 4-5 0 5 5 9 13 12 16-2-5-5-10-4-17 3-1 1-4 0-32"/><path fill="#D8DEDA" d="M324 340c-4 5-4 7-3 11-1 9 2 16 3 22-2-6-3-12-2-20 2 12 1-5 5 6-1-7 10 0 8-10-5 3-7 3-7 2 1-13-6 2-4-10"/><path fill="#36353D" d="M250 168c-16 7-7 3 4 4 1 5 5 1 6 6 3-1 9 0 9-4-3-3-8-3-14-2-3 0-5-2-5-3"/><path fill="#181115" d="M304 303c1 5-8 2-9 5s0 4 1 3c0 5-1 6 3 7-3 4-5 7-7 10 2 1 4 1 6 1 6-6-10-2 2-10 1-4 2-4-2-5 5-3 4-10 8-11"/><path fill="#E6EEED" d="M314 164c19 16-13-4 16 14-30-11-6-3-16-1 8 3 14 6 21 9-6-8-12-19-19-21"/><path fill="#181115" d="M228 172c-7 3-18 4-22 12 7-4 25-10 26-13"/><path fill="#7A6E68" d="M271 196c-4 4 1 9 6 9-8 2-1 7-2 11 1-4 1 1 2 1-6-5-3-9 2-8 3 1 3 3 7 4-5-6-7-12-14-14"/><path fill="#D6DCDA" d="M370 253h-1c-5 7-5 11-2 14 0-3 5-2 3-11 6 0 6 4 8 6 3-7-1-8-5-7"/><path fill="#978B7F" d="M376 303c-12 6-6 12-23 14 5-1 9 3 13 4-7-3 1-5-1-5 4-6 19-4 10-11"/><path fill="#536D7E" d="M238 315c-4 2-5 1-6 3-6 7 5-7 7 0-16 13-28 17-33 21 26-18 26-11 37-25"/><path fill="#1E1516" d="M431 477c-1 2-2 3-5 2 4 3 1 7 5 5 0 4-3 3-4 4 2 1 10 0 6-1 3-3 4 1 5-2 1-4 1-9-5-5"/><path fill="#564541" d="M85 286c-14 1-1 9 8 12-2 0-5-8 0-7-5 2-5-4-9-4"/><path fill="#354253" d="M444 254c4 7 4-3 11 15-5-10-3 9-12-15"/><path fill="#404A56" d="M225 334c-6 0-11 7-15 12 8-14 6 7 13-4 3 0 1-4 2-7"/><path fill="#C8C9C0" d="M360 296c3 5-3 5-13 4 4 1 4 8-2 8 3-7 32-5 19-10"/><path fill="#B1A89B" d="M374 325c-2 6-12 12-8 22 5-10 10-16 9-22"/><path fill="#B6AFA4" d="M335 358c-1 3-3 7-6 2 0 7 9 20 0 15 0 2 2-3 7 9 1-8-3-17-2-23"/><path fill="#B9C6C5" d="M281 140c26 4-14 0 7 8 2 5 6 5 9 6 0-1-4-5-6-5 4-1 8-1 13-1-13-1-1-6-12-7"/><path fill="#404E5B" d="M260 354c-2 1-5 0-6 3-7 2-8 6-9 10 4-6 23-12 18-14"/><path fill="#33353E" d="M300 292c-2 1-4 0-5 1 2 2 4 4 6 7-1 2-2-1-3 0 2 1 7 4 1 5 8 1 2-8 7-9-2-1-1-5-5-5"/><path fill="#1D1515" d="M275 454c-14 5 1 3 3 13 0-5 4 0 5-2-2-4-6-6-8-9"/><path fill="#0A0409" d="M180 319c-6 1-11 2-18 1 7 8 32-2 20-2"/><path fill="#5A4B46" d="M333 418c-3 12-10 25-20 33 1 1 1 3 2 3 7-8 14-15 17-36"/><path fill="#0A0308" d="M515 348c-3 4-12 4-14 6 4 4 6 5 9 2 2-3 5-3 4-7"/><path fill="#556E7D" d="M277 287c3 1 6 4 9 5-1 5 2 3-2 8 3 1 8 3 11 3-4-6 7 2-4-8l5 2-2-2c-2-1-4-1-6-2-1-4-4-5-10-6"/><path fill="#9AACB2" d="M116 153c-3 6-9 12-9 18 4-3 1 5 4-5 3 3 1 5 2 8-1-3 2-6 1-8 3-4 2-9 3-10"/><path fill="#2C2020" d="M109 349c6 7 23 24 38 27-11-8-24-13-36-24"/><path fill="#C7C6BD" d="M322 352c1 5-1 15 4 8-2 5-2 7-3 8 3-4 3 6 5 7 0-4-3-7-3-11 3 4 5 8 8 12-2-5-5-9-6-14 5 1 6-2 8-6-4 4-9-4-7 4-3-12-5 7-6-6"/><path fill="#5B6973" d="M200 192c-1 2-12 3-22 25 7-11 20-23 26-26"/><path fill="#2B211F" d="M282 464c4 6 20 19 25 17l-24-15"/><path fill="#D2DBD9" d="M282 142c17 1 22 6 40 7-13-6-24-6-38-7"/><path fill="#E0E9E8" d="M347 171c5 3 4 15 6 22-3-7-5-14-6-19"/><path fill="#554C4B" d="M85 216v2c-2 3 1 6-1 9 6-11 10 1 3-15"/><path fill="#5C4A46" d="M258 465c0 12 13 2 14 7-1-4-5-6-9-5"/><path fill="#38404B" d="M200 317c5 4-12 9-15 15 3-7 8-10 12-13"/><path fill="#C7C6BE" d="M371 256c3 11-6 8-2 11 1 6 1 1 0 3 2-3 10 0 5-6 5 0 2 2 4 2 2-11-1 4-4-10"/><path fill="#3F4752" d="M243 328c8-2 2 9-2 7-5-2-2-6 0-5"/><path fill="#50525A" d="M502 357c-7 6-14 4-20 3 5 4 19 6 22-1"/><path fill="#958B84" d="M275 209c0 4 4 5 5 8 3 4 1-10 10 2-2-8-8-5-13-9"/><path fill="#85B8CB" d="M213 291c-6 7-13 11-22 13 8-1 39-15 24-10"/><path fill="#F1F2EF" d="M65 185c1 10 2 13 4 20-3-8 4-15-4-19"/><path fill="#495460" d="M126 180c-6 18-12 29-9 51 2-18 0-22 9-50"/><path fill="#404853" d="M253 324c4-5 6 2 7 0 0 7-9 9-7 1"/><path fill="#251F24" d="M135 219c-4 2-12 9-5 18 1-5 3-11 4-17"/><path fill="#C5C6BE" d="M482 150c1 14 5 26 7 39 0-8-4-17-3-26 5 3 7 9 10 12-5-8-9-16-13-23"/><path fill="#241F24" d="M241 174c-14-3 22 4 13 6 2-6-3-9-10-7"/><path fill="#EAEFEB" d="M371 137c2 3 0 6 0 9 7-6 13 11 15 15-2-7-6-12-13-23"/><path fill="#29272F" d="M194 339c4 2-8 10-11 12 1-5 6-7 8-10"/><path fill="#6891A2" d="M253 280c16 0 32 5 36 10 3-9-21-8-31-11"/><path fill="#B5ADA1" d="M308 355c-2 2-4 2-5 5 7-2 2 10 8 9 0-7-4-9-3-13"/><path fill="#160C0F" d="M258 471c8 11 13 15 15 12-1-2-4-7-13-10"/><path fill="#0A0609" d="M456 336c9 8 15 21 27 28-10-6-18-22-25-26"/><path fill="#0E070B" d="M300 339c-3 1-4 2-7 3 7 2-2 12 5 11 0-4 2-9 3-15"/><path fill="#252027" d="M124 211c-8 13 2 6 0 22 4-10 0-12-1-20"/><path fill="#9B8C81" d="M376 326c0 5-2 10-8 19 4-5 8-10 13-14l-1-2-1-1"/><path fill="#11080D" d="M228 465c2 0 7 6 3 9-3-1-5-3-4-7"/><path fill="#719DAD" d="M275 292c2 1 6 0 8 4-4 2-11 0-11-4"/><path fill="#5A4B44" d="M192 379c-1 12 7 13 2 29 3-6 4-20-1-27"/><path fill="#3F3231" d="M260 202c-5-2-8 7-7 7 3-1 5 1 6 1-2-3 0-5 1-6"/><path fill="#3C3232" d="M74 227c-2 0-4 4-5 2-1 7 0 7 3 11-7-10 10-10 2-10"/><path fill="#D5DCD8" d="M483 253c4 14 1 27 5 23 0-25 2-6-5-20"/><path fill="#7A8C95" d="M113 165c-3 12-7 0-11 18 2-3 2-5 3-7 4 15 5-9 7 4 2-4-3-9 1-12"/><path fill="#414E5A" d="M199 316c-8 4-16 8-23 14 9-3 15-9 23-14"/><path fill="#D9E1E0" d="M460 162c5 13 9 26 10 40-1-21-2-22-8-39"/></svg>