<svg xmlns="http://www.w3.org/2000/svg" width="600" height="600"><path fill="#935F3D" d="m395 110 1-1c12-1 24-1 33 4 11 4 21 11 26 18 10 22 28 33 41 50 2 1 3 0 4-1 0-4-8-10-4-14 15 19 53 26 46 61-2 5-3 9-6 13 2 0 9-6 10 1-6 12-17 14-26 17 6 0 12 2 16-1 2 3 0 4-2 5-6 6-13 4-18 5 5 4 12 2 19 2-7 9-15 8-21 10 5 14 10 27 12 42 1 17 0 32-4 45 3-4 6-9 9-14 3 2 2 4 3 6-6 15-14 29-27 38 7 1 15-13 19-8-18 25-44 37-64 58 2 4 0-1 6 2-1 2 5 12-3 15-9 1-16 4-23 2-11-2-16-9-21-13-20 5-39 8-58 6 1 4 1 8-3 11-9 4-17-2-21 3-18-4-24-18-40-20-9-1-15-2-22-3 0 3 7 3 5 9 1 3 0 5-1 7-9 4-17 2-23 2-9-4-14-11-18-17-9-2-17 0-23-1 2-3 18 1 18-3-14-8-26-15-34-23-12-10-21-23-24-35-8-3-16-3-20-7-8-18-26-27-32-43-1-11-1-19 4-26 2 7 1 15 7 19 4 6 9 7 13 9-5-14 5-27 6-40 9-3 0 14 8 17 0-15 7-27 17-39 9-8 18-11 28-13-16-4-26 15-36 16 9-14 17-16 27-23 4-12 8-23 14-30 8-13 20-17 26-28 12-9 23-14 35-18-12-1-22 3-32 8-7 0 0-4 0-5 14-9 27-12 39-17-8-1-15 4-22 6 11-15 31-16 34-25 18-5 34-6 48-3-8-9-21-8-29-15 17 1 31 3 45 6-9-8-19-15-29-19-12-3-24-1-32 3 0-6 5-6 8-8 18-5 40-5 55 0 15 4 26 8 37 14 10 6 19 10 25 18 3-7 3-13-4-17-11-9-21-14-35-12 3-5 7-6 10-7"/><path fill="#F6902F" d="M443 258c-2 2-6-1-8 1-6 0-9 2-13 4-6 16-21 24-26 35-7 4-14 6-20 3-3 10-5 23-2 33-9 3-24 6-37 5-9-2-15-18-19-13 5-5 2-8 6-15-4 0-14 30-21 48 4-3 5-8 9-11 0 10-1 17-2 24 6 15 20 18 21 25 7-5 11 6 23 1 2-5 3-10 5-14-2-4-8-3-6-11 0-6 3-8 5-12-11 30 11-1 3 20 2-12 13-20 21-28 8 2 35-26 41-16 11-7 18-14 26-21 2-5 3-8 2-12-5-6-17-8-18-14 14-1 25 3 33-4-4 12-13 17-10 31 11 17 11 10 24 25 1 8 7 34-5 46 6-8 10-15 10-23-5-14 4-27-8-32 5-5 9-2 10 0 0 19 6 27 2 45 3-2 5-5 8-4-1 4-4 8-4 10-1 12 40-86 14-41-2-1-2-6-1-8-2-1-5 4-8 3 3-8 8-21 1-37-7-8-21-9-28-18-3-7-1-18-9-20-6-4-12-5-18-4"/><path fill="#723329" d="M196 327c-2 5-4 10-7 14-2 6-3 10-4 13-2 12-4 23-2 33 10 19 27 35 44 44 4-3 0-11 6-14 2 11 2 22 13 26-3 2-6 0-7 1 4 6 7 10 11 15 16-6 26 3 27-6-5 0-2-8-5-9 4-3 8 1 11-1-4-3-8-6-9-8-3 2-2 9-8 7 3-6 4-11 6-16 2 2 4 4 5 6-5-13-10-25-11-38 6 15 13 26 21 41 4 4 6 6 8 7-1-9-2-16 0-22 3 5 2 11 6 15 10 12 16 23 28 30 0-13 19-2 9-8 5 4 8-2 11-1-2-5-13-4-13-15 9 2 14 10 30 8-3-4-10-4-13-8-3-16 7-25 1-36-11 2-13 15-25 15-9 1-6-12-16-11-7-2-7 1-10 4-4-11-15-15-23-17-7-15-12-25-17-44-2-2-6 1-7-3-12 6-24 9-38 17-1-7 8-15 2-19-10 4-14 13-18 18-3-7-6-15-4-22-3-2-6-1-8 0 1-6 3-10 5-14"/><path fill="#F9EBA3" d="M456 332c-4 3-12 3-17 2-15 5-25 10-37 17-5 3-7 10-13 11-3 1-4 3-6 2 3-6 12-11 2-8-8 4-15 11-18 19-4 12-9 22-8 32-2-6 7 0 8-5 3 8 16 9 23 12 7-6 22-5 29-17 5 2 8 3 10 6 13-11 23-21 22-36 2 5 4 11 1 14-1 9-8 11-12 15 7-2 5 6 5 7 10-1 16-9 23-15 2-7 1-13 1-19 6 4 4 12 3 19 3-4 0-11 4-13 4-16 3-35-13-41-2 0-3-1-4 0"/><path fill="#C56D2F" d="M86 332c2 22 29 20 39 39 10 10 6 24 16 31 6 5 12 8 17 10 1-5-3-7-6-10 1-5 4-4 7-4 8 2 14 6 20 10 12 12 10 24 19 33-7 5-11 6-16 5-7-1-10-6-10-11-10 4-21 5-30 2-4-2-10-3-10-7 5-7 11-7 18-6-24-15-42-5-63-11-3-7-4-10-3-14 1-6 6-7 10-8-5-20-3-39-13-55"/><path fill="#F1752C" d="M215 299c4 7-30 35-11 36-3 10-7 16-2 26 5-8 12-14 20-17 5 6 0 12-2 17 12 1 18-11 25-15 7-6 8-14 14-21-2 25 12 17 13 55 7-3 6 8 9 12 5-2 11-3 16-1 3 7 3 13 5 17-1-2-2-6-1-10 11 7 24 13 33 13 8 0 11-10 20-11-11 5-16-8-22-2-10-13-12-8-23-27 0 2 2 6 0 9-12-16-12-28-20-43-3 2-4 7-5 12-6 0-9-4-12-6-3-9-5-15-6-22 2-7 4-10 6-13-4 1-5 5-9 7-1 5 1 8 0 12h-1l-3-2c1-2-1-3-1-4-12-3-22 2-36-7-1-9 0-13-5-13"/><path fill="#493333" d="M286 200c-6 4-27 8-36 17 3-2 6-3 9-4-4 5-10 7-13 9 4 1 10-1 14 2-6 3-11 3-16 3 8 1 3 5 8 3-9 6-10 8-28 31 9-7 17-12 27-13-8 13-22 22-25 35 5 10 1 9 11 34 6-5 13-7 20-10 1-6 5-12 9-16 8 3-8 10-4 17 5-6 13-9 20-9 4 1 0 3-1 5 2 2 3 3 6 2 8-8 14-14 19-21-4-1-6-1-10-1 2-3 4-5 6-8-7 4-15 6-24 6 0-5 4-6 8-8-6-3-11-5-15-11-5-6-7-11-8-16 0-13-2-24 5-31 5-13 44-11 16-16"/><path fill="#BA6931" d="M95 197c-4 12 5 30-1 46 5 1 3 9 6 13 7 1 12 1 13-4 3-9 5-17 6-24 5 0 5 6 4 10 5-6 11-4 16-2-2 11-8 20-8 32 0 4 2 6 4 7 0-7 8-7 8-11 3-5 6-4 8-2 4 6 5 12 4 19-2 7-3 13-6 18-4 3-7 1-8 0-1-4-2-6-1-7-8 0-11 7-19 8-8 0-13-8-12-13-5 1-5 5-10 7-4 0-5-1-6-4 0-19-11-36-14-54 8-12 7-24 11-35"/><path fill="#798681" d="M468 395c-9 2-17 11-27 12-7 1-12-1-15 3 2-4 1-9-5-10-11 4-13 17-27 13-12 2-21-3-29-4-2 7-12 18-8 29 1-3 2-6 6-8 0 3 0 9 1 12 4-1 6-5 8-6 6 2-2 5 7 2-3 4-5 6-7 8 12-7 5 11 31-5-3 6-6 8-10 10l-1 2v1c32-9 30-12 52-18 5-5 10-13 12-22 7-3 0 9 2 8 6-10 8-18 10-25"/><path fill="#A98951" d="M368 128c10 12 23 27 36 37-4 0-7-3-11-5 3 7 5 15 8 21-14-7-24-16-36-21-47-16 28 22 33 26 5 7 0 11 0 18-2 0-2-2-5-2 2-4-4-3-6-6-3 7-8 8-13 11-1 5-1 8 0 12 3-2 0-6 4-7 4 9 8 4 12 11 0-7 0-16 1-21 4 7 5 15 10 22 5-6 21 1 25-5 11-10 12-23 12-36 4 6 4 13 2 19 3 5 5 6 8 7-1 15-8 10-3 23 6-1 13-5 16-12 8-11 8-22 7-35-4-13-6-25-12-35-5 10 4 17 4 33-11-12-18-26-23-48 6 17 12 35 7 55-3-5-4-16-6-10-8 3-6 14-16 21-7-4-9-13-19-12-1-10 6-12 5-20v-1l-1-1-3-4c-9-5-18-21-27-30-4-2-6-2-8-3"/><path fill="#A8854D" d="M326 170c-9 7-6 14-11 20 9 5 0 8 5 13 7 4 11 4 15 7-3 2-14-4-10 3 8 8 12 18 19 25 6 4-2-13-7-15 5-1 9 4 15 6-2-4-12-7-8-10 14 13 26 14 36 25-20-24 4-11-26-42 8 2 6-5 9-6 8-2 11 1 15 3-3-8-9-15-10-23-11-7-25-6-40-5"/><path fill="#AD4128" d="M396 246c-1 2 6 1 3 4-24 5-48 1-67 16 4-1 9 0 10 3-20 3-10 11-26 13-12 9-20 16-26 27-5 2-8 1-10-1-3 4-4 7-6 9l3-6c9 12 14-9 19 3 7-8 13-14 20-19 15 0-5 14 11 12-9 4-14 7-16 14 11-10 20-18 30-26 11-3 22-5 30-3-6-4-4-12-4-19 2-5 3-8 5-11-4-4-14 3-16-2 13-4 28-5 37 0 1-2 3-6 3-9 27-6 26-3-1-5"/><path fill="#E67128" d="M366 292c-8 1-16 1-22 4-9 3-13 9-18 15-7 4-2 9-5 13 6 6 9 11 13 14 16 1 32-2 37-5-7-15 15-34-1-39"/><path fill="#B14F29" d="M212 282c1 2-31 12-7 12-5 7-11 10-14 15-3 6 4 10-1 14 5-1 8-4 11-5-3 8-7 14-9 20 0 5 5 0 7 4-2 8 1 16 1 23 5-7 10-14 17-18 5-1 6 2 7 3-2 7-5 10-6 14 4-3 11-2 14-6 9-10 17 1 22-12 3 7 8 2 9 5 6 20 11 29 17 43 8 4 19 7 21 17 4-2 5-5 11-3 10-1 10 12 15 12 14-1 16-14 26-18-5-3-11 10-17 11-10-2-23-4-31-15-5 3-3 8-1 11-5-5-5-11-8-16-6-2-10-1-13 2-9-17-14-23-18-43-2-5 2-7-1-10-2 1-1 4-4 5-2-9 3-21 1-22-5 4-8 14-11 20-7 0-12 6-15 13-7 2-11 2-14 5 1-5 0-8 2-11 3-3-2-5 0-7l-2 1h-1l-2 1c-7 3-11 9-16 15-5-10-2-17 3-25-3-1-10-1-9-3 6-13 15-25 19-34 5-6 4 7 5-1 3 7 1 9 2 15 4-1 6 2 11 2-2-9-5-3-8-5-1-11-2-20-4-28-2-1-4-2-5-1"/><path fill="#412B2C" d="M190 279c-7 3-14 7-17 14-6 9-7 18-6 28-9-3-12-11-10-18-3 13-11 26-3 39-7-1-12 0-15-5-8-5-10-11-11-17-4 10 0 22 7 30 10 14 22 20 36 20-5-22 1-43-4-63 4-13 13-22 23-28"/><path fill="#B9622F" d="M135 157c3-2 3 5 8 6-8 21 5 42 0 57-10-2-13-10-14-15-5 1-8 2-11 4-4-1-7-2-6-5 5-12 8-17 5-31 6-8 14-8 17-13"/><path fill="#D9BE71" d="M372 127c9 5 17 11 24 20 0 7-9-9-14-9 9 9 14 21 27 29-2 11-4 8-5 20 9 0 12 9 16 15 14-5 3-19 17-19-2-8 5-1-1-10-6-7 1 3 1 6-7-9-13-18-19-27-19-13-27-13-44-26"/><path fill="#713A30" d="M507 369c-4 8-9 16-15 24-3-4-5-2-7-4-4-2-6 6-9 4-4 14-13 30-25 42 1 8 4-2 7-1 1 5-1 7-3 10 19-22 28-21 47-39-1-1-5-1-7-2 6-8 12-12 15-17-4-1-4 4-7 4 5-7 3-15 4-20"/><path fill="#321512" d="M370 258c1 1 4 0 6 1-7 9-10 20-6 30 4 5 8 6 12 8s7 0 10-1c5-4 9-7 9-13 1-6 0-11-2-15-8-9-17-10-28-9"/><path fill="#503B3C" d="M155 311c3 3 7 12 12 14-3 16-2 31 3 43-9 0-14-1-20-4-3-6 5-1 7-5-6-3-12-5-18-9-7-7-12-14-12-22 5 5 9 10 15 12 6 3 12 4 15 4-2-4-4-6-5-8-1-10 0-17 2-23"/><path fill="#7C5A40" d="M476 178c-4 20-7 46-20 58 17 1 33-19 38-15 3-4 9-8 12-13l1-2-1-1c-4 7-10 13-16 15-3-6 5-12 5-13-7-13-4-16-21-27"/><path fill="#DF6F2D" d="M408 248c-24 3-5 20-2 29-3 5-3 12-7 15 12-9 16-25 29-33 10-2 19-3 28 0 8 2 11 5 13 9 0-3-1-6 0-9-13-4-7-9-8-10-11 0-15 6-25 4-10 2-18-7-27-6"/><path fill="#A84D45" d="M292 221c-6 13-23 19-6 24-3-2-3-6-1-9 1 4 1 9 3 13 1 2 6 5 14 3 33-3-13-9 26-15-12-9-27-21-38-11"/><path fill="#CCBA7B" d="M377 174c2 3 4 6 5 8-5-3-9-4-14-5 4 8 7 15 12 21-6 1-9-4-15-2-3 3-3 8-8 8 10 8 4 13 16 18 1-3-2-8 0-12 5-7 10-8 12-13 10 1 8 0 12 7 0-5 2-8 4-11-2-7-16-10-22-17"/><path fill="#FCCE3F" d="M99 366c6 14-4 19 6 33 8 3 16 8 24 6-6-8-3-15-6-23-10-3-12-14-21-16"/><path fill="#F89030" d="M98 358c2-2 0 6 0 9-4 5-1 13 0 20l1 1 2 2-1-1-3-3c5-4 5-10 1-18 2-3 4-2 5-3 9 8 15 13 22 18-2 9 2 15 5 23-3 0-11 1-14-2-5-1-7-1-10-2-3-4-5-6-4-10-3 3-6 4-8 6-1 4-1 7 1 9 9 5 13-2 18-4 13 6 25 13 36 13 15 6-2 16-1 13 6 1 9 2 11 0-4-3 1-4 1-6 4 0 8 0 10 2 0-8-13-4-18-10-6-2-9-3-11-7-9-7-10-15-15-22-3-5-3-8-5-10-8-7-14-13-20-18"/><path fill="#F1732C" d="M90 350c3 14 4 21 6 34-2-10 0-20 5-27 7 7 14 12 20 17 7 11 11 20 15 30 7 5 11 10 17 11-1 4-4-1-7 3 2 0 5-1 7 0 0 5 3 7-1 9-6 3-13 0-15 2 26 10 21-12 48 0-3-13-14-20-21-24-3 4 5 7-2 10-8 0-13-2-18-5-15-12-11-21-22-34-2-3-3-4-4-5-9-6-15-17-26-19"/><path fill="#D97030" d="M499 280c-5 2-9 1-11 8 6 5 5 7 11 10 2-2 1-6 5-8-6 12 5 31-9 46 5 5 7-4 12-2-2 2 0 6-1 8 5-21 11 5 9-6-1 0 0-14-1-22 0-11-4-17-8-23-2-5-4-8-6-10"/><path fill="#8A5B3E" d="M346 167c-6 2-15 2-22 3-13 6-27 4-37 9 6 3 12 4 18 6-10 2-17 5-26 6 13 0 27 0 39 4-13 0-27 0-41 1 14 5 28 7 43 8-6-8 3-8-8-13 5-9 7-10 9-20 13-7 60 7 24-5"/><path fill="#7F6041" d="M440 203c-1 7-4 14-9 19-1-1 0-2 0-4-7 7-21 3-30 4-3 0-3-3-4-5 3 7 7 13 12 19 6 4 10 3 15 5 11-1 19-2 26-7 16-19 12-9-3 0-7 0-1-8-3-10 1 5-4 8-7 11-4-1-3-7 3-11-7 3-6 3-14 8 10-10 13-22 15-29"/><path fill="#210909" d="M337 112c-56 4-1-2 10 15 7 5 11 8 15 13-5 0-9-2-14-3 9 2 18 6 26 11 10 8 17 18 22 27-8-21-29-32-44-48 15 4 27 18 40 30-4-5-9-10-14-15-16-15-40-25-41-25 13-4 27 1 42 6 14 8 27 14 39 24 10 10 18 20 23 31-1-11-10-20-16-27-12-13-25-20-38-27-14-5-26-10-39-11-6 0-11-1-15-1"/><path fill="#FAC13B" d="M91 256c-1 7 3 11 12 13-1 5-4 6-4 8 5-3 9 0 14 1 5 4 4 8 4 10 6 1 9 0 13-1-3-7-9-11-8-19-5 0-4 5-8 3 2-5 8-8 6-14-6 1-10 6-17 5-8-2-8-8-11-5"/><path fill="#563732" d="M300 158c6-4 13 3-12 6 9 2 17 2 23 5-12 6-61 7-22 11 14-8 39-13 60-14-14-5-29-10-43-9"/><path fill="#23060B" d="M195 328c-5 6-9 12-11 19-2 12-6 22-4 32-4-3-4-10-6-15 0 6 1 11 3 16-7 1-18 3-21-4 5 6 11 7 17 8 9 8 11 20 22 29 13 19 35 20 45 36-3-11 0-6-10-27 1 5 1 9 1 12-21-10-41-27-50-47-1-4-1-5 0-6-1-21 4-37 12-52"/><path fill="#24070B" d="M294 205c-2 1-4 0-5 1-9 2-14 5-20 8-8 13-5 29-2 41 6 10 13 17 22 17-2 4-6 4-9 6l1 2h2c6 0 12-2 18-4-7 1-11 1-19 4 4-5 11-7 17-10-7 0-13 0-17-4-8-5-10-11-13-17-2-8-1-15-2-20 2-8 7-13 12-15 10-6 22-7 31-3 17 4 23 21 34 30-9-8-12-18-22-25-7-6-13-8-20-9 26 0 7-3-7-2"/><path fill="#743027" d="M530 212c-10 17-10 14-33 33 3 3 6 4 10 3 16-1 18-13 24-12h3l-3-1c3-3 6-17 0-21"/><path fill="#1F0710" d="M362 433c-1 3-4 5-3 9 2-6 3 2 4 3 5 0 7-5 10-3-3 4-4 6-5 8-8 1-14 2-19 1 5 3 14 4 13 13l-1 1 1 2-1 1-2 1h-1l-2-2c-1-2 1-5-1-7 2 2 0 5-1 6-10 4-10 4 1 3l1-1 2 1h1l2-1 1-1v-1l1-3c0-2-2-3-1-6 21 2 42-1 60-6 11-3 11-4 17-12-20 10-22 11-52 17 3-5 7-6 11-9-9 3-24 4-26 1-3-1 0-2 0-4l2-1v-2l2 1v-1c-7 1-4-5-11 4-4-3-3-7-3-11"/><path fill="#493436" d="M159 319c8 17-15-1 3 29-16-5-4-2-15 0-7-3-12-5-16-9v-2 1c7 13 20 17 32 21-6 3-11 5-13 3 7 3 12 4 17 5-4-13-2-28-1-41-3-4-5-3-6-6"/><path fill="#391A14" d="M482 254c-7 1-13 6-11 14 5 7 0 7 5 17 6-1 9-2 10-6 2 5-3 10-4 8 7-4 7-10 6-17 1-8-8-11-7-16"/><path fill="#583C35" d="M467 219c-2 5-7 10-12 14-6 4-12 6-17 8-11 3-18 0-26-2 2 1 7 3 6 6-11-5-17-15-22-22 3 6 7 13 14 17-16-14-5 7-22-6 5 3 8 6 12 8 7 1 11 2 16 1 7 3 18 4 18 6 14-3 59-23 22-10 1-9 9-13 9-19"/><path fill="#71523F" d="M220 260c-8 9-25 6-34 16-4 2-4 4-7 6 6-2 11-8 17-6-3 6-12 10-15 16 9-11 23-10 34-15-2-6 2-10 5-15"/><path fill="#200A0D" d="M261 190c-1 2-3-1-4 1-15 6-24 23-37 30-8 11-13 21-17 30 6-8 14-13 21-19 33-5 8-2 28-9-4 2-10 0-13 3 1-5 19-11 11-9-15 7-28 13-39 24 5-11 14-22 25-28 9-11 48-14 33-17 38-2 36-4 1-2l2 1h-4c-10 3-19 8-29 13 5-8 13-13 21-17"/><path fill="#F68D3D" d="M246 326c4 2 4 14 3 19-5 2-8 0-13 2-2-4 0-6 0-8-3 2-5 5-7 8-2-7 1-12 5-17s6-2 10-1"/><path fill="#21060A" d="M316 132c11 3 22 7 30 16-66-1-42 3 11 5 12 6 24 13 35 22-4-6-9-11-16-14-9-6-17-8-26-10-4-6-8-11-13-13 3-3 4-1 7-2-9 0-17-2-25-4"/><path fill="#20090C" d="M402 111c-30 1 11 3 13 14 15 12 24 25 27 40-2-11-5-21-12-30-10-11-23-19-31-21 6-3 13-2 19-1 12 3 17 4 24 12 10 8 17 17 21 27 7 13 8 26 7 40 3-10 3-21 1-29-5-14-11-25-21-34-9-9-17-13-26-16h-3l-2-1c-6 0-11-1-16-2"/><path fill="#5B4238" d="M340 138c14 20 44 14 56 40-25-26 7-2-24-30-14-9-23-7-29-10"/><path fill="#22080B" d="M307 154c-14 3-28 6-39 14 3-1 16-3 21 0-17 7-32 10-45 18 11-6 26-8 40-5-5-2-11-2-17-1 10-6 19-10 29-12-3-1-8-3-13-3 8-4 15-10 24-10 22 1 39 9 56 17-5-6-15-7-18-12 28 13 29 11 0-1l1 1h-1l-3-1c-11-2-21-7-34-5"/><path fill="#7A332B" d="M298 210c-22 11 3 0 9 8 14 4 19 18 29 21-4-10-10-21-21-24-6-4-11-5-16-5"/><path fill="#E16429" d="M290 310c-2 14-12-5-14 6-5 9-2 18 2 24 6-21 7 4 17-33"/><path fill="#B5502F" d="M487 254c-7 4 12 19 1 29 2-4 10-2 11-4 6 6 7 12 11 17-11-18-4-22-13-35-5-4-4-8-6-8"/><path fill="#E36727" d="M283 229c-7 2-6 3-12 17 2 3 2 7 5 9 7 7 16 9 24 6-4-2-17-10-21-21-4-6 6-4 5-10"/><path fill="#8A4F36" d="M199 301c-8 5-17 11-21 20-6 11-7 22-8 33 5-14 20-28 24-53"/><path fill="#F88533" d="M294 372c4 1 3 4 10 3 0 4-3 6-5 4 7-1 5 8 4 14-10-5-6-7-15-4-1-6-1-14 4-15"/><path fill="#F06827" d="M137 164c1 10-15 1-15 20 4-5 8-8 12-8 4 10-4 15 4 21-4 10-7 0-9 3 6 3 5 11 9 14-1-17 0-34 2-50"/><path fill="#F89342" d="M246 326c-2 7-7-1-9 3-6 6-8 11-9 17 3-3 5-6 6-9 3 3 1 5 2 8 4 1 7-2 9 1 5-5 3-12 2-17"/><path fill="#F2742D" d="M146 264c-1 5-6 9-6 15-6 1-8 1-10-2 2 3 10 4 10 7-8 8-19 8-26 9 11 5 18-6 27-7 5 3-1 6 3 9 6-9 9-21 4-30"/><path fill="#712D24" d="M312 251c3-1 0 10-13 14-8-5-1 3-27-6 6 3 9 7 14 8 17 1 55-5 36-9-2-6 4-4 6-5-3-3-13 2-14-2"/><path fill="#BF7267" d="M515 192c3 13-5 25-5 38 6-1 12-5 10-13 2-9 1-16-2-23"/><path fill="#25050C" d="M275 417c2 10 6 21 14 28-4 4-15-4-14 3 5-1 15 2 22 1 10 5 18 6 22 13 5 2 7 4 9 5 6 1 13 7 14 0-2 7-14-2-20-4-8-12-22-18-25-31 0 8 5 14 8 19-14-8-25-19-29-32"/><path fill="#802F22" d="M317 295c-8 6-13 12-20 20 7-10 5-3 9-4 0 3 0 7-3 10 2-2 4-6 6-7-1 6-3 7 1 10 0-6 5-15 14-14-1-2-3-3-4-2-2-5 6-12 0-12"/><path fill="#21080C" d="M232 245c-6 3-13 7-16 13-5-3 0-8 2-11-16 8-25 17-43 30 13-17 36-11 48-23 1 4-2 7-3 11 24-15 31-19 1-1 5-8 7-14 13-18"/><path fill="#503233" d="M533 242c-6 12-25 7-34 15 3 4 5 11 10 15 6 1 10 0 15 1-2 3-15-4-15-9 4-1 9-1 13-2-6 0-6-4-10-3 4-5 0-9 19-8-9 0 3-7 2-6"/><path fill="#F46F2A" d="M132 235c-9 6-13 10-14 20 1-3 2 0 3 0 2 9 5 7 5 19-1-5-1-11 1-15 2-9 5-14 9-19 2-1-3 0-3-4"/><path fill="#F38944" d="M211 326c12-2 4 18 1 23-1-11-4-17-12-16 4-5 6-5 9-6"/><path fill="#7C3B2D" d="M240 257c-6-2-16 11-21 9-4 3-3 6-1 10-5 1-6 5-8 5 3 1 6-2 11 0 1 3 1 5 1 7-1-13 9-21 17-30"/><path fill="#E6BF69" d="M418 117c15 9 28 25 36 40 4-5 2-11-5-18-11-11-19-16-29-21"/><path fill="#F88935" d="M295 373c-5 2-8 8-6 14 7-2 5 0 13 7 8-10-7-11 2-18-4 4-5-2-7-3"/><path fill="#F58032" d="m154 417 2-1c5 3 13 1 17 5-9-4-27 22-23 4 5-3 3-4 4-7"/><path fill="#783027" d="M393 247c-7 6-38 4-52 12-1 3-8 4-9 6l-2 1-1 1h-1v1c1-1 8-3 7 1-10 1-16 4-22 7 2 1 4-1 7-2-2 6-2 7-12 13-11 7-17 25-30 20 2-4 5 6 10 1 6-8 11-14 19-19 20-10 15-14 33-20-2-3-5-3-9-2 16-18 62-13 66-20"/><path fill="#7E6042" d="M354 227c18 15-5 7 4 14 9 5 18 7 26 6-8-3-17-16-26-16"/><path fill="#F46728" d="M187 431c-7 3-11-2-11 5 6 1-2 5 2 7 12 5 22-7 9-11"/><path fill="#F4E39E" d="M363 121c16 6 32 16 45 23 14 10 21 23 27 34 1-14-13-21-19-29-16-13-32-22-49-28"/><path fill="#583C36" d="M498 213c-13 15-16 11-18 25 4-3 12-2 17-7-11 3 17-26-5-4-2-7 7-15 7-13"/><path fill="#491919" d="M330 258c8 0-2 8-18 16 0-4 9-7 11-12-21 7 0 2-14 12-7 0 3-4 0-5-2 5-15 6-15 6 0-1 5 2 7-1-7 3 8 3-5 9 2-7 16-1 26-5-5-1 1-4-15 2 9-6 16-11 25-12-1-1-3 1-7 0 10-3 16-13 9-12"/><path fill="#784D46" d="M221 189c-3 8-11 22-21 30 9-13 2-16 18-28"/><path fill="#FABE3D" d="M132 177c-1 5-4 3-7 4 1 9-4 13-4 18 10-1 12-13 14-20"/><path fill="#6E372F" d="M445 443c-5 3-11 7-17 9 1 4 4 4 6 6-2-3 29-10 10-13"/><path fill="#F6922D" d="M117 255c8 1 3 12-3 14 3 2 3-2 6-1 3 7 7 12 12 16-5 5-8 6-12 7-4-3-5-5-3-6-3 2 0 6-4 6 10 1 19-1 25-7-3-3-7-3-10-6-5-14-4-13-7-23"/><path fill="#F5F0EC" d="M273 201c-11 2-20 5-29 10-13 5-20 14-27 22 4-5 9-10 15-13 12-9 48-17 46-20"/><path fill="#F6904C" d="M212 327c-3 1-7 1-10 3 7 0 10 9 8 18 4-6 8-18 4-22"/><path fill="#E87730" d="M486 336c-3 4-3 15 2 26-2 11-6 18-9 27 8-18 20-7 15-10-1-5-2-1-5 0 3-18-3-27-2-42"/><path fill="#F6F1E5" d="M420 115c11 5 20 12 30 21 11 14 14 29 18 44-1-15-5-29-14-41-10-12-20-20-33-23"/><path fill="#CBC085" d="M428 353c5 3 2 15-1 20-5 8-11 14-17 15 1-4 9-6 11-13 5-7 7-13 7-19"/><path fill="#826645" d="M392 216c-1 3 0 5 1 6-18-17-8 13 5 17-1-8-6-13-7-20"/><path fill="#250B09" d="M501 266c10 14 17 30 20 47 2 16 2 30 1 44 3-12 4-26 1-38-2-17-8-30-14-42 7-1 15-2 21-5-6 2-13 2-19 3-3-3-7-5-8-7"/><path fill="#B65330" d="M455 246c-4 1-7 4-10 6-9 0-15-2-23-2 7 2 13 2 21 3 7-2 9-6 15-6 2 7 5 4 13 13 23-13 0-8-14-14"/><path fill="#75473D" d="M226 174c7 5-13 16-18 21 2-9 9-14 14-18"/><path fill="#4D3232" d="M324 242c-8 0 16 0 21 2 10 5-4 4-6 2 7 4 14 4 20 5 4 1 9 0 14-1-11 2-22-12-24-5-10-1-15-4-22-3"/><path fill="#9B8242" d="M388 266c5-3 7 3 8 6-2 6-6 7-9 6-5-4-2-8-1-10"/><path fill="#A8522D" d="M517 335c-4 18-11 35-22 50-7 12-4-6 0-8-7 4-14 5-16 14 6-13 11 6 14-1l2-2 1-3c11-14 18-32 21-49"/><path fill="#8C2F1F" d="m334 283 1-1c2 6 8 7-18 10 6-4 9-9 14-10"/><path fill="#DFB17E" d="M319 315c-8 5-13 28-21 23l3-3-2 1c0 6-5 9-2 11 13-8 14-21 22-32"/><path fill="#F69733" d="M89 248c-2 6-3 8 0 17 4 2 6 7 11 5-4 5-2 11-4 14 4-2 6-9 11-7-3-2-5 2-8 2-1-4 2-5 3-7-9-4-12-9-12-15 4 0 6-1 10 4-7-3-5-12-9-14"/><path fill="#715741" d="M427 136c1 29 16 14 17 56 2-11-3-18-2-25-4-12-8-21-15-28"/><path fill="#F8A252" d="M240 333c7-2 11 7 8 13-5-6-5-5-11-3 1-4 2-5 2-7"/><path fill="#4E3534" d="M84 431c7-1 14 5 18 9-8 2-14-1-18-6"/><path fill="#553D37" d="M190 287c-2 0-5 4-7 2-7 7-7 17-10 25 16-23 25-26 9-23"/><path fill="#B49B70" d="M391 380c3 1 1 12 0 15-2 6-4 10-8 11 4-7 6-15 7-23"/><path fill="#EE6A2E" d="M88 227c-5 9-6 17 0 24-2-3 1-6 5-4l1 2-1-2c-10-11 7-7-6-18"/><path fill="#BD3411" d="M162 424c4 10-14 9-25 6 3 3 12 2 18 4 7 0 7-6 9-7 10 5-2 1 0 8 15-2 35-6 0-9"/><path fill="#DB8837" d="M349 343c7 5-8 12-8 22-3-8 1-14 6-19"/><path fill="#DBB668" d="M441 145c3 8 4 18 8 26 5-9-3-18-6-24"/><path fill="#220B0C" d="M517 393c-12 18-34 28-51 42 15-12 37-21 51-39"/><path fill="#523431" d="M103 428c5-1 13 3 17 7-8 3-13-1-18-4"/><path fill="#240B0C" d="M506 182c5 5 8 12 7 20 1-7-1-11-3-16 10 2 18 8 24 16 5 9 8 20 4 30 4-9 3-20-1-27-7-12-18-21-28-23"/><path fill="#F1A38B" d="M450 325c-4 2-7 5-11 7 6 3 25 1 12-7"/><path fill="#85683B" d="M473 259c7-3 8 8 6 11-4 0-5-2-7 0-1-4 0-6-1-9"/><path fill="#543633" d="M101 311c5-2 7 10 6 14-6-2-8-6-8-11"/><path fill="#C2AF77" d="M444 207c-2 5-3 11-6 15 4-1 8 0 9-3 4-11 0-8-4-11"/><path fill="#624239" d="M475 170c-1 3 0 6-1 11 0-3 1-6 4-3 0 9 7 5 10 12 2-7-5-13-11-18"/><path fill="#593A37" d="M147 150c7 0 2 13 0 16-2-5-2-9-2-13"/><path fill="#52150E" d="M315 299c-6 7-14 11-20 19-2 3-4 3-3 5-4 5-5 9-7 13 3-1 3-3 5-3 4 1 2 4 3 6 0-3-2-8 0-11 2 6 5-6 11-10-6-2-9 8-13 11-3-2-2-3-1-5 7-10 16-16 23-23"/><path fill="#F8EAA1" d="M509 285c4 14 9 29 10 44 0-15-2-29-8-42"/><path fill="#87503D" d="M517 342c-5 17-11 28-10 40 2-21 12-22 9-37"/><path fill="#280706" d="M452 318c-8 5-14 12-22 16 8-2 13-8 19-12 12 12 12 5 3-3"/><path d="M235 231c-11 3-20 11-26 18 8-5 21-16 30-18"/><path fill="#F9A544" d="M332 360c5 3 1 13 1 18-5-4-3-11-2-16"/><path fill="#5A251F" d="M231 389c3 3 0 14 2 20-6-4-5-12-3-18"/><path fill="#745D46" d="M370 140c8 8 21 18 25 30-1-4-1-8-4-10-6-8-12-14-19-19"/><path fill="#F9A656" d="M242 334c-3 1-2 5-5 6 6-2 8 0 8 6 3-6 3-11-2-12"/><path fill="#585F5F" d="M433 415c4 5-3 17-9 19 2-4 5-10 7-16"/><path fill="#DF9542" d="M405 308c4-1 6 1 9 3-5 1-4 6-7 7-3-1-3-6-2-8"/><path fill="#EB6F2C" d="M100 389c2 8-26 8-4 21 7 1 17 1 17-1-2-9-13 9-21-5-5-9 7-6 9-13"/><path fill="#541712" d="M280 305c-9 7-5 7-10 11 3 11-2 22 8 30-3-7-8-14-6-25 1-6 4-9 6-13"/><path fill="#BE4E29" d="M256 312c-10-2-12 13-21 7 8-7 23 7 23-6"/><path fill="#5B3E3C" d="M87 298c5-3 11 6 8 9-5-1-8-3-8-6"/><path fill="#74392B" d="M471 246c-10-5-23 3-36 5 10-12 52 4 38-7"/><path fill="#7D1C10" d="M134 245c-5 8-7 16-6 26 1 5 5 7 8 8 2-5 5-8 7-10-4 0-2 4-6 6s-7-1-8-3c-1-11 2-17 5-24"/><path fill="#C27C52" d="M446 454c-2 1-5 0-6 2 3 7 18 4 7-3"/><path fill="#592520" d="M252 419c4 2 0 13 6 16-9 0-8-9-7-14"/><path fill="#891A0B" d="M164 429c-4 9-16 4-23 4 4 3 10 4 17 3 4-4 12-8 8-7"/><path fill="#F69633" d="M132 176c-1 4-5 3-8 5 0 6 0 6-1 2 6-2 9-7 12-5-1 8-4 13-5 19-4 3-6 5-8 5-2-6 0-8 1-10-1 3-4 5-3 10 5 1 10-7 14 0 0-9-3-14 2-21l-1-2v-1"/><path fill="#BF5D2F" d="M504 314c6-1 5 10 2 12-5-2-3-7-2-9"/><path fill="#5B423E" d="M84 316c8-3 6 8 1 10-2-2-4-6-2-8"/><path fill="#DFA16E" d="M346 459c-1 0 0 10 4 8 2-3 5-5 1-7l-1-2h-1v1"/><path fill="#392127" d="M246 236c-10 3-21 7-26 16 4-5 6-5 13-8 1 4-4 5-4 9 0-4 5-5 6-8 3-6 7-5 11-8"/><path fill="#270A0B" d="M500 237c-4 1-7 2-11 1 2 2 4 1 6 2-2 3-4 3-5 4l-1-1h1l2 1 4 1c-8 9 7 4 1 10 3 1 4-4 7-2-5-2-5-4-11-7 4-4 16-6 5-7"/><path fill="#240F10" d="M480 167c9 7 14 16 12 28 3-12 8-3 13-13-1-3-3-5-4-6 1 1 2 2 2 4-2 3-6 3-9 5-3-7-6-12-12-16"/><path fill="#EDD1A6" d="M304 321c-5 7-10 13-8 23 2-9 8-14 6-20"/><path fill="#62231C" d="M530 219c6 1 0 13-4 16 1-4 3-9 4-13"/><path fill="#543733" d="M287 187c-12 2-22 6-32 12 8-5 45-14 36-13"/><path fill="#3F1C1D" d="M199 296c-7 1-14 8-20 10h2v2h-2c-4 7-12 17-7 24 0-12 10-20 6-21 16-20 19-5 24-16"/><path fill="#5A2824" d="M309 439c3 0 7 5 9 7-5 3-7-2-9-4"/><path fill="#7B3324" d="M291 211c-7 0-12 4-17 9-5 7-6 13-5 21-1-8 2-14 5-20 3-2 4-3 5-4 1 3 2 5 0 7l3 1-3-1c3-2 4-5 3-7 2-4 6-4 9-6"/><path fill="#25070B" d="M464 450c4 3 6 8 0 11-7 2-2-2-2-4 0 2-2 3-4 4-7 1-7 2-16 3-8-1-12-5-17-9 5 4 12 10 20 10 7-2 13-1 18-2 5-2 7-8 3-12"/><path fill="#8A200C" d="M116 409c10 6 21 10 33 12-11-3-20-8-30-12"/><path fill="#461714" d="M200 321c-9 3-16 16-19 19 2-3 11-8 8-9 7-2 3 4 2 5 5-10-2-6 9-13"/><path fill="#CC7558" d="M295 219c-7 0-13 4-15 11 4-4 10-5 13-10"/><path fill="#3F1D23" d="M310 156c-10 4-15 1-27 8 6 5 16-6 31-8"/><path fill="#26100F" d="M536 354c-49 50 16-8-40 51 18-17 30-30 34-47"/><path fill="#2A0B0E" d="M249 250c-7 9-19 16-23 26v3l-1 2c-4 8 3 14 0 24 4-20 0-12-1-24 7-14 18-21 25-30"/><path fill="#DD9C68" d="M339 460c-3 1-4 2-5 5 3 1 3 3 6 2 3-2 1-4 0-5"/><path fill="#593C35" d="M347 230c4 8 10 15 19 15-18-7-2-13-18-12"/><path fill="#32323E" d="M187 449c7-1 15 0 21-1-6 3-12 3-18 3"/><path fill="#BA401B" d="M98 352c13 11 27 22 33 39 1-5-11-17-14-25-4-6-10-3-18-14"/><path fill="#4D3B37" d="M63 358c5-3 7 4 6 7-4 1-6-2-6-4"/><path fill="#831C11" d="M141 203c-2 4 2 8 0 12-6 0-6-4-8-6 0 3 2 7 5 9 7-3 5-9 3-13"/><path fill="#7B5E46" d="M351 121c10 5 20 12 28 22-6-7-6-8-9-14l3 2-3-2c-1 2-9-7-18-6"/><path fill="#C1805B" d="M451 450c-1-1 6 10 6 10 5-6-1-8-4-9"/><path fill="#7C1B10" d="M86 400c-2 8 5 11 8 12 6 1 11 3 14 1-4 1-8-1-11-2-6-2-10-5-11-8"/><path fill="#583F3C" d="M353 128c9 4 14 14 22 18-6-6-8-14-20-17"/><path fill="#592823" d="M258 435c4-2 3 8 3 9-5-1-5-3-4-7"/><path fill="#EFC764" d="M438 130c5 1 10 7 12 11-4-2-7-4-10-9"/><path fill="#B4A78C" d="M439 400c-1 2-4 5-6 6 8 2 20 0 4-4"/><path fill="#552F2F" d="M326 251c5 3 19 5 28 2-10-3-16 1-27-2"/><path fill="#DEA26D" d="M268 458c-3 0-2 7 1 7 5-2 3-6 2-7"/></svg>