<svg xmlns="http://www.w3.org/2000/svg" width="600" height="600"><path fill="#7C8389" d="M314 127c10-2 24 0 35 1 19 2 34 10 46 17 30 24 63 48 73 85 1 9 2 17-4 21-5 8-11 14-18 17 4-8 12-14 12-24 2-7-6-3-8-3-6 17-11 31-20 45-12 14-22 20-36 26 2 5 5 8 6 12-8 0-12-4-17-6-14 1-25 5-34 12-7 7-11 13-12 20 2 11 4 19 6 27 6 13 10 25 20 33 29 15 61 26 94 32 8 11 26 14 33 22-17 5-32 3-45 0-21-4-37-16-53-26 8 14 25 17 35 27-17 8-36 4-52 6-10-11-11-23-17-34-7-11-15-17-23-24-4-10-7-17-9-25-2 3-3 8-6 12-10 6-19 11-28 13-5 7-5 15-4 23 5 13 22 15 28 25 8 1 16 3 23 3 4 1 6 3 3 5-31 1-60 3-89 0-3-4-4-8-5-11 3-17 17-27 19-43-15 6-32 8-48 4-8 16 0 39-5 52-19-1-38 3-52-1 7-18 25-21 31-37-13 7-19 26-35 30-15 7-34 6-49 4 19-23 50-28 70-45-5-4-10-4-14-7-6-5-9-9-9-15-9-26 19-42 12-66-4 4-9 9-13 4-6-7-9-16-5-23 5-6 10-6 14-7 9 1 15 8 17 13 10 25-12 43-1 63 8 0 13-3 18-7 16-16 27-28 36-46 4-8 4-15 3-23-4-23-20-38-26-59-4-9-5-16-5-24 1-21 14-31 20-47 8-10 15-16 24-24 14-12 28-18 44-22 7-2 12-5 18-5"/><path fill="#E9E1BD" d="M292 137c-8 3-14 1-22 7-14 9-26 17-36 26-11 11-13 24-20 32-5 10-6 19-7 28 1-11 6-21 12-29 3 0 5-2 8-3 1 4 2 5 3 8 11-7 23-13 36-14 17-1 31 1 43 8 14 10 25 23 32 35 27-9 37-24 15-47-4-8-12-15-18-19-10-7-18-10-26-12-14-4-28-2-41-3 7-3 15-1 21-6l2-1h-3c-7-6 10-10 1-10"/><path fill="#294768" d="M235 283c2 9 14 14 14 24-2 9-2 17-6 24 3 3 1 9 7 7 5 2 10-3 11-7 3-6 4-10 3-15 7 4 8 11 15 14 15-2 32 1 46-3 5 0 5 3 2 6 4-14 17-19 25-29 0-8 0-11-4-15 2 2 4 7 0 10-11-5-23-9-33-4-3-2 0-5 0-6-3 3-7 8-11 9-23 2-22-2-30 4-16-5-26-10-38-17"/><path fill="#7EDCDE" d="M368 141c2 1 11 4 8 9-11 0-19-3-26-7 2 1 6 3 10 6 1 4-1 4-2 5-9 2-15 1-21-2-28 8-12 3 5 17 12 11 20 23 25 36-3-7-6-13-9-19 18-4 28 4 40 13 2-14 1-23-3-31 7 14 8-3 9 25 4-9-4-19 4-19 6 10 13 1 18 5-3 5 2 11 1 17 6 0 0-10 1-13 3 10 13 10 14 18 1-13-8-18-16-31-6-9-17-7-26-10-3-7 3-9-7-13-9 3-11 0-23-6"/><path fill="#40A3C1" d="M396 168c3 8 8 22 2 31-6-2-11-4-13-8-6-6-18-3-25-4 7 13 14 28 15 44 8-2 14-6 19-2 5-9 7-19 8-29 3 5 2 12 3 18 4 7 8 1 13 5 7-3 11-6 15-9 2 2 2 5 0 7 3-9 28-24 9-31 2 3 4 10 1 12-6-9-12-13-15-21-7-5-14 4-18-7-8 2-1 11-4 17-5-6-5-15-9-21"/><path fill="#293041" d="M305 373c-8 13-28 18-42 24-5 1-10 1-13 0-6-6-3-13-5-17-12 4-20 13-27 23-1 5-2 7-1 11 41 1 39 3 75-1 17-5 35-19 10-39"/><path fill="#D5F2E3" d="M316 128c-14 1-26 5-37 10-61 43-24 9 13-4-1 4 3-1 5 3-4 3-11 7-3 11-8 6-16 4-22 6 14 0 29-2 41 3 16 4 28 11 38 23-8-11-19-17-30-22 6 0 9-6 14-8 8 4 14 5 22 4 5-9-10-7-10-10 9 0 14 4 21 5 4 0 8 1 8-2-3-4-8-4-9-6 15 4 16 9 24 4 10 4 11 9 7 12 8 3 15 5 21 6-13-12-29-20-44-28-19-6-41-9-58-7"/><path fill="#D8CDBA" d="M255 349c-3 0-6 3-9 1-11 1-31 29-29 20-11 18-35 47-44 63 15-9 20-18 34-22 13-16 28-25 32-39 8-7 16-12 22-11 0-5 1-12-4-13"/><path fill="#487884" d="M275 328c-1 1-2 0-3 1-4 2-6 4-7 6 5 1 10 6 16 9 5 10 13 17 14 26-14 7-24 16-38 16-5-1-7-4-6-6 2-7 7-11 9-16-3 4-6 9-9 14-1 4-4 8-2 11 13 5 24-2 34-5 7-5 21-8 15-15 4 1 5 2 7 4l-4-4c-6-7-12-10-13-16 9-1 17 11 24 9 6 4 4 10 5 13 18-49 10-52-46-41"/><path fill="#BB9982" d="M370 219c-9 2-17 19-30 17 7 13 9 28 8 45 3 6 6 9 10 12-2-2 0-6 2-6 5-3 9-2 11-4-3-20 8-41-1-63"/><path fill="#1C406F" d="M403 209c-2 13-6 25-12 37-3-1-13-1-13 5-4 9-2 20-3 30 2 6 5 3 7 5 6 0 12-5 14-4 3-6 9-14 15-18-1 0-2 1-3 2 0-16 10-26 16-37-7 4-12 2-22 3-2-8 0-14 1-21"/><path fill="#9A5E56" d="M364 417c8 9 4 31 12 49 13 0 24 2 34 1-2-16-13-13-33-37 20 6 34 13 47 20 4-5 33 9 46 8-60-39-35 4-110-45"/><path fill="#7FD0D5" d="M238 313c2 11-3 19-7 27-3 6-8 9-8 14-10 7-19 22-33 30-7 2-18 5-25-1-4-12 0-21 3-29-4 10-10 17-11 27-1 8-3 13 0 20 5 6 31 2 39-5 7-7 11-17 18-26 10-10 19-15 29-19-2 0-3 1-4 2 3-7-6-15-7-12 3-9 9-16 7-26"/><path fill="#4A8DC5" d="M158 311c-8 2-9 12-6 18 9-4 5 12 3 7 8 4 10-1 13-3 2 2 3 4 2 7 2 15-8 24-6 37 2 8 9 8 13 9-10-21 12-39 4-61-2-6-5-10-8-12-6-3-10-2-13-3"/><path fill="#6C404B" d="M289 413c-8 0-15 4-21 6-6 9-9 38-18 36-1 6 4 8 1 11 17 2 33 0 46 3-8-4-18-5-24-11 3-4 6-11 11-11-1-12 2-27 5-34"/><path fill="#6D393F" d="M334 378c-5 12-2 21 0 28 10 13 19 18 25 31 6 11 9 22 13 30 9 3 29 4 41 1 2-3 4-2 13-4-8-3-14-6-20-9-3 5 6 8 10 12-14 1-29 2-40-2-3-13-11-32-8-40-7-15-24-28-32-45"/><path fill="#CA4442" d="M308 232c4 5-1 8 3 13-4-1-9-1-12-5-12 10 2 29-13 42-6 3-12 1-16-1-6-6-12-6-14-14-3 2 1 10-2 8 10 12 20 19 32 19 5-2 17-24 30-24 1-16-2-26-7-36"/><path fill="#82A098" d="M262 336c-5 2-8 8-14 10 3 0 5-3 9-2-1 7 13 5 14 13-3 12-14 16-16 15-4 5-5 12 0 12 16 1 26-7 38-11 0-12-8-19-12-27-7-4-11-9-16-11"/><path fill="#141D2F" d="M278 235c-11 1-21 10-23 24 3 6 5 9 6 12 8 0 13 8 20 7-4 3-8 3-12 1l-2-2-2-2 3 3h1c5 4 10 4 14 2 4-9 8-16 8-28-3 1-7 3-9 0-4-2-5-3-6-4-2-6-1-11 2-13"/><path fill="#613A4A" d="M217 403c-10 7-13 18-21 26 9 4 0 16 5 23-9 6-16 11-23 17 41-5-8 7 40-1-6-12-1-3-10-4 5-22 6-44 8-58"/><path fill="#40495F" d="M269 195c-24-1-27 28-28 46 1-8 1-16 5-23 10-10 20-13 32-12 6 9 10 0 34 21-2-3-7-4-7-6 14 25 26 9 40 43-2-18-5-27-14-39-8-5-8 4-11 4-11-12-22-17-33-22-4-5-7-10-7-12-3 0-6-1-9 0"/><path fill="#DA8D90" d="M210 409c-13 8-21 11-30 25 1-15-41 22-29 4-18 9-29 19-42 26l2 3-2-3c15-6 34-4 47-13 14-1 37-31 35-20 9-8 12-14 16-21"/><path fill="#3B7986" d="M321 236c0 8 4 14 2 23 1-5 1-10 0-15 7 10 15 18 18 28-2 14-16 5-19 15-4-1-3-2-3-3-2 2-4 5-5 8 10-3 23 1 33 5 2-9-3-22-1-38-6 5-11-20-23-21"/><path fill="#F28D7E" d="M285 215c-4 2-8 11-5 14-8-1-15 3-19 0 0 2 3 4 0 7-1-2-1-4-2-7-1-4-5-6-3-9 3 2 4 3 4 5-1-2-2-3-2-5-4 3 0 5 0 8-3-3-6 5-8 5-5 10-4 20-1 27 2 9 5 15 10 21-3-4-5-8-6-13 6-3 5 7 11 8-12-9-8-26-14-16-4-15 4-17 0-23 3 2 10-4 8 4-1-2 1-2 1-4 4-3 6-4 7-5 12-2 15 6 22-2 11 6 7 19 4 19 4-2 3-7 5-9 5 4 10 2 12 7-2-8 2-12-5-18-5-7-10-12-16-14"/><path fill="#1E2F4F" d="M352 294c2 2 2 7 1 10-13 12-24 21-27 37-7 17-9 33-3 28 4-13 9-30 21-45 10-6 19-15 27-13-6-4-12-9-17-16"/><path fill="#8FD0DB" d="M451 193c-6 17-24 33-21 53 7-2 13-5 20-8-1 0-2 2-4 1-2-7-2-16-1-23 7 5 12 9 19 12-3-12-8-23-14-33"/><path fill="#4D6F81" d="M217 258c2 12 14 24 25 38 2 9-3 26 3 27-4 8-6 3-8 18 2 3 4 9 11 4 6-4 10-8 14-11-3 1-5 5-7 6-7 2-11-3-12-6 0-4 2-5 1-9 3-7 4-12 6-16-2-12-13-17-16-25 16 8 29 17 46 16-10 2-26-16-40-20-10-5-18-13-22-20"/><path fill="#6D4049" d="M381 432c0 3 6 6 8 11 10 5-3-4 1-6 19 12 35 19 44 22 17 6 35 8 52 5-20-6-43-8-61-18h-2 2c1 1 8 6 1 6-15-8-28-15-43-20"/><path fill="#26436E" d="M367 310c-6 6-18 7-23 17-11 14-16 28-21 42-1-11-4 10-6-1 1 12 1 28-1 28 6-17 6 8 6-28 5 4 4-2 8-8 0 13 10 23 15 34-10-11-4-29-12-42 4-9 8-17 14-24 6-10 41-10 23-17"/><path fill="#662231" d="M435 247c-11 9-18 10-32 28-5 9-9 16-10 25 6 1 13-2 16-4-8-4-2-14 1-19 7-8 12-18 21-16 1-10 6-10 7-13"/><path fill="#E2D1B8" d="M349 284c2 11 10 12 13 18 6 5 18 13 32 17-9-14-19-19-20-33-5 0-9-1-12 1-5 1-4 5-2 7-5-2-8-4-9-8"/><path fill="#BFC8C5" d="M228 227c-9 3-14 13-13 22 11 7 18 16 28 22-4-6-6-10-13-14 2-9-1-12-2-19 6 1 7-4 9-7-1-6-5-1-8-4"/><path fill="#694F55" d="M263 195c-13 2-24 6-34 15-7 6-11 13-15 18-1 7-3 12-3 16 2-8 7-14 14-19 6-3 12-7 16-5 6-9 6-16 12-22 3-3 17-4 12-3"/><path fill="#AA585E" d="M197 427c-8-2-15 13-40 25-14 9-32 8-46 13 1-2 28 0 37-6 18-5 32-27 44-26 2 4-3 11-8 15 2 1 4-2 7-1 4 2 1 4 1 6-14 18-21 13-25 13 3 2 3 6 12 4-3-4 14-12 19-16-1-7 4-28-4-22 1-4 2-5 4-6"/><path fill="#E8E9DC" d="M319 195c9 0 18 3 26 8 3 5 6 9 4 14-6 3-12 4-14-1-8-6-12-11-15-19"/><path fill="#112B62" d="M396 234c3 6-4 18-5 25 0-4 6-4 7-9 10-4 6 5 10-1-6 12-12 22-20 31-2-3-6-6-7-7 5-14 10-24 14-35"/><path fill="#E15247" d="M271 212c-7 1-12 5-18 9-4 7-6 12-7 17l-1 2v1l1 2v1c-1 11 2 19 6 27-4-8-7-17-7-26 2-9 6-16 12-18-1-1-1-3-2-5 5-7 6 4 8 6 5 1 10 0 14 2-2-5 4-11 5-14 23 8 1-7-9-4"/><path fill="#336E94" d="M403 199c-6 28 4-3-2 35 11-4 16-2 23-9-6 14-15 25-16 40 14-14 12-36 28-50-9 6-18 11-27 7-9-3-4-14-6-20"/><path fill="#8F8D9B" d="M291 196c6 2 6 7 0 7 8 8 16 12 22 18 6 4 4-4 6-5 3-1 5-1 7 0-9-8-20-18-33-20"/><path fill="#E9EADF" d="M320 195c2 9 8 14 12 19 5 5 11 5 14 3 4-4 1-8 0-11-8-7-16-8-23-11"/><path fill="#0F2861" d="M397 236c-5 11-10 22-14 34-1 3 2 4 3 9 9-9 15-18 21-28-6-3-11 2-16 11 1-10 3-17 5-25"/><path fill="#743C46" d="M187 433c-12 10-23 21-36 27-13 4-25 5-37 6 13 3 28 2 40-3 15-5 24-19 33-29"/><path fill="#832126" d="M313 243c3 8 7 19 3 28-16 3-29 27-33 23 5 2 12 1 18-2 5-2 9-6 11-10 7-12 6-27 2-37"/><path fill="#384F59" d="M257 368c-8 1-36 31-12 9 3 6 0 12 4 17 3 3 9 3 12 2 15-3 27-11 40-17 2-3 1-5 2-6-2 9-32 17-48 20-6-1-7-5-8-7 2-9 6-13 9-18"/><path fill="#589DA7" d="M287 352c9 14 25 23 30 36 0-7-2-14-1-22-10-1-18-13-27-12"/><path fill="#2A7094" d="M399 223c0 2-2 4-3 6-8-3-13 1-19 4-2 6-2 13-2 20 0-5 3-3 3-6 6-2 10-4 11-1 4-7 7-14 9-22"/><path fill="#EAAE8D" d="M227 199c-10 1-9 7-15 15-3 13-6 27 0 38 5-1-8-5 0-22 4-11 15-21 24-27-2 1-4 3-6 4-2-4-2-4-3-8"/><path fill="#BCEEF5" d="M446 216c-1 7-1 16 2 21 6-1 14 0 20-2 0-6-4-10-5-16 0 4 3 8 2 11-8-5-14-7-16-13"/><path fill="#89A0A5" d="M214 253c1 8 7 7 18 23 15 4 27 15 40 21-7 3-37-32-56-45"/><path fill="#858696" d="M285 428c5 16-2 21-6 31 9 5 15 7 20 9-3 0-5-4-6-6-8-22 11 2-2-16 11 7 16 13 22 17 6 3 10 0 14 0-6 1-10 3-16-3-2-7-18-11-22-20-3-4-2-7-4-9"/><path fill="#CCDDDA" d="M238 232c-2 1-4 8-7 5-1 8 2 11-1 18 14 10 16 29 32 33-8-8-18-16-21-28-5-9-3-18-4-26"/><path fill="#D6837D" d="M189 448c-6 2-10 1-15 7-7 6-8 8-11 13 5 3 5 3 1 2 6-4 22-3 29-25"/><path fill="#55A1A4" d="M325 245c3 6 5 15 4 23-2 16-12 8-9 17 4-9 18 0 19-11-1-11-9-18-12-26"/><path fill="#36669A" d="M191 405c-9 2-21 2-29 1 0 7 8 11 18 12 5-5 7-8 9-12"/><path fill="#729FA4" d="M438 216c-15 12-15 27-22 42 5-4 11-6 16-10-6 2-2-8-3-9 3-8 4-15 6-22"/><path fill="#CAF3ED" d="M338 156c2-1 5 0 6-1 6 2 10 6 10 9-3 5-6 6-9 5-5-2-14-6-8-12"/><path fill="#C1F1F3" d="M392 174c11 3 6 12 0 12-6 3-11 1-13-3 3-7 8-8 12-5"/><path fill="#22263E" d="M267 207c-7 3-17 4-20 13-5 11-5 22-4 32 2 11 6 19 11 27-6-6-9-25-10-27-2-8-2-17 2-23 3-9 10-15 16-18 26-2 39 0 3-6"/><path fill="#090B16" d="M421 264c-7 9-15 17-14 28 6-3 10-7 15-10-4 2-4-2-6-2 2-3 4-10 7-13"/><path fill="#F3F1F1" d="M286 235c-5 1-8 4-6 10 3 5 9 3 13 1 1-7-1-11-6-12"/><path fill="#D9F7F2" d="M340 156c-9 4-2 11 4 11 4 2 6 1 8 0 1-6-2-9-5-10-4-1-5-1-6-1"/><path fill="#D2F5F7" d="M394 176c-3 6-11-4-14 5 2 5 6 7 10 7 4-7 12-4 5-12"/><path fill="#322C41" d="M330 360c-5 8-5 18-7 28 1-3 1-5 2-8 3 6 4 12 6 17-3-6 0-12 2-18 2 0 3 2 4 4-1-7-9-13-7-21"/><path fill="#20243C" d="M305 220c11 12 17 26 16 44-4 7-4 17-16 28 5-1 8-10 12-9 3-5 4-11 5-17v-5c1-10-1-19-5-26-2-7-6-10-10-13"/><path fill="#BD8B8C" d="M373 419c24 20 52 16 51 26 2-4-2-5-5-8 2 0 5-1 8 0-55-23-23-1-52-19"/><path fill="#7695A1" d="M235 290c-3-4 6 25 6 41v-34c-1-5-6-6-7-9"/><path fill="#9EC1B9" d="M261 350c0 3 3 10 4 10-2 5-7 7-8 11 7-1 9-6 13-11 0-5-3-8-6-10"/><path fill="#51A0B9" d="M198 394c-4 6-11 6-17 10-10 0-18 2-22-6-1 6-1 11 6 14 2-1-5-4-3-6 10 1 20-1 29-2 3-3 5-6 6-8"/><path fill="#8AC5C7" d="M325 251c-1 9-1 18-4 26 4 0 7-3 7-6 1-8 1-13-1-18"/><path fill="#5D647B" d="M282 194c-1 8 9 15 17 17-2-1-5-3-7-6 0-5 3-3 2-5-3-5-6-5-9-6"/><path fill="#C6E0D4" d="M231 343c-2 3-4 5-5 8 0 6 4 4 5 4-14 12-20 17-14 20 3-7 9-15 19-20h-2v2l-3-1c8-6 4-7 0-10"/><path fill="#B0D9D3" d="M231 343c3-2-1 8 6 4-1 6-5 10-8 10-4-5-3-9 0-11"/><path fill="#646475" d="M320 216c0 2-2 4-1 7-16-10-7-1 1 5 0-6 8-6 10-4 0-2-2-4-5-6l-2-2-1 1v-1"/><path fill="#9C83A0" d="M428 437c22 3 36 25 60 24-21-3-38-22-58-24"/><path fill="#61BFCF" d="M375 210c3-2 7 0 8 3 2 4 0 5-2 6-5 2-8-4-7-6"/><path fill="#C1DED5" d="M256 362c-6 3-11 6-15 9-2 6-5 9-9 12 7-6 29-21 26-21"/><path fill="#B7B8C2" d="M296 205c6 1 13 4 17 9-7 1-12-1-16-7"/><path fill="#D3EAF2" d="M426 264c8 8 3 15-4 24 6-4 19-20 8-25"/><path fill="#5B5755" d="M265 316c1 7-1 12-3 17 5 0 6-6 10-6-3-3-2-8-6-9"/><path fill="#0B1524" d="M265 265c5 3 11 3 14 11-6-1-13-2-13-9"/><path fill="#F5B5BA" d="M252 237c3 6-7 12 0 22-2-7 10-26 1-20"/><path fill="#4A9AB6" d="M393 287c-3 3-8 4-13 1-9-1 7 20 11 25-4-7-8-15-12-23 4 1 6 1 9 3 2-1 3-3 4-5"/><path fill="#303660" d="M218 414c6 6 37 4 38 1-11 0-21 3-35-1"/><path fill="#67C4DB" d="M424 183c8-2 6 10 8 14-10-1-4-8-7-11"/><path fill="#979C9E" d="M236 222c-7 1-12 3-16 9 2-4 6-4 8-6 5 1 13 2 12 8-1-4 3-11-3-12"/><path fill="#141D34" d="M423 263c1 5-4 12-6 16 2 3 3 1 7 0-6 7-10 10-14 15-5-1-3-4-4-6 1 2-1 5 1 7 0 1 10-9 16-13 3-8 1-12 0-18"/><path fill="#110B12" d="M269 234c-2 1-5 0-5 3-6 4-8 9-9 14 2-9 14-10 12-14 8-3 14-3 3-4"/><path fill="#69C5D4" d="M376 211c-3 2-1 9 3 9 4-3 5-4 4-6-2-3-3-4-5-3"/><path fill="#FAC7B3" d="M295 226c4-3 9 2 9 5-4 5-10 1-8-2"/><path fill="#8BCFE5" d="M380 290c2-1 2 7 7 13 2 6 6 9 7 14-1-4-5-8-7-12 2-3 3-9 5-13-3 0 0 2-3 2-2-3-7 0-7-4"/><path fill="#4B383D" d="M256 466c9-1 18 0 26-1-7 3-15 3-23 3"/><path fill="#826968" d="M280 448c-1 4-5 5-7 8 4 6 10 6 14 9-2-1-5-3-8-5 3-5 2-6 1-10"/><path fill="#AAE7E4" d="M209 369c8-1-1 8-2 10-4-2-1-6 1-8"/><path fill="#914B56" d="M260 436c-2 6-9 13-8 18 6-4 6-12 9-18"/><path fill="#361E33" d="M412 264c-6 5-13 12-16 19-1 6-2 9-3 12-1 4-3 7 0 9s4 0 6 0c-4 0-8-3-6-8 3-13 9-22 17-31"/><path fill="#0A121F" d="M267 265c-1 7 5 9 9 11-1-6-3-8-8-8"/><path fill="#EBE5D6" d="M371 293c4-1 6 5 6 7-4 0-8-2-8-5"/><path fill="#A9EFEE" d="M365 153c3-4 7 0 8 3-3 3-7 1-8-1"/><path fill="#3A4D6A" d="M459 241c9-5 5 15-9 20 7-1 21-16 13-22"/><path fill="#110D18" d="M292 253c-1 11-2 22-10 29 4 0 6-4 8-7 2-8 4-15 1-20"/><path fill="#646683" d="M291 448c5 3 6 7 8 12-1-5 10 3 13 3-6-4-11-9-19-14"/></svg>