<svg xmlns="http://www.w3.org/2000/svg" width="600" height="600"><path fill="#688CB4" d="M290 140c9 1 19 2 28 3 42 8 79 31 99 69 9 17 9 36 8 56-2 10-4 19-12 24-10 10-24 11-32 18 5 12 9 21 18 28 18 15 39 18 53 37 5 9 3 19 4 28-3 12-7 20-11 29-4 3-7 4-8 0-2-13 3-21 3-32 2-10 0-17-4-24-14-14-31-19-44-31-9-9-15-17-17-26 1 14 1 28 6 40 12 15 28 23 41 36 0 19-2 36-12 49-4 3-7 2-8-1-5-15 1-33-6-44-2 14-10 26-16 38-6 0-9-3-11-7-4-5-1-11-4-14-3 5-4 10-8 15-4 2-7 2-9 1-2-13 3-24 9-32 3-11-3-16-8-20-3 5-7 10-11 14 0 15 6 26 9 38 0 8 4 15-1 19-8-2-8-9-11-14-4 3-6 6-9 10-4 3-7 0-8-1-2-14 0-27-5-36-5 10 2 22 0 32-4 5-6 2-9 2-16-18-15-44-34-57-5 21 6 42-2 62-13-15-22-37-29-56-10 7-17 13-23 20-2 17 8 29 4 43-9 3-14-6-18-11 0 4-3 14-10 11-7-10-13-19-15-29-3-7-4-14-3-21 8-13 22-21 29-33 6-8 7-16 9-24-12 21-41 26-52 48-5 19 3 33 5 47 0 4-2 6-3 7-9-12-13-23-15-36-1-9-2-13-1-19 2-11 8-16 14-21 13-10 27-16 35-26 6-6 7-12 10-18-12-2-24-4-35-7-11-10-16-23-22-33-5-14-6-27-5-41 3-13 5-24 11-33 17-18 27-39 46-49 16-11 34-18 52-22 14-2 25-4 37-4"/><path fill="#215792" d="M266 220c-2 2-5 0-7 1-19 4-48 8-53 14-3-7-13 1-17-3-8 3-9 10-15 11-4-1-4-5-8-4-6 3-9 7-11 10-1 7-1 12-1 18 15 5 28-4 43-5 3 1 4 3 5 4 8 2 14 0 19 1 8 0 4-9 11-9 13-1 23 0 35 0-6 6-19 11-30 16-10-6-20 1-28 2-9 6-15 12-18 17 34-13 71-20 109-25-8-2-20-3-29-3-2-4-2-3-4-5 16-4 32-9 48-7 8-1 1-7 3-8 19-14 21-3 4-16-13-1-23 6-35 4-13 0-1-12-13-11-4-1-5-2-6-3"/><path fill="#3081AD" d="M233 195c-25 1-46 7-67 13-8 14-12 26-13 40v2c3-5 7-9 12-11 4-2 6 2 7 3 8-1 9-8 15-9 6 2 16-6 18 1 8-6 40-11 59-15 16-2 17 9 20 13 15 2 25-5 37-3 9 2 9 11 18 5 0 2 12 9 10 15 1-4-1-8-3-12 6-3 11-6 16-8 18 14 35 14 50 17 0 7 0 7 1 4-7-7-6-14-9-22-16 3-28-10-41-15-17 6-37 5-54 3-24-10-49-21-74-22"/><path fill="#293275" d="M333 268c-14 1-26 2-39 4-28 4-53 8-77 16-17 5-33 9-45 19 12 11 25 8 37 11 4-9 5-17 7-26 3 11-1 20-2 28 10 1 7-17 12-23 10-2 14 5 18 9 2-2 3-5 4-8 7 6 9 8 13 12 2-5-1-12 4-16 7-4 8-6 14-6 8 8 9 18 6 28 6-10 10-18 12-32 3-6 7-8 12-6 4 3 6 5 6 7-1 13-5 22-6 32 4-1 7-1 9-3 2-12 1-21 0-30 15 2 31-5 44-1 9 13 11 10 16 12 28-3 47-30 0-26-14-2-29-2-43-1"/><path fill="#183D79" d="M332 238c-11 2-13 9-13 15-20-1-36 4-50 6-14 0-24-1-36 0-7 0-3 9-10 8-7 0-13 2-19 1-4-2-4-4-5-6-17 2-31 10-45 6 2 15 9 26 16 36 17-7 25-17 36-28 11-2 21-9 29-2 12-7 32-13 32-12-1 6 21 0 29 5 36-2 75-6 108 2 9-6 10-18 3-23-4 4-4 9-6 12-15-1-26-19-42-15-10 2-3 12-10 15-1-5 0-12-4-17-4-4-8-4-12-3"/><path fill="#AAF3F7" d="M321 146c33 12-21-1-32 3-12 0-19 2-24 6-11 0-19 2-27 4-16 3-29 8-41 16-7 5-18 17-7 18 12-4 23-9 35-10-7 0-2-11 0-14 13-8 25-11 37-13 15-1 27 1 38 4 11 5 19 11 26 20-24 6-51-10-76 3 26 2 47 12 71 17 8 0 13 2 16-3 1-9-7-13-11-19 15-5 34 6 42 0 19 8 30 26 39 40-1-5-3-11-6-17 4 2 6 6 8 11 7 13 12 25 14 38 2 14-2 25-3 29 6-17 5-37 1-48-3-12-7-22-12-28-5-11-14-19-23-27-8-6-17-12-25-16 10 6 22 14 30 24-15-12-56-31-45-31-10-3-15-5-19-5"/><path fill="#42B0CC" d="M233 184c-19 1-35 7-50 16-5-3-6-8-4-11-26 31-13 17 14 11 13-3 25-5 38-6 28 0 53 11 75 21 20 2 40 3 54-4 16 6 28 19 43 15 4 12 6 17 11 25 0-6-1-13-1-18 7 13 4 28 2 39-4 2-5 0-7-1-12-2-21-4-30-5 9 1 19 2 27 6 7 2 14 5 14 11-3-18 5-43-9-61 1 3 6 17 0 14-7-13-10-28-19-36-17 0-28-6-40-9-14-2-12 17-26 11-31-6-58-19-91-18"/><path fill="#4D518E" d="m302 280-2 1c-4 14-7 25-14 36 1-10 0-19-5-28-8 0-8 2-14 4-6 6-3 13-6 18-5-4-6-6-11-12-3 3-2 7-3 10-8-7-14-14-19-12-4 8-5 15-8 22-3-2-6 3-6 1 1-11 4-18 4-26-3 12-6 23-10 33 14 3 20-2 33 5 1 6 9 6 9 13 1 5 0 8-1 11 3-8 5-16 7-23 9-3 15-7 18-14 5 14 8 19 4 33 2 6 6 11 8 15-4-22 15-38 13-62 2-4 5-7 8-5 2 5 1 12 2 16-2-12 14-34-4-39"/><path fill="#B6BFE4" d="M356 372c-6 3-2 9 1 11-5-2-7-4-9-6s-3-1-4-1c-7 4-11 12-7 19-4-6-4-12-10-16-29-9 1 26-1 36-1 4 0 8 2 10-5 0-7 5-10 1 2 6-3 13 2 19 12-7 9-4 12-16 4 4 6 10 7 13-1-11 2-19-3-30 4 1 8 19 9 19-6-11-7-32-9-31 2-10 8-15 10-22 4 1 6 3 8 5 7 5 4 12 7 15-8 11-10 23-8 33 10-3 4-14 11-22 6 6 2 18 8 23 2 2 5 5 7 3 3-21 16-22 13-37 7 1 10 4 16 7 9-2 5-9 4-14 7 3 8 7 9 9-7 16-8 30-15 44 5 1 2-9 7-8 6-15 5-18 9-36-2-7-8-10-12-13-7-1-14-8-23-6 2 4 5 8 6 12-12-7-24-15-35-20"/><path fill="#97A1CD" d="M301 323c-2 24 4 48 0 66-1-1-5 7-7 9-2 6 0 9-1 14 1-4-1-8 3-9 4-3 5-7 10-5 10 7 12 19 13 27 3 4 5-2 6 1 5-9-8-32-12-45-1-4 0-6 1-8 8-1 12 4 17 7 4 6 3 11 5 14 0-3-3-6 0-9 4-5 2-8 9-11 8 9 16 10 16 23 4-8-5-12-8-17-2-4-1-7 1-8 15 4 26 13 37 20-1-5-4-7-7-12 12-1 19 4 27 7-18-13-35-27-41-45-6 5-3 12 0 18-5 0-9-11-14-8-1 6 3 11 6 14-8-3-15-9-20-16-8 1-14 3-19-5 0 2 4 18 14 22 1 7-2 10-6 9-9-9-16-17-21-26s-2-18-6-24"/><path fill="#96A0CD" d="M273 335c-5 5-11 11-13 18 1 6 3-1 5 1-13 15-17 14-32 25 1-3 4-6 2-12-6 2-10 8-15 10-4-3 3-15-2-13-13 8-17 17-41 38l1 2-2 2c-2 4 0 7 0 13 2 11 6 20 12 27-7-12-14-27-12-41 4-6 9 2 12 0 1 5 0 8 1 12 1-4 6 2 8-5 2 8 3 11 4 15-3 2-2 8-5 6 5 5 7 11 12 16-2-11-5-23-10-33 1-4 0-5 2-5 15-5 27-14 39-24 7-9 16-20 26-25 4 13 2 10 7 17 0-7 8-11 9-17-3-5-6-2-8-2-1-9 1-16 0-24"/><path fill="#777EB1" d="M275 319c-3 7-9 12-18 12-3 10-4 18-7 26-2-4 0-7 0-10-1-9-9-8-8-14-14-7-20-2-33-4 0 0 9 0 8 4-5 17-4 33-14 45 4-6 13-16 13-14 7-2 3 10 1 14 6-1 11-10 16-12 5 5 2 10-1 13 15-12 19-10 33-25-3 0-6 7-7 1 3-9 9-15 14-21 4 8 1 17 1 24 5-2 8 1 9 5-9-15 1-28-6-41"/><path fill="#D4FBFA" d="M264 157c-7 1-15 2-22 4-10 4-22 8-19 21 16-1 29 2 42-6 23-1 41 8 60 4-4-6-10-10-16-13-10-7-20-9-30-10-6-1-10-1-14-1"/><path fill="#787FB1" d="M370 311c-15 4-29 9-48 11-1 9 0 20 2 25 3 1 10 6 16 0 7 8 13 14 20 18-3-3-7-9-4-13 6-2 9 7 14 9-4-7-7-14-3-20 5 3 7 8 10 13-4-13-4-28-7-41"/><path fill="#4D508D" d="M352 282c-10 2-23 4-31 3 0 10-1 23-1 36 24-1 39-9 59-13-2-5-4-23-5-10-6-4-5-9-7-12-4-4-10-1-12-3"/><path fill="#B9C2E6" d="M267 363c-11 5-21 15-26 25-13 10-25 18-39 22-1 14 6 28 6 42 4 2 6 3 7 4-6-12-5-23-11-34 6-6 19-26 35-31 5 14 15 32 24 57-4-20-8-41-18-59-1-8 6-13 10-16 11 10 5 30 13 43-2-9-2-28 0-33 25 15 20 46 40 61-2-9-4-17-3-27 2-5 2-12 7-13l2 3-2-2c-3-5-5-7-9-6-10 0-8 8-9 15-1-8-3-12 0-17-5-7-10-13-14-20 2-20-3-6-7 3-3-13-6 0-6-18"/><path fill="#C6D1EA" d="M380 323c3 12 8 17 15 22 14 13 32 18 44 32 11 20-5 41-1 56 10-7 12-17 16-31 1-9 1-17-3-23-19-21-68-46-68-53"/><path fill="#6EE1ED" d="M329 176c-3 6 11 11 10 18 2-5 10-1 14-4 14 7 28 7 41 10 7 12 11 23 15 34 4 0 1-9 1-12 3 0 3 3 5 5 8 18 5 38 2 51 6-6 7-19 4-31-3-17-9-32-18-45-2-3 5 12 6 17-7-4-9-11-14-16-7-9-13-17-21-23-9 5-28-4-42-3"/><path fill="#DDE2F7" d="M256 373c-4 4-11 8-12 14 13 20 22 66 16 58 8 1 10-3 9-7 0-19-3-35-1-52 6 2 8 6 14 10-4-4-10-8-13-12v1l-2 2c1 10-1 21 2 30-8-13-6-31-9-45"/><path fill="#747BAD" d="M302 300c-3 19-9 38-15 53-2 6 5 14-1 15 7 8 11 16 16 23 0-19-1-40-3-65 5-6 7-1 7 1 1-9 3-20 0-26"/><path fill="#CED8F1" d="M392 339c22 20 41 15 59 40 1 12 4 7 4 17-5-6-6 23-16 34-1-16 9-31 2-48-11-21-33-25-47-39"/><path fill="#81D6E8" d="M274 146c-14 1-28 3-40 8-17 6-29 11-43 22-8 10-14 10-11 19 5 5 13-3 18-4-3 1-7 3-9 3 0-1-8-3-4-6 12-17 26-23 33-24 22-8 46-9 67-17 72 8 38-2-13-2"/><path fill="#1C5D8F" d="M365 230c-27 2-11 21-17 24 6 0 1-11 9-12 19-3 29 14 44 14 1-3 1-8 6-11-6-5-10-1-15 1-11-5-17-15-26-16"/><path fill="#DFE6F7" d="M210 330c-5 32-43 35-57 59-6 20 4 37 7 52-2-14-9-30-3-46 10-20 31-25 44-41 7-8 11-17 12-24"/><path fill="#D5DFF6" d="M392 340c14 15 35 19 48 37 10 18-1 36-2 52 7-4 9-27 13-24l-1 3c3-10 3-20-1-28-17-25-37-23-54-37"/><path fill="#D4DAF6" d="M412 393c7 5 2 10-2 13-8-3-11-5-15-9 12 10 1 33 8 46 5-5 11-28 16-40 0-6-1-9-5-10"/><path fill="#B9C3E1" d="M203 343c-12 19-41 25-54 46-4 8-2 16-3 23 3 12 8 17 16 37-1-18-8-34-3-52 11-21 43-31 48-48-7 13-33 26-46 40-11 19-2 38 1 53-6-10-10-21-11-33-2-8-2-15 2-21 13-21 37-23 49-43"/><path d="M313 324c-9-1-3 15-4 20 5 11 11 18 17 25-1-12-9-28-6-45l-3-1h-1v1"/><path fill="#B6BFE6" d="M185 395c-3 2-6 5-9 7v3l2-1c-3 8-3 1-3 9 7 21 8 30 18 41-6-21 3-25-8-48-1 0-5-5-7-2 0-4 2-6 4-8"/><path fill="#DDE1F6" d="M240 392c-16 5-29 23-32 31 1 10 11 40 4 32 6 1 9-3 8-5 0-14-7-23-5-35 5-9 21-24 26-22"/><path fill="#2A4C9A" d="M176 304c-12 4 3 15 4 19 9 1 17 4 27 3 1-2 3-4 3-6-9-3-17-3-26-4-5-3-8-5-11-7-2-3-1-4 0-4"/><path fill="#2B4C97" d="M413 275c-8 13-21 17-33 24 0 1-3 5-1 6 11-3 20-8 29-12l2-1h-3c1-4 10-10 8-15"/><path fill="#343B48" d="M333 242c4-2 10 0 12 4 2 7-2 12-6 13-6 1-10-2-11-5-1-6 1-8 4-10"/><path fill="#ACF1F9" d="M165 205c-7 8-13 18-16 29-2 5-5 18-5 27 1 15 6 38 18 50-11-14-15-31-17-48 8-14 8-35 19-56"/><path fill="#ADB6E0" d="M223 382c-1 7-21 20-29 27-1-6 0-9 4-12 8-6 14-9 20-12"/><path fill="#3D4045" d="M335 243c-4 1-7 4-6 9s4 7 8 6c6-1 9-5 7-9-1-5-5-7-7-6"/><path fill="#5996DD" d="M152 262c-1 6-1 14-1 20 2 13 11 23 14 31-1-2 1-4 3-7-6-9-9-17-13-26 0-6-3-11-2-16"/><path fill="#E1E5F8" d="M310 405c-2 4-3 7-4 10-1 12 1 22 4 30 5-11-5-32 4-39"/><path fill="#D9DEF8" d="M192 433c-3 5-1 15 4 22l-1 1 1-1c5-2 1-11 5-13l2 3-1-3c-3-3-5-9-8-10"/><path fill="#B2BBE3" d="M221 384c-8 6-25 11-28 22 11-5 20-14 30-21"/><path fill="#7DD1EF" d="M149 248c-1 7-4 17-1 25 0 5 2 7 1 10 4 12 8 21 15 29-4-8-11-17-13-27-3-13 3-25 0-36"/><path fill="#DEE2F6" d="M280 366c-2 12 8 20 13 30 2-3 5-4 6-7-3-3-17-11-20-20"/><path fill="#353E4D" d="M406 248c8 2 6 12 1 18-5-4-5-7-4-11v-3h1"/><path fill="#7E88BC" d="M198 416c-12-3-9 5-1 16 6-4 0-11 1-16"/><path fill="#CFFAFA" d="M342 154c16 8 32 17 47 29-13-14-28-23-44-29"/><path fill="#D7DEF5" d="M335 402c8 20 3 41 6 47 6 1 3-20 6-12-3-1-9-24-11-32"/><path fill="#3F6CBC" d="M167 302c8 5-5 8-1 14 4 4 8 5 12 7-3-4-6-9-8-13 1-4 3-5 5-6-3 0-5 3-5 1"/><path fill="#D9E0F7" d="M360 398c-7 8-14 22-12 32 2-8 4-22 13-30"/><path fill="#387AB4" d="M413 233c7 23-11 42 2 34 2-3 3-19-1-30"/><path fill="#858686" d="M334 244c9-5 12 10 2 10-4-1-1-5-3-6"/><path d="M282 365c-4 9 8 14 12 19-2-6-7-12-11-17"/><path fill="#B1B9DF" d="M332 364c-1 3-3 5-5 8l4 4c4-1 3-1 5-3 0-2 2-6-3-7"/><path fill="#99A6C9" d="M380 313c-3 3-9-1 4 22 3 2 3 2 0-1-2-5-4-8-6-11 5 9 13 9 19 17-9-9-16-22-18-27"/><path fill="#1A4C85" d="M343 258c5 3-9 9-12 3 1-2 7 0 10-2"/><path fill="#0C111A" d="M406 250c-3 3-3 9-1 13 9-3-6-12 6-14"/><path fill="#D4EFF3" d="M290 142c4 4 24 0 32 5-4-3-14-5-29-6"/><path fill="#AAB2D7" d="M356 385c6-1 8 8 6 12-4-2-1-7-4-9"/></svg>