<svg xmlns="http://www.w3.org/2000/svg" width="600" height="600"><path fill="#795D30" d="m208 116 2-1c20-2 36 9 52 15 28 14 52 37 78 48 21-11 47 2 66-10 8 9 20 13 27 15-10-20-28-35-44-46-1-5 3-9 5-9 16 8 27 20 40 33 6 9 16 17 13 27 10 17 32 20 38 39 8-8 7-16 5-24-9-19-21-35-36-48-5-5 1-9 4-7 14 8 22 17 29 31 9 12 13 23 15 36-4 9-10 12-12 19 2 16 4 34-1 47-11 21-30 44-38 53 7 1 14 6 19 9 8 15 22 30 24 47-5 5-5 10-9 12 7 5 4 16 4 24 5 3 4 9 9 11 6 3 12 5 17 4 5 0 6 3 6 4-13 11-23 5-35 5-2-5 2-3 4-5-16-8-12-24-28-36-1-4 2-6 3-7-6 2-11-5-17-8 3-8 8-14 13-18 4-6 5-11 4-16-5 2-10-4-15-6-6-4-2-7-4-11-10 12-22 3-33 6-7-3-10-8-12-13-11 1 1 7-2 11 9 20 18 40 24 61-3 14 0 26-3 39 0 18 14 26 20 35-8 1-15 3-20 0-6-18-18-29-21-44 7-20-4-26 1-43-4-3-6-4-7-7 3-9-2-17-5-25-5-3-8-5-11-8-5 10 3 18-4 27 3 4 7 7 8 10-1 9-4 16-1 22 7 8 5 11 13 17-1 4-3 3-4 6-12 1-17-8-26-11-8-8-10-18-20-23-2-5 2-8 4-9-1 0-5 0-7-1-2-12-8-19-9-28-7 3-10 11-18 6-13-3-19-14-24-24-2 8-3 20-11 27 5 20-6 36-5 51-6 9-14-3-20 7-5 14-27 25-33 37-13 1-24 2-36 1 1-3-4-2-4-6 9-6 16-4 23-8 8-8 15-10 18-18 7-8-2-6-2-13 5-3 8 1 11 0 1-20-2-39 9-54-9 4-11 13-18 17-14 1-30 18-47 16-11 13-20 22-29 30-5 4-11 2-18 1 1-3-7-2-2-8 5-4 9 3 14 0 5-2 2-6 5-9 1-27-10-48-7-77 2-10 11-27 16-25 4-10-3-18 8-25 21-15 33-28 54-41 14 1 24-3 35-4 13 15 14 6 23 20-3-10 9-17 5-28-41-21-85 1-129-17-8-7-19-4-23-13-1-6 1-12 6-13-14-5-30-6-42-17-6-5-9-10-12-14 6-27 43-9 54-13 36 11 67 31 100 38 19 11 36 21 56 28 1-7-11-2-13-6-4-6-3-11-5-14-12-4-22-7-33-10-1-7-7-13-9-17-3-6 2-7 2-9-11-9-17-17-20-28-2-6-5-11-4-15"/><path fill="#160910" d="M449 223c1 13 11 40 0 57-4 3-6 5-8 7-7-3-20-11-21-21 4 16 9 34 20 42-8-2-13-3-18-4-1-6-19-22-17-30-11-7-3-47-11-44-2 6-2 19-3 28-3 3-4 1-5-1 3 3 2 7 3 11-5 11-11-1-12 4-13-9-9-16-19-26-5-5 6-8-1-16-3-4-5-2-8-3 12 16-17 26-11 43-4 6-8 5-11 2 1 2 2 3 4 5-6 5-13 14-10 24-9-1-4-10-2-12-5-10-20-7-17-19-2 7 0 13 1 19-6 3-8 13-11 19-6 19 4 7 1 29 5-5 1-17 4-22 18 14-3 21 19 33 3 5 7-2 8-5 20 18 2-3 20 8 5-3 8-8 7-12 1 10 11-5 8 6 2-2 3-5 2-8-5-6-10-11-13-17-4-7-4-14-6-19-1-8 10-12 7-13 11 8 19 2 21 9 2 1 3 0 2-2-1 5 12 11 15 22 7-5 9 5 18-5 5-6 6-12 8-15 3 3 5 3 7 5 8 2 12 6 17 8 4 0 6-1 7 0-11-4 1-22-15-26 4-1 7 0 9 2l3 1h1l1-1c5-3 8 0 10-5 4-21-1-40-3-56"/><path fill="#1A0F16" d="M159 308c10 9 17 19 16 29-8 2-15-3-23-6l-1-1v1c13 8 27 14 35 23-11 4-13 14-22 14 2 5-11 4-5 10-4-2-5-3-6-5-12 14 12 20 4 25 5 3 7 4 11 5 30-6 25-10 51-20 3-4 6-7 7-10 1-7 1-13-4-11 4-11 19-10 16-22l1-2v-2l1 3-2 2c-1 3-7 9-11 8-6-6 5-9-1-13 6-5 10-8 15-11 0 3 1 7-2 9 21-31-9-12-20 3-9 8-11 16-15 23-8-2 3-8-4-10-1 0-6-1-7-3 0-5 3-2 3-4-5-4-9 5-15-3 1-3 3-4 5-5 4-1 5 0 6 3 1-17 15-12 17-14-9-6-15 3-22 4-11-6-19-12-27-18"/><path fill="#2A1C1D" d="M356 315c-2 4-4 6 0 8 9 5 10 5 19 10-15 6-17 29-30 24-5-3-10-8-10-11-1 2 1 2 0 3-5 1-6-3-9-4-2 2-7 9-11 5-5-3-4-9-8-10-3-3-5-3-4-4-4-5 2-4 2-5-12 1-8-10-7 8 2-4 5-4 6 0-2 6-6 9-12 9 2 3 4 6 5 10 7-9 23 11 30-3 8 15 11 21 16 34 6-3 7 5 11 0-2 7-11 7-8 12 12 15 19 22 35 33 2 1 4 1 5-1-6-10-1-11-13-20 7 0-1-7 3-9-2 2-2 4-5 4-1-8-6-10-11-15 12-6 2-27 12-31 5-26-4 10-5-19 0 4 11-4 11-9-9-3-16-11-22-17"/><path fill="#CFA854" d="M93 149c-26 9-5 24 7 33 16 7 31 11 45 14 6-1-6-7-5-10 6 6 11 5 14 12 10 1 14 1 22 0-15 5-30-15-34-13-3-10-17-6-33-16 8 0 17 7 27 2-3-4-11-13-4-17-9-1-25-6-37-3"/><path fill="#F4E4AF" d="M208 116c-1 7 1 14 5 20 5 10 12 18 18 22v3h3l-1 2c-2-1-4 2-5 3 3 8 11 12 10 18 7 0 16 3 24 5-2-6-11-7-17-20-2-6-3-7 5-8-11 5-10 0-13 0h-4l-1-3c6 2 7 1 11-1-1-2 3-12 8-14 4 4 5 9 4 15 2-11 4-20-3-29-13-8-26-14-42-12"/><path fill="#351605" d="M277 218c9 7 20 11 31 16-10 5-19-1-29 0 14 5 31 4 42 12-6 2-6-4-10 0-1 8 1 13 0 18-8 3-10-2-14-3-1 2 0 3-1 6-9-6-12 3-16 6-11-7-15-9-25-16-3 6-2 13-1 19 13 2 11-4 18-2-2 11-5 15-10 22 3-5 6-9 12-11 8-6 15-7 24-6 8 13-6-1 4 10-7 4-9 12-11 18 3-5 5-16 11-16 0-9-5-15-3-22 1 10 27 14 17 33-2-17 18-20 11-28 3 0 6 1 9-2 1-6-3-11 3-15-8 1-5 10-13 10-2-22-3-11-1-27-11-5-31-14-46-20"/><path fill="#2D1916" d="M250 282c-3 2-5 9-7 13-14 4-29 10-38 14 6 0 3 7 5 14-8-1-6-2-19 13-2 9 9 3 2 11 5 3 7 1 9 0l1 3-1 1-2 1c-2 2-2 0-4-1-1 5-3 7-1 10 4-4-5-4 6-9 7 0-6 11 2 7 4-12 10-22 20-33-2 0-2-2-3-1 1-8 11-8 3-14 11-2 16-11 25-12-1 7-3 15 0 16 3-6 5-12 9-15 1-6-2 0-4-2 6-9-4-5 0-16"/><path fill="#C7A45C" d="M130 197c-11 15 23 23 35 27 21 6 39 5 56-1-29-2-54-19-83-24l-3-1h-1v1"/><path fill="#F7F3D9" d="M240 161c6 9 19 26 25 25 5 6 8 3 12 3 1 5-3 6-5 7 4 2 3 8 8 11 4 1 7 2 10 3 4-7 15-7 17-15-5-3-12-6-17-5 1-3-4-7-4-10-15-9-29-16-46-17"/><path fill="#FBE50F" d="M176 279c-18 15-31 26-2 35 2 0-2-4 1-5 11 5-3 9 5 10 6-7 7-1 9-9 15-8 7 9 17 7-8-12-18-25-28-36"/><path fill="#F09C03" d="M335 181c-17 2-2 11-29 19 6 8 8-7 11-3-3 7-8 26-5 26l4 2c4 4 4 7 2 8 7-4 17 6 14-5 5 5 7 8 9 11-3-8 7 4 4-6-9 3-12-10-18-14 3-6 6-3 8-11-3-15 1-18 2-29"/><path fill="#C87201" d="M460 205c-4 1-4 4-5 8 4 1 8 6 13 10 3 5 4 12 5 17 2 9-8 17-12 16 2 8-4 18-1 25 12-4 19-17 22-11 1-5 8-5 7-13 2 7-6 3-9 6-1-5 2-5 4-6 2-9-2-13 0-19-19-5-3-20-20-26-3 0-6 0-7 3-3-6 2-5 2-7 5-3 8 4 11 3-3-2-5-2-8-5"/><path fill="#F7F3D9" d="M247 125c13 2 5 22 20 21-3 2-6 1-9 0-1 6 1 10 0 16 9 5 16 8 23 12 6 1 8-2 11-3-3-5-8-7-11-11-2-6-5-13 2-14-12-7-22-16-33-20"/><path fill="#E8D7A2" d="M281 147c-5 9 5 18 13 23-2 3-3 2-3 4 1-2 3-1 4-2 8 6 12 12 16 17-3-11 5 4 6-11 0-1-3-2-4-4 5 2 6 5 10 7 3 0 5-2 7-2-17-12-30-21-46-32"/><path fill="#251920" d="M250 385c8 5-13 24-6 36-6 5-8 2-11 7 0 7 0 1 4 9-5 0-9 5-14 3-3 5 6 3 6 4-4 8-16 4-15 7 7 6 7-3 14-4-1 4 3 0 6 2-2 3-4 4-4 6 17-12 17-30 30-37-5 1-5-5-7 1-1-6-3-8-2-12 2-8 8 5 9-4 1 3 3 3 3 6 1-3 4-4 4-5-13-1-10-13-14-18"/><path fill="#924E00" d="M293 280c-14 10-26 36-27 42l-1 2 1-3c2 5-2 11-2 15 4 2 6-6 8-2-4 10-12 14-8 25 1-19 20-25 23-38 1-2-2-4 0-9-5 5-6 12-13 14-7 1-6-4-4-7 4-10 9-17 14-24 4 2 4 6 6 3 4-3 5-6 9-8-5-7-8-10-4-9"/><path fill="#592601" d="M301 240c-1 2-2 3-4 2 3 12-13 8-10 15-1-7-4-9-7-10 1 20-8 3-2 26 6-2 8-14 17-6 1-4-1-4 0-7 6 1 8 6 14 4 2-5 0-10 1-17 17 2 4-5-7-6"/><path fill="#5E2F02" d="M269 316c-8 17-13 35-14 55-4 6-9-2-10-1 4 3 7 6 10 2 1-12 9 5 13-3 1-3 10-23 12-14 20-55-3-22-16 8 13-37-5-15 3-47"/><path fill="#2C1B1B" d="M388 318c5 4-1 13 0 11-4 4-9 8-9 13-6 8-7 5 5 8 0-4-3-6-6-6 8-9 6-7 13-9 0 1-1-2-3-2l6-6c3 2 0 4 0 5 4 4 6-1 9-1-5 7 5-2 9 12 4-5 18-2 17 1 5-1 12-2 10-8-4-5-15-9-24-11-5 1-7 5-11 6 0-2-3-2-2-2-7 1-2-6-6-2l-1 1h-1l-1-3c3-1 3-4 4-6-6-7-3 9-8 1"/><path fill="#3B2C2B" d="M469 353c0 9 11 17 10 31 0 6-2 10-3 14-3 0-5 1-6 0 2 3 3 4 7 6-10 0-9 5-7 8 15 19 9 14 22 26-11-10-3-11-10-35 3-3 5-6 4-13-6-15-10-29-15-34"/><path fill="#F8D401" d="M393 182c-17 1-13 7-8 18 2 3 6 5 9 2-2 3-3 6-4 10 19-15-4 13 24-13-5 0-2-2-4-3-7 0-8 7-13 8 1-5 5-7 7-10-3-6-6-8-8-11"/><path fill="#C8A151" d="M187 199c-4 3 11 7 15 10 7 4-3 6 3 7 17 2 42 14 50 5-21-5-52-19-68-21"/><path fill="#43312C" d="M432 225c2 8 11 12 9 21-1 4-5 7-7 8-6-3-6-8-9-11-1 16-3 15 3 29 1-2-4-4-2-8 10 1 16-3 21-9 2-10 1-17-3-22-5-1-7-5-10-7"/><path fill="#CDA34C" d="M216 193c-1 2-2 3-2 7-29-5 21 12 36 17 3-2 0-3 3-5-12-8-24-13-35-19"/><path fill="#945401" d="M348 293c-4 2-6 6-3 8 10 13 19 25 32 30 1-1 5-7 1-18-2-4-1 5-6 2 4-6 3-13-1-13-2 2-4-1-5 1 4 0 4 7 6 9-1 4 2 3 2 4-2 3-9-2-6 1-9-6-11-11-17-17 2-5 3 0 4 1 3-3-1-4 2-6-6-6-5 6-9 0"/><path fill="#1C0E12" d="M411 314c-22 8-17 15-8 15 3 3-5 4-4 5 7-4 10-8 13-11 12 3 23 7 28 12-1-5-4-9-7-13-7-4-12-6-17-7l-3-1h-1v1"/><path fill="#F4A300" d="M224 256c-10 6 3 7 4 11-5 1-5 3-9 6 1 3 4 5 3 9-4-1-4-4-6-6 1-8-3-11 0-18-33 3-8 16 5 26-6 1-7-2-9-2 2 0 3 3 4 3 8-1 13-8 20-3-4-4-4-9-7-13s-3-8-5-11"/><path fill="#2C1B19" d="M441 187c4 9 7 18 8 28 1 4-1 4 0 7-3-2-5-2-4-3-4 8 6 20 5 33-6 11-13 11-19 14-6-3-4 6-7 0 4 9 2-1 4-2 10 16-6 4 2 13 2-3 6-3 9 0 2-18 17-7 11-21 0-10 3-31-1-24 0-12 5-7 1-16-4-5 0-9-1-13-1-6-1-11-5-15"/><path fill="#EA9800" d="M456 215c-4 13 6 7 9 16-3 10-7-4-9 5 4 5 2 20 5 19 5-2 8-3 11-7 1-7-3-11-1-18-2-5-10-14-13-13"/><path fill="#9B4F00" d="M484 266c-1 4-2 6-4 9-4-1-1-3-1-5-14 11-27 12-33 26l-2-1-1-1v-1c2 4 5 6 6 10 1-3-3-3-3-5 4 1 6-1 5 3 7-7 15-14 15-12 6-5 11 2 14-1-7-4 4-13 3-19"/><path fill="#200E0C" d="M255 253c-5 1-8 5-6 11 1 15 9 27 4 31 2 0 4 3 6 2 7-8 10-12 13-19-5-3-8 0-18 0-5-11-1-19 1-23"/><path fill="#301B17" d="M456 151c1 8 22 21 27 34 10 9 9 28 13 35 4-12-2-26-9-38-14-24-28-27-29-28"/><path fill="#CCB377" d="M135 178c6 12 17 6 24 17 6 3 13 2 19 2-7-7-16-10-23-17-8-1-13-2-19-1"/><path fill="#3B1F0F" d="M158 309c-2 9 5 3 6 5-8 15-10 7-15 15 5-1 19 11 24 9-4-3-2-7 2-8-7-3-4-12-10-13-2-5-4-4-5-7"/><path fill="#422F29" d="M247 301c-9 2-14 9-22 10 7 6-5 8-6 14 1-3 3 1 4 1-6 8-10 15-15 21 5-6 14-16 15-19 4-1 11-8 13-14 3 1 6 1 11 0-5-4 3-10 2-14"/><path fill="#F8E65F" d="M377 186c0 11-3 8-12 15 4-5 10-5 13-1 0 6-4 8-8 4l1 2v1l-2 1c6 9-7 8-5 14 0 5 7 3 8 7 4 1 4-2 5-4 0-8-8-8-8-17 2 4 9 1 13 4 0-8 4-14-4-25"/><path fill="#CB7901" d="M425 205c-23 24-8 1-21 15-4 6-3 29-2 41 4-5 6 3 8 1 3-9-7-12-8-19 10-3 5-27 21-34"/><path fill="#3C2F2E" d="M292 328c-2 19-7 9-8 18-4 5-1 11-5 14-10 9-11 23-17 24 0 2 3 1 4 4-3 1 2 9 2 14-2-8 1-24 15-39-1-7-3-15 1-15 7-6 11 5 20-7-3-9-7 2-10-4-2-2-3-4-2-5"/><path fill="#F7DA09" d="M130 152c67 26 131 58 196 86-64-30-128-59-193-86"/><path fill="#341A0C" d="M417 249c4 29-5 14 7 41l1 1 2 2-2 2c-3-12-13-8-17-11v-3l1 2c1 8 13 14 14 19 6 3 6 3 15 7-6-13 1-1-11-15v-1l-2-1 1-1v-2c-3-14-10-23-8-36"/><path fill="#8F5301" d="M264 328c-11 8-8 26-21 29 2 8 0 13 6 14 7-11 7-28 13-41"/><path fill="#D7C796" d="M161 179c7 4 13 8 20 12 9 1 17 1 22-4-12-6-25-5-39-8"/><path fill="#CFB77E" d="M127 154c4 3 4 14 12 16 5 1 9 3 13 5-2-4-9-6-8-10 13 6 22 12 34 12-21-3-31-17-50-21"/><path fill="#372828" d="M406 419c-2 7-2 14-3 22 1 10 9 6 7 14 4-3 8-4 9-3-2-16-13-15-10-34"/><path fill="#2A1613" d="M140 354c5 5 2 6 11 9-3 4-1 9-6 9 1 4 1 8 3 9 6 0 0-5 4-8 3 2 3 2 5 3 3-7 6-9 15-12-11 3-20-5-29-8"/><path fill="#2E1915" d="M469 360c-3 13-6 22-15 33 4 2 6 8 13 6-7-2 2-14-2-20 4-3 5-1 7-1 0-7-1-12-3-17"/><path fill="#462C1E" d="M252 279c-4 2-7 1-11 3 2 6 2 7-2 11-8 2-11 1-14 5-2-4-7-1-8-6 0 9-18 9-12 14 15-9 21-3 36-11 6-6 4-13 10-15"/><path fill="#603104" d="M391 237c-1 2 1 6-1 8-5 1-9 1-7-3-3 0-4 1-5 1-8 4-2 3-2 8-7 3-5-1-8 6 14 13-7 1 6 11 0-2 0-5-3-7 10-2 9 8 13 2 1-2-1-9-7-12 2-4 2-6 3-8 2 3 0 6 3 8-1-1 3 0 5-1 2-5 3-8 2-12"/><path fill="#C37206" d="M285 293c-10 27-6 21-17 28 11 7 13-5 17-9 3 1 2 3 3 5 5-8-8-10 3-18l1 3-1-3c-3 2-3 0-4-2"/><path fill="#31180D" d="M407 208c-6 2-9 8-12 13 0 3-1 5-3 5-2 7 1 15-2 21-2 5-6 3-6 6-5-4-1 0-6-2 7 3 8 9 6 11-6 8-3-1-11-1 2 2 2 5 4 7-3-1-7 0-7-2 1 2 3 4 4 6 4-7 9 6 14-3-7-15 7-5 2-20 4-8-2-18 4-24 1 4-2 11 2 6 1-4 2-1 2-11 0 2-1 7-3 2 2-9 6-4 9-8 0 4-4 8-4 13 1-6 7-13 7-13-1-3-3-3-3-5"/><path d="M160 201c7 4 23 10 33 13-2-6-6-9-10-13-8 2-13-2-20 0"/><path fill="#F6D709" d="M385 206c1 3-1 3 0 6-6-3-14 2-14-5 1 10 12 15 6 27 6-10 11-14 10-27"/><path fill="#F7F2D9" d="M295 174c-8 3-7 7-2 13 6 1 11 2 15 3-2-6-5-11-11-15"/><path fill="#F9D602" d="M336 208c-2 7-4 7-10 9 6 14 18 10 21 19 2-13-13-16-9-25"/><path fill="#DFA304" d="M413 181c-12 18 1 8 5 17 7 2 10-1 12-2-5-5-16-5-16-10 16 8 11 1 17 0-3-5-2 3-11-3-2 0-2 2-3 2l-2-1h-1"/><path fill="#C1820F" d="M254 211c5 2 11 6 16 8-26 2-20 12 11 10-6-11-18-13-24-18"/><path fill="#ADAA9A" d="M272 398c-4 10-6 21-11 29 3-1 9 6 11-1-4-9 7-24 1-24"/><path fill="#8B4201" d="M282 237c-1 4-3 7-4 11 2-7 3 3 6-1 1 5 1 7 1 9 4-6 28-18-3-18"/><path fill="#F5CE01" d="M404 173c0 5-15 0 4 21 0-2-2-3-4-4 9-4 5-11 15-6-1-8-13-4-14-12"/><path fill="#A44D00" d="M307 207c-29 11-6 20 11 22l-1 2h-2l3 1v-2c0-7-8-3-10-3 1-8-9-13-3-20"/><path fill="#F7F5DE" d="M263 312c-4 0-8 7-13 4-2 4-4 9-5 14 5-6 10-2 15-6 1-5 6-10 5-13"/><path fill="#BF7A01" d="M260 330c-7 1-6 8-8 13-9 2 0-14-9-9-4 12-1 14 3 19 6 3 5-4 6-7 4-12 8-5 8-16"/><path fill="#1A1016" d="M229 447c-7 4-8 10-16 5 2 1 7 3 5 5h-10 7l3 1v-2l2 1v2c-9 1-8 9-17 2 4 0 11 9 3 7 5 1 9 1 14 1-7-7 9-9 4-14 5 5 12-10 6-5"/><path fill="#4E2C07" d="M401 378c0 9 2 19 1 27 1 1 7 3 10 2-2-13-5-13-10-27"/><path fill="#8F5101" d="M472 298c-12 0-13 13-18 20l-2 1 1 1c3-1 7 2 9-3 3-6 6-12 9-17"/><path fill="#F1A301" d="M143 328c-2 5-5 9-2 14 6 1 11 11 16 9-6-6-11-21-12-23"/><path fill="#1D0E12" d="M363 388c-5 7 11 12 8 21 0-5 7-7 5-13-1-7-7-6-10-8"/><path fill="#371A08" d="M279 352c-4 6-8 11-9 20-4 2-10-1-12-5-2 8-8 10-12 5 11 2 13 4 19 9-3-6 20-18 13-27"/><path fill="#F8EDC6" d="M253 143c-10 4-7 16-11 16 4 0 8 2 12 3 0-7 0-13-1-18"/><path fill="#865704" d="M232 389c-1 4 2 9 0 15 3-2 2 6 7-4 3 3 4 4 4 6 2-5 3-10 7-14-4 0-24 0-16-3"/><path fill="#2E272A" d="m210 370 1-2c5 1 3 5 2 8 4-3 8-5 12-8-2 10-28 22-16 2"/><path fill="#C3983B" d="M378 227c-4 6-16 8-20 15l3 3-1-4c2 2 9 5 18-1-1-4-3-8 0-11"/><path fill="#432C1B" d="M346 309c1 12 9 20 18 27 4 7 7 0 10-1-8-3-7-8-14-7-7-10-11-5-14-17"/><path fill="#644B39" d="M427 220c4 4 1 9-4 5 5 2 9 4 11 8 4 3 2 7 3 9-1 4-4 6-5 5-6-4-7-8-9-11-3 11-3-2 0 22 1-7-3-11 0-15 5 2 5 7 8 10 5-1 8-3 9-5 1-7 0-11-4-13-2-4-4-6-5-8 5-1 7 2 11 4-4-1-8-7-13-9"/><path fill="#3A1A07" d="M360 195c-8 0-14 7-20 11 5 2-3 4 0 7 5 0 5 2 7 4 6-7 11-11 15-16-10-6 3 8-10 9-4-3-3-3-7-6 5-3 8-7 13-8"/><path d="M422 310c-19 6 20 3 19 18 1-2 4-3 4-6-3-8-16-3-15-13-4 0-6-1-7 0"/><path fill="#65462F" d="M406 141c0 1-1 3 1 5 15 12 20 24 30 33-5-15-13-25-33-36"/><path fill="#322A2A" d="M348 370c5-3 8 4 9 7-2 5-2 4-5 8-3-3-4-1-7-4 2 0-1-11 4-9"/><path fill="#23181F" d="M149 396c5 4 1 7 1 14 3-4 6 1 12 0-1 3-3 5-4 7 2-2 3-3 4-6 3-3 5-3 5-6-7-2-10-8-15-7"/><path fill="#F7A800" d="M191 312c-8 3-13 17 12 6-4-1-6-4-4-7-3-4-4 2-8 0"/><path fill="#2F1810" d="M424 275c7 4 5 11 14 13-1 16 12 21 7 32 3-3 0-7 4-13 0 8 9-2 5-5 0 1-2 3-3 4-5-5-8-8-10-14 4-5 9-7 10-9-6 0-1 3-11 5 2-3 3-4 3-6-2 2-3 0-4 5-9-3-8-7-12-11"/><path fill="#F7DE03" d="M426 207c-5 5-12 11-14 17-2 12 0 22 0 32-2-12 3-19 4-29 1-9 8-14 13-18"/><path fill="#935801" d="M387 340c0 16 4 15 5 26 10 9 1-4 11 3-17-4-5-24-13-28"/><path fill="#1F0F10" d="M384 331c-5 0-14 20-16 10 5 11 13 15 20 19-1-9-6-9-13-11 9-4-2-12 15-20"/><path fill="#D07300" d="M236 282c-9-4-14 8-22 3 2 1 4 3 6 5 7-1 21 2 18-8"/><path fill="#5B2E04" d="M413 270c-23 7 16 17 19 31-10-9-12-19-18-28"/><path fill="#654009" d="M233 403c0 5-3 16 3 20 8-2 5-11 8-14-9 2-7-8-11-3"/><path fill="#623A16" d="M245 253c-2 8-10 0-12 7 1 4-2 8 0 11-2-10 11-3 13-7 0-3 0-7 2-9"/><path fill="#F2A300" d="M355 178c-6 1-11 1-15 6 7 5 12 3 17 3-2-2-1 1-4-4 6-1 10-5 3-6"/><path fill="#C18203" d="M358 300c-5 4-2 5 3 10 4 9 6 5 13 7-4-9-7-12-15-14"/><path fill="#170D17" d="M254 375c1-1 4 4 6 7h-3l-2 1 3 2-1 2c-5 2-5-13-8-2 12-1 3 16 16 16 2-5-3-8-7-10 1-5 3 0 5 0 1-4-2-3-5-7 3-2 4-3 7-2-8 1-6-6-8-8"/><path fill="#CD6F00" d="M317 193c-1 11-9 10-15 13 2 1 2-1 3-1-6 10 8 15 3 20 0-4 6-19 9-29"/><path fill="#281D22" d="M148 417c-3 12-13 17-20 12 6 5 10 5 14 4 7-7 17-16 10-15"/><path fill="#9F5302" d="M429 190c2 3 5 6 9 8-4 5-10 3-14 4 6 5 4-1 15 1 10 8-5 5 9 7-5-8-4-12-6-15-4-2-7-3-10-5"/><path fill="#F8C601" d="M219 253c1 3-7 10-1 22 1 3 0 5 3 6 1-4-3-4-4-6 5-5 6-8 11-6-11-2-6-13-7-17"/><path fill="#210E09" d="M468 291c-9 2-11 11-17 16-3 3-5 6-3 9 5-11 16-20 23-25"/><path fill="#592803" d="M368 185c-7 2-7 6-12 8-7 9-6-5-9 2-5 4-8 7-10 10 8-10 6 1 17-11 7 2 6 2 10 6 0 0 0-6-4-5 3-3 5-2 8-3 1-4 3-4 1-7"/><path fill="#F9D603" d="M354 212c-1 2-6 5-3 9 4 2 6 3 10 2 2-1 2-3 3-4-3-4-6-4-8-6"/><path fill="#D1B779" d="M212 191c-2 5-19 2-25 4 8 3 16 6 24 8-4-2-10-2-13-5 5 0 10 0 13 2 0-6 8-6 1-8"/><path fill="#321A12" d="M452 343c0 1-6 2-3 8 6 3 10 6 14 7 3-2 2-3 3-4-7-1-6-3-13-10"/><path fill="#0B020B" d="M184 357c4 4-2 9-3 12-4 0-8 1-10 0 2-6 7-6 11-10"/><path fill="#F7CF01" d="M455 236c-1 13 4 30 0 45 6-13 4-29 2-43"/><path fill="#5D2A03" d="M272 217c0 2 12 6 16 10-4 2 3 7-3 7 8 0 14 3 21 3-10-6-29-16-30-19"/><path fill="#5A2801" d="M334 251c-3 0-6 5-9 3 0 3 3 8 2 11 5-6 22-12 3-12"/><path fill="#1E0E12" d="M450 263c-2 5-13 6-8 14-6-3-10 1-12-1 2 4 10 5 14 2 5-5 5-9 6-13"/><path fill="#433635" d="M297 356c16 21-8-7 17 6-8 5 13 2 8 6 13-5-3-8 9-9-7-1-11 6-17 1-5-2-9-2-13-3"/><path fill="#2E252D" d="M261 403c-1 6-5 5-7 1-4 5-1 9-2 12 3-5 5 3 7-1 4-5 7-5 1-9"/><path fill="#612F07" d="M203 218c22 7 46 11 69 16-24-7-43-11-68-15"/><path fill="#F9C600" d="M145 329c4 10 9 6 8 15 6 0 8 8 14 3-6-7-14-10-21-16"/><path fill="#CA7200" d="M160 349c1 3 5 8 11 11 4 1 5-2 7-3-3-18-16 7-14-8"/><path fill="#382C2E" d="M235 330c-15 7 7 9-12 15 7 2 9-2 12-2 7-7 1-7-1-10"/><path fill="#F4E17F" d="M200 283c-4 1-9 3-8 7s4 1 4 3c6-3 10-6 5-11"/><path fill="#F9EC74" d="M170 286c5 5-7 13-9 18-4-6 3-10 6-14"/><path fill="#23171E" d="M219 347c7 1-1 15-7 16 2-4 0-7 6-14"/><path fill="#4C2A0F" d="M157 314c-1 4-4 8-2 11-1-3 2-4 4-5 5 5 1 4-1 5 5 3 6-3 8 2 2-7-3-11-6-12"/><path fill="#603609" d="M477 383c0 3 1 6-1 8-2 1-1-5-6-3-4 4-5 3-5 9 3-1 7 2 10-1v-2h2l-1-3c1-1 2-3 1-6"/><path fill="#382D31" d="M298 316v13c2 1 3 2 6 1 4-6-2-10-4-13"/><path fill="#642A01" d="M158 352c-8 5 4 8 3 10 2 2 7 2 10 1-4-4-8-7-11-11"/><path fill="#644E3C" d="M432 211c-12 7-16 19-2 3 5 2 10 7 12 10 1-1 0-3 1-4-2-5-6-7-9-9"/><path fill="#573507" d="M414 421c-3 6 1 14 1 20 0-7 6-14 2-20"/><path fill="#281106" d="M289 268c1 0 10 5 6 10-6 2-10-1-9-1-2-5 5-4 3-6"/><path fill="#CCB37B" d="M183 198c-14 3-10 1 0 1l2 2 1 1 2 1c5 3 7 9 11 13 7 2-1-2 6-3-3-6-13-6-17-11h-2l-1-1v-2c2-1 5 3 6 2-2-2-5-2-8-3"/><path fill="#E89D00" d="M410 237c-1 3-8 3-6 7 2 6 7 9 8 13-2-5-2-12-1-19"/><path fill="#964C00" d="M406 261c-6 2-2 7-1 11 2-2 5-1 6-2 1-5 0-7-4-8"/><path fill="#623403" d="M395 347c-3 9 0 19 9 23-8 1-6-1-2 1-1-8-4-15-6-23"/><path fill="#1F0903" d="M322 239c4 4 1 5 7 5-19 12 10 7 9 0-6 2-8-1-15-4"/><path fill="#4F4442" d="M300 359c6 7 7 6 16 11 3-1 5-2 7-3-15 1-7-9-21-7"/><path fill="#945303" d="M279 222c2 11-7 6-9 8-3 5 30 3 11-7"/><path fill="#F1CE06" d="M273 299c-6 3-11 10-19 11 6 1 9-1 13-2 2-2 10-12 7-8"/><path fill="#8C4F04" d="M454 338c-8 1 8 15 11 11-14-5 9-7-9-10"/><path fill="#2F2021" d="M352 257c7-2 8 8 4 11-3 1-5-2-4-9"/><path fill="#DAC386" d="M300 155c-1 4 7 7 7 11-3 1-6 3-9 5 3-1 9-5 13 0l7 7c-1 8-6 12-6 6 0 3-1 6 2 5 4-2 5-5 9-6-5-5-7-9-11-11l-1-3-1-1-2-2c-4-9 1-4-8-8"/><path fill="#090209" d="M256 375c-5 4-12 5-17 9 12-10 21 10 17-8"/><path fill="#C57F00" d="M415 186c0 4 11 5 15 8 0 9-15 5-11 6 6 0 12 1 18 0-2-3-4-3-4-5-5-4-11-6-15-10"/><path fill="#59350F" d="M343 300c5 5 2 15 8 20 6-8-4-13-7-18"/><path fill="#D19618" d="M254 212c-7 5 9 11 15 8-5-2-9-5-14-7"/><path fill="#09010B" d="M185 359c-5 2-10 5-13 8 3 1 5 2 6 3 4-6 5-5 6-10"/><path fill="#FAF7DC" d="M363 203c-11 11-3 5 6 9v2l1-3c-5-1 2-6-4-7"/><path fill="#F5E5A9" d="M228 189c-2 4 17 8 22 12-4-5-13-8-18-13"/><path fill="#DEB106" d="M267 297c-5 1-8 6-11 10 4 1 21-12 13-9"/><path fill="#382A27" d="M414 456c-1 8 4 10 5 18 3 3 5 4 8 3-11-8 2-6-13-19"/><path fill="#1A0F11" d="M421 410c-10 9-5-2-15 5 5 4 9 2 13 1 3-2 4-3 3-6"/><path fill="#FBF193" d="M372 197c-13 8-3 8 3 8 2 0 2-2 3-4-2-3-4 0-5-4"/><path fill="#45260F" d="M162 318c7-2 8 8 7 9-4-1-9-3-9-6"/><path fill="#35180A" d="M196 268c11 6 18 26 29 28-8-3-17-19-26-27"/><path fill="#EB9900" d="M163 341c0 3 3 3 5 5-6 3-1 5-3 8 3 1 0-4 3-4 9-1 10 5 13 7 1-9-12-9-16-14"/><path fill="#BE6E01" d="M429 204c-2 6 3-1 5-1 0 7 8 9 12 11 1-4-3-6-5-10l-3-1h-1v1h-2c-2-1-3-1-4-1"/><path fill="#32272D" d="M153 409c0 2-3 3-4 5 5 2 5 6 3 6 11-6 10-12-1-9"/><path fill="#DECA93" d="m306 164 1-1c13 14-5 3-10 10 2-5 10-6 10-7"/><path fill="#844B01" d="M476 379c-8 0-12 5 1 12 0-3 0-8-2-11"/><path fill="#503221" d="M426 159c13 15 4 21 19 29-4-10-12-19-17-26"/><path fill="#683905" d="M382 314c-7 3-1 3 0 11 1 0 2-4 4-2-1 10-18 4-7 7 3 0 6-2 8-4-3-3-2-8-5-10"/><path fill="#534B48" d="M276 376c-3 1-6 4-7 7 2 9 5 0 8 6-1-4-2-7-1-12"/><path fill="#F9E989" d="M198 284c6-1 5 7-1 8-3-2-4-3-4-5l1-3h1l2 1"/><path fill="#736E6D" d="M192 372c6-2 7 8 1 9-4-2-4-6-3-8"/><path fill="#4E2504" d="M358 197c-4 1-7 4-10 6 1 3 3 5 3 9 18-10-10-10 7-13"/><path fill="#291A1A" d="M483 429c-1 7 9 8 11 17 7 2 12 2 14-3-5 5-8 1-12 0-1-4-20-14-9-14"/><path fill="#C87100" d="M338 183c-1 2 3 6-5 7-1 5 3 2 3 5 8-4 5-6 2-12"/><path fill="#1C0F11" d="M145 361c-2 2-1 5-2 8 1 6 1 9 2 12 1-2-1-6-1-10 4 2 3-4 7-5-3-3-3-5-4-4"/><path fill="#CE7300" d="M139 339c1 3-1 5-1 7 8-1 10 8 15 8-3-8-8-8-14-12"/><path fill="#F8D700" d="M342 188c6 4-5 7-6 11 6-10 32-10 7-11"/><path fill="#3A2F32" d="M358 363c4-3 11 1 9 5-3 4-11 0-8-3"/><path fill="#F8F6E2" d="M287 283c-5 1-9 4-13 6 2 0 5 3 3 5 3-4 8-7 10-10"/><path fill="#352728" d="M358 344c-3 1-2 4-5 5 1-9-10 11-16-2 3 5 4 9 7 9 5-4 5-4 8-4 3-2 4-4 5-6"/><path fill="#E19A02" d="M256 331c-2 1-6 0-7 2-1 3 0 7 0 10 4-1 3-9 7-12"/><path fill="#6D3402" d="M451 290c-2 2-5 2-7 4 1 6 2 7 4 11 5 0 5-3 6-4-5 3-3-7-8-4-1-5 2-4 3-5"/><path fill="#0B010C" d="M353 284c5-3 10 5 13 5-5 2-10 1-10-4"/><path fill="#250F06" d="M289 268c3 5-2 5-4 7 4 3 6 3 7 2 5-3-1-7-1-7"/><path fill="#261517" d="M193 351c8-1 6 7 3 10-2-2-5-4-1-8"/><path fill="#857E76" d="M273 387c-1 7-1 11 2 15 0-4 5-9 0-13"/><path fill="#3C3232" d="M143 372c-4 3-1 10 4 18 3 2 7 5 11 5-4-2-8-5-12-8 8 1-9-7-3-14"/><path fill="#582903" d="M216 191c18 8 39 19 55 25-16-8-35-16-52-24"/><path fill="#F7D604" d="M354 174c-9 6 2 2 5 2 5 7-4 5-5 7 6 0 10-1 10-6-4 2-4-5-9-2"/><path fill="#565050" d="M266 407c-5 9-5 16-17 24 4-3 8-2 10-6 5-6 5-12 6-17"/><path fill="#F4CB01" d="M361 228c-4 5 3 12 6 5 1-3-2-4-3-5"/><path fill="#422D24" d="M390 134c3 5 11 7 17 14-2-6-6-10-14-14"/><path fill="#584132" d="M416 203c-10 9 6 3 10 2-4-2-5-1-9-2"/><path fill="#807976" d="M234 356c-2 1-4 2-5 4-1 5 1 10-1 14 4-7 2-12 5-18"/><path fill="#965302" d="M345 240c-6 1-4 9-12 12 2-2 7-1 5 3 9-6-1-9 7-16"/><path fill="#6F5033" d="M242 274c-14 6 8 7 6 5 2-4-2 3-4-4"/><path fill="#F9F6E9" d="M140 173c-24 4 4 1 11 4-3-3-7-4-10-5"/><path fill="#24181E" d="M220 348c-3 3-5 8-7 12 3 2 8-5 8-12"/><path fill="#5A381C" d="M213 290c2 6-8 10-12 10 7 6 9-8 15 1-7-5 4-6-1-9"/><path fill="#8D602A" d="M200 276c-12 9-14 13 3 1 10 4 3 17 7 15 0-6-2-10-6-12l-1-1-1-1"/><path fill="#564845" d="M418 341c-2 7-6 0-9 2 3 4 26 1 12 0"/><path fill="#5A2F07" d="M393 216c-1 1 0 9-5 6-3 5 4 5 2 12-1-7 6-16 6-18"/><path fill="#43312A" d="M426 213c-3 5-8 8-8 13-2 16 1 30 2 34 2-19-2-8-1-32 2-7 1-7 6-12"/><path fill="#945608" d="M488 265c1 6-9 19-5 20 4-5 6-11 5-19"/><path fill="#231820" d="M224 370c-3 3-12 4-11 10 3-3 14-7 13-9"/><path fill="#8E5501" d="M385 236c4 2-7 9 3 9 0-6 4-12-2-7"/><path fill="#C19D52" d="M238 185c13 2 25 9 38 8-12 1-24-6-36-8"/></svg>