<svg xmlns="http://www.w3.org/2000/svg" width="600" height="600"><path fill="#628294" d="m203 108 1-1c18 0 36-2 51 2 23 4 44 10 62 21 16 11 34 26 43 41 17 3 33 4 48 8 19 4 35 10 49 18 31 12 51 40 75 57 14 13 19 32 27 48 5 24-9 43-3 64-3 14-10 23-17 32 2 5 5 8 6 12-7 0-11-1-16-1-22 20-44 31-66 41 3 10 6 19 8 29-8 4-15 2-20 1-14-3-24-13-34-18-26 6-50 9-75 9-6 7-14 11-18 17-9 4-18 4-27 3-7-8-8-18-9-27-11-3-21-7-30-10-7 9-13 18-22 25-5 1-9 0-14 1-3-26 3 10-7-56 15 14 26 20 37 25-3 10-8 18-14 26 7-7 12-16 16-25 13 5 23 8 35 10 3 10 3 21 9 28l2 2h2c7-1 13-3 19-7 9-4 13-10 18-15 29 0 54-3 78-8 8 4 15 10 22 13 10 3 18 6 28 5-18 1-31-8-45-17 13-4 25-9 36-12 23-10 45-20 64-38-21 14-44 30-70 37-23 9-46 13-69 16-14 0-34 6-42-1-4 7-10 14-18 18-7 6-14 7-22 8-10-9-9-24-10-36 1 2 0 5-2 6-9-1-17-4-24-7-21-6-38-16-53-29 6 2 6 9 4 15-8-20-22-28-28-43-6-3 6 7 4 9-14-13-27-29-41-39-10 18-18 35-31 50-10 10-19 19-29 23 10-30 20-60 22-93-11-8-21-15-32-24-48-32-52-72 16-36 16 4 34 14 49 30 24-25 35-59 60-82 19-22 37-35 59-46-10-18-22-28-38-40-19-14-41-20-60-28 13-7 22-11 34-11"/><path fill="#4D7D97" d="M423 307c-14-4-34 7-41 12 1 10-4 32-9 43 2 8 6 13 10 19-5-3-10-7-13-13-12 16-30 22-40 25-15-1-24-2-32-3-12-14-22-28-27-42-6-3-12-6-17-8 4 13 5 23 15 34 7 8 14 16 22 21 8 3 17 8 26 7 15 1 26 4 39 2-2-1-9-3-5-5 28 7 52 16 77 21 14 0 27 2 36-3 22-22 87-18 77-56-7 4-10 7-13 11 1-6 3-10 6-14-7-12-8-27-10-36-9-8-16-8-29-13-11-1-49 3-71-2"/><path fill="#316187" d="M201 117c7 1 13 1 21 2-12-2-9 13-16 9 12 8 29 17 42 28 13 10 20 22 24 29 10 0 16-4 22-5-25 18-47 26-66 47-9 9-7 10-2 2-13 19-35 40-46 66 10-4 17-7 26-26 7-2 13-3 20-2 8 1 15 5 19 9 7-8 15-14 23-17 1-9 7-16-1-9 9-19 30-45 44-52-2-3-6-4-5-8 7-12 2-12 7-16-5-7 0-5-6-10-2 3-9 0-10 3 4-8-6-10-4-14 3 5 9 0 11 4-3 0-3 0-5 3 3-2 3 3 6-1-7-3-11-13-9-9-17-14-46-37-93-33"/><path fill="#8AC4C9" d="M350 178c-5 3-13 0-18 2-8 10 3 4-7 15-17 2-28 15-38 26-10 12-14 24-17 36 21-7 43-11 68-9 19 2 34 7 48 17-1-4-2-7-1-11 3-9 7-17 16-20-4-12-17-21-25-28-3 1-8-8-15-4-3-8 6-5 4-6-5 2-8 4-12 4-8-1-13-4-17-7 7 1 12 4 20 3 1-4 7-5 3-9 10 8 10 11 17 11 3-3 3-6 8-7 35 0 8-7-5-10-12-1-19-2-28-1"/><path fill="#E4FAF6" d="M408 191c-13 1-59 13-31 11 3 9 22 19 25 29 12-2 22 3 29 9 5 6 4 11 6 14-2 9-6 13-9 18 9 10 19 16 30 18 10 1 17 0 23-5 7-12 7-28 2-38-7-8-7-28-27-36-13-11-28-17-43-20"/><path fill="#69A7B8" d="M357 267c-23 0 14 13 13 23 8 11 9 20 10 30 7-7 14-7 23-13 25-1 43 3 75 1 12 0 23 0 40 10 1 1 5 1 7 4-3-20 1-33 8-54-13 5-15 4-21 6-7 10-10 13-10 24-3-7-2-14-1-20-3 4-2-5-6-6-10 0-12 22-27 19-17 1-29-6-41-16-8 4-20 7-29 2 6 7 11 13 13 20-8-6-17-13-24-18-13-8-24-10-30-12"/><path fill="#484D5F" d="m458 363 1-1c9-1 16 0 23 2 56 12 20 27-9 45-8 4-15 8-25 6-25 0-48-18-69-21 25-15 50-25 76-32"/><path fill="#B8D1D3" d="M532 396c-32 3-56 25-85 32-34 3-57-16-89-15-19-4-34 3-51 1-10 1-17 5-25 7 29 11 60 16 89 22 16 2 30 1 44 2 25-3 45-9 66-16 0 0-6-8 1-10 3 0 11-6 10 5 14-7 28-13 38-27"/><path fill="#416683" d="M214 416c11 12 26 21 39 29 6 2 16 8 25 9 16 0-2-2 11-5-5-1-10-3-13-6 18-2 53-9 76 2 7 4-6 6-4 15 1 1 3 0 5 1-2 3-5 2-6 3 31 0 63-6 92-14 1-5 48-12 63-30-19 11-42 17-65 23-18 4-36 4-54 3-30-1-65-14-98-19-3 0-13 1-16 0-7-3-24-4-36-7-2 0-1 3-5 4-3-2 3-6-3-7-4-3-8 2-9-1"/><path fill="#2B4D77" d="M218 272c-3 2-7 1-8 4-8 5-11 12-14 17-5 16-7 29-6 45 2 10 1 23 8 26 5-4 5-3 10-2-1-5 0-12 2-17-7-4-11-10-11-16 0-10 2-17 8-22 9-3 16 4 16 10 1 5-1 7-2 9-6 3-16 1-18-6 1 3-2 7 0 10 10 6 16-3 16 5 1 3-1 5-2 7 0 6 0 12 2 17 3 0 15-1 18-3-2-8-2-8-3-18-3-2-6-1-7-4 4 1 7-7 12-6-2-1-2 1-4 0-1-11 1-22-2-31-2-10-4-17-9-23 7-4 1-2-5-3"/><path fill="#284E78" d="M282 258c-17 2-32 17-30 21-2 9 2 14 1 22-6 6-6 12-6 22-1 12-1 25 2 36 0-3 0-4-1-8 4 1 9 1 9 6-3-6-4-13-5-18 7 2 12 4 18 5-2-11-2-22 1-32 1-15 15-29 19-35 56-10 18-16-7-20"/><path fill="#5F8296" d="M182 285c-11 13-21 32-38 39-6 8-9 17-6 26 4-2 8-2 11-3 9 7 22 22 25 21 8 20 27 28 37 46 7 5 11-3 16 4 0-3-6-5-4-7 5 1 6 5 8 6 8 4 17 4 24 5l4-4c-12-6-22-12-33-18 1-4 2-5 4-6-12-14-15-29-18-43-1 15 2 32 4 45-12-6-18-14-21-21-16-8-30-15-42-27 1-11 11-26 22-32-1-9 9-27 4-28"/><path fill="#F8E9C3" d="M314 275c-34 13 0 7 12 10 7 8 12 13 15 19 4 10 5 19 6 28 5 7 10 13 15 15 6 0 10 2 11-2 4-9 4-20 2-28-3-11-7-19-15-25-11-8-20-13-31-15h-15"/><path fill="#25283C" d="M458 365c-22 3-46 14-67 23 8-3 17-6 25-10 11-1 17 1 24 3 14 4 25 11 35 19-5 8-9 8-15 10 6-2 12-3 17-7 22-13 56-28 3-36-4-2-12-3-20-2"/><path fill="#A18B6E" d="M303 277c-13 7-21 21-25 33-5 17-2 34 4 46 4 12 13 22 23 24 16 3 31-1 44-3 7-4 12-8 17-12 5-7 6-13 9-18-4 3-7 2-12 1-7-3-12-7-16-13-2 9-5 16-7 23-6 9-14 15-17 17-8 3-16 3-20 0-12-7-12-14-16-19-6-14-7-28-4-41 5-12 7-18 20-29-3 1-5 1-6-2 1-4 8-7 8-7"/><path fill="#11142F" d="M312 295c-7 1-12 6-15 12-4 9-4 17-3 26 0 8 2 13 5 18 5 6 10 9 15 10 8-2 13-7 15-13 5-9 5-17 6-25-1-6-2 3-6 3-6 2-9 1-11-3-8-8-10-21-4-28"/><path fill="#70AEB9" d="M242 119c15 4 27 6 39 12-6 2-11-2-18-4 11 5 22 12 33 20 14 13 20 27 31 38 5-1 0-8 7-6-3-1-16 1-12-3 11 0 18 0 25 2-34-52-2 9-35-39-22-9-44-16-68-19"/><path fill="#22436F" d="M306 443c-3 1-8 0-10 2-4 18-1 27 2 39 5 2 11 3 14 0-2-2-5 1-6 0 5-12 11-15 11-29 10 0 22-3 26 4 18-21-22-15-34-17"/><path fill="#263B63" d="M125 337c-1 2-6 5-7 6-1 12-3 35-8 48 0 5 3-1 4 0-10 8-11 29-20 40 10-5 19-14 25-24 9-14-1-8 13-25 7-14-13-21-7-39-1 4-3 5-6 2 3-3 4-6 6-7"/><path fill="#E5F9F7" d="M211 111c-61 6 62 0 68 17 20 5 32 11 44 19 17 7 20 29 34 31-6-12-16-24-28-32-15-12-29-19-44-25-18-5-35-9-52-10h-18"/><path fill="#203A64" d="M250 352c-1 8-1 16 6 24 8 13 20 22 31 28 25 14 54 0 80 6-15-8-52 0-70-11-16-7-36-30-44-48"/><path fill="#86C0C7" d="M457 208c6 2 22 25 25 29 1 11 10 23 5 35 5-1 8 0 9 1 2 1 2 2 3 4 4 0 4-15 11-21-15-28-29-33-50-47"/><path fill="#B8D2D3" d="M249 371c-7 9-12 19-22 26 11 8 21 13 30 18 5-6 7-12 11-17-8-10-15-17-18-25"/><path fill="#434155" d="M420 379c-9 5-46 12-13 19 12-5 28-3 43-4 8 2 13 6 16 11 4-1 6-1 8-2-14-14-30-21-48-24h-3"/><path fill="#2B3F64" d="M93 295c-2 5-3 3 3 9-19-8-26-8-1 1h-3l-2 2 3-1 2-1h1l-1 1c3 1-5 6-2 10 10 4 22 10 33 14 2-2 5-3 5-5-6-4-12-7-18-10 8 1 14 4 19 7 5-2 8-2 11-4-12-10-35-15-49-22"/><path fill="#FAF8EC" d="M327 281c11-1 20 5 29 10 9 7 14 14 15 23-9 16-13 0-13 6-10-9-19-26-30-36"/><path fill="#2E4B72" d="M45 275c13 15 28 31 44 44 8 5 4-2 14 2-4-1-8-3-11-3-2-6 1-11 5-9-9-5-16-8-23-11 7 0 12 3 18 5-2 1 2-5-3-3 3-4 3-2 4-5-15-3-26-18-46-21"/><path fill="#17274F" d="M223 434c0 13 2 26 3 38 0 7 5 2 6 0 2 2 1 3 0 5 10-8 14-17 20-25-10-6-19-10-28-16"/><path fill="#FBFBF6" d="M328 282c13 12 20 30 34 38 3-1 5-2 8-4-1-10-6-18-13-22-9-7-17-11-26-13"/><path fill="#E5F9F6" d="M409 235c-19 3-5 8-1 17 8 4 14 5 21 6-3 9-10 10-15 11-9-2-14-10-19-11 0 2 2 4 2 6 6 4 10 5 15 4 3 1 5 0 7 1 5-2 7-4 10-5 3-5 4-8 3-13s-3-8-5-11c-7-4-12-6-17-6"/><path fill="#B5A3A1" d="M413 397c-11 3 23 11 30 13 10 0 16-1 21-4-1-4-6-8-10-9-15 0-25 0-38-1"/><path fill="#EEFBFA" d="M324 253c24 14 55 11 75 34-7-12-18-22-29-27-15-5-29-8-44-7"/><path fill="#253F69" d="M237 351c-2 13-14 7-17 9 1 11 4 20 9 28 7-5 9-13 13-17 3-10-4-13-5-19"/><path fill="#FAFBFB" d="M319 295c-7 2-8 11-5 16 2 8 5 16 13 14 7-4 5-10 4-15-3-7-5-15-10-16"/><path fill="#F4FAF9" d="M266 191c-20 11-39 25-55 43-22 23-31 48-47 72 17-19 26-40 40-60 18-23 41-38 61-53"/><path fill="#85B9C7" d="M292 330c-1 3-6 5-5 9 0 9 4 15 7 22 6 6 17 9 27 6 5-3 0-4 5-8-3 1-5 4-9 3-5 1-8 0-12-2-9-8-13-18-13-28"/><path fill="#9ECACF" d="M395 241c-1 7 2 18 11 21 7 4 14 6 19 1-10-2-21-13-27-21"/><path fill="#283E66" d="M336 318c0 32-11 35-10 50 3 0 7-5 9-10 5-10 11-38 2-37"/><path fill="#0A1124" d="M309 271c-5 2-11 1-14 4-6 6-12 11-14 17-5 8-8 16-9 24l-1 1v1l1 2-2 2c0 15 3 28 10 40v2l1 1 2 2v2c10 9 20 18 33 18 23 3-10-4 24 0 1-1 3-3 5-4 10-4 17-10 23-16 4 1 6 5 8 8-1-4-4-7-6-10 5-13 9-23 9-35-1 12-4 23-10 33-12 16-19 17-31 22-10-2-20 3-27 1-9-5-22-8-29-24-5 1-15-29-10-44 2-17 9-30 22-40 2 4 8-6 16-7 13-1 24 1 33 6 10 4 16 10 22 17 7 7 9 13 12 19-2-6-4-11-7-17-6-8-13-15-21-18-6-4-11-5-15-7h-22"/><path fill="#0B0F29" d="M534 299c2 9-4 17-1 29 0 5 2 10 7 8 6-6 7-13 8-20-4 2-7-1-9-3-3-6-5-9-5-12"/><path fill="#4B88A7" d="M451 459c-32 1 1 16 11 17 1-6 1-12-3-14-4-3-7-2-9-3"/><path fill="#4D8BA8" d="M322 459c-7 5-6 15-13 21 7 4 13 0 17-4 8-8 8-22-1-11-1-3-3-3-3-5"/><path fill="#091831" d="M412 183c25 6 50 20 71 35 12 10 27 20 36 33 6-1 10 4 15 7 4 5 5 9 7 12-4 7-7 11-9 16 1-4 4-8 7-11 8 8 14 15 15 24-5-13-12-27-15-38-21-9-34-30-50-40-12-11-26-19-39-26-13-5-24-10-36-12"/><path fill="#0B1324" d="M193 252c-17 21-24 46-43 66-17-14-34-24-51-31 17 8 32 16 45 30-3 4-7 5-11 7-4 5-4 8-5 11-2 3-2 4-1 6-2 9-2 16 2 21-4-9-3-17-1-26 2-7 6-13 13-14-3 5-4 9-5 13 0 4-2 5-1 8 0 5 1 8 3 11 2 6 7 8 10 8-3 3-4 4-7 3-5-2-7-6-9-9 2 3 3 8 8 9h2l2 1v2c-5 4-12 0-14-4 2 7 12 5 11 9 0-2 4-7 10-11 7 4 10 9 15 12-1-5-9-11-14-12 0-4-10 2-12-6-6-6-4-13-5-19 3-9 6-15 13-17 7-7 12-12 16-19 11-17 19-32 29-47"/><path fill="#90969E" d="m470 367 2-2c5 1 10 2 16 3-10 23-24 15-18 0"/><path fill="#386C8E" d="M390 247c-2 4-5 8-3 14 1 7 3 8 8 13 5 2 10 5 15 5 7-1 10-4 13-6-4 1-16 2-22-4-9-6-13-13-12-21"/><path fill="#B4CFD3" d="M140 349c1 12 40 19 42 39-4-13-18-25-29-36-3-3-6-2-7-3"/><path fill="#E4F9F7" d="M522 254c-12 2-14 15-17 23 5-9 19-9 20-19 8 1 9 14 11 12-5 6-6 13-8 21 2-7 4-14 11-19-3-9-9-15-15-18"/><path fill="#2C557C" d="M190 118c-30-1 15 8 15 12 9-5 4-10 16-11-10 1-19-2-31-1"/><path fill="#2C4066" d="M298 294c-1 1-3 3-3 5-7 11-8 22-9 34 10-5 3-19 12-29 7-9 17-11 0-10"/><path fill="#294067" d="M204 364c-18-6-1 17 7 26-2-8 0-19-3-27-2-1-3-2-4 1"/><path fill="#FDFDFD" d="M537 291c-1 4-1 11 0 15 2 5 5 10 9 8 4-5 2-10 1-14-2-5-5-9-7-10"/><path fill="#E6F7F7" d="M360 178c23 0 44 7 63 13 22 7 39 18 57 28-17-13-34-22-51-29-22-7-43-12-65-13"/><path fill="#74A9B3" d="M65 278c19 12 39 22 61 28-19-13-39-20-59-27"/><path fill="#8AC2CA" d="M310 253c-17-3 31 12 36 16-2-5 8-1 8-2-10-5-22-6-30-14-5 0-7-2-10-1"/><path fill="#1D3661" d="M373 407c16 6 33 13 50 17 13 2 24 2 32-3-9 3-20 1-29 0-20-3-35-10-52-13"/><path fill="#2F5E83" d="M287 256c23 5 24 7 54 15-8-4-13-10-28-14-8-2-17-2-23 0"/><path fill="#6AA7B8" d="M225 274c14 12 9 35 14 49 3-1-2-14-1-37-3-5-5-12-8-12"/><path fill="#233B62" d="M548 299c4 13 1 28-6 39-6 2-9-3-10-5-1-11-1-18 0-27-2 1-4 4-4 6 1 7 0 13 2 17l1 2 1 2c2 2 5 9 10 6 0 5-3 8-4 12 6-4 8-13 11-20 2-11 2-23 0-31"/><path fill="#0A1221" d="M40 273c13 16 26 31 42 45 13 12 22 16 32 25 1 5 3 8 2 12 0-4 1-7 2-9-28-21-54-46-76-71 3-2 5-3 7-2-2 0-4 0-7-1"/><path fill="#C1B8B1" d="M315 287c-23 1-7 9 7 5 12 6 10 15 17 25-2-10-3-14-8-20-3-3-5-3-7-5-4-3-5-3-11-4"/><path fill="#BDD6DB" d="M186 391c12 15 27 32 44 42-17-11-28-35-41-39"/><path fill="#547992" d="M176 329c-2 1-5 0-6 2-6 4-9 6-8 9 4-2 34-8 16-12"/><path fill="#0E1529" d="M544 387c-29 12-60 20-87 37 26-12 48-27 76-31 0 6-8 9-7 13-5-1-8 9-14 9 9 2 9-6 14-8 5 2 11-1 13 2 0-6-5-11-8-7 0-4 3-5 3-7 4-4 5-6 8-8"/><path fill="#254067" d="M231 269c3 2 7 4 9 8 7 10 8 19 8 29h3c3-9 0-16-3-24-3-2-9-11-15-12"/><path fill="#355479" d="M187 290c-2 1-1 4-5 4-3 4-4 14-5 20 7-4 15-29 14-23"/><path fill="#1D2C51" d="M135 370c-3 3-2 8-3 14-7 10-14 17-22 23 6-4 10-8 15-12 0 3-2 5-3 9l-1 1h-2l3 1 2-3c4-10 18-24 14-33"/><path fill="#406382" d="M91 321c8 8 17 14 26 20 3 0 4-3 5-3-10-5-19-11-30-16"/><path fill="#3D516F" d="M137 324c-5 4-5 8-8 13-3 9-1 17 1 24 4-9 1-18 8-37"/><path fill="#26364F" d="M503 376c9 1 5 8-3 10-6 0-10 0-15-1 7-3 12-5 18-7"/><path fill="#BACACC" d="M371 432c12-2 12 6 19 7-8 3-12 0-20-4"/><path fill="#EBE3CB" d="M363 322c6-2 7 2 8 3 0 4 1 7-2 9-7 3-5-2-7-1-2-6-2-9 2-8"/><path fill="#285A82" d="M280 139c3 1 5 6 10 6 1 10 10 18 4 18 2-3 11 6 10-3 7 3 1 8 0 7 2 3 2-5 6-2-5-7-11-13-17-18-5-1-7-6-11-7"/><path fill="#F7F8F7" d="M279 410c-4-1-11 10-11 3-2 1-7 4-7 7 6-3 44-8 20-11"/><path fill="#071128" d="M217 270c6-1 11-1 16 2 7 6 11 12 12 19 1 10 2 18 0 25 0 5-1 6-2 8-2 4-5 5-6 6 1 0 4-3 5-4 1 1 1 2 2 4-4 4-6 7-10 5 3 1 5 0 7-2 2 12 3 22 4 31-1 11-7 17-11 24-8 1-11-10-14-15-4-11-5-21-7-30v-3l1-1h2c-4 1-9 1-11-1 0 2 4 3 7 2 3 13 4 24 8 33 3 8 6 14 10 19 9-9 14-16 15-25-1-4-1-13 2-8-4-7-3-16-4-24l-1-2v-1h2l-1-3c0-1 3-2 0-4 3-2 0-6 2-7 2-9 1-17 0-24-2-9-3-16-10-20-5-4-10-5-16-4"/><path fill="#283F64" d="M187 306c2 14-19 14-23 27 11-8 16-9 21-10 0-4 4-16 3-15"/><path fill="#07102A" d="M214 271c-14 6-20 20-28 32 1-2 3-5 5-8-3 14-4 26-4 39 2 12 2 23 6 31 7 14 7 18 21 29-9-6-15-17-19-25-4-12-7-22-7-32 0-17 2-31 7-43 3-11 11-21 20-24"/><path fill="#50494C" d="M366 366c-7 6-13 11-21 13-15 1-27 6-40 2 10 3 21 5 31 2 12-2 20-8 28-15"/><path fill="#DAF4F2" d="M485 223c11 7 22 25 29 31-6-13-16-22-26-29"/><path fill="#081529" d="M219 108c27 0 53 5 77 15 26 10 50 34 65 54-15-22-36-42-61-52-26-12-52-16-79-17"/><path fill="#426586" d="M183 351c-3 4-5 6-11 6 5 3 7 5 10 7-2-7 11-3 4-13"/><path fill="#F9FAF9" d="M472 368c-2 17 3 17 13 3-4 0-7-2-12-1"/><path fill="#527690" d="M300 414c-13 2-24 6-36 10 5 5 15 1 23 2-2 0-6-2-10-4 10-3 17-6 24-9"/><path fill="#64A0B5" d="M215 310c4 2 6 8 4 12-8-1-7-11-14-9-1 6 1 10 4 12 5 1 8 1 9-1 1-5 2-10-1-12"/><path fill="#6D96A2" d="M347 231c1-1 3 0 4-1 5 1 6 4 5 6-1 4-3 4-5 5-5 0-8-5-6-8"/><path fill="#A1B5BB" d="M475 263c4-2 8 3 10 5-2 5-5 6-6 6-6-2-8-7-6-10"/><path fill="#7EBAC2" d="M526 259c1 7-10 10-12 13 4-3 10 2 13-3 7-2 4-6 1-10"/><path fill="#3E607F" d="M94 320c10 3 24 15 33 14-11-6-21-11-31-14"/><path fill="#908874" d="M313 272c-14 8 11-1 23 6 10 3 18 7 25 12-9-8-19-13-29-16-7-1-12-2-18-1"/><path fill="#061831" d="M170 118c22 7 44 16 62 30 15 12 29 24 36 39-4-14-17-26-30-35l-2-2-1-1-3-1c-18-14-39-22-60-29"/><path fill="#142940" d="M248 199c-21 12-42 34-55 52l1 3v-2c12-20 37-41 55-54"/><path fill="#090F23" d="M527 306c-1 13 0 24 3 34 1 8 6 14 6 18 3 4 6 4 8 5 5-10 9-13 11-27-3-2-5 21-16 24-10-14-13-34-12-51"/><path fill="#1C345E" d="M457 452c-8 2-20 5-29 8 3 2 3 4 6 3 3-6 16-4 24-9"/><path fill="#85BCBF" d="M238 214c-21 19-33 33-38 43 13-8 20-29 36-41"/><path fill="#917F71" d="M552 302c2 8 2 19 0 27 0 13-11 23-14 28 9-7 13-16 15-25 2-10 2-21 0-28"/><path fill="#F6F8F9" d="M164 342c-14 4 15 3 18 6-3-6-9-7-16-6"/><path fill="#5C8CA6" d="M272 401c-3 3-6 7-7 12 4-8 25-1 7-12"/><path fill="#265179" d="M281 160c7 0 12 9 14 15-6-4-8-10-13-13"/><path fill="#FAFAF3" d="M366 324c-6 2-4 10 1 10 5-4 4-10 1-10"/><path fill="#587D99" d="M168 349c-2 5-11 0 4 8-5-7 10 3 8-6-3 0-7-1-11-2"/><path fill="#75A4AD" d="M212 240c-15 15-27 39-33 51 21-43 24-27 29-48"/><path fill="#1D2940" d="m533 402 2-1c2 1 3 4 6 5-7 4-22-3-10-3"/><path fill="#7AAFBE" d="M328 357c-4 4-5 10-8 12-11 1-19-3-22-2 6 4 10 5 19 5 8-6 6-7 11-13"/><path fill="#D7F1F2" d="M235 278c8 10 5 25 6 38 3-12 2-27-4-36"/><path fill="#76A8B5" d="M441 292c3-2 8 1 8 4-1 5-12 5-8-4"/><path fill="#74ACBD" d="M479 349c3 2 10 4 14 8-5-1-11-2-15-5"/><path fill="#080F25" d="M184 314c-14 4-24 16-30 29 7-11 17-24 29-28"/><path fill="#EEF7F6" d="M372 432c-3 6 7 8 10 5-1-3-4-5-7-5"/><path fill="#294A76" d="M220 432c-1 13 1 24 3 35 0-11-2-21-2-32"/><path fill="#0A0E1A" d="M189 399c7 7 19 25 30 29-6-3-21-21-28-28"/><path fill="#040611" d="M552 366c-4 14-14 25-22 36 10-10 19-21 22-34"/><path fill="#91C8D4" d="M331 458c2 0 5 4 1 11 6-4 12-13 1-11"/><path fill="#84B5C3" d="M531 339c0 3 3 6 4 9 3-1 4-3 5-5-4-1-5-3-6-5"/><path fill="#78A5AD" d="M332 211c3-2 9 0 7 4-3 4-7 1-8-1"/><path fill="#27547C" d="M273 167c6 0 11 7 14 11-4 0-8-6-12-9"/><path fill="#73AEBA" d="M286 185c-5 0-9 4-14 2 0 4-9 9-13 14 11-11 12-5 27-16"/><path fill="#E4F8F4" d="M313 184c2 0 1 10 9 5 0-5-4-4-6-6"/><path fill="#0A101F" d="M138 381c-6 10-12 20-19 30-9 14-30 27-27 20 10-1 17-8 24-15l1-2v-2l2 1 2-3c4-8 12-18 16-28"/><path fill="#BCDCDF" d="M403 255c1-1 7 1 7 4-5 3-7 1-8-2"/><path fill="#B4DEDE" d="M394 244c-1 3-4 10 0 14 3-3 6 3 9 3 6 5 12 8 17 5h4v2l-1-3c3-1 3-4 4-6-5-3 4 3-5 7-8 1-13 1-18-3-7-5-9-11-10-18"/><path fill="#295980" d="M314 172c-5 6 0 10-10 13 6-4 10-5 14-5 2-2-3-4-2-6"/><path fill="#1D3760" d="M542 384c-10 4-19 8-29 12 10-3 19-4 27-10"/><path fill="#CEF0EF" d="M211 311c1 3 3 8 5 10 4-4 0-8-3-9"/><path fill="#629CB2" d="M432 354c9 2-3 8-6 8 1-3 3-5 5-6"/></svg>