<svg xmlns="http://www.w3.org/2000/svg" width="600" height="600"><path fill="#8C6B44" d="M429 125c0-2 1-1 3-1 16 9 27 8 47 21 5 5 17 9 23 18 6 10 8 19 9 29-1 11-12 16-16 24-3-2-4-3-3-6 0 2-2 8 0 6-3 4 4 5 4 9 12-3 12-16 21-28 5 6 10 10 14 13 1 8-2 12-5 16 35-5 11 10-11 10 5-1 9 0 12-1-1 5-4 7-6 10 8 5 0 2 5 10-3-3-8-4-10-7-4 0-4-2-6-2 2 0 2 2 3 1-2 6-5 9-9 13-18-9-35 3-50 2-2 3-5 6-6 10 2-3 4-6 5-9 11-4 14 5 19-1 5 10 1 17 5 25 3-8-3-2-2-28 5-2 16-2 23 0-1 8-7 3-12 6 2 12-5 19-3 30-1-5-1-5-2-1 4 9 3-2 9 2-5 7-9 14-15 19-9 2-19 2-26 1-9-13-10-28-18-39 5 4-1 8-6 10-9-2-16 6-30 8l2-3-3 2c9 2 20-6 30-6 5-1 7-5 8 0-3 3-9 22-15 16 0 11-5 20-13 28-4-2-7-4-4-7-4 6-10 13-15 17-4 0-6-2-7-3 1-4 3-4 5-5-5 2-9 4-13 6 3-7 5-12 7-17-3 8-8 15-15 20-7 6-16 6-22 9-2-2-3-4-2-5 0 2-2 3-2 5-5-8-7-17-6-28-2 17 4 30 10 43-2 5-6 6-9 8l9-6c4 4 11 13 13 20-3 6-6 8-9 10 3-2 6-4 7-8 4 1 6 3 7 5-5 11-13 19-22 24-9-1-14-9-18-11-6-2-10-1-14 0-8-6-12-12-17-19 4-4 10-2 14-3 9 0 17 2 24 0-7 2-15 0-21 1-7-4-8-10-11-13-2 6-7 5-7 12-6-4-7-10-10-14-5-13-5-27-4-40 2-12 6-22 13-30-6-2-9 18-14 28-2 5 1 11-1 14-28 2-42-24-64-32-11 21-17 46-34 65-7 4-12 9-19 8-8-10-17-6-26-10 6 6 12 13 21 13-1 4-5 4-8 5 1-1 5-1 6 0-2 7-3 11-2 16-3 0-4-1-5-2 9 6 1 19 6 26 2-1-2-4 0-5 1 6 11 2 12 9 3 7 7 14 4 22-5 4-9 5-14 4h-1l1-2c1-3 2-6 1-10 1 4 0 7-1 10-4 5-6 2-10 4 3-1 7 1 9-1 4 0 7-2 9 0-48 6-20-4-59 3-4-2-6-5-8-6 5-32 0-56 10-94 6-10 18-15 24-22 3-9 5-20 11-28-5-76-4 12-6-48 3 3 11-25 20-31-12 7-12 33-23 31-9-4 3 7-13-1-3-5-3-11-4-16 1 5 1 11 5 14l1 3h-2c-7 1-14 0-20-1l-1-1v-3c-1-3-2-6-1-11 1 3-2 8 1 11-4 2-6 0-9-1-8-5-7-11-8-17-9-7 2 2-1 5-11-10-16-22-18-35 0-11 1-19 4-26 2-12 13-19 16-27 13-5 40-11 44-7-6 10-21 23-27 35-4 10 0 20 4 27 5 1 9 5 13 8 31 4 32-5 43-2 7-5 11-6 14-8-1-3-12-5-9-12 11-2 17-3 20-3 13-2 3-7 6-11 12 4 11 0 27 4 0-1-2-2-1-4 2 6 7 8 11 11 40 3 18-1 48-3-2 8-9 13-12 20 8-14 29-30 40-33 3-1 5-1 8 2-5-4-12-10-17-14 22-5 20 1 50-18-14 3-14-2-16-3 17 0 6-2 20-3-1-6-8-12-8-12 21 3 25-8 33-2 2 2 2 3 3 6-6-2-9-4-14-2 5-1 8 1 12 2 6 7 8 14 13 19-4-8-14-17-11-28 4-3 6 1 4 2 3-2 4-2 5-6-1 2 6 3 7 8-3 2-5-1-8-1 4 1 7 3 10 5-6 3 2 3 4 5-1-1-4-1-4-3 16-4 30-9 29-9 6-2 5 1 3 3 3-4 5-9 8-12"/><path fill="#7C7466" d="m414 386 1 1c5 13 10 26 18 38l1 1 2 2-1-1-2-3c7 3 12 6 16-1-1 9 11 7 1 11 3 0 4-1 5-2 16 13 19 27 9 32-22 4-19 0-40 5 1-7 1-13-2-17 4 6 2 14-3 19-26-3-33 2-59 1-3-3-18-6-17-13 3-4-11-22-19-29 13-9 27-18 34-32 3 4 6 7 8 11 3 2 3 4 4 6-1-3 1-3-3-4 6-2 8 5 5-2 4 5 2 5 9 7 11-6 23-16 31-27"/><path fill="#433234" d="M223 347c6 2 14 1 18 4 7 7 10 14 15 19 6 1 11-1 15-4 3 4 3 6 4 7-4 6-8 8-11 10-11-4-18-11-25-19 2 7 4 14 7 20 8 3 13 4 17 0-1 11 3 18 4 25 5 8 9 17 14 19l2 2-1 1-2 1c-4 1-7-3-12-1 10-2 13 7 17 13-1-5-7-8-6-13 12-4 15 8 20 9 0 6 6 3 3 17 3-6-12 7-19 0 4 2 10 1 14 2-20 3-37 3-55 2 1-3 5-1 8-2-7 0-16 0-20-6-3-7 0-18-12-39 3-11-2-22-2-32 3-8 10-16 14-17l-6-15"/><path fill="#F3A038" d="M300 208c-7 3-17 11-20 19 11 2 20 8 28 13-5 7-13 3-18 5-6 5-7 10-12 12-4 2-6 0-9 1 2 6 5 13 11 17 10 6 27 4 29 2-6 8-8 25-12 18 3 7 2 13 4 17 2 3 3 4 6 3-4 3-7 4-11 2 0 3-3 3-6 6 5-3 16 2 22-2 1-4-2-5-3-5-5 0-6-1-7-2-1-7-7-14-2-17 13-7 24 0 27-2 6 1 6 6 8 8-3-6-5-13-8-20 3 0 4 3 5 6-1-8 6-12 10-16-5-6-12-9-19-12 2-6 6-8 10-11-20-7-8-41-32-43"/><path fill="#DD7C24" d="M318 294c-9 3-13 2-18 4-6 18 13 15 13 23-9 4-17 2-22 2-3 1-1 5-3 7-4-5 3-8-2-9-3 11-3 23 1 32 7 7 9 17 17 20 13 3 26 2 34-4-6-15-11-28-12-42 3-5 2-8 3-11 6 4 7 14 13 16-7-17-2-36-22-37"/><path fill="#4E271B" d="M428 299c-1 8-12 37-25 53v3l1-2c1-4 4-7 7-9-4 4 1 14-1 28-11 12-24 23-36 29-12-15-15-33-19-51 16-16 37-4 48-22 15-6 10-21 24-28"/><path fill="#F49D34" d="M403 140c-4 2 5-1 5 4-20-2 16 17 30 17 5 5 7 7 8 10-9-3-17 1-24 1 4 9 8 16 16 22 7 7 13 9 19 13 7 2 12 4 18 3 0-8-4-14-10-18 1-8 3-12 7-16 10 1 15 8 21 14 0 7-1 12 0 18 6-6 12-11 15-18-1-11-2-20-7-27-5-1-8 1-11 4-14-7 2-17-11-19-4-1-6 0-9 0-1 3-1 5-2 6-5-6-13-4-18-12 2 5 2 9 6 11 3-1 7 2 11 2 8 3 13 6 19 11-1 6 0 10-1 13-5-2-8-6-13-9-4 6-6 12-8 18-6-4-11-7-16-12-1-9 2-13 5-18-12-2-17-8-28-10-3 0-6 0-7 3-6-5-8-8-12-11"/><path fill="#525055" d="m349 272-3 1c8 8 12 16 16 31-1 20-19 58 6 32 4-7 9-13 12-22-1 10-4 16-8 22 6-1 11-5 16-9 0 4-4 7-7 10-1 3 2 5 4 2 10-7 15-16 17-25 4 4-3 10-1 16 10-9 15-18 14-30 5-4 3 3 4 4 6-4 8-10 11-16-1 4-5 5-8 7-9 2-15 3-21 4-6-2-11-4-6-8-5 2-12 3-17 0-3-3-12-11-16-19-6 0-7-2-11-1"/><path fill="#F4A137" d="M226 204c-6 1-10 3-15 6-9 7-12 16-16 24-9 14-11 32-10 50-6-8-9-17-12-26 1-10 4-17 7-23-4-5-6-12-7-5-8 9-10 19-13 29 9 17 1 34 4 52 1-8 7-12 10-14 9-3 13-2 16 0-1 5-2 8-4 11 2-3 4-6 5-9v-2l2-2c3-1 8 2 9 0 2-6 3-12 5-18-4-10-8-19-9-27 3-14 19-38 33-46"/><path fill="#53281E" d="M422 305c-6 8-6 20-16 26-10-2-13 11-23 13-3-1-4-2-5-3-8 2-10 11-16 14-2-7 0-6-6-5 4 18 7 35 16 49 14-5 24-15 34-26-3-2-2-12-5-17 10-17 22-37 21-48"/><path fill="#DA7F2B" d="M185 295c-4 4-9 0-12 4-9 7-8 6-8 16-4-3-11-10-16-14-2 0-8 7-11 12 0 9 10 9 18 20 8 10 2 21 14 26 12-10 17-26 26-39 6-20 12-28-11-22"/><path fill="#F09D37" d="M247 205c-12 6-19 14-21 19-8 14-13 26-11 41 1 12 3 21 6 31 13 5 24 12 35 17-7-4-16-7-22-12 9 1 9-3 15-7 6 3 4 10 7 13-5-22 4-45-6-64 3-9 6-14 9-19-9 2-10 15-13 23-2-7 0-15-1-22-2 2-2 6-4 8-5 17-7 36-3 51-8-8-12-17-14-27-2-15 5-23 10-32s11-16 18-20c-1-1-2-1-3 0"/><path fill="#CBC8A5" d="M360 182c-3 10-9 10-16 15 3 0 7-1 11 2-4 7-18 17-24 28v3-2c10-6 17-9 26-12 1 3 4 9 2 8-8 10-12 11-19 15 10 2 19 0 21-1 6 5-5 6-4 10 12-2 12-8 21-7-7 8-18 22-22 25 15-4 24 0 35-2 6-2 16-8 19-16-5-5-22-10-23-5-5-4 1-5 2-7-5 1-20-16-28-19-2-2-4-6-2-8 12-10 15-10 22-21-1-2-10-5-20-5"/><path fill="#C2BD9A" d="M359 402c-5 4-6 10-13 14 1 3 2 5 2 7-17-10-6 10 5 15 3-1 17-1 21 0 11 5 23 16 26 23 5 2 9 3 14 2 0-4-8-8-12-11 5-3 8 0 8 0 1-11 7 1 2-11-3-2-9-4-15-4-7 1-7 3-12 6 4-14 3-7 11-13-9-7-12-9-18-12-5 0 5 3 2 9-11-10-15-17-20-23"/><path fill="#4C251D" d="M226 348c2 7 5 14 7 20-4-7-10 7-14 9-2 15 4 26 0 38 13-1 16-16 30-18 4 0 6 2 8 3 1-4 0-7 1-11-6-1-9-2-13-4-5-8-6-16-9-23 7 7 15 14 23 18 17-11 13-13-2-6-8-14-18-20-30-24"/><path fill="#585359" d="M114 402c-8 3-15 7-20 14 0 16-6 27-7 40 5 11 14 9 21 8-2-11-10-19-12-26 1-2 2-1 5-2 5 5 10 4 13 12 0 6 2 11 0 15 7-4 0-15-2-21 6 6 8 13 10 20 5 3 11 2 15 3 7-5 6-11 5-16-1 5 2 10-2 14-1-4-4-6-9-15-2 0-14-2-18-12-2-8 0-11 1-16 0 2-6-3-9 7 4-14 10-21 10-24"/><path fill="#CAC7A3" d="M337 139c4 5 10 10 13 11-2 5-12 4-19 5 7 3 12 1 18 5-10 3-13 7-34 12 2 4 15-7 21 0-7 4-11 6-23 7 10 3 16-2 19-2-11 11-15 15-23 19 4 0 17-4 31-6 9-3 12-6 26-18-4-1-6-3-11-6 6-8 16-1 15-6 0-17-13-19-30-20"/><path fill="#3F3748" d="M251 398c-1 3-4 2-9 3-6 9-7 6-9 17-4-4-7-7-1 0 2 8 2 11 6 15 4 3 5-2 9-1 0-4-4-5-2-9 4 12 17 7 20 18 5 6 7 10 6 16 9 5 12-7 13-1 4-5 1-9 0-13-1 2 1 5 1 8-5-1-6-4-10-8 3-6 2-5 0-8h3l-3-1c-1-4-8-2-12 0 3-4 7-6 11-4-8-9-13-23-16-27-5-2-3-4-7-3"/><path fill="#2A2029" d="M206 314c15 2 23 21 36 24 10 5 17 7 25 8 5 4 2 10 4 15-40-9-13-13-52-15-5-8-9-12-14-19-3-4 0-7 0-10"/><path fill="#5E2C1C" d="M107 369c-5 14-11 32-17 44 10-11 26-10 30-23 7 13 8 5 23 19 0-5 1-12-1-13-1 0-3 1-6 0 3-3 6-4 9-5-10-2-19-14-22-17-5-3-9-5-12-5"/><path fill="#794220" d="M268 263c0 15 4 28 12 40 0-1-1-3 0-4 3 0 2 3 3 4 3-2 5-7 9-8-11 14-18 28-19 44-4 13 11 8 13 17-5-12-4-30-1-41 1-5 4-9 7-18 4-1 9-1 10-15-2-2-6 5-8 1 5-2 9-4 12-2-4 0-7-1-10 0-9 3-8-5-11-1-3-1-10-8-15-16"/><path fill="#58555C" d="M210 302c-14 12 39 37 54 41 5-13 6-16 9-24-13-3-10 7-25 2 3 6 9 9 11 13-16-4-35-26-37-31-3-3-4-3-5-2"/><path fill="#575459" d="M409 243c6 4 2 8 0 10-8 10-27 23-28 17 4 4 10 2 13 6-5 3-11 3-14 10 8 0 15 0 21-3 0 3-2 6-3 9 18-6 20-7 28-7 0-6 1-11-4-13-3-5-4 1-6 1 0-4 1-5 2-6-5-2-8-4-14 0 0-12 22-17 7-23"/><path fill="#D67727" d="M133 323c-3 9-11 21-9 40-6-2-2-8-4-11-5 2-7 4-10 7 0 10 10 9 15 15 5-10 7-21 6-31 5 8 9 21 13 31 6 0 11-2 15-5-4-3-10-9-14-14-3-5-1-11-2-16-4 2-6-12-9-15"/><path fill="#17171E" d="M272 349c1 13 5 26 12 37 1-6 7-6 8-12 4 3 6 9 9 12 9 1 15 1 22 1 9-3 7-3 18-12-6-3-25 8-38-1-13-10-19-23-28-24"/><path fill="#4F4753" d="M334 424c-20 6 17 25 11 40 10 2 25 10 37 6 0-3-17-6-18-8-6-6-9-5-6-17-8-6-14-15-22-19"/><path fill="#C8C5A2" d="M345 275c-8 2-7 12-9 23 3 9 8 18 10 29 4-5 5-11 6-17 4 3 4 7 5 10 5-4 3-10 4-15-5-15-10-24-16-29"/><path fill="#794623" d="M269 242c-7 8-10 20-6 31-4 1-6-10-6-3-3 16-1 42 3 43 4 4 10 4 13 2s5-3 4-6c-5-12-11-23-12-35-1-13 0-22 3-30"/><path fill="#D26D21" d="M344 374c-4 6-8 11-14 13-10 3-18 2-27 2 5 7 8 15 15 17 11-1 18-2 23-7 14-7 9-15 3-23"/><path fill="#F7A537" d="M393 182c-16 9-7 24 10 19 6 4 5 11 14 16 2 2 4 3 6 4 20-1 38 6 46 19-2-9-6-13-11-16-11-5-22-3-32-4 4-2-1-6-5-11-8-9-16-14-23-23-4 2-5 5-8 6 1-5 4-6 4-8"/><path fill="#DDDCB7" d="M113 159c-11 1-22 0-32 5-5 6-9 11-11 16-4 9 4 10 3 17 17-7 22-34 44-38"/><path fill="#575158" d="M420 403c-1 8-7 14-2 21-3-2-6-4-7-6-4-2-5 3-7 3-5-3-7-4-10-6-8 11 12 10 15 21 13 2-8-6-3-7 10 11 22-1 31 10-7-13-13-23-15-33"/><path fill="#C1BD9B" d="M125 401c-5 4-8 2-14 15 4-4 4 1 4 2 0 7-5 16 1 22 4-6 10-5 5-12 4 9 13-1 19 6 2-9-4-16-7-23-5 6-4 8-8 16-1-11 1-15 6-21-2-2-2-6-4-5"/><path fill="#3C3A32" d="M152 249c-3 6-8 20-7 35 0-3-2-7 0-9 4 4 5 14 2 13 2 7 8 12 13 17 6-19-5-37-2-54-2 2-2-2-4-2"/><path fill="#FDE470" d="M281 226c-7 8-10 18-12 28 21-8 60-17 6-27"/><path fill="#403F34" d="M69 196c0 6-8 5-8 10-1-6-1-6-2-2 3 11 7 20 14 27 1-1 3-7 6-9 3 0 9-4 11-4-3-5-5-9-4-14-4-3-11-6-17-4"/><path fill="#34271D" d="M418 169c2 9 4 19 6 29 6 7 8 14 12 20 12 1 23-1 30 6-3-2-7-5-6-8 5 1 8 2 10 3h4l1-1c1-2 2-4 3-5-2 2-3 4-6 5-13-6-25-12-36-19-10-9-15-18-17-29"/><path fill="#1B1B21" d="M141 324c5 6 4 18 5 31 7 9 14 9 19 15-8-2 9-4 5-7-4-4-5-6-8-9-3-7-3-14-5-17-8-8-13-11-15-12"/><path fill="#592E20" d="M200 314c-8 16-16 32-25 48 1 4 4-2 4 3-12 7-23 5-33 12 0 2 1 4 3 5 12 6 18-4 25-8 8-18 23-45 30-61"/><path fill="#F3A33B" d="M298 193c-9 1-15 11-17 9-12 14-18 32-19 51 5-12 10-20 15-30 11-15 22-23 24-30"/><path fill="#1B1A1F" d="M352 391c1 4-12 12-13 12-5 2-13 6-20 3 4 4 9 16 18 14 5-6 32-23 17-26"/><path fill="#34332D" d="m458 159-2-1c-9 9-5 21 6 26 1-5 6-10 6-15 6-4 10 4 14 5 3-9-8-13-12-14-4 0-5-1-6-2 0 3 3 4 3 5-5 1-7-2-10-5"/><path fill="#1B1A21" d="M57 197c-2 10-3 21 1 31 4 11 7 19 15 25-2-2-1-6-5-7 2-1 4-1 6 0-2-5-1-9 1-12-12-8-15-27-18-36"/><path fill="#413848" d="M247 435c-2 3-2 1-7 3-4 3 0 10 1 13-14 2-6 4 3 7 6-1 14 2 16-1 2 0 3 2 3-3s-2-7-3-9c2 2 5 8 1 10-4-6-4-5-6-8 0-5-1-11 4-6-2-3 0-5-2-6-4 0-6 0-9-1"/><path fill="#15151D" d="M106 243c-3 3-11 3-15 7-3-2-2-3-1-4-2 7 1 14 0 21 8 2 16 4 23 2-2-3-10-9-6-26"/><path fill="#54291E" d="M414 388c-8 11-20 23-29 27 5-7 17 4 28-1 6-8 7-17 1-25"/><path fill="#605D5C" d="M133 245c-8 4-15 7-24 8 1 6 1 12 5 14 6 0 11 0 15-3 2-10 10-12 6-19"/><path fill="#CFCDA9" d="M451 239c-26 0-6 5-2 6-1 5-4 4-5 6 6 2 9 6 15 6 10 0 15-1 18-2 0-4-9-7-10-14-6 4-13 2-18-1"/><path fill="#943C43" d="M456 278c-9 0-8 9-7 15 1-1-1-2 0-4 5-2 4 5 6 6 7-1 14 4 18-1 2-9 0-13-7-15-3-2-6-2-9-1"/><path fill="#342F3E" d="M212 326c-4 13 14 17 15 19 4-4 21 9 29 2-31-19-17-2-40-20"/><path fill="#FBE46E" d="M414 157c8 10-28 17-2 21 6-4 4-11 4-18 3 4 4 6 5 9 9 0 18 0 24 3-7-13-20-13-29-15"/><path fill="#3B3B32" d="M217 224c-7 4-12 17-16 26 2 10 4 16 7 23 2-17 9-43 13-49"/><path fill="#5D301F" d="M328 242c3 2 4 4 6 7-3 5-7 6-9 10 7 4 14 7 20 12 4-6 5-11 4-18-6-2-12-8-18-10"/><path fill="#403D31" d="m511 139 1-1c5 10 3 20-7 25-11-5-15-16-17-13 8-1 7-2 12-3 4-7 11-1 9-7"/><path fill="#EC8A2B" d="M501 177c6-3 7 6 8 10-2 10-11 14-14 19 0-7 0-21-8-23 6-1 7-5 12-5"/><path fill="#F6AB3E" d="M158 227c-12 13-21 27-25 42 2 4 5 6 6 9 3-19 13-40 22-51"/><path fill="#5E5A58" d="M377 163c-5 1-9 3-13 3 3 2 5 3 8 6-4 3-7 6-13 9 9-2 17 0 23 5 13-5 4-14-4-22"/><path fill="#C8C4A0" d="M375 443c-17-5-21 5-13 16 6 5 13 1 18 6-1-7-7-8-9-12 1-2 4 0 6-1 1-2-2-4 1-6 4 2 4 2 1-1-5 0-3-3-5-1"/><path fill="#262523" d="M473 176c-1 2 2 5-4 16 0 0-2-1-1-4 3 7 5 9 9 13 1-2 3-3 6-7 2 3 6 3 6 7 2-3 2-7 3-9-7-7-11-12-15-14"/><path fill="#2A0F1A" d="M473 261c4 3 5 11 1 11 6-10-10-5-8-9-4-1-16 1-16 6-4 3-1 0-2 4-3-3-5 1-6-3 0 5 4 6 4 10-1-2 1-3-1-5l2-3 1-1h2l2-1c7 6 7 5 19 10 0-2 0-3 1-4 0 8 4-3 4 10 5-8 2-12 1-25"/><path fill="#211E1E" d="M426 125c-4 3 0 7-9 10-2 2 1 5-2 5 3 0 0-3 2-4 17 4 19 15 27 17 1-3 0-6 3-9-8-6-15-13-20-18"/><path fill="#E9872A" d="M505 176c-6 4-12 5-17 7 4 1 7 11 6 8-1 7 1 15 0 18-2-4 11-12 13-17 1-12 2-7-2-14"/><path fill="#C5C09C" d="M447 436c-14 1-5 10-2 17 4 6 9 6 12 8 0-8-4-9-5-12 9-1 3-11 10-7-5-4-10-7-16-5"/><path fill="#4D4552" d="M226 414c-1 2-3 3-4 5 8 12 7 25 12 36 13 1-3-14 8-21-2 3-3 2-4 1-5-7-6-13-10-21"/><path fill="#565558" d="M328 173c-12 2-21 2-39 1 7 6 14 13 22 15 5-2 9-5 13-7-5-3-14 2-15-3 9-1 24-7 22-7"/><path fill="#C8C6A5" d="M227 303c0 7 12 20 26 29-3-4-4-7-8-11 4 0 14 0 16-1-12-5-20-12-32-15"/><path fill="#535457" d="M347 190c-14 8-24 7-48 10 5 5 16 8 23 10 5-1 7-4 10-4-2-2-8-2-7-6 10-3 17-7 24-10"/><path fill="#33342F" d="M243 226c-11-2-12 11-16 18 0 12 1 21 6 28-1-16 1-31 8-44"/><path fill="#524F57" d="M356 218c-6 4-22 8-32 19 8 1 13 0 17-2 8-6 21-12 16-15"/><path fill="#36313C" d="M419 254c-5 3-14 2-13 11 5-3 8 0 12 1 1 2 0 3-1 5 0-2 3-5 4-1 6 4 7 8 9 12 1-5-5-17-7-28"/><path fill="#765B3F" d="M428 202c7-1 14 5 20 6 5 2 3 5 2 8-4 4-8 2-10 3-7-5-8-10-10-14"/><path fill="#FBDE68" d="M133 272c-2 6-1 14-2 21 8 5 18-1 22 9-15-6-6-23-20-29"/><path fill="#5A585A" d="M354 313c-4 13-11 27-15 34 9 3 12-4 14-11 2-8 2-16 2-21"/><path fill="#CFCCA7" d="M92 223c-1 1-2 0-3 1 0-1 2 2 5 0 3 5-14 11-17 12 2-1-2 8 0 12 2 2 5 1 7 3-4-15 27-27 10-28"/><path fill="#C5BF9B" d="M422 436c-10 6 8 16 5 23 3 2 7 4 8 2-2-7-10-9-9-13 7 3 10 7 12 12-5-12-5-9-12-25v1h-1v1"/><path fill="#F8E169" d="M287 192c-2 1-4 1-6 2-11 9-19 18-25 28 6-11 44-31 36-30"/><path fill="#3E3E34" d="M183 234c0 3-7 11-7 21 2 7 4 13 6 18-1-12 4-25 5-36-1-1-2-2-4-1"/><path fill="#231E2C" d="M208 315c-7 10-2 13-1 15 8 6-1-1 8-5 8 5 13 11 20 14 3-3-7-10-27-25"/><path fill="#3D3C32" d="M101 228c-1 2-5 5-6 8-4 7-5 6-5 14 5-5 10-5 15-8-3-8 9-17-3-14"/><path fill="#646261" d="M437 227c-57 7 23 4 21 14-3-7-13-13-23-13"/><path fill="#F6A93D" d="M364 210c5 8 25 12 34 19 7 1 10-1 13-2-19 2-29-17-42-17"/><path fill="#FAE572" d="M385 192c-6 5-12 12-19 16 7 2 47-4 17-9-1-3-1-4 0-5"/><path fill="#EF9A36" d="M131 296c1 7 3 14 5 20 2 8 5 13 7 18-2-5-4-10-7-15 1-9 8-15 13-19 5 5 10 9 13 13-4-6-6-8-12-13-6-7-13 0-17-4"/><path fill="#33322D" d="M381 210c3 5 12 10 18 12 12 6 5-6 17-3-7-8-31-5-35-10"/><path fill="#411F1A" d="M262 348c-27 5-8 8 7 14-1-6 0-10-1-13-3-1-5-2-6-3"/><path fill="#625E5D" d="M483 301c-1 7-28 2-28 5-5 1-2-3-4-4-2 4 0 8-2 11 6 6 12-7 24-5 2 4-7 6-3 7 11-3 6-11 17-14"/><path fill="#5B2F1C" d="M330 316c1 12 0 24 5 34 0-12 5-11 9-14-9-3-8-13-14-17"/><path fill="#F8A032" d="M483 226c-7 6-16 3-1 10 5 0 10 2 14-1-2-4-2-8-5-9-4-1-5-1-6 0"/><path fill="#1A181D" d="M132 345c3 15-1 20-3 30 3 2 11 3 15 2-5-9-7-18-11-30"/><path fill="#F8DD67" d="M196 209c-6 5-18 9-22 19 1-3 3 3 5 3 4-8 18-18 21-22"/><path fill="#383732" d="M273 210c-3 7-14 12-17 27-3 12 0 14 1 24 2-7 2-17 4-23 3-10 5-19 12-26"/><path fill="#67311A" d="M296 391c-7 9 1 6 9 17-2-2 4-2 11-1-7-4-9-11-14-15-4-2-2 2-7 0"/><path fill="#544C55" d="M383 445c5 7 14 14 10 24 9 1 15 1 22 1 2-5-8-6-13-5-8-8-10-11-16-20"/><path fill="#4D4E50" d="M409 236c-24 1 5 4 10 8 5-3 8-5 11-7-6-3-14-1-20-2"/><path fill="#793F1E" d="M488 201c1 6 1 7-1 10-16-9-9-7-7 5-5 5-1-2-7 5 10 2 2 3 16 1-11 1 16 7 9 13-1-1-3-15-8-13-2-2 1-13-2-18"/><path fill="#E18A30" d="M253 296c-32 6-4 11 4 18-2-13-1-3-5-18"/><path fill="#7C756C" d="M377 153c1-2 19 15 17 24 5-1 6-7 10-9-12-2-16-13-26-16"/><path fill="#807E72" d="M157 207c3 3 6 7 10 9-1 5-6 3-8 7 7 1 11-2 16-4-4-4-2-7 3-6 0-4-12-3-19-6"/><path fill="#7B421F" d="M397 185c9 6 29 25 35 33-2-19-17-8-22-31-2 5-8-2-10-2"/><path fill="#F6CE54" d="M296 299c-8 8-14 33-2 11 1 4 0 7-2 9 1-1 4 0 3-3 6 3 10-1 14 2-3-1-6-1-9-3-2-6-1-11-3-15"/><path fill="#ECB13E" d="M110 358c-4 4-7 4-10 8-3 10-2 17-5 23 8-6 4-21 17-22-2-2-2-5-4-7"/><path fill="#D8D4B0" d="M192 195c3 2 5 5 8 7-16 9-9 6 20 2l-2-1-1 2c-6-3-14-11-24-9"/><path fill="#3D3A30" d="M390 146c-11 5 7 16 19 13-1-1-13-6-18-12"/><path fill="#6F3E23" d="M208 279c0 9 0 21-4 27-3-2-1-2-2-5 1 3-1 3 0 6 5-5 10-11 18-9-3-7-8-11-11-18"/><path fill="#4F4E58" d="M372 245c-5 3-9 3-17 5-1 5-3 6-2 10 8-2 16-11 19-13"/><path fill="#5B585C" d="M75 248c-1 9 4 15 13 17-1-4-2-7-1-11-4-2-8-2-11-4"/><path fill="#6E4420" d="M504 205c5-3 4 8 2 9-2 4-4 6-6 6-7-6 0-10 2-12"/><path fill="#E8E6CA" d="M472 238c-1 6 17 8 23 6-2-7-15-2-20-7"/><path fill="#D6D2AE" d="M193 196c7-1 14 3 19 7-3 3-7 3-10 4 2-3-7-6-6-9"/><path fill="#FBDB63" d="M484 149c7 4-6 11 4 15 4 1 6-3 10-2-4-5-8-8-13-11"/><path fill="#24211F" d="M410 183c-1 5 7 15 13 20 0-5-2-20-13-17"/><path fill="#635E5C" d="M501 242c-6 6-18 6-24 1 2 3 10 6 6 11h10c8-3-7-1 8-11"/><path fill="#37333F" d="M428 288c-11 2-21 7-33 8 5 3 11 1 16 0 8-1 18-4 17-7"/><path fill="#B8B594" d="M343 178c18 0-2 12-6 11 1-7 3-5 8-10"/><path fill="#D0CEA7" d="M117 232c-3 5-4 5-8 13 4 0 4-9 13-12-1 5 12-5 7 7-7 3-15 4-18 11 8-3 15-4 22-9-4-7 0-14-10-9-4-1-6 3-8 1"/><path fill="#302E2C" d="M509 256c1 8-5 11-9 16-3-3-3-6-2-8 3-3 1 2 2 3-3-6 5-7 8-8"/><path fill="#3F3C47" d="M361 272c5 3 7 9 11 14 10-3 7-4 10-8-8-1-8 1-15-2 2-5 3-3 6-4-4-1-6 0-9 0"/><path fill="#342B3C" d="M280 433c4 7 13 15 8 24 3 0 5 0 6-1 2-6-3-11-12-23"/><path fill="#252423" d="M373 138c0 4 1 9 11 15 2-6 6-5 3-8-8-2-6-2-13-7"/><path fill="#DDDCBA" d="M125 437c-6 1 6 7 4 9 1-11 11 0 10-7-2-5-7-3-10-4"/><path fill="#D1CCA8" d="M193 196c2 5 9 7 9 9 7 1 12-5 17 0-7-5-10-3-25-9"/><path fill="#F19830" d="M484 196c-3 2-2 4-5 7 1 3 1 5 2 7 7-2 8-9 4-12"/><path fill="#D3862F" d="M239 265c5 7 4 20 10 28-8-6-9-16-11-24"/><path fill="#09080A" d="M321 237c10 5 24 10 32 17-2-3 1-5 2-8-13 1-21-7-31-8"/><path fill="#403D38" d="M512 157c6 0-4 11-1 15-5-1-5-4-7-6 3-4 5-5 6-7"/><path fill="#837E74" d="M503 243c-1 5-5 8-7 11-6 1-10 1-14 1h11l3 1h2c1 2 4 1 6 2 9-10 9-12-7 0 3-3 7-5 9-10l1-1-2-1 1-1"/><path fill="#D97622" d="M409 349c-7 2-6 14-2 22 5-6-1-12 2-21"/><path fill="#292826" d="M102 244c7-3 3 4 3 8-5 1-7 2-10 2 2-5 6-11 6-7"/><path fill="#C37A28" d="M195 296c-1 10-5 12-7 17-1-6-1-12 5-14"/><path fill="#5B5845" d="M507 146c-1 2-9 4-14 5 2-5 31 12 16-4h1-1"/><path fill="#0F0D18" d="M521 210c1 6-6 12-12 14 9-3 24-1 13-13"/><path fill="#F5A639" d="M402 177c-3 0-2 3-3 5 3 1 4 3 6 4 3-2 3-4 5-4-1-5-5-4-6-6"/><path fill="#5F5D47" d="M67 185c-2 10-12 7-6 19 4 0 8-11 9-6-2-6-7-4-2-11"/><path fill="#484537" d="M495 153c-1 3 6 2 6 7 7 1 9-5 11-5 1-2-10 0-14-3"/><path fill="#220C15" d="M430 248c6 13 4 14 11 17-3-8 1-8-9-16"/><path fill="#DCD9B6" d="M90 221c-1 1-2 0-3 1-8 1-8 6-10 11 5-4 10-5 15-8-2 0-5 1-6-1 12-4 18 7 5-5"/><path fill="#0E0E0E" d="M145 396c4 8-1 21 1 31-3-9-2-18-1-27"/><path fill="#645E5C" d="M113 162c-9 5-19 12-23 22 5-1 9-9 26-24"/><path fill="#DFDCB4" d="M181 204c-6 0-11 3-17 3 5 1 12 1 18 4-1 3-3 4-6 5 4 0 7-3 11-4-2-5-7-1-8-6 12-3 17-2 2-3"/><path fill="#DAD7B3" d="M128 234c-7 5-14 9-18 17 4-13 20-4 20-17"/><path fill="#8E8A67" d="M436 127c3 16 12 9 23 17-9-7-13-10-22-14"/><path fill="#1D1B1D" d="M89 192c-5 5-2 21 2 27h-6l3 1 2-1c1-1 3 0 4-1-6-8-6-18-5-26"/><path fill="#DEDBBD" d="M443 238c-2 1-5 0-6 1-30 20-11 2 5 5-2 0-4-2-7-1 10-10 25 5 31-4 3 7 8 10 13 14-7 3-14 7-21 5 8 3 15-2 21-3-4-4-10-9-11-16-9 6-18 1-23-2"/><path fill="#0E0E10" d="M423 186c4 2 7 10 13 13-9 1-12-5-13-11"/><path fill="#62361E" d="M215 287c1 2 3 4 2 7-11-4-10 11-14 6 1 3 0 5-1 8 5-9 7-11 17-9-1-5-1-9-3-11"/><path fill="#5E5D48" d="M404 207c-11 3-15 2-21 4 7-3 34 9 20-3"/><path fill="#19181A" d="M385 153c6 7 13 10 18 10 3 0 9 2 10-3-8 1-18 1-24-6"/><path fill="#491A26" d="M451 271c-5 2-5 6-3 10 4-4 8-5 13-4-9 0 0-4-9-5"/><path fill="#605C46" d="M143 229c-1 2-5-1-6 1-1 4 10 2 1 10 4-3 16-10 6-11"/><path fill="#24211F" d="M417 217c-29 12 12 5 13 10-5-4-13-7-16-8"/><path fill="#7E4D28" d="M260 210c-5 2-7 6-10 9-3 6-4 9-3 15 2-4 5-14 11-23"/><path fill="#7A746F" d="M113 163c-13 16-25 16-25 28 4-5 15-18 23-25"/><path fill="#898461" d="M71 170c-4 10-11 11-11 24 9-5 4-15 12-22"/><path fill="#111110" d="M389 471c9 0 19 1 28 0-8 2-18 4-25 1"/><path fill="#6A3B23" d="M209 293c1 0 3-1 7-1 2 5-15 14-8 3"/><path fill="#E0DDBC" d="M148 435c-8 0-1 5 0 9 2-3-4-9 4-9 2 6-2 13 2 16-3-11-1-9 3-10-3-6-5-6-7-7"/><path fill="#8A4521" d="M299 187c-20 2 4 6 8 6-2-3-5-3-8-5"/><path fill="#51515C" d="M341 208c-5 1-9 2-15 5 8 7 14-3 17-6"/><path fill="#070507" d="M431 247c-2 1-5 1-7 3-6-2 6 13 5 23-3-7-3-16-7-22 3-1 6-3 6-2 4 9 6 16 8 23 3-15-3-3-6-22v-1l1-1c3 1 6 4 8 6-3 4 7 6 4 17-2-4 1-10-1-15 3-2 5 2 7 3-5-4-10-8-16-11"/><path fill="#61341C" d="M286 293c0 2-2 4-4 1-4 7 6 3 3 9 1-3 3-1 5-5 1 8-4 12-5 17 7-15 14-22 1-19"/><path fill="#383731" d="M418 175c-2 3-5 5-6 9 1-1 3 2 5 1 3 2 3 5 4 8 0-6-3-11-3-16"/><path fill="#D2CEA3" d="M194 204c-4 2-11-2-14 2 7 1 3 5 9 5-7-4 15-4 5-8"/><path fill="#131212" d="M385 471c14 3-13 5-18 3 5-1 10-1 16-1"/><path fill="#9D976A" d="M169 231c-10 1-11 8-13 9 1 2 3 2 5 3 2-3 4-11 6-11"/><path fill="#555140" d="M85 192c-3 3-8 3-10 8 4-3 8 1 9 6 0-4 2-9 0-13"/><path fill="#6A3B21" d="M285 293c7-3 4 8-1 7-1-1-2-2-4-3l1-3 1-2 2 3"/><path fill="#2D1918" d="M226 349c-6 2 16 2 22 12-3-4-4-8-9-10-5 0-9-3-12-2"/><path fill="#733E22" d="M314 210c7 23 5 0 11 23 4-6-1-10-3-16 1 0 3-1 4 0-8-4-7 0-11-3"/><path fill="#585544" d="M156 243h-2c-1 2-1 5-3 7 4-1 14 2 8-8"/><path fill="#C6C29F" d="M381 157c2 6 1 6 10 17 4-3-2-10-9-16"/><path fill="#8C4C18" d="M423 178c3 6 9 19 23 25-6-4-17-15-23-23"/><path fill="#612F17" d="M515 207c-1 3-3 5-3 9-2 2-15 6-15 7 6 0 11-3 15-2l1-2v-1l1-2c-1-3 1-5 0-8"/><path fill="#040306" d="M363 257c-3 2-5 4-8 5-9-11 1 6-7 5 29-1 20 11 30 4-8-1-17-2-26-3 1-4 5-5 8-10"/><path fill="#DF8325" d="M518 200c-4 5 5 9 9 14-1-5-7-13-9-12"/><path fill="#BAB580" d="M202 213c-5 2-8 7-12 10 9 4 10-10 13-10"/><path fill="#3D3D41" d="M400 308c6 0-3 10-5 13-1-3 2-7 4-10"/><path fill="#1E1E1C" d="M148 235c-4 3-8 5-11 8 2 0-2 3 1 4 1-3 9-9 11-11"/><path fill="#211C1C" d="M521 244c8-2 9 1 12 4-4 3-6-1-9-2"/><path fill="#181716" d="M212 251c2 14-8 27 0 30 1-8 0-19 1-29"/><path fill="#070814" d="M410 370c3 0 1 9 3 11-6 0-6-6-4-8"/><path fill="#32312F" d="M107 243c-16 14-8 2-15 8 2 1 7 2 11 1 2-2 1-4 2-6"/><path fill="#7F421D" d="M450 205c7 3 16 13 25 10-6-1-13-4-22-9"/><path fill="#615B48" d="M392 147c5 2 9 8 16 8-2-6-9-4-15-8"/><path fill="#C8C3A0" d="M472 309c-3 2-10 0-13 5 6 2 11-1 14-6"/><path fill="#978E62" d="M419 138c-5 5 7 7 12 7l-9-6"/><path fill="#67635D" d="M522 231c-2 1-5 0-6 1-7 5-11 3-12 11-4-11 41-11 22-13"/><path fill="#080813" d="M513 188c3 1 4 11-1 13-1-3 2-6 0-11"/><path fill="#FBDE6A" d="M468 225c2 6 8 4 12 2-2-2-6-2-10-2"/><path fill="#63331E" d="M322 217c2 2 3 6 4 8 2-3 5-4 5-6-3-3-4-1-7-2"/><path fill="#5C5B47" d="M187 230c-3 1-3 4-5 6 0-4 8 1 6 2 1-2 6-8 0-9"/><path fill="#1E1E1E" d="M297 407c5-1 9 8 14 10-5 0-8-4-12-7"/><path fill="#7F7B6D" d="m185 195 5 5c-1 3-3 3-6 2 5 1 12-1 14 1-2-3-13-9-4-9-4 1-5 1-7 0"/><path fill="#463A4B" d="M446 459c2 5 4 5 15 7-1 1-8-9-13-6"/></svg>