<svg xmlns="http://www.w3.org/2000/svg" width="600" height="600"><path fill="#535358" d="M421 124h2c11 22 11-10 27 23 2 10 3 21-4 30 9-3 17-10 23-15 6 0 1 10 1 14 5-3 9-8 13-11 1 13-4 25-12 32 6-2 13-3 19-6 1 7-4 10-7 14 11 4 19 14 26 19 31-17 24 10 3 17-5-1-11-2-15-4-1 5-2 9-4 12-5-6-7-13-12-16-4 4-4 7-6 9 4 8 7 14 9 20-4 2-7 2-9 3-1 8 0 16 2 23-4 6-8 6-11 9-10 2-22 2-27-5-6 9-14 17-24 22-3-6 4-10 3-16-5 1-10 4-16 5-1-5 2-7 4-10-1-4-6-2-8-2 5-7-4-9 0-15-10-1-18 8-25 15 4 8 9 14 11 21-9-1-18 0-27-1 5 7 6 14 8 21-4 1-6-3-10-3 4 5 9 11 11 17-11-2-20-6-31-8 0 19 15 29 25 43 1 10-2 17-5 24-20 6-32 19-43 32-3 2-4 1-5 2 4-4 4-5-1-2-6 3-11 5-16 6 5 0 10-3 15-5 1 4-3 2-4 5-9 3-19 1-22-5-16-10 4-24-9-27 4-5 7-7 11-9 7-1 14-2 16 3 6-4 18-10 14-16-15-5-26-16-38-24-13 0-21 12-33 15-3-7 1-13-2-18-6-2-12-5-17-6-4 13-16 21-14 36 11 26 21 47 42 63-10 4-14 9-20 9-13 0-28-1-35-4-7-2-9-6-11-11-4-13 13-15 9-27-8-17-25-30-32-46 1-10 10-9 13-17-1-3-1-5-2-6-11 16-25 29-35 45-1 14-1 25 3 34 6 15 21 23 20 34-32 9-34 2-44 1-9 0-10-12-6-17-5-2-4 15-12 10-3-6-4-10-6-14 3-9 11-12 15-16 2-25-10-41-6-64 8-1 17-3 20-12 1-24-8-42-8-63 0-14 0-26 3-37-12 15-20 31-27 48-6 1-9 2-13 3-2 13 2 26 8 35-10 7 1 17-3 27-7 17-19 28-23 46-8-1-5-15-4-22-9 2-22 3-30-2 6-1 15-6 19-15-2 1-8 2-9-1 11-11 21-16 33-20-1-5 3-8 0-10-4-5-9-5-12-8-2-12 3-25-7-29 3-11 7-18 11-25 4-8 13-2 17-6-12-8-26-9-41-11 10-7 19-10 29-12-2-2-11-2-10-6 17-1 31 2 44 7-8-13-21-24-33-31 3-6 11-3 16-5-2-2-6-3-8-6 21-1 37 4 50 15 4-2 6-3 7-4-5-4-10-5-14-7 3-2 3-6 6-7-2-1-6-1-7-4 16 0 29 1 41 6-5-4-11-4-14-10 1-4 3 0 7-2-5-5-11-7-16-12 18 0 32 7 45 15-1-3-5-7-9-9 1-4 5-2 8-3-2-4-8-7-8-11 16 3 30 9 38 19 2-4-4-13 2-14 9 6 16 12 20 17 1-2-1-5 1-7 6 1 7 5 10 6 0-4-3-10-1-15 10 7 17 14 24 19 0-8-7-17-4-25 11 8 20 18 25 27-1-7-8-13-13-19 1-4 3-1 5-1 1-2-2-4-2-5 9 0 15 6 22 11-20-18 2-14-19-26 19-2 32 6 43 15 1-7-5-8-8-11 0-4 5-4 7-3 1-5-1-7-2-12 15 1 21 20 32 18-2-4-4-6-7-9-1-4 4-4 5-3 0-4-11-10-4-12 13 4 20 13 27 22-5-15-12-28-23-40 15 2 24 10 34 19 0-5-6-9-7-14 11 2 17 8 23 15-2-2-2-5-4-7 3-2 5 0 7 1-1-5-1-6-1-12 8 5 15 11 19 18-1-6 0-5-6-11 4-2 5-1 6 0 5-4 3-8 1-12"/><path fill="#14131D" d="M150 267c-17 15-13 41-32 51 10 11 20-11 31-5 5 4 17 13 25 13 0-10-12-28-20-34-2-8-2-16-5-22"/><path fill="#14141F" d="M383 211c-3 3-11 1-17 5-8 12-13 25-14 38 0 13-2 21 1 29 6-2 10-6 13-13 0-15 12-29 5-34 15-5 1-10 13-11 0-5 9-18 0-12"/><path fill="#32353F" d="M215 207c1 5-5 1-3 4 3 2 8 0 9 5-4 3-8 5-15 5-6 6-9 12-12 19 13 0 18 9 31 11-1-13 48-42 16-37-9 8-18 15-22 18-2-6 6-14 10-22-4 0-7-3-12-2"/><path fill="#5F5E6B" d="M191 288c-3 1-5 5-6 9 6 15 11 30 25 41 8 8 16 12 24 15 11 5 22 6 32 6-14-9-30-13-42-25-14-19-27-25-32-44"/><path fill="#32343F" d="M394 150c6 3-2 7 3 9-4 2-5-1-6-2-2 3-6 0-2 12-2-4-6-8-4-11-5 0-7 0-10-1 2 3 5 8 2 12-9-11-4 1-3 8 9-5 29-1 31-9 7 2 13 3 20 2 7 1 13 5 19 5 2-6 5-12 5-18-5 0-6-4-7 2 1-8-8 1-5-8-2 11-10-4-9 11-5-2-2-5-5-6 3 4 2 9 4 13-2-5-8-10-6-14 1 4-2 1-4 2-5-8-8 0-11-4-3 5-7-6-5 3-4-4-2-2-5-3"/><path fill="#31343E" d="m269 217-2 1c-9 16-13 24-17 42 6 3 11 6 17 10 3-8 12-32 21-38-7-6-9 0-12 3-4-8 12-22-5-19"/><path fill="#9C9FA2" d="M144 313c-12 8-29 15-9 28 6 2 11-3 22 0 6 4 1 8-1 10l4 4c8-6 10-14 14-21-8-7-18-12-26-20"/><path fill="#0B0A12" d="M213 415c-4 6-13 3-18 3-1 4 1 5-1 10-2 7-9 11-9 15-2 6 1 8 3 11 1-4-1-13 3-12 4-3 9-1 9 2-2 8-5 6 0 16 5 3 8-1 20 1-1-5-2-10 1-15 7 0 11 0 10 6 0-3 1-8 4-9-5-4-13-9-16-14-4 3-16 4-22 1-3-12 26-4 18-16"/><path fill="#A0A5A8" d="M222 286c-4 2 2 4-1 6 8 3 13 5 20 2-2 6-10 5-19 4 3 0 6 0 9 1-2 2-4 1-5 2 0 3 0 5 1 8 12 5 23 8 34 13 1-10 4-20 3-24-10-7-26-10-40-11"/><path fill="#F9F9F4" d="M314 201c-5 0-6 4-8 7-1 21-22 24-30 47-4 16 10 21 14 32 6 2 7-4 9-3-7-9-2-28-7-36-1-2 0-3 3-2-4-2-8 0-9-4 4-3 7-4 11-5 5-10 10-19 14-27-2-1-3 1-4 1 4-4 7-5 8-11"/><path fill="#262833" d="M109 228c12 8-4 6-8 3 2 2 5 4 8 5-5-1-9 1-7 6-8-2-13-6-19-9 10 8 17 16 19 22-7-2-16 4-30-4 18 5 0 12 15 13-10-2-2 4-12 6 3 1 1 1 6 2-1 3-3 5-6 5 7 1 11 4 16 5 2-20 44-47 22-52"/><path fill="#22252F" d="M253 262c-8 3-5 8-6 15l-1 1h2c6 0 4-8 12-12-1 10 2 18-1 25 2 1 6-6 11-4 3 11-7 12 2 20 3-9 11-2 17-3 3-9 1-9-2-17-3-6-7-10-12-17-4 4-13-2-13-2-3-6-6 1-8-4"/><path fill="#FBFBF6" d="M258 213c-3 5-8 8-10 13-11 11-19 22-25 33 1-2 9-5 15-3 3 8-5 7-8 8 6 2 9 0 14 1-6 5-2 3 1 10-2-22 20-52 19-63"/><path fill="#161620" d="M344 230c-8 3-11 13-16 12-3 5-2 8-3 13-1 19 4 31 9 46 5-1 9-5 7-9-2-12-6-25-4-40 1-7 4-14 7-20"/><path fill="#0B0A13" d="M204 302c3 11 8 22 19 30 11 9 26 17 38 20-8-13-31-23-34-41-8 2-10-2-17-1-2-3-5-4-5-7"/><path fill="#60606C" d="M228 310c5 20 31 31 43 49 3-11 0-14-1-24-5 3-8 6-12 8 4-6 6-11 4-18-11-5-21-9-32-13"/><path fill="#1F1F29" d="M126 242c-2 2-4 4-5 7s-5 8-4 25c6 11 8 19 9 28-11-19 46-77-4-49-4-1 0-6 2-9"/><path fill="#F9F9F4" d="m196 208-2 1c-6 7-11 15-16 22-3 8-5 14-4 21 5 2 8-2 12 4 1-13 9-24 17-35-4-1-7-3-10-4 26-6 18-15 7-7"/><path fill="#0C0B14" d="M285 402c-14 8-12 9 0 2 4 3 2 8 7 8-6 3-14 4-17 10 2 11 5 15 12 19 13 0 18-5 31-12-4-2-12-2-17-9-2 0 3 7-4 8-4 3-8 6-15 6 1-4-2 0-3-3 7-6 13-7 19-12 1-5-1-7 0-10-3-1-3-7-13-5"/><path fill="#15151F" d="M202 264c-4 12 2 26 2 35 2 12 14 9 19 12 2-14-9-8-13-14 4-1 6-7 8-2 1-9-4-19 1-29-2 6-11-2-15-2"/><path fill="#2F323C" d="M407 175c-5 1-11 1-16 2-8 16-16 18-22 33 9-1 19-4 29-6 28-25 5-27-12 2 1-12 11-21 19-30"/><path fill="#0A0912" d="M183 298c-20 8-1 21 13 43 10 5 25 11 37 15-9-4-19-12-27-19-13-12-17-25-23-38"/><path fill="#4E4D5B" d="M196 353c-7 0-14 2-19 0v9h-1v1l-3 2c-1 4-7 4-10 7 6 12 18 15 26 16 0 1-11-19-13-23 1-2 5 0 1-3 13-1 11 3 37-2 9-8-5-8-17-7"/><path fill="#E2E2DA" d="M224 262c-5 2-4 12-5 20 13 5 25 5 36 9 3-4 2-8 1-12-5 1-7 4-11 6-1-7-1-13-4-15-1-1-12-5-15-7"/><path fill="#22252F" d="M192 240c-1 8-5 12-3 17 4 0 10 2 10-3 5 4 5 7 4 8 6 1 11 6 14 5 2-2 4-10 7-15-11-2-17-11-30-10"/><path fill="#2E303B" d="M191 209c-9 1-22 2-28 7-5 0-6 7-9 9 0 9 11-1 10-1 3 4-3 10-1 14 1 2 5 0 7 1 6-8 13-21 22-31"/><path fill="#BCC1C0" d="M358 224c-1 5-8 2-9 5-5 9-5 10-9 19-2 15 1 28 4 39 10-6-1-50 15-60"/><path fill="#0B0A13" d="M108 431c-1 5-12 5-12 13-1 5-1 5 1 10-1-8 5-13 13-12-7 9 3 5-1 24 10 0 9 3 19 1 1 0-13-8-10-34-4 1-6-1-8-1"/><path fill="#15141E" d="M292 302c-1 5-4 2-7 4 4 5 5 6 6 12-5 2-9-3-15 4-2 1-2 4-1 6 8-3 19 0 22 1 13-9 24-12 8-24-5 3-2 11-4 18-5-5-8-11-8-19"/><path fill="#32343F" d="M322 174c3 5 1 12 2 18-2-2-2-5-4-6-5-1-7-2-12-2 3 3 7 0 9 5 0 2-7 6-11 4-3-2-6-6 0-7-16-13-2 3-13-2 6 10 4 8 9 16 9-4 67-16 28-17-3-4 9-2 4-9-1 5-7 3-10 2"/><path fill="#E2E4DE" d="M329 228c-11 5-8 9-14 14 0 10-8 29 0 46 13-14 2-44 15-58"/><path fill="#62636F" d="M125 352c-3 5-8 30-6 33 6 2 11-2 16-1-4-3-6-7-9-10-3-7-3-12-1-17 4 2 4 7 7 11 7 3 12 5 18 4-10-7-12-20-24-20"/><path fill="#0B0A13" d="M369 267c-3 9-11 16-16 18 1 11-5 23-6 34 5-5 11-21 27-32-2-1-2 5-4 3-2-8 1-15-1-23"/><path fill="#2D303B" d="M334 203c-7 3-14 4-21 7-5 11-9 20-11 25 6 4 9-3 13-4 7-9 12-20 17-26"/><path fill="#23252F" d="M145 217c-12 7-13 21-27 36 2-4 14-6 26-7 6-3 6-8 11-12 2-5 5-2-2-8-4 6-10 10-14 15 0-11 5-19 7-24"/><path fill="#080610" d="M179 331c-4 5-9 17-5 21 14 2 23-4 34-2-12-5-21-12-29-17"/><path fill="#E7E8E0" d="M279 329c-3 5 3 13 6 18 9-2 15 0 23-2-7-4-5-9-11-11-5-3-10-4-15-5"/><path fill="#20222C" d="M136 434c-4 2-9 2-12 0 2 6-6 18 1 28-1-4 4-10 5-9 2 2 6-3 9 3-2-4-6-5-8-9 7 6 12 8 17 2-4-1-9-8-12-13"/><path fill="#2E313C" d="M366 195c-6 1-12 2-17 4-7 10-12 17-12 20 4 4 8-2 12-2 7-10 10-14 16-22"/><path fill="#343540" d="M56 359c-3 4-10 6-16 12 4-2 9-3 13-6-4 8-9 12-13 18 25-25-2 12 27-12-4 6-3 11-4 16 3-4 5-9 10-11-10-5-12-14-15-18"/><path fill="#A1A6AA" d="M177 270c-3 5 1 11 8 10-2 2-3 4-5 3-1 3 3 7 3 11 1-5 7-10 11-10 3 6 1 9 2 15 2 2 4 2 6 3-1-7-3-14-3-21-7-5-14-7-21-10"/><path fill="#C0C4C2" d="M323 273c-3 3-7 8-9 12 2 8 7 16 10 24 3-2 7-5 8-7-5-10-7-21-9-26"/><path fill="#E3E4DE" d="M172 249c1 7 3 10 2 18 8 4 16 8 23 10 2-6 3-12 1-17-3 5-5 8-11 13-2-6 0-12-3-16-4-4-9-2-12-6"/><path fill="#0B0A12" d="M127 359c-3 3-1 7 0 10 2 8 7 11 12 13-9 4-16 6-25 5 8 0 18 3 22 6-9 2-15 2-20 2h17l2 1c5-10 13-18 18-25-3 5-10 4-13 2-8-2-12-8-14-12"/><path fill="#5E5E6B" d="M316 388c-1 5-2 12 1 18 6 3 15 0 17 4 5-2 6-4 8-5-13 1-15-13-24-17"/><path fill="#FAFAF8" d="M418 200c-3 4-8 8-12 10 7-1 14-7 22-6-6 6-12 11-18 12-15-2-30-5-8 4 10 2 15-8 25-6 9 6 13 14 15 23-2-11-6-22-13-30v-2l-1-1c-2-2-6-2-9-4"/><path fill="#BFC3C2" d="M157 257c-5 1-9 2-15 0-5 8-7 18-10 26 5-7 9-3 17-19 3 2 4 5 3 8-1-4 7-4 8-2 0-4-3-9-3-13"/><path fill="#A3A8AB" d="M153 270c1 7 2 13 4 20 5 9 14 15 16 24-3-9-4-19-8-27-2-4-5-5-6-5 1-2 3-7 5-3-2-5-3-10-9-9"/><path fill="#0A0912" d="M397 248c-3 3-8 1-10 4-5 11-2 24-10 32 11-18 18-12 26-26-2 3-8 1-12 2 13-9 4-9 8-13"/><path fill="#999EA3" d="M419 244c1 6-7 14-3 20 2-2 1-6 2-11 3 7 9 6 11 9v4l1-1 2-1c0 6 4 3 5 2 1 7 7 12 11 20 5-9-4-13-1-23-5 2-11 2-16 1-9-6-6-18-11-18"/><path fill="#1F212B" d="M298 249c-2 13 1 29 4 29 6-6 6-13 7-24-3-2-6-3-8-3"/><path fill="#494A53" d="M87 217c3 4 10 7 3 8-16-3-27-3 2 10-5-10 13-4 12-10 4 2 8 1 12 4-4-8-18-6-25-11"/><path fill="#171721" d="M309 269c-2 5-5 8-6 10-3-1 0-3-4-2 2 10 14 21 20 36-1-16-11-26-10-42"/><path fill="#5E5E6B" d="M383 254c-5 3-10 9-12 11 0 7 0 12 1 21 2-3 4-5 6-7 3-9 3-16 5-24"/><path fill="#969B9F" d="M121 361c-4 5-11 6-17 8-2 5 0 8-1 13 6 3 10 3 15 4-3-1-4-4-5-5 3-8 6-13 7-18"/><path fill="#181822" d="M171 248c-1 6-2 3-1 7-16-12-9 12-5 18 4 4 6 1 9 3-2-9-4-16-3-27"/><path fill="#E0E2DC" d="M299 285c-4 4-3 2-7 4 2 3 3 17 5 21 1-5 10-7 12-8-2-8-9-14-9-17"/><path fill="#A1A6AA" d="M115 277c0 11 2 22 4 33 6 0 8-5 10-7 12-34 4-28-2 5-4-12-7-23-11-31"/><path fill="#F8F9F6" d="M342 199c-13 8-19 28-27 41 4 0 2-9 15-13v3-3c4-9 8-18 13-26"/><path fill="#0D0C14" d="M287 351c-5 2-10 5-13 10 5 3 7 6 12 10 0-5 7-7 9-12-3-1-9-5-9-8"/><path fill="#444650" d="M67 255c-8 1-16 3-24 6 9 1 18 5 26 3-5-2 17-9-2-10"/><path fill="#363944" d="M479 207c-2 6 0 6 1 12 3 3 7 4 10 6 3-1 5-3 9-4-6-7-12-9-19-12"/><path fill="#262933" d="M379 181c-16 3-17 5-27 7 3 2-6 7-5 10 5 0 15-6 18-2 1-5 10-12 15-16"/><path fill="#0B0A12" d="M342 296c-2 3-4 6-7 7-1 11 0 21-3 30 5 1 3-7 10-7-7-1 3-19 0-27"/><path fill="#0A0811" d="M167 382c1 3 7 8 9 13 7 0 21 2 28-3-6-4-28 0-34-9"/><path fill="#FAFBF9" d="M372 192c-8 5-12 16-18 24 3 0 6 0 8-2 5-7 13-17 14-22"/><path fill="#C6C9C6" d="M343 387c-2 4-11 3-15 2 0 2-1 5 1 8 5 4 8 5 12 6 3-6 1-10 2-15"/><path fill="#32343F" d="M116 223c7 12-9 2-12 2 4 2 1 3-1 4-4 0-6-1-8-1 3 3-3 4 3 7-5 3-8 0-10-1 4 2 8 6 12 8-3-4 6-8 8-4l-9-6 3-1 3 2c4-1 22 4 14-7"/><path fill="#1F212C" d="M348 219c-4 1-8 5-11 2-6 8-6 12-8 18 9-9 21-12 21-22"/><path fill="#12121C" d="M131 343c1 3 2 7 5 9 7 5 14 5 23 11-2-11-21-15-26-19"/><path fill="#FBFCFA" d="M463 204c-6 7 5 16 12 14 2-4 0-6 1-10-5-1-7-4-10-4"/><path fill="#262833" d="M339 192c-7 3-14 3-19 8-4 3-4 6-6 9 5-3 12-4 18-7 3-2 6-6 6-8"/><path fill="#494C55" d="M364 148c-2 3 7 16 11 21 4-5 0-9-1-13 5 8 3-4 10 4-7-16-9-1-17-13"/><path fill="#161721" d="M301 347c-5 4-10 1-13 4 1 4 3 4 5 7 8-1 29-10 9-11"/><path fill="#63626F" d="M332 305c-2 0-3 6-7 5 2 6-1 15 2 18 7-5 6-14 7-21"/><path fill="#747782" d="M276 331c-4 2-7 3-5 7 2 7 1 12 6 17 2-3 6-3 7-5-5-7-6-12-9-17"/><path fill="#12111B" d="M171 285c-7-3 1 21 5 18-1-3 5-4 6-6-4-5-2-9-5-11-2-3-1 1-5 1"/><path fill="#4A4C55" d="M428 139c3 5-7 2-3 8-14-14-2 4 1 12 2-2 2-3 3-6 2 2 4 1 6 2 1-6-1-10-7-13M289 171c11 8 0 8 7 14 2-2-1-3 0-4 5 1 8 5 12 6-5-6 8-2 10-4-14-15-12 0-27-10"/><path fill="#33353F" d="M453 176c2 3-3 2-3 5 6 5 10 13 16 18 6-10-1-7 3-15-11-5-12-2-15-7"/><path fill="#090811" d="M207 400c-7 3-14 4-22 3 3 9 40 7 22-2"/><path fill="#22232E" d="M54 372c-8 10-17 11-21 16 7 3 19-3 21-2 12-13 16-15-5-2-2-5 2-7 3-9"/><path fill="#20222C" d="M161 239c0 4-2 7-1 12 2 2 7 2 7 4 1-2 4-8 4-14-2-3-6 0-9-2"/><path fill="#32343E" d="M184 193c8 11-14-2 0 10 8-1 15-1 23 0-3-4-4-6-7-8-4-1 2 2 1 3-11-6-9 2-16-4"/><path fill="#DDDED9" d="M155 244c-9 0-8 6-13 13 5 2 8 0 12-1 2-4 3-11 3-13"/><path fill="#33343E" d="M150 195c11 12-9 8 10 15 3-1 9-4 15-5-12-6-13-2-24-7"/><path fill="#E6E8E1" d="M278 305c-5 5-6 6-4 14 5-3 8-5 14-1 1-5-5-8-5-12-4 1-1-4-4-1"/><path fill="#0C0C13" d="M322 311c-6 1-2 4-5 16-2 6-5 15-9 16l1 1 1 2c1 2 5 3 4 7-3-2 4-9 7-14-6 0-5 7-10 7 5-11 6-7 5-18 3 2 5-1 7 2 3-6 0-12-1-18"/><path fill="#636470" d="M293 363c-7 5-6 10 2 12 6-1 9-4 13-6-5 2-8-7-13-5"/><path fill="#383943" d="M244 359c-7 30 8 8 16 7-6-1-7-6-16-5"/><path fill="#21212A" d="M429 270c-3 5-6 9-9 14 3-1 7-1 9-5-1 3-4 12-6 9 2 5 4-2 6-2 2 3 4 4 3 6 4-3 2-1 4-4 0-6-5-11-6-17"/><path fill="#0B0B14" d="M333 336c-10 15-14 7-15 17 6 2 12-2 16-1-2-8-1-8-3-12"/><path fill="#DDDFD8" d="M329 379c0 2-4 4-2 9 2 1 13 1 15-1 2 2 2 4 1 5 1-4 1-8-1-11-5-2-10 1-12 0"/><path fill="#575764" d="M181 367c-1 5 1 9 3 13 3 3 5 3 7 0-2 0-4-3-5-5 5 1 7 1 11 0 1-7-10-4-14-8"/><path fill="#383842" d="M368 298c-23 12 10 13 8 10-2-6-6-10-9-9"/><path fill="#4B4857" d="M211 407c-5 5-13 3-20 4 1 1 2 5 5 5 8 1 20 1 17-7"/><path fill="#F8F9F5" d="M421 221c-5 2-10 6-15 8-8 1-13 0-17-3 2 3 5 5 9 6 11 2 15-5 22-7 11 2 18 8 6-5h-3v1"/><path fill="#373841" d="M429 288c-2 0-3 1-4 2-5 11-4 15-9 20 14-9 24-20 14-21"/><path d="M313 355c-5 2-11 2-14 6 2 2 5 5 8 6 3-7 17-10 7-13"/><path fill="#E1E2DB" d="M114 409c1 2 2 4 1 8 6 2 12 2 15 0 2-7-9-6-13-9"/><path d="M347 381c2 7 2 14 3 21 4-6 6-12 7-17-3-3-5-3-7-4"/><path fill="#11101A" d="M299 419c-6 6-14 7-21 11 6 3 3 3 12 2 4-7 13-3 9-13"/><path fill="#33343E" d="M360 170c3 9-11-2-3 13 5-2 9-3 13-5 1-2-2-4 0-6-4 1-7-5-8 1"/><path fill="#4E4D5A" d="M216 419c-4 9-17 4-21 7 8 2 28 7 22-5"/><path fill="#F8F7F3" d="M463 235c-11 11-6 28-13 40 11-7 2-30 16-38"/><path fill="#333540" d="M280 190c13 12-4 8 7 14 4 1 8 0 11-2-1-9-12-3-15-12"/><path fill="#0A0911" d="M60 310c-1 1-2 0-3 1-1 6-1 10-1 15 12-5 14-13 9-18"/><path fill="#090810" d="M213 363c-12 4-24 0-35 2 9 2 26 7 36 0"/><path fill="#14141E" d="M106 385c1 10 1 0 6 9 8-1 15 0 21-1-7-4-18-5-25-6"/><path fill="#FBFBF9" d="M430 175c-12 5 8 8 10 14-2-3 1-6 2-9-5-3-8-3-10-5"/><path fill="#0D0D14" d="M70 293c-29 2-8 5 9 10 8-3-12 2-10-3 7 0 19-8 17 1 1-1 0-3 1-4-7-1-14-2-20-4"/><path fill="#0C0B13" d="M452 279c0 1 6 4 4 9-4 3-4 4-6 4-10-9-11-11-2 1 6 3 1 2 8 2 6 1 11-2 17-5-5 3-7-1-10-1-2-3-7-5-9-9"/><path d="M65 280c-12 10 8 12 14 13-3-5-8-7-13-10"/><path fill="#62636F" d="M347 292c-5 7-2 22-7 31 6-8 9-19 9-29"/><path fill="#22232D" d="M71 378c-3 2-5 6-8 9 0-1 0-4-1-7-6 14-10 17-7 29 3-11 8-22 16-30"/><path d="M469 261c-4 4-5 10-6 15 2 5 6 4 7 7-1-7 0-14-2-20"/><path fill="#535358" d="M129 250c4 1 0 14-1 19-4-3-5-7-4-12 0-3 3-4 3-5"/><path fill="#D8DAD5" d="M113 396c-1 11 11 4 16 8 1-3 0-5 1-6-6-1-11-1-16-2"/><path fill="#0C0B13" d="M307 369c-3 5-7 6-10 9 5 1 6 5 8 3 5-6 14-12 4-10"/><path fill="#60616D" d="M301 407c-2 5-1 10 3 13 5 4 9 5 13 6 4-8-19-4-15-17"/><path fill="#2F313C" d="M305 204c-14 2-13 14-19 19 1 0 3 0 5-1 5-1 6-5 8-8-7-1 2-6-2-4 5-5 4 1 7-6"/><path fill="#5E5D6B" d="M309 401c-2 3-4 7 0 11 8 0 14 5 19 3-3-3-8-1-11-3-5-4-6-7-7-10"/><path fill="#333540" d="M78 255c-17 14-4 15 9 9-14-1 3-6-14-9"/><path fill="#73747F" d="M318 319c-16 8-6 11-13 18l2 4c6-6 9-13 9-20"/><path fill="#0B0A12" d="M122 336c1-4 3 11 0 15 4-4 10 2 15 3-14-13 8-6-16-18"/><path fill="#4C4D55" d="M322 166c-1 4 2 8 4 10 6 1 6-3 14 1 1-6-2-3-5-9-4 1-9 5-11 0"/><path fill="#171922" d="M116 419c-2 2 0 5 1 6 6 1 11 1 15 0 0-2 0-3 1-4-5-2-10 0-15-1"/><path fill="#FAFAF8" d="M415 187c-4 5-9 10-11 16 2-2 5-1 7-3 9-6 2-10 6-12"/><path fill="#484A54" d="M124 206c7 2-5 6 3 5-14 4 0 4 4 8-1-2-2-3-4-3 0-4 14-4 23-3-11-9-25-2-24-4"/><path fill="#44444F" d="M347 329c3 5 2 5-3 6 7 4 13 5 18 9-2-6-5-9-13-15"/><path fill="#949A9F" d="M140 358c2 4 6 8 10 11 4 0 3-2 6-3-4-3-9-6-13-8"/><path fill="#0B0B12" d="M306 402c-4 3-3 11 0 14 7 3 15 6 20 2-5-2-11-2-16-3-6-4-4-8-4-12"/><path fill="#F9E5C5" d="M148 343c-19 0-5 1 3 7 3-1 6-1 6-4 0-5-6-3-8-4"/><path fill="#DBDDD7" d="m420 226-2 1v-1c-12 21-8 12-13 29-1-3 14-22 14-26 8-2 14-1 3-5"/><path fill="#C9CCC7" d="M419 234c-5 5-6 10-10 16 7 2 8-12 12-4 1-5-3-9-1-11"/><path fill="#20232D" d="M402 202c-11 7-28 7-36 11 13-2 17-3 27-3 3-2 8-6 8-8"/><path fill="#333640" d="M444 182c-4 3 0 12 5 17-3-5 2-12 2-12-2-2-3-5-4-5"/><path fill="#B9AD9D" d="M142 326c4-4 11 1 9 1 2 7-22 4-9-2"/><path fill="#4B4C55" d="M352 162c-11 1 3 9 6 11 1-4 4-5 8-3-5-9-14-1-16-8"/><path fill="#161822" d="M455 276c1 1-2 6 9 12 3 0 4 4 10-1-5-2-4-3-19-10"/><path fill="#343640" d="M243 203c1 1 2 3 1 6 8 0 13 3 19 0-7-13-8 5-18-7"/><path fill="#7D818A" d="M332 328c-10-1-6 9-12 15 7-3 11-8 11-15"/><path fill="#F9F9F8" d="M161 213c-4 0-7 1-10 3-3 4-5 7-7 10 7 0 9-7 14-12"/><path fill="#E0E2DC" d="M362 216c-3 1-6 1-8 3-3 5-6 8-8 15 6-13 14-4 16-18"/><path fill="#4C4B57" d="M235 445c-5 5 0 7 0 11 4 2 4 0 7 1-1-5-3-9-5-12"/><path fill="#F8F8F6" d="M432 204c4 3 9 7 12 11 3 12-1 25 7 32-5-9-3-21-5-32-6-5-8-8-12-10"/><path fill="#F9F6E4" d="M351 174c-6 2-11 6-17 7 5 1 10 1 14 0 4-2 5-5 5-8"/><path fill="#4A4B54" d="M384 148c0 17 7 5 10 12-3-3 5-7-1-10-1 1-2 6-6 1"/><path fill="#34363F" d="M265 195c2 5 3 7 4 14 4 0 9-2 13-2-9-15-7 6-16-11"/><path fill="#232530" d="M314 233c-10 5-7 4-10 11 2-1 6 1 9-1-1-6 6-11 3-11"/><path fill="#12131C" d="M424 246c0 6 5 11 6 14 8 8 11-4 16 0-3-2-3-6-3-7 2 4-2 7-7 8 3-5-13-7-10-14"/><path fill="#11101A" d="M317 325c0 12-5 11-6 19 5-1 5-5 10-8 0-3 3-6-4-8"/><path fill="#181924" d="M118 434c2 11 2 22 7 31-5-2-5-20-1-27-2-3-3-2-4-2"/><path fill="#83878F" d="M430 246c1 1-2 4 1 5l-2 1h2c1 2 6 3 9 4 1-8-6-6-8-9"/><path fill="#626265" d="M70 221c5 4 14 4 22 3-6-4-12-4-20-3"/><path fill="#020205" d="M178 326c-7 22-10 31 0 3 7 7 13 11 19 14 5 2 9 5 13 6 12 5 22 8 32 10-13-4-29-8-44-16-7-3-12-8-18-11l-2-2-1 1v-1"/><path d="M330 355c-11 1 2 9 7 6 0-2-1-4-2-6l-2-1h-1v1"/><path fill="#494A53" d="M404 141c-1 8 1 5 4 13 2-3 7-1 8 4 7-7-11-11-11-13"/><path fill="#F0F2E9" d="M340 374c-5 2-9 1-14 5 4 3 14-4 18 2-1-1 0-4-1-6"/><path fill="#504F5D" d="M210 370c-4 2-9 0-12 1-1 6 3 6 7 5 2-2 3-3 3-5"/><path fill="#0C0B13" d="M275 322c-7 5-9 12-14 18 5-3 10-9 16-11-3 0-4-3-3-5"/><path fill="#242631" d="M192 206c-10 3-22 1-31 8-5 1 36-8 32-5"/><path fill="#4B4955" d="M222 449c-3 9 2 8 9 9-2 3-4 3-7 2 3 0 7 2 9 0-3-14-3-6-12-7"/><path fill="#7E828B" d="M379 236c-7 10-3 17-7 28 5-10 4-23 11-28"/><path fill="#4A4B53" d="M241 192c1 3 3 6 3 9 3 3 5 0 9 6 3-10-7-3-11-15"/><path fill="#5E5E6A" d="M462 223c1 4-1 9 4 11 3-3 4-10-2-11"/><path fill="#5D5D63" d="M379 138c2 7 4 13 11 14 4-6-7-8-10-11"/><path fill="#F7F8F6" d="M231 212c-5 5-7 11-11 17 3-4 18-13 15-16"/><path fill="#F8EDCE" d="M171 278c-22 1 4 8 9 4-3-1-5-3-8-4"/><path d="M118 429c-1 7 11 3 14 3-2-6-8-1-11-4"/><path fill="#23232C" d="M353 313c-1 3-4 4-5 6 2 3 4 3 6 4 4-6 4-4 1-10"/><path fill="#F3F4EF" d="M135 223c-7 2-9 8-11 15 6-1 7-10 10-14"/><path fill="#24252D" d="M414 231c-5 4-17 7-27 7 5 2 7 1 15 1 4-1 8-1 11-6"/><path fill="#33353F" d="M215 195c-9 10 3 9 12 11-8-17-1 5-13-9"/><path fill="#23242D" d="M407 257c-1 3-8 6-10 9 2 1 15-3 12-9"/><path fill="#44434E" d="M408 275c-9 5-2 11-5 12 10 1 10-11 5-8"/><path fill="#393943" d="M419 286c-2 16-12-4-14 14 8-3 20-7 16-15"/><path fill="#141420" d="M73 325c-3 1-10 5-5 11 6-5 6-2 5-10"/><path fill="#F6F7F4" d="M388 178c-7 0-9 6-15 11 8 3 9-6 13-9"/><path fill="#5A5967" d="M313 374c-1 3-3 5-4 8 2 6 13-6 7-7"/><path fill="#0A0A10" d="M315 392c-4 4-7 7-2 13 4 9 19 3 20 8-3-7-13 0-17-7-3-5-5-9-2-12"/><path fill="#EAEBE2" d="M322 366c-1 3-3 3-6 5 5 8 18-9 6-3"/><path fill="#484754" d="M282 408c-12 0 0 9 4 4 1-2 0-5-3-4"/><path fill="#797C86" d="M194 284c-10 5-13 18-3 2 4 5 4 8 3 13 2 6 8 5 10 10 0-5-5-7-8-9-2-6 0-10-1-15"/><path fill="#181920" d="M199 256c-2 3-8 6-12 2-2 3 1 7 0 10 5-4 8-8 12-12"/><path fill="#171821" d="M114 404c-13 1 15 3 15 6 4-9-8-2-12-5"/><path fill="#34363F" d="M130 211c3 12-2 10 16 3-8-2-9 2-15-2"/><path fill="#35363F" d="M344 324c-3 3-3 5 1 6-15 14 8-5 9 3-1-2-5-5-8-8"/><path fill="#626367" d="M438 139c-4 11 5 11 9 12-1-3-5-9-8-9"/><path fill="#E1D6C5" d="M229 267c2-1 5-1 8 1 0 2-14 6-11 1"/><path fill="#4C4D55" d="M280 185c3 9 9 9 15 11-3-7-9-6-13-10"/><path fill="#7C7E85" d="M419 185c3 11 12 9 17 14-6-2-8-11-14-13"/><path fill="#4B4957" d="M179 396c2 6 9 7 14 4-2-5-9 0-12-4"/><path fill="#83786A" d="M570 470c2-3 4-1 5 0 1 6-15 5-6 1"/><path fill="#F7F8F3" d="m446 251 3 18c2-5 5-12-2-16"/><path fill="#474552" d="M179 321c1 3 1 6-1 7 4 4 7 6 10 8-2-5-6-8-7-13"/><path fill="#A8ADB0" d="M349 282c-7 3-3 4-6 11 5-2 12-10 4-9"/><path fill="#F8F8F6" d="M289 215c-9-1-9 8-11 13 4-3 7-7 9-12"/><path fill="#FAFAF9" d="M453 218c1 8-1 18 2 25-1-8 4-16-2-24"/><path fill="#F8F8F6" d="M162 228c-3 6-8 10-12 15 10 2 7-7 11-13"/><path fill="#757680" d="M423 263c-1 4-6 8 0 12 0-4 6-8 2-11"/><path fill="#0B0A12" d="M69 327c-4 2-7 4-10 6-4 0-3-2-4-3 1 1 0 3 1 4 5 1 9 2 11 6 1-4-3-8-1-13"/><path fill="#24242B" d="M437 205c6 1 8 6 12 9-3 11 3 22 2 29-5-22 1-14 1-19-1-10-5-16-13-19"/><path fill="#14151D" d="M268 302v1c-1 8-4 7-2 14 0-6 18-16 0-12"/><path d="M196 443c-3 1-7 0-5 5 4 6 8-3 6-5"/><path fill="#494A53" d="M437 143c-2 10 2 11 5 13 1-4 3 0 5-2-3-6-7-1-11-8"/><path fill="#575664" d="M200 396c-2 1-5 0-6 2-2 5 18 1 8-3"/><path fill="#514F5D" d="M192 380c2 3-1 5 0 6 4 4 6-2 10 1-2-5-7-3-9-5"/><path fill="#494A53" d="M262 189c-1 0 11 19 13 12 1-1 0-3-1-4-5 0-8-1-10-8"/><path fill="#50505B" d="M147 457c-2 1-4 4 0 9 2 0 3-2 6-1-3-3-3-6-6-6"/><path fill="#303139" d="M427 216c-13-1-13 10-30 8 10 6 18-7 28-7 12 13 13 11 3-1"/><path fill="#0B0B12" d="M314 318c-5 4-11 8-16 12 3 6 10-8 16-10"/><path fill="#09080F" d="M189 376c2 4 15 6 16 3-4-2-10 0-14-3"/><path fill="#32333D" d="M424 181c3 7 9 10 15 13-1-5-8-7-12-11"/><path fill="#020103" d="M452 281c-2 3-2 8 2 9 3-3 1-7 0-8"/><path fill="#090910" d="M458 218c0 5-2 3 3 12-2-5-1-14 6-7-3-4-5-5-8-4"/></svg>