<svg xmlns="http://www.w3.org/2000/svg" width="600" height="600"><path fill="#7F6551" d="M283 103c0-2 1-1 3-1 4 11 7 22 10 32 6 5 11 9 15 13-4-11-5-24-5-36 8 13 14 24 22 35 6 9 15 13 22 18 6 8 9 14 13 20 3 0 5 1 6 0-12-27-30-50-49-73 15 7 27 21 38 32 11 10 16 18 20 29-1-7 4-13 0-19-6-11-12-21-19-32 11 2 21 13 28 22 0-7-4-15-4-22 7 8 11 15 14 22-23-60 11-18 19 15 0 13-12 20-9 34 12 13 9 33 27 41-5 7-7 10-11 11-11-1-22-2-34-1-2 23 7 41 7 63-4 17-7 32-10 46-3 10-4-2-4-4-3 3-5 5-7 8-4-2-1-11-6-9-5 16-10 32-13 47 2 20-1 39 2 56 1 14 7 24 11 34-6 3-10 3-14 3-4-4-6-6-6-10-1-24-8-47-9-71 0 22-3 43-1 65 1 9 5 15 7 21-7 2-14 3-19 2-3-36 1-85-5-124-20-4-37-9-53-18-11 15-27 34-39 52-1 29 2 53 9 76-6 6-20 7-24 3 3-31-1-52-7-80-5 15-9 31-12 47 1 9-2 25 4 36-7 6-13 3-20 4-9-9 0-19-5-27 10-19 6-41 13-58 2-17 12-25 17-38 4-13 2-26 3-37-8-12-18-20-29-23-14-1-27-2-37 6 4 5 1 11 0 14 9 7 18 8 27 11 6 5 11 9 12 15-7 18-23 27-29 45-4-5-5-12-4-19-8 4-15 10-20 14 0-14 11-24 9-39-9-9-15-18-19-29-2-7-2-15 1-19 7-13 19-20 30-23 22-4 40 3 58 5 17-15 34-25 52-31 16 4 29 10 44 12 16 6 29-5 39 2 2-7 8-9 12-12 4-18 6-33 8-49-5-9-15-4-19-9-15-12-23-21-26-37-16-4-31-4-42-15-2-13-2-24-2-35 6 8 7 19 12 29-3-13-1-26-3-38"/><path fill="#160E0F" d="M248 339c-7 22-24 37-36 55-4 5 1 8-1 13 6 0 10 0 15-1 13-33 67-53 23-65"/><path fill="#D27D42" d="M257 272c-31 9-13 29 7 35 22-6 43-12 66-14 8 6 13 10 20 16-6-6-13-11-17-18-22 7-38-9-53-4-9-5-15-12-22-14"/><path fill="#2E211E" d="M251 334c-7 6-16 5-22 11-6 9-15 26-20 34-8 3-12 8-14 10-12 23 0 24-5 45 2 1 4 0 6 1 5-15 7-28 10-33 10-16 35-45 44-65 0 2 1 0 0-1"/><path fill="#EEA867" d="M267 259c-9 9-21 7-32 11-12 5-18 14-28 20 3 7 11-12 15-5 5 0 12-8 17-2 3-5 9-10 15-11 10 2 17 8 24 13 10-4 64 21 31-12-15-1-28-6-41-12"/><path fill="#4E372E" d="M371 312c6 11-14 4-2 20-5-6-8-10-10-15 3 8-1 15 0 22-5 0-1 0-4 4-10 5-5 5-17 10-1-4-9-7-12-9 3 4 7 5 11 8 3-1 4 0 5 1-10 29-7 62-9 96 5-5 5-77 21-102 0 3 2-3 2 3 3-5 4-2 9-3l2 1-3 1c0-5 9-3 4-11 4 5 5 8 6 14 3 3 4-3 7-6 3 2 2 10 3 9-1-10 5-15 5-25 0 8-3 7-4 12-5-6-9-17-14-29"/><path fill="#C6B09B" d="M244 311c-10 8-30 30-35 36 1 1-1 3 0 8 14-10 17-15 36-21 51 12 12 0 3-28"/><path fill="#6B4D3C" d="M261 334c6 15 27 25 31 24 17 7 16-2 29 2 0-9-3-2-5-6 2-2 9-5 5-11 0 3-17 6-33 0-10 1-17-6-26-7"/><path fill="#362520" d="M367 351c-5-2-3 4-15 3-2 5-9 28-11 44 1 5 0 10 2 11 0-5 12 0 9-8 4-16 11-34 14-52"/><path fill="#C5B09A" d="M117 316c2 9 6 20 13 29 12 10 16 12 19 16 6-5 9-10 7-11-17-23-24-23-38-32"/><path fill="#503729" d="M335 309c-18 3-31 4-42 9 14 7 20 30 27 23 0-9 2-13 4-21 5-8 5-6 10-9"/><path fill="#F0EBD9" d="M367 237c-2 20 5 37-4 53 4 8 6 14 8 20 0-28 11-17 8-39 6-21-11-17-14-31"/><path fill="#553A31" d="M357 378c-4 12-1 12-3 24-2 4-10 8-11 8 1 15 3 32 6 46 1 3 4 3 6 4 1-16 0-39 0-57 3-15-2-11 1-23"/><path fill="#121114" d="M181 454c-7 8-3 22-3 32 7 1 13 4 17 2 0-8-1-17-1-28-3 8-7-3-10-5"/><path fill="#765245" d="M151 298c-7 2-14 2-19 7-4 6-6 17 0 19 3-4 4-8 8-10 7-6 15-9 21-9 11-1 22 1 30 7-6-6-14-10-21-14h-17"/><path fill="#E0D4BA" d="M369 232c-2 5-2 6-1 15 4 2 5 0 9 3 4 6 2 14 3 19 3 23-7 13-7 34 0 7-1 10 1 13 1 6 5 8 5 11-1-3-3-5-4-8 3-5 1-7 4-10 1 4 3 5 2 9 0-8-1-15 0-23 4 5 8-6 7-12-8-20-5-35-19-49"/><path fill="#473430" d="M215 294c-2 0-3 1-4 2-5 18 2 29 0 42-6-6 44-43 21-31-7-5-19-10-17-14"/><path fill="#1C1417" d="M230 453c-2 4-9 2-11 3-1 9-4 18-2 27 8 0 14 1 19-1-5-11-4-21-5-29"/><path fill="#DFD5C3" d="M254 312c6 7 2 18 13 21 6 3 13 7 27 10-7-3 5-6 5-11-19-4-28-11-43-17"/><path fill="#100F11" d="M327 460c-3 12-1 23-1 31 6 1 16 4 17 2-2-10-6-20-6-30-3 3-8 3-9 0"/><path fill="#E7AC76" d="M160 280c-66 26 26 5 42 16-7-5-24-6-36-13-4 0-6-1-7 0"/><path fill="#382119" d="M349 143c10 19 18 30 28 51 2 4 6 2 8 3 0 2-11-24-15-33-10-6-9-16-20-20"/><path fill="#F1AD6C" d="M337 271c-42 3-2 20 12 19-5-5-1-16-11-19l-1-1h-1"/><path fill="#B1957C" d="M322 347c7 15-3 34 12 47 0-11 2-23 3-35-7-5-7-4-14-11"/><path fill="#6C5B4E" d="M327 385c-2 18 0 38 0 57 2 1 4 1 6 2 0-16 1-29 0-46-1-5-4-8-6-11"/><path fill="#191215" d="M349 459c-3 7-1 15 2 21 3 8 10 4 15 6 0-9-6-16-7-24-2 4-6-2-9-2"/><path fill="#453230" d="M227 416c-19-3-12 6-10 22 2 6 14 1 14 8-1-11-3-20-5-29"/><path fill="#71503F" d="M238 287c-5 7-19 4-25 8 6 1 14 12 22 12 4-2 14-11 3-18"/><path fill="#563C2F" d="M252 333c-1 12 20 19 29 25 16 7 29 6 41 9 1-7-1-11 0-17-1 4-4 2-5 1-2 5 10-1 2 10-11-5-8 2-15 3-17-7-14-3-30-14-5-5-12-10-14-16-3 0-3-2-5-2"/><path fill="#D7B388" d="M331 294c-12 1-23 5-32 5 6 3 13 6 19 9 4-9 9 2 17-2 3-7 3-6-4-10"/><path fill="#3D1A11" d="M321 161c8 14 26 14 37 42-4-16-4-16-10-26-7-9-17-11-26-17"/><path fill="#E2D7BF" d="M330 315c-3 6-7 15 0 4 1 4 10 20 17 18 4-2 5-3 10-6-12-8-23-9-24-13"/><path fill="#D1B290" d="M290 301c-7 6-11 9-24 6 14 11 46 13 25-5"/><path fill="#712C1E" d="M323 167c9 23 5 6 20 26-4-1-7-4-10-6 5 5 11 9 17 10-1-5-2-10-4-15-7-7-14-10-21-12"/><path fill="#BC8E6B" d="M151 293c-21 7 13 0 19 4 21 9 31 23 36 21-1-10-16-15-25-20-11-3-19-5-28-5"/><path fill="#E7CDAD" d="M177 293c-4 3 24 10 28 19 2-4 1-9 1-13-9-2-15-7-24-7"/><path fill="#EFE9D9" d="M321 174c4 8 6 13 17 23 9 5 23 6 31 4 1-8-10-12-11-20-5 3 5 13 5 19-7 0-12-1-18-2-12-5-18-22-22-22"/><path fill="#DBD5C5" d="M140 315c-3 3-6 7-3 11 9 4 10 15 18 20 9 1 10 10 15 7-8-10-15-16-28-23-1-6-1-10-1-14"/><path fill="#9B7151" d="M366 274c-8 1-5 11-8 16-6-2-8-9-12-9 6 14 7 17 15 35-3-4-3-7-4-10 4-7 7-1 10-1-1-5-4-6-4-12 0-5 1-12 2-18"/><path fill="#663421" d="M223 348c-3 3-7 5-11 8-1 1-9 23-14 28 15-4 20-26 28-35"/><path fill="#CB8659" d="M132 294c-3 2-6 3-8 7-3 4-5 5-6 9 0 5 4 8 6 11 4-1 0-12 5-16 22-11 12-8 3-11"/><path fill="#40241A" d="M410 160c-6 7-7 17-10 25-2 5-3 1-4 1 2 4 7 6 9 6-2-10 6-19 9-28 0-4-2-1-3-4"/><path fill="#E0D6BF" d="M373 224c-2 3 7 9 11 11 7 2 13 1 17 3-1-2-3-2-3-4 1-1 2-6 4-2 7 2 7 6 17 5-4-3-18-8-13-11-9 0-12-2-15 1-3 1 2 2 2 4-6-1-11 4-21-6"/><path fill="#CDB596" d="M389 276c1 25-16 21-2 47-2-8 2-17 6-21-2-8-2-16-5-24"/><path fill="#92715D" d="M165 354c0 3-3 0-4 2 9-2-2 4-3 5 2 1 5-3 6-2-3 7-5 9-8 13 7 0 9-5 16-4 13-11 0-9-4-14"/><path fill="#72513E" d="M362 293c2 3 4 8 5 12-2 0-4-1-5-3-7 2-2 3-4 9 1 0 11 26 12 33-6 1-7 2-10 6-3-5 0-8-3-6 2 13-3-1-3 7 7-1 12-4 16-5-2-8-3-16-6-23 1-1 1-10 9-4-3-4-3-9-5-12-2-6-3-9-5-12"/><path fill="#795A4B" d="M162 356c-11 5-20 20-31 20 12-3 18 0 30-3l2-1h-3c-1 1-3 2-6 1 16-13 0-11 10-17"/><path fill="#36241E" d="M162 372c-3 5-7 6-13 5 0 9 1 14 1 19 2-7 17-21 15-23"/><path fill="#30201A" d="M307 114c1 5 1 8 0 12 0-6 6-1 7 2 2 8 8 17 12 24 12 9 21 13 29 23-1-13-19-13-28-27-5-6-8-13-11-18-4-8-7-11-8-16"/><path fill="#7A503A" d="M412 200c0 2 0 4-1 5-6-4-12-1-7 11 5 8 10 1 12 9 1-4-4-17-4-24"/><path fill="#F9F2DC" d="M283 265c8 4 17 7 27 8 11 18 28 16 39 34 0-4 4-7 2-9-1 2-2 3-2 5-10-19-26-12-35-28 6-1 11-2 16-5-16 4-31 2-46-4"/><path fill="#B79A7D" d="M325 332c-6 8 6 11 11 17 1-3 3-5 5-8-11-12-4-7-17-7"/><path fill="#78523F" d="M310 125c-1 8 0 15 4 21 4 3 7 6 10 7-6-10-5-14-13-27"/><path fill="#352624" d="M217 435c-1 7 1 12 0 19 5 1 11 1 13-3 3-14-13-3-13-13"/><path fill="#E2CEAF" d="M302 300c-14-1-9 5-1 11 0 4-3 1-4 3 7-2 13-5 20-6-5-2-11-5-16-7"/><path fill="#503A33" d="M161 374c-10 0-14 3-22 2-8 2-11 8-12 15 10-5 19-17 31-15"/><path fill="#B69A7C" d="M392 302c-2 7-7 13-6 22-2-6-4-9-3-15 0 9 0 17 2 25 4-9 8-19 10-30"/><path fill="#493934" d="M188 415c-5 4-3 13-5 18 8 0 4 10 12 6 3-1 0-4 2-5-1 3-5 1-7 2-1-8 2-16 1-21"/><path fill="#CCB8A0" d="M303 331c-19 14-4 12 8 14-6-3 4-5-6-11 1-2-1-1-2-2"/><path fill="#312623" d="M226 407c-5 1-9 1-13 3 1 3 0 7 2 10-4-6 5-5 10-5 2 3 3 6 2 10 1-7 2-14 1-19"/><path fill="#E9B77E" d="M357 262c-1 5-5 9-6 14 1 5 4 7 7 7 4-8 2-19-2-19"/><path fill="#6A5049" d="M188 437c3 10-4 18 2 23 5-5 4-12 6-18-3-2-6-1-8-2"/><path fill="#2C1D18" d="M279 145c-10 5 14 13 17 12-4-9-7-5-15-12"/><path fill="#EBE6D7" d="M372 223c5 3 9 6 13 9 13-2 0-3 8-7 17-5 13 12 28 9-6-6-11-7-15-10-5 0-7 1-11 0-8 3-15 3-20-1"/><path fill="#CBB496" d="M329 321c-2 2-4 6-6 12 1-2 7-1 11 1 3 2 5 7 8 7-3-3-10-15-12-19"/><path fill="#70523F" d="M369 225c3 6 8 12 16 13l3 3v1c13-4 26 4 36 1-11 3-24-8-37-5-5-3-12-5-15-11"/><path fill="#937461" d="M140 359c-13 22 4 14 13 2-4 3-9 1-12 0"/><path fill="#887362" d="M326 444c2 7-3 16 6 19-1-8 4-17-3-20"/><path fill="#90735E" d="M271 318c2 3 17 9 27 10-2-4-4-6-7-9-7 4-13 2-19-1"/><path fill="#C9B59E" d="M148 333c15 5 22 20 29 24 3-3 3-6 2-9-12-2-20-11-30-15"/><path fill="#F3EAD7" d="M337 300c1 3-1 4-1 6 9 6 15 12 21 19-7-7-7-14-2-17-2 1-3 2-4 4-5-5-8-7-12-9"/><path fill="#211712" d="M326 117c8 9 15 19 23 30 1 1-2-7 6-1-8-10-18-21-27-27"/><path fill="#F3EEDF" d="M230 284c-6 1-13 1-15 8 5-1 30-3 17-7"/><path fill="#BE9168" d="M351 263c-6 1-3 8-5 12 2 12 5 4 11 15 3-5-13-14-7-18 1-2 0-6 3-10"/><path fill="#784D39" d="M378 139c-1 4-1 8 3 17 11-2-6 0 6-6 2-1 3 0 4 1-1-8-7-3-12-10"/><path fill="#937057" d="M384 253c-2 10 4 21 7 30-2-10-2-20-5-29"/><path fill="#3A2217" d="M370 201c-1 3-4 3-6 5l-1 1c2 19 1 20 2 32 1-5 0-11 5-15-3-6-4-14-5-16 1-3 7-1 4-5"/><path fill="#6D4C3B" d="M316 153c3 5 1 14 7 15 0-3-4-7-3-11 12 6 21 13 31 17-13-7-18-13-33-20"/><path fill="#9E7457" d="M401 132c3 9 4 14 8 23 9-2-3-16-6-21"/><path fill="#EFE8D3" d="M395 193c-1 7 10 6 13 11 2-2 2-4 1-7-5-2-8-3-11-5"/><path fill="#B78F6E" d="M293 134c4 10 0 10-4 11 5-4 12-2 16 3 5-5-6-9-9-11"/><path fill="#3C2820" d="M322 340c2 14 17 9 17 24-2-5 3-8 6-8 0-7-1 3-3-3 3-6 8-4 10-10 2 3 0 5 0 7 1-2 3-4 3-6v-3c-5 3-9 7-14 10l-1 3h-2c-6-4-12-8-13-11"/><path fill="#5A3524" d="M400 164c-1 7-5 16-3 23 4-9 3-11 6-24"/><path fill="#CDB99D" d="M379 309c-2 3 0 6-4 9 3 7 4 7 7 18 1-11 0-17-3-24"/><path fill="#F9F1DB" d="M173 284c10 3 20 8 31 7-8-4-19-6-28-7"/><path fill="#5D3322" d="M371 162c3 11 9 22 15 33-3-12-9-21-13-32"/><path fill="#9C7358" d="M288 120c10 16-3 14-1 22-3 0-6-1-7-5 1 6 1 4 8 8 10 4 0-13 8-10-2-4-5-7-6-12"/><path fill="#9D7554" d="M335 309c-6 10 21 6 19 16-2-5-7-11-15-15"/><path fill="#907E70" d="M182 437c6 1-5 17 4 17 1-5 2-19 0-18"/><path fill="#38251D" d="M392 121c4 6 7 15 6 23 2-5 3-9 0-13 4-1 4 2 8 5-6-11-9-16-12-12"/><path fill="#5A3E31" d="M367 226c5 3 13 14 14 22 2-4 9-1 4-10-5 3-11-5-15-9"/><path fill="#5D3725" d="M370 192c4 2 3 9 0 11 11 1-1-5 13-3-8 1 17 1 17 13-2-8-9-11-16-13-8-1-7-7-13-6"/><path fill="#B7916D" d="M364 259c-3 5-2 11-4 16 7 0 9-8 6-14"/><path fill="#C8A077" d="M382 156c-3 3-2 13 1 12s6-10 2-11"/><path fill="#FAF3DC" d="M262 258c-6 3-15 3-21 9 7-4 22 0 22-10"/><path fill="#573425" d="M379 167c2 10 6 16 10 17 2-3 0-6-1-11 0 2-1 4 0 7-2-6-2-10-8-10"/><path fill="#E0D0B8" d="M245 301c11 7 22 11 33 18 6 1 10-1 15-3-5 2-10-3-13 1-21-7-20-10-33-15"/><path fill="#36221B" d="M364 124c3 5 4 11 8 16 1-2-5-5 0-6 10 11 5 1 12 6-2-3-23-21-10-7-5-3-7-5-9-7"/><path fill="#E98F48" d="M336 289c4 3 9 7 11 12 2-6 2-7 0-10s-5 1-8-1"/><path fill="#3A251D" d="M301 148c16 13-26-7 17 14-5-9-13-10-16-15"/><path fill="#B59B85" d="M157 350c2 3-3 15-12 11 6-6-5-1-5-8 0 5 0 6 3 8 8 0 29-7 15-10"/><path fill="#7B5B45" d="M358 333c-9 4-11 11-20 19 9-4 13-15 20-12 0-2-1-4 0-5"/><path fill="#765440" d="M287 124c-5 0-1 10 0 11 7 3 3-13 1-9"/><path fill="#654C43" d="M337 432c2 32-5-3-3 34 7-7 2-21 4-30"/><path fill="#ECE5D3" d="M333 317c1 3 8 4 23 10-7-5-14-9-22-11"/><path fill="#1E130E" d="M357 116c6 14 7 8 14 15-1-4-5-9-11-12"/><path fill="#4B3126" d="M402 136c-4 7-5 14 3 18 1-6-4-13-4-15"/><path fill="#211410" d="M294 152c9 5 2 6 0 5 9 2 14 1 20 4-6-3-11-5-17-8"/><path fill="#6F4D3B" d="m278 131-2 1c-1 4-2 10-1 14 7-3 0-8 2-13 0 6 3-3 6 8-1-4-3-8-4-11"/><path fill="#DACCB8" d="M153 334c9 4 15 12 22 12-3-6-12-6-20-12"/><path fill="#F8F2D6" d="M362 216c-2 17-5 36-9 50 6-14 8-31 9-48"/><path fill="#593A2C" d="M274 113c1 8 1 15 1 23 3-12 3 11 5 7-6-12 1-16-5-27"/><path fill="#E1A168" d="M387 186c-1 4 4 5 4 8 3 2 2-2 5-4-3-6-4 0-8-2"/><path fill="#96745C" d="M351 337c-3 5-13 4-13 13 6-2 8-8 11-12"/><path fill="#BA9575" d="M391 142c-4 6 3 3 4 11 2-5 3-9-2-10"/><path fill="#BA916E" d="M406 147c-2 6 6 10-3 15 3 3 7-10 12-1-2-16-6 4-10-14"/><path fill="#33221C" d="M283 103c2 4-1 17 5 10-2-3-1-15-3-7"/></svg>