<svg xmlns="http://www.w3.org/2000/svg" width="600" height="600"><path fill="#677278" d="M466 118c4-2 8 0 11 1 16 14 23 30 28 49 30 23 37 58 45 88-2 8-3 13-5 18-2 9-8 13-12 18-10 6-29 18-47 17-8 5-10 11-14 17 6 24 24 43 26 65-5 9-5-3-7-3-3 6-4 5-7 9 1-4-4-11-3-10-6 10-6 4-8 12-3-11-27-26-20-31-1 8-6 17-6 25-5 9-13 23-19 39 12 2 27-3 38 7 4 3 8 5 9 7-3 7-7 2-10 4 3 5 2 7 4 10-4-1-5-4-7-6-7-3-10 3-17 1 2 3 1 5 2 6-10-4-40-1-55-5-11-3-13-15-23-16 3-4 7-5 8-7-21 8-5 9-28 14-16 1-26 7-41 4 3 5 13 12 14 21-3-1-7-1-11-3 0 2 2 9-2 7-3-5-4-4-10-6-1 4 4 7-1 8-4-8-12-4-16-8 1 3 5 5 3 10-4-4-7-7-11-8-13-1-27 2-39-5-10-7-3-16-8-23-11 2-21 7-30 6-29 3-57 2-80-7-15-5-26-13-37-21-11-10-22-23-26-37-7-13-7-30-6-45 2-14 7-24 14-33 7-11 15-19 26-23 9-5 19-7 29-4 12 3 19 12 23 21-8-6-18-16-30-15-15 2-23 9-33 17-8 13-13 22-14 35-1 17 2 30 8 43 6 8 11 14 18 21 12 10 24 17 36 20 13 5 32 10 49 8 10 0 32-3 32-10 4 5 9 9 12 13-11-14-19-38-22-44-1-18 3-41 4-50 9-19 9-22 17-39 10-14 20-24 31-36 14-14 30-20 44-29 21-8 47-8 73-7-16-1-15-8-35-12-13-8-21-20-25-30-3-6-4-11-3-16 2-1 3-4 5-3-4-2-6-5-7-8-2-4 0-5 1-7 6-10 15-18 24-21 14-3 29-6 41-1 21 4 34 27 53 26 11-7 19-5 28-5-2-1-5 0-6-3 4-10 2-12 11-22 4-4 8-7 12-8"/><path fill="#668D9C" d="M360 251c-11 6-16 12-27 20-20-1-22 7-43 6 2-1 8-5 7-10-3 8-13 9-20 14-4 1-5-1-7 0-1-6 2-5 2-8-6 4 0 10-7 11-6 2-15-5-20-5-2-2-1-4 0-5-6 3-8 8-12 12 5 7 14 4 20 11 3 6 12 10 7 18 4 5 9 8 14 8 12 23 8 11 23 25 8 4 0-16 12-5-7-21-12-23-19-35 7 4 15-1 22 8 5-6 11-8 13-15-2 9-7 17-4 28 2 8 9 16 14 19 18-2 17-3 40-1-4-6-16-13-15-23 4-5 10-6 16-11 1 5-3 9-4 14 3 1 6 0 8-1 4 4-3 5-3 9 0 5 4 1 5-2 3-2 5-4 7-5-4 1-8-2-7-5 9-6 2-12 11-16-4 0-14 6-10-2 4-9 11-14 18-16-3-3-1-7-3-4 1-5 3-5 7-4-1-4-2-6-3-8 24 3 53 3 7-16-23 8-42 15-62 31 14-15 32-23 48-28 2-3-1-5-1-6-3 13-16 1-14 9-4-11-13-7-21-12"/><path fill="#716B69" d="M453 355c-10 34-10-4-17 24 1-8-9 6-11 3-4-4 1-4 2-9-5 5-6 9-12 13-4 3-4 1-5 0-1 3 1 4 0 7-4-2-6-7-10-5 2 4 2 10 0 13-2-5-6-6-11-9-1 6-1 11-3 16 2-9-10-10-11-18-15 2-22-19-35-14 3 2-5 4-6 6 4 14 9 28 15 42-19 6-17-3-33 8-7-7-7-13-4-17-3 9-12 18-15 27 6 0 10-1 13-2-3 4-1 4 2 7 7 2 15 1 20 0 24-3 38-16 55-21 26-22 19-11 37-22 17-19 23-32 29-46"/><path fill="#2C3D4F" d="M204 346c7 7 6 26 17 33 1 29 16 53 15 75 6 2 9 7 14 6 9-8 20 3 26-7 3-2 2-3 4-3-10-3-17-6-27-4 12-16 30-30 40-46-2 1-5-1-8-1 4-7 1-13 3-19-5 1-7-1-12 6-2-3 1-5 1-6-5-2-10-5-13 0-2-3-4-7-2-9-4 1-7-2-8-2-8 8-14 1-14 17-12-1-19-6-24-13-4-10-4-20-8-28"/><path fill="#B6CAC8" d="M446 153c-7 1-39 5-18 7 1 4 10 18 12 26 8-2 18 1 22-1 17 15 24 16 27 27 7 0 5-8 12-1 4 5 3 7 4 13 4-3 2-3 2-6 10 1 14-3 20-7 1-3-3-4-1-8 9 16 7 23 16 36-6-16-11-33-21-48-13-12-18-14-27-27-19-12-21-3-43-12l-1 1h-1"/><path fill="#DBE1D1" d="M405 284c-5 1 2 2 2 5-8 1-14 9-20 13 4 0 9-2 14-3-22 25 4 19-20 44 11 8 26 24 37 26 6 2 10-3 12-7 0 3 2 7 1 10 11-11 15-23 19-36l-4-8c-7 6-13 9-18 13 4-6 9-10 14-14-7-14-15-25-23-34-10 5-15 11-22 17 5-9 12-14 19-20-12-1-7-7-8-5"/><path fill="#54788A" d="M232 286c-2 5-5 9-9 13 2-1 4-4 7-3 1 7-5 12-8 18-7-1-4-6-3-8l2-2-2 1c-7 11-11 23-15 34 11-13 17-22 31-44 6 17-13 32-2 45 13 1 12 15 22 17 4-8 15 2 17-8 8 1 5 8 5 9 2-1 3-4 4-6 4 5 3 11 4 15 1-2 1-7 4-7 5 4 3 8 4 11 5-1 6 10 11 2 4-9 6-23 4-30-2 2-3-4-5-2-1 3 2 6-1 8-9 0-2-4-12-3-4-20-8 8-10-19-4-7-15-2-20-11 4-9-3-13-5-17-5-6-16-6-22-10"/><path fill="#425C6E" d="M229 295c-18 19-3 0-3 13-14 4 4 3-8 16-4 2-6 6-11 7-1 10-3 5-4 16 1 0 3-6 7 0 3 9 4 17 5 25 6 8 14 12 23 12 1-4 3-8 5-11 7 1 11-10 17-3 4 2 1 5 3 9 20-5 10 10 26-2-2 9 1 15-5 20 4 5 4-2 7 1 5-10 16-18 16-31 0 6-3 9-7 9-7-6-10-2-8-14-7-1-4 6-8 7 0-5-1-10-1-14-3-1-3 3-5 4-2-2 1-8-3-9-5 10-15 0-17 8-14-8-16-14-30-22 4-7 1-12 2-16-1 4 2 9-3 14-3 5-8 8-9 6-2-6-3-10 2-15 9-4-5-6 5-15 2 1 2-5 4-5 7 0 7 2 7 5 1-3 4-8 1-11-7 5-7 3-7-3"/><path fill="#859B9D" d="M408 160c9 6 9 17 11 26-4 6-1 11-3 15-6 1-7-6-11-2 5 5 9 13 15 11-3 6-9 3-12 7 3 5-6 9-11 18 15-4 35 11 59 11-7-11-8-16-20-30 12-1 12-9 24-14 19 7 20 2 27 8l1 3 2 2-1-1-1-3c-8-8-16-19-26-23-15-1-25 4-34 2-1-6 3-11 4-16-2-6-6-8-9-10 0 0 9 4 7 10-1 10-7 15-8 22-2-3-2-6-4-7-1-11 0-22-7-28"/><path fill="#333746" d="M325 138c-7-2-13 8-17 5-2 9-15 16 4 24 9 3 18 8 28 9 18-4 15-20 26-24-2-5-10-7-18-12-7-4-15-2-21-3"/><path fill="#232230" d="M448 378c-7 10-14 20-24 29-32 20-28 14-51 31 8 3 10 16 19 17 18 7 17-15 35-9-2 0-4 0-7-1 7 0 4-11 12-8-4-1-10 1-8-5 8-19 20-34 23-53"/><path fill="#232635" d="M205 351c-8-4-6 31-4 46 4 11 9 19 13 27 6 7 15 17 16 11 5 11-2 19 1 27 5 5 10 4 14 7-3-2 2-6 4-8-4 0-8-4-13-4 0-25-15-49-15-75-11-8-11-28-15-33"/><path fill="#92B6BB" d="M526 202c0 4 2 6 4 9-9 3-12 9-20 8 0 2-1 4-3 6-5-6-2-8-6-12-19-6-1 22 0 37 15 2 31 6 42 1-5-25-8-18-16-48"/><path fill="#353B4A" d="M408 210c-9 1-19 6-34 9 5 1-2 7-6 5 7 1 15-2 22-1-12 2-19 9-27 16-5-2 1-5 1-8-24 5-49 9-72 19 22 2 47 4 68-1 9-7 18-13 28-14 12-21 16-14 19-25"/><path fill="#69494C" d="M368 151c-27 33-38 23 10 35 4 9 2 21 6 30 6-2 12-10 19-5-10-14-3-26-19-40-5-6-6-9-14-17h-2"/><path fill="#363847" d="M108 417c-1 15-23 13 5 22-4-5-1-8-6-12-2-4 2-6 3-5 7 4 11 4 15 7 3 3 2 5 3 6-4 4-6 2-7 1 1 1 0 4 1 6 15 1 30 3 45 2 18 1 28-8 41-13-14-3-33 4-51 1-23-2-30-5-48-13"/><path fill="#5F7D87" d="M403 241c0 2 8-1 10 1-7 2-4 14-12 10 1 1 2 3 4 6 4-3 12-2 21-3-1 4-8 1-10 3 7 7 22 11 19 16 15 0 28-11 46-7-19-6-23-9-50-9 2-5 21-1 23-3-20-3-30-16-49-13"/><path fill="#262634" d="M108 422c-1 6 5 11 3 17 9 3 19 7 28 9 35 6 74-1 83-6 4-5-10-11-13-18-4 1 5 6-1 7-10 3-13 10-21 11-19 5-40 4-57 2-6 0-9-2-10-7 1 0 10 0 5-7-4-3-9-4-14-8"/><path fill="#AEC6C5" d="M360 138c18 12 31 27 44 47 9 9 7-4 11 0 0-14-7-23-15-33-7-4-11-9-20-12 0 0-5 3-10 2-4 0-7-4-8-3"/><path fill="#C3B6AE" d="M337 177c-10 10 6 21 11 27 10 3 19 0 26 0 2-8-1-13-4-17-11-5-21-6-30-9"/><path fill="#63787E" d="M466 122c-15 1-12 19-2 25 12 12 18-4 23 0 2-6 1-17-5-22-6-3-10-4-15-3"/><path fill="#6C8A92" d="M481 206c-1 3 12 18 1 16 1 12 10 1 11 11-1 4-5 5-5 7-70-1 21 25-19 19 17 0 32 1 32-3 21 1 27 0 46 3-15-3-32-3-52-8-3-8 1-12 0-19-4-2-2-16-13-25"/><path fill="#E5E2C7" d="M513 259c-19-1-12 9-25 4 0 4 6 2 8 5-14 6-27 5-40 9 8 6 20-6 31-3 6 5-15 0-18 7 17-2 28 7 49-4 11-3 6-15-5-18"/><path fill="#A49A86" d="M483 291c-7 8-20 0-27 5-4 5-7 10-8 15 13-5 45-4 45-7 42-12 16-6-12-12"/><path fill="#2B2C3B" d="M464 337c-1 6-8 21-11 30 13 7 27 7 35 1-3-8-19-24-21-32"/><path fill="#8A8274" d="M462 310c-7 6-16-2-18 6 3 8 10 17 7 27-5 12-1-2-7 13 9-6 6-5 12-12-1 10-16 14-14 30 6-9 13-19 15-26-6-17 48-51-1-33"/><path fill="#6992A2" d="M308 170c-10 1 2 20 7 26 3 3 15-2 24 13-6-11-2-13-9-24 0-5 2-6 4-7-9-4-17-6-25-8"/><path fill="#A29D8D" d="M456 277c-21 1-19 9-36 15 11 11 25 26 30 43-1-7-5-13-8-19 6-7 5-19 13-25-6-2 0-7-13-5 5-4 8-6 11-6-3-1 2-3 0-3"/><path fill="#577C8E" d="M379 346c-18 3-29-1-42 3-3 7 10 19 23 26 5-9 11-26 20-29"/><path fill="#44424B" d="M305 403c-9 17-29 22-34 41 16 6 1-8 18 0 9-6 15-16 19-25-2-4-5-11-5-13"/><path fill="#504D53" d="M314 349h-1c3 20-1 40-8 57-2 8 6 7 3 14-2 6-10 18-17 23-5 4-9-3-11-1 5 6 18 3 18 7 4-2 8 1 11 0 5 0 9 1 12 1-4-1-6 0-9 0 0-5-8-5-2-9-4 0-11 4-13 2 3-9 8-15 11-21 2-4 2-7 5-8 1-18 8-36 7-54 5-3 4 2 6 3-2-5-7-12-9-16"/><path fill="#91B5BC" d="M329 232c-7 1-13 2-19 3-2 3-3 4 1 3-8 3-14 8-21 10 0 7-4 10-7 13-7 8-14 2-19 8-7-4-1-9 1-12-9 5-12 10-15 13 25 5 49-20 75-12-8-7-28 1-37-5 9-14 76-21 44-22"/><path fill="#242838" d="M312 360c-1 11-2 19-9 30-13 16-32 39-50 52 8 2 14 4 17 2-1-5 2-11 7-16 8-8 15-14 21-23 11-22 14-26 13-43"/><path fill="#CEBAA8" d="M396 363c-9 3-17 12-26 9-5 12 13 9 13 23 2-6 0-11-4-16 6 3 11 6 14 12 7-2-1-9-2-13 8-2 9 5 13 6-1-5-4-8-9-13 5-5 8 2 12 4-1-6-8-9-9-12"/><path fill="#CABFA4" d="M526 272c-5 1-5 7-10 9-4 0-17 3-24 2-7-6-15-2-23-1-10 2-9 9-13 12 7-2 13 0 21-1 5-3 8-2 3-5 10 1 19 3 27 0 22-18 27-14 4 5 10-8 17-14 17-20"/><path fill="#7B9CA5" d="M356 252c-14 2-29 1-40 8 0-2 2 1 4 1-4 5-7 7-10 8-13 2-7-6-14-3-1-2 6 8-6 11 14 4 25-17 41-6 13-8 15-15 29-19"/><path fill="#4F4C53" d="M80 403c7 6-5 10 1 16 5 4 10 10 15 10 2 1 4 0 8-2-1-4-3-9 4-7-9-9-19-11-26-17"/><path fill="#769AA5" d="M391 242c-11 1-23-2-28 10 7 1 13 2 16 11-1-2 23-4 12-22"/><path fill="#475D6D" d="M382 348c-2 1-4 0-5 1-3 12-17 16-16 26 3 3 6-6 8-9 1 1 3 1 2 2 15-5 34-7 9-20"/><path fill="#A8CDD3" d="M308 236c-6 2-10 2-16 5-10 18-29 6-29 23-1 8 7-1 14 1 7-5 11-10 11-17 6-5 27-9 19-10"/><path fill="#87847D" d="M320 413c-8 0-12 8-6 16 16-8 18 0 34-7-1-1-2-5-3-8 2 1-1 4 1 4-10-4-20 3-26-3"/><path fill="#332425" d="M470 220c-9 2-13 7-17 4 1 9 6 14 13 12-2 2-3 2-4 3 5 2 9-7 16 0 4-9 4-10-8-17"/><path fill="#95AEB6" d="M104 283c-3 1-7 1-9 3-10 4-16 8-23 13-9 13-18 23-20 36 2-5 5 1 5 3 5-16 11-30 25-43 4-11 44-13 24-12"/><path fill="#9C9B8F" d="M325 395c-5 5-16 15-4 4-1 6-5 12-6 15 7 5 20 0 30 3-1-4-3-7-5-11-3-4-9-3-15 2-4-4-1-6-4-7l2-1 1-1v-1"/><path fill="#33475A" d="M230 304c-2 4-5 7-6 11-4 4-1 7 2 4-6 7-11 11-9 20 3 2 5 0 9-4-1-11 13-26 7-30"/><path fill="#577787" d="M323 198c-14 8 17 12 26 21 5-9-6-14-10-21-7 0 3 7 1 9-7-2-10-6-15-8"/><path fill="#B2A088" d="M546 261c-7 11-12 9-14 20-3-5-7 0-5-7-3 6-9 9-12 13-8 3-14 4-20 4 6 2 9 1 15-1 6-1 9-5 12-9 5 3 0 5 0 8 2 4 5 1 9 0 9-8 10-16 14-25"/><path fill="#667F88" d="M304 259c-7 3-15 4-21 9-6 3-12 6-13 10 29-1 18-15 38-18"/><path fill="#845F5F" d="M489 372c-4 0-8 2-11 3-7 1-16-3-18 0 5 12 9 2 18 14-2-5-1-10-3-13 4 2 4 5 6 7 2 3 6-3 7-5 5 14 5 1 1-4"/><path fill="#252B3C" d="M316 314c-1 3-3 5-2 9-3-3-4-4-5-6 2 2-3 2-5 3 4 7 7 18 7 27 2-3 5-2 7-4-4-12 0-21-1-26"/><path fill="#3A3E4B" d="M456 125c-6 6-12 14-12 24 6 1 12 0 16 2-4-8-9-18-4-27"/><path fill="#7C9DA7" d="M254 265c-4 4-10 7-9 14 5-1 13 6 19 5 2-3 7-11 8-12-6 3-13 0-17 4-9-2-5-8-3-9"/><path fill="#D4DCCE" d="M323 364c-3 11-1 24-5 34 3-5 10-5 12-11 2 4 5 7 5 11-3-18-9-15-12-32"/><path fill="#7A8788" d="M417 162c1 1 5 3 6 5-4-2 1 11-6 5 3 6 2 15 4 22 3-7 9-14 9-22-3-6-7-8-11-9"/><path fill="#C7C7B4" d="M450 352c-10 5-6 13-17 22-4-3-2-7-3-10v-2 1l1 2h-2c-5 6-4 6-9 8-3-6-11-10-15-7 5 4 9 10 9 17 8-4 11-11 15-16 2 3-2 6 0 10h2l1-1 2-2c5-7 10-14 15-20"/><path fill="#AB8A8C" d="M281 450c-1 7 15 9 19 17 0-6 0-8-10-12 6-2 11 2 15 3 4 3 5 7 10 9-2-4-4-6-9-10l-5-5c-7-1-11-3-17-2"/><path fill="#7E959A" d="M357 138c8 5 11 13 22 17 4 15 25 30 26 38-3-10-10-20-19-29-2-4-4-6-5-7-9-8-15-14-23-18"/><path fill="#A5776A" d="M435 437c-7 16 23 2 5 4 15 1 21 7 27 6-4-8-14-10-25-9"/><path fill="#89959B" d="M63 324c-2 4-2 9-4 13-4 1-5-6-8 1-1 3-1 5-1 7 1 9 0 16 2 22 4-3 5-1 10 3-1-10-11-8-12-23 5-2 4-5 6-8 6 11 0 10 4 19-1-10 0-22 2-31"/><path fill="#678590" d="m399 242-1 1c-1 6 0 10 1 15-7 1 26-17 2-16"/><path fill="#3C3B46" d="M72 391c-5 5-15 1-5 13 2-9 9 4 13 0-3 4 1 6-1 9 0-2 2-4 3-5-3-7-7-12-9-17"/><path fill="#5C7B87" d="M402 273c6 2 12 9 20 9 5 1 7-2 10-3-1-2-8-7-1-7-7 10-18-2-26 3"/><path fill="#B8BBAB" d="M331 389c-1 2-4 3-5 6-5 7-12 5-10 7 2-1 5-4 7-7 1 6-4 6 2 9 20-2 14 3 4-15"/><path fill="#584841" d="M463 212c-2 1-4 1-5 2 3 5-10 7-6 8 8 4 10-5 16-2 3-1 4 1 5 2-1-6 2-10-9-11"/><path fill="#859B9D" d="M491 143c-2 10-7 2-13 11 6 2 11 5 17 7-2-5 0-11-5-17"/><path fill="#A1B4B4" d="M418 184c-3 5-6-3-5 5-15-13-9 10 0 11 2-6 3-10 5-14"/><path fill="#9CAEAC" d="M428 165c2 3 5 6 5 10-3 6-4 10-6 14 5-2 10 1 16 0-7-6-8-15-13-22"/><path fill="#855C5A" d="M372 186c4 5 6 11 5 18-7 3-7 4-8 8 3 3 10-1 12 3-2-7 0-21-8-27"/><path fill="#2D3849" d="M320 336c5 13 15 13 21 29 8 5 16 14 24 19-5-3-34-29-42-47"/><path fill="#0D121D" d="M326 229c-12 2-16 2-26 5-16 6-29 13-39 21 12-7 24-14 36-19 18-10 91-5 26-7"/><path fill="#6D8E96" d="M427 245c11 2 22 9 38 13-4-9-23-9-34-13"/><path fill="#A9B8B5" d="M498 182c6 4 13 6 16 14-8 0-12-6-16-10"/><path fill="#668F9E" d="M327 209c6 5 12 7 18 10 8 2 15 4 21 1-15-10-22 3-36-12"/><path fill="#A2756C" d="M424 448c-16 5 24 12 12 5 0-4-5-4-9-6"/><path fill="#BF8D7E" d="M521 259c22 4-10 3 10 10 4-1 9-4 10-7-6-1-11-1-15-4"/><path fill="#262731" d="M320 346c3 11 13 23 13 34 8-8 0-7 4-11-7-8-12-15-15-22"/><path fill="#C2BDA6" d="M453 276c2 2-1 3 3 4-6 1-9 2-12 3 8-1 11 4 8 7 25-13-1-9 5-15"/><path fill="#2F2123" d="M466 221c-8 13 6 3 4 13-5-2-10 1-12-3 3-3 0-7 4-7"/><path fill="#565763" d="M59 371c2 6-6 2-3 11 4 8 7-3 10 3-1-3-3-9-6-12"/><path fill="#5F3C43" d="M245 466c0 8 20 1 25 4-5-6-14-4-21-5"/><path fill="#282732" d="M68 401c-1 8 5 10 10 16 1-4-2-10 2-10-4-2-6 0-10-6"/><path fill="#10121A" d="M322 206c4 7 11 10 18 13 4 3 7 3 9 4 7 1 13 2 18 5 0 3-3 6-6 8 9-2 13-13 23-10-11 1-25-2-34-3-7-2-12-6-27-15"/><path fill="#4E4E5A" d="M64 384c-3 1-3 3-6 3 0 3 1 5 3 8 4-4 7 1 10-5-5-1-5-8-6-5"/><path fill="#272E3E" d="M323 345c7 12 14 20 29 30-14-6-16-23-26-29"/><path fill="#C6C6B1" d="M425 298c8 8 12 18 18 26-5 7-10 11-16 15 8-3 14-10 19-11-3-10-11-20-21-28"/><path fill="#96787D" d="M258 461c-8 5 15 1 15 10-4-3 4-7-1-9-5-1-8-2-12-1"/><path fill="#977670" d="M377 204c-7 3-16 2-24 3 5 4 10 5 16 6-1-2 1-9 7-8"/><path fill="#2E3949" d="M309 356c2 16-5 27-14 38 4-6 10-3 11-13 3-10 4-15 6-25"/><path fill="#181316" d="M466 208c-10-1-18 6-26 8 7-1 10 6 9 13-3-3 1-11 1-12 3 3 2-10 17-7 18 19 17 13 0-4"/><path fill="#5B3A3B" d="M416 447c-15 9 4 11 12 8-3 0-6-1-9-2-2-3 0-2 0-5v-1h-1v1"/><path fill="#2F3A4B" d="M375 316c-4 3-11 7-15 8 6 3 6 5 12 8-1-2-3-1-4-2 2-6 5-9 6-13"/><path fill="#749098" d="M403 234c-18 7 9 3 15 6-4-8-12-4-15-3"/><path fill="#5D8090" d="M380 287c10-3 2 11-3 10-3-3-1-5 1-8"/><path fill="#677F85" d="M483 223c0 5 2 15 4 18 5-2 5-11 6-12-1-5-1-5 0-2-1 4-5-1-5 3-4 0-3-4-5-5"/><path fill="#ADBEBC" d="M456 164c5-2 10 2 13 3-6-1-18 4-14-2"/><path fill="#A3B2AF" d="M498 184c4 5 7 10 13 14 1-11-8-7-10-15"/><path fill="#666669" d="M67 383c9 9 12 22 24 24-8-6-17-19-21-23"/><path fill="#B08779" d="M441 443c-14 6 13 2 17 8-4-4-8-8-15-7"/><path fill="#2C384A" d="M322 310c-2 1-7 3-8 8-8-12-12-1-17-6 7 15 12-4 15 10v-2h1v-3c5-3 5 2 8-6"/><path fill="#0E0F18" d="M200 346c-4 6-3 44-1 51-1-16-1-34 1-49"/><path fill="#DFE5DD" d="M494 165c5 2 7 6 10 9 1 7-3 2-3 4 5-1 15 3 18 11-4-10-14-16-23-23"/><path fill="#817D76" d="M399 405c4 3-8 11-11 15 0-5 5-8 8-13"/><path fill="#A7BBB9" d="M406 166c5-2 6 6 7 9-6-1-11-4-7-9"/><path fill="#66818A" d="M309 261c-1 4-6 2-6 6 5 2 20-5 8-6"/><path fill="#718C95" d="M345 134c-25-3 21 5 21 15-2-3-9-12-19-15"/><path fill="#A78687" d="M277 457c1 2 11 7 14 13-1-9-4-5-10-15"/><path fill="#DFF2F3" d="M286 244c-5 3-12 4-16 9 6-3 13-3 18-7"/><path fill="#2F3748" d="M434 437c-8-2-7 6-12 8 6 1 11-3 13-9"/><path fill="#121019" d="M434 399c-38 28-26 12-65 41 19-14 44-21 61-39"/><path fill="#597D8C" d="M383 325c2 3-5 2-7 4 6 0-10 9 1 12 4-2-7-8 11-16"/><path fill="#0F0F1A" d="M305 394c-5 20-30 29-34 45 15-26 27-18 32-42"/><path fill="#744742" d="M443 449c-11-1 6 9 10 2-2-1-5-2-8-3"/><path fill="#10101A" d="M207 420c-4 5-8 7 1 3 12 10 16 20 23 20 3-10-12-4-18-21 2 5 5 8 7 11-4-3-9-6-11-9l-1-2"/><path fill="#597B8B" d="M382 288c-3 2-6 4-7 7 6 1 9-5 9-7"/><path fill="#B4C9C5" d="M463 204c5 3 15 4 19 12-3-8-10-12-16-13"/></svg>