<svg xmlns="http://www.w3.org/2000/svg" width="600" height="600"><path fill="#93898A" d="m347 101 2-2c16 8 33 15 49 22 9-25 19 18 26 22 1 7 4 11 2 15 17 17 31 31 49 48-20-6-38-15-56-23h-17c-3 5-6 7-7 10 20 17 36 40 50 61-6 3-12-4-18-7 2 15 7 27 9 41-7-4-11-13-16-20-3 17-8 33-10 51-5-5-7-11-8-17-7 11-12 22-18 34-6-3 0-10-1-15-5 4-9 9-13 15-1-12 4-24 7-36-6 3-10 10-15 8-3 7-4 12-5 18-7 5-11 12-18 12-4 13 0 25 0 39-9-1-14-7-20-11-4 3-6 11-9 9-3 6-5 13-7 20 0 26 0 56 4 83 12 8 32 3 45 11-1 1 0 1 3 4-41 0-58 9-100 4-6-23 3-60-5-86 5-10 6-19 9-28-5-6-9-11-14-17-11 17-18 27-27 41-2-7-6-14-10-21-9 19-18 39-25 60-4-19-6-37-9-54-7 7-12 17-18 25 1-24 2-45 5-66-7 0-15-1-20 1 7-11 14-20 24-28-4 1-9-1-13 0 3-6 8-10 12-14-2-2-4-4-7-3-11 6-22 11-32 16 8-11 20-20 30-28-6-2-13-2-20-3 10-8 17-13 27-18-5-5-14-4-18-8 5-2 7 0 10-1 5-6 18-8 21-20 13-6 25-11 34-19 0-6-3-8-4-11 17-9 32-17 47-25 9-1 13 5 18 7 13-3 22-7 31-11 19 15 36 26 50 42 13 1 20 4 31 6 3-8-1-14-2-19-8-10-13-16-22-20-3-9-2-16-4-23-14-4-6-20-23-28 7-3 13-3 16-8-2-1-5-2-8-3 2-5 6-3 8-4 3-7-5-6-7-10 6-4 10 0 15-1-1-6-6-10-10-15"/><path fill="#FCFCFB" d="M300 188c-9 3-18 9-24 7-2 0 5 7 7 10-10-5-17-11-27-15-18 8-35 18-49 24 4 6 4 10 8 12 26-5 49-9 72-15 4-1 16 17 14 26 19-1 35-2 51-3-4 6-11 10-18 15 2 3 4 5 6 6 44-28 21-23-16-32 5-3 18-1 21 0-15-13-27-24-42-35"/><path d="M284 374c-7 8-18 17-17 28-3 25-7 56-3 82 11 0 23 1 30 1 6-35-7-64-2-93-2-7-4-12-6-16"/><path fill="#1F1B29" d="M210 331c-9 6-17 16-25 21-2-5-10-3-15-4-1 5-1 8-3 11 11 0 23-10 31-7-6 15-14 25-21 36 2 19 4 37 5 55 8-21 15-38 24-57-7-16 9-7-2-14 6-3 12 2 17 4 1 11-4 20-4 28 9-13 17-25 26-38-6-9-11-15-17-21 0 11-3 20-3 29-11-11-11-27-14-41"/><path fill="#FCFCFB" d="M346 101c4 7 12 16 14 18-3 2-11-1-17-2-1 3 2 4 4 5 20 23 50 18 70 32 4-1 5-3 7-4-4-13-11-23-18-37-4 1-3 6-5 10-18-8-35-15-52-22"/><path fill="#C6BCB8" d="M399 220c-1 5-1 10-2 14-5 3-9 7-14 6-2 9-7 17-10 26 8 0 15-1 22-2 8-15 5-15 17-29-2 15-7 26-9 38-1 17 0 30 5 42 2-11 6-27 8-39 0-6-4 10-6 13 0-21 2-40 4-60 0-8-9-6-12-9"/><path fill="#EAE9E2" d="M286 213c-23 5-47 9-70 14-3-1-4-4-5-2-10 4-5 17-7 25 0 8 11 24 7 33 5-6 14-8 21-13-6-3-13-8-20-12 5-4 9-4 13-6-7 1-13-2-21 0 3-9 7-17 10-24 6 3 8 5 12 9 17-6 32-13 48-19 11 7 21 13 26 18-2-7-2-20-13-24"/><path fill="#4A4958" d="M290 290c2 1 4 4 5 7 0 13-2 26-4 36 1-6 4 4 8 3-6 2-2 5-4 9-1-3-4-4-4-7-2 4-2 9-4 13 2-1 5 4 6 5 3-7 3-13 6-18 4 3 7 2 8 5-1 5-4 7-5 11 6-2 2-5 7-9 4 6 4 12 6 18 2-2 1-7 2-11 5 3 7 5 11 9 5-23 10 9 7-19-10-10-6-30-16-42-2-1-3 0-5 1 3 14 12 40 15 59-4-2-8-6-10-8-8-7-14-12-18-17 0-4 2-4 3-5-1-4-3-9-5-12 6 5 11 10 14 15-1-11-4-19-2-31-3 1 0-3-2-3 1 8 2 16 2 24-4-5-8-9-11-14 3-4 0-11 2-13-3-3-6-6-9-7"/><path fill="#72727F" d="M237 299c-25 18-14 29-16 47 9-8 15-17 11-28 21 13 39 25 54 41-2-8 4-15 2-22-19-9-39-16-59-24-1-1 1-8 7-12"/><path fill="#D8D1C8" d="M367 150c-6 6-12 13-17 19 5-1 12-3 17-5 2 8 4 16 1 21-4 0-7-3-10-6-2 2 0 3-1 5 1 13 16 17 23 24 1-16-7-28-10-42 9 1 21 6 32 9 5-3 2-7 3-9-7-3-24-12-36-16"/><path fill="#E8E7E0" d="M269 225c-8 16-22 30-28 47 10-4 15-8 23-11 7 4 12 6 17 9 3 4 6 4 8 5-3 0-4-4-6-4 1-4 6-5 7-9-3-3-6-2-7-3-3-5-5-10-4-16 7 10 4 7 10 11-2-3-5-6-7-10-6-7-10-13-14-18"/><path fill="#3A3542" d="M358 286c-12 4-24 9-36 13 8 13 3 33 15 40 0-8-9-15-9-25 5 3 11 5 16 9 6 2 6-2 9-2 2 1 2 2 3 4 0-9 0-12 2-16-8-2-14-1-21 0 20-13 60-26 22-23"/><path fill="#D5CDC6" d="M350 246c1 5 5 9 6 14-8-1-14-7-20 0-6 5-12 16-14 18 17-3 33-6 49-11 17-23 3-22-20-21"/><path fill="#322E3D" d="M246 327c4 9 6 19 10 28 2-6-1-13 2-18 3 7 4 12 6 16 4 9 5 16 8 23 5 0 10-2 13-5 5 8 7 10 10 21 2 2 4 1 7 0 5-14 1-17 5-39-3 4-5 7-7 11-6-1-9-2-11-1-8-7-13-5-14-13-1 3-3 3-2 6-3-1-5-1-7-2-3-6-4-10-6-14l1-2-2-1c-3-3-8-5-11-8"/><path fill="#F8F9F7" d="M203 252c-7 6-13 12-20 18 2 12 4 23 7 33 8-7 14-14 20-22-1-10-4-18-6-27"/><path fill="#494857" d="M240 325c-5 5-8 12-13 18 6 12 20 9 32 19 2 8 1 14 3 20 1 3 3 5 5 7 1-6 0-5 4-11-3-13-7-26-13-38v16c-5-9-9-18-12-26-1-3-2-4-5-5"/><path fill="#A6A4A8" d="M271 263c-62 11-4 26 23 32-4-3-10-9-9-11-4-7 10-1 3-5-5-5-15-11-22-15"/><path fill="#BBB4B2" d="M189 305c2 12-3 25-3 37 22-9 53-39 0-32"/><path fill="#99969C" d="M241 269c-10 4-19 8-29 13-8 9-13 16-20 23 13-4 25-6 37-10-10 1 9-17 10-24"/><path fill="#DCD4CC" d="M215 228c-3 7-7 15-10 22 8 0 13 2 21 1-3 4-8 4-13 5 7 5 13 11 20 14 2-9-5-21-8-31-3-5-5-7-8-10"/><path fill="#9A908F" d="M399 265c-26 2-49 10-73 15 6 0 13 2 19 3-5 4-9 9-14 11l-2 1 2-2c20-7 39-13 64-26 4 2 0 5 2 9 1-4 10-9 4-11"/><path fill="#B8ADA9" d="M265 224c-13 4-24 9-36 14 0 7 2 12 4 18 8-5 15-8 22-12 5-8 7-14 10-19"/><path fill="#575767" d="M312 301c-2 12 1 21 2 31-5-2-10-9-13-14 1 3 3 8 5 11-3 2-3 4-6 3 9 11 19 18 27 28-1-20-12-40-11-57"/><path fill="#312D3B" d="M195 352c-9 3-18 7-27 10-2 5-3 9-4 14 3-1 7-3 8-2 4 2 6 4 8 6 5-9 18-17 17-27"/><path fill="#4B4853" d="M163 352c-4 18-4 40-7 60 8-10 15-20 23-30-2-4-4-6-5-7-4-1-7 1-10 4-1-10 4-19 1-26"/><path fill="#AEA6A2" d="M340 241c-14 3-29 2-43 4-3 1-4 7-6 9 3 4 3 8 7 6 16-5 38-11 46-21"/><path fill="#EFEFE6" d="M371 139c-13-3-31 9-5 8-5 8-10 14-15 20 4-6 10-11 15-17 14 3 27 10 39 13-3-2-5-6-7-7-2-4 0-6 1-8 4-1 4 1 5 1 0-1-3-2-1-3-13 2-23-5-34-8"/><path fill="#FCFDFC" d="M203 232c-8 5-18 9-27 14 0 1-3 2-1 3-3 0-6 5-5 6 1-3 1-3 5-3 3 3 3 6 5 9 8-3 14-6 21-10 3-7 1-13 4-18"/><path fill="#E57145" d="M253 405c1 18 2 44 1 66 0 7 0 12-2 16s3 5 1 8c14 2 18 0 28 0 3-8-7 1-5-5h-2 1c-1 2 0 6-4 4-4-7-10-13-15-21-1-19-1-36 3-52 3-7 3-12-3-15"/><path fill="#F49D58" d="M422 159c-4 3 9 4 0 9-10 0 37 26 49 37-13-13-31-30-45-44"/><path fill="#EA7045" d="M297 472c3 7-3 15-1 22 6-2 22 0 30 0-1-12 4 1 3-5-6-5-13-3-19-4-6-4-4-11-11-12"/><path fill="#BCBCC8" d="M232 309c4 11 42 16 53 24-10-7-19-16-30-22-8-1-13-1-17-3"/><path fill="#B2B0BB" d="M291 301c-32-3-7 18-2 31 1-10 7-22 1-31"/><path fill="#5C5C6B" d="m300 340-1 2c-2 4-3 10-4 15-3-3-5-3-7-5-4-1 1 6-3 7-11-12-11-11-2-1v1l1 1 2 2h1c3 0 6-2 9 1 5-4 7-8 9-12 2 6 3 12 6 16 2 4 1 2 4 0-3-8-3-15-5-21-1 2-3 2-3 3-3 3-4 6-5 6 0-6 5-10 5-13-4 0-4-2-6-2"/><path fill="#353242" d="M249 286c-5 6-6 13-10 20 6 2 11 2 16 4 4-8 3-12 5-19-2-1-6-1-10-4"/><path fill="#A9A09D" d="M323 279c-6 5-7 14-12 20 14-2 54-20 12-18"/><path fill="#322E3D" d="M211 327c0 16 2 33 11 46 1-9 2-17 3-26-8-1-8-13-12-17"/><path fill="#8B3E37" d="M294 423c4 16-1 37 8 50 2-15 0-30-1-48-2 0-3-2-5-1"/><path fill="#E3E3E0" d="M244 288c-19 12-31 13-52 19 17-4 7 3 30 5 6-8 14-14 20-21"/><path fill="#373341" d="M177 318c-3 2-7 13-19 17 9 3 16 5 24 6 1 3 1 4 2 6 4-12-1-20-9-27"/><path fill="#F7F8F5" d="M344 141c-21 3-4 8 4 6-1 4-2 5-4 4 2 6-2 6 9 4-3 6-9 8-2 9 5-5 10-9 13-15-4-1-10-3-14-1 2-4 5-5 8-7-5-2-10 2-14 0"/><path fill="#D6CEC7" d="M276 220c-23 0 10 12 15 25 3-4 6-9 4-13-7-5-12-9-18-12"/><path fill="#EEEDE7" d="M167 265c1 5-4 7-1 8-4 5-9 8-13 9 7 4 15 1 21 4 9-15 7-26-8-16"/><path fill="#B6523E" d="M261 421c-8 7 0 20-5 28 1 10-4 22 3 27 2-18 3-37 3-54"/><path fill="#EFF0E8" d="M370 233c-7 4-15 8-22 13 10-3 21 0 30 0 10-11 2-13-7-12"/><path fill="#AEA4A0" d="M150 285c6 11 1 4 15 15 5-2 10-6 16-9-7-6-19-5-29-6"/><path fill="#807A7C" d="M385 287c-16 7-31 12-45 20 9-4 20 1 24 0 9-7 14-12 19-19"/><path fill="#DDDBD6" d="M278 243c3 5 1 10 4 16 3-1 6-1 7 1 1 6-4 8-6 11v2-3c6 6 13 9 18 14-2-12-12-30-22-41"/><path fill="#5F5F6D" d="M234 352c9 10 18 19 26 30-1-6 0-13-1-19-8-5-15-8-22-11"/><path fill="#302C3A" d="M207 370c-3 0 6 12-3 5 6 10 10 18 12 23 3-8 5-14 6-20-5-3-8-6-12-7"/><path fill="#5F5A60" d="M391 278c1 5 3 9-5 8 4-2 2 11 2 13-3 2-4 5-6 8-1-5 2-19 0-16-11 19-1 20-7 35 4-5 6-11 11-15 0-10 15-36 6-31"/><path fill="#C5BDB6" d="M295 236c-3 17 41 1 53 3-15-3-34 2-50-1"/><path fill="#7F828D" d="M315 257c-32 3-8 13 5 21-2-8-4-14-7-19"/><path fill="#B7B2B5" d="M301 267c5 10 8 22 10 32 5-7 6-14 10-20-7-1-12-7-18-10"/><path fill="#A3A1AB" d="M266 294c-4 1-6 6-4 14 8 6 16 12 23 19-8-10-12-27-20-31"/><path fill="#837D83" d="M401 269c-5 13-11 36-12 47 14-7 7-29 13-45"/><path fill="#777279" d="M396 268c-12 6-25 11-36 17 8-2 17-1 27-1 4-6 6-15 10-15"/><path fill="#9A9091" d="M416 220c1 3-1 5-1 7 0 14-2 25-3 36 4-6 7-12 11-19-2-6-4-10-7-14 4-3 7-2 10-1-2-3-8-5-7-8"/><path fill="#AEA19C" d="M417 228c4 14 13 20 26 26-5-7-10-15-15-23-4-1-6-3-10-2"/><path fill="#575665" d="M157 338c-30 20 12 7 21 5-6-2-13-4-20-5"/><path fill="#B2483C" d="M406 166c18 15 46 28 60 38-18-14-37-27-57-39"/><path fill="#8B8A94" d="M331 250c-5 2-11 3-16 6 1 6 4 12 6 17 3-6 6-16 8-22"/><path fill="#CABFBA" d="M255 245c-8 3-15 10-22 12 2 3 2 7 4 11 8-3 11-15 16-21"/><path fill="#7D757D" d="M372 167c5 10 11 20 18 29 5-3 4-5 9-12-5 0-9 0-12 2 0-8-10-10-13-17"/><path fill="#7E292B" d="M408 164c-1 5 1 8 0 13 17 8 33 14 48 21-16-11-36-18-50-31"/><path fill="#373441" d="M317 352c1 3 0 7 2 10 4 7 11 9 15 13-2-8-6-15-15-21"/><path fill="#7C777E" d="M382 211c-2 5 3 10 4 15 5-1 7-4 11-5-4-5-9-7-14-10"/><path fill="#ACA1A0" d="M423 246c-3 4-7 17-12 18 0 6-1 15-2 23 6-12 10-26 14-39"/><path fill="#D7D0C6" d="M202 252c-5 3-14 6-19 10l-2 2h-3c-3-1-6-3-9-4-2 4 0 5-1 9 4-2 7-4 10-5 3 3 3 5 2 6 7-6 15-11 21-18"/><path fill="#9D4D3E" d="M300 404c-2 3-6 4-8 6 3 4-1 14 9 13-1-8 2-11-2-17"/><path fill="#90898F" d="M397 222c-4 2-7 4-11 6 0 4-1 7-2 10 5 0 7-1 10-2 0-3-2-2-5-5 4-1 6 0 8 1-1-3 0-6 1-9"/><path fill="#717281" d="M246 282c6 3 31 17 47 16-14-6-30-10-44-16"/><path fill="#DDD8D2" d="M392 201c2 6 4 12 6 16 6 4 15 4 17 9-3-4-19-23-21-23"/><path fill="#C1B7B1" d="M369 166c-8 4-1 2-12 12 3 2 6 5 10 7 2-5 1-12 2-17"/><path fill="#B8B4B6" d="M237 276c-2 6-6 11-9 16 10-6 27-2 10-14"/><path fill="#9A9191" d="M269 223c5 10 14 20 20 30 1-1 4-3 4-4-8-8-15-17-22-23"/><path fill="#9A989F" d="M283 274c2 2 6 2 7 5-4 3-11-1-5 4 7 4 14 7 23 13-6-16-17-11-22-22"/><path fill="#DAD5CD" d="M353 125c-6 19-6 13 17 13-7-4-12-7-18-10"/><path fill="#534D55" d="M395 271c-1 5-3 7-6 13-10-1-12 2-16 3 1 3 10-1 13-3-5 6-2 15-5 21 9-5 6-7 6-19 3-5 9-7 9-13"/><path fill="#ADA29F" d="M412 237c-5 8-10 17-15 26 4 0 5 1 7 2 3-10 5-18 8-26"/><path fill="#F28F57" d="M263 485c3 1 11 2 7 8 7-2 8-4 27 0-7-10-21-5-31-8"/><path fill="#25212D" d="M188 310c-2 4-8 5-10 10 2 4 4 7 7 9 2-5 2-12 3-17"/><path fill="#E9E9E3" d="M332 250c-3 9-7 17-10 26 6-6 8-17 17-19-1-2-3-4-6-5"/><path fill="#8F8D9A" d="M260 300c0 3-1 5-2 9 4 0 7 2 9 5-2 1-4-1-6-2 8 8 22 15 28 23-7-12-18-19-27-26-1-3-2-5-1-6"/><path fill="#4B4857" d="m171 308 6 3c-6 5-12 8-19 10 5-2 12 1 16-2 10-7 14-12-2-10"/><path fill="#686776" d="M276 336c0-2 1-1 3-1 11 14-9 3-15 4 3-3 6-4 10-3"/><path fill="#7A383A" d="M294 395c-1 4-1 9-3 13 2 3 20-14 4-14"/><path fill="#70707B" d="m149 302-1 1c-9 9-11 10-18 15 2-4 34-11 21-16"/><path fill="#B1523E" d="M258 396c-8 10 9 12 4 23 0-8 1-14 4-19-3-2-5-2-7-3"/><path fill="#24212E" d="M260 337c5 6 2 16 11 18 5-8-6-12-9-16"/><path fill="#FAFAF9" d="M166 258c0 3-14 1-11 8 4 1 7 2 11 1 1-3-1-8 2-9"/><path fill="#605F6D" d="M304 295c-3 3 0 9-2 13 1 4 3 7 5 11-2-3-3-7-4-10 2 0 4 1 5 3 1 4 1 6 1 8v-7c-1-8 0-16-3-16"/><path fill="#B9AEAB" d="M258 233c3 3-4 4-2 9 0-8-7 6-9-3 3-3 7-5 9-4"/><path fill="#999090" d="M421 265c4 8 9 16 14 23-3-6-4-13-5-19-2 1-5-2-7-2"/><path fill="#CCCCD4" d="M266 294c4 2 4 6 7 8 5-1 10-1 14-2-7-2-12-4-18-6"/><path fill="#3C3842" d="M393 196c-5 4 12 10 16 16-1-9-9-11-14-15"/><path fill="#CCC3BD" d="M350 246c-4 4-3 7-6 8 3 4 7 4 11 6-1-4-3-8-5-11"/><path fill="#524F5B" d="M328 314c3 4 3 7 5 13 4 1 6-2 10-1-3-1-9-9-12-10"/><path fill="#3B3643" d="M379 168c3 4 4 8 7 12 4-2 6-3 8-6-4-1-9-3-13-5"/><path fill="#C2B6B1" d="M380 196c3 3 0 9 3 12 4-2 4-7 7-8-3-3-5-3-8-4"/><path fill="#211F2A" d="M170 322c-8 6-14 14-21 21 6-8 25-15 24-22"/><path fill="#F38046" d="M416 160c-19 3 1 7 8 7 0-5-3-4-5-7"/><path fill="#B7ACA9" d="M389 201c-1 3-4 6-5 9 3 4 12 1 11 7-1-6-2-10-4-15"/><path fill="#2A2634" d="M194 344c4-1 7 0 12 2-4 4-20 5-12 0"/><path fill="#6C6C79" d="M170 310c-4 1-8 6-13 8 4 1 20-4 17-7"/><path fill="#5B565F" d="M395 177c1 3-9 3-9 6 7 1 26-4 10-7"/><path fill="#F2F3E9" d="M174 250c1 3-3 5-6 6 0 5 7 5 10 7-1-5 0-10-3-13"/><path fill="#676169" d="M425 246c0 6-4 11-5 17 5 1 5-2 6-5s0-7-1-10"/><path fill="#A9A6AA" d="M297 264c4 12 7 22 12 31-3-9-5-25-10-28"/><path fill="#585764" d="M334 349c-1 5-2 9-4 13 3 6 5 9 6 13 1-13-2-7-1-25"/><path fill="#79777D" d="M344 326c-1 4-1 7-3 10 3-2 20-10 5-9"/><path fill="#61606F" d="M277 336c-4 2-9-1-12 2 4-1 24 9 14-2"/><path fill="#9A9494" d="m147 285-9 6c6-2 24 5 10-6"/><path fill="#62606C" d="M344 326c-3 1-7 1-9 3 0 3 3 4 4 7 3-4 4-12 7-10"/><path fill="#F1F3EC" d="M323 222c8 2 17 3 24 6-4-8-15-5-21-6"/><path fill="#767072" d="M374 312c2 8-4 10-4 20 5-3 11-23 5-19"/><path fill="#484551" d="M158 296c-3 2-6 3-7 6 3 1 18 1 7-5"/><path fill="#8C898C" d="M389 311c-2 13-6 13-6 22 4-9 13-22 5-19"/><path fill="#B9AEA7" d="M367 166c-3 2-7 2-11 3 1 2 0 4 1 5 9-5 4-7 12-8"/><path fill="#4A4755" d="M182 343c-7 1-11 5-19 4 7-3 23 6 19-3"/><path fill="#BAAFAC" d="M260 229c0 10-12 4-13 12 6 2 7-1 8 1l3-1h-2c-2-7 5-2 3-10"/><path fill="#2C2835" d="M197 345c-13 3 2 5 8 3-3-2-5-4-7-3"/><path fill="#BD5D49" d="M331 489c-9 8 7 4 9 4-4-2-5-4-8-3"/><path fill="#CCC8C6" d="M182 293c-3-1-7 8-13 11 4 1 7-1 12 0-3 0-3-3-5-1 1-6 3-4 6-4 0-1 0-3-1-6"/><path fill="#DDD6CC" d="M402 147c3 2 11 8 16 12 4-1 5-4 6-6-2-2-3 4-5 3-7-3-11-5-15-8"/><path fill="#282531" d="M308 362c-5 10-4 14-4 21 2-6 6-12 3-18"/><path fill="#783233" d="M259 391c-4 6 2 5 6 7 4-5-2-6-4-7"/><path fill="#B15A44" d="M285 492c-15 9 2 3 13 4-5-1-9-3-13-4"/><path fill="#E6E4DC" d="M349 123c2 2-1 5 1 7h-9c0 4 13 3 8 8 6-3-1-8 1-13"/><path fill="#524D56" d="M395 176c-11 3 12 2 16 5-3-5-7-3-13-5"/></svg>