<svg xmlns="http://www.w3.org/2000/svg" width="600" height="600"><path fill="#4E717F" d="m256 120 2-2c22 2 43 4 63 8 14 9 28 15 40 24 10 15 15 31 25 44 10 31 0 61 8 84 3 2 6 1 8 3 1-4 3-9 6-11 2-18-13-16-15-23 11-2 16 2 23 6-3 12 10 6 8 17-5 7-7 2-9 14 3 2 9-1 11 3 3 0 1-8 7-11 3-4 9-3 9 0 3-6 4-11 5-15-2 0-6 2-9-2 0-5 4-10 8-8-10-4-1-19-3-24-6-1-11-2-15-2-6 5-15 5-15 12-3 0-3-4-2-5 6-5 10-9 16-11-7-3-12-8-18-9-8-1-9 5-11 7-1-5 0-8 4-9 16-1 28 6 40 9-3-7-6-12-8-17-6-8-12-11-19-12-3-9 8-4 2-7-6-4-11-6-17-5-7 2 1 7-2 9-7-3-11 1-14-5-1-9 5-11 8-16 8 6 18 3 24 7 14 5 17 19 27 24 11 14 9 32 19 44 6 6 17 1 23 6-3-12-9-5-11-3 0-6 2-10 7-8 14 6 17 21 31 21 0 18 12 12 15 25-10 19 1 19-3 45-5 3-8 3-9-1-8 12-18 18-15 28-7 8-14 1-16 5 2 3 2 7 1 9-29 14-27-2-46 12-23-3-41-8-57-17 0 9 6 3 9 8s7 10 3 13c8 0 17 2 24 7 12 2-3-5 9-7 6-1 10 0 15 1 2 8 11 15 18 15 10 9 1 19 12 24 4 0 8 0 11 1-5-12-14-23-25-31 10 4 21 6 25 18 11 7 14-2 24-1 4 2 1 7 3 7 0-3-4-10 2-10-9-2-14 3-20 5-4-2-2-5-3-7 6-11 16-7 23-10 5 3 9 4 10 9 1-6 6-6 7-7-12-3 1-11-2-14-9 3-17-7-21 1-1-6 3-10 6-11 8 0 14 1 19 4 3 5 7 8 7 12 3-8 1-17-6-22-10-8-19-7-24-5 1-9 10-8 16-7 18 2 22 17 28 23 4 7-4 8-5 10-2 7 3 9 1 14-8 9-2 12-8 23-5 1-5-3-7-3-5 6-11 13-17 17-7 0-7-3-16 1 15 3 31 2 44-2 8-2 13-4 18-8-2-6-2-10 0-13 5-1 6 0 7 2-2-4-3-9-1-13 3-4 6-2 7-1 1-2-4-2-4-6 3-8 10-4 5-14-12-2-10-14-23-15 0-5 0-7-1-10 2 10 27 8 30 25 5-12-14-13-5-24-11-2-19-14-23-11-2-6-12-5-8-12 14 10 30 9 37 22 14 14 3 38 8 43-11 9-8 20-11 29-11-3-18 20-25 17-9 8-49 6-76 5 3 3 11-1 13 4-19 4-35 0-50-3 2-6 8-3 12-5-6-3-14-9-17-16-1-8 0-13 2-18-4-2-12 11-18 2 2 3 3 9 0 12-16 7-22-13-30 2-12-2-13-20-24-12-9-7-8-14-11-19-8 9 7 17-2 26-6-12-7-23-7-32-7-1-9 0-10 1-3 14 2-8 4 6-11 8-6 22-8 32-5-11-8-22-5-31-3-1-6-4-7-6 1 4-1 7-1 10-2 7-8 5-9 4 4 1 7 2 9 3 2 7 3 18-4 18 3 3 19 6 14 16 9-5 15 10 21 11 8-13 24-10 21-23 12 1 19 0 30-2 12 4 18 14 22 22-5 2 2 17-8 20-13 1-24-1-34-4 10-4 21-4 31-2 2-7 2-12-2-16-5-7-11-7-17-6-7 1-11 4-15 7-5 7-13 13-8 17-18-1-27 10-42 6-21-4-40-6-58-11 7-4 16-4 24-5-4-3-7-7-12-10-2 1-2 3-4 3-4-9 1-14-8-23-2 1-5 3-5 2-1-4 2-6 3-5-5-14-8-28-7-44-2 14-2 22-8 32-4 10-10 18-17 21-27 8-42-14-67-9-5 1-8 4-9 8-2 4-1 7 1 9 15 14 25-4 34-2 1 14-12 9-13 16-10 3-21-12-27-4-7-5 0-8-7-11-2 2 4 3 1 7-9-6-23 12-38 4-19-5-40-17-55-17-5-2-7-7-2-9 1-2-6 4-8-3-6-13-20-30-28-36 6-11 5-20 18-29 4-1 10-2 14-1 5 1 8 5 6 8-4-3-6-3-9-4-2 5-11 2-13 10-4 8-1 14-2 23 5 5 8 10 12 5 3-9 8-18 17-24 5-5 10-5 15-4 3 3 6 6 4 8-5 3-6-4-11-2-7 4-12 10-13 17 4 0 6-5 11-3 4 2 5 4 4 8-4 5-3-1-4-2-1 3-2 5-1 7 8 1 9 10 16 12-1-12 10-18 9-27 5-4 10 1 16 0 4 3 2 7 3 9-6 2-4-4-7-4-6 2-8 5-9 8 1 7 0 14 0 19 8 12 15 5 21 17 5 0 8 0 9-2-1 1-5-4-4-6 4-6 10-8 15-6 4-6 7-12 8-18 5-7 11-5 15-8-21 4-43-15-60-14-16-7-18-24-33-28-11-12-8-18-19-25-1-6-2-9 2-12-9 2-13-10-15-15-1-5-1-8 1-9 4-2 5-3 8 0-1-16-11-24 1-45 4-1 4 3 3 5 7-9 1-19 5-28 13-14 25-40 35-53 10-7 25-13 32-24 7-1 11 1 16 0 10 9-5 20-5 29-3 5-8 5-9 2 6-5 7-12 7-20-6-3-10 3-15 5-10 8-17 17-23 25 5 2 7 8 12 5 6 3 7 7 3 10-3-3-6-5-16-5-8 2-9 11-13 16-5 17-4 34-5 50 3-3 4-9 9-10 5 0 8 3 9 5-1 13-2 23-12 29 8 8 12 20 8 29 11-5 9-20 20-28 9-1 15-13 24-4 6-6 9-12 11-17-6 2-10 0-15 2-2 2-1 4-2 6-6 1-8-2-12-2-6-12-9-10-16-15-2-9 5-9 1-15-4 3-11 0-11-4 4-5 7-8 10-5 6-5-2-3 0-9 14-2 23-19 34-25 4-1 9-3 10 2-5 4-8 6-11 8 4 4 9 4 14 6-8 4-16-3-24 0-3 12-10 22-11 32 1-1 5-2 7-4 6 3 13 6 11 12 4 0 6-1 10 0 8-7 15-18 28-20-9-9-6-21-18-24-3-6-4-11-3-17 7-9 5-20 9-29 21-9 25-29 42-42 20-8 40-11 61-13"/><path fill="#7DBCB7" d="M352 200c2 4 2 9-3 7-4-9-8 2-11-6 1 7-3 12-1 18-7-6 0-20-5-14 1 2-4 2-4 5-10 2-18-1-26 5-4-3-4-5-5-7 1 4 1 10-2 12 1 6 1 11 3 15 12 6 5 4 19 8 5-2 6-6 13-13 4-2 8-4 10-1-5 9-17 14-20 25-5 4-6 9-7 15 0 9 1 15 4 21 4 6 8 10 13 12 12 0 19-4 25-12 4-7 7-13 8-19-1-11-1-20-4-28-7-4-13-9-16-13 3 0 6-3 9-1 8 11 12 14 15 13 9-6 6-19 10-28-4 0-5-1-8-2-4-2-3-4-4-5-3 3-5 5-6 11 2-8-3-10-6-15"/><path fill="#315475" d="M110 167c-13 8-20 20-27 28-10 12-16 27-22 42-7 13-10 30-11 42 1 15-2 28 1 31 0 3 7 8 3 11 1-12 5-10 5-21 2-5 2 0 3-3-1 20 2 8 8 43l-2-4 1 1c5 11 13 21 24 30 13 1 22 12 31 12 22 1 26 2 49 1 12-2 13-17 17-25 4 0 1 3 1 5 4-10 5-21 7-33-11 15-13 17-24 24s-21 8-39 10c-17-2-29-9-39-16-16-17-19-22-24-36-8-28-3-58-1-83 5-18 29-47 38-57"/><path d="M466 252c2 15-14 15-3 31-11 6-14 18-18 26-17 1-40 7-56 5 11 15 34 14 41 33 7-2 10 0 15-1 1-8 10-11 15-14 9-3 15 2 16 8 3-4-1-11 4-15 4-4 9 0 13 1 3 0 3-2 5-4-5-10-13-20-12-31 9-5 16 2 22 5-10-20-4-25-25-41-5-3-10-3-16-2"/><path fill="#8EC5BC" d="M264 156c-1 5-20-2-33 9 9 4-14-1 5 3-80-6 43 21 24 16 22 14 13 6 37 25-1-13 11-3 11-9 15 6-2 12 1 9 10 0 16 4 21-2-11-4 4-18-6-24-13-8-26-16-38-22-15-6 5 7-8 2l-1-1h2c6 8 14 4 21 10-16 0-28-6-36-15"/><path fill="#1A2648" d="M298 300c-2 2-6 0-8 1 4 12 6 0 8 11-11 22-16 43-27 62-3-5 8-24 6-38 3-10 11-14 12-22-5 9-14 12-19 21 3 22-13 34-16 51-2 0-4-2-5-4 1 10 1 21-2 30-4-9 0-14-6-12 7-21-1-42 3-60 4-14 6-26 9-38-9 1-11 11-15 16-1 11-1 19-4 27-25 13-14 30-43 43 16-7 26-22 34-34 5 16 7 31 6 46 8 8 14 16 16 25-4 7-8 11-14 13 9-2 16-10 19-18-11 9 6-19 9-41 4 2 1 10 3 15 3-8 11-13 15-19 9-25 19-63 22-77"/><path fill="#284467" d="M48 283c1 10 0 21 3 30 1 7 1 12 4 17 7 17 15 29 31 40 13 10 21 13 42 24 5 0 5 0 1-1-5-10 7-1 0-8 5 2 23 6 22 12 28 2 43-19 45-14 9-21 11-55 8-63 0 1-4 2-5 6 1 7-3 24-6 34-4 0-1-3-2-5-3 8-6 16-11 24-31 3-30 2-53 2-12-1-21-12-33-12-8-6-14-14-19-20-11-16-9-41-14-52-1 7-4 15-5 21-3 1 0-2-5-2-3-10-2-22-2-31"/><path fill="#335777" d="M477 249c7 2 15 5 27 18 4 6 6 12 6 17 3 12 0 22-2 26-2 8-10 18-17 23-15 13-26 14-49 18-10-2-18-4-25-8-11-5-18-11-27-20 3 12 7 22 11 31 11 10 28 9 43 8 1-1-3-4-1-5 15 2 21 2 35-4 13-5 22-18 30-24 8-10 11-25 9-40 2-15-17-40-39-40"/><path fill="#B5DBCE" d="M259 122c-20 4-36 4-55 10-34 21-18 15 8 3 23-5 43 0 65-4 12 8-8 0-11 5 5-1 9 1 14 1 7 2 11 6 14 10 1-2-5-4-2-7 8 9 16 14 22 21 3-8 25 7 19-5 8 6 16 9 17 18-4-10-4-21-12-28-21-16-45-11-65-25-6 1-9 0-12 1"/><path fill="#1B294C" d="M192 259c-17 5-24 25-28 33 4-2 9-7 13-11 2 2 2 8 1 9 5-4 10-9 17-4 0 2-2 3-4 1-8 2-10 9-15 13l1-1h3c0 7-1 13-6 20 1-9 13-11 12-16 10-6 0 11 13 10 4-3 5-6 8-9-1 7-4 13-8 18 3-1 2-6 5-7 6 13 14 22 16 33 14-8 7-27 15-38 7-10 12-16 19-22-4-5-10-8-11-13-1 2 4 4 4 10-6 6-11 10-15 15-7 3-12 3-17 1 2-5 5-3 7-4 4 0 6 0 8-1 3-5 6-8 8-11-4 4-8 10-13 12-16 6-30-7-40-1-4-2 0-7 3-8 11 0 19 6 28 4-8 0-14-3-19-6-4-1-4-3-5-2-5-8-8-18-3-24"/><path fill="#B5DBCD" d="M229 141c-8 3-17-1-25 1-8 8-16 3-22 8-4 6-11 12-6 14-6-2-15 7-17 13 11-4 22-8 30-15 3 1 0 2 0 4 10 3 17 2 29 3 9-6 20-11 28-13 25 7 16-7-2-14-6 0-10-1-13-2"/><path fill="#264265" d="M304 387c-7 5-1 11-10 19-4-5 3-7 0-14-3 1 0 5-2 7-8-18-5 15-6 24 6 11 10 18 19 31-6-4-2 12-14 0 5 4 6 5 11 8-2 4-4 5-1 7-6 1-7-2-10-2 2 3 6 2 8 3 20 3 36 7 50 4 23-1 24-23 40-27 17-6 22 4 27 2-2-2-8-5-7-7l-3-1c3 1 2 2 3 4-10-4-20 0-28 0-6 7-12 5-27 19-13-4-12 1-19 0-21-8-35-26-47-38 1-3 27-37 16-36"/><path fill="#315475" d="M378 366c3 6 4 17 8 25 5 2 9 13 16 15 15 4 26-2 39 0 18 18 37 36 53 44 8 2 16 2 24 3 10-3 16-3 18-7-9 2-42 0-51-6-21-15-25-28-39-43-15-14-25 4-41-3-14-4-20-17-26-27"/><path fill="#20365A" d="m196 226-2 1c-2 1-4 1-4 3 4-5 12-6 18-2-5 12-20 14-27 22-3-2 1-7 2-11 7-5 7-5 1-1-9 8-8 19-15 27 2-8 3-16 7-24-9 18-10 38-20 54 13-19 12-19 33-37 4 2 0 3 0 5-1 5-2 9 0 12-2-3-2-7-1-11 4-7 10-6 13-2 0-1-1-3-2-3 3-4 18-8 25-23-2 5 2 11-4 12 1-2 5 3 8-2 9 7 2 22 13 21-3 10-10 15-15 20 1 3 3-2 6-2 2 2 1 3 1 5-6 4-10 8-16 6 6 1 11-1 15-4 1-4 3-4 3-6 1 3-1 6-2 9 1-5 8-9 7-9 6 3-6 8-5 9 5-5 15-8 10-14-6-9-8-31-14-41-3-4-2 3-5 3-2-3 2-4 0-8 0 0 1 1 0 2-1-6-5-5-6-8 14 6 1-2-2-2-7 0-13-2-19-3"/><path fill="#274366" d="M372 354c14 13-5 43 8 64 8 4 15 5 23 4 10-2 19-11 34-10 20 14 20 19 34 31 9 2 10 4 18 6-13-9-32-25-46-41-16-4-31 6-44-3-4-4-11-12-14-15-8-14-4-26-12-36"/><path fill="#20385B" d="M370 344c-5 8-9 16-12 24-2 11-3 20-4 28 9 12 18 18 27 24-4-2-4-9-6-13-1-14-1-26 3-36-7-20-2-10-7-26"/><path fill="#B6DCCF" d="M232 134c12 8 81 37 81 39 22 11 12 24 15 33 3-14 0-24-4-34-19-8-23-17-40-31-17-2-29-3-43-7"/><path fill="#315576" d="M462 252c-17 9-6 20-35 41-7 0-13 0-19-1-9 1-13-8-18-8 3 5 9 14 17 17 9 5 18 7 27 5 7-6 14-6 14-11 8-9 7-31 13-44"/><path fill="#294366" d="M227 249c-5-2-13 6-21 8 24-7 18 0 20-2 1 1-1 3-3 5 4-1 9-5 10 2-5 6-11 10-15 13-20 2-12-15-25-15-7 6-3 13-3 17 4 8 11 9 16 12 7 2 12 1 17-1 2-2 13-8 14-17 2-4 1-5 0-6-4 7 0-6-4 2l-1-2v-3c5-5 1-12-3-7 2-4-1-5 0-7"/><path fill="#20395B" d="M279 377c-5 6-12 11-14 20 2 5-1 9 2 13 1 2 5 1 6 3 0 9 5 16 3 23 0 9 12 4 14 17 4 3 11-3 17 4-12-16-19-27-27-40-2-17 3-28-4-38"/><path fill="#315676" d="M171 405c-4 4-11 4-15 11-5 5-10 23 1 21 4-12 8-15 14-17 12 1 27 1 39 4 8-2 8-6 9-10-3 3-6 2-9 3-12-5-23-13-37-11"/><path fill="#274366" d="M385 316c1 11 1 22 4 32-7-22-4-2-1 9 0-2-1-4-1-6 16 4 12 17 25 20 25 1 33 0 47-5 15-6 31-12 50-36-13 19-38 26-54 33-8-2-22 2-33 0-10 0-17-4-21-7-5-11-9-21-12-31 4-1 6 3 10 5-5-4-12-9-13-13"/><path d="M224 359c-8 10-14 20-26 27-9 6-18 9-27 11 5 0 6 8 13 5 0 0 1-3 0-4 5-2 7 0 9 0 9 3 16 9 17 16-1-3 1-7 0-9 4-9 16-3 17-9v-10c-3 2-8 2-9-1 2-10 0-18 6-24"/><path fill="#19274A" d="M324 317c-5 23-14 47-27 67 6-1 6 1 12-1 1-9 3-16 6-23 7 9 7 19 2 26 3 7 5 12 10 15-3-16 13-24 7-40 0-13-8-23-3-36-4 15 3 30-4 44-2 5-2 11-4 13-2-24-2-45 1-64"/><path fill="#325575" d="M169 244c-19 11-23 32-35 49-9 4-17 2-22 6-5 1-5 2-8 8 6-10 26 4 37-14 7-8 15-14 21-22 5-10 6-19 9-27"/><path fill="#050606" d="M167 292c-12 6-19 18-32 19-13-5-14 1-26-2-5 2 7 8 1 16 10 9 25-6 34 1 1-6 8-13 13-9-8-15 15-19 10-23"/><path fill="#568592" d="M182 193c-2 2-6 0-8 1-8 2-13 4-18 7-6 7-15 12-9 16 11 9 8-2 17 2 7-3 11-7 14-9-2-2-8-1-6-4 12-10 86-4 6-13"/><path fill="#315575" d="M309 395c-9 7-20 37-20 26 7 16 19 20 27 33 9 4 16 8 24 9-11-5-22-16-29-29-2-11-4-25-3-38"/><path fill="#90C6BD" d="M322 162c-1 4 11 15 10 26 9-7 9 12 14 3 4 14-6 9-7 12 5-6 9 9 12 3 0-7 2-5 6-11 0-6-1-13-5-17-4-3-4-9-7-12-3 1-13-5-21-3"/><path fill="#81BDB8" d="M180 185c-7 1-9 3-15 3-16 9-23 12-18 20 5-7 16-13 21-15 15-3 46 2 65 4 10 3 15 8 23 13-3-6-2-15-11-15-17-3-34-7-51-9-3-1-8-2-12-1"/><path fill="#2A486A" d="M110 299c-6 3-11 8-10 13 0 10 2 18 7 22-21 9 10 16 13 18 7-9 25-7 31-8 13-9 17-14 21-22-6 5-14 11-19 13-15 3-25 5-32 9-5-3-2-7 0-7-2 2-5-1-7-1 5-6-11-6-11-19 4-7-3-13 6-18"/><path fill="#254063" d="M228 406c-2 4-3 11-16 18-11 1-17-4-27-2-6 0-9-2-13-2-5 2-9 4-12 12 12-7 15-11 23-10 0 1 4 4-3 3 15 2 28 12 47 14 2-11 1-22 2-32"/><path fill="#B5DBCE" d="M285 123c14 11 36 4 49 17 8 4 10 9 16 14-1 4 2 6 1 14l2 2-1-5c3 1 16 16 24 25 0-13-13-29-23-43-13-2-19-13-28-16-18-3-20-8-39-8"/><path fill="#192648" d="M358 302c0 22-1 51-4 70 4-10 9-19 15-28-3-14 0-29-8-40"/><path fill="#EAE9DA" d="M271 246c-5 4-5 15-1 20 5 6 10 7 16 6 6-4 5-11 3-14-5-7-10-11-15-13"/><path fill="#1F3558" d="M203 316c1 3 2 2 3 9-5-1-3-2-6-1 2 7 1 9 3 14 0-2-1-8 2-10 2 29-4 39-5 51 3 2 6-6 12-7 2-5-4-11-1-15 2-4 3-7 8-9-2-11-10-21-15-31"/><path fill="#20385B" d="M229 401c0 11 1 26-1 37 8-2 13-4 17-10 1-10-6-19-13-27"/><path fill="#325475" d="M176 304c-15 15-23 21-45 33 15 1 26-3 36-13 6-4 10-11 9-19"/><path fill="#7EBBB7" d="M261 212c2 9 23 24 34 37 5 5 7 21 2 26 3 2 6-3 6 3 8-11-5-26-6-35-16-12-23-25-33-32"/><path fill="#294568" d="M166 268c-13 12-25 32-42 37 4 2 10 4 15 1 5-2 7-3 13-9 7-8 11-17 12-28"/><path fill="#1A2B4F" d="M374 299c5 11 1 27-1 40 0 13 5 1 10 9 0-12-3-24 1-32-3-6-5-12-8-15"/><path fill="#93C9C0" d="M224 200c-26 9 17 8 19 19 6-3 10-1 12-3-9 4-7-9-22-14-4 0-5-2-8-1"/><path fill="#18294A" d="M313 314c-2 6-3 16-3 23-13 13-14 27-24 38-7 22 7-6-1 17 3-5 6-9 7-13 3 3 2 5 1 6 2-17 13-30 16-46-1-10 6-25 7-24"/><path fill="#254265" d="M384 284c4 8-5 13 5 17 1 2 8 2 14 0 2 5-4 7 3 6 12 3 29 2 39-6-7 5-14 8-25 6-14-2-24-11-31-22h-2"/><path fill="#487286" d="M183 170c-2 1-4 1-5 2-3-1-17 12-14 15 10-5 16-9 34-10-2-1-2-3-4-3 12-4-4-5-9-5"/><path fill="#274264" d="M196 226c-6 6-15 4-22 9 0 2 10-1 18-5-1 6-8 9-12 9-3 9 2-5 4 0-3 7-3 12-7 12 3-5 43-20 22-25"/><path fill="#81BDB9" d="M240 228c4 15 14 25 11 36 2 2 2 11 13 13-9-3-4-16-10-31-4-4-4-9-12-16"/><path fill="#62999E" d="M319 246c-5 8-9 18-7 30-3-1-3-4-4-7 1 7 1 11 2 17 2 8 5 13 11 17 6 6 11 5 16 4 8-2 13-6 16-10-5 6-12 6-19 8-7-2-11-6-15-9-3-6-6-10-7-14l-1-3v-1h1v-2c-2-11 2-20 6-28"/><path fill="#335374" d="M228 253c-3 4-6 7-9 9-8 1-15 4-19-1 4 2 9 9 5 10 6 0 11 2 14 0-1 4-6 2-9 3 2 0 5-2 7 0 4-1 24-18 7-14 1-3 2-4 3-5"/><path fill="#5D9C9F" d="M82 262c-8 10-12 13-9 27 5-2 11-8 12-11 1-7 3-11-3-13"/><path fill="#578594" d="M202 215c-9 5-16 6-23 13 10-12 70 4 22-13"/><path fill="#8DC5BD" d="M357 174c3 5 8 25 10 36-3-13 10-3 7-18-1-12-14-5-13-17"/><path fill="#7EBDB9" d="M229 228c6 2 8 28 17 37 2-8 1-16-3-21-4-6-3-11-12-16"/><path fill="#548F96" d="M496 292c-3 3-6 4-5 10 0 4 4 7 7 10 6-9 9-7 8-12-3-4-5-6-9-7"/><path fill="#81BBB7" d="M388 207c-8 2-7 16-7 22-4 12-10 18-11 29 6-10 11-16 8-28 3-4 5 2 6-3 0 6 1 4 3 7 2-8-2-16 2-27"/><path fill="#192748" d="M350 348c-12 1-1 19-9 36 4 1 8 4 9 8 5-15-10-29 1-45"/><path fill="#213457" d="M251 286c5 4-13 16-18 20-6 2-9 1-12 0 13 0 17-14 26-18"/><path fill="#6CA5A8" d="M211 204c-13 13 35 9 46 34h4l-2-2c-9-4-14-13-23-17 9 2 15 6 19 10 11 2 13-3 20 7-5-4-9-10-11-14 0 2-2 3 1 5-3 3-5 1-8 2-14-15-34-18-47-22"/><path fill="#192647" d="M262 306c-6 14-12 28-14 43 9-11 13-26 14-41"/><path fill="#8CC4BD" d="M242 188c6 5 21 13 30 11-7-9-17-11-26-12"/><path fill="#2A466A" d="M120 448c-19 1-24 3-5 7 11 1 17 0 25-6l1-1-1 1c-6 0-23 4-18-3"/><path fill="#29486A" d="M524 415c-2 3-13 18-21 20 11 1 16-1 20-6 1-2 5-5 2-13"/><path fill="#080808" d="M174 331c-10 2-9 14-19 18 2 1 2 4 1 4 8-1 10-9 18-14 7-1 1 9 6 3 1-2-8-5-5-11"/><path fill="#7FBCB7" d="M198 203c-1 1-2 0-3 1-7 1-11 3-12 8 9 0 18-5 27-4 0-7-5-6-11-5"/><path fill="#192647" d="M259 350c-3 4-7 7-10 11-1 7 1 10 1 14 5-6 13-13 10-23"/><path fill="#284668" d="M545 384c-3 0-5 18-16 25 1 4 3 5 2 8 6-3 7-8 8-10 4-6 6-12 6-22"/><path fill="#22395D" d="M384 318c-3 19 1 17 4 30 0 5 2 6 2 8-3 2-4-1-4-2 2 1 3 8-1 6 14 6 9 6 20 9-2-9-9-11-17-18-1-12-4-20-4-29"/><path fill="#3E647D" d="M200 172c-17 10 8 9 24 18-6-2-16-11-12-15-4 2-9 1-13-4"/><path fill="#669DA2" d="M235 217c11 6 20 19 26 20 12 3 4-6 16 2-6-3-3-9-9-11 0 5-6 3-8 3-10-4-16-10-24-13"/><path fill="#284768" d="M102 242c-4 5-3 15 0 20 1 4 3 5 4 7 0-2-3-3-4-5 7 3 13 7 18 4 6 6-1 4-2 4h-2l1 1c15-1 16 3 23-2-4 0 4-6-1-4-5 1-10 0-16 2-7-2-12-1-15-6-4-15-10-6-8-20"/><path fill="#182549" d="M349 313c-3 2-6 3-6 7-1 8 0 18-1 27 5-9 4-22 8-33"/><path fill="#2A4467" d="M306 276c-1 1 1 5 1 10-5-2-2-4-4 1 12 8-1 12 18 25-13-11-21-9-19-12 6 2 9 15 23 18 15-3 22-4 27-10-10-4-15 14-31 5-11-12-9-15-14-25-2-5 0-9-1-11"/><path fill="#538B95" d="M516 411c-1 2-3-1-4 1 5 3 1 8 0 10-4 3-8 4-11 6-9-1-11 0-16-5 0 1 0 1 2 3-8 4-7 2-11 1 7 8 20 1 21 2 6-1 8-1 10-1 11-5 10-6 9-16"/><path fill="#284669" d="M473 407c14 10 8 11 17 17 9 5 14-1 19-1-1-2-8-2-11-3-9-2-16-6-21-12"/><path fill="#2A4265" d="M235 284c-4 1-10 7-16 9-12 4-23-6-28-2 10 4 21 7 31 4 7-2 11-5 12-10"/><path fill="#3B637D" d="M69 436c6 6 8 6 12 8 14 2 28 6 41 1-15-4-37 3-50-8"/><path fill="#223C5F" d="M132 386c-6 2-8 10 5 10 2-1 10-2 13 0-6-4-10-8-16-10"/><path fill="#59989C" d="M193 316c-5 2-10 4-13 9-5 3-2 4-2 8 0 1 1 2 2 3 5-6 10-12 12-18"/><path fill="#7EB9B6" d="M259 214c-14 4-17 12 6 15-3-6-2-10-9-15"/><path fill="#6FB0AF" d="M137 348c-25 9 12 11 17 4-5 3-10-6-17-2"/><path fill="#305071" d="M145 431c-2 5-4 10-9 13-13 1-23 5-36 4 25-3 20 4 44-1 9-4 1-17 1-14"/><path fill="#4E8192" d="M412 345c3-1 10 2 15 3 4 3 5 5 4 9-8 0-10-10-21-8"/><path fill="#E6E7D9" d="M384 260c-3 5-10 13-7 18 6 0 8-3 9-6 0-6 1-8 1-11"/><path fill="#294367" d="M441 437c10 13 17 8 22 18 16 7 4-5 21-3-14-4-36-4-41-12"/><path fill="#3D6880" d="M159 405c-5 5-11 10-15 16-5 10-8 19-18 24 6 0 10 0 13-3 11-21 2-10 4-19 5-9 14-15 18-16"/><path fill="#6DA8A8" d="M321 240c-3 12-9-2-16 2 0 5 6 10 6 16 4-8 7-12 9-15"/><path fill="#6FA7AA" d="M258 199c7 9 21 15 26 27-4-8-10-16-12-24-4 0-8-2-12-3"/><path fill="#608080" d="M260 439c11-4 4 12 2 15-6-2-6-6-5-8v-4h2"/><path fill="#81BCB7" d="M215 176c1 3 1 6 4 6 6 3 14 4 20 6 0-10-21-7-22-12"/><path fill="#7DBCB7" d="M339 359c2 10-6 23-9 35 6 1 6-4 9-14-3-9 3-11 1-20"/><path fill="#192C4F" d="M214 227c5 1 9 3 12 7-5 13-15 20-25 21 12-1 25-9 28-19 5 9 8 23 12 34-4-10-5-23-9-32-6-8-10-7-15-12"/><path fill="#325372" d="M162 222c-1 2-4 3-6 2 0 5 2 7 3 9-1-1-3-3 0-5 3-1 4 2 6 2 5 7-4 10 1 11 9-3 22-26 3-8l-1 1-1-1-2-2c-2-2-3-5-2-8"/><path fill="#39677E" d="M57 386c-5 12-6 13-8 24 1 11 5 16 12 21-1-3-8-9-7-14-1-13-3-22 6-31"/><path fill="#294263" d="M179 267c5-3 9 2 7 5-1 5-4 8-6 8-5-4-3-8-2-10"/><path fill="#B2D9D3" d="M121 158c-10-1 19 9 12 12 8-8-2-10-2-12-3-2-5-3-8-2"/><path fill="#5A989D" d="M469 334c-8 7-19 3-19 8 7 3 30-4 20-7"/><path fill="#538490" d="M339 334c-6 2-2 7-5 8 1 8 3 15 2 24 5-12 2-19 3-31"/><path fill="#274869" d="M432 196c7 6 12 22 17 27-1-8-11-33-14-23"/><path fill="#6B8886" d="M31 410c4-1 7 9 5 12-5 1-6 0-7-3-3-4 1-5 2-6"/><path fill="#BAE1D4" d="M291 206c-8-1-4 11 1 13 4-4 4-7 2-9v-2l-1-1"/><path fill="#5B979B" d="M67 421c1 7 10 16 18 15-6-7-14-12-16-13"/><path fill="#305373" d="M439 433c2 5 6 9 8 10 5 2 13 6 29 5-4-2-28-2-34-14"/><path fill="#4F8992" d="M416 421c-4 2-10 3-13 6 9 3 24 1 14-5"/><path fill="#60959C" d="M274 202c-2 5 6 13 8 18 4 9 6 8 12 15-4-6-7-8-10-13-7-8 0-11-1-15-4-1-5-3-6-5"/><path fill="#264567" d="M447 228c1 8 5 13 3 21-2-9 9-5 8-4-1-10-4-11-9-14"/><path fill="#569299" d="M491 296c4-4 7 3 8 2-1 3 1 6 0 8-4-4-1-4-6 2-2-7-1-9 1-10"/><path fill="#598793" d="M293 280c-8 2-12 9-22 5 6 6 33 3 22-3"/><path fill="#4D8994" d="M312 393c1 5-4 16 3 17 3-7 4-11-1-17"/><path fill="#A5D3C7" d="M315 198c6-1 10 2 9 10-3 1-4 1-7 2 0-5-2-7-1-10"/><path fill="#4C7888" d="M261 340c-3 8-13 7-15 18 0 2 15-7 14-16"/><path fill="#578693" d="M279 292c-11 6-5 7 19 5-9-1-15-4-22-5"/><path fill="#4C8691" d="M216 402c0 1-2 1-3 2-2 6 1 6 2 8 5-2 17-9 2-10"/><path fill="#294968" d="M503 401c-27 7 20-1 16 10 0-6-5-10-10-10l-3-1h-1v1"/><path fill="#5D9A9F" d="M45 258c-3 8-4 16-4 23 0-4 11-9 3-22"/><path fill="#47778C" d="M441 419c-1 4-4 10 1 14 4-4 6-14 0-13"/><path fill="#578992" d="M280 200c10 13-4 9 5 21 4 8 9 15 13 15-6-10-16-19-15-33"/><path fill="#22375A" d="M251 288c-13 3-17 15-19 18 11-9 11-8 20-18"/><path fill="#A4D0C6" d="M292 136c6-2 12 1 16 3-5-2-18 4-18-1"/><path fill="#2F5174" d="M396 438c-31 9 0 3 10 5-3-2-2-4-9-3"/><path fill="#213759" d="M295 307c-3 3-8 11-7 18 2-1 3-8 8-7 0-4 0-7 2-10"/><path fill="#C1E4D7" d="M335 187c-2 5-1 12 4 14 3-6 2-10-1-14"/><path fill="#578694" d="M381 290c-5 7-12 5-19 7 8 7 15 0 19-4"/><path fill="#558191" d="M180 222c-5 3-12-1-16 3 1 4 4 5 4 7 5-3 8-8 11-10"/><path fill="#182547" d="M308 325c-9 5-8 14-10 22 5-6 7-13 9-20"/><path fill="#1E395A" d="M293 379c-2 4-4 8-6 13-2 9-6 17-1 25-3-8-2-16 0-23 7 1-1 3 6 3 1-1-2-5 2-6 2 2 2 4 1 5 3-6-4-10-1-14"/><path fill="#C7E9DD" d="M334 230c-2 1-8 5-9 13 2-7 21-8 12-14"/><path fill="#335273" d="M300 287c-12 0 10 8 6 13 4-4 1-9-2-11"/><path fill="#A5D2C8" d="M197 145c18 1-7 6-9 12 1-6 5-8 7-10"/><path fill="#2E4F70" d="M574 426c-18 10-17 18-33 18 7 4 15-4 21-5 4-5 7-12 13-14"/><path fill="#2A4667" d="M304 455c4-2 4 4 4 5-5 1 0 4-6 6 4-2-5-10 4-9"/><path fill="#305170" d="M108 327c1 7 7 9 12 10 3-2 8-1 12-3-8-3-18 1-24-4"/><path fill="#203558" d="M342 317c-4 2-14 5-15 1-2 4-3 6-4 9 7 2 9-7 20-8"/><path fill="#6AAAAB" d="M75 300c16 14-5 5 9 26 4-9-2-11-1-16-2-6-3-7-5-8"/><path fill="#548393" d="M242 268c3 4 4 9 8 13s6 4 10 3c-4-5-13-7-17-15"/><path fill="#3F637D" d="M288 331c-8 1-11 7-9 15 5-1 4-8 8-14"/><path fill="#526867" d="M361 440c9 6-8 7-9 8 1-6 4-4 6-7"/><path fill="#60959E" d="M266 290c-12-2 2 8 11 5-4-5-8-4-12-7"/><path fill="#4D8990" d="M313 415c-2 11 3 12 3 16 3-4 0-9 2-13 1 7 1 7 2 2-3-4-4-4-6-4"/><path fill="#1D2F53" d="M179 253c5-1 0 11-3 13-3-6 3-3 2-12"/><path fill="#CCE9DE" d="M302 202c-6 1-3 8 1 10 4-2 3-6 1-8"/><path fill="#315271" d="M377 300c4 2 3 7 8 10 2 4 4 0 9 2-11-3-11-15-14-11"/><path fill="#64999E" d="M178 215c-13 3 5 10 11 2-3-1-7-1-11-1"/><path fill="#6BA8A7" d="M128 431c-7 3-4 4 3 7 1-3 4-4 4-5-2-2-4-3-5-2"/><path fill="#B7E0D6" d="M251 185c-20 3 22 0 22 11-1-2-2-6-5-8-6-2-11-2-15-3"/><path fill="#71A7A9" d="M267 276c-8 0-14 3 11 9-6-3-9-6-12-10"/><path fill="#1F365A" d="M301 299c14 6 16 17 29 15-15-3-11-15-25-12"/><path fill="#447A89" d="M45 305c-1 3-1 9-5 10 1 0 1 3 2 4 9 0 2-8 4-12"/><path fill="#A6AEA9" d="M275 258c3-3 9 5 6 7-5 2-7-2-8-4"/><path fill="#39677F" d="M159 447c1 8 10 6 12 9 9 1 16 1 19-6-10 4 4-2-19 6 0-1-7-6-10-8"/><path fill="#A0CCCA" d="M43 361c-16 22 4-4 13 7-4-7-9-5-12-5"/><path fill="#599CA1" d="M84 327c3 2 9 7 8 10 6 5 5 2 10 1v-5l1 3-1 1c-8-6-2-5-16-8"/><path fill="#7CBAB5" d="M315 340c-6 7-10 17-10 23h-1l2-1c2-2 9-14 8-20"/><path fill="#8DC7C2" d="M80 426c0 3 12 6 5 12 5 2 8 3 12 2-2-4 1-5 0-8-8-7 7 8-7 5 6-4-3-1-2-7-2 1-4 1-6-3"/><path fill="#284967" d="M583 398c0 11-4 20-11 28-6 6-6 13-12 9 10 3 12-6 17-12 4-6 6-13 6-23"/><path fill="#284364" d="M254 288c10 1-2 16 6 8 0 4-2 6-4 6-5 6 3 5 2 10 1-2 1-9 4-8-1-3-1-4 0-5-1-5-4-6-5-8"/><path fill="#57949C" d="M478 363c-5 2-14 4-15 6 5 1 22-5 16-5"/><path fill="#172847" d="M261 295c3 3 8 3 12 5 0 4-1 7-2 9 2-1 2-5 4-6 0 15-8 18-11 27 8-6 13-22 17-31-1 1-3 1-6 1-5-1-8-2-12-4"/><path fill="#2E5475" d="M453 243c-3 3-1 8-3 11 5-3 11-6 5-11"/><path fill="#7ABCB8" d="M276 322c-6 2-7 9-11 14-3 9-1 18-2 25 2-8 0-17 2-17 2-12 5-11 10-20"/><path fill="#59999C" d="M488 325c-3 4-6 3-7 7l-1-2v2c0 1 2 3 3 3 5-2 11-9 5-8"/><path fill="#578591" d="M367 276c0 4-3 9-2 12 4 3 10 3 10 0 2-3-5 3-6-1-3-4 0-7-2-11"/><path fill="#37647C" d="M150 437c3 3 1 9 7 13 2-5-1-7-1-13-1 1-2 1-3 0"/><path fill="#516767" d="M474 217c5-3 10 4 6 7-3 0-5-2-6-4"/><path fill="#7AB8B5" d="m498 433-9 3c9 3 16 5 14-2-2-5 1 7-6 0"/><path fill="#487386" d="M281 308c5 10-2 9-3 16 9-9 19-14 3-15"/><path fill="#B7E0D7" d="M224 199c-15 3 6-2 9 2 9 4 15 7 21 12-5-4-10-11-18-13-5 0-7-2-11-1"/><path fill="#C4E9DE" d="M346 231c1 5 8 5 10 9 0-6-4-10-7-10"/><path fill="#7CBBB8" d="M290 361c-4 7-6 5-7 12-1 5-3 14 0 15-6-11 10-23 8-26"/><path fill="#D0EADF" d="M299 204c5-3 8 4 5 7-3 0-5-2-6-4"/><path fill="#417088" d="M153 410c-3 5-8 11-11 18 4-3 10-15 14-18"/><path fill="#243D5F" d="M200 323c7 0 3 5 5 10-8 2-3-5-4-8"/><path fill="#407386" d="M193 320c-3 6-8 13-10 17 4-4 12-14 13-17"/><path fill="#93C8C2" d="M66 398c-2 3-4 7-2 10v4c4 10 7-2 11 7-3-8-7-1-10-9-2-4-1-7 1-10 3 2 5 2 5 4-1-2 0-6-3-6"/><path fill="#3D637B" d="M279 304c-2 3 12 5 9 9-1-3 6-4 1-6-3-1-5-3-8-2"/><path fill="#619CA0" d="M341 387c-10 12 3 0 7 9-1-5-3-6-4-7"/><path fill="#2A4163" d="M241 285c-5 8-13 16-24 14 5 3 11 1 14-1 3-6 10-7 11-11"/><path fill="#525F5F" d="M430 378c10 0-4 10-5 3 0-3 3-4 5-2"/><path fill="#2C5573" d="M115 223c-12 13-14 19-15 27 1-7 8-17 13-24"/><path fill="#6DA6A9" d="M241 259c0 6 5 11 8 15 1-13-1-6-7-13"/><path fill="#447489" d="M587 381c2 10-7 6-1 20 3-7 2-13 2-19"/><path fill="#3F627C" d="M294 290c-4 2-8 2-13 1 6 1 26 7 15-3"/><path fill="#548691" d="M393 324c8 10 14 8 19 12-3-14-12 2-16-10"/><path fill="#558C95" d="M391 234c-14 11-9 8-11 15 6-2 9-6 9-14"/><path fill="#57939A" d="M493 296c3 4-4 6 3 13-3-15 4 5 3-10-2-1-3-2-5-3"/><path fill="#324E71" d="M225 251c-5 8-15 8-23 7 4 2 7 2 10 3 7-2 11-5 14-8"/><path fill="#233C5E" d="M178 422c-20 5 9 7 5 0-2-1-3 3-4 1"/><path fill="#599B9E" d="M521 310c-1 5-4 9-2 13 2-1 6-5 3-12"/><path fill="#5D99A0" d="M320 439c1 3 5 8 8 8-1-5-2-8-7-8"/></svg>