<svg xmlns="http://www.w3.org/2000/svg" width="600" height="600"><path fill="#8E5856" d="m190 129 1-1c24-5 44 6 61 12 22 7 37 20 49 35 7 20 23 34 26 53 11 1 19 4 27 8s14 8 18 13c9-15 19-31 30-45 13-14 26-28 43-37 20-8 37-17 59-17 15-2 28-2 41-2 10 4 20 2 25 9-23 2-49-2-72 3-28 6-52 16-74 32-14 14-25 25-32 40-6 9-10 18-13 27 2 8 4 15 5 21 8 3 15 7 18 15s4 17 0 22c-4 6-7 10-12 11-7 1-13 3-17-1-6 12-9 23-20 30-17 11-32-3-45 12 5 1 8 8 9 13 9 3 18 2 24 10 6 5 4 11 8 13-2 6-5 9-7 12 3-4 9-10 16-4 4 3 6 6 7 9 1 8 2 14 1 22 11 12 24 16 34 23-9 6-16 1-23 1-7-5-12-10-17-14-10-8-2-21-7-29-7 5-13 5-20 4-9-3-7-12-3-15-10-8-25-4-37-6-4 3-10 2-7 6 6 9 14 10 21 14 0 8-4 13-6 20-4 10 1 15 7 18-8 2-13 0-18-2-3-12-3-21 4-28-5-3-9-4-12-7-6 5-14 6-11 15 3 10 7 17 17 22-3 6-7 4-9 5-12-4-17-14-18-24-4-10-2-19 2-27-5 1-10 4-16 5-2 9-8 14-11 21-6 1-7-1-8-3-3-12 5-17 6-27 11-2 20-2 27-5-6-1-11-7-16-13-12 3-6 19-17 23-7 8-17 3-24 5-3 16-9 28-19 40-4 0-6-2-7-3 4-8 5-13 8-18-7 0-15-1-22 0-13-6-25-12-34-21-8 3-16 0-21 4-11 8-5 25-15 27-6-7 4-18 5-26-14-5-19 11-30 13 3-7 9-13 14-19 12-2 23-2 31-6 6-2 1-3 0-4-27 4-45 2-64-1-7 6-13 12-20 9 3-6 12-7 13-13 11 0 25-2 35-2-13-14-22-31-30-46-8-22-1-14-14-32 11 2 17 5 22 5 13 15 24 30 39 39 3 10 4 18 3 27 5 4 11 6 16 5-7-4-9-19-6-25-8-3-16-10-21-16-12-13-19-26-25-39-8-23-13-45-17-67 5-9 15-2 18-1-5-6-10-9-16-9-3-5-3-11 0-13 8-4 15-1 19 1 5 8 6 14 8 19 4 11-4 8-5 10 15 10 13 28 21 39 7 8 13 11 20 16 3 17 0 31 3 44 2 3 5 6 6 4 8-9 19-17 28-21-7-7-16-13-22-21-8-13-12-24-14-37-5-30-3-57 3-84 8-1 14 1 20 4 5 5 8 9 10 13 3-8-3-9-5-12-7-7-15-7-22-12 0-8 0-15 2-20 8 0 14 0 18 4 6 4 11 9 11 15 1 41 17 82 17 121 4-8 7-16 12-22 2-28 7-52 17-73 6-1 9 3 12 5-3-3-5-7-8-9 0-8 3-14 6-20 3-2 4-3 5-4 12 11 23 22 25 37-1-17-10-28-20-40 9-15 6-29 22-39 8 3 1 12 7 16-5 5-9 10-12 14 3 6 9 3 10 9 3 13 3 26-1 36 1 0 3-2 4-1-2 7-4 12-6 17 9-5 21-7 29-4 2-8 9-9 14-10 13-3 24-3 36-2-6-20-20-39-34-51-17-14-33-25-52-30-19-7-42-6-61-5-9 2-16 4-22 7-4 5-3 10-6 15-5-4-1-8-1-12-12 3-20 11-27 19-5 1-8-1-9-3 9-17 26-22 39-29 15-5 29-9 44-9"/><path fill="#21172B" d="M251 300c-1 16 0 31 2 43 0-4 3 0 4 2-5 0-7 7-14 11 9-10 4 2 9-4 4 6 13 10 13 16-7 8-14 10-21 13-5-6-8-10-9-15 3-4 5-5 8-6-5 2-11 3-15 7 6 7 4 23 5 34-2 8-10 7-14 9-11-2-17-14-16-13-7 4-8 7-10 10 2 7 16 13 8 19 8-4 18-1 25-5 8-6 9-17 9-24 11-8 13 10 25 10-7 0-11-7-9-14 1-12 21-15 15-19 4 4 23-1 25 14 1 8 2 16-7 21 6-3 10-6 17-2-2 0-3-1-4-3 0-4-1-7 2-8 3-6 9-9 13-9-5-1-9 2-13 3-10-3-7-12-6-15 24-12 19-17 29-16-8-11-2-17-7-17 6-39 0-40-3-1-6 2-20 10-31 8-13-5-15-5-20-14-7-4-8-28-9-31"/><path fill="#8D180C" d="M125 229c-5 11-4 34 1 55 1 6 6 3 9 3-2 4-6 3-8 5 4 12 8 21 14 28 5 6 9 12 15 15 10-14 2-31 8-46-5-9-5-7-11-17 3 7 10 12 10 19-4 9-6 17-4 25-6-2-5-6-8-7-12-21-12-43-16-64-2-8-5-12-10-15"/><path fill="#34919C" d="M284 278c-6 1-11 7-14 12-4 5-3 11-4 15 2 7 6 11 10 14 5 3 9 4 12 5 7-1 11-3 15-6 6-6 7-13 8-19-2-9-6-13-10-18-6-4-11-3-16-3"/><path fill="#26162D" d="M191 379c-7 3-12 13-23 11l-1 1h-1l-2-1c-6 2-3-13-13-6 1 3-4 4-6 8 2 4 3 7 4 10s6 5 7 7c-1 1-3 1-5 0 0 2 0 4-1 7-5-3-9-5-11-8-4 3-6 8-9 12 6 9 15 13 23 18 7 2 11 1 17 0-6-6-13-5-20-11 2-9 12-15 17-12 6 4 9 8 12 11-2 5-2 10-4 11 4 0 10 3 15 0 6-3 0-5 2-11 0-1-14-8-15-20-1-3-1 3-17 2-8-2-3-7-3-13-3 12-3-11-5 6-4-3-6-5-6-7 4-4 4-7 6-9 5 6 8 7 13 12-2-2-7-6-1-6 7 5 10 8 17 9 4-5 19-21 12-21"/><path fill="#853841" d="M316 292c4 13 4 25 11 33-2 4-3 8-3 13-8-3-3-10-5-15-2 7 0 15 1 22 1-1 0-4 1-6 8-3 6-4 13-8-5 8-12 11-11 21 4 7 11 9 16 7 6-2 11-4 12-9 6-5 5-16 9-23-3 5-3 6-7 9-6-1-12-3-14-4 4-7 7-13 8-21-2 8-4 16-12 21 5-7-5-6 3-18-7-6-7-15-21-20"/><path fill="#403D4F" d="M216 323c1 4 1 10 3 14-6 1-13 6-16 9 0 5 2 11 4 16 4 5 9 2 17 1 13-4 7-4 20-11 6-3 5-8 6-12-9-19-6-4-28-4-4-3-3-6-5-12"/><path fill="#116374" d="M287 289c22-8 27 17 12 28-4 3-7 4-10 4-8 1-11-3-15-5-2-5-4-8-2-10 4-8 10-12 15-16"/><path fill="#8C170D" d="M58 273c4 20 16 45 24 56 8 15 17 27 28 37-2-14 1-30-2-43-7-8-15-12-21-18 4 6 13 11 18 16-2 10 8 27 2 29-26-22-25-55-47-76"/><path fill="#F5855D" d="M301 228c-3 7 11 27-4 37 2 6 8 7 12 13-2-3-6-6 0-9 6 0 15-7 17-1 0-13-3-25-6-38-6-1-10-2-15-1"/><path fill="#FCD6AB" d="M253 239c-10 2-18 7-27 12-4 7-5 13-6 20 5 6 11 0 19-2 3 2-1 8 1 7 5-10 26-36 17-38"/><path fill="#0B586B" d="m289 290-2 1c-5 3-11 7-13 13-3 4-1 7 0 10 7 7 19 7 24 2 12-11 12-31-7-27"/><path fill="#13546A" d="M386 288c-11 10-8 22-15 34 3 2 5 4 7 5 11 1 20-4 22-12 1-13-4-20-13-23"/><path fill="#B54331" d="M124 230c-1 7 4-9 13 14 2 20 3 40 11 57 3 5 4 11 8 9 1-7 3-11 5-16-2-9-10-15-12-23-1-9-2-15-1-22-10-6-14-13-22-19"/><path fill="#88434C" d="M315 303c-2 5-3 10-5 15-5 6-9 10-15 12-7 2-12 2-18 1-7-6-12-7-15-12-1-1-4 0-4 2 17 7 3 17 15 22 3 1 15 5 24 2 4-2 9-2 11-5 1-13 7-15 6-37"/><path fill="#602036" d="M265 147c11 6 21 16 30 26-3 4-6-4-10-4 16 12 25 28 33 44 7 21 14 33 13 52 2 9 1 16 0 20-5 6-6-2-6 7 5 3 10 0 13-4-2 9-9 7-14 7 4 5 8 9 15 8 11-5 4-20 7-29-4-2-4-5-6-6-3 6 2 15-2 16-6-25-9-49-18-69-7-10-13-22-16-35-11-13-24-25-37-32"/><path fill="#F1C3A6" d="M121 177c-4 4-3 13-3 18 12 6 22 9 28 20-1-10 2-20-3-27-6-9-13-9-19-11"/><path fill="#721F27" d="M308 389c-6 3-10 7-11 14 10 5 23 1 31 7 9 3-2 8 1 13 2 4 3 5 5 5-6-8 4-7-1-28-4-13-35-5-25-12"/><path fill="#5B233A" d="M376 260c-4 12-13 17-14 35-7-4-1-15-3-22-2-5-4-5-5-3-1 18-3 34-8 48-4 8-11 13-17 18 10-10 7-1 12-6 8-10 9-19 11-28 4 4 8 2 12 3 5-4 7-7 11-9-4-1-8 4-11-1 3-1 6-1 8-4-5-10 4-18 3-30"/><path fill="#A85F63" d="M50 272c4 20 9 42 18 59 7 12 14 29 28 36-7-7-14-15-19-23 4-7 4-2 2-9-9-14-19-43-25-64"/><path fill="#FAC7B2" d="M341 232c10 5-5 19 8 26 3 6 10 4 14 7 5-4 2-8 2-11 3 3 5 6 4 10 3-5 4-10 0-15-4-6-11-10-16-12 3 3 9 9 9 12-8-6-13-12-20-16"/><path fill="#692129" d="M221 375c-1 1-4 2-5 5 1 6 2 14-1 19-4 5-7 0-8 1 1 3 3 5 6 6 7 3 16 1 19-2-1-25 1-13-8-31"/><path fill="#F38257" d="M248 279c-6 3-12 6-18 8-8-4-15 7-22 1 5 5 9 2 16 2 4 18-6 12-7 27 8-8 17-14 26-18 2 5 4 9 3 14 2-12-3-24 1-35"/><path fill="#A8616B" d="M120 238c-7 13-8 29-8 47 5 22 6 22 12 35 1 4 6 3 12 4-2 0-4 0-7-1-5-6-7-12-9-17 4-6 6 0 5-7 0-5-1-9-6-7 3-2 5-2 6-3-7-9-7-34-7-49"/><path fill="#EAB091" d="M228 184c-4 2-7 4-9 8 8 12 16 27 18 38 5-11 6-23 5-35 0 0 0 17-3 24-2-7 1-16-2-24-1-7-5-8-7-11"/><path fill="#8C3641" d="M205 136c-9 5 23 2 23 6 7 2 20 8 31 14-2-2-6-4-9-5 4-4 6 1 9-1 15 7 17 13 35 25-20-24-21-23-39-35-16 7-31-9-47-4"/><path fill="#6D1C2F" d="M270 403c2 7 10 6 9 14 1 5 3 9-1 10 6-1 11 6 16 5-1 6 1 10-4 11 1 9-2 15 3 21 2-3 6-20 14-34-20-2-22-21-35-25"/><path fill="#FCB07D" d="M297 229c-5-2 2 7-10 12 3 2 6 4 6 5-6 4-9 7-12 11 11 6 13 11 18 12 8-10 1-36 1-42"/><path fill="#26374A" d="M248 355c-4 3-7 8-12 9 1 7 3 11 6 15 8-1 15-4 21-8-4-16-4-7-13-16"/><path fill="#911E10" d="M209 228c-9 16-11 26-16 46 10 3 10-8 16-11 4-12 4-24-1-33"/><path fill="#E17E59" d="M216 209c-4 8-12 16-5 23 5 5 18 0 16 9 2-5 6-4 12-4l4-8c-2 1-6 2-7 4-6-7-6-15-9-18 2 5 6 12 5 19-6-9-7-17-15-22"/><path fill="#E97E53" d="M128 212c-2 5-3 10-5 14 10 8 15 17 25 22 1 5 0 8 1 12 0-4-1-7 0-10-1-7-2-12-3-17-8-6-7-18-16-20"/><path fill="#B34433" d="M69 281c5 13 15 32 21 47 5 7 11 11 14 14 1-2-2-12-3-17-19-12-19-31-28-43"/><path fill="#2A304B" d="M165 414c-25 10-9 16 7 24 6 1 13 5 17 2-5 1-11-2-15-2 2-2 2-7 3-10-2-5-4-8-8-11h-1l-1-2-1 1"/><path fill="#F4CFB4" d="M235 155c-4 3-7 6-9 10 3 14-11 13-11 26 10-8 18-10 24-21-3-6 1-13-2-16"/><path fill="#91282B" d="M353 302c-2 9-4 20-11 27 1 7 6 3 8 7 8-5 13-16 12-25-1-4-3-5-8-7"/><path fill="#FBA687" d="M208 288c2 4-8 8-10 8-1 11-2 22-2 31-1-9 12-13 17-14-4-9 6-21-5-23"/><path fill="#FCEBD1" d="M220 256c-4 3-8 5-12 8 3-2 5-3 7-6 2 12-6 20-8 26 13 4 25-4 36-7 9-17 4-10-2 1-7-3 2-4-1-6-7-2-9 4-16 2-3-3-4-1-8-1 1-7 1-11 3-15"/><path fill="#934851" d="M79 334c7 6-7 6 0 9 5 10 10 16 17 22-1 4-4 1-5 0 7 9 17 9 27 11-15-7-27-25-37-39"/><path fill="#A9646D" d="M42 343c6 14 15 28 22 42 8 11 17 21 22 21-26-24-10-31-42-63"/><path fill="#C74D31" d="M213 231c-9 40 6 26 27 7-9-2-8 0-11 4 0-9-12-4-16-7"/><path fill="#933F3D" d="M188 347c-10 3-11 11-11 19 1 4 7 7 11 10-4 5-3 7-9 9 5-2 7-4 9-8 0-6 4-5 5-10 0-14-1-10-4-18"/><path fill="#63202E" d="M139 357c-6 6-10 9-17 15-1 7-9 4-11 7-2 7-1 14 1 19 4 0 6 2 10 0-1 5-10 4-7 12-21 4-32-6-49 1 12 4 27 0 47-1 6 1 8 4 9 6 4-3 3-4 6-6-3-10-4-19-7-29 3 11-1 9 0 12-2 5-5 6-8 5-3-4-4-9-3-15 2-4 4-4 7-5 4 2 2 6 3 8-1-4 0-8 1-13 5-2 13-11 20-16"/><path fill="#5D1D29" d="M282 277c-9 2-17 11-19 19-4 10-1 19 3 25 5 5 8 8 12 9 7 1 11 1 16-1 13-4 18-16 20-26 4 1 5 16 3 38-1-14 5-24 1-35-2-11-5-18-8-25l-1-1c2 10-10-8-15-3 4 0 8 2 12 5 4 8 7 15 6 20 0 7-2 11-4 15-6 6-10 9-17 11-6-1-13 1-15-3-4-4-11-8-11-14-4-15 3-32 19-35"/><path fill="#992C25" d="M173 370c-3 5-11 1-15 4-1 4 1 7 4 13 7 2 14 0 17-4 4-5 0-13-5-12"/><path fill="#71232A" d="M270 377c-6 1-10 5-15 8l-1 2-1 1v2l-1 1c-1 4-1 10 1 12 6 2 8 5 11 5-8-10 10-14 6-18-3-5-4-6-5-7-6 1-9 9-12 9 1-18 39-12 19-16"/><path fill="#0B0513" d="M192 304c-1 12-1 23 1 33-1 5 0 9 0 12 1 9-1-6 5-3 2 6 4 12 6 16 0 5-6 10-8 1 0 7-4 11-5 15 3 5 11-6 17 4 1-6 3-10 6-14 5-2 8-1 10 0 8-7 19-7 25-16-11 10-27 15-41 15-6-7-7-13-9-20-2-6-3-10-4-14 0 2 2 11-2 7 0-13-1-23-2-33"/><path fill="#303B51" d="M303 369c-3 2-7 3-10 6 2 2-2 7 1 10 7 7 13-2 19 0 3-9-4-15-8-15"/><path fill="#A66068" d="M198 240c-2 4-7 0-8 3-4 17-9 31-10 47 1-6 2-16 11-13 4-21 2-17 7-35"/><path fill="#FACEA5" d="M191 278c0 8-10 14-12 14-9 17-6 11-11 29 11 4 4-12 14-8 5-8 1-21 11-35"/><path fill="#EE8965" d="M187 315c-3 10-12 13-18 20 4 4-1 15 4 19 10-9 12-27 12-36"/><path fill="#CE473B" d="M322 267c-5 2-11 0-15 4 7 8 5 19 12 23-3-9 12-18 4-28"/><path fill="#F0BA98" d="M123 183c4-1 9-1 11 1 8 6 9 12 11 18-6-2-12-3-18-5-6-4-4-8-4-12"/><path fill="#8C424E" d="M72 383c-11-5 6 15 16 23-4 3-17-12-8-2 11 8 22 6 33 5-8-5-8 1-18-6-10-6-17-14-23-22"/><path fill="#FAD0AB" d="M216 256c-15 28-7 7-21 29-1 12 1 23 0 35 0-8 1-16 1-23 4-1 7-5 11-6-4-9 8-16 8-30"/><path fill="#C4888A" d="M112 223c-3 21-4 44-1 64-1-9 2-21 0-32 5-6 6-10 7-17 2 0 1 3 2 4v-14c-3-1-4-4-5-3"/><path fill="#923C48" d="M60 349c4 14 14 29 35 46-1-6 2-9 0-13 0 0 1 2 0 5-9-13-29-21-34-38"/><path fill="#AB616A" d="M54 335c0 2 3 3 3 4 2 22-2 4 40 48-12-20-35-30-41-51"/><path fill="#BF888B" d="M196 221c-7 17-13 32-15 49 3-9 5-18 8-27 4-2 7-1 10-4 2-4 2-4 4-11 2-4-3-4-5-6"/><path fill="#BF3B2A" d="M167 358c-4 2-9-1-11 3-2 6-1 12 1 17-1-1 0-3-1-4 7-3 15-2 18-5-3-2-2-11-5-11"/><path fill="#FCD0A9" d="M286 230c-6 1-8 2-14 4 0 7 9 10 17 11-5 3-11 11-10 10 5-2 7-7 11-7 2-5-2-2-2-4 9-17 7-13 0-13"/><path fill="#7D4350" d="M216 323c-5 3-13 3-15 11-2 4-1 6 0 8 4 2 11-5 16-4 0-5-1-9-2-13"/><path fill="#AE5D60" d="M251 150c10 5 40 28 54 46-4-13-15-21-23-29-11-8-21-15-31-18"/><path fill="#CE503A" d="M244 300c-9 4-20 9-26 18 9 5 9-3 15-6s11 1 12 5c0-6 0-11-1-15"/><path fill="#F0B894" d="M124 183c-2 2 0 6-1 8 7 8 16 6 21 14-1-5-2-10-4-15-5-5-9-7-14-6"/><path fill="#8F282D" d="M349 293c-1 11-13 12-19 11 5 6 5 8 8 11-6 11-2 10 1 12 8-8 7-20 10-31"/><path fill="#E78161" d="M57 257c-1 5 0 9 1 13 12 13 8 12 17 13 1-10-9-17-17-24"/><path fill="#787586" d="M377 275c-2 28 0 0 2 18-4 4-6 5-9 7-1 14-8 28-5 38 5-14 8-27 14-44 0-3 2-4 1-6 2-9 3-6-3-8"/><path fill="#A01F14" d="M191 408c-5 5 5 8 6 15-4 0-6-3-8-6 6 6 4 14 7 21-2 2-5-3-6 3-3 8 7 3-2 18 4-7 7-14 9-20 7-7-1-15 4-15-1-7-6-11-9-14"/><path fill="#E8B098" d="M209 196c-6 5-7 13-11 19 3 5 8 6 9 10 1-1-3-4-4-6 6 5 5-12 12-14 5-2 4 2 7 3-3-4-6-7-10-10"/><path fill="#A75D61" d="M139 365c-5 3-9 6-14 9-1 5 3 5 1 8 24 4 3-5 21-5-4 0-5-8-7-12"/><path fill="#3B344C" d="M152 388c-4 3-6 7-2 11 3 0 0-3 2-4 2 7 2-2 5-1 2 6-4 12 2 14 7-2 13-3 16-2l-15-12c-4-2-7-2-5 2-4-4 0-6-1-6"/><path fill="#853C48" d="M128 325c9 9 14 16 27 17 2-6-5-7-9-12-10-6-14-3-13-6"/><path fill="#5E8F94" d="M240 314c-3 10-9-3-12 6 1 4 1 9 4 10 6 0 10-1 13-3 0-4 0-5 1-6 0 3-1 7-4 8 2-4 3-10-1-12"/><path fill="#8E1D18" d="M349 413c-2 5-12 10-10 1-1 4-4 6-5 8 3 1 4 0 5-1 6 2 4 5 2 7 5-3 13-5 8-11 6 3 5 8 7 10 8-6 1-15-4-13"/><path fill="#F9B58E" d="M330 230c4 11 11 19 15 30 3 5 7 3 10 4-7 0-9-7-11-11-3-7-3-13 1-16-4-5-9-4-14-6"/><path fill="#F37F63" d="M328 231c1 4 5 19 8 28 3 3 6 4 10 3-5-11-12-20-16-30"/><path fill="#EDC7BC" d="M50 234c-5 2-3 6-3 10 4-4 3-11 15-7 4 5 4 9 6 13-8-4-11-4-14-3 6 0 13 9 18 14-3-10-1 1-6-26-6 0-10-2-14-2"/><path fill="#9A1E16" d="M267 421c-7 4-1 9 4 10-3 1-6 0-8-3-3 7-3 13-1 17 3 1 5 1 6 0 1-5-1-10 5-12v-1h1v-2c-7 2-4-5-6-7"/><path fill="#EDC0B3" d="M48 253c-2 5 0 11 1 16 4 1 4 1 1 2 3-3 4-2 5 0 4-9-8-9 2-16 6 7 12 12 17 17 4 11 6 21 10 31l1 1v2l2 1 1 2c4 3 9 11 14 13-5-6-12-11-17-18-4-10-7-20-8-29-9-7-13-21-27-21"/><path fill="#77CDD1" d="M382 284c1 3 0 4-1 5 8-1 10 6 17 8 2 8 6 15 2 20 4-5 5-13 1-18-3-11-9-14-16-14"/><path fill="#934852" d="M128 301c-9 1-7 10 2 21 5 0 9 1 12 3-8-2-11-16-16-23"/><path fill="#E87B68" d="M157 344c0 5-3 9-3 13 5-1 11 2 14-1 1-3-1-6 0-11 0 7-5-3-8 2"/><path fill="#91201B" d="M322 386c-30 7-6 2 6 8 8 6 8 14 7 20 1-5 1-12-3-16 3-3 2-6 5-5 4-1 3 3 6 3-3-1-2-3-5-4-6-5-11-6-16-6"/><path fill="#7E3C46" d="M117 379c-2 1-5 0-5 3-3 7 1 12-2 16 1-4 5 3 10-3-1-6-2-10-1-16"/><path fill="#80464C" d="M220 322c-3 5 0 10 2 14 4-6 12 2 18-4-10 3-13-10-18-11"/><path fill="#B03128" d="M337 393c-7 3 2 17 0 21 7-5 5-9 5-14-2-6 0-4-3-6"/><path fill="#C2888B" d="M347 264c1 2 4 4 4 7-1-4 8-6 8-2 3 6 2 12 3 16 3-6 4-13 7-19-6 1-13-3-20-1"/><path fill="#EFAE84" d="M509 149c-43 13-4 1 27 2 11 3 21 3 30 7-5-5-12-6-20-7-15-1-27-1-39-1"/><path fill="#8F3F44" d="M269 379c-2 0-3 3-4 0-5 4-10 8-12 12v3l1-3c2-3 6-7 9-9 7 4 10 9 9 16 1-4-1-5 0-9 6-1 12 13 5-6-2-4-4-4-7-3"/><path fill="#640F11" d="M58 354c10 16 18 33 36 45-3-10-28-28-34-43"/><path fill="#DA8061" d="M495 153c-14 1-26 5-37 11-10 3-20 12-27 16 20-14 50-22 69-28"/><path fill="#EAB3A4" d="M53 237c-3 3-1 5-3 7 8 4 9-1 16 7-1-5-1-9-3-12-3-3-6-1-8-2"/><path fill="#E9AE93" d="M117 203c-3 8-2 7-4 17 16 5-3 6 8 6-8-6 2-6 2-20 1-1 3 0 5 1-3-1-6-2-8-3"/><path fill="#932927" d="M275 379c5 6 8 15 4 22 6-2 4-10 8-12 0-5-5-10-9-11"/><path fill="#F7AF8B" d="M269 257c3 6-4 5-4 6 3 0 8 4 10 6-7 7-10 17-17 16 0 5-4 7-3 8-1 5 0 8 0 11-1-4 0-6 1-8 7-9 13-20 23-25-5-5-6-9-9-12"/><path fill="#3C2E4B" d="M145 394c-3 4 1 10-5 13 4 5 6 6 9 7 0-5 3-9 7-3-6-6-9-11-11-15"/><path fill="#FBEEDA" d="M273 235c-19 9 2-1 4 19 5-3 5-7 11-6-9-3-14-7-18-12"/><path fill="#4D192B" d="M131 418c7 2 14 11 20 13-9 2-15-4-22-10"/><path fill="#73738B" d="M325 246c6 13-1 29 2 41 5-7 4-29 0-39"/><path fill="#C9513D" d="M252 271c-2 2-15 10-20 14 5-2 11-3 16-7 0 7-1 13 0 21 4-8 3-18 5-26"/><path fill="#9D1D17" d="M144 385c-6 13-2 19-17 33-13 1-18 10-28 6 1 1 3 0 4 1 0 3 0 8-3 13 3-4 3-8 5-11 7-5 15-4 19-6 12-7 12-18 17-18 2-7 1-10 4-16"/><path fill="#492644" d="M258 416c-13-1-3 3-22 1-1 3 2 5 4 6 10-3 28-3 19-7"/><path fill="#34131C" d="M265 297c0 5-2 8 0 12 3 9 9 15 13 16 9 2 15 3 21-2 7-3 9-8 11-12l1-2-1 2c-4 9-16 15-23 14-9-1-13-4-17-9-3-4-6-11-6-16"/><path fill="#E17E58" d="M196 129c-38 7 12 5 33 7-7-2-16-2-24-4-5-4 3-2 4-3-3 1-8 0-12 0"/><path fill="#1C1226" d="M197 347c-5 0-1 5-3 8 1 8 2 8 6 13 5-8-2-16-2-21"/><path fill="#894148" d="M356 430c2 7-2 15 2 20 2-4 9-6 5-16-1-2-2-1-7-2"/><path fill="#C34737" d="M189 136c-11 1-22 3-32 6-6 1-9 2-12 3l-1 1-3 1c-6 2-18 7-18 11 5-4 12-8 18-11 3 3 1 5 2 8 1-3 0-6 0-9 11-9 84-8 49-11"/><path fill="#4C1530" d="M237 421c-1 3-2 6-4 9 2 1 1 4 4 5 3-4 8-5 8-8-4-2-5-5-7-5"/><path fill="#F0C7B2" d="M124 205c1 2-6 20-5 17 5 3 5-6 9-12 12 2 10 18 20 18-11-8-10-21-23-20"/><path fill="#A31D12" d="M207 385c-3 6-6 7-12 5 7 2-4 10-6 12 6 9 10-16 16-5 3-5 2-5 4-10"/><path fill="#BB4F42" d="M189 290c-3 19-2 48-8 59 2-2 6-1 6-4 1-17-1-37 2-54"/><path fill="#F9E9D4" d="m265 268-2 1c-2 4-4 7-6 11 6 0 18-12 11-12"/><path fill="#864554" d="M144 378c-5 7-14 5-19 3 0 4 6 9 5 14 9 0-1-6 13-15 1 4 2 3 4 4-1 3-2-6-2-5"/><path fill="#F9AA84" d="M221 290c0 3-3 0-4 2v20c7-10 4-7 6-23"/><path fill="#FAB283" d="M261 241c-2 3-1 8-4 16 9 3 20-20 7-8-3-4-5-6-2-7"/><path fill="#F69C86" d="M164 328c-4 5-6 10-7 17 2 1 6-1 10 1-3-13-7-13-1-16"/><path fill="#8B303A" d="m286 266 24 18c-1-10-15-14-22-17"/><path fill="#B35D5E" d="M215 318c-4 4-11 3-15 7-2 4-1 8-1 11 0-9 14-10 16-16"/><path fill="#EBAD90" d="M146 197c2 7 2 18 1 24-7-3-9-10-16-12 10 3 9 16 18 18-3 2-6 0-8-2 7 4 7 11 8 19 0-32 6 4 4-15-2-3-4-2-5-3 2-11 0-20-1-28"/><path fill="#C5868A" d="M38 331c-3 12 15 0 22 14-4-6-7-14-20-14"/><path fill="#C04E4A" d="M289 269c-3 4-8 4-13 6-9 6-14 14-16 22 2-8 9-16 17-19 5-7 27 2 14-7"/><path fill="#EDC6B5" d="M215 204c-5 14-15 16-8 20 3-6 5-11 8-16 8 5 12 11 13 17 1-7-5-13-10-19"/><path fill="#672337" d="M463 166c-4 7-14 4-24 12-11 6-21 14-29 23 15-16 39-27 58-35"/><path fill="#9F5961" d="M321 315c-1 7-1 18 0 22 1-5 5-7 7-10-7-1-3-8-6-9"/><path fill="#B44E49" d="M276 253c0 2-2 5-1 9 1 3 5 6 9 8 8-2-5-7-7-16"/><path fill="#F3895E" d="M269 249c0 8-8 8-13 9 1 3-1 6 0 10 9-4 10-9 12-17"/><path fill="#742832" d="M368 448c-14-3-8 5 2 11 1-3-1-4-1-7 4 0 5 3 7 3-3-2-6-5-9-6"/><path fill="#E88473" d="M214 313c-5 2-19 5-16 15-1-10 16-4 16-13"/><path fill="#561A2A" d="m131 418-2 1c-5 4-5 4 0 0 6 7 13 12 20 14-4-4-11-10-17-14"/><path fill="#872425" d="M220 375c-10 5-7 17-11 25 13-4 0-20 11-25"/><path fill="#DF7B67" d="M274 250c2 3-3 4-3 6 3 6 4 10 9 13-6 6-12 11-16 16-2 5-4 7-7 8-2 9-2 14-1 20 0-9 4-17 7-26 6-7 12-13 18-15-3-5-7-8-9-12 0-11 9 0 2-8"/><path fill="#E9B6A9" d="M47 254c6 0 6 8 7 13-7 1-6-6-7-10"/><path fill="#85454B" d="M248 298c2 12-5 29 1 35 1-10-2-21 1-32"/><path fill="#852F40" d="M511 154c-2 1-5 0-6 1-5 0-8 0-9 2-18 1-28 8-30 8 3 1 16-7 27-8 3-2 85-2 15-4"/><path fill="#B86662" d="M444 170c-14 9-31 22-43 36 17-16 28-24 43-36"/><path fill="#7F3743" d="M370 453c2 3 1 5 1 8 5 1 8 0 11-1-4-4-9-4-9-7"/><path fill="#621822" d="M146 341c2 1 3 2 5 2-7 13 2 15-3 32 9 2-2-24 7-32-3-1-5 0-7-1"/><path fill="#B26A6D" d="M269 408c-10 9 3 4 1 11 2-1 6-3 7-3-2-3-1-3-7-7"/><path fill="#0B0616" d="M162 392c4 5 9 9 15 12 2-2 4-3 5-5-7 2-12-3-19-6"/><path fill="#91444A" d="M306 193c-11-5 19 27 17 46-1-17-10-36-18-46"/><path fill="#3E1733" d="M236 418c-1 9-11 16-4 26 5-15-7-8 5-25"/><path fill="#8C3340" d="M337 263c-1 12 2 0 9 9 0 9 1 18 1 24-1-8 0-18 1-26-2-7-7-5-9-5"/><path fill="#2C0B0F" d="M263 266c-3 1-6 3-9 5 1 7-4 11 0 15 2-7 5-15 7-19"/><path fill="#BD3F42" d="M188 446c-4 5-2 12-7 16 6-3 11-10 8-15"/><path fill="#FAD0AF" d="M267 265c-6 2 2 1 4 3-2 12-17 11-16 21 4-6 13-7 17-18 1-4-2-4-3-5"/><path fill="#AE4544" d="M277 417c-3 2-6 2-8 4-1 2 3 4 1 7 5-1 7-4 6-11"/><path fill="#FBEDD6" d="M117 153c-10 5-1 3-9 11 4-3 25-15 8-9"/><path fill="#BB4F3E" d="M202 131c11 2 22 1 31 6-7-6-18-7-28-6"/><path fill="#81B8C9" d="M377 265c-1 4-2 12 2 15 3-4 1-10 0-14"/><path fill="#BAE8E5" d="M276 283c2-2 5-1 6 2 1 8-9 5-7 0"/><path fill="#B4150B" d="M267 460c2 4 10 8 16 9-4-3-8-7-14-9"/><path fill="#822428" d="M270 394c-5 2-8 9-2 10 3-2 4-5 4-8"/><path fill="#FAEBD4" d="M185 307c-4 6-11 17-19 22 8-2 11-9 16-12 1-5 3-6 2-10"/><path fill="#3D586E" d="M306 372c5-1 9 7 9 11-6 0-4-6-7-8"/><path fill="#F9D0B4" d="M198 379c-1 3-3 5-4 8 5 1 13-4 6-8"/><path fill="#513552" d="M126 386c5 7 5 12 3 20 4-3 7-5 6-10-1-6-6 3-8-10"/><path fill="#70282C" d="M171 353c0 9 5 16 11 22 0 5 0 9-5 11 4-3 6-5 9-8-7-5-13-14-15-23"/><path fill="#F7B588" d="M175 132c-5 1-9 3-15 2 9 1 37 4 17-3"/><path fill="#ED7356" d="M260 244c-5 8-10 20-11 28 3-11 7-19 10-26"/><path fill="#531E32" d="M162 440c3 3 15 3 21 1-5 0-12-3-19-1"/><path fill="#20283F" d="M232 368c4 1 5 10 10 13-5-2-9-6-10-10"/><path fill="#80BAC9" d="M362 331c-4 8-5 16-10 24 1-1 3-3 5-4 2-7 4-12 3-19"/><path fill="#AD160B" d="M383 461c-3 5 10 8 13 6-4-1-7-3-10-5"/><path fill="#9D5962" d="M260 324c1 7 0 4 5 12 8-1-1-7-2-10"/><path fill="#EFC8BB" d="M141 359c-4 3-10 9-14 12 3 0 8-5 11-8 4 2 5 5 6 7-1-3-1-7-2-10"/><path fill="#FBC49C" d="M284 230c5-1 3 6 0 7-3-2-3-4-5-3 1-2 2-4 4-3"/><path fill="#EFC5AD" d="M235 188c6 8 5 20 3 30 2-9 5-22 0-31"/><path fill="#F5ECEA" d="M58 249c13 12-7 1 10 15-2-1 4-4 4-1-4-15-1 1-12-13"/><path fill="#FBCCA0" d="M267 241c-3 0-7 1-5 5 7 2 8-3 7-6"/><path fill="#E8AFA0" d="M48 255c1 4 0 11 3 13 2-5 1-9 0-12"/><path fill="#B26F61" d="M264 453c-1 9 15 2 19 13-5-5-10-11-16-13"/></svg>