<svg xmlns="http://www.w3.org/2000/svg" width="600" height="600"><path fill="#60798B" d="M259 118c1-1 3 0 4-1 16 13 29 28 42 43 15 25 22 50 32 74 26 2 48 6 69 11 30 6 55 17 81 28 14 8 25 15 37 22-3 4-10-5-15-6 11 6 22 15 32 26 15 3 8 23 11 15-7 21-22 31-34 42-16 5-27-4-42 1 4 8 11 5 13 11 0 6 5 9 3 15-7 11-17 18-26 25-8 6-17 6-24 9-1 8-1 15-3 22-2-8 0-14-1-23l2-1h1l1-2c13 0 24-5 32-15-6 6-13 10-20 12-13 2-24 2-34 0 5 3 26-1 24 4-5 0-6 2-7 2-19 2-35 6-51 8 17-1 33-4 48-8 4 12 3 23 5 34-3 6-3 12-6 14-13 0-21-7-31-11-6-10-3-4-29-30 4 4 8 7 9 11-5-3-7-7-11-8-11 1-21-2-33 0-6 7-14 14-20 18-11 5-19 11-28 12 1-10 7-19 12-28 5-3 9-8 16-6-19 1-15-3-28-6-10 3-17 2-42 18-12 0-18 5-57 8 15-18 32-35 50-52-2 1-3 2-4 4-2-3 1-4 1-5-11-8-18-14-26-19-8 2-13 5-21 4-3-5 4-9 4-14-2-4-6-3-7-6-12 6-20 17-32 18 0-10 5-19 7-29-9-4-18-8-27-10-6 16-16 31-27 42-13 13-24 24-38 28 3-16 12-29 7-46 8-14 16-26 23-39-12-11-20-17-30-28-45-62-17-64 43-25 9 7 17 21 23 36 12-1 22-2 32-5 0-11 4-24 1-35 12 4 17 16 21 25 5-1 9-2 11-5-1-12-1-29-11-41 13 0 21 2 27 7 9 3 12 8 16 13 6-2 11-5 14-8 10-16 15-32 15-50 2-34-4-64-5-95"/><path fill="#528CB0" d="M334 270c-43 16-41 27-26 33 0-9 4-14 9-17 3 3-6 11 3 11 15 5 44 7 76 18 7-4 17-12 20-8 5-1 18 15 19 26 7 1 12 2 15 5 16 3 23-4 34-11 16-3 31-3 46-5 2-3 3-3 5-5-16-15-48-36-73-46-7 0-11 1-13 6-4 6-6 10-7 15 12 13 16 5 27 10 17 8 3 21 12 22-14-2-5 5-20 1-24-7-44-26-66-29-29 5-36 2-51-2-2-8 12-10 19-22-11 18-32 0-41 14-1-4 7-10 10-10-1-1-2-3-1-4"/><path fill="#99DEE9" d="M337 238c-14 5-28 10-41 15-16 10-31 17-41 32-4 6-8 10-9 14 0 9 9 10 2 17 7 6 13 6 20 8-5-8-10-15-18-20 7-1 11-3 16-2 3-5 5-9 9-11 4 3 5 7 7 10 9-18 40-22 52-37-5-1-8-1-12 1-3-7 1-5-12-6 73 0 160-10 13-22"/><path fill="#A0E3ED" d="M403 257c-6 1-11 2-16 4 0 2 2 2 4 4-3 4-8 3-2 5-7 1-13 2-16 0-1-4 2-3-3-4-39 28-18 33 30 27 25 9 46 31 74 31-4-3-9 0-11-4 4-4 7 2 3-5-4 6-9-1-13 2-5-3-5-7-2-8 4-2 7-5 10-3-5-8-17-2-21-13 2-10 7-21 16-24-7-3-15-7-24-9-11-2-19-3-27-4"/><path fill="#605F64" d="M363 393c-7 7-11 8-17 12-8 4-11 1-14 1-2 0-6-3-7-7-8 8-10 8-2 2 3 8 11 6 14 11 4 6-12 12-3 15-4 2-8 0-12 2 3 5-2 2 2 6 7 3 54 3 69 1 17-3 32-3 44-7-11 1-20-2-31-3-10-3-18-7-26-11 14 5 27 8 40 10 13 3 23 1 33-1 13-5 27-16 35-27-3-4-8-1-11-2-6 1-11 0-15 0 5 1 8 0 12 0 4 4 9 3 6 7-26 9-55 2-74 15-21-4-30-16-41-22"/><path fill="#335473" d="M339 305c0 10 1 12 4 27-5 17-15 22-2 51 2-7 2-12 4-17 3-5 18-13 20-17 5-2 4 2 6 3 1 5 3 2 3 4l-1-1v-3c4 3 7-1 10-4 16-5 25 9 38 6 11-2 17-11 24-10 22 6 34-7 55 0-27-4-60-1-86 1-3-2-13-5-13-12-4-6-1-11-2-15-19-7-38-12-59-13"/><path fill="#34394E" d="M85 313c2 3 5 5 8 7 13 9 8 11 10 12-7 15-15 28-22 40 5 18-5 31-9 44 11-4 20-13 30-21 17-17 23-35 31-49-7-2-13-5-19-8 26 1 27 0 45 3 11-6-10-12-40-13-8-1-11-11-14-10-6-1-5 1-11 2-3-2-6-2-7-5"/><path fill="#5E5D63" d="M247 316c-7 15 14 22 15 34 1 15-3 25-7 35-7-3-5-10-16-18-6 3-7 9-12 12-9-10-8-18-15-28 2 6 11 13 3 16-6-1-8-5-10-8-7-1-10 1-14 2-8-6-8-4-9-10-1 2-7-1-9 3-6-4-13-11-21-11-13-3-24-4-34-6 4 6 15 5 16 10 13-1 33 11 37 10 15 6 28 16 36 21 4 3 6 5 9 7 1-2-5-4-7-6 1-3 2-1 3-1 12 5 21 15 31 20 22-9 47-25 38-54-5 7-6-13-10-16-9-4-17-4-23-9"/><path fill="#D2D6D7" d="M389 352c0 1-9 6-10 9-5-2-8-4-10-8-5 0-7 1-9 2-13 7-14 20-16 29-5-2-4-4-7-5-3 0 1 10-5 7-7-7-11-10-11-16 2 13 2 22 8 33 4 4 9-2 13 3 9-5 13-13 23-14 10 7 19 15 29 21 37-2 29-5-2-21-1-6-2-13-7-17 1-4-14 1-22-5 25-3 21-6 44-10 3 0-7-4-8-6-7 1-4-4-8-1"/><path fill="#2B364C" d="M247 311c-11 3-19 6-30 10-2 2-3 4-2 6-2-4-3-9 0-11-5 3-7 7-10 12s-3 11-1 14c-5 0-7-1-9-2-7-2-4-8-4-9-10 1-13 0-20 2 1-1 4 11 8 14-5-9 18-1 16-6 2 0 4 1 6 2 3 3 5 0 5 2 2-2 1-4 2-5-1 14 7-6 4 10 4-4 16 1 22-3 3 2 3 5 5 8-3-2 2-4 0-4 25 0 13-17 6-21 0-7-1-14 3-18"/><path fill="#345777" d="M318 301c3 27-10 32-12 56 1 12-1 23 6 31-3 4-6 5-9 4-4-1-5-8-6-3-4-7-9-11-14-14-8 7-18 18-24 19-5 3 0 6 0 9 7 2 7 2 2 1-3-2-3-6-2-7 3 5 16-2 20-1 5-3 10-5 15-8 4-2 6 3 8 3l1 2h1l2 1h1c3-2 6-6 8-5 3-9-1-27 4-41 1-7 3-11 4-16 6-7 6 2 1 18 1-8 5-12 10-17 2-12 8-38-16-29"/><path fill="#588AAE" d="M264 166c1 5 2 11 3 16 5 0 9 5 14 10 7 12 10 24 14 35 12 0 16 4 22 5 7 0 11-1 13-2 2 1 3 2 3 4 0-2-1-3-2-4-4-9-7-17-16-39 4 6 0 5-1 6-6-2-13-2-17-6 3 4 4 10 6 14-5-6-6-12-9-19-5 4-10-5-12-3-9-5-6-16-15-17"/><path fill="#66656A" d="M522 333c-2 2-6 0-9 3 4 5 4 10 7 16-53 2-99 9-144 17 49 3 103-14 148-7 12-7 33-30-1-30"/><path fill="#1E2639" d="M245 328c2 4 5 10 10 13 3 6-1 4-3 7-21 7-15-6-31 3-23-21 8 24 4 25 7-5 12-11 12-18-4 8 16 15 16 24l1 3 1-3c2-15 7-10 5-34 0-8-11-11-14-18"/><path fill="#37526F" d="M317 287c-6 3-6 9-5 15-22-2 1 3-26 9 0 8 4 8 6 17 2-1 7-6 9-2-3 5-8 28-6 43 0 7 4 8 8 8-7-37 21-52 8-90"/><path fill="#3D506D" d="M267 193c-1 5-1 11-1 17 2 17-3 32-5 45 11-7 7-3 17-11 10-1 13-5 18-6-3 2-3-18-9-26-4-2-14-3-18 0-1-7-2-12-3-17"/><path fill="#508DB1" d="M245 410c-22 23-18 25-8 40 18-4 20-25 49-27-4-5-5-5-7-8-5 1-10 3-14 3-10 1-6-1-14-3-3 0-16 6-16 14-2-8 11-20 12-17"/><path fill="#EEF2F4" d="M383 374c14 5 1 19 22 23 7 4 8 9 18 10-4 3-8 4-12 6 18-12 46-4 66-12-16-8-38-1-54-8-16-3-27-12-38-19"/><path fill="#AEEAF4" d="M263 120c-1 15 0 30 2 43 7 5 14 8 21 0 2 4 4 7 4 10 0-3-2-6-3-8 10-8 12 0 10-8-10-10-21-23-32-35"/><path fill="#47769B" d="M287 256c-28 8-53 29-94 53-16 7-39 12-58 14 6 0 9-2 17-1-14 3-10 5-13 7 6 0 7-2 14-1 11-10 25-10 37-13 18-8 37-24 56-31 0 5-6 6-10 12-5 3-7 5-9 8 2-3 4-4 7-6-4 7 6-3 8-1 3 3 1 3 2 6 1-10 6-14 12-23 10-11 21-17 31-24"/><path fill="#588AB0" d="M93 287c-8 6 15 25 18 35 31 13 29-3 47 2-21-4-14 0-29-2-4-4 3-1 4-4-5-13-7-15-11-21-5-2-13-3-18-4 1 2 4 4 5 6-7-3-10-9-12-9"/><path fill="#2E1820" d="M466 365c-4 1-10 0-13 2s-7 5-9 8c-6-1-5-3-7-6l-1-1 2 1c-10-1-6 2-18 3-14-2-13 1-31 2 5 1 9 9 13 7 6-3 13-6 16-9 6 1 0 5 2 8 13 6 21-5 47 9 2 0-4 2-5 5 2-4 9-7 10-9 19 18-9-14-3-18"/><path fill="#131929" d="M436 433c-15 2-30 8-46 6 10 9 20 16 30 23 7 2 10-1 13-3 6 15 2-18 4-23"/><path fill="#6DA8C8" d="M298 159c-11 7-13 7-25 11 3 6 5 8 8 11 3 0 11 8 13 6 3 3 6 14 8 19-2-3-2-8-4-11 6-3 16 4 19-1-3-6-8-16-18-35"/><path fill="#9BDCE7" d="M244 285c-28 18-56 36-90 41 13 6 21 2 28-4 4 1 3 4 5 5 5 0 11 1 15-1 13-16 26-24 40-39"/><path fill="#3D6E92" d="M318 380c0 10-4 9-11 15-8-2-10-10-16-12 1 1 7 3 5 5-9 7-26 11-33 12-3-7-3-1-8-2 8-6 14-9 20-14-6 5-12 8-18 12 0 3 1 7 4 9 16-3 43 4 51 0 12-11 9-6 7-23"/><path fill="#EBEEEF" d="m511 337-15 9c-20-10-30 11-47-2-10 4-16 13-21 15 23-11 87 1 89-18"/><path fill="#474449" d="M324 401c-18 19-16 16-42 31 10-2 9-3 12-5 13 3 26 6 38 9-7 0-8-3-12-6 4-2 10-4 12-1 2-7 9-20-11-26"/><path fill="#A4E5EF" d="M252 399c-19 10-3 12 6 16 11 2 13-3 22-2 2 4 5 4 4 7 11 1 15-2 24-10-13 3-29-7-42-2-7-1-9-5-12-8"/><path fill="#21293C" d="M155 333c7 2 6 5 9 9-22 2 43 16 50 23 1-10-7-15-5-25 0 2-1 4 0 6-7-2-12-4-16-7 1 0 4 3 2 3-11 2-10-1-14 3-3-1 0-3-4-4 1 1 1 3 3 5-5-3-7-7-9-10 2 4 1 4-3 4-1-3-8-4-10-6"/><path fill="#44516F" d="M72 287c0 4-2 11 1 14 8 12 14 12 19 19 4-2 10-5 14-3-7-9-12-19-19-29-6 0-11 2-14 1"/><path fill="#403F47" d="M384 440c-15 4 24 28 31 31 2-1 2-3 3-5 7-2 13 0 16-5-2-2-6 4-12 2-11-6-20-14-30-21l-2-2h-1v1"/><path fill="#192437" d="M241 404c-15 17-38 41-53 56 14-5 21-4 30-6 4-18 12-33 22-48"/><path fill="#293B52" d="M337 304c-1 8 0 16 0 21-1 10-12 15-11 26-2-6-1-11 1-15-4 8-4 19-5 27 2 9 1 10 11 20 4-8-6-16-2-27-1-13 9-12 9-23 0-10-2-18-4-26"/><path fill="#49799D" d="M298 226c-7 4 1 17 3 23 11-4 23-7 33-12-3-3-1-7-4-7-1 3-6 2-10 5-8-6-12-3-19-8"/><path fill="#324159" d="M266 219c-2 22-8 35-12 46 9-3 30-10 42-15 4-27-22 4-31 2-5-7 2-18 0-30"/><path fill="#427195" d="M484 327c-5 5-12 8-17 12-14 3-23-4-33-5 2 3-1 5-3 5-7 5-11 3-17 5 21-2 54-5 81-3 23-6 3-8-9-13"/><path fill="#526D8E" d="M265 179c1 10 4 20 3 32 4-2 17-2 20-1-2-12-13-28-24-28"/><path fill="#1B2535" d="M296 333c0 13-9 9-10 16-2-1-2-2-1-3-3 7-2 14-1 23v3h-3c0 4-9 8-12 14 5-6 7-7 13-13 7 3 14 15 15 8 0-4-3-6-3-9 0-17-3-26 3-36"/><path fill="#2D3A4F" d="M284 312c3 8-2 6-5 10-16-9 4 33 5 22 5 1 13-7 15-19-2 2-5 2-7 4-1-3-3-3-2-6 1 13-7 12-2 18-12-8 7-18-5-26"/><path fill="#6EAFCB" d="M378 256c-14 1-18 3-30 5 4-1 8 5 13 5-7 9-17 15-27 10 14-5-3-6 8-12-6 2-7 4-10 3-1 6 0 7 3 7v3l-1 1c3 3 7 3 12 2 6-2 12-5 15-8 1 1 1 2 2 4-1-2-1-3 0-4 1-2 0-4 0-5 19-7 24-7 14-12"/><path fill="#AAE2EF" d="M84 270c-19-1-1 10 3 16 6 0 12 0 13-6-1-7-6-5-12-10l-2-1h-1v1"/><path fill="#928B92" d="M332 442c-3 4-9 3-14 4-10 9-23 22-30 24 9 2 16-5 24-7 7-9 16-9 20-20"/><path fill="#3C5470" d="M285 301c-1 3 0 7-4 9-4 1-7 3-9 1-4-3-8-8-1-8-6 1-12-1-16 2 7 6 14 15 15 17 12 2 16-7 15-21"/><path fill="#78AECC" d="M196 258c5 1 22 15 26 26 5 0 7-3 9-4-3-7-8-12-12-14-7-5-15-7-21-8"/><path fill="#63A8C6" d="M296 420c-15 3-26 10-37 13-13 4 0 11-11 12 25-7 32-17 47-24"/><path fill="#61718F" d="M59 267c-2 4 8 14 11 20 8 0 13 1 18 1-8-5-17-20-28-21"/><path fill="#6B9DC0" d="M104 278c-13 17-14 4 5 22-4-4-5-8 0-7 7 3 11-2 16 8-5-9-13-17-20-23"/><path fill="#7DA9CA" d="M45 254c9 6 19 10 27 18 4-3 10-3 14-4-12-6-25-11-38-15"/><path fill="#528AAD" d="M235 294c-2 8-13 13-12 16-5 5-7 7-10 9 2 1 4-5 8-6 13-1 17-1 24-5-5-9 1-15-11-7 1-4 4-4-1-4"/><path fill="#9AD9EA" d="M346 262c-2 0-3 1-4 2 2 2-9 3-2 7-7 5-13 9-19 13 11-7 56-13 25-24"/><path fill="#1E2738" d="M522 325c-2 2-6 0-8 1 20-1-2 3 9 3-22 8-2 1 10 3 4 1 11 3 13 7l-2 2 1-2c-1-4 4-5 4-10-8-5-17-5-26-4"/><path fill="#44799E" d="M241 412c-9 16-12 19-22 38 6 0 14-1 18-2-7 1-4-4-7-8 0-12 4-13 12-22 31 5 16-5-5-5"/><path fill="#6DAECA" d="M457 300c3 4 10 11 12 19 2 0 3 3 4 3 0 3 5 2 6 3-1 0-2-2-4-1 4-6 3-8 1-12-4-8-10-12-16-11"/><path fill="#693727" d="M426 322c3 9-7 7-10 15-8-5-4-12-13-13-3 6 2 10 1 14-2-5 15 7 17-1 4-2 8-8 5-13"/><path fill="#4B2A39" d="M435 382c2 2-2 10 2 10 11 0 10-4 16-7 5 2 4 5 5 8 4 0 5-3 8-4-9-1-16-10-29-7"/><path fill="#2D3C54" d="M476 276c18 8 39 24 54 32-12-14-41-33-51-30"/><path fill="#1D2436" d="M165 356c1 7-5 20-8 27 10-10 32-23 7-25"/><path fill="#E4FAFA" d="M339 257c-8 1-15 1-26 2 12 1 2 8 23 2-1 4-3 4-5 5l-1 2 1-1c14-8 46-13 8-10"/><path fill="#2B3C52" d="M442 345c-7 2-12 8-18 10-11 1-18-3-25-6-4-1-5-1-6-1-9-2-13 6-19 6 1 2 2 4 4 2 6-6 10-5 13-8 11 3 21 13 34 9 9-3 13-12 17-10"/><path fill="#253952" d="M306 352c-3 10-1 15-1 23-9-1-5 8-10 9 3 1 4 4 6 7 5 1 7 0 8-1 0-5-2-9-3-12 1-10-3-17 0-23"/><path fill="#908B8E" d="M206 376c-2-1-1 4-1 1 2 4 6-2 7 5-23 9-17 9 0 0h1c9 6 11 10 24 17 2 1 5 4 6 3-11-8-22-24-35-25"/><path fill="#5B6C8B" d="M202 274c1 5 0 12 4 12 8-1 12 2 15 1-6-19-3 2-18-12"/><path fill="#3B506C" d="M434 257c28 14 54 23 56 26-12-13-46-23-52-25"/><path fill="#6E85A5" d="M197 258c8 3 2 14 10 18 6 5 9 3 11 4 1-3-11-16-20-20"/><path fill="#E5FBFB" d="M458 306c-18 7 1 12 6 10 2-4-3-5-3-9"/><path fill="#27384E" d="M510 326c-36 2-5 1 2 9 1-1 3-5 12-5-10-5 6-2-18-5"/><path fill="#EAFBFB" d="M384 262c-5 2-10 1-14 4-1 7 28 7 16-5"/><path fill="#20222F" d="M320 438c-5 2-11-2-13 5-4 3-6 6-9 10 6-6 21-8 23-15"/><path fill="#5F616A" d="M203 328c-5 1-12 0-11 8 4 2 6 5 9 6 1-5 0-9 2-12"/><path fill="#3D3D3E" d="M525 297c9 4 17 17 26 22 5 4 3 8 4 10-3-12-20-18-28-29"/><path fill="#5F718C" d="M173 284c-1 6 1 9 0 13 4 3 6 11 10 9-2-8-5-15-9-21"/><path fill="#77AAC8" d="M173 279c5 9 9 18 12 27 6-2 1-8-1-14-2-5-6-8-10-11"/><path fill="#60606A" d="M434 462c-4 7-16-1-16 10 4 2 10 6 7 7 5-1-4-4 1-8 5-9 12-2 9-7"/><path fill="#497495" d="M178 366c-4 6-12 11-17 16 6 0 28-15 18-13"/><path fill="#3E3B48" d="M322 439c-6 8-16 8-24 15-2 4-5 7-6 11 11-6 23-20 33-27"/><path fill="#52708B" d="M274 303c-12 1-1 9 5 7 4-2 4-4 5-6-12 4-3-4-8-1"/><path fill="#070405" d="m421 313-2 1c-2 3-4 6-5 8 0 5-2 10 0 12 5-7 4-14 6-20 5-1 5 3 7 5 3 9 1 17-5 21 4-3 6-8 7-12 1 1 4 3 4 4-3-7-4-14-11-19"/><path fill="#3D3E3D" d="M234 408c0 7-18 19-24 27 4-8 13-15 20-24"/><path fill="#F3FAFB" d="M276 291c-5 2-6 6-8 10 4 1 8 1 11-1 0-2-1-5-2-7"/><path fill="#D7F7FA" d="M415 290c4-1 10-1 13 1-2 6-10 5-14 2"/><path fill="#67626B" d="m322 442-2 1-1 1-3 1c-8 12-25 16-26 23-2 3 15-13 27-22 8 0 25-8 6-5"/><path fill="#6BABC7" d="M295 289c-10 18 1 10 9 12-4-5-5-4-9-9"/><path fill="#858790" d="M433 466c-3 3-8 4-7 10 7 4 8-6 9-9"/><path fill="#5B5E68" d="M156 331c-2 2 10 5 13 7 1-2 0-4 1-7-4-1-8-1-12-1"/><path fill="#4C6B89" d="M288 301c-6 17-2 10 15 1-7 0-12 0-15 3"/><path fill="#47536D" d="M174 303c-9 1 0 14 8 5 1 2-4-3-6-6"/><path fill="#F6C88C" d="M412 312c0 1-6 1-4 4 1 2 3 2 5 3 2-2 10-9 1-7"/><path fill="#3B4457" d="M227 316c3 3 0 17 4 22-4-4-5-11-4-19"/><path fill="#8A4C35" d="M405 316c-8 10 10 7 6 17 1-4 0-8 2-10-3-3-6-2-7-5"/><path fill="#1A222E" d="M525 298c7 13-4 6 19 20-3-7-12-9-18-17"/><path fill="#E7FBFC" d="M416 291c-4 4 9 5 11 2 0-4-5-2-8-3"/><path fill="#4C718E" d="M415 254c-15 2 14 2 19 5-1-2-7-4-17-6"/><path fill="#69A8C4" d="M535 314c1 4-2 6-2 7 3 1 6 1 9 2-3-3 0-6-6-7"/><path fill="#4B5B79" d="M208 286c-3 8 6 9 10 2-3 0-5-1-9 0"/><path fill="#5B90AD" d="M398 254c2 6-16-1-20 3-2 5 52-6 20-2"/><path fill="#21344E" d="M238 409c-2 7-7 13-12 20 2 5 9-13 13-18"/></svg>