<svg xmlns="http://www.w3.org/2000/svg" width="600" height="600"><path fill="#806B57" d="m344 99 1-1c14-1 28 0 39 4 54 18 47 35 67 81 1 35-1 69-7 99 4-12 4-29 7-44 9 12 18 25 24 38 11 21 20 41 25 62 3 34-3 78 1 96-9 4-16 3-22 5 13-2 28 0 40 5 16 7 28 16 35 29-22-7-28 7-47-2 0 2 4 2 2 5-31 0-76-2-97-1-7-3 2-3 3-3 9-4 15-7 21-10-6 3-12 7-18 9-15-3-31 0-44-3 14-5 26-11 36-23 1-7 4-13 1-18 18-21 25-44 32-67-21 28 4 18-31 63-10 11-25 24-40 31-25 11-50 14-75 16-19 1-35 0-50-2-9-5-16-7-22-10-6-6-7-12-8-17-2-19-3-37 1-52 3-14 7-24 9-35l1-2 1-1 2-2c7-5 14-9 21-15-7 5-14 9-21 15 4-10-2-13 2-29-2 11-5 21-7 31-2 14-6 25-8 36-2 4-1 7-1 10-3 15-2 27-1 42 0 7 2 12 3 17-3-1-4 0-8 1 5-1 8 0 12 1 9 3 16 7 23 11 13 16 18 15 20 24-6 5-5-2-16 0 0 2 3 5 1 8-11-5-22-4-29-8 0 4 5 9-3 10 1-7-22-2-24-11-1 2 1 4 2 6-24 0-46-1-69-4-7 1-10-7-15-8-13-3-19 5-30 3 7-6 16-14 20-24-1-39-6-75-5-114 2-15 6-27 9-39-3 12-8 23-9 36-3 42 3 77 6 115-4 7-7 11-10 15-7 0-11-1-16 0-2-5-5-7-8-9 8-8 16-14 20-24-1 2-2 3-2 5-12-13-19-25-23-39-5-22-6-45-1-65 5-24 14-45 24-65 12-18 24-34 38-50 26-25 49-46 73-70 14-12 28-20 43-26 34-14 68-22 99-37"/><path fill="#90775E" d="M269 174c-3 22-20 20-23 31-2 0-6-3-4-7 0 30 7 9 11 54-6-13-9-30-14-39-5 7-9 10-20 14 0 0 3 0 1 4-3-3-7 2-10 1-1 2 10 1 8 11 4 11-4 20-9 29-8 3-16 5-22 4-11-3-3-14-14-12 4-7 5-15 9-20-12-8-25-3-37-3-8 7-12 18-16 27-4 0-3 7-5 8 2-1 0-3 4-5 2 2 3 3 4 5-3 12-3 22-8 30 1 1 5-6 7-9-2 6-2 12-5 17-1 11 1 1 3-2-7 21 0 16 2 25 8 11 25 7 40 12 1-2 2-5 3-7 1 4 7 3 6 8 28 0 25-12 43-12 0-26 11-18 7-43 4 5 5 10 6 15 3-3 2-8 3-12 4 7 4 12 5 16 13 5 13-14 19-13 10-21 3-41-1-57 5 11 15 16 15 29-2 12-3 22-7 32l1 2v-2c4-6 9 2 13 2 3-13 3-24 1-35-7-31-7-34-18-60 6 13-2-19 3-36"/><path fill="#776453" d="M129 271c-9 10-13 19-11 28 2-2 4-3 7-5-3 5 0 11-3 14-1 8 2 42-2 64 6 26 9 35 16 68 4 6 12 17 15 20 9-1 9-1 17-8 11-2 26 1 35 1 4-5-4-5-5-7-10-5-20-5-29-6 16-3 28-1 41 8-2-13-3-22-3-28-11-14-24-20-36-26 6-1 10 4 16 3 9 6 15 13 20 20-1-6-1-13-2-19-36-52 6 1-28-47 14 16 26 29 33 47 2-27 15-33 15-63-16 4-18 14-45 17 4-6-1-3-6-8-1 1 0 5-1 7-12-11-31 1-42-13-2-1-2-3-2-6-2-2-1 5-4 2 1-8 2-14 5-19-1 2-4 7-6 1 4-7 4-13 7-18-2 5-5 9-7 13 2-14 9-27 6-38"/><path fill="#A38C6F" d="M279 134c-6 6-13 12-19 14-10 8-15 15-19 23-1-4 2-7 4-11-11 14-22 9-33 14 0-4 3-10 4-13-12 1-23 16-32 17-26 26-19 39-45 65 8-1 33-10 39-1 5 11-9 22 4 25 3 3 0 8 5 8 6 1 14-1 20-3 3-7 10-11 11-18 0-9-1-21-7-19 7-7 9-8 29-21-2-16-3-29 4-43 4-6 7-14 12-18-5 10-9 20-12 30 0 9-4 17 0 22 4-8 10-9 19-18 6-11 6-26 13-36 17-22 4-5 5-16"/><path fill="#B78254" d="M383 136c-2 2-5 0-7 1-22 2-32 26-40 24-8 19-9 43-14 65 1 30-5 56-1 83 10-42 17-84 23-128 3 12 0 25 2 40 8-10 11-22 13-33 2 4 2 9 1 13 11-11 22-13 24-27 2 4-1 7-2 11 6-2 13-2 18-4 3-2 0-5 1-8 3 1 4 5 3 9 6 0 18 5 17 1 0 4 4 3 7 7 1-3 1-5 1-8 3 8 0 17 6 22 4-7 4-15 6-23 0 21-1 40-2 58 6 6 4-27 9-21-4 31-8 58-10 86 6-26 10-54 11-82-3-8-1-15-1-23-3-35-20-72-65-59"/><path fill="#4E3E38" d="M246 347c-3 6-7 9-15 16 4 12 10 20 12 26-6 0-9-6-13-10-7 9-9 18-7 26 6 9 15 13 23 18-12-6-41-20-14 5 12 4 24 9 37 12-32-4-27 3-35 3 3 3 9 6 16 9-6 1-13-4-19-5 0 4 1 4 4 7 16 8 32 11 48 13 16 1 29-1 42-2 17-2 30-6 42-12 14-8 26-15 36-24-15 8-34 9-51 15-13 2-25 3-36 2 19-1 34-5 48-9 18-5 33-10 47-17 11-13 18-25 23-39-23 27-46 32-61 43-33 19-66 2-70 10-25-3-26-12-42-17-8-7-17-12-21-20 4-4 3-7 9-17 1-6-3 1-4 2-6-12 3-20 2-35"/><path fill="#EADEBE" d="M397 268c-5 4-19 9-21 8-14 2-29 2-41-4-5 17-1 38 2 54 7 2 13 4 19 4-4 4-11 2-16 3 1 4-1 6 2 9 12 1 21 0 31 0 6-2 7-2 10-6-12 3-26 5-38 0 14-4 20-2 28-2 14-1 27-16 33-15 0-19-3-36-7-51"/><path fill="#756151" d="M475 324c2 7-2 13-7 16-12 4-9-5-10-10-1 12-2 22-5 31 4 8 8-9 11-12 0 7-2 12-5 16-1 6 7 19 2 30 6-4 12-8 17-15-5 9-10 17-17 21 1 0-10 22-9 30l16 8 1-1h2l-1 1-2-2c3 0 17-3 30-1-2-27 1-52 2-76-5-11-15-7-24-23 0 8-4 14-8 19 0-18 12-22 9-29"/><path fill="#DBCEB0" d="M400 321c6 2-10 22-14 19-14 6-29 13-42 7 4 19 1 11 14 25 4 3 9 2 13 3-4 2-8 2-12 2 0 9-5 20 4 25 13 0 23-3 34-6 12-7 23-18 32-29-2-11-2-10 0-26-4 11-2 23-10 29-5-17-2-30-6-45-5 13-12 24-22 34 22-25 0-27 17-41"/><path fill="#2C1D18" d="M104 298c-3 21-13 34-16 58-5-8-5-19-6-29 2 26-1 49 2 73-7 0-12-14-17-11-2-17-7-3-5-22 0 18 1 34 6 48 8 29 27 35 23 36-6 23-1 11-15 25 7 0 11 1 15 2 6-5 8-9 11-12 0-27-5-49-5-74-4-35 4-62 6-93"/><path fill="#2C1E19" d="M101 343c-6 22 2 83 4 118-4 13-13 21-21 27 10-2 7-2 28-4 6 2 10 10 15 8 19 4 40 5 56 7-20-7-45-3-63-16 1-6 6-9 11-5-1-8 3-3 4-12-11 1-16-25-18-26-10-27-12-62-9-86-4-3-1-9-6-8"/><path fill="#3D2D27" d="M441 374c-2 6-4 12-7 19-11 18-12 24-13 43-11 14-23 25-36 29 7-1 15 0 28-9 3 6 2 9 0 8-2-2-15 4-21 3 12 3 16-5 27 1 8-3 14-7 20-10-5 7-13 11-21 15 15 2 33 0 49 1-12-4-20-11-27-18-6 7-9-1-13-1-1-16 1-30 0-39 4-4 7-7 9-10-1 8-2 14-1 22 2 6 3 11 5 15 9-3 8-14 12-20 0-3-5 2-7-2 9-14-8-29 3-37-4 3-8 8-13 11 3-6 6-9 9-13-4 6-2-6-3-6"/><path fill="#C1B298" d="M261 365c-4 3-1 7 1 11-3 0-2-2-5-3-1 1-2 3-1 4 9 12 22 19 29 24-12-2-25-7-33-20-3 4-10 8-6 11 10 11 20 17 30 22 11 4 19 6 27 6 2-6 4-13 11-16 2-6-3-6-4-9-12-6-24-10-49-30"/><path fill="#3E2C24" d="M110 322c-8 8-7 13-11 29 1-3 1-5 2-8 6 2 5 8 7 9-2 26 0 61 9 85 3 5 8 30 19 27-1 8-5 9-4 11-4 3-10 0-12 7 16 11 38 10 56 13-12-3-29-9-33-20 0-6 5-10 11-9-8-2-12 6-17 10 11-12-3-5 6-16-12-33-21-36-25-56-4-24-7-43-5-61 1 1-1 2 0 4-3-3-6-2-5-6-1-9 0-13 4-19"/><path fill="#3F2D23" d="M101 302c-2 11-8 16-12 18 0-4-4-1-5-9-2 7-3 1-5 6 1-3-6-5-3-6-3 8-7 17-9 26-3 15-5 28-4 42 2 7 10 11 19 22-2-23 1-47-1-75 3 9 3 20 6 29 3-19 10-33 15-50"/><path fill="#DACDB0" d="M286 331c-3 4-6 9-9 14 4 4 7 6 10 9-4 2-8-4-12-7-5 5-7 9-10 12 12 17 29 24 44 30-2-13-3-25-2-39-7-7-15-11-20-19"/><path fill="#EFE4CA" d="M361 104c-8 1-15 1-21 4 11 0 26 0 36 4-14-1-26 0-39 0-30 13-28 14 3 3-4 4 11 9 20 5-4 5-9 6-14 10 11 1 33-5 48-6 12 1 20 4 28 8-6-4-12-8-19-10-10-3-19-1-26-2 12-6 28 1 42 0-14-10-28-16-45-16-6-1-8 0-11 0"/><path fill="#563E2E" d="m101 266-2 1c-9 15-20 32-22 48 5 1 4-2 6-5 4 7 2 12 7 10 7-7 11-16 14-28v25c4-19 35-66-3-40-2-7-2-6-2-9"/><path fill="#8B735D" d="M448 266c6 22 11 52 11 73 1 2 6-1 9 2 5-5 7-11 7-18 4 6 3 11 2 15 13 16 16 9 23 17-11-26-32-38-50-91"/><path fill="#AC987E" d="M452 243c0 7-1 13-3 21 19 44 38 71 48 78-5-21-35-83-46-94"/><path fill="#725C4E" d="M403 242c-4 10-16 10-30 15-13 2-24 4-35 1-3 4-3 8-4 11 8 4 14 5 22 6 4-2 17-1 24-5 4-1-2 1-3 0 5-3 10-4 16-6 7-6 18-27 11-19"/><path fill="#40302A" d="M249 339c-10 4-14 13-19 11-6 24-15 44-12 66 4 6 9 8 13 11l2 2-1 2c-5-2-9-6-14-9 0 4-2 9 2 11 12 12 8 4 23 11l2 1-2-2c-3-3-6-1-8-5 13 4 24-1 36 4-14-4-26-9-39-14-6-4-10-8-12-13 4-5 18 8 26 10-8-6-15-8-17-11-14-11-1-8-10-17 3-5 6-14 10-19 10 8 7 5 11 12-1-8-7-16-10-26 8-8 18-16 18-23"/><path fill="#2A1910" d="M395 188c-18 6-29 13-31 28 1-3 10-21 22-20 12-4 26-4 32 3 4 6 1 13 1 15-3-2-4 3-2 3-5 7-10 11-16 13 8 0 4 3 17-12l-1-1c3 0 4 2 5 4-2 11-7 20-11 29 1 7 5 13 6 18-2-10 2-21 5-30 2 15 9 27 7 49 0-10 1-20-1-29 2-14 4 2 5-6 2 14 1 26 2 37-2-11 0-23-1-34 0-12-2-26-1-32-6-4-3-1-7 2 1-14-1-21-2-25-6-10-8-7-12-10-6-2-12-1-18-1"/><path fill="#C8B99E" d="M410 386c-17 16-30 15-51 24-17 8-20-13-37-7-4-5-5 0-4 1 7 2 5 10 5 14 21 4 41-3 56-6 93-48-44 16 40-27"/><path fill="#DBCEB1" d="M316 356c2 11 1 24 3 35 8 4 15 6 23 6-1-5-4-10-6-14-2-10 0-16 7-20-9-2-18-3-25-6"/><path fill="#5C544E" d="M63 416c6 6 8 20 17 27-8 12-11 7-17 16-3-5 0-8 1-11-8-5-10-5-21-1 5-11 7-15 18-27"/><path fill="#6A4E39" d="M143 229c-3 3-11 8-16 12-7-4 7-10 3-10-12 12-25 25-31 39 12 7 17-5 23-2 7-13 14-26 22-39"/><path fill="#634F46" d="M300 255c2 30 12 56 7 90 4 2 6 4 7 5 7-31-6-50-2-87-3 0-3-2-5-3 0 8-2 14-3 20-3-8 0-17-1-24"/><path fill="#695549" d="M399 221c-11 1-23 4-34 1-4 16-17-4-19 15 14 4 33-3 40-2 9-2 34-13 14-15"/><path fill="#653D27" d="m381 145 2-3c14 7 28 4 41 2-2 14-12 15-20 18-9-4-38-3-26-18"/><path fill="#BDB0A5" d="M189 466c-16 5 3 13 6 24 12 6 16 3 24 7-7-19-5-11-15-28-6-5-11 1-13-4"/><path fill="#BDB0A4" d="M459 450c-12 13 5 13 10 19 14 1 26 2 37 4-7-11-17-13-26-20-7 2-13 0-20 1"/><path fill="#C2AF93" d="M262 140c-8 7-20 6-27 15-11 0-18 5-24 4 3-6 12-5 16-13-6 2-11 7-16 10-12 9-17 11-27 25 12-10 9-7 31-22 3 4-3 9-3 13 10-5 15 2 25-8 10-7 18-17 28-25"/><path fill="#B27D51" d="M273 304c-10 18-18 37-23 57 6-18 53-56 24-57"/><path fill="#625249" d="M435 409c-11 12-2 27-9 40 7 12 18 2 23 10 1-2-4-1-2-5 4-3 7-6 12-4-7-3-14 5-18 2 14-4 26-10 35-15-5-1-7 1-11 1-3-5-9 0-10-5-8-3-4 10-12 13-6-6-9-12-10-18-1-8 0-12 2-16"/><path fill="#7F6146" d="M299 137c-4 16-10 1-19 16-8 12-10 20-11 33 9-6 8-3 13-20 2 5 0 7 1 11 3 4-1-1 4-1 5-14 14-27 11-36"/><path fill="#544135" d="M118 307c-5 13-13 9-14 24 2-4 3-9 8-11l1 3-1 1-1 1c-2 5-3 10-4 14 0 5 4 4 4 7 1-2 1-4 2-6-1 21 2 40 5 61 4 28 8 10 16 38-9-25-12-57-18-79-1-7-1-12-1-17 0-11 3-18-4-16 3-8 5-13 7-17"/><path fill="#BDB0A5" d="M165 470c-18 4-8 17 3 18 7 5 15 7 23 9 0-4-3-8-2-12-5 0-7 2-9 3-1-5 2-5 3-6-2-5-4-7-7-8-12 4-9-5-9-3"/><path fill="#665247" d="M295 190c0 14 2 27 5 41 1 7 4 11 9 14-3 2-8-6-9 1 2 7 7 10 10 13 2-10 1-21 3-30-6-5-9-9-13-12 5 0 11 7 12 7-8-10-14-20-17-31"/><path fill="#654F40" d="M117 292c-3 6-7 16-9 26 5-2 7-7 9-10 0 6-2 11-4 15 8 7 0 25 3 35 2 8 3 7 3 14 6 21 8 43 15 62-8-37-6-25-13-65 5-41-5-42 3-71-3-1-5 0-6 3-2-3 0-5 0-7"/><path fill="#BCAFA4" d="M208 466c1 7 13 15 14 23 10 3 18 4 26 6-1-6-8-15-14-18-5-7-22-5-22-10"/><path fill="#281D19" d="M424 413c-19 10-3 31-21 40-3 4-5 4-6 2 4-1 7-6 11-8 2-8 3-13 3-18-10 9-19 16-29 22 4 3 9 2 12 4 0 1 6 3 1 4 3-1 5-3 7-4 8-8 14-14 18-21 0-9 1-14 3-19"/><path fill="#695549" d="M398 235c-15 7-35 6-53 5-5 5-9 7-8 14 0-8 4-2 3-8 7 0 11 1 14 3-3 3-15-1-9 2 24 1 22-4 41-5l-4 2h-2l3 1 2-2c7 2 32-22 7-4-2-4 5-5 6-7"/><path fill="#886F5C" d="M415 305c3 19 0 32 4 63 6-11 5-28 11-34-3-12-12-34-14-26"/><path fill="#2E1B13" d="M294 162c-7 48 1 106-10 157 3-1 4-7 7-10-2-9 3-54 7-39 0-33-13-76-2-106"/><path fill="#D8C9AE" d="M301 126c-33 8-30 2-56 15-16 1-34 20-33 11 4 9 10 1 23 2 25-18 47-21 61-25"/><path fill="#B07E53" d="M451 298c-6 3-4 7-7 14-5 6-4-5-7 0 6 14 13 25 13 40 5-17 4-36 1-53"/><path fill="#8A7763" d="M248 395c6 4-1 12 12 19 28 8 26 17 45 19 1-3 1-5 0-7-13-5-26-9-38-15-7-4-13-9-17-15"/><path fill="#231916" d="M410 426c3 7 2 22-8 26-7 5-14 2-20 1 9-8 17-15 25-24"/><path fill="#BFB1A5" d="M514 444c-17 6 11 11 10 22 8 2 15 2 21 4-11-13-5-9-11-18-9-1-23-4-17-7"/><path fill="#5B402D" d="M288 195c-1 4 0 10 0 14-2 5-7 5-9 4-1 24 8 39 7 57 0-20 5-40 3-60-2-5-2-9-1-14"/><path fill="#3B2D28" d="M218 436c0 13 10 16 3 17 9 6 16 8 23 12 19 4 38 4 57 3-21 1-39-3-58-8-5-3-9-5-11-8 1-2-4-4 0-6 4 1 6 3 8 4-2-2-4-3-6-4-6-3-10-6-13-8"/><path fill="#E2D5B7" d="M319 328c1 7-3 12-2 22 8 5 15 8 22 9 1-6 0-7 0-12-4-1-9-2-13-4 2-2 3 0 5 0-4-2-2-5-1-9-4 6-3-9-8 2-5-5 3-9-3-7"/><path fill="#755C4E" d="M315 371c-1 3-7 4-4 10-3 13 4 10 5 24-7 1-8 7-9 11 1 3 0 5 1 7 4 2 9 1 13 2 0-5 4-18-4-19 0-12-1-23-2-34"/><path fill="#8E7B66" d="M386 410c-19 13-47 14-68 19 15 4 27 1 39-2 21-3 15-8 27-16"/><path fill="#BFB2A6" d="M490 450c-2 7 14 11 17 18 7 1 11 2 16 3-5-8-7-8-13-17-7-2-11-5-16-5"/><path fill="#2E2119" d="M320 128c-3 3-6 8-3 13 2 6 6 7 9 5 6-1 7-6 10-12-1-3-9-8-13-6"/><path fill="#806756" d="M401 263c4 17 6 39 8 55 3-7 4-12 3-19 4 12 5 5 10 13-9-28-14-29-18-46"/><path fill="#6D4F38" d="M281 176c0-3-5 22-3 38 8-2 6 0 8-5 0-10 0-22 2-31v-5l1 3-2 1c-2 0-5 3-6-2"/><path fill="#E1D4B6" d="M295 315c-5 4 0 12 8 19-5-1-10-6-12-10-3 2-2 3-1 5 5 8 10 11 16 14 1-8 0-4-4-7 5-5 0-10 4-14-8-3-5-7-11-6"/><path fill="#473125" d="M268 258c2 13 5 28-2 40-8 14-15 23-20 29-3-2-6-8-4-15 2 7-4 13 0 18 5 1 10 2 13 0 10-17 4-18 12-26 6-19 5-29 1-44"/><path fill="#625044" d="M223 361c-7-5-3 23-10 17 2 14-5 20-1 29-3 0-4-2-5-5 1 9 0 17 6 23-2 9-2-4-6 0 0 4 3 3 5 7-1-2 2-3 2-4-2-26 2-47 9-66"/><path fill="#2A1A13" d="M241 309c-6 26-10 21-11 41 1 1 13-15 22-14 1-8-11 0-11-8-3-6 1-8-1-16"/><path fill="#4F3D33" d="M432 334c0 12 0 9 5 8-6 15-4 32-9 39 7-6 13-15 14-25-2-9-8-17-10-17"/><path fill="#927B64" d="M298 173c0 17 3 29 12 42 1-5 1-11 1-16-6-10-8-12-12-24"/><path fill="#362823" d="M90 449c-5 7-10 13-18 17 3 2 0 5 2 5 6-1 9 1 11-1-2-5 10-3 6-21"/><path fill="#41312B" d="M414 419c-15 9-31 14-47 19-17 4-32 8-48 8 10 0 21-1 30-3 20-6 39-7 55-16-11 13-27 15-43 23 9-3 17-6 25-9-4 5-10 7-15 12 15-7 29-19 41-32"/><path fill="#634E3C" d="M413 197c-11 7-31-3-35 7-2 4 24-2 33 4 3-6 3-8 1-12"/><path fill="#E9DDBE" d="M328 293c1 13-6 21-9 31 6 1 10 1 13 3-1-11-2-22-4-31"/><path fill="#BBAEA0" d="M236 469c-8-5 14 23 25 21-4-9-10-10-17-20-4-2-6-2-7-3"/><path fill="#4C3A33" d="M284 324c-7 9-16 18-21 28-4 4 0 7 0 10 6-19 17-19 23-37"/><path fill="#F1E6CF" d="M286 121c-24 8-49 15-70 30 32-22 43-7 71-32"/><path fill="#F6EACF" d="M378 132c-22 3-34 14-1 2 14-2 24 9 39 3-15 0-19-5-38-6"/><path fill="#EDE3CC" d="M311 113c-13 3-23 9-33 17 5-2 12-2 18-3 6-6 9-9 15-14"/><path fill="#736053" d="M183 456c-14-1-16 5-3 12-1-6 12-5 9-5 7-2 8 0 9 3-3-5-7-9-11-10h-3"/><path fill="#613825" d="M317 181c-1 21-2 43-1 66 0-14 4-27 5-40 3-12-7-1-4-27"/><path fill="#452A1A" d="M392 185c-6 1-12 3-18 6l-1 2v1h-3c-2 3-6 7-9 10-5 0-1-1-3-4 0 8 1 17 0 25 1-10 8-16 14-30 2-2 22-13 23-10"/><path fill="#C5A062" d="M341 368c-3 5 3 9 0 12 9 9 9 21 18 26-5-5-6-13-9-20 3-3 1-8 2-13 0 4-4 5-6 4-5-2-6-12-2-5"/><path fill="#685349" d="M309 349c-2 11 1 20 0 31 6-12 8-7 6-26-2 0-3-3-5-3"/><path fill="#604F43" d="M477 412c31 8-13 7-14 13 2-5 6-9 11-10"/><path fill="#2B201C" d="M414 457c-25 15-26 2-37 10 4 0 8 2 12 2 48 4 40-6 0 0 7-2 17-7 23-5 4-1 1-1 1-6"/><path fill="#503F39" d="M300 277c0 16-6 32-14 46 7-8 12-18 15-28 3-7 0-13 0-17"/><path fill="#A0876D" d="M306 149c-3 8-3 17-4 25 1 7 4 9 5 13 2-12-2-23 0-36"/><path fill="#604E43" d="M392 209c-36 5 5 9 15 4-5-3-10-3-15-4"/><path fill="#503D33" d="M445 362c-3 7-5 13-2 20 5-4 7-9 10-9-2-5-3-6-9-9"/><path fill="#130603" d="M379 149c7 0 28 12 43 0-10 0-25 6-37-3"/><path fill="#F5E9D4" d="M417 136c17-1 18 29 25 32-2-9-3-17-8-24-5-5-9-8-13-9"/><path fill="#E4D9BB" d="M302 300c-2 5-5 9-7 14 5 1 6 2 10 5-1-6 3-17-2-17"/><path fill="#90755B" d="M151 217c-5 2-9 5-14 7-4 0 1-2 1-3-13 9 2 7-13 17 11-6 24-16 27-21"/><path fill="#957243" d="M340 368c-4 14 8 23 8 38 5 6 4-1 9 3-6-5-8-19-16-26 2-6-3-8-1-13"/><path fill="#A07855" d="M448 279c-4 9-4 20-7 30 5-5 4-9 10-12-1-5-2-11-4-16"/><path fill="#473630" d="M407 410c0 6-18 16-26 19 7-7 15-11 23-16"/><path fill="#EDDFCA" d="M346 100c-2 1-4 0-5 1l-2 1h-4c-10 4-19 10-28 18 9-1 18-17 32-17 16-1 51-4 4-3"/><path fill="#604D41" d="M409 253c-6 13 8 22 10 33-2-10-4-20-9-31"/><path fill="#C08B5C" d="M325 155c-8-3-7 23-5 35 1-11 3-23 5-35"/><path fill="#0E0502" d="M298 152c-1 11-4 21-5 32-1 5-1 8 0 11 0 33 10 63 3 95-5 34-38 53-47 84 9-30 42-49 47-80l1-2-1-2c7-32-3-63-4-93 3-16 3-30 6-43"/><path fill="#BF8C5F" d="M348 140c-7 9-11 5-16 14-5 7-5 13-7 19 7-7 10-22 22-30"/><path fill="#796657" d="M489 441c-14 2 25 10 18 1-2-1-8-2-15-1"/><path fill="#76462C" d="M442 250c-8 11-3 38-6 55 1-17 4-35 6-54"/><path fill="#E5D9BA" d="M406 321c-11 16-2 5-8 19 5 1 17-18 10-18"/><path fill="#665044" d="M357 267c24 1-15 8-20 3 5-1 12-1 19-1"/><path fill="#A06D48" d="M426 259c-3 13-2 25 1 37 2-11 0-23-1-34"/><path fill="#412F26" d="M416 219c0 4-9 9-13 13 1-1 6-1 8-6 1 10 1 13-1 17 5-7 8-16 9-24"/><path fill="#100E0D" d="M457 476c12-1 25 0 36-1-11 5-21 2-34 3"/><path fill="#644F41" d="M421 290c4 14-5 9-4 11 8-3 4 10 7 0-1 10 5 17 7 24 2-8-1-14-5-20-2-5-2-9-4-12"/><path fill="#685346" d="M411 234c-6 1-11 13-16 14 3 1 5-1 7-7 2 4 5 11-6 20-6 6-12 6-18 9 7-1 14-3 21-10 6-8 8-17 12-24"/><path fill="#997747" d="M453 374c-8 13 0 31-6 44 13-11-4-28 6-41"/><path fill="#A89881" d="M252 387c7 7 16 13 24 18-8-1-16-8-24-14"/><path fill="#AD9D85" d="M273 384c8 6 18 13 27 16-9-1-18-5-26-12"/><path fill="#67564A" d="M141 447c-2 6 6 10 3 17 3-2 4-2 7-1 10 3 10-8 19-9-6 0-11 8-18 7-5-4-7-6-10-13"/><path fill="#7C452C" d="M385 151c-5 6 7 4 16 10 7-2 11-2 14-5 2-4-10 2-11 4-6-5-14-3-17-8"/><path fill="#492E1D" d="M420 188c3 6 10 21 5 33 5-3 2-15 6-27-1 2 0 4-1 5-4-4-5-9-7-11"/><path fill="#3C271D" d="M297 265c-5 12-4 26-7 39 5-11 7-24 7-37"/><path fill="#111110" d="M222 496c8-2 15 3 23 2-7 3-14 2-22 1"/><path fill="#653923" d="M318 244c-2 11-2 26 0 38 0-11 1-25 1-37"/><path fill="#5E4B41" d="M307 417c-1 7 1 9 1 13 4 3 7-2 10 3 1-2 1-4 2-6-5-1-8-2-11-3-3-2-3-3-2-4"/><path fill="#776554" d="M244 391c9 11-7-3-1 8 4 5 8 9 12 11-8-6-1-11-9-16"/><path fill="#473832" d="M386 438c5 4-16 10-22 12 6-4 12-7 18-10"/><path fill="#E6D9BA" d="M319 331c10 1 9 3 15 13 4-7-4-7 1-11-5-3-9-2-12-4"/><path fill="#352217" d="M416 242c3 2-1 12 1 17-3-4-8-11-3-15"/><path fill="#C6B59A" d="M469 274c7 14 13 30 20 45-3-16-11-29-19-43"/><path fill="#BFAE92" d="M321 422c4 6 22 1 29 0-8 0-17-1-26-1"/><path fill="#C2B397" d="M413 354c2 4-13 15-19 18 5-7 11-10 16-14"/><path fill="#442D1F" d="M291 178c-7 12-1 29 0 43-1-17-1-25 0-42"/><path fill="#71553C" d="M276 182c-5 4-10 12-4 13 4-2 3-8 5-12"/><path fill="#77462A" d="M440 206c-3 13-5 30-1 43 0-6-2-28 1-40"/><path fill="#302E2B" d="M322 130c5-2 9 2 13 2-9 8-9-1-13 1"/><path fill="#685348" d="M387 250c-21 2-30 4-44 6 15 0 31 0 44-7"/><path fill="#41291B" d="M430 245c-3 7 2 14 0 33 7-18 0-24 1-33"/><path fill="#A78F75" d="M165 196c-5 12-20 22-29 28 4-1 15-12 16-6 4-6 8-13 13-19"/><path fill="#635247" d="M149 468c-3 1-4 2-5 5 6 2 3 8 6 10 6-3-1-7 0-16"/><path fill="#78634F" d="M393 196c-18 5 7 1 17 3-4-4-10-3-14-3"/><path fill="#191818" d="M196 497c5 1 13 2 18 3-5 2-12 1-18 0"/><path fill="#DEB083" d="M358 144c-6 0-8 6-14 6-5 4-4 7-6 11 4-9 15-7 17-17"/><path fill="#BCAB94" d="M161 209c-13 20-11 19-24 39 8-13 19-24 25-38"/><path fill="#BAAEA2" d="M65 420c-5 2-8 6-8 12 1-5 13-3 8-11"/><path fill="#604E43" d="M209 431c0 4 1 10 3 14-2 5-4 2-6 2 2 2 4 1 5 4 6-9 0-12-1-18"/><path fill="#4D2A1B" d="M315 231c-1 27 1 52 3 78-2-26-3-54-3-74"/><path fill="#37281D" d="M321 132c2 8 10 3 13 4-3 5-9 5-14 0"/><path fill="#524038" d="M294 203c3 19 3 38 8 53-2-8-6-47-5-49"/><path fill="#C2AE93" d="M295 130c-9 8-7-1-15 3l-1 2 1-2c7 0 1 5 0 7 3-2 6-4 8-6 1 4-2 7-4 11 5-6 8-8 10-14"/><path fill="#593B2A" d="M433 266c-3 6-2 20-1 29 2-8 1-17 1-27"/><path fill="#4A3A33" d="M258 359c-1 6-10 12-6 18 1-6 7-10 8-15"/><path fill="#A4917B" d="M427 377c-5 6-15 11-17 10 0-1 9 2 4 7 4-5 9-10 12-15"/><path fill="#100703" d="M388 208c-1 1-3 0-4 1-18 10-22 0-22 19-1-10 10-16 19-19 13-3 25 0 34 5 3 4 7 5 5 9-3 12-8 22-14 31 6-9 12-19 15-29 3-6 3 4 6-1l1-1-2 2c-4 0-5-9-10-9-7-5-12-7-18-8-4 0-6 0-9-1"/><path fill="#D5B377" d="M453 378c2 6-3 13 1 20-1-26 9 10 1-23"/><path fill="#574131" d="M383 198c-3 2-12 3-11 9 6 1 6-2 9 0-6-1 2-7 2-9"/><path fill="#56443B" d="M413 216c-3 1-8 3-12 4 5-2 6 2 10 3 1-2 7-4 5-7"/><path fill="#6D5441" d="M317 124c-5 6-10 13-13 16-3 8-4 13-3 21 0-5 0-12 3-17 4-9 9-4 9-9 2 1 1 8 1 6 3-11-2-6 1-15"/><path fill="#43332C" d="M411 409c-9 6-19 13-29 18 10-3 19-10 28-18"/><path fill="#6F594D" d="M338 250c-1 8 17 3 22 4-5-1-15-2-21-3"/><path fill="#C4B599" d="M396 345c3 2-7 11-10 13 1-4 4-7 7-11"/><path fill="#7D6655" d="M408 265c3 17 12 25 11 31 3-13-9-21-9-28"/><path fill="#5A402E" d="M322 123c-10 5-9 13 0 2 10 0 18 8 25 2-8 6-15-5-23-1"/><path fill="#ECC99E" d="M357 140c-4 3-10 2-12 10 6-7 15-7 16-11"/><path fill="#7A624D" d="M311 138c-4 2-6 10-9 11 1 1 2 10-2 6-3 9-3 17-2 26 0-13 4-8 1-24 4 1 7-22 13-16"/><path fill="#806854" d="M243 308c-5 16 6 15 13 4-6 7-6 0-11 4-3-2-3-3-2-4"/><path fill="#645244" d="M195 374c-2 5 6 9 11 22 1-3-6-15-10-21"/><path fill="#6F5E52" d="M152 468c-5 2 1 3-1 7 2-3 9-7 13-6-2-2-7-1-10-2"/><path fill="#392315" d="M430 242c6 2 1 9-1 11 0-2-3-5-1-8"/><path fill="#543826" d="M422 250c0 3-5 14-1 22 0-7 2-13 2-20"/><path fill="#412E21" d="M372 203c-11 18 1 5 11 4 13-1 25-1 33 7 0-1 3-3 3-5-9 3-22-6-35-2-5-1-12 6-13-1"/><path fill="#BDA98F" d="M166 196c-8 7-16 15-24 22 9-4 16-14 23-21"/><path fill="#DDD0B4" d="M336 118c-29 2 9 5 16 5-2-3-20-1-15-6"/><path fill="#4F3D34" d="M456 468c11 9 28 4 41 7-12-5-28 1-40-6"/><path fill="#664D3B" d="M270 258c-1 9 6 9 4 24 4-8 0-18-3-24"/><path fill="#CE9766" d="M391 127c-5 2 14 5 18 1-5 0-10-1-15-2"/><path fill="#C09C63" d="M453 379c-5 10 0 19 1 28 7-45-4 11-2-27"/><path fill="#2C130B" d="M348 144c-8 6-13 14-16 22v3l-1 1c-5 19-8 28-10 44 5-15 6-31 11-45 4-10 7-17 13-24"/></svg>