<svg xmlns="http://www.w3.org/2000/svg" width="600" height="600"><path fill="#5E7D86" d="m336 102 2-2c14 6 31 7 46 12 8 9 16 15 20 23 4 11 5 20 4 31 22 5 40 13 58 24 32 24 55 56 64 91 3 15 5 26 4 40 2 16 1 29-1 42-2 12-5 22-9 31 6 3 13 3 19 6 7 3 12 6 15 10-18 0-34 8-50 2-8 9-16 14-24 20 4 7 9 14 11 21 2 8 2 17-2 21-19-5-36-11-48-23-18 2-34 6-51 7-20 0-40 2-56-2-3 13-6 23-11 33-4 5-6 8-10 9-12-9-21-19-28-27-11-9-5-26-15-28-17 9-32 17-50 19-37 4-66-10-98-13-3-6 3-9 6-11 28-8 51-17 73-33-11-9-20-20-29-34-19-33-20-71-41-101-3 6-4 13-9 18-32 12-55 37-85 49 2-25 15-44 21-65 12-16 30-10 40-22-8-14-13-28-15-43-1-6 0-10 1-13 2 12 5 20 6 28 0-7-2-13-4-19 4 1 5 5 6 10 0-6 2-10 2-14-5-10-14-16-15-24 14 3 25 6 38 6 15 15 29 23 43 38 1 11 0 21-9 23 17 7 34 9 52 7 10-2 17-6 24-11 21-22 37-45 64-58 14-9 28-12 42-16 16-2 28-3 41-1-9-16-25-24-34-39-5-8-9-13-11-20"/><path fill="#427384" d="M280 262c-6 1-18 5-23 4-5 5-4 8-3 14-5 5-7-1-8-3-2 8-9 15-18 22-11 5-19 9-33 7-11-1-18-6-25-12-24-30-33-39-4 0 6 7 14 11 23 15 12 3 23 4 32-1 22-7 30-29 51-29 7 1 11 2 15 4 15 22 47 26 58 36 6 5 12 3 16 7 8-5 18-6 27-4 11 5 19 14 21 24 1-2-1-3 0-5 14 3 46 9 49 4 23-7 37-16 56-21 2 0 1 2 2 4 2-13 5-22 9-34 2-16-2-19-7-31-5 2 1 16-6 22-5 4-13 10-13 9-25 8-45 7-65 9-56-10-99-28-151-41"/><path fill="#ABE1D5" d="M362 174c-19 4 2 1-14 8-17 11-10-2-21 3-14 5-26 11-38 15-39 34 70 35 97 45 12 5 20 13 25 19 6 3 10 5 13 6 5-2 3-4 2-5 1 5-9 4-12-1-9-7-16-13-21-21-6-6-13-9-13-15 14 3 25 9 35 17 6 6 6 9 10 14 0-5-5-8-8-13-4-1-5-4-7-4 11-4 21-7 31-8 26-3 45 6 62 17-7-18-13-33-29-42-19-14-37-28-61-32-2 6 6 15 4 22-17-11-37-16-55-24"/><path fill="#2A4D67" d="M531 308c-5 12 3 25-1 38-1 11-3 18-7 25-7-1-8-6-7-10-18 0-25 12-41 11-31 1-38 2-58 1-12-2-9 13-26 16-8 1-15 1-20-2-10-7-17-16-18-26-12-7-31-15-42-21 0 4-4 7-4 12-2-2-4-1-7-4-1 8 1 16-2 23-7 10-15 16-24 20-2 9 8 17 13 24 1 4 0 6-3 9 10-10 17-19 25-29 24 0 29 12 49 19-1-3-1-7 0-9 19 3 36-4 51 6 26-6 47-16 71-19 11-1 19 1 28 2 5-4 13-10 17-13 2-12 4-22 6-32 2-14 0-28-1-39"/><path fill="#538993" d="M274 246c-8-4-2 9-10 11-4 0-6-4-3-7-15 3-19 27-34 37-9 6-20 7-24 8-8-8-7 6-18 1-6-6-5-9-11-12-2 1 0 5-5 2-2-3-2-5 1-6-5-5-13-6-19-14-1-3 0-7-1-9-8 13 11 23 17 36 10 6 17 11 26 12 17 2 25-2 37-8 17-23 18-17 26-34 5-1-1 3 4 2 7-1 13-3 19-3 55 11 87 27 138 36 28 8 44 1 72 0 11-6 11-4 22-13 8-5 0-20 5-22-4-7-5-13-8-16-2 7 4 12-1 18-28 1-56 16-84 7-27 4-63-16-94-19-22-6-32-9-54-5"/><path fill="#639AA1" d="M281 228c-14 5-28 14-37 25-5 7-12 16-20 24-8 5-15 7-23 6-5 22 0 6 26 6 14-9 11-23 22-33 8-6 18-14 24-10 23-2 34 0 55 3l5 5c16-1 34 8 51 11 7 3-9-6-5-11 0-5 3-6 4-7 8 4 14 9 18 14 4 6 0 12-5 10 14-2 12-1 25 1 18 0 27 3 44 1 18-7 24-8 41-9 1-4 4 0 2-5-16 2-17-23-36-20-20-7-41-1-58 2 6 6 12 13 14 20-1 4 3 6 1 8-2 4-5 3-6 4-14-6-21-19-33-28-16-1-32-1-46-5 3 2 3 8 2 11-4 4-7 4-11 3-3-1-5-3-6-4v-3l1-2c-1-5 2-5 6-7-17-5-33-13-54-10"/><path fill="#3B5E74" d="M116 244c26 24 22 17 53 56 7 4 11 8 15 9 11 5 19 9 31 7 17-2 29-12 46-14 6 3 0 8 0 11 6 0 10-4 16-3s9 4 12 8c8 10 9 21 12 31 3-7 9-12 5-17 5 4 5 6 6 9 11 3 28 12 41 19-7-17 15-31 4-37-4 4-7-1-11-1-10-10-20-11-37-20-6-5-13-13-19-18-9-2-17-6-25-3-19 4-24 23-42 28-11 5-22 4-31 1-9-2-14-5-20-9-12-12-21-24-28-36-8-12-18-17-26-22"/><path fill="#B0C2C0" d="M473 404c-2 1-4 0-5 1-27 6-48 18-75 19-12 2-22 2-30-1 1 4 1 8 7 10 15 5 26 18 44 16 17-2 32-5 45-11 10-8 69-32 14-36"/><path fill="#336278" d="M516 323c-20 7-36 15-55 24-5 3-33 0-52-5 1 3 5 25-1 34 0-1 2-2 2-3 28 0 34-1 64-1 17-1 22-10 41-14-1-11 1-23 0-34"/><path fill="#F1F0D3" d="M354 166c-17 2-33 5-47 12-14 6-25 13-36 22-15 15-27 30-40 44 1-4-14 8-19 7-13 3-23 3-33 1-13-2-23-6-32-10 11 9 25 15 39 16 15 4 30-2 39-3 1 6 0 7 4 8 18-19 9-8 40-55 9 5-5 13-2 17 5-14 14-20 24-27 13-4 23-10 33-14 14-2 9 6 26-3 7-6-2-3 11-10 36 0 24-8-8-5"/><path fill="#2D3B55" d="M156 289c4 7 5 15 9 22 6 3 12 2 16 6 4 26 16 23 23 41 4-5 13-7 14-12 14 0 20-4 35-10 8 18 1 8 15 30-7-11-9-22-8-34-1 9-2-1-5 1 0-7 2-6 2-17-11-2-15 7-23 6-3 2-3 6-5 9-5-3-5-5-4-8-15 0-27-1-39-9-11-7-20-17-29-23"/><path fill="#212D46" d="M291 321c5 10 7 21 7 33 0 10-5 9-10 9-8-1-11-5-14-6-7-9-10-12-10-18 1 11 4 21 10 30 6 5 15 7 19 0 0 4-2 7-5 6-24 0-23-23-31-20-7-18 10 0-3-21-17 13-37 11-43 20 3-1 9-1 13 3 22 7 26 32 45 32 14-5 15-3 26-17 1-9 3-9 2-16 2-13-1-23-5-33"/><path fill="#558A8D" d="M203 414c-9 0-15 10-22 17-7 3-13 4-19 3 4 1 9-1 10 3-1 1-1 5-4 4-12 1-24 2-33 5 17 0 33 6 50 7 17 2 26-6 42-3-1-2-2-2-3-1 6-4 6-3 6-8-3 1-13 4-22 0 40-17 11-12-18 0 12-7 25-11 37-17 0-4 3-5-4-9-5-4-13-3-18-2"/><path fill="#302027" d="M376 323c-8 4-11 3-16 12s-5 11-5 26c2 5 1 8 5 13 14 1 27-4 40-7 1 7-5 12-10 16l-1 1 1-1c5-2 10-8 12-12 2-8 2-9 1-23 0 5-3 13-10 10-8-4-8-11-7-18 0-3 3-4 3-6 6-1 8 1 10 4-1-4-2-7-6-9-4-6-8-3-14-7"/><path fill="#1D2B46" d="M313 398c-1 2-5-1-6 1-18 17 15-2-26 37 4 7 7 16 7 21 5 12 10 22 21 29-4-9-11-18-15-27 2-12 0-21 8-29 10-9 25-4 27-12 5 4 10 4 8 9 3 6-3 6-1 12 5-7 15-18 19-19-16-1-27-15-40-23"/><path fill="#264863" d="M313 434c-1 0-2 4-3 2-9 6-6 21-9 31 5 9 8 18 13 26 11-5 11-19 16-27 5-24 7-39-18-30"/><path fill="#B6DCC9" d="M159 251c-5 7 6 16 11 20 10 6 17 10 26 11 8-1 15 0 19-3 8-2 10-8 12-14-1-2-4-4-1-9-10 1-25 7-37 4-11-2-20-3-28-7"/><path fill="#383C58" d="M116 238c-1 4-1 7-2 10-4 1-5-2-8-3 1 2 6 4 5 6-9 15-30 23-38 38 4 0 6 7 11 5 16-13 37-19 49-30-4-4-10-8-15-12-3-5-3-8-2-12"/><path fill="#376175" d="M273 393c-19 9-40 15-62 17 12-3 23 0 33-5 5 2 5 3 7 4 1 5-2 6-3 7 1-1 3 0 4-3 5 11 10 11 13 21 5 6 0 4-1 6 29-13 24-29 6-45"/><path fill="#B3C3BE" d="M163 324c1 21 17 15 12 34 9 9 18 2 20 17 19 10 17-2 27 10 1-7-3-13 3-17 7 6 12 12 12 19 5 3 11 0 19 1-10-5-17-16-28-18l-1-1-2-1c-6-2-4 0-8 4-7-5-13-8-20-9-7-12-20-19-21-31-2-7-7-5-12-5"/><path fill="#778" d="M354 421c-53 54 58 29 76 28-12 2-30 4-45-2-9-4-17-6-24-9-4-5-8-8-7-13"/><path fill="#7FA8B0" d="M338 105c1 6 6 8 15 20 6 5 14 7 19 6 14 18 10 8 28 23-3-15-7-24-15-36-15 2-29-7-32-6 0 2 4 4 3 7-11-6-8-14-16-15"/><path fill="#447681" d="M252 415c-6 6-20 10-23 14 1 4-4 4-6 6 2-2 4-1 6-3 4 6-1 8 3 12-3 0-6 4-10 4 7 1 15-1 20 1l-3 1h-2l3 1 2-1c8-3 18-5 24-12-5-10-11-18-12-22"/><path fill="#797B89" d="M176 361c8 16 19 32 34 45 22 0 39-8 56-14-27 4-31-4-52-2-10-3-16-7-22-11-7-6-12-8-15-17"/><path fill="#738D9C" d="M88 179c5 7 12 13 15 22-5 2 7 16 5 23-7 3-11-3-12-3 2 10 5 15 10 19 12-10-1-20 3-29 9-1 19-6 23-3-2-2 1-3 1-4-11-18-32-16-43-25"/><path fill="#19223F" d="M480 433c-10 6-21 9-31 14 2 3 10 5 8 10 6 3 11 3 21 9 14-4 8-20 0-32"/><path fill="#374C65" d="M114 247c27 8 41 49 70 64 16 12 34 12 48 9 10-7 11 1 24-6 3 7-3 15 3 20 8-24 0-14 4-30-16-2-31 11-46 12-12 3-20 0-27-3-34-15-42-54-74-66"/><path fill="#DEEDE3" d="M381 228c7 13 20 23 30 35 6 2 10 7 14 3-3-10-5-14-9-19-11-9-22-15-33-19"/><path fill="#223C59" d="M329 419c-1 4-8 5-23 7-10 10-10 20-11 30 0 6 3 8 4 10 5 9 9 17 12 24-3-8-7-14-11-21 3-9 0-18 3-24 0-10 6-12 9-11 7-1 15 0 21 0 2 2 2 4 1 5-1-5 5-9 2-14-2-4-4-3-5-6"/><path fill="#8EA5A6" d="M172 341c2 5 1 12 3 16 3 5 4 9 7 11 5 6 4 1 4-2 6 5 6 10 9 15 8 4 14 6 20 8 19-4 24 6 46 1-6-4-19 2-22-3-4-6-6-12-13-16-6 3-2 8-3 12-10-1-17-4-26-8-4-15-14-7-21-15-5-7 2-12-3-16"/><path fill="#EEEDD4" d="M407 173c30 8 62 27 84 50 12 10 20 24 28 39-10-23-25-45-47-62-19-16-40-24-62-29"/><path fill="#437989" d="M476 396c-26 3-46 14-68 16-19 4-34-1-47-5 11 11 24 12 37 11 25-2 45-13 67-18 34 1 61-3 8-5"/><path fill="#304D65" d="M266 317c-4 8 0 18 4 23 6 9 12 17 22 17 5-5 2-12 4-17-2 4-10 1-12-1-10-3-12-24-19-19"/><path fill="#708F9D" d="M341 112c9 14 22 28 34 39 12 7 18 6 29 12-10-18-22-16-30-31-6 3-9-2-13-1-8-5-15-10-18-16"/><path fill="#4D687D" d="M131 268c-1 3-3 6-6 9-22 11-50 24-63 40-2-4-3 3-4-4 1-6 5-9 7-13-10 9-11 26-20 32 0-4-2-4 0-6-2 2-2 3-1 5 2 0 2 0 3-2 27-10 44-31 68-42 8-5 14-11 15-17"/><path fill="#375B71" d="M274 312c-16 11 2 3 2 21 5 2 9 9 17 7 2-6-1-13-4-18-5-6-8-10-13-10"/><path fill="#5F8190" d="M90 267c-6 8-17 3-22 11-10 12-11 26-20 37 3 0 5 1 4 4 12-17 19-38 38-50"/><path fill="#687C90" d="M134 205c0 5-19 3-24 7-1 6 2 10 2 14 14-4 17-2 19-8 9 8 12 5 2-13"/><path fill="#576B82" d="M139 221c-9 4-17 1-25 6 2 8-5 9-6 14-9-6-9-6-1 2 3-5 8-2 9-8 0 14 20 12 26 26-4-9-13-13-18-22 0-5 5-7 9-3-1-6-6-6-10-7 7-4 11 3 15 1 2-3 3-5 1-7"/><path fill="#4C7D85" d="M246 406c-14 5-31 3-41 6 5-1 13-2 18 1 6 4 4 10 6 11 7-4 29-9 19-17"/><path fill="#6A9598" d="M127 239c23 16 20 17 39 40-5-12-13-25-21-32-6-6-9-9-13-9"/><path fill="#243D58" d="M311 394c-12 17-7 3 5 2 10 10 19 13 28 20 6 3 13 3 16 0-15-1-24-18-41-19-4-2-5-2-6-1"/><path fill="#94A2A7" d="M360 421c-9 1-5 11 0 14 16 8 31 15 48 15-21-3-24-11-35-14-8-4-14-12-9-14-1 1-1-1-3-1"/><path fill="#465973" d="M129 271c-16 12-35 16-50 29-6-1-12-1-11-5-2 6-11 13-9 21 11-12 48-31 69-41"/><path fill="#283C55" d="M264 322c-4 17 2 22 8 32 6 5 15 10 22 7 2-1 1-5 3-6-1-5-1-8 0-10-1 2-1 5 0 8-4 6-8 5-11 3-12-8-21-19-23-31"/><path fill="#649696" d="M160 433c-3 5-8 2-12 3-9 0-14 5-19 8 8-3 62-1 31-10"/><path fill="#D2E7DF" d="M382 250c-2 3-3 9 2 11 5 5 9 8 14 9 2-10-6-18-14-20"/><path fill="#D5E8DF" d="M381 251c3-1 6-1 9 1 5 6 9 10 11 14-6 5-11 1-15-1-4-4-5-7-4-12"/><path fill="#FAF2D5" d="M392 336c-5 1-5 6-4 11 0 5 5 8 7 9 6-2 7-7 6-10-1-7-4-9-8-10"/><path fill="#767789" d="M475 402c-23 3-43 13-64 18-19 6-36-2-50-1 11 6 23 6 34 4 6-1 10-1 14-2 28-5 49-22 79-18 7 0 11 2 15 3-4 9-11 15-17 19 32-15 24-28-12-23"/><path fill="#81BCB1" d="M178 277c10 2-3 12 6 16 4 4 9 2 11 0 3-4 4-6 3-9-6-1-12-3-17-6"/><path fill="#80C2BA" d="M337 237c3 3-10 4-7 11 2 6 7 6 10 5 10-3 3-12 4-14-3 3-2-2-6 0"/><path fill="#2F1E24" d="M518 325c-2 8 1 24-1 37-1-9 13-9 9-21 6-12-9-1-7-17"/><path fill="#CD7F6B" d="M399 372c-10 4-21 5-32 6 4 5 9 7 16 6s12-6 15-10"/><path fill="#86ACA9" d="M270 226c-15 10-27 20-30 32-3-2-2-5-1-8l2-1-2 2c-5 9-10 20-19 28 8-4 11-14 17-18 7-11 15-18 24-24 21-17 59-8 5-11"/><path fill="#5B6481" d="M376 174c6 12 23 8 36 21-6-6-11-14-20-20-5-1-7 0-10 0"/><path fill="#DBEAE1" d="M382 252c1 3-1 8 4 10 4 5 8 5 11 7 1-8-5-18-13-17"/><path fill="#B4CEC0" d="M267 212c-7 10-16 19-19 31 6-7 16-12 23-19-2-1-3 4-6 2 1-5 6-9 1-11"/><path fill="#6D7A88" d="M347 122c20 27 18 20 42 47 2-3 2-4 15-2-5-7-20-12-19-6-10-9-26-24-36-36"/><path fill="#588691" d="M147 280c8 12 10 26 17 38 5 5 10 0 15 5 3 3 5 6 6 9 0-4 0-7-2-11l-1-1-1 2c-7-3-4-7-17-8-7-12-6-25-15-32"/><path fill="#425A77" d="M177 324c2 12 9 24 20 33 14 12 19 8 32 7-10-4-18 3-27-5-11-14-19-18-22-32"/><path fill="#3F4966" d="M129 269c-14 10-30 14-43 25-7 3-10-4-12-3-3 2-4 4-5 6 5-3 3 5 7 2 18-13 36-17 52-28"/><path fill="#586780" d="M149 217c-6 3-7 5-5 15 6 1 10-2 10-7 3 3 3 5 4 8 4-6 0-9-2-12-2 2 0 0-2 5-3-3-3-5-4-8"/><path fill="#4D5771" d="M156 225c-2 14-14 3-16 9-2-3-1-3-7-3-1 1 2 7 4 5 6 1 10 3 13 4 4-3 4-6 5-9 2 2 2 4 1 5 9-12 1 3 0-9"/><path fill="#EFEEDC" d="M110 182c-1 6 13 5 18 13 7 7 9 14 12 20-1-7-3-14-7-20-7-8-14-12-22-12"/><path fill="#80A3A9" d="M101 203c-1 15-8 10-6 16 3 2 7 7 12 5 0-6-3-12-6-17"/><path fill="#794842" d="M400 368c-12 2-24 9-38 6 1 3 3 4 4 6 5-6 29-3 35-11"/><path fill="#3A657A" d="M528 288c-1 8-6 15-8 23 3-3 7 2 8 5 3-9 1-18-1-26"/><path fill="#6E788A" d="M363 171c-5 1 10 5 13 8l3 1-3-1c5-4 0-1-2-4 7-2 14-2 19-1-7-5-18-3-27-4"/><path fill="#4D5269" d="M440 384c3-2 7 1 8 3 0 4-1 7-3 8-5 0-8-1-7-5-1-3 1-3 0-5"/><path fill="#596780" d="M389 164c6 11 17 18 22 27-3-8-9-15-11-23-3 7-5-7-8 0"/><path fill="#F3F2E1" d="M346 106c11 5 23 14 35 8-10-4-23-4-33-8"/><path fill="#1F2841" d="M535 407c-8 0-15 1-21 3 8 3 60-2 21-3"/><path fill="#DCE8DF" d="M388 119c6 10 11 20 14 31 1-12-4-21-13-28"/><path fill="#82B4B2" d="M278 238c11-5 8 11-1 8-5-3-1-5 0-6"/><path fill="#7AACAF" d="M393 274c4-2 12 5 8 9-6 0-7-3-9-7"/><path fill="#F8F2D8" d="M522 319c-3 4-2 12 2 15 3-6 3-12 1-15"/><path fill="#404A62" d="M498 377c7-3 7 10 1 10-5-1-3-7-2-8"/><path fill="#5F818F" d="M126 234c-6 8 11 15 15 22-1-5-9-8-11-15-3-6 3-5 4-3-2-2-4-2-6-3"/><path fill="#558691" d="M213 354c-7 14 10 3 14 8-2-4-6-7-11-7"/><path fill="#DEE8DB" d="M200 411c-15 9-28 23-48 22 9-3 18 2 27-4 7-8 14-16 24-18"/><path fill="#639698" d="M173 275c-9 8 1 4 5 11 3-2 3-4 4-5-3-3-5-3-7-4"/><path fill="#2B3D58" d="M248 452c-22 4-15 5-34 6-15 1-28-2-41-3 14 2 28 5 44 4 12-1 21-4 30-7"/><path fill="#395D72" d="M299 320c6 0 7 11 1 13-3 0-2-8 0-10"/><path fill="#3A3460" d="M406 361c2 6-13 20-2 14-3 7-9 4-13 11 3-2 7-2 9-5l2-1 1-1 1-2c2-5 3-10 4-14"/><path fill="#EEEEDA" d="M91 261c-8 2-16 3-21 10 7-2 14-5 20-10"/><path fill="#537182" d="M126 256c22 24 11 7 30 35-6-13-15-25-27-34"/><path fill="#B5D9CE" d="M230 435c-6 2-12 2-18 4 6 1 13 3 17-3"/><path fill="#6C7988" d="M138 199c3 11 4 8 6 21-3-4 6-4 5-3-2-5-5-11-11-15"/><path fill="#87B9B1" d="M145 253c-2 3-1 7 1 11 4-4 4-10 1-12"/><path fill="#709B9D" d="M233 410c2-1 5 0 6-1 2 7-12 9-8 2"/><path fill="#2A4A64" d="M489 455c6 9-10 10-3 13 2 2 4 1 6 2 2-5-1-7-2-13"/><path fill="#151A29" d="M522 392c-18 23-18 22 11 13 8 2 15 1 20 4-13 0-22 3-31 4 9-1 18-4 29-2l1-1 1-2 2 3v-1c-6-3-13-4-19-5-9 0-15 2-21 3-1-7 6-10 7-15"/><path fill="#2D4B63" d="M308 360c4 0 1 12-5 10-1-3 4-6 5-7"/><path fill="#242020" d="M145 285c11 21 14 46 25 68 1 3 3 4 3 5 6 15 14 26 23 37-10-12-18-25-25-40-11-23-14-47-25-68"/><path fill="#8D9898" d="M473 424c4 0-2 10-5 11-3-4 2-5 3-8"/><path fill="#3E6477" d="M292 308c1 0 7 3 5 9-3-1-5-3-6-7"/><path fill="#4B6C83" d="M165 319c3 4 7 2 11 5 9 6 7 16 13 21-6-5-5-15-9-20-5-5-10-3-13-4"/><path fill="#161326" d="M398 327c10 26 8 25 11 41 0-7 1-15-2-23-3-5-2-6-7-14"/><path fill="#86BAB5" d="M49 316c-2 3-3 6-4 9 5 0 7-4 7-7"/></svg>