<svg xmlns="http://www.w3.org/2000/svg" width="600" height="600"><path fill="#526367" d="M382 99c12 0 31-3 41 7 10 7 18 11 22 25 152 74 53 55-51 22 14 10 24 12 33 18 8 7 15 13 18 21 4 7 4 14 5 21 0 11-3 18-7 25-11 18-29 36-37 38-9 12-13 21-14 31-3-15-8-12-6-20-6 9-12 16-13 29-6-4-2 3-8 8-2-2 1-5-1-9-11 15-15 30-28 41-3 3-7 8-8 4 12-16 16-32 21-47-9 14-22 25-35 38 5-13 10-24 17-34-20 25-51 41-61 68-1 28 8 57 15 82 3 5 4 5 7 6 7-3 33-1 46 0 3 3 4 9 8 13-20 4-41 2-60 2-4 3 0 6-4 9-33 1-64 2-92 2-6-16 20-5 16-21-17-1-32 2-48 0-3-43 0-51 2-100 1 7-9 9-3 17-5 4-5-6-6-8-1 15-4 30-3 43-13-7-21-19-28-33-2 10-1 18 0 27-2 7-4 14-11 9 0 4 1 5 2 7-11 3-9-11-15-14 1 15 6 27 14 39-5 7-15-1-20-4-8-14-11-28-13-41-2-15-1-28-2-41 8-27 29-69 27-78 7-22 27-46 40-63 13-18 37-24 44-36 23-5 69-20 102-19 16 1 29 4 40 10 20 6 31 22 46 32 10 4 19 4 26 0 6-2 10-6 10-10 1-6 3-10 1-13-17-17-23-8-39-26-5-3-8-12-13-19-10 10-13 14-22 20 3-14 8-16 15-27-12 9-24 14-35 22 13-19 21-26 40-35-15 8-37 14-54 23 13-17 41-31 55-35-28 13-60 18-84 37 10-15 25-24 40-32 15-9 28-16 46-13 4-10 12-17 21-17"/><path d="M246 351c-11 5-15 21-21 30-2 33-6 67-3 90 3 1 3 8 5 9 21-7 27 9 42 7 7-6 6-13 5-19-6-26-9-50-21-71 1-14 9-23 11-34-4 0-9 2-13 2-7-5 0-11-2-14M216 360c-8 4-20 5-26 12-5 28 7 60 1 91 1-31-15-56-10-88-7 3-6 12-10 17-4-3-1-7 0-11-3 0-5 1-7 2-2 30-3 61-4 91 18 1 33 1 50 0-1-21 4-53-4-73 6-14 9-27 11-39"/><path fill="#0A1522" d="M269 251c-16 12-43 22-63 31-13 8-23 16-33 25 10-3 1 11 10 12 6-5 4-16 11-19 0 11-4 16-7 29v2l1-5c4 4-3 19 3 31 9-1 17-3 25-5-8 6-23 6-26 14 9-3 19-6 26-9l1-1v-1h1v-3c-1-6 0-13-1-20-5 0-17 7-15-2 3-8 17-10 11-19 11-3 23-12 34-16 3-5 4-10 9-12-7 2-13 3-18 5-5-4-2-9-2-12 12-10 25-18 36-25"/><path fill="#11242F" d="M287 292c-12 15-40 51-43 53 3 3 7 2 12 3-2 8-7 8-5 13 10-2 13-5 11 0 4-5 5-8 6-12-4 18-1 21-5 28 1 8-7 4-2 6-3 3-2 6-5 5-2 10 10 6 10 12 2-1-1-9-8-5-1-5 1-7 2-10 2 0 7-3 6 1 8-17 21-35 38-46 2-4 2-6-1-11-5 1-8 7-11 5 10-11 16-18 23-27-9 9-19 11-30 17 3-8 10-13 14-21-12 5-14 8-26 11 9-8 25-19 16-21"/><path fill="#19303C" d="M241 300c-6 3-13 6-18 10-2 3-2 4-1 6 1-2-1-8 7-6-3 10-8 8-5 23-5 1-9-6-7-14-4-3-12 9-14 13 10-7 19 7 15 1 3 22 2 41-5 57-2 5-2 5-1 2 3-3 4 5 7 8 0-22 6-5 1-21l2-1-1 1c2 0-4 11-4 3 1-4 3-7 5-6 3 3 4-3 5-4l1-2-1 1c-1 0-1 4-2 4-4-2 2-7-1-6 2-2 4-3 5-2-4 1 52-69 28-55-7-4-10-8-9-12-3 1-5 6-6 0"/><path fill="#0E2133" d="M178 308c-9-3-22 14-35 20-6 6-10 10-12 15 3 0 5-10 9-13 8-2 6 6 8 9 1-2 0-12 4-11 8 6 2 25 7 45 1-12 1-30 2-45 5 15 3 31 4 45 2-1 4-4 8-5-1 6-10 7-9 11 6 0 8-2 7-6 2-1 1-3 2-4 4-16 8-38 11-47-2 1-4-4-6-5 7-2-3-4 0-9"/><path fill="#27332F" d="M278 452c-11-1 8 20-5 33 22-3 46 3 69 1-13-5-3 2-17-4 3-4 7-2 11-1 2-3 7-3 1-6-15 1-30-3-44 4-12-11-14-17-17-26"/><path fill="#F5F6F2" d="M170 216c-9 5-17 11-26 19-7 11-12 19-21 26-8 16-18 30-20 44 5-8 25-19 27-31 1-1-2-3 0-3-4 1-6 9-11 9 9-12 17-20 25-30 3-6-1-7 1-13 11-9 15-17 28-22"/><path fill="#0D2231" d="M125 353c-2 9-7 10-6 18-1-5-4-8-4-10 2 5-9-3-11-1 0 11 4 32 12 42 0-7-2-19 3-26-1 15 4 9 10 25-3-15 1-48-5-46"/><path fill="#0F2433" d="M287 240c-3 15-15 5-31 23 5 7 9 6 10 8-1 4-2 5-3 7 1-3 3-2 3-5 3-1 6-2 6-3 6-4 4 3 8 2 13 2 13-15 26-9-10-3-25 0-26-6 6-3 9-6 13-3-2-1-4-4-3-6 10 0 8-1 0-7"/><path fill="#1F4052" d="M144 332c-2 6-9 3-15 17 4 13 1 26 13 33 4-13 5-34 2-49"/><path fill="#DFE5DF" d="M354 219c2 2 3 2 3 5 3 11 0 13 18 20 12 0 22 3 33-2-10 1-22 3-30-2 4-4 24 1 29-9-7 4-14 2-19 3-13-3-21-11-31-15"/><path d="M129 361v33c4 12 7 21 14 29 1-14 3-26 2-36-4-3-8-5-10-9-4-5-5-10-6-14"/><path fill="#F4F4EC" d="M383 105c-15 8-1 4-10 19 8 1 8-5 15-2 4 3 1 4-2 5 12-7 29 19 30 9-4-10-16-14-12-18-8-6-15-9-21-13"/><path fill="#B7C9C5" d="M77 387c-2 9 1 15 0 24 7 18 13 39 16 47 6 8 9 6 14 8-11-9-7-27-17-44-4 6-3-7-11-9 1-8-3-11-3-24"/><path fill="#2C5064" d="M172 285c-5 8-3 0-4 9l-3-2 2-2-1 3-3-1c5-3 0-3-2-4 1 1 5 2 3 4-4-6-15 5-16 9 5-2 12-3 16-3 2 3-1 4 3 6-8-1-16 15-22 20 14-10 64-39 23-37"/><path fill="#D5D9CE" d="M420 186c-5 8 8 20 4 34-6 2 0-3-11 11 1-4 1-9 3-11-3-2-4 3-5 1h-3l-2 2 3-1 2-1c0 7-10 8-3 11-5 1-5 7-9 5 8 1 14-6 19-9-4 8-9 10-15 13 5 0 9 3 13-3 7-6 11-14 13-22 5-17-9-21-8-28"/><path fill="#31505A" d="M446 224c-7 15-16 15-29 36-3-9 11-14 12-23-1-3 0-8-2-9-23 24-8 21-17 37-13 4-21 10-26 4-3 5 4 4 7 3-10 12-5 0-15 11 4 1 7-5 11-5-6 7-11 14-16 19v3-2c4-10 20-17 22-23 6-5 10-8 15-9 7-8 6 5 17-11 0-15 19-15 20-29"/><path fill="#C0C6B9" d="M368 133c-1 12 7 17 11 26 9 13 4-7 19 9-6-12-11-22-19-31l-1-1-1 2c-2-3-4-4-7-3"/><path fill="#F7F7F1" d="M380 99c8 7 36 13 49 15-4-10-10-9-14-13-11-4-24-1-32-1"/><path fill="#CED8CF" d="M263 218c-5 1-7 6-3 10 6 3 10 2 14 0-3 5-9 5-13 3 2 5 5 9 9 12 3-7 7-4 8-2 0-5-5-7 0-10 6-5 1 4 2 5 6-3 10-9 8-14-5 7-9 0-11 5-5 1-9-6-12-8"/><path fill="#728380" d="M362 140c4 11-1 17 11 28 8 8 15 13 25 15 3-2 5-5 2-7-13-4-26-23-26-11-8-9-9-19-11-23"/><path fill="#16303F" d="M296 219c0 7 5 5 7 12l2 2 1 1v2l-3-2-3-3 4 4c-4 0-7-3-10-3-2 5-5 7-8 9 4-4 8 4 11 4-13 3 0 10-17 9 3 4 6 6 10 5 3-1 3-6 14 0-2-2-5-1-6-4 2-3 6-4 8-5-8 0-3-6-6-10 5-4 9 0 5-5 8 3 7 2 9-3-8-4-6-4-9 0-3-7-4-7-8-10"/><path fill="#3F6B79" d="M444 138c-1 6 3 3 7 6-28 6 22 17 24 21 2-12-23-20-30-25"/><path fill="#E5EAE2" d="M279 185c-30 1-40 9-66 11 3 2-1 5 5 3 0 4-1 6-3 6 9 3 21-6 35-7-13-2-22 2-32 1 19-6 40-7 54-8-4-1-12 0-12-2 7-3 25 0 20-6"/><path fill="#213E4C" d="M298 225c0 5 6 8 9 11-2 2-3 2-4 3 3 4-5 9 3 10-9 2-4 10-14 8 25 11 6-10 33-1-6-3-16-2-15-9s5-3 8-3c-2-1-5-2-8-3 9 0 11-1 9-8 0 1-1-2-2-1-5 0-2 9-7 5-8-2-4-9-11-11"/><path fill="#091521" d="M289 277c-7 6-14 11-20 19-7 2-12 3-16 5 7 0 14-3 21-3l-2 3h2l-1 2c-9 12-17 25-26 37 10-17 25-28 35-43-3-1-5 2-8 4 10-12 18-16 12-24"/><path fill="#E1ECEC" d="M132 281c-7 5-10 12-12 16-6 13-8 24-10 35 4-12 10-13 19-28-3-10-4 1-7-2 4-9 8-14 8-20"/><path fill="#5A7274" d="M398 164c2 3 4 6 7 7 14 5 25 21 27 19-1 7 6 6 3 11 3-5 7 4 10 4 5-13-13-21-9-24-5 1-7 4-11 1-2-3-19-8-16-17-2 0 1 4-2 4-1 1-5-5-8-3"/><path fill="#1E3F50" d="M107 334c-3 0-4 25-12 33-2 9 2 21 5 23 0 18 2 33 6 45-2-15-6-23-4-40 3 1 3-7 6-5-6-5-7-3-7 4-4-25 6-50 9-60"/><path fill="#396471" d="M419 152c24 11 50 20 69 21-17-5-32-15-63-19"/><path fill="#31545F" d="M250 245c-2 1-6 9-9 2-8 7-5 9-9 17 4 2 38-7 18-18"/><path fill="#142E40" d="M151 326c4 6-1 41 0 58 2 0 2-5 7-3-2-26-2-48-5-54"/><path fill="#4B666A" d="M396 155c-2 4-2 4 3 10 7 2 8 8 9-1-1 4 3 8 6 9 10 13 21 4 23 12-7-10-15-15-26-20-5-5-15-5-14-10"/><path fill="#61838A" d="M218 239c-23 10-3 6 5 7 3 4-1 6-2 8 3 0-1 8 5 7h2l-3-1c6-4 9-8 15-13-8-11-17 2-24-5"/><path fill="#517681" d="M245 230c-6 2-7 1-5 8-3-6-8 2-16-6-9 7-7 7-7 12 14-7 5 5 18-4 2 3 3 5 3 7-1 3-3 5-4 7 1-2 3-4 5-5 4-10 6 7 8-9 8-6 8-6 2 0-1-9-9 2-4-11"/><path fill="#18303D" d="M311 260c-5 3-18 0-3 2-18 9-31 11-41 11 10 8 26-6 39-9 0 3-6 5-9 8 3 4 1 4 8 3-6 10-19 15-14 20 27-19 48-38 7-6 3-7 7-10 10-14-2-2-6 0-8-2 14-6 7-13 21-14-3 0-6 0-8 1"/><path fill="#10232F" d="M244 298c-5 0 12 15 17 14l-4 1h-2l3 1h2c1-3 4-7 8-8-3 7-12 13-9 12 4-3 7-7 9-11 4-4 5-7 8-9-6 0-27 8-29-1"/><path fill="#32515D" d="M319 235c1 1 5 3 1 6-4-1-6-2-8-2 8 7-6 1 0 11 4 2 8 4 12 4-5 3-12 0-18 2 3 5 14 1 21 3-9-2 8-6-1-4-2-3-2-4-2-5 7-3 16 1-2-5 4-4 7-1 10 0-16-7 0-8-10-10"/><path fill="#0C2434" d="M387 144c3 9 12 9 18 12 8 1 20 5 27 5-6-2-11-4-16-7-5-2 0-3 0-4-9-1-17-4-27-5"/><path fill="#E4E6DD" d="M195 228c-6 0-10 6-14 6-4 4-7 7-8 10 7 0 10 4 16 0s2-12 5-17"/><path fill="#3F6472" d="M198 256c-10 11 3 14-13 27 6-4 13 5 27-8-5-4-8-8-14-3-2-6-1-11 0-15"/><path fill="#E8EADD" d="M376 102c1 10-14 0-2 6-5 4-5 11-6 21 4 1 6 1 5-2 8 1 13 6 20 2 4 2-1 1-1 4 5-1 5 0 4-5 6 8 7 4 13 7-4-1-7-4-10-6-4-3-8-3-11-5-10-4-4 1-13 2-2-3-1-7-2-8 1-2 2-1 5-2-2-2 1-6-4-2l1-3v-1l1-2c4-5 6 2 4-6 1-2-1 5-3-1"/><path fill="#E3E9E0" d="M237 212c-5 0-8 4-11 5-4 1-9 0-12 0 5 2 6 0 10 1-3 6 0 12 7 13 10-12 5-11 12-22"/><path fill="#B4CACC" d="M325 195c22 9 17 19 51 32l1 2h2c6 2 12 4 19 4 1-5 7-6 8-8-7 7-19 5-27 4-19-10-31-28-49-33"/><path fill="#8BA8AE" d="M168 251c-5 0-9 8-17 6-2 6 3-2 4 5-6 5-9 8-15 8v3l1-3c3-2 0 7 3 7-2 4-2 7-4 9 2-2 5-4 4-6 9-11 21-21 28-30"/><path fill="#9EBCC2" d="M84 372c-10 4-5 16-7 26 0 11 7 16 12 27 0-15-13-34-6-51"/><path fill="#25434F" d="M433 234c-3 4-5 9-8 13-1-4 2-7 2-11-17 13 1 6-14 23-6 5-13 7-19 11 5-1 11-5 15-6-6 5-12 8-18 12 8-4 18-6 24-12 2-3-2 1-3-1v-1l1-1 1-2c8-4 10-13 16-16-5 22 24-23 1 2-3-4 5-7 2-10"/><path fill="#E4E9E1" d="M276 208c3 9-15-3-3 8-4 2-6 1-7 2 2 5 7 8 10 8 3-2 3-6 1-9 3 2 6 4 3 6 3 1 5 2 6-2 0-4 0-7-3-8-2-2-5-1-4-4"/><path fill="#253132" d="M218 457c1 10-1 21 1 31-24 16 27-4 33-1-10 0-19 0-26-1-8-10-7-16-8-28"/><path fill="#263333" d="M259 400c2 6 10 33 14 47 7-22-10-10-4-46-4-2-6-2-8-3"/><path fill="#1A323E" d="M255 264c-6 3-12 7-18 10 2-1 4-2 7-1 2 2 5 2 5 5 0-2-2-2-1-5 7 9 10 6 13 7 13-12-3-8-5-16"/><path fill="#1B303C" d="M327 314c-12 7-13 3-23 12 0 4 1 5 3 7-10 9 0 6-8 12 16-9 21-25 24-29"/><path fill="#D9E8EA" d="M115 331c-4 11-6 16-8 27 7-1 9-4 14-7-6-1 0-7 0-9-4 9-2-6-5 4 2-7 6-14 0-13"/><path fill="#C3D8DD" d="M156 271c-3 2-5 4-8 6-6 9-10 14-12 23 5-7 41-37 19-25"/><path fill="#F4F4EF" d="M253 206c-2 2-5 0-7 1-11 3-23 2-29 9 14-13 88-2 37-12"/><path fill="#244356" d="M179 281c-2 2-5 0-7 1-7 1-9 6-13 7 6 8 14-5 15-2 6 5 11 2 14 5 21-13-10 2-7-12"/><path fill="#699BA8" d="M438 134c18 8 40 25 60 32-16-8-44-31-58-32"/><path fill="#19323F" d="M354 288c-4 14-21 22-23 36 6-3 12-7 16-12 11-14-7-2 7-23"/><path fill="#31505C" d="M288 213c9 7 17 14 27 17-6-5 0-5 0-6 4 0 7 2 10 3-17-11-11-10-36-13"/><path fill="#A3B9B7" d="M294 190c-7-2-7 5-13 5-6-1-8 0-11 0 3-2 5 1 8 2 3 2 1 2 0 3-6 2-11 2-16 1 6 0 12 6 17 2 6-5 5-6 13-3-4-1-8-3-11-4h-2l1-3c28 12 27-6 12-2"/><path fill="#5E8491" d="M94 384c-2 9-5 17-6 25 2 8 8 7 5 15 4-12 2-25 1-37"/><path fill="#223B45" d="M246 270c-21 12-2 21 12 9-8-3-10-5-13-4"/><path fill="#588296" d="M153 300c2 5-3 0-11 8-3 8 1 10 0 14 13-13 6-8 14-21"/><path fill="#99B6BC" d="M153 260c-7-1-9 10-13 8l1 2-1 2c-2 4-6 13-5 24 4-10 12-21 6-23 4-3 10-12 15-7v1l-2 2 3-1v-2c-5-1-1-4-3-5"/><path fill="#6C96A6" d="M141 310c-7 7-7 7-9 16-2 3 1 7-1 10 6-3 5-8 11-10-3-7 1-11-3-13"/><path fill="#3C545B" d="M315 287c-6 5-15 24-12 22 2 1 0-1 14-10-4-3 5-8-2-11"/><path fill="#264E60" d="M111 316c-4 16-19 35-18 57 7-20 14-41 17-53"/><path fill="#587072" d="M375 170c-4 8 5 7 4 10 8 6 19 9 24 10 1-5-2-7-1-11-1 2-3 4-3 6-10-3-17-7-23-12"/><path fill="#99B8C2" d="M160 279c-1 2-3-1-4 1-9 9-4 6-7 14 5-3 26-15 12-15"/><path fill="#F3F4ED" d="M194 199c-32 15 13 3 23 7-2-9-30 2-22-7"/><path fill="#A0B6B6" d="M174 250c-2 7-5 10-3 16 6 1 11-1 14-4-10 0-4-7-10-11"/><path fill="#E2E4DA" d="M408 184c5 11 1 18 8 15-7 1 0 16-6 20 10 1 7-7 9-11-1-10-6-15-9-21"/><path fill="#CFDBD5" d="M171 225c-10 1-12 13-19 13-1-4 5-6 3-8 0 4-4 1-4 3-8 21 10-1 1 16 8-7 10-16 17-22"/><path fill="#E1E4DB" d="m205 225-6 3c-4 3-4 7-3 10 4-4 9 3 12-3-7-3 6-9-2-11"/><path fill="#25434F" d="M416 133c1 2 5 6 6 10 5-3 7 3 11 0-6-1 3-3-2-7 3-2 3 2 6 0-5-7-13-2-20-2"/><path fill="#B4CBCF" d="M171 254c-7 5-12 11-17 18 4 0 3 3 11-3 5-8 1-10 8-15"/><path fill="#91A09A" d="M377 131c7 3 14 8 20 13 13 4 7-6 21 0-15-1-26-11-40-13"/><path fill="#DDEAED" d="M112 305c-11 16-16 35-21 54 6-19 15-37 24-55"/><path fill="#CFD9D2" d="M257 195c-27 0 6 4-26 7 14-3 65-2 24-8"/><path fill="#3B6874" d="M352 132c-14 1-25 9-39 19 13-1 29-15 37-17"/><path fill="#2E5261" d="M197 245c-2 2-10 4-17 3 5 0 10 5 15 7-1 4-5 6-6 8 3-2 5-4 7-7 3-4 13-13 1-10"/><path fill="#BECAC3" d="M281 229c-1 4-3 0-3 4-3 1-1 3 1 3-4 3-10 4-9 7-5-3-8-7-10-12-4 3-2 6-3 8 4 11 7 4 12 4l2 1 1 1 1-2c4-2 3-1 5-5 5-7 10 1 0-6"/><path fill="#E5E7DF" d="M195 214c-7 2-14 6-16 14 15-3 14-7 16-14"/><path fill="#233942" d="M222 342c4 7 3 23-1 30-2-9 0-17 1-26"/><path fill="#23404D" d="M330 259c-6 1-13 0-17 4 0 1-3 5-12 9 14 2 20-14 35-13"/><path fill="#10202C" d="M188 337c-4 12-6 23-11 36 11-6 0-2 11-17-1-6-1-5 1-18"/><path fill="#26404B" d="M293 269c-12 13-24 3-28 9 6 2 9 0 10 7 8-8 14-11 15-13"/><path fill="#23404E" d="M286 237c-5 4-10 8-15 11-8 3-12 1-15-7-1 2-3 2-5 3 4 5 6 8 7 11 4-8 21-3 26-17"/><path fill="#759297" d="M304 203c7 7 22 14 30 24-2-9-18-14-9-18-11-6-15-3-19-6"/><path fill="#9ABCC6" d="M132 316c-4 3-11 1-13 9 1 2 4 3 6 2 0 8 4 11 4 14 0-4 0-10 1-16-3-2-1 4-6 2 3-5 5-7 6-10"/><path fill="#BFC7BD" d="M370 264c-6 12-22-2-25 7 4 0 31 5 33-8"/><path fill="#2B444D" d="M336 284c-8 1-6 8-12 11 4-1 5 2 7 4 3-5 8-10 7-16"/><path fill="#4C717F" d="M190 263c-1 2-1 4-3 4 0 5 0 11 3 13-3 2-4 1-5 3-2-1-3-3-2-4-1 2-1 3-1 4 6 4 12 0 13-1 0-2-3 3-5-1h3l-2-1c0-4 6-9-1-8 3-4 9-8 2-9"/><path fill="#B6C7C4" d="M293 183c-37 20 11-1 24 9-9-4-15-6-24-7"/><path fill="#16313D" d="M120 376c-4 4-1 10-2 15 6 0 8 20 15 23-3-18-16-24-13-35"/><path fill="#243E49" d="M387 273c-7 1-13 5-18 11-3-2-1-7 0-10-3 6-5 11-9 16 8 1 14-10 25-15"/><path fill="#497484" d="M91 366c0 29-12 15-5 36 3-24 3 12 7-21l2 2-2 2c-1-5 0-10-2-14"/><path fill="#475F65" d="M298 293c-7 5-12 12-18 17 6-3 26-12 21-17"/><path fill="#1B333F" d="M359 304c2 3-7 7-9 16 0-3 5-1 6 0 4-3 12-19 7-12-4-2 1-2-4-2"/><path fill="#75969B" d="M248 221c-8 11 2 5 4 15 4-2 4-8 9-6-3-2-6-4-7-7-2 3-4-4-5 1"/><path fill="#55737B" d="M295 209c-27 0 26 1 27 17-4-11-3-10-10-14-6 1-10-3-15-3"/><path fill="#50737C" d="M107 404c-1 2-2 12-1 19-1 8 4 8 7 10-4-9-3-19-5-29"/><path fill="#5C6F71" d="M258 283c-8 7-2 5-10 14 6 0 11 0 12-4-5-2 2-5-1-8"/><path fill="#E9EADD" d="M403 171c1 11 9 13 15 22 3-11-8-15-13-20"/><path fill="#D4D9CB" d="M375 103c-5 3-9 6-11 11 5 3 1 8 4 13l-1 2v1l1 2v1c3 2 6-1 8 4 0-4-2-6-1-9 0 3-5 3-6 2-1-15 0-18 5-24"/><path fill="#456368" d="M447 205c-8-2-2 24-8 28 4 7 2-12 8-11-2-7 2-11 0-17"/><path fill="#E3EAE6" d="M142 256c-4 4-8 12-14 13 3 6-1 2 5 4-5 5-4 8-8 10 3-2 6-6 8-7 9-8 7-14 8-18"/><path fill="#C4DDE0" d="M120 291c-7 15-19 14-22 35 3-7 15-23 22-31"/><path fill="#D6DCCF" d="M383 129c5 5 22 10 30 13-5-6-9-7-14-12-12 10 0-6-15 3"/><path fill="#5D7172" d="M347 263c-7 8-8-2-15 6-4 6-9 11-13 15 19-11 14-16 34-20"/><path fill="#244250" d="M222 255c-4 4-9 7-14 9-1 6 8 3 10 8 0-5 1-11 3-15"/><path fill="#0E1C29" d="M222 287h1c-3 5 2 6 4 6-8 3-24 2-7-6"/><path fill="#95A49C" d="M359 125c-2 18 3 6 9 21-3-5 0-21-8-19"/><path fill="#2E5260" d="M434 133c0 1-5 0-1 1 3 0 3 2 5 2-3 2-4 1-5-1 4 5-5 7 1 8-9 1-6-2-11 0 8 4 4 4 11 4 8-7 20-5 1-13"/><path fill="#173140" d="M110 391c0 13 2 23 7 27-1-7 0-16 0-21 1 2-1 4 0 7-2-5-6-7-7-10"/><path fill="#E7E9E0" d="M182 209c-1 5-13 8-18 12 5 1 9 1 12-1 4-4 9-7 7-9"/><path fill="#E6ECE3" d="M252 210h-2c-5 3-3 5-4 8 5 0 22-12 8-9"/><path fill="#27404B" d="M332 267c-6 2-10 9-21 8-1 2 6 2-2 8-4 3-7 7-10 7 3 0 5-5 8-6 3 2 6 3 1 6 14-14 14-14 21-22"/><path fill="#34535B" d="M351 324c0 3-2 2-3 1-2 6-5 11-7 16 1-3 18-10 11-17"/><path fill="#102635" d="M288 215c3 4 6 9 4 16 5 0 8 3 11 5-3-3-10-12-6-13 6 3 7 8 12 9-3-7-1-1-10-9-3-2-5-5-8-7"/><path fill="#5A7275" d="M415 266c-12 8-12 7-23 13 4 1 7 5 0 10 7-7 15-16 21-20"/><path fill="#0E212F" d="M265 251c-17 16-41 15-57 29 20-8 42-17 60-29"/><path fill="#0A1A28" d="M124 349c-4 6-9 9-14 12 2 2 4-1 7 1v8c0-17 16-11 7-20"/><path fill="#1F3C4B" d="M114 410c-1 1-7 4 1 23 6-11-4-17 0-23"/><path fill="#CBD6D0" d="M79 420c2 13 7 31 10 37 4-2 5-2 6-5-1 1-1 2-5 4-3-14-7-24-10-34"/><path fill="#3C525A" d="M262 281v-1c7 4 4 6 6 13l6-6c-4-6 1-8-9-6"/><path fill="#8DA7A9" d="M303 195c-17 4 24 9 23 18-4-7-9-9-15-11 7-4 10 3 12 1-7-3-11-5-23-9"/><path fill="#1D2E33" d="M270 378c-2 5-6 10-11 5-7 9 8-6-2 11 4-2 7 0 9 1-1-5 1-10 4-14"/><path fill="#19272C" d="M221 387c-2 4-2 9-1 15-3-8-6-5-7-13 3 17 8 16 6 35-1-13 5-21 2-38"/><path fill="#ADCBD2" d="M87 354c-6 6-6 15-10 22 7-3 10-15 11-21"/><path fill="#618087" d="M319 219c6 4 6 9 13 13-2 5-7-2-5 3 5 5 6 0 13 5-10-2-7-21-18-19"/><path fill="#D2DAD0" d="M213 228c-10 4 0 5-6 9-5 2-8-1-11 1 3 4 10 3 13 2 7-5 2-9 3-11"/><path fill="#6C827F" d="M430 189c8 13 6 17 10 33 1-6 2-12 1-18-6-3-8-8-9-14"/><path fill="#B8CAC7" d="M170 224c1 5-7 9-8 13-2 7-9 13-9 14 6 1 8-1 11-3 0-4-3-7-2-8 3-7 9-12 10-16"/><path fill="#55868E" d="M331 122c0 3-3 9-4 2-2 3-6 6-5 8 10-4 36-12 10-8"/><path fill="#B9C9C5" d="M201 255c-2 3-1 8-2 11 3-1 5-1 11-5-6 0-1-10-8-5"/><path fill="#375057" d="M326 296c-2 0-3 1-4 2 0 6 1 11-3 14 6-4 16-17 8-15"/><path fill="#3C6A74" d="M310 135c-10 5-20 11-28 19 13-10 28-13 33-20"/><path fill="#4A6064" d="M261 281c-3 6 4 13-1 15 1-2-6-2-3-1 5 0 7 0 9-1-1-9 2-8-3-12"/><path fill="#495F65" d="M306 297c-2 3-7 9-8 12-5 8-3 9-9 10 4-1 13-4 18-11-4-1-2 0-7 3 4-7 6-8 6-12"/><path fill="#6F8181" d="M395 281c-3 2-6-1-8 4-7 7 9-9-1 6 3-6 6-1 7-5-6 4-3 11-3 17-3-6 18-30 6-17-8-2 3-2-3-3"/><path fill="#132F43" d="M141 327c0 5-4 5-3 8 5 5 1-5 7 0 3 9 1 17 2 24 3-8-2-23 3-23-7 4-2-10-8-6"/><path fill="#445150" d="M218 459c-1 9-9 15-4 26 5 3-5-10 4-3-1-6 0-14-1-21"/><path fill="#122E3F" d="M101 370c3 11-3 8 0 22 0-2-1-4 0-5 4-2 5 3 7 1-6-7 0-18-6-16"/><path fill="#CFDAD4" d="M280 185c2 4-13 2-18 4 22-1-6 7 20 3-2 0-3-2-5-2 10 0 16-9 4-4"/><path fill="#BACAC4" d="M230 197c41-9 28 9 39 3-2-7-1-7-21-6"/><path fill="#4C778B" d="M156 300c4 3-4 4-5 3 1 0 3 2 3 4-2 5-4 1-4 6 0 2 20-15 8-12"/><path fill="#47727F" d="M477 157c-4 8 1 2 2 9 10 2 9-1 12 1-1-4-8-5-12-9"/><path fill="#142530" d="M222 309c-3 3-6 8-7 2 5 8 3 16 7 20 1-12 1-15-2-18"/><path fill="#1A2F3A" d="M330 288c-12 12-15 13-26 26 12-5 15-13 24-24"/><path fill="#43707D" d="M455 148c11 1 1 5 12 6-8 1-3 2-7 4-3-4-6-6-3-7"/><path fill="#3F616A" d="M235 253c-5 5-8 10-11 14 4 0 8 0 12-2-3-1-3-2-5 1 9-5-3-9 6-13"/><path fill="#284854" d="M426 236c6-1-2 10-4 12 0-4-8-3 2-10"/><path fill="#43626C" d="M323 238c2 2 6 4 9 6-3 1-5 0-8-1 2 2 4 4 8 3-3 2-4 3-5 4-3 5 2 2 4 4-1-6 12-3-1-5l4-1-2-1 1-1v-2l1-3c2 2 3 0 6 3-7-1-11-6-14-6"/><path fill="#315361" d="M205 267c-17 1 8 5 10 7-1-5-10-4-7-9"/><path fill="#406977" d="M488 165c-14 3 16 9 28 15-14-7-23-10-28-15"/><path fill="#52717A" d="M314 223c21 27 8 4 21 14v3h-2l3 1-1-2c-5-8-6-8-16-13"/><path fill="#D0D8CF" d="M379 253c-2 5-6 6-12 5 15 0 24 8 15-6"/><path fill="#568090" d="M131 306c-5 6-4 4-6 9 6 1 19-10 6-7"/><path fill="#8EA7A7" d="M215 249c-2 1-9 1-13 2 13 0 4 5 16 6 3-2 3-7-2-6"/><path fill="#CCDAD6" d="M149 249c-6 5-8 11-8 14 2 1 10-7 8-11"/><path fill="#77949B" d="M307 193c11 4 13 6 24 12-5-7-12-10-22-13"/><path fill="#4A7C87" d="M345 118c-25 9 5 4 12 1-3 1-6-1-12 0"/><path fill="#425250" d="M231 490c-1 5 27 3 37 4-12 1-23-4-32-5"/><path fill="#336775" d="M344 147c-4 4-10 7-16 14 0 0 19-10 19-14"/><path fill="#77959A" d="M205 247c-9 6 18-1 18 5-4-9-12-2-18-5"/><path fill="#0E202D" d="M295 274c-6 1-7 5-9 10 4 2 9-4 12-9"/><path fill="#E1E5DB" d="M186 393c-3 3 0 12-3 18 4 7 8-18 4-16"/><path fill="#203C4A" d="M186 360c-9 18 4 14 0 23 2-6 4-13-1-18"/><path fill="#BECAC1" d="M362 242c0 2 8 2 10 3 7 9-2 3 1 6 2-2 2 3 3 3 7-2 12 5 18 0-6 0-11-3-16-1-1-3 1-3-1-5-4-6-8-2-13-6"/><path fill="#8EA7A6" d="M279 196c4-1 7 2 11 1-27 13 2 2 13 7-6-1-7-5-14-4 9-2-5-4-7-5"/><path fill="#CFDAD1" d="M243 216c-3 5-5 12-11 14 9 0 12-5 10-11"/><path fill="#273F47" d="M223 344c0 9-3 17-2 28 6-11 1-14 3-28"/><path fill="#8AA7AA" d="M174 224c-2 4-3 8-8 9 3 3 0 5 3 8 12-8-2-3 6-15"/><path fill="#4A6263" d="M320 301c-1 9-9 15-14 23 7-6 19-16 15-21"/><path fill="#385059" d="M308 284c-3 5-8 6-13 9 4 1 16-1 14-8"/><path fill="#5D7474" d="M362 282c-8 10-6 12-5 19 6-5-3-11 7-19"/><path fill="#AACBD4" d="M125 332c-6 6 0 12-3 15 2-2 5-3 6-4-3-2 1-7-4-8"/><path fill="#4A7982" d="M327 125c-15 8-19 9-14 12 13-4 5-8 13-10"/><path fill="#0E1D2A" d="M221 288c-3 0-5 3-8 5 13 2 16 3 7-4"/><path fill="#1C333F" d="M316 319c0 4-5 8-6 11-2-3-3-6 3-8"/><path fill="#525252" d="M258 500c7-1 15 0 22-1-6 3-13 3-19 3"/><path fill="#232F33" d="M217 406c-2 1-3 2-5 2 4 4 0 11 5 2 1 14 2 23 1 34 2-15 0-37 1-37"/><path fill="#AAC6CF" d="M150 288c-9 7-6 7-14 12 5 1 16-5 13-10"/><path fill="#A2B7B5" d="M206 252c-9 2 5 4 1 7 5 2 7-1 10-2-7 1-6-4-9-5"/><path fill="#456468" d="M347 336c-2 6-9 8-12 18 6-4 8-10 14-15"/><path fill="#547375" d="M325 332c-2 2-6 9-9 15 4-6 19-15 9-13"/><path fill="#829490" d="M366 144c3 6 5 12 10 17-1-5-5-14-9-15"/><path fill="#386574" d="M99 404c-3 0-4 12 0 23 0-8-1-15 0-23"/><path fill="#172931" d="M230 361c-3 6-7 12-12 22 7 1 6-16 14-22"/><path fill="#4B7587" d="M141 302c-3 4-8-3-11 5 4 0 4 5 14-5"/><path fill="#CFD9D2" d="M369 239c-5 4 0 6-7 8 10 0 0 7 9 4 9-1-6-6 0-11"/><path fill="#B6C9C9" d="M322 199c49 44-21-11 23 27-2-4-1-7-3-11-4-1-7-9-15-11"/><path fill="#E5EBE2" d="M161 224c-6 4-20 14-16 24 8-9 0-19 16-22"/><path fill="#8DA7A7" d="M175 252c3-1 4 2 5 3-8 10-11 12-1 3 2 3 8 3 9 3-6-3-3-7-11-9"/><path fill="#789A9E" d="M180 221c-7 2-7 10-7 15 2-2 5-4 8-5-2-1-3 2-4 2 0-6 0-7 3-11"/><path fill="#C4DADD" d="M129 294c-3 3-5 4 1 9 5-4 3-6 0-9"/><path fill="#152A37" d="M243 336c6 0-1 8-2 10 1-3-2-11 2-8"/><path fill="#253D49" d="M333 308c-3 5-14 12-14 18 10-10 12-15 16-18"/><path fill="#81918F" d="M345 294c-2 5-6 10-8 15 4-3 12-13 10-13"/><path fill="#344D55" d="M297 281c-5 2-8 6-12 9 5 0 15-8 14-10"/><path fill="#27414B" d="M351 320c-9 6 6 6 6 2-1-2-2-3-4-3"/><path fill="#CDDAD3" d="M262 209c-4 4-9 8-13 11 4-5 20-5 15-11"/><path fill="#152B3C" d="M180 274c-3 2-6 4-10 6 11 4 13-6 12-7"/><path fill="#E3E7DF" d="M357 254c11 9 9 3 20 2h-17"/><path fill="#9EB8B8" d="M169 234c-1 2-6 0-6 5 0 3 1 4 2 5 5-2 0-6 2-9"/><path fill="#30525E" d="M221 207c-6 3-14-1-18 5 16 1 13-1 14-5"/></svg>