<svg xmlns="http://www.w3.org/2000/svg" width="600" height="600"><path fill="#786642" d="m257 100 1 1c18 11 45 9 51 28 8-5 10-9 12-11 6-1 8 3 11 3 9-8 19-12 26-21 12 6 21 7 34 6 7 7 10 14 15 21-6 14-13 32-23 44 3 4 4 5 6 7-2-2-3-4-4-5 9-14 17-31 19-43 6 4 9 7 14 11 5 8 7 14 8 21-2 13 0 14-6 29 3 11 3 14 13 17 2 15 4 34 5 26-1 19-13 20-22 41 6 5 7 8 9 11 11 3 23 1 28 3 4 7 20 18 17 29 0 0 0-12 3-4-12 34-1 78-12 95 17 10 32 16 47 17 9 3 10 8 12 11 0 5-4 4-6 5-8-2-18-8-28-6 4 8 13 13 18 19 5 5 0 11-4 12-6 1-9 0-11-3 1-2 1 0 2-1 6 3 12 1 13-4-2 5-6 7-11 5-9-5-11-15-20-17 4 1 8 5 10 8-9-5-17-6-24-11-9-6-18 5-20 1 2 9 3 16 8 24-1 5-4 8-5 9-6 1-9-1-13 0-5-5 4-13-3-22-5-8-7-17-16-18-10 4-21 4-34 10-7 1-11 1-15-2-2-4-2-6 1-7 14-3 21-6 33-13 6-2 9-6 11-11 2-3 2-5 1-8-11-9-26-4-38-8-17 9-37 22-51 23-23 7-40 8-68 4 3 5 6 7 11 12 11 3 29 11 46 13 3 3 4 5 3 8-19 2-48-5-69-2-2 12 1 19 1 33-5 8-12 9-19 8-3-2-5-4-7-5 1-7 7-14-1-33-16-1-19 1-37 7-5 4-3 7-6 10-9 2-14 2-21-1-1-7 3-9 4-12 9-3 20-8 26-15-15 1-32 0-43 5 5-17 24-11 33-22-7-11-15-22-19-35 2 6 5 12 8 18-14 5-28 13-33 26-7 3-11 0-14-4 7-11 10-13 16-19-17 3-26 6-45 9-1-10 4-8 4-11 9-4 20-6 28-10 8-9 19-10 24-18-7-1-28-19-26-13-22-16-9-16-21-17-4-12-12-21-15-29-5-22 19-38 17-44 14 1 29 2 33 11-1-11-2-20-3-29 12-9-2-14 8-34 4-1 5 1 9 0 8-5 1-12 5-17 4-3 7-2 10-2 5-7 0-17 5-23 3-3 11 0 13-4 4-9 4-16 9-24 15 1 22-15 27-20 0-4 8-17 17-34 9 2 18-4 25-6"/><path fill="#4D331A" d="M367 235c-6 1-13 0-18 1-49 1-86 24-134 22-7 2-11 5-16 8-6 0-7-6-6-10 1 14 7 22 12 33 38 8 73 27 111 30 32-10 63-24 87-42 4-5 19-15 16-20-16-6-32-6-46-4-78 6-57 8-130 20-11-1-21 0-30-1-3-1-2-2-2-3 6 1 10-3 15-1-4-1-12 1-12-2 49-11 58-10 102-24 31 0 61-4 91-2 43 15 16-4-9-5h-29"/><path fill="#F9EAB0" d="M387 293c-18 12-36 25-56 31-6 0-10 2-12-2 8-4 14-7 21-10-12 3-22 11-34 12-25 2-39-14-57-20-5 1-2 3-4 5 0 9 9 5 11 12 5 6 3 12 0 16 7 14 13 27 26 34 0-6 1-11 5-15 4-6 9-8 15-7s12 5 14 10c0 5 2 9 0 11-4 5-8 7-11 9 12 2 23-2 33-7 9-2 3-10 7-14 5-4 10-9 14-6 6-8 10-14 12-21-2-4-5-8-3-13 2-13 16-13 17-24"/><path fill="#C6BC78" d="M331 204c-18 3-42 15-61 23 1 4 1 8-3 9-8-3-15-5-24-3-3 12-16 11-22 11 12 11 29 5 42 5 29-7 54-14 82-17 13-12-6-21-11-28"/><path fill="#1C130F" d="M207 172c1 10 1 19-2 27l-1 2-2-1 1-1v-3c-1-2-4-4-6-3 2-1 5 1 4 4-1 6-1 12-5 15-3 5-6 7-11 6-4-1-6-5-7-7-1-10 5-12 8-18-3 4-8 9-8 11-3 5-3 11 1 16 5 1 8 0 12 1 5-4 9-10 10-17-1 15-6 21-14 31h-2l-1 1-3-1c-1-6-7-6-12-8 6 0 11 6 12 8-1 5 2 11-2 13-3 5-6 6-11 5-7-5-8-7-10-8-1 7-7 13-10 20-4 1-6 3-7 4-3-2 0-4 0-5-2 2-2 4-3 7-1-8 1-13 3-18-2 5-4 10-5 15-4 0 1-6-4-5 2 24-3-11 0 19-3-9 4-6 6-12 4-2 6-3 7-4 6 2 8 6 9 10 2 12-2 19-6 27-3-5-11-7-12-11 0 13 6 19 8 29 0 8-6 12-8 18 18-19 12-38 30-54 3-4 0-13 3-18 13 4 6-5 17-6 1 7-7 6-11 13 4-5 9-5 13-11 3 5 5 9 9 12-5-6-8-15-5-23 1-12 8-12 20-31-1-8 3-14 0-20 4 3 5 7 8 10 3 4 6 4 8 6 6 4 9 5 13 6h4l-1 1-3-2c12-1 24-2 35-6 3 3-4 5-7 7l-2 1 2-1c3-1 11-4 10-8-17 5-34 10-49 3-4-3-6-4-9-6 3-1 6 1 8 2-14-17-6-19-21-30 4-23 0 9-1-10"/><path fill="#C8B673" d="M182 321c1 5 0 8 1 14-7 3-7 10-10 11-2 13 1 14 3 24 8 5 9 16 18 12-4 12 5 6 5 14 6 6 4 3 9-2-1 5 0 8 2 10l1 2-1 1h-1c10 4 16 13 21 21l2 2 1 1v1c5 4 10 10 16 10-7-1-12-7-17-13 3-2-5-12 7-11-8-17-11-6-17-19 2 3 3 5 1 7 8-1 4 8 9 7 1 5-1 7 0 11-7-6-13-11-19-16 1-4 2 0 4-2-2 0-4-1-5 0 4-8-8-4-2-14-2 2-3 1-6 0 7-10-2 1-5-10 7-1 7-5 18 2-7 7-2 12 1 15 2 0-5-11 2-15 1 7 0 7 1 1-13-28-23-47-39-60"/><path fill="#1E0A05" d="M386 316c-1 7 1 11 3 16 1 4 4 5 4 7-1 15-8 24-3 23-8 13-20 29-33 38-13 12-27 18-41 22-24 5-43 7-65 1-10-5-15-14-21-21-1-15-9-24-9-36 1 5 2 11 3 17 6 5 1 13 6 16 4 9 8 15 13 21 7 7 15 5 22 7 21 1 35 0 48-4l3-1v1h2v-2c11 0 35-13 49-23 15 3 31 0 41 9 2 3 2 5 1 6-6 15-22 17-30 23 11-5 19-9 26-14 2-3 2-5 3-7 4-4 4-11 2-16-1 1 1 5-1 7-11-14-26-3-37-12 13-1 32-8 37 0-1-1-2-4-4-4 9-1 1 1 5-8-1-12-4-23-3-35 9-25 5-10-5-1-2-4-4-5-7-5-2-4-3-5-4-6 5 3-7-8-5-17"/><path fill="#826341" d="M227 354c-13 19 9 31 17 50 18 13 38 3 54 8 6-1 9-3 12-4 20-6 32-6 46-18 12-10 18-21 23-33-4 14-17 23-28 32-12 10-26 14-38 19-4 0-5 1-5 0 1-4 3-4 5-5-12-2-22-2-31-5-11-3-20-6-25-14-4 1-5 3-8 2 2 3 14 12 7 11-12-5-19-13-23-22-5-6-4-12-6-17"/><path fill="#D2B57D" d="M378 328c-8 13-15 27-20 41-15-1-25 11-39 12-15 1-28-1-37-8-15-8-22-21-28-32 4 10 14 17 12 30-5 3-3 2-7 9 11 9 22 14 33 16 9 0 11-5 12-12 25-8 39-4 56-12 7-5 12-13 17-20 2-8 4-15 1-21"/><path fill="#A59F61" d="M336 181c-20 8-12 10 1 19-4-3-5-8 0-11 5 1 10 5 11 6 1 7 12 12 9 19-9 0-14-5-19-9 6 7 16 8 20 16 0 6-4 10-7 12 12-3 30-1 43-2-3-7 1-17 3-25-1 2-2 7-5 7-3-4-3-8-2-13-11 10-20-2-30 0-10-7-21-9-26-17"/><path fill="#010000" d="M245 147c-5 2-8 6-10 10-2 8-3 14-1 19 3 10 10 16 19 14 6-1 10-4 12-9 4-6 3-11 4-16-2-8-6-13-10-17 1 2 1 5 0 8-2 4-5 5-7 3-6-3-6-10-5-13"/><path fill="#383B33" d="M203 158c-12 9-4 11-25 31-9 16-14 18-6 24-28 13-25 34-38 37 8 2 2 8 1 12 4-10 9-21 17-28-2 4 7 4 4 11 3-6 6-12 9-17 8-4 15 6 18-6-4 1-8-2-8-6-2-11 3-16 9-20 5-8 15-5 20-2 7-14-5-35 4-36"/><path fill="#E1D889" d="M329 169c8 10 8 20 23 23 11 6 27 3 34 3 4-12-5-15-9-18-28-1-22-4-47-6"/><path fill="#BEAF6C" d="M418 295c-8 4 4-1-2 7-1-6-11 5-14-1-1 5-4 6-4 9 3-2 4-1 5 0 1 3 2 6 1 8 3-6 8-5 12-3 3 6-4 1-5 6 2-1 6-3 9-1-3 3-5 5-7 6 3 0 5-2 7-2 7 4 8 2 10 8 4 11-5 1-8 1 12 6 2 14 13 18-3 18-2 35-3 50 11-17 11-16 20-20-3-11 4-19-2-27 2-1-6 0-5 3 5 2-4 5-5 6 8 0 4 3 7-4 4 0 4 10-3 12 3 1 4 1 6 2-14 1-6 7-13 15 2-20 0-36-2-46 2-3 2 1 4 1-3-5-6-6-7-10-7-5 2-6-7-10 7 2 4-1 5-6-9 4-5-3-10-2-4-7 7-4-1-9-3 3-6 2-8 1 2-5 7-2 9-7 11 8 14 17 21 24 4 11 2 21 0 27 1-5 2-12 7-10-3-6-2-11-5-14-6-14-18-22-24-32"/><path fill="#C9A96E" d="M378 352c-5 7-10 15-16 22-19 7-32 3-55 12-2 5-6 11-13 10-5 0-8-1-10-2 2 2 6 2 9 3 18 0 38 0 32 5 13-6 19-12 26-16 12-11 19-22 27-32"/><path fill="#B7955E" d="M231 297c-1 15-2 32 7 45-2 8-7 11-9 14 1 6 10 4 12 14-1-3-3-5-4-7 10 12 2-8 13 5 1-10 7-8 9-13-3-7-6-10-8-14-6 0-10-1-12-6-6-7-3-14 3-17-3-9-2-17-9-21"/><path fill="#331D11" d="M145 388c-17 18-17 12-24 25-8 6-8 0-11 0 2 11 10 1 16 2 5-2 8-7 13-8-3 6-4 13-11 16 1 0 4 0 4 1-2 2-3 4-5 2 2-1 2 5 3 3l2-1v-1h1l1 1c19-20 30-7 11-42"/><path fill="#B7AC6C" d="M334 210h-1c18 13 6 13 4 20-14 2-28 10-39 2 0-20 22-4 18-13l2-2 1 1 2 2-1 1c-4 6 7 7 9 7 1 0-10 0-8-7 3 3 0-5 4-6 3 0 5 2 8 1 0-2 0-3 1-4"/><path fill="#A6B88B" d="M271 111c-5 5-25 6-4 19 6 3 16 14 26 14 5-12-18-19-11-30-5-2-8-3-10-4"/><path fill="#A5B68A" d="M373 109c-1 7-18 7-23 5-7 3-12 5-15 10 3-3 7-4 10-7 5 1 0 3 2 5 6-4 11-1 16-5 10 11 15 23 23 20 17-12-2-24-11-28"/><path fill="#C6BB75" d="M420 301c-1 5-6 2-9 5 3 2 6 1 8-1 7 5 2 5-1 7 9 2 3 8 13 3-5 11-2 7-2 14 4 2 5 9 12 11-2 5-4 1-5 1 6 10-2 12 3 23 2 6-3 8-1 13-1 4-2 6-1 10 2-3 5-8 2-8 3-5 6-2 9-5-1-1-2-1-3 0 2-7 3-6 4-12-2 4-2 2-9 3-1-5 3-4 5-5 2-5-6-12-3-18 2-4 0-9 1-12-8-11-12-21-21-27"/><path fill="#4C3415" d="M159 380c-1 2-3 3-4 5 4 13 10 23 15 34-1-4-3-10-1-15 8 6 12 11 14 18 8 2 14 4 19 8 0-6 2-7-3-13-7-4-11-11-19-10-1-4-3-10 0-11-5-1-7 3-9 6-11-5-9-21-13-19"/><path fill="#CFC479" d="M317 155c3 9 15 17 18 25 2-3-5-6-7-10 19 6 35-1 56 10 4 5 7 12 1 16-6 1-13 0-19 1 7-2 13 2 19 0 3-3 6-5 6-9-3-9-12-19-20-24-8-9-4 11-16 6-4-1-8-5-9-9-5 4-10-1-19 2-4-1-7-4-8-6"/><path fill="#BFAD6B" d="M198 283c1 2 2 4 1 8-6 4-9 8-9 14-4-2-4-4-3-6-1 10-6 11-10 18 6 10 4 8 17 16 5 10 21 33 26 51-5-17-13-35-26-49v-2l-2-1 1-1-2-3c1-1 0-2 2-2 4 1 8 4 12 2 1-1 0-5 5-8-5-1-10-6-10-8 0 4 1 6 3 8-5 4-4-4-8-5 1 3 2 5 3 8-1 3-2 1-3 3-6-3-9-6-14-7 12-3 3-9 12-10-4-8 12-7 7-11 2 1 4-2 4 0 3-6 1-9-4-14"/><path fill="#B2945B" d="M429 383c-8 3 0 19-5 26-1 6-4 8-7 10-7 12-15 1-15 11 3-3 10-6 13-11 3 13 12 22 15 36l3 2h1l1-2c1-4 1-8-1-14-4 5 3 6-1 14-6-5-2-12-6-16 5 2-6-9 5-11-4-3-4-8-6-12 5-3 5 2 8 3-3-6 2-3-5-12 2-5 5-7 8-9-2 0-3 4-4 2 1-8-5-10-3-16"/><path fill="#AD8E59" d="M129 304c-2 5 4 9-1 14-10 7-16-3-21 5l-2-3v-2l1 3 1 1c-1 5 0 10 3 11 4-2 8-6 12-3 7 5 5 11 6 16 6-6 9-14 8-19-1-9-4-15-7-21"/><path fill="#6F5235" d="M236 395c-10 8 7 19 13 25 7 4 13 1 21 3-3-3-4-7 0-10-5-1-9-1-14-2-8-5-15-9-19-14"/><path fill="#341F0C" d="M169 405c1 14 5 26 13 35-1-6 5-3 5-6 11 0 13 2 24-1-9 2-13-9-26-9-6-7-7-14-15-17"/><path fill="#C9C27B" d="M400 197c-1 8-4 19-4 29 22 13 17 1 36 15 0-6 4-12-10-25 1 2-9 10 2 14-12 6-16-8-24-6 0-4 2-10 5-5-1-3-4-8-4-12 6 0 5 1 4 6 4-7-5-9-5-14"/><path fill="#654E20" d="M292 352c-7 4-7 20 3 21s16-4 18-11c-2-1-6-6-9-8-7-1-10 1-14 3 1-1-2-3 0-4"/><path fill="#77593A" d="M348 397c-16 7-38 15-59 16 3 1 8 4 8 9 5-2 11-3 16-5 16-7 26-8 33-21"/><path fill="#201009" d="M135 344c-4 7 0 20-6 22 5 2-2 8 3 7-3 3-6 0-8 0 21 10 9 12 17 13-5 9-15 12-21 20-10 4-21 7-29 10-3 3-7 4-5 8-3-12 23-8 31-16 5-5 16-11 25-19 10 2 10 15 16 20-5-9-8-23-17-32-2-8-1-26-6-29"/><path fill="#DDCD85" d="M206 380c-1 6-9-2-1 12 4 3 1-2 6-2-6 12 6 7 0 14 3 2 4-2 5 0 1 4-2 4-3 3 6 5 13 10 17 17 1-18-13-17-10-40-5 8 2 16-1 19-2-6-2-10-7-5 4-8-4-12 5-13-3 0-11-2-9-6"/><path fill="#F7ECBE" d="M369 247c-31 3-64 1-90 14 30-12 69-7 102-12 63 9 29-6-13-2"/><path fill="#020000" d="M409 140c-3 6-1 15-2 21 2 9 3 16 8 20 8-7 5-16 6-23-10-2-7-13-9-16"/><path fill="#CBBA76" d="M188 342c5 5 4 8 8 15-3 4-6 4-8 3 6 0 9 2 9 8 1 7-6 4-6 8-5-4 1-4 2-7-3 1-8-4-6-7-3 1-3 4-5 5-8-2 1-10-5-6 1-9 8 3 8-6-3 1-6 0-8-4 3-1 6 1 9 1 0-2 5-4 1-7"/><path fill="#A2A366" d="M344 146c-4 12-47-6-14 14-3-9 29-1 30-7 7 2 10 8 15 10-3-9-11-14-17-17-6-1-10 0-13-2"/><path fill="#38240E" d="M86 310c-2 4-2 11-1 15 5 11 7 18 13 23 7-6 2-13 7-19-5 1-23-15-16-20"/><path fill="#0A0101" d="M239 131c-5 1-9 4-12 7-8 8-9 17-13 25-2 11 0 19 2 26 4 7 6 13 11 16-4-5-6-9-9-14-3-9-4-17-3-26 3-13 10-26 21-30 9-2 15 0 21 2 23 18 22 27 40 33 6 4 11 5 17 4-8 0-15-5-20-8-17-11-28-30-45-35-4 0-6 0-9-1"/><path fill="#61491D" d="M157 326c-9 3-7 21-12 30 6 7 12 4 15 10 5 0 7-11 11-20-2 7-5 2-5 10-2-9-3 1-7-3-8-11-5-26 0-25"/><path fill="#614528" d="M225 305c-7 8-10 21-23 26 2 3 5 5 7 8 7-7 14-11 17-20 2-5 1-9 0-13"/><path fill="#3B270F" d="M225 329c-4 7-5 16-9 23 7 4 15 2 17-4 5-13-10-17-6-20"/><path fill="#C5A56C" d="M252 340c1 5 7 9 8 15-5 4-7 6-8 13-8-6-13-3-14-5 19 5 21 30 42 30-8-2-14-6-21-11 3-7 1-12 8-9 0-14-10-22-14-31"/><path fill="#3A3B2B" d="M317 174c-6 5-13 12-20 10-8 9-4 19-17 25-7 7-15 8-22 10 8-1 15-5 23-5 19-23 23-22 36-38"/><path fill="#1D1007" d="M263 139c10 7 18 18 29 24 6 5 12 7 18 9 3 1 3-1 4-1-5 6-11 4-16 1-4-4-10-6-13-9-1 3-3 5-2 9-2-4 2-9 5-4 6 0 5 7 6 11-1 16-20 16-17 20 9-4 16-11 18-19 1 4 5 1 7 3 6-4 10-6 12-10l2-1 1-2 2 3h-1c2-8-1-13-4-18 2 4 5 8 3 14-2 2-4 2-6 3-17-7-27-20-46-31"/><path fill="#CCC17E" d="M108 294c-8 1-11 8-7 15 1 3 3 4 4 5 8-15 30-12 2-21"/><path fill="#725B27" d="M453 384c-5 5-2 5 0 9-6 4-10 12-16 13 3-6 7-9 8-14-4 4-4 9-9 11-1 6 5 4 5 7 4 0 7 1 13 0 2-9 4-16 0-24"/><path fill="#331F0B" d="M138 343c2-2 7 30 17 41-5-6 12-14 11-23-1 3-1 8-6 10-3-8-8-8-14-11-5-8 1-15-5-20"/><path fill="#C2AB6A" d="M172 350c-1 7-7 14 1 20 9 17 29 27 34 43-2-6 4-9-1-17 0 6-3 5-5 1-2-7-12-3-7-14-10 1-11-7-18-11-2-11-7-11-4-21"/><path fill="#A4B7A7" d="M307 130c0 5 3 9 4 15 5 3 11 2 16 5 0-7 2-12 8-13-5-3-9-5-13-6 2 1 3 2 4 5-3 2-5 4-9 3-4 0-6-3-8-4 3-5 5-5 8-4-3 0-5-2-7-2"/><path fill="#35200E" d="M277 412c-6 0-11 6-5 11 9 1 15-1 21-1 0-6-4-9-8-9-4-1-5-1-6 0"/><path fill="#2D180C" d="M396 391c-7 2-15 1-23 2 13-1 33 14 37 6-4-2-5-7-7-7-4-1-5 0-5-1"/><path fill="#D6CE89" d="M335 210c-1 2-1 4-1 6l-2 1h-1v1l-2-1c-4-5-5 0-6 3-2 4-2 4-1 1 2-3 4-4 7-3 4 0 5 3 4 5-3 7-6 7-10 5-8-2-3-7-4-9-4 3-2 11-9 16 10-1 16-3 26-5 0-8 15-7-3-17"/><path fill="#A2824C" d="M217 430c-26 25-37 32 4 14 8 7 1 15 3 23 5 0 10 4 13 2 0 1-7 1-10-4 0-7-1-10-3-17-6-8-5-5-14-6 3-5 2-7 5-8"/><path fill="#171311" d="M189 174c-11 6-17 25-28 32l2-4-1 2c1 8-5 13-9 21-6 1-4-4-4-6 5-3 4-4 0-3 0 8-1 13-4 16-3 6-7 0-10 2-7 11-1 20-6 29v3l-2 1c1 11 3 18 4 27-8-6-19-7-30-10-5 9-18 17-20 28-3 3 0 6-3 6-2 9 2 11 3 14l3 2-2-1c0-5-1-13 0-18 4-18 17-19 16-30 13 2 29 4 33 15 0-2-3-3-1-4 0-11-3-20-1-32 7-8 1-14 6-28 7-4 9 5 9-1 3-4 5-10 8-8 10-18 20-36 37-51"/><path fill="#8C7743" d="M198 358c3-1 9-1 10 3 3 4 5 9 3 13-5 3-9 1-10-2-3-5-4-8-3-12"/><path fill="#B6B071" d="M327 192c-5 3 2 12-9 14 4-2 8-1 12-4 9 6 16 11 20 18 2 6-1 8-2 10-5 3-8 3-11 4 4-1 9-1 14-2 4-4 8-7 6-11-11-7-21-18-28-27"/><path fill="#9E7F4C" d="M419 369c1 11 5 22 3 34-31 25 16-6-16 27 3-5 5-3 8-5 3 5 1 10 6 11-3 0 0-11-5-13 3-6 7-8 8-12 4-16-3-38 1-43"/><path fill="#725539" d="m381 358-2 1c-5 12-12 23-22 32 8 4 12-10 20-13 1-6 9-12 7-19"/><path fill="#644B1E" d="M207 416c-7 3-6 7 1 17 6-4 11-5 14-10-3-4-13-3-15-8"/><path fill="#9A804B" d="M231 223c-2 1-4 1-5 2-10 6-12 19-23 20 0 5-2 7-1 11 8 1 16-1 24-1-4 1-8 0-11 1-4-3-6-8-2-11 3-8 10-12 10-19 9-3 26 0 8-3"/><path fill="#5A4528" d="M190 267c-10 5-16 16-23 23-9 12-12 22-16 33 9-1 11-30 25-40 5-7 10-14 17-11-2-1-3-2-4-3"/><path fill="#99824B" d="M177 282c1 23-11 23-17 45 10-6 11-14 20-21 1-3-2 2-4 1 4-6 3-9 0-15 7-1 2 6 8 7-3-1-2-4 1-5-3-3-7-5-5-10"/><path fill="#846B3C" d="M189 273c-11 3-12 14-19 20l-1 3-1 1-2 1c-2 3-2 7-3 10 4 13-11 10-5 19 2-7 8-11 4-18 4-2 4 3 6 1 4-3 5-5 6-8 3-6 0-5-4-6 8-9 12-18 15-22"/><path fill="#311D0A" d="M152 272c0 8-3 14-7 21-5-3-9-7-11-9 2 9 8 14 11 17 4-3 7-7 8-12 0-7 1-12-1-16"/><path fill="#38220D" d="M216 289c-15-3 1 18 8 11 3-3 3-7 1-8-4-3-5-4-7-4"/><path fill="#E7D68F" d="M231 426c3 9 16 17 24 14-3-9-13-13-22-13"/><path fill="#876B3C" d="M211 228c2 16-5 10-13 18-4 5-4 11-2 15 6 0 11-3 15-4-2 1-7 3-10 1-1-6 1-8 0-12 7 1 20-16 14-16"/><path fill="#AC985A" d="M177 291c0 9 6 7-2 15 4 0 7-6 8-2-10 7-8 9-12 14 4 1 13-10 13-16 4 5 5-1 7 3 2-4-2-19-9-6-3-2-3-4-2-7"/><path fill="#301E0E" d="M202 215c6-3 8 4 6 8-2 3-3 7-6 8-4-7-8 0-6-7 3-4 0-6 5-7"/><path fill="#4D321C" d="M104 343c0 2-3 5-5 6 7 3 5 11 13 13 3 5 5 7 10 7 7-5 9-12 9-20-2 6-8 11-10 17-6-2-5-6-5-9-1 1 0 5-3 5s-4-3-6-3c0-5 2-7 4-6-5 2-4-6-8-8"/><path fill="#C8BB76" d="M207 293c-1 2-1 4-1 6-2-2-4 1-5-2-1 1 5 6 8 7-2 1-2 8-7 9 2 3 4 6 7 6 0 5-5 4-2 6 2-1 5-3 6-6-3-2-4-3-3-6 5-3 5 6 6-1-7-1 1-14-9-17"/><path fill="#B8B071" d="M301 209c-15 2-24 17-38 20-9 1-15-1-22 0 4 4 12 1 17 3h3v-1l3-2c7-5 42-16 42-21"/><path fill="#B5B26D" d="M312 146c4 8 7 9 13 16 14-1 20 2 22-1 0-1 3-3 2-6-15 3-24-4-23 4-8-5-10-8-11-11"/><path fill="#26261E" d="M202 206c-1 5-4 9-7 12-4 5-10 3-13 4 10 0-10 7 0 11 10-3 16-15 20-25"/><path fill="#8C8A53" d="M398 128c0 6-3 10-6 14 0-5-15 7-20-5-1 3-4 3-5 4 7 7 10 5 16 8 4 0 5-3 8-4 4-7 8-11 10-16"/><path fill="#B7985B" d="M201 437c3 10-17 7-19 19 7-7 26-6 23-21"/><path fill="#C5AB69" d="M225 423c1 4 10 12 11 14-1 4-17 8-13 2-1 8 2 2 4 4-1 10 2 17 7 18-2-6 5-9-1-16 5 1 1-4 5-5l2-1h1-1c-6-4-9-9-13-15"/><path fill="#201105" d="M401 137c-4 11-12 17-18 26-3-1-5-1-4-2 2 5 3 11 9 15 0-10 10-20 11-22-3 6-12 11-11 21-2 0-4-1-5-3 7-12 13-22 17-32"/><path fill="#B19358" d="M219 429c-3 4-5 6-7 10 1 6 6 1 7 1l2 2-1 1v2c8 1 7 13 7 18 3 3 4 6 7 4 7-8-1-20 5-28-6 6-1 16-6 29-5-7-8-19-6-25-1 0-4 3-5 2 0-7-7-17 1-15"/><path fill="#755D2A" d="M425 347c-8 1-1 13-3 18 8-1 8-7 11-11-4-5-2-3-8-6"/><path fill="#6F5232" d="M316 254c-31 7-62 17-96 14 25 5 145-20 106-12"/><path fill="#321E0D" d="M358 393c-8 1-15 7-17 15 5-2 20-7 21-17"/><path fill="#878759" d="M244 113c0 3-2 2-3 1-2 5-2 8-1 12 2-4 5 4 8 1 0-8 12-14-3-13"/><path fill="#B1955B" d="M167 363c-1 11 8 17 13 26 5 3 10 5 13 7-10-9-20-22-24-31"/><path fill="#707585" d="M84 322c-2 12 5 20 10 29 7 10 16 16 23 22-6-8-16-17-22-26-6-8-9-15-12-22"/><path fill="#CBBC75" d="M190 308c-5 3 2 4 0 7-18-6 0 12 6 9 1-3-3-7-2-11 5 4 6 6 7 9-3-7-4-12-10-11"/><path fill="#38210F" d="M131 299c2 11 6 21 9 32 3-2 3-5 5-7-4-10-8-16-13-22"/><path fill="#242321" d="M159 221c-2 5-4 9-7 14-5 10-6 7-11 15 3-3 4 2 3 5-2 0-3 11-4 12 6 0 12-12 17-18-3-6 0 2-7 4-3 0-7 1-5-4 3-6 4-9 5-9 4-2 6 0 5 2 2-4-3-3-4-5l7-14"/><path fill="#DCCC84" d="M187 357c-11 5-8-3-8 9 4-1 6-5 8-6 4 9 0 6-3 11 5 0 4-6 10-3-1 5-6 3-4 8 1-5 6-2 8-5-1-3-3-6-3-9-5 0-7-1-8-4"/><path fill="#9C7F4B" d="M166 367c-5 9 10 16 7 26 8 3 15 0 20 3-4-2-9-3-13-5-6-9-10-15-14-22"/><path fill="#34210D" d="m383 342-2 2c2 5-3 9 2 14 2-5 12-14 4-19"/><path fill="#687383" d="M149 379c4 18 12 33 23 48-6-14-15-31-21-46"/><path fill="#AD975C" d="M230 226c-1 1-3 0-4 1-4 9-18 17-13 26 9 1 15 1 24 2-6-1-13-4-19-2-7-5 2-9 0-12 8-3 5-12 12-15 21 5 22-1 0-1"/><path fill="#382112" d="M176 435c-11 0 0 4-7 10-7 2-12-3-15 0 1 2 42 9 19-10"/><path fill="#DAD28A" d="M402 205c2 10 5 12-4 17 8 4 10-4 13-6 4 1 6 7 8 6-7-20-15-3-14-15"/><path fill="#745F2A" d="M408 285c1 1 7 0 5 4-7 0-11 4-13 5 0 8 8 5 12 4 3-3 7-15-3-12"/><path fill="#200D05" d="M226 323c-3 8-11 11-15 18-4-1-6-4-9-6 4 2 5 6 7 9 1 3 5 2 5 7 5-7 7-17 11-25"/><path fill="#807038" d="M250 129c14 4 24 17 38 22l2 2 1 1 2-1c4 7 16 3 18 7-7-3-4-9-4-16 1 1-3 8-3 11-5-2-4-5-3-7-3 4-9 2-11 4-15-6-25-19-39-22"/><path fill="#574C2F" d="M201 171c3-1 5 5 4 7-1 5-4 10-8 8-3-4 0-9 2-12"/><path fill="#B8AF6C" d="M348 191c7 8 18 7 26 11 6-1 13 3 15-3 1-1 1-2 2-5-3 3-5 5-10 5-11-3-23 1-31-6"/><path fill="#3A260F" d="M244 373c-2 1-4 3-3 6 3 4 6 6 10 5s1-3 3-4c-3-3-7-5-9-7"/><path fill="#C7C186" d="M430 290c4 7 8 14 14 18 2-11-9-17-12-16"/><path fill="#493018" d="M414 333c-4 4-4 8-4 12 2 12 0 23 4 36-3-12-3-26 0-37 1-6 6-4 8-5-1-3-4-4-7-5"/><path fill="#BFAA6A" d="M220 237c-4 8-7 20 7 14 13 3 28 0 40-3-12 3-26 4-38 3-15-7-1-7-7-13"/><path fill="#979B66" d="M255 115c-6 4-1 7-6 13 10 0 14 7 19 4-4 1-16-12-10-18"/><path fill="#666138" d="M337 126c-9 0 11 4 4 2 4 3 5 6 6 9 11 4 19 9 27 15 3 3 4 4 6 3 6-3 11-7 15-12-6 8-12 11-19 10-7-5-12-6-16-12 2 0-6-6-2-12 0 2 1 3-2 6-5 0-11-2-10-8h-2l-1-2-1 1"/><path fill="#9C7C50" d="M228 355c1 6 1 13 4 19 7 10 15 19 24 22-8-15 2 9-18-15 0-4-3-9-4-14 3-1 5 1 7 3-4-12-11-4-12-13"/><path fill="#503917" d="M152 323c-2 5-5 10-9 15 4 7 1 12 2 18-1-11 8-14 4-25 1-5 7-6 9-4-1-1-4-1-7-2"/><path fill="#6A737E" d="M188 265c-8 7-17 15-23 23-11 15-14 32-24 48 12-13 11-29 22-41 7-12 16-20 24-29"/><path fill="#33200C" d="M181 241c-8 13-12-1-18 6 1 5 6 6 10 5 5-3 7-5 8-9"/><path fill="#53381E" d="M411 323c-5 8-13 6-16 2 2 8 7 10 10 14 9-5-3-11 6-14"/><path fill="#2D2419" d="M225 209c-1 2 0 9 18 11 26 0 5-1 30-7-9 3-19 5-30 4-11-4-15-1-18-8"/><path fill="#311E08" d="M277 148c6 5 27 16 16 16 10 4 17 10 23 6-18-2-18-14-39-20"/><path fill="#8E8C55" d="M360 120c-1 9-7 1-6 7 3 4 1-6 12 4 8-5 3-12-4-9"/><path fill="#35220F" d="M464 325c-6-2-5 12-3 20 5-5 4-17 3-19"/><path fill="#95823F" d="M312 193c-10 4 5 11 9 8 1-4 0-7-2-8-4-1-5-1-6-1"/><path fill="#CCB47F" d="M251 311c7-2 12 5 18 8-7 3-13 0-16-6"/><path fill="#715A29" d="M184 281c-4 7 5 11 10 9 1-3 2-5 1-7-4-2-7-1-8-2"/><path fill="#AF955D" d="M191 327c12 18 26 36 30 56 0-7-3-14-5-20-7-8-14-22-20-30-1-6 2-5 4-3-3-1-4-2-6-3"/><path fill="#8D8A53" d="M319 177c0 7-7 10-11 13-10 9-14 18-24 23 11-8 17-10 21-22 7-3 13-3 17 0 6-4 4-22 1-5-3-4-4-5-4-7"/><path fill="#8C884F" d="M271 134c7 6 16 9 22 16-22-10-29-14-3 2v-1h1l1-1c1-2 8 2 7-5 3 4 1 5 1 7 10-3-1-11 6-9 1-3-1-4 0-7-3 4-5 8-13 12-9-5-15-8-20-13"/><path fill="#B09856" d="M396 430c-9 6-21 9-31 11 5 5 13-4 15 1 3-4 12-7 17-9"/><path fill="#493313" d="M246 318c-7 0-4 8-3 15 3 2 6 3 10 3 2-1 3-2 4-3 0 1-2 3-3 3-5-6-8-10-11-14 5-5 9-4 11 0 3 2 2 4 3 5-1-1 0-3-1-4l-2-2-1-1-3-2-1 1v-1"/><path fill="#787440" d="M397 137c-2 5-7 10-12 14-8-2-17-7-24-11 6 5 15 17 22 11 7-2 10-8 13-12"/><path fill="#605942" d="M233 115c-1 15-21 30-21 47 3-16 13-28 24-37-3 0-7-6-2-7"/><path fill="#6C5624" d="M378 308c-3 4-5 11-5 16 6-2 7-11 8-16"/><path fill="#48351A" d="m456 302-4 4c4 4 12 7 11 15-1 2-8-1-7 5 5 0 1-3 9 2 1-6 2-19-8-23"/><path fill="#876B3D" d="M281 201c-10 4-22 14-31 11 5 4 13-1 20 0 4-4 8-6 12-10"/><path fill="#60491D" d="M246 319c-4 4 6 12 7 16 7-12 3-2 2-10-2 1-6-2-8-4"/><path fill="#F3F3F4" d="M251 145c-2 3-4 7-1 9 2 4 4 3 5 4 3-6 2-10-1-11"/><path fill="#38230D" d="M166 379c-7 3-4 13-2 15 5-3 10-9 0-12"/><path fill="#33200C" d="M199 201c-3 3-3 9-6 12-7-2-11 2-14-4 1 2 1 5 4 6 3 4 7 3 9 1 5-5 6-9 7-14"/><path fill="#86673A" d="M242 442c-12 7 7 14 15 7-5 6-10-6-14-6"/><path fill="#958644" d="M352 156c-2 2 0 3-2 5 4 5 8 7 11 5 1-9-14-9-6-11"/><path fill="#959D6A" d="M394 121c1 6-3 13-7 19-3-3-11-3-15-6 4 8 10 7 14 8 5-5 5-10 9-15 5-2 0 7-1 10 1-8 11-11 0-15"/><path fill="#76602C" d="M116 307c-4 0-5 6-1 8 3 3 6 0 8 0 4-7-9-2-6-9"/><path fill="#A75330" d="M268 154c5 7 6 7 10 12-2 5-3 0-4-1-1 7 0 9-2 13 1-1 4-5 5-3-1 7-1 9-8 11 3 3 2-2 5 0 6-7 3-4 5-9-2-13 3 3-1-9v-1l1-1v-1l-2-3c-2-2-3-4-6-6"/><path fill="#7D7072" d="M336 409c-12 8-27 12-42 14 17 0 31-5 45-12"/><path fill="#715F2C" d="M99 416c-3 1-7 3-9 5 6 5 21-4 10-6"/><path fill="#2E280A" d="M285 167c2 4 7 9 6 16-5 4-9 7-10 11 6-2 11-7 12-13 0-7-1-14-6-13"/><path fill="#3A250B" d="M457 389c3 8 0 16-1 24-5 1-7 5-12 3-6 1-8-4-12-6 4 3 6 8 10 10 7 0 11-2 16-3-3-10 3-19-1-26"/><path fill="#5E4327" d="M383 323c-3 3-1 10 0 15 3-2 6 0 8 3-2-6-7-11-7-17"/><path fill="#61481D" d="M180 397c-1 3 0 6 1 8 8 0 12 7 17 10-1-4 2-7 0-12-6-4 5 6-2 7-5-8-20-4-13-14"/><path fill="#735A29" d="M158 328c-9 7 1 16 2 25 2-5 10-2 10-5-3 2-6 2-9-1-3-5 0-11 4-8-11 1-9-13-5-8"/><path fill="#542519" d="M243 138c8 5-10 3-11 8l-3 1-1 1v2h-2c-2-5 5-6 5-9-8 7-12 18-13 29 0-8 5-13 8-18l1-3 1-1h2l1-2c11-7 46-3 11-8"/><path fill="#412713" d="M267 290c9-2 17 2 24 6-8 1-13-4-22-3"/><path fill="#4C3619" d="M216 209c-3 3 0 10-2 14-6 9-12 16-18 22 7-6 12-12 16-19 4 0 3 5 9 1-14-9 0-19-2-14"/><path fill="#6C7B8A" d="M466 310c4 14 0 28-4 40 4-5 7-11 7-17 1-9 1-15-2-20"/><path fill="#060100" d="M342 193c-3 13 5 9 11 17-2-5-6-11-9-16"/><path fill="#492F1C" d="M386 243c-3 2-7 0-10 1-28 2-50 1-72 6 22-4 46-3 69-6 31-3 78 11 16-3 1 3 1 1-2 1"/><path fill="#AF9B57" d="M264 449c13 3 27 7 38 10-9-7-24-5-36-10"/><path fill="#1A0906" d="M150 413c-1 7-10 10-14 15h-2l-1-2c-2-4-5 1-5-1 2-3-1-5 1-6 0 2-2 2-1 4-5 1-6 6-10 8 1-2 9-8 14-5-3 3-1 16-12 14 7-15 62-31 26-22"/><path fill="#5F4A1E" d="M355 353c-6 4-10 5-6 9 4 0 15-11 8-8"/><path fill="#846F46" d="M408 277c0 3 17 17 23 28-4-10-13-20-20-27"/><path fill="#655122" d="M199 303c-3 1-4 3-3 7 3 3 16-7 4-8"/><path fill="#614524" d="M412 356c1 16 5 39 4 48 4-14-2-31-3-46"/><path fill="#72602B" d="M125 428c-2 1-6 5-8 6 1 3 3 3 5 4 0-5 9-5 6-10"/><path fill="#2F2A0B" d="M394 163c-3 3-1 8-4 11 0 5 5 7 6 10 0-7-4-13-2-21"/><path fill="#34210E" d="M202 217c-3 0 9-3-3 11-2-2-1-3-1-4-1 2 1 4 2 6 7-2 10-11 6-15"/><path fill="#939D6C" d="M295 136h-1c2 3 0 7-3 8-3-1-6-1-8-3 1 3 3 0 7 5 4 1 4-1 7 0 3-3 9-14 2-10"/><path fill="#B7B16B" d="M362 153c-8 8 13 8 18 18-2-8-11-10-17-18"/><path fill="#896B3E" d="M417 367c-1 12 7 28 1 39 7-12-2-29 2-39h-2"/><path fill="#644C22" d="M175 321c-1 1 6 0 3 5-1-3-5 4-8 0 1 7 9 8 8 10 1-5 3-12 0-15"/><path fill="#CDB46F" d="M227 444c7-2 7 9 6 10-4-1-9-4-5-8"/><path fill="#C5B968" d="M227 478c-1 1 3 4-1 6 3 4 6 2 7 1 0-5 3-8-4-8"/><path fill="#5E432A" d="M386 308c2 7 3 11 4 19 26 17-5 5 13 13 0-5-7-7-9-13 2-5 4-2 5 0 4 0 5 3 6-1-2 2-1-4-5 2-2-3-1-6-2-8-2 2-3 4-4 6-4-6-3-12-7-15"/><path fill="#99804B" d="M392 302c1 7-5 5-3 5 4 23 5 2 13 17-1-10-11-17-3-20-3 0-3 2-4 4-3-2-3-3-3-4"/><path fill="#473314" d="M360 353c-6 20-16 2-14 13 3 6 13-4 15-9"/><path fill="#311A0D" d="M134 346c-3 4-2 11-4 16-6 3-5 9-10 9 4 5 3 6 9 7-3-2-5-3-8-5 5-1 8 2 11 1 1-3-3 0-5-7 9-4 1-11 7-20"/><path fill="#AA965B" d="M397 295c-6 3-7 2-8 12 5-6 4 2 11-6 1-1-1-2-3-4"/><path fill="#AE9A5D" d="M403 309c-12 3-2 1 0 13 14-11-2 10 13-7 0 0-4 2-5-2-4 3-5 5-7 6 1-4-1-9-2-10"/><path fill="#AA9C5D" d="M451 348c0 6 5 22 1 34 0-3 1 1 3-1 1-9-1-22-2-32"/><path fill="#190705" d="M213 457c-11 5 0 3 4 2 4 10 2 14 5 16 2 1 5 0 7-1-2 2-5 2-7 3 1-6-1-13-1-19-2 3-4-2-7 0"/><path fill="#767147" d="M239 114c-15 8 9 11-11 17 7-2 13-6 18-2-4-2-12-8-6-12"/><path fill="#634A20" d="M119 333c-1 1-4 2-5 5 2 1 4 4 5 4 4-3 6-7 2-8"/><path fill="#BDAA6C" d="M102 296c-6 1-4 8-6 12 6 4 10 8 11 13 4-2 5-4 2-7-3 3-7-1-9-3-2-7-3-12 2-16"/><path fill="#35200C" d="M228 385c0 4 3 9 1 14 7-1 7-12 2-14"/><path fill="#5C471F" d="M134 280c0 3 4 6 6 9 4 0 6-2 7-3-4 2-7-2-9-8"/><path fill="#5F481C" d="M92 310c-3 4 4 15 12 16 0-6-6 2-8-14 1 0 5 0 6 3-2-3-6-2-7-5"/><path fill="#1B0A05" d="M381 241c-21 1-41 2-61 4 15-5 132-1 61-4"/><path fill="#3A2211" d="M411 335c-10 19 4 40 3 60-2-20-6-39-4-58"/><path fill="#37220F" d="M181 262c0 6-4 8-9 3l-1 2 2-2c1 5-4 9-5 13 3-5 19-14 17-16"/><path fill="#BEAA6A" d="M165 334c1 4 8 6 7 12 5-2 2-6 5-9-4 2-6-4-10-3"/><path fill="#4A3118" d="M459 391c-3 10 2 22 0 30 1 2 3 3 6 2 0-4-9-19-7-30"/><path fill="#482E17" d="M194 456c-6 1-14 9-22 5 4 1 1 4 4 5-3-2 35-10 22-10"/><path fill="#BFAF6E" d="M284 113c15 27 2-1 16 10 1 0-3-1-1-4-4-3-8-3-11-4"/><path fill="#86673E" d="M105 333c-1 15 12 15 17 25l1-1 1-1h2l-2-1c-2-6-16-7-19-20"/><path fill="#C9C174" d="M490 451c4 0 4 11 11 10 0-7-6-10-9-11"/><path fill="#3D2810" d="M242 320c-5 3-5 10-1 14 4 3 7 6 10 3h3-2c-4 0-6-2-9-3-4-5-3-8-1-11"/><path fill="#E2CB86" d="M221 433c-2 2 4 4 3 6 5 0 8 1 10-1-3-2-7-3-11-5"/><path fill="#735C2C" d="M200 360c2-2-1 8 6 12 2-4 2-7-3-14"/><path fill="#887434" d="M154 442c-3 3-12 1-12 7 6 2 10-2 12-5"/><path fill="#9D7E4F" d="M126 335c4 8-6 12-4 18 5 1 7-4 9-7-1 4-7-3-4-9"/><path fill="#E6E3DF" d="M405 134c16 8 7 22 16 16 2 11 4 17 1 23 0 6-4 9-7 10 0 3 8-6 5 1 1-3 2-6 3-8 0-8 1-15-1-20-3-10-9-16-14-21"/><path fill="#D8C87F" d="M193 346c4 0 9 5 12 9-6 0-8-4-11-6"/><path fill="#AF965A" d="M165 321c-2 3-5 8-3 12 2 5 4-4 10 2-5-4-8-8-6-14"/><path fill="#170A09" d="M448 438c-21 9 26-3 23 10-8-8-12-5-18-10"/><path fill="#634C1F" d="M420 350c-1 4-5 7-3 12 1 4 4 1 4 3-2-4 2-9 0-13"/><path fill="#624B1F" d="M425 374c-2 1 0 6 0 8 10-1 5-6 3-9"/><path fill="#725535" d="M358 309c-5 1-24 6-20 9 7-2 14-5 20-9"/><path fill="#A29F65" d="M299 204c-6 3-11 7-16 11 4-5 23-6 17-9"/><path fill="#170F0A" d="M424 178c-1 6-4 12-10 18-14-2-13-12-23-16 4 6 12 15 20 16 11-5 15 19 8-4 1-5 5-9 6-13"/><path fill="#9B7B4F" d="M255 381c5 7 11 11 19 13 3 2 5 2 7 3 11 3 20 3 30 4 2 4-2 4-3 5 8 2-1-2 14-6-15 0-27 1-40-3-10-3-18-5-24-14"/><path fill="#4A3414" d="M286 361c-1 3 1 13 9 14 12-3 18-2 18-6-1-4-8 8-15 5-8-1-13-6-11-11"/><path fill="#461B13" d="M238 139c-2 1-5 0-6 2 0 3-7 4-5 9 1-9 26-9 12-12"/><path fill="#E5CE93" d="M373 328c-1 9-8 16-12 23 8-4 10-13 13-22"/><path fill="#E4CD91" d="M255 337c1 9 8 17 13 25 6 6 11 10 17 12-12-4-24-21-28-34"/><path fill="#BDAB6D" d="M402 284h-3c-3 4-5 8-7 12 2-6 20-15 15-13"/><path fill="#130504" d="M160 246c2 5 8 10 15 8-8 4-13 1-15-5"/><path fill="#1D0906" d="M139 406c-16 21-29 4-38 18 12-6 16-1 30-9 3-3 6-4 7-7"/><path fill="#483214" d="M97 329c6-1 5 8 0 9-3-2-3-4-1-6"/><path fill="#5C4725" d="M217 212c-1 2-3 4 0 6 6 5 4 0 8-1-2-1-5-2-6-5"/><path fill="#D9C076" d="M191 196h-3c1 2 0 4 1 6 3-5 16-5 4-8"/><path fill="#1B0704" d="M247 261c-7 0-22 1-30 5 8-1 36-3 33-6"/><path fill="#A04631" d="M222 167c-1 6-1 8-2 16 3-5 11-12 2-17"/><path fill="#2B1709" d="M179 418c4 2 1 13 9 15-9-1-8-8-10-12"/><path fill="#19120C" d="M481 431c1 12 18 18 23 27-6-9-16-13-20-23 8 0 16-2 22 4-5-7-15-5-23-7"/><path fill="#BDA061" d="M194 443c13 3-3 8-5 9 1-3 2-6 3-6"/><path fill="#311E17" d="M213 166c-6 6-2 20 2 26-3-7-3-16-2-25"/><path fill="#665226" d="M445 344c-1 2-1 7 2 9 4-4 3-8 0-10"/><path fill="#9A7B4F" d="M379 355c-10 16-26 35-43 43 11-4 20-14 28-21s11-14 14-20"/><path fill="#16100B" d="M426 258c-6 6-11 12-19 16 2 1 3-2 5-1 14 11 18 25 31 38-21-25-9-20-30-39 6-5 10-9 12-12"/><path fill="#826E34" d="M230 230c3-2 4 6 1 6 2 2 4 1 7 0 1-7-4-7-6-6"/><path fill="#3E290F" d="M285 365c-1 5 2 12 9 12 7 1 13-1 17-5l1-2-2 1c-4 2-7 8-14 5-7-1-11-6-10-10"/><path fill="#9B7E4F" d="M196 329c3 10 13 21 18 30-4-11-12-19-18-29"/><path fill="#9BA3A2" d="M412 276c10 10 17 22 26 34-8-12-15-24-24-33"/><path fill="#3B230E" d="M110 354c-5 3 0 8 4 7 0-4 2-9-3-7"/><path fill="#CFC471" d="M435 465c-2 3-2 8 4 6 3-3 0-6-2-7"/><path fill="#4F3717" d="M126 336c0 3-3 3-4 6-5 0-7-1-9-2 0 2 1 3 1 5 8 3 11-8 12-6"/><path fill="#14110D" d="M270 440c8 8 23 9 36 12 4 3 5 5 2 8-4 2-8 2-10 0 4 1 8 4 12-1 1-3-1-5-3-6-13-5-26-5-35-13"/><path fill="#705230" d="M228 300c-2 4-7 5-10 2 3 4 1 10-1 13 1-4 7-9 7-10 3 3 5 6 4 11 0-5 1-10-1-14"/><path fill="#723120" d="M404 144c-2 6-7 16-2 20-1-8 1-8 1-19"/><path fill="#6A5523" d="M197 303c2-2 8-1 8 2-4 3-8 4-9 1"/><path fill="#576576" d="M153 228c-5 2-12 15-19 23 8-7 9-6 19-23"/><path fill="#747D82" d="M145 268c-3 2-8 5-11 9 16-6 13-3 11-9"/><path fill="#998740" d="M164 464c-8 0-5 14-10 3 9 15 24-9 7 6-4-5-1-8 1-9h4"/><path fill="#604528" d="M280 264c-22 9-62 8-66 4 23 5 48 2 70-4"/><path fill="#BEAE6E" d="M117 296c12 0-4 9 9 10 2-4-1-7-3-10"/><path fill="#C9BD6C" d="M228 479c2-2 7 5 5 6-6 2-8-1-5-3"/><path fill="#1B1412" d="M150 241c-8-1 2 5-9 19 1-10 11-5 14-13l1-2-2 1c0 2-2 2-4 3-2-3-2-6-1-8"/><path fill="#442B16" d="M402 254c6-2 12 1 16 4-4 0-8-2-13-3"/><path fill="#B3915C" d="M257 381c4 7 11 11 18 12 11 6 22 5 32 7-9-1-19-2-27-6-9-3-16-6-21-11"/><path fill="#F3AF9F" d="M226 179c-6 5 1 12 3 16 5 8 3 0 8 1-8-10-9-2-12-16"/><path fill="#826830" d="M161 339c-2 4-1 9 4 10-3-5 4-9-2-9"/><path fill="#170A06" d="M463 405c0 7 1 14 7 18-2 2-3 2-4 2 4 1 8 4 10 4-23-20 8-6-15-21"/><path fill="#816B38" d="M166 230c-1 5-2 9-4 14 4-1 3-6 5-5 4 0 5-2 6-2 7 3-3 5 0 7 4-4 5-7 6-9-3 1-6 2-9 4-5-2-5-4-4-7"/><path fill="#A2834D" d="M398 428c0 3-2 8-16 12 11-2 31-12 17-10"/><path fill="#472E17" d="M449 428c-11 16-2 9-3 5 8 2 17 7 28 11-6-4-19-9-25-14"/><path fill="#735F2B" d="M309 147c-5 9 1 6 5 10-5 4-5-1-10 6 13 8-3-8 11 1 0 0 1-3-1-4-1-6-5-7-5-11"/><path fill="#DCD496" d="M390 183c4 4 1 7 2 12-1-2 1-3 1-4 3 2 4 5 6 8 1-6-3-10-6-14"/></svg>