<svg xmlns="http://www.w3.org/2000/svg" width="600" height="600"><path fill="#7E553B" d="m185 117 2-2c8 6 12 18 18 26 4 27 12 48 17 72 2-8 1-17 6-23 12-16 14-34 33-40 22-1 40-15 64-15 22 10 44 21 60 41 8-22 19-41 30-60 11 2 18 4 26 6 3 15 4 29 6 41 3 4 11 1 14 2 2 10 5 17 5 25-8 9-13 16-14 26 11-7 18-13 28-20 9 2 17-1 23 2 11 22 24 43 36 63 2 9-3 13-1 20 6 18 12 35 20 50 0 25-3 46-4 68-4 8-8 14-12 19-5 5-8 0-10 2-3 7-3 12-4 18-8 4-14 13-21 16-3-12-1-24-1-33 4-5 5-7 7-10 2-9-2-14-3-21-1-14 4-25 5-38-2-7-7-6-9-11-6-22-11-42-21-60-10 1-12 11-20 16-1 20-4 37-10 53-1 9-6 14-12 17-3 1-4 4-6 1 4-20 9-36 5-56-15 13-33 18-49 17 2 10 11 4 10 12 4 11 1 21 1 30-3 23-14 41-25 57-6-4-6-9-8-14 0-21 8-36 5-56-7 11-12 21-18 32-4-4-1-12-2-17-4 2-7 4-11 6-5-1-9-1-13-3-2 5 1 12-2 15-10-13-22-20-25-31 4 19 9 36 12 53-3 9 0 22-8 24-15-13-21-28-29-41-2-16-5-32-6-44 8-5 16-9 15-17-4-2-8-1-10-3-10 5-14 9-19 14-14-8-26-13-37-21-3 14-1 30-2 45-2 10-12 11-10 21 2 8 6 14 8 20-2 11-3 20-4 29 6 8 12 14 11 24 0 8 6 15-1 20-10-3-17-8-23-13-7-21-11-40-16-58 1-13 8-22 11-32-3-8-10-10-14-17-3-26-13-49-14-72-6-8-12-16-16-23-11 17-19 36-25 55-5 4-12 0-14 6-1 13-1 25-1 37-5 13-11 22-12 34 2 15 5 26 4 40-8 6-16-6-23-9-1-24-1-42-2-63 3-17 17-28 21-43 0-8-3-13-4-19 18-24 27-51 39-75-4-2-5-3-6-4-12 17-20 31-32 45-3 8-13 3-14 11-7 15-7 30-9 44-6 11-14 18-16 27 2 7 4 12 5 18 0 13-4 23-5 35-9-6-13-15-19-22-1-42 2-81 34-106 2-9-3-15-1-21 15-20 31-40 46-58 10-1 16 3 23 5 13 10 24 19 36 27-2-32-10-68-4-107 2-5 6-6 9-8"/><path fill="#2C171B" d="M411 225c-1 24-17 43-25 65-13-3-23-7-33-12-13 5-23 12-33 18-16-15-26-29-39-43-16 3-30 7-44 10 5 1 10 1 16 1-3 6-9 6-14 10 7 4 12 8 19 8-5 1 1 9-3 12-2-4-2-7-4-11-9-4-17-6-24-9 9 9 18 15 27 21 6 6 11 10 16 14-6-2 7 18 0 25 6-6 11-5 18-2-1-13 2-23 9-31 30 2 56-4 87-10 5 9 18 19 14 32 5 0 6 3 9 3 11-8 27-12 29-24-8-3-10-11-11-13h3v-1h-3c-9 4-18 10-27 14-5-3 1-4 2-5 0-8-11-7-7-12 6-7 11-2 16 0 11-15 50-34 17-39-2-1-5 4-10 5-1-7 9-15 11-22-4-1-10-1-14-4"/><path fill="#AD7356" d="M409 224c-1 2-3 4-2 8-4 0-6-3-7-3-4 3-7 5-11 8 1-3 4-5 7-7-14 9-26 21-39 30-21-10-23-8-44-19-14 1-20 0-34 6-1-3-3-4-2-6-1-4-3-6-2-9-9 0-9-1-14-1 5 2 9 6 14 8 10 20 29 36 43 54 13-4 21-11 30-16 13 3 23 7 34 10 9-21 19-41 28-61"/><path fill="#4C221D" d="M324 314c1 4 2 9 3 13-14 12 5 0-12 20-9 5-22-4-25-7 1 1 7 8 12 7 0 6-4 8-5 12 7 24 9 54 8 76 8-5 10-15 10-22-5-21-11-39-16-56 9 2 19 20 30 30 1-4 0-10 0-14 7 0 12 5 15 4 2-14 3-26 4-37 2 3 1 8 4 10 2 5 11 4 14 7s3 4 4 6c1-2 2-5 4-7-7-9-15-12-22-17-4-1-7-2-10-2-7-7-17-11-17-22"/><path fill="#CE6002" d="M346 188c-9 10-19 20-29 28 14 7 31 18 36 15 9-5 19-10 27-17-11-8-21-16-31-25"/><path fill="#462A21" d="M530 279c3 47 5 34 3 64 0-2-2-7 0-11-1 15 8 23 7 36 4 12-4 15-4 22 5 5 10 5 14 9 3-21 3-41 1-61-8-19-12-42-18-56"/><path fill="#4A2C23" d="M76 298c-7 13-18 10-23 25-5 19-10 38-11 57 7-2 12-6 17-8 4 1 3 3 4 4-1-1 1-4-1-4-3-7-3-8-6-13 2-16 12-24 16-30 3-11 1-20 4-28"/><path d="M484 221c-13 5-11 24-27 28-1 7 1 10 2 14 6-2 12-5 17-7 11 1 20 0 28 3-2-15-9-26-18-37"/><path fill="#883305" d="M254 183c-4 2-5 6-9 8 1 9 2 16 4 22 8 6 18 4 23 7 5-11 9-24 11-36-6 2-18-2-27 0"/><path fill="#E7BB88" d="M315 208c-35 31 16 17 33 41 5 2 3 5 6 8 13-14 32-21 40-34-5-7-8-5-8-12-1 16-33 20-33 38-1-3-3-5-3-8-13-8-25-13-36-20-2-1-2-6-3-12"/><path fill="#7A4A31" d="M223 286c-3 1-6 2-8 4 3 3 7 7 10 11-5-5-15-9-13-2-4 21-2 45-3 67 3 4 5 5 6 7 3-16 2-36 6-51 6-4 8 5 10 0-1 0 3-1 1-4 4 6 10 9 13 12-11-8-12-19-18-27 0-7-2-12-3-17"/><path fill="#CE5800" d="M313 161c-4 4-8 7-13 10-2 12-8 24-6 35 5 1 10-1 13 1 4-12 16-20 24-30-5-6-10-11-16-15"/><path fill="#442A21" d="M421 208c-6 2-7 7-11 11 0 4-2 8 0 8 6-4 13 2 17 0-1 10-11 17-12 24 5-1 8-7 13-8 5 4 10 6 13 10-8 11-21 21-30 31 29-19 25-25 53-48-7 4-19-2-23-1-6 1-10 7-15 8 2-14 30-40-6-33"/><path fill="#5C3727" d="M520 346c-2 13-5 26-8 39 4 9 5 17 7 24-3 5-6 9-9 12 1 3 6 12 10 18 7-5 6-16 10-24-9-8 1-48-11-65"/><path fill="#764831" d="M161 243c-1 3-3 8-3 11-4-2-8-6-10-8-11 22-20 46-31 68 1 4 1 7 4 10 9-14 22-49 35-66 10 5 16 13 18 22-5-19-11-17-11-37"/><path fill="#D5A379" d="M279 212c-1 10-8 25 3 32 12-3 21-6 30-8 15 8 28 16 40 23 19-8 37-33 53-31-4 2-10-8-13-10 3 3 4 7 1 10-13 10-27 19-39 31-3-5-2-7-4-11-13-5-24-14-37-17-3 2-6-1-8 1-1-3-5-5 0-7-7 2-11 7-17 10-2-8-1-19-8-21"/><path fill="#7A4A32" d="M125 206c-14 19-27 39-41 58 4 1 4 5 10 4-1 4-2 5-3 7 12-24 49-59 41-68"/><path fill="#ECBD89" d="M289 145c-2 3-9 5-14 3 1 0 2 1 4 1-13 5-17 16-25 23 7 5 11-4 18-9 5 5 7 8 9 12 2 3 4 3 4 5-2 11-4 21-6 30 4 7 9 6 7 14-2-15 5-29 6-43-1-1-2 5-7 0 3 0 10-10 13-10-8-5-6-15-9-24"/><path fill="#2B1A1A" d="M170 238c-1 5 17 16 23 22-2 11-4 21-6 30 2 6 5 8 8 10 1-4 1-9 0-14 10-6 19-8 24-17-15-13-33-24-48-32"/><path fill="#F4B239" d="M313 140c-28-2-24 13-13 30 6-2 9-8 14-10 8 6 13 11 19 15-5-12-7-25-15-35-3-2-4-2-5-1"/><path fill="#5D3A2B" d="M108 327c4 4 2 12 3 18-3 7-16 11-19 27-1 16-4 30-5 44 1 6-1 9 0 13 7 1 9-4 15-4-2-9-4 4-12 2-2-5-1-6-2-8 1-5 9-17 10-12 0-12 6-25 12-36 2-15 2-30 1-43"/><path fill="#764830" d="M480 266c-10 17-15 20-31 37 4-4 9-6 12-6 9-5 13-17 23-20 17 22 23 62 30 63 1-20-11-44-15-68-2-7-6-4-7-1 2-4-3-3-6-3 1 3 0 4 4 1-2 3-3 4-4 5-3-1-2-7-4-9"/><path fill="#8F3C15" d="M371 300c-16 6-36 5-53 3 19 12 29 31 38 35 1-10 4-20 5-30 5-5 8-7 11-9"/><path d="M198 206c-11 9-5 25-7 37 11 9 20 16 29 23 5-2 8-1 11-2-2-5-4-9-5-13-5 5-10 1-13 1-7-16-11-30-15-44"/><path fill="#432723" d="M251 298c-1 9-4 20-4 31 5 6 8 9 12 13 5-5 11-6 11-10 4-9-3-14 0-20-5-6-11-13-17-14"/><path fill="#462A1E" d="M182 154c3 19-1 37 1 57 1-2 5 0 5 2 6-7 8-10 8-15 7 16 11 31 16 46-3-10-6-20-8-31 3 1 4-2 5-4 6 5 6 10 8 14-4-18 11 4-1-22 3 6-1 6-4-3 1 4 1 7 2 10-4-4-6-8-8-12-8-4-7-6-7 2-6-16-12-29-14-43"/><path fill="#632E20" d="M379 297c-12 2-24 4-35 7 10 0 19-3 28-6-3 4-7 5-9 8-2 12-5 23-3 31-2 5-4 1-6 1 10 4 24 19 25 20 0 8-2 28-5 41 4-5 6-11 12-12 0-12 4-21 5-31 2-3 2-1 3-1-2-8-6 1-14-7 0-10-17-8-17-19-2-8-2-15 0-20 5-3 10-9 15-11"/><path fill="#5F3827" d="M209 397c3 10-6 19-9 28 5 16 3 31 9 45 6-5 9-9 13-13-6-9-4-10-10-13 0-13 4-22 5-32-2-7-6-10-6-12"/><path fill="#44271E" d="M444 275c-21 15-29 12-47 25 9-3 18-8 27-13 2 4 8 13 11 13 3 8-4 12-8 14 18-6 53-36 14-37"/><path fill="#2B1B1E" d="M209 210c-9 4 4 26 4 38 5 3 9 5 11 0 5 4 6 9 9 13-2-16-5-31-8-45 0 1-1 2-2 4-4-3-5-5-6-6-1 3 1 5 0 8-3-4-4-8-7-11"/><path fill="#FBF6DD" d="M331 152c-2 6 4 15 5 21-3 6-6 9-10 12 6-3 5 9 10 6-2 7-8 11-11 16 8-7 14-15 21-20 12 6 21 13 31 20-4-3-8-6-10-9-4-6-2-8-1-11-13-9-23-21-33-33"/><path fill="#78493B" d="M227 214c2 15 8 33 13 44 14 1 26-5 38-6-9-7-15-11-25-15-7 0-10 4-14 6-4-10-3-23-12-28"/><path fill="#764931" d="M496 204c-2 3-6 3-8 8 5 14 16 27 20 41 5 11 14 7 18 13-9-18-18-42-27-63"/><path fill="#7B4929" d="m424 126-2 1c-5 16-11 31-17 46-5 3-13-4-17 5 2 1 6 0 9 4 0 8-6 4 1 10 1-6 4-12 6-18 6-8 7-18 15-22-6 16-12 40-19 46 12-21 22-42 30-63 4 10 5 36 9 37-5-14-5-26-8-37 4-8 7-13-4-10"/><path fill="#7E4327" d="M296 366c-6 7-9 19-14 25-1 8 8 17 12 26-2-3-4-6-5-10 4 0 5 4 10 4 0-1 1-2 2-4 3-16-5-25-4-40"/><path fill="#623828" d="M240 288c0 11-14 4-10 17 1 6 6 10 6 13 1-4 7 0 8-5 1 6 1 10 1 13-16-14-8 4-21-6v-3l1-2-1 3v2c7 11 22 14 32 22-2-4-6-8-10-12v-3c0-10 3-20 4-28 3-3 4 0 7 0-10-7-6-3-17-10"/><path fill="#613722" d="M162 260c-2 2-4 4-5 7 3 9 7 16 15 20 1 24 8 56 14 81-1-27-11-56-12-75 8 1 11 1 14 3-16-14-14-17-25-36"/><path fill="#F5C448" d="M326 138c12 25 26 26 33 41 3-5-1-10-2-14 5-1 10 4 12 4-12-16-25-24-41-29"/><path fill="#43271F" d="m182 252 2 2c-5 2-10 8-12 11 1 13 6 21 15 27 1-9 2-20 6-30-3-2-4-5-6-6l-2-1-1-1"/><path fill="#D09551" d="M142 245c-11 19-22 39-32 58 7 10-5 6 5 10 11-23 23-51 29-68"/><path fill="#CA5702" d="M358 164c1 4 4 9 4 14 6 6 11 9 17 13 4 10 6 19 12 26-6-10 11-10-1-20-4-8-16-25-30-32"/><path fill="#985F37" d="M104 323c-4 16-16 28-21 43-2 23 0 47 1 64 2-20 5-59 8-66 3-13 11-32 15-40"/><path fill="#5E3827" d="M472 216c-9-2-19 7-31 16-1 3 17 4 23 2-8 12-18 19-26 27 3-1 7-3 9-6 5 1 3 5 4 7-1-12 8-10 14-26 3-7 4-14 7-20"/><path fill="#34201D" d="M178 294c-2 19 6 36 9 52 5-12 0-29 3-43-3-4-7-5-9-9"/><path fill="#C98D4C" d="M208 290c-4 23-7 46-10 69-2 8 4 8 7 7 2-24 3-49 4-73"/><path fill="#996039" d="M200 381c-3 9-10 17-12 27 1 10 5 17 6 24 4 0 6-1 7 5-10-19 4-38 1-57"/><path d="M515 278c2 17 8 33 14 48 2-14 1-27-1-40-3-7-6-7-12-8"/><path fill="#5E3827" d="m428 194-2 1c-4 5-5 10-9 15 5-4 16 0 24 0-3 9-7 14-10 21 8-14 44-45-6-33"/><path fill="#4A2E2B" d="M460 315c-3 5-8 8-11 13-4 14-5 26-10 37 5-1 9-3 11-6 5-15 9-28 10-42"/><path fill="#5E2D29" d="M349 337c-1 34-2 23-4 40 5-3 10-7 13-10 2 7 2 13 0 19 3-8 9-15 11-23-5-7-7-7-15-8-2-4-7-7-5-14"/><path fill="#F9E4B7" d="M332 178c-1 2-3 4-4 6-6 5-9 8-13 11-3 9-3 17-2 23 12-10 12-14 23-25-6 0-6-11-8-7 0-4 1-5 2-6"/><path fill="#F2F9FC" d="M422 171c-13 11-2 13-16 31 1 6 4 5 3 15 3-15 14-13 7-19 7-6 8-4 9-8 0-5 0-9-1-18"/><path fill="#46281D" d="M186 215c-2 8-3 17-4 25-3 0-4-2-6-3-26-25-35-20-6 5-1-6 2-4 3-5 4 2 6 3 7 5 6 3 10 6 13 8-8-7-1-23-4-33v-1l-1-1"/><path fill="#5C3624" d="M138 211c-5 4-20 28-8 13 7 1 8 7 9 8 4-3 12 0 13-4 4 2 5 6 7 6-16-27-5-14-18-20"/><path fill="#D49552" d="M446 169c-6 1-7 4-8 10 3-3 9 0 9 3-1 6-7 8-9 12 3-2 5-6 9-8 5 2 11 3 15 5 0-7 0-13-2-18 2 1-4 1-4 4-4-2 1-4 1-7-4 0-8 2-9-1"/><path fill="#9A5832" d="M392 357c2 12-5 22-5 27 6 3 6 10 7 10 4-5 9-15 7-24-3-5-3-8-7-12"/><path fill="#A45228" d="M288 348c1 2 2 3 2 5-5 1-10-2-11 2-2 12 2 21 2 31 5-9 10-23 15-30-4 7-4-3-7-5"/><path fill="#62381F" d="M430 135c-2 9 2 6-6 14 1 13 5 25 5 37 3-3 4-7 7-10-2-15-4-27-5-40"/><path fill="#CD9151" d="M499 259c5 22 20 46 26 69-6-21-12-42-16-64-2-4-8 0-8-4"/><path fill="#9F6232" d="M419 122c-4 28-19 38-32 50 8-5 16 5 14 3 9-17 18-41 23-52"/><path fill="#996137" d="M186 120c-4 1-7 3-10 5 1 3 3 5 5 7v2h-1v2c-7 3-4 19-4 27 7-5 2-19 4-27 8 3 10 3 14 10-2-10-5-17-8-24"/><path fill="#BC5704" d="M272 166c-6 5-12 9-17 16 18 2 41 5 16-17"/><path fill="#9E6132" d="M436 124c-1 3-3 6-4 9 2 14 5 26 10 36 3 0 3-4 2-9-1-13-4-25-5-35"/><path d="M442 262c-9 9-19 15-29 24-7 4-14-8-18-1 5 3 6 10 9 8 15-8 27-15 40-22 0-4 0-7 1-9"/><path fill="#CB9254" d="M204 283c-1 3-4 0-5 3-1 26-6 46-4 67 2-23 9-46 10-69"/><path fill="#905B45" d="M226 204c-2 11 11 15 10 24 4-6 8 2 12 5-2-6-4-15-6-22-3-5-6-4-7-7-4 3-5 4-6 6-2-2-4-2-4-4"/><path fill="#522620" d="M385 388c-5 4-11 10-12 16-1 16 7 11 2 21 10-10 8-22 10-36"/><path fill="#9E3103" d="M313 200c-2 2-2 5-4 8-6-3-15 3-16-4-3 8-2 17-3 25 7-4 12-9 18-13 2-6 3-10 4-14"/><path fill="#F8E2B6" d="M353 175c20 12 9 27 31 37-17 10-8 17-34 30 1 2 3 3 2 7 1-2 1-4 0-7 11-10 26-18 33-27-1-9-5-15-7-22-9-7-16-11-23-17"/><path fill="#AA7453" d="M235 182c-9 12-10 18-8 23 2 4 7-6 10 1 9 7 7 14 12 21l1 3h1v2c-4 4-9 7-13 10 6-4 12-9 18-12-1 1-2 1-3 0h-3l-2-2c0-19-12-35-13-44"/><path fill="#462A23" d="M461 298c-7 10-6 4-16 10 0 9 1 13 0 21 3-13 8-4 16-17 1-5 0-8 1-11"/><path fill="#6A250A" d="M278 209c-1 4-3 9-3 12-7-3-17-1-24-5-1 4 0 7 1 9 7 3 13 4 21 6 2-7 3-14 4-21"/><path fill="#76482F" d="M202 377c6 15-7 36-2 51-3-10 10-15 8-26 5-5 4 2 8 4-6-7-7-19-11-27"/><path fill="#30201E" d="M537 391c-6 9-1 19 0 27 5-6 10-12 13-18-5-4-8-5-12-6"/><path fill="#A17963" d="M293 311c-3 3 1 13-1 21 3 2 4 8 6 6 3-7 8-10 6-15-2-7-7-8-9-12"/><path fill="#682914" d="M309 304c15-2 22 35 37 32 0-17-28-22-30-34 1 0 0 0-1 1"/><path fill="#7B4828" d="M182 163c0 2-4 0-5 1-1 11-4 23-2 33 1 4 8-4 6 6v-39"/><path fill="#603826" d="m461 269-15 6c2 4 10-1 16 10-1 3-1 5-2 6 3-7 18-24 2-23"/><path fill="#F0C389" d="M354 152c14 15 29 30 41 47 3-7-7-16-12-22-12-13-16-17-27-23"/><path fill="#DFC098" d="M394 308c-1 4-5 4-7 8-4 7-3 12-1 16-4 2-6 2-9 2 9 2 16 0 18-8 1-5 3-13 0-16"/><path fill="#CA9151" d="M506 218c7 16 14 32 22 48 2 1 3 0 5 0-8-16-16-32-25-47"/><path fill="#DCA768" d="M137 234c-4 9-9 19-12 29 1-2 6-11 11-15 2 0-2 5 0 3 8-10 8-1 9-10 28 4 15-14-1-1 0-5 2-5-6-4"/><path fill="#3D2520" d="M60 375c-5 2-11 5-16 7 5 9 8 17 13 16 1-7 3-15 4-22"/><path fill="#573223" d="M77 279c-7 15-16 29-26 42 9-12 14-12 22-20 3-7 7-17 6-22"/><path fill="#43291F" d="M223 457c-4 4-8 9-12 14 4 3 8 8 13 10 2-8 0-15 0-22"/><path fill="#47251B" d="M234 265c-6 2-16 4-3 1 1 5-2 9-7 8 6-2 17 5 24 7 6 4 6 9 7 12 3-3-4-10 2-11-6 1-11-4-18-5 4-8 9-8 14-11-7-1-12-1-17-1"/><path fill="#E8D2AE" d="M303 305c-4 4 4 13-2 11 5 2 10-4 13 0 6 3 7 7 10 10 0-5-1-9-2-14-6-4-11-6-16-7"/><path fill="#915C39" d="M523 343c-2 13 11 34 5 44 3-7 8 8 8-9-3-12-8-21-11-32"/><path fill="#814C2E" d="M195 431c0 13 6 26 9 39 5 4 10 7 14 9-3-2-5-5-9-6-4-13-7-26-6-37-2 7-4-7-7-3"/><path fill="#683D27" d="M417 153c-4 6-7 12-10 19-2 9-11 16-7 24 8-14 13-29 19-43"/><path fill="#C38949" d="M501 277c7 18 10 45 18 58-2-21-10-39-17-56"/><path fill="#653C2A" d="M507 253c2 5 6 14 6 22 4 1 6 2 10 2 4-6 5-9 0-13-5 0-12-4-14-10"/><path fill="#A76530" d="M436 177c0 7-1 11-4 19l2 1h1l1-1c9 0 19-4 25-4-3-3-9-2-12-6-6 4-9 7-13 10 2-4 5-7 7-11-1-6-11 1-6-6"/><path fill="#4F1B10" d="M374 293c-24 8-45 8-68 8 16 5 101-6 73-7"/><path fill="#77492E" d="M181 135v13c8 0 17 2 24 10-1-4 0-9-1-13-4 2-7-1-10 1-5-4-8-6-12-9"/><path fill="#905B45" d="M255 232c-17 5 19 7 21 19 1-10-6-13-13-17-3-1-4-3-5-3"/><path fill="#D49A56" d="M110 221c-12 16-19 23-32 40 15-12 25-27 33-39"/><path fill="#4D261E" d="M365 305c-3 6-2 13-3 19 0 5 2 6 3 8 14 7 14 20 25 19-2-3-6-4-8-8 2-3 7-3 10-5-8-1-12-1-15-1-6-3-11-7-14-10 2-7-1-15 2-19"/><path fill="#341507" d="M190 364c0 3 3 6 5 9s4 3 4 5c4-2 9 1 11 4 1-2 2-6 6-4-5-6-10-10-17-9-1 0-2 2-1 4-4-3-4-6-6-8"/><path fill="#6F4530" d="M108 324c-4 16-11 31-17 47 2-14 18-21 15-23 3-10 5-18 1-22"/><path fill="#6A3723" d="M303 395c1 7 0 13-3 17-3-1-8-1-9-6 2 9 6 16 10 23 5-12 2-21 3-31"/><path fill="#482C23" d="M517 413c-3 1-5 5-7 7l-2 1v1l1 2v2c-2 7-1 14-2 24 4-3 8-4 10-8-3-6-5-11-8-16 0-6 4-8 5-12"/><path fill="#503126" d="M97 407c-5 2-10 12-7 18 4 0 8-2 11-2-2-6-1-11-4-15"/><path fill="#381504" d="M101 309c0 10 5 12 10 18 3-1 4-3 7-2-2-22-18-5-15-13"/><path fill="#FAF2DF" d="M376 223c-9 1-15 8-22 12-10-2-19-7-27-9 8 6 17 9 25 14 9-6 15-11 22-15"/><path fill="#F5DAB6" d="M297 171c-3 4-7 6-9 10 1 3 3 0 4-3-1 19-9 35-3 53v2c7-5 14-9 20-15-6 3-13 9-19 15-4-24 4-41 7-60"/><path fill="#F1B554" d="M269 149h-3c-7 4-14 8-20 16 7-5 33-13 29-17"/><path fill="#CB8B49" d="M414 137c-9-1-13 7-17 17 4-2 5 4 9 0 3-6 4-12 7-16"/><path fill="#603B2A" d="M453 298c-9 5-29 20-42 28 14-6 28-17 42-24 0 8-2 13-3 20 0 6-7 8-3 13 0-8 8-17 14-20 0-5-7 7-10 8-4-15 19-31-2-22"/><path fill="#5E3927" d="M194 177c-3 6 3 12 4 19 1-2-1-3 0-5 4 4 9 1 10 7-4-8-3-18-13-21"/><path fill="#482B21" d="M104 425c-18 3-18 9-1 17 0-5-1-10 0-16"/><path fill="#AD3B01" d="M389 193c3 3 4 7 6 11 3 6-7 3-4 9 2 5 5 7 9 10 1-4 1-8 1-12-4-7-8-11-11-15"/><path fill="#83482C" d="M387 387c-1 10-1 19-3 28 3-4 8-13 11-20-3 1-3-6-5-7"/><path fill="#724530" d="M228 282c-3 6 2 13 0 19-1-9 11-3 10-13-1-4-3-2-8-6"/><path fill="#351818" d="M325 332c-4 3-7 6-11 9-6 2-10 2-14 2-5-4-6-6-9-8 0 4 3 7 5 10 7 2 12 1 15 3 8-4 8-11 12-14"/><path fill="#5E3727" d="M176 250c-3 1-6 0-6 4-2 3 0 6 1 9 2-2 8-7 12-8-2-1-4-7-6-5"/><path fill="#C4A180" d="M306 327c-13 15-5 15 11 9-8-2-3-4-11-7"/><path fill="#BF9172" d="M391 248c3 5-5 15-5 21-9-1-15-4-21-7 6 0 11 3 17 5 3-6 6-11 8-15"/><path fill="#A0725D" d="M368 305c-5 7-1 11-1 18 5 5 2 10 8 12-6-9-2-19-7-27"/><path fill="#7F4D2F" d="M527 385c4 10-5 15 3 28 1-9 3-16 4-24-4-12-5 7-7-3"/><path fill="#CF9E73" d="M259 174c-7 0-11 3-14 10-7 4-2 8-2 12-1-8 10-12 15-21"/><path fill="#C09477" d="M308 262c5 0 7 7 10 9 9-2 15-6 22-9-7 5-15 12-23 13-1-5-5-7-7-11"/><path fill="#96441C" d="M288 347c-17 5-6 7 2 5 2 1 2 3 3 5 4-3 5-5 8-7-5-1-8-3-13-2"/><path fill="#DDBF95" d="M383 298c-4 2-12 5-8 12 5 0 6 0 8 1-3-2-1-6 0-9 8 1 7-2 1-5"/><path fill="#D69C5A" d="M138 246c-13 12-21 37-33 55 11-18 22-36 32-53"/><path fill="#D59B55" d="M222 277c-5 2-8 2-10 3-3 2-2 4-3 5 5 5 7-1 11 0 3-2 4-3 2-7"/><path fill="#915943" d="M407 234c-9 19-15 35-24 54 11-18 17-35 26-52"/><path fill="#EAD4AE" d="M385 302c-2 2-2 5-3 8 2-2 4 2 2 4 4-3 8-2 9-5 0-4-3-9-6-6"/><path fill="#EFC481" d="M416 119c-15 14-4 19 2 3 7 3 14-1 20 1-7-1-13-4-22-3"/><path fill="#915E3C" d="M490 203c-1 3-1 5-2 8-2-4 0-8-6-6-2 8-11 8-10 19 3 0 9-21 13-10 2-7 15-11 7-10"/><path fill="#B5561F" d="M329 305c8-3 17 3 24-1-2 4-4 6-3 10-3-7-13-6-18-8"/><path fill="#A04C12" d="M250 166c-2 1-2 1-3 3-5 5-7 10-10 19 6-7 29-32 12-16-2 1-6-1 0-5"/><path fill="#3D261F" d="M183 336c3 9 5 19 7 28 5 0 1-13 3-19-2-12 1 2-5 1-4-3-3-6-4-9"/><path fill="#3A1607" d="M75 265c0 5 1 12 6 14-2 8-3 15-5 21 2-6 3-13 6-18 1-4 4-3 4-6-2-8-6-6-11-10"/><path fill="#DDA866" d="M120 204c-13 14-24 29-36 44 35-44 3 6 44-50"/><path fill="#7C4B2D" d="M483 211c-5 2-5 8-8 12-5 4-5-3-3-4-3 7-7 16-8 23 6-5 7-11 10-17 2-6 8-8 9-12"/><path fill="#FDF4EA" d="M531 341c-7 6 4 21 6 33 2-12-5-20-6-33"/><path fill="#3F1C1A" d="M346 337c2 6-17 12-23 17 6-6 13-11 19-15"/><path fill="#DAA472" d="M397 191c-4 10 3 8 6 27-1-6 7-6 1-13-2-4-5-9-8-12"/><path fill="#472A1F" d="M451 251c3 27-6-11-4 20 3-2 4-9 6-4 2-6 2-10 0-13"/><path fill="#CAA37D" d="M374 325c-3 3 3 6 3 9 1-2 4 0 6-1 3-3 0-5 0-8-3 1-6 3-8 0"/><path fill="#E48D10" d="M345 189c4 6 6 17 5 26-1-8-3-17-7-23"/><path fill="#4C2D1C" d="M125 228c-11 16-21 32-33 47 13-13 23-29 32-45"/><path fill="#D5B693" d="M319 322c2 4-2 9-8 8-1 4 5 2 3 7-4 3-7 3-10 4 2-1 5-1 8 0l2-1 1-1 1-2c3-4 13-8 4-13"/><path fill="#B65420" d="M398 340c-4 0-4 3-5 6 2 6 6 1 7 5 1-3 3-8-1-12"/><path fill="#B27848" d="M76 276c-8 13-16 26-28 38-1 7-2 11-3 14 3-8 20-30 30-50"/><path fill="#73462E" d="M166 240c-3 2 2 8 1 12 2 0 5-3 10-3-3-3-6-5-8-8"/><path fill="#FBE5B0" d="M323 140c-2 6 7 15 8 22-1-2-1-6-3-8 6-5 7 3 10 3-5-5-9-10-13-15"/><path fill="#5E3929" d="M210 186c-3 7 2 15 2 21-5-20 12 11 0-22"/><path fill="#3A1807" d="M524 335c-5 4-13 9-7 15 0-5 10-7 6-14"/><path fill="#DCA968" d="M189 123c2 3 3 10 6 15 3 0 4-1 6 0-4-4-6-10-10-14"/><path fill="#7F503E" d="M238 225c-2 4 2 9 1 13 4-2 7-3 8-4-3-4-6-6-7-6"/><path fill="#DDC09A" d="M299 302c-1 2-2 5-3 7 1 3 2 4 4 6 4-1-5-11 6-10-1-3-4 0-5-3"/><path fill="#E2AA63" d="M194 152c2 4 3 8 5 11-1 6 1 7 3 10-2-4-4-4-2-8 2-3 7-2 7 3-1-3 1-3-1-5-4-5-7-7-10-9"/><path fill="#3A221D" d="M186 279c4 0 0 8 0 10-4-1-4-3-7-3 7 2-2-5 5-6"/><path fill="#5C311F" d="M228 268c-7 1-6 1-12 7 6 3 9-5 15-2-3-1-2-6-1-6"/><path fill="#CE9251" d="M201 165c-1 3 1 4 1 6-4-4-7-5-12-4 0 2 2 2 2 4 2 0 7-4 8 1 6-1 7-4 5-8"/><path fill="#C58C5F" d="M407 212c-7 1-2 14-3 19 4-6 4-12 3-18"/><path fill="#502D22" d="M246 316c-12 1-12 2-1 12 0-5-1-8 0-11"/><path fill="#3E1B0A" d="M532 269c-4 0-3 5-7 6 5 2 3 8 7 8 3-7-3-10-3-12"/><path fill="#9A6139" d="M52 312c-7 9-6 26-9 38 3-12 7-24 8-36"/><path fill="#030303" d="M423 160c-3 3-3 8-7 11 4-1 6 2 7 1 1-4 3-8 0-10"/><path fill="#9D653A" d="M541 296c0 7 9 21 13 39-1 11 2 23 0 34 0-12 2-23 1-36-6-13-9-25-14-37"/><path fill="#724530" d="M478 206c-6 2-10 6-15 10 2 0 7 0 11-2 1-2 1-4 3-6"/><path fill="#623B32" d="m230 234 6 27c4-1 7 0 9-2-3 0-5 0-6-2-3-7-6-15-9-21"/><path fill="#643C26" d="M183 147c-3 3 0 9-2 13v-7c4 3 7 5 7 8 0-3 1-7 1-11-2 1-2-1-4-2"/><path fill="#E3BC8D" d="M480 258c-11 7 12 6 17 7 2-2-1-4-1-5l-1-1 2 1c-1 6-16 3-15-2"/><path fill="#4E2610" d="M451 208c-3 5-9 8-7 15 7-3 3-8 7-12"/><path fill="#F6D164" d="M339 148c6 0 12 8 18 10-6-1-11-4-16-7"/><path fill="#D29858" d="M501 202c11 18 22 37 33 55-11-18-20-36-30-55"/><path fill="#7B4B30" d="M208 178c-7 7 0 8-1 12 5 2-1-6 6-3-1-2-1-5-3-7"/><path fill="#593721" d="M487 212c-12 8-12 14-1 5 3 4 6 7 7 11 0-5-4-9-5-13"/><path fill="#3F2F2B" d="M310 316c-1 5-8 5-2 10 0 5 1-7 10 1 0-2-1-4 0-5-8 7-8-8-5-5"/><path fill="#471F0A" d="M534 267c-4 1-3 2-4 5 4-2 1 5 5 5 1-3 3-7 1-10"/><path fill="#77492C" d="M458 194c-2 1-4 0-5 1 1 0 3-1 5 0-6 8-13 13-16 20 10-4 8-12 16-19l2-1v-1"/><path fill="#976039" d="M208 170c0 3-3 5-2 9-8-10-18-8-2 1 0 3 1 4 2 5-2-2 0-2-2-4 4-2 6-5 8-1-1-3-3-6-4-8"/><path fill="#663F2C" d="M507 330c0 5 0 5 2 13 4-3 5-4 4-6-3-10-2 4-6-6"/><path fill="#845033" d="M148 243c2 3 5 5 7 8 1-4 2-6 3-7-3 0-5-3-8-1"/><path fill="#B7763C" d="M398 154c-12 8 7 9 8 2-4 3-5-3-8 0"/><path fill="#693C27" d="M84 264c1 4 2 8 5 11 9-6 2-2 6-10-4 9-7 0-10 1"/><path fill="#BA5E18" d="M264 157c-6 5-13 6-17 14 4 2 9-9 16-11"/><path fill="#43281E" d="M157 256c1 3-5 6-2 9 2-2 8-4 5-8"/><path fill="#F1C99F" d="M282 151c5 2-8 8-7 12-5-3 3-6 4-10"/></svg>