<svg xmlns="http://www.w3.org/2000/svg" width="600" height="600"><path fill="#485A63" d="M239 142c17 0 35-2 49 4 9 3 14 6 20 10 13 10 18 22 25 33 21-1 40 2 57 7 21 0 32-24 50-24 14-8 29-8 43-6 11 2 18 6 25 10 11 7 16 16 20 24 3 16 2 22 3 42-4 10-9 17-16 23-16 13-50 5-77 10-2 9 1 17-2 21 18 1 36 1 50 8-13-3-31-5-50-3-1 3-4 5-4 7 10 1 17 5 25 7-9 0-17-3-26-4 12 4 24 8 35 15-12-4-24-9-37-11-1 8 14 8 19 15-9-3-17-6-25-9 9 6 18 11 25 17-10-6-19-9-27-14-9 4 4 8 4 13-5-3-8-5-11-8-13 7-25 5-35 12-8 18 7 34 2 51-2 5-4 6-7 8-5 4-7-1-11 2 1-6-4-9 2-13-6-3-8-8-11-11 2 8 0 16-1 22-9 12-7 3-14 24 9 10 25 2 34 6 6 4 8 8 9 12-5 3-7 6-9 8-20 3-33-1-46 0-5-3-8-3-9-6-1-5 3-9 1-13-9-7-18-8-25-14-18 7-26 6-36 14-3-2-2-4-1-7-15 7-19 1-33 2-1 6 2 6 3 9 11 2 21 1 29 3 3 5 7 7 7 10-2 6-7 5-9 7-20-5-32 4-51 0l-8-4c1-5-3-8 1-10-18 5-39 6-58 2-13-4-25-8-34-14-14-10-24-23-31-36-8-17-7-38-6-56 4-13 13-25 25-30 13-8 27-9 41-10 23 1 38 14 58 14 13-10 25-20 38-24 16-7 33-7 47-12 4-5 4-11-1-12-18-9-39-11-52-24-11-8-18-18-22-30-6-12-3-25 2-34 7-16 20-30 34-33"/><path d="M114 322c-24 2-37 30-27 50 4 14 13 23 21 33 13 9 25 15 39 17 15 3 32 5 42-4-8-13-16-26-18-41-5-16-1-32 3-43-20-9-38-14-59-12"/><path fill="#A9D2D7" d="M343 190c-4 4 7 6 9 8-7 7-15 13-20 18-8 6-4 13-5 18 5 3 9 5 12 9 11 11 8 25 17 34 10 8 19 6 27 5 7-3 10-10 10-16 3 3 5 5 6 8 5-8-9-9 4-20 3-2 5-3 6-4 7 4 2 11 6 8 1-3 0-4-1-6l-1-2h-1v1l-3-2c-1 0-2 2-4 1 3-3 6-3 9-4-1-9-1-17-2-23-4-12-18-15-20-24 1 4-17-3-15 4-8-11-34-5-32-13"/><path fill="#B7E0E2" d="m355 216 2-2c12 5 24-1 38 10 7 6 9 14 11 20-8 9-14 16-14 26-10 5-15 6-23 4-7-3-11-5-14-9-6-9-10-17-16-24-4-16 5-18 14-25"/><path fill="#B8E1E3" d="M356 215c-9 7-20 10-15 24 5 9 8 17 12 25 5 4 9 6 14 8 10 2 14 2 23-1 1-11 7-18 13-25 0-8-2-15-7-20-11-10-26-8-33-9-4-2-5-2-6-2"/><path fill="#101B2C" d="M231 148c-10 5-17 15-22 23-16 27-2 23 20 22 7 2 13 6 20 7 5-2 0-4 6-5-7-7-3-22-11-28 5-2 9-8 16-7 6-2 10 3 15 3 7 6 10 13 13 19l2 2-1-3c-5-6-8-15-16-20-12-6-25-13-41-12"/><path fill="#3A586B" d="M111 312c-28 3-47 26-40 56 2 11 6 20 9 29 5 9 12 16 19 22-9-2-14-10-19-18 7 12 15 20 24 25 8 6 26 13 38 15 10-2 20-2 29-4 12-2 16-11 22-15-6 0-10 10-18 11-18 1-34 4-47-2-16-2-20-15-31-21-4-11-12-18-15-27 3-5 2 4 5-2-8-24-4-20-7-33 6-14 12-23 22-28 9-6 19-5 27-7 19 4 34 12 49 17-1-1 1-1 0-3-11-4-19-13-32-13s-22-3-34-2"/><path fill="#688794" d="M232 315c-5 1-12 3-15 7 4 1 6 4 8 6-8 3-11 7-12 14 1 6 5 10 3 16 14 4 10 21 24 23 4-4 5-6 6-9 0-12-1-21-6-29 6-6 9-12 8-19s-9-10-14-9"/><path fill="#253C52" d="M200 199c10 5 30 22 36 23 4 14-4 21-5 16 9 9 28-1 40 9 0-10-14-25-12-40-26-1-30-12-57-9"/><path fill="#4D393E" d="M265 173c-3 4-9 0-10 6-4 9 3 14 3 21-2 4 7 0 11 2 7 4 9 11 16 15 4 8 2 14 3 19-4 5-9 6-13 5 3 2 7 3 10 4 7-3 9-9 10-14 3-12 1-22-1-30-5-9-5-19-13-24-6-3-9-4-14-3"/><path fill="#1D2939" d="m185 368-1 2c-2 6-3 12-5 18 12 26 16 13 23 40 1 6-3 12 1 18-4 3-5 1-8 2 3 4 6 2 8 3 1-2-1-2-1-4 12-9 2-5 6-14 6-3 10-2 13 0 2-6-14-1-17-7-5-18-15-21-20-34 19 21 26 19 39 32 15-18 10-1 23-17 17-50 12-22-6 9-4-9 7-12-1-15-7-2-14-2-20-2-17-7-25-18-32-32"/><path fill="#537080" d="M219 300c-8 8-24 23-27 23 6 3 1 2 13-4-2 7 6 4 4 9-1 4-11 11-11 7 5-2 11 4 14 10 0-6 3-15 10-15 0-4-2-6-6-5 1-4 1-4 2-6 11-6 21-8 30-1 3 9 0 19-6 22 3 12 8 25 4 36-4 3-5 7-9 5-5-2-8-6-10-9 0 3-4 3-5 5 5 4 8 9 13 10 6 1 11-3 13-7 1-24 7-43 14-62-5-10-13-7-17-11-12 0-20-2-28 2 0-3 5-5 1-9"/><path fill="#121926" d="M402 321c3 3 8 2 10 6-25 9-37 6-55 23 2 4 3 9 2 15-3-2-9 13-15 16-18 12-27 24-51 34 12 4 15 1 30 14-2-4-2-10 0-13 9-16 21-15 27-20 3 1 1 1 2 4 1-7 2-15 1-23 4 8 20 10 12 18 8-8-5-9-6-14 5-11 12-10 13-21 5 2 4 5 6 7-1-5-5-9-3-15-3 0-4 1-7 0 0-4 3-6 4-8 8-8 28-11 38-14 8-2-4-7-6-8"/><path fill="#121A29" d="M488 173c-17 5-33 14 0 6-4 4-8 21-16 30 22 2 31-3 50 1 3 2 4 4 5 7-1-13-7-28-20-36-7-5-13-6-19-8"/><path fill="#3E5669" d="M278 261c1 7 8 3 8 12 0 5-2 7-5 9-25-1-43 12-63 16 4 2 3 8-2 9 9-3 17-1 27-2 7 5 15 3 17 11 1 13-5 21-7 32-2 12-1 24-5 34-4 5-7 7-11 7-8-2-11-9-17-10 0 2-2 4-2 6 6 8 14 6 19 9 7 0 10-3 12-7 7-12 4-26 3-37 4-9 5-17 12-22 1 14 1 30 10 42 14 20 20 22 30 28-7-7-1-10-12-22 1 4-5 9-7 4-6-9-14-16-16-26 0-10 1-15 1-23 4-3 8-5 10-3 6 2 8 5 11 7 2 11-5 18-1 26-3-10 7-18 2-27-5-4-7-9-11-10-6 0-7 4-9 4-1-4 2-4 4-5-5-1-7 2-11 4 1-4 3-8 4-12-4-5-16-9-9-13-8 5-17-4-24-5 12-10 31-14 47-13 5-7 5-12 4-17 0-9-6-3-7-4"/><path fill="#5E8695" d="M486 222c1 25-49 33-2 42 13-2 20 5 32-3-3-12-25-26-28-36"/><path fill="#4E3B2D" d="M355 334c-8 1-16 0-23 1-15 6 0 10-24 20 14 2 29 12 43 7 1 3 1 4 2 6-1-8 11-2 2-21 30-19 22-5-2-13"/><path fill="#2C3E4F" d="M201 327c-4 10-12 13-14 11-4 17-7 32-10 47 4-2 3-14 8-19 10 12 13 21 25 27 9 8 19 4 29 5 9 6-1 10-1 15 9-7 13-18 16-28 3-9 0-16 0-22 1 4 1 9 0 13-2 8-4 14-10 17-9 1-19 0-26-5-8-5-23-27-29-38 1-11 8-16 15-19-4 0-1-3-2-2"/><path fill="#503E30" d="M261 383c1 7-9 20-12 28-11 7-11 14 7 11-3-1 2-5-2-8 3-4 7-7 10-10 4 2 9 8 13 4v2l-1 1v2c4-3 13-8 12-1-9 12-19 4-17 11 17-7 29-12 50-25-18 2-2-1-29 9-5-7-7-11-9-16-7-6-13-3-18-9"/><path fill="#5A7684" d="M279 328c-3 1-6 0-7 3-1 8-2 13-4 21 6 12 11 23 19 30 6-14-4-29 5-44-5-5-7-8-11-10"/><path fill="#1D2938" d="M483 184c-8 8-4 1 1 3-4 16-19 24-22 39 5 0 12 2 18 1 7-2 7-9 14-8 2 2 0 2-1 3 5 0 9-2 14-1 8 1 13 7 19 9 4-9 2-13-3-19-20-4-30 1-48 1 1-7 3-16 7-23l2-1v-1h-1"/><path fill="#7CA4AF" d="M340 192c1 2 2 4 4 6-5 9-13 7-17 13-8 9-5 18-5 28 6-2 12 0 15 4-3 0-4-2-8-1-5 0-5 6-10 5 3-2 8 1 8-5 8-3 15 11 14 8 4 18 14 40 25 49 5 2 5 0 13 4 1-8-5-3-6-5 11-5 21-23 24-23 0-2-1-6-2-9-1 7-4 14-9 17-11 1-20 3-28-4-12-10-9-25-19-34-4-6-8-8-13-8 1-8-3-15 4-19 7-7 14-14 22-18-4-4-8-4-11-8"/><path fill="#8AE8F4" d="M248 282c-6 2-13 3-18 6-15 5-27 14-35 25-20 1-29-10-48-12-15-2-28-3-40 1-10 3-18 5-23 11-3 5-8 9-10 13 4-4 10-10 15-13 11-7 21-8 30-10 27-4 46 9 71 12-8 10-15 21-19 33-2 11-1 21 1 28 3-16 3-34 12-48 13-12 24-23 33-32 7-9 62-16 33-14"/><path fill="#536E7D" d="M314 165c2 3 2 5 3 8-4 8-8 11-11 17-5 5-10-2-13-3 4 9 8 15 7 23 4 3 13-2 17-2-10 16-1 35 0 41-1-3 3-4 4-7-4-4-5-12-6-19 5-13 18-19 24-29-4-2-12 10-18 10-5-14 4-26-6-37"/><path fill="#3C5769" d="M200 320c-2 4 0 5-6 6-4 0 1-1 0-3-5 5-6 10-11 15-3 16-6 30-7 46 5-17 4-34 11-48 5 1 2 6 6 1-11 12 5 21 9 31 6 6 8 12 13 16 2-2 3-5 4-8-10-8-15-25-16-36 0-3 2-1 3 0 6 6 10 12 8 20 2-6-1-13-4-17l-1-2-3-2c-3-4-7 0-12-2 1-4 7-6 5-10 5 1 4 4 9 2-4-3 0-7-5-9"/><path fill="#7EA7B4" d="M271 147c-7 2-4 5-7 8 6 5 6 0 12 3 12 12 3 7 14 20 3 5 6 9 9 6 2-6 5-13 8-23-6-9-13-5-25-14-4 1-6-1-8-1"/><path fill="#1C2A3A" d="M300 232c-6 5 2 19-1 26-8 4-6 1-18-1l-1 3v2l1-1v-2c5-4 7 4 9 6 2 8 3 16-3 20-6 5-12 2-18 1-7 2-8 6-10 8 8 7 23-1 29-3 4 1 7 3 11 2-4-4-4-9-3-14 1-4 4-5 2-8 6 1 8 4 8 7-2-4 0-9-1-13 3-6 5-9 9-11-2 1-4 1-4 3-4-10-9-17-8-24"/><path fill="#151B27" d="M256 344c-5 13 3 25 1 38-5 14-9 26-20 35-4 0 0-1-2-3-2 4-6 9-11 11-4-1 0-2-5-1-8-10-21-14-33-36 6 15 15 25 20 40 7-3 12 1 17 4-3 0-4-6-1-6 15-9 13 5 24-2-5 3-4-2-10-2 4-5 9-8 14-10 3-13 6-19 12-33 12 5 23 9 26 20-4-14-22-19-26-33-2-8-6-13-5-20"/><path fill="#111521" d="M366 316c4 1 4 6 2 8-4 4-7 7-10 8-20 4-34-7-49-7 8-4-3-4-3-7-4 0-9-1-13 2 6 9 7 21 15 29 26-5 3-4 22-16 10-1 18 2 25-1 6-1 10-2 12-5 15 8 12 6 1 0 1-5 4-9 1-9"/><path fill="#715556" d="M267 202c-15-1-2 24 2 31 5 6 9 9 13 6 6-6 5-13 3-20-7-5-9-12-14-16"/><path fill="#110A0A" d="M316 253c-1 3-8 10-9 24 6 11-3-3 2-6 2 9 12 10 18 14 7-2 7-8 8-12 3 3 3 7 1 10-3 5-5 7-7 8 2 0 3-2 6-1h2l-3-1c7-4 3-18 1-24-3-8-7-14-15-12"/><path fill="#DFCFC3" d="M448 228c-13 1-6 15-3 21 2 4 5 5 9 4 14-1 21-21 18-22-7 0-14-5-23-3"/><path fill="#6F5352" d="M451 199c-13 10-14 26-18 40 0-6 6-10 11-12 6-3 11-3 15-1 10-13 11-24-8-26"/><path fill="#2A3E53" d="M276 257c3 7 6 3 11 4 2 9 2 16-1 23-18 0-36 2-49 11 3 5 10 3 15 7 6 1 8-2 12-3-1 2-3 5-4 5 2 4 6 5 9 8 0 6 0 11-5 13 6-3 10-3 18-5-10-6-4-9-19-19 1-5-4-3-4-6 1-5 4-8 7-9 9 1 14 2 20 2 4-6 5-11 4-17 0-4-1-6-2-8-5-10-7 4-10-4"/><path fill="#C1AD87" d="M307 356c-15 5-2 18 0 22 9 0 18 6 23-5-3-11-14-11-21-15"/><path fill="#AFE4E6" d="M461 168c-2 1-4 0-5 1-36 37 2 15 23 4 8-4 20 0 28 5-6-3-13-8-20-9-9-2-17-1-25-1"/><path fill="#517484" d="M490 222c-4 10 23 25 27 36 4-1 4-4 6-6-3-8-5-15-10-20-5-12-26-4-23-8"/><path fill="#79A4B1" d="M439 174c-10 1-16 9-24 14 2 0 2-2 4-1-1 8-6 16-2 22 1 2 11 8 13 13 2-2 3-5 5-7-4 4-4-6-6-8-3-8 0-13 0-17 3-7 3-14 10-16"/><path fill="#4E6F7E" d="M83 380c2 11 11 18 15 28 8 7 12 14 19 19 9 3 17 6 24 7 15-1 28 0 40-3-17 4-40-1-57-6-28-14-24-38-41-42"/><path fill="#92C4CC" d="M453 169c-7 2-14 4-19 10-5 12-9 26-1 35 2-3 6-6 9-10 0-4-7-1-5-5 3 0 3-7 9-5-2-5-2 2-7 0-3-13 13-18 13-25"/><path fill="#4F434A" d="M474 184c-7 2-12 6-18 8-5 5-12 6-11 13 0-3 4-5 5-8 8 5 15 6 19 11 9-15 12-22 9-25"/><path fill="#99815F" d="M298 362c-8 1 2 11 2 16 7 6 13 9 20 12 3-1 5-1 7-2 1 1-1 3-1 5 8-9 9-5 18-23-3-4-10 10-14-3 4 4-1 9-3 11-8 6-13 0-20 3-3-5-7-12-9-19"/><path fill="#775E44" d="M314 354c-2 1-3 2-5 2 8 3 20 6 24 16 6 1 7-6 11-6 1 10-6 13-8 20-6 0-6 1-13 5-18 1-28-20-30-26 1 17 12 20 20 25 2 6-1 8-4 10 18-3 18-14 25-10 4-6 6-7 7-9 28-30-17-8-25-28"/><path fill="#688C99" d="M340 191c-1 11-20 18-22 29-1 9 0 20 3 22 0 3-3 4-4 6-1 0 7-3 8-6 7-2 10 0 13 2 14 25-5 25 14 43-2 8-7 3-10 5 10-3 14 12 20 10-3-12-21-28-16-48-4-3-5-6-6-8-4-2-3-4-6-4-5-4-9-2-12-1 1-8-3-15-1-19 1-14 14-17 20-21 0-4-1-6-1-9"/><path fill="#678C9B" d="M417 187c-3 7-16 9-14 14-3 0-5 0-7-1 7 3 13 8 19 13 11 17 1 34 5 46 1-9 3-21 1-30 3-11 10 7 10-6-3-3-12-12-15-11-4-9 1-17 2-23"/><path fill="#141B29" d="M297 208c0 9 1 19-2 26-2 7-6 13-12 13 4 4 6-5 9-2-10 12-28-4-36 6 19 7 34 7 41 9-1-15 0-32 1-50"/><path fill="#1F2A39" d="M429 239c5 26-10 41 3 56-1 3-1 1 2 2 4-1-4-20 8-25 3-2 20-4 25 0-7-8-17-2-28-4-6-10-10-12-9-27"/><path fill="#3A3947" d="M263 162c-21-2-12 12-10 23-3-9 6-11 11-12 9 0 17 0 23 8-4-5-6-12-12-16-5-1-8-3-11-4"/><path fill="#0A0404" d="M415 262c-6 1-9 6-11 11-2 7-8 16 0 21h3l-1 1-3-2c-4-3-4-10-1-14 3 4 3 5 6 9 7 3 14-3 13-10 3 3 3 5 2 6 0-3 1-8-1-11-6-12-3 8-15-3 2-6 9-7 12-5-1-1-1-3-3-3"/><path fill="#1E2939" d="M352 395c-8 8-19 5-28 20-1 16-3 18 3 30 5 0 5 2 8 1-1-3-4 1-7-4-2-7-3-11-3-18 3-3 3-7 5-8 7-2 7 7 8 3 0-16 18-17 13-22"/><path fill="#6C5745" d="M267 404c-16 7-9 11-11 18 2-1 5-3 8-4-2 5-4 8-5 11 4-2 3-6 5-9-1 8 38-11 13-9-2 0-1-1 0-2-3 4-10-2-10-3"/><path fill="#415767" d="M294 192c8 9 5 22 6 33 0-3 4-5 6-1 2 11 3 21 9 28 0-9-9-28 2-40-5 0-14 0-14-2-4-5-5-11-7-16"/><path fill="#62818E" d="M278 343c7 5 11 19 11 28-11 0-11-11-16-16 0-5 1-8 4-9"/><path fill="#688A98" d="M302 154c14 9-2 15 2 23-10-2 1 7-5 8-4 0-6 0-7-3 2 3 4 6 7 8 9 2 10-11 16-14 1-10-6-14-11-19"/><path fill="#1F2B3A" d="M409 312c1 1 4 0 6 1-4 4-8 5-12 4 2 0 3 0 5 1-3 2-5 6-8 4 6 1 0 2 1 4-10 4-19 6-27 4 12 1 0 7 5 6 9-1 37-9 35-12 2-6 12 1 4-4 32 16 0-10-5-8"/><path fill="#1B2A3D" d="M261 160c-6 0-12 6-16 5 8 8 4 23 10 29-2 3-4 3-3 7-10-1-16-5-22-7-12 4-21-5-29 1 29-1 33 11 58 10-2-2-3-6-3-9-7-10-4-20-9-28 5-7 11-6 17-8 19 9 20 10 1 0v1"/><path fill="#2B5572" d="M203 205c6 6 8 15 14 21 7 2 10-1 13-5-6 2-13-17-25-16"/><path fill="#7EA6B2" d="M394 200c2 9 15 11 19 21 1 8 1 16 2 24-3 3-6 2-8 5 2-3 4 0 7-1 1 5 4 6 4 9-3-12 7-29-5-43-5-6-11-12-17-15"/><path fill="#487185" d="M110 310c-9 3-19 3-25 11-17 24-15 18-1 0 8-6 16-9 26-9 13-2 23 1 35-1 15 2 23 13 34 15 2 0 1-1 2-2-9-10-22-9-32-13-13-3-26-1-37-2"/><path fill="#7DA6B2" d="M314 291c12 8 25 11 28 20 11 1 16-1 21 4-9-9-22-16-33-21-4-1-7-2-10-3"/><path fill="#526C7B" d="M202 338c4 9 5 29 18 36 2 1 3-2 5-2-18-12-5-26-21-31"/><path fill="#BFA399" d="M444 229c-5 2-9 5-10 11 2 7 3 12 5 16 3 4 6 5 10 4 7-3 12-8 18-12-5 5-11 6-17 7-6-4-11-12-10-20-2-3 1-4 1-6"/><path fill="#445A6A" d="M318 169c8 11-3 24 4 35 7-3 9-11 15-11-10-3-12-15-18-21"/><path fill="#273F53" d="M193 423c-6 4-11 13-20 14-10 3-25 2-30 5-9-2-16-5-24-6 8 3 16 4 23 6 10 3 18 0 26 0 13-1 25-10 27-19"/><path fill="#638290" d="M277 343c4 4-5 5-3 10 4 7 5 17 12 19 2-11-1-21-7-28"/><path fill="#2F4050" d="M268 326c-21 23-2 1-10 21 5 24 28 36 35 55-5-3-1-7 2-9-12-7-23-21-27-31-5-12-2-23-5-31"/><path fill="#688E9C" d="M395 274c-1 12-14 15-20 21 3-2 5 7 7 10 2-7 8-11 15-11-4 1-3-3-4-4-4-7 9-12 3-13"/><path fill="#92BEC6" d="m397 295-6 3c-10 5-4 14-10 14 6-5 37-11 18-17"/><path fill="#93E7F2" d="M243 143c-18-1-43 32-12 1 9 2 17 4 24 7 4-2 4-7 10-8 13 1 22 5 32 9-6-4-12-7-18-8-13-2-24-1-35-1"/><path fill="#304051" d="M288 321c-2 1-5 0-6 3 4 2 8 6 11 10 2 12-5 18 3 26 6-5-3-8 1-15 4 4 7 7 9 10-8-11-10-22-16-33"/><path fill="#1D2A3B" d="M263 226c6 9 10 15 9 20-9-5-49-4-16 5h2l-1 1-2-2c2-3 10-5 17-2 6 1 8 1 12 2 5-1 6-4 7-5-2-8 2 3-8 4-3-4-17-12-18-21"/><path fill="#273F53" d="M125 312c-39 14-46 27-7 2 22 1 45 11 60 19-20-8-35-18-53-19"/><path fill="#2C3E4E" d="M320 317c14-2 8 12 30 13 7 1 14-1 17-5-3 2-6 2-9 3-12-5-26-8-36-13"/><path fill="#2F4050" d="M375 364c-2 5-4 11-9 15-2 11 7 3 3 10 3-5 3-9 8-10 0 6-1 9-3 11 7-6 4-17 1-23"/><path fill="#2F4354" d="M434 266c20-1 38 6 62 5-24-10-65 0-53-10"/><path fill="#121B28" d="M289 297c-2 2-6 0-8 1 3 2-3 6 1 10l15-3c-9-8 10-10-8-8"/><path fill="#9AE7F0" d="M343 193c15-1 33 11 43 5-11-5-22-8-38-6"/><path fill="#1D2A3A" d="M260 335c-7 9 0 20 2 29 5 17 28 22 29 39-1-17-20-22-24-38-2-11-14-17-7-28"/><path fill="#2E3F4F" d="M302 222c-1 4-4 5-4 9 7 3 6 16 12 23 2-2 5-1 7-2-10-3-10-21-12-29"/><path fill="#2D3D4D" d="M331 417c-2 1-3 3-4 5 1 10-2 17 3 22-7-13 11-18 5-27"/><path fill="#638796" d="M103 401c-2 12 22 23 33 27 14-2 31 8 43 0-13 5-31-2-43-2-17-2-22-11-31-23"/><path fill="#8FBAC3" d="M331 293c7 6 22 9 29 19-7-3 0-11-11-16-7-3-9 1-15-4"/><path fill="#2C3F50" d="M499 221c15 1 19 16 30 19-5-2 2-7 0-13-4 0-3 2-2 4-9-4-16-11-25-9"/><path fill="#1D2B3C" d="M326 321c-26 3 17 14 28 10-9 0-18-2-25-10"/><path fill="#B5DDE1" d="M409 252c-3 1-6 3-8 6-6 9 0 5 0 9 3-2 8-7 12-9 0-4-3-5-2-6"/><path fill="#3C5667" d="M498 223c13 3 22 15 26 26 2-5 4-9 5-13 0 2-1 4-4 3-8-6-14-15-24-17"/><path fill="#6DA7BB" d="M128 303c-49 10-38 10 3 2 16 3 31 4 47 10 9 1 7 4 5 9 0-3 5-4 5-6-3-2-6-2-7-4-20-6-32-7-49-8-4-2-5-2-6-1"/><path fill="#1E2B3B" d="M279 298c-5 0-8 2-12 3 3 11 19 13 12-3"/><path fill="#517080" d="M321 308c17 8 23 10 45 14-12-1-30-12-41-15"/><path fill="#99C3CA" d="M330 243c-16 8-2 5 7 9 10 5 1 4 2 8-2-2-4-4-5-6 2 2 2 5 3 7 4 2 1 4 3 4 6-8 0-14-4-19-3-3-4-4-6-3"/><path fill="#9D7875" d="M229 439c-18 8 18 5 22 15-2-10-14-11-22-14"/><path fill="#455968" d="M333 426c-3 1-4 7-1 10 6-4 15-2 19-3-7-3-7-3-16-8"/><path fill="#2C3D4E" d="M404 319c-5 4-31 12-35 4 10 9 17 6 24 5 13-2 2-8 15-9"/><path fill="#3E5565" d="M340 319c-13 1 14 3 15 8 6-1 9-1 12-3 2 2-17-4-24-5"/><path fill="#977472" d="M216 439c-26 12 3 8 9 17-4-15-8-1-12-18"/><path fill="#658997" d="M341 308c-14 3 15 10 23 10-5-10-17-1-24-10"/><path fill="#121B28" d="M296 309c-4 1-8 0-10 3 0 10 32 0 10-4"/><path fill="#1E2938" d="M289 319c5 9 9 23 17 33 4 3 7 0 10-1l2-1-3 1c-1-1-5 1-7 0-9-10-10-21-16-29"/><path fill="#1D2838" d="M373 360c-1 11-8 11-13 18 1 7 8 7 9 12 3-7-5 0-5-9 6-7 9-15 11-19"/><path fill="#527080" d="M423 225c-1 11 0 25-3 36 4-9 5-19 4-30 3 0 6 6 6 0 0-1-5-2-5-6"/><path fill="#4F6E7E" d="M460 256c-21 16 7 2 16 9-3-4-6-5-10-7-2-1-5 2-8 0"/><path fill="#705C47" d="M368 330c-20 5-1 10 7 5-3 0-4-6-6-6"/><path fill="#A37A75" d="M335 437c-1 2-1 6 0 8 12-6 12 9 20 6-11-10-7-9-20-12"/><path fill="#433A39" d="M320 256c2-1 4 0 5-1 4 3 7 6 5 9-9 5-6-6-10-5"/><path fill="#9E7874" d="M352 435c1 4 6 4 5 7 5-1 11 7 16 6-2-6-11-11-19-12"/><path fill="#79A3AE" d="M405 307c-9 3-18 0-26 9 10 0 18-4 25-10"/><path fill="#F5CFC2" d="M366 305c-7 2 4 4 4 8 4-3 6-4 9-5-3-4-8-1-12-3"/><path fill="#5B8CA0" d="M124 307c-29 4 34-2 47 9 7 0 9 3 10 6s-1 4-1 5c1-1 2-2 2-4l1-1 1-1v-3c-3-1-5-4-10-2-6-3-11-4-15-6-15-1-27-3-39-4"/><path fill="#3F5767" d="M425 230c1 12 0 23-3 33 5-9 6-24 6-31"/><path fill="#2D3D4C" d="M300 272c-2 4-5 8-3 15 1 3 2 6 4 7-4-7 0-10 0-17 4-3 3 1 6 2-3-2-2-6-6-6"/><path fill="#192B3E" d="M193 427c0 6-6 9-10 12-8 5-16 4-24 5 6-1 14 0 19-2 6-5 12-4 17-7 2-4 0-5 0-7"/><path fill="#2D3E4E" d="M429 237c-3 7 0 15-3 23-2 3-4 6-4 4 2 1 3 4 4 6 7-8 0-21 3-32"/><path fill="#527181" d="M340 272c3 7 5 13 4 18 1 1 3 0 4 1-1-6-1-17-6-18"/><path fill="#3E5566" d="M401 318c-7 9-28 2-30 5 13 3 26 0 33-5"/><path fill="#87BECC" d="M263 145c-8 4-7 8 3 10-9-5 7-2-2-6 6-3 10-5 14-2-4-3-9 0-13-3"/><path fill="#668997" d="M381 310c-15 15 17 7 21 4-7-2-13 3-24 3-1-3 0-4 1-5"/><path fill="#1B2838" d="M316 315c-3 2-7-1-8 2 2 8 26 1 9-2"/><path fill="#0D1624" d="M324 437c-12 5 2 14 13 12-5-2-15-2-14-11"/><path fill="#2C526D" d="M235 223c-4 2-6 11-3 15 5-3 1-9 5-14"/><path fill="#9E7C76" d="M449 226c-5 1-9 3-13 6-5 10-4 21 0 27 5 4 9 2 11 3-3 0-6-2-9-3-1-9-6-18-3-25 4-12 39-6 15-9"/><path fill="#77A0AC" d="M479 231c-5 3-4 8-11 18 11-4 17-18 7-17"/><path fill="#E4CDC6" d="M346 435c-14-1 7 4 8 12 2-4 0-6-1-9-3-2-4-3-6-2"/><path fill="#453A38" d="M414 264c-11 4-5 8 2 9-1-5 2-7 3-5l-2-2-1-1"/><path fill="#52707F" d="M397 317c-7 3-17 4-24 1 5 5 27 4 26-1"/><path fill="#678C9A" d="M317 298c4 9 18 7 19 7 3-3-11-4-17-6"/><path fill="#3D5767" d="M306 297c7 7 10 13 20 16-5-9-6-4-16-14 2-2 3-2 5-1-2 0-4-1-5 0"/><path fill="#7FA9B4" d="M408 297c1 5-10 5-8 8 2-1 28-5 9-8"/><path fill="#7BDFF1" d="M200 203c3 7 5 15 9 22 8 8 15 12 22 17-15-9-23-23-30-37"/><path fill="#E5D0C9" d="M356 432c3 2 12 4 16 9-1-7-7-11-14-9"/><path fill="#668A98" d="M308 285c-2 3 3 11 6 11 2-7 3-7-4-10"/><path fill="#0B1727" d="M232 222c-2 4-6 5-10 7 1 4 5 6 6 9-1-5 1-10 3-13"/><path fill="#BF9C96" d="M354 432c-2 6 20 6 19 15 1-7-11-11-17-14"/><path fill="#1E2B3A" d="M284 312c-2 1-5 0-6 3 3 6 15 4 8-3"/><path fill="#C1A9A6" d="M245 438c-2 2 12 1 13 11 2-7-4-13-10-11"/><path fill="#3E5362" d="M298 345c-4 5 2 9 1 11 3 4 2 1 7-1-1-3-6-4-7-7"/><path fill="#3D5262" d="M215 433c-12 1 7 7 10 5-3-2-5-5-9-4"/><path fill="#1C2A3A" d="M301 308c0 3 8 8 12 4-4-1-4-6-10-4"/><path fill="#755859" d="M226 445c5 7 16 6 23 9-3-6-12-7-21-7"/><path fill="#202D38" d="M517 185c4 6 6 15 13 30-1-7-5-23-12-30"/><path fill="#8AE5F0" d="M184 401c2 5 7 10 7 16-1 5-2 1-3 5-14 9-29 3-43 3 13 3 29 5 40-2 19-3 7-6-1-21"/><path fill="#1E2B39" d="M301 297c-10-1-1 12 4 7-1-1-5-5-3-8"/><path fill="#1C293A" d="M426 301c-8 0 1 1-5 6 5 3 16-5 6-6"/><path fill="#7DA2AD" d="M114 413c7 12 18 8 23 14-7-6-14-8-20-13"/><path fill="#2A3E4E" d="M310 307c-2 3 10 5 2 7 3-1 6-1 9 0-5-4-6-8-9-8"/><path fill="#2B3D4C" d="M427 283c-8 9 2 4-2 15 4-2 7-16 1-11"/><path fill="#527180" d="M302 278c6 5-1 14 8 17-10-12 7-9-6-15"/><path fill="#557483" d="M399 279c-3 2-7 6-6 10s4 3 7 5c-4-3-1-9-3-13"/><path fill="#BB9791" d="M335 436c10 6 11 5 19 12 4 2-8-10-14-12"/><path fill="#BC9A94" d="M227 438c19 6 20 9 25 12 2-2 1-3 0-5-7 1-13-7-20-6"/><path fill="#564C49" d="M410 266c3-3 8 2 6 5-5 0-5-2-8-3"/><path fill="#327099" d="M283 266c-12 19 4-2-2 16-9 0-15 2-22 1 7 1 13-1 21 0 5-5 6-11 3-16"/><path fill="#3F5666" d="M301 276c2 7-4 11 2 16-2 3-4 3-7 2 4 1 7 0 11 1-13-23 7-11-3-17"/><path fill="#D4948A" d="M363 304c-4 4 3 9 5 11 7 2 9-3 12-5-2-1-5 0-7 4-5-5-11-1-10-10"/></svg>