<svg xmlns="http://www.w3.org/2000/svg" width="600" height="600"><path fill="#4C4D58" d="M177 121c2-1 6-1 8 0 4 4 4 8 6 11-4 10-3 18 0 25-3 9-13 13-10 22-2 27-1 54 11 76 9 19 29 19 35 40 10 4 17 9 25 12 16 5 17-15 28-8-6-10-16-11-22-18 4-5 12-3 17-7-1-4-1-12 0-18-11-1-22 1-32-2-15-6-25-14-34-26-12-16-12-35-16-50-2-20 1-35 4-50 20 7 39 14 56 24 21 11 36 23 51 41 2-3-2-6 0-9 6 3 9 6 12 10 7-3 13-4 17-8 2-5-3-7-4-10 10-2 14 8 21 5 0-7-1-13-8-17 10 2 15 8 20 15 8-3 2-10 3-12 12 2 13 14 20 15 2-7 0-12-3-15 8 4 13 10 16 17 3-4 3-10 4-12 4 6 7 10 9 14 9-1 18 1 25 2 33-22 74-28 100-59-10 24-8 51-18 72-6 13-12 20-20 29 10 8 20 19 26 27 12 17 23 31 29 47-10 4-11-10-19-11-8-3-18-4-23 1-10 6-13 14-16 21-8 17-1 34-3 47-11-9-22-14-31-23-6 3-19 0-26 4-11 4-20 12-25 21-2 4-6 6-6 10 5 10 8 18 10 27 0 14 2 27 0 39 4 11 16 9 21 15 3 5 7 6 5 10-20-2-28 7-47-2-2-2-5-5-3-6 2-6 4-9 3-13-5-8-11-13-14-20-7 4-12 8-18 11 4 9 13 7 21 8 6 3 8 8 10 11-17 2-33 4-50 2 4-4-9-12-11-21-3 1-5 2-7 3-4 3-1 6-3 8 7 10 15 13 25 17 2 6 6 8 6 12-23-9-31 8-50-5-10-6 4-22-9-28-4 1-7 1-10 3 4 4 8 9 9 14-16 15-16-4-36 5-10-16-35-16-41-37-8-17-8-38-4-55-2 0-3 1-4 3-5-4-5-8-6-11 7 14-13 21-6 34-5 6-6 0-10-1-3-12-7-20-12-27v-29c0 8-1 16-3 24-9-7-20-13-30-9-16 4-22 17-28 27-9-18-4-41-13-59-3-9-4-15-11-19-7-7-16-4-21-1-14 6-9 21-17 29-4-10-6-19-3-27 5-24 13-43 23-62 13-21 26-38 42-54 19-20 37-31 57-45-2 1-4 2-6 2-3-2-2-5-3-6 7-8 8-18 15-20"/><path fill="#25212F" d="M173 177c-9 4-21 36-27 50-5 12-9 28-13 44 9 5 7 14 14 17 5-2 3-8 5-12 2 10 7 16 5 25 0-3 3-7 7-2 4 14 8 24 8 28-2 2 0-7 3-2-8-20-13-43-15-65-1-27 0-51 5-74 2 30 2 90 14 127l-2-1v1c8-3 5-5 11-7-1 6-5 15-5 27 4-4 12-1 21-5 1-3-1-4 0-7 2 5 4 9 9 11 9 4 4-4 2-6 7 10 15 8 22 12s15 2 20 5c2-2-2-4 0-5 5 3 8 5 9 9-4 15-18 28-20 44 4-7 5-14 11-20 9-9 21 3 25-1 6-7 3-10 3-18-5-4-4-10-4-12-7 5-10 11-15 15-3-4-1-5 1-6 2-4 4-5 5-7-2 2-4-6-9-2-2-8 4-7-2-10-30-15-34-20-65-33-10-24-18-43-23-63-5-36-5-22 0-62"/><path fill="#B1C5CA" d="M373 196c-9 8-44 14-26 43 7 1 16 9 24 13 12 3 18 2 30 0 4-7 14-20 17-21-1-6-2-11-5-15-9 0-13-8-17-10-5-1-12-2-12 2-17-11 7 1-9-13"/><path fill="#26202F" d="M277 307c-42 7-17 9 6 15 4 5 7 8 6 11-3 3-10-1-9 0 7 3 3 5 11 9 3 6 3 9 2 14 5 3 13 1 17 6 7 4 8 8 7 14 10-5 6-22 19-26 7-2 9-4 18-4 6 2 12 6 13 10 13-2 14-7 21-6 8 11 1 16-1 26-3 7-13 17-16 28 5 12 16 24 23 36-6-10-10-26-11-36 2-11 8-20 17-21-3-7-2-21-5-25 4-5 3-10 5-14 2 5 0 9 1 15-1-6 0-12 3-17l-1 1-1 1-3-1c-10 3-20 5-32 4-14-2-31-6-38-11-12-9 14 1-4-7 5 3-9 3 2 9-6-2-9-5-11-9-6-3-14-7-18 0-12-7-9-21-25-21l4-1-1 1h-1"/><path fill="#5D4B49" d="M344 350c-4 1-8 2-11 5-8 11-11 21-12 32 1 16 7 24 2 48 16-7 27-13 44-32-7 8-20 3-20 3-14-6-21-23-17-26 6-3 1-11 15-7 10 4 18 6 28 10 4 3 2 6 1 7 4-2 6-12 12-13 11-20 1-32-21-14 2-1 0 0 1 4-2-6 1-13-7-16-5-2-10-1-13-2"/><path fill="#2F2C39" d="M202 131c-6 17-4 39-5 58-1-29 3-23 3-43 2 6 3 12 4 18 1-5 0-11 1-15 5 16 10 30 18 41 8 5 8 6 18 21-1-4-8-13-4-14 5 15 9 22 16 31 2 5 3 9 0 14-8 0-11-5-16 1-4 0-14-10-17-12 15 9 7 15 21 17 14 4 9 1 22 1l1-2v-2l1 3-4 1c0-9-2-18-2-26-3-12-8-19-15-28-4-12-3-20 2-29-2-1-3-3-5-2 11-2 23 13 26 14-31-33-40-32-65-47"/><path fill="#8F9FAC" d="M406 184c-2 17-2 10-6 19-2-2-4-3-8-6-9 3-6-5-7 4 5 0 22 10 32 19 1 5 3 7 3 9-4 3-14 16-17 24-14 2-20 2-31 0-10-5-20-11-29-12 6-11-11-18 2-27 9-17 23-7 28-22-2 4-6 4-6 0 2 3 2 6-1 9-4-18-1-5-9-12 2 3 4 6 5 10-8-9-5 1-12-4-5 9-14 16-20 25-1 11 8 13 11 19s11 9 13 15c15 10 30 7 44 12 6-3 17-5 22-11-2 7 15-3 9 11 6-19 15-38-8-12-5-9 6-18 8-24-1-10-6-17-15-19-4-7-2-17-8-25"/><path fill="#262230" d="M248 158c25 23-22-6-1 7 1 5-4 1-5 0 5 9-4 15 5 29 4 10 10 17 14 26-2 11 2 18 0 27 11-3 16 9 15 5 4 9 4 15 5 21 0-10 3-19 7-27-6-9-9-3-14-13 3-3 1-11 4-11-1-3-3-2-4-5 4-3 14 2 12-6-3-12-12-22-23-36-4-6-9-9-12-13"/><path fill="#3A3F50" d="M123 236c-6 9-9 18-12 29-3-1-5 1-6 2-4-2-2-5-3-8-5 18-21 20-25 38 8-2 15 2 20 10-2-1-2-4-3-5 2-11 7 2 7-8 1 9 2 15 3 21-3 1-2-2-5-3 6 11 8 24 10 36 9-36 2-68 17-111"/><path fill="#27212F" d="M275 386c-6 6-14 14-21 19 1 8-6 21 3 23-6 7-8 13-7 22 2 2 7 4 2 9 0-2 3-9 7-9 2 4 5 2 4 8 8-1 13 2 16 6-2-2-7-6-5-6 1-4-1-9 4-9-2-3-8-5-7-10-1-2-4-1-9 0 13-2 17-11 25-8-7-4-6-11-10-15-1-9-7-19-1-29"/><path fill="#7B8899" d="M340 192c-9 8-16 14-17 29 1 10 9 13 10 21-4 2-9-1-12-2 9 8 17 2 30 15-9-1-7 7-9 10 2 3 4 5 8 8 10 8 4-11 10-4 24 5 29 0 37 6 5-1 3-6 4-8 3 1 2 4 4 3 8 0 10-6 15-6-3 14 7 4 6 13 3-5 3-9 5-13 1-7-9-4-12-7-3 4-10 6-16 8l-3-1v1l1 2h-3c-14-5-29-2-42-11-12-11-16-19-27-28 1-15 16-23 19-33-2-2-4-3-5-2"/><path fill="#2E2D3A" d="M510 160c-13 12-33 26-48 43 6 3 3 10 11 7-4 13-14 20-11 37 7-1 12-5 16-10 3-7-1-13 1-20 6-21 26-33 35-57"/><path d="M221 367c-6 11-2 30 1 41 5 11 13 20 22 20-1-8 2-20-7-23 6-8 3-20 8-29-4-9-13-7-20-7"/><path fill="#C1D5D4" d="m362 208 1-1c6-1 11 0 16 0 19 5 18 21 27 31-12-9-14 11-26 1-6-5-14-9-18-11 1-4 4-6 5-10-2 3-4 6-7 8l-1 2 1 2-1 1-2-1c-7-5-8-17 5-20"/><path fill="#383B4F" d="m143 297-1 2c0 8-5 15-7 23-1-6-8-7-10-12-6 22-11 47-10 63 9-8 12-31 20-48 2-4 3-5 5-4 4 1 5 4 4 6-1-4 1-9 3-10 3-3 8-3 6 1 0 13 6 19 1 21 3-2 5-9 11-5 6 5 6 10 5 16 1-16 3-20-7-39 2 9-5 11-4 18-7-11 2-32-13-34"/><path fill="#4E4F5F" d="M199 175c0 14 2 27 8 40 17-1 12 14 24 20 8 4 11-5 14-5 3-1 1-5 2-7-12-10-13-17-26-29-12-5-6 5-15-2-4-5-4-10-5-15"/><path fill="#9A8C82" d="M335 374c-6 2-9 19 9 31 7-2 8 3 17 0 6-2 8-7 12-11 0-5 2-6 1-9-10-5-17-6-26-11-5-3-9 3-12-2"/><path fill="#C2D6D5" d="M363 208c-9 5-15 14-5 21 0-1 2-2 1-4 9 3 19 14 27 15 6 2 6-5 11-4 1 3 6 1 7 2-8-10-6-25-24-28-5-2-11-2-16-2"/><path fill="#2F2B3B" d="M301 309c-15 7 14 15 31 27 20 6 42 11 59 6 7-1 13-5 19-9 8-6 15-8 20-13-6-2-9 6-18 12-19 0-24 7-54 3-20-19-20-4-57-26"/><path fill="#3D445A" d="M150 316c-4 0-5 6-4 13-2-4-3-6-6-7-1 0-3-1-4 0-10 18-6 37-20 49 5-7 13-15 21-17 1-23 10-7 7-20 4 5 4 11 6 16 7 4 14 6 18 13 2-9 1-11 1-23-3-5-5-5-10-7 1 2-3 6-3 10-2-10-2-19-3-28"/><path fill="#687183" d="M351 187c-11 5-24 5-30 14-2-5-7-2-11-8 0 8 11 14 5 32-3-3-3-4-3-5 1 6-6 6-8 4-5-3-8-7-11-11 3 5 5 8 3 15 8-1 10 3 14 4-3 11-6 19-1 27 4-1 8 0 11-1-2-4 3-12-4-21 5 2 10 5 16 6-2-9-9-12-8-21-3-9 1-13 4-19 3-13 23-10 22-14"/><path fill="#41485B" d="M485 269c-22 10 2 31 8 42 4-7 9-15 17-20s16-2 23-2c-9-11-23-4-31-9-6-2-10-7-14-10"/><path fill="#4B4F5E" d="M525 157c-9 20-28 38-39 56-3 3 0 9 1 14 8-6 21-12 24-22 10-16 10-31 14-46"/><path fill="#44485B" d="M211 345c1 5-6 6-9 7-1 3 0 5-1 9-8 10-5 38-1-3 2 9 6 10 6 14 2-1 7-5 12-4 1-6 1-8 1-11 1 2 8 7 4 9 8 1 16-3 24 5 2-4 5-6 6-10-2-5-5-9-7-11-12 5-16-3-28 2-4 0-4-3-5-4"/><path fill="#545B72" d="M285 201c2 4 10 19 7 23-3 3-5 0-8-1 8 2 10 12 18 8-9 9-4 20-6 27l-1-2-1 2c4 10 11 23 13 33-7 2 1 5-4 10 4 9 11 14 18 17s13 3 18 1c-12 3-20-4-29-9 4-7 6-2 13 0-5-9-11-14-14-25-1-10 3-21 8-25-4-2-6 4-9 1-5-10-2-18 1-27-3-1-6-7-14-4 5-9-4-19-8-28"/><path fill="#3A3949" d="M208 336c-1 1-8 5-9 2 1 10-9 6-12 10 0 13 1 27 4 39-1 0 4-2 6-6-1 0-3 6-4 1 2-18 8-22 7-29 14-8 28 1 40-5 9 1 12 8 15 13 10-11-2-18-13-13-9-11-24-2-35-9"/><path fill="#251E2B" d="M359 413c-6 10-17 15-25 20 4 4 7 17 11 14 5 6-1 7-2 7 9-2 20 1 22-3-2-10 2-4-10-15 11-5 30-31 0-19"/><path fill="#3D4456" d="M110 263c4-2 3 5 8 5-2 23-6 42-8 62-6-15-10-31-7-47-1 3-3 7-6 8-3-1-4-4-5-6 7-30 16 3 18-20"/><path fill="#3C3948" d="M201 143c1 26-4 11-2 32 5 3 3 10 6 15 5 8 9 1 15 3 10 9 24 25 26 29 3 12-2 8-8 15-20-10-16 1-26-16 6 13 12 18 21 23 0-6 5 0 10-6 0 5 7-3 9 2 2-4 2-7 1-11-8-11-12-16-15-30 0 3 2 6 3 10-5-10-9-6-12-17 1 2 1 4 2 5-5-3-6-1-9-5-8-13-13-27-16-41-1 5 0 11-1 15-3-8-4-13-3-19"/><path fill="#3B384A" d="M288 403c1 4 0 10 1 14 7 1 11 16 12 7 2 10 7 14 8 20-4 6-3 13 0 20 2 0 2 2 3 5 8-11-2-7 4-12 6 4 7 8 9 11 5 1 5 3 11 1-2-3-4-6 3-6l-2-1 1 1c-3-2-15 3-20-9-4-8 6-28 3-45 1 6-3 12-10 13-15-10-11-8-22-18"/><path fill="#262430" d="M154 185c-21 21-26 23-41 43 6-5 0 11-1 15 9-7 15-23 24-32-7 21-13 41-15 63 11-26 11-40 32-87"/><path fill="#45475D" d="M299 360c-7 12-14 26-10 40 8 9 9 15 22 21 4 0 6-2 7-5 1-8 3-12 0-18 2 6-3 14-7 14-11-6-15-15-19-21 0-8 5-19 8-17 4 1 10 10 16 15 3-3-9-15 0-15-4-8-9-13-16-13"/><path fill="#454960" d="M295 232c3 0 3 2 5 0-8 10-9 21-14 30 1 12 11 17 12 27-6 2-15-16-26-9 10-4 16 7 16 8 0 7-5 11-3 18 6 2 10 2 15 4 0-2 0-4-1-7 6 4 8 6 12 10-3-3-6-7-7-11 2-4-2-9 2-10 1-9-12-24-8-30-1 1-4 1-4-2 5-8-3-18 7-25-1-4-2 0-3-2"/><path fill="#7F8F99" d="M179 146c-19 7-44 30-62 49-6 13-10 17-10 26 30-24 3-13 24-36 5-3 7-6 11-4-3 7-8 11-13 15 14-14 29-29 43-39 2 2 5 0 9 2 4-4 3-9-2-10 9 0 6-4-2-3"/><path fill="#2E2F3E" d="M481 245c-37 8-27 8-2 24 12 1 32 1 32-3 6 6 12 10 20 16-9-7-11-11-16-13-2-8-23-13-22-14-7-2 3 4 0 9-4-4-10-13-12-18l-2-1-1 1"/><path fill="#140E1A" d="M322 258c-4 4-6 6-9 10-2 7-4 13-1 17 2 7 5 11 9 14-5-3-5-8-6-13 9-10 2-7 6-16 8 27 6 7 13 30 7-2 8-8 10-11 0-6-8-5-8-11-1-5-3-9 2-11-4-8-3-9-14-7"/><path fill="#A89D91" d="M344 377c5-2 10 2 14 2 7 4 15 5 14 13-2 10-12 11-17 11-3-2-9-9-16-12 0-6 1-11 3-14"/><path fill="#3A3C4F" d="M452 312c-2 4-6 8-6 11 12 15 29 23 36 32 2-9-1-18-7-24-7-9-11-9-21-19"/><path fill="#687488" d="M422 265c-6 0-8 5-15 5-5 3-4-1-5-3 0 7 1 8-6 9 3-5-5 0-6-6-1 3 2 2 1 5-5 0-2-4-4-5-5 5-24-1-29-1 0 3 1 4-2 6-5 1-10-3-8-4 2 6 5 10 7 15 2-6 5-5 5-13 10 8 20 11 29 10 9 0 20-7 27-10 3 4 1 8 7 10 9-12-6-4-1-17"/><path fill="#3E4558" d="M112 262c-4 30-12-7-18 22-1 3 1 5 2 7 4-2 5-6 7-10-2 18 2 33 5 47 2-19 12-54 5-64"/><path fill="#322C3A" d="M295 358c-7 6-10 21-18 23 0 8 7 28 2 29 5 22 9 11 25 36-1 3-4 19-2 22 6 4 7 0 12 4-17-16 2-27-14-45 0 7-5-9-10-8-3-6-2-12-3-16 0 1 2 9-2 7 1-16-3-17 1-33 3-8 5-19 15-19h-4"/><path fill="#302D3C" d="M203 320c1 2 2 5 3 8-16 6-25-3-21 20 13-6 15-10 21-11 3 1 4 3 5 5l12-3c9 4 35 9 42 10l1 2v-2c1-3-4-7-6-9-1 0 1 2 0 3-8-2-16 0-21-4-10-4-18-3-22-14-1 3 3 4 3 7-3 3-4 1-6 2-6-3-8-8-10-12"/><path fill="#44465B" d="M417 275c-7 14-19 10-28 12-9 0-20-3-28-6 2 13 10 6 14 13-1 5-4 4-5 1v-1 2c-1 2 4 7 0 9 7-9 26-5 37-6 1-7 5-13 10-22"/><path fill="#5B6378" d="M302 372c-5 4-9 9-8 17 2 3 9 16 3 16 12 7 3-3 15 8 4-6 7-10 5-16-1-7-16-24-15-23"/><path fill="#2D2C3C" d="M134 273c0 6 7 12 5 25-6 8-2-1-10 2l1-2v2c-3 2-7 7-4 11 4 5 8 5 7 10 3-8 9-14 7-23 4-4 6-2 8-4 12 8 6 23 11 32-1-6 6-7 3-15 4 4 6 8 8 11-3-33-17-11-17-45-2 5 0 11-5 13-6-4-8-9-12-16"/><path fill="#7F8B97" d="M489 168c-15 5-35 15-44 21-7 7-12 12-10 20 1 4 3 8 5 12 8 4 12 0 17-2-3-1-7-1-11-1 4-7 10-11 14-17-6 4-9 11-15 15v3l-3 1c-2-2-5-7-4-9 17-17 34-32 51-43"/><path fill="#637086" d="M325 306c-6 6-27-2 5 13 18-5 34 2 50 6 12-3-18-2-23-8-7-3-3-5-2-6 20-5 38-5 56-4-28-5-63 2-89-1"/><path fill="#3B3A47" d="M531 138c-5 8-13 16-20 21 0-1 4 1 4 2-8 22-27 32-34 56-2 6-2 12 1 16-2 6-7 6-8 10 5-4 11-9 17-13-4 1-10-12-6-18 9-11 22-30 32-42 6-12 13-23 14-33"/><path fill="#2F303C" d="M97 248c-12 16-25 33-32 51 17 1 14-22 28-24 3-8 7-12 8-18-1 0-1-4-4-7"/><path fill="#3A374A" d="M396 385c-5 5-12 12-10 20 5 17 15 24 18 37-1 9-3 14 1 19 6-3 0-6 7-8-2 0-4-1-5 0 3-5-3-20 5-39-8 6-6-7-8 4 0-10-8-1-13-12-2-6 0-11 1-15 4-6 10-7 14-2-1-4-4-4-8-3"/><path fill="#36384A" d="M455 254c-1 5 0 11 0 14 9 2 15 2 22 2 4 1 6-1 8-2 7 4 11 9 15 12 16-3 39 9 34 11-16-18-11-18-22-21 0-3-10 3-25 0-5-3-6-2-8 0-8-2-15-12-23-15"/><path fill="#2F2D3C" d="M456 297c5 2 0 5-2 2 2 8-6 16-12 21-14 11-23 16-36 21-4 5-4 9-5 13 5-9 15-17 24-19 9-4 15-4 22-5 6 4 5 10 10 8 0-5-8-9-11-13-1-5 3-9 5-13 18 12 19 13 27 21-1-8-18-40-17-26-4-2-4-6-3-8"/><path fill="#AEA598" d="M348 378c-5 1-5 6-7 9 4 7 13 10 13 12 4 1 13 3 14-3 5-5 2-10-2-11-6-4-11-6-16-8"/><path fill="#5E4D4B" d="M213 371c-4 11-1 20 0 35 4 5 14 21 24 30-7 3-11-2-15-5-6-7-7-13-9-18 1 3 2 7 4 10 5 13 16 23 26 26 0-15 4-5 0-20-3-1-7 1-10-3-9-6-7-10-12-12-4-12-6-30-5-43"/><path fill="#565A6A" d="M219 199c5-3 9 3 11 5 4 10 17 15 14 25-9 1-15-8-20-12-3-7-10-11-7-17"/><path fill="#2F2B3B" d="M249 312c-23 7 37 22 36 23 3-5 2-8-2-11-11-3-24-5-31-10-4-5 4-1 6-2-2 0-4-1-5-2"/><path fill="#454B5B" d="M82 238c-15 22-25 47-33 71 10-11 19-40 36-55-3-5-6 5-9 6 2-7 3-14 6-19"/><path fill="#373849" d="M475 278c-8 2-2 6-2 12 8 14 11 31 15 48 0-9 7-16 2-25l2-1 1 2c2 2 3-5 5-8-3 1-1 5-4 8-8-12-18-23-19-35"/><path fill="#2D2E3A" d="M136 212c-9 9-15 25-21 32-4-4 0-11-1-16-1 4-4 1-5 6-9 11 0 22-7 31 12-1 11-21 20-29 3 0 5 6 2 11 4-12 5-23 12-33"/><path fill="#6B7485" d="M445 188c-4 4-16 10-16 13-2-1-4-1-7 0 8 7 9 16 14 24 1 6 0 9-1 12 4 2 4-2 6-2 2 11-2 19 4 26 4-13-2-25-4-36 4-2 5 1 7-1-9 1-11-9-16-14-1-9 7-16 14-22"/><path fill="#7F8A99" d="M416 195c1 14-6 1-4 7 3 11 20 13 17 26-1 9-12 17-5 22 6-6 6-6 17-13-2 3-5 0-6 2 3-9-1-15-4-21-3-7-8-7-10-13 1-3 3 2 5 3-1-2-3-4-5-6 0-3 2-2 3-3-2 1-4 0-7-1"/><path fill="#282833" d="M466 200c-7 4-9 8-11 13-3 2 6 5 6 3-2 5-3 7-9 13 2 2 4 0 7 1-3 2-6 13-7 16 5 2 7 2 8 1-3-5 3-10 1-14 4-4 8-19 10-20-4-3 0-5-5-1 3-10 7-11-3-10"/><path fill="#F9F8EB" d="M167 150c-24 14-48 33-67 57-18 21-30 41-39 64 11-23 24-44 41-63 20-19 40-42 63-57"/><path fill="#434A5F" d="M433 334c-6 2-13 3-18 8-8 5-9 8-4 14-3-9 47-17 25-23"/><path fill="#7B8EA0" d="M387 309c-42-7-35 17-1 12 0 1-18-1-25-4 19-13 13-3 29-11 6 3 9 3 12 4 2 4 1 5-2 4 3 1 3-1 4-2 6 3 3 7 4 10 8 0 13-3 18-6-7-3-12-9-17-8-8 0-12-1-16-2-5 1-7 1-10 1"/><path fill="#53596D" d="M178 217c-2 8-3 5 0 21 9 25 12 27 19 44h2l2 1v2c-1 1-2 3-1 6v2l1 1v2-2c15-4 28 21 43 15-13-3-27-21-44-16-1-5 0-7 1-8 2-4 4-1 4-4-2-2-4 3-6 1s-3-6 0-6c9 0 11 6 14 10 0-8-5-11-13-11-4-3-5-4-7-8-11-25-14-31-16-48"/><path fill="#575C6C" d="M221 200c-8 2-1 9 1 12 4 7 12 17 20 17 4-8-6-11-5-16-4 7-3-3-11-12l-2-1h-1"/><path fill="#525866" d="M505 192c5 0 12 2-2 19-5 12-11 0-9 2-6-7-1-3-1-9 5-6 7-10 11-12"/><path fill="#7F8998" d="M284 180c10 7 15 26 14 29 1 13-7-4-6 0 4 7 8 10 9 15 4-3 6 3 9-1 3-5 3-9 0-12-10-6-9-21-24-29"/><path fill="#332D3C" d="M401 381c-4 4-19 11-17 24v1l1 2-1 1c5 19 8 28 13 33 1 9-1 15 0 20 2 3 6-2 7 2-6-5-1-10-1-20-4-15-13-22-18-38-2-7 3-13 7-16 3-6 7-6 11-5l-1-2 1-1h-1"/><path fill="#191521" d="M211 303c17 9 34 18 51 26-1 6 4 8 11 16 1-2 4-7 8-6 1 10 11 21 3 28 3-3 4-6 8-8 1-10 0-16-7-20-9-8-17-6-20-10-20-8-36-16-52-26"/><path fill="#919CA5" d="M257 159c32 46 6-4 44 62-3-12-6-27-14-39-10-14-14-6-27-18"/><path fill="#555E6D" d="M101 214c-9 6-13 15-18 23 3 0-5 16-8 21 11-7 20-17 30-31-4 5-8 8-14 9 1-9 8-19 12-22"/><path fill="#647288" d="M447 296c-5 7-8 9-14 10-9 4-10-5-15-2-7 4 5 8 8 10-2 6-18 12-22 8 13 4 21-9 34-9 8-4 10-10 9-15"/><path fill="#889CAC" d="M381 305c-41 21 16 10 19 8 3-4-4-2-7-4-8-1-12 0-15 4-2-3-1-4 0-5"/><path fill="#302B3A" d="M262 369c-1 2-3-1-4 1-8 13-10 22-16 32 2 3 3 6 6 6 8 8-3 11 4 13 2-12 1-4 1-16 6-4 7-8 13-10-5 5-9 1-13 0-4 0 0-12 2-17-4-2 21-13 10-9"/><path fill="#657184" d="M301 382c6-3 10 4 13 7 2 6 0 9-2 12-7 0-11-4-13-7 1-5-2-8 0-11"/><path fill="#90A0AA" d="M496 164c-18 12-35 26-53 42-4 4-6 6-2 11 8-4 16-16 25-20-3-3-5 3-8 3 8-16 25-23 36-34"/><path fill="#687481" d="M115 198c-7 5-11 12-18 17 2-2 3 0 5-2-5 8-9 14-10 22 14-4 18-20 30-28-6 5-10 9-14 15 2-11-3-10 8-23"/><path fill="#545A68" d="M506 192c-1 2-4 0-5 4-7 10-10 12-9 17 2 13 26-21 17-21"/><path fill="#555D72" d="M416 273c-4 4-17 9-21 12-12-1-24-2-34-11 0 9-3 6-4 14 3 5 3-6 4-9 7 4 19 7 26 8 3-3 4 1 6-1 6 0 19-1 23-11 1 5 1 10 3 14 10-7-4-4-1-15"/><path fill="#2F2F3E" d="M462 282c0 2-5 2-1 5v2h-1v2c7 3 18 21 23 35 0-15-13-31-11-39-3-7-7 0-9 0-5-2-2-3-2-4"/><path fill="#5A6176" d="M398 388c-5 2-6 6-5 12 3 3 6 6 10 6 5-3 3-8 4-11-3-5-5-6-7-8"/><path fill="#44475D" d="M267 370c0 3-3 0-4 2 1 10-4 12 0 20 6-4 16-17 8-22"/><path fill="#687487" d="M303 383c-6 2-2 5-4 8 3 6 6 10 10 10 4-4 6-6 4-9-2-6-4-9-8-10"/><path fill="#808894" d="M371 175c-3 2 1 3 3 7-3 1-4 3-7 2 0 3 3-1 7 0 2 4-4 6-4 8 5 0 14 6 13 13 0-4-1-5 4-7 5-6 7-1 9 2-3-9-10-13-21-14 6-7 1-4-2-10"/><path fill="#3A394D" d="M264 370c-4-1-3 6-5 4-4 5-7 12-6 18 5 6 9 4 12 2-3 0-4-2-5-6 3-6-1-10 3-17 5-2 9-2 11 1 0 2 3 3 3 4 2-1 2-4-1-4-4-3-7-3-11-2"/><path fill="#7B6862" d="M213 403c1 12 0 14 3 15 3 6 9 18 18 20-3-12-19-18-19-33"/><path fill="#191019" d="M432 268c-4 10-5 12-10 21-4 2-1 4-4 4 0 5 3 6 3 9-2-4-4-8 1-11 6-4 2 7 9 8 1-3 1-16 5-12 2-8-11-8-5-17"/><path fill="#899EAF" d="M322 240c11 12 13 15 21 25-1-2-3-6-2-7 6 6 3-11 10-1-15-13-19-10-26-13"/><path fill="#575E73" d="M443 222c6 50-2 27 8 84-7 6-16 9-23 11 10 0 17-5 19-11l2-1v-1l-1-3c3-15 1-29 3-45-1-13-10-34-4-31"/><path fill="#505C6F" d="M490 235c5 7 23 21 33 26-8-8-15-17-25-23l-2-2-1-1"/><path fill="#3B3A4D" d="M285 224c3 3 7 10 8 12-2 12-9 20-8 33 7 11-1 15 13 21-4-16-9-12-13-28 5-11 6-21 15-27-5 0-10-6-13-9"/><path fill="#45475D" d="M398 386c8 2 11 9 9 17-2 4-5 6-7 3-6-3-10-5-8-11 0 3-2 5-1 8 14 14 10 11 16 10 7 1 0-9 2-15-2-7-4-10-8-12"/><path fill="#AABBC0" d="M493 167c-11 12-28 18-35 31 12-7 30-20 32-28"/><path fill="#3A3C51" d="M174 343c4 14-3 28 6 33 3-10-2-22-3-32"/><path fill="#1B1623" d="M290 311c-12-5 0 11 3 13 5 6 7 0 16 0-7-1-12-7-18-11-1-3 1-2 2-3-1 1-2-1-3-1"/><path fill="#2A2636" d="M303 309c7 4 15 12 25 13-5 3-7 0-8 4-6-6-15-7-17-14"/><path fill="#88A0A8" d="M138 182c-7 5-15 11-18 19 5 1 19-15 21-20"/><path fill="#3A394C" d="M297 360c-6 4-7 10-10 15-6 18 1 21-2 33 3-9 0-19 4-27-1-14 19-25 11-21"/><path fill="#869CAC" d="m408 311 1-1c5-1 8 0 11 2-5 13-15 9-12 0"/><path fill="#3A3B45" d="m169 166-1 1v1h-3c3 6-2 1-4 4-13 12-27 25-36 34 10-8 24-24 34-32 3 3 4 7 2 12 6-9 10-10 7-14-11 0 11-3-1-2 5-4 11 2 4-5"/><path fill="#2E2E3C" d="M124 250c-7 17-9 49-9 61 8-24 1-34 9-61"/><path fill="#3C3C4E" d="m405 351-2 2c-3 4-1 14-2 19 2-4 6-7 7-11-1 2-2-4-4-5 4-1 4 2 6 3 12-12-1 5-3-9"/><path fill="#130F1B" d="M436 256c0 2-2 6-3 10 11-7 8 15 11 10 1 6 3 12 0 16 3-6 3-14 1-20-1-7-3-12-7-14"/><path fill="#302C3C" d="M289 228c3 15-1 15-6 33-2 4 2 13-2 13-2 3 3 5 4 8 7-6-5-12-1-19 1-10 6-16 9-22 0-6-2-6-4-11"/><path fill="#17121C" d="M388 381c-10 2-12 12-17 18-3 3-11 15-17 20 1-2 7-5 6-4 6 4 10-4 16 2-3-8-8-8-5-15 5-9 8-18 17-21"/><path fill="#8FA1A9" d="M178 149c14 12-13 3-17 13 2-5 5-8 8-10 4 2 5-1 6-1"/><path fill="#F6F3DB" d="M525 141c-22 23-52 27-78 43 19-10 43-17 62-28 6-3 10-9 15-12"/><path fill="#555C72" d="M391 300c-7 2-18-2-19 6 9-5 60-1 18-7"/><path fill="#17131F" d="M284 205c2 3 4 6 4 9-5 2-9 2-13 2 15 6-11 14 5 23-1-3-3-4-4-6 2-1 12 2 8-3-1-6-4-10-8-11 5-4 8-1 11-3 0-4 0-7-2-9"/><path fill="#454357" d="M409 445c-3 4 12 13 18 13 2-1 1-3 2-4-7 0-13-4-17-8"/><path fill="#F3EED7" d="M233 144c14 9 28 17 43 26 11 9 20 18 27 28-6-9-14-19-24-25-14-12-29-21-44-28"/><path fill="#646C7F" d="M395 390c5-5 11 3 8 8-5 1-7 0-10-1 1-4 0-5 2-5"/><path fill="#F7F7F8" d="M339 268c-2 2-3 5-1 7 1 5 4 7 6 7 4-6-1-9-2-13"/><path fill="#8AA1B0" d="M409 311c-3 3 2 5 1 8 2 3 4-2 6 0 6-7-2-9-5-9"/><path fill="#444957" d="M482 242c5 5 4 13 9 17-2-1-1-4-3-5 12 0 22 5 23 4-19-14-23-18-16-2-9-7-10-9-11-12"/><path fill="#4A506B" d="M290 294c4-1 8 0 7 6-3 0-2 4-5 5-4-3-4-6-1-9"/><path fill="#C7A183" d="M325 293c-12 6 13 12 19 11-7-7-15 5-18-11"/><path fill="#3A3B4D" d="M199 298c21 2 22 8 39 17 5 0 7-3 10-4l2-1h-1l-1 1c-2 2-6 1-8 3-18-11-35-20-37-15"/><path fill="#302E3D" d="M343 321c13 2 38 12 66 6-10-1-39 3-58-7"/><path fill="#292435" d="M303 310c1 8 11 9 15 13 10 7-5-4 10 1-9-3-17-7-22-13"/><path fill="#272533" d="M138 289c-1 3 0 5-2 9-3-2-2-10-6-8-1 7-3 6-3 10l-1 1h2c2-5 4 1 6-3 1 2 2 3 2 5 4-5 2-10 3-13"/><path fill="#31313F" d="M102 295c-1 10-6-3-7 6 4 5 4 10 8 14-1-6-3-10-1-18"/><path fill="#3A3B4B" d="M447 332c-23-3 2 5 4 8 3-3-2-6-3-8"/><path fill="#30303C" d="M129 285c-1 2-2 3-5 2-2 6 1 10-1 16 1-6 10-20 10-17"/><path fill="#F9FAFA" d="M434 268c-1 2-4 9 2 10 5-4 3-8 1-11"/><path fill="#677082" d="M396 389c-1 2-2 3-2 5 3 2 4 4 7 3 2-3 1-8-3-8"/><path fill="#454A5F" d="M191 270c0 12 8 13 7 21v2h2l1 2v2c1 0 13-4 17 4-5-8-12-6-19-7 3-13-6-10-6-22"/><path fill="#535870" d="M268 280c-7 2 14 3 17 7-2-5-7-8-15-6"/><path fill="#454B5D" d="m513 256 23 23c-6-9-11-19-22-21"/><path fill="#A9B7BB" d="M263 166c-1 11 13 13 19 23-10-21-10-3-17-21"/><path fill="#473738" d="M286 431c-3 2-7 4-11 5 11-1 23 7 12-3"/><path fill="#717686" d="M376 185c9 6 11-3 18 9-2-6-2-7 0-8-6 0-10-1-16-1"/><path fill="#748392" d="M301 386c4-3 11 4 5 8-4-1-4-3-5-6"/><path fill="#2C1D29" d="M350 281c-2 3-6 3-4 7 2 1 7 4 6 8 2-4 2-9-2-13"/><path fill="#92999C" d="M146 169c10-2 1 9-2 9-1-3-2-4 0-7"/><path fill="#3B3C4F" d="M361 281c3 6 10 24 7 23 1-3 2-6 1-8 2 0 3 1 6 0-3-9-12 0-13-15"/><path fill="#69747E" d="M183 126c5 9-9 13-1 20 3-6 4-11 2-19"/><path fill="#15111C" d="M384 318c4 3 7 5 11 6-5-4 4-1 7-5-5 3-10-3-15 0"/><path fill="#4B526C" d="M292 295c-5 4 2 14-6 9 6 4 6-2 11-4 0-3-1-7-3-4"/><path fill="#2F2C3A" d="M268 284c5-1 15 10 19 9-4-7-11-6-16-9"/><path fill="#454358" d="M317 449c0 6 8 14 15 12-5 0-9-7-14-10"/><path fill="#3C3C48" d="M173 185c-4 8 2 13 2 19 3-16 1-9-2-16"/><path fill="#2F2D3F" d="m319 240 6 15c2 2 3-3 5 1 1-3-6-8-9-15"/><path fill="#656E7F" d="M197 279c5 0 21 9 29 21-10-11-13-15-18-20-4-3-4-1-6-3"/><path fill="#2B1E27" d="M443 277c-2 2-8 3-6 9-1-6 4-1 6 0 1-4 1-6 1-9"/><path fill="#484B54" d="M105 234c-3 1-11 9-8 13 3-2 5-5 6-12"/><path fill="#3B3C45" d="M123 211c-7 3-14 16-20 23 9-9 13-15 18-21"/><path fill="#A17967" d="M344 294c-9 9-3 5 5 9 0-5-2-7-3-8"/><path fill="#2E2B3C" d="M362 286c-3 6 3 12 5 17-1-6-3-11-5-16"/><path fill="#30303A" d="M179 165c1 13-30 0-5 7-3 14-2 11 2 21 0-14-3-17 4-27"/><path fill="#594545" d="M273 438c0 5 5 7 9 8-5-4 4-3 6-4-5 0-9-1-14-3"/><path fill="#3B3D4A" d="M137 235c-3 10-5 18-9 31 5-8 6-20 10-31"/><path fill="#946D60" d="M322 287c-3 2-3 4-2 8 7-2 8-4 3-9"/><path fill="#848C95" d="M251 156c11 20 2-3 22 18-3-8-13-10-18-16"/><path fill="#677284" d="M458 273c5 2 10 7 15 0-4 0-9-1-13-1"/><path fill="#95A7B2" d="M392 259c5-2 3 1 7 2-2 4-13 1-9 0"/><path fill="#F5F1DA" d="M211 275c5 9 8 17 17 22 7 6 13 7 18 11-12-8-30-16-33-32"/><path fill="#1D1823" d="M271 235c6 1 9 7 5 11-6-3 2-4-4-9"/><path fill="#2D2634" d="M288 422c6-3 7 10 5 7-2-1-5-2-6-4"/><path fill="#464856" d="M516 263c3 4 22 21 27 32-3-8-14-21-26-31"/><path fill="#5B5F71" d="M311 195c-5 9 9 17 2 27 4-12 0-17-2-25"/><path fill="#ABB7BA" d="M356 178c-2 3 3 11 5 14 1-5-1-8-2-12"/><path fill="#15141B" d="M162 214c-1 14-2 28-1 44 1-13-1-29 2-42"/><path fill="#C6A586" d="M437 294c-6 17-10-1-14 6 2 2 21 3 15-4"/><path fill="#B6CDD1" d="M368 236c3-2 6 1 7 3-3 4-8 1-9 0"/><path fill="#312E3E" d="M146 339c2 9-6 6-5 14 4 3 1-3 7-1 0-4-2-7-1-11"/></svg>