<svg xmlns="http://www.w3.org/2000/svg" width="600" height="600"><path fill="#857B6B" d="M97 105h2c15 6 30 12 46 19 7 6 13 11 18 16 5-3-1-6-1-10 4-1 10 4 15 6 3-4-3-6-6-7 14 1 28 5 41 12 0-3-2-6-3-9 6 1 11 6 14 8 3-1 0-5 0-8 4 0 6 2 8 4 2-6 0-12-1-17 9 5 14 12 22 19-1-6-1-15 0-21 14 20 32 39 45 57 0 8 4 12 4 17-4 11-15 17-12 28 2 8 5 15 8 22 13 1 20 18 37 27 9-6 13-13 16-18 9-15 0-23 9-37 0-7 5-11 9-14-4-2-7-3-11-4 9-9 17-16 26-19-2-1-3-2-5-2 3-5 6-5 7-8-10-7-17-13-24-23 6-7 12-3 13-8 19 1 32 7 49 5-2-6-7-12-11-17 5-2 9 3 15 1 2-5-2-5-6-8 15 3 27 12 38 19 0-8-3-14-2-23 20 19 35 38 52 57 9 16 19 29 16 48-10 9-4 23-10 34-2 7-8 11-12 14 0-9-16-26-27-35-6-1-8 1-11 2-3 6 0 12-3 15-4-2-8-5-11-8-5 14-11-6-11 10-2 7-3 12-2 18 5 9 11 12 16 17 5 11 2 16 6 32 0 4-3 5-4 7-4 0-7 0-10-2-9 28-24 51-26 82-8 11-15 23-21 32 3 9 10 15 15 20 8 5 13 0 18-1 11 7 24 9 28 21-3 4-6 1-9 0 1 4 3 6 3 9-21-8-44 7-71-2-1-7 6-15 16-14-9-17-20-26-31-32-4-11-13-20-8-30-5 0-8 2-12 3-4 6-6 11-9 15-5 3-1-3-3-4-9 6-14 11-16 20 4 8 8 14 11 19 15 0 25 3 35 11 8 5 15 13 13 21-9-3-13-6-21-4 1 1 2 3 1 6-19-1-37-6-56-2-4-3-5-5-4-9 4-11 13-9 14-15-3-6-5-11-8-13-3 4-5 9-8 13-1-7-6-12-5-17-2 6-6 11-7 17-15 3-32 1-41-1-4-6 0-10-4-13-12 7-12 8-21 14-13 1-16 2-24 4-28 2-50-2-67-3-10-13-17-26-23-39 19 8 31 18 48 30 9-2 12-10 18-13 18-5 34-9 48-8 3-7-15-12-22-16 1-6 8 0 12-3-11-15-11-22-14-37 15 7 24 23 41 30 2-1-1-8 0-14 7 6 12 13 17 19 9-8 18-18 24-28-6-2-2-14-1-18-5-2-8 2-13 5 0-7 0-12 1-17-9-7-5-26-14-25-5 6-9 10-16 16-3-2-3-6-1-8-8 13-19 5-25 20 0-13-1-23-1-33l-27 27c1-12 4-22 8-32-12-5-22 8-32 11 3-9 6-17 11-24-3 1-7 1-11 2 4-9 11-14 15-21-16 0-32 0-48-1-6-6 11-11 16-15-30-5-58-12-85-19 20-10 47-12 72-16-30-16-63-32-90-51 24-3 49 1 73 5-19-18-36-39-53-58 5-6 18 6 20 3-59-47 10-16 34-2l5-5c-4-11-15-18-19-25"/><path fill="#5B5F61" d="M41 191c32 19 64 38 99 52-5 1-13 2-21 3 3 1 4 1 6 2-4 5 8 6-2 10 13 1 0 12 13 11 23-3 32-3 54-11-3-1-6-1-9-3 0-1-3-3-1-4-11 1-22 4-33 5 12-4 25-5 37-8 4-6-5-4-6-8 22 2 1 9 23 10-3 3-4 7-6 9 5 2 12 4 16 3 1-6-2-7-4-8 0-4 1-7 2-10-5-3-10-6-16-8-4 0-7 1-9 3 1-4 3-4 5-5-2-2-5-2-7-4 1-4 4-3 6-4-6 0-9-1-12-2-1-3 3-1 5-2 0 0-15-6-7-10-43-8-85-21-130-22"/><path fill="#8F7F69" d="M182 131c3 13 20 26 24 26 1 13 3 21 4 30-5 6-10 7-14 11 9 6 18 11 28 16 3 6-5 0-6-1 5 8 11 16 17 24 6-1 10 0 12 0-1-3-3-5-2-9 2 5 6 11 11 13 7 3 7 0 6-5 2 6 3 11 7 15 9 3 7 0 15 0-4-5-8-8-11-12 9 2 14 1 20 5 3-11-17 0-20-10 2 0 7 3 15-4 1-4-2-10-3-15-9-2-17-5-25-6 7-1 3-3 2-8 3 3 4 5 5 7 8 1 12 3 18 2 5-6 10-11 13-17-14-2-25-1-37 0-7-7-13-9-19-13-5-9-9-16-14-22 2 0 8 1 5-4-8-6-14-13-21-19 1 0 2 10 6 13-12-6-24-11-35-15"/><path fill="#6D6058" d="M213 284c-5 7-5-1-4 8-1-3-5-4-7-5-7 3 10-1 0 5-4 0-5-1-4-4-11 3-13 4-24 10-3-3 1-5 2-7-6 6-11 13-18 18 8 2 9-5 12-3-4 10-8 17-12 24 5-5 22-13 33-17-1 11-6 25-9 37 9-9 24-22 27-33-1 16 3 22 0 39 5-16 24-9 26-25 1 4 0 9-1 13 11-1 33-41-2-15 1-7 2-11 2-15-3-1-7 1-10-1 0-6 2-8 2-12-3 3-5-4-12-3-1-6 1-9 2-12v-1l-1 1h-1"/><path fill="#383033" d="M287 403c-16 16-38 35-57 47-17 8-30 16-44 20 10-2 21-2 32-5 10-7 17-10 27-18 6 6-1 10-3 16 9 4 27 4 40 3 4-11 8-16 12-26 0-13-10-22-8-35"/><path fill="#5C6064" d="M122 146c-5 20 0 10-3 28 5 0 5 4 8 8 1 9-2 13-2 18 20 1 49 14 62 9 4 2 5 7 10 8-4-2-6-6-10-8-5-7-8-7-13-11 3-7 7-7 10-10-3-2-1-4-1-5-14-16-44-13-58-37"/><path fill="#716257" d="M315 296c-21 8 1-1-10 9-9-4-20-4-24-3 10 10 4 6 23 27 4 1-4 19-3 15-4 3-8-5-6-1 0 7-3 14 0 19 0-1 2-3 5-4-10 25 2 20-9 38 13 1 18-7 23-9-3-5-11 8-17 2 3-19 8-16 18-30-4-4-5-7-14 1 0-5 2-8-2-11 5 2 9-7 13-5 20-8 6-15 17-19-6-6 5-6-5-9 4-1 5-5 7-2-1-1-6-1-7 0v2l2 1-1 2-3-3c-1-1-9-13-6-20"/><path fill="#736860" d="M190 261c-12 3-24 8-36 9-9 5-19 11-28 18 14 1 28 2 43 1 11-3 19-9 29-13-9 7-23 12-28 24 10-8 18-8 30-14 26-30-8-19-23-12-5-4 14-5 20-10 0-1-3 0-4-3"/><path fill="#716C68" d="M166 157c-3 15 15 18 20 27-2 5-6 9-10 12 6 6 12 13 19 18-6-7-14-1-22 1 9 6 16 11 27 8-1-3-2-4-5-5 5 0 6-4 12 1-1-3 0-9 1-11-4-3-12-6-15-9 5-5 9-8 14-10 3-9-3-7-2-22-12-3-23-7-34-8"/><path fill="#796A5F" d="M228 251c-3 5-1 12 1 17 5 4 9 7 12 5-5 8-2 21-2 28 11 13 21 21 33 27 0-18 4-34-2-49-4 1-8 3-13 2-1 12 0 23 0 34-3-12-4-22-3-34-5-2-9-4-11-8-5-5-3-10-2-14-4-3-8-5-11-8"/><path fill="#685E59" d="M251 421c-22 26-55 17-82 29-8 9-4 6-5 12 7 1 7 5 14 8 25-9 81-35 81-48"/><path fill="#675B54" d="M406 402c-3 1-4 5-7 5-6 1-11 0-14-4-8 6-18 8-23 15 3 12 19 21 28 32 12-11 2-18 17-33 0-5-1-10-1-14"/><path fill="#736861" d="M70 141c-3 13 14 20 20 31 12 11 21 22 32 27 2-6 8-13 2-20-6-4-15-6-22-10 5 2 13 0 13 3 5-6 5-5 3-11-14-5-31-13-47-19"/><path fill="#91806B" d="m333 382-9 3c4 0 8 1 9 5-1 10-5 18-10 25-8-1-14-3-20 0-3-5-3-11-2-17-2 5-8 10-12 8 1 16 7 29 14 43 3-3 6-5 8-8 3-2 5 1 6 1v-8c10-15 13-10 19-25 5-7 1-12-3-17 1-5 0-8 2-10"/><path fill="#E9EAD5" d="M394 267c-7 2-10 5-18 4-16 2-30 0-45-1 5 7 12 9 19 9 1 3-1 2-2 5 1 2 2 3 3 4 6 0 9-2 13-3 0 3 0 6-1 10 5 0 9 1 11-1 2-6 0-9 1-15 1 5 4 12 6 17 6-2 11-5 16-10 1 6-5 9-5 15 12-6 17-21 10-27-7 1-13 5-20 6 4-3 9-6 14-7-1-3-5-2-5-4"/><path fill="#EBECD7" d="M275 238c33 29 31 24 31 28 10 9 17 6 20 10-6 2-12-4-20 1 8 3 24 14 27 8-4 6 6 4 6 7-8-2-15-4-20 1 9 7 19 5 24 7-2 4-8 5-10 11 2 3 7 7 8 0-2 6 4 10 8 12 3-14-1-25-4-35-11-13-20-19-27-30-7-5-3 5-1 8-1 2-2 2-3 3 2-10-11-18-17-23-7-2-12-2-17-5"/><path fill="#FBFCEB" d="M257 125c5 17 10 34 10 53-6-3-9-7-13-9 5 6 5 14 6 21 13 0 24-1 37 0-2-9-4-16-7-24-15-11-22-26-33-38"/><path fill="#6F6860" d="M115 246c-19 2-38 5-56 9 26 4 86 28 69 6-3-3-6-3-8-2 10 0 2-10 6-9 0-4-8 0-8-5h-1v1"/><path fill="#EFC175" d="M449 151c5 11 9 22 20 30 4 2 9 0 13 2 1-4-3-8-1-12 4 12 7 21 11 30 6 3 11-2 17 2-2-24-30-27-34-40-10-6-17-9-24-11"/><path fill="#7C6C5B" d="M314 360c-4 14-30 22-13 28 5-2 12-5 14-5-1 7-6 6-8 9 7-4 18-8 26-12-1 9 2 16 7 20 0-3 0-5 1-9-8-2 0-17-12-12 3-4 6-5 9-7 0-5 0-7-1-9-6 0-8 3-12 4-5-2-5-5-6-7"/><path fill="#938470" d="M117 128c4 12 15 22 25 31 13 8 27 8 37 18-4-3-9-5-12-10-5-4-4-8 1-9 14 1 25 5 36 8 0-2 0-3 1-4-16 2-30-7-44-7-5-4-9-7-10-11-10-3-22-9-32-15"/><path fill="#7D6D5F" d="M244 258c-4 8 0 19 10 20 9 4 14-7 18-2-3-1 1-2-3-3 8 1 13 3 18 6 7 0 12 3 15-2-5-5-12-4-16-9-7 1-10 3-15 2l-1 3h-1l-3-1c0-5 11-3 14-5-4-3-8-6-13-7-9 4-16 0-21-3"/><path fill="#42393C" d="M270 431c4 1 5 13 0 16 12 0 1 16 12 9-17 9-23 6-35 9 1-13 12-22 20-31"/><path fill="#594D46" d="M424 372c-5 5-12 14-19 22-15 7-27 4-40 10-2 1-3 7-4 12 1 3 2 4 2 6 0-2-1-3-2-4 8-7 16-11 22-15 5 3 10 4 14 2 4 1 6-2 8-3 4 3 2 14 2 15 13-20 12-23 17-45"/><path fill="#423D3C" d="M274 291c2 33 1 35-3 53 8 0 7 1 10-2 4-2 4-6 6-9 2 3-1 4-1 7 1 4 1-1 5 1 3-7 3-7 8-12-3-12-21-17-25-34"/><path fill="#E4E5D2" d="M410 272c-1 5-2 12-3 17 3 8 8 14 11 18-3 10-1 23 6 29 0-6 1-13 0-21-1-3-3-5-3-7-3-5-2-10-6-14 6 4 8 11 12 17 2-11-1-17 1-28 0-6-5-6-7-7-7-2-5 2-7 4-2-3-1-4-3-7"/><path fill="#443B3D" d="M271 432c-10 9-19 19-27 29 13 1 24 3 36-1-2-4-2-3-4 0-1-13-7-14-4-27"/><path fill="#EAEBD5" d="M392 241c-5 2-11 2-17 3-4 5-7 10-9 15 4 0 8 1 11 1-3 4-5 6-8 8 8 1 15 1 21-2 13-18-8-9 4-26"/><path fill="#877765" d="M324 336c-2 7-16 11-10 19 4-3 6-5 8-6 1 2-2 3 0 6 6-1 10-4 12-9 1 13 11 5 6 18 6-1 8-5 11-9 3 1 2 4 4 5 3 0 4-2 5-4-1-9-6-4-10-8-5 3-1 14-5 10-1-7 4-14-3-20-4 1-7 3-10 5-4-3-4-5-5-7"/><path fill="#AF9C81" d="M424 202c-19-4 3 8 5 8-4 6-17 11-28 14 5 1 11 0 16 1-1 4-2 8-4 12 11-2 18-9 21-18 1 8 0 15 1 23 12-10 0-10 10-19-4 1-4-3-7-2-1-5 1-7 4-8-24-2 8-8-19-5 2-3 3-7 5-6v-1h-1"/><path fill="#E1E2CE" d="M321 388c-5 2-10 5-15 7-3 5-3 11-1 13 5 5 11 3 15 4 5-4 19-24 2-24"/><path fill="#625C5B" d="M116 438c-2-1 4 4 5 4-4 5-1 2-1 7-1 3 4 9 6 15 9 2 19 2 26-1-11-9-22-19-33-24"/><path fill="#936C4C" d="M509 197c0 3 10 7 4 18-1-4-3-7-2-11-25-7-19 9-6 18 10 0 15 5 18-5-2-7 4-3 0-15 1 1 0 5 2 6-10 0-10-7-14-10"/><path fill="#8E7E6A" d="M272 274c3 7 1 15 5 21 4-1 7-2 8-6 2 4 11 5 15 7 2-6 7-9 5-15 4 3 5 5 7 7-2-5 1-2 3-3-6 2 0-3-8-4-10 2-24 2-33-6"/><path fill="#554A46" d="M221 284c-5 0-3 8-6 11 11 1 7 9 14 3 1 8-7 11-3 13 5 1 9 0 12-1-2 8-4 16-5 13 6-1 9 0 13-4 8-7-14-13-8-20-8-4-13-9-15-14"/><path fill="#EEEED7" d="M395 199c-4 4-11 0-16 5-5 7-10 12-13 19 12-3 15-7 36-6 0-3 2-4 2-5-9-2-15 4-23 4 9-2 1-6 4-9 9-1 38-9 11-9"/><path fill="#55504C" d="M197 382c1 9 7 23 10 33 7 6-8-10 8-10 11 5 27 11 26 23h3v-2c2-4 11-7 16 0 6-2 10-9 13-11-3 3-7 6-11 8-10 0-15-12-23-20 0 7 2 9 5 23-14-19-32-23-44-42"/><path fill="#595D62" d="M119 117c2 4-3 9 0 10 16 8 28 16 44 17-7-5-11-11-18-16-9-3-16-7-24-9"/><path fill="#443E3E" d="M213 258c-2 7-1 15 3 23 5 4 3 0 8 2 0 6 10 10 11 12 2 1-2-16 3-20-12-6-15-3-24-17"/><path fill="#E8E9D5" d="M347 289c4 8 5 17 7 26 5 4 8 8 12 11 5-7 3-15 1-22-6-5-12-11-18-14"/><path fill="#555556" d="M216 407c-21-2 0 13 11 18 4 3 9 6 11 3 3-8-3-12-9-16-5-2-7-5-11-5"/><path fill="#393032" d="M387 364c-6 3-18 8-9 17 14-14 16 11 27 0-2-5-2-10-3-15-3 4-8 6-10 9-1-3-5-5-4-10"/><path fill="#B7936D" d="M491 222c-3 5 12 15 13 22 4 1 7 1 10 2 3-23 1-8-2-20-6 0 0 3-2 6-3-1-2-4-5-5-4-3-7-5-10-5"/><path fill="#FCFCF6" d="M459 117c2 7 3 14 6 20 10 9 20 17 27 24-4-16-20-28-31-43"/><path fill="#A39580" d="M151 143c2 4 4 7 8 9 16 2 30 11 43 9-17-12-25-11-50-16"/><path fill="#907452" d="M360 209c0 6-2 10-4 15 2 2 2 11-2 21-5 10-12 20-17 22 7 3 14 2 20 4-3-5 5-3 4-8 2-7-8-4-9-8 1-5 1-7 2-9 3-4 2-8 4-11 12-9 2 5 11-11-11 2 1-8-12 4 0-8 3-12 3-16"/><path fill="#F5EBCB" d="M467 144c5 7 8 15 12 22 8 6 16 11 21 15-1-16-30-35-29-36"/><path fill="#A29176" d="M253 156c-6 3-8 14-11 21 7 6 12 9 17 13-1-8-3-16-9-22 5 1 9 2 12 7-3-9-4-14-7-18"/><path fill="#A18460" d="M362 142c8 6 16 16 27 20 7-2 10-4 17-6-1-3-4-3-10-8 1 2 3 2 3 4-4 1-5 3-8 2-9-5-19-11-28-11"/><path fill="#76675E" d="M290 343c-5 2-10 1-13 5 0 8-5 17 1 21 4-4 7-7 10-11 3-6 3-11 4-15"/><path fill="#EDEED7" d="M447 194c-29 11-16 10 6 6-1 4-4 2-6 3 3 4 9 6 13 8-2 2-4 2-7 2 18 5 16-8 25-7-4-1-2-3 1-5-3 3-7-1-10 1-4 4 2 0 0 5-29-3 5-7-25-11"/><path fill="#E2E3CF" d="M413 334c-4 3-8 5-11 8-2 6-8 10-4 15 8-3 12-8 12-15 3 4-1 8 2 11s4 1 5-1c3-7-4-11-3-17"/><path fill="#FEFEF6" d="M428 120c0 3 0 5-2 6 13 5 18 21 29 26-7-6 0-13-6-19-8-5-12-8-20-12"/><path fill="#443A39" d="M272 398c-5 10-10 13-16 22 11 0 49-21 13-18"/><path fill="#948065" d="M402 239c-20 10 2 10-10 25 10-2 11 7 14 11 1-6 1-12 1-18-3-7-3-7-6-15"/><path fill="#5D4F46" d="M290 368c-3 17-13 20-18 32 7 0 15 8 15-2 2-7 8-15 2-28"/><path fill="#DBAC68" d="M493 156c12 12 7 31 19 43 3-6 5-12 2-16-1-3-11-17-18-25"/><path fill="#CABCA2" d="M400 218c-3 3-8 3-10 0-5 3-3 6-2 8-5-6-2-3-9-3 2 6 5 14 11 15-1-4-2-6-3-9 4 2 5 7 10 10 7-13 4-12 2-20"/><path fill="#5A4D46" d="M271 331c-4 2-9 1-13 3 1 13 9 22 13 32 7-21-5-14-1-35"/><path fill="#FBFDE1" d="M418 143c4 7 4 13 12 14 5 3 9 3 13 5 0-3-6-6-4-9 5 3 8 5 11 6-3-2-2-5-3-7-11-4-18-8-27-9"/><path fill="#A6967D" d="M235 124c-1 7 1 12 2 17-4 0-6-2-9-5 0 4 0 7 2 10-2 1 14 0 17 7 0-11-3-20-10-27"/><path fill="#6F6762" d="M87 131c3 7 6 13 11 18 2 4 5 1 6 5 9-4-2-7 5-8 4 9 4 1 11 4-9-12-19-10-31-18"/><path fill="#E4BD88" d="M323 455c-6 2-7 8-5 13l1 1 1 1c3 3 11 7 19 13 1-3 1-5 2-7-2-2-4-4-6-7-6-3-11-1-14 0 1-4 4-4 7-3-8-5 4-5-4-10"/><path fill="#CAB38E" d="M410 144c-35-6 5 15 11 15 0-5-1-12-5-16-4-1-5-1-6 0"/><path fill="#755A46" d="M406 453c-3 4-3 6-2 12-8-10-5-2-3 4 2 1 2-1 1-3 11 6 20-3 32 6-4-10-12-11-19-6-4-5 3-2 3-4-4-3-8-5-10-9"/><path fill="#FBFBF5" d="M55 116c12 10 21 20 33 29 1-7-4-11-3-16-9-4-18-8-28-12"/><path fill="#6E5F52" d="M435 265c8 36-13-5-2 30 0-4 1-6 3-7 2 17-2 8 5 15 0-5 5-16 0-22 2 4 8 2 11 5-3-7-14-8-15-16"/><path fill="#7D6C5B" d="M432 230c-9 2-8 9-10 15 0 2 3-3 4 2-3 13-5 12-10 24 2-3 4-10 7-10 3 2 4 7-1 8l3-3c4 3 3 19 4 9 3 2 4 4 5 5 1-3-1-7 1-10 0 3-2 9-5 4-6-11-2-22-4-33 5 8 2 7 8 21h-2 2c-1-5 2-9 1-14-5 1-1-13-3-18"/><path fill="#716357" d="M380 351c-1 2-5 4-6 5-5-5-19 8-5-3 3 3 2 5 3 6-1-1-1-2 0-3 1 7 4 5 3 12 5-1 7-4 10-5 4 2 4 6 6 9 4 0 6-6 8-5-10-10-11-7-19-14"/><path fill="#B39873" d="M386 187c-8 6-17 14-25 22 1 4-3 9-2 14 15-11 15-25 25-33"/><path fill="#5A4F4C" d="M219 243c-7 4-8-3-11 10 11 2 9 10 18 15-3-3-1-15-1-19-4-4-3-2-7-7"/><path fill="#FBFDE8" d="M424 160c6 9 14 17 24 20l-3-15c-7-3-14-3-20-4"/><path fill="#ECEDD6" d="M412 203c-5 6-7 12-10 18 5 0 38-13 17-11-1-2 2-2 2-5-1-1-4-1-7 0"/><path fill="#EEEFD6" d="M401 179c-7 1 5 6 3 15 8 0 15 0 20-5-7-1-16-11-20-9"/><path fill="#877865" d="M246 242c-3 6 1 13 7 15 9 5-2-7 14-3-2-4-3-6-5-8-5-4-10 0-14-2"/><path fill="#CEBA97" d="M405 163c-37 7 21 18 8 11 2-5-2-7-4-11l-3-1h-1v1"/><path fill="#706255" d="M450 226c-5 6-10 13-15 18 0-1 4 2 1 7 1-3 3-5 0-7 3-5 15-11 15-9 3 3 2 5 9 10 3-16 17-22-11-17"/><path fill="#706258" d="M372 376c-10-1-8 9-5 14 3 3 6 4 8 6 5-8 4-6 6-13-6 1-6-5-8-7"/><path fill="#6C5F55" d="M362 381c-5 2-10 4-16 3 0 3-1 5 0 7 3 4 7 7 10 6 8-4 8-10 6-15"/><path fill="#675F59" d="M200 216c5 8 4 16 10 15 3 5-2 8-3 9 3 1 6 2 10 3-1-5 0-9 1-13-8-5-4-8-9-12-3 4-6-1-7 0"/><path fill="#AD9573" d="M381 232c-5 6-9 12-14 18-5-3-4-13-8-12-4 5-1 8-1 11 1 8 7 5 8 7 3-4 4-10 8-15 14 1 14-4 7-8"/><path fill="#CDB797" d="M381 139c-26 0 8 11 13 14-1-5-3-7-5-9 3-2 6 0 8-2-6-3-11-3-16-4"/><path fill="#867764" d="M229 233c-5 3-1 8 0 11 3 7 9 7 12 11 2-4 0-9 2-12-5-1-9-4-12-8"/><path fill="#DBD8BF" d="M255 123c-1 11 1 21 1 32 4 13 11 17 8 23 1-19-4-35-9-52"/><path fill="#E9EAD5" d="M277 256c-32-3 8 11 16 10 0-5-7-5-9-11-4-1-5-1-6 0"/><path fill="#F3F2C5" d="M450 133c8 9 0 9 4 13 5 8 8 7 13 10 1-10-6-21-16-21"/><path fill="#74665C" d="M288 290c-12 5-13 14-3 12 10-7 15 7 22 0-9-5-15-6-21-10"/><path fill="#C7D1BC" d="M410 304c-3 9-6 16-3 27 3-3 7-2 7-6-1-9 4-16-4-20"/><path fill="#74655C" d="M316 302c1 15 17 8 11 18 11 5 15 10 21 6-7-7-20-12-29-21"/><path fill="#654C3A" d="M400 446c-2 2-7 0-5 9 4 4 9 8 8 14-3 2-7 0-4-2-7 2 7 5-3 6 5 1 8 4 6 8 4 1 6 0 8-1-1-4-7-3-9-5 10-6-7-18 6-24-2-1-3-3-5-5"/><path fill="#C8B492" d="M416 125c6 5 8 15 14 19 8 0 6 1 15 3-8-9-17-15-26-22"/><path fill="#A59785" d="M418 355c-4 4-9 8-14 12 0 5 1 7 2 8 6-1 14-10 14-17"/><path fill="#81705C" d="M238 179c12 20 21 37 43 51-18-4-24-23-36-31 5 0-10-10-6-16"/><path fill="#E2E2CF" d="M394 336c-3 1-5 1-7 2-1 5-1 10 2 14 9-2 11-12 7-17"/><path fill="#F2F2DA" d="M377 182c-6 4-9 6-14 10 3 2 6 3 8 4 10-8 21-13 7-14"/><path fill="#FBFCEA" d="M430 176c-33 1-2 9 9 11-2-5-4-8-7-10l-1-1h-1"/><path fill="#5D4D40" d="M439 273c3 4 5 13 7 14-3 2-2 6-3 12 2 5 7 5 8 9 2-5 0-8 1-12 2-2 3 0 4 0-15-29-1-2-16-20"/><path fill="#584B42" d="M414 327c4 5 6 14 8 20l1 3-1 1 1-1 2-2c1 0 4 0 4 3-3 6-7 8-5 14 3 0 5-10 7-11 3-1 5-10 5-17 1-1-2-4-2-2-4 5-6 9-9 13-4-9-7-17-9-19"/><path fill="#9A6B45" d="M337 469c9 3 14 13 22 15 0-3 0-7 1-9-7-6-13-7-20-6"/><path fill="#4C413A" d="M444 294c3 28-13 9-8 26-5 12 6-14 7-9 2 3 1 5 2 7-2 5-5 9-3 13 1-2 1-8 2-11 2 0 6-4 9 2 4-1 0-5 3-5-3-5 0-6-9-4 1-4 4-3 5-4-1-1-10-6-8-10"/><path fill="#726356" d="M337 363c1 2 3 4 3 6-5 7-8 7-13 10 3 1 2-3 9-1-2 10 8 11 5 16 1-8 3-17 4-27-3 1-6 2-7-3"/><path fill="#BCAC93" d="M415 243c-4 1-6 4-10 5 3 8 7 13 9 18 2-8 2-15 1-22"/><path fill="#D2BE9B" d="M395 182c-7 5-15 13-17 21 0-6 13-8 17-8 3-4 3-9 1-11"/><path fill="#7D6D5F" d="M308 282c-9 10-2 23 4 13 0-2-2-4-2-6l1-1h1c2 1 0 2 1 4 2-2 10-2 13-5-7-4-8 1-14-3l-1-1 2 1-1 2-1 2h-2c-3-1 0-3-3-4"/><path fill="#392F2D" d="M343 388c2 9-4 12-4 22 9-4 17-2 11-12 13-4 13-4 3 1-5-2-9-6-10-9"/><path fill="#F5F7DF" d="M411 160c-8 1 9 8 10 14 3-1 7 0 8-2-1-2-4-6-7-8-4-1-7-2-9-4"/><path fill="#8E7F6D" d="M192 227c-17 0 12 13 15 9-1-4-4-7-6-9-4 0-6-1-7 0"/><path fill="#936744" d="M319 471c1 1 4 4 2 7-21 4-2 17 2 1 8-1 9 8 16 9-3-7-14-13-18-15"/><path fill="#594F49" d="M375 309c10 3 5 16 3 17-5 1-8 7-10 11-10 4-15-3-22-3 6 4 15 7 23 5 1-4 10-2 12-13-3-5 7-17-4-16"/><path fill="#8A7F78" d="m391 381-6 3c-3 4-5 7-6 10 6-2 24-5 12-11"/><path fill="#907F6A" d="M353 314c0 8 1 11-2 15 5 5 10 0 14 0-3-6-8-10-12-12"/><path fill="#7D7065" d="M459 217c-9 7 16 7 22 13 0-5-9-8-10-11-2 2-5-2-8-1"/><path fill="#96846D" d="M415 237c-3 1-7 3-11 8 5-2 8-4 11-5 2 9 2 15 4 21 2-4 4-9 6-14-12-8 4-6-11-8"/><path fill="#575959" d="M372 363c-4 1-8 3-12 4 0 4 1 5 2 7 5 2 7-1 10-2 0-3 1-6 0-8"/><path fill="#57514F" d="M197 421c10 3 20 7 27 15 10 0 3-11 11-6-14-3-9 0-36-11"/><path fill="#77685D" d="M316 295c2 5 7 10 11 13 5 0 3-1 7-5-4-3-11-6-17-7"/><path fill="#E8E3C9" d="M446 165c1 6 2 10 4 15 5 7 1-3 7-4 2 3 5 4 5 5-3-4-6-13-15-15"/><path fill="#CCBB9F" d="M370 226c-2 3-5 7-7 10-1 6 1 9 3 12 0-7 10-14 6-22"/><path fill="#5C6162" d="M165 133c3 3 5 9 7 12 8 2 14 4 20 6-8-6-16-11-24-17"/><path fill="#795E4A" d="M407 470c-3 0-5 5-6 3-5-3-6 0-10 1 0 4 0 5 1 7 1-4 3-9 6-10 14 2 11 13 15 10 3-2 2-3 0-4 14-5 2-4-5-8"/><path fill="#645D5C" d="M164 458c-5 3-8 6-14 9 37 7 15-6 12-7"/><path fill="#483F40" d="M365 388c-1 6-7 11-12 12 2 0-3 4 1 5 10-6 31-6 8-15"/><path fill="#877766" d="M210 209c-1 5 3 10 5 15 4 6 7 4 9 4-3-6-7-12-11-18"/><path fill="#80917F" d="M385 319c-1 5 0 9 1 14 5-2 10-2 11-7-4-3-8-3-10-6"/><path fill="#796A5D" d="M430 283c-2 11 1 19 0 30 2-7 6-13 8-19-3-4-9 0-8-9"/><path fill="#6E6360" d="M405 403c3-1 1 7 2 9-3 8-6 5-9 6-2-6 2-8 4-13"/><path fill="#E8EAD5" d="M406 294c-3 1-5 3-7 5 1 6 2 9 4 13 3-5 6-11 3-17"/><path fill="#7A6C60" d="M98 107c3 4 9 11 14 16 0-1 4-3 5-2-2-8-12-9-17-13"/><path fill="#78695D" d="M305 310c9 0 9 12 18 16-7-1-15-6-19-13"/><path fill="#4D413D" d="M412 385c-12 6-29 10-38 15 8-3 14-1 25-5 5-2 11-7 12-10"/><path fill="#453939" d="M335 349c-6 9-9 5-14 10 1 2 1 4 2 6 6-2 7-1 8-10 1 10 2 6 8 5 3-8-6 3-4-9"/><path fill="#E6E7D2" d="M371 306c2 7 0 15 1 21 4-3 7-6 8-9-3-4-5-7-8-9"/><path fill="#45403E" d="M254 320c0 5 1 7-3 11 5 1 15 0 17-2-2-3-8-4-12-10"/><path fill="#180A05" d="M487 196c-1 5-4 9-3 15 3 4 0-5 4-6 1 6-1 6 2 9 2 0 3 2 5 2-2-7-5-13-7-20"/><path fill="#5A5B5A" d="M333 327c-7 3-5 4-2 10 5 0 8-3 11-5-2-2-5-3-7-5"/><path fill="#BCAC93" d="M447 210c-19 14 3 7 14 5-22-3 11-2-14-4"/><path fill="#AFBBA5" d="M403 313c4 0 2 6 0 6-4-5-5-4-8-3 1 4 5 6 5 1-1 7 1 12 3 16 6-2-1-17 3-19"/><path fill="#55514E" d="M441 312c1 4-5 6-5 9-1 8 1 12 4 17-2-8 3-15 3-23"/><path fill="#62534A" d="M356 370c-4-1-6 8-10 2 6 6-5 3 0 10 4 1 6-1 10 0-4-6 0-8 2-11"/><path fill="#796B5D" d="M395 354c-13 4-2 4 4 14 7-2 3-8 10-7-2-2-1-4-2-5-4 2-6 3-9 5-2-2-3-3-4-5"/><path fill="#92816E" d="M472 212c1 8-39 6-1 5 4 4 8 8 13 11-3-5-1-13-11-13v-1l-1-1"/><path fill="#684E3E" d="M418 468c-6 7 7 4 14 11 1-4 2-5 3-6-5-1-11-6-16-5"/><path fill="#7E6E5F" d="M381 331c-2 5-9 12-3 19 5-2 2-17 9-15-2 1-4-1-3-3"/><path fill="#987E5E" d="M356 245c-2 3-2 8-5 11 2 1 6-1 9 2 8 7-7 10 2 13 2-5 2-10 3-14-5-1-11-6-8-11"/><path fill="#8C807C" d="M437 471c-1 1-3 5-1 7 6 0 11 3 15 4-3-5-8-10-13-11"/><path fill="#8B7965" d="M298 263c1 3 2 6 4 8-20-4-14 2 13 4-7-6-10-9-17-10"/><path fill="#A4855E" d="M389 176c-7 3-11 5 1 8 2-2 7-6 10-7-5-1-9-3-10 1"/><path fill="#4B4344" d="M291 358c-2 5-8 7-11 12 5 3-1 8 0 12 4-12 9-8 10-23"/><path fill="#DBD3B7" d="M435 176c1 4 6 7 6 11 3 2 6 3 10 2-5-5-8-10-15-12"/><path fill="#4F4A4A" d="M296 441c-5 12 0 7 1 19 3-2 4-5 5-8-2-4-4-6-7-9"/><path fill="#7C6C5E" d="M292 390c0 4-5 13-3 15 8-1 10-4 12-9-4 0-6 3-9 1 1-2-2-5 0-6"/><path fill="#867767" d="M428 253c-3 7 1 15 3 22 6-8-1-14-3-21"/><path fill="#F8F7E5" d="M448 190c-1 16 10-5 25 8-1-2-1-7-6-5-5-1-10-2-14-2"/><path fill="#362C2A" d="M419 367c-15 9 1 16-14 22 8-2 10-12 15-14 4-2-2-2 0-6"/><path fill="#F8F7E5" d="M469 187c8 5 12 14 8 19 5-5 3-10 6-14-3-2-7-3-11-5"/><path fill="#DFBC86" d="M343 464c-5 5 9 0 18 11-4-11-9-9-14-12"/><path fill="#6A6460" d="M117 144c3 8-7 7-8 2-4 1 6 5-3 7 4 1 6 2 10 4-2-10 8-7 4-11"/><path fill="#786A5E" d="M218 232c-1 4 2 12 7 15-3-5 3-14-5-15"/><path fill="#2E2019" d="M487 222c5 11 14 22 15 34 1-3 2-6 1-10-5-9-9-15-15-22"/><path fill="#6F6461" d="M405 403c-4 5-7 8-8 13 5 4 11-3 8-11"/><path fill="#817160" d="M301 330c-2 1-3 3-4 5-4 6 5 2-1 8 6 3 8-8 7-13"/><path fill="#463E3A" d="M434 313c-8 1-3 13-3 23 0-1-11 10-10 0 2 4 2 7 3 10 4-4 4-8 6-9l1 1-1-3c2-4 3-14 3-21"/><path fill="#E3DBC0" d="M455 177c2 1-3 5-1 6 6 4 10 5 15 6v3-3c-10-6-6-9-12-12"/><path fill="#DFDABE" d="M431 190c-11 13 7 6 10 4-3-3-6-1-8-4"/><path fill="#382E2C" d="M310 346c-5 2-9 5-7 10 6-2 10-4 7-10"/><path fill="#53595C" d="M186 250c-11 4 10 8 10 3-4-1-6-3-8-4"/><path fill="#D3A566" d="M518 190c-1 4-2 9-3 13 3 2 5 2 7 3-1-5-2-10-4-15"/><path fill="#634D3B" d="M485 232c2 10 12 13 15 23-1-10-8-16-14-23"/><path fill="#BFAF92" d="M437 204c-5 1-10 0-14 2-9 3 31 2 17-2"/><path fill="#322825" d="M292 352c-2 16-5 14 2 27 5-21 0-10-3-24"/><path fill="#887C75" d="M445 464c-4 9 8 7 11 10-2-4-5-7-8-9"/><path fill="#AB9377" d="M364 260c1 4 1 6-2 8 8 2 16-11 3-5"/><path fill="#725844" d="M429 457c6 2-3 5 10 9 3-1 2-4 5-4-4 2-7-3-10-4"/><path fill="#E3B984" d="M317 472c-4 2-7 3-4 8 5 0 9-4 5-9"/><path fill="#E3E0C9" d="M404 227c-2 3-2 6-3 9 5-1 17-11 5-8"/><path fill="#DDD1B1" d="M397 182c2 3 3 11-1 14 1-1 2-2 5-1 1-4 2-12-2-13"/><path fill="#F4F5E5" d="M234 159c1 4 2 9 6 11 2-3 3-4 4-5-4-3-6-3-8-5"/><path fill="#5B4E45" d="M367 346c-2 8-6 1-3 10 3-1 7-8 10-4l-1 2-2 2 3-1 1-3c-5 1-2-6-5-6"/><path fill="#655D5A" d="M110 432c3 4 5 14 9 16 0-7 6-2-4-9 3-3 4 0 6 0-4-2-7-4-10-6"/><path fill="#62564F" d="M195 296c9 3-10 6-13 8 3-4 8-5 11-7"/><path fill="#47433E" d="M389 295c-6 6-10 6-12 1 1 6 5 5 7 7 5-3 6-2 6-7"/><path fill="#E5E4D2" d="M313 441c-5 3-1 5-1 8 3 0 4-1 7 0-2-3-3-4-4-5"/><path fill="#B5ABA3" d="M342 486c0 6 8 4 12 5-3-4-6-5-9-6"/><path fill="#AA9577" d="M408 203c-5 3-11 4-14 4 3 6 6-1 12 2 0-2 7-8 3-5"/><path fill="#CAD1BE" d="M396 304c-1 4-11 1-6 8 6 0 6-2 5-7"/><path fill="#BF8E59" d="M318 449c0 6-4 4-2 10 3-6 14-5 3-9"/><path fill="#F4F6E1" d="M459 195c3 9 11 6 13 6-4-3-8-4-11-6"/><path fill="#595658" d="M366 340c-2 2-6 0-8 1 2 3 2 5 4 5 3-2 4-4 5-6"/><path fill="#75665A" d="M370 355c-4 1-8 3-7 8-1-3 9 0 7-7"/><path fill="#745D4A" d="M504 249c1 5 1 9-2 13 7-6 16-11 3-10"/><path fill="#F6F7E5" d="M430 190c-5 3-11 4-14 10 5-2 11-1 11-9"/></svg>