<svg xmlns="http://www.w3.org/2000/svg" width="600" height="600"><path fill="#725A42" d="M205 106c7-3 14 2 18 7 16-6 33-6 50-5 19 3 33 9 49 15 5-1 8-2 13-1 10 19 12 44 19 65 13-8 25-15 37-19-11 8-24 14-36 22 21-3 41-7 61-12-16 7-35 11-54 16 16-1 35-1 51 4-19-1-38-3-55 0 16 1 31 4 45 10-12-1-27-7-42-6 3 12 19 12 27 20-8 0-21-12-30-9 14 15-6 13 15 25 35-21 56-51 94-71 10-2 16 9 20 15 5 7 8 18 3 24-38 21-72 28-104 54 5 12 13 21 14 32-2 8-1 15-4 19-3 8-7 13-12 16 9 17 22 30 33 43 1 32-1-1 5 22 1 17 0 31-5 43-6 4-18 14-30 20 9 1 22 11 28 11 5 4 8 6 7 11-3 4-6-2-6 5-3-5-9-7-14-7 0 3 0 7-1 10-10-10-13-7-23-11 0 5 4 9-1 13-11-10-24-10-34-18-25 6-49 9-75 9 5-1 7 5 5 10-7-3-13-2-17-5-2 3 0 8-4 8-5-4-10-3-15-5 1 13-19-7-18 6-20-14-44-15-63-26-14-9-24-22-32-33-9-16-13-46-15-32-10-28 4-95 2-121 1-14 5-26 11-36 17-21 35-46 55-78-2 2-5 0-6-3 10-4 14-13 20-19 0-7-3-14-1-21 2-8 8-13 14-16"/><path fill="#855A38" d="M214 111c2 0 5 10 6 16-2 8-8 9-12 10-9-2-9-10-8-15-3 3-3 8-2 12 4 5 8 4 10 7-6 5-11 9-14 16-7 8 0 4 3 4-21 20-20 40-41 58-9 13-19 22-28 35-5 6-6 12-7 19 3-2 6-1 6-5 6 6 0 19 9 19 12 14 31 3 43 16 1-3 1-5-1-7 4 0 7 1 9 2-2-3 4-8-1-14 6 2 10 1 9 11 18 7 19-1 35 5-4-5-7-10-10-12 4-1 11 8 16 2 0-4-5-5-7-8-10-8-22-6-32-12-5-5-9-8-11-12 11-12 27-24 35-24-11-5 3 3-13 2-8 2-11-5-17-6-10 11-15 14-24 26 4-15 13-19 13-28 4-10-6-1-10-12 16-13 20-6 23-17-4 1-12 5-16 6 6-14 21-25 26-28-5-1-17 8-18 3 21-9 4-4 42-20 4 6 10 11 10 16 0 3-2 4-2 5-3 0-8 0-10-2-1 4 5 5 8 3-1 4-4 4-8 5 2 2 3 1 7 0-3 3-4 4-6 5 16-1 16 5 40 1-14-3 0-5-21-10 1-9-2-8-6-19 0 2 0 4-1 6-7-5-13-7-19-9 1-8 2-15 8-18 7-4 12-7 18-7 11 0 17 1 22 8 4 5 6 8 6 12-4 11-13 27-18 27 7 3 11 3 14 5 14-11 20-5 26-16-5-2-11-6-17-10-6-6-6-12-9-16-2-4-3-6-5-7-6-4-12-1-17-3-8 0-13 2-19 5l-1 1-2-1 1-1v-3c16-11 32-13 48-18 16 6 25 2 39 8 7 1 11 5 15 10-13-15-32-17-49-26 1 1 4 3 7 5-13-4-22 1-38-1-8 4-16 6-20 8-6-8-12-6-12-12"/><path fill="#E5D29C" d="M209 242c-4 3-24 31 4 7-4 7-11 9-14 16 9 6 20 6 30 10 9 7 16 16 19 24 0 5 1 8-1 10-4 2-3-2-6-2 0 22 1 15 7 18 19-11 50-27 57-45-1 3-5 3-3-2 2-4 4-5 6-7-2 1-5 5-8 3 1-5 2-8 4-10-5 9-15-2-21-1-3 0 1 6-3 8-6-15-24-14-34-24-13 2-18-5-33-6"/><path fill="#493327" d="M126 375c1 11 2 23 6 33 15 12 28 25 43 39 11 9 17-6 28 3 0-6-9-8-6-13 8-1 14 2 17-4 6-2 6-9 6-14 11 16 14 22 29 30 6 4 17 6 25 7 11-3 17 3 22-6-18-18-44-28-51-42-2 0 1-1 0 2-4-2-2 1-5 3 0 0-13-6-14-12 2 5 3 12 10 14 7 7 0-4 6-3 3 5 7 2 8 8-16 5-31-15-46-17 2 6 3 15 1 23-11-15-14 0-26-11 2 3 2 6 0 9-14-13-6 9-18 0-20-5-17-29-31-34-3-5-4-9-4-13"/><path fill="#D3BC87" d="M326 334c10 6 12 14 14 24-11 6-10 15-21 22 0-5 2-15 6-21l2 3v2l1-1-1-3c-7-2-7-10-9-16 3 18-11 7-4 28-8-4-6 14-10 16-5-2-5-5-7-8-1 5 0 12 1 16-7 2-16 0-21 4-3-9 1-16 0-17 6-8 8 7 13-6 1-8-3-13-5-19-3 6-6 9-6 14-4-1-3-4-5-6-1 8-4 15-5 22-6-6-12-8-20-8-1-1-9 9-28 5 4 5 8 16 16 22 0-11-1-11 0-18 11 13 11 19 26 31-1-2-2-3-3-4 5-2 6-1 7-7 11 13 19-10 27 7 5-10 2-19 4-26 3-6 4 5 8 4 1-5 2-10 1-14 6 5 9 11 11 17 3-7 8-3 10-1 3-7 2-13 3-18 5 3 4 8 8 9 4 0 1-6 3-7 8 3 6 9 8 13 4-2 1-10 5-13 5 3 7 8 9 14 6-12-1-21 0-25 15 21 12-1 2-10-4-3-7-1-8 1-10-5-21-17-29-24"/><path fill="#BA9B6B" d="M332 378c-1 5 0 11-2 16-5 2-8-3-9 4-6-6-8-12-12-17 0 3-1 8 1 11-6 6-10-4-11-4-1 10 0 19-3 25-10-13-18 10-26-5-2 11-13 2-7 12 6-7 6 10 17 13 5 0 3-3 4-5 3 5 6 9 11 13 1-3 3-6 2-11 5 6 3 12 2 17 8-15 15-12 14-21 4 5 4 12 5 19 10-14 11-28 12-45 2 12 3 26 4 38 5-7 10-14 10-23 3 3 4 6 3 11 5-5 5-12 7-17 3 2 5 5 5 8 5-13 1-29-3-38-4 7-1 14-5 17-4-6-2-13-8-15-1 3 1 7-2 8-6-2-6-5-7-9"/><path fill="#C98046" d="M277 120c-30 5-78 26-9 14 5 8 3 19 9 25 6 5 11 8 16 11 9-4 25-8 31 0 5-7 5-17 12-22-6-8-12-18-22-21-15-5-23-2-37-6"/><path fill="#2E221E" d="M419 397c0 9-5 18-9 26-9 2-3-5-5-7-2 6-10 10-9 11-6 3-4-2-7-2-5 10-12 6-15 12-7-1-3-6-5-8-6 7-9 12-14 15-5 4-4-2-4-3-6 4-10 7-14 9-2-11 15-8 6-20-6 13-15 15-10 23-6 1-9 1-10 1 3-11 10-13 7-22-2 8-7 15-13 22-4-4 0-11-4-15-6 10-16 13-22 17-14 3-32-1-42-5-6-3-13-13-17-11 0 0 1 1 0 4 8 0 16 11 27 11-2 2-4 6-6 5 6 5 16 12 26 10 2 5-6 4-10 4 26 3 40-1 63-3 13-3 21-12 28-15 6-10-8 2-12-2 2-6 10-7 13-15 8 0 7 11 19 9 6-1 11-4 16-7 11-6 14-20 21-24 0-4 3-11 1-19"/><path fill="#7F5B43" d="M176 356c-1 2-2 3-4 2-5 8 7-1 8 15-4-10-9 1-12-11-6 6-13 18-17 18-1 17 0 5 2 16-16-26-9-3 0 7 3 7 18 5 22 16 5 1 0-2 2-7 6 5 8 3 13 4-3-1-1-5 1-5 4 2 6 5 7 8 8-6 3-17-1-24 11 9 16 2 29 13-2-6-5-12-6-19 0 2-6 2-4 6-14-10-18-23-24-36-7-2-8-1-14-2"/><path fill="#20140F" d="M115 299c0 21-1 154 1 44 4 20 9 6 13 16 5-7 15-13 23-16 16 1 29 5 41 12 1-12-2-22-6-25 12-4 20-3 31-4-2-4-58 6-65-3-9-6-13 0-33-17 0 3 4 3 2 6-4-3-6-7-7-11"/><path fill="#E2CD97" d="M320 331c-26 16-53 31-77 52 5 0 4-4 11-3 8-1 9 6 13 7 3-7 5-13 6-20 4-2 3 3 4 5 2-5 4-10 5-15 6 6 10 12 8 20-3 12-8 2-10 3-1 4-5 11-3 18 5-3 12-2 16-1 6 1 2-8 3-18 4 1 4 5 6 8 4-2 4-19 9-16-5-20 9-11 5-26 7 1 3 12 11 14-2 4-14 22-9 18 12-4 11-16 21-17-2-14-5-21-18-30"/><path fill="#694A34" d="M149 347c-13 4-29 24-19 42 15 6 11 29 30 33 11 10 6-12 19 4 2-5-1-9-2-11 14 10 18-5 25 12 4-10 2-19 0-25 18 3 33 23 47 17-15-1-26-17-49-21 2 4 7 15 0 20-4 0-4-4-7-5-5-1-2 5-7 3-3 2-4-1-7-1-1 1 0 7-3 4-3-1-3-5-5-5 2-3 2-1 5-1-2-3-8-3-6 0-7-3-15-5-18-9-11-11-8-19-10-27 4-2 2 3 4 4 0-4 1-9 2-13 4 2 4 7 6 9 10-12 14-15 17-17 9-6 13-2 20-3-12-6-25-13-41-11"/><path fill="#20140F" d="M224 423c0 7 1 14 4 19-9 8-15-3-23-3 4 5 0 6 2 12-7 0-17-5-16 2-10-5-21 0-33-8-8-2-2 3-1 6-27-27-17-8 3 11 15 14 22 4 37 14 6-8 20-14 29-18 2 3 20 4 27 7 5 0 8 8 13 10v1l1-2 2 3 1-1c8 0 16 1 24 1-8-1-16 0-23 0-3-6 7-2 9-5-11 1-21-6-28-11 2-1 3-3 7-4-9 1-17-12-23-9-6-8-6-16-11-23"/><path fill="#2F241F" d="M118 348c-4 24-1 49 1 61 0 9 2 14 4 19l2 2-1-2c-3-3-3-6 0-7 16 9 15 28 15 22 1 7-2 4-5 1 9 10 19 19 24 20 1-3 2 0 4 1 15 11 30 9 49 23-9-7-8-5-11-11-2-5 1-6 3-7-3 1-7 3-6 7-15-10-20 0-33-12-11-9-22-18-26-30 5 5 10 12 16 16 1-3-3-5-1-8 12 8 24 4 31 9 8 3 4-5 11-3 4 0 6 3 9 3 0-7 5-9 0-14 8 2 12 5 17 7 0-3 4 0 4-2-12-37 17 6-1-20-2-1-5 16-14 13-2 3-3 1-4 1-4-1-6-3-8 0-4 6 7 6 7 11-5 2-7 1-8 0-6 1-9-1-10 4-27-13-34-30-57-42-3-13-5-27-4-40 0-11 2-3 5-12-2 9-4-10-9 1 1-5-3-3-3-9"/><path fill="#805840" d="M328 247c-14 5 7 6 8 14-3 4-11-6-19-1 6 4 12 10 18 14-3 3-9-1-14 0-2 3 1 2 1 5 26 5 37 19 55 23 5-3 8 6 10 0 4-6 2-14-2-20-1 1 0 5-3 5-13-13-26-22-38-34-6-2-10-5-15-5"/><path fill="#7A5F44" d="M266 198c-3 10-34 39-21 48 2-4-2-9 4-12 23 3 30-4 53-1 7-5 14-12 19-9 6-1 13 7 17 9 6-3 11-1 15-3-3-5-6-17-13-22-3 7-12 9-7 12-4-3-8-1-10-2-1 1 2 2-1 3-9 0-12 7-18 9-11-5-21-13-32-18-6-9 1-12-7-15"/><path fill="#483327" d="M418 392c0 7-2 13-7 18-2-4 1-15-9-16-11 4-18 14-21 25-2-15-15-1-14-13-2 6-4 12-7 17-4 4-5 0-4-3-2 15-17 22-22 28-6 3-3-4-4-6-1 4-6 6-7 9 4 0 7 2 9 0 8-3 13-6 16-11 5 0 2 7 4 5 7-5 11-10 15-16 6 1 1 6 5 8 4-8 12-3 15-12 6-2 3 4 8 2 2-2 6-6 7-12 8 1 0 9 6 8 6-10 11-18 9-30"/><path fill="#634A38" d="M321 222c1 5-2 2-4 2-4 3-6 5-7 7 1-2 3-4 5-5-1 3 10 4 13 8-6 7-16 11-21 9-8 0-17 3-26 1 0 0-13-6-19-6 3-4 8-2 12-3-8 1-19-1-27 1 2 6 0 12 6 12 10 7 20 7 30 10 11 0 20 4 28-2 3-5-3 4-3-2 6-7 12-8 17-10 11-3 16 6 23 6 2-10 10-7-7-16 4-2 6-2 8-2h-7c-2 5-2 1-3 3-8-7-10-9-14-11h-1l-1 1"/><path fill="#4D3C30" d="M330 301c-18 13-38 22-20 29-5-2 1-2-1-4 5-3 7-1 14 0 19 27 33 17 46 31-8-10 7-12-2-22-7-6-14-2-17-9-8-8-14-15-19-22"/><path fill="#312118" d="M126 281c-13-5 0 24-4 26 4 5 12 8 18 13l3 1-9-5c35 6 48 10 89 7-9-2-19-1-29-2 3-11 9 2 2-11 7 1 11 0 13 6-8-14-14-8-26-17 3 2 8 5 8 12-3-3-5-4-6-8-3 7-9-3 1 7-14-2-20-3-30 1-10-5-13-15-20-10-7-8-7-14-10-19"/><path fill="#CFB57F" d="M200 182c-2 3-4 4-6 7-2 2-5 3-5 5 3 0 7 0 11 1-7 14-30 26 0 15 0 6-11 6-7 12 41-3-11 15 43 3 0 1 3 0 7 1 3-12 16-20 20-24-16-9-6 4-16 2 0-7-8 2-10-3 0 4 6 0 7 3-1 4-4 7-7 8 4-10-7 5-10-5-13 7-21-3-34 0 1-3 5-6 6-9-1-4-7-3-6-8 2-3 4-5 6-6"/><path fill="#503F31" d="M277 337c-13 14-60 35-61 35 5 9 13 7 20 12 12-12 69-43 42-45"/><path fill="#4E3B30" d="M228 325c-12 5-26 2-38 4 5 25 5 6 11 30 3-4 9-4 11-5v3l2-1c0 5 1-2 5-2-8 10 3 6-8 14 5-8 14-5 12-3 0-6-3-6-4-8-3-3-4 2-6 0 4-3-2-7 0-8 7-9 17-9 23-16 1-4-6-6-8-6"/><path fill="#E9D49C" d="M210 180c-7 0-10 6-16 8-1 8 6 3 7 7-18 14 18 13 22 12 3 11 20-7 12 6 14-11 11-8 21-12-11 6-19-2-37 4 4-5 10-5 16-7-9 5-15-8-20-8 0-3 4-2 6-5-2-4-5-6-10-5"/><path fill="#724A28" d="M247 137c-12 1-28 6-26 22 4 3 9 4 12 9-1-2-2-3-3-4 8-4 10-13 18-14 7-2 12 1 14 5 3 6 3 10 4 16 0-5 1-10 4-12-9 2 0-23-10-19-6-3-9-3-11-2"/><path fill="#664933" d="M380 380c-1 2 0 6 0 9-10-12-10 12-12 19 2 7 3 1 7 1 2 4 2 6 3 9 5-9 10-18 20-24 5-3 7 0 11 2 3 6 1 10 0 13 6-4 8-10 8-17-3-2-1 3-5 2-6-2-7-5-10-8-6 4-7 9-9 10-8-6-7-12-12-15"/><path fill="#241611" d="M309 279c2 0 3 1 5 2-16 13-11 12 1 1 7 4 10 11 14 14-1-3-6-6-5-11 8 8 18 11 22 17-5 0-10-2-13-7h-1l1 1 2 2-2 1c-2 2-9 0-12 7 3-6 13-5 12-6 7 13 29 19 30 29 17 2 3-8 18-7-26-3-24-32-51-32-2-3-2-5-4-5-6-2-11-2-15-6"/><path fill="#7A5439" d="M396 359c-6 2-5 9-12 11-1 6-1 16 4 18 1 3 2 6 5 7 4-3 3-9 9-9 4 3 7 7 11 7 1-7-11-25-15-33"/><path fill="#644439" d="M225 462c-7 1-40 14-12 21 9-4-6-3-2-8 6 1 8 3 9 5 3-3 6-3 7-4 1-2-12-8-7-10 7 3 10 7 12 10 7 4 8-2 14 0-3-4-8-7-15-10 13-2 18 14 30 7-6-6-23-11-33-11"/><path fill="#1E160F" d="M301 173c-15 6 0 21 8 23 11 2 18-4 21-11 1-5-1-9-5-10 0 2 5 3 3 5-12-2-23 2-28-6"/><path fill="#B9946F" d="M427 209c-31 22-54 30-74 48 19-8 36-18 61-30-4-4-13 6-19 7 10-9 20-13 30-17 5-3 0-5 0-6"/><path fill="#201614" d="M419 411c-6 11-12 21-21 30-7 4-12 7-16 10-15 0-14-10-20-10-4 8-11 6-12 13 1 5 10-9 11 1-8 5-9 6-21 15 3-4 8 4 7-1 7 0 3 6 6 4-3-2 2-4 3-6 7-4 8-7 16-9-9 1-16 6-22 11-7-3 1-5 2-6 20-11 40-14 54-22l2 2h-4c12-14 11-13 16-30"/><path fill="#5A4735" d="M301 323h-3c-7 6-15 12-23 17 6 5 12-8 14 1-7 13-19 17-27 25 35-28 86-47 32-40"/><path fill="#090606" d="M249 153c-6 2-7 8-6 14 2 6 9 9 13 6 7-2 5-9 6-13-3-7-7-8-12-7"/><path fill="#5A4D45" d="M326 298c-9 6-19 13-29 18-3-6 9-10 13-13-16 6-28 17-43 29-1 6 11-6 7 5 18-13 36-25 51-37"/><path fill="#AF7444" d="M218 163c-32 18-8 9 18 18 0-1-1-2 0-3 0-6-6-11-9-13-4 0-6 0-9-1"/><path fill="#99BACC" d="M155 215c-6 2-11 5-15 10 0 9-17 15-18 29-8 16-8 29-4 44 0-10-2-22 1-31 6-21 33-39 35-51"/><path fill="#1D100B" d="M344 234c3 4 9 5 14 7-8 0 0 9-7 11-27-10-13-5 0 4 12 18 37 16 41 20-8-8-2-8-12-14 3-2 7-6 12-8-5 1-8 5-12 7-6 2-8 5-11 7-8-3-13-5-17-11l-1-1v-1l2-1 15-12c-4 5-10-4-12-7-3 0-5-2-10-1"/><path fill="#513D30" d="M315 229c-4 4-9 11-15 11-15 2-25-3-38-4 15 2 15 10 29 8 5 1 48-1 26-16"/><path fill="#4D3424" d="M118 278c10-2 15 27 31 25 13 9 23 2 35 8-5-12-10-4-17-11-9-2-22-1-30-3-8-6-9-13-11-20-1 3-5 5-5 0"/><path fill="#1E1411" d="M394 311c1 8-21 17-14 16-7 2-11 7-14 3 4 4 4 10 8 14-5-1 14 24 6 34-2-11 6-17 8-20-4-10-12-18-11-28l1-1 2-2c2 1 2 6 5 7-1-2-3-4-4-6 6-5 11-10 13-15"/><path fill="#D4BC86" d="M274 194c1 0-9 12 17 13 4 1 11 0 12-8-10-1-22-5-30-5"/><path fill="#4B3224" d="M472 202c-9 2-9 7-14 7-2-2-1-3 0-4-40 29 7 0-21 22 14-11 55-20 38-25"/><path fill="#BF9164" d="M466 185c-13 9-33 18-35 18-1 5 1 6 3 8 17-3-14 0 20-13 1-1 4-2 6-3-5 5-10 8-14 12 10-2 15-10 23-14-1-1-2-4-4-6"/><path fill="#322219" d="M312 284c-11 13-14 3-10 16 3-3 8 1 11-3 3 3 3 4 2 6 5-1 7-6 11-8-4-3-4-9-10-10l-2-1h-1v2"/><path fill="#463930" d="M434 225c-9 5-8 1-15 9 1-6-3-1-9 1 3-4 13-10 4-5-17 9-29 23-46 33 37-17 44-26 67-38"/><path fill="#6B4A33" d="M188 283c2 17-2 8 6 17 3 1 10 4 15 8 0-3-3-6-2-9 6 3 3 4 4 6 2 2 1 3 2 5-4 1-6 0-8-1 7 5 12 8 18 8-3-4-10-6-11-10 5 0 9 1 14 3l2 1 1-2c2-2 0-3-2-5 2 1 2 5 1 6-6-2-9-3-13-4 1-5 0-6 6-8-8-3-5 4-12 0-5-2-7 0-11-2-5-7-4-11-9-9"/><path fill="#A2BFCF" d="M196 144c-6 6-11 13-17 18 3 2 4-5 7-3-9 15-18 26-26 38 17-15 28-36 39-54"/><path fill="#E5D29D" d="M292 181c-7 2-13 6-18 8 13 6 43 15 15-7"/><path fill="#AB7F54" d="M297 301c0 13-30 19-30 25-34 15-7 4-44 20 4-1 9 2 7 4 25-8 43-31 69-44-3-1 0-3-3-4"/><path fill="#7F6348" d="M326 192c-2 3-4 6-7 7-6 1-10 1-12-2-3 5-4 10-10 12-8 2-12-1-15-1 3 2 9 4 13 3l3-1h3c2-5 8-6 10-9 0 3 6 6 7 9 11 3 19 1 7-3 1-6-3-9-1-13"/><path fill="#5F433A" d="M372 461c-17 0 15 13 20 9-2-4-8-4-10-8 9 2 18 6 25 4-4-3-9-5-14-6-4 0-6 1-9 0-4 0-7 1-9-1"/><path fill="#84603F" d="M306 301c-20 11-45 35-69 48-5 1-9 6-15 4 5 1 13 3 17-2 35-17 40-37 71-49"/><path fill="#B98E63" d="M298 296c-16 13-34 24-52 34 18-11 36-10 50-26-3 0 0-4 1-5"/><path fill="#777977" d="M187 168c-26 26-12 27-33 46 7 0-6 6-1 8-11 10-20 22-27 32l-1 3-1 2c-7 8-5 19-5 30 0-12 0-21 4-31 11-13 20-25 31-34-6-6 5-5 6-10 7-16 21-28 25-43"/><path fill="#25140E" d="M228 294c7 4 11 11 10 19-2-3-5-4-5-7 0 2 1 3 2 4-4 6-8 6-11 4 5 2 4 6-1 6-10 2-16-10-24-8-4-1 0 3 3 3-5 4-7-3-9 4 19 2 34 5 44 3-2 0-4-2-6-4 2-3 2-7 6-5v1l1 1 2 2c-3-10 0-26-9-21"/><path fill="#6A4A35" d="M330 282c14 12 47 25 58 29-1-2 1-4-1-6-16-2-34-11-55-24"/><path fill="#A08155" d="M238 229c-4 2-9 4-13 6-2-3 0-6-5-5 6 0-1 3-1 5 6 3 12 8 19 7 2-5 12-13 1-12"/><path fill="#71482A" d="M163 269c2-1 2 4 3 6 2-1 3-2 5-3 3 0 5 2 7 4 7-6 16 7 13-6 4 6 4 9 6 10-17-9-12 5-24-4-4 0-6 2-8 4-2-3-3-5-2-9"/><path fill="#6B492F" d="M129 271c-9 0-11 13-2 4 3 9 3 17 10 22 14 3 29-3 38 6-10-12-28-1-38-15-9 0-7-12-7-17"/><path fill="#1D0D0B" d="M310 206c-6 8-4 3-20 8 4 3 4 9 6 11-1-3 0-7-5-9 4-3 7-2 10-1 6 4 11 4 7 11 4-5 12-11 18-10 6-1 10-4 11-8-2 3-5 8-8 8-11 0-17-5-18-9"/><path fill="#7C532F" d="M236 140c22-3 3 8-3 14-4 3-4-1-5-1-1-4 1-7 3-10h3v-2l2 1"/><path fill="#D0A987" d="M469 170c-4 1-4 5-5 8-3-4-8 0-39 27 12-10 29-13 38-24 3 1 3 5 4 8 0-6-3-12 0-17 3 0 9-1 3-1"/><path fill="#7A7981" d="M392 348c5 13 18 26 23 41 2-8-6-16-4-21-9-8-12-11-16-19"/><path fill="#5C4835" d="M330 335c8 7 16 13 23 20 6 0 11-2 14 3 6 8 7 2 11 3-3-6-4-12-10-16 4 2 2 6 1 13-12-16-23-1-37-23"/><path fill="#33353D" d="M124 421c-3 8 8 19 14 26 2-8-6-19-12-24"/><path fill="#6A6B7C" d="M389 278c5 15 0 29-3 43 2-4 7-8 8-13 0-12 3-22-3-30"/><path fill="#351E11" d="M200 115c-10 9 8-2 1 19 6 1 8 1 10-1-4-2 7-3 2-7 6-1 4 2 3 3v3-3c2-1 2-9-1-3-1-5 3-4 1-7-3 6-1 5-6 8-8-6 2-5-2-7-2-1-10 0-9-3"/><path fill="#36241B" d="M350 294c8 5 4 10 12 16 7 6 16 4 19 8-2 7-6 3-8 8 2 1 4-1 6-2-1-2 9-5 4-10-6 3-8-3-14-1-5-2-5-13-18-18"/><path fill="#0B0807" d="M335 160c-3 5-2 14 2 18 7-2 5-8 6-11-2-4-4-4-6-5"/><path fill="#7E5631" d="M239 141c-6 2-10 5-12 11 3 3 29-14 14-11"/><path fill="#714928" d="M158 256c11 3-3 9-10 20-2-5-1-8 0-10 3-5 3 2 2 2 2-3 6-6 7-10"/><path fill="#210F08" d="M289 113c13 8 17 6 27 10 12 10 23 20 29 30-8-16-6-10-9-23-19-1-3-6-18-5-11-7-17-4-27-11"/><path fill="#E9D8AE" d="M333 181c-1 5-4 10-7 15 4-1 8 0 12 0 0-5 1-12-4-13"/><path fill="#2C170B" d="M206 113c-4-1-5 4-7 4l-1 2v-3c3 4 8 0 10 1 0 5-3 9-4 15 5-4 4-5 11-13 0-5-4-7-7-7"/><path fill="#4C3426" d="M349 293c5 4 16 6 16 14-1 4 17 6 21 9 2-2-1-4 1-7-6 7-10-10-11 0-10-5-17-11-25-15"/><path fill="#261C18" d="M119 312c5 9 2 14 2 23-4 0-5-12-3-21"/><path fill="#2F2623" d="M333 300c4 5 8 13 14 20 4 2 9 7 14 7-11-14-19-12-25-25"/><path fill="#654B36" d="M404 234c-14 10-28 19-42 29 14-3 29-18 40-27"/><path fill="#463A35" d="M326 297c-3 1-6 4-8 6-1-8-7-2-12-3 2 0 3 1 6 0-6 7-14 9-17 16 7-3 14-8 20-12 11-10 10 2 13-7"/><path fill="#2B2223" d="M381 328c-9 5 4 21 8 27 1 6-5 8-7 10 6-1 7-4 8-7l-1-3v-1h1v-3c-6-5-9-21-10-20"/><path fill="#090302" d="M370 454c-7 5-15 8-22 13 3-9 52-11 23-14"/><path fill="#DAC58D" d="M241 266c3-1 1 6 5 6 2 0-1-4 1-5 2 7 2 11 2 16-5-4-8-9-9-14"/><path fill="#C06C41" d="M483 190c0 1-11 4-6 7 3 0 9 3 8 3 1-5 6-6 0-11"/><path fill="#D2BA8B" d="M340 204c5 10 14 16 17 18-6-8-8-17-14-17"/><path fill="#B79B6B" d="M262 206c-9 2-14 12-17 19-13 5-20 2-32 5 13 4 14 2 30-2 3-9 11-17 19-22"/><path fill="#734B2D" d="M146 237c2 3-13 13-12 21-1-7 2-13 9-18"/><path fill="#211009" d="M330 418c1 12-9 34-16 33 8-4 13-11 15-19 3 1 2 6 3 11 6-3 9-9 12-14 2 1 0 8 2 7-1-22 0-9-13 8-1-9-1-17-3-24"/><path fill="#94B4C7" d="M114 309c-3 12-4 25-5 38 5-7 3-25 5-36"/><path fill="#63422C" d="M345 177c-1 3-5 4-3 8 1 3 2 4 4 6 4 0 3-3 4-4-2-3-7-5-4-9"/><path fill="#513625" d="M189 296c0 1 8 13 15 10 3 6 5 8 7 10 5 3 10 3 13 1-3-4-3-4 1-1-8 2-14-1-20-5 1-5 1-1 3-2l2 1 1 1 1-2c-1-3-2-5-2-7-2 1 2 4 0 7-7-8-16-4-20-13"/><path fill="#DBC691" d="M344 355c7-1 10 7 9 11-8 0-4-5-9-8"/><path fill="#9C4123" d="M476 184c-5 3 0 7-2 11 2 2 5 4 7 5s-4-2-6-4c4-5 7-7 9-7-1-4-6-1-7-6"/><path fill="#0B0201" d="M277 207c-8 4 12 10 17 16-2-3-4-7-5-9-4-1-8-2-12-5"/><path fill="#BBB" d="M422 209c-9 5-18 11-26 17 9-4 19-10 27-16"/><path fill="#AE7E53" d="M466 189c1 14-18 15-26 23 11-3 19-9 28-15 1-3-5-3-3-6"/><path fill="#8A6444" d="M411 230c-22 11-26 12-52 33 27-18 25-16 51-33"/><path fill="#38281D" d="M435 214c-6 14-17 12-27 22 13-8 7 1 27-14-4-2 2-5 0-7"/><path fill="#281C18" d="M119 313c-1 11-3 9-2 24 6-3 1-10 5-13-4-2-1-4-1-8"/><path fill="#220F09" d="M243 331c-8 6-18 9-27 15-4 10 7 8 10 16-4 2-4 6-8 7 4-3 8-6 14-4-2-1-3 0-3-1-4-7-9-12-13-14 8-8 22-16 27-17"/><path fill="#78553F" d="M217 300c-5 7 7 6 9 10 2-7-5-8-7-10"/><path fill="#7F6E60" d="M314 225c-3 2-6 6-10 8-13 1-20 0-31 0 9 4 16 1 27 3 6-1 9-7 13-9"/><path fill="#87AEBD" d="M112 349c-3 15-3 32 2 47-2-15-3-30-2-46"/><path fill="#3D2D27" d="M313 445c5 2-2 14-8 10 1-3 3-5 5-8"/><path fill="#CDB583" d="M328 196c-8 8 8 0 6 10 2-2 3-4 4-5-1-4-4-4-7-4"/><path fill="#5D3B22" d="M156 358c8 0-1 11 1 16-4-4-2-9-1-14"/><path fill="#7F321A" d="M471 178c0 3 0 10 3 13-3-2-1-5 1-7 4 0 4 2 8 1-2-7-4-3-10-7"/><path fill="#895D3A" d="M330 140c4 2 5 5 7 8-1 2-3 3-5 4-3 7-4 12-6 17-1 2 0 3 1 2 9 5 0-10 6-16 2-5 5-7 8-5l-9-9"/><path fill="#A1AFBD" d="M246 112c-6 1-12 2-17 5 6-4 51-4 17-6"/><path fill="#231007" d="M240 397c-2 3 0 7-1 9 1 0 1-1 2-2 17 20 42 31 54 40-7-12-34-13-54-46"/><path fill="#7B7979" d="M359 192c-7 8 33-1 45 6-12-6-37-1-44-6"/><path fill="#342A21" d="M269 336c-9 4-17 10-25 16 8-1 15-9 23-14"/><path fill="#43382F" d="M320 171c-4 2-11-2-13 4 4-5 19 9 12-6"/><path fill="#3E1F27" d="M292 214c1 3 5 4 5 7 1-1 7-3 8 0-1-6-7-6-11-7"/><path fill="#6D4523" d="M173 243c-2 1-2 1-3 3h-2l3-2c-4 14-13 14-14 17 0 2 24-17 15-16"/><path fill="#5E433B" d="M361 466c-9 3 10 7 12 5-2-3-6-4-9-5"/><path fill="#9AB2C3" d="M164 200c-4 2-7 4-11 7 3 1 8 2 3 5 6-5 7-9 10-12"/><path fill="#30271E" d="M308 171c-9 2-8 5 0 7-2-1-4-4 0-5 3-4 7-2 9-3 8 2 5 8 1 9 4-1 5 1 9 0-3-4-3-8-8-7-4-2-7-2-9-1"/><path fill="#BAA072" d="M330 200c-5 1-7 3 0 9 2-2 6-1 6-3-4 4-1-5-6-4"/><path fill="#694C3A" d="M361 268c7 4 12 10 17 16 0-3-8-6-4-8 10 5-3 1 9 9 2 1-1-8 3-5 2 6 5 12 4 15 0-4 1-9-1-13h-1l-3-3c-4 8-2-1-8-4-7 0-10-3-13-6"/><path fill="#413B37" d="M249 348c-8 3-15 12-25 9 3 1 4 2 5 5 14-10 22-4 14-13"/><path fill="#BF9970" d="M223 345c-6 5 2 9 6 5-1-3-2-5-5-4"/><path fill="#DAC78F" d="M266 296c6-2 5 9 2 11-3-4-1-5-2-9"/><path fill="#413D3A" d="M273 332c-9 3-5 10-20 17 8-7 16-7 23-16"/><path fill="#BC9063" d="M268 325c-9 3-19 7-25 14 8-3 15-9 23-13"/><path fill="#744B2A" d="M138 255c6 0-4 9-5 12-2-4 1-7 3-9"/><path fill="#38241D" d="M316 275c-12 8 10 6 17 13-2-9-15-4-19-11"/><path fill="#D8A875" d="M459 197c-10 0-15 11-25 11 11 2 16-8 27-12"/><path fill="#291D16" d="M260 457c5-1 12-1 15 2-4 1-8 1-12-1"/><path fill="#38241B" d="M313 258c5 10-3 6 4 12 6-5 7 5 11 2-4-4-14-9-13-12"/><path fill="#828898" d="M402 360c2 0 8 6 9 9-4 4-7-4-8-6"/></svg>